<?xml version="1.0" encoding="UTF-8" standalone="no"?>
<!DOCTYPE svg PUBLIC "-//W3C//DTD SVG 1.1//EN"
 "http://www.w3.org/Graphics/SVG/1.1/DTD/svg11.dtd">
<!-- Generated by graphviz version 2.40.1 (20161225.0304)
 -->
<!-- Title: /home/dominik/uni/MoonState/include/bufArray.hpp Pages: 1 -->
<svg width="1301pt" height="307pt"
 viewBox="0.00 0.00 1301.02 307.00" xmlns="http://www.w3.org/2000/svg" xmlns:xlink="http://www.w3.org/1999/xlink">
<g id="graph0" class="graph" transform="scale(1 1) rotate(0) translate(4 303)">
<title>/home/dominik/uni/MoonState/include/bufArray.hpp</title>
<!-- Node6 -->
<g id="node1" class="node">
<title>Node6</title>
<polygon fill="#bfbfbf" stroke="#000000" points="612.0219,-268.5 612.0219,-298.5 759.0219,-298.5 759.0219,-268.5 612.0219,-268.5"/>
<text text-anchor="start" x="620.0219" y="-286.5" font-family="Helvetica,sans-Serif" font-size="10.00" fill="#000000">/home/dominik/uni/MoonState</text>
<text text-anchor="middle" x="685.5219" y="-275.5" font-family="Helvetica,sans-Serif" font-size="10.00" fill="#000000">/include/bufArray.hpp</text>
</g>
<!-- Node7 -->
<g id="node2" class="node">
<title>Node7</title>
<g id="a_node2"><a xlink:href="stateMachine_8hpp.html" target="_top" xlink:title="/home/dominik/uni/MoonState\l/include/stateMachine.hpp">
<polygon fill="none" stroke="#000000" points="612.0219,-201.5 612.0219,-231.5 759.0219,-231.5 759.0219,-201.5 612.0219,-201.5"/>
<text text-anchor="start" x="620.0219" y="-219.5" font-family="Helvetica,sans-Serif" font-size="10.00" fill="#000000">/home/dominik/uni/MoonState</text>
<text text-anchor="middle" x="685.5219" y="-208.5" font-family="Helvetica,sans-Serif" font-size="10.00" fill="#000000">/include/stateMachine.hpp</text>
</a>
</g>
</g>
<!-- Node6&#45;&gt;Node7 -->
<g id="edge1" class="edge">
<title>Node6&#45;&gt;Node7</title>
<path fill="none" stroke="#191970" d="M685.5219,-258.0249C685.5219,-249.128 685.5219,-239.4287 685.5219,-231.6432"/>
<polygon fill="#191970" stroke="#191970" points="682.022,-258.2966 685.5219,-268.2967 689.022,-258.2967 682.022,-258.2966"/>
</g>
<!-- Node12 -->
<g id="node7" class="node">
<title>Node12</title>
<g id="a_node7"><a xlink:href="helloBye2__C_8cpp.html" target="_top" xlink:title="/home/dominik/uni/MoonState\l/src/helloBye2_C.cpp">
<polygon fill="none" stroke="#000000" points="15.0219,-.5 15.0219,-30.5 162.0219,-30.5 162.0219,-.5 15.0219,-.5"/>
<text text-anchor="start" x="23.0219" y="-18.5" font-family="Helvetica,sans-Serif" font-size="10.00" fill="#000000">/home/dominik/uni/MoonState</text>
<text text-anchor="middle" x="88.5219" y="-7.5" font-family="Helvetica,sans-Serif" font-size="10.00" fill="#000000">/src/helloBye2_C.cpp</text>
</a>
</g>
</g>
<!-- Node6&#45;&gt;Node12 -->
<g id="edge18" class="edge">
<title>Node6&#45;&gt;Node12</title>
<path fill="none" stroke="#191970" d="M601.7486,-274.0683C435.1427,-253.3093 72.4598,-197.4269 5.5219,-98 -2.1726,-86.571 -1.1768,-79.0397 5.5219,-67 14.6738,-50.5509 31.4936,-38.6841 47.6111,-30.5184"/>
<polygon fill="#191970" stroke="#191970" points="601.5978,-277.5761 611.951,-275.3261 602.4544,-270.6287 601.5978,-277.5761"/>
</g>
<!-- Node17 -->
<g id="node12" class="node">
<title>Node17</title>
<g id="a_node12"><a xlink:href="helloBye__C_8cpp.html" target="_top" xlink:title="/home/dominik/uni/MoonState\l/src/helloBye_C.cpp">
<polygon fill="none" stroke="#000000" points="1146.0219,-.5 1146.0219,-30.5 1293.0219,-30.5 1293.0219,-.5 1146.0219,-.5"/>
<text text-anchor="start" x="1154.0219" y="-18.5" font-family="Helvetica,sans-Serif" font-size="10.00" fill="#000000">/home/dominik/uni/MoonState</text>
<text text-anchor="middle" x="1219.5219" y="-7.5" font-family="Helvetica,sans-Serif" font-size="10.00" fill="#000000">/src/helloBye_C.cpp</text>
</a>
</g>
</g>
<!-- Node6&#45;&gt;Node17 -->
<g id="edge19" class="edge">
<title>Node6&#45;&gt;Node17</title>
<path fill="none" stroke="#191970" d="M763.2976,-266.1248C846.9808,-246.2614 983.1795,-210.5287 1095.5219,-165 1154.303,-141.1779 1188.8564,-152.3662 1221.5219,-98 1233.9183,-77.3682 1229.1831,-48.2858 1224.4628,-30.7297"/>
<polygon fill="#191970" stroke="#191970" points="762.2879,-262.7668 753.3578,-268.4681 763.8941,-269.58 762.2879,-262.7668"/>
</g>
<!-- Node8 -->
<g id="node3" class="node">
<title>Node8</title>
<g id="a_node3"><a xlink:href="dtlsClient_8hpp.html" target="_top" xlink:title="/home/dominik/uni/MoonState\l/include/dtlsClient.hpp">
<polygon fill="none" stroke="#000000" points="510.0219,-134.5 510.0219,-164.5 657.0219,-164.5 657.0219,-134.5 510.0219,-134.5"/>
<text text-anchor="start" x="518.0219" y="-152.5" font-family="Helvetica,sans-Serif" font-size="10.00" fill="#000000">/home/dominik/uni/MoonState</text>
<text text-anchor="middle" x="583.5219" y="-141.5" font-family="Helvetica,sans-Serif" font-size="10.00" fill="#000000">/include/dtlsClient.hpp</text>
</a>
</g>
</g>
<!-- Node7&#45;&gt;Node8 -->
<g id="edge2" class="edge">
<title>Node7&#45;&gt;Node8</title>
<path fill="none" stroke="#191970" d="M654.001,-195.7951C638.7173,-185.7558 620.6871,-173.9124 606.6892,-164.7177"/>
<polygon fill="#191970" stroke="#191970" points="652.3514,-198.8991 662.6311,-201.4639 656.1945,-193.0484 652.3514,-198.8991"/>
</g>
<!-- Node10 -->
<g id="node5" class="node">
<title>Node10</title>
<g id="a_node5"><a xlink:href="helloBye2Proto_8hpp.html" target="_top" xlink:title="/home/dominik/uni/MoonState\l/include/helloBye2Proto.hpp">
<polygon fill="none" stroke="#000000" points="180.0219,-134.5 180.0219,-164.5 327.0219,-164.5 327.0219,-134.5 180.0219,-134.5"/>
<text text-anchor="start" x="188.0219" y="-152.5" font-family="Helvetica,sans-Serif" font-size="10.00" fill="#000000">/home/dominik/uni/MoonState</text>
<text text-anchor="middle" x="253.5219" y="-141.5" font-family="Helvetica,sans-Serif" font-size="10.00" fill="#000000">/include/helloBye2Proto.hpp</text>
</a>
</g>
</g>
<!-- Node7&#45;&gt;Node10 -->
<g id="edge4" class="edge">
<title>Node7&#45;&gt;Node10</title>
<path fill="none" stroke="#191970" d="M601.7522,-203.5079C522.122,-191.1579 403.5204,-172.7637 327.3515,-160.9504"/>
<polygon fill="#191970" stroke="#191970" points="601.331,-206.9844 611.7493,-205.0584 602.4039,-200.0671 601.331,-206.9844"/>
</g>
<!-- Node7&#45;&gt;Node12 -->
<g id="edge16" class="edge">
<title>Node7&#45;&gt;Node12</title>
<path fill="none" stroke="#191970" d="M690.6421,-191.1366C695.7873,-157.5488 698.8111,-98.8567 665.5219,-67 629.8498,-32.8629 309.3828,-20.7943 162.0379,-17.0243"/>
<polygon fill="#191970" stroke="#191970" points="687.1751,-190.6471 688.9403,-201.0938 694.075,-191.8264 687.1751,-190.6471"/>
</g>
<!-- Node15 -->
<g id="node10" class="node">
<title>Node15</title>
<g id="a_node10"><a xlink:href="helloByeProto_8hpp.html" target="_top" xlink:title="/home/dominik/uni/MoonState\l/include/helloByeProto.hpp">
<polygon fill="none" stroke="#000000" points="714.0219,-134.5 714.0219,-164.5 861.0219,-164.5 861.0219,-134.5 714.0219,-134.5"/>
<text text-anchor="start" x="722.0219" y="-152.5" font-family="Helvetica,sans-Serif" font-size="10.00" fill="#000000">/home/dominik/uni/MoonState</text>
<text text-anchor="middle" x="787.5219" y="-141.5" font-family="Helvetica,sans-Serif" font-size="10.00" fill="#000000">/include/helloByeProto.hpp</text>
</a>
</g>
</g>
<!-- Node7&#45;&gt;Node15 -->
<g id="edge10" class="edge">
<title>Node7&#45;&gt;Node15</title>
<path fill="none" stroke="#191970" d="M717.0428,-195.7951C732.3264,-185.7558 750.3567,-173.9124 764.3546,-164.7177"/>
<polygon fill="#191970" stroke="#191970" points="714.8493,-193.0484 708.4127,-201.4639 718.6924,-198.8991 714.8493,-193.0484"/>
</g>
<!-- Node7&#45;&gt;Node17 -->
<g id="edge17" class="edge">
<title>Node7&#45;&gt;Node17</title>
<path fill="none" stroke="#191970" d="M769.3307,-207.9665C899.264,-193.0247 1140.6289,-157.8812 1200.5219,-98 1218.3995,-80.1259 1220.831,-49.0283 1220.5018,-30.5449"/>
<polygon fill="#191970" stroke="#191970" points="768.5669,-204.5306 759.0254,-209.136 769.3563,-211.4859 768.5669,-204.5306"/>
</g>
<!-- Node9 -->
<g id="node4" class="node">
<title>Node9</title>
<g id="a_node4"><a xlink:href="dtlsClient_8cpp.html" target="_top" xlink:title="/home/dominik/uni/MoonState\l/src/dtlsClient.cpp">
<polygon fill="none" stroke="#000000" points="510.0219,-67.5 510.0219,-97.5 657.0219,-97.5 657.0219,-67.5 510.0219,-67.5"/>
<text text-anchor="start" x="518.0219" y="-85.5" font-family="Helvetica,sans-Serif" font-size="10.00" fill="#000000">/home/dominik/uni/MoonState</text>
<text text-anchor="middle" x="583.5219" y="-74.5" font-family="Helvetica,sans-Serif" font-size="10.00" fill="#000000">/src/dtlsClient.cpp</text>
</a>
</g>
</g>
<!-- Node8&#45;&gt;Node9 -->
<g id="edge3" class="edge">
<title>Node8&#45;&gt;Node9</title>
<path fill="none" stroke="#191970" d="M583.5219,-124.0249C583.5219,-115.128 583.5219,-105.4287 583.5219,-97.6432"/>
<polygon fill="#191970" stroke="#191970" points="580.022,-124.2966 583.5219,-134.2967 587.022,-124.2967 580.022,-124.2966"/>
</g>
<!-- Node11 -->
<g id="node6" class="node">
<title>Node11</title>
<g id="a_node6"><a xlink:href="helloBye2__C_8hpp.html" target="_top" xlink:title="/home/dominik/uni/MoonState\l/include/helloBye2_C.hpp">
<polygon fill="none" stroke="#000000" points="15.0219,-67.5 15.0219,-97.5 162.0219,-97.5 162.0219,-67.5 15.0219,-67.5"/>
<text text-anchor="start" x="23.0219" y="-85.5" font-family="Helvetica,sans-Serif" font-size="10.00" fill="#000000">/home/dominik/uni/MoonState</text>
<text text-anchor="middle" x="88.5219" y="-74.5" font-family="Helvetica,sans-Serif" font-size="10.00" fill="#000000">/include/helloBye2_C.hpp</text>
</a>
</g>
</g>
<!-- Node10&#45;&gt;Node11 -->
<g id="edge5" class="edge">
<title>Node10&#45;&gt;Node11</title>
<path fill="none" stroke="#191970" d="M206.9516,-130.5897C181.2464,-120.1518 149.7576,-107.3654 125.7126,-97.6017"/>
<polygon fill="#191970" stroke="#191970" points="205.9106,-133.9444 216.4927,-134.4639 208.5442,-127.4587 205.9106,-133.9444"/>
</g>
<!-- Node13 -->
<g id="node8" class="node">
<title>Node13</title>
<g id="a_node8"><a xlink:href="helloBye2Proto_8cpp.html" target="_top" xlink:title="/home/dominik/uni/MoonState\l/src/helloBye2Proto.cpp">
<polygon fill="none" stroke="#000000" points="180.0219,-67.5 180.0219,-97.5 327.0219,-97.5 327.0219,-67.5 180.0219,-67.5"/>
<text text-anchor="start" x="188.0219" y="-85.5" font-family="Helvetica,sans-Serif" font-size="10.00" fill="#000000">/home/dominik/uni/MoonState</text>
<text text-anchor="middle" x="253.5219" y="-74.5" font-family="Helvetica,sans-Serif" font-size="10.00" fill="#000000">/src/helloBye2Proto.cpp</text>
</a>
</g>
</g>
<!-- Node10&#45;&gt;Node13 -->
<g id="edge7" class="edge">
<title>Node10&#45;&gt;Node13</title>
<path fill="none" stroke="#191970" d="M246.9603,-124.3179C246.5458,-115.3414 246.8151,-105.5143 247.7683,-97.6432"/>
<polygon fill="#191970" stroke="#191970" points="243.4723,-124.6087 247.7611,-134.2967 250.4499,-124.0487 243.4723,-124.6087"/>
</g>
<!-- Node14 -->
<g id="node9" class="node">
<title>Node14</title>
<g id="a_node9"><a xlink:href="helloBye2ProtoStatic_8cpp.html" target="_top" xlink:title="/home/dominik/uni/MoonState\l/src/helloBye2ProtoStatic.cpp">
<polygon fill="none" stroke="#000000" points="345.0219,-67.5 345.0219,-97.5 492.0219,-97.5 492.0219,-67.5 345.0219,-67.5"/>
<text text-anchor="start" x="353.0219" y="-85.5" font-family="Helvetica,sans-Serif" font-size="10.00" fill="#000000">/home/dominik/uni/MoonState</text>
<text text-anchor="middle" x="418.5219" y="-74.5" font-family="Helvetica,sans-Serif" font-size="10.00" fill="#000000">/src/helloBye2ProtoStatic.cpp</text>
</a>
</g>
</g>
<!-- Node10&#45;&gt;Node14 -->
<g id="edge9" class="edge">
<title>Node10&#45;&gt;Node14</title>
<path fill="none" stroke="#191970" d="M300.0921,-130.5897C325.7974,-120.1518 357.2861,-107.3654 381.3312,-97.6017"/>
<polygon fill="#191970" stroke="#191970" points="298.4996,-127.4587 290.5511,-134.4639 301.1332,-133.9444 298.4996,-127.4587"/>
</g>
<!-- Node11&#45;&gt;Node12 -->
<g id="edge6" class="edge">
<title>Node11&#45;&gt;Node12</title>
<path fill="none" stroke="#191970" d="M88.5219,-57.0249C88.5219,-48.128 88.5219,-38.4287 88.5219,-30.6432"/>
<polygon fill="#191970" stroke="#191970" points="85.022,-57.2966 88.5219,-67.2967 92.022,-57.2967 85.022,-57.2966"/>
</g>
<!-- Node13&#45;&gt;Node10 -->
<g id="edge8" class="edge">
<title>Node13&#45;&gt;Node10</title>
<path fill="none" stroke="#191970" d="M260.0803,-107.6135C260.4983,-116.5857 260.2324,-126.4156 259.2827,-134.2967"/>
<polygon fill="#191970" stroke="#191970" points="263.5688,-107.3291 259.2754,-97.6432 256.5915,-107.8924 263.5688,-107.3291"/>
</g>
<!-- Node16 -->
<g id="node11" class="node">
<title>Node16</title>
<g id="a_node11"><a xlink:href="helloBye__C_8hpp.html" target="_top" xlink:title="/home/dominik/uni/MoonState\l/include/helloBye_C.hpp">
<polygon fill="none" stroke="#000000" points="1044.0219,-67.5 1044.0219,-97.5 1191.0219,-97.5 1191.0219,-67.5 1044.0219,-67.5"/>
<text text-anchor="start" x="1052.0219" y="-85.5" font-family="Helvetica,sans-Serif" font-size="10.00" fill="#000000">/home/dominik/uni/MoonState</text>
<text text-anchor="middle" x="1117.5219" y="-74.5" font-family="Helvetica,sans-Serif" font-size="10.00" fill="#000000">/include/helloBye_C.hpp</text>
</a>
</g>
</g>
<!-- Node15&#45;&gt;Node16 -->
<g id="edge11" class="edge">
<title>Node15&#45;&gt;Node16</title>
<path fill="none" stroke="#191970" d="M871.2594,-132.4988C924.4565,-121.6981 992.6733,-107.848 1043.8145,-97.4648"/>
<polygon fill="#191970" stroke="#191970" points="870.2732,-129.1275 861.1696,-134.5473 871.6661,-135.9875 870.2732,-129.1275"/>
</g>
<!-- Node18 -->
<g id="node13" class="node">
<title>Node18</title>
<g id="a_node13"><a xlink:href="helloByeProto_8cpp.html" target="_top" xlink:title="/home/dominik/uni/MoonState\l/src/helloByeProto.cpp">
<polygon fill="none" stroke="#000000" points="714.0219,-67.5 714.0219,-97.5 861.0219,-97.5 861.0219,-67.5 714.0219,-67.5"/>
<text text-anchor="start" x="722.0219" y="-85.5" font-family="Helvetica,sans-Serif" font-size="10.00" fill="#000000">/home/dominik/uni/MoonState</text>
<text text-anchor="middle" x="787.5219" y="-74.5" font-family="Helvetica,sans-Serif" font-size="10.00" fill="#000000">/src/helloByeProto.cpp</text>
</a>
</g>
</g>
<!-- Node15&#45;&gt;Node18 -->
<g id="edge13" class="edge">
<title>Node15&#45;&gt;Node18</title>
<path fill="none" stroke="#191970" d="M780.9603,-124.3179C780.5458,-115.3414 780.8151,-105.5143 781.7683,-97.6432"/>
<polygon fill="#191970" stroke="#191970" points="777.4723,-124.6087 781.7611,-134.2967 784.4499,-124.0487 777.4723,-124.6087"/>
</g>
<!-- Node19 -->
<g id="node14" class="node">
<title>Node19</title>
<g id="a_node14"><a xlink:href="helloByeProtoStatic_8cpp.html" target="_top" xlink:title="/home/dominik/uni/MoonState\l/src/helloByeProtoStatic.cpp">
<polygon fill="none" stroke="#000000" points="879.0219,-67.5 879.0219,-97.5 1026.0219,-97.5 1026.0219,-67.5 879.0219,-67.5"/>
<text text-anchor="start" x="887.0219" y="-85.5" font-family="Helvetica,sans-Serif" font-size="10.00" fill="#000000">/home/dominik/uni/MoonState</text>
<text text-anchor="middle" x="952.5219" y="-74.5" font-family="Helvetica,sans-Serif" font-size="10.00" fill="#000000">/src/helloByeProtoStatic.cpp</text>
</a>
</g>
</g>
<!-- Node15&#45;&gt;Node19 -->
<g id="edge15" class="edge">
<title>Node15&#45;&gt;Node19</title>
<path fill="none" stroke="#191970" d="M834.0921,-130.5897C859.7974,-120.1518 891.2861,-107.3654 915.3312,-97.6017"/>
<polygon fill="#191970" stroke="#191970" points="832.4996,-127.4587 824.5511,-134.4639 835.1332,-133.9444 832.4996,-127.4587"/>
</g>
<!-- Node16&#45;&gt;Node17 -->
<g id="edge12" class="edge">
<title>Node16&#45;&gt;Node17</title>
<path fill="none" stroke="#191970" d="M1149.0428,-61.7951C1164.3264,-51.7558 1182.3567,-39.9124 1196.3546,-30.7177"/>
<polygon fill="#191970" stroke="#191970" points="1146.8493,-59.0484 1140.4127,-67.4639 1150.6924,-64.8991 1146.8493,-59.0484"/>
</g>
<!-- Node18&#45;&gt;Node15 -->
<g id="edge14" class="edge">
<title>Node18&#45;&gt;Node15</title>
<path fill="none" stroke="#191970" d="M794.0803,-107.6135C794.4983,-116.5857 794.2324,-126.4156 793.2827,-134.2967"/>
<polygon fill="#191970" stroke="#191970" points="797.5688,-107.3291 793.2754,-97.6432 790.5915,-107.8924 797.5688,-107.3291"/>
</g>
</g>
</svg>
