<?xml version="1.0" encoding="UTF-8" standalone="no"?>
<!DOCTYPE svg PUBLIC "-//W3C//DTD SVG 1.1//EN"
 "http://www.w3.org/Graphics/SVG/1.1/DTD/svg11.dtd">
<!-- Generated by graphviz version 2.38.0 (20140413.2041)
 -->
<!-- Title: /home/dominik/uni/MoonState/include/bufArray.hpp Pages: 1 -->
<svg width="587pt" height="307pt"
 viewBox="0.00 0.00 587.00 307.00" xmlns="http://www.w3.org/2000/svg" xmlns:xlink="http://www.w3.org/1999/xlink">
<g id="graph0" class="graph" transform="scale(1 1) rotate(0) translate(4 303)">
<title>/home/dominik/uni/MoonState/include/bufArray.hpp</title>
<!-- Node1 -->
<g id="node1" class="node"><title>Node1</title>
<polygon fill="#bfbfbf" stroke="black" points="419,-268.5 419,-298.5 566,-298.5 566,-268.5 419,-268.5"/>
<text text-anchor="start" x="427" y="-286.5" font-family="Helvetica,sans-Serif" font-size="10.00">/home/dominik/uni/MoonState</text>
<text text-anchor="middle" x="492.5" y="-275.5" font-family="Helvetica,sans-Serif" font-size="10.00">/include/bufArray.hpp</text>
</g>
<!-- Node2 -->
<g id="node2" class="node"><title>Node2</title>
<g id="a_node2"><a xlink:href="stateMachine_8hpp.html" target="_top" xlink:title="/home/dominik/uni/MoonState\l/include/stateMachine.hpp">
<polygon fill="none" stroke="black" points="368,-201.5 368,-231.5 515,-231.5 515,-201.5 368,-201.5"/>
<text text-anchor="start" x="376" y="-219.5" font-family="Helvetica,sans-Serif" font-size="10.00">/home/dominik/uni/MoonState</text>
<text text-anchor="middle" x="441.5" y="-208.5" font-family="Helvetica,sans-Serif" font-size="10.00">/include/stateMachine.hpp</text>
</a>
</g>
</g>
<!-- Node1&#45;&gt;Node2 -->
<g id="edge1" class="edge"><title>Node1&#45;&gt;Node2</title>
<path fill="none" stroke="midnightblue" d="M475.197,-260.447C467.705,-250.899 459.157,-240.004 452.545,-231.577"/>
<polygon fill="midnightblue" stroke="midnightblue" points="472.507,-262.689 481.434,-268.396 478.014,-258.368 472.507,-262.689"/>
</g>
<!-- Node5 -->
<g id="node5" class="node"><title>Node5</title>
<g id="a_node5"><a xlink:href="helloBye__C_8cpp.html" target="_top" xlink:title="/home/dominik/uni/MoonState\l/src/helloBye_C.cpp">
<polygon fill="none" stroke="black" points="432,-0.5 432,-30.5 579,-30.5 579,-0.5 432,-0.5"/>
<text text-anchor="start" x="440" y="-18.5" font-family="Helvetica,sans-Serif" font-size="10.00">/home/dominik/uni/MoonState</text>
<text text-anchor="middle" x="505.5" y="-7.5" font-family="Helvetica,sans-Serif" font-size="10.00">/src/helloBye_C.cpp</text>
</a>
</g>
</g>
<!-- Node1&#45;&gt;Node5 -->
<g id="edge9" class="edge"><title>Node1&#45;&gt;Node5</title>
<path fill="none" stroke="midnightblue" d="M509.91,-260.095C515.375,-251.747 520.707,-241.888 523.5,-232 544.267,-158.475 520.643,-65.6688 510.081,-30.6958"/>
<polygon fill="midnightblue" stroke="midnightblue" points="506.903,-258.288 504.042,-268.489 512.64,-262.299 506.903,-258.288"/>
</g>
<!-- Node3 -->
<g id="node3" class="node"><title>Node3</title>
<g id="a_node3"><a xlink:href="helloByeProto_8hpp.html" target="_top" xlink:title="/home/dominik/uni/MoonState\l/include/helloByeProto.hpp">
<polygon fill="none" stroke="black" points="165,-134.5 165,-164.5 312,-164.5 312,-134.5 165,-134.5"/>
<text text-anchor="start" x="173" y="-152.5" font-family="Helvetica,sans-Serif" font-size="10.00">/home/dominik/uni/MoonState</text>
<text text-anchor="middle" x="238.5" y="-141.5" font-family="Helvetica,sans-Serif" font-size="10.00">/include/helloByeProto.hpp</text>
</a>
</g>
</g>
<!-- Node2&#45;&gt;Node3 -->
<g id="edge2" class="edge"><title>Node2&#45;&gt;Node3</title>
<path fill="none" stroke="midnightblue" d="M387.558,-198.228C354.719,-187.713 313.3,-174.451 282.462,-164.577"/>
<polygon fill="midnightblue" stroke="midnightblue" points="386.861,-201.68 397.452,-201.396 388.996,-195.013 386.861,-201.68"/>
</g>
<!-- Node2&#45;&gt;Node5 -->
<g id="edge8" class="edge"><title>Node2&#45;&gt;Node5</title>
<path fill="none" stroke="midnightblue" d="M451.346,-191.724C460.868,-168.188 475.312,-130.997 485.5,-98 492.678,-74.7525 499.002,-47.1532 502.532,-30.7729"/>
<polygon fill="midnightblue" stroke="midnightblue" points="448.01,-190.636 447.472,-201.218 454.491,-193.281 448.01,-190.636"/>
</g>
<!-- Node4 -->
<g id="node4" class="node"><title>Node4</title>
<g id="a_node4"><a xlink:href="helloBye__C_8hpp.html" target="_top" xlink:title="/home/dominik/uni/MoonState\l/include/helloBye_C.hpp">
<polygon fill="none" stroke="black" points="0,-67.5 0,-97.5 147,-97.5 147,-67.5 0,-67.5"/>
<text text-anchor="start" x="8" y="-85.5" font-family="Helvetica,sans-Serif" font-size="10.00">/home/dominik/uni/MoonState</text>
<text text-anchor="middle" x="73.5" y="-74.5" font-family="Helvetica,sans-Serif" font-size="10.00">/include/helloBye_C.hpp</text>
</a>
</g>
</g>
<!-- Node3&#45;&gt;Node4 -->
<g id="edge3" class="edge"><title>Node3&#45;&gt;Node4</title>
<path fill="none" stroke="midnightblue" d="M193.268,-130.682C166.806,-120.257 133.866,-107.281 109.233,-97.5765"/>
<polygon fill="midnightblue" stroke="midnightblue" points="192.111,-133.987 202.697,-134.396 194.676,-127.474 192.111,-133.987"/>
</g>
<!-- Node6 -->
<g id="node6" class="node"><title>Node6</title>
<g id="a_node6"><a xlink:href="helloByeProto_8cpp.html" target="_top" xlink:title="/home/dominik/uni/MoonState\l/src/helloByeProto.cpp">
<polygon fill="none" stroke="black" points="165,-67.5 165,-97.5 312,-97.5 312,-67.5 165,-67.5"/>
<text text-anchor="start" x="173" y="-85.5" font-family="Helvetica,sans-Serif" font-size="10.00">/home/dominik/uni/MoonState</text>
<text text-anchor="middle" x="238.5" y="-74.5" font-family="Helvetica,sans-Serif" font-size="10.00">/src/helloByeProto.cpp</text>
</a>
</g>
</g>
<!-- Node3&#45;&gt;Node6 -->
<g id="edge5" class="edge"><title>Node3&#45;&gt;Node6</title>
<path fill="none" stroke="midnightblue" d="M231.955,-124.403C231.505,-115.37 231.796,-105.408 232.825,-97.5765"/>
<polygon fill="midnightblue" stroke="midnightblue" points="228.47,-124.736 232.822,-134.396 235.444,-124.131 228.47,-124.736"/>
</g>
<!-- Node7 -->
<g id="node7" class="node"><title>Node7</title>
<g id="a_node7"><a xlink:href="helloByeProtoStatic_8cpp.html" target="_top" xlink:title="/home/dominik/uni/MoonState\l/src/helloByeProtoStatic.cpp">
<polygon fill="none" stroke="black" points="330,-67.5 330,-97.5 477,-97.5 477,-67.5 330,-67.5"/>
<text text-anchor="start" x="338" y="-85.5" font-family="Helvetica,sans-Serif" font-size="10.00">/home/dominik/uni/MoonState</text>
<text text-anchor="middle" x="403.5" y="-74.5" font-family="Helvetica,sans-Serif" font-size="10.00">/src/helloByeProtoStatic.cpp</text>
</a>
</g>
</g>
<!-- Node3&#45;&gt;Node7 -->
<g id="edge7" class="edge"><title>Node3&#45;&gt;Node7</title>
<path fill="none" stroke="midnightblue" d="M283.732,-130.682C310.194,-120.257 343.134,-107.281 367.767,-97.5765"/>
<polygon fill="midnightblue" stroke="midnightblue" points="282.324,-127.474 274.303,-134.396 284.889,-133.987 282.324,-127.474"/>
</g>
<!-- Node4&#45;&gt;Node5 -->
<g id="edge4" class="edge"><title>Node4&#45;&gt;Node5</title>
<path fill="none" stroke="midnightblue" d="M157.272,-66.7412C257.887,-50.7028 363.382,-35.8282 431.991,-26.4156"/>
<polygon fill="midnightblue" stroke="midnightblue" points="156.56,-63.3106 147.239,-68.3471 157.666,-70.2226 156.56,-63.3106"/>
</g>
<!-- Node6&#45;&gt;Node3 -->
<g id="edge6" class="edge"><title>Node6&#45;&gt;Node3</title>
<path fill="none" stroke="midnightblue" d="M245.044,-107.565C245.495,-116.596 245.206,-126.56 244.178,-134.396"/>
<polygon fill="midnightblue" stroke="midnightblue" points="248.528,-107.236 244.175,-97.5765 241.555,-107.842 248.528,-107.236"/>
</g>
</g>
</svg>
