<?xml version="1.0" encoding="UTF-8" standalone="no"?>
<!DOCTYPE svg PUBLIC "-//W3C//DTD SVG 1.1//EN"
 "http://www.w3.org/Graphics/SVG/1.1/DTD/svg11.dtd">
<!-- Generated by graphviz version 2.40.1 (20161225.0304)
 -->
<!-- Title: /home/dominik/uni/MoonState/include/bufArray.hpp Pages: 1 -->
<svg width="1467pt" height="307pt"
 viewBox="0.00 0.00 1466.60 307.00" xmlns="http://www.w3.org/2000/svg" xmlns:xlink="http://www.w3.org/1999/xlink">
<g id="graph0" class="graph" transform="scale(1 1) rotate(0) translate(4 303)">
<title>/home/dominik/uni/MoonState/include/bufArray.hpp</title>
<!-- Node6 -->
<g id="node1" class="node">
<title>Node6</title>
<polygon fill="#bfbfbf" stroke="#000000" points="879.5972,-268.5 879.5972,-298.5 1026.5972,-298.5 1026.5972,-268.5 879.5972,-268.5"/>
<text text-anchor="start" x="887.5972" y="-286.5" font-family="Helvetica,sans-Serif" font-size="10.00" fill="#000000">/home/dominik/uni/MoonState</text>
<text text-anchor="middle" x="953.0972" y="-275.5" font-family="Helvetica,sans-Serif" font-size="10.00" fill="#000000">/include/bufArray.hpp</text>
</g>
<!-- Node7 -->
<g id="node2" class="node">
<title>Node7</title>
<g id="a_node2"><a xlink:href="stateMachine_8hpp.html" target="_top" xlink:title="/home/dominik/uni/MoonState\l/include/stateMachine.hpp">
<polygon fill="none" stroke="#000000" points="879.5972,-201.5 879.5972,-231.5 1026.5972,-231.5 1026.5972,-201.5 879.5972,-201.5"/>
<text text-anchor="start" x="887.5972" y="-219.5" font-family="Helvetica,sans-Serif" font-size="10.00" fill="#000000">/home/dominik/uni/MoonState</text>
<text text-anchor="middle" x="953.0972" y="-208.5" font-family="Helvetica,sans-Serif" font-size="10.00" fill="#000000">/include/stateMachine.hpp</text>
</a>
</g>
</g>
<!-- Node6&#45;&gt;Node7 -->
<g id="edge1" class="edge">
<title>Node6&#45;&gt;Node7</title>
<path fill="none" stroke="#191970" d="M953.0972,-258.0249C953.0972,-249.128 953.0972,-239.4287 953.0972,-231.6432"/>
<polygon fill="#191970" stroke="#191970" points="949.5973,-258.2966 953.0972,-268.2967 956.5973,-258.2967 949.5973,-258.2966"/>
</g>
<!-- Node12 -->
<g id="node7" class="node">
<title>Node12</title>
<g id="a_node7"><a xlink:href="helloBye2__C_8cpp.html" target="_top" xlink:title="/home/dominik/uni/MoonState\l/src/helloBye2_C.cpp">
<polygon fill="none" stroke="#000000" points="1311.5972,-.5 1311.5972,-30.5 1458.5972,-30.5 1458.5972,-.5 1311.5972,-.5"/>
<text text-anchor="start" x="1319.5972" y="-18.5" font-family="Helvetica,sans-Serif" font-size="10.00" fill="#000000">/home/dominik/uni/MoonState</text>
<text text-anchor="middle" x="1385.0972" y="-7.5" font-family="Helvetica,sans-Serif" font-size="10.00" fill="#000000">/src/helloBye2_C.cpp</text>
</a>
</g>
</g>
<!-- Node6&#45;&gt;Node12 -->
<g id="edge21" class="edge">
<title>Node6&#45;&gt;Node12</title>
<path fill="none" stroke="#191970" d="M1036.8156,-270.856C1149.0484,-252.2611 1339.9049,-214.3361 1389.0972,-165 1420.3651,-133.6407 1415.9758,-110.385 1407.0972,-67 1404.4852,-54.2362 1398.5799,-40.7242 1393.5447,-30.7444"/>
<polygon fill="#191970" stroke="#191970" points="1036.1761,-267.414 1026.8745,-272.4866 1037.3092,-274.3217 1036.1761,-267.414"/>
</g>
<!-- Node19 -->
<g id="node14" class="node">
<title>Node19</title>
<g id="a_node14"><a xlink:href="helloBye__C_8cpp.html" target="_top" xlink:title="/home/dominik/uni/MoonState\l/src/helloBye_C.cpp">
<polygon fill="none" stroke="#000000" points="15.5972,-.5 15.5972,-30.5 162.5972,-30.5 162.5972,-.5 15.5972,-.5"/>
<text text-anchor="start" x="23.5972" y="-18.5" font-family="Helvetica,sans-Serif" font-size="10.00" fill="#000000">/home/dominik/uni/MoonState</text>
<text text-anchor="middle" x="89.0972" y="-7.5" font-family="Helvetica,sans-Serif" font-size="10.00" fill="#000000">/src/helloBye_C.cpp</text>
</a>
</g>
</g>
<!-- Node6&#45;&gt;Node19 -->
<g id="edge22" class="edge">
<title>Node6&#45;&gt;Node19</title>
<path fill="none" stroke="#191970" d="M869.4554,-280.2314C658.722,-270.0616 115.018,-231.1772 6.0972,-98 -14.6758,-72.6008 23.7935,-46.4146 55.0253,-30.5429"/>
<polygon fill="#191970" stroke="#191970" points="869.3835,-283.7319 879.5378,-280.7083 869.7143,-276.7397 869.3835,-283.7319"/>
</g>
<!-- Node8 -->
<g id="node3" class="node">
<title>Node8</title>
<g id="a_node3"><a xlink:href="dtlsClient_8hpp.html" target="_top" xlink:title="/home/dominik/uni/MoonState\l/include/dtlsClient.hpp">
<polygon fill="none" stroke="#000000" points="1209.5972,-134.5 1209.5972,-164.5 1356.5972,-164.5 1356.5972,-134.5 1209.5972,-134.5"/>
<text text-anchor="start" x="1217.5972" y="-152.5" font-family="Helvetica,sans-Serif" font-size="10.00" fill="#000000">/home/dominik/uni/MoonState</text>
<text text-anchor="middle" x="1283.0972" y="-141.5" font-family="Helvetica,sans-Serif" font-size="10.00" fill="#000000">/include/dtlsClient.hpp</text>
</a>
</g>
</g>
<!-- Node7&#45;&gt;Node8 -->
<g id="edge2" class="edge">
<title>Node7&#45;&gt;Node8</title>
<path fill="none" stroke="#191970" d="M1036.8347,-199.4988C1090.0319,-188.6981 1158.2487,-174.848 1209.3898,-164.4648"/>
<polygon fill="#191970" stroke="#191970" points="1035.8486,-196.1275 1026.7449,-201.5473 1037.2414,-202.9875 1035.8486,-196.1275"/>
</g>
<!-- Node10 -->
<g id="node5" class="node">
<title>Node10</title>
<g id="a_node5"><a xlink:href="helloBye2Proto_8hpp.html" target="_top" xlink:title="/home/dominik/uni/MoonState\l/include/helloBye2Proto.hpp">
<polygon fill="none" stroke="#000000" points="714.5972,-134.5 714.5972,-164.5 861.5972,-164.5 861.5972,-134.5 714.5972,-134.5"/>
<text text-anchor="start" x="722.5972" y="-152.5" font-family="Helvetica,sans-Serif" font-size="10.00" fill="#000000">/home/dominik/uni/MoonState</text>
<text text-anchor="middle" x="788.0972" y="-141.5" font-family="Helvetica,sans-Serif" font-size="10.00" fill="#000000">/include/helloBye2Proto.hpp</text>
</a>
</g>
</g>
<!-- Node7&#45;&gt;Node10 -->
<g id="edge4" class="edge">
<title>Node7&#45;&gt;Node10</title>
<path fill="none" stroke="#191970" d="M906.527,-197.5897C880.8218,-187.1518 849.333,-174.3654 825.288,-164.6017"/>
<polygon fill="#191970" stroke="#191970" points="905.4859,-200.9444 916.068,-201.4639 908.1196,-194.4587 905.4859,-200.9444"/>
</g>
<!-- Node7&#45;&gt;Node12 -->
<g id="edge19" class="edge">
<title>Node7&#45;&gt;Node12</title>
<path fill="none" stroke="#191970" d="M1036.7819,-211.5046C1150.7269,-203.8902 1343.225,-187.8184 1366.0972,-165 1402.2156,-128.9666 1394.334,-61.0856 1388.5272,-30.782"/>
<polygon fill="#191970" stroke="#191970" points="1036.4342,-208.0198 1026.6864,-212.1709 1036.8952,-215.0046 1036.4342,-208.0198"/>
</g>
<!-- Node15 -->
<g id="node10" class="node">
<title>Node15</title>
<g id="a_node10"><a xlink:href="helloBye3_8hpp.html" target="_top" xlink:title="/home/dominik/uni/MoonState\l/include/helloBye3.hpp">
<polygon fill="none" stroke="#000000" points="1044.5972,-134.5 1044.5972,-164.5 1191.5972,-164.5 1191.5972,-134.5 1044.5972,-134.5"/>
<text text-anchor="start" x="1052.5972" y="-152.5" font-family="Helvetica,sans-Serif" font-size="10.00" fill="#000000">/home/dominik/uni/MoonState</text>
<text text-anchor="middle" x="1118.0972" y="-141.5" font-family="Helvetica,sans-Serif" font-size="10.00" fill="#000000">/include/helloBye3.hpp</text>
</a>
</g>
</g>
<!-- Node7&#45;&gt;Node15 -->
<g id="edge10" class="edge">
<title>Node7&#45;&gt;Node15</title>
<path fill="none" stroke="#191970" d="M999.6675,-197.5897C1025.3727,-187.1518 1056.8615,-174.3654 1080.9065,-164.6017"/>
<polygon fill="#191970" stroke="#191970" points="998.0749,-194.4587 990.1265,-201.4639 1000.7086,-200.9444 998.0749,-194.4587"/>
</g>
<!-- Node17 -->
<g id="node12" class="node">
<title>Node17</title>
<g id="a_node12"><a xlink:href="helloByeProto_8hpp.html" target="_top" xlink:title="/home/dominik/uni/MoonState\l/include/helloByeProto.hpp">
<polygon fill="none" stroke="#000000" points="345.5972,-134.5 345.5972,-164.5 492.5972,-164.5 492.5972,-134.5 345.5972,-134.5"/>
<text text-anchor="start" x="353.5972" y="-152.5" font-family="Helvetica,sans-Serif" font-size="10.00" fill="#000000">/home/dominik/uni/MoonState</text>
<text text-anchor="middle" x="419.0972" y="-141.5" font-family="Helvetica,sans-Serif" font-size="10.00" fill="#000000">/include/helloByeProto.hpp</text>
</a>
</g>
</g>
<!-- Node7&#45;&gt;Node17 -->
<g id="edge13" class="edge">
<title>Node7&#45;&gt;Node17</title>
<path fill="none" stroke="#191970" d="M869.4057,-208.3345C779.6337,-199.2261 632.9827,-183.338 507.0972,-165 502.492,-164.3291 497.7575,-163.6026 492.9875,-162.8428"/>
<polygon fill="#191970" stroke="#191970" points="869.2259,-211.8341 879.5271,-209.3572 869.9297,-204.8696 869.2259,-211.8341"/>
</g>
<!-- Node7&#45;&gt;Node19 -->
<g id="edge20" class="edge">
<title>Node7&#45;&gt;Node19</title>
<path fill="none" stroke="#191970" d="M869.4495,-202.9336C821.1647,-194.1442 759.5953,-181.2936 706.0972,-165 630.3824,-141.94 609.4406,-137.9209 541.0972,-98 521.978,-86.832 522.5101,-75.5783 502.0972,-67 442.5613,-41.9806 264.8114,-26.792 162.9579,-19.9036"/>
<polygon fill="#191970" stroke="#191970" points="869.0822,-206.4236 879.5436,-204.7473 870.3202,-199.5339 869.0822,-206.4236"/>
</g>
<!-- Node9 -->
<g id="node4" class="node">
<title>Node9</title>
<g id="a_node4"><a xlink:href="dtlsClient_8cpp.html" target="_top" xlink:title="/home/dominik/uni/MoonState\l/src/dtlsClient.cpp">
<polygon fill="none" stroke="#000000" points="1209.5972,-67.5 1209.5972,-97.5 1356.5972,-97.5 1356.5972,-67.5 1209.5972,-67.5"/>
<text text-anchor="start" x="1217.5972" y="-85.5" font-family="Helvetica,sans-Serif" font-size="10.00" fill="#000000">/home/dominik/uni/MoonState</text>
<text text-anchor="middle" x="1283.0972" y="-74.5" font-family="Helvetica,sans-Serif" font-size="10.00" fill="#000000">/src/dtlsClient.cpp</text>
</a>
</g>
</g>
<!-- Node8&#45;&gt;Node9 -->
<g id="edge3" class="edge">
<title>Node8&#45;&gt;Node9</title>
<path fill="none" stroke="#191970" d="M1283.0972,-124.0249C1283.0972,-115.128 1283.0972,-105.4287 1283.0972,-97.6432"/>
<polygon fill="#191970" stroke="#191970" points="1279.5973,-124.2966 1283.0972,-134.2967 1286.5973,-124.2967 1279.5973,-124.2966"/>
</g>
<!-- Node11 -->
<g id="node6" class="node">
<title>Node11</title>
<g id="a_node6"><a xlink:href="helloBye2__C_8hpp.html" target="_top" xlink:title="/home/dominik/uni/MoonState\l/include/helloBye2_C.hpp">
<polygon fill="none" stroke="#000000" points="879.5972,-67.5 879.5972,-97.5 1026.5972,-97.5 1026.5972,-67.5 879.5972,-67.5"/>
<text text-anchor="start" x="887.5972" y="-85.5" font-family="Helvetica,sans-Serif" font-size="10.00" fill="#000000">/home/dominik/uni/MoonState</text>
<text text-anchor="middle" x="953.0972" y="-74.5" font-family="Helvetica,sans-Serif" font-size="10.00" fill="#000000">/include/helloBye2_C.hpp</text>
</a>
</g>
</g>
<!-- Node10&#45;&gt;Node11 -->
<g id="edge5" class="edge">
<title>Node10&#45;&gt;Node11</title>
<path fill="none" stroke="#191970" d="M834.6675,-130.5897C860.3727,-120.1518 891.8615,-107.3654 915.9065,-97.6017"/>
<polygon fill="#191970" stroke="#191970" points="833.0749,-127.4587 825.1265,-134.4639 835.7086,-133.9444 833.0749,-127.4587"/>
</g>
<!-- Node13 -->
<g id="node8" class="node">
<title>Node13</title>
<g id="a_node8"><a xlink:href="helloBye2Proto_8cpp.html" target="_top" xlink:title="/home/dominik/uni/MoonState\l/src/helloBye2Proto.cpp">
<polygon fill="none" stroke="#000000" points="714.5972,-67.5 714.5972,-97.5 861.5972,-97.5 861.5972,-67.5 714.5972,-67.5"/>
<text text-anchor="start" x="722.5972" y="-85.5" font-family="Helvetica,sans-Serif" font-size="10.00" fill="#000000">/home/dominik/uni/MoonState</text>
<text text-anchor="middle" x="788.0972" y="-74.5" font-family="Helvetica,sans-Serif" font-size="10.00" fill="#000000">/src/helloBye2Proto.cpp</text>
</a>
</g>
</g>
<!-- Node10&#45;&gt;Node13 -->
<g id="edge7" class="edge">
<title>Node10&#45;&gt;Node13</title>
<path fill="none" stroke="#191970" d="M781.5357,-124.3179C781.1212,-115.3414 781.3905,-105.5143 782.3437,-97.6432"/>
<polygon fill="#191970" stroke="#191970" points="778.0477,-124.6087 782.3364,-134.2967 785.0252,-124.0487 778.0477,-124.6087"/>
</g>
<!-- Node14 -->
<g id="node9" class="node">
<title>Node14</title>
<g id="a_node9"><a xlink:href="helloBye2ProtoStatic_8cpp.html" target="_top" xlink:title="/home/dominik/uni/MoonState\l/src/helloBye2ProtoStatic.cpp">
<polygon fill="none" stroke="#000000" points="549.5972,-67.5 549.5972,-97.5 696.5972,-97.5 696.5972,-67.5 549.5972,-67.5"/>
<text text-anchor="start" x="557.5972" y="-85.5" font-family="Helvetica,sans-Serif" font-size="10.00" fill="#000000">/home/dominik/uni/MoonState</text>
<text text-anchor="middle" x="623.0972" y="-74.5" font-family="Helvetica,sans-Serif" font-size="10.00" fill="#000000">/src/helloBye2ProtoStatic.cpp</text>
</a>
</g>
</g>
<!-- Node10&#45;&gt;Node14 -->
<g id="edge9" class="edge">
<title>Node10&#45;&gt;Node14</title>
<path fill="none" stroke="#191970" d="M741.527,-130.5897C715.8218,-120.1518 684.333,-107.3654 660.288,-97.6017"/>
<polygon fill="#191970" stroke="#191970" points="740.4859,-133.9444 751.068,-134.4639 743.1196,-127.4587 740.4859,-133.9444"/>
</g>
<!-- Node11&#45;&gt;Node12 -->
<g id="edge6" class="edge">
<title>Node11&#45;&gt;Node12</title>
<path fill="none" stroke="#191970" d="M1036.9183,-66.8989C1137.9741,-50.1417 1242.9944,-35.0562 1311.4365,-25.5387"/>
<polygon fill="#191970" stroke="#191970" points="1036.1265,-63.4825 1026.8377,-68.5783 1037.2769,-70.3873 1036.1265,-63.4825"/>
</g>
<!-- Node13&#45;&gt;Node10 -->
<g id="edge8" class="edge">
<title>Node13&#45;&gt;Node10</title>
<path fill="none" stroke="#191970" d="M794.6556,-107.6135C795.0736,-116.5857 794.8078,-126.4156 793.8581,-134.2967"/>
<polygon fill="#191970" stroke="#191970" points="798.1441,-107.3291 793.8508,-97.6432 791.1668,-107.8924 798.1441,-107.3291"/>
</g>
<!-- Node16 -->
<g id="node11" class="node">
<title>Node16</title>
<g id="a_node11"><a xlink:href="helloBye3_8cpp.html" target="_top" xlink:title="/home/dominik/uni/MoonState\l/src/helloBye3.cpp">
<polygon fill="none" stroke="#000000" points="1044.5972,-67.5 1044.5972,-97.5 1191.5972,-97.5 1191.5972,-67.5 1044.5972,-67.5"/>
<text text-anchor="start" x="1052.5972" y="-85.5" font-family="Helvetica,sans-Serif" font-size="10.00" fill="#000000">/home/dominik/uni/MoonState</text>
<text text-anchor="middle" x="1118.0972" y="-74.5" font-family="Helvetica,sans-Serif" font-size="10.00" fill="#000000">/src/helloBye3.cpp</text>
</a>
</g>
</g>
<!-- Node15&#45;&gt;Node16 -->
<g id="edge11" class="edge">
<title>Node15&#45;&gt;Node16</title>
<path fill="none" stroke="#191970" d="M1111.5357,-124.3179C1111.1212,-115.3414 1111.3905,-105.5143 1112.3437,-97.6432"/>
<polygon fill="#191970" stroke="#191970" points="1108.0477,-124.6087 1112.3364,-134.2967 1115.0252,-124.0487 1108.0477,-124.6087"/>
</g>
<!-- Node16&#45;&gt;Node15 -->
<g id="edge12" class="edge">
<title>Node16&#45;&gt;Node15</title>
<path fill="none" stroke="#191970" d="M1124.6556,-107.6135C1125.0736,-116.5857 1124.8078,-126.4156 1123.8581,-134.2967"/>
<polygon fill="#191970" stroke="#191970" points="1128.1441,-107.3291 1123.8508,-97.6432 1121.1668,-107.8924 1128.1441,-107.3291"/>
</g>
<!-- Node18 -->
<g id="node13" class="node">
<title>Node18</title>
<g id="a_node13"><a xlink:href="helloBye__C_8hpp.html" target="_top" xlink:title="/home/dominik/uni/MoonState\l/include/helloBye_C.hpp">
<polygon fill="none" stroke="#000000" points="15.5972,-67.5 15.5972,-97.5 162.5972,-97.5 162.5972,-67.5 15.5972,-67.5"/>
<text text-anchor="start" x="23.5972" y="-85.5" font-family="Helvetica,sans-Serif" font-size="10.00" fill="#000000">/home/dominik/uni/MoonState</text>
<text text-anchor="middle" x="89.0972" y="-74.5" font-family="Helvetica,sans-Serif" font-size="10.00" fill="#000000">/include/helloBye_C.hpp</text>
</a>
</g>
</g>
<!-- Node17&#45;&gt;Node18 -->
<g id="edge14" class="edge">
<title>Node17&#45;&gt;Node18</title>
<path fill="none" stroke="#191970" d="M335.3598,-132.4988C282.1626,-121.6981 213.9458,-107.848 162.8047,-97.4648"/>
<polygon fill="#191970" stroke="#191970" points="334.9531,-135.9875 345.4495,-134.5473 336.3459,-129.1275 334.9531,-135.9875"/>
</g>
<!-- Node20 -->
<g id="node15" class="node">
<title>Node20</title>
<g id="a_node15"><a xlink:href="helloByeProto_8cpp.html" target="_top" xlink:title="/home/dominik/uni/MoonState\l/src/helloByeProto.cpp">
<polygon fill="none" stroke="#000000" points="345.5972,-67.5 345.5972,-97.5 492.5972,-97.5 492.5972,-67.5 345.5972,-67.5"/>
<text text-anchor="start" x="353.5972" y="-85.5" font-family="Helvetica,sans-Serif" font-size="10.00" fill="#000000">/home/dominik/uni/MoonState</text>
<text text-anchor="middle" x="419.0972" y="-74.5" font-family="Helvetica,sans-Serif" font-size="10.00" fill="#000000">/src/helloByeProto.cpp</text>
</a>
</g>
</g>
<!-- Node17&#45;&gt;Node20 -->
<g id="edge16" class="edge">
<title>Node17&#45;&gt;Node20</title>
<path fill="none" stroke="#191970" d="M412.5357,-124.3179C412.1212,-115.3414 412.3905,-105.5143 413.3437,-97.6432"/>
<polygon fill="#191970" stroke="#191970" points="409.0477,-124.6087 413.3364,-134.2967 416.0252,-124.0487 409.0477,-124.6087"/>
</g>
<!-- Node21 -->
<g id="node16" class="node">
<title>Node21</title>
<g id="a_node16"><a xlink:href="helloByeProtoStatic_8cpp.html" target="_top" xlink:title="/home/dominik/uni/MoonState\l/src/helloByeProtoStatic.cpp">
<polygon fill="none" stroke="#000000" points="180.5972,-67.5 180.5972,-97.5 327.5972,-97.5 327.5972,-67.5 180.5972,-67.5"/>
<text text-anchor="start" x="188.5972" y="-85.5" font-family="Helvetica,sans-Serif" font-size="10.00" fill="#000000">/home/dominik/uni/MoonState</text>
<text text-anchor="middle" x="254.0972" y="-74.5" font-family="Helvetica,sans-Serif" font-size="10.00" fill="#000000">/src/helloByeProtoStatic.cpp</text>
</a>
</g>
</g>
<!-- Node17&#45;&gt;Node21 -->
<g id="edge18" class="edge">
<title>Node17&#45;&gt;Node21</title>
<path fill="none" stroke="#191970" d="M372.527,-130.5897C346.8218,-120.1518 315.333,-107.3654 291.288,-97.6017"/>
<polygon fill="#191970" stroke="#191970" points="371.4859,-133.9444 382.068,-134.4639 374.1196,-127.4587 371.4859,-133.9444"/>
</g>
<!-- Node18&#45;&gt;Node19 -->
<g id="edge15" class="edge">
<title>Node18&#45;&gt;Node19</title>
<path fill="none" stroke="#191970" d="M89.0972,-57.0249C89.0972,-48.128 89.0972,-38.4287 89.0972,-30.6432"/>
<polygon fill="#191970" stroke="#191970" points="85.5973,-57.2966 89.0972,-67.2967 92.5973,-57.2967 85.5973,-57.2966"/>
</g>
<!-- Node20&#45;&gt;Node17 -->
<g id="edge17" class="edge">
<title>Node20&#45;&gt;Node17</title>
<path fill="none" stroke="#191970" d="M425.6556,-107.6135C426.0736,-116.5857 425.8078,-126.4156 424.8581,-134.2967"/>
<polygon fill="#191970" stroke="#191970" points="429.1441,-107.3291 424.8508,-97.6432 422.1668,-107.8924 429.1441,-107.3291"/>
</g>
</g>
</svg>
