<?xml version="1.0" encoding="UTF-8" standalone="no"?>
<!DOCTYPE svg PUBLIC "-//W3C//DTD SVG 1.1//EN"
 "http://www.w3.org/Graphics/SVG/1.1/DTD/svg11.dtd">
<!-- Generated by graphviz version 2.40.1 (20161225.0304)
 -->
<!-- Title: /home/dominik/uni/MoonState/include/bufArray.hpp Pages: 1 -->
<svg width="320pt" height="95pt"
 viewBox="0.00 0.00 319.50 95.00" xmlns="http://www.w3.org/2000/svg" xmlns:xlink="http://www.w3.org/1999/xlink">
<g id="graph0" class="graph" transform="scale(1 1) rotate(0) translate(4 91)">
<title>/home/dominik/uni/MoonState/include/bufArray.hpp</title>
<!-- Node0 -->
<g id="node1" class="node">
<title>Node0</title>
<polygon fill="#bfbfbf" stroke="#000000" points="88,-56.5 88,-86.5 235,-86.5 235,-56.5 88,-56.5"/>
<text text-anchor="start" x="96" y="-74.5" font-family="Helvetica,sans-Serif" font-size="10.00" fill="#000000">/home/dominik/uni/MoonState</text>
<text text-anchor="middle" x="161.5" y="-63.5" font-family="Helvetica,sans-Serif" font-size="10.00" fill="#000000">/include/bufArray.hpp</text>
</g>
<!-- Node1 -->
<g id="node2" class="node">
<title>Node1</title>
<polygon fill="none" stroke="#bfbfbf" points="0,-.5 0,-19.5 49,-19.5 49,-.5 0,-.5"/>
<text text-anchor="middle" x="24.5" y="-7.5" font-family="Helvetica,sans-Serif" font-size="10.00" fill="#000000">cassert</text>
</g>
<!-- Node0&#45;&gt;Node1 -->
<g id="edge1" class="edge">
<title>Node0&#45;&gt;Node1</title>
<path fill="none" stroke="#191970" d="M127.986,-56.4554C105.7288,-46.464 76.7353,-33.4487 55.1015,-23.7372"/>
<polygon fill="#191970" stroke="#191970" points="56.2865,-20.4327 45.7301,-19.5303 53.4197,-26.8187 56.2865,-20.4327"/>
</g>
<!-- Node2 -->
<g id="node3" class="node">
<title>Node2</title>
<polygon fill="none" stroke="#bfbfbf" points="67.5,-.5 67.5,-19.5 113.5,-19.5 113.5,-.5 67.5,-.5"/>
<text text-anchor="middle" x="90.5" y="-7.5" font-family="Helvetica,sans-Serif" font-size="10.00" fill="#000000">cstdint</text>
</g>
<!-- Node0&#45;&gt;Node2 -->
<g id="edge2" class="edge">
<title>Node0&#45;&gt;Node2</title>
<path fill="none" stroke="#191970" d="M143.9494,-56.2977C133.4779,-47.2274 120.1789,-35.7077 109.4662,-26.4285"/>
<polygon fill="#191970" stroke="#191970" points="111.7182,-23.7487 101.868,-19.8469 107.1351,-29.0398 111.7182,-23.7487"/>
</g>
<!-- Node3 -->
<g id="node4" class="node">
<title>Node3</title>
<polygon fill="none" stroke="#bfbfbf" points="132,-.5 132,-19.5 191,-19.5 191,-.5 132,-.5"/>
<text text-anchor="middle" x="161.5" y="-7.5" font-family="Helvetica,sans-Serif" font-size="10.00" fill="#000000">stdexcept</text>
</g>
<!-- Node0&#45;&gt;Node3 -->
<g id="edge3" class="edge">
<title>Node0&#45;&gt;Node3</title>
<path fill="none" stroke="#191970" d="M161.5,-56.2977C161.5,-48.3834 161.5,-38.6043 161.5,-30.0759"/>
<polygon fill="#191970" stroke="#191970" points="165.0001,-29.8469 161.5,-19.8469 158.0001,-29.847 165.0001,-29.8469"/>
</g>
<!-- Node4 -->
<g id="node5" class="node">
<title>Node4</title>
<polygon fill="none" stroke="#bfbfbf" points="209.5,-.5 209.5,-19.5 249.5,-19.5 249.5,-.5 209.5,-.5"/>
<text text-anchor="middle" x="229.5" y="-7.5" font-family="Helvetica,sans-Serif" font-size="10.00" fill="#000000">utility</text>
</g>
<!-- Node0&#45;&gt;Node4 -->
<g id="edge4" class="edge">
<title>Node0&#45;&gt;Node4</title>
<path fill="none" stroke="#191970" d="M178.309,-56.2977C188.2397,-47.3163 200.8257,-35.9334 211.0327,-26.702"/>
<polygon fill="#191970" stroke="#191970" points="213.5434,-29.1505 218.6123,-19.8469 208.848,-23.9588 213.5434,-29.1505"/>
</g>
<!-- Node5 -->
<g id="node6" class="node">
<title>Node5</title>
<polygon fill="none" stroke="#bfbfbf" points="267.5,-.5 267.5,-19.5 311.5,-19.5 311.5,-.5 267.5,-.5"/>
<text text-anchor="middle" x="289.5" y="-7.5" font-family="Helvetica,sans-Serif" font-size="10.00" fill="#000000">vector</text>
</g>
<!-- Node0&#45;&gt;Node5 -->
<g id="edge5" class="edge">
<title>Node0&#45;&gt;Node5</title>
<path fill="none" stroke="#191970" d="M192.8123,-56.4554C213.5138,-46.509 240.4523,-33.5659 260.6353,-23.8686"/>
<polygon fill="#191970" stroke="#191970" points="262.1667,-27.0159 269.6645,-19.5303 259.1352,-20.7064 262.1667,-27.0159"/>
</g>
</g>
</svg>
