<?xml version="1.0" encoding="UTF-8" standalone="no"?>
<!DOCTYPE svg PUBLIC "-//W3C//DTD SVG 1.1//EN"
 "http://www.w3.org/Graphics/SVG/1.1/DTD/svg11.dtd">
<!-- Generated by graphviz version 2.38.0 (20140413.2041)
 -->
<!-- Title: /home/dominik/uni/MoonState/include/bufArray.hpp Pages: 1 -->
<svg width="320pt" height="95pt"
 viewBox="0.00 0.00 319.50 95.00" xmlns="http://www.w3.org/2000/svg" xmlns:xlink="http://www.w3.org/1999/xlink">
<g id="graph0" class="graph" transform="scale(1 1) rotate(0) translate(4 91)">
<title>/home/dominik/uni/MoonState/include/bufArray.hpp</title>
<!-- Node1 -->
<g id="node1" class="node"><title>Node1</title>
<polygon fill="#bfbfbf" stroke="black" points="88,-56.5 88,-86.5 235,-86.5 235,-56.5 88,-56.5"/>
<text text-anchor="start" x="96" y="-74.5" font-family="Helvetica,sans-Serif" font-size="10.00">/home/dominik/uni/MoonState</text>
<text text-anchor="middle" x="161.5" y="-63.5" font-family="Helvetica,sans-Serif" font-size="10.00">/include/bufArray.hpp</text>
</g>
<!-- Node2 -->
<g id="node2" class="node"><title>Node2</title>
<polygon fill="none" stroke="#bfbfbf" points="0,-0.5 0,-19.5 49,-19.5 49,-0.5 0,-0.5"/>
<text text-anchor="middle" x="24.5" y="-7.5" font-family="Helvetica,sans-Serif" font-size="10.00">cassert</text>
</g>
<!-- Node1&#45;&gt;Node2 -->
<g id="edge1" class="edge"><title>Node1&#45;&gt;Node2</title>
<path fill="none" stroke="midnightblue" d="M129.033,-56.3993C106.149,-46.4608 75.7655,-33.2649 53.6556,-23.6625"/>
<polygon fill="midnightblue" stroke="midnightblue" points="55.0013,-20.4311 44.4347,-19.6578 52.2127,-26.8517 55.0013,-20.4311"/>
</g>
<!-- Node3 -->
<g id="node3" class="node"><title>Node3</title>
<polygon fill="none" stroke="#bfbfbf" points="67.5,-0.5 67.5,-19.5 113.5,-19.5 113.5,-0.5 67.5,-0.5"/>
<text text-anchor="middle" x="90.5" y="-7.5" font-family="Helvetica,sans-Serif" font-size="10.00">cstdint</text>
</g>
<!-- Node1&#45;&gt;Node3 -->
<g id="edge2" class="edge"><title>Node1&#45;&gt;Node3</title>
<path fill="none" stroke="midnightblue" d="M144.674,-56.3993C133.825,-47.3076 119.723,-35.4899 108.627,-26.1909"/>
<polygon fill="midnightblue" stroke="midnightblue" points="110.744,-23.3983 100.831,-19.6578 106.248,-28.7634 110.744,-23.3983"/>
</g>
<!-- Node4 -->
<g id="node4" class="node"><title>Node4</title>
<polygon fill="none" stroke="#bfbfbf" points="132,-0.5 132,-19.5 191,-19.5 191,-0.5 132,-0.5"/>
<text text-anchor="middle" x="161.5" y="-7.5" font-family="Helvetica,sans-Serif" font-size="10.00">stdexcept</text>
</g>
<!-- Node1&#45;&gt;Node4 -->
<g id="edge3" class="edge"><title>Node1&#45;&gt;Node4</title>
<path fill="none" stroke="midnightblue" d="M161.5,-56.3993C161.5,-48.4664 161.5,-38.458 161.5,-29.8583"/>
<polygon fill="midnightblue" stroke="midnightblue" points="165,-29.6577 161.5,-19.6578 158,-29.6578 165,-29.6577"/>
</g>
<!-- Node5 -->
<g id="node5" class="node"><title>Node5</title>
<polygon fill="none" stroke="#bfbfbf" points="209.5,-0.5 209.5,-19.5 249.5,-19.5 249.5,-0.5 209.5,-0.5"/>
<text text-anchor="middle" x="229.5" y="-7.5" font-family="Helvetica,sans-Serif" font-size="10.00">utility</text>
</g>
<!-- Node1&#45;&gt;Node5 -->
<g id="edge4" class="edge"><title>Node1&#45;&gt;Node5</title>
<path fill="none" stroke="midnightblue" d="M177.615,-56.3993C187.904,-47.3967 201.247,-35.7214 211.826,-26.4652"/>
<polygon fill="midnightblue" stroke="midnightblue" points="214.384,-28.8769 219.605,-19.6578 209.775,-23.6088 214.384,-28.8769"/>
</g>
<!-- Node6 -->
<g id="node6" class="node"><title>Node6</title>
<polygon fill="none" stroke="#bfbfbf" points="267.5,-0.5 267.5,-19.5 311.5,-19.5 311.5,-0.5 267.5,-0.5"/>
<text text-anchor="middle" x="289.5" y="-7.5" font-family="Helvetica,sans-Serif" font-size="10.00">vector</text>
</g>
<!-- Node1&#45;&gt;Node6 -->
<g id="edge5" class="edge"><title>Node1&#45;&gt;Node6</title>
<path fill="none" stroke="midnightblue" d="M191.834,-56.3993C213.023,-46.55 241.094,-33.5014 261.702,-23.9217"/>
<polygon fill="midnightblue" stroke="midnightblue" points="263.282,-27.047 270.875,-19.6578 260.331,-20.6993 263.282,-27.047"/>
</g>
</g>
</svg>
