<?xml version="1.0" encoding="UTF-8" standalone="no"?>
<!DOCTYPE svg PUBLIC "-//W3C//DTD SVG 1.1//EN"
 "http://www.w3.org/Graphics/SVG/1.1/DTD/svg11.dtd">
<!-- Generated by graphviz version 2.38.0 (20140413.2041)
 -->
<!-- Title: /home/dominik/uni/MoonState/include/bufArray.hpp Pages: 1 -->
<svg width="1136pt" height="307pt"
 viewBox="0.00 0.00 1136.04 307.00" xmlns="http://www.w3.org/2000/svg" xmlns:xlink="http://www.w3.org/1999/xlink">
<g id="graph0" class="graph" transform="scale(1 1) rotate(0) translate(4 303)">
<title>/home/dominik/uni/MoonState/include/bufArray.hpp</title>
<!-- Node1 -->
<g id="node1" class="node"><title>Node1</title>
<polygon fill="#bfbfbf" stroke="black" points="580.035,-268.5 580.035,-298.5 727.035,-298.5 727.035,-268.5 580.035,-268.5"/>
<text text-anchor="start" x="588.035" y="-286.5" font-family="Helvetica,sans-Serif" font-size="10.00">/home/dominik/uni/MoonState</text>
<text text-anchor="middle" x="653.535" y="-275.5" font-family="Helvetica,sans-Serif" font-size="10.00">/include/bufArray.hpp</text>
</g>
<!-- Node2 -->
<g id="node2" class="node"><title>Node2</title>
<g id="a_node2"><a xlink:href="stateMachine_8hpp.html" target="_top" xlink:title="/home/dominik/uni/MoonState\l/include/stateMachine.hpp">
<polygon fill="none" stroke="black" points="580.035,-201.5 580.035,-231.5 727.035,-231.5 727.035,-201.5 580.035,-201.5"/>
<text text-anchor="start" x="588.035" y="-219.5" font-family="Helvetica,sans-Serif" font-size="10.00">/home/dominik/uni/MoonState</text>
<text text-anchor="middle" x="653.535" y="-208.5" font-family="Helvetica,sans-Serif" font-size="10.00">/include/stateMachine.hpp</text>
</a>
</g>
</g>
<!-- Node1&#45;&gt;Node2 -->
<g id="edge1" class="edge"><title>Node1&#45;&gt;Node2</title>
<path fill="none" stroke="midnightblue" d="M653.535,-258.108C653.535,-249.154 653.535,-239.323 653.535,-231.577"/>
<polygon fill="midnightblue" stroke="midnightblue" points="650.035,-258.396 653.535,-268.396 657.035,-258.396 650.035,-258.396"/>
</g>
<!-- Node5 -->
<g id="node5" class="node"><title>Node5</title>
<g id="a_node5"><a xlink:href="helloBye2__C_8cpp.html" target="_top" xlink:title="/home/dominik/uni/MoonState\l/src/helloBye2_C.cpp">
<polygon fill="none" stroke="black" points="15.035,-0.5 15.035,-30.5 162.035,-30.5 162.035,-0.5 15.035,-0.5"/>
<text text-anchor="start" x="23.035" y="-18.5" font-family="Helvetica,sans-Serif" font-size="10.00">/home/dominik/uni/MoonState</text>
<text text-anchor="middle" x="88.535" y="-7.5" font-family="Helvetica,sans-Serif" font-size="10.00">/src/helloBye2_C.cpp</text>
</a>
</g>
</g>
<!-- Node1&#45;&gt;Node5 -->
<g id="edge16" class="edge"><title>Node1&#45;&gt;Node5</title>
<path fill="none" stroke="midnightblue" d="M569.654,-271.919C409.185,-249.683 68.9768,-192.234 5.53503,-98 -2.15942,-86.571 -1.21619,-79.0103 5.53503,-67 14.8746,-50.385 32.1408,-38.5985 48.5161,-30.6152"/>
<polygon fill="midnightblue" stroke="midnightblue" points="569.577,-275.441 579.96,-273.333 570.528,-268.506 569.577,-275.441"/>
</g>
<!-- Node10 -->
<g id="node10" class="node"><title>Node10</title>
<g id="a_node10"><a xlink:href="helloBye__C_8cpp.html" target="_top" xlink:title="/home/dominik/uni/MoonState\l/src/helloBye_C.cpp">
<polygon fill="none" stroke="black" points="981.035,-0.5 981.035,-30.5 1128.04,-30.5 1128.04,-0.5 981.035,-0.5"/>
<text text-anchor="start" x="989.035" y="-18.5" font-family="Helvetica,sans-Serif" font-size="10.00">/home/dominik/uni/MoonState</text>
<text text-anchor="middle" x="1054.54" y="-7.5" font-family="Helvetica,sans-Serif" font-size="10.00">/src/helloBye_C.cpp</text>
</a>
</g>
</g>
<!-- Node1&#45;&gt;Node10 -->
<g id="edge17" class="edge"><title>Node1&#45;&gt;Node10</title>
<path fill="none" stroke="midnightblue" d="M726.043,-265.907C795.731,-247.909 902.295,-214.889 984.535,-165 1021.91,-142.329 1039.08,-138.077 1056.54,-98 1066.08,-76.0694 1062.15,-47.5758 1058.38,-30.7419"/>
<polygon fill="midnightblue" stroke="midnightblue" points="724.864,-262.595 716.037,-268.453 726.591,-269.379 724.864,-262.595"/>
</g>
<!-- Node3 -->
<g id="node3" class="node"><title>Node3</title>
<g id="a_node3"><a xlink:href="helloBye2Proto_8hpp.html" target="_top" xlink:title="/home/dominik/uni/MoonState\l/include/helloBye2Proto.hpp">
<polygon fill="none" stroke="black" points="180.035,-134.5 180.035,-164.5 327.035,-164.5 327.035,-134.5 180.035,-134.5"/>
<text text-anchor="start" x="188.035" y="-152.5" font-family="Helvetica,sans-Serif" font-size="10.00">/home/dominik/uni/MoonState</text>
<text text-anchor="middle" x="253.535" y="-141.5" font-family="Helvetica,sans-Serif" font-size="10.00">/include/helloBye2Proto.hpp</text>
</a>
</g>
</g>
<!-- Node2&#45;&gt;Node3 -->
<g id="edge2" class="edge"><title>Node2&#45;&gt;Node3</title>
<path fill="none" stroke="midnightblue" d="M569.797,-201.893C498.117,-190.245 395.912,-173.636 327.275,-162.483"/>
<polygon fill="midnightblue" stroke="midnightblue" points="569.271,-205.353 579.703,-203.502 570.394,-198.444 569.271,-205.353"/>
</g>
<!-- Node2&#45;&gt;Node5 -->
<g id="edge14" class="edge"><title>Node2&#45;&gt;Node5</title>
<path fill="none" stroke="midnightblue" d="M633.023,-194.137C595.146,-154.911 516.618,-74.6941 500.535,-67 442.354,-39.166 264.106,-25.5663 162.142,-19.9034"/>
<polygon fill="midnightblue" stroke="midnightblue" points="630.565,-196.631 640.025,-201.402 635.605,-191.773 630.565,-196.631"/>
</g>
<!-- Node8 -->
<g id="node8" class="node"><title>Node8</title>
<g id="a_node8"><a xlink:href="helloByeProto_8hpp.html" target="_top" xlink:title="/home/dominik/uni/MoonState\l/include/helloByeProto.hpp">
<polygon fill="none" stroke="black" points="714.035,-134.5 714.035,-164.5 861.035,-164.5 861.035,-134.5 714.035,-134.5"/>
<text text-anchor="start" x="722.035" y="-152.5" font-family="Helvetica,sans-Serif" font-size="10.00">/home/dominik/uni/MoonState</text>
<text text-anchor="middle" x="787.535" y="-141.5" font-family="Helvetica,sans-Serif" font-size="10.00">/include/helloByeProto.hpp</text>
</a>
</g>
</g>
<!-- Node2&#45;&gt;Node8 -->
<g id="edge8" class="edge"><title>Node2&#45;&gt;Node8</title>
<path fill="none" stroke="midnightblue" d="M691.69,-196.992C712.93,-186.689 738.949,-174.068 758.516,-164.577"/>
<polygon fill="midnightblue" stroke="midnightblue" points="690.081,-193.882 682.611,-201.396 693.136,-200.181 690.081,-193.882"/>
</g>
<!-- Node2&#45;&gt;Node10 -->
<g id="edge15" class="edge"><title>Node2&#45;&gt;Node10</title>
<path fill="none" stroke="midnightblue" d="M737.398,-214.128C825.197,-207.878 960.398,-183.755 1034.54,-98 1051.02,-78.9329 1054.36,-48.4167 1054.79,-30.6332"/>
<polygon fill="midnightblue" stroke="midnightblue" points="736.951,-210.65 727.199,-214.79 737.404,-217.635 736.951,-210.65"/>
</g>
<!-- Node4 -->
<g id="node4" class="node"><title>Node4</title>
<g id="a_node4"><a xlink:href="helloBye2__C_8hpp.html" target="_top" xlink:title="/home/dominik/uni/MoonState\l/include/helloBye2_C.hpp">
<polygon fill="none" stroke="black" points="15.035,-67.5 15.035,-97.5 162.035,-97.5 162.035,-67.5 15.035,-67.5"/>
<text text-anchor="start" x="23.035" y="-85.5" font-family="Helvetica,sans-Serif" font-size="10.00">/home/dominik/uni/MoonState</text>
<text text-anchor="middle" x="88.535" y="-74.5" font-family="Helvetica,sans-Serif" font-size="10.00">/include/helloBye2_C.hpp</text>
</a>
</g>
</g>
<!-- Node3&#45;&gt;Node4 -->
<g id="edge3" class="edge"><title>Node3&#45;&gt;Node4</title>
<path fill="none" stroke="midnightblue" d="M208.303,-130.682C181.841,-120.257 148.901,-107.281 124.268,-97.5765"/>
<polygon fill="midnightblue" stroke="midnightblue" points="207.146,-133.987 217.732,-134.396 209.711,-127.474 207.146,-133.987"/>
</g>
<!-- Node6 -->
<g id="node6" class="node"><title>Node6</title>
<g id="a_node6"><a xlink:href="helloBye2Proto_8cpp.html" target="_top" xlink:title="/home/dominik/uni/MoonState\l/src/helloBye2Proto.cpp">
<polygon fill="none" stroke="black" points="180.035,-67.5 180.035,-97.5 327.035,-97.5 327.035,-67.5 180.035,-67.5"/>
<text text-anchor="start" x="188.035" y="-85.5" font-family="Helvetica,sans-Serif" font-size="10.00">/home/dominik/uni/MoonState</text>
<text text-anchor="middle" x="253.535" y="-74.5" font-family="Helvetica,sans-Serif" font-size="10.00">/src/helloBye2Proto.cpp</text>
</a>
</g>
</g>
<!-- Node3&#45;&gt;Node6 -->
<g id="edge5" class="edge"><title>Node3&#45;&gt;Node6</title>
<path fill="none" stroke="midnightblue" d="M246.99,-124.403C246.541,-115.37 246.831,-105.408 247.86,-97.5765"/>
<polygon fill="midnightblue" stroke="midnightblue" points="243.505,-124.736 247.857,-134.396 250.479,-124.131 243.505,-124.736"/>
</g>
<!-- Node7 -->
<g id="node7" class="node"><title>Node7</title>
<g id="a_node7"><a xlink:href="helloBye2ProtoStatic_8cpp.html" target="_top" xlink:title="/home/dominik/uni/MoonState\l/src/helloBye2ProtoStatic.cpp">
<polygon fill="none" stroke="black" points="345.035,-67.5 345.035,-97.5 492.035,-97.5 492.035,-67.5 345.035,-67.5"/>
<text text-anchor="start" x="353.035" y="-85.5" font-family="Helvetica,sans-Serif" font-size="10.00">/home/dominik/uni/MoonState</text>
<text text-anchor="middle" x="418.535" y="-74.5" font-family="Helvetica,sans-Serif" font-size="10.00">/src/helloBye2ProtoStatic.cpp</text>
</a>
</g>
</g>
<!-- Node3&#45;&gt;Node7 -->
<g id="edge7" class="edge"><title>Node3&#45;&gt;Node7</title>
<path fill="none" stroke="midnightblue" d="M298.767,-130.682C325.229,-120.257 358.169,-107.281 382.802,-97.5765"/>
<polygon fill="midnightblue" stroke="midnightblue" points="297.359,-127.474 289.338,-134.396 299.925,-133.987 297.359,-127.474"/>
</g>
<!-- Node4&#45;&gt;Node5 -->
<g id="edge4" class="edge"><title>Node4&#45;&gt;Node5</title>
<path fill="none" stroke="midnightblue" d="M88.535,-57.1081C88.535,-48.1539 88.535,-38.3227 88.535,-30.5765"/>
<polygon fill="midnightblue" stroke="midnightblue" points="85.0351,-57.3959 88.535,-67.396 92.0351,-57.396 85.0351,-57.3959"/>
</g>
<!-- Node6&#45;&gt;Node3 -->
<g id="edge6" class="edge"><title>Node6&#45;&gt;Node3</title>
<path fill="none" stroke="midnightblue" d="M260.079,-107.565C260.53,-116.596 260.241,-126.56 259.213,-134.396"/>
<polygon fill="midnightblue" stroke="midnightblue" points="263.563,-107.236 259.21,-97.5765 256.59,-107.842 263.563,-107.236"/>
</g>
<!-- Node9 -->
<g id="node9" class="node"><title>Node9</title>
<g id="a_node9"><a xlink:href="helloBye__C_8hpp.html" target="_top" xlink:title="/home/dominik/uni/MoonState\l/include/helloBye_C.hpp">
<polygon fill="none" stroke="black" points="549.035,-67.5 549.035,-97.5 696.035,-97.5 696.035,-67.5 549.035,-67.5"/>
<text text-anchor="start" x="557.035" y="-85.5" font-family="Helvetica,sans-Serif" font-size="10.00">/home/dominik/uni/MoonState</text>
<text text-anchor="middle" x="622.535" y="-74.5" font-family="Helvetica,sans-Serif" font-size="10.00">/include/helloBye_C.hpp</text>
</a>
</g>
</g>
<!-- Node8&#45;&gt;Node9 -->
<g id="edge9" class="edge"><title>Node8&#45;&gt;Node9</title>
<path fill="none" stroke="midnightblue" d="M742.303,-130.682C715.841,-120.257 682.901,-107.281 658.268,-97.5765"/>
<polygon fill="midnightblue" stroke="midnightblue" points="741.146,-133.987 751.732,-134.396 743.711,-127.474 741.146,-133.987"/>
</g>
<!-- Node11 -->
<g id="node11" class="node"><title>Node11</title>
<g id="a_node11"><a xlink:href="helloByeProto_8cpp.html" target="_top" xlink:title="/home/dominik/uni/MoonState\l/src/helloByeProto.cpp">
<polygon fill="none" stroke="black" points="879.035,-67.5 879.035,-97.5 1026.04,-97.5 1026.04,-67.5 879.035,-67.5"/>
<text text-anchor="start" x="887.035" y="-85.5" font-family="Helvetica,sans-Serif" font-size="10.00">/home/dominik/uni/MoonState</text>
<text text-anchor="middle" x="952.535" y="-74.5" font-family="Helvetica,sans-Serif" font-size="10.00">/src/helloByeProto.cpp</text>
</a>
</g>
</g>
<!-- Node8&#45;&gt;Node11 -->
<g id="edge11" class="edge"><title>Node8&#45;&gt;Node11</title>
<path fill="none" stroke="midnightblue" d="M827.006,-130.544C852.428,-120.143 885.332,-107.238 911.128,-97.5765"/>
<polygon fill="midnightblue" stroke="midnightblue" points="825.571,-127.35 817.659,-134.396 828.238,-133.822 825.571,-127.35"/>
</g>
<!-- Node12 -->
<g id="node12" class="node"><title>Node12</title>
<g id="a_node12"><a xlink:href="helloByeProtoStatic_8cpp.html" target="_top" xlink:title="/home/dominik/uni/MoonState\l/src/helloByeProtoStatic.cpp">
<polygon fill="none" stroke="black" points="714.035,-67.5 714.035,-97.5 861.035,-97.5 861.035,-67.5 714.035,-67.5"/>
<text text-anchor="start" x="722.035" y="-85.5" font-family="Helvetica,sans-Serif" font-size="10.00">/home/dominik/uni/MoonState</text>
<text text-anchor="middle" x="787.535" y="-74.5" font-family="Helvetica,sans-Serif" font-size="10.00">/src/helloByeProtoStatic.cpp</text>
</a>
</g>
</g>
<!-- Node8&#45;&gt;Node12 -->
<g id="edge13" class="edge"><title>Node8&#45;&gt;Node12</title>
<path fill="none" stroke="midnightblue" d="M787.535,-124.108C787.535,-115.154 787.535,-105.323 787.535,-97.5765"/>
<polygon fill="midnightblue" stroke="midnightblue" points="784.035,-124.396 787.535,-134.396 791.035,-124.396 784.035,-124.396"/>
</g>
<!-- Node9&#45;&gt;Node10 -->
<g id="edge10" class="edge"><title>Node9&#45;&gt;Node10</title>
<path fill="none" stroke="midnightblue" d="M706.307,-66.7412C806.922,-50.7028 912.417,-35.8282 981.026,-26.4156"/>
<polygon fill="midnightblue" stroke="midnightblue" points="705.595,-63.3106 696.274,-68.3471 706.701,-70.2226 705.595,-63.3106"/>
</g>
<!-- Node11&#45;&gt;Node8 -->
<g id="edge12" class="edge"><title>Node11&#45;&gt;Node8</title>
<path fill="none" stroke="midnightblue" d="M913.137,-101.426C887.728,-111.823 854.825,-124.728 829.016,-134.396"/>
<polygon fill="midnightblue" stroke="midnightblue" points="914.565,-104.623 922.477,-97.5765 911.898,-98.1511 914.565,-104.623"/>
</g>
</g>
</svg>
