<?xml version="1.0" encoding="UTF-8" standalone="no"?>
<!DOCTYPE svg PUBLIC "-//W3C//DTD SVG 1.1//EN"
 "http://www.w3.org/Graphics/SVG/1.1/DTD/svg11.dtd">
<!-- Generated by graphviz version 2.40.1 (20161225.0304)
 -->
<!-- Title: /home/dominik/uni/MoonState/include/bufArray.hpp Pages: 1 -->
<svg width="1679pt" height="307pt"
 viewBox="0.00 0.00 1679.00 307.00" xmlns="http://www.w3.org/2000/svg" xmlns:xlink="http://www.w3.org/1999/xlink">
<g id="graph0" class="graph" transform="scale(1 1) rotate(0) translate(4 303)">
<title>/home/dominik/uni/MoonState/include/bufArray.hpp</title>
<!-- Node6 -->
<g id="node1" class="node">
<title>Node6</title>
<polygon fill="#bfbfbf" stroke="#000000" points="762,-268.5 762,-298.5 909,-298.5 909,-268.5 762,-268.5"/>
<text text-anchor="start" x="770" y="-286.5" font-family="Helvetica,sans-Serif" font-size="10.00" fill="#000000">/home/dominik/uni/MoonState</text>
<text text-anchor="middle" x="835.5" y="-275.5" font-family="Helvetica,sans-Serif" font-size="10.00" fill="#000000">/include/bufArray.hpp</text>
</g>
<!-- Node7 -->
<g id="node2" class="node">
<title>Node7</title>
<g id="a_node2"><a xlink:href="stateMachine_8hpp.html" target="_top" xlink:title="/home/dominik/uni/MoonState\l/include/stateMachine.hpp">
<polygon fill="none" stroke="#000000" points="762,-201.5 762,-231.5 909,-231.5 909,-201.5 762,-201.5"/>
<text text-anchor="start" x="770" y="-219.5" font-family="Helvetica,sans-Serif" font-size="10.00" fill="#000000">/home/dominik/uni/MoonState</text>
<text text-anchor="middle" x="835.5" y="-208.5" font-family="Helvetica,sans-Serif" font-size="10.00" fill="#000000">/include/stateMachine.hpp</text>
</a>
</g>
</g>
<!-- Node6&#45;&gt;Node7 -->
<g id="edge1" class="edge">
<title>Node6&#45;&gt;Node7</title>
<path fill="none" stroke="#191970" d="M835.5,-258.0249C835.5,-249.128 835.5,-239.4287 835.5,-231.6432"/>
<polygon fill="#191970" stroke="#191970" points="832.0001,-258.2966 835.5,-268.2967 839.0001,-258.2967 832.0001,-258.2966"/>
</g>
<!-- Node12 -->
<g id="node7" class="node">
<title>Node12</title>
<g id="a_node7"><a xlink:href="helloBye2__C_8cpp.html" target="_top" xlink:title="/home/dominik/uni/MoonState\l/src/helloBye2_C.cpp">
<polygon fill="none" stroke="#000000" points="0,-.5 0,-30.5 147,-30.5 147,-.5 0,-.5"/>
<text text-anchor="start" x="8" y="-18.5" font-family="Helvetica,sans-Serif" font-size="10.00" fill="#000000">/home/dominik/uni/MoonState</text>
<text text-anchor="middle" x="73.5" y="-7.5" font-family="Helvetica,sans-Serif" font-size="10.00" fill="#000000">/src/helloBye2_C.cpp</text>
</a>
</g>
</g>
<!-- Node6&#45;&gt;Node12 -->
<g id="edge24" class="edge">
<title>Node6&#45;&gt;Node12</title>
<path fill="none" stroke="#191970" d="M751.8623,-276.7286C588.8432,-262.3603 235.3715,-225.1235 130.5,-165 96.8312,-145.6975 87.9593,-134.4008 74.5,-98 66.2537,-75.6979 68.2814,-47.63 70.7263,-30.6512"/>
<polygon fill="#191970" stroke="#191970" points="751.5805,-280.2173 761.8473,-277.6011 752.1899,-273.2438 751.5805,-280.2173"/>
</g>
<!-- Node21 -->
<g id="node16" class="node">
<title>Node21</title>
<g id="a_node16"><a xlink:href="helloBye__C_8cpp.html" target="_top" xlink:title="/home/dominik/uni/MoonState\l/src/helloBye_C.cpp">
<polygon fill="none" stroke="#000000" points="1524,-.5 1524,-30.5 1671,-30.5 1671,-.5 1524,-.5"/>
<text text-anchor="start" x="1532" y="-18.5" font-family="Helvetica,sans-Serif" font-size="10.00" fill="#000000">/home/dominik/uni/MoonState</text>
<text text-anchor="middle" x="1597.5" y="-7.5" font-family="Helvetica,sans-Serif" font-size="10.00" fill="#000000">/src/helloBye_C.cpp</text>
</a>
</g>
</g>
<!-- Node6&#45;&gt;Node21 -->
<g id="edge25" class="edge">
<title>Node6&#45;&gt;Node21</title>
<path fill="none" stroke="#191970" d="M919.3451,-278.0293C1046.181,-267.6157 1292.7882,-238.955 1488.5,-165 1542.4036,-144.6311 1571.1752,-148.1817 1599.5,-98 1611.3313,-77.039 1606.7727,-48.0595 1602.2406,-30.613"/>
<polygon fill="#191970" stroke="#191970" points="918.9949,-274.546 909.3074,-278.8357 919.5556,-281.5235 918.9949,-274.546"/>
</g>
<!-- Node8 -->
<g id="node3" class="node">
<title>Node8</title>
<g id="a_node3"><a xlink:href="dtlsClient_8hpp.html" target="_top" xlink:title="/home/dominik/uni/MoonState\l/include/dtlsClient.hpp">
<polygon fill="none" stroke="#000000" points="932,-134.5 932,-164.5 1079,-164.5 1079,-134.5 932,-134.5"/>
<text text-anchor="start" x="940" y="-152.5" font-family="Helvetica,sans-Serif" font-size="10.00" fill="#000000">/home/dominik/uni/MoonState</text>
<text text-anchor="middle" x="1005.5" y="-141.5" font-family="Helvetica,sans-Serif" font-size="10.00" fill="#000000">/include/dtlsClient.hpp</text>
</a>
</g>
</g>
<!-- Node7&#45;&gt;Node8 -->
<g id="edge2" class="edge">
<title>Node7&#45;&gt;Node8</title>
<path fill="none" stroke="#191970" d="M883.1318,-197.7275C909.6796,-187.2645 942.2995,-174.4084 967.1823,-164.6017"/>
<polygon fill="#191970" stroke="#191970" points="881.6715,-194.5409 873.6513,-201.4639 884.2382,-201.0534 881.6715,-194.5409"/>
</g>
<!-- Node10 -->
<g id="node5" class="node">
<title>Node10</title>
<g id="a_node5"><a xlink:href="helloBye2Proto_8hpp.html" target="_top" xlink:title="/home/dominik/uni/MoonState\l/include/helloBye2Proto.hpp">
<polygon fill="none" stroke="#000000" points="267,-134.5 267,-164.5 414,-164.5 414,-134.5 267,-134.5"/>
<text text-anchor="start" x="275" y="-152.5" font-family="Helvetica,sans-Serif" font-size="10.00" fill="#000000">/home/dominik/uni/MoonState</text>
<text text-anchor="middle" x="340.5" y="-141.5" font-family="Helvetica,sans-Serif" font-size="10.00" fill="#000000">/include/helloBye2Proto.hpp</text>
</a>
</g>
</g>
<!-- Node7&#45;&gt;Node10 -->
<g id="edge4" class="edge">
<title>Node7&#45;&gt;Node10</title>
<path fill="none" stroke="#191970" d="M751.8144,-205.1729C657.1245,-192.3563 504.3696,-171.6803 414.0715,-159.4582"/>
<polygon fill="#191970" stroke="#191970" points="751.5489,-208.6688 761.928,-206.5418 752.4878,-201.732 751.5489,-208.6688"/>
</g>
<!-- Node7&#45;&gt;Node12 -->
<g id="edge22" class="edge">
<title>Node7&#45;&gt;Node12</title>
<path fill="none" stroke="#191970" d="M751.734,-212.097C614.7678,-204.3837 348.9709,-187.1222 257.5,-165 180.5694,-146.3944 143.8341,-158.2437 92.5,-98 76.2944,-78.9817 73.2332,-48.8413 73.0054,-30.737"/>
<polygon fill="#191970" stroke="#191970" points="751.5901,-215.5943 761.7699,-212.6581 751.9809,-208.6053 751.5901,-215.5943"/>
</g>
<!-- Node15 -->
<g id="node10" class="node">
<title>Node15</title>
<g id="a_node10"><a xlink:href="helloBye3_8hpp.html" target="_top" xlink:title="/home/dominik/uni/MoonState\l/include/helloBye3.hpp">
<polygon fill="none" stroke="#000000" points="592,-134.5 592,-164.5 739,-164.5 739,-134.5 592,-134.5"/>
<text text-anchor="start" x="600" y="-152.5" font-family="Helvetica,sans-Serif" font-size="10.00" fill="#000000">/home/dominik/uni/MoonState</text>
<text text-anchor="middle" x="665.5" y="-141.5" font-family="Helvetica,sans-Serif" font-size="10.00" fill="#000000">/include/helloBye3.hpp</text>
</a>
</g>
</g>
<!-- Node7&#45;&gt;Node15 -->
<g id="edge10" class="edge">
<title>Node7&#45;&gt;Node15</title>
<path fill="none" stroke="#191970" d="M787.8682,-197.7275C761.3204,-187.2645 728.7005,-174.4084 703.8177,-164.6017"/>
<polygon fill="#191970" stroke="#191970" points="786.7618,-201.0534 797.3487,-201.4639 789.3285,-194.5409 786.7618,-201.0534"/>
</g>
<!-- Node17 -->
<g id="node12" class="node">
<title>Node17</title>
<g id="a_node12"><a xlink:href="helloBye3MemPool_8hpp.html" target="_top" xlink:title="/home/dominik/uni/MoonState\l/include/helloBye3MemPool.hpp">
<polygon fill="none" stroke="#000000" points="757.5,-134.5 757.5,-164.5 913.5,-164.5 913.5,-134.5 757.5,-134.5"/>
<text text-anchor="start" x="765.5" y="-152.5" font-family="Helvetica,sans-Serif" font-size="10.00" fill="#000000">/home/dominik/uni/MoonState</text>
<text text-anchor="middle" x="835.5" y="-141.5" font-family="Helvetica,sans-Serif" font-size="10.00" fill="#000000">/include/helloBye3MemPool.hpp</text>
</a>
</g>
</g>
<!-- Node7&#45;&gt;Node17 -->
<g id="edge13" class="edge">
<title>Node7&#45;&gt;Node17</title>
<path fill="none" stroke="#191970" d="M835.5,-191.0249C835.5,-182.128 835.5,-172.4287 835.5,-164.6432"/>
<polygon fill="#191970" stroke="#191970" points="832.0001,-191.2966 835.5,-201.2967 839.0001,-191.2967 832.0001,-191.2966"/>
</g>
<!-- Node19 -->
<g id="node14" class="node">
<title>Node19</title>
<g id="a_node14"><a xlink:href="helloByeProto_8hpp.html" target="_top" xlink:title="/home/dominik/uni/MoonState\l/include/helloByeProto.hpp">
<polygon fill="none" stroke="#000000" points="1257,-134.5 1257,-164.5 1404,-164.5 1404,-134.5 1257,-134.5"/>
<text text-anchor="start" x="1265" y="-152.5" font-family="Helvetica,sans-Serif" font-size="10.00" fill="#000000">/home/dominik/uni/MoonState</text>
<text text-anchor="middle" x="1330.5" y="-141.5" font-family="Helvetica,sans-Serif" font-size="10.00" fill="#000000">/include/helloByeProto.hpp</text>
</a>
</g>
</g>
<!-- Node7&#45;&gt;Node19 -->
<g id="edge16" class="edge">
<title>Node7&#45;&gt;Node19</title>
<path fill="none" stroke="#191970" d="M919.1856,-205.1729C1013.8755,-192.3563 1166.6304,-171.6803 1256.9285,-159.4582"/>
<polygon fill="#191970" stroke="#191970" points="918.5122,-201.732 909.072,-206.5418 919.4511,-208.6688 918.5122,-201.732"/>
</g>
<!-- Node7&#45;&gt;Node21 -->
<g id="edge23" class="edge">
<title>Node7&#45;&gt;Node21</title>
<path fill="none" stroke="#191970" d="M919.266,-212.097C1056.2322,-204.3837 1322.0291,-187.1222 1413.5,-165 1490.4306,-146.3944 1527.1659,-158.2437 1578.5,-98 1594.7056,-78.9817 1597.7668,-48.8413 1597.9946,-30.737"/>
<polygon fill="#191970" stroke="#191970" points="919.0191,-208.6053 909.2301,-212.6581 919.4099,-215.5943 919.0191,-208.6053"/>
</g>
<!-- Node9 -->
<g id="node4" class="node">
<title>Node9</title>
<g id="a_node4"><a xlink:href="dtlsClient_8cpp.html" target="_top" xlink:title="/home/dominik/uni/MoonState\l/src/dtlsClient.cpp">
<polygon fill="none" stroke="#000000" points="927,-67.5 927,-97.5 1074,-97.5 1074,-67.5 927,-67.5"/>
<text text-anchor="start" x="935" y="-85.5" font-family="Helvetica,sans-Serif" font-size="10.00" fill="#000000">/home/dominik/uni/MoonState</text>
<text text-anchor="middle" x="1000.5" y="-74.5" font-family="Helvetica,sans-Serif" font-size="10.00" fill="#000000">/src/dtlsClient.cpp</text>
</a>
</g>
</g>
<!-- Node8&#45;&gt;Node9 -->
<g id="edge3" class="edge">
<title>Node8&#45;&gt;Node9</title>
<path fill="none" stroke="#191970" d="M1003.6207,-124.3179C1002.9509,-115.3414 1002.2175,-105.5143 1001.6301,-97.6432"/>
<polygon fill="#191970" stroke="#191970" points="1000.1308,-124.5849 1004.3654,-134.2967 1007.1114,-124.0639 1000.1308,-124.5849"/>
</g>
<!-- Node11 -->
<g id="node6" class="node">
<title>Node11</title>
<g id="a_node6"><a xlink:href="helloBye2__C_8hpp.html" target="_top" xlink:title="/home/dominik/uni/MoonState\l/include/helloBye2_C.hpp">
<polygon fill="none" stroke="#000000" points="432,-67.5 432,-97.5 579,-97.5 579,-67.5 432,-67.5"/>
<text text-anchor="start" x="440" y="-85.5" font-family="Helvetica,sans-Serif" font-size="10.00" fill="#000000">/home/dominik/uni/MoonState</text>
<text text-anchor="middle" x="505.5" y="-74.5" font-family="Helvetica,sans-Serif" font-size="10.00" fill="#000000">/include/helloBye2_C.hpp</text>
</a>
</g>
</g>
<!-- Node10&#45;&gt;Node11 -->
<g id="edge5" class="edge">
<title>Node10&#45;&gt;Node11</title>
<path fill="none" stroke="#191970" d="M387.0702,-130.5897C412.7755,-120.1518 444.2642,-107.3654 468.3093,-97.6017"/>
<polygon fill="#191970" stroke="#191970" points="385.4777,-127.4587 377.5292,-134.4639 388.1113,-133.9444 385.4777,-127.4587"/>
</g>
<!-- Node13 -->
<g id="node8" class="node">
<title>Node13</title>
<g id="a_node8"><a xlink:href="helloBye2Proto_8cpp.html" target="_top" xlink:title="/home/dominik/uni/MoonState\l/src/helloBye2Proto.cpp">
<polygon fill="none" stroke="#000000" points="267,-67.5 267,-97.5 414,-97.5 414,-67.5 267,-67.5"/>
<text text-anchor="start" x="275" y="-85.5" font-family="Helvetica,sans-Serif" font-size="10.00" fill="#000000">/home/dominik/uni/MoonState</text>
<text text-anchor="middle" x="340.5" y="-74.5" font-family="Helvetica,sans-Serif" font-size="10.00" fill="#000000">/src/helloBye2Proto.cpp</text>
</a>
</g>
</g>
<!-- Node10&#45;&gt;Node13 -->
<g id="edge7" class="edge">
<title>Node10&#45;&gt;Node13</title>
<path fill="none" stroke="#191970" d="M333.9384,-124.3179C333.5239,-115.3414 333.7933,-105.5143 334.7464,-97.6432"/>
<polygon fill="#191970" stroke="#191970" points="330.4504,-124.6087 334.7392,-134.2967 337.428,-124.0487 330.4504,-124.6087"/>
</g>
<!-- Node14 -->
<g id="node9" class="node">
<title>Node14</title>
<g id="a_node9"><a xlink:href="helloBye2ProtoStatic_8cpp.html" target="_top" xlink:title="/home/dominik/uni/MoonState\l/src/helloBye2ProtoStatic.cpp">
<polygon fill="none" stroke="#000000" points="102,-67.5 102,-97.5 249,-97.5 249,-67.5 102,-67.5"/>
<text text-anchor="start" x="110" y="-85.5" font-family="Helvetica,sans-Serif" font-size="10.00" fill="#000000">/home/dominik/uni/MoonState</text>
<text text-anchor="middle" x="175.5" y="-74.5" font-family="Helvetica,sans-Serif" font-size="10.00" fill="#000000">/src/helloBye2ProtoStatic.cpp</text>
</a>
</g>
</g>
<!-- Node10&#45;&gt;Node14 -->
<g id="edge9" class="edge">
<title>Node10&#45;&gt;Node14</title>
<path fill="none" stroke="#191970" d="M293.9298,-130.5897C268.2245,-120.1518 236.7358,-107.3654 212.6907,-97.6017"/>
<polygon fill="#191970" stroke="#191970" points="292.8887,-133.9444 303.4708,-134.4639 295.5223,-127.4587 292.8887,-133.9444"/>
</g>
<!-- Node11&#45;&gt;Node12 -->
<g id="edge6" class="edge">
<title>Node11&#45;&gt;Node12</title>
<path fill="none" stroke="#191970" d="M421.6789,-66.8989C320.6232,-50.1417 215.6028,-35.0562 147.1607,-25.5387"/>
<polygon fill="#191970" stroke="#191970" points="421.3203,-70.3873 431.7596,-68.5783 422.4707,-63.4825 421.3203,-70.3873"/>
</g>
<!-- Node13&#45;&gt;Node10 -->
<g id="edge8" class="edge">
<title>Node13&#45;&gt;Node10</title>
<path fill="none" stroke="#191970" d="M347.0584,-107.6135C347.4764,-116.5857 347.2105,-126.4156 346.2608,-134.2967"/>
<polygon fill="#191970" stroke="#191970" points="350.5469,-107.3291 346.2536,-97.6432 343.5696,-107.8924 350.5469,-107.3291"/>
</g>
<!-- Node16 -->
<g id="node11" class="node">
<title>Node16</title>
<g id="a_node11"><a xlink:href="helloBye3_8cpp.html" target="_top" xlink:title="/home/dominik/uni/MoonState\l/src/helloBye3.cpp">
<polygon fill="none" stroke="#000000" points="597,-67.5 597,-97.5 744,-97.5 744,-67.5 597,-67.5"/>
<text text-anchor="start" x="605" y="-85.5" font-family="Helvetica,sans-Serif" font-size="10.00" fill="#000000">/home/dominik/uni/MoonState</text>
<text text-anchor="middle" x="670.5" y="-74.5" font-family="Helvetica,sans-Serif" font-size="10.00" fill="#000000">/src/helloBye3.cpp</text>
</a>
</g>
</g>
<!-- Node15&#45;&gt;Node16 -->
<g id="edge11" class="edge">
<title>Node15&#45;&gt;Node16</title>
<path fill="none" stroke="#191970" d="M660.8263,-124.0249C661.0949,-115.128 662.0925,-105.4287 663.6164,-97.6432"/>
<polygon fill="#191970" stroke="#191970" points="657.3275,-124.313 660.8738,-134.2967 664.3274,-124.2806 657.3275,-124.313"/>
</g>
<!-- Node16&#45;&gt;Node15 -->
<g id="edge12" class="edge">
<title>Node16&#45;&gt;Node15</title>
<path fill="none" stroke="#191970" d="M675.1758,-107.9064C674.9109,-116.7991 673.9165,-126.5013 672.3954,-134.2967"/>
<polygon fill="#191970" stroke="#191970" points="678.6745,-107.6252 675.1235,-97.6432 671.6746,-107.6609 678.6745,-107.6252"/>
</g>
<!-- Node18 -->
<g id="node13" class="node">
<title>Node18</title>
<g id="a_node13"><a xlink:href="helloBye3MemPool_8cpp.html" target="_top" xlink:title="/home/dominik/uni/MoonState\l/src/helloBye3MemPool.cpp">
<polygon fill="none" stroke="#000000" points="762,-67.5 762,-97.5 909,-97.5 909,-67.5 762,-67.5"/>
<text text-anchor="start" x="770" y="-85.5" font-family="Helvetica,sans-Serif" font-size="10.00" fill="#000000">/home/dominik/uni/MoonState</text>
<text text-anchor="middle" x="835.5" y="-74.5" font-family="Helvetica,sans-Serif" font-size="10.00" fill="#000000">/src/helloBye3MemPool.cpp</text>
</a>
</g>
</g>
<!-- Node17&#45;&gt;Node18 -->
<g id="edge14" class="edge">
<title>Node17&#45;&gt;Node18</title>
<path fill="none" stroke="#191970" d="M828.9384,-124.3179C828.5239,-115.3414 828.7933,-105.5143 829.7464,-97.6432"/>
<polygon fill="#191970" stroke="#191970" points="825.4504,-124.6087 829.7392,-134.2967 832.428,-124.0487 825.4504,-124.6087"/>
</g>
<!-- Node18&#45;&gt;Node17 -->
<g id="edge15" class="edge">
<title>Node18&#45;&gt;Node17</title>
<path fill="none" stroke="#191970" d="M842.0584,-107.6135C842.4764,-116.5857 842.2105,-126.4156 841.2608,-134.2967"/>
<polygon fill="#191970" stroke="#191970" points="845.5469,-107.3291 841.2536,-97.6432 838.5696,-107.8924 845.5469,-107.3291"/>
</g>
<!-- Node20 -->
<g id="node15" class="node">
<title>Node20</title>
<g id="a_node15"><a xlink:href="helloBye__C_8hpp.html" target="_top" xlink:title="/home/dominik/uni/MoonState\l/include/helloBye_C.hpp">
<polygon fill="none" stroke="#000000" points="1257,-67.5 1257,-97.5 1404,-97.5 1404,-67.5 1257,-67.5"/>
<text text-anchor="start" x="1265" y="-85.5" font-family="Helvetica,sans-Serif" font-size="10.00" fill="#000000">/home/dominik/uni/MoonState</text>
<text text-anchor="middle" x="1330.5" y="-74.5" font-family="Helvetica,sans-Serif" font-size="10.00" fill="#000000">/include/helloBye_C.hpp</text>
</a>
</g>
</g>
<!-- Node19&#45;&gt;Node20 -->
<g id="edge17" class="edge">
<title>Node19&#45;&gt;Node20</title>
<path fill="none" stroke="#191970" d="M1330.5,-124.0249C1330.5,-115.128 1330.5,-105.4287 1330.5,-97.6432"/>
<polygon fill="#191970" stroke="#191970" points="1327.0001,-124.2966 1330.5,-134.2967 1334.0001,-124.2967 1327.0001,-124.2966"/>
</g>
<!-- Node22 -->
<g id="node17" class="node">
<title>Node22</title>
<g id="a_node17"><a xlink:href="helloByeProto_8cpp.html" target="_top" xlink:title="/home/dominik/uni/MoonState\l/src/helloByeProto.cpp">
<polygon fill="none" stroke="#000000" points="1422,-67.5 1422,-97.5 1569,-97.5 1569,-67.5 1422,-67.5"/>
<text text-anchor="start" x="1430" y="-85.5" font-family="Helvetica,sans-Serif" font-size="10.00" fill="#000000">/home/dominik/uni/MoonState</text>
<text text-anchor="middle" x="1495.5" y="-74.5" font-family="Helvetica,sans-Serif" font-size="10.00" fill="#000000">/src/helloByeProto.cpp</text>
</a>
</g>
</g>
<!-- Node19&#45;&gt;Node22 -->
<g id="edge19" class="edge">
<title>Node19&#45;&gt;Node22</title>
<path fill="none" stroke="#191970" d="M1371.2527,-130.4516C1395.9867,-120.0392 1427.4405,-107.3224 1452.5608,-97.6017"/>
<polygon fill="#191970" stroke="#191970" points="1369.6293,-127.3382 1361.7887,-134.4639 1372.3616,-133.783 1369.6293,-127.3382"/>
</g>
<!-- Node23 -->
<g id="node18" class="node">
<title>Node23</title>
<g id="a_node18"><a xlink:href="helloByeProtoStatic_8cpp.html" target="_top" xlink:title="/home/dominik/uni/MoonState\l/src/helloByeProtoStatic.cpp">
<polygon fill="none" stroke="#000000" points="1092,-67.5 1092,-97.5 1239,-97.5 1239,-67.5 1092,-67.5"/>
<text text-anchor="start" x="1100" y="-85.5" font-family="Helvetica,sans-Serif" font-size="10.00" fill="#000000">/home/dominik/uni/MoonState</text>
<text text-anchor="middle" x="1165.5" y="-74.5" font-family="Helvetica,sans-Serif" font-size="10.00" fill="#000000">/src/helloByeProtoStatic.cpp</text>
</a>
</g>
</g>
<!-- Node19&#45;&gt;Node23 -->
<g id="edge21" class="edge">
<title>Node19&#45;&gt;Node23</title>
<path fill="none" stroke="#191970" d="M1283.9298,-130.5897C1258.2245,-120.1518 1226.7358,-107.3654 1202.6907,-97.6017"/>
<polygon fill="#191970" stroke="#191970" points="1282.8887,-133.9444 1293.4708,-134.4639 1285.5223,-127.4587 1282.8887,-133.9444"/>
</g>
<!-- Node20&#45;&gt;Node21 -->
<g id="edge18" class="edge">
<title>Node20&#45;&gt;Node21</title>
<path fill="none" stroke="#191970" d="M1400.1492,-65.0225C1442.7152,-54.3411 1496.6097,-40.8171 1537.3186,-30.6017"/>
<polygon fill="#191970" stroke="#191970" points="1399.2674,-61.6352 1390.42,-67.4639 1400.9712,-68.4247 1399.2674,-61.6352"/>
</g>
<!-- Node22&#45;&gt;Node19 -->
<g id="edge20" class="edge">
<title>Node22&#45;&gt;Node19</title>
<path fill="none" stroke="#191970" d="M1454.5802,-101.6188C1429.816,-112.0415 1398.3615,-124.7567 1373.2697,-134.4639"/>
<polygon fill="#191970" stroke="#191970" points="1456.2165,-104.7267 1464.0578,-97.6017 1453.4848,-98.2817 1456.2165,-104.7267"/>
</g>
</g>
</svg>
