<?xml version="1.0" encoding="UTF-8" standalone="no"?>
<!DOCTYPE svg PUBLIC "-//W3C//DTD SVG 1.1//EN"
 "http://www.w3.org/Graphics/SVG/1.1/DTD/svg11.dtd">
<!-- Generated by graphviz version 2.40.1 (20161225.0304)
 -->
<!-- Title: HelloBye::HelloByeClientBye::fun Pages: 1 -->
<svg width="437pt" height="165pt"
 viewBox="0.00 0.00 437.00 165.00" xmlns="http://www.w3.org/2000/svg" xmlns:xlink="http://www.w3.org/1999/xlink">
<g id="graph0" class="graph" transform="scale(1 1) rotate(0) translate(4 161)">
<title>HelloBye::HelloByeClientBye::fun</title>
<!-- Node1 -->
<g id="node1" class="node">
<title>Node1</title>
<polygon fill="#bfbfbf" stroke="#000000" points="0,-63.5 0,-93.5 128,-93.5 128,-63.5 0,-63.5"/>
<text text-anchor="start" x="8" y="-81.5" font-family="Helvetica,sans-Serif" font-size="10.00" fill="#000000">HelloBye::HelloByeClient</text>
<text text-anchor="middle" x="64" y="-70.5" font-family="Helvetica,sans-Serif" font-size="10.00" fill="#000000">Bye::fun</text>
</g>
<!-- Node2 -->
<g id="node2" class="node">
<title>Node2</title>
<g id="a_node2"><a xlink:href="structHeaders_1_1Ethernet.html#ad59e9fe1ec95b8e2ed11f97b44a20650" target="_top" xlink:title="Get the SDU. ">
<polygon fill="none" stroke="#000000" points="180,-126.5 180,-156.5 282,-156.5 282,-126.5 180,-126.5"/>
<text text-anchor="start" x="188" y="-144.5" font-family="Helvetica,sans-Serif" font-size="10.00" fill="#000000">Headers::Ethernet::</text>
<text text-anchor="middle" x="231" y="-133.5" font-family="Helvetica,sans-Serif" font-size="10.00" fill="#000000">getPayload</text>
</a>
</g>
</g>
<!-- Node1&#45;&gt;Node2 -->
<g id="edge1" class="edge">
<title>Node1&#45;&gt;Node2</title>
<path fill="none" stroke="#191970" d="M103.4003,-93.5346C121.8022,-100.5405 144.012,-108.9733 164,-116.5 169.5081,-118.5741 175.2737,-120.7374 181.0126,-122.8856"/>
<polygon fill="#191970" stroke="#191970" points="180.003,-126.2447 190.5955,-126.4684 182.4544,-119.688 180.003,-126.2447"/>
</g>
<!-- Node3 -->
<g id="node3" class="node">
<title>Node3</title>
<g id="a_node3"><a xlink:href="structHeaders_1_1IPv4.html#acc4a8033c5da9c2ce147ee10e15d2a49" target="_top" xlink:title="Get the SDU. ">
<polygon fill="none" stroke="#000000" points="164,-88 164,-107 298,-107 298,-88 164,-88"/>
<text text-anchor="middle" x="231" y="-95" font-family="Helvetica,sans-Serif" font-size="10.00" fill="#000000">Headers::IPv4::getPayload</text>
</a>
</g>
</g>
<!-- Node1&#45;&gt;Node3 -->
<g id="edge2" class="edge">
<title>Node1&#45;&gt;Node3</title>
<path fill="none" stroke="#191970" d="M128.089,-85.7916C136.4852,-86.7468 145.1587,-87.7336 153.7436,-88.7104"/>
<polygon fill="#191970" stroke="#191970" points="153.4274,-92.1969 163.759,-89.8498 154.2188,-85.2417 153.4274,-92.1969"/>
</g>
<!-- Node5 -->
<g id="node5" class="node">
<title>Node5</title>
<g id="a_node5"><a xlink:href="structHeaders_1_1Udp.html#a531f2e8247abf7807c50d806208b7cb1" target="_top" xlink:title="Get the SDU. ">
<polygon fill="none" stroke="#000000" points="165,-50 165,-69 297,-69 297,-50 165,-50"/>
<text text-anchor="middle" x="231" y="-57" font-family="Helvetica,sans-Serif" font-size="10.00" fill="#000000">Headers::Udp::getPayload</text>
</a>
</g>
</g>
<!-- Node1&#45;&gt;Node5 -->
<g id="edge4" class="edge">
<title>Node1&#45;&gt;Node5</title>
<path fill="none" stroke="#191970" d="M128.089,-71.2084C136.8438,-70.2124 145.9,-69.182 154.843,-68.1646"/>
<polygon fill="#191970" stroke="#191970" points="155.3296,-71.6319 164.8698,-67.0238 154.5382,-64.6768 155.3296,-71.6319"/>
</g>
<!-- Node6 -->
<g id="node6" class="node">
<title>Node6</title>
<g id="a_node6"><a xlink:href="classStateMachine_1_1FunIface.html#af87038e844cd7e3e778252ef1c15ed28" target="_top" xlink:title="Transition to another state. ">
<polygon fill="none" stroke="#000000" points="170.5,-.5 170.5,-30.5 291.5,-30.5 291.5,-.5 170.5,-.5"/>
<text text-anchor="start" x="178.5" y="-18.5" font-family="Helvetica,sans-Serif" font-size="10.00" fill="#000000">StateMachine::FunIface</text>
<text text-anchor="middle" x="231" y="-7.5" font-family="Helvetica,sans-Serif" font-size="10.00" fill="#000000">::transition</text>
</a>
</g>
</g>
<!-- Node1&#45;&gt;Node6 -->
<g id="edge5" class="edge">
<title>Node1&#45;&gt;Node6</title>
<path fill="none" stroke="#191970" d="M103.4003,-63.4654C121.8022,-56.4595 144.012,-48.0267 164,-40.5 169.5081,-38.4259 175.2737,-36.2626 181.0126,-34.1144"/>
<polygon fill="#191970" stroke="#191970" points="182.4544,-37.312 190.5955,-30.5316 180.003,-30.7553 182.4544,-37.312"/>
</g>
<!-- Node4 -->
<g id="node4" class="node">
<title>Node4</title>
<g id="a_node4"><a xlink:href="structHeaders_1_1IPv4.html#ac6c5485ffca9cffaded18d2ad8d5985a" target="_top" xlink:title="Headers::IPv4::ihl">
<polygon fill="none" stroke="#000000" points="334,-88 334,-107 429,-107 429,-88 334,-88"/>
<text text-anchor="middle" x="381.5" y="-95" font-family="Helvetica,sans-Serif" font-size="10.00" fill="#000000">Headers::IPv4::ihl</text>
</a>
</g>
</g>
<!-- Node3&#45;&gt;Node4 -->
<g id="edge3" class="edge">
<title>Node3&#45;&gt;Node4</title>
<path fill="none" stroke="#191970" d="M298.3266,-97.5C306.6911,-97.5 315.1876,-97.5 323.3967,-97.5"/>
<polygon fill="#191970" stroke="#191970" points="323.6094,-101.0001 333.6094,-97.5 323.6094,-94.0001 323.6094,-101.0001"/>
</g>
</g>
</svg>
