<?xml version="1.0" encoding="UTF-8" standalone="no"?>
<!DOCTYPE svg PUBLIC "-//W3C//DTD SVG 1.1//EN"
 "http://www.w3.org/Graphics/SVG/1.1/DTD/svg11.dtd">
<!-- Generated by graphviz version 2.38.0 (20140413.2041)
 -->
<!-- Title: HelloBye2::Client::Bye::run Pages: 1 -->
<svg width="412pt" height="242pt"
 viewBox="0.00 0.00 412.00 241.50" xmlns="http://www.w3.org/2000/svg" xmlns:xlink="http://www.w3.org/1999/xlink">
<g id="graph0" class="graph" transform="scale(1 1) rotate(0) translate(4 237.5)">
<title>HelloBye2::Client::Bye::run</title>
<!-- Node1 -->
<g id="node1" class="node"><title>Node1</title>
<polygon fill="#bfbfbf" stroke="black" points="0,-102 0,-132 99,-132 99,-102 0,-102"/>
<text text-anchor="start" x="8" y="-120" font-family="Helvetica,sans-Serif" font-size="10.00">HelloBye2::Client::</text>
<text text-anchor="middle" x="49.5" y="-109" font-family="Helvetica,sans-Serif" font-size="10.00">Bye::run</text>
</g>
<!-- Node2 -->
<g id="node2" class="node"><title>Node2</title>
<g id="a_node2"><a xlink:href="classHelloBye2_1_1Client_1_1Bye.html#a0bb3514de4c48b032cac4032d8842dbc" target="_top" xlink:title="HelloBye2::Client::\lBye::fun">
<polygon fill="none" stroke="black" points="135,-102 135,-132 234,-132 234,-102 135,-102"/>
<text text-anchor="start" x="143" y="-120" font-family="Helvetica,sans-Serif" font-size="10.00">HelloBye2::Client::</text>
<text text-anchor="middle" x="184.5" y="-109" font-family="Helvetica,sans-Serif" font-size="10.00">Bye::fun</text>
</a>
</g>
</g>
<!-- Node1&#45;&gt;Node2 -->
<g id="edge1" class="edge"><title>Node1&#45;&gt;Node2</title>
<path fill="none" stroke="midnightblue" d="M99.2691,-117C107.491,-117 116.104,-117 124.551,-117"/>
<polygon fill="midnightblue" stroke="midnightblue" points="124.737,-120.5 134.737,-117 124.737,-113.5 124.737,-120.5"/>
</g>
<!-- Node3 -->
<g id="node3" class="node"><title>Node3</title>
<g id="a_node3"><a xlink:href="structHeaders_1_1Ethernet.html#ad59e9fe1ec95b8e2ed11f97b44a20650" target="_top" xlink:title="Get the SDU. ">
<polygon fill="none" stroke="black" points="286,-203 286,-233 388,-233 388,-203 286,-203"/>
<text text-anchor="start" x="294" y="-221" font-family="Helvetica,sans-Serif" font-size="10.00">Headers::Ethernet::</text>
<text text-anchor="middle" x="337" y="-210" font-family="Helvetica,sans-Serif" font-size="10.00">getPayload</text>
</a>
</g>
</g>
<!-- Node2&#45;&gt;Node3 -->
<g id="edge2" class="edge"><title>Node2&#45;&gt;Node3</title>
<path fill="none" stroke="midnightblue" d="M199.118,-132.256C214.804,-149.06 242.031,-175.956 270,-193 273.319,-195.022 276.828,-196.927 280.431,-198.713"/>
<polygon fill="midnightblue" stroke="midnightblue" points="278.973,-201.895 289.519,-202.905 281.904,-195.539 278.973,-201.895"/>
</g>
<!-- Node4 -->
<g id="node4" class="node"><title>Node4</title>
<g id="a_node4"><a xlink:href="structHeaders_1_1IPv4.html#acc4a8033c5da9c2ce147ee10e15d2a49" target="_top" xlink:title="Get the SDU. ">
<polygon fill="none" stroke="black" points="270,-164.5 270,-183.5 404,-183.5 404,-164.5 270,-164.5"/>
<text text-anchor="middle" x="337" y="-171.5" font-family="Helvetica,sans-Serif" font-size="10.00">Headers::IPv4::getPayload</text>
</a>
</g>
</g>
<!-- Node2&#45;&gt;Node4 -->
<g id="edge3" class="edge"><title>Node2&#45;&gt;Node4</title>
<path fill="none" stroke="midnightblue" d="M216.362,-132.153C232.178,-139.59 251.878,-148.355 270,-155 276.318,-157.317 283.058,-159.535 289.727,-161.587"/>
<polygon fill="midnightblue" stroke="midnightblue" points="288.806,-164.964 299.389,-164.464 290.804,-158.255 288.806,-164.964"/>
</g>
<!-- Node5 -->
<g id="node5" class="node"><title>Node5</title>
<g id="a_node5"><a xlink:href="structHeaders_1_1Udp.html#a531f2e8247abf7807c50d806208b7cb1" target="_top" xlink:title="Get the SDU. ">
<polygon fill="none" stroke="black" points="271,-126.5 271,-145.5 403,-145.5 403,-126.5 271,-126.5"/>
<text text-anchor="middle" x="337" y="-133.5" font-family="Helvetica,sans-Serif" font-size="10.00">Headers::Udp::getPayload</text>
</a>
</g>
</g>
<!-- Node2&#45;&gt;Node5 -->
<g id="edge4" class="edge"><title>Node2&#45;&gt;Node5</title>
<path fill="none" stroke="midnightblue" d="M234.363,-123.169C242.844,-124.239 251.837,-125.375 260.829,-126.51"/>
<polygon fill="midnightblue" stroke="midnightblue" points="260.593,-130.008 270.953,-127.788 261.47,-123.063 260.593,-130.008"/>
</g>
<!-- Node6 -->
<g id="node6" class="node"><title>Node6</title>
<g id="a_node6"><a xlink:href="structHelloBye2_1_1msg.html#a4176b99eaac8fa68d5e44531ad8eaba0" target="_top" xlink:title="HelloBye2::msg::msg">
<polygon fill="none" stroke="black" points="281.5,-88.5 281.5,-107.5 392.5,-107.5 392.5,-88.5 281.5,-88.5"/>
<text text-anchor="middle" x="337" y="-95.5" font-family="Helvetica,sans-Serif" font-size="10.00">HelloBye2::msg::msg</text>
</a>
</g>
</g>
<!-- Node2&#45;&gt;Node6 -->
<g id="edge5" class="edge"><title>Node2&#45;&gt;Node6</title>
<path fill="none" stroke="midnightblue" d="M234.363,-110.831C246.098,-109.35 258.812,-107.745 271.147,-106.187"/>
<polygon fill="midnightblue" stroke="midnightblue" points="271.906,-109.619 281.389,-104.894 271.03,-102.675 271.906,-109.619"/>
</g>
<!-- Node7 -->
<g id="node7" class="node"><title>Node7</title>
<g id="a_node7"><a xlink:href="classStateMachine_1_1FunIface.html#af87038e844cd7e3e778252ef1c15ed28" target="_top" xlink:title="Transition to another state. ">
<polygon fill="none" stroke="black" points="276.5,-39 276.5,-69 397.5,-69 397.5,-39 276.5,-39"/>
<text text-anchor="start" x="284.5" y="-57" font-family="Helvetica,sans-Serif" font-size="10.00">StateMachine::FunIface</text>
<text text-anchor="middle" x="337" y="-46" font-family="Helvetica,sans-Serif" font-size="10.00">::transition</text>
</a>
</g>
</g>
<!-- Node2&#45;&gt;Node7 -->
<g id="edge6" class="edge"><title>Node2&#45;&gt;Node7</title>
<path fill="none" stroke="midnightblue" d="M217.803,-101.921C233.466,-94.7517 252.61,-86.1959 270,-79 275.024,-76.921 280.289,-74.8117 285.562,-72.7448"/>
<polygon fill="midnightblue" stroke="midnightblue" points="286.947,-75.9617 295.008,-69.0863 284.419,-69.4341 286.947,-75.9617"/>
</g>
<!-- Node8 -->
<g id="node8" class="node"><title>Node8</title>
<g id="a_node8"><a xlink:href="common_8hpp.html#ab9ce1ea79c76c5726af17e271c20c6ec" target="_top" xlink:title="Dump hex data. ">
<polygon fill="none" stroke="black" points="309,-0.5 309,-19.5 365,-19.5 365,-0.5 309,-0.5"/>
<text text-anchor="middle" x="337" y="-7.5" font-family="Helvetica,sans-Serif" font-size="10.00">hexdump</text>
</a>
</g>
</g>
<!-- Node2&#45;&gt;Node8 -->
<g id="edge7" class="edge"><title>Node2&#45;&gt;Node8</title>
<path fill="none" stroke="midnightblue" d="M196.324,-101.806C210.918,-82.4017 238.711,-49.0593 270,-30 278.727,-24.6839 288.972,-20.6894 298.751,-17.7263"/>
<polygon fill="midnightblue" stroke="midnightblue" points="299.974,-21.0203 308.692,-14.9995 298.122,-14.2697 299.974,-21.0203"/>
</g>
</g>
</svg>
