<?xml version="1.0" encoding="UTF-8" standalone="no"?>
<!DOCTYPE svg PUBLIC "-//W3C//DTD SVG 1.1//EN"
 "http://www.w3.org/Graphics/SVG/1.1/DTD/svg11.dtd">
<!-- Generated by graphviz version 2.38.0 (20140413.2041)
 -->
<!-- Title: HelloBye::HelloByeServerBye::fun Pages: 1 -->
<svg width="309pt" height="165pt"
 viewBox="0.00 0.00 309.00 165.00" xmlns="http://www.w3.org/2000/svg" xmlns:xlink="http://www.w3.org/1999/xlink">
<g id="graph0" class="graph" transform="scale(1 1) rotate(0) translate(4 161)">
<title>HelloBye::HelloByeServerBye::fun</title>
<!-- Node1 -->
<g id="node1" class="node"><title>Node1</title>
<polygon fill="#bfbfbf" stroke="black" points="0,-63.5 0,-93.5 131,-93.5 131,-63.5 0,-63.5"/>
<text text-anchor="start" x="8" y="-81.5" font-family="Helvetica,sans-Serif" font-size="10.00">HelloBye::HelloByeServer</text>
<text text-anchor="middle" x="65.5" y="-70.5" font-family="Helvetica,sans-Serif" font-size="10.00">Bye::fun</text>
</g>
<!-- Node2 -->
<g id="node2" class="node"><title>Node2</title>
<g id="a_node2"><a xlink:href="structHeaders_1_1Ethernet.html#ad59e9fe1ec95b8e2ed11f97b44a20650" target="_top" xlink:title="Get the SDU. ">
<polygon fill="none" stroke="black" points="183,-126.5 183,-156.5 285,-156.5 285,-126.5 183,-126.5"/>
<text text-anchor="start" x="191" y="-144.5" font-family="Helvetica,sans-Serif" font-size="10.00">Headers::Ethernet::</text>
<text text-anchor="middle" x="234" y="-133.5" font-family="Helvetica,sans-Serif" font-size="10.00">getPayload</text>
</a>
</g>
</g>
<!-- Node1&#45;&gt;Node2 -->
<g id="edge1" class="edge"><title>Node1&#45;&gt;Node2</title>
<path fill="none" stroke="midnightblue" d="M106.381,-93.5901C129.567,-102.363 158.981,-113.493 183.622,-122.816"/>
<polygon fill="midnightblue" stroke="midnightblue" points="182.565,-126.159 193.156,-126.424 185.042,-119.612 182.565,-126.159"/>
</g>
<!-- Node3 -->
<g id="node3" class="node"><title>Node3</title>
<g id="a_node3"><a xlink:href="structHeaders_1_1IPv4.html#acc4a8033c5da9c2ce147ee10e15d2a49" target="_top" xlink:title="Get the SDU. ">
<polygon fill="none" stroke="black" points="167,-88 167,-107 301,-107 301,-88 167,-88"/>
<text text-anchor="middle" x="234" y="-95" font-family="Helvetica,sans-Serif" font-size="10.00">Headers::IPv4::getPayload</text>
</a>
</g>
</g>
<!-- Node1&#45;&gt;Node3 -->
<g id="edge2" class="edge"><title>Node1&#45;&gt;Node3</title>
<path fill="none" stroke="midnightblue" d="M131.35,-85.9003C139.75,-86.8589 148.414,-87.8475 156.975,-88.8245"/>
<polygon fill="midnightblue" stroke="midnightblue" points="156.623,-92.307 166.956,-89.9634 157.417,-85.3521 156.623,-92.307"/>
</g>
<!-- Node4 -->
<g id="node4" class="node"><title>Node4</title>
<g id="a_node4"><a xlink:href="structHeaders_1_1Udp.html#a531f2e8247abf7807c50d806208b7cb1" target="_top" xlink:title="Get the SDU. ">
<polygon fill="none" stroke="black" points="168,-50 168,-69 300,-69 300,-50 168,-50"/>
<text text-anchor="middle" x="234" y="-57" font-family="Helvetica,sans-Serif" font-size="10.00">Headers::Udp::getPayload</text>
</a>
</g>
</g>
<!-- Node1&#45;&gt;Node4 -->
<g id="edge3" class="edge"><title>Node1&#45;&gt;Node4</title>
<path fill="none" stroke="midnightblue" d="M131.35,-71.0997C139.947,-70.1186 148.82,-69.1061 157.577,-68.1069"/>
<polygon fill="midnightblue" stroke="midnightblue" points="158.24,-71.5539 167.779,-66.9426 157.447,-64.5991 158.24,-71.5539"/>
</g>
<!-- Node5 -->
<g id="node5" class="node"><title>Node5</title>
<g id="a_node5"><a xlink:href="structStateMachine_1_1State.html#a89a520519a2b8dab5f4ae7a90c2bee83" target="_top" xlink:title="Transition to another state. ">
<polygon fill="none" stroke="black" points="181,-0.5 181,-30.5 287,-30.5 287,-0.5 181,-0.5"/>
<text text-anchor="start" x="189" y="-18.5" font-family="Helvetica,sans-Serif" font-size="10.00">StateMachine::State</text>
<text text-anchor="middle" x="234" y="-7.5" font-family="Helvetica,sans-Serif" font-size="10.00">::transition</text>
</a>
</g>
</g>
<!-- Node1&#45;&gt;Node5 -->
<g id="edge4" class="edge"><title>Node1&#45;&gt;Node5</title>
<path fill="none" stroke="midnightblue" d="M106.381,-63.4099C129.567,-54.6367 158.981,-43.5072 183.622,-34.1837"/>
<polygon fill="midnightblue" stroke="midnightblue" points="185.042,-37.3885 193.156,-30.576 182.565,-30.8415 185.042,-37.3885"/>
</g>
</g>
</svg>
