<?xml version="1.0" encoding="UTF-8" standalone="no"?>
<!DOCTYPE svg PUBLIC "-//W3C//DTD SVG 1.1//EN"
 "http://www.w3.org/Graphics/SVG/1.1/DTD/svg11.dtd">
<!-- Generated by graphviz version 2.38.0 (20140413.2041)
 -->
<!-- Title: StateMachine::FunIface::~FunIface Pages: 1 -->
<svg width="391pt" height="66pt"
 viewBox="0.00 0.00 391.00 66.00" xmlns="http://www.w3.org/2000/svg" xmlns:xlink="http://www.w3.org/1999/xlink">
<g id="graph0" class="graph" transform="scale(1 1) rotate(0) translate(4 62)">
<title>StateMachine::FunIface::~FunIface</title>
<!-- Node1 -->
<g id="node1" class="node"><title>Node1</title>
<polygon fill="#bfbfbf" stroke="black" points="0,-14 0,-44 121,-44 121,-14 0,-14"/>
<text text-anchor="start" x="8" y="-32" font-family="Helvetica,sans-Serif" font-size="10.00">StateMachine::FunIface</text>
<text text-anchor="middle" x="60.5" y="-21" font-family="Helvetica,sans-Serif" font-size="10.00">::~FunIface</text>
</g>
<!-- Node2 -->
<g id="node2" class="node"><title>Node2</title>
<g id="a_node2"><a xlink:href="structBufArray.html#aa0486b95faa598824d8fcf5a4c607845" target="_top" xlink:title="BufArray::addPkt">
<polygon fill="none" stroke="black" points="157,-19.5 157,-38.5 249,-38.5 249,-19.5 157,-19.5"/>
<text text-anchor="middle" x="203" y="-26.5" font-family="Helvetica,sans-Serif" font-size="10.00">BufArray::addPkt</text>
</a>
</g>
</g>
<!-- Node1&#45;&gt;Node2 -->
<g id="edge1" class="edge"><title>Node1&#45;&gt;Node2</title>
<path fill="none" stroke="midnightblue" d="M121.085,-29C129.592,-29 138.313,-29 146.733,-29"/>
<polygon fill="midnightblue" stroke="midnightblue" points="146.82,-32.5001 156.82,-29 146.82,-25.5001 146.82,-32.5001"/>
</g>
<!-- Node3 -->
<g id="node3" class="node"><title>Node3</title>
<g id="a_node3"><a xlink:href="structBufArray.html#ae0799e032421a961908200bc4b03a2ea" target="_top" xlink:title="BufArray::getArray">
<polygon fill="none" stroke="black" points="285,-38.5 285,-57.5 383,-57.5 383,-38.5 285,-38.5"/>
<text text-anchor="middle" x="334" y="-45.5" font-family="Helvetica,sans-Serif" font-size="10.00">BufArray::getArray</text>
</a>
</g>
</g>
<!-- Node2&#45;&gt;Node3 -->
<g id="edge2" class="edge"><title>Node2&#45;&gt;Node3</title>
<path fill="none" stroke="midnightblue" d="M249.118,-35.6453C257.369,-36.8605 266.086,-38.1445 274.658,-39.4069"/>
<polygon fill="midnightblue" stroke="midnightblue" points="274.212,-42.879 284.615,-40.8736 275.232,-35.9537 274.212,-42.879"/>
</g>
<!-- Node4 -->
<g id="node4" class="node"><title>Node4</title>
<g id="a_node4"><a xlink:href="structBufArray.html#ae7fc1e0864dc22251a63389aa1134076" target="_top" xlink:title="BufArray::getNum">
<polygon fill="none" stroke="black" points="286.5,-0.5 286.5,-19.5 381.5,-19.5 381.5,-0.5 286.5,-0.5"/>
<text text-anchor="middle" x="334" y="-7.5" font-family="Helvetica,sans-Serif" font-size="10.00">BufArray::getNum</text>
</a>
</g>
</g>
<!-- Node2&#45;&gt;Node4 -->
<g id="edge3" class="edge"><title>Node2&#45;&gt;Node4</title>
<path fill="none" stroke="midnightblue" d="M249.118,-22.3547C257.881,-21.064 267.17,-19.6959 276.251,-18.3583"/>
<polygon fill="midnightblue" stroke="midnightblue" points="276.994,-21.7869 286.377,-16.867 275.973,-14.8616 276.994,-21.7869"/>
</g>
</g>
</svg>
