<?xml version="1.0" encoding="UTF-8" standalone="no"?>
<!DOCTYPE svg PUBLIC "-//W3C//DTD SVG 1.1//EN"
 "http://www.w3.org/Graphics/SVG/1.1/DTD/svg11.dtd">
<!-- Generated by graphviz version 2.38.0 (20140413.2041)
 -->
<!-- Title: HelloBye::HelloByeClientHello::run Pages: 1 -->
<svg width="470pt" height="340pt"
 viewBox="0.00 0.00 470.00 340.00" xmlns="http://www.w3.org/2000/svg" xmlns:xlink="http://www.w3.org/1999/xlink">
<g id="graph0" class="graph" transform="scale(1 1) rotate(0) translate(4 336)">
<title>HelloBye::HelloByeClientHello::run</title>
<!-- Node1 -->
<g id="node1" class="node"><title>Node1</title>
<polygon fill="#bfbfbf" stroke="black" points="0,-153.5 0,-183.5 128,-183.5 128,-153.5 0,-153.5"/>
<text text-anchor="start" x="8" y="-171.5" font-family="Helvetica,sans-Serif" font-size="10.00">HelloBye::HelloByeClient</text>
<text text-anchor="middle" x="64" y="-160.5" font-family="Helvetica,sans-Serif" font-size="10.00">Hello::run</text>
</g>
<!-- Node2 -->
<g id="node2" class="node"><title>Node2</title>
<g id="a_node2"><a xlink:href="classHelloBye_1_1HelloByeClientHello.html#a5195cb1265576c48fe9d64adeaa5e92b" target="_top" xlink:title="HelloBye::HelloByeClient\lHello::fun">
<polygon fill="none" stroke="black" points="164,-153.5 164,-183.5 292,-183.5 292,-153.5 164,-153.5"/>
<text text-anchor="start" x="172" y="-171.5" font-family="Helvetica,sans-Serif" font-size="10.00">HelloBye::HelloByeClient</text>
<text text-anchor="middle" x="228" y="-160.5" font-family="Helvetica,sans-Serif" font-size="10.00">Hello::fun</text>
</a>
</g>
</g>
<!-- Node1&#45;&gt;Node2 -->
<g id="edge1" class="edge"><title>Node1&#45;&gt;Node2</title>
<path fill="none" stroke="midnightblue" d="M128.097,-168.5C136.435,-168.5 145.038,-168.5 153.53,-168.5"/>
<polygon fill="midnightblue" stroke="midnightblue" points="153.808,-172 163.808,-168.5 153.808,-165 153.808,-172"/>
</g>
<!-- Node3 -->
<g id="node3" class="node"><title>Node3</title>
<g id="a_node3"><a xlink:href="classHelloBye_1_1HelloByeClientConfig.html#ad2c4d5874607eab2f221dd9dc8b55e1e" target="_top" xlink:title="HelloBye::HelloByeClient\lConfig::getInstance">
<polygon fill="none" stroke="black" points="331,-301.5 331,-331.5 459,-331.5 459,-301.5 331,-301.5"/>
<text text-anchor="start" x="339" y="-319.5" font-family="Helvetica,sans-Serif" font-size="10.00">HelloBye::HelloByeClient</text>
<text text-anchor="middle" x="395" y="-308.5" font-family="Helvetica,sans-Serif" font-size="10.00">Config::getInstance</text>
</a>
</g>
</g>
<!-- Node2&#45;&gt;Node3 -->
<g id="edge2" class="edge"><title>Node2&#45;&gt;Node3</title>
<path fill="none" stroke="midnightblue" d="M237.415,-183.52C252.448,-209.089 286.286,-261.239 328,-291.5 330.628,-293.407 333.42,-295.186 336.312,-296.845"/>
<polygon fill="midnightblue" stroke="midnightblue" points="334.742,-299.973 345.231,-301.464 337.961,-293.757 334.742,-299.973"/>
</g>
<!-- Node4 -->
<g id="node4" class="node"><title>Node4</title>
<g id="a_node4"><a xlink:href="structHeaders_1_1IPv4.html#a28a6286beded8ad7cd611483f3dcac09" target="_top" xlink:title="Set the version field to 4. ">
<polygon fill="none" stroke="black" points="329.5,-263 329.5,-282 460.5,-282 460.5,-263 329.5,-263"/>
<text text-anchor="middle" x="395" y="-270" font-family="Helvetica,sans-Serif" font-size="10.00">Headers::IPv4::setVersion</text>
</a>
</g>
</g>
<!-- Node2&#45;&gt;Node4 -->
<g id="edge3" class="edge"><title>Node2&#45;&gt;Node4</title>
<path fill="none" stroke="midnightblue" d="M242.596,-183.642C260.425,-202.613 293.511,-234.887 328,-253.5 332.174,-255.753 336.645,-257.764 341.219,-259.555"/>
<polygon fill="midnightblue" stroke="midnightblue" points="340.097,-262.871 350.692,-262.927 342.445,-256.276 340.097,-262.871"/>
</g>
<!-- Node5 -->
<g id="node5" class="node"><title>Node5</title>
<g id="a_node5"><a xlink:href="structHeaders_1_1IPv4.html#a89ebc78cd618d1ac327bb82e4b46917f" target="_top" xlink:title="Sets the IP header length. ">
<polygon fill="none" stroke="black" points="337.5,-225 337.5,-244 452.5,-244 452.5,-225 337.5,-225"/>
<text text-anchor="middle" x="395" y="-232" font-family="Helvetica,sans-Serif" font-size="10.00">Headers::IPv4::setIHL</text>
</a>
</g>
</g>
<!-- Node2&#45;&gt;Node5 -->
<g id="edge4" class="edge"><title>Node2&#45;&gt;Node5</title>
<path fill="none" stroke="midnightblue" d="M257.485,-183.545C276.983,-193.463 303.621,-206.275 328,-215.5 334.074,-217.799 340.552,-219.979 346.985,-221.988"/>
<polygon fill="midnightblue" stroke="midnightblue" points="346.412,-225.47 356.996,-224.996 348.426,-218.766 346.412,-225.47"/>
</g>
<!-- Node6 -->
<g id="node6" class="node"><title>Node6</title>
<g id="a_node6"><a xlink:href="classHelloBye_1_1HelloByeClientConfig.html#ab6359aa6d88b7f655b562861a6fc82bc" target="_top" xlink:title="HelloBye::HelloByeClient\lConfig::getSrcIP">
<polygon fill="none" stroke="black" points="331,-175.5 331,-205.5 459,-205.5 459,-175.5 331,-175.5"/>
<text text-anchor="start" x="339" y="-193.5" font-family="Helvetica,sans-Serif" font-size="10.00">HelloBye::HelloByeClient</text>
<text text-anchor="middle" x="395" y="-182.5" font-family="Helvetica,sans-Serif" font-size="10.00">Config::getSrcIP</text>
</a>
</g>
</g>
<!-- Node2&#45;&gt;Node6 -->
<g id="edge5" class="edge"><title>Node2&#45;&gt;Node6</title>
<path fill="none" stroke="midnightblue" d="M292.321,-176.943C301.598,-178.18 311.218,-179.462 320.674,-180.723"/>
<polygon fill="midnightblue" stroke="midnightblue" points="320.473,-184.227 330.848,-182.08 321.398,-177.289 320.473,-184.227"/>
</g>
<!-- Node7 -->
<g id="node7" class="node"><title>Node7</title>
<g id="a_node7"><a xlink:href="structHeaders_1_1IPv4.html#acc4a8033c5da9c2ce147ee10e15d2a49" target="_top" xlink:title="Get the SDU. ">
<polygon fill="none" stroke="black" points="328,-137 328,-156 462,-156 462,-137 328,-137"/>
<text text-anchor="middle" x="395" y="-144" font-family="Helvetica,sans-Serif" font-size="10.00">Headers::IPv4::getPayload</text>
</a>
</g>
</g>
<!-- Node2&#45;&gt;Node7 -->
<g id="edge6" class="edge"><title>Node2&#45;&gt;Node7</title>
<path fill="none" stroke="midnightblue" d="M292.321,-160.057C300.682,-158.942 309.322,-157.79 317.869,-156.651"/>
<polygon fill="midnightblue" stroke="midnightblue" points="318.389,-160.113 327.839,-155.321 317.464,-153.174 318.389,-160.113"/>
</g>
<!-- Node8 -->
<g id="node8" class="node"><title>Node8</title>
<g id="a_node8"><a xlink:href="structHeaders_1_1Udp.html#a531f2e8247abf7807c50d806208b7cb1" target="_top" xlink:title="Get the SDU. ">
<polygon fill="none" stroke="black" points="329,-99 329,-118 461,-118 461,-99 329,-99"/>
<text text-anchor="middle" x="395" y="-106" font-family="Helvetica,sans-Serif" font-size="10.00">Headers::Udp::getPayload</text>
</a>
</g>
</g>
<!-- Node2&#45;&gt;Node8 -->
<g id="edge7" class="edge"><title>Node2&#45;&gt;Node8</title>
<path fill="none" stroke="midnightblue" d="M262.997,-153.311C281.932,-145.133 306.05,-135.177 328,-127.5 334.503,-125.225 341.433,-123.01 348.266,-120.942"/>
<polygon fill="midnightblue" stroke="midnightblue" points="349.544,-124.214 358.146,-118.029 347.564,-117.5 349.544,-124.214"/>
</g>
<!-- Node9 -->
<g id="node9" class="node"><title>Node9</title>
<g id="a_node9"><a xlink:href="classHelloBye_1_1HelloByeClientConfig.html#a632d9fcc0cdea73b31e5871ae6b54c24" target="_top" xlink:title="HelloBye::HelloByeClient\lConfig::getDstPort">
<polygon fill="none" stroke="black" points="331,-49.5 331,-79.5 459,-79.5 459,-49.5 331,-49.5"/>
<text text-anchor="start" x="339" y="-67.5" font-family="Helvetica,sans-Serif" font-size="10.00">HelloBye::HelloByeClient</text>
<text text-anchor="middle" x="395" y="-56.5" font-family="Helvetica,sans-Serif" font-size="10.00">Config::getDstPort</text>
</a>
</g>
</g>
<!-- Node2&#45;&gt;Node9 -->
<g id="edge8" class="edge"><title>Node2&#45;&gt;Node9</title>
<path fill="none" stroke="midnightblue" d="M244.673,-153.395C263.296,-136.093 295.901,-107.785 328,-89.5 331.593,-87.4531 335.386,-85.5115 339.264,-83.6828"/>
<polygon fill="midnightblue" stroke="midnightblue" points="340.689,-86.8795 348.411,-79.6248 337.85,-80.4809 340.689,-86.8795"/>
</g>
<!-- Node10 -->
<g id="node10" class="node"><title>Node10</title>
<g id="a_node10"><a xlink:href="structStateMachine_1_1State.html#a89a520519a2b8dab5f4ae7a90c2bee83" target="_top" xlink:title="Transition to another state. ">
<polygon fill="none" stroke="black" points="342,-0.5 342,-30.5 448,-30.5 448,-0.5 342,-0.5"/>
<text text-anchor="start" x="350" y="-18.5" font-family="Helvetica,sans-Serif" font-size="10.00">StateMachine::State</text>
<text text-anchor="middle" x="395" y="-7.5" font-family="Helvetica,sans-Serif" font-size="10.00">::transition</text>
</a>
</g>
</g>
<!-- Node2&#45;&gt;Node10 -->
<g id="edge9" class="edge"><title>Node2&#45;&gt;Node10</title>
<path fill="none" stroke="midnightblue" d="M237.025,-153.279C251.702,-126.804 285.325,-72.0928 328,-40.5 330.48,-38.6637 333.112,-36.9467 335.84,-35.3434"/>
<polygon fill="midnightblue" stroke="midnightblue" points="337.61,-38.3669 344.819,-30.6025 334.341,-32.1768 337.61,-38.3669"/>
</g>
</g>
</svg>
