<?xml version="1.0" encoding="UTF-8" standalone="no"?>
<!DOCTYPE svg PUBLIC "-//W3C//DTD SVG 1.1//EN"
 "http://www.w3.org/Graphics/SVG/1.1/DTD/svg11.dtd">
<!-- Generated by graphviz version 2.40.1 (20161225.0304)
 -->
<!-- Title: HelloBye2::Client::Hello::run Pages: 1 -->
<svg width="553pt" height="656pt"
 viewBox="0.00 0.00 553.00 656.00" xmlns="http://www.w3.org/2000/svg" xmlns:xlink="http://www.w3.org/1999/xlink">
<g id="graph0" class="graph" transform="scale(1 1) rotate(0) translate(4 652)">
<title>HelloBye2::Client::Hello::run</title>
<!-- Node19 -->
<g id="node1" class="node">
<title>Node19</title>
<polygon fill="#bfbfbf" stroke="#000000" points="0,-314.5 0,-344.5 99,-344.5 99,-314.5 0,-314.5"/>
<text text-anchor="start" x="8" y="-332.5" font-family="Helvetica,sans-Serif" font-size="10.00" fill="#000000">HelloBye2::Client::</text>
<text text-anchor="middle" x="49.5" y="-321.5" font-family="Helvetica,sans-Serif" font-size="10.00" fill="#000000">Hello::run</text>
</g>
<!-- Node20 -->
<g id="node2" class="node">
<title>Node20</title>
<g id="a_node2"><a xlink:href="classHelloBye2_1_1Client_1_1Hello.html#af845992604b22f6d99819ed79908b8ff" target="_top" xlink:title="HelloBye2::Client::\lHello::fun">
<polygon fill="none" stroke="#000000" points="135,-314.5 135,-344.5 234,-344.5 234,-314.5 135,-314.5"/>
<text text-anchor="start" x="143" y="-332.5" font-family="Helvetica,sans-Serif" font-size="10.00" fill="#000000">HelloBye2::Client::</text>
<text text-anchor="middle" x="184.5" y="-321.5" font-family="Helvetica,sans-Serif" font-size="10.00" fill="#000000">Hello::fun</text>
</a>
</g>
</g>
<!-- Node19&#45;&gt;Node20 -->
<g id="edge1" class="edge">
<title>Node19&#45;&gt;Node20</title>
<path fill="none" stroke="#191970" d="M99.0024,-329.5C107.2413,-329.5 115.8662,-329.5 124.3351,-329.5"/>
<polygon fill="#191970" stroke="#191970" points="124.5517,-333.0001 134.5516,-329.5 124.5516,-326.0001 124.5517,-333.0001"/>
</g>
<!-- Node21 -->
<g id="node3" class="node">
<title>Node21</title>
<g id="a_node3"><a xlink:href="classHelloBye2_1_1HelloBye2ClientConfig.html#a6b4dd49468ee84d6f07789f72df6d4d8" target="_top" xlink:title="HelloBye2::HelloBye2Client\lConfig::getInstance">
<polygon fill="none" stroke="#000000" points="273,-617.5 273,-647.5 411,-647.5 411,-617.5 273,-617.5"/>
<text text-anchor="start" x="281" y="-635.5" font-family="Helvetica,sans-Serif" font-size="10.00" fill="#000000">HelloBye2::HelloBye2Client</text>
<text text-anchor="middle" x="342" y="-624.5" font-family="Helvetica,sans-Serif" font-size="10.00" fill="#000000">Config::getInstance</text>
</a>
</g>
</g>
<!-- Node20&#45;&gt;Node21 -->
<g id="edge2" class="edge">
<title>Node20&#45;&gt;Node21</title>
<path fill="none" stroke="#191970" d="M187.2678,-344.5035C197.1373,-396.5314 232.0475,-568.1629 270,-607.5 271.4126,-608.9641 272.9152,-610.3425 274.4919,-611.6402"/>
<polygon fill="#191970" stroke="#191970" points="272.7065,-614.6612 282.9195,-617.4798 276.6933,-608.9075 272.7065,-614.6612"/>
</g>
<!-- Node22 -->
<g id="node4" class="node">
<title>Node22</title>
<g id="a_node4"><a xlink:href="structHeaders_1_1IPv4.html#a28a6286beded8ad7cd611483f3dcac09" target="_top" xlink:title="Set the version field to 4. ">
<polygon fill="none" stroke="#000000" points="276.5,-579 276.5,-598 407.5,-598 407.5,-579 276.5,-579"/>
<text text-anchor="middle" x="342" y="-586" font-family="Helvetica,sans-Serif" font-size="10.00" fill="#000000">Headers::IPv4::setVersion</text>
</a>
</g>
</g>
<!-- Node20&#45;&gt;Node22 -->
<g id="edge3" class="edge">
<title>Node20&#45;&gt;Node22</title>
<path fill="none" stroke="#191970" d="M185.2255,-344.776C188.088,-387.1405 202.1008,-507.0916 270,-569.5 271.7014,-571.0638 273.5162,-572.5018 275.4203,-573.8241"/>
<polygon fill="#191970" stroke="#191970" points="273.8522,-576.9597 284.266,-578.9104 277.3416,-570.8914 273.8522,-576.9597"/>
</g>
<!-- Node23 -->
<g id="node5" class="node">
<title>Node23</title>
<g id="a_node5"><a xlink:href="structHeaders_1_1IPv4.html#a89ebc78cd618d1ac327bb82e4b46917f" target="_top" xlink:title="Sets the IP header length. ">
<polygon fill="none" stroke="#000000" points="284.5,-541 284.5,-560 399.5,-560 399.5,-541 284.5,-541"/>
<text text-anchor="middle" x="342" y="-548" font-family="Helvetica,sans-Serif" font-size="10.00" fill="#000000">Headers::IPv4::setIHL</text>
</a>
</g>
</g>
<!-- Node20&#45;&gt;Node23 -->
<g id="edge4" class="edge">
<title>Node20&#45;&gt;Node23</title>
<path fill="none" stroke="#191970" d="M186.344,-344.5426C191.7643,-382.0748 211.155,-480.4897 270,-531.5 271.9659,-533.2042 274.0677,-534.7578 276.2719,-536.1741"/>
<polygon fill="#191970" stroke="#191970" points="274.7454,-539.3272 285.2099,-540.9834 278.0622,-533.1629 274.7454,-539.3272"/>
</g>
<!-- Node24 -->
<g id="node6" class="node">
<title>Node24</title>
<g id="a_node6"><a xlink:href="structHeaders_1_1IPv4.html#a6170f8d379d252ca29e8c91f457d1108" target="_top" xlink:title="Headers::IPv4::setLength">
<polygon fill="none" stroke="#000000" points="278,-503 278,-522 406,-522 406,-503 278,-503"/>
<text text-anchor="middle" x="342" y="-510" font-family="Helvetica,sans-Serif" font-size="10.00" fill="#000000">Headers::IPv4::setLength</text>
</a>
</g>
</g>
<!-- Node20&#45;&gt;Node24 -->
<g id="edge5" class="edge">
<title>Node20&#45;&gt;Node24</title>
<path fill="none" stroke="#191970" d="M188.0289,-344.829C196.3469,-377.4122 220.3304,-453.8153 270,-493.5 272.2725,-495.3157 274.7017,-496.959 277.2426,-498.4461"/>
<polygon fill="#191970" stroke="#191970" points="275.7336,-501.6046 286.2459,-502.9247 278.8513,-495.3372 275.7336,-501.6046"/>
</g>
<!-- Node25 -->
<g id="node7" class="node">
<title>Node25</title>
<g id="a_node7"><a xlink:href="structHeaders_1_1IPv4.html#ab3379b3b9cf0bda526087c3cc1c9927d" target="_top" xlink:title="Set the destination ip. ">
<polygon fill="none" stroke="#000000" points="279.5,-465 279.5,-484 404.5,-484 404.5,-465 279.5,-465"/>
<text text-anchor="middle" x="342" y="-472" font-family="Helvetica,sans-Serif" font-size="10.00" fill="#000000">Headers::IPv4::setDstIP</text>
</a>
</g>
</g>
<!-- Node20&#45;&gt;Node25 -->
<g id="edge6" class="edge">
<title>Node20&#45;&gt;Node25</title>
<path fill="none" stroke="#191970" d="M190.4457,-344.5171C201.769,-371.1238 229.0128,-426.4671 270,-455.5 272.8286,-457.5036 275.8545,-459.2959 279.0053,-460.8992"/>
<polygon fill="#191970" stroke="#191970" points="277.5937,-464.1019 288.1557,-464.9358 280.419,-457.6974 277.5937,-464.1019"/>
</g>
<!-- Node26 -->
<g id="node8" class="node">
<title>Node26</title>
<g id="a_node8"><a xlink:href="structHeaders_1_1IPv4.html#a4e1023a9cc8055be85956cd29c6fc397" target="_top" xlink:title="Set the source ip. ">
<polygon fill="none" stroke="#000000" points="280,-427 280,-446 404,-446 404,-427 280,-427"/>
<text text-anchor="middle" x="342" y="-434" font-family="Helvetica,sans-Serif" font-size="10.00" fill="#000000">Headers::IPv4::setSrcIP</text>
</a>
</g>
</g>
<!-- Node20&#45;&gt;Node26 -->
<g id="edge7" class="edge">
<title>Node20&#45;&gt;Node26</title>
<path fill="none" stroke="#191970" d="M195.0963,-344.7055C209.6795,-364.4745 237.8162,-398.6902 270,-417.5 273.7042,-419.6649 277.658,-421.5878 281.7345,-423.2951"/>
<polygon fill="#191970" stroke="#191970" points="280.8164,-426.6881 291.4092,-426.8998 283.2605,-420.1286 280.8164,-426.6881"/>
</g>
<!-- Node27 -->
<g id="node9" class="node">
<title>Node27</title>
<g id="a_node9"><a xlink:href="classHelloBye2_1_1HelloBye2ClientConfig.html#a895576ff2ef1a3450ab21b4a14d53ca0" target="_top" xlink:title="HelloBye2::HelloBye2Client\lConfig::getSrcIP">
<polygon fill="none" stroke="#000000" points="273,-377.5 273,-407.5 411,-407.5 411,-377.5 273,-377.5"/>
<text text-anchor="start" x="281" y="-395.5" font-family="Helvetica,sans-Serif" font-size="10.00" fill="#000000">HelloBye2::HelloBye2Client</text>
<text text-anchor="middle" x="342" y="-384.5" font-family="Helvetica,sans-Serif" font-size="10.00" fill="#000000">Config::getSrcIP</text>
</a>
</g>
</g>
<!-- Node20&#45;&gt;Node27 -->
<g id="edge8" class="edge">
<title>Node20&#45;&gt;Node27</title>
<path fill="none" stroke="#191970" d="M216.7085,-344.5829C232.6145,-351.834 252.1729,-360.4578 270,-367.5 275.5188,-369.6801 281.3134,-371.8635 287.1179,-373.9822"/>
<polygon fill="#191970" stroke="#191970" points="286.2543,-377.3908 296.8488,-377.4747 288.619,-370.8023 286.2543,-377.3908"/>
</g>
<!-- Node28 -->
<g id="node10" class="node">
<title>Node28</title>
<g id="a_node10"><a xlink:href="structHeaders_1_1IPv4.html#a3de15b59ea6a3656f37c63e0c8d83df7" target="_top" xlink:title="Set the protocol to UDP. ">
<polygon fill="none" stroke="#000000" points="270,-339 270,-358 414,-358 414,-339 270,-339"/>
<text text-anchor="middle" x="342" y="-346" font-family="Helvetica,sans-Serif" font-size="10.00" fill="#000000">Headers::IPv4::setProtoUDP</text>
</a>
</g>
</g>
<!-- Node20&#45;&gt;Node28 -->
<g id="edge9" class="edge">
<title>Node20&#45;&gt;Node28</title>
<path fill="none" stroke="#191970" d="M234.334,-335.5117C242.4309,-336.4885 251.0014,-337.5224 259.63,-338.5633"/>
<polygon fill="#191970" stroke="#191970" points="259.4138,-342.0625 269.761,-339.7855 260.2522,-335.1129 259.4138,-342.0625"/>
</g>
<!-- Node29 -->
<g id="node11" class="node">
<title>Node29</title>
<g id="a_node11"><a xlink:href="structHeaders_1_1IPv4.html#acc4a8033c5da9c2ce147ee10e15d2a49" target="_top" xlink:title="Get the SDU. ">
<polygon fill="none" stroke="#000000" points="275,-301 275,-320 409,-320 409,-301 275,-301"/>
<text text-anchor="middle" x="342" y="-308" font-family="Helvetica,sans-Serif" font-size="10.00" fill="#000000">Headers::IPv4::getPayload</text>
</a>
</g>
</g>
<!-- Node20&#45;&gt;Node29 -->
<g id="edge10" class="edge">
<title>Node20&#45;&gt;Node29</title>
<path fill="none" stroke="#191970" d="M234.334,-323.4883C244.1003,-322.3101 254.5556,-321.0488 264.9708,-319.7924"/>
<polygon fill="#191970" stroke="#191970" points="265.4115,-323.2647 274.9203,-318.5922 264.5731,-316.3151 265.4115,-323.2647"/>
</g>
<!-- Node31 -->
<g id="node13" class="node">
<title>Node31</title>
<g id="a_node13"><a xlink:href="structHeaders_1_1Udp.html#a531f2e8247abf7807c50d806208b7cb1" target="_top" xlink:title="Get the SDU. ">
<polygon fill="none" stroke="#000000" points="276,-263 276,-282 408,-282 408,-263 276,-263"/>
<text text-anchor="middle" x="342" y="-270" font-family="Helvetica,sans-Serif" font-size="10.00" fill="#000000">Headers::Udp::getPayload</text>
</a>
</g>
</g>
<!-- Node20&#45;&gt;Node31 -->
<g id="edge12" class="edge">
<title>Node20&#45;&gt;Node31</title>
<path fill="none" stroke="#191970" d="M215.2841,-314.3822C231.3428,-306.8657 251.4579,-298.0198 270,-291.5 276.8755,-289.0825 284.2144,-286.8083 291.4792,-284.7316"/>
<polygon fill="#191970" stroke="#191970" points="292.5792,-288.059 301.2894,-282.0271 290.7188,-281.3107 292.5792,-288.059"/>
</g>
<!-- Node32 -->
<g id="node14" class="node">
<title>Node32</title>
<g id="a_node14"><a xlink:href="structHelloBye2_1_1msg.html#a4176b99eaac8fa68d5e44531ad8eaba0" target="_top" xlink:title="HelloBye2::msg::msg">
<polygon fill="none" stroke="#000000" points="286.5,-225 286.5,-244 397.5,-244 397.5,-225 286.5,-225"/>
<text text-anchor="middle" x="342" y="-232" font-family="Helvetica,sans-Serif" font-size="10.00" fill="#000000">HelloBye2::msg::msg</text>
</a>
</g>
</g>
<!-- Node20&#45;&gt;Node32 -->
<g id="edge13" class="edge">
<title>Node20&#45;&gt;Node32</title>
<path fill="none" stroke="#191970" d="M197.4402,-314.3233C212.9639,-297.073 240.5973,-269.2709 270,-253.5 274.2615,-251.2142 278.8149,-249.1908 283.4839,-247.4018"/>
<polygon fill="#191970" stroke="#191970" points="284.8671,-250.6269 293.1734,-244.05 282.5787,-244.0115 284.8671,-250.6269"/>
</g>
<!-- Node33 -->
<g id="node15" class="node">
<title>Node33</title>
<g id="a_node15"><a xlink:href="structHeaders_1_1Udp.html#ad7860fd7b0f369d39d55aef85a11045a" target="_top" xlink:title="Set the destination port. ">
<polygon fill="none" stroke="#000000" points="276.5,-187 276.5,-206 407.5,-206 407.5,-187 276.5,-187"/>
<text text-anchor="middle" x="342" y="-194" font-family="Helvetica,sans-Serif" font-size="10.00" fill="#000000">Headers::Udp::setDstPort</text>
</a>
</g>
</g>
<!-- Node20&#45;&gt;Node33 -->
<g id="edge14" class="edge">
<title>Node20&#45;&gt;Node33</title>
<path fill="none" stroke="#191970" d="M191.6207,-314.3558C203.9919,-289.7359 231.8318,-241.2026 270,-215.5 273.0762,-213.4285 276.3671,-211.5826 279.786,-209.9379"/>
<polygon fill="#191970" stroke="#191970" points="281.2103,-213.1359 289.0752,-206.037 278.5,-206.6819 281.2103,-213.1359"/>
</g>
<!-- Node34 -->
<g id="node16" class="node">
<title>Node34</title>
<g id="a_node16"><a xlink:href="classHelloBye2_1_1HelloBye2ClientConfig.html#a2aa72b4585c542f88d56ea011b4102cf" target="_top" xlink:title="HelloBye2::HelloBye2Client\lConfig::getDstPort">
<polygon fill="none" stroke="#000000" points="273,-137.5 273,-167.5 411,-167.5 411,-137.5 273,-137.5"/>
<text text-anchor="start" x="281" y="-155.5" font-family="Helvetica,sans-Serif" font-size="10.00" fill="#000000">HelloBye2::HelloBye2Client</text>
<text text-anchor="middle" x="342" y="-144.5" font-family="Helvetica,sans-Serif" font-size="10.00" fill="#000000">Config::getDstPort</text>
</a>
</g>
</g>
<!-- Node20&#45;&gt;Node34 -->
<g id="edge15" class="edge">
<title>Node20&#45;&gt;Node34</title>
<path fill="none" stroke="#191970" d="M189.0344,-314.1723C198.8047,-283.7391 224.7029,-215.3678 270,-177.5 271.9987,-175.8291 274.1157,-174.2674 276.3212,-172.8079"/>
<polygon fill="#191970" stroke="#191970" points="278.2986,-175.7075 285.2024,-167.6708 274.7937,-169.6482 278.2986,-175.7075"/>
</g>
<!-- Node35 -->
<g id="node17" class="node">
<title>Node35</title>
<g id="a_node17"><a xlink:href="structHeaders_1_1Udp.html#ab28d05a7270cf1537848db896588ca01" target="_top" xlink:title="Set the source port. ">
<polygon fill="none" stroke="#000000" points="277,-99 277,-118 407,-118 407,-99 277,-99"/>
<text text-anchor="middle" x="342" y="-106" font-family="Helvetica,sans-Serif" font-size="10.00" fill="#000000">Headers::Udp::setSrcPort</text>
</a>
</g>
</g>
<!-- Node20&#45;&gt;Node35 -->
<g id="edge16" class="edge">
<title>Node20&#45;&gt;Node35</title>
<path fill="none" stroke="#191970" d="M186.4496,-314.3019C192.0746,-276.8546 211.8288,-179.4973 270,-128.5 272.4876,-126.3192 275.194,-124.3744 278.051,-122.6402"/>
<polygon fill="#191970" stroke="#191970" points="279.7068,-125.7245 287.0051,-118.0443 276.5103,-119.4969 279.7068,-125.7245"/>
</g>
<!-- Node36 -->
<g id="node18" class="node">
<title>Node36</title>
<g id="a_node18"><a xlink:href="structHeaders_1_1Udp.html#ac5397a534d246cfa93ac157eee3c565e" target="_top" xlink:title="Set the length of the L4&#45;SDU (UDP payload) ">
<polygon fill="none" stroke="#000000" points="276,-49.5 276,-79.5 408,-79.5 408,-49.5 276,-49.5"/>
<text text-anchor="start" x="284" y="-67.5" font-family="Helvetica,sans-Serif" font-size="10.00" fill="#000000">Headers::Udp::setPayload</text>
<text text-anchor="middle" x="342" y="-56.5" font-family="Helvetica,sans-Serif" font-size="10.00" fill="#000000">Length</text>
</a>
</g>
</g>
<!-- Node20&#45;&gt;Node36 -->
<g id="edge17" class="edge">
<title>Node20&#45;&gt;Node36</title>
<path fill="none" stroke="#191970" d="M185.4761,-314.4865C188.9883,-272.8024 204.5269,-154.4492 270,-89.5 271.4443,-88.0672 272.9749,-86.7164 274.5761,-85.4428"/>
<polygon fill="#191970" stroke="#191970" points="276.7636,-88.1891 283.0988,-79.697 272.8506,-82.385 276.7636,-88.1891"/>
</g>
<!-- Node37 -->
<g id="node19" class="node">
<title>Node37</title>
<g id="a_node19"><a xlink:href="classStateMachine_1_1FunIface.html#af87038e844cd7e3e778252ef1c15ed28" target="_top" xlink:title="Transition to another state. ">
<polygon fill="none" stroke="#000000" points="281.5,-.5 281.5,-30.5 402.5,-30.5 402.5,-.5 281.5,-.5"/>
<text text-anchor="start" x="289.5" y="-18.5" font-family="Helvetica,sans-Serif" font-size="10.00" fill="#000000">StateMachine::FunIface</text>
<text text-anchor="middle" x="342" y="-7.5" font-family="Helvetica,sans-Serif" font-size="10.00" fill="#000000">::transition</text>
</a>
</g>
</g>
<!-- Node20&#45;&gt;Node37 -->
<g id="edge18" class="edge">
<title>Node20&#45;&gt;Node37</title>
<path fill="none" stroke="#191970" d="M187.1192,-314.281C196.6234,-260.665 230.8022,-81.5665 270,-40.5 271.2562,-39.1839 272.5852,-37.937 273.9755,-36.7558"/>
<polygon fill="#191970" stroke="#191970" points="276.4016,-39.3258 282.5291,-30.6826 272.3491,-33.6181 276.4016,-39.3258"/>
</g>
<!-- Node30 -->
<g id="node12" class="node">
<title>Node30</title>
<g id="a_node12"><a xlink:href="structHeaders_1_1IPv4.html#ac6c5485ffca9cffaded18d2ad8d5985a" target="_top" xlink:title="Headers::IPv4::ihl">
<polygon fill="none" stroke="#000000" points="450,-301 450,-320 545,-320 545,-301 450,-301"/>
<text text-anchor="middle" x="497.5" y="-308" font-family="Helvetica,sans-Serif" font-size="10.00" fill="#000000">Headers::IPv4::ihl</text>
</a>
</g>
</g>
<!-- Node29&#45;&gt;Node30 -->
<g id="edge11" class="edge">
<title>Node29&#45;&gt;Node30</title>
<path fill="none" stroke="#191970" d="M409.3002,-310.5C419.4129,-310.5 429.7658,-310.5 439.6577,-310.5"/>
<polygon fill="#191970" stroke="#191970" points="439.7699,-314.0001 449.7699,-310.5 439.7699,-307.0001 439.7699,-314.0001"/>
</g>
</g>
</svg>
