<?xml version="1.0" encoding="UTF-8" standalone="no"?>
<!DOCTYPE svg PUBLIC "-//W3C//DTD SVG 1.1//EN"
 "http://www.w3.org/Graphics/SVG/1.1/DTD/svg11.dtd">
<!-- Generated by graphviz version 2.38.0 (20140413.2041)
 -->
<!-- Title: HelloBye2::Client::Hello::fun Pages: 1 -->
<svg width="287pt" height="656pt"
 viewBox="0.00 0.00 287.00 656.00" xmlns="http://www.w3.org/2000/svg" xmlns:xlink="http://www.w3.org/1999/xlink">
<g id="graph0" class="graph" transform="scale(1 1) rotate(0) translate(4 652)">
<title>HelloBye2::Client::Hello::fun</title>
<!-- Node1 -->
<g id="node1" class="node"><title>Node1</title>
<polygon fill="#bfbfbf" stroke="black" points="0,-314.5 0,-344.5 99,-344.5 99,-314.5 0,-314.5"/>
<text text-anchor="start" x="8" y="-332.5" font-family="Helvetica,sans-Serif" font-size="10.00">HelloBye2::Client::</text>
<text text-anchor="middle" x="49.5" y="-321.5" font-family="Helvetica,sans-Serif" font-size="10.00">Hello::fun</text>
</g>
<!-- Node2 -->
<g id="node2" class="node"><title>Node2</title>
<g id="a_node2"><a xlink:href="classHelloBye2_1_1HelloBye2ClientConfig.html#a456bccf8c2a9880404d7527fef41ca64" target="_top" xlink:title="HelloBye2::HelloBye2Client\lConfig::getInstance">
<polygon fill="none" stroke="black" points="138,-617.5 138,-647.5 276,-647.5 276,-617.5 138,-617.5"/>
<text text-anchor="start" x="146" y="-635.5" font-family="Helvetica,sans-Serif" font-size="10.00">HelloBye2::HelloBye2Client</text>
<text text-anchor="middle" x="207" y="-624.5" font-family="Helvetica,sans-Serif" font-size="10.00">Config::getInstance</text>
</a>
</g>
</g>
<!-- Node1&#45;&gt;Node2 -->
<g id="edge1" class="edge"><title>Node1&#45;&gt;Node2</title>
<path fill="none" stroke="midnightblue" d="M50.5838,-344.794C51.6724,-390.957 61.2167,-530.437 135,-607.5 136.39,-608.951 137.868,-610.318 139.42,-611.606"/>
<polygon fill="midnightblue" stroke="midnightblue" points="137.519,-614.548 147.721,-617.408 141.529,-608.81 137.519,-614.548"/>
</g>
<!-- Node3 -->
<g id="node3" class="node"><title>Node3</title>
<g id="a_node3"><a xlink:href="structHeaders_1_1IPv4.html#a28a6286beded8ad7cd611483f3dcac09" target="_top" xlink:title="Set the version field to 4. ">
<polygon fill="none" stroke="black" points="141.5,-579 141.5,-598 272.5,-598 272.5,-579 141.5,-579"/>
<text text-anchor="middle" x="207" y="-586" font-family="Helvetica,sans-Serif" font-size="10.00">Headers::IPv4::setVersion</text>
</a>
</g>
</g>
<!-- Node1&#45;&gt;Node3 -->
<g id="edge2" class="edge"><title>Node1&#45;&gt;Node3</title>
<path fill="none" stroke="midnightblue" d="M51.1673,-344.759C53.8674,-387.081 67.4137,-506.931 135,-569.5 136.674,-571.05 138.46,-572.475 140.335,-573.787"/>
<polygon fill="midnightblue" stroke="midnightblue" points="138.641,-576.851 149.048,-578.838 142.152,-570.795 138.641,-576.851"/>
</g>
<!-- Node4 -->
<g id="node4" class="node"><title>Node4</title>
<g id="a_node4"><a xlink:href="structHeaders_1_1IPv4.html#a89ebc78cd618d1ac327bb82e4b46917f" target="_top" xlink:title="Sets the IP header length. ">
<polygon fill="none" stroke="black" points="149.5,-541 149.5,-560 264.5,-560 264.5,-541 149.5,-541"/>
<text text-anchor="middle" x="207" y="-548" font-family="Helvetica,sans-Serif" font-size="10.00">Headers::IPv4::setIHL</text>
</a>
</g>
</g>
<!-- Node1&#45;&gt;Node4 -->
<g id="edge3" class="edge"><title>Node1&#45;&gt;Node4</title>
<path fill="none" stroke="midnightblue" d="M52.2753,-344.526C57.5231,-382.021 76.455,-480.355 135,-531.5 136.934,-533.189 139.003,-534.731 141.173,-536.137"/>
<polygon fill="midnightblue" stroke="midnightblue" points="139.519,-539.221 149.977,-540.916 142.858,-533.069 139.519,-539.221"/>
</g>
<!-- Node5 -->
<g id="node5" class="node"><title>Node5</title>
<g id="a_node5"><a xlink:href="structHeaders_1_1IPv4.html#a6170f8d379d252ca29e8c91f457d1108" target="_top" xlink:title="Headers::IPv4::setLength">
<polygon fill="none" stroke="black" points="143,-503 143,-522 271,-522 271,-503 143,-503"/>
<text text-anchor="middle" x="207" y="-510" font-family="Helvetica,sans-Serif" font-size="10.00">Headers::IPv4::setLength</text>
</a>
</g>
</g>
<!-- Node1&#45;&gt;Node5 -->
<g id="edge4" class="edge"><title>Node1&#45;&gt;Node5</title>
<path fill="none" stroke="midnightblue" d="M53.9425,-344.813C62.0755,-377.364 85.6182,-453.709 135,-493.5 137.087,-495.181 139.309,-496.715 141.63,-498.113"/>
<polygon fill="midnightblue" stroke="midnightblue" points="140.496,-501.462 150.998,-502.864 143.662,-495.219 140.496,-501.462"/>
</g>
<!-- Node6 -->
<g id="node6" class="node"><title>Node6</title>
<g id="a_node6"><a xlink:href="structHeaders_1_1IPv4.html#ab3379b3b9cf0bda526087c3cc1c9927d" target="_top" xlink:title="Set the destination ip. ">
<polygon fill="none" stroke="black" points="144.5,-465 144.5,-484 269.5,-484 269.5,-465 144.5,-465"/>
<text text-anchor="middle" x="207" y="-472" font-family="Helvetica,sans-Serif" font-size="10.00">Headers::IPv4::setDstIP</text>
</a>
</g>
</g>
<!-- Node1&#45;&gt;Node6 -->
<g id="edge5" class="edge"><title>Node1&#45;&gt;Node6</title>
<path fill="none" stroke="midnightblue" d="M56.3364,-344.502C67.4642,-371.085 94.2929,-426.392 135,-455.5 137.699,-457.43 140.582,-459.163 143.583,-460.721"/>
<polygon fill="midnightblue" stroke="midnightblue" points="142.323,-463.992 152.88,-464.886 145.185,-457.603 142.323,-463.992"/>
</g>
<!-- Node7 -->
<g id="node7" class="node"><title>Node7</title>
<g id="a_node7"><a xlink:href="structHeaders_1_1IPv4.html#a4e1023a9cc8055be85956cd29c6fc397" target="_top" xlink:title="Set the source ip. ">
<polygon fill="none" stroke="black" points="145,-427 145,-446 269,-446 269,-427 145,-427"/>
<text text-anchor="middle" x="207" y="-434" font-family="Helvetica,sans-Serif" font-size="10.00">Headers::IPv4::setSrcIP</text>
</a>
</g>
</g>
<!-- Node1&#45;&gt;Node7 -->
<g id="edge6" class="edge"><title>Node1&#45;&gt;Node7</title>
<path fill="none" stroke="midnightblue" d="M60.9404,-344.693C75.3177,-364.447 103.086,-398.647 135,-417.5 138.708,-419.69 142.672,-421.633 146.761,-423.356"/>
<polygon fill="midnightblue" stroke="midnightblue" points="145.872,-426.761 156.464,-426.99 148.327,-420.205 145.872,-426.761"/>
</g>
<!-- Node8 -->
<g id="node8" class="node"><title>Node8</title>
<g id="a_node8"><a xlink:href="classHelloBye2_1_1HelloBye2ClientConfig.html#a895576ff2ef1a3450ab21b4a14d53ca0" target="_top" xlink:title="HelloBye2::HelloBye2Client\lConfig::getSrcIP">
<polygon fill="none" stroke="black" points="138,-377.5 138,-407.5 276,-407.5 276,-377.5 138,-377.5"/>
<text text-anchor="start" x="146" y="-395.5" font-family="Helvetica,sans-Serif" font-size="10.00">HelloBye2::HelloBye2Client</text>
<text text-anchor="middle" x="207" y="-384.5" font-family="Helvetica,sans-Serif" font-size="10.00">Config::getSrcIP</text>
</a>
</g>
</g>
<!-- Node1&#45;&gt;Node8 -->
<g id="edge7" class="edge"><title>Node1&#45;&gt;Node8</title>
<path fill="none" stroke="midnightblue" d="M82.3284,-344.576C98.0475,-351.825 117.377,-360.449 135,-367.5 140.441,-369.677 146.154,-371.858 151.878,-373.976"/>
<polygon fill="midnightblue" stroke="midnightblue" points="150.879,-377.337 161.473,-377.467 153.272,-370.759 150.879,-377.337"/>
</g>
<!-- Node9 -->
<g id="node9" class="node"><title>Node9</title>
<g id="a_node9"><a xlink:href="structHeaders_1_1IPv4.html#a3de15b59ea6a3656f37c63e0c8d83df7" target="_top" xlink:title="Set the protocol to UDP. ">
<polygon fill="none" stroke="black" points="135,-339 135,-358 279,-358 279,-339 135,-339"/>
<text text-anchor="middle" x="207" y="-346" font-family="Helvetica,sans-Serif" font-size="10.00">Headers::IPv4::setProtoUDP</text>
</a>
</g>
</g>
<!-- Node1&#45;&gt;Node9 -->
<g id="edge8" class="edge"><title>Node1&#45;&gt;Node9</title>
<path fill="none" stroke="midnightblue" d="M99.2745,-335.46C107.405,-336.453 116.028,-337.507 124.711,-338.568"/>
<polygon fill="midnightblue" stroke="midnightblue" points="124.554,-342.074 134.905,-339.813 125.403,-335.126 124.554,-342.074"/>
</g>
<!-- Node10 -->
<g id="node10" class="node"><title>Node10</title>
<g id="a_node10"><a xlink:href="structHeaders_1_1IPv4.html#acc4a8033c5da9c2ce147ee10e15d2a49" target="_top" xlink:title="Get the SDU. ">
<polygon fill="none" stroke="black" points="140,-301 140,-320 274,-320 274,-301 140,-301"/>
<text text-anchor="middle" x="207" y="-308" font-family="Helvetica,sans-Serif" font-size="10.00">Headers::IPv4::getPayload</text>
</a>
</g>
</g>
<!-- Node1&#45;&gt;Node10 -->
<g id="edge9" class="edge"><title>Node1&#45;&gt;Node10</title>
<path fill="none" stroke="midnightblue" d="M99.2745,-323.54C108.894,-322.365 119.204,-321.105 129.485,-319.849"/>
<polygon fill="midnightblue" stroke="midnightblue" points="130.228,-323.284 139.73,-318.597 129.379,-316.336 130.228,-323.284"/>
</g>
<!-- Node11 -->
<g id="node11" class="node"><title>Node11</title>
<g id="a_node11"><a xlink:href="structHeaders_1_1Udp.html#a531f2e8247abf7807c50d806208b7cb1" target="_top" xlink:title="Get the SDU. ">
<polygon fill="none" stroke="black" points="141,-263 141,-282 273,-282 273,-263 141,-263"/>
<text text-anchor="middle" x="207" y="-270" font-family="Helvetica,sans-Serif" font-size="10.00">Headers::Udp::getPayload</text>
</a>
</g>
</g>
<!-- Node1&#45;&gt;Node11 -->
<g id="edge10" class="edge"><title>Node1&#45;&gt;Node11</title>
<path fill="none" stroke="midnightblue" d="M80.9154,-314.389C96.7839,-306.875 116.664,-298.028 135,-291.5 141.777,-289.087 149.012,-286.816 156.175,-284.74"/>
<polygon fill="midnightblue" stroke="midnightblue" points="157.16,-288.099 165.848,-282.037 155.275,-281.358 157.16,-288.099"/>
</g>
<!-- Node12 -->
<g id="node12" class="node"><title>Node12</title>
<g id="a_node12"><a xlink:href="structHelloBye2_1_1msg.html#a4176b99eaac8fa68d5e44531ad8eaba0" target="_top" xlink:title="HelloBye2::msg::msg">
<polygon fill="none" stroke="black" points="151.5,-225 151.5,-244 262.5,-244 262.5,-225 151.5,-225"/>
<text text-anchor="middle" x="207" y="-232" font-family="Helvetica,sans-Serif" font-size="10.00">HelloBye2::msg::msg</text>
</a>
</g>
</g>
<!-- Node1&#45;&gt;Node12 -->
<g id="edge11" class="edge"><title>Node1&#45;&gt;Node12</title>
<path fill="none" stroke="midnightblue" d="M63.2609,-314.335C78.5767,-297.096 105.862,-269.304 135,-253.5 139.196,-251.224 143.681,-249.208 148.282,-247.424"/>
<polygon fill="midnightblue" stroke="midnightblue" points="149.551,-250.688 157.832,-244.079 147.238,-244.081 149.551,-250.688"/>
</g>
<!-- Node13 -->
<g id="node13" class="node"><title>Node13</title>
<g id="a_node13"><a xlink:href="structHeaders_1_1Udp.html#ad7860fd7b0f369d39d55aef85a11045a" target="_top" xlink:title="Set the destination port. ">
<polygon fill="none" stroke="black" points="141.5,-187 141.5,-206 272.5,-206 272.5,-187 141.5,-187"/>
<text text-anchor="middle" x="207" y="-194" font-family="Helvetica,sans-Serif" font-size="10.00">Headers::Udp::setDstPort</text>
</a>
</g>
</g>
<!-- Node1&#45;&gt;Node13 -->
<g id="edge12" class="edge"><title>Node1&#45;&gt;Node13</title>
<path fill="none" stroke="midnightblue" d="M57.4995,-314.37C69.6713,-289.771 97.1088,-241.268 135,-215.5 137.938,-213.502 141.077,-211.714 144.338,-210.114"/>
<polygon fill="midnightblue" stroke="midnightblue" points="145.962,-213.226 153.787,-206.083 143.216,-206.787 145.962,-213.226"/>
</g>
<!-- Node14 -->
<g id="node14" class="node"><title>Node14</title>
<g id="a_node14"><a xlink:href="classHelloBye2_1_1HelloBye2ClientConfig.html#a2aa72b4585c542f88d56ea011b4102cf" target="_top" xlink:title="HelloBye2::HelloBye2Client\lConfig::getDstPort">
<polygon fill="none" stroke="black" points="138,-137.5 138,-167.5 276,-167.5 276,-137.5 138,-137.5"/>
<text text-anchor="start" x="146" y="-155.5" font-family="Helvetica,sans-Serif" font-size="10.00">HelloBye2::HelloBye2Client</text>
<text text-anchor="middle" x="207" y="-144.5" font-family="Helvetica,sans-Serif" font-size="10.00">Config::getDstPort</text>
</a>
</g>
</g>
<!-- Node1&#45;&gt;Node14 -->
<g id="edge13" class="edge"><title>Node1&#45;&gt;Node14</title>
<path fill="none" stroke="midnightblue" d="M54.943,-314.19C64.5299,-283.789 90.0071,-215.473 135,-177.5 137.01,-175.804 139.142,-174.22 141.366,-172.741"/>
<polygon fill="midnightblue" stroke="midnightblue" points="143.434,-175.587 150.327,-167.542 139.921,-169.533 143.434,-175.587"/>
</g>
<!-- Node15 -->
<g id="node15" class="node"><title>Node15</title>
<g id="a_node15"><a xlink:href="structHeaders_1_1Udp.html#ab28d05a7270cf1537848db896588ca01" target="_top" xlink:title="Set the source port. ">
<polygon fill="none" stroke="black" points="142,-99 142,-118 272,-118 272,-99 142,-99"/>
<text text-anchor="middle" x="207" y="-106" font-family="Helvetica,sans-Serif" font-size="10.00">Headers::Udp::setSrcPort</text>
</a>
</g>
</g>
<!-- Node1&#45;&gt;Node15 -->
<g id="edge14" class="edge"><title>Node1&#45;&gt;Node15</title>
<path fill="none" stroke="midnightblue" d="M52.3802,-314.319C57.8331,-276.91 77.1327,-179.634 135,-128.5 137.371,-126.405 139.945,-124.529 142.661,-122.847"/>
<polygon fill="midnightblue" stroke="midnightblue" points="144.494,-125.839 151.746,-118.115 141.26,-119.631 144.494,-125.839"/>
</g>
<!-- Node16 -->
<g id="node16" class="node"><title>Node16</title>
<g id="a_node16"><a xlink:href="structHeaders_1_1Udp.html#ac5397a534d246cfa93ac157eee3c565e" target="_top" xlink:title="Set the length of the L4&#45;SDU (UDP payload) ">
<polygon fill="none" stroke="black" points="141,-49.5 141,-79.5 273,-79.5 273,-49.5 141,-49.5"/>
<text text-anchor="start" x="149" y="-67.5" font-family="Helvetica,sans-Serif" font-size="10.00">Headers::Udp::setPayload</text>
<text text-anchor="middle" x="207" y="-56.5" font-family="Helvetica,sans-Serif" font-size="10.00">Length</text>
</a>
</g>
</g>
<!-- Node1&#45;&gt;Node16 -->
<g id="edge15" class="edge"><title>Node1&#45;&gt;Node16</title>
<path fill="none" stroke="midnightblue" d="M51.4459,-314.204C54.8534,-272.302 70.0308,-154.471 135,-89.5 136.455,-88.0446 138,-86.6736 139.619,-85.3822"/>
<polygon fill="midnightblue" stroke="midnightblue" points="141.909,-88.0593 148.242,-79.5658 137.995,-82.2559 141.909,-88.0593"/>
</g>
<!-- Node17 -->
<g id="node17" class="node"><title>Node17</title>
<g id="a_node17"><a xlink:href="classStateMachine_1_1FunIface.html#af87038e844cd7e3e778252ef1c15ed28" target="_top" xlink:title="Transition to another state. ">
<polygon fill="none" stroke="black" points="146.5,-0.5 146.5,-30.5 267.5,-30.5 267.5,-0.5 146.5,-0.5"/>
<text text-anchor="start" x="154.5" y="-18.5" font-family="Helvetica,sans-Serif" font-size="10.00">StateMachine::FunIface</text>
<text text-anchor="middle" x="207" y="-7.5" font-family="Helvetica,sans-Serif" font-size="10.00">::transition</text>
</a>
</g>
</g>
<!-- Node1&#45;&gt;Node17 -->
<g id="edge16" class="edge"><title>Node1&#45;&gt;Node17</title>
<path fill="none" stroke="midnightblue" d="M50.373,-314.288C50.8148,-267.036 58.6056,-121.143 135,-40.5 136.382,-39.0414 137.854,-37.6677 139.4,-36.3742"/>
<polygon fill="midnightblue" stroke="midnightblue" points="141.512,-39.1675 147.677,-30.5509 137.485,-33.4424 141.512,-39.1675"/>
</g>
</g>
</svg>
