<?xml version="1.0" encoding="UTF-8" standalone="no"?>
<!DOCTYPE svg PUBLIC "-//W3C//DTD SVG 1.1//EN"
 "http://www.w3.org/Graphics/SVG/1.1/DTD/svg11.dtd">
<!-- Generated by graphviz version 2.38.0 (20140413.2041)
 -->
<!-- Title: StateMachine::Timeout::Compare::operator() Pages: 1 -->
<svg width="300pt" height="66pt"
 viewBox="0.00 0.00 300.00 66.00" xmlns="http://www.w3.org/2000/svg" xmlns:xlink="http://www.w3.org/1999/xlink">
<g id="graph0" class="graph" transform="scale(1 1) rotate(0) translate(4 62)">
<title>StateMachine::Timeout::Compare::operator()</title>
<!-- Node1 -->
<g id="node1" class="node"><title>Node1</title>
<polygon fill="#bfbfbf" stroke="black" points="0,-14 0,-44 118,-44 118,-14 0,-14"/>
<text text-anchor="start" x="8" y="-32" font-family="Helvetica,sans-Serif" font-size="10.00">StateMachine::Timeout</text>
<text text-anchor="middle" x="59" y="-21" font-family="Helvetica,sans-Serif" font-size="10.00">::Compare::operator()</text>
</g>
<!-- Node2 -->
<g id="node2" class="node"><title>Node2</title>
<g id="a_node2"><a xlink:href="classStateMachine.html#acb32e2ad53518611b1fded8dfe2f45f5" target="_top" xlink:title="Remove a connection. ">
<polygon fill="none" stroke="black" points="154,-38.5 154,-57.5 292,-57.5 292,-38.5 154,-38.5"/>
<text text-anchor="middle" x="223" y="-45.5" font-family="Helvetica,sans-Serif" font-size="10.00">StateMachine::removeState</text>
</a>
</g>
</g>
<!-- Node1&#45;&gt;Node2 -->
<g id="edge1" class="edge"><title>Node1&#45;&gt;Node2</title>
<path fill="none" stroke="midnightblue" d="M118.028,-35.8058C126.381,-36.7854 135.089,-37.8067 143.754,-38.8231"/>
<polygon fill="midnightblue" stroke="midnightblue" points="143.545,-42.3223 153.884,-40.0111 144.36,-35.37 143.545,-42.3223"/>
</g>
<!-- Node3 -->
<g id="node3" class="node"><title>Node3</title>
<g id="a_node3"><a xlink:href="classBufArray.html#ad9a4fc65d7d2528cba69f3089ad98098" target="_top" xlink:title="Mark one packet as drop. ">
<polygon fill="none" stroke="black" points="163.5,-0.5 163.5,-19.5 282.5,-19.5 282.5,-0.5 163.5,-0.5"/>
<text text-anchor="middle" x="223" y="-7.5" font-family="Helvetica,sans-Serif" font-size="10.00">BufArray::markDropPkt</text>
</a>
</g>
</g>
<!-- Node1&#45;&gt;Node3 -->
<g id="edge2" class="edge"><title>Node1&#45;&gt;Node3</title>
<path fill="none" stroke="midnightblue" d="M118.028,-22.1942C129.404,-20.8601 141.438,-19.4486 153.128,-18.0776"/>
<polygon fill="midnightblue" stroke="midnightblue" points="153.763,-21.5272 163.287,-16.8861 152.947,-14.5749 153.763,-21.5272"/>
</g>
</g>
</svg>
