<?xml version="1.0" encoding="UTF-8" standalone="no"?>
<!DOCTYPE svg PUBLIC "-//W3C//DTD SVG 1.1//EN"
 "http://www.w3.org/Graphics/SVG/1.1/DTD/svg11.dtd">
<!-- Generated by graphviz version 2.40.1 (20161225.0304)
 -->
<!-- Title: HelloBye2::Server::Hello::fun Pages: 1 -->
<svg width="411pt" height="253pt"
 viewBox="0.00 0.00 411.00 252.50" xmlns="http://www.w3.org/2000/svg" xmlns:xlink="http://www.w3.org/1999/xlink">
<g id="graph0" class="graph" transform="scale(1 1) rotate(0) translate(4 248.5)">
<title>HelloBye2::Server::Hello::fun</title>
<!-- Node3 -->
<g id="node1" class="node">
<title>Node3</title>
<polygon fill="#bfbfbf" stroke="#000000" points="0,-110 0,-140 102,-140 102,-110 0,-110"/>
<text text-anchor="start" x="8" y="-128" font-family="Helvetica,sans-Serif" font-size="10.00" fill="#000000">HelloBye2::Server::</text>
<text text-anchor="middle" x="51" y="-117" font-family="Helvetica,sans-Serif" font-size="10.00" fill="#000000">Hello::fun</text>
</g>
<!-- Node4 -->
<g id="node2" class="node">
<title>Node4</title>
<g id="a_node2"><a xlink:href="structHeaders_1_1Ethernet.html#ad59e9fe1ec95b8e2ed11f97b44a20650" target="_top" xlink:title="Get the SDU. ">
<polygon fill="none" stroke="#000000" points="154,-214 154,-244 256,-244 256,-214 154,-214"/>
<text text-anchor="start" x="162" y="-232" font-family="Helvetica,sans-Serif" font-size="10.00" fill="#000000">Headers::Ethernet::</text>
<text text-anchor="middle" x="205" y="-221" font-family="Helvetica,sans-Serif" font-size="10.00" fill="#000000">getPayload</text>
</a>
</g>
</g>
<!-- Node3&#45;&gt;Node4 -->
<g id="edge1" class="edge">
<title>Node3&#45;&gt;Node4</title>
<path fill="none" stroke="#191970" d="M64.3968,-140.2654C80.4084,-157.7173 108.7291,-186.1669 138,-204 141.363,-206.0489 144.9212,-207.9738 148.5746,-209.7741"/>
<polygon fill="#191970" stroke="#191970" points="147.2454,-213.0148 157.7951,-213.9919 150.1573,-206.6492 147.2454,-213.0148"/>
</g>
<!-- Node5 -->
<g id="node3" class="node">
<title>Node5</title>
<g id="a_node3"><a xlink:href="structHeaders_1_1IPv4.html#acc4a8033c5da9c2ce147ee10e15d2a49" target="_top" xlink:title="Get the SDU. ">
<polygon fill="none" stroke="#000000" points="138,-175.5 138,-194.5 272,-194.5 272,-175.5 138,-175.5"/>
<text text-anchor="middle" x="205" y="-182.5" font-family="Helvetica,sans-Serif" font-size="10.00" fill="#000000">Headers::IPv4::getPayload</text>
</a>
</g>
</g>
<!-- Node3&#45;&gt;Node5 -->
<g id="edge2" class="edge">
<title>Node3&#45;&gt;Node5</title>
<path fill="none" stroke="#191970" d="M79.8822,-140.0745C96.5748,-148.4137 118.1415,-158.5623 138,-166 144.0929,-168.282 150.5848,-170.4442 157.0387,-172.436"/>
<polygon fill="#191970" stroke="#191970" points="156.5038,-175.9282 167.0864,-175.4187 158.4959,-169.2176 156.5038,-175.9282"/>
</g>
<!-- Node7 -->
<g id="node5" class="node">
<title>Node7</title>
<g id="a_node5"><a xlink:href="structHeaders_1_1Udp.html#a531f2e8247abf7807c50d806208b7cb1" target="_top" xlink:title="Get the SDU. ">
<polygon fill="none" stroke="#000000" points="139,-137.5 139,-156.5 271,-156.5 271,-137.5 139,-137.5"/>
<text text-anchor="middle" x="205" y="-144.5" font-family="Helvetica,sans-Serif" font-size="10.00" fill="#000000">Headers::Udp::getPayload</text>
</a>
</g>
</g>
<!-- Node3&#45;&gt;Node7 -->
<g id="edge4" class="edge">
<title>Node3&#45;&gt;Node7</title>
<path fill="none" stroke="#191970" d="M102.2798,-132.3257C110.7985,-133.5426 119.7917,-134.8274 128.7709,-136.1101"/>
<polygon fill="#191970" stroke="#191970" points="128.4823,-139.6043 138.8768,-137.5538 129.4723,-132.6747 128.4823,-139.6043"/>
</g>
<!-- Node8 -->
<g id="node6" class="node">
<title>Node8</title>
<g id="a_node6"><a xlink:href="classStateMachine_1_1FunIface.html#af87038e844cd7e3e778252ef1c15ed28" target="_top" xlink:title="Transition to another state. ">
<polygon fill="none" stroke="#000000" points="144.5,-88 144.5,-118 265.5,-118 265.5,-88 144.5,-88"/>
<text text-anchor="start" x="152.5" y="-106" font-family="Helvetica,sans-Serif" font-size="10.00" fill="#000000">StateMachine::FunIface</text>
<text text-anchor="middle" x="205" y="-95" font-family="Helvetica,sans-Serif" font-size="10.00" fill="#000000">::transition</text>
</a>
</g>
</g>
<!-- Node3&#45;&gt;Node8 -->
<g id="edge5" class="edge">
<title>Node3&#45;&gt;Node8</title>
<path fill="none" stroke="#191970" d="M102.2798,-117.6743C112.491,-116.2156 123.384,-114.6594 134.1175,-113.1261"/>
<polygon fill="#191970" stroke="#191970" points="134.9275,-116.546 144.332,-111.6669 133.9375,-109.6163 134.9275,-116.546"/>
</g>
<!-- Node9 -->
<g id="node7" class="node">
<title>Node9</title>
<g id="a_node7"><a xlink:href="classStateMachine_1_1FunIface.html#a1985ec03a8173ed85b6ad89a449c5f16" target="_top" xlink:title="Free the packet after the batch is processed, do not send it. ">
<polygon fill="none" stroke="#000000" points="144.5,-39 144.5,-69 265.5,-69 265.5,-39 144.5,-39"/>
<text text-anchor="start" x="152.5" y="-57" font-family="Helvetica,sans-Serif" font-size="10.00" fill="#000000">StateMachine::FunIface</text>
<text text-anchor="middle" x="205" y="-46" font-family="Helvetica,sans-Serif" font-size="10.00" fill="#000000">::freePkt</text>
</a>
</g>
</g>
<!-- Node3&#45;&gt;Node9 -->
<g id="edge6" class="edge">
<title>Node3&#45;&gt;Node9</title>
<path fill="none" stroke="#191970" d="M77.5942,-109.7892C94.595,-100.3548 117.2675,-88.3022 138,-79 142.6938,-76.894 147.6235,-74.8148 152.5897,-72.8088"/>
<polygon fill="#191970" stroke="#191970" points="154.1088,-75.9724 162.1328,-69.0538 151.5456,-69.4585 154.1088,-75.9724"/>
</g>
<!-- Node10 -->
<g id="node8" class="node">
<title>Node10</title>
<g id="a_node8"><a xlink:href="structHelloBye2_1_1msg.html#a4176b99eaac8fa68d5e44531ad8eaba0" target="_top" xlink:title="HelloBye2::msg::msg">
<polygon fill="none" stroke="#000000" points="149.5,-.5 149.5,-19.5 260.5,-19.5 260.5,-.5 149.5,-.5"/>
<text text-anchor="middle" x="205" y="-7.5" font-family="Helvetica,sans-Serif" font-size="10.00" fill="#000000">HelloBye2::msg::msg</text>
</a>
</g>
</g>
<!-- Node3&#45;&gt;Node10 -->
<g id="edge7" class="edge">
<title>Node3&#45;&gt;Node10</title>
<path fill="none" stroke="#191970" d="M60.9131,-109.8028C75.3824,-88.8082 104.2661,-51.1357 138,-30 142.0922,-27.4361 146.5305,-25.186 151.1085,-23.2142"/>
<polygon fill="#191970" stroke="#191970" points="152.5609,-26.4055 160.6356,-19.5462 150.0458,-19.873 152.5609,-26.4055"/>
</g>
<!-- Node6 -->
<g id="node4" class="node">
<title>Node6</title>
<g id="a_node4"><a xlink:href="structHeaders_1_1IPv4.html#ac6c5485ffca9cffaded18d2ad8d5985a" target="_top" xlink:title="Headers::IPv4::ihl">
<polygon fill="none" stroke="#000000" points="308,-175.5 308,-194.5 403,-194.5 403,-175.5 308,-175.5"/>
<text text-anchor="middle" x="355.5" y="-182.5" font-family="Helvetica,sans-Serif" font-size="10.00" fill="#000000">Headers::IPv4::ihl</text>
</a>
</g>
</g>
<!-- Node5&#45;&gt;Node6 -->
<g id="edge3" class="edge">
<title>Node5&#45;&gt;Node6</title>
<path fill="none" stroke="#191970" d="M272.3266,-185C280.6911,-185 289.1876,-185 297.3967,-185"/>
<polygon fill="#191970" stroke="#191970" points="297.6094,-188.5001 307.6094,-185 297.6094,-181.5001 297.6094,-188.5001"/>
</g>
</g>
</svg>
