<?xml version="1.0" encoding="UTF-8" standalone="no"?>
<!DOCTYPE svg PUBLIC "-//W3C//DTD SVG 1.1//EN"
 "http://www.w3.org/Graphics/SVG/1.1/DTD/svg11.dtd">
<!-- Generated by graphviz version 2.38.0 (20140413.2041)
 -->
<!-- Title: HelloBye2::Client::Bye::fun Pages: 1 -->
<svg width="277pt" height="242pt"
 viewBox="0.00 0.00 277.00 241.50" xmlns="http://www.w3.org/2000/svg" xmlns:xlink="http://www.w3.org/1999/xlink">
<g id="graph0" class="graph" transform="scale(1 1) rotate(0) translate(4 237.5)">
<title>HelloBye2::Client::Bye::fun</title>
<!-- Node1 -->
<g id="node1" class="node"><title>Node1</title>
<polygon fill="#bfbfbf" stroke="black" points="0,-102 0,-132 99,-132 99,-102 0,-102"/>
<text text-anchor="start" x="8" y="-120" font-family="Helvetica,sans-Serif" font-size="10.00">HelloBye2::Client::</text>
<text text-anchor="middle" x="49.5" y="-109" font-family="Helvetica,sans-Serif" font-size="10.00">Bye::fun</text>
</g>
<!-- Node2 -->
<g id="node2" class="node"><title>Node2</title>
<g id="a_node2"><a xlink:href="structHeaders_1_1Ethernet.html#ad59e9fe1ec95b8e2ed11f97b44a20650" target="_top" xlink:title="Get the SDU. ">
<polygon fill="none" stroke="black" points="151,-203 151,-233 253,-233 253,-203 151,-203"/>
<text text-anchor="start" x="159" y="-221" font-family="Helvetica,sans-Serif" font-size="10.00">Headers::Ethernet::</text>
<text text-anchor="middle" x="202" y="-210" font-family="Helvetica,sans-Serif" font-size="10.00">getPayload</text>
</a>
</g>
</g>
<!-- Node1&#45;&gt;Node2 -->
<g id="edge1" class="edge"><title>Node1&#45;&gt;Node2</title>
<path fill="none" stroke="midnightblue" d="M64.1176,-132.256C79.8043,-149.06 107.031,-175.956 135,-193 138.319,-195.022 141.828,-196.927 145.431,-198.713"/>
<polygon fill="midnightblue" stroke="midnightblue" points="143.973,-201.895 154.519,-202.905 146.904,-195.539 143.973,-201.895"/>
</g>
<!-- Node3 -->
<g id="node3" class="node"><title>Node3</title>
<g id="a_node3"><a xlink:href="structHeaders_1_1IPv4.html#acc4a8033c5da9c2ce147ee10e15d2a49" target="_top" xlink:title="Get the SDU. ">
<polygon fill="none" stroke="black" points="135,-164.5 135,-183.5 269,-183.5 269,-164.5 135,-164.5"/>
<text text-anchor="middle" x="202" y="-171.5" font-family="Helvetica,sans-Serif" font-size="10.00">Headers::IPv4::getPayload</text>
</a>
</g>
</g>
<!-- Node1&#45;&gt;Node3 -->
<g id="edge2" class="edge"><title>Node1&#45;&gt;Node3</title>
<path fill="none" stroke="midnightblue" d="M81.3619,-132.153C97.178,-139.59 116.878,-148.355 135,-155 141.318,-157.317 148.058,-159.535 154.727,-161.587"/>
<polygon fill="midnightblue" stroke="midnightblue" points="153.806,-164.964 164.389,-164.464 155.804,-158.255 153.806,-164.964"/>
</g>
<!-- Node4 -->
<g id="node4" class="node"><title>Node4</title>
<g id="a_node4"><a xlink:href="structHeaders_1_1Udp.html#a531f2e8247abf7807c50d806208b7cb1" target="_top" xlink:title="Get the SDU. ">
<polygon fill="none" stroke="black" points="136,-126.5 136,-145.5 268,-145.5 268,-126.5 136,-126.5"/>
<text text-anchor="middle" x="202" y="-133.5" font-family="Helvetica,sans-Serif" font-size="10.00">Headers::Udp::getPayload</text>
</a>
</g>
</g>
<!-- Node1&#45;&gt;Node4 -->
<g id="edge3" class="edge"><title>Node1&#45;&gt;Node4</title>
<path fill="none" stroke="midnightblue" d="M99.363,-123.169C107.844,-124.239 116.837,-125.375 125.829,-126.51"/>
<polygon fill="midnightblue" stroke="midnightblue" points="125.593,-130.008 135.953,-127.788 126.47,-123.063 125.593,-130.008"/>
</g>
<!-- Node5 -->
<g id="node5" class="node"><title>Node5</title>
<g id="a_node5"><a xlink:href="structHelloBye2_1_1msg.html#a4176b99eaac8fa68d5e44531ad8eaba0" target="_top" xlink:title="HelloBye2::msg::msg">
<polygon fill="none" stroke="black" points="146.5,-88.5 146.5,-107.5 257.5,-107.5 257.5,-88.5 146.5,-88.5"/>
<text text-anchor="middle" x="202" y="-95.5" font-family="Helvetica,sans-Serif" font-size="10.00">HelloBye2::msg::msg</text>
</a>
</g>
</g>
<!-- Node1&#45;&gt;Node5 -->
<g id="edge4" class="edge"><title>Node1&#45;&gt;Node5</title>
<path fill="none" stroke="midnightblue" d="M99.363,-110.831C111.098,-109.35 123.812,-107.745 136.147,-106.187"/>
<polygon fill="midnightblue" stroke="midnightblue" points="136.906,-109.619 146.389,-104.894 136.03,-102.675 136.906,-109.619"/>
</g>
<!-- Node6 -->
<g id="node6" class="node"><title>Node6</title>
<g id="a_node6"><a xlink:href="classStateMachine_1_1FunIface.html#af87038e844cd7e3e778252ef1c15ed28" target="_top" xlink:title="Transition to another state. ">
<polygon fill="none" stroke="black" points="141.5,-39 141.5,-69 262.5,-69 262.5,-39 141.5,-39"/>
<text text-anchor="start" x="149.5" y="-57" font-family="Helvetica,sans-Serif" font-size="10.00">StateMachine::FunIface</text>
<text text-anchor="middle" x="202" y="-46" font-family="Helvetica,sans-Serif" font-size="10.00">::transition</text>
</a>
</g>
</g>
<!-- Node1&#45;&gt;Node6 -->
<g id="edge5" class="edge"><title>Node1&#45;&gt;Node6</title>
<path fill="none" stroke="midnightblue" d="M82.8026,-101.921C98.4657,-94.7517 117.61,-86.1959 135,-79 140.024,-76.921 145.289,-74.8117 150.562,-72.7448"/>
<polygon fill="midnightblue" stroke="midnightblue" points="151.947,-75.9617 160.008,-69.0863 149.419,-69.4341 151.947,-75.9617"/>
</g>
<!-- Node7 -->
<g id="node7" class="node"><title>Node7</title>
<g id="a_node7"><a xlink:href="common_8hpp.html#ab9ce1ea79c76c5726af17e271c20c6ec" target="_top" xlink:title="Dump hex data. ">
<polygon fill="none" stroke="black" points="174,-0.5 174,-19.5 230,-19.5 230,-0.5 174,-0.5"/>
<text text-anchor="middle" x="202" y="-7.5" font-family="Helvetica,sans-Serif" font-size="10.00">hexdump</text>
</a>
</g>
</g>
<!-- Node1&#45;&gt;Node7 -->
<g id="edge6" class="edge"><title>Node1&#45;&gt;Node7</title>
<path fill="none" stroke="midnightblue" d="M61.3242,-101.806C75.9183,-82.4017 103.711,-49.0593 135,-30 143.727,-24.6839 153.972,-20.6894 163.751,-17.7263"/>
<polygon fill="midnightblue" stroke="midnightblue" points="164.974,-21.0203 173.692,-14.9995 163.122,-14.2697 164.974,-21.0203"/>
</g>
</g>
</svg>
