<?xml version="1.0" encoding="UTF-8" standalone="no"?>
<!DOCTYPE svg PUBLIC "-//W3C//DTD SVG 1.1//EN"
 "http://www.w3.org/Graphics/SVG/1.1/DTD/svg11.dtd">
<!-- Generated by graphviz version 2.38.0 (20140413.2041)
 -->
<!-- Title: HelloBye::HelloByeServerBye::run Pages: 1 -->
<svg width="476pt" height="165pt"
 viewBox="0.00 0.00 476.00 165.00" xmlns="http://www.w3.org/2000/svg" xmlns:xlink="http://www.w3.org/1999/xlink">
<g id="graph0" class="graph" transform="scale(1 1) rotate(0) translate(4 161)">
<title>HelloBye::HelloByeServerBye::run</title>
<!-- Node1 -->
<g id="node1" class="node"><title>Node1</title>
<polygon fill="#bfbfbf" stroke="black" points="0,-63.5 0,-93.5 131,-93.5 131,-63.5 0,-63.5"/>
<text text-anchor="start" x="8" y="-81.5" font-family="Helvetica,sans-Serif" font-size="10.00">HelloBye::HelloByeServer</text>
<text text-anchor="middle" x="65.5" y="-70.5" font-family="Helvetica,sans-Serif" font-size="10.00">Bye::run</text>
</g>
<!-- Node2 -->
<g id="node2" class="node"><title>Node2</title>
<g id="a_node2"><a xlink:href="classHelloBye_1_1HelloByeServerBye.html#aa336fbccf6b60a7cbbdef3720ed52150" target="_top" xlink:title="HelloBye::HelloByeServer\lBye::fun">
<polygon fill="none" stroke="black" points="167,-63.5 167,-93.5 298,-93.5 298,-63.5 167,-63.5"/>
<text text-anchor="start" x="175" y="-81.5" font-family="Helvetica,sans-Serif" font-size="10.00">HelloBye::HelloByeServer</text>
<text text-anchor="middle" x="232.5" y="-70.5" font-family="Helvetica,sans-Serif" font-size="10.00">Bye::fun</text>
</a>
</g>
</g>
<!-- Node1&#45;&gt;Node2 -->
<g id="edge1" class="edge"><title>Node1&#45;&gt;Node2</title>
<path fill="none" stroke="midnightblue" d="M131.239,-78.5C139.583,-78.5 148.182,-78.5 156.671,-78.5"/>
<polygon fill="midnightblue" stroke="midnightblue" points="156.948,-82.0001 166.948,-78.5 156.948,-75.0001 156.948,-82.0001"/>
</g>
<!-- Node3 -->
<g id="node3" class="node"><title>Node3</title>
<g id="a_node3"><a xlink:href="structHeaders_1_1Ethernet.html#ad59e9fe1ec95b8e2ed11f97b44a20650" target="_top" xlink:title="Get the SDU. ">
<polygon fill="none" stroke="black" points="350,-126.5 350,-156.5 452,-156.5 452,-126.5 350,-126.5"/>
<text text-anchor="start" x="358" y="-144.5" font-family="Helvetica,sans-Serif" font-size="10.00">Headers::Ethernet::</text>
<text text-anchor="middle" x="401" y="-133.5" font-family="Helvetica,sans-Serif" font-size="10.00">getPayload</text>
</a>
</g>
</g>
<!-- Node2&#45;&gt;Node3 -->
<g id="edge2" class="edge"><title>Node2&#45;&gt;Node3</title>
<path fill="none" stroke="midnightblue" d="M273.381,-93.5901C296.567,-102.363 325.981,-113.493 350.622,-122.816"/>
<polygon fill="midnightblue" stroke="midnightblue" points="349.565,-126.159 360.156,-126.424 352.042,-119.612 349.565,-126.159"/>
</g>
<!-- Node4 -->
<g id="node4" class="node"><title>Node4</title>
<g id="a_node4"><a xlink:href="structHeaders_1_1IPv4.html#acc4a8033c5da9c2ce147ee10e15d2a49" target="_top" xlink:title="Get the SDU. ">
<polygon fill="none" stroke="black" points="334,-88 334,-107 468,-107 468,-88 334,-88"/>
<text text-anchor="middle" x="401" y="-95" font-family="Helvetica,sans-Serif" font-size="10.00">Headers::IPv4::getPayload</text>
</a>
</g>
</g>
<!-- Node2&#45;&gt;Node4 -->
<g id="edge3" class="edge"><title>Node2&#45;&gt;Node4</title>
<path fill="none" stroke="midnightblue" d="M298.35,-85.9003C306.75,-86.8589 315.414,-87.8475 323.975,-88.8245"/>
<polygon fill="midnightblue" stroke="midnightblue" points="323.623,-92.307 333.956,-89.9634 324.417,-85.3521 323.623,-92.307"/>
</g>
<!-- Node5 -->
<g id="node5" class="node"><title>Node5</title>
<g id="a_node5"><a xlink:href="structHeaders_1_1Udp.html#a531f2e8247abf7807c50d806208b7cb1" target="_top" xlink:title="Get the SDU. ">
<polygon fill="none" stroke="black" points="335,-50 335,-69 467,-69 467,-50 335,-50"/>
<text text-anchor="middle" x="401" y="-57" font-family="Helvetica,sans-Serif" font-size="10.00">Headers::Udp::getPayload</text>
</a>
</g>
</g>
<!-- Node2&#45;&gt;Node5 -->
<g id="edge4" class="edge"><title>Node2&#45;&gt;Node5</title>
<path fill="none" stroke="midnightblue" d="M298.35,-71.0997C306.947,-70.1186 315.82,-69.1061 324.577,-68.1069"/>
<polygon fill="midnightblue" stroke="midnightblue" points="325.24,-71.5539 334.779,-66.9426 324.447,-64.5991 325.24,-71.5539"/>
</g>
<!-- Node6 -->
<g id="node6" class="node"><title>Node6</title>
<g id="a_node6"><a xlink:href="classStateMachine_1_1FunIface.html#af87038e844cd7e3e778252ef1c15ed28" target="_top" xlink:title="Transition to another state. ">
<polygon fill="none" stroke="black" points="340.5,-0.5 340.5,-30.5 461.5,-30.5 461.5,-0.5 340.5,-0.5"/>
<text text-anchor="start" x="348.5" y="-18.5" font-family="Helvetica,sans-Serif" font-size="10.00">StateMachine::FunIface</text>
<text text-anchor="middle" x="401" y="-7.5" font-family="Helvetica,sans-Serif" font-size="10.00">::transition</text>
</a>
</g>
</g>
<!-- Node2&#45;&gt;Node6 -->
<g id="edge5" class="edge"><title>Node2&#45;&gt;Node6</title>
<path fill="none" stroke="midnightblue" d="M273.381,-63.4099C296.567,-54.6367 325.981,-43.5072 350.622,-34.1837"/>
<polygon fill="midnightblue" stroke="midnightblue" points="352.042,-37.3885 360.156,-30.576 349.565,-30.8415 352.042,-37.3885"/>
</g>
</g>
</svg>
