<?xml version="1.0" encoding="UTF-8" standalone="no"?>
<!DOCTYPE svg PUBLIC "-//W3C//DTD SVG 1.1//EN"
 "http://www.w3.org/Graphics/SVG/1.1/DTD/svg11.dtd">
<!-- Generated by graphviz version 2.38.0 (20140413.2041)
 -->
<!-- Title: StateMachine::Timeout::Compare::operator() Pages: 1 -->
<svg width="434pt" height="85pt"
 viewBox="0.00 0.00 434.00 85.00" xmlns="http://www.w3.org/2000/svg" xmlns:xlink="http://www.w3.org/1999/xlink">
<g id="graph0" class="graph" transform="scale(1 1) rotate(0) translate(4 81)">
<title>StateMachine::Timeout::Compare::operator()</title>
<!-- Node1 -->
<g id="node1" class="node"><title>Node1</title>
<polygon fill="#bfbfbf" stroke="black" points="0,-33 0,-63 118,-63 118,-33 0,-33"/>
<text text-anchor="start" x="8" y="-51" font-family="Helvetica,sans-Serif" font-size="10.00">StateMachine::Timeout</text>
<text text-anchor="middle" x="59" y="-40" font-family="Helvetica,sans-Serif" font-size="10.00">::Compare::operator()</text>
</g>
<!-- Node2 -->
<g id="node2" class="node"><title>Node2</title>
<g id="a_node2"><a xlink:href="classStateMachine.html#acb32e2ad53518611b1fded8dfe2f45f5" target="_top" xlink:title="Remove a connection. ">
<polygon fill="none" stroke="black" points="154,-57.5 154,-76.5 292,-76.5 292,-57.5 154,-57.5"/>
<text text-anchor="middle" x="223" y="-64.5" font-family="Helvetica,sans-Serif" font-size="10.00">StateMachine::removeState</text>
</a>
</g>
</g>
<!-- Node1&#45;&gt;Node2 -->
<g id="edge1" class="edge"><title>Node1&#45;&gt;Node2</title>
<path fill="none" stroke="midnightblue" d="M118.028,-54.8058C126.381,-55.7854 135.089,-56.8067 143.754,-57.8231"/>
<polygon fill="midnightblue" stroke="midnightblue" points="143.545,-61.3223 153.884,-59.0111 144.36,-54.37 143.545,-61.3223"/>
</g>
<!-- Node3 -->
<g id="node3" class="node"><title>Node3</title>
<g id="a_node3"><a xlink:href="structBufArray.html#aa0486b95faa598824d8fcf5a4c607845" target="_top" xlink:title="BufArray::addPkt">
<polygon fill="none" stroke="black" points="177,-19.5 177,-38.5 269,-38.5 269,-19.5 177,-19.5"/>
<text text-anchor="middle" x="223" y="-26.5" font-family="Helvetica,sans-Serif" font-size="10.00">BufArray::addPkt</text>
</a>
</g>
</g>
<!-- Node1&#45;&gt;Node3 -->
<g id="edge2" class="edge"><title>Node1&#45;&gt;Node3</title>
<path fill="none" stroke="midnightblue" d="M118.028,-41.1942C133.891,-39.3337 151.036,-37.3229 166.74,-35.4811"/>
<polygon fill="midnightblue" stroke="midnightblue" points="167.3,-38.9395 176.824,-34.2984 166.485,-31.9871 167.3,-38.9395"/>
</g>
<!-- Node4 -->
<g id="node4" class="node"><title>Node4</title>
<g id="a_node4"><a xlink:href="structBufArray.html#ae0799e032421a961908200bc4b03a2ea" target="_top" xlink:title="BufArray::getArray">
<polygon fill="none" stroke="black" points="328,-38.5 328,-57.5 426,-57.5 426,-38.5 328,-38.5"/>
<text text-anchor="middle" x="377" y="-45.5" font-family="Helvetica,sans-Serif" font-size="10.00">BufArray::getArray</text>
</a>
</g>
</g>
<!-- Node3&#45;&gt;Node4 -->
<g id="edge3" class="edge"><title>Node3&#45;&gt;Node4</title>
<path fill="none" stroke="midnightblue" d="M269.193,-34.6492C284.34,-36.5425 301.452,-38.6815 317.47,-40.6837"/>
<polygon fill="midnightblue" stroke="midnightblue" points="317.449,-44.2083 327.806,-41.9757 318.317,-37.2623 317.449,-44.2083"/>
</g>
<!-- Node5 -->
<g id="node5" class="node"><title>Node5</title>
<g id="a_node5"><a xlink:href="structBufArray.html#ae7fc1e0864dc22251a63389aa1134076" target="_top" xlink:title="BufArray::getNum">
<polygon fill="none" stroke="black" points="329.5,-0.5 329.5,-19.5 424.5,-19.5 424.5,-0.5 329.5,-0.5"/>
<text text-anchor="middle" x="377" y="-7.5" font-family="Helvetica,sans-Serif" font-size="10.00">BufArray::getNum</text>
</a>
</g>
</g>
<!-- Node3&#45;&gt;Node5 -->
<g id="edge4" class="edge"><title>Node3&#45;&gt;Node5</title>
<path fill="none" stroke="midnightblue" d="M269.193,-23.3508C284.919,-21.3851 302.764,-19.1545 319.302,-17.0873"/>
<polygon fill="midnightblue" stroke="midnightblue" points="319.911,-20.5384 329.4,-15.825 319.043,-13.5925 319.911,-20.5384"/>
</g>
</g>
</svg>
