<?xml version="1.0" encoding="UTF-8" standalone="no"?>
<!DOCTYPE svg PUBLIC "-//W3C//DTD SVG 1.1//EN"
 "http://www.w3.org/Graphics/SVG/1.1/DTD/svg11.dtd">
<!-- Generated by graphviz version 2.40.1 (20161225.0304)
 -->
<!-- Title: HelloBye2::Identifier::identify Pages: 1 -->
<svg width="414pt" height="165pt"
 viewBox="0.00 0.00 414.00 164.50" xmlns="http://www.w3.org/2000/svg" xmlns:xlink="http://www.w3.org/1999/xlink">
<g id="graph0" class="graph" transform="scale(1 1) rotate(0) translate(4 160.5)">
<title>HelloBye2::Identifier::identify</title>
<!-- Node0 -->
<g id="node1" class="node">
<title>Node0</title>
<polygon fill="#bfbfbf" stroke="#000000" points="0,-55 0,-85 105,-85 105,-55 0,-55"/>
<text text-anchor="start" x="8" y="-73" font-family="Helvetica,sans-Serif" font-size="10.00" fill="#000000">HelloBye2::Identifier</text>
<text text-anchor="middle" x="52.5" y="-62" font-family="Helvetica,sans-Serif" font-size="10.00" fill="#000000">::identify</text>
</g>
<!-- Node1 -->
<g id="node2" class="node">
<title>Node1</title>
<g id="a_node2"><a xlink:href="structHeaders_1_1Ethernet.html#a8bcb704a54b71a667195d73accd465be" target="_top" xlink:title="Get the ethertype. ">
<polygon fill="none" stroke="#000000" points="157,-126 157,-156 259,-156 259,-126 157,-126"/>
<text text-anchor="start" x="165" y="-144" font-family="Helvetica,sans-Serif" font-size="10.00" fill="#000000">Headers::Ethernet::</text>
<text text-anchor="middle" x="208" y="-133" font-family="Helvetica,sans-Serif" font-size="10.00" fill="#000000">getEthertype</text>
</a>
</g>
</g>
<!-- Node0&#45;&gt;Node1 -->
<g id="edge1" class="edge">
<title>Node0&#45;&gt;Node1</title>
<path fill="none" stroke="#191970" d="M78.7263,-85.2122C96.0817,-94.9563 119.518,-107.5075 141,-117 145.0509,-118.79 149.2809,-120.5493 153.5604,-122.2513"/>
<polygon fill="#191970" stroke="#191970" points="152.3683,-125.5427 162.9579,-125.8756 154.8872,-119.0116 152.3683,-125.5427"/>
</g>
<!-- Node2 -->
<g id="node3" class="node">
<title>Node2</title>
<g id="a_node3"><a xlink:href="structHeaders_1_1Ethernet.html#ad59e9fe1ec95b8e2ed11f97b44a20650" target="_top" xlink:title="Get the SDU. ">
<polygon fill="none" stroke="#000000" points="157,-77 157,-107 259,-107 259,-77 157,-77"/>
<text text-anchor="start" x="165" y="-95" font-family="Helvetica,sans-Serif" font-size="10.00" fill="#000000">Headers::Ethernet::</text>
<text text-anchor="middle" x="208" y="-84" font-family="Helvetica,sans-Serif" font-size="10.00" fill="#000000">getPayload</text>
</a>
</g>
</g>
<!-- Node0&#45;&gt;Node2 -->
<g id="edge2" class="edge">
<title>Node0&#45;&gt;Node2</title>
<path fill="none" stroke="#191970" d="M105.1452,-77.4482C118.6162,-79.3541 133.2136,-81.4193 147.0634,-83.3787"/>
<polygon fill="#191970" stroke="#191970" points="146.5976,-86.8476 156.9893,-84.783 147.5782,-79.9166 146.5976,-86.8476"/>
</g>
<!-- Node3 -->
<g id="node4" class="node">
<title>Node3</title>
<g id="a_node4"><a xlink:href="structHeaders_1_1IPv4.html#acc4a8033c5da9c2ce147ee10e15d2a49" target="_top" xlink:title="Get the SDU. ">
<polygon fill="none" stroke="#000000" points="141,-38.5 141,-57.5 275,-57.5 275,-38.5 141,-38.5"/>
<text text-anchor="middle" x="208" y="-45.5" font-family="Helvetica,sans-Serif" font-size="10.00" fill="#000000">Headers::IPv4::getPayload</text>
</a>
</g>
</g>
<!-- Node0&#45;&gt;Node3 -->
<g id="edge3" class="edge">
<title>Node0&#45;&gt;Node3</title>
<path fill="none" stroke="#191970" d="M105.1452,-62.5518C113.3779,-61.3871 122.0312,-60.1628 130.6775,-58.9395"/>
<polygon fill="#191970" stroke="#191970" points="131.3876,-62.374 140.7987,-57.5076 130.407,-55.443 131.3876,-62.374"/>
</g>
<!-- Node5 -->
<g id="node6" class="node">
<title>Node5</title>
<g id="a_node6"><a xlink:href="structHeaders_1_1Udp.html#a531f2e8247abf7807c50d806208b7cb1" target="_top" xlink:title="Get the SDU. ">
<polygon fill="none" stroke="#000000" points="142,-.5 142,-19.5 274,-19.5 274,-.5 142,-.5"/>
<text text-anchor="middle" x="208" y="-7.5" font-family="Helvetica,sans-Serif" font-size="10.00" fill="#000000">Headers::Udp::getPayload</text>
</a>
</g>
</g>
<!-- Node0&#45;&gt;Node5 -->
<g id="edge5" class="edge">
<title>Node0&#45;&gt;Node5</title>
<path fill="none" stroke="#191970" d="M81.9085,-54.9553C98.8981,-46.6256 120.8362,-36.4767 141,-29 147.3218,-26.6559 154.0687,-24.4314 160.7554,-22.3858"/>
<polygon fill="#191970" stroke="#191970" points="161.8527,-25.7112 170.4528,-19.5234 159.871,-18.9976 161.8527,-25.7112"/>
</g>
<!-- Node4 -->
<g id="node5" class="node">
<title>Node4</title>
<g id="a_node5"><a xlink:href="structHeaders_1_1IPv4.html#ac6c5485ffca9cffaded18d2ad8d5985a" target="_top" xlink:title="Headers::IPv4::ihl">
<polygon fill="none" stroke="#000000" points="311,-38.5 311,-57.5 406,-57.5 406,-38.5 311,-38.5"/>
<text text-anchor="middle" x="358.5" y="-45.5" font-family="Helvetica,sans-Serif" font-size="10.00" fill="#000000">Headers::IPv4::ihl</text>
</a>
</g>
</g>
<!-- Node3&#45;&gt;Node4 -->
<g id="edge4" class="edge">
<title>Node3&#45;&gt;Node4</title>
<path fill="none" stroke="#191970" d="M275.3266,-48C283.6911,-48 292.1876,-48 300.3967,-48"/>
<polygon fill="#191970" stroke="#191970" points="300.6094,-51.5001 310.6094,-48 300.6094,-44.5001 300.6094,-51.5001"/>
</g>
</g>
</svg>
