<?xml version="1.0" encoding="UTF-8" standalone="no"?>
<!DOCTYPE svg PUBLIC "-//W3C//DTD SVG 1.1//EN"
 "http://www.w3.org/Graphics/SVG/1.1/DTD/svg11.dtd">
<!-- Generated by graphviz version 2.38.0 (20140413.2041)
 -->
<!-- Title: HelloBye2::Server::Hello::fun Pages: 1 -->
<svg width="280pt" height="252pt"
 viewBox="0.00 0.00 280.00 252.00" xmlns="http://www.w3.org/2000/svg" xmlns:xlink="http://www.w3.org/1999/xlink">
<g id="graph0" class="graph" transform="scale(1 1) rotate(0) translate(4 248)">
<title>HelloBye2::Server::Hello::fun</title>
<!-- Node1 -->
<g id="node1" class="node"><title>Node1</title>
<polygon fill="#bfbfbf" stroke="black" points="0,-112.5 0,-142.5 102,-142.5 102,-112.5 0,-112.5"/>
<text text-anchor="start" x="8" y="-130.5" font-family="Helvetica,sans-Serif" font-size="10.00">HelloBye2::Server::</text>
<text text-anchor="middle" x="51" y="-119.5" font-family="Helvetica,sans-Serif" font-size="10.00">Hello::fun</text>
</g>
<!-- Node2 -->
<g id="node2" class="node"><title>Node2</title>
<g id="a_node2"><a xlink:href="structHeaders_1_1Ethernet.html#ad59e9fe1ec95b8e2ed11f97b44a20650" target="_top" xlink:title="Get the SDU. ">
<polygon fill="none" stroke="black" points="154,-213.5 154,-243.5 256,-243.5 256,-213.5 154,-213.5"/>
<text text-anchor="start" x="162" y="-231.5" font-family="Helvetica,sans-Serif" font-size="10.00">Headers::Ethernet::</text>
<text text-anchor="middle" x="205" y="-220.5" font-family="Helvetica,sans-Serif" font-size="10.00">getPayload</text>
</a>
</g>
</g>
<!-- Node1&#45;&gt;Node2 -->
<g id="edge1" class="edge"><title>Node1&#45;&gt;Node2</title>
<path fill="none" stroke="midnightblue" d="M65.9135,-142.739C81.9272,-159.529 109.68,-186.412 138,-203.5 141.328,-205.508 144.844,-207.402 148.451,-209.18"/>
<polygon fill="midnightblue" stroke="midnightblue" points="147,-212.365 157.548,-213.357 149.921,-206.003 147,-212.365"/>
</g>
<!-- Node3 -->
<g id="node3" class="node"><title>Node3</title>
<g id="a_node3"><a xlink:href="structHeaders_1_1IPv4.html#acc4a8033c5da9c2ce147ee10e15d2a49" target="_top" xlink:title="Get the SDU. ">
<polygon fill="none" stroke="black" points="138,-175 138,-194 272,-194 272,-175 138,-175"/>
<text text-anchor="middle" x="205" y="-182" font-family="Helvetica,sans-Serif" font-size="10.00">Headers::IPv4::getPayload</text>
</a>
</g>
</g>
<!-- Node1&#45;&gt;Node3 -->
<g id="edge2" class="edge"><title>Node1&#45;&gt;Node3</title>
<path fill="none" stroke="midnightblue" d="M83.4366,-142.62C99.5403,-150.05 119.588,-158.817 138,-165.5 144.326,-167.796 151.07,-170.003 157.741,-172.049"/>
<polygon fill="midnightblue" stroke="midnightblue" points="156.822,-175.427 167.405,-174.922 158.817,-168.717 156.822,-175.427"/>
</g>
<!-- Node4 -->
<g id="node4" class="node"><title>Node4</title>
<g id="a_node4"><a xlink:href="structHeaders_1_1Udp.html#a531f2e8247abf7807c50d806208b7cb1" target="_top" xlink:title="Get the SDU. ">
<polygon fill="none" stroke="black" points="139,-137 139,-156 271,-156 271,-137 139,-137"/>
<text text-anchor="middle" x="205" y="-144" font-family="Helvetica,sans-Serif" font-size="10.00">Headers::Udp::getPayload</text>
</a>
</g>
</g>
<!-- Node1&#45;&gt;Node4 -->
<g id="edge3" class="edge"><title>Node1&#45;&gt;Node4</title>
<path fill="none" stroke="midnightblue" d="M102.192,-133.774C110.736,-134.842 119.775,-135.972 128.798,-137.1"/>
<polygon fill="midnightblue" stroke="midnightblue" points="128.596,-140.602 138.953,-138.369 129.464,-133.656 128.596,-140.602"/>
</g>
<!-- Node5 -->
<g id="node5" class="node"><title>Node5</title>
<g id="a_node5"><a xlink:href="structHelloBye2_1_1msg.html#a4176b99eaac8fa68d5e44531ad8eaba0" target="_top" xlink:title="HelloBye2::msg::msg">
<polygon fill="none" stroke="black" points="149.5,-99 149.5,-118 260.5,-118 260.5,-99 149.5,-99"/>
<text text-anchor="middle" x="205" y="-106" font-family="Helvetica,sans-Serif" font-size="10.00">HelloBye2::msg::msg</text>
</a>
</g>
</g>
<!-- Node1&#45;&gt;Node5 -->
<g id="edge4" class="edge"><title>Node1&#45;&gt;Node5</title>
<path fill="none" stroke="midnightblue" d="M102.192,-121.226C114.014,-119.748 126.782,-118.152 139.148,-116.607"/>
<polygon fill="midnightblue" stroke="midnightblue" points="139.922,-120.037 149.411,-115.324 139.054,-113.091 139.922,-120.037"/>
</g>
<!-- Node6 -->
<g id="node6" class="node"><title>Node6</title>
<g id="a_node6"><a xlink:href="classStateMachine_1_1FunIface.html#af87038e844cd7e3e778252ef1c15ed28" target="_top" xlink:title="Transition to another state. ">
<polygon fill="none" stroke="black" points="144.5,-49.5 144.5,-79.5 265.5,-79.5 265.5,-49.5 144.5,-49.5"/>
<text text-anchor="start" x="152.5" y="-67.5" font-family="Helvetica,sans-Serif" font-size="10.00">StateMachine::FunIface</text>
<text text-anchor="middle" x="205" y="-56.5" font-family="Helvetica,sans-Serif" font-size="10.00">::transition</text>
</a>
</g>
</g>
<!-- Node1&#45;&gt;Node6 -->
<g id="edge5" class="edge"><title>Node1&#45;&gt;Node6</title>
<path fill="none" stroke="midnightblue" d="M84.9006,-112.464C100.847,-105.304 120.329,-96.7445 138,-89.5 143.031,-87.4375 148.301,-85.3388 153.575,-83.2786"/>
<polygon fill="midnightblue" stroke="midnightblue" points="154.958,-86.4965 163.025,-79.6276 152.435,-79.9669 154.958,-86.4965"/>
</g>
<!-- Node7 -->
<g id="node7" class="node"><title>Node7</title>
<g id="a_node7"><a xlink:href="classStateMachine_1_1FunIface.html#a1985ec03a8173ed85b6ad89a449c5f16" target="_top" xlink:title="Free the packet after the batch is processed, do not send it. ">
<polygon fill="none" stroke="black" points="144.5,-0.5 144.5,-30.5 265.5,-30.5 265.5,-0.5 144.5,-0.5"/>
<text text-anchor="start" x="152.5" y="-18.5" font-family="Helvetica,sans-Serif" font-size="10.00">StateMachine::FunIface</text>
<text text-anchor="middle" x="205" y="-7.5" font-family="Helvetica,sans-Serif" font-size="10.00">::freePkt</text>
</a>
</g>
</g>
<!-- Node1&#45;&gt;Node7 -->
<g id="edge6" class="edge"><title>Node1&#45;&gt;Node7</title>
<path fill="none" stroke="midnightblue" d="M63.5453,-112.311C78.7531,-93.2206 107.199,-60.5319 138,-40.5 140.966,-38.5711 144.102,-36.7592 147.333,-35.0626"/>
<polygon fill="midnightblue" stroke="midnightblue" points="149.136,-38.079 156.625,-30.5846 146.097,-31.7731 149.136,-38.079"/>
</g>
</g>
</svg>
