<?xml version="1.0" encoding="UTF-8" standalone="no"?>
<!DOCTYPE svg PUBLIC "-//W3C//DTD SVG 1.1//EN"
 "http://www.w3.org/Graphics/SVG/1.1/DTD/svg11.dtd">
<!-- Generated by graphviz version 2.40.1 (20161225.0304)
 -->
<!-- Title: HelloBye2::Server::Hello::run Pages: 1 -->
<svg width="549pt" height="253pt"
 viewBox="0.00 0.00 549.00 252.50" xmlns="http://www.w3.org/2000/svg" xmlns:xlink="http://www.w3.org/1999/xlink">
<g id="graph0" class="graph" transform="scale(1 1) rotate(0) translate(4 248.5)">
<title>HelloBye2::Server::Hello::run</title>
<!-- Node11 -->
<g id="node1" class="node">
<title>Node11</title>
<polygon fill="#bfbfbf" stroke="#000000" points="0,-110 0,-140 102,-140 102,-110 0,-110"/>
<text text-anchor="start" x="8" y="-128" font-family="Helvetica,sans-Serif" font-size="10.00" fill="#000000">HelloBye2::Server::</text>
<text text-anchor="middle" x="51" y="-117" font-family="Helvetica,sans-Serif" font-size="10.00" fill="#000000">Hello::run</text>
</g>
<!-- Node12 -->
<g id="node2" class="node">
<title>Node12</title>
<g id="a_node2"><a xlink:href="classHelloBye2_1_1Server_1_1Hello.html#aafd9234b7d3ae9510aa9fda21d38cb4a" target="_top" xlink:title="HelloBye2::Server::\lHello::fun">
<polygon fill="none" stroke="#000000" points="138,-110 138,-140 240,-140 240,-110 138,-110"/>
<text text-anchor="start" x="146" y="-128" font-family="Helvetica,sans-Serif" font-size="10.00" fill="#000000">HelloBye2::Server::</text>
<text text-anchor="middle" x="189" y="-117" font-family="Helvetica,sans-Serif" font-size="10.00" fill="#000000">Hello::fun</text>
</a>
</g>
</g>
<!-- Node11&#45;&gt;Node12 -->
<g id="edge1" class="edge">
<title>Node11&#45;&gt;Node12</title>
<path fill="none" stroke="#191970" d="M102.3861,-125C110.5581,-125 119.0834,-125 127.4603,-125"/>
<polygon fill="#191970" stroke="#191970" points="127.571,-128.5001 137.571,-125 127.5709,-121.5001 127.571,-128.5001"/>
</g>
<!-- Node13 -->
<g id="node3" class="node">
<title>Node13</title>
<g id="a_node3"><a xlink:href="structHeaders_1_1Ethernet.html#ad59e9fe1ec95b8e2ed11f97b44a20650" target="_top" xlink:title="Get the SDU. ">
<polygon fill="none" stroke="#000000" points="292,-214 292,-244 394,-244 394,-214 292,-214"/>
<text text-anchor="start" x="300" y="-232" font-family="Helvetica,sans-Serif" font-size="10.00" fill="#000000">Headers::Ethernet::</text>
<text text-anchor="middle" x="343" y="-221" font-family="Helvetica,sans-Serif" font-size="10.00" fill="#000000">getPayload</text>
</a>
</g>
</g>
<!-- Node12&#45;&gt;Node13 -->
<g id="edge2" class="edge">
<title>Node12&#45;&gt;Node13</title>
<path fill="none" stroke="#191970" d="M202.3968,-140.2654C218.4084,-157.7173 246.7291,-186.1669 276,-204 279.363,-206.0489 282.9212,-207.9738 286.5746,-209.7741"/>
<polygon fill="#191970" stroke="#191970" points="285.2454,-213.0148 295.7951,-213.9919 288.1573,-206.6492 285.2454,-213.0148"/>
</g>
<!-- Node14 -->
<g id="node4" class="node">
<title>Node14</title>
<g id="a_node4"><a xlink:href="structHeaders_1_1IPv4.html#acc4a8033c5da9c2ce147ee10e15d2a49" target="_top" xlink:title="Get the SDU. ">
<polygon fill="none" stroke="#000000" points="276,-175.5 276,-194.5 410,-194.5 410,-175.5 276,-175.5"/>
<text text-anchor="middle" x="343" y="-182.5" font-family="Helvetica,sans-Serif" font-size="10.00" fill="#000000">Headers::IPv4::getPayload</text>
</a>
</g>
</g>
<!-- Node12&#45;&gt;Node14 -->
<g id="edge3" class="edge">
<title>Node12&#45;&gt;Node14</title>
<path fill="none" stroke="#191970" d="M217.8822,-140.0745C234.5748,-148.4137 256.1415,-158.5623 276,-166 282.0929,-168.282 288.5848,-170.4442 295.0387,-172.436"/>
<polygon fill="#191970" stroke="#191970" points="294.5038,-175.9282 305.0864,-175.4187 296.4959,-169.2176 294.5038,-175.9282"/>
</g>
<!-- Node16 -->
<g id="node6" class="node">
<title>Node16</title>
<g id="a_node6"><a xlink:href="structHeaders_1_1Udp.html#a531f2e8247abf7807c50d806208b7cb1" target="_top" xlink:title="Get the SDU. ">
<polygon fill="none" stroke="#000000" points="277,-137.5 277,-156.5 409,-156.5 409,-137.5 277,-137.5"/>
<text text-anchor="middle" x="343" y="-144.5" font-family="Helvetica,sans-Serif" font-size="10.00" fill="#000000">Headers::Udp::getPayload</text>
</a>
</g>
</g>
<!-- Node12&#45;&gt;Node16 -->
<g id="edge5" class="edge">
<title>Node12&#45;&gt;Node16</title>
<path fill="none" stroke="#191970" d="M240.2798,-132.3257C248.7985,-133.5426 257.7917,-134.8274 266.7709,-136.1101"/>
<polygon fill="#191970" stroke="#191970" points="266.4823,-139.6043 276.8768,-137.5538 267.4723,-132.6747 266.4823,-139.6043"/>
</g>
<!-- Node17 -->
<g id="node7" class="node">
<title>Node17</title>
<g id="a_node7"><a xlink:href="classStateMachine_1_1FunIface.html#af87038e844cd7e3e778252ef1c15ed28" target="_top" xlink:title="Transition to another state. ">
<polygon fill="none" stroke="#000000" points="282.5,-88 282.5,-118 403.5,-118 403.5,-88 282.5,-88"/>
<text text-anchor="start" x="290.5" y="-106" font-family="Helvetica,sans-Serif" font-size="10.00" fill="#000000">StateMachine::FunIface</text>
<text text-anchor="middle" x="343" y="-95" font-family="Helvetica,sans-Serif" font-size="10.00" fill="#000000">::transition</text>
</a>
</g>
</g>
<!-- Node12&#45;&gt;Node17 -->
<g id="edge6" class="edge">
<title>Node12&#45;&gt;Node17</title>
<path fill="none" stroke="#191970" d="M240.2798,-117.6743C250.491,-116.2156 261.384,-114.6594 272.1175,-113.1261"/>
<polygon fill="#191970" stroke="#191970" points="272.9275,-116.546 282.332,-111.6669 271.9375,-109.6163 272.9275,-116.546"/>
</g>
<!-- Node18 -->
<g id="node8" class="node">
<title>Node18</title>
<g id="a_node8"><a xlink:href="classStateMachine_1_1FunIface.html#a1985ec03a8173ed85b6ad89a449c5f16" target="_top" xlink:title="Free the packet after the batch is processed, do not send it. ">
<polygon fill="none" stroke="#000000" points="282.5,-39 282.5,-69 403.5,-69 403.5,-39 282.5,-39"/>
<text text-anchor="start" x="290.5" y="-57" font-family="Helvetica,sans-Serif" font-size="10.00" fill="#000000">StateMachine::FunIface</text>
<text text-anchor="middle" x="343" y="-46" font-family="Helvetica,sans-Serif" font-size="10.00" fill="#000000">::freePkt</text>
</a>
</g>
</g>
<!-- Node12&#45;&gt;Node18 -->
<g id="edge7" class="edge">
<title>Node12&#45;&gt;Node18</title>
<path fill="none" stroke="#191970" d="M215.5942,-109.7892C232.595,-100.3548 255.2675,-88.3022 276,-79 280.6938,-76.894 285.6235,-74.8148 290.5897,-72.8088"/>
<polygon fill="#191970" stroke="#191970" points="292.1088,-75.9724 300.1328,-69.0538 289.5456,-69.4585 292.1088,-75.9724"/>
</g>
<!-- Node19 -->
<g id="node9" class="node">
<title>Node19</title>
<g id="a_node9"><a xlink:href="structHelloBye2_1_1msg.html#a4176b99eaac8fa68d5e44531ad8eaba0" target="_top" xlink:title="HelloBye2::msg::msg">
<polygon fill="none" stroke="#000000" points="287.5,-.5 287.5,-19.5 398.5,-19.5 398.5,-.5 287.5,-.5"/>
<text text-anchor="middle" x="343" y="-7.5" font-family="Helvetica,sans-Serif" font-size="10.00" fill="#000000">HelloBye2::msg::msg</text>
</a>
</g>
</g>
<!-- Node12&#45;&gt;Node19 -->
<g id="edge8" class="edge">
<title>Node12&#45;&gt;Node19</title>
<path fill="none" stroke="#191970" d="M198.9131,-109.8028C213.3824,-88.8082 242.2661,-51.1357 276,-30 280.0922,-27.4361 284.5305,-25.186 289.1085,-23.2142"/>
<polygon fill="#191970" stroke="#191970" points="290.5609,-26.4055 298.6356,-19.5462 288.0458,-19.873 290.5609,-26.4055"/>
</g>
<!-- Node15 -->
<g id="node5" class="node">
<title>Node15</title>
<g id="a_node5"><a xlink:href="structHeaders_1_1IPv4.html#ac6c5485ffca9cffaded18d2ad8d5985a" target="_top" xlink:title="Headers::IPv4::ihl">
<polygon fill="none" stroke="#000000" points="446,-175.5 446,-194.5 541,-194.5 541,-175.5 446,-175.5"/>
<text text-anchor="middle" x="493.5" y="-182.5" font-family="Helvetica,sans-Serif" font-size="10.00" fill="#000000">Headers::IPv4::ihl</text>
</a>
</g>
</g>
<!-- Node14&#45;&gt;Node15 -->
<g id="edge4" class="edge">
<title>Node14&#45;&gt;Node15</title>
<path fill="none" stroke="#191970" d="M410.3266,-185C418.6911,-185 427.1876,-185 435.3967,-185"/>
<polygon fill="#191970" stroke="#191970" points="435.6094,-188.5001 445.6094,-185 435.6094,-181.5001 435.6094,-188.5001"/>
</g>
</g>
</svg>
