<?xml version="1.0" encoding="UTF-8" standalone="no"?>
<!DOCTYPE svg PUBLIC "-//W3C//DTD SVG 1.1//EN"
 "http://www.w3.org/Graphics/SVG/1.1/DTD/svg11.dtd">
<!-- Generated by graphviz version 2.38.0 (20140413.2041)
 -->
<!-- Title: StateMachine::runPktBatch Pages: 1 -->
<svg width="319pt" height="66pt"
 viewBox="0.00 0.00 319.00 66.00" xmlns="http://www.w3.org/2000/svg" xmlns:xlink="http://www.w3.org/1999/xlink">
<g id="graph0" class="graph" transform="scale(1 1) rotate(0) translate(4 62)">
<title>StateMachine::runPktBatch</title>
<!-- Node1 -->
<g id="node1" class="node"><title>Node1</title>
<polygon fill="#bfbfbf" stroke="black" points="0,-19.5 0,-38.5 137,-38.5 137,-19.5 0,-19.5"/>
<text text-anchor="middle" x="68.5" y="-26.5" font-family="Helvetica,sans-Serif" font-size="10.00">StateMachine::runPktBatch</text>
</g>
<!-- Node2 -->
<g id="node2" class="node"><title>Node2</title>
<g id="a_node2"><a xlink:href="classBufArray.html#aee156cf7b63ae73f0de0ab971ccceb14" target="_top" xlink:title="Get the number of all packets in the BufArray. ">
<polygon fill="none" stroke="black" points="181,-38.5 181,-57.5 303,-57.5 303,-38.5 181,-38.5"/>
<text text-anchor="middle" x="242" y="-45.5" font-family="Helvetica,sans-Serif" font-size="10.00">BufArray::getTotalCount</text>
</a>
</g>
</g>
<!-- Node1&#45;&gt;Node2 -->
<g id="edge1" class="edge"><title>Node1&#45;&gt;Node2</title>
<path fill="none" stroke="midnightblue" d="M137.281,-36.5093C148.321,-37.7323 159.776,-39.0014 170.87,-40.2305"/>
<polygon fill="midnightblue" stroke="midnightblue" points="170.61,-43.723 180.935,-41.3455 171.381,-36.7656 170.61,-43.723"/>
</g>
<!-- Node3 -->
<g id="node3" class="node"><title>Node3</title>
<g id="a_node3"><a xlink:href="classStateMachine.html#acb32e2ad53518611b1fded8dfe2f45f5" target="_top" xlink:title="Remove a connection. ">
<polygon fill="none" stroke="black" points="173,-0.5 173,-19.5 311,-19.5 311,-0.5 173,-0.5"/>
<text text-anchor="middle" x="242" y="-7.5" font-family="Helvetica,sans-Serif" font-size="10.00">StateMachine::removeState</text>
</a>
</g>
</g>
<!-- Node1&#45;&gt;Node3 -->
<g id="edge2" class="edge"><title>Node1&#45;&gt;Node3</title>
<path fill="none" stroke="midnightblue" d="M137.281,-21.4907C145.693,-20.5588 154.347,-19.6001 162.898,-18.6527"/>
<polygon fill="midnightblue" stroke="midnightblue" points="163.315,-22.128 172.868,-17.5481 162.544,-15.1706 163.315,-22.128"/>
</g>
</g>
</svg>
