<?xml version="1.0" encoding="UTF-8" standalone="no"?>
<!DOCTYPE svg PUBLIC "-//W3C//DTD SVG 1.1//EN"
 "http://www.w3.org/Graphics/SVG/1.1/DTD/svg11.dtd">
<!-- Generated by graphviz version 2.40.1 (20161225.0304)
 -->
<!-- Title: StateMachine::ConnectionPool::~ConnectionPool Pages: 1 -->
<svg width="450pt" height="39pt"
 viewBox="0.00 0.00 450.00 39.00" xmlns="http://www.w3.org/2000/svg" xmlns:xlink="http://www.w3.org/1999/xlink">
<g id="graph0" class="graph" transform="scale(1 1) rotate(0) translate(4 35)">
<title>StateMachine::ConnectionPool::~ConnectionPool</title>
<!-- Node1 -->
<g id="node1" class="node">
<title>Node1</title>
<polygon fill="#bfbfbf" stroke="#000000" points="0,-.5 0,-30.5 132,-30.5 132,-.5 0,-.5"/>
<text text-anchor="start" x="8" y="-18.5" font-family="Helvetica,sans-Serif" font-size="10.00" fill="#000000">StateMachine::Connection</text>
<text text-anchor="middle" x="66" y="-7.5" font-family="Helvetica,sans-Serif" font-size="10.00" fill="#000000">Pool::~ConnectionPool</text>
</g>
<!-- Node2 -->
<g id="node2" class="node">
<title>Node2</title>
<g id="a_node2"><a xlink:href="classSpinLockCLSize.html#aca0e5a42d856bde7c6c85e13293e1b98" target="_top" xlink:title="SpinLockCLSize::lock">
<polygon fill="none" stroke="#000000" points="168,-6 168,-25 281,-25 281,-6 168,-6"/>
<text text-anchor="middle" x="224.5" y="-13" font-family="Helvetica,sans-Serif" font-size="10.00" fill="#000000">SpinLockCLSize::lock</text>
</a>
</g>
</g>
<!-- Node1&#45;&gt;Node2 -->
<g id="edge1" class="edge">
<title>Node1&#45;&gt;Node2</title>
<path fill="none" stroke="#191970" d="M132.2999,-15.5C140.6225,-15.5 149.141,-15.5 157.4747,-15.5"/>
<polygon fill="#191970" stroke="#191970" points="157.5228,-19.0001 167.5228,-15.5 157.5227,-12.0001 157.5228,-19.0001"/>
</g>
<!-- Node3 -->
<g id="node3" class="node">
<title>Node3</title>
<g id="a_node3"><a xlink:href="classSpinLockCLSize.html#a4d4fb86c94bc817d51f07c4ad0725776" target="_top" xlink:title="SpinLockCLSize::trylock">
<polygon fill="none" stroke="#000000" points="317,-6 317,-25 442,-25 442,-6 317,-6"/>
<text text-anchor="middle" x="379.5" y="-13" font-family="Helvetica,sans-Serif" font-size="10.00" fill="#000000">SpinLockCLSize::trylock</text>
</a>
</g>
</g>
<!-- Node2&#45;&gt;Node3 -->
<g id="edge2" class="edge">
<title>Node2&#45;&gt;Node3</title>
<path fill="none" stroke="#191970" d="M281.3361,-15.5C289.6576,-15.5 298.3219,-15.5 306.9056,-15.5"/>
<polygon fill="#191970" stroke="#191970" points="306.9198,-19.0001 316.9198,-15.5 306.9198,-12.0001 306.9198,-19.0001"/>
</g>
</g>
</svg>
