<?xml version="1.0" encoding="UTF-8" standalone="no"?>
<!DOCTYPE svg PUBLIC "-//W3C//DTD SVG 1.1//EN"
 "http://www.w3.org/Graphics/SVG/1.1/DTD/svg11.dtd">
<!-- Generated by graphviz version 2.40.1 (20161225.0304)
 -->
<!-- Title: HelloBye::HelloByeServerHello::fun Pages: 1 -->
<svg width="440pt" height="214pt"
 viewBox="0.00 0.00 440.00 214.00" xmlns="http://www.w3.org/2000/svg" xmlns:xlink="http://www.w3.org/1999/xlink">
<g id="graph0" class="graph" transform="scale(1 1) rotate(0) translate(4 210)">
<title>HelloBye::HelloByeServerHello::fun</title>
<!-- Node3 -->
<g id="node1" class="node">
<title>Node3</title>
<polygon fill="#bfbfbf" stroke="#000000" points="0,-93.5 0,-123.5 131,-123.5 131,-93.5 0,-93.5"/>
<text text-anchor="start" x="8" y="-111.5" font-family="Helvetica,sans-Serif" font-size="10.00" fill="#000000">HelloBye::HelloByeServer</text>
<text text-anchor="middle" x="65.5" y="-100.5" font-family="Helvetica,sans-Serif" font-size="10.00" fill="#000000">Hello::fun</text>
</g>
<!-- Node4 -->
<g id="node2" class="node">
<title>Node4</title>
<g id="a_node2"><a xlink:href="structHeaders_1_1Ethernet.html#ad59e9fe1ec95b8e2ed11f97b44a20650" target="_top" xlink:title="Get the SDU. ">
<polygon fill="none" stroke="#000000" points="183,-175.5 183,-205.5 285,-205.5 285,-175.5 183,-175.5"/>
<text text-anchor="start" x="191" y="-193.5" font-family="Helvetica,sans-Serif" font-size="10.00" fill="#000000">Headers::Ethernet::</text>
<text text-anchor="middle" x="234" y="-182.5" font-family="Helvetica,sans-Serif" font-size="10.00" fill="#000000">getPayload</text>
</a>
</g>
</g>
<!-- Node3&#45;&gt;Node4 -->
<g id="edge1" class="edge">
<title>Node3&#45;&gt;Node4</title>
<path fill="none" stroke="#191970" d="M89.9652,-123.6531C110.1826,-135.8272 139.8673,-152.9112 167,-165.5 171.5981,-167.6334 176.4338,-169.7222 181.3142,-171.7263"/>
<polygon fill="#191970" stroke="#191970" points="180.1187,-175.0175 190.7041,-175.4656 182.7085,-168.5142 180.1187,-175.0175"/>
</g>
<!-- Node5 -->
<g id="node3" class="node">
<title>Node5</title>
<g id="a_node3"><a xlink:href="structHeaders_1_1IPv4.html#acc4a8033c5da9c2ce147ee10e15d2a49" target="_top" xlink:title="Get the SDU. ">
<polygon fill="none" stroke="#000000" points="167,-137 167,-156 301,-156 301,-137 167,-137"/>
<text text-anchor="middle" x="234" y="-144" font-family="Helvetica,sans-Serif" font-size="10.00" fill="#000000">Headers::IPv4::getPayload</text>
</a>
</g>
</g>
<!-- Node3&#45;&gt;Node5 -->
<g id="edge2" class="edge">
<title>Node3&#45;&gt;Node5</title>
<path fill="none" stroke="#191970" d="M131.129,-123.3006C147.8054,-127.0615 165.5065,-131.0534 181.4379,-134.6462"/>
<polygon fill="#191970" stroke="#191970" points="181.0981,-138.1574 191.6231,-136.9432 182.6381,-131.3289 181.0981,-138.1574"/>
</g>
<!-- Node7 -->
<g id="node5" class="node">
<title>Node7</title>
<g id="a_node5"><a xlink:href="structHeaders_1_1Udp.html#a531f2e8247abf7807c50d806208b7cb1" target="_top" xlink:title="Get the SDU. ">
<polygon fill="none" stroke="#000000" points="168,-99 168,-118 300,-118 300,-99 168,-99"/>
<text text-anchor="middle" x="234" y="-106" font-family="Helvetica,sans-Serif" font-size="10.00" fill="#000000">Headers::Udp::getPayload</text>
</a>
</g>
</g>
<!-- Node3&#45;&gt;Node7 -->
<g id="edge4" class="edge">
<title>Node3&#45;&gt;Node7</title>
<path fill="none" stroke="#191970" d="M131.129,-108.5C139.9242,-108.5 149.0044,-108.5 157.9597,-108.5"/>
<polygon fill="#191970" stroke="#191970" points="157.9956,-112.0001 167.9956,-108.5 157.9955,-105.0001 157.9956,-112.0001"/>
</g>
<!-- Node8 -->
<g id="node6" class="node">
<title>Node8</title>
<g id="a_node6"><a xlink:href="classStateMachine_1_1FunIface.html#af87038e844cd7e3e778252ef1c15ed28" target="_top" xlink:title="Transition to another state. ">
<polygon fill="none" stroke="#000000" points="173.5,-49.5 173.5,-79.5 294.5,-79.5 294.5,-49.5 173.5,-49.5"/>
<text text-anchor="start" x="181.5" y="-67.5" font-family="Helvetica,sans-Serif" font-size="10.00" fill="#000000">StateMachine::FunIface</text>
<text text-anchor="middle" x="234" y="-56.5" font-family="Helvetica,sans-Serif" font-size="10.00" fill="#000000">::transition</text>
</a>
</g>
</g>
<!-- Node3&#45;&gt;Node8 -->
<g id="edge5" class="edge">
<title>Node3&#45;&gt;Node8</title>
<path fill="none" stroke="#191970" d="M123.0169,-93.4808C137.0375,-89.8196 152.1602,-85.8706 166.595,-82.1013"/>
<polygon fill="#191970" stroke="#191970" points="167.6652,-85.4393 176.4565,-79.5262 165.8966,-78.6664 167.6652,-85.4393"/>
</g>
<!-- Node9 -->
<g id="node7" class="node">
<title>Node9</title>
<g id="a_node7"><a xlink:href="classStateMachine_1_1FunIface.html#a1985ec03a8173ed85b6ad89a449c5f16" target="_top" xlink:title="Free the packet after the batch is processed, do not send it. ">
<polygon fill="none" stroke="#000000" points="173.5,-.5 173.5,-30.5 294.5,-30.5 294.5,-.5 173.5,-.5"/>
<text text-anchor="start" x="181.5" y="-18.5" font-family="Helvetica,sans-Serif" font-size="10.00" fill="#000000">StateMachine::FunIface</text>
<text text-anchor="middle" x="234" y="-7.5" font-family="Helvetica,sans-Serif" font-size="10.00" fill="#000000">::freePkt</text>
</a>
</g>
</g>
<!-- Node3&#45;&gt;Node9 -->
<g id="edge6" class="edge">
<title>Node3&#45;&gt;Node9</title>
<path fill="none" stroke="#191970" d="M85.2478,-93.2364C105.1027,-78.3903 136.9888,-55.8848 167,-40.5 171.024,-38.4372 175.2591,-36.4553 179.5639,-34.5731"/>
<polygon fill="#191970" stroke="#191970" points="181.1621,-37.6988 189.0442,-30.619 178.4674,-31.2382 181.1621,-37.6988"/>
</g>
<!-- Node6 -->
<g id="node4" class="node">
<title>Node6</title>
<g id="a_node4"><a xlink:href="structHeaders_1_1IPv4.html#ac6c5485ffca9cffaded18d2ad8d5985a" target="_top" xlink:title="Headers::IPv4::ihl">
<polygon fill="none" stroke="#000000" points="337,-137 337,-156 432,-156 432,-137 337,-137"/>
<text text-anchor="middle" x="384.5" y="-144" font-family="Helvetica,sans-Serif" font-size="10.00" fill="#000000">Headers::IPv4::ihl</text>
</a>
</g>
</g>
<!-- Node5&#45;&gt;Node6 -->
<g id="edge3" class="edge">
<title>Node5&#45;&gt;Node6</title>
<path fill="none" stroke="#191970" d="M301.3266,-146.5C309.6911,-146.5 318.1876,-146.5 326.3967,-146.5"/>
<polygon fill="#191970" stroke="#191970" points="326.6094,-150.0001 336.6094,-146.5 326.6094,-143.0001 326.6094,-150.0001"/>
</g>
</g>
</svg>
