<?xml version="1.0" encoding="UTF-8" standalone="no"?>
<!DOCTYPE svg PUBLIC "-//W3C//DTD SVG 1.1//EN"
 "http://www.w3.org/Graphics/SVG/1.1/DTD/svg11.dtd">
<!-- Generated by graphviz version 2.38.0 (20140413.2041)
 -->
<!-- Title: HelloBye2::Server::Hello::run Pages: 1 -->
<svg width="418pt" height="252pt"
 viewBox="0.00 0.00 418.00 252.00" xmlns="http://www.w3.org/2000/svg" xmlns:xlink="http://www.w3.org/1999/xlink">
<g id="graph0" class="graph" transform="scale(1 1) rotate(0) translate(4 248)">
<title>HelloBye2::Server::Hello::run</title>
<!-- Node1 -->
<g id="node1" class="node"><title>Node1</title>
<polygon fill="#bfbfbf" stroke="black" points="0,-112.5 0,-142.5 102,-142.5 102,-112.5 0,-112.5"/>
<text text-anchor="start" x="8" y="-130.5" font-family="Helvetica,sans-Serif" font-size="10.00">HelloBye2::Server::</text>
<text text-anchor="middle" x="51" y="-119.5" font-family="Helvetica,sans-Serif" font-size="10.00">Hello::run</text>
</g>
<!-- Node2 -->
<g id="node2" class="node"><title>Node2</title>
<g id="a_node2"><a xlink:href="classHelloBye2_1_1Server_1_1Hello.html#aafd9234b7d3ae9510aa9fda21d38cb4a" target="_top" xlink:title="HelloBye2::Server::\lHello::fun">
<polygon fill="none" stroke="black" points="138,-112.5 138,-142.5 240,-142.5 240,-112.5 138,-112.5"/>
<text text-anchor="start" x="146" y="-130.5" font-family="Helvetica,sans-Serif" font-size="10.00">HelloBye2::Server::</text>
<text text-anchor="middle" x="189" y="-119.5" font-family="Helvetica,sans-Serif" font-size="10.00">Hello::fun</text>
</a>
</g>
</g>
<!-- Node1&#45;&gt;Node2 -->
<g id="edge1" class="edge"><title>Node1&#45;&gt;Node2</title>
<path fill="none" stroke="midnightblue" d="M102.255,-127.5C110.539,-127.5 119.201,-127.5 127.701,-127.5"/>
<polygon fill="midnightblue" stroke="midnightblue" points="127.952,-131 137.952,-127.5 127.952,-124 127.952,-131"/>
</g>
<!-- Node3 -->
<g id="node3" class="node"><title>Node3</title>
<g id="a_node3"><a xlink:href="structHeaders_1_1Ethernet.html#ad59e9fe1ec95b8e2ed11f97b44a20650" target="_top" xlink:title="Get the SDU. ">
<polygon fill="none" stroke="black" points="292,-213.5 292,-243.5 394,-243.5 394,-213.5 292,-213.5"/>
<text text-anchor="start" x="300" y="-231.5" font-family="Helvetica,sans-Serif" font-size="10.00">Headers::Ethernet::</text>
<text text-anchor="middle" x="343" y="-220.5" font-family="Helvetica,sans-Serif" font-size="10.00">getPayload</text>
</a>
</g>
</g>
<!-- Node2&#45;&gt;Node3 -->
<g id="edge2" class="edge"><title>Node2&#45;&gt;Node3</title>
<path fill="none" stroke="midnightblue" d="M203.913,-142.739C219.927,-159.529 247.68,-186.412 276,-203.5 279.328,-205.508 282.844,-207.402 286.451,-209.18"/>
<polygon fill="midnightblue" stroke="midnightblue" points="285,-212.365 295.548,-213.357 287.921,-206.003 285,-212.365"/>
</g>
<!-- Node4 -->
<g id="node4" class="node"><title>Node4</title>
<g id="a_node4"><a xlink:href="structHeaders_1_1IPv4.html#acc4a8033c5da9c2ce147ee10e15d2a49" target="_top" xlink:title="Get the SDU. ">
<polygon fill="none" stroke="black" points="276,-175 276,-194 410,-194 410,-175 276,-175"/>
<text text-anchor="middle" x="343" y="-182" font-family="Helvetica,sans-Serif" font-size="10.00">Headers::IPv4::getPayload</text>
</a>
</g>
</g>
<!-- Node2&#45;&gt;Node4 -->
<g id="edge3" class="edge"><title>Node2&#45;&gt;Node4</title>
<path fill="none" stroke="midnightblue" d="M221.437,-142.62C237.54,-150.05 257.588,-158.817 276,-165.5 282.326,-167.796 289.07,-170.003 295.741,-172.049"/>
<polygon fill="midnightblue" stroke="midnightblue" points="294.822,-175.427 305.405,-174.922 296.817,-168.717 294.822,-175.427"/>
</g>
<!-- Node5 -->
<g id="node5" class="node"><title>Node5</title>
<g id="a_node5"><a xlink:href="structHeaders_1_1Udp.html#a531f2e8247abf7807c50d806208b7cb1" target="_top" xlink:title="Get the SDU. ">
<polygon fill="none" stroke="black" points="277,-137 277,-156 409,-156 409,-137 277,-137"/>
<text text-anchor="middle" x="343" y="-144" font-family="Helvetica,sans-Serif" font-size="10.00">Headers::Udp::getPayload</text>
</a>
</g>
</g>
<!-- Node2&#45;&gt;Node5 -->
<g id="edge4" class="edge"><title>Node2&#45;&gt;Node5</title>
<path fill="none" stroke="midnightblue" d="M240.192,-133.774C248.736,-134.842 257.775,-135.972 266.798,-137.1"/>
<polygon fill="midnightblue" stroke="midnightblue" points="266.596,-140.602 276.953,-138.369 267.464,-133.656 266.596,-140.602"/>
</g>
<!-- Node6 -->
<g id="node6" class="node"><title>Node6</title>
<g id="a_node6"><a xlink:href="structHelloBye2_1_1msg.html#a4176b99eaac8fa68d5e44531ad8eaba0" target="_top" xlink:title="HelloBye2::msg::msg">
<polygon fill="none" stroke="black" points="287.5,-99 287.5,-118 398.5,-118 398.5,-99 287.5,-99"/>
<text text-anchor="middle" x="343" y="-106" font-family="Helvetica,sans-Serif" font-size="10.00">HelloBye2::msg::msg</text>
</a>
</g>
</g>
<!-- Node2&#45;&gt;Node6 -->
<g id="edge5" class="edge"><title>Node2&#45;&gt;Node6</title>
<path fill="none" stroke="midnightblue" d="M240.192,-121.226C252.014,-119.748 264.782,-118.152 277.148,-116.607"/>
<polygon fill="midnightblue" stroke="midnightblue" points="277.922,-120.037 287.411,-115.324 277.054,-113.091 277.922,-120.037"/>
</g>
<!-- Node7 -->
<g id="node7" class="node"><title>Node7</title>
<g id="a_node7"><a xlink:href="classStateMachine_1_1FunIface.html#af87038e844cd7e3e778252ef1c15ed28" target="_top" xlink:title="Transition to another state. ">
<polygon fill="none" stroke="black" points="282.5,-49.5 282.5,-79.5 403.5,-79.5 403.5,-49.5 282.5,-49.5"/>
<text text-anchor="start" x="290.5" y="-67.5" font-family="Helvetica,sans-Serif" font-size="10.00">StateMachine::FunIface</text>
<text text-anchor="middle" x="343" y="-56.5" font-family="Helvetica,sans-Serif" font-size="10.00">::transition</text>
</a>
</g>
</g>
<!-- Node2&#45;&gt;Node7 -->
<g id="edge6" class="edge"><title>Node2&#45;&gt;Node7</title>
<path fill="none" stroke="midnightblue" d="M222.901,-112.464C238.847,-105.304 258.329,-96.7445 276,-89.5 281.031,-87.4375 286.301,-85.3388 291.575,-83.2786"/>
<polygon fill="midnightblue" stroke="midnightblue" points="292.958,-86.4965 301.025,-79.6276 290.435,-79.9669 292.958,-86.4965"/>
</g>
<!-- Node8 -->
<g id="node8" class="node"><title>Node8</title>
<g id="a_node8"><a xlink:href="classStateMachine_1_1FunIface.html#a1985ec03a8173ed85b6ad89a449c5f16" target="_top" xlink:title="Free the packet after the batch is processed, do not send it. ">
<polygon fill="none" stroke="black" points="282.5,-0.5 282.5,-30.5 403.5,-30.5 403.5,-0.5 282.5,-0.5"/>
<text text-anchor="start" x="290.5" y="-18.5" font-family="Helvetica,sans-Serif" font-size="10.00">StateMachine::FunIface</text>
<text text-anchor="middle" x="343" y="-7.5" font-family="Helvetica,sans-Serif" font-size="10.00">::freePkt</text>
</a>
</g>
</g>
<!-- Node2&#45;&gt;Node8 -->
<g id="edge7" class="edge"><title>Node2&#45;&gt;Node8</title>
<path fill="none" stroke="midnightblue" d="M201.545,-112.311C216.753,-93.2206 245.199,-60.5319 276,-40.5 278.966,-38.5711 282.102,-36.7592 285.333,-35.0626"/>
<polygon fill="midnightblue" stroke="midnightblue" points="287.136,-38.079 294.625,-30.5846 284.097,-31.7731 287.136,-38.079"/>
</g>
</g>
</svg>
