<?xml version="1.0" encoding="UTF-8" standalone="no"?>
<!DOCTYPE svg PUBLIC "-//W3C//DTD SVG 1.1//EN"
 "http://www.w3.org/Graphics/SVG/1.1/DTD/svg11.dtd">
<!-- Generated by graphviz version 2.38.0 (20140413.2041)
 -->
<!-- Title: HelloBye2::Client::RecvBye::fun Pages: 1 -->
<svg width="277pt" height="252pt"
 viewBox="0.00 0.00 277.00 252.00" xmlns="http://www.w3.org/2000/svg" xmlns:xlink="http://www.w3.org/1999/xlink">
<g id="graph0" class="graph" transform="scale(1 1) rotate(0) translate(4 248)">
<title>HelloBye2::Client::RecvBye::fun</title>
<!-- Node1 -->
<g id="node1" class="node"><title>Node1</title>
<polygon fill="#bfbfbf" stroke="black" points="0,-112.5 0,-142.5 99,-142.5 99,-112.5 0,-112.5"/>
<text text-anchor="start" x="8" y="-130.5" font-family="Helvetica,sans-Serif" font-size="10.00">HelloBye2::Client::</text>
<text text-anchor="middle" x="49.5" y="-119.5" font-family="Helvetica,sans-Serif" font-size="10.00">RecvBye::fun</text>
</g>
<!-- Node2 -->
<g id="node2" class="node"><title>Node2</title>
<g id="a_node2"><a xlink:href="structHeaders_1_1Ethernet.html#ad59e9fe1ec95b8e2ed11f97b44a20650" target="_top" xlink:title="Get the SDU. ">
<polygon fill="none" stroke="black" points="151,-213.5 151,-243.5 253,-243.5 253,-213.5 151,-213.5"/>
<text text-anchor="start" x="159" y="-231.5" font-family="Helvetica,sans-Serif" font-size="10.00">Headers::Ethernet::</text>
<text text-anchor="middle" x="202" y="-220.5" font-family="Helvetica,sans-Serif" font-size="10.00">getPayload</text>
</a>
</g>
</g>
<!-- Node1&#45;&gt;Node2 -->
<g id="edge1" class="edge"><title>Node1&#45;&gt;Node2</title>
<path fill="none" stroke="midnightblue" d="M64.1176,-142.756C79.8043,-159.56 107.031,-186.456 135,-203.5 138.319,-205.522 141.828,-207.427 145.431,-209.213"/>
<polygon fill="midnightblue" stroke="midnightblue" points="143.973,-212.395 154.519,-213.405 146.904,-206.039 143.973,-212.395"/>
</g>
<!-- Node3 -->
<g id="node3" class="node"><title>Node3</title>
<g id="a_node3"><a xlink:href="structHeaders_1_1IPv4.html#acc4a8033c5da9c2ce147ee10e15d2a49" target="_top" xlink:title="Get the SDU. ">
<polygon fill="none" stroke="black" points="135,-175 135,-194 269,-194 269,-175 135,-175"/>
<text text-anchor="middle" x="202" y="-182" font-family="Helvetica,sans-Serif" font-size="10.00">Headers::IPv4::getPayload</text>
</a>
</g>
</g>
<!-- Node1&#45;&gt;Node3 -->
<g id="edge2" class="edge"><title>Node1&#45;&gt;Node3</title>
<path fill="none" stroke="midnightblue" d="M81.3619,-142.653C97.178,-150.09 116.878,-158.855 135,-165.5 141.318,-167.817 148.058,-170.035 154.727,-172.087"/>
<polygon fill="midnightblue" stroke="midnightblue" points="153.806,-175.464 164.389,-174.964 155.804,-168.755 153.806,-175.464"/>
</g>
<!-- Node4 -->
<g id="node4" class="node"><title>Node4</title>
<g id="a_node4"><a xlink:href="structHeaders_1_1Udp.html#a531f2e8247abf7807c50d806208b7cb1" target="_top" xlink:title="Get the SDU. ">
<polygon fill="none" stroke="black" points="136,-137 136,-156 268,-156 268,-137 136,-137"/>
<text text-anchor="middle" x="202" y="-144" font-family="Helvetica,sans-Serif" font-size="10.00">Headers::Udp::getPayload</text>
</a>
</g>
</g>
<!-- Node1&#45;&gt;Node4 -->
<g id="edge3" class="edge"><title>Node1&#45;&gt;Node4</title>
<path fill="none" stroke="midnightblue" d="M99.363,-133.669C107.844,-134.739 116.837,-135.875 125.829,-137.01"/>
<polygon fill="midnightblue" stroke="midnightblue" points="125.593,-140.508 135.953,-138.288 126.47,-133.563 125.593,-140.508"/>
</g>
<!-- Node5 -->
<g id="node5" class="node"><title>Node5</title>
<g id="a_node5"><a xlink:href="structHelloBye2_1_1msg.html#a4176b99eaac8fa68d5e44531ad8eaba0" target="_top" xlink:title="HelloBye2::msg::msg">
<polygon fill="none" stroke="black" points="146.5,-99 146.5,-118 257.5,-118 257.5,-99 146.5,-99"/>
<text text-anchor="middle" x="202" y="-106" font-family="Helvetica,sans-Serif" font-size="10.00">HelloBye2::msg::msg</text>
</a>
</g>
</g>
<!-- Node1&#45;&gt;Node5 -->
<g id="edge4" class="edge"><title>Node1&#45;&gt;Node5</title>
<path fill="none" stroke="midnightblue" d="M99.363,-121.331C111.098,-119.85 123.812,-118.245 136.147,-116.687"/>
<polygon fill="midnightblue" stroke="midnightblue" points="136.906,-120.119 146.389,-115.394 136.03,-113.175 136.906,-120.119"/>
</g>
<!-- Node6 -->
<g id="node6" class="node"><title>Node6</title>
<g id="a_node6"><a xlink:href="classStateMachine_1_1FunIface.html#af87038e844cd7e3e778252ef1c15ed28" target="_top" xlink:title="Transition to another state. ">
<polygon fill="none" stroke="black" points="141.5,-49.5 141.5,-79.5 262.5,-79.5 262.5,-49.5 141.5,-49.5"/>
<text text-anchor="start" x="149.5" y="-67.5" font-family="Helvetica,sans-Serif" font-size="10.00">StateMachine::FunIface</text>
<text text-anchor="middle" x="202" y="-56.5" font-family="Helvetica,sans-Serif" font-size="10.00">::transition</text>
</a>
</g>
</g>
<!-- Node1&#45;&gt;Node6 -->
<g id="edge5" class="edge"><title>Node1&#45;&gt;Node6</title>
<path fill="none" stroke="midnightblue" d="M82.8026,-112.421C98.4657,-105.252 117.61,-96.6959 135,-89.5 140.024,-87.421 145.289,-85.3117 150.562,-83.2448"/>
<polygon fill="midnightblue" stroke="midnightblue" points="151.947,-86.4617 160.008,-79.5863 149.419,-79.9341 151.947,-86.4617"/>
</g>
<!-- Node7 -->
<g id="node7" class="node"><title>Node7</title>
<g id="a_node7"><a xlink:href="classStateMachine_1_1FunIface.html#a1985ec03a8173ed85b6ad89a449c5f16" target="_top" xlink:title="Free the packet after the batch is processed, do not send it. ">
<polygon fill="none" stroke="black" points="141.5,-0.5 141.5,-30.5 262.5,-30.5 262.5,-0.5 141.5,-0.5"/>
<text text-anchor="start" x="149.5" y="-18.5" font-family="Helvetica,sans-Serif" font-size="10.00">StateMachine::FunIface</text>
<text text-anchor="middle" x="202" y="-7.5" font-family="Helvetica,sans-Serif" font-size="10.00">::freePkt</text>
</a>
</g>
</g>
<!-- Node1&#45;&gt;Node7 -->
<g id="edge6" class="edge"><title>Node1&#45;&gt;Node7</title>
<path fill="none" stroke="midnightblue" d="M61.7855,-112.3C76.6663,-93.1961 104.551,-60.4941 135,-40.5 137.957,-38.558 141.087,-36.7361 144.313,-35.0318"/>
<polygon fill="midnightblue" stroke="midnightblue" points="146.119,-38.0461 153.595,-30.5384 143.069,-31.7455 146.119,-38.0461"/>
</g>
</g>
</svg>
