<?xml version="1.0" encoding="UTF-8" standalone="no"?>
<!DOCTYPE svg PUBLIC "-//W3C//DTD SVG 1.1//EN"
 "http://www.w3.org/Graphics/SVG/1.1/DTD/svg11.dtd">
<!-- Generated by graphviz version 2.38.0 (20140413.2041)
 -->
<!-- Title: HelloBye2::Client::Bye::run Pages: 1 -->
<svg width="412pt" height="203pt"
 viewBox="0.00 0.00 412.00 203.00" xmlns="http://www.w3.org/2000/svg" xmlns:xlink="http://www.w3.org/1999/xlink">
<g id="graph0" class="graph" transform="scale(1 1) rotate(0) translate(4 199)">
<title>HelloBye2::Client::Bye::run</title>
<!-- Node1 -->
<g id="node1" class="node"><title>Node1</title>
<polygon fill="#bfbfbf" stroke="black" points="0,-82.5 0,-112.5 99,-112.5 99,-82.5 0,-82.5"/>
<text text-anchor="start" x="8" y="-100.5" font-family="Helvetica,sans-Serif" font-size="10.00">HelloBye2::Client::</text>
<text text-anchor="middle" x="49.5" y="-89.5" font-family="Helvetica,sans-Serif" font-size="10.00">Bye::run</text>
</g>
<!-- Node2 -->
<g id="node2" class="node"><title>Node2</title>
<g id="a_node2"><a xlink:href="classHelloBye2_1_1Client_1_1Bye.html#a0bb3514de4c48b032cac4032d8842dbc" target="_top" xlink:title="HelloBye2::Client::\lBye::fun">
<polygon fill="none" stroke="black" points="135,-82.5 135,-112.5 234,-112.5 234,-82.5 135,-82.5"/>
<text text-anchor="start" x="143" y="-100.5" font-family="Helvetica,sans-Serif" font-size="10.00">HelloBye2::Client::</text>
<text text-anchor="middle" x="184.5" y="-89.5" font-family="Helvetica,sans-Serif" font-size="10.00">Bye::fun</text>
</a>
</g>
</g>
<!-- Node1&#45;&gt;Node2 -->
<g id="edge1" class="edge"><title>Node1&#45;&gt;Node2</title>
<path fill="none" stroke="midnightblue" d="M99.2691,-97.5C107.491,-97.5 116.104,-97.5 124.551,-97.5"/>
<polygon fill="midnightblue" stroke="midnightblue" points="124.737,-101 134.737,-97.5 124.737,-94.0001 124.737,-101"/>
</g>
<!-- Node3 -->
<g id="node3" class="node"><title>Node3</title>
<g id="a_node3"><a xlink:href="structHeaders_1_1Ethernet.html#ad59e9fe1ec95b8e2ed11f97b44a20650" target="_top" xlink:title="Get the SDU. ">
<polygon fill="none" stroke="black" points="286,-164.5 286,-194.5 388,-194.5 388,-164.5 286,-164.5"/>
<text text-anchor="start" x="294" y="-182.5" font-family="Helvetica,sans-Serif" font-size="10.00">Headers::Ethernet::</text>
<text text-anchor="middle" x="337" y="-171.5" font-family="Helvetica,sans-Serif" font-size="10.00">getPayload</text>
</a>
</g>
</g>
<!-- Node2&#45;&gt;Node3 -->
<g id="edge2" class="edge"><title>Node2&#45;&gt;Node3</title>
<path fill="none" stroke="midnightblue" d="M205.175,-112.696C221.802,-125.056 246.586,-142.377 270,-154.5 274.026,-156.585 278.267,-158.589 282.576,-160.492"/>
<polygon fill="midnightblue" stroke="midnightblue" points="281.489,-163.832 292.064,-164.491 284.208,-157.382 281.489,-163.832"/>
</g>
<!-- Node4 -->
<g id="node4" class="node"><title>Node4</title>
<g id="a_node4"><a xlink:href="structHeaders_1_1IPv4.html#acc4a8033c5da9c2ce147ee10e15d2a49" target="_top" xlink:title="Get the SDU. ">
<polygon fill="none" stroke="black" points="270,-126 270,-145 404,-145 404,-126 270,-126"/>
<text text-anchor="middle" x="337" y="-133" font-family="Helvetica,sans-Serif" font-size="10.00">Headers::IPv4::getPayload</text>
</a>
</g>
</g>
<!-- Node2&#45;&gt;Node4 -->
<g id="edge3" class="edge"><title>Node2&#45;&gt;Node4</title>
<path fill="none" stroke="midnightblue" d="M234.363,-109.838C251.726,-114.222 271.235,-119.147 288.484,-123.503"/>
<polygon fill="midnightblue" stroke="midnightblue" points="287.793,-126.938 298.346,-125.993 289.507,-120.151 287.793,-126.938"/>
</g>
<!-- Node5 -->
<g id="node5" class="node"><title>Node5</title>
<g id="a_node5"><a xlink:href="structHeaders_1_1Udp.html#a531f2e8247abf7807c50d806208b7cb1" target="_top" xlink:title="Get the SDU. ">
<polygon fill="none" stroke="black" points="271,-88 271,-107 403,-107 403,-88 271,-88"/>
<text text-anchor="middle" x="337" y="-95" font-family="Helvetica,sans-Serif" font-size="10.00">Headers::Udp::getPayload</text>
</a>
</g>
</g>
<!-- Node2&#45;&gt;Node5 -->
<g id="edge4" class="edge"><title>Node2&#45;&gt;Node5</title>
<path fill="none" stroke="midnightblue" d="M234.363,-97.5C242.844,-97.5 251.837,-97.5 260.829,-97.5"/>
<polygon fill="midnightblue" stroke="midnightblue" points="260.953,-101 270.953,-97.5 260.953,-94.0001 260.953,-101"/>
</g>
<!-- Node6 -->
<g id="node6" class="node"><title>Node6</title>
<g id="a_node6"><a xlink:href="structHelloBye2_1_1msg.html#a4176b99eaac8fa68d5e44531ad8eaba0" target="_top" xlink:title="HelloBye2::msg::msg">
<polygon fill="none" stroke="black" points="281.5,-50 281.5,-69 392.5,-69 392.5,-50 281.5,-50"/>
<text text-anchor="middle" x="337" y="-57" font-family="Helvetica,sans-Serif" font-size="10.00">HelloBye2::msg::msg</text>
</a>
</g>
</g>
<!-- Node2&#45;&gt;Node6 -->
<g id="edge5" class="edge"><title>Node2&#45;&gt;Node6</title>
<path fill="none" stroke="midnightblue" d="M234.363,-85.1625C251.726,-80.7784 271.235,-75.8525 288.484,-71.4973"/>
<polygon fill="midnightblue" stroke="midnightblue" points="289.507,-74.8491 298.346,-69.0074 287.793,-68.0621 289.507,-74.8491"/>
</g>
<!-- Node7 -->
<g id="node7" class="node"><title>Node7</title>
<g id="a_node7"><a xlink:href="classStateMachine_1_1FunIface.html#af87038e844cd7e3e778252ef1c15ed28" target="_top" xlink:title="Transition to another state. ">
<polygon fill="none" stroke="black" points="276.5,-0.5 276.5,-30.5 397.5,-30.5 397.5,-0.5 276.5,-0.5"/>
<text text-anchor="start" x="284.5" y="-18.5" font-family="Helvetica,sans-Serif" font-size="10.00">StateMachine::FunIface</text>
<text text-anchor="middle" x="337" y="-7.5" font-family="Helvetica,sans-Serif" font-size="10.00">::transition</text>
</a>
</g>
</g>
<!-- Node2&#45;&gt;Node7 -->
<g id="edge6" class="edge"><title>Node2&#45;&gt;Node7</title>
<path fill="none" stroke="midnightblue" d="M205.175,-82.3045C221.802,-69.9437 246.586,-52.6233 270,-40.5 274.026,-38.4155 278.267,-36.4113 282.576,-34.5078"/>
<polygon fill="midnightblue" stroke="midnightblue" points="284.208,-37.6183 292.064,-30.5092 281.489,-31.1678 284.208,-37.6183"/>
</g>
</g>
</svg>
