<?xml version="1.0" encoding="UTF-8" standalone="no"?>
<!DOCTYPE svg PUBLIC "-//W3C//DTD SVG 1.1//EN"
 "http://www.w3.org/Graphics/SVG/1.1/DTD/svg11.dtd">
<!-- Generated by graphviz version 2.38.0 (20140413.2041)
 -->
<!-- Title: HelloBye::HelloByeClientHello::fun Pages: 1 -->
<svg width="306pt" height="340pt"
 viewBox="0.00 0.00 306.00 340.00" xmlns="http://www.w3.org/2000/svg" xmlns:xlink="http://www.w3.org/1999/xlink">
<g id="graph0" class="graph" transform="scale(1 1) rotate(0) translate(4 336)">
<title>HelloBye::HelloByeClientHello::fun</title>
<!-- Node1 -->
<g id="node1" class="node"><title>Node1</title>
<polygon fill="#bfbfbf" stroke="black" points="0,-153.5 0,-183.5 128,-183.5 128,-153.5 0,-153.5"/>
<text text-anchor="start" x="8" y="-171.5" font-family="Helvetica,sans-Serif" font-size="10.00">HelloBye::HelloByeClient</text>
<text text-anchor="middle" x="64" y="-160.5" font-family="Helvetica,sans-Serif" font-size="10.00">Hello::fun</text>
</g>
<!-- Node2 -->
<g id="node2" class="node"><title>Node2</title>
<g id="a_node2"><a xlink:href="classHelloBye_1_1HelloByeClientConfig.html#ad2c4d5874607eab2f221dd9dc8b55e1e" target="_top" xlink:title="HelloBye::HelloByeClient\lConfig::getInstance">
<polygon fill="none" stroke="black" points="167,-301.5 167,-331.5 295,-331.5 295,-301.5 167,-301.5"/>
<text text-anchor="start" x="175" y="-319.5" font-family="Helvetica,sans-Serif" font-size="10.00">HelloBye::HelloByeClient</text>
<text text-anchor="middle" x="231" y="-308.5" font-family="Helvetica,sans-Serif" font-size="10.00">Config::getInstance</text>
</a>
</g>
</g>
<!-- Node1&#45;&gt;Node2 -->
<g id="edge1" class="edge"><title>Node1&#45;&gt;Node2</title>
<path fill="none" stroke="midnightblue" d="M73.4148,-183.52C88.4479,-209.089 122.286,-261.239 164,-291.5 166.628,-293.407 169.42,-295.186 172.312,-296.845"/>
<polygon fill="midnightblue" stroke="midnightblue" points="170.742,-299.973 181.231,-301.464 173.961,-293.757 170.742,-299.973"/>
</g>
<!-- Node3 -->
<g id="node3" class="node"><title>Node3</title>
<g id="a_node3"><a xlink:href="structHeaders_1_1IPv4.html#a28a6286beded8ad7cd611483f3dcac09" target="_top" xlink:title="Set the version field to 4. ">
<polygon fill="none" stroke="black" points="165.5,-263 165.5,-282 296.5,-282 296.5,-263 165.5,-263"/>
<text text-anchor="middle" x="231" y="-270" font-family="Helvetica,sans-Serif" font-size="10.00">Headers::IPv4::setVersion</text>
</a>
</g>
</g>
<!-- Node1&#45;&gt;Node3 -->
<g id="edge2" class="edge"><title>Node1&#45;&gt;Node3</title>
<path fill="none" stroke="midnightblue" d="M78.5958,-183.642C96.4249,-202.613 129.511,-234.887 164,-253.5 168.174,-255.753 172.645,-257.764 177.219,-259.555"/>
<polygon fill="midnightblue" stroke="midnightblue" points="176.097,-262.871 186.692,-262.927 178.445,-256.276 176.097,-262.871"/>
</g>
<!-- Node4 -->
<g id="node4" class="node"><title>Node4</title>
<g id="a_node4"><a xlink:href="structHeaders_1_1IPv4.html#a89ebc78cd618d1ac327bb82e4b46917f" target="_top" xlink:title="Sets the IP header length. ">
<polygon fill="none" stroke="black" points="173.5,-225 173.5,-244 288.5,-244 288.5,-225 173.5,-225"/>
<text text-anchor="middle" x="231" y="-232" font-family="Helvetica,sans-Serif" font-size="10.00">Headers::IPv4::setIHL</text>
</a>
</g>
</g>
<!-- Node1&#45;&gt;Node4 -->
<g id="edge3" class="edge"><title>Node1&#45;&gt;Node4</title>
<path fill="none" stroke="midnightblue" d="M93.4848,-183.545C112.983,-193.463 139.621,-206.275 164,-215.5 170.074,-217.799 176.552,-219.979 182.985,-221.988"/>
<polygon fill="midnightblue" stroke="midnightblue" points="182.412,-225.47 192.996,-224.996 184.426,-218.766 182.412,-225.47"/>
</g>
<!-- Node5 -->
<g id="node5" class="node"><title>Node5</title>
<g id="a_node5"><a xlink:href="classHelloBye_1_1HelloByeClientConfig.html#ab6359aa6d88b7f655b562861a6fc82bc" target="_top" xlink:title="HelloBye::HelloByeClient\lConfig::getSrcIP">
<polygon fill="none" stroke="black" points="167,-175.5 167,-205.5 295,-205.5 295,-175.5 167,-175.5"/>
<text text-anchor="start" x="175" y="-193.5" font-family="Helvetica,sans-Serif" font-size="10.00">HelloBye::HelloByeClient</text>
<text text-anchor="middle" x="231" y="-182.5" font-family="Helvetica,sans-Serif" font-size="10.00">Config::getSrcIP</text>
</a>
</g>
</g>
<!-- Node1&#45;&gt;Node5 -->
<g id="edge4" class="edge"><title>Node1&#45;&gt;Node5</title>
<path fill="none" stroke="midnightblue" d="M128.321,-176.943C137.598,-178.18 147.218,-179.462 156.674,-180.723"/>
<polygon fill="midnightblue" stroke="midnightblue" points="156.473,-184.227 166.848,-182.08 157.398,-177.289 156.473,-184.227"/>
</g>
<!-- Node6 -->
<g id="node6" class="node"><title>Node6</title>
<g id="a_node6"><a xlink:href="structHeaders_1_1IPv4.html#acc4a8033c5da9c2ce147ee10e15d2a49" target="_top" xlink:title="Get the SDU. ">
<polygon fill="none" stroke="black" points="164,-137 164,-156 298,-156 298,-137 164,-137"/>
<text text-anchor="middle" x="231" y="-144" font-family="Helvetica,sans-Serif" font-size="10.00">Headers::IPv4::getPayload</text>
</a>
</g>
</g>
<!-- Node1&#45;&gt;Node6 -->
<g id="edge5" class="edge"><title>Node1&#45;&gt;Node6</title>
<path fill="none" stroke="midnightblue" d="M128.321,-160.057C136.682,-158.942 145.322,-157.79 153.869,-156.651"/>
<polygon fill="midnightblue" stroke="midnightblue" points="154.389,-160.113 163.839,-155.321 153.464,-153.174 154.389,-160.113"/>
</g>
<!-- Node7 -->
<g id="node7" class="node"><title>Node7</title>
<g id="a_node7"><a xlink:href="structHeaders_1_1Udp.html#a531f2e8247abf7807c50d806208b7cb1" target="_top" xlink:title="Get the SDU. ">
<polygon fill="none" stroke="black" points="165,-99 165,-118 297,-118 297,-99 165,-99"/>
<text text-anchor="middle" x="231" y="-106" font-family="Helvetica,sans-Serif" font-size="10.00">Headers::Udp::getPayload</text>
</a>
</g>
</g>
<!-- Node1&#45;&gt;Node7 -->
<g id="edge6" class="edge"><title>Node1&#45;&gt;Node7</title>
<path fill="none" stroke="midnightblue" d="M98.9967,-153.311C117.932,-145.133 142.05,-135.177 164,-127.5 170.503,-125.225 177.433,-123.01 184.266,-120.942"/>
<polygon fill="midnightblue" stroke="midnightblue" points="185.544,-124.214 194.146,-118.029 183.564,-117.5 185.544,-124.214"/>
</g>
<!-- Node8 -->
<g id="node8" class="node"><title>Node8</title>
<g id="a_node8"><a xlink:href="classHelloBye_1_1HelloByeClientConfig.html#a632d9fcc0cdea73b31e5871ae6b54c24" target="_top" xlink:title="HelloBye::HelloByeClient\lConfig::getDstPort">
<polygon fill="none" stroke="black" points="167,-49.5 167,-79.5 295,-79.5 295,-49.5 167,-49.5"/>
<text text-anchor="start" x="175" y="-67.5" font-family="Helvetica,sans-Serif" font-size="10.00">HelloBye::HelloByeClient</text>
<text text-anchor="middle" x="231" y="-56.5" font-family="Helvetica,sans-Serif" font-size="10.00">Config::getDstPort</text>
</a>
</g>
</g>
<!-- Node1&#45;&gt;Node8 -->
<g id="edge7" class="edge"><title>Node1&#45;&gt;Node8</title>
<path fill="none" stroke="midnightblue" d="M80.6733,-153.395C99.2962,-136.093 131.901,-107.785 164,-89.5 167.593,-87.4531 171.386,-85.5115 175.264,-83.6828"/>
<polygon fill="midnightblue" stroke="midnightblue" points="176.689,-86.8795 184.411,-79.6248 173.85,-80.4809 176.689,-86.8795"/>
</g>
<!-- Node9 -->
<g id="node9" class="node"><title>Node9</title>
<g id="a_node9"><a xlink:href="structStateMachine_1_1State.html#a89a520519a2b8dab5f4ae7a90c2bee83" target="_top" xlink:title="Transition to another state. ">
<polygon fill="none" stroke="black" points="178,-0.5 178,-30.5 284,-30.5 284,-0.5 178,-0.5"/>
<text text-anchor="start" x="186" y="-18.5" font-family="Helvetica,sans-Serif" font-size="10.00">StateMachine::State</text>
<text text-anchor="middle" x="231" y="-7.5" font-family="Helvetica,sans-Serif" font-size="10.00">::transition</text>
</a>
</g>
</g>
<!-- Node1&#45;&gt;Node9 -->
<g id="edge8" class="edge"><title>Node1&#45;&gt;Node9</title>
<path fill="none" stroke="midnightblue" d="M73.0248,-153.279C87.7016,-126.804 121.325,-72.0928 164,-40.5 166.48,-38.6637 169.112,-36.9467 171.84,-35.3434"/>
<polygon fill="midnightblue" stroke="midnightblue" points="173.61,-38.3669 180.819,-30.6025 170.341,-32.1768 173.61,-38.3669"/>
</g>
</g>
</svg>
