<?xml version="1.0" encoding="UTF-8" standalone="no"?>
<!DOCTYPE svg PUBLIC "-//W3C//DTD SVG 1.1//EN"
 "http://www.w3.org/Graphics/SVG/1.1/DTD/svg11.dtd">
<!-- Generated by graphviz version 2.38.0 (20140413.2041)
 -->
<!-- Title: HelloBye2::Client::Hello::run Pages: 1 -->
<svg width="422pt" height="656pt"
 viewBox="0.00 0.00 422.00 656.00" xmlns="http://www.w3.org/2000/svg" xmlns:xlink="http://www.w3.org/1999/xlink">
<g id="graph0" class="graph" transform="scale(1 1) rotate(0) translate(4 652)">
<title>HelloBye2::Client::Hello::run</title>
<!-- Node1 -->
<g id="node1" class="node"><title>Node1</title>
<polygon fill="#bfbfbf" stroke="black" points="0,-314.5 0,-344.5 99,-344.5 99,-314.5 0,-314.5"/>
<text text-anchor="start" x="8" y="-332.5" font-family="Helvetica,sans-Serif" font-size="10.00">HelloBye2::Client::</text>
<text text-anchor="middle" x="49.5" y="-321.5" font-family="Helvetica,sans-Serif" font-size="10.00">Hello::run</text>
</g>
<!-- Node2 -->
<g id="node2" class="node"><title>Node2</title>
<g id="a_node2"><a xlink:href="classHelloBye2_1_1Client_1_1Hello.html#af845992604b22f6d99819ed79908b8ff" target="_top" xlink:title="HelloBye2::Client::\lHello::fun">
<polygon fill="none" stroke="black" points="135,-314.5 135,-344.5 234,-344.5 234,-314.5 135,-314.5"/>
<text text-anchor="start" x="143" y="-332.5" font-family="Helvetica,sans-Serif" font-size="10.00">HelloBye2::Client::</text>
<text text-anchor="middle" x="184.5" y="-321.5" font-family="Helvetica,sans-Serif" font-size="10.00">Hello::fun</text>
</a>
</g>
</g>
<!-- Node1&#45;&gt;Node2 -->
<g id="edge1" class="edge"><title>Node1&#45;&gt;Node2</title>
<path fill="none" stroke="midnightblue" d="M99.2691,-329.5C107.491,-329.5 116.104,-329.5 124.551,-329.5"/>
<polygon fill="midnightblue" stroke="midnightblue" points="124.737,-333 134.737,-329.5 124.737,-326 124.737,-333"/>
</g>
<!-- Node3 -->
<g id="node3" class="node"><title>Node3</title>
<g id="a_node3"><a xlink:href="classHelloBye2_1_1HelloBye2ClientConfig.html#a456bccf8c2a9880404d7527fef41ca64" target="_top" xlink:title="HelloBye2::HelloBye2Client\lConfig::getInstance">
<polygon fill="none" stroke="black" points="273,-617.5 273,-647.5 411,-647.5 411,-617.5 273,-617.5"/>
<text text-anchor="start" x="281" y="-635.5" font-family="Helvetica,sans-Serif" font-size="10.00">HelloBye2::HelloBye2Client</text>
<text text-anchor="middle" x="342" y="-624.5" font-family="Helvetica,sans-Serif" font-size="10.00">Config::getInstance</text>
</a>
</g>
</g>
<!-- Node2&#45;&gt;Node3 -->
<g id="edge2" class="edge"><title>Node2&#45;&gt;Node3</title>
<path fill="none" stroke="midnightblue" d="M185.584,-344.794C186.672,-390.957 196.217,-530.437 270,-607.5 271.39,-608.951 272.868,-610.318 274.42,-611.606"/>
<polygon fill="midnightblue" stroke="midnightblue" points="272.519,-614.548 282.721,-617.408 276.529,-608.81 272.519,-614.548"/>
</g>
<!-- Node4 -->
<g id="node4" class="node"><title>Node4</title>
<g id="a_node4"><a xlink:href="structHeaders_1_1IPv4.html#a28a6286beded8ad7cd611483f3dcac09" target="_top" xlink:title="Set the version field to 4. ">
<polygon fill="none" stroke="black" points="276.5,-579 276.5,-598 407.5,-598 407.5,-579 276.5,-579"/>
<text text-anchor="middle" x="342" y="-586" font-family="Helvetica,sans-Serif" font-size="10.00">Headers::IPv4::setVersion</text>
</a>
</g>
</g>
<!-- Node2&#45;&gt;Node4 -->
<g id="edge3" class="edge"><title>Node2&#45;&gt;Node4</title>
<path fill="none" stroke="midnightblue" d="M186.167,-344.759C188.867,-387.081 202.414,-506.931 270,-569.5 271.674,-571.05 273.46,-572.475 275.335,-573.787"/>
<polygon fill="midnightblue" stroke="midnightblue" points="273.641,-576.851 284.048,-578.838 277.152,-570.795 273.641,-576.851"/>
</g>
<!-- Node5 -->
<g id="node5" class="node"><title>Node5</title>
<g id="a_node5"><a xlink:href="structHeaders_1_1IPv4.html#a89ebc78cd618d1ac327bb82e4b46917f" target="_top" xlink:title="Sets the IP header length. ">
<polygon fill="none" stroke="black" points="284.5,-541 284.5,-560 399.5,-560 399.5,-541 284.5,-541"/>
<text text-anchor="middle" x="342" y="-548" font-family="Helvetica,sans-Serif" font-size="10.00">Headers::IPv4::setIHL</text>
</a>
</g>
</g>
<!-- Node2&#45;&gt;Node5 -->
<g id="edge4" class="edge"><title>Node2&#45;&gt;Node5</title>
<path fill="none" stroke="midnightblue" d="M187.275,-344.526C192.523,-382.021 211.455,-480.355 270,-531.5 271.934,-533.189 274.003,-534.731 276.173,-536.137"/>
<polygon fill="midnightblue" stroke="midnightblue" points="274.519,-539.221 284.977,-540.916 277.858,-533.069 274.519,-539.221"/>
</g>
<!-- Node6 -->
<g id="node6" class="node"><title>Node6</title>
<g id="a_node6"><a xlink:href="structHeaders_1_1IPv4.html#a6170f8d379d252ca29e8c91f457d1108" target="_top" xlink:title="Headers::IPv4::setLength">
<polygon fill="none" stroke="black" points="278,-503 278,-522 406,-522 406,-503 278,-503"/>
<text text-anchor="middle" x="342" y="-510" font-family="Helvetica,sans-Serif" font-size="10.00">Headers::IPv4::setLength</text>
</a>
</g>
</g>
<!-- Node2&#45;&gt;Node6 -->
<g id="edge5" class="edge"><title>Node2&#45;&gt;Node6</title>
<path fill="none" stroke="midnightblue" d="M188.943,-344.813C197.076,-377.364 220.618,-453.709 270,-493.5 272.087,-495.181 274.309,-496.715 276.63,-498.113"/>
<polygon fill="midnightblue" stroke="midnightblue" points="275.496,-501.462 285.998,-502.864 278.662,-495.219 275.496,-501.462"/>
</g>
<!-- Node7 -->
<g id="node7" class="node"><title>Node7</title>
<g id="a_node7"><a xlink:href="structHeaders_1_1IPv4.html#ab3379b3b9cf0bda526087c3cc1c9927d" target="_top" xlink:title="Set the destination ip. ">
<polygon fill="none" stroke="black" points="279.5,-465 279.5,-484 404.5,-484 404.5,-465 279.5,-465"/>
<text text-anchor="middle" x="342" y="-472" font-family="Helvetica,sans-Serif" font-size="10.00">Headers::IPv4::setDstIP</text>
</a>
</g>
</g>
<!-- Node2&#45;&gt;Node7 -->
<g id="edge6" class="edge"><title>Node2&#45;&gt;Node7</title>
<path fill="none" stroke="midnightblue" d="M191.336,-344.502C202.464,-371.085 229.293,-426.392 270,-455.5 272.699,-457.43 275.582,-459.163 278.583,-460.721"/>
<polygon fill="midnightblue" stroke="midnightblue" points="277.323,-463.992 287.88,-464.886 280.185,-457.603 277.323,-463.992"/>
</g>
<!-- Node8 -->
<g id="node8" class="node"><title>Node8</title>
<g id="a_node8"><a xlink:href="structHeaders_1_1IPv4.html#a4e1023a9cc8055be85956cd29c6fc397" target="_top" xlink:title="Set the source ip. ">
<polygon fill="none" stroke="black" points="280,-427 280,-446 404,-446 404,-427 280,-427"/>
<text text-anchor="middle" x="342" y="-434" font-family="Helvetica,sans-Serif" font-size="10.00">Headers::IPv4::setSrcIP</text>
</a>
</g>
</g>
<!-- Node2&#45;&gt;Node8 -->
<g id="edge7" class="edge"><title>Node2&#45;&gt;Node8</title>
<path fill="none" stroke="midnightblue" d="M195.94,-344.693C210.318,-364.447 238.086,-398.647 270,-417.5 273.708,-419.69 277.672,-421.633 281.761,-423.356"/>
<polygon fill="midnightblue" stroke="midnightblue" points="280.872,-426.761 291.464,-426.99 283.327,-420.205 280.872,-426.761"/>
</g>
<!-- Node9 -->
<g id="node9" class="node"><title>Node9</title>
<g id="a_node9"><a xlink:href="classHelloBye2_1_1HelloBye2ClientConfig.html#a895576ff2ef1a3450ab21b4a14d53ca0" target="_top" xlink:title="HelloBye2::HelloBye2Client\lConfig::getSrcIP">
<polygon fill="none" stroke="black" points="273,-377.5 273,-407.5 411,-407.5 411,-377.5 273,-377.5"/>
<text text-anchor="start" x="281" y="-395.5" font-family="Helvetica,sans-Serif" font-size="10.00">HelloBye2::HelloBye2Client</text>
<text text-anchor="middle" x="342" y="-384.5" font-family="Helvetica,sans-Serif" font-size="10.00">Config::getSrcIP</text>
</a>
</g>
</g>
<!-- Node2&#45;&gt;Node9 -->
<g id="edge8" class="edge"><title>Node2&#45;&gt;Node9</title>
<path fill="none" stroke="midnightblue" d="M217.328,-344.576C233.048,-351.825 252.377,-360.449 270,-367.5 275.441,-369.677 281.154,-371.858 286.878,-373.976"/>
<polygon fill="midnightblue" stroke="midnightblue" points="285.879,-377.337 296.473,-377.467 288.272,-370.759 285.879,-377.337"/>
</g>
<!-- Node10 -->
<g id="node10" class="node"><title>Node10</title>
<g id="a_node10"><a xlink:href="structHeaders_1_1IPv4.html#a3de15b59ea6a3656f37c63e0c8d83df7" target="_top" xlink:title="Set the protocol to UDP. ">
<polygon fill="none" stroke="black" points="270,-339 270,-358 414,-358 414,-339 270,-339"/>
<text text-anchor="middle" x="342" y="-346" font-family="Helvetica,sans-Serif" font-size="10.00">Headers::IPv4::setProtoUDP</text>
</a>
</g>
</g>
<!-- Node2&#45;&gt;Node10 -->
<g id="edge9" class="edge"><title>Node2&#45;&gt;Node10</title>
<path fill="none" stroke="midnightblue" d="M234.275,-335.46C242.405,-336.453 251.028,-337.507 259.711,-338.568"/>
<polygon fill="midnightblue" stroke="midnightblue" points="259.554,-342.074 269.905,-339.813 260.403,-335.126 259.554,-342.074"/>
</g>
<!-- Node11 -->
<g id="node11" class="node"><title>Node11</title>
<g id="a_node11"><a xlink:href="structHeaders_1_1IPv4.html#acc4a8033c5da9c2ce147ee10e15d2a49" target="_top" xlink:title="Get the SDU. ">
<polygon fill="none" stroke="black" points="275,-301 275,-320 409,-320 409,-301 275,-301"/>
<text text-anchor="middle" x="342" y="-308" font-family="Helvetica,sans-Serif" font-size="10.00">Headers::IPv4::getPayload</text>
</a>
</g>
</g>
<!-- Node2&#45;&gt;Node11 -->
<g id="edge10" class="edge"><title>Node2&#45;&gt;Node11</title>
<path fill="none" stroke="midnightblue" d="M234.275,-323.54C243.894,-322.365 254.204,-321.105 264.485,-319.849"/>
<polygon fill="midnightblue" stroke="midnightblue" points="265.228,-323.284 274.73,-318.597 264.379,-316.336 265.228,-323.284"/>
</g>
<!-- Node12 -->
<g id="node12" class="node"><title>Node12</title>
<g id="a_node12"><a xlink:href="structHeaders_1_1Udp.html#a531f2e8247abf7807c50d806208b7cb1" target="_top" xlink:title="Get the SDU. ">
<polygon fill="none" stroke="black" points="276,-263 276,-282 408,-282 408,-263 276,-263"/>
<text text-anchor="middle" x="342" y="-270" font-family="Helvetica,sans-Serif" font-size="10.00">Headers::Udp::getPayload</text>
</a>
</g>
</g>
<!-- Node2&#45;&gt;Node12 -->
<g id="edge11" class="edge"><title>Node2&#45;&gt;Node12</title>
<path fill="none" stroke="midnightblue" d="M215.915,-314.389C231.784,-306.875 251.664,-298.028 270,-291.5 276.777,-289.087 284.012,-286.816 291.175,-284.74"/>
<polygon fill="midnightblue" stroke="midnightblue" points="292.16,-288.099 300.848,-282.037 290.275,-281.358 292.16,-288.099"/>
</g>
<!-- Node13 -->
<g id="node13" class="node"><title>Node13</title>
<g id="a_node13"><a xlink:href="structHelloBye2_1_1msg.html#a4176b99eaac8fa68d5e44531ad8eaba0" target="_top" xlink:title="HelloBye2::msg::msg">
<polygon fill="none" stroke="black" points="286.5,-225 286.5,-244 397.5,-244 397.5,-225 286.5,-225"/>
<text text-anchor="middle" x="342" y="-232" font-family="Helvetica,sans-Serif" font-size="10.00">HelloBye2::msg::msg</text>
</a>
</g>
</g>
<!-- Node2&#45;&gt;Node13 -->
<g id="edge12" class="edge"><title>Node2&#45;&gt;Node13</title>
<path fill="none" stroke="midnightblue" d="M198.261,-314.335C213.577,-297.096 240.862,-269.304 270,-253.5 274.196,-251.224 278.681,-249.208 283.282,-247.424"/>
<polygon fill="midnightblue" stroke="midnightblue" points="284.551,-250.688 292.832,-244.079 282.238,-244.081 284.551,-250.688"/>
</g>
<!-- Node14 -->
<g id="node14" class="node"><title>Node14</title>
<g id="a_node14"><a xlink:href="structHeaders_1_1Udp.html#ad7860fd7b0f369d39d55aef85a11045a" target="_top" xlink:title="Set the destination port. ">
<polygon fill="none" stroke="black" points="276.5,-187 276.5,-206 407.5,-206 407.5,-187 276.5,-187"/>
<text text-anchor="middle" x="342" y="-194" font-family="Helvetica,sans-Serif" font-size="10.00">Headers::Udp::setDstPort</text>
</a>
</g>
</g>
<!-- Node2&#45;&gt;Node14 -->
<g id="edge13" class="edge"><title>Node2&#45;&gt;Node14</title>
<path fill="none" stroke="midnightblue" d="M192.499,-314.37C204.671,-289.771 232.109,-241.268 270,-215.5 272.938,-213.502 276.077,-211.714 279.338,-210.114"/>
<polygon fill="midnightblue" stroke="midnightblue" points="280.962,-213.226 288.787,-206.083 278.216,-206.787 280.962,-213.226"/>
</g>
<!-- Node15 -->
<g id="node15" class="node"><title>Node15</title>
<g id="a_node15"><a xlink:href="classHelloBye2_1_1HelloBye2ClientConfig.html#a2aa72b4585c542f88d56ea011b4102cf" target="_top" xlink:title="HelloBye2::HelloBye2Client\lConfig::getDstPort">
<polygon fill="none" stroke="black" points="273,-137.5 273,-167.5 411,-167.5 411,-137.5 273,-137.5"/>
<text text-anchor="start" x="281" y="-155.5" font-family="Helvetica,sans-Serif" font-size="10.00">HelloBye2::HelloBye2Client</text>
<text text-anchor="middle" x="342" y="-144.5" font-family="Helvetica,sans-Serif" font-size="10.00">Config::getDstPort</text>
</a>
</g>
</g>
<!-- Node2&#45;&gt;Node15 -->
<g id="edge14" class="edge"><title>Node2&#45;&gt;Node15</title>
<path fill="none" stroke="midnightblue" d="M189.943,-314.19C199.53,-283.789 225.007,-215.473 270,-177.5 272.01,-175.804 274.142,-174.22 276.366,-172.741"/>
<polygon fill="midnightblue" stroke="midnightblue" points="278.434,-175.587 285.327,-167.542 274.921,-169.533 278.434,-175.587"/>
</g>
<!-- Node16 -->
<g id="node16" class="node"><title>Node16</title>
<g id="a_node16"><a xlink:href="structHeaders_1_1Udp.html#ab28d05a7270cf1537848db896588ca01" target="_top" xlink:title="Set the source port. ">
<polygon fill="none" stroke="black" points="277,-99 277,-118 407,-118 407,-99 277,-99"/>
<text text-anchor="middle" x="342" y="-106" font-family="Helvetica,sans-Serif" font-size="10.00">Headers::Udp::setSrcPort</text>
</a>
</g>
</g>
<!-- Node2&#45;&gt;Node16 -->
<g id="edge15" class="edge"><title>Node2&#45;&gt;Node16</title>
<path fill="none" stroke="midnightblue" d="M187.38,-314.319C192.833,-276.91 212.133,-179.634 270,-128.5 272.371,-126.405 274.945,-124.529 277.661,-122.847"/>
<polygon fill="midnightblue" stroke="midnightblue" points="279.494,-125.839 286.746,-118.115 276.26,-119.631 279.494,-125.839"/>
</g>
<!-- Node17 -->
<g id="node17" class="node"><title>Node17</title>
<g id="a_node17"><a xlink:href="structHeaders_1_1Udp.html#ac5397a534d246cfa93ac157eee3c565e" target="_top" xlink:title="Set the length of the L4&#45;SDU (UDP payload) ">
<polygon fill="none" stroke="black" points="276,-49.5 276,-79.5 408,-79.5 408,-49.5 276,-49.5"/>
<text text-anchor="start" x="284" y="-67.5" font-family="Helvetica,sans-Serif" font-size="10.00">Headers::Udp::setPayload</text>
<text text-anchor="middle" x="342" y="-56.5" font-family="Helvetica,sans-Serif" font-size="10.00">Length</text>
</a>
</g>
</g>
<!-- Node2&#45;&gt;Node17 -->
<g id="edge16" class="edge"><title>Node2&#45;&gt;Node17</title>
<path fill="none" stroke="midnightblue" d="M186.446,-314.204C189.853,-272.302 205.031,-154.471 270,-89.5 271.455,-88.0446 273,-86.6736 274.619,-85.3822"/>
<polygon fill="midnightblue" stroke="midnightblue" points="276.909,-88.0593 283.242,-79.5658 272.995,-82.2559 276.909,-88.0593"/>
</g>
<!-- Node18 -->
<g id="node18" class="node"><title>Node18</title>
<g id="a_node18"><a xlink:href="classStateMachine_1_1FunIface.html#af87038e844cd7e3e778252ef1c15ed28" target="_top" xlink:title="Transition to another state. ">
<polygon fill="none" stroke="black" points="281.5,-0.5 281.5,-30.5 402.5,-30.5 402.5,-0.5 281.5,-0.5"/>
<text text-anchor="start" x="289.5" y="-18.5" font-family="Helvetica,sans-Serif" font-size="10.00">StateMachine::FunIface</text>
<text text-anchor="middle" x="342" y="-7.5" font-family="Helvetica,sans-Serif" font-size="10.00">::transition</text>
</a>
</g>
</g>
<!-- Node2&#45;&gt;Node18 -->
<g id="edge17" class="edge"><title>Node2&#45;&gt;Node18</title>
<path fill="none" stroke="midnightblue" d="M185.373,-314.288C185.815,-267.036 193.606,-121.143 270,-40.5 271.382,-39.0414 272.854,-37.6677 274.4,-36.3742"/>
<polygon fill="midnightblue" stroke="midnightblue" points="276.512,-39.1675 282.677,-30.5509 272.485,-33.4424 276.512,-39.1675"/>
</g>
</g>
</svg>
