<?xml version="1.0" encoding="UTF-8" standalone="no"?>
<!DOCTYPE svg PUBLIC "-//W3C//DTD SVG 1.1//EN"
 "http://www.w3.org/Graphics/SVG/1.1/DTD/svg11.dtd">
<!-- Generated by graphviz version 2.40.1 (20161225.0304)
 -->
<!-- Title: HelloBye2::Server::Bye::fun Pages: 1 -->
<svg width="411pt" height="252pt"
 viewBox="0.00 0.00 411.00 252.00" xmlns="http://www.w3.org/2000/svg" xmlns:xlink="http://www.w3.org/1999/xlink">
<g id="graph0" class="graph" transform="scale(1 1) rotate(0) translate(4 248)">
<title>HelloBye2::Server::Bye::fun</title>
<!-- Node1 -->
<g id="node1" class="node">
<title>Node1</title>
<polygon fill="#bfbfbf" stroke="#000000" points="0,-112.5 0,-142.5 102,-142.5 102,-112.5 0,-112.5"/>
<text text-anchor="start" x="8" y="-130.5" font-family="Helvetica,sans-Serif" font-size="10.00" fill="#000000">HelloBye2::Server::</text>
<text text-anchor="middle" x="51" y="-119.5" font-family="Helvetica,sans-Serif" font-size="10.00" fill="#000000">Bye::fun</text>
</g>
<!-- Node2 -->
<g id="node2" class="node">
<title>Node2</title>
<g id="a_node2"><a xlink:href="structHeaders_1_1Ethernet.html#ad59e9fe1ec95b8e2ed11f97b44a20650" target="_top" xlink:title="Get the SDU. ">
<polygon fill="none" stroke="#000000" points="154,-213.5 154,-243.5 256,-243.5 256,-213.5 154,-213.5"/>
<text text-anchor="start" x="162" y="-231.5" font-family="Helvetica,sans-Serif" font-size="10.00" fill="#000000">Headers::Ethernet::</text>
<text text-anchor="middle" x="205" y="-220.5" font-family="Helvetica,sans-Serif" font-size="10.00" fill="#000000">getPayload</text>
</a>
</g>
</g>
<!-- Node1&#45;&gt;Node2 -->
<g id="edge1" class="edge">
<title>Node1&#45;&gt;Node2</title>
<path fill="none" stroke="#191970" d="M65.0947,-142.7542C81.312,-159.5577 109.4034,-186.4525 138,-203.5 141.3825,-205.5165 144.9554,-207.417 148.6196,-209.1995"/>
<polygon fill="#191970" stroke="#191970" points="147.306,-212.4467 157.8592,-213.3855 150.1948,-206.0706 147.306,-212.4467"/>
</g>
<!-- Node3 -->
<g id="node3" class="node">
<title>Node3</title>
<g id="a_node3"><a xlink:href="structHeaders_1_1IPv4.html#acc4a8033c5da9c2ce147ee10e15d2a49" target="_top" xlink:title="Get the SDU. ">
<polygon fill="none" stroke="#000000" points="138,-175 138,-194 272,-194 272,-175 138,-175"/>
<text text-anchor="middle" x="205" y="-182" font-family="Helvetica,sans-Serif" font-size="10.00" fill="#000000">Headers::IPv4::getPayload</text>
</a>
</g>
</g>
<!-- Node1&#45;&gt;Node3 -->
<g id="edge2" class="edge">
<title>Node1&#45;&gt;Node3</title>
<path fill="none" stroke="#191970" d="M82.8082,-142.6302C99.1008,-150.0618 119.3807,-158.8283 138,-165.5 144.4237,-167.8017 151.2714,-170.012 158.044,-172.0594"/>
<polygon fill="#191970" stroke="#191970" points="157.274,-175.4808 167.8547,-174.934 159.2423,-168.7633 157.274,-175.4808"/>
</g>
<!-- Node5 -->
<g id="node5" class="node">
<title>Node5</title>
<g id="a_node5"><a xlink:href="structHeaders_1_1Udp.html#a531f2e8247abf7807c50d806208b7cb1" target="_top" xlink:title="Get the SDU. ">
<polygon fill="none" stroke="#000000" points="139,-137 139,-156 271,-156 271,-137 139,-137"/>
<text text-anchor="middle" x="205" y="-144" font-family="Helvetica,sans-Serif" font-size="10.00" fill="#000000">Headers::Udp::getPayload</text>
</a>
</g>
</g>
<!-- Node1&#45;&gt;Node5 -->
<g id="edge4" class="edge">
<title>Node1&#45;&gt;Node5</title>
<path fill="none" stroke="#191970" d="M102.2798,-133.8267C110.7985,-134.8777 119.7917,-135.9873 128.7709,-137.0951"/>
<polygon fill="#191970" stroke="#191970" points="128.5234,-140.591 138.8768,-138.3419 129.3806,-133.6437 128.5234,-140.591"/>
</g>
<!-- Node6 -->
<g id="node6" class="node">
<title>Node6</title>
<g id="a_node6"><a xlink:href="structHelloBye2_1_1msg.html#a4176b99eaac8fa68d5e44531ad8eaba0" target="_top" xlink:title="HelloBye2::msg::msg">
<polygon fill="none" stroke="#000000" points="149.5,-99 149.5,-118 260.5,-118 260.5,-99 149.5,-99"/>
<text text-anchor="middle" x="205" y="-106" font-family="Helvetica,sans-Serif" font-size="10.00" fill="#000000">HelloBye2::msg::msg</text>
</a>
</g>
</g>
<!-- Node1&#45;&gt;Node6 -->
<g id="edge5" class="edge">
<title>Node1&#45;&gt;Node6</title>
<path fill="none" stroke="#191970" d="M102.2798,-121.1733C114.1056,-119.7142 126.8459,-118.1424 139.1937,-116.619"/>
<polygon fill="#191970" stroke="#191970" points="139.9488,-120.0524 149.445,-115.3542 139.0916,-113.1051 139.9488,-120.0524"/>
</g>
<!-- Node7 -->
<g id="node7" class="node">
<title>Node7</title>
<g id="a_node7"><a xlink:href="classStateMachine_1_1FunIface.html#af87038e844cd7e3e778252ef1c15ed28" target="_top" xlink:title="Transition to another state. ">
<polygon fill="none" stroke="#000000" points="144.5,-49.5 144.5,-79.5 265.5,-79.5 265.5,-49.5 144.5,-49.5"/>
<text text-anchor="start" x="152.5" y="-67.5" font-family="Helvetica,sans-Serif" font-size="10.00" fill="#000000">StateMachine::FunIface</text>
<text text-anchor="middle" x="205" y="-56.5" font-family="Helvetica,sans-Serif" font-size="10.00" fill="#000000">::transition</text>
</a>
</g>
</g>
<!-- Node1&#45;&gt;Node7 -->
<g id="edge6" class="edge">
<title>Node1&#45;&gt;Node7</title>
<path fill="none" stroke="#191970" d="M84.2831,-112.4539C100.4152,-105.2918 120.1237,-96.7328 138,-89.5 143.1071,-87.4336 148.4568,-85.3325 153.8116,-83.2707"/>
<polygon fill="#191970" stroke="#191970" points="155.3044,-86.4474 163.4042,-79.6179 152.8133,-79.9057 155.3044,-86.4474"/>
</g>
<!-- Node8 -->
<g id="node8" class="node">
<title>Node8</title>
<g id="a_node8"><a xlink:href="classStateMachine_1_1FunIface.html#a1985ec03a8173ed85b6ad89a449c5f16" target="_top" xlink:title="Free the packet after the batch is processed, do not send it. ">
<polygon fill="none" stroke="#000000" points="144.5,-.5 144.5,-30.5 265.5,-30.5 265.5,-.5 144.5,-.5"/>
<text text-anchor="start" x="152.5" y="-18.5" font-family="Helvetica,sans-Serif" font-size="10.00" fill="#000000">StateMachine::FunIface</text>
<text text-anchor="middle" x="205" y="-7.5" font-family="Helvetica,sans-Serif" font-size="10.00" fill="#000000">::freePkt</text>
</a>
</g>
</g>
<!-- Node1&#45;&gt;Node8 -->
<g id="edge7" class="edge">
<title>Node1&#45;&gt;Node8</title>
<path fill="none" stroke="#191970" d="M62.7025,-112.2954C78.1114,-93.1875 106.9139,-60.4808 138,-40.5 141.1071,-38.5029 144.3968,-36.6323 147.7849,-34.8859"/>
<polygon fill="#191970" stroke="#191970" points="149.3892,-37.9988 156.9247,-30.5511 146.3895,-31.674 149.3892,-37.9988"/>
</g>
<!-- Node4 -->
<g id="node4" class="node">
<title>Node4</title>
<g id="a_node4"><a xlink:href="structHeaders_1_1IPv4.html#ac6c5485ffca9cffaded18d2ad8d5985a" target="_top" xlink:title="Headers::IPv4::ihl">
<polygon fill="none" stroke="#000000" points="308,-175 308,-194 403,-194 403,-175 308,-175"/>
<text text-anchor="middle" x="355.5" y="-182" font-family="Helvetica,sans-Serif" font-size="10.00" fill="#000000">Headers::IPv4::ihl</text>
</a>
</g>
</g>
<!-- Node3&#45;&gt;Node4 -->
<g id="edge3" class="edge">
<title>Node3&#45;&gt;Node4</title>
<path fill="none" stroke="#191970" d="M272.3266,-184.5C280.6911,-184.5 289.1876,-184.5 297.3967,-184.5"/>
<polygon fill="#191970" stroke="#191970" points="297.6094,-188.0001 307.6094,-184.5 297.6094,-181.0001 297.6094,-188.0001"/>
</g>
</g>
</svg>
