<?xml version="1.0" encoding="UTF-8" standalone="no"?>
<!DOCTYPE svg PUBLIC "-//W3C//DTD SVG 1.1//EN"
 "http://www.w3.org/Graphics/SVG/1.1/DTD/svg11.dtd">
<!-- Generated by graphviz version 2.40.1 (20161225.0304)
 -->
<!-- Title: HelloBye::HelloByeServerBye::fun Pages: 1 -->
<svg width="440pt" height="165pt"
 viewBox="0.00 0.00 440.00 165.00" xmlns="http://www.w3.org/2000/svg" xmlns:xlink="http://www.w3.org/1999/xlink">
<g id="graph0" class="graph" transform="scale(1 1) rotate(0) translate(4 161)">
<title>HelloBye::HelloByeServerBye::fun</title>
<!-- Node1 -->
<g id="node1" class="node">
<title>Node1</title>
<polygon fill="#bfbfbf" stroke="#000000" points="0,-63.5 0,-93.5 131,-93.5 131,-63.5 0,-63.5"/>
<text text-anchor="start" x="8" y="-81.5" font-family="Helvetica,sans-Serif" font-size="10.00" fill="#000000">HelloBye::HelloByeServer</text>
<text text-anchor="middle" x="65.5" y="-70.5" font-family="Helvetica,sans-Serif" font-size="10.00" fill="#000000">Bye::fun</text>
</g>
<!-- Node2 -->
<g id="node2" class="node">
<title>Node2</title>
<g id="a_node2"><a xlink:href="structHeaders_1_1Ethernet.html#ad59e9fe1ec95b8e2ed11f97b44a20650" target="_top" xlink:title="Get the SDU. ">
<polygon fill="none" stroke="#000000" points="183,-126.5 183,-156.5 285,-156.5 285,-126.5 183,-126.5"/>
<text text-anchor="start" x="191" y="-144.5" font-family="Helvetica,sans-Serif" font-size="10.00" fill="#000000">Headers::Ethernet::</text>
<text text-anchor="middle" x="234" y="-133.5" font-family="Helvetica,sans-Serif" font-size="10.00" fill="#000000">getPayload</text>
</a>
</g>
</g>
<!-- Node1&#45;&gt;Node2 -->
<g id="edge1" class="edge">
<title>Node1&#45;&gt;Node2</title>
<path fill="none" stroke="#191970" d="M105.9967,-93.6729C124.5819,-100.6333 146.9073,-108.9902 167,-116.5 172.5131,-118.5606 178.282,-120.7153 184.0228,-122.8586"/>
<polygon fill="#191970" stroke="#191970" points="183.0149,-126.2183 193.6075,-126.4363 185.4629,-119.6602 183.0149,-126.2183"/>
</g>
<!-- Node3 -->
<g id="node3" class="node">
<title>Node3</title>
<g id="a_node3"><a xlink:href="structHeaders_1_1IPv4.html#acc4a8033c5da9c2ce147ee10e15d2a49" target="_top" xlink:title="Get the SDU. ">
<polygon fill="none" stroke="#000000" points="167,-88 167,-107 301,-107 301,-88 167,-88"/>
<text text-anchor="middle" x="234" y="-95" font-family="Helvetica,sans-Serif" font-size="10.00" fill="#000000">Headers::IPv4::getPayload</text>
</a>
</g>
</g>
<!-- Node1&#45;&gt;Node3 -->
<g id="edge2" class="edge">
<title>Node1&#45;&gt;Node3</title>
<path fill="none" stroke="#191970" d="M131.129,-85.9003C139.5639,-86.8514 148.261,-87.8321 156.8587,-88.8016"/>
<polygon fill="#191970" stroke="#191970" points="156.555,-92.2894 166.8842,-89.932 157.3394,-85.3335 156.555,-92.2894"/>
</g>
<!-- Node5 -->
<g id="node5" class="node">
<title>Node5</title>
<g id="a_node5"><a xlink:href="structHeaders_1_1Udp.html#a531f2e8247abf7807c50d806208b7cb1" target="_top" xlink:title="Get the SDU. ">
<polygon fill="none" stroke="#000000" points="168,-50 168,-69 300,-69 300,-50 168,-50"/>
<text text-anchor="middle" x="234" y="-57" font-family="Helvetica,sans-Serif" font-size="10.00" fill="#000000">Headers::Udp::getPayload</text>
</a>
</g>
</g>
<!-- Node1&#45;&gt;Node5 -->
<g id="edge4" class="edge">
<title>Node1&#45;&gt;Node5</title>
<path fill="none" stroke="#191970" d="M131.129,-71.0997C139.9242,-70.108 149.0044,-69.0841 157.9597,-68.0743"/>
<polygon fill="#191970" stroke="#191970" points="158.4507,-71.5412 167.9956,-66.9426 157.6663,-64.5853 158.4507,-71.5412"/>
</g>
<!-- Node6 -->
<g id="node6" class="node">
<title>Node6</title>
<g id="a_node6"><a xlink:href="classStateMachine_1_1FunIface.html#af87038e844cd7e3e778252ef1c15ed28" target="_top" xlink:title="Transition to another state. ">
<polygon fill="none" stroke="#000000" points="173.5,-.5 173.5,-30.5 294.5,-30.5 294.5,-.5 173.5,-.5"/>
<text text-anchor="start" x="181.5" y="-18.5" font-family="Helvetica,sans-Serif" font-size="10.00" fill="#000000">StateMachine::FunIface</text>
<text text-anchor="middle" x="234" y="-7.5" font-family="Helvetica,sans-Serif" font-size="10.00" fill="#000000">::transition</text>
</a>
</g>
</g>
<!-- Node1&#45;&gt;Node6 -->
<g id="edge5" class="edge">
<title>Node1&#45;&gt;Node6</title>
<path fill="none" stroke="#191970" d="M105.9967,-63.3271C124.5819,-56.3667 146.9073,-48.0098 167,-40.5 172.5131,-38.4394 178.282,-36.2847 184.0228,-34.1414"/>
<polygon fill="#191970" stroke="#191970" points="185.4629,-37.3398 193.6075,-30.5637 183.0149,-30.7817 185.4629,-37.3398"/>
</g>
<!-- Node4 -->
<g id="node4" class="node">
<title>Node4</title>
<g id="a_node4"><a xlink:href="structHeaders_1_1IPv4.html#ac6c5485ffca9cffaded18d2ad8d5985a" target="_top" xlink:title="Headers::IPv4::ihl">
<polygon fill="none" stroke="#000000" points="337,-88 337,-107 432,-107 432,-88 337,-88"/>
<text text-anchor="middle" x="384.5" y="-95" font-family="Helvetica,sans-Serif" font-size="10.00" fill="#000000">Headers::IPv4::ihl</text>
</a>
</g>
</g>
<!-- Node3&#45;&gt;Node4 -->
<g id="edge3" class="edge">
<title>Node3&#45;&gt;Node4</title>
<path fill="none" stroke="#191970" d="M301.3266,-97.5C309.6911,-97.5 318.1876,-97.5 326.3967,-97.5"/>
<polygon fill="#191970" stroke="#191970" points="326.6094,-101.0001 336.6094,-97.5 326.6094,-94.0001 326.6094,-101.0001"/>
</g>
</g>
</svg>
