<?xml version="1.0" encoding="UTF-8" standalone="no"?>
<!DOCTYPE svg PUBLIC "-//W3C//DTD SVG 1.1//EN"
 "http://www.w3.org/Graphics/SVG/1.1/DTD/svg11.dtd">
<!-- Generated by graphviz version 2.38.0 (20140413.2041)
 -->
<!-- Title: BufArray::getFreeBufs Pages: 1 -->
<svg width="437pt" height="28pt"
 viewBox="0.00 0.00 437.00 28.00" xmlns="http://www.w3.org/2000/svg" xmlns:xlink="http://www.w3.org/1999/xlink">
<g id="graph0" class="graph" transform="scale(1 1) rotate(0) translate(4 24)">
<title>BufArray::getFreeBufs</title>
<!-- Node1 -->
<g id="node1" class="node"><title>Node1</title>
<polygon fill="#bfbfbf" stroke="black" points="0,-0.5 0,-19.5 114,-19.5 114,-0.5 0,-0.5"/>
<text text-anchor="middle" x="57" y="-7.5" font-family="Helvetica,sans-Serif" font-size="10.00">BufArray::getFreeBufs</text>
</g>
<!-- Node2 -->
<g id="node2" class="node"><title>Node2</title>
<g id="a_node2"><a xlink:href="classBufArray.html#a5b533f3c7add88f873d41e841fc55136" target="_top" xlink:title="Get the number of packets currently marked as free. ">
<polygon fill="none" stroke="black" points="150,-0.5 150,-19.5 270,-19.5 270,-0.5 150,-0.5"/>
<text text-anchor="middle" x="210" y="-7.5" font-family="Helvetica,sans-Serif" font-size="10.00">BufArray::getFreeCount</text>
</a>
</g>
</g>
<!-- Node1&#45;&gt;Node2 -->
<g id="edge1" class="edge"><title>Node1&#45;&gt;Node2</title>
<path fill="none" stroke="midnightblue" d="M114.227,-10C122.604,-10 131.32,-10 139.925,-10"/>
<polygon fill="midnightblue" stroke="midnightblue" points="139.947,-13.5001 149.947,-10 139.947,-6.5001 139.947,-13.5001"/>
</g>
<!-- Node3 -->
<g id="node3" class="node"><title>Node3</title>
<g id="a_node3"><a xlink:href="classBufArray.html#a7570e31b14ed3d44f5b60b3a9e8afee5" target="_top" xlink:title="Get the number of packets currently marked as send. ">
<polygon fill="none" stroke="black" points="306,-0.5 306,-19.5 429,-19.5 429,-0.5 306,-0.5"/>
<text text-anchor="middle" x="367.5" y="-7.5" font-family="Helvetica,sans-Serif" font-size="10.00">BufArray::getSendCount</text>
</a>
</g>
</g>
<!-- Node2&#45;&gt;Node3 -->
<g id="edge2" class="edge"><title>Node2&#45;&gt;Node3</title>
<path fill="none" stroke="midnightblue" d="M270.231,-10C278.53,-10 287.127,-10 295.615,-10"/>
<polygon fill="midnightblue" stroke="midnightblue" points="295.886,-13.5001 305.886,-10 295.886,-6.5001 295.886,-13.5001"/>
</g>
</g>
</svg>
