<?xml version="1.0" encoding="UTF-8" standalone="no"?>
<!DOCTYPE svg PUBLIC "-//W3C//DTD SVG 1.1//EN"
 "http://www.w3.org/Graphics/SVG/1.1/DTD/svg11.dtd">
<!-- Generated by graphviz version 2.40.1 (20161225.0304)
 -->
<!-- Title: HelloBye3MemPool::Identifier::identify Pages: 1 -->
<svg width="455pt" height="165pt"
 viewBox="0.00 0.00 455.00 164.50" xmlns="http://www.w3.org/2000/svg" xmlns:xlink="http://www.w3.org/1999/xlink">
<g id="graph0" class="graph" transform="scale(1 1) rotate(0) translate(4 160.5)">
<title>HelloBye3MemPool::Identifier::identify</title>
<!-- Node0 -->
<g id="node1" class="node">
<title>Node0</title>
<polygon fill="#bfbfbf" stroke="#000000" points="0,-55 0,-85 146,-85 146,-55 0,-55"/>
<text text-anchor="start" x="8" y="-73" font-family="Helvetica,sans-Serif" font-size="10.00" fill="#000000">HelloBye3MemPool::Identifier</text>
<text text-anchor="middle" x="73" y="-62" font-family="Helvetica,sans-Serif" font-size="10.00" fill="#000000">::identify</text>
</g>
<!-- Node1 -->
<g id="node2" class="node">
<title>Node1</title>
<g id="a_node2"><a xlink:href="structHeaders_1_1Ethernet.html#a8bcb704a54b71a667195d73accd465be" target="_top" xlink:title="Get the ethertype. ">
<polygon fill="none" stroke="#000000" points="198,-126 198,-156 300,-156 300,-126 198,-126"/>
<text text-anchor="start" x="206" y="-144" font-family="Helvetica,sans-Serif" font-size="10.00" fill="#000000">Headers::Ethernet::</text>
<text text-anchor="middle" x="249" y="-133" font-family="Helvetica,sans-Serif" font-size="10.00" fill="#000000">getEthertype</text>
</a>
</g>
</g>
<!-- Node0&#45;&gt;Node1 -->
<g id="edge1" class="edge">
<title>Node0&#45;&gt;Node1</title>
<path fill="none" stroke="#191970" d="M106.6493,-85.1618C128.0772,-94.6541 156.5016,-106.9473 182,-117 186.5045,-118.7759 191.1998,-120.5704 195.9221,-122.3363"/>
<polygon fill="#191970" stroke="#191970" points="195.0071,-125.7293 205.6005,-125.9057 197.4293,-119.1617 195.0071,-125.7293"/>
</g>
<!-- Node2 -->
<g id="node3" class="node">
<title>Node2</title>
<g id="a_node3"><a xlink:href="structHeaders_1_1Ethernet.html#ad59e9fe1ec95b8e2ed11f97b44a20650" target="_top" xlink:title="Get the SDU. ">
<polygon fill="none" stroke="#000000" points="198,-77 198,-107 300,-107 300,-77 198,-77"/>
<text text-anchor="start" x="206" y="-95" font-family="Helvetica,sans-Serif" font-size="10.00" fill="#000000">Headers::Ethernet::</text>
<text text-anchor="middle" x="249" y="-84" font-family="Helvetica,sans-Serif" font-size="10.00" fill="#000000">getPayload</text>
</a>
</g>
</g>
<!-- Node0&#45;&gt;Node2 -->
<g id="edge2" class="edge">
<title>Node0&#45;&gt;Node2</title>
<path fill="none" stroke="#191970" d="M146.1108,-79.1389C159.9588,-80.8699 174.3134,-82.6642 187.7488,-84.3436"/>
<polygon fill="#191970" stroke="#191970" points="187.4632,-87.8351 197.8201,-85.6025 188.3315,-80.8891 187.4632,-87.8351"/>
</g>
<!-- Node3 -->
<g id="node4" class="node">
<title>Node3</title>
<g id="a_node4"><a xlink:href="structHeaders_1_1IPv4.html#acc4a8033c5da9c2ce147ee10e15d2a49" target="_top" xlink:title="Get the SDU. ">
<polygon fill="none" stroke="#000000" points="182,-38.5 182,-57.5 316,-57.5 316,-38.5 182,-38.5"/>
<text text-anchor="middle" x="249" y="-45.5" font-family="Helvetica,sans-Serif" font-size="10.00" fill="#000000">Headers::IPv4::getPayload</text>
</a>
</g>
</g>
<!-- Node0&#45;&gt;Node3 -->
<g id="edge3" class="edge">
<title>Node0&#45;&gt;Node3</title>
<path fill="none" stroke="#191970" d="M146.1108,-60.8611C154.5961,-59.8005 163.2716,-58.716 171.8093,-57.6488"/>
<polygon fill="#191970" stroke="#191970" points="172.2602,-61.1198 181.7488,-56.4064 171.3919,-54.1739 172.2602,-61.1198"/>
</g>
<!-- Node5 -->
<g id="node6" class="node">
<title>Node5</title>
<g id="a_node6"><a xlink:href="structHeaders_1_1Udp.html#a531f2e8247abf7807c50d806208b7cb1" target="_top" xlink:title="Get the SDU. ">
<polygon fill="none" stroke="#000000" points="183,-.5 183,-19.5 315,-19.5 315,-.5 183,-.5"/>
<text text-anchor="middle" x="249" y="-7.5" font-family="Helvetica,sans-Serif" font-size="10.00" fill="#000000">Headers::Udp::getPayload</text>
</a>
</g>
</g>
<!-- Node0&#45;&gt;Node5 -->
<g id="edge5" class="edge">
<title>Node0&#45;&gt;Node5</title>
<path fill="none" stroke="#191970" d="M110.558,-54.9879C131.4447,-46.8635 157.9949,-36.9031 182,-29 188.948,-26.7125 196.3539,-24.4451 203.6134,-22.316"/>
<polygon fill="#191970" stroke="#191970" points="204.7232,-25.6387 213.3651,-19.5094 202.7871,-18.9118 204.7232,-25.6387"/>
</g>
<!-- Node4 -->
<g id="node5" class="node">
<title>Node4</title>
<g id="a_node5"><a xlink:href="structHeaders_1_1IPv4.html#ac6c5485ffca9cffaded18d2ad8d5985a" target="_top" xlink:title="Headers::IPv4::ihl">
<polygon fill="none" stroke="#000000" points="352,-38.5 352,-57.5 447,-57.5 447,-38.5 352,-38.5"/>
<text text-anchor="middle" x="399.5" y="-45.5" font-family="Helvetica,sans-Serif" font-size="10.00" fill="#000000">Headers::IPv4::ihl</text>
</a>
</g>
</g>
<!-- Node3&#45;&gt;Node4 -->
<g id="edge4" class="edge">
<title>Node3&#45;&gt;Node4</title>
<path fill="none" stroke="#191970" d="M316.3266,-48C324.6911,-48 333.1876,-48 341.3967,-48"/>
<polygon fill="#191970" stroke="#191970" points="341.6094,-51.5001 351.6094,-48 341.6094,-44.5001 341.6094,-51.5001"/>
</g>
</g>
</svg>
