<?xml version="1.0" encoding="UTF-8" standalone="no"?>
<!DOCTYPE svg PUBLIC "-//W3C//DTD SVG 1.1//EN"
 "http://www.w3.org/Graphics/SVG/1.1/DTD/svg11.dtd">
<!-- Generated by graphviz version 2.38.0 (20140413.2041)
 -->
<!-- Title: HelloBye2::Identifier::identify Pages: 1 -->
<svg width="283pt" height="165pt"
 viewBox="0.00 0.00 283.00 164.50" xmlns="http://www.w3.org/2000/svg" xmlns:xlink="http://www.w3.org/1999/xlink">
<g id="graph0" class="graph" transform="scale(1 1) rotate(0) translate(4 160.5)">
<title>HelloBye2::Identifier::identify</title>
<!-- Node1 -->
<g id="node1" class="node"><title>Node1</title>
<polygon fill="#bfbfbf" stroke="black" points="0,-55 0,-85 105,-85 105,-55 0,-55"/>
<text text-anchor="start" x="8" y="-73" font-family="Helvetica,sans-Serif" font-size="10.00">HelloBye2::Identifier</text>
<text text-anchor="middle" x="52.5" y="-62" font-family="Helvetica,sans-Serif" font-size="10.00">::identify</text>
</g>
<!-- Node2 -->
<g id="node2" class="node"><title>Node2</title>
<g id="a_node2"><a xlink:href="structHeaders_1_1Ethernet.html#a8bcb704a54b71a667195d73accd465be" target="_top" xlink:title="Get the ethertype. ">
<polygon fill="none" stroke="black" points="157,-126 157,-156 259,-156 259,-126 157,-126"/>
<text text-anchor="start" x="165" y="-144" font-family="Helvetica,sans-Serif" font-size="10.00">Headers::Ethernet::</text>
<text text-anchor="middle" x="208" y="-133" font-family="Helvetica,sans-Serif" font-size="10.00">getEthertype</text>
</a>
</g>
</g>
<!-- Node1&#45;&gt;Node2 -->
<g id="edge1" class="edge"><title>Node1&#45;&gt;Node2</title>
<path fill="none" stroke="midnightblue" d="M79.4242,-85.2003C96.5812,-94.9396 119.752,-107.49 141,-117 145.053,-118.814 149.289,-120.598 153.574,-122.323"/>
<polygon fill="midnightblue" stroke="midnightblue" points="152.39,-125.619 162.979,-125.996 154.937,-119.098 152.39,-125.619"/>
</g>
<!-- Node3 -->
<g id="node3" class="node"><title>Node3</title>
<g id="a_node3"><a xlink:href="structHeaders_1_1Ethernet.html#ad59e9fe1ec95b8e2ed11f97b44a20650" target="_top" xlink:title="Get the SDU. ">
<polygon fill="none" stroke="black" points="157,-77 157,-107 259,-107 259,-77 157,-77"/>
<text text-anchor="start" x="165" y="-95" font-family="Helvetica,sans-Serif" font-size="10.00">Headers::Ethernet::</text>
<text text-anchor="middle" x="208" y="-84" font-family="Helvetica,sans-Serif" font-size="10.00">getPayload</text>
</a>
</g>
</g>
<!-- Node1&#45;&gt;Node3 -->
<g id="edge2" class="edge"><title>Node1&#45;&gt;Node3</title>
<path fill="none" stroke="midnightblue" d="M105.04,-77.3869C118.497,-79.3155 133.116,-81.4108 146.971,-83.3966"/>
<polygon fill="midnightblue" stroke="midnightblue" points="146.502,-86.865 156.898,-84.8192 147.495,-79.9358 146.502,-86.865"/>
</g>
<!-- Node4 -->
<g id="node4" class="node"><title>Node4</title>
<g id="a_node4"><a xlink:href="structHeaders_1_1IPv4.html#acc4a8033c5da9c2ce147ee10e15d2a49" target="_top" xlink:title="Get the SDU. ">
<polygon fill="none" stroke="black" points="141,-38.5 141,-57.5 275,-57.5 275,-38.5 141,-38.5"/>
<text text-anchor="middle" x="208" y="-45.5" font-family="Helvetica,sans-Serif" font-size="10.00">Headers::IPv4::getPayload</text>
</a>
</g>
</g>
<!-- Node1&#45;&gt;Node4 -->
<g id="edge3" class="edge"><title>Node1&#45;&gt;Node4</title>
<path fill="none" stroke="midnightblue" d="M105.04,-62.6131C113.304,-61.4288 122.005,-60.1816 130.7,-58.9356"/>
<polygon fill="midnightblue" stroke="midnightblue" points="131.473,-62.3605 140.876,-57.4771 130.48,-55.4313 131.473,-62.3605"/>
</g>
<!-- Node5 -->
<g id="node5" class="node"><title>Node5</title>
<g id="a_node5"><a xlink:href="structHeaders_1_1Udp.html#a531f2e8247abf7807c50d806208b7cb1" target="_top" xlink:title="Get the SDU. ">
<polygon fill="none" stroke="black" points="142,-0.5 142,-19.5 274,-19.5 274,-0.5 142,-0.5"/>
<text text-anchor="middle" x="208" y="-7.5" font-family="Helvetica,sans-Serif" font-size="10.00">Headers::Udp::getPayload</text>
</a>
</g>
</g>
<!-- Node1&#45;&gt;Node5 -->
<g id="edge4" class="edge"><title>Node1&#45;&gt;Node5</title>
<path fill="none" stroke="midnightblue" d="M82.569,-54.9656C99.3643,-46.6393 121.055,-36.4903 141,-29 147.08,-26.7167 153.561,-24.5449 159.996,-22.5405"/>
<polygon fill="midnightblue" stroke="midnightblue" points="161.436,-25.7628 170.008,-19.5365 159.424,-19.0581 161.436,-25.7628"/>
</g>
</g>
</svg>
