<?xml version="1.0" encoding="UTF-8" standalone="no"?>
<!DOCTYPE svg PUBLIC "-//W3C//DTD SVG 1.1//EN"
 "http://www.w3.org/Graphics/SVG/1.1/DTD/svg11.dtd">
<!-- Generated by graphviz version 2.40.1 (20161225.0304)
 -->
<!-- Title: HelloBye2::Client::RecvBye::fun Pages: 1 -->
<svg width="408pt" height="252pt"
 viewBox="0.00 0.00 408.00 252.00" xmlns="http://www.w3.org/2000/svg" xmlns:xlink="http://www.w3.org/1999/xlink">
<g id="graph0" class="graph" transform="scale(1 1) rotate(0) translate(4 248)">
<title>HelloBye2::Client::RecvBye::fun</title>
<!-- Node1 -->
<g id="node1" class="node">
<title>Node1</title>
<polygon fill="#bfbfbf" stroke="#000000" points="0,-112.5 0,-142.5 99,-142.5 99,-112.5 0,-112.5"/>
<text text-anchor="start" x="8" y="-130.5" font-family="Helvetica,sans-Serif" font-size="10.00" fill="#000000">HelloBye2::Client::</text>
<text text-anchor="middle" x="49.5" y="-119.5" font-family="Helvetica,sans-Serif" font-size="10.00" fill="#000000">RecvBye::fun</text>
</g>
<!-- Node2 -->
<g id="node2" class="node">
<title>Node2</title>
<g id="a_node2"><a xlink:href="structHeaders_1_1Ethernet.html#ad59e9fe1ec95b8e2ed11f97b44a20650" target="_top" xlink:title="Get the SDU. ">
<polygon fill="none" stroke="#000000" points="151,-213.5 151,-243.5 253,-243.5 253,-213.5 151,-213.5"/>
<text text-anchor="start" x="159" y="-231.5" font-family="Helvetica,sans-Serif" font-size="10.00" fill="#000000">Headers::Ethernet::</text>
<text text-anchor="middle" x="202" y="-220.5" font-family="Helvetica,sans-Serif" font-size="10.00" fill="#000000">getPayload</text>
</a>
</g>
</g>
<!-- Node1&#45;&gt;Node2 -->
<g id="edge1" class="edge">
<title>Node1&#45;&gt;Node2</title>
<path fill="none" stroke="#191970" d="M63.2993,-142.7706C79.19,-159.5887 106.7551,-186.4966 135,-203.5 138.3738,-205.531 141.9401,-207.4426 145.5995,-209.233"/>
<polygon fill="#191970" stroke="#191970" points="144.2789,-212.4774 154.8305,-213.4333 147.1781,-206.1059 144.2789,-212.4774"/>
</g>
<!-- Node3 -->
<g id="node3" class="node">
<title>Node3</title>
<g id="a_node3"><a xlink:href="structHeaders_1_1IPv4.html#acc4a8033c5da9c2ce147ee10e15d2a49" target="_top" xlink:title="Get the SDU. ">
<polygon fill="none" stroke="#000000" points="135,-175 135,-194 269,-194 269,-175 135,-175"/>
<text text-anchor="middle" x="202" y="-182" font-family="Helvetica,sans-Serif" font-size="10.00" fill="#000000">Headers::IPv4::getPayload</text>
</a>
</g>
</g>
<!-- Node1&#45;&gt;Node3 -->
<g id="edge2" class="edge">
<title>Node1&#45;&gt;Node3</title>
<path fill="none" stroke="#191970" d="M80.7339,-142.662C96.7389,-150.1017 116.6711,-158.866 135,-165.5 141.4163,-167.8223 148.2599,-170.0442 155.0305,-172.0969"/>
<polygon fill="#191970" stroke="#191970" points="154.2588,-175.518 164.8398,-174.9755 156.2299,-168.8012 154.2588,-175.518"/>
</g>
<!-- Node5 -->
<g id="node5" class="node">
<title>Node5</title>
<g id="a_node5"><a xlink:href="structHeaders_1_1Udp.html#a531f2e8247abf7807c50d806208b7cb1" target="_top" xlink:title="Get the SDU. ">
<polygon fill="none" stroke="#000000" points="136,-137 136,-156 268,-156 268,-137 136,-137"/>
<text text-anchor="middle" x="202" y="-144" font-family="Helvetica,sans-Serif" font-size="10.00" fill="#000000">Headers::Udp::getPayload</text>
</a>
</g>
</g>
<!-- Node1&#45;&gt;Node5 -->
<g id="edge4" class="edge">
<title>Node1&#45;&gt;Node5</title>
<path fill="none" stroke="#191970" d="M99.0124,-133.6688C107.543,-134.7316 116.5848,-135.8581 125.6289,-136.9849"/>
<polygon fill="#191970" stroke="#191970" points="125.4578,-140.4906 135.8138,-138.2539 126.3233,-133.5443 125.4578,-140.4906"/>
</g>
<!-- Node6 -->
<g id="node6" class="node">
<title>Node6</title>
<g id="a_node6"><a xlink:href="structHelloBye2_1_1msg.html#a4176b99eaac8fa68d5e44531ad8eaba0" target="_top" xlink:title="HelloBye2::msg::msg">
<polygon fill="none" stroke="#000000" points="146.5,-99 146.5,-118 257.5,-118 257.5,-99 146.5,-99"/>
<text text-anchor="middle" x="202" y="-106" font-family="Helvetica,sans-Serif" font-size="10.00" fill="#000000">HelloBye2::msg::msg</text>
</a>
</g>
</g>
<!-- Node1&#45;&gt;Node6 -->
<g id="edge5" class="edge">
<title>Node1&#45;&gt;Node6</title>
<path fill="none" stroke="#191970" d="M99.0124,-121.3312C110.9532,-119.8435 123.8957,-118.231 136.4439,-116.6676"/>
<polygon fill="#191970" stroke="#191970" points="136.9057,-120.1373 146.3962,-115.4277 136.0402,-113.191 136.9057,-120.1373"/>
</g>
<!-- Node7 -->
<g id="node7" class="node">
<title>Node7</title>
<g id="a_node7"><a xlink:href="classStateMachine_1_1FunIface.html#af87038e844cd7e3e778252ef1c15ed28" target="_top" xlink:title="Transition to another state. ">
<polygon fill="none" stroke="#000000" points="141.5,-49.5 141.5,-79.5 262.5,-79.5 262.5,-49.5 141.5,-49.5"/>
<text text-anchor="start" x="149.5" y="-67.5" font-family="Helvetica,sans-Serif" font-size="10.00" fill="#000000">StateMachine::FunIface</text>
<text text-anchor="middle" x="202" y="-56.5" font-family="Helvetica,sans-Serif" font-size="10.00" fill="#000000">::transition</text>
</a>
</g>
</g>
<!-- Node1&#45;&gt;Node7 -->
<g id="edge6" class="edge">
<title>Node1&#45;&gt;Node7</title>
<path fill="none" stroke="#191970" d="M82.1855,-112.4113C98.0341,-105.2395 117.4052,-96.6847 135,-89.5 140.1004,-87.4173 145.4458,-85.3054 150.7979,-83.2371"/>
<polygon fill="#191970" stroke="#191970" points="152.293,-86.4128 160.3875,-79.5769 149.7968,-79.8729 152.293,-86.4128"/>
</g>
<!-- Node8 -->
<g id="node8" class="node">
<title>Node8</title>
<g id="a_node8"><a xlink:href="classStateMachine_1_1FunIface.html#a1985ec03a8173ed85b6ad89a449c5f16" target="_top" xlink:title="Free the packet after the batch is processed, do not send it. ">
<polygon fill="none" stroke="#000000" points="141.5,-.5 141.5,-30.5 262.5,-30.5 262.5,-.5 141.5,-.5"/>
<text text-anchor="start" x="149.5" y="-18.5" font-family="Helvetica,sans-Serif" font-size="10.00" fill="#000000">StateMachine::FunIface</text>
<text text-anchor="middle" x="202" y="-7.5" font-family="Helvetica,sans-Serif" font-size="10.00" fill="#000000">::freePkt</text>
</a>
</g>
</g>
<!-- Node1&#45;&gt;Node8 -->
<g id="edge7" class="edge">
<title>Node1&#45;&gt;Node8</title>
<path fill="none" stroke="#191970" d="M60.9431,-112.2835C76.0255,-93.163 104.2672,-60.4431 135,-40.5 138.0984,-38.4894 141.3814,-36.6085 144.7645,-34.8543"/>
<polygon fill="#191970" stroke="#191970" points="146.3721,-37.9653 153.8946,-30.5046 143.3614,-31.6458 146.3721,-37.9653"/>
</g>
<!-- Node4 -->
<g id="node4" class="node">
<title>Node4</title>
<g id="a_node4"><a xlink:href="structHeaders_1_1IPv4.html#ac6c5485ffca9cffaded18d2ad8d5985a" target="_top" xlink:title="Headers::IPv4::ihl">
<polygon fill="none" stroke="#000000" points="305,-175 305,-194 400,-194 400,-175 305,-175"/>
<text text-anchor="middle" x="352.5" y="-182" font-family="Helvetica,sans-Serif" font-size="10.00" fill="#000000">Headers::IPv4::ihl</text>
</a>
</g>
</g>
<!-- Node3&#45;&gt;Node4 -->
<g id="edge3" class="edge">
<title>Node3&#45;&gt;Node4</title>
<path fill="none" stroke="#191970" d="M269.3266,-184.5C277.6911,-184.5 286.1876,-184.5 294.3967,-184.5"/>
<polygon fill="#191970" stroke="#191970" points="294.6094,-188.0001 304.6094,-184.5 294.6094,-181.0001 294.6094,-188.0001"/>
</g>
</g>
</svg>
