<?xml version="1.0" encoding="UTF-8" standalone="no"?>
<!DOCTYPE svg PUBLIC "-//W3C//DTD SVG 1.1//EN"
 "http://www.w3.org/Graphics/SVG/1.1/DTD/svg11.dtd">
<!-- Generated by graphviz version 2.38.0 (20140413.2041)
 -->
<!-- Title: StateMachine::Timeout::Compare::operator() Pages: 1 -->
<svg width="461pt" height="154pt"
 viewBox="0.00 0.00 461.00 153.50" xmlns="http://www.w3.org/2000/svg" xmlns:xlink="http://www.w3.org/1999/xlink">
<g id="graph0" class="graph" transform="scale(1 1) rotate(0) translate(4 149.5)">
<title>StateMachine::Timeout::Compare::operator()</title>
<!-- Node1 -->
<g id="node1" class="node"><title>Node1</title>
<polygon fill="#bfbfbf" stroke="black" points="0,-52 0,-82 118,-82 118,-52 0,-52"/>
<text text-anchor="start" x="8" y="-70" font-family="Helvetica,sans-Serif" font-size="10.00">StateMachine::Timeout</text>
<text text-anchor="middle" x="59" y="-59" font-family="Helvetica,sans-Serif" font-size="10.00">::Compare::operator()</text>
</g>
<!-- Node2 -->
<g id="node2" class="node"><title>Node2</title>
<g id="a_node2"><a xlink:href="classStateMachine_1_1ConnectionPool.html#af0f657f2389a850365252b13302960e9" target="_top" xlink:title="Try to find a state for a given connection ID. ">
<polygon fill="none" stroke="black" points="157,-115 157,-145 289,-145 289,-115 157,-115"/>
<text text-anchor="start" x="165" y="-133" font-family="Helvetica,sans-Serif" font-size="10.00">StateMachine::Connection</text>
<text text-anchor="middle" x="223" y="-122" font-family="Helvetica,sans-Serif" font-size="10.00">Pool::find</text>
</a>
</g>
</g>
<!-- Node1&#45;&gt;Node2 -->
<g id="edge1" class="edge"><title>Node1&#45;&gt;Node2</title>
<path fill="none" stroke="midnightblue" d="M96.498,-82.0693C113.864,-89.1584 134.95,-97.6498 154,-105 159.413,-107.088 165.082,-109.236 170.741,-111.353"/>
<polygon fill="midnightblue" stroke="midnightblue" points="169.613,-114.668 180.206,-114.873 172.052,-108.107 169.613,-114.668"/>
</g>
<!-- Node4 -->
<g id="node4" class="node"><title>Node4</title>
<g id="a_node4"><a xlink:href="common_8hpp.html#ab9ce1ea79c76c5726af17e271c20c6ec" target="_top" xlink:title="Dump hex data. ">
<polygon fill="none" stroke="black" points="195,-76.5 195,-95.5 251,-95.5 251,-76.5 195,-76.5"/>
<text text-anchor="middle" x="223" y="-83.5" font-family="Helvetica,sans-Serif" font-size="10.00">hexdump</text>
</a>
</g>
</g>
<!-- Node1&#45;&gt;Node4 -->
<g id="edge3" class="edge"><title>Node1&#45;&gt;Node4</title>
<path fill="none" stroke="midnightblue" d="M118.028,-73.8058C140.192,-76.4052 164.858,-79.2981 184.6,-81.6136"/>
<polygon fill="midnightblue" stroke="midnightblue" points="184.385,-85.1123 194.725,-82.8011 185.201,-78.16 184.385,-85.1123"/>
</g>
<!-- Node5 -->
<g id="node5" class="node"><title>Node5</title>
<g id="a_node5"><a xlink:href="classStateMachine.html#acb32e2ad53518611b1fded8dfe2f45f5" target="_top" xlink:title="Remove a connection. ">
<polygon fill="none" stroke="black" points="154,-38.5 154,-57.5 292,-57.5 292,-38.5 154,-38.5"/>
<text text-anchor="middle" x="223" y="-45.5" font-family="Helvetica,sans-Serif" font-size="10.00">StateMachine::removeState</text>
</a>
</g>
</g>
<!-- Node1&#45;&gt;Node5 -->
<g id="edge4" class="edge"><title>Node1&#45;&gt;Node5</title>
<path fill="none" stroke="midnightblue" d="M118.028,-60.1942C126.381,-59.2146 135.089,-58.1933 143.754,-57.1769"/>
<polygon fill="midnightblue" stroke="midnightblue" points="144.36,-60.63 153.884,-55.9889 143.545,-53.6777 144.36,-60.63"/>
</g>
<!-- Node6 -->
<g id="node6" class="node"><title>Node6</title>
<g id="a_node6"><a xlink:href="classBufArray.html#ad9a4fc65d7d2528cba69f3089ad98098" target="_top" xlink:title="Mark one packet as drop. ">
<polygon fill="none" stroke="black" points="163.5,-0.5 163.5,-19.5 282.5,-19.5 282.5,-0.5 163.5,-0.5"/>
<text text-anchor="middle" x="223" y="-7.5" font-family="Helvetica,sans-Serif" font-size="10.00">BufArray::markDropPkt</text>
</a>
</g>
</g>
<!-- Node1&#45;&gt;Node6 -->
<g id="edge5" class="edge"><title>Node1&#45;&gt;Node6</title>
<path fill="none" stroke="midnightblue" d="M94.4714,-51.9879C112.101,-44.5864 134.005,-35.8111 154,-29 160.86,-26.6631 168.179,-24.3921 175.378,-22.2813"/>
<polygon fill="midnightblue" stroke="midnightblue" points="176.415,-25.6253 185.067,-19.5111 174.49,-18.895 176.415,-25.6253"/>
</g>
<!-- Node3 -->
<g id="node3" class="node"><title>Node3</title>
<g id="a_node3"><a xlink:href="structStateMachine_1_1State.html#ac677f1c9373a6ca421ac2f1f159fe8a6" target="_top" xlink:title="StateMachine::State::set">
<polygon fill="none" stroke="black" points="328,-120.5 328,-139.5 453,-139.5 453,-120.5 328,-120.5"/>
<text text-anchor="middle" x="390.5" y="-127.5" font-family="Helvetica,sans-Serif" font-size="10.00">StateMachine::State::set</text>
</a>
</g>
</g>
<!-- Node2&#45;&gt;Node3 -->
<g id="edge2" class="edge"><title>Node2&#45;&gt;Node3</title>
<path fill="none" stroke="midnightblue" d="M289.41,-130C298.699,-130 308.294,-130 317.696,-130"/>
<polygon fill="midnightblue" stroke="midnightblue" points="317.8,-133.5 327.8,-130 317.8,-126.5 317.8,-133.5"/>
</g>
</g>
</svg>
