<?xml version="1.0" encoding="UTF-8" standalone="no"?>
<!DOCTYPE svg PUBLIC "-//W3C//DTD SVG 1.1//EN"
 "http://www.w3.org/Graphics/SVG/1.1/DTD/svg11.dtd">
<!-- Generated by graphviz version 2.38.0 (20140413.2041)
 -->
<!-- Title: HelloBye::HelloByeClientRecvBye::run Pages: 1 -->
<svg width="470pt" height="214pt"
 viewBox="0.00 0.00 470.00 214.00" xmlns="http://www.w3.org/2000/svg" xmlns:xlink="http://www.w3.org/1999/xlink">
<g id="graph0" class="graph" transform="scale(1 1) rotate(0) translate(4 210)">
<title>HelloBye::HelloByeClientRecvBye::run</title>
<!-- Node1 -->
<g id="node1" class="node"><title>Node1</title>
<polygon fill="#bfbfbf" stroke="black" points="0,-93.5 0,-123.5 128,-123.5 128,-93.5 0,-93.5"/>
<text text-anchor="start" x="8" y="-111.5" font-family="Helvetica,sans-Serif" font-size="10.00">HelloBye::HelloByeClient</text>
<text text-anchor="middle" x="64" y="-100.5" font-family="Helvetica,sans-Serif" font-size="10.00">RecvBye::run</text>
</g>
<!-- Node2 -->
<g id="node2" class="node"><title>Node2</title>
<g id="a_node2"><a xlink:href="classHelloBye_1_1HelloByeClientRecvBye.html#a057eb8f9a5beca3539e559c0bc860c76" target="_top" xlink:title="HelloBye::HelloByeClient\lRecvBye::fun">
<polygon fill="none" stroke="black" points="164,-93.5 164,-123.5 292,-123.5 292,-93.5 164,-93.5"/>
<text text-anchor="start" x="172" y="-111.5" font-family="Helvetica,sans-Serif" font-size="10.00">HelloBye::HelloByeClient</text>
<text text-anchor="middle" x="228" y="-100.5" font-family="Helvetica,sans-Serif" font-size="10.00">RecvBye::fun</text>
</a>
</g>
</g>
<!-- Node1&#45;&gt;Node2 -->
<g id="edge1" class="edge"><title>Node1&#45;&gt;Node2</title>
<path fill="none" stroke="midnightblue" d="M128.097,-108.5C136.435,-108.5 145.038,-108.5 153.53,-108.5"/>
<polygon fill="midnightblue" stroke="midnightblue" points="153.808,-112 163.808,-108.5 153.808,-105 153.808,-112"/>
</g>
<!-- Node3 -->
<g id="node3" class="node"><title>Node3</title>
<g id="a_node3"><a xlink:href="structHeaders_1_1Ethernet.html#ad59e9fe1ec95b8e2ed11f97b44a20650" target="_top" xlink:title="Get the SDU. ">
<polygon fill="none" stroke="black" points="344,-175.5 344,-205.5 446,-205.5 446,-175.5 344,-175.5"/>
<text text-anchor="start" x="352" y="-193.5" font-family="Helvetica,sans-Serif" font-size="10.00">Headers::Ethernet::</text>
<text text-anchor="middle" x="395" y="-182.5" font-family="Helvetica,sans-Serif" font-size="10.00">getPayload</text>
</a>
</g>
</g>
<!-- Node2&#45;&gt;Node3 -->
<g id="edge2" class="edge"><title>Node2&#45;&gt;Node3</title>
<path fill="none" stroke="midnightblue" d="M252.828,-123.667C272.528,-135.85 301.471,-152.938 328,-165.5 332.405,-167.586 337.035,-169.627 341.714,-171.588"/>
<polygon fill="midnightblue" stroke="midnightblue" points="340.746,-174.972 351.328,-175.486 343.376,-168.485 340.746,-174.972"/>
</g>
<!-- Node4 -->
<g id="node4" class="node"><title>Node4</title>
<g id="a_node4"><a xlink:href="structHeaders_1_1IPv4.html#acc4a8033c5da9c2ce147ee10e15d2a49" target="_top" xlink:title="Get the SDU. ">
<polygon fill="none" stroke="black" points="328,-137 328,-156 462,-156 462,-137 328,-137"/>
<text text-anchor="middle" x="395" y="-144" font-family="Helvetica,sans-Serif" font-size="10.00">Headers::IPv4::getPayload</text>
</a>
</g>
</g>
<!-- Node2&#45;&gt;Node4 -->
<g id="edge3" class="edge"><title>Node2&#45;&gt;Node4</title>
<path fill="none" stroke="midnightblue" d="M292.321,-123.083C308.872,-126.895 326.512,-130.957 342.373,-134.61"/>
<polygon fill="midnightblue" stroke="midnightblue" points="341.98,-138.111 352.51,-136.945 343.551,-131.29 341.98,-138.111"/>
</g>
<!-- Node5 -->
<g id="node5" class="node"><title>Node5</title>
<g id="a_node5"><a xlink:href="structHeaders_1_1Udp.html#a531f2e8247abf7807c50d806208b7cb1" target="_top" xlink:title="Get the SDU. ">
<polygon fill="none" stroke="black" points="329,-99 329,-118 461,-118 461,-99 329,-99"/>
<text text-anchor="middle" x="395" y="-106" font-family="Helvetica,sans-Serif" font-size="10.00">Headers::Udp::getPayload</text>
</a>
</g>
</g>
<!-- Node2&#45;&gt;Node5 -->
<g id="edge4" class="edge"><title>Node2&#45;&gt;Node5</title>
<path fill="none" stroke="midnightblue" d="M292.321,-108.5C300.944,-108.5 309.862,-108.5 318.67,-108.5"/>
<polygon fill="midnightblue" stroke="midnightblue" points="318.936,-112 328.936,-108.5 318.936,-105 318.936,-112"/>
</g>
<!-- Node6 -->
<g id="node6" class="node"><title>Node6</title>
<g id="a_node6"><a xlink:href="structStateMachine_1_1State.html#a89a520519a2b8dab5f4ae7a90c2bee83" target="_top" xlink:title="Transition to another state. ">
<polygon fill="none" stroke="black" points="342,-49.5 342,-79.5 448,-79.5 448,-49.5 342,-49.5"/>
<text text-anchor="start" x="350" y="-67.5" font-family="Helvetica,sans-Serif" font-size="10.00">StateMachine::State</text>
<text text-anchor="middle" x="395" y="-56.5" font-family="Helvetica,sans-Serif" font-size="10.00">::transition</text>
</a>
</g>
</g>
<!-- Node2&#45;&gt;Node6 -->
<g id="edge5" class="edge"><title>Node2&#45;&gt;Node6</title>
<path fill="none" stroke="midnightblue" d="M285.322,-93.4808C300.332,-89.478 316.632,-85.1314 331.932,-81.0515"/>
<polygon fill="midnightblue" stroke="midnightblue" points="333.057,-84.3738 341.818,-78.4153 331.254,-77.6101 333.057,-84.3738"/>
</g>
<!-- Node7 -->
<g id="node7" class="node"><title>Node7</title>
<g id="a_node7"><a xlink:href="classStateMachine_1_1FunIface.html#a1985ec03a8173ed85b6ad89a449c5f16" target="_top" xlink:title="Free the packets after the batch is processed, do not send it. ">
<polygon fill="none" stroke="black" points="334.5,-0.5 334.5,-30.5 455.5,-30.5 455.5,-0.5 334.5,-0.5"/>
<text text-anchor="start" x="342.5" y="-18.5" font-family="Helvetica,sans-Serif" font-size="10.00">StateMachine::FunIface</text>
<text text-anchor="middle" x="395" y="-7.5" font-family="Helvetica,sans-Serif" font-size="10.00">::freePkt</text>
</a>
</g>
</g>
<!-- Node2&#45;&gt;Node7 -->
<g id="edge6" class="edge"><title>Node2&#45;&gt;Node7</title>
<path fill="none" stroke="midnightblue" d="M248.216,-93.2291C267.548,-78.3773 298.623,-55.8677 328,-40.5 331.954,-38.4314 336.119,-36.4454 340.355,-34.5603"/>
<polygon fill="midnightblue" stroke="midnightblue" points="341.848,-37.7292 349.687,-30.6019 339.114,-31.285 341.848,-37.7292"/>
</g>
</g>
</svg>
