<?xml version="1.0" encoding="UTF-8" standalone="no"?>
<!DOCTYPE svg PUBLIC "-//W3C//DTD SVG 1.1//EN"
 "http://www.w3.org/Graphics/SVG/1.1/DTD/svg11.dtd">
<!-- Generated by graphviz version 2.38.0 (20140413.2041)
 -->
<!-- Title: HelloBye2::Client::RecvBye::run Pages: 1 -->
<svg width="412pt" height="252pt"
 viewBox="0.00 0.00 412.00 252.00" xmlns="http://www.w3.org/2000/svg" xmlns:xlink="http://www.w3.org/1999/xlink">
<g id="graph0" class="graph" transform="scale(1 1) rotate(0) translate(4 248)">
<title>HelloBye2::Client::RecvBye::run</title>
<!-- Node1 -->
<g id="node1" class="node"><title>Node1</title>
<polygon fill="#bfbfbf" stroke="black" points="0,-112.5 0,-142.5 99,-142.5 99,-112.5 0,-112.5"/>
<text text-anchor="start" x="8" y="-130.5" font-family="Helvetica,sans-Serif" font-size="10.00">HelloBye2::Client::</text>
<text text-anchor="middle" x="49.5" y="-119.5" font-family="Helvetica,sans-Serif" font-size="10.00">RecvBye::run</text>
</g>
<!-- Node2 -->
<g id="node2" class="node"><title>Node2</title>
<g id="a_node2"><a xlink:href="classHelloBye2_1_1Client_1_1RecvBye.html#a534036682bba92fb763721bcd7a5cd13" target="_top" xlink:title="HelloBye2::Client::\lRecvBye::fun">
<polygon fill="none" stroke="black" points="135,-112.5 135,-142.5 234,-142.5 234,-112.5 135,-112.5"/>
<text text-anchor="start" x="143" y="-130.5" font-family="Helvetica,sans-Serif" font-size="10.00">HelloBye2::Client::</text>
<text text-anchor="middle" x="184.5" y="-119.5" font-family="Helvetica,sans-Serif" font-size="10.00">RecvBye::fun</text>
</a>
</g>
</g>
<!-- Node1&#45;&gt;Node2 -->
<g id="edge1" class="edge"><title>Node1&#45;&gt;Node2</title>
<path fill="none" stroke="midnightblue" d="M99.2691,-127.5C107.491,-127.5 116.104,-127.5 124.551,-127.5"/>
<polygon fill="midnightblue" stroke="midnightblue" points="124.737,-131 134.737,-127.5 124.737,-124 124.737,-131"/>
</g>
<!-- Node3 -->
<g id="node3" class="node"><title>Node3</title>
<g id="a_node3"><a xlink:href="structHeaders_1_1Ethernet.html#ad59e9fe1ec95b8e2ed11f97b44a20650" target="_top" xlink:title="Get the SDU. ">
<polygon fill="none" stroke="black" points="286,-213.5 286,-243.5 388,-243.5 388,-213.5 286,-213.5"/>
<text text-anchor="start" x="294" y="-231.5" font-family="Helvetica,sans-Serif" font-size="10.00">Headers::Ethernet::</text>
<text text-anchor="middle" x="337" y="-220.5" font-family="Helvetica,sans-Serif" font-size="10.00">getPayload</text>
</a>
</g>
</g>
<!-- Node2&#45;&gt;Node3 -->
<g id="edge2" class="edge"><title>Node2&#45;&gt;Node3</title>
<path fill="none" stroke="midnightblue" d="M199.118,-142.756C214.804,-159.56 242.031,-186.456 270,-203.5 273.319,-205.522 276.828,-207.427 280.431,-209.213"/>
<polygon fill="midnightblue" stroke="midnightblue" points="278.973,-212.395 289.519,-213.405 281.904,-206.039 278.973,-212.395"/>
</g>
<!-- Node4 -->
<g id="node4" class="node"><title>Node4</title>
<g id="a_node4"><a xlink:href="structHeaders_1_1IPv4.html#acc4a8033c5da9c2ce147ee10e15d2a49" target="_top" xlink:title="Get the SDU. ">
<polygon fill="none" stroke="black" points="270,-175 270,-194 404,-194 404,-175 270,-175"/>
<text text-anchor="middle" x="337" y="-182" font-family="Helvetica,sans-Serif" font-size="10.00">Headers::IPv4::getPayload</text>
</a>
</g>
</g>
<!-- Node2&#45;&gt;Node4 -->
<g id="edge3" class="edge"><title>Node2&#45;&gt;Node4</title>
<path fill="none" stroke="midnightblue" d="M216.362,-142.653C232.178,-150.09 251.878,-158.855 270,-165.5 276.318,-167.817 283.058,-170.035 289.727,-172.087"/>
<polygon fill="midnightblue" stroke="midnightblue" points="288.806,-175.464 299.389,-174.964 290.804,-168.755 288.806,-175.464"/>
</g>
<!-- Node5 -->
<g id="node5" class="node"><title>Node5</title>
<g id="a_node5"><a xlink:href="structHeaders_1_1Udp.html#a531f2e8247abf7807c50d806208b7cb1" target="_top" xlink:title="Get the SDU. ">
<polygon fill="none" stroke="black" points="271,-137 271,-156 403,-156 403,-137 271,-137"/>
<text text-anchor="middle" x="337" y="-144" font-family="Helvetica,sans-Serif" font-size="10.00">Headers::Udp::getPayload</text>
</a>
</g>
</g>
<!-- Node2&#45;&gt;Node5 -->
<g id="edge4" class="edge"><title>Node2&#45;&gt;Node5</title>
<path fill="none" stroke="midnightblue" d="M234.363,-133.669C242.844,-134.739 251.837,-135.875 260.829,-137.01"/>
<polygon fill="midnightblue" stroke="midnightblue" points="260.593,-140.508 270.953,-138.288 261.47,-133.563 260.593,-140.508"/>
</g>
<!-- Node6 -->
<g id="node6" class="node"><title>Node6</title>
<g id="a_node6"><a xlink:href="structHelloBye2_1_1msg.html#a4176b99eaac8fa68d5e44531ad8eaba0" target="_top" xlink:title="HelloBye2::msg::msg">
<polygon fill="none" stroke="black" points="281.5,-99 281.5,-118 392.5,-118 392.5,-99 281.5,-99"/>
<text text-anchor="middle" x="337" y="-106" font-family="Helvetica,sans-Serif" font-size="10.00">HelloBye2::msg::msg</text>
</a>
</g>
</g>
<!-- Node2&#45;&gt;Node6 -->
<g id="edge5" class="edge"><title>Node2&#45;&gt;Node6</title>
<path fill="none" stroke="midnightblue" d="M234.363,-121.331C246.098,-119.85 258.812,-118.245 271.147,-116.687"/>
<polygon fill="midnightblue" stroke="midnightblue" points="271.906,-120.119 281.389,-115.394 271.03,-113.175 271.906,-120.119"/>
</g>
<!-- Node7 -->
<g id="node7" class="node"><title>Node7</title>
<g id="a_node7"><a xlink:href="classStateMachine_1_1FunIface.html#af87038e844cd7e3e778252ef1c15ed28" target="_top" xlink:title="Transition to another state. ">
<polygon fill="none" stroke="black" points="276.5,-49.5 276.5,-79.5 397.5,-79.5 397.5,-49.5 276.5,-49.5"/>
<text text-anchor="start" x="284.5" y="-67.5" font-family="Helvetica,sans-Serif" font-size="10.00">StateMachine::FunIface</text>
<text text-anchor="middle" x="337" y="-56.5" font-family="Helvetica,sans-Serif" font-size="10.00">::transition</text>
</a>
</g>
</g>
<!-- Node2&#45;&gt;Node7 -->
<g id="edge6" class="edge"><title>Node2&#45;&gt;Node7</title>
<path fill="none" stroke="midnightblue" d="M217.803,-112.421C233.466,-105.252 252.61,-96.6959 270,-89.5 275.024,-87.421 280.289,-85.3117 285.562,-83.2448"/>
<polygon fill="midnightblue" stroke="midnightblue" points="286.947,-86.4617 295.008,-79.5863 284.419,-79.9341 286.947,-86.4617"/>
</g>
<!-- Node8 -->
<g id="node8" class="node"><title>Node8</title>
<g id="a_node8"><a xlink:href="classStateMachine_1_1FunIface.html#a1985ec03a8173ed85b6ad89a449c5f16" target="_top" xlink:title="Free the packet after the batch is processed, do not send it. ">
<polygon fill="none" stroke="black" points="276.5,-0.5 276.5,-30.5 397.5,-30.5 397.5,-0.5 276.5,-0.5"/>
<text text-anchor="start" x="284.5" y="-18.5" font-family="Helvetica,sans-Serif" font-size="10.00">StateMachine::FunIface</text>
<text text-anchor="middle" x="337" y="-7.5" font-family="Helvetica,sans-Serif" font-size="10.00">::freePkt</text>
</a>
</g>
</g>
<!-- Node2&#45;&gt;Node8 -->
<g id="edge7" class="edge"><title>Node2&#45;&gt;Node8</title>
<path fill="none" stroke="midnightblue" d="M196.785,-112.3C211.666,-93.1961 239.551,-60.4941 270,-40.5 272.957,-38.558 276.087,-36.7361 279.313,-35.0318"/>
<polygon fill="midnightblue" stroke="midnightblue" points="281.119,-38.0461 288.595,-30.5384 278.069,-31.7455 281.119,-38.0461"/>
</g>
</g>
</svg>
