<?xml version="1.0" encoding="UTF-8" standalone="no"?>
<!DOCTYPE svg PUBLIC "-//W3C//DTD SVG 1.1//EN"
 "http://www.w3.org/Graphics/SVG/1.1/DTD/svg11.dtd">
<!-- Generated by graphviz version 2.40.1 (20161225.0304)
 -->
<!-- Title: HelloBye::HelloByeClientHello::fun Pages: 1 -->
<svg width="447pt" height="618pt"
 viewBox="0.00 0.00 447.00 618.00" xmlns="http://www.w3.org/2000/svg" xmlns:xlink="http://www.w3.org/1999/xlink">
<g id="graph0" class="graph" transform="scale(1 1) rotate(0) translate(4 614)">
<title>HelloBye::HelloByeClientHello::fun</title>
<!-- Node1 -->
<g id="node1" class="node">
<title>Node1</title>
<polygon fill="#bfbfbf" stroke="#000000" points="0,-295.5 0,-325.5 128,-325.5 128,-295.5 0,-295.5"/>
<text text-anchor="start" x="8" y="-313.5" font-family="Helvetica,sans-Serif" font-size="10.00" fill="#000000">HelloBye::HelloByeClient</text>
<text text-anchor="middle" x="64" y="-302.5" font-family="Helvetica,sans-Serif" font-size="10.00" fill="#000000">Hello::fun</text>
</g>
<!-- Node2 -->
<g id="node2" class="node">
<title>Node2</title>
<g id="a_node2"><a xlink:href="classHelloBye_1_1HelloByeClientConfig.html#ad2c4d5874607eab2f221dd9dc8b55e1e" target="_top" xlink:title="HelloBye::HelloByeClient\lConfig::getInstance">
<polygon fill="none" stroke="#000000" points="172,-579.5 172,-609.5 300,-609.5 300,-579.5 172,-579.5"/>
<text text-anchor="start" x="180" y="-597.5" font-family="Helvetica,sans-Serif" font-size="10.00" fill="#000000">HelloBye::HelloByeClient</text>
<text text-anchor="middle" x="236" y="-586.5" font-family="Helvetica,sans-Serif" font-size="10.00" fill="#000000">Config::getInstance</text>
</a>
</g>
</g>
<!-- Node1&#45;&gt;Node2 -->
<g id="edge1" class="edge">
<title>Node1&#45;&gt;Node2</title>
<path fill="none" stroke="#191970" d="M65.4753,-325.7691C70.5499,-369.9382 91.2102,-499.1628 164,-569.5 165.6236,-571.0689 167.3506,-572.5397 169.16,-573.9185"/>
<polygon fill="#191970" stroke="#191970" points="167.268,-576.8631 177.5562,-579.3938 171.0917,-570.9997 167.268,-576.8631"/>
</g>
<!-- Node3 -->
<g id="node3" class="node">
<title>Node3</title>
<g id="a_node3"><a xlink:href="structHeaders_1_1IPv4.html#a28a6286beded8ad7cd611483f3dcac09" target="_top" xlink:title="Set the version field to 4. ">
<polygon fill="none" stroke="#000000" points="170.5,-541 170.5,-560 301.5,-560 301.5,-541 170.5,-541"/>
<text text-anchor="middle" x="236" y="-548" font-family="Helvetica,sans-Serif" font-size="10.00" fill="#000000">Headers::IPv4::setVersion</text>
</a>
</g>
</g>
<!-- Node1&#45;&gt;Node3 -->
<g id="edge2" class="edge">
<title>Node1&#45;&gt;Node3</title>
<path fill="none" stroke="#191970" d="M66.2723,-325.5038C73.1356,-365.457 97.4346,-475.2115 164,-531.5 165.9867,-533.1799 168.1059,-534.7132 170.3247,-536.1124"/>
<polygon fill="#191970" stroke="#191970" points="168.8308,-539.2818 179.3057,-540.8716 172.1085,-533.0966 168.8308,-539.2818"/>
</g>
<!-- Node4 -->
<g id="node4" class="node">
<title>Node4</title>
<g id="a_node4"><a xlink:href="structHeaders_1_1IPv4.html#a89ebc78cd618d1ac327bb82e4b46917f" target="_top" xlink:title="Sets the IP header length. ">
<polygon fill="none" stroke="#000000" points="178.5,-503 178.5,-522 293.5,-522 293.5,-503 178.5,-503"/>
<text text-anchor="middle" x="236" y="-510" font-family="Helvetica,sans-Serif" font-size="10.00" fill="#000000">Headers::IPv4::setIHL</text>
</a>
</g>
</g>
<!-- Node1&#45;&gt;Node4 -->
<g id="edge3" class="edge">
<title>Node1&#45;&gt;Node4</title>
<path fill="none" stroke="#191970" d="M67.8574,-325.735C77.5902,-360.9729 106.5627,-448.5213 164,-493.5 166.3379,-495.3308 168.8358,-496.9859 171.4463,-498.4823"/>
<polygon fill="#191970" stroke="#191970" points="170.1634,-501.7505 180.6863,-502.9825 173.2284,-495.4572 170.1634,-501.7505"/>
</g>
<!-- Node5 -->
<g id="node5" class="node">
<title>Node5</title>
<g id="a_node5"><a xlink:href="structHeaders_1_1IPv4.html#a6170f8d379d252ca29e8c91f457d1108" target="_top" xlink:title="Headers::IPv4::setLength">
<polygon fill="none" stroke="#000000" points="172,-465 172,-484 300,-484 300,-465 172,-465"/>
<text text-anchor="middle" x="236" y="-472" font-family="Helvetica,sans-Serif" font-size="10.00" fill="#000000">Headers::IPv4::setLength</text>
</a>
</g>
</g>
<!-- Node1&#45;&gt;Node5 -->
<g id="edge4" class="edge">
<title>Node1&#45;&gt;Node5</title>
<path fill="none" stroke="#191970" d="M70.2142,-325.8935C83.0608,-355.7084 115.4607,-421.3921 164,-455.5 166.8361,-457.4929 169.868,-459.2768 173.0234,-460.8735"/>
<polygon fill="#191970" stroke="#191970" points="171.6202,-464.0799 182.1836,-464.8963 174.4349,-457.6707 171.6202,-464.0799"/>
</g>
<!-- Node6 -->
<g id="node6" class="node">
<title>Node6</title>
<g id="a_node6"><a xlink:href="structHeaders_1_1IPv4.html#ab3379b3b9cf0bda526087c3cc1c9927d" target="_top" xlink:title="Set the destination ip. ">
<polygon fill="none" stroke="#000000" points="173.5,-427 173.5,-446 298.5,-446 298.5,-427 173.5,-427"/>
<text text-anchor="middle" x="236" y="-434" font-family="Helvetica,sans-Serif" font-size="10.00" fill="#000000">Headers::IPv4::setDstIP</text>
</a>
</g>
</g>
<!-- Node1&#45;&gt;Node6 -->
<g id="edge5" class="edge">
<title>Node1&#45;&gt;Node6</title>
<path fill="none" stroke="#191970" d="M74.0131,-325.8176C90.1202,-349.2112 124.0576,-393.633 164,-417.5 167.6206,-419.6634 171.4878,-421.584 175.4798,-423.2886"/>
<polygon fill="#191970" stroke="#191970" points="174.3727,-426.6119 184.964,-426.8862 176.8555,-420.067 174.3727,-426.6119"/>
</g>
<!-- Node7 -->
<g id="node7" class="node">
<title>Node7</title>
<g id="a_node7"><a xlink:href="structHeaders_1_1IPv4.html#a4e1023a9cc8055be85956cd29c6fc397" target="_top" xlink:title="Set the source ip. ">
<polygon fill="none" stroke="#000000" points="174,-389 174,-408 298,-408 298,-389 174,-389"/>
<text text-anchor="middle" x="236" y="-396" font-family="Helvetica,sans-Serif" font-size="10.00" fill="#000000">Headers::IPv4::setSrcIP</text>
</a>
</g>
</g>
<!-- Node1&#45;&gt;Node7 -->
<g id="edge6" class="edge">
<title>Node1&#45;&gt;Node7</title>
<path fill="none" stroke="#191970" d="M81.6359,-325.5154C100.7631,-341.0905 132.7628,-365.1363 164,-379.5 169.2672,-381.922 174.8984,-384.0785 180.6044,-385.9881"/>
<polygon fill="#191970" stroke="#191970" points="179.6389,-389.3531 190.2269,-388.9723 181.7123,-382.6672 179.6389,-389.3531"/>
</g>
<!-- Node8 -->
<g id="node8" class="node">
<title>Node8</title>
<g id="a_node8"><a xlink:href="classHelloBye_1_1HelloByeClientConfig.html#ab6359aa6d88b7f655b562861a6fc82bc" target="_top" xlink:title="HelloBye::HelloByeClient\lConfig::getSrcIP">
<polygon fill="none" stroke="#000000" points="172,-339.5 172,-369.5 300,-369.5 300,-339.5 172,-339.5"/>
<text text-anchor="start" x="180" y="-357.5" font-family="Helvetica,sans-Serif" font-size="10.00" fill="#000000">HelloBye::HelloByeClient</text>
<text text-anchor="middle" x="236" y="-346.5" font-family="Helvetica,sans-Serif" font-size="10.00" fill="#000000">Config::getSrcIP</text>
</a>
</g>
</g>
<!-- Node1&#45;&gt;Node8 -->
<g id="edge7" class="edge">
<title>Node1&#45;&gt;Node8</title>
<path fill="none" stroke="#191970" d="M122.7116,-325.5192C137.0235,-329.1804 152.4602,-333.1294 167.1949,-336.8987"/>
<polygon fill="#191970" stroke="#191970" points="166.7057,-340.3862 177.2612,-339.4738 168.4406,-333.6046 166.7057,-340.3862"/>
</g>
<!-- Node9 -->
<g id="node9" class="node">
<title>Node9</title>
<g id="a_node9"><a xlink:href="structHeaders_1_1IPv4.html#a3de15b59ea6a3656f37c63e0c8d83df7" target="_top" xlink:title="Set the protocol to UDP. ">
<polygon fill="none" stroke="#000000" points="164,-301 164,-320 308,-320 308,-301 164,-301"/>
<text text-anchor="middle" x="236" y="-308" font-family="Helvetica,sans-Serif" font-size="10.00" fill="#000000">Headers::IPv4::setProtoUDP</text>
</a>
</g>
</g>
<!-- Node1&#45;&gt;Node9 -->
<g id="edge8" class="edge">
<title>Node1&#45;&gt;Node9</title>
<path fill="none" stroke="#191970" d="M128.0465,-310.5C136.4216,-310.5 145.0945,-310.5 153.7175,-310.5"/>
<polygon fill="#191970" stroke="#191970" points="153.7964,-314.0001 163.7963,-310.5 153.7963,-307.0001 153.7964,-314.0001"/>
</g>
<!-- Node10 -->
<g id="node10" class="node">
<title>Node10</title>
<g id="a_node10"><a xlink:href="structHeaders_1_1IPv4.html#acc4a8033c5da9c2ce147ee10e15d2a49" target="_top" xlink:title="Get the SDU. ">
<polygon fill="none" stroke="#000000" points="169,-263 169,-282 303,-282 303,-263 169,-263"/>
<text text-anchor="middle" x="236" y="-270" font-family="Helvetica,sans-Serif" font-size="10.00" fill="#000000">Headers::IPv4::getPayload</text>
</a>
</g>
</g>
<!-- Node1&#45;&gt;Node10 -->
<g id="edge9" class="edge">
<title>Node1&#45;&gt;Node10</title>
<path fill="none" stroke="#191970" d="M128.0465,-296.3502C146.0907,-292.3637 165.5169,-288.0719 182.8483,-284.2428"/>
<polygon fill="#191970" stroke="#191970" points="183.775,-287.6226 192.7845,-282.0476 182.2649,-280.7874 183.775,-287.6226"/>
</g>
<!-- Node12 -->
<g id="node12" class="node">
<title>Node12</title>
<g id="a_node12"><a xlink:href="structHeaders_1_1Udp.html#a531f2e8247abf7807c50d806208b7cb1" target="_top" xlink:title="Get the SDU. ">
<polygon fill="none" stroke="#000000" points="170,-225 170,-244 302,-244 302,-225 170,-225"/>
<text text-anchor="middle" x="236" y="-232" font-family="Helvetica,sans-Serif" font-size="10.00" fill="#000000">Headers::Udp::getPayload</text>
</a>
</g>
</g>
<!-- Node1&#45;&gt;Node12 -->
<g id="edge11" class="edge">
<title>Node1&#45;&gt;Node12</title>
<path fill="none" stroke="#191970" d="M86.5719,-295.3611C106.2959,-282.697 136.0685,-264.9174 164,-253.5 169.8899,-251.0924 176.1764,-248.9083 182.4893,-246.9507"/>
<polygon fill="#191970" stroke="#191970" points="183.7611,-250.2255 192.3782,-244.0613 181.7979,-243.5064 183.7611,-250.2255"/>
</g>
<!-- Node13 -->
<g id="node13" class="node">
<title>Node13</title>
<g id="a_node13"><a xlink:href="structHeaders_1_1Udp.html#ad7860fd7b0f369d39d55aef85a11045a" target="_top" xlink:title="Set the destination port. ">
<polygon fill="none" stroke="#000000" points="170.5,-187 170.5,-206 301.5,-206 301.5,-187 170.5,-187"/>
<text text-anchor="middle" x="236" y="-194" font-family="Helvetica,sans-Serif" font-size="10.00" fill="#000000">Headers::Udp::setDstPort</text>
</a>
</g>
</g>
<!-- Node1&#45;&gt;Node13 -->
<g id="edge12" class="edge">
<title>Node1&#45;&gt;Node13</title>
<path fill="none" stroke="#191970" d="M75.8264,-295.2001C92.971,-274.0834 126.7765,-236.2668 164,-215.5 167.9814,-213.2788 172.2322,-211.309 176.6027,-209.5635"/>
<polygon fill="#191970" stroke="#191970" points="178.0685,-212.7563 186.3033,-206.09 175.7087,-206.166 178.0685,-212.7563"/>
</g>
<!-- Node14 -->
<g id="node14" class="node">
<title>Node14</title>
<g id="a_node14"><a xlink:href="classHelloBye_1_1HelloByeClientConfig.html#a632d9fcc0cdea73b31e5871ae6b54c24" target="_top" xlink:title="HelloBye::HelloByeClient\lConfig::getDstPort">
<polygon fill="none" stroke="#000000" points="172,-137.5 172,-167.5 300,-167.5 300,-137.5 172,-137.5"/>
<text text-anchor="start" x="180" y="-155.5" font-family="Helvetica,sans-Serif" font-size="10.00" fill="#000000">HelloBye::HelloByeClient</text>
<text text-anchor="middle" x="236" y="-144.5" font-family="Helvetica,sans-Serif" font-size="10.00" fill="#000000">Config::getDstPort</text>
</a>
</g>
</g>
<!-- Node1&#45;&gt;Node14 -->
<g id="edge13" class="edge">
<title>Node1&#45;&gt;Node14</title>
<path fill="none" stroke="#191970" d="M71.4446,-295.4197C85.6959,-268.0464 119.4195,-210.0142 164,-177.5 166.6192,-175.5897 169.3966,-173.8161 172.2778,-172.1704"/>
<polygon fill="#191970" stroke="#191970" points="173.8756,-175.2845 181.1788,-167.6089 170.6831,-169.0549 173.8756,-175.2845"/>
</g>
<!-- Node15 -->
<g id="node15" class="node">
<title>Node15</title>
<g id="a_node15"><a xlink:href="structHeaders_1_1Udp.html#ab28d05a7270cf1537848db896588ca01" target="_top" xlink:title="Set the source port. ">
<polygon fill="none" stroke="#000000" points="171,-99 171,-118 301,-118 301,-99 171,-99"/>
<text text-anchor="middle" x="236" y="-106" font-family="Helvetica,sans-Serif" font-size="10.00" fill="#000000">Headers::Udp::setSrcPort</text>
</a>
</g>
</g>
<!-- Node1&#45;&gt;Node15 -->
<g id="edge14" class="edge">
<title>Node1&#45;&gt;Node15</title>
<path fill="none" stroke="#191970" d="M67.9227,-295.3972C77.7947,-260.4562 107.0431,-173.5929 164,-128.5 166.9179,-126.1899 170.0861,-124.1463 173.4116,-122.3386"/>
<polygon fill="#191970" stroke="#191970" points="174.9405,-125.4875 182.5187,-118.0834 171.9773,-119.1457 174.9405,-125.4875"/>
</g>
<!-- Node16 -->
<g id="node16" class="node">
<title>Node16</title>
<g id="a_node16"><a xlink:href="structHeaders_1_1Udp.html#ac5397a534d246cfa93ac157eee3c565e" target="_top" xlink:title="Set the length of the L4&#45;SDU (UDP payload) ">
<polygon fill="none" stroke="#000000" points="170,-49.5 170,-79.5 302,-79.5 302,-49.5 170,-49.5"/>
<text text-anchor="start" x="178" y="-67.5" font-family="Helvetica,sans-Serif" font-size="10.00" fill="#000000">Headers::Udp::setPayload</text>
<text text-anchor="middle" x="236" y="-56.5" font-family="Helvetica,sans-Serif" font-size="10.00" fill="#000000">Length</text>
</a>
</g>
</g>
<!-- Node1&#45;&gt;Node16 -->
<g id="edge15" class="edge">
<title>Node1&#45;&gt;Node16</title>
<path fill="none" stroke="#191970" d="M66.5676,-295.4846C74.0989,-255.9754 99.7822,-148.1409 164,-89.5 165.7069,-87.9413 167.5161,-86.479 169.4057,-85.107"/>
<polygon fill="#191970" stroke="#191970" points="171.5105,-87.919 178.1377,-79.6527 167.8021,-81.9821 171.5105,-87.919"/>
</g>
<!-- Node17 -->
<g id="node17" class="node">
<title>Node17</title>
<g id="a_node17"><a xlink:href="classStateMachine_1_1FunIface.html#af87038e844cd7e3e778252ef1c15ed28" target="_top" xlink:title="Transition to another state. ">
<polygon fill="none" stroke="#000000" points="175.5,-.5 175.5,-30.5 296.5,-30.5 296.5,-.5 175.5,-.5"/>
<text text-anchor="start" x="183.5" y="-18.5" font-family="Helvetica,sans-Serif" font-size="10.00" fill="#000000">StateMachine::FunIface</text>
<text text-anchor="middle" x="236" y="-7.5" font-family="Helvetica,sans-Serif" font-size="10.00" fill="#000000">::transition</text>
</a>
</g>
</g>
<!-- Node1&#45;&gt;Node17 -->
<g id="edge16" class="edge">
<title>Node1&#45;&gt;Node17</title>
<path fill="none" stroke="#191970" d="M65.1995,-295.2469C69.5794,-249.8702 88.6592,-114.3113 164,-40.5 165.6127,-38.92 167.3303,-37.4396 169.1317,-36.0524"/>
<polygon fill="#191970" stroke="#191970" points="171.0683,-38.9679 177.5003,-30.5488 167.222,-33.1193 171.0683,-38.9679"/>
</g>
<!-- Node11 -->
<g id="node11" class="node">
<title>Node11</title>
<g id="a_node11"><a xlink:href="structHeaders_1_1IPv4.html#ac6c5485ffca9cffaded18d2ad8d5985a" target="_top" xlink:title="Headers::IPv4::ihl">
<polygon fill="none" stroke="#000000" points="344,-263 344,-282 439,-282 439,-263 344,-263"/>
<text text-anchor="middle" x="391.5" y="-270" font-family="Helvetica,sans-Serif" font-size="10.00" fill="#000000">Headers::IPv4::ihl</text>
</a>
</g>
</g>
<!-- Node10&#45;&gt;Node11 -->
<g id="edge10" class="edge">
<title>Node10&#45;&gt;Node11</title>
<path fill="none" stroke="#191970" d="M303.3002,-272.5C313.4129,-272.5 323.7658,-272.5 333.6577,-272.5"/>
<polygon fill="#191970" stroke="#191970" points="333.7699,-276.0001 343.7699,-272.5 333.7699,-269.0001 333.7699,-276.0001"/>
</g>
</g>
</svg>
