<?xml version="1.0" encoding="UTF-8" standalone="no"?>
<!DOCTYPE svg PUBLIC "-//W3C//DTD SVG 1.1//EN"
 "http://www.w3.org/Graphics/SVG/1.1/DTD/svg11.dtd">
<!-- Generated by graphviz version 2.38.0 (20140413.2041)
 -->
<!-- Title: HelloBye::HelloByeServerHello::fun Pages: 1 -->
<svg width="309pt" height="214pt"
 viewBox="0.00 0.00 309.00 214.00" xmlns="http://www.w3.org/2000/svg" xmlns:xlink="http://www.w3.org/1999/xlink">
<g id="graph0" class="graph" transform="scale(1 1) rotate(0) translate(4 210)">
<title>HelloBye::HelloByeServerHello::fun</title>
<!-- Node1 -->
<g id="node1" class="node"><title>Node1</title>
<polygon fill="#bfbfbf" stroke="black" points="0,-93.5 0,-123.5 131,-123.5 131,-93.5 0,-93.5"/>
<text text-anchor="start" x="8" y="-111.5" font-family="Helvetica,sans-Serif" font-size="10.00">HelloBye::HelloByeServer</text>
<text text-anchor="middle" x="65.5" y="-100.5" font-family="Helvetica,sans-Serif" font-size="10.00">Hello::fun</text>
</g>
<!-- Node2 -->
<g id="node2" class="node"><title>Node2</title>
<g id="a_node2"><a xlink:href="structHeaders_1_1Ethernet.html#ad59e9fe1ec95b8e2ed11f97b44a20650" target="_top" xlink:title="Get the SDU. ">
<polygon fill="none" stroke="black" points="183,-175.5 183,-205.5 285,-205.5 285,-175.5 183,-175.5"/>
<text text-anchor="start" x="191" y="-193.5" font-family="Helvetica,sans-Serif" font-size="10.00">Headers::Ethernet::</text>
<text text-anchor="middle" x="234" y="-182.5" font-family="Helvetica,sans-Serif" font-size="10.00">getPayload</text>
</a>
</g>
</g>
<!-- Node1&#45;&gt;Node2 -->
<g id="edge1" class="edge"><title>Node1&#45;&gt;Node2</title>
<path fill="none" stroke="midnightblue" d="M90.7206,-123.637C110.737,-135.802 140.128,-152.882 167,-165.5 171.412,-167.572 176.047,-169.603 180.728,-171.557"/>
<polygon fill="midnightblue" stroke="midnightblue" points="179.764,-174.943 190.347,-175.447 182.388,-168.453 179.764,-174.943"/>
</g>
<!-- Node3 -->
<g id="node3" class="node"><title>Node3</title>
<g id="a_node3"><a xlink:href="structHeaders_1_1IPv4.html#acc4a8033c5da9c2ce147ee10e15d2a49" target="_top" xlink:title="Get the SDU. ">
<polygon fill="none" stroke="black" points="167,-137 167,-156 301,-156 301,-137 167,-137"/>
<text text-anchor="middle" x="234" y="-144" font-family="Helvetica,sans-Serif" font-size="10.00">Headers::IPv4::getPayload</text>
</a>
</g>
</g>
<!-- Node1&#45;&gt;Node3 -->
<g id="edge2" class="edge"><title>Node1&#45;&gt;Node3</title>
<path fill="none" stroke="midnightblue" d="M131.35,-123.301C147.829,-127.061 165.319,-131.053 181.062,-134.646"/>
<polygon fill="midnightblue" stroke="midnightblue" points="180.598,-138.13 191.126,-136.943 182.156,-131.306 180.598,-138.13"/>
</g>
<!-- Node4 -->
<g id="node4" class="node"><title>Node4</title>
<g id="a_node4"><a xlink:href="structHeaders_1_1Udp.html#a531f2e8247abf7807c50d806208b7cb1" target="_top" xlink:title="Get the SDU. ">
<polygon fill="none" stroke="black" points="168,-99 168,-118 300,-118 300,-99 168,-99"/>
<text text-anchor="middle" x="234" y="-106" font-family="Helvetica,sans-Serif" font-size="10.00">Headers::Udp::getPayload</text>
</a>
</g>
</g>
<!-- Node1&#45;&gt;Node4 -->
<g id="edge3" class="edge"><title>Node1&#45;&gt;Node4</title>
<path fill="none" stroke="midnightblue" d="M131.35,-108.5C139.947,-108.5 148.82,-108.5 157.577,-108.5"/>
<polygon fill="midnightblue" stroke="midnightblue" points="157.779,-112 167.779,-108.5 157.779,-105 157.779,-112"/>
</g>
<!-- Node5 -->
<g id="node5" class="node"><title>Node5</title>
<g id="a_node5"><a xlink:href="classStateMachine_1_1FunIface.html#af87038e844cd7e3e778252ef1c15ed28" target="_top" xlink:title="Transition to another state. ">
<polygon fill="none" stroke="black" points="173.5,-49.5 173.5,-79.5 294.5,-79.5 294.5,-49.5 173.5,-49.5"/>
<text text-anchor="start" x="181.5" y="-67.5" font-family="Helvetica,sans-Serif" font-size="10.00">StateMachine::FunIface</text>
<text text-anchor="middle" x="234" y="-56.5" font-family="Helvetica,sans-Serif" font-size="10.00">::transition</text>
</a>
</g>
</g>
<!-- Node1&#45;&gt;Node5 -->
<g id="edge4" class="edge"><title>Node1&#45;&gt;Node5</title>
<path fill="none" stroke="midnightblue" d="M123.334,-93.4808C137.188,-89.8196 152.132,-85.8706 166.395,-82.1013"/>
<polygon fill="midnightblue" stroke="midnightblue" points="167.366,-85.4651 176.139,-79.5262 165.577,-78.6974 167.366,-85.4651"/>
</g>
<!-- Node6 -->
<g id="node6" class="node"><title>Node6</title>
<g id="a_node6"><a xlink:href="classStateMachine_1_1FunIface.html#a1985ec03a8173ed85b6ad89a449c5f16" target="_top" xlink:title="Free the packet after the batch is processed, do not send it. ">
<polygon fill="none" stroke="black" points="173.5,-0.5 173.5,-30.5 294.5,-30.5 294.5,-0.5 173.5,-0.5"/>
<text text-anchor="start" x="181.5" y="-18.5" font-family="Helvetica,sans-Serif" font-size="10.00">StateMachine::FunIface</text>
<text text-anchor="middle" x="234" y="-7.5" font-family="Helvetica,sans-Serif" font-size="10.00">::freePkt</text>
</a>
</g>
</g>
<!-- Node1&#45;&gt;Node6 -->
<g id="edge5" class="edge"><title>Node1&#45;&gt;Node6</title>
<path fill="none" stroke="midnightblue" d="M86.0452,-93.2526C105.698,-78.4187 137.266,-55.9223 167,-40.5 171.024,-38.4126 175.264,-36.4064 179.573,-34.5015"/>
<polygon fill="midnightblue" stroke="midnightblue" points="181.205,-37.6117 189.059,-30.5009 178.485,-31.1618 181.205,-37.6117"/>
</g>
</g>
</svg>
