<?xml version="1.0" encoding="UTF-8" standalone="no"?>
<!DOCTYPE svg PUBLIC "-//W3C//DTD SVG 1.1//EN"
 "http://www.w3.org/Graphics/SVG/1.1/DTD/svg11.dtd">
<!-- Generated by graphviz version 2.40.1 (20161225.0304)
 -->
<!-- Title: HelloBye2::Client::Bye::fun Pages: 1 -->
<svg width="408pt" height="291pt"
 viewBox="0.00 0.00 408.00 290.50" xmlns="http://www.w3.org/2000/svg" xmlns:xlink="http://www.w3.org/1999/xlink">
<g id="graph0" class="graph" transform="scale(1 1) rotate(0) translate(4 286.5)">
<title>HelloBye2::Client::Bye::fun</title>
<!-- Node1 -->
<g id="node1" class="node">
<title>Node1</title>
<polygon fill="#bfbfbf" stroke="#000000" points="0,-132 0,-162 99,-162 99,-132 0,-132"/>
<text text-anchor="start" x="8" y="-150" font-family="Helvetica,sans-Serif" font-size="10.00" fill="#000000">HelloBye2::Client::</text>
<text text-anchor="middle" x="49.5" y="-139" font-family="Helvetica,sans-Serif" font-size="10.00" fill="#000000">Bye::fun</text>
</g>
<!-- Node2 -->
<g id="node2" class="node">
<title>Node2</title>
<g id="a_node2"><a xlink:href="structHeaders_1_1Ethernet.html#ad59e9fe1ec95b8e2ed11f97b44a20650" target="_top" xlink:title="Get the SDU. ">
<polygon fill="none" stroke="#000000" points="151,-252 151,-282 253,-282 253,-252 151,-252"/>
<text text-anchor="start" x="159" y="-270" font-family="Helvetica,sans-Serif" font-size="10.00" fill="#000000">Headers::Ethernet::</text>
<text text-anchor="middle" x="202" y="-259" font-family="Helvetica,sans-Serif" font-size="10.00" fill="#000000">getPayload</text>
</a>
</g>
</g>
<!-- Node1&#45;&gt;Node2 -->
<g id="edge1" class="edge">
<title>Node1&#45;&gt;Node2</title>
<path fill="none" stroke="#191970" d="M59.6252,-162.2441C74.0879,-182.948 102.5311,-219.903 135,-242 137.8579,-243.9449 140.8866,-245.7625 144.0154,-247.4575"/>
<polygon fill="#191970" stroke="#191970" points="142.5223,-250.6236 153.0384,-251.9134 145.6219,-244.3472 142.5223,-250.6236"/>
</g>
<!-- Node3 -->
<g id="node3" class="node">
<title>Node3</title>
<g id="a_node3"><a xlink:href="structHeaders_1_1IPv4.html#acc4a8033c5da9c2ce147ee10e15d2a49" target="_top" xlink:title="Get the SDU. ">
<polygon fill="none" stroke="#000000" points="135,-213.5 135,-232.5 269,-232.5 269,-213.5 135,-213.5"/>
<text text-anchor="middle" x="202" y="-220.5" font-family="Helvetica,sans-Serif" font-size="10.00" fill="#000000">Headers::IPv4::getPayload</text>
</a>
</g>
</g>
<!-- Node1&#45;&gt;Node3 -->
<g id="edge2" class="edge">
<title>Node1&#45;&gt;Node3</title>
<path fill="none" stroke="#191970" d="M68.5061,-162.2068C85.187,-174.9134 110.5383,-192.7172 135,-204 140.0092,-206.3105 145.361,-208.4009 150.7742,-210.2763"/>
<polygon fill="#191970" stroke="#191970" points="149.932,-213.6821 160.5236,-213.4209 152.0808,-207.0201 149.932,-213.6821"/>
</g>
<!-- Node5 -->
<g id="node5" class="node">
<title>Node5</title>
<g id="a_node5"><a xlink:href="structHeaders_1_1Udp.html#a531f2e8247abf7807c50d806208b7cb1" target="_top" xlink:title="Get the SDU. ">
<polygon fill="none" stroke="#000000" points="136,-175.5 136,-194.5 268,-194.5 268,-175.5 136,-175.5"/>
<text text-anchor="middle" x="202" y="-182.5" font-family="Helvetica,sans-Serif" font-size="10.00" fill="#000000">Headers::Udp::getPayload</text>
</a>
</g>
</g>
<!-- Node1&#45;&gt;Node5 -->
<g id="edge4" class="edge">
<title>Node1&#45;&gt;Node5</title>
<path fill="none" stroke="#191970" d="M99.0124,-159.3375C116.6063,-163.7216 136.3748,-168.6475 153.8528,-173.0027"/>
<polygon fill="#191970" stroke="#191970" points="153.2956,-176.4708 163.8452,-175.4926 154.9882,-169.6785 153.2956,-176.4708"/>
</g>
<!-- Node6 -->
<g id="node6" class="node">
<title>Node6</title>
<g id="a_node6"><a xlink:href="structHelloBye2_1_1msg.html#a4176b99eaac8fa68d5e44531ad8eaba0" target="_top" xlink:title="HelloBye2::msg::msg">
<polygon fill="none" stroke="#000000" points="146.5,-137.5 146.5,-156.5 257.5,-156.5 257.5,-137.5 146.5,-137.5"/>
<text text-anchor="middle" x="202" y="-144.5" font-family="Helvetica,sans-Serif" font-size="10.00" fill="#000000">HelloBye2::msg::msg</text>
</a>
</g>
</g>
<!-- Node1&#45;&gt;Node6 -->
<g id="edge5" class="edge">
<title>Node1&#45;&gt;Node6</title>
<path fill="none" stroke="#191970" d="M99.0124,-147C110.835,-147 123.6395,-147 136.0711,-147"/>
<polygon fill="#191970" stroke="#191970" points="136.3963,-150.5001 146.3962,-147 136.3962,-143.5001 136.3963,-150.5001"/>
</g>
<!-- Node7 -->
<g id="node7" class="node">
<title>Node7</title>
<g id="a_node7"><a xlink:href="classStateMachine_1_1FunIface.html#af87038e844cd7e3e778252ef1c15ed28" target="_top" xlink:title="Transition to another state. ">
<polygon fill="none" stroke="#000000" points="141.5,-88 141.5,-118 262.5,-118 262.5,-88 141.5,-88"/>
<text text-anchor="start" x="149.5" y="-106" font-family="Helvetica,sans-Serif" font-size="10.00" fill="#000000">StateMachine::FunIface</text>
<text text-anchor="middle" x="202" y="-95" font-family="Helvetica,sans-Serif" font-size="10.00" fill="#000000">::transition</text>
</a>
</g>
</g>
<!-- Node1&#45;&gt;Node7 -->
<g id="edge6" class="edge">
<title>Node1&#45;&gt;Node7</title>
<path fill="none" stroke="#191970" d="M99.0124,-132.7145C112.0994,-128.9385 126.3897,-124.8154 140.0455,-120.8754"/>
<polygon fill="#191970" stroke="#191970" points="141.2128,-124.1814 149.8506,-118.0464 139.2722,-117.4558 141.2128,-124.1814"/>
</g>
<!-- Node8 -->
<g id="node8" class="node">
<title>Node8</title>
<g id="a_node8"><a xlink:href="classStateMachine_1_1FunIface.html#a1985ec03a8173ed85b6ad89a449c5f16" target="_top" xlink:title="Free the packet after the batch is processed, do not send it. ">
<polygon fill="none" stroke="#000000" points="141.5,-39 141.5,-69 262.5,-69 262.5,-39 141.5,-39"/>
<text text-anchor="start" x="149.5" y="-57" font-family="Helvetica,sans-Serif" font-size="10.00" fill="#000000">StateMachine::FunIface</text>
<text text-anchor="middle" x="202" y="-46" font-family="Helvetica,sans-Serif" font-size="10.00" fill="#000000">::freePkt</text>
</a>
</g>
</g>
<!-- Node1&#45;&gt;Node8 -->
<g id="edge7" class="edge">
<title>Node1&#45;&gt;Node8</title>
<path fill="none" stroke="#191970" d="M65.4081,-131.7843C81.7889,-116.7624 108.5831,-93.9332 135,-79 138.6477,-76.938 142.4981,-74.9852 146.4344,-73.1486"/>
<polygon fill="#191970" stroke="#191970" points="147.9669,-76.2983 155.7198,-69.0774 145.156,-69.8874 147.9669,-76.2983"/>
</g>
<!-- Node9 -->
<g id="node9" class="node">
<title>Node9</title>
<g id="a_node9"><a xlink:href="common_8hpp.html#ab9ce1ea79c76c5726af17e271c20c6ec" target="_top" xlink:title="Dump hex data. ">
<polygon fill="none" stroke="#000000" points="174,-.5 174,-19.5 230,-19.5 230,-.5 174,-.5"/>
<text text-anchor="middle" x="202" y="-7.5" font-family="Helvetica,sans-Serif" font-size="10.00" fill="#000000">hexdump</text>
</a>
</g>
</g>
<!-- Node1&#45;&gt;Node9 -->
<g id="edge8" class="edge">
<title>Node1&#45;&gt;Node9</title>
<path fill="none" stroke="#191970" d="M56.4105,-131.9976C68.6632,-107.0594 96.5716,-57.1397 135,-30 143.5522,-23.9601 153.9469,-19.7198 163.9719,-16.7521"/>
<polygon fill="#191970" stroke="#191970" points="164.9997,-20.1012 173.7916,-14.1891 163.2318,-13.3281 164.9997,-20.1012"/>
</g>
<!-- Node4 -->
<g id="node4" class="node">
<title>Node4</title>
<g id="a_node4"><a xlink:href="structHeaders_1_1IPv4.html#ac6c5485ffca9cffaded18d2ad8d5985a" target="_top" xlink:title="Headers::IPv4::ihl">
<polygon fill="none" stroke="#000000" points="305,-213.5 305,-232.5 400,-232.5 400,-213.5 305,-213.5"/>
<text text-anchor="middle" x="352.5" y="-220.5" font-family="Helvetica,sans-Serif" font-size="10.00" fill="#000000">Headers::IPv4::ihl</text>
</a>
</g>
</g>
<!-- Node3&#45;&gt;Node4 -->
<g id="edge3" class="edge">
<title>Node3&#45;&gt;Node4</title>
<path fill="none" stroke="#191970" d="M269.3266,-223C277.6911,-223 286.1876,-223 294.3967,-223"/>
<polygon fill="#191970" stroke="#191970" points="294.6094,-226.5001 304.6094,-223 294.6094,-219.5001 294.6094,-226.5001"/>
</g>
</g>
</svg>
