<?xml version="1.0" encoding="UTF-8" standalone="no"?>
<!DOCTYPE svg PUBLIC "-//W3C//DTD SVG 1.1//EN"
 "http://www.w3.org/Graphics/SVG/1.1/DTD/svg11.dtd">
<!-- Generated by graphviz version 2.38.0 (20140413.2041)
 -->
<!-- Title: HelloBye::HelloByeClientHello::fun Pages: 1 -->
<svg width="316pt" height="618pt"
 viewBox="0.00 0.00 316.00 618.00" xmlns="http://www.w3.org/2000/svg" xmlns:xlink="http://www.w3.org/1999/xlink">
<g id="graph0" class="graph" transform="scale(1 1) rotate(0) translate(4 614)">
<title>HelloBye::HelloByeClientHello::fun</title>
<!-- Node1 -->
<g id="node1" class="node"><title>Node1</title>
<polygon fill="#bfbfbf" stroke="black" points="0,-295.5 0,-325.5 128,-325.5 128,-295.5 0,-295.5"/>
<text text-anchor="start" x="8" y="-313.5" font-family="Helvetica,sans-Serif" font-size="10.00">HelloBye::HelloByeClient</text>
<text text-anchor="middle" x="64" y="-302.5" font-family="Helvetica,sans-Serif" font-size="10.00">Hello::fun</text>
</g>
<!-- Node2 -->
<g id="node2" class="node"><title>Node2</title>
<g id="a_node2"><a xlink:href="classHelloBye_1_1HelloByeClientConfig.html#ad2c4d5874607eab2f221dd9dc8b55e1e" target="_top" xlink:title="HelloBye::HelloByeClient\lConfig::getInstance">
<polygon fill="none" stroke="black" points="172,-579.5 172,-609.5 300,-609.5 300,-579.5 172,-579.5"/>
<text text-anchor="start" x="180" y="-597.5" font-family="Helvetica,sans-Serif" font-size="10.00">HelloBye::HelloByeClient</text>
<text text-anchor="middle" x="236" y="-586.5" font-family="Helvetica,sans-Serif" font-size="10.00">Config::getInstance</text>
</a>
</g>
</g>
<!-- Node1&#45;&gt;Node2 -->
<g id="edge1" class="edge"><title>Node1&#45;&gt;Node2</title>
<path fill="none" stroke="midnightblue" d="M66.4255,-325.751C71.3543,-369.87 91.5759,-498.973 164,-569.5 165.475,-570.936 167.036,-572.29 168.669,-573.566"/>
<polygon fill="midnightblue" stroke="midnightblue" points="167.082,-576.713 177.35,-579.325 170.952,-570.88 167.082,-576.713"/>
</g>
<!-- Node3 -->
<g id="node3" class="node"><title>Node3</title>
<g id="a_node3"><a xlink:href="structHeaders_1_1IPv4.html#a28a6286beded8ad7cd611483f3dcac09" target="_top" xlink:title="Set the version field to 4. ">
<polygon fill="none" stroke="black" points="170.5,-541 170.5,-560 301.5,-560 301.5,-541 170.5,-541"/>
<text text-anchor="middle" x="236" y="-548" font-family="Helvetica,sans-Serif" font-size="10.00">Headers::IPv4::setVersion</text>
</a>
</g>
</g>
<!-- Node1&#45;&gt;Node3 -->
<g id="edge2" class="edge"><title>Node1&#45;&gt;Node3</title>
<path fill="none" stroke="midnightblue" d="M67.26,-325.778C74.0259,-365.931 97.911,-475.203 164,-531.5 165.997,-533.201 168.132,-534.752 170.369,-536.165"/>
<polygon fill="midnightblue" stroke="midnightblue" points="168.954,-539.377 179.43,-540.962 172.229,-533.19 168.954,-539.377"/>
</g>
<!-- Node4 -->
<g id="node4" class="node"><title>Node4</title>
<g id="a_node4"><a xlink:href="structHeaders_1_1IPv4.html#a89ebc78cd618d1ac327bb82e4b46917f" target="_top" xlink:title="Sets the IP header length. ">
<polygon fill="none" stroke="black" points="178.5,-503 178.5,-522 293.5,-522 293.5,-503 178.5,-503"/>
<text text-anchor="middle" x="236" y="-510" font-family="Helvetica,sans-Serif" font-size="10.00">Headers::IPv4::setIHL</text>
</a>
</g>
</g>
<!-- Node1&#45;&gt;Node4 -->
<g id="edge3" class="edge"><title>Node1&#45;&gt;Node4</title>
<path fill="none" stroke="midnightblue" d="M68.7821,-325.719C78.3394,-360.923 106.867,-448.404 164,-493.5 166.301,-495.316 168.76,-496.959 171.331,-498.445"/>
<polygon fill="midnightblue" stroke="midnightblue" points="169.916,-501.65 180.434,-502.92 173.004,-495.368 169.916,-501.65"/>
</g>
<!-- Node5 -->
<g id="node5" class="node"><title>Node5</title>
<g id="a_node5"><a xlink:href="structHeaders_1_1IPv4.html#a6170f8d379d252ca29e8c91f457d1108" target="_top" xlink:title="Headers::IPv4::setLength">
<polygon fill="none" stroke="black" points="172,-465 172,-484 300,-484 300,-465 172,-465"/>
<text text-anchor="middle" x="236" y="-472" font-family="Helvetica,sans-Serif" font-size="10.00">Headers::IPv4::setLength</text>
</a>
</g>
</g>
<!-- Node1&#45;&gt;Node5 -->
<g id="edge4" class="edge"><title>Node1&#45;&gt;Node5</title>
<path fill="none" stroke="midnightblue" d="M71.1185,-325.878C83.778,-355.666 115.756,-421.305 164,-455.5 166.845,-457.516 169.892,-459.319 173.064,-460.93"/>
<polygon fill="midnightblue" stroke="midnightblue" points="171.715,-464.16 182.278,-464.983 174.534,-457.753 171.715,-464.16"/>
</g>
<!-- Node6 -->
<g id="node6" class="node"><title>Node6</title>
<g id="a_node6"><a xlink:href="structHeaders_1_1IPv4.html#ab3379b3b9cf0bda526087c3cc1c9927d" target="_top" xlink:title="Set the destination ip. ">
<polygon fill="none" stroke="black" points="173.5,-427 173.5,-446 298.5,-446 298.5,-427 173.5,-427"/>
<text text-anchor="middle" x="236" y="-434" font-family="Helvetica,sans-Serif" font-size="10.00">Headers::IPv4::setDstIP</text>
</a>
</g>
</g>
<!-- Node1&#45;&gt;Node6 -->
<g id="edge5" class="edge"><title>Node1&#45;&gt;Node6</title>
<path fill="none" stroke="midnightblue" d="M74.8855,-325.804C90.7948,-349.178 124.344,-393.576 164,-417.5 167.626,-419.688 171.505,-421.627 175.511,-423.347"/>
<polygon fill="midnightblue" stroke="midnightblue" points="174.436,-426.683 185.027,-426.971 176.928,-420.141 174.436,-426.683"/>
</g>
<!-- Node7 -->
<g id="node7" class="node"><title>Node7</title>
<g id="a_node7"><a xlink:href="structHeaders_1_1IPv4.html#a4e1023a9cc8055be85956cd29c6fc397" target="_top" xlink:title="Set the source ip. ">
<polygon fill="none" stroke="black" points="174,-389 174,-408 298,-408 298,-389 174,-389"/>
<text text-anchor="middle" x="236" y="-396" font-family="Helvetica,sans-Serif" font-size="10.00">Headers::IPv4::setSrcIP</text>
</a>
</g>
</g>
<!-- Node1&#45;&gt;Node7 -->
<g id="edge6" class="edge"><title>Node1&#45;&gt;Node7</title>
<path fill="none" stroke="midnightblue" d="M82.4427,-325.504C101.365,-341.069 133.033,-365.107 164,-379.5 169.062,-381.853 174.468,-383.957 179.952,-385.827"/>
<polygon fill="midnightblue" stroke="midnightblue" points="179.261,-389.279 189.85,-388.947 181.365,-382.603 179.261,-389.279"/>
</g>
<!-- Node8 -->
<g id="node8" class="node"><title>Node8</title>
<g id="a_node8"><a xlink:href="classHelloBye_1_1HelloByeClientConfig.html#ab6359aa6d88b7f655b562861a6fc82bc" target="_top" xlink:title="HelloBye::HelloByeClient\lConfig::getSrcIP">
<polygon fill="none" stroke="black" points="172,-339.5 172,-369.5 300,-369.5 300,-339.5 172,-339.5"/>
<text text-anchor="start" x="180" y="-357.5" font-family="Helvetica,sans-Serif" font-size="10.00">HelloBye::HelloByeClient</text>
<text text-anchor="middle" x="236" y="-346.5" font-family="Helvetica,sans-Serif" font-size="10.00">Config::getSrcIP</text>
</a>
</g>
</g>
<!-- Node1&#45;&gt;Node8 -->
<g id="edge7" class="edge"><title>Node1&#45;&gt;Node8</title>
<path fill="none" stroke="midnightblue" d="M123.029,-325.519C137.174,-329.18 152.432,-333.129 166.995,-336.899"/>
<polygon fill="midnightblue" stroke="midnightblue" points="166.386,-340.356 176.944,-339.474 168.14,-333.58 166.386,-340.356"/>
</g>
<!-- Node9 -->
<g id="node9" class="node"><title>Node9</title>
<g id="a_node9"><a xlink:href="structHeaders_1_1IPv4.html#a3de15b59ea6a3656f37c63e0c8d83df7" target="_top" xlink:title="Set the protocol to UDP. ">
<polygon fill="none" stroke="black" points="164,-301 164,-320 308,-320 308,-301 164,-301"/>
<text text-anchor="middle" x="236" y="-308" font-family="Helvetica,sans-Serif" font-size="10.00">Headers::IPv4::setProtoUDP</text>
</a>
</g>
</g>
<!-- Node1&#45;&gt;Node9 -->
<g id="edge8" class="edge"><title>Node1&#45;&gt;Node9</title>
<path fill="none" stroke="midnightblue" d="M128.302,-310.5C136.647,-310.5 145.292,-310.5 153.884,-310.5"/>
<polygon fill="midnightblue" stroke="midnightblue" points="153.924,-314 163.924,-310.5 153.924,-307 153.924,-314"/>
</g>
<!-- Node10 -->
<g id="node10" class="node"><title>Node10</title>
<g id="a_node10"><a xlink:href="structHeaders_1_1IPv4.html#acc4a8033c5da9c2ce147ee10e15d2a49" target="_top" xlink:title="Get the SDU. ">
<polygon fill="none" stroke="black" points="169,-263 169,-282 303,-282 303,-263 169,-263"/>
<text text-anchor="middle" x="236" y="-270" font-family="Helvetica,sans-Serif" font-size="10.00">Headers::IPv4::getPayload</text>
</a>
</g>
</g>
<!-- Node1&#45;&gt;Node10 -->
<g id="edge9" class="edge"><title>Node1&#45;&gt;Node10</title>
<path fill="none" stroke="midnightblue" d="M128.302,-296.35C146.136,-292.364 165.336,-288.072 182.466,-284.243"/>
<polygon fill="midnightblue" stroke="midnightblue" points="183.291,-287.645 192.287,-282.048 181.764,-280.813 183.291,-287.645"/>
</g>
<!-- Node11 -->
<g id="node11" class="node"><title>Node11</title>
<g id="a_node11"><a xlink:href="structHeaders_1_1Udp.html#a531f2e8247abf7807c50d806208b7cb1" target="_top" xlink:title="Get the SDU. ">
<polygon fill="none" stroke="black" points="170,-225 170,-244 302,-244 302,-225 170,-225"/>
<text text-anchor="middle" x="236" y="-232" font-family="Helvetica,sans-Serif" font-size="10.00">Headers::Udp::getPayload</text>
</a>
</g>
</g>
<!-- Node1&#45;&gt;Node11 -->
<g id="edge10" class="edge"><title>Node1&#45;&gt;Node11</title>
<path fill="none" stroke="midnightblue" d="M87.3339,-295.372C106.853,-282.715 136.323,-264.939 164,-253.5 169.804,-251.101 176.001,-248.922 182.225,-246.967"/>
<polygon fill="midnightblue" stroke="midnightblue" points="183.38,-250.276 191.975,-244.081 181.393,-243.564 183.38,-250.276"/>
</g>
<!-- Node12 -->
<g id="node12" class="node"><title>Node12</title>
<g id="a_node12"><a xlink:href="structHeaders_1_1Udp.html#ad7860fd7b0f369d39d55aef85a11045a" target="_top" xlink:title="Set the destination port. ">
<polygon fill="none" stroke="black" points="170.5,-187 170.5,-206 301.5,-206 301.5,-187 170.5,-187"/>
<text text-anchor="middle" x="236" y="-194" font-family="Helvetica,sans-Serif" font-size="10.00">Headers::Udp::setDstPort</text>
</a>
</g>
</g>
<!-- Node1&#45;&gt;Node12 -->
<g id="edge11" class="edge"><title>Node1&#45;&gt;Node12</title>
<path fill="none" stroke="midnightblue" d="M76.6833,-295.213C93.627,-274.113 127.06,-236.315 164,-215.5 167.985,-213.255 172.245,-211.266 176.627,-209.505"/>
<polygon fill="midnightblue" stroke="midnightblue" points="178.127,-212.685 186.351,-206.005 175.756,-206.099 178.127,-212.685"/>
</g>
<!-- Node13 -->
<g id="node13" class="node"><title>Node13</title>
<g id="a_node13"><a xlink:href="classHelloBye_1_1HelloByeClientConfig.html#a632d9fcc0cdea73b31e5871ae6b54c24" target="_top" xlink:title="HelloBye::HelloByeClient\lConfig::getDstPort">
<polygon fill="none" stroke="black" points="172,-137.5 172,-167.5 300,-167.5 300,-137.5 172,-137.5"/>
<text text-anchor="start" x="180" y="-155.5" font-family="Helvetica,sans-Serif" font-size="10.00">HelloBye::HelloByeClient</text>
<text text-anchor="middle" x="236" y="-144.5" font-family="Helvetica,sans-Serif" font-size="10.00">Config::getDstPort</text>
</a>
</g>
</g>
<!-- Node1&#45;&gt;Node13 -->
<g id="edge12" class="edge"><title>Node1&#45;&gt;Node13</title>
<path fill="none" stroke="midnightblue" d="M72.3439,-295.436C86.4098,-268.09 119.729,-210.101 164,-177.5 166.498,-175.661 169.142,-173.948 171.885,-172.353"/>
<polygon fill="midnightblue" stroke="midnightblue" points="173.664,-175.374 180.922,-167.655 170.435,-169.163 173.664,-175.374"/>
</g>
<!-- Node14 -->
<g id="node14" class="node"><title>Node14</title>
<g id="a_node14"><a xlink:href="structHeaders_1_1Udp.html#ab28d05a7270cf1537848db896588ca01" target="_top" xlink:title="Set the source port. ">
<polygon fill="none" stroke="black" points="171,-99 171,-118 301,-118 301,-99 171,-99"/>
<text text-anchor="middle" x="236" y="-106" font-family="Helvetica,sans-Serif" font-size="10.00">Headers::Udp::setSrcPort</text>
</a>
</g>
</g>
<!-- Node1&#45;&gt;Node14 -->
<g id="edge13" class="edge"><title>Node1&#45;&gt;Node14</title>
<path fill="none" stroke="midnightblue" d="M68.848,-295.413C78.5457,-260.507 107.352,-173.712 164,-128.5 166.925,-126.166 170.106,-124.104 173.449,-122.283"/>
<polygon fill="midnightblue" stroke="midnightblue" points="175.028,-125.408 182.604,-118.002 172.063,-119.067 175.028,-125.408"/>
</g>
<!-- Node15 -->
<g id="node15" class="node"><title>Node15</title>
<g id="a_node15"><a xlink:href="structHeaders_1_1Udp.html#ac5397a534d246cfa93ac157eee3c565e" target="_top" xlink:title="Set the length of the L4&#45;SDU (UDP payload) ">
<polygon fill="none" stroke="black" points="170,-49.5 170,-79.5 302,-79.5 302,-49.5 170,-49.5"/>
<text text-anchor="start" x="178" y="-67.5" font-family="Helvetica,sans-Serif" font-size="10.00">Headers::Udp::setPayload</text>
<text text-anchor="middle" x="236" y="-56.5" font-family="Helvetica,sans-Serif" font-size="10.00">Length</text>
</a>
</g>
</g>
<!-- Node1&#45;&gt;Node15 -->
<g id="edge14" class="edge"><title>Node1&#45;&gt;Node15</title>
<path fill="none" stroke="midnightblue" d="M67.5627,-295.215C75.0062,-255.516 100.284,-148.159 164,-89.5 165.719,-87.9179 167.543,-86.4348 169.451,-85.0446"/>
<polygon fill="midnightblue" stroke="midnightblue" points="171.652,-87.796 178.275,-79.5258 167.94,-81.8613 171.652,-87.796"/>
</g>
<!-- Node16 -->
<g id="node16" class="node"><title>Node16</title>
<g id="a_node16"><a xlink:href="structStateMachine_1_1State.html#a89a520519a2b8dab5f4ae7a90c2bee83" target="_top" xlink:title="Transition to another state. ">
<polygon fill="none" stroke="black" points="183,-0.5 183,-30.5 289,-30.5 289,-0.5 183,-0.5"/>
<text text-anchor="start" x="191" y="-18.5" font-family="Helvetica,sans-Serif" font-size="10.00">StateMachine::State</text>
<text text-anchor="middle" x="236" y="-7.5" font-family="Helvetica,sans-Serif" font-size="10.00">::transition</text>
</a>
</g>
</g>
<!-- Node1&#45;&gt;Node16 -->
<g id="edge15" class="edge"><title>Node1&#45;&gt;Node16</title>
<path fill="none" stroke="midnightblue" d="M66.1522,-295.265C70.3894,-249.94 89.0311,-114.509 164,-40.5 167.034,-37.5047 170.448,-34.8669 174.096,-32.544"/>
<polygon fill="midnightblue" stroke="midnightblue" points="175.881,-35.5566 182.962,-27.6755 172.512,-29.4207 175.881,-35.5566"/>
</g>
</g>
</svg>
