<?xml version="1.0" encoding="UTF-8" standalone="no"?>
<!DOCTYPE svg PUBLIC "-//W3C//DTD SVG 1.1//EN"
 "http://www.w3.org/Graphics/SVG/1.1/DTD/svg11.dtd">
<!-- Generated by graphviz version 2.40.1 (20161225.0304)
 -->
<!-- Title: HelloBye2::Client::Hello::fun Pages: 1 -->
<svg width="418pt" height="656pt"
 viewBox="0.00 0.00 418.00 656.00" xmlns="http://www.w3.org/2000/svg" xmlns:xlink="http://www.w3.org/1999/xlink">
<g id="graph0" class="graph" transform="scale(1 1) rotate(0) translate(4 652)">
<title>HelloBye2::Client::Hello::fun</title>
<!-- Node1 -->
<g id="node1" class="node">
<title>Node1</title>
<polygon fill="#bfbfbf" stroke="#000000" points="0,-314.5 0,-344.5 99,-344.5 99,-314.5 0,-314.5"/>
<text text-anchor="start" x="8" y="-332.5" font-family="Helvetica,sans-Serif" font-size="10.00" fill="#000000">HelloBye2::Client::</text>
<text text-anchor="middle" x="49.5" y="-321.5" font-family="Helvetica,sans-Serif" font-size="10.00" fill="#000000">Hello::fun</text>
</g>
<!-- Node2 -->
<g id="node2" class="node">
<title>Node2</title>
<g id="a_node2"><a xlink:href="classHelloBye2_1_1HelloBye2ClientConfig.html#a6b4dd49468ee84d6f07789f72df6d4d8" target="_top" xlink:title="HelloBye2::HelloBye2Client\lConfig::getInstance">
<polygon fill="none" stroke="#000000" points="138,-617.5 138,-647.5 276,-647.5 276,-617.5 138,-617.5"/>
<text text-anchor="start" x="146" y="-635.5" font-family="Helvetica,sans-Serif" font-size="10.00" fill="#000000">HelloBye2::HelloBye2Client</text>
<text text-anchor="middle" x="207" y="-624.5" font-family="Helvetica,sans-Serif" font-size="10.00" fill="#000000">Config::getInstance</text>
</a>
</g>
</g>
<!-- Node1&#45;&gt;Node2 -->
<g id="edge1" class="edge">
<title>Node1&#45;&gt;Node2</title>
<path fill="none" stroke="#191970" d="M52.2678,-344.5035C62.1373,-396.5314 97.0475,-568.1629 135,-607.5 136.4126,-608.9641 137.9152,-610.3425 139.4919,-611.6402"/>
<polygon fill="#191970" stroke="#191970" points="137.7065,-614.6612 147.9195,-617.4798 141.6933,-608.9075 137.7065,-614.6612"/>
</g>
<!-- Node3 -->
<g id="node3" class="node">
<title>Node3</title>
<g id="a_node3"><a xlink:href="structHeaders_1_1IPv4.html#a28a6286beded8ad7cd611483f3dcac09" target="_top" xlink:title="Set the version field to 4. ">
<polygon fill="none" stroke="#000000" points="141.5,-579 141.5,-598 272.5,-598 272.5,-579 141.5,-579"/>
<text text-anchor="middle" x="207" y="-586" font-family="Helvetica,sans-Serif" font-size="10.00" fill="#000000">Headers::IPv4::setVersion</text>
</a>
</g>
</g>
<!-- Node1&#45;&gt;Node3 -->
<g id="edge2" class="edge">
<title>Node1&#45;&gt;Node3</title>
<path fill="none" stroke="#191970" d="M50.2255,-344.776C53.088,-387.1405 67.1008,-507.0916 135,-569.5 136.7014,-571.0638 138.5162,-572.5018 140.4203,-573.8241"/>
<polygon fill="#191970" stroke="#191970" points="138.8522,-576.9597 149.266,-578.9104 142.3416,-570.8914 138.8522,-576.9597"/>
</g>
<!-- Node4 -->
<g id="node4" class="node">
<title>Node4</title>
<g id="a_node4"><a xlink:href="structHeaders_1_1IPv4.html#a89ebc78cd618d1ac327bb82e4b46917f" target="_top" xlink:title="Sets the IP header length. ">
<polygon fill="none" stroke="#000000" points="149.5,-541 149.5,-560 264.5,-560 264.5,-541 149.5,-541"/>
<text text-anchor="middle" x="207" y="-548" font-family="Helvetica,sans-Serif" font-size="10.00" fill="#000000">Headers::IPv4::setIHL</text>
</a>
</g>
</g>
<!-- Node1&#45;&gt;Node4 -->
<g id="edge3" class="edge">
<title>Node1&#45;&gt;Node4</title>
<path fill="none" stroke="#191970" d="M51.344,-344.5426C56.7643,-382.0748 76.155,-480.4897 135,-531.5 136.9659,-533.2042 139.0677,-534.7578 141.2719,-536.1741"/>
<polygon fill="#191970" stroke="#191970" points="139.7454,-539.3272 150.2099,-540.9834 143.0622,-533.1629 139.7454,-539.3272"/>
</g>
<!-- Node5 -->
<g id="node5" class="node">
<title>Node5</title>
<g id="a_node5"><a xlink:href="structHeaders_1_1IPv4.html#a6170f8d379d252ca29e8c91f457d1108" target="_top" xlink:title="Headers::IPv4::setLength">
<polygon fill="none" stroke="#000000" points="143,-503 143,-522 271,-522 271,-503 143,-503"/>
<text text-anchor="middle" x="207" y="-510" font-family="Helvetica,sans-Serif" font-size="10.00" fill="#000000">Headers::IPv4::setLength</text>
</a>
</g>
</g>
<!-- Node1&#45;&gt;Node5 -->
<g id="edge4" class="edge">
<title>Node1&#45;&gt;Node5</title>
<path fill="none" stroke="#191970" d="M53.0289,-344.829C61.3469,-377.4122 85.3304,-453.8153 135,-493.5 137.2725,-495.3157 139.7017,-496.959 142.2426,-498.4461"/>
<polygon fill="#191970" stroke="#191970" points="140.7336,-501.6046 151.2459,-502.9247 143.8513,-495.3372 140.7336,-501.6046"/>
</g>
<!-- Node6 -->
<g id="node6" class="node">
<title>Node6</title>
<g id="a_node6"><a xlink:href="structHeaders_1_1IPv4.html#ab3379b3b9cf0bda526087c3cc1c9927d" target="_top" xlink:title="Set the destination ip. ">
<polygon fill="none" stroke="#000000" points="144.5,-465 144.5,-484 269.5,-484 269.5,-465 144.5,-465"/>
<text text-anchor="middle" x="207" y="-472" font-family="Helvetica,sans-Serif" font-size="10.00" fill="#000000">Headers::IPv4::setDstIP</text>
</a>
</g>
</g>
<!-- Node1&#45;&gt;Node6 -->
<g id="edge5" class="edge">
<title>Node1&#45;&gt;Node6</title>
<path fill="none" stroke="#191970" d="M55.4457,-344.5171C66.769,-371.1238 94.0128,-426.4671 135,-455.5 137.8286,-457.5036 140.8545,-459.2959 144.0053,-460.8992"/>
<polygon fill="#191970" stroke="#191970" points="142.5937,-464.1019 153.1557,-464.9358 145.419,-457.6974 142.5937,-464.1019"/>
</g>
<!-- Node7 -->
<g id="node7" class="node">
<title>Node7</title>
<g id="a_node7"><a xlink:href="structHeaders_1_1IPv4.html#a4e1023a9cc8055be85956cd29c6fc397" target="_top" xlink:title="Set the source ip. ">
<polygon fill="none" stroke="#000000" points="145,-427 145,-446 269,-446 269,-427 145,-427"/>
<text text-anchor="middle" x="207" y="-434" font-family="Helvetica,sans-Serif" font-size="10.00" fill="#000000">Headers::IPv4::setSrcIP</text>
</a>
</g>
</g>
<!-- Node1&#45;&gt;Node7 -->
<g id="edge6" class="edge">
<title>Node1&#45;&gt;Node7</title>
<path fill="none" stroke="#191970" d="M60.0963,-344.7055C74.6795,-364.4745 102.8162,-398.6902 135,-417.5 138.7042,-419.6649 142.658,-421.5878 146.7345,-423.2951"/>
<polygon fill="#191970" stroke="#191970" points="145.8164,-426.6881 156.4092,-426.8998 148.2605,-420.1286 145.8164,-426.6881"/>
</g>
<!-- Node8 -->
<g id="node8" class="node">
<title>Node8</title>
<g id="a_node8"><a xlink:href="classHelloBye2_1_1HelloBye2ClientConfig.html#a895576ff2ef1a3450ab21b4a14d53ca0" target="_top" xlink:title="HelloBye2::HelloBye2Client\lConfig::getSrcIP">
<polygon fill="none" stroke="#000000" points="138,-377.5 138,-407.5 276,-407.5 276,-377.5 138,-377.5"/>
<text text-anchor="start" x="146" y="-395.5" font-family="Helvetica,sans-Serif" font-size="10.00" fill="#000000">HelloBye2::HelloBye2Client</text>
<text text-anchor="middle" x="207" y="-384.5" font-family="Helvetica,sans-Serif" font-size="10.00" fill="#000000">Config::getSrcIP</text>
</a>
</g>
</g>
<!-- Node1&#45;&gt;Node8 -->
<g id="edge7" class="edge">
<title>Node1&#45;&gt;Node8</title>
<path fill="none" stroke="#191970" d="M81.7085,-344.5829C97.6145,-351.834 117.1729,-360.4578 135,-367.5 140.5188,-369.6801 146.3134,-371.8635 152.1179,-373.9822"/>
<polygon fill="#191970" stroke="#191970" points="151.2543,-377.3908 161.8488,-377.4747 153.619,-370.8023 151.2543,-377.3908"/>
</g>
<!-- Node9 -->
<g id="node9" class="node">
<title>Node9</title>
<g id="a_node9"><a xlink:href="structHeaders_1_1IPv4.html#a3de15b59ea6a3656f37c63e0c8d83df7" target="_top" xlink:title="Set the protocol to UDP. ">
<polygon fill="none" stroke="#000000" points="135,-339 135,-358 279,-358 279,-339 135,-339"/>
<text text-anchor="middle" x="207" y="-346" font-family="Helvetica,sans-Serif" font-size="10.00" fill="#000000">Headers::IPv4::setProtoUDP</text>
</a>
</g>
</g>
<!-- Node1&#45;&gt;Node9 -->
<g id="edge8" class="edge">
<title>Node1&#45;&gt;Node9</title>
<path fill="none" stroke="#191970" d="M99.334,-335.5117C107.4309,-336.4885 116.0014,-337.5224 124.63,-338.5633"/>
<polygon fill="#191970" stroke="#191970" points="124.4138,-342.0625 134.761,-339.7855 125.2522,-335.1129 124.4138,-342.0625"/>
</g>
<!-- Node10 -->
<g id="node10" class="node">
<title>Node10</title>
<g id="a_node10"><a xlink:href="structHeaders_1_1IPv4.html#acc4a8033c5da9c2ce147ee10e15d2a49" target="_top" xlink:title="Get the SDU. ">
<polygon fill="none" stroke="#000000" points="140,-301 140,-320 274,-320 274,-301 140,-301"/>
<text text-anchor="middle" x="207" y="-308" font-family="Helvetica,sans-Serif" font-size="10.00" fill="#000000">Headers::IPv4::getPayload</text>
</a>
</g>
</g>
<!-- Node1&#45;&gt;Node10 -->
<g id="edge9" class="edge">
<title>Node1&#45;&gt;Node10</title>
<path fill="none" stroke="#191970" d="M99.334,-323.4883C109.1003,-322.3101 119.5556,-321.0488 129.9708,-319.7924"/>
<polygon fill="#191970" stroke="#191970" points="130.4115,-323.2647 139.9203,-318.5922 129.5731,-316.3151 130.4115,-323.2647"/>
</g>
<!-- Node12 -->
<g id="node12" class="node">
<title>Node12</title>
<g id="a_node12"><a xlink:href="structHeaders_1_1Udp.html#a531f2e8247abf7807c50d806208b7cb1" target="_top" xlink:title="Get the SDU. ">
<polygon fill="none" stroke="#000000" points="141,-263 141,-282 273,-282 273,-263 141,-263"/>
<text text-anchor="middle" x="207" y="-270" font-family="Helvetica,sans-Serif" font-size="10.00" fill="#000000">Headers::Udp::getPayload</text>
</a>
</g>
</g>
<!-- Node1&#45;&gt;Node12 -->
<g id="edge11" class="edge">
<title>Node1&#45;&gt;Node12</title>
<path fill="none" stroke="#191970" d="M80.2841,-314.3822C96.3428,-306.8657 116.4579,-298.0198 135,-291.5 141.8755,-289.0825 149.2144,-286.8083 156.4792,-284.7316"/>
<polygon fill="#191970" stroke="#191970" points="157.5792,-288.059 166.2894,-282.0271 155.7188,-281.3107 157.5792,-288.059"/>
</g>
<!-- Node13 -->
<g id="node13" class="node">
<title>Node13</title>
<g id="a_node13"><a xlink:href="structHelloBye2_1_1msg.html#a4176b99eaac8fa68d5e44531ad8eaba0" target="_top" xlink:title="HelloBye2::msg::msg">
<polygon fill="none" stroke="#000000" points="151.5,-225 151.5,-244 262.5,-244 262.5,-225 151.5,-225"/>
<text text-anchor="middle" x="207" y="-232" font-family="Helvetica,sans-Serif" font-size="10.00" fill="#000000">HelloBye2::msg::msg</text>
</a>
</g>
</g>
<!-- Node1&#45;&gt;Node13 -->
<g id="edge12" class="edge">
<title>Node1&#45;&gt;Node13</title>
<path fill="none" stroke="#191970" d="M62.4402,-314.3233C77.9639,-297.073 105.5973,-269.2709 135,-253.5 139.2615,-251.2142 143.8149,-249.1908 148.4839,-247.4018"/>
<polygon fill="#191970" stroke="#191970" points="149.8671,-250.6269 158.1734,-244.05 147.5787,-244.0115 149.8671,-250.6269"/>
</g>
<!-- Node14 -->
<g id="node14" class="node">
<title>Node14</title>
<g id="a_node14"><a xlink:href="structHeaders_1_1Udp.html#ad7860fd7b0f369d39d55aef85a11045a" target="_top" xlink:title="Set the destination port. ">
<polygon fill="none" stroke="#000000" points="141.5,-187 141.5,-206 272.5,-206 272.5,-187 141.5,-187"/>
<text text-anchor="middle" x="207" y="-194" font-family="Helvetica,sans-Serif" font-size="10.00" fill="#000000">Headers::Udp::setDstPort</text>
</a>
</g>
</g>
<!-- Node1&#45;&gt;Node14 -->
<g id="edge13" class="edge">
<title>Node1&#45;&gt;Node14</title>
<path fill="none" stroke="#191970" d="M56.6207,-314.3558C68.9919,-289.7359 96.8318,-241.2026 135,-215.5 138.0762,-213.4285 141.3671,-211.5826 144.786,-209.9379"/>
<polygon fill="#191970" stroke="#191970" points="146.2103,-213.1359 154.0752,-206.037 143.5,-206.6819 146.2103,-213.1359"/>
</g>
<!-- Node15 -->
<g id="node15" class="node">
<title>Node15</title>
<g id="a_node15"><a xlink:href="classHelloBye2_1_1HelloBye2ClientConfig.html#a2aa72b4585c542f88d56ea011b4102cf" target="_top" xlink:title="HelloBye2::HelloBye2Client\lConfig::getDstPort">
<polygon fill="none" stroke="#000000" points="138,-137.5 138,-167.5 276,-167.5 276,-137.5 138,-137.5"/>
<text text-anchor="start" x="146" y="-155.5" font-family="Helvetica,sans-Serif" font-size="10.00" fill="#000000">HelloBye2::HelloBye2Client</text>
<text text-anchor="middle" x="207" y="-144.5" font-family="Helvetica,sans-Serif" font-size="10.00" fill="#000000">Config::getDstPort</text>
</a>
</g>
</g>
<!-- Node1&#45;&gt;Node15 -->
<g id="edge14" class="edge">
<title>Node1&#45;&gt;Node15</title>
<path fill="none" stroke="#191970" d="M54.0344,-314.1723C63.8047,-283.7391 89.7029,-215.3678 135,-177.5 136.9987,-175.8291 139.1157,-174.2674 141.3212,-172.8079"/>
<polygon fill="#191970" stroke="#191970" points="143.2986,-175.7075 150.2024,-167.6708 139.7937,-169.6482 143.2986,-175.7075"/>
</g>
<!-- Node16 -->
<g id="node16" class="node">
<title>Node16</title>
<g id="a_node16"><a xlink:href="structHeaders_1_1Udp.html#ab28d05a7270cf1537848db896588ca01" target="_top" xlink:title="Set the source port. ">
<polygon fill="none" stroke="#000000" points="142,-99 142,-118 272,-118 272,-99 142,-99"/>
<text text-anchor="middle" x="207" y="-106" font-family="Helvetica,sans-Serif" font-size="10.00" fill="#000000">Headers::Udp::setSrcPort</text>
</a>
</g>
</g>
<!-- Node1&#45;&gt;Node16 -->
<g id="edge15" class="edge">
<title>Node1&#45;&gt;Node16</title>
<path fill="none" stroke="#191970" d="M51.4496,-314.3019C57.0746,-276.8546 76.8288,-179.4973 135,-128.5 137.4876,-126.3192 140.194,-124.3744 143.051,-122.6402"/>
<polygon fill="#191970" stroke="#191970" points="144.7068,-125.7245 152.0051,-118.0443 141.5103,-119.4969 144.7068,-125.7245"/>
</g>
<!-- Node17 -->
<g id="node17" class="node">
<title>Node17</title>
<g id="a_node17"><a xlink:href="structHeaders_1_1Udp.html#ac5397a534d246cfa93ac157eee3c565e" target="_top" xlink:title="Set the length of the L4&#45;SDU (UDP payload) ">
<polygon fill="none" stroke="#000000" points="141,-49.5 141,-79.5 273,-79.5 273,-49.5 141,-49.5"/>
<text text-anchor="start" x="149" y="-67.5" font-family="Helvetica,sans-Serif" font-size="10.00" fill="#000000">Headers::Udp::setPayload</text>
<text text-anchor="middle" x="207" y="-56.5" font-family="Helvetica,sans-Serif" font-size="10.00" fill="#000000">Length</text>
</a>
</g>
</g>
<!-- Node1&#45;&gt;Node17 -->
<g id="edge16" class="edge">
<title>Node1&#45;&gt;Node17</title>
<path fill="none" stroke="#191970" d="M50.4761,-314.4865C53.9883,-272.8024 69.5269,-154.4492 135,-89.5 136.4443,-88.0672 137.9749,-86.7164 139.5761,-85.4428"/>
<polygon fill="#191970" stroke="#191970" points="141.7636,-88.1891 148.0988,-79.697 137.8506,-82.385 141.7636,-88.1891"/>
</g>
<!-- Node18 -->
<g id="node18" class="node">
<title>Node18</title>
<g id="a_node18"><a xlink:href="classStateMachine_1_1FunIface.html#af87038e844cd7e3e778252ef1c15ed28" target="_top" xlink:title="Transition to another state. ">
<polygon fill="none" stroke="#000000" points="146.5,-.5 146.5,-30.5 267.5,-30.5 267.5,-.5 146.5,-.5"/>
<text text-anchor="start" x="154.5" y="-18.5" font-family="Helvetica,sans-Serif" font-size="10.00" fill="#000000">StateMachine::FunIface</text>
<text text-anchor="middle" x="207" y="-7.5" font-family="Helvetica,sans-Serif" font-size="10.00" fill="#000000">::transition</text>
</a>
</g>
</g>
<!-- Node1&#45;&gt;Node18 -->
<g id="edge17" class="edge">
<title>Node1&#45;&gt;Node18</title>
<path fill="none" stroke="#191970" d="M52.1192,-314.281C61.6234,-260.665 95.8022,-81.5665 135,-40.5 136.2562,-39.1839 137.5852,-37.937 138.9755,-36.7558"/>
<polygon fill="#191970" stroke="#191970" points="141.4016,-39.3258 147.5291,-30.6826 137.3491,-33.6181 141.4016,-39.3258"/>
</g>
<!-- Node11 -->
<g id="node11" class="node">
<title>Node11</title>
<g id="a_node11"><a xlink:href="structHeaders_1_1IPv4.html#ac6c5485ffca9cffaded18d2ad8d5985a" target="_top" xlink:title="Headers::IPv4::ihl">
<polygon fill="none" stroke="#000000" points="315,-301 315,-320 410,-320 410,-301 315,-301"/>
<text text-anchor="middle" x="362.5" y="-308" font-family="Helvetica,sans-Serif" font-size="10.00" fill="#000000">Headers::IPv4::ihl</text>
</a>
</g>
</g>
<!-- Node10&#45;&gt;Node11 -->
<g id="edge10" class="edge">
<title>Node10&#45;&gt;Node11</title>
<path fill="none" stroke="#191970" d="M274.3002,-310.5C284.4129,-310.5 294.7658,-310.5 304.6577,-310.5"/>
<polygon fill="#191970" stroke="#191970" points="304.7699,-314.0001 314.7699,-310.5 304.7699,-307.0001 304.7699,-314.0001"/>
</g>
</g>
</svg>
