<?xml version="1.0" encoding="UTF-8" standalone="no"?>
<!DOCTYPE svg PUBLIC "-//W3C//DTD SVG 1.1//EN"
 "http://www.w3.org/Graphics/SVG/1.1/DTD/svg11.dtd">
<!-- Generated by graphviz version 2.38.0 (20140413.2041)
 -->
<!-- Title: HelloBye2::Identifier::identify Pages: 1 -->
<svg width="283pt" height="127pt"
 viewBox="0.00 0.00 283.00 126.50" xmlns="http://www.w3.org/2000/svg" xmlns:xlink="http://www.w3.org/1999/xlink">
<g id="graph0" class="graph" transform="scale(1 1) rotate(0) translate(4 122.5)">
<title>HelloBye2::Identifier::identify</title>
<!-- Node1 -->
<g id="node1" class="node"><title>Node1</title>
<polygon fill="#bfbfbf" stroke="black" points="0,-39 0,-69 105,-69 105,-39 0,-39"/>
<text text-anchor="start" x="8" y="-57" font-family="Helvetica,sans-Serif" font-size="10.00">HelloBye2::Identifier</text>
<text text-anchor="middle" x="52.5" y="-46" font-family="Helvetica,sans-Serif" font-size="10.00">::identify</text>
</g>
<!-- Node2 -->
<g id="node2" class="node"><title>Node2</title>
<g id="a_node2"><a xlink:href="structHeaders_1_1Ethernet.html#a8bcb704a54b71a667195d73accd465be" target="_top" xlink:title="Get the ethertype. ">
<polygon fill="none" stroke="black" points="157,-88 157,-118 259,-118 259,-88 157,-88"/>
<text text-anchor="start" x="165" y="-106" font-family="Helvetica,sans-Serif" font-size="10.00">Headers::Ethernet::</text>
<text text-anchor="middle" x="208" y="-95" font-family="Helvetica,sans-Serif" font-size="10.00">getEthertype</text>
</a>
</g>
</g>
<!-- Node1&#45;&gt;Node2 -->
<g id="edge1" class="edge"><title>Node1&#45;&gt;Node2</title>
<path fill="none" stroke="midnightblue" d="M100.808,-69.1014C116.346,-74.0615 133.782,-79.6274 149.963,-84.7929"/>
<polygon fill="midnightblue" stroke="midnightblue" points="149.258,-88.2416 159.849,-87.9484 151.387,-81.5731 149.258,-88.2416"/>
</g>
<!-- Node3 -->
<g id="node3" class="node"><title>Node3</title>
<g id="a_node3"><a xlink:href="structHeaders_1_1Ethernet.html#ad59e9fe1ec95b8e2ed11f97b44a20650" target="_top" xlink:title="Get the SDU. ">
<polygon fill="none" stroke="black" points="157,-39 157,-69 259,-69 259,-39 157,-39"/>
<text text-anchor="start" x="165" y="-57" font-family="Helvetica,sans-Serif" font-size="10.00">Headers::Ethernet::</text>
<text text-anchor="middle" x="208" y="-46" font-family="Helvetica,sans-Serif" font-size="10.00">getPayload</text>
</a>
</g>
</g>
<!-- Node1&#45;&gt;Node3 -->
<g id="edge2" class="edge"><title>Node1&#45;&gt;Node3</title>
<path fill="none" stroke="midnightblue" d="M105.04,-54C118.366,-54 132.832,-54 146.568,-54"/>
<polygon fill="midnightblue" stroke="midnightblue" points="146.898,-57.5001 156.898,-54 146.898,-50.5001 146.898,-57.5001"/>
</g>
<!-- Node4 -->
<g id="node4" class="node"><title>Node4</title>
<g id="a_node4"><a xlink:href="structHeaders_1_1IPv4.html#acc4a8033c5da9c2ce147ee10e15d2a49" target="_top" xlink:title="Get the SDU. ">
<polygon fill="none" stroke="black" points="141,-0.5 141,-19.5 275,-19.5 275,-0.5 141,-0.5"/>
<text text-anchor="middle" x="208" y="-7.5" font-family="Helvetica,sans-Serif" font-size="10.00">Headers::IPv4::getPayload</text>
</a>
</g>
</g>
<!-- Node1&#45;&gt;Node4 -->
<g id="edge3" class="edge"><title>Node1&#45;&gt;Node4</title>
<path fill="none" stroke="midnightblue" d="M105.04,-39.2262C124.147,-33.7494 145.599,-27.6004 163.878,-22.3606"/>
<polygon fill="midnightblue" stroke="midnightblue" points="165.024,-25.6733 173.672,-19.5533 163.095,-18.9443 165.024,-25.6733"/>
</g>
</g>
</svg>
