<?xml version="1.0" encoding="UTF-8" standalone="no"?>
<!DOCTYPE svg PUBLIC "-//W3C//DTD SVG 1.1//EN"
 "http://www.w3.org/Graphics/SVG/1.1/DTD/svg11.dtd">
<!-- Generated by graphviz version 2.38.0 (20140413.2041)
 -->
<!-- Title: HelloBye::HelloByeClientBye::run Pages: 1 -->
<svg width="470pt" height="165pt"
 viewBox="0.00 0.00 470.00 165.00" xmlns="http://www.w3.org/2000/svg" xmlns:xlink="http://www.w3.org/1999/xlink">
<g id="graph0" class="graph" transform="scale(1 1) rotate(0) translate(4 161)">
<title>HelloBye::HelloByeClientBye::run</title>
<!-- Node1 -->
<g id="node1" class="node"><title>Node1</title>
<polygon fill="#bfbfbf" stroke="black" points="0,-63.5 0,-93.5 128,-93.5 128,-63.5 0,-63.5"/>
<text text-anchor="start" x="8" y="-81.5" font-family="Helvetica,sans-Serif" font-size="10.00">HelloBye::HelloByeClient</text>
<text text-anchor="middle" x="64" y="-70.5" font-family="Helvetica,sans-Serif" font-size="10.00">Bye::run</text>
</g>
<!-- Node2 -->
<g id="node2" class="node"><title>Node2</title>
<g id="a_node2"><a xlink:href="classHelloBye_1_1HelloByeClientBye.html#a5bbbda4a948adac4b2b702d73f9b96aa" target="_top" xlink:title="HelloBye::HelloByeClient\lBye::fun">
<polygon fill="none" stroke="black" points="164,-63.5 164,-93.5 292,-93.5 292,-63.5 164,-63.5"/>
<text text-anchor="start" x="172" y="-81.5" font-family="Helvetica,sans-Serif" font-size="10.00">HelloBye::HelloByeClient</text>
<text text-anchor="middle" x="228" y="-70.5" font-family="Helvetica,sans-Serif" font-size="10.00">Bye::fun</text>
</a>
</g>
</g>
<!-- Node1&#45;&gt;Node2 -->
<g id="edge1" class="edge"><title>Node1&#45;&gt;Node2</title>
<path fill="none" stroke="midnightblue" d="M128.097,-78.5C136.435,-78.5 145.038,-78.5 153.53,-78.5"/>
<polygon fill="midnightblue" stroke="midnightblue" points="153.808,-82.0001 163.808,-78.5 153.808,-75.0001 153.808,-82.0001"/>
</g>
<!-- Node3 -->
<g id="node3" class="node"><title>Node3</title>
<g id="a_node3"><a xlink:href="structHeaders_1_1Ethernet.html#ad59e9fe1ec95b8e2ed11f97b44a20650" target="_top" xlink:title="Get the SDU. ">
<polygon fill="none" stroke="black" points="344,-126.5 344,-156.5 446,-156.5 446,-126.5 344,-126.5"/>
<text text-anchor="start" x="352" y="-144.5" font-family="Helvetica,sans-Serif" font-size="10.00">Headers::Ethernet::</text>
<text text-anchor="middle" x="395" y="-133.5" font-family="Helvetica,sans-Serif" font-size="10.00">getPayload</text>
</a>
</g>
</g>
<!-- Node2&#45;&gt;Node3 -->
<g id="edge2" class="edge"><title>Node2&#45;&gt;Node3</title>
<path fill="none" stroke="midnightblue" d="M268.012,-93.5197C286.231,-100.522 308.218,-108.957 328,-116.5 333.427,-118.57 339.108,-120.73 344.762,-122.876"/>
<polygon fill="midnightblue" stroke="midnightblue" points="343.611,-126.183 354.202,-126.458 346.094,-119.638 343.611,-126.183"/>
</g>
<!-- Node4 -->
<g id="node4" class="node"><title>Node4</title>
<g id="a_node4"><a xlink:href="structHeaders_1_1IPv4.html#acc4a8033c5da9c2ce147ee10e15d2a49" target="_top" xlink:title="Get the SDU. ">
<polygon fill="none" stroke="black" points="328,-88 328,-107 462,-107 462,-88 328,-88"/>
<text text-anchor="middle" x="395" y="-95" font-family="Helvetica,sans-Serif" font-size="10.00">Headers::IPv4::getPayload</text>
</a>
</g>
</g>
<!-- Node2&#45;&gt;Node4 -->
<g id="edge3" class="edge"><title>Node2&#45;&gt;Node4</title>
<path fill="none" stroke="midnightblue" d="M292.321,-85.7916C300.682,-86.7543 309.322,-87.7492 317.869,-88.7334"/>
<polygon fill="midnightblue" stroke="midnightblue" points="317.504,-92.2144 327.839,-89.8815 318.305,-85.2604 317.504,-92.2144"/>
</g>
<!-- Node5 -->
<g id="node5" class="node"><title>Node5</title>
<g id="a_node5"><a xlink:href="structHeaders_1_1Udp.html#a531f2e8247abf7807c50d806208b7cb1" target="_top" xlink:title="Get the SDU. ">
<polygon fill="none" stroke="black" points="329,-50 329,-69 461,-69 461,-50 329,-50"/>
<text text-anchor="middle" x="395" y="-57" font-family="Helvetica,sans-Serif" font-size="10.00">Headers::Udp::getPayload</text>
</a>
</g>
</g>
<!-- Node2&#45;&gt;Node5 -->
<g id="edge4" class="edge"><title>Node2&#45;&gt;Node5</title>
<path fill="none" stroke="midnightblue" d="M292.321,-71.2084C301.037,-70.2048 310.056,-69.1663 318.957,-68.1413"/>
<polygon fill="midnightblue" stroke="midnightblue" points="319.402,-71.6133 328.936,-66.9923 318.601,-64.6593 319.402,-71.6133"/>
</g>
<!-- Node6 -->
<g id="node6" class="node"><title>Node6</title>
<g id="a_node6"><a xlink:href="structStateMachine_1_1State.html#a89a520519a2b8dab5f4ae7a90c2bee83" target="_top" xlink:title="Transition to another state. ">
<polygon fill="none" stroke="black" points="342,-0.5 342,-30.5 448,-30.5 448,-0.5 342,-0.5"/>
<text text-anchor="start" x="350" y="-18.5" font-family="Helvetica,sans-Serif" font-size="10.00">StateMachine::State</text>
<text text-anchor="middle" x="395" y="-7.5" font-family="Helvetica,sans-Serif" font-size="10.00">::transition</text>
</a>
</g>
</g>
<!-- Node2&#45;&gt;Node6 -->
<g id="edge5" class="edge"><title>Node2&#45;&gt;Node6</title>
<path fill="none" stroke="midnightblue" d="M268.012,-63.4803C286.231,-56.4776 308.218,-48.0432 328,-40.5 333.427,-38.4305 339.108,-36.2701 344.762,-34.1235"/>
<polygon fill="midnightblue" stroke="midnightblue" points="346.094,-37.3617 354.202,-30.5425 343.611,-30.8168 346.094,-37.3617"/>
</g>
</g>
</svg>
