<?xml version="1.0" encoding="UTF-8" standalone="no"?>
<!DOCTYPE svg PUBLIC "-//W3C//DTD SVG 1.1//EN"
 "http://www.w3.org/Graphics/SVG/1.1/DTD/svg11.dtd">
<!-- Generated by graphviz version 2.38.0 (20140413.2041)
 -->
<!-- Title: HelloBye2::Server::Bye::run Pages: 1 -->
<svg width="418pt" height="203pt"
 viewBox="0.00 0.00 418.00 203.00" xmlns="http://www.w3.org/2000/svg" xmlns:xlink="http://www.w3.org/1999/xlink">
<g id="graph0" class="graph" transform="scale(1 1) rotate(0) translate(4 199)">
<title>HelloBye2::Server::Bye::run</title>
<!-- Node1 -->
<g id="node1" class="node"><title>Node1</title>
<polygon fill="#bfbfbf" stroke="black" points="0,-82.5 0,-112.5 102,-112.5 102,-82.5 0,-82.5"/>
<text text-anchor="start" x="8" y="-100.5" font-family="Helvetica,sans-Serif" font-size="10.00">HelloBye2::Server::</text>
<text text-anchor="middle" x="51" y="-89.5" font-family="Helvetica,sans-Serif" font-size="10.00">Bye::run</text>
</g>
<!-- Node2 -->
<g id="node2" class="node"><title>Node2</title>
<g id="a_node2"><a xlink:href="classHelloBye2_1_1Server_1_1Bye.html#afbb58c9ff07346606185c10ccfb82b67" target="_top" xlink:title="HelloBye2::Server::\lBye::fun">
<polygon fill="none" stroke="black" points="138,-82.5 138,-112.5 240,-112.5 240,-82.5 138,-82.5"/>
<text text-anchor="start" x="146" y="-100.5" font-family="Helvetica,sans-Serif" font-size="10.00">HelloBye2::Server::</text>
<text text-anchor="middle" x="189" y="-89.5" font-family="Helvetica,sans-Serif" font-size="10.00">Bye::fun</text>
</a>
</g>
</g>
<!-- Node1&#45;&gt;Node2 -->
<g id="edge1" class="edge"><title>Node1&#45;&gt;Node2</title>
<path fill="none" stroke="midnightblue" d="M102.255,-97.5C110.539,-97.5 119.201,-97.5 127.701,-97.5"/>
<polygon fill="midnightblue" stroke="midnightblue" points="127.952,-101 137.952,-97.5 127.952,-94.0001 127.952,-101"/>
</g>
<!-- Node3 -->
<g id="node3" class="node"><title>Node3</title>
<g id="a_node3"><a xlink:href="structHeaders_1_1Ethernet.html#ad59e9fe1ec95b8e2ed11f97b44a20650" target="_top" xlink:title="Get the SDU. ">
<polygon fill="none" stroke="black" points="292,-164.5 292,-194.5 394,-194.5 394,-164.5 292,-164.5"/>
<text text-anchor="start" x="300" y="-182.5" font-family="Helvetica,sans-Serif" font-size="10.00">Headers::Ethernet::</text>
<text text-anchor="middle" x="343" y="-171.5" font-family="Helvetica,sans-Serif" font-size="10.00">getPayload</text>
</a>
</g>
</g>
<!-- Node2&#45;&gt;Node3 -->
<g id="edge2" class="edge"><title>Node2&#45;&gt;Node3</title>
<path fill="none" stroke="midnightblue" d="M210.065,-112.668C227.013,-125.013 252.25,-142.325 276,-154.5 280.034,-156.568 284.281,-158.561 288.595,-160.456"/>
<polygon fill="midnightblue" stroke="midnightblue" points="287.513,-163.798 298.088,-164.443 290.224,-157.344 287.513,-163.798"/>
</g>
<!-- Node4 -->
<g id="node4" class="node"><title>Node4</title>
<g id="a_node4"><a xlink:href="structHeaders_1_1IPv4.html#acc4a8033c5da9c2ce147ee10e15d2a49" target="_top" xlink:title="Get the SDU. ">
<polygon fill="none" stroke="black" points="276,-126 276,-145 410,-145 410,-126 276,-126"/>
<text text-anchor="middle" x="343" y="-133" font-family="Helvetica,sans-Serif" font-size="10.00">Headers::IPv4::getPayload</text>
</a>
</g>
</g>
<!-- Node2&#45;&gt;Node4 -->
<g id="edge3" class="edge"><title>Node2&#45;&gt;Node4</title>
<path fill="none" stroke="midnightblue" d="M240.192,-110.048C257.54,-114.385 276.925,-119.231 294.086,-123.522"/>
<polygon fill="midnightblue" stroke="midnightblue" points="293.351,-126.945 303.901,-125.975 295.049,-120.154 293.351,-126.945"/>
</g>
<!-- Node5 -->
<g id="node5" class="node"><title>Node5</title>
<g id="a_node5"><a xlink:href="structHeaders_1_1Udp.html#a531f2e8247abf7807c50d806208b7cb1" target="_top" xlink:title="Get the SDU. ">
<polygon fill="none" stroke="black" points="277,-88 277,-107 409,-107 409,-88 277,-88"/>
<text text-anchor="middle" x="343" y="-95" font-family="Helvetica,sans-Serif" font-size="10.00">Headers::Udp::getPayload</text>
</a>
</g>
</g>
<!-- Node2&#45;&gt;Node5 -->
<g id="edge4" class="edge"><title>Node2&#45;&gt;Node5</title>
<path fill="none" stroke="midnightblue" d="M240.192,-97.5C248.736,-97.5 257.775,-97.5 266.798,-97.5"/>
<polygon fill="midnightblue" stroke="midnightblue" points="266.953,-101 276.953,-97.5 266.953,-94.0001 266.953,-101"/>
</g>
<!-- Node6 -->
<g id="node6" class="node"><title>Node6</title>
<g id="a_node6"><a xlink:href="structHelloBye2_1_1msg.html#a4176b99eaac8fa68d5e44531ad8eaba0" target="_top" xlink:title="HelloBye2::msg::msg">
<polygon fill="none" stroke="black" points="287.5,-50 287.5,-69 398.5,-69 398.5,-50 287.5,-50"/>
<text text-anchor="middle" x="343" y="-57" font-family="Helvetica,sans-Serif" font-size="10.00">HelloBye2::msg::msg</text>
</a>
</g>
</g>
<!-- Node2&#45;&gt;Node6 -->
<g id="edge5" class="edge"><title>Node2&#45;&gt;Node6</title>
<path fill="none" stroke="midnightblue" d="M240.192,-84.9521C257.54,-80.6149 276.925,-75.7687 294.086,-71.4784"/>
<polygon fill="midnightblue" stroke="midnightblue" points="295.049,-74.8456 303.901,-69.0246 293.351,-68.0546 295.049,-74.8456"/>
</g>
<!-- Node7 -->
<g id="node7" class="node"><title>Node7</title>
<g id="a_node7"><a xlink:href="classStateMachine_1_1FunIface.html#af87038e844cd7e3e778252ef1c15ed28" target="_top" xlink:title="Transition to another state. ">
<polygon fill="none" stroke="black" points="282.5,-0.5 282.5,-30.5 403.5,-30.5 403.5,-0.5 282.5,-0.5"/>
<text text-anchor="start" x="290.5" y="-18.5" font-family="Helvetica,sans-Serif" font-size="10.00">StateMachine::FunIface</text>
<text text-anchor="middle" x="343" y="-7.5" font-family="Helvetica,sans-Serif" font-size="10.00">::transition</text>
</a>
</g>
</g>
<!-- Node2&#45;&gt;Node7 -->
<g id="edge6" class="edge"><title>Node2&#45;&gt;Node7</title>
<path fill="none" stroke="midnightblue" d="M210.065,-82.3317C227.013,-69.987 252.25,-52.6752 276,-40.5 280.034,-38.4319 284.281,-36.4393 288.595,-34.5437"/>
<polygon fill="midnightblue" stroke="midnightblue" points="290.224,-37.656 298.088,-30.5571 287.513,-31.2019 290.224,-37.656"/>
</g>
</g>
</svg>
