<?xml version="1.0" encoding="UTF-8" standalone="no"?>
<!DOCTYPE svg PUBLIC "-//W3C//DTD SVG 1.1//EN"
 "http://www.w3.org/Graphics/SVG/1.1/DTD/svg11.dtd">
<!-- Generated by graphviz version 2.38.0 (20140413.2041)
 -->
<!-- Title: HelloBye2::Client::Bye::fun Pages: 1 -->
<svg width="277pt" height="203pt"
 viewBox="0.00 0.00 277.00 203.00" xmlns="http://www.w3.org/2000/svg" xmlns:xlink="http://www.w3.org/1999/xlink">
<g id="graph0" class="graph" transform="scale(1 1) rotate(0) translate(4 199)">
<title>HelloBye2::Client::Bye::fun</title>
<!-- Node1 -->
<g id="node1" class="node"><title>Node1</title>
<polygon fill="#bfbfbf" stroke="black" points="0,-82.5 0,-112.5 99,-112.5 99,-82.5 0,-82.5"/>
<text text-anchor="start" x="8" y="-100.5" font-family="Helvetica,sans-Serif" font-size="10.00">HelloBye2::Client::</text>
<text text-anchor="middle" x="49.5" y="-89.5" font-family="Helvetica,sans-Serif" font-size="10.00">Bye::fun</text>
</g>
<!-- Node2 -->
<g id="node2" class="node"><title>Node2</title>
<g id="a_node2"><a xlink:href="structHeaders_1_1Ethernet.html#ad59e9fe1ec95b8e2ed11f97b44a20650" target="_top" xlink:title="Get the SDU. ">
<polygon fill="none" stroke="black" points="151,-164.5 151,-194.5 253,-194.5 253,-164.5 151,-164.5"/>
<text text-anchor="start" x="159" y="-182.5" font-family="Helvetica,sans-Serif" font-size="10.00">Headers::Ethernet::</text>
<text text-anchor="middle" x="202" y="-171.5" font-family="Helvetica,sans-Serif" font-size="10.00">getPayload</text>
</a>
</g>
</g>
<!-- Node1&#45;&gt;Node2 -->
<g id="edge1" class="edge"><title>Node1&#45;&gt;Node2</title>
<path fill="none" stroke="midnightblue" d="M70.1746,-112.696C86.8019,-125.056 111.586,-142.377 135,-154.5 139.026,-156.585 143.267,-158.589 147.576,-160.492"/>
<polygon fill="midnightblue" stroke="midnightblue" points="146.489,-163.832 157.064,-164.491 149.208,-157.382 146.489,-163.832"/>
</g>
<!-- Node3 -->
<g id="node3" class="node"><title>Node3</title>
<g id="a_node3"><a xlink:href="structHeaders_1_1IPv4.html#acc4a8033c5da9c2ce147ee10e15d2a49" target="_top" xlink:title="Get the SDU. ">
<polygon fill="none" stroke="black" points="135,-126 135,-145 269,-145 269,-126 135,-126"/>
<text text-anchor="middle" x="202" y="-133" font-family="Helvetica,sans-Serif" font-size="10.00">Headers::IPv4::getPayload</text>
</a>
</g>
</g>
<!-- Node1&#45;&gt;Node3 -->
<g id="edge2" class="edge"><title>Node1&#45;&gt;Node3</title>
<path fill="none" stroke="midnightblue" d="M99.363,-109.838C116.726,-114.222 136.235,-119.147 153.484,-123.503"/>
<polygon fill="midnightblue" stroke="midnightblue" points="152.793,-126.938 163.346,-125.993 154.507,-120.151 152.793,-126.938"/>
</g>
<!-- Node4 -->
<g id="node4" class="node"><title>Node4</title>
<g id="a_node4"><a xlink:href="structHeaders_1_1Udp.html#a531f2e8247abf7807c50d806208b7cb1" target="_top" xlink:title="Get the SDU. ">
<polygon fill="none" stroke="black" points="136,-88 136,-107 268,-107 268,-88 136,-88"/>
<text text-anchor="middle" x="202" y="-95" font-family="Helvetica,sans-Serif" font-size="10.00">Headers::Udp::getPayload</text>
</a>
</g>
</g>
<!-- Node1&#45;&gt;Node4 -->
<g id="edge3" class="edge"><title>Node1&#45;&gt;Node4</title>
<path fill="none" stroke="midnightblue" d="M99.363,-97.5C107.844,-97.5 116.837,-97.5 125.829,-97.5"/>
<polygon fill="midnightblue" stroke="midnightblue" points="125.953,-101 135.953,-97.5 125.953,-94.0001 125.953,-101"/>
</g>
<!-- Node5 -->
<g id="node5" class="node"><title>Node5</title>
<g id="a_node5"><a xlink:href="structHelloBye2_1_1msg.html#a4176b99eaac8fa68d5e44531ad8eaba0" target="_top" xlink:title="HelloBye2::msg::msg">
<polygon fill="none" stroke="black" points="146.5,-50 146.5,-69 257.5,-69 257.5,-50 146.5,-50"/>
<text text-anchor="middle" x="202" y="-57" font-family="Helvetica,sans-Serif" font-size="10.00">HelloBye2::msg::msg</text>
</a>
</g>
</g>
<!-- Node1&#45;&gt;Node5 -->
<g id="edge4" class="edge"><title>Node1&#45;&gt;Node5</title>
<path fill="none" stroke="midnightblue" d="M99.363,-85.1625C116.726,-80.7784 136.235,-75.8525 153.484,-71.4973"/>
<polygon fill="midnightblue" stroke="midnightblue" points="154.507,-74.8491 163.346,-69.0074 152.793,-68.0621 154.507,-74.8491"/>
</g>
<!-- Node6 -->
<g id="node6" class="node"><title>Node6</title>
<g id="a_node6"><a xlink:href="classStateMachine_1_1FunIface.html#af87038e844cd7e3e778252ef1c15ed28" target="_top" xlink:title="Transition to another state. ">
<polygon fill="none" stroke="black" points="141.5,-0.5 141.5,-30.5 262.5,-30.5 262.5,-0.5 141.5,-0.5"/>
<text text-anchor="start" x="149.5" y="-18.5" font-family="Helvetica,sans-Serif" font-size="10.00">StateMachine::FunIface</text>
<text text-anchor="middle" x="202" y="-7.5" font-family="Helvetica,sans-Serif" font-size="10.00">::transition</text>
</a>
</g>
</g>
<!-- Node1&#45;&gt;Node6 -->
<g id="edge5" class="edge"><title>Node1&#45;&gt;Node6</title>
<path fill="none" stroke="midnightblue" d="M70.1746,-82.3045C86.8019,-69.9437 111.586,-52.6233 135,-40.5 139.026,-38.4155 143.267,-36.4113 147.576,-34.5078"/>
<polygon fill="midnightblue" stroke="midnightblue" points="149.208,-37.6183 157.064,-30.5092 146.489,-31.1678 149.208,-37.6183"/>
</g>
</g>
</svg>
