<?xml version="1.0" encoding="UTF-8" standalone="no"?>
<!DOCTYPE svg PUBLIC "-//W3C//DTD SVG 1.1//EN"
 "http://www.w3.org/Graphics/SVG/1.1/DTD/svg11.dtd">
<!-- Generated by graphviz version 2.38.0 (20140413.2041)
 -->
<!-- Title: HelloBye::HelloByeClientHello::run Pages: 1 -->
<svg width="480pt" height="618pt"
 viewBox="0.00 0.00 480.00 618.00" xmlns="http://www.w3.org/2000/svg" xmlns:xlink="http://www.w3.org/1999/xlink">
<g id="graph0" class="graph" transform="scale(1 1) rotate(0) translate(4 614)">
<title>HelloBye::HelloByeClientHello::run</title>
<!-- Node1 -->
<g id="node1" class="node"><title>Node1</title>
<polygon fill="#bfbfbf" stroke="black" points="0,-295.5 0,-325.5 128,-325.5 128,-295.5 0,-295.5"/>
<text text-anchor="start" x="8" y="-313.5" font-family="Helvetica,sans-Serif" font-size="10.00">HelloBye::HelloByeClient</text>
<text text-anchor="middle" x="64" y="-302.5" font-family="Helvetica,sans-Serif" font-size="10.00">Hello::run</text>
</g>
<!-- Node2 -->
<g id="node2" class="node"><title>Node2</title>
<g id="a_node2"><a xlink:href="classHelloBye_1_1HelloByeClientHello.html#a5195cb1265576c48fe9d64adeaa5e92b" target="_top" xlink:title="HelloBye::HelloByeClient\lHello::fun">
<polygon fill="none" stroke="black" points="164,-295.5 164,-325.5 292,-325.5 292,-295.5 164,-295.5"/>
<text text-anchor="start" x="172" y="-313.5" font-family="Helvetica,sans-Serif" font-size="10.00">HelloBye::HelloByeClient</text>
<text text-anchor="middle" x="228" y="-302.5" font-family="Helvetica,sans-Serif" font-size="10.00">Hello::fun</text>
</a>
</g>
</g>
<!-- Node1&#45;&gt;Node2 -->
<g id="edge1" class="edge"><title>Node1&#45;&gt;Node2</title>
<path fill="none" stroke="midnightblue" d="M128.097,-310.5C136.435,-310.5 145.038,-310.5 153.53,-310.5"/>
<polygon fill="midnightblue" stroke="midnightblue" points="153.808,-314 163.808,-310.5 153.808,-307 153.808,-314"/>
</g>
<!-- Node3 -->
<g id="node3" class="node"><title>Node3</title>
<g id="a_node3"><a xlink:href="classHelloBye_1_1HelloByeClientConfig.html#ad2c4d5874607eab2f221dd9dc8b55e1e" target="_top" xlink:title="HelloBye::HelloByeClient\lConfig::getInstance">
<polygon fill="none" stroke="black" points="336,-579.5 336,-609.5 464,-609.5 464,-579.5 336,-579.5"/>
<text text-anchor="start" x="344" y="-597.5" font-family="Helvetica,sans-Serif" font-size="10.00">HelloBye::HelloByeClient</text>
<text text-anchor="middle" x="400" y="-586.5" font-family="Helvetica,sans-Serif" font-size="10.00">Config::getInstance</text>
</a>
</g>
</g>
<!-- Node2&#45;&gt;Node3 -->
<g id="edge2" class="edge"><title>Node2&#45;&gt;Node3</title>
<path fill="none" stroke="midnightblue" d="M230.425,-325.751C235.354,-369.87 255.576,-498.973 328,-569.5 329.475,-570.936 331.036,-572.29 332.669,-573.566"/>
<polygon fill="midnightblue" stroke="midnightblue" points="331.082,-576.713 341.35,-579.325 334.952,-570.88 331.082,-576.713"/>
</g>
<!-- Node4 -->
<g id="node4" class="node"><title>Node4</title>
<g id="a_node4"><a xlink:href="structHeaders_1_1IPv4.html#a28a6286beded8ad7cd611483f3dcac09" target="_top" xlink:title="Set the version field to 4. ">
<polygon fill="none" stroke="black" points="334.5,-541 334.5,-560 465.5,-560 465.5,-541 334.5,-541"/>
<text text-anchor="middle" x="400" y="-548" font-family="Helvetica,sans-Serif" font-size="10.00">Headers::IPv4::setVersion</text>
</a>
</g>
</g>
<!-- Node2&#45;&gt;Node4 -->
<g id="edge3" class="edge"><title>Node2&#45;&gt;Node4</title>
<path fill="none" stroke="midnightblue" d="M231.26,-325.778C238.026,-365.931 261.911,-475.203 328,-531.5 329.997,-533.201 332.132,-534.752 334.369,-536.165"/>
<polygon fill="midnightblue" stroke="midnightblue" points="332.954,-539.377 343.43,-540.962 336.229,-533.19 332.954,-539.377"/>
</g>
<!-- Node5 -->
<g id="node5" class="node"><title>Node5</title>
<g id="a_node5"><a xlink:href="structHeaders_1_1IPv4.html#a89ebc78cd618d1ac327bb82e4b46917f" target="_top" xlink:title="Sets the IP header length. ">
<polygon fill="none" stroke="black" points="342.5,-503 342.5,-522 457.5,-522 457.5,-503 342.5,-503"/>
<text text-anchor="middle" x="400" y="-510" font-family="Helvetica,sans-Serif" font-size="10.00">Headers::IPv4::setIHL</text>
</a>
</g>
</g>
<!-- Node2&#45;&gt;Node5 -->
<g id="edge4" class="edge"><title>Node2&#45;&gt;Node5</title>
<path fill="none" stroke="midnightblue" d="M232.782,-325.719C242.339,-360.923 270.867,-448.404 328,-493.5 330.301,-495.316 332.76,-496.959 335.331,-498.445"/>
<polygon fill="midnightblue" stroke="midnightblue" points="333.916,-501.65 344.434,-502.92 337.004,-495.368 333.916,-501.65"/>
</g>
<!-- Node6 -->
<g id="node6" class="node"><title>Node6</title>
<g id="a_node6"><a xlink:href="structHeaders_1_1IPv4.html#a6170f8d379d252ca29e8c91f457d1108" target="_top" xlink:title="Headers::IPv4::setLength">
<polygon fill="none" stroke="black" points="336,-465 336,-484 464,-484 464,-465 336,-465"/>
<text text-anchor="middle" x="400" y="-472" font-family="Helvetica,sans-Serif" font-size="10.00">Headers::IPv4::setLength</text>
</a>
</g>
</g>
<!-- Node2&#45;&gt;Node6 -->
<g id="edge5" class="edge"><title>Node2&#45;&gt;Node6</title>
<path fill="none" stroke="midnightblue" d="M235.119,-325.878C247.778,-355.666 279.756,-421.305 328,-455.5 330.845,-457.516 333.892,-459.319 337.064,-460.93"/>
<polygon fill="midnightblue" stroke="midnightblue" points="335.715,-464.16 346.278,-464.983 338.534,-457.753 335.715,-464.16"/>
</g>
<!-- Node7 -->
<g id="node7" class="node"><title>Node7</title>
<g id="a_node7"><a xlink:href="structHeaders_1_1IPv4.html#ab3379b3b9cf0bda526087c3cc1c9927d" target="_top" xlink:title="Set the destination ip. ">
<polygon fill="none" stroke="black" points="337.5,-427 337.5,-446 462.5,-446 462.5,-427 337.5,-427"/>
<text text-anchor="middle" x="400" y="-434" font-family="Helvetica,sans-Serif" font-size="10.00">Headers::IPv4::setDstIP</text>
</a>
</g>
</g>
<!-- Node2&#45;&gt;Node7 -->
<g id="edge6" class="edge"><title>Node2&#45;&gt;Node7</title>
<path fill="none" stroke="midnightblue" d="M238.886,-325.804C254.795,-349.178 288.344,-393.576 328,-417.5 331.626,-419.688 335.505,-421.627 339.511,-423.347"/>
<polygon fill="midnightblue" stroke="midnightblue" points="338.436,-426.683 349.027,-426.971 340.928,-420.141 338.436,-426.683"/>
</g>
<!-- Node8 -->
<g id="node8" class="node"><title>Node8</title>
<g id="a_node8"><a xlink:href="structHeaders_1_1IPv4.html#a4e1023a9cc8055be85956cd29c6fc397" target="_top" xlink:title="Set the source ip. ">
<polygon fill="none" stroke="black" points="338,-389 338,-408 462,-408 462,-389 338,-389"/>
<text text-anchor="middle" x="400" y="-396" font-family="Helvetica,sans-Serif" font-size="10.00">Headers::IPv4::setSrcIP</text>
</a>
</g>
</g>
<!-- Node2&#45;&gt;Node8 -->
<g id="edge7" class="edge"><title>Node2&#45;&gt;Node8</title>
<path fill="none" stroke="midnightblue" d="M246.443,-325.504C265.365,-341.069 297.033,-365.107 328,-379.5 333.062,-381.853 338.468,-383.957 343.952,-385.827"/>
<polygon fill="midnightblue" stroke="midnightblue" points="343.261,-389.279 353.85,-388.947 345.365,-382.603 343.261,-389.279"/>
</g>
<!-- Node9 -->
<g id="node9" class="node"><title>Node9</title>
<g id="a_node9"><a xlink:href="classHelloBye_1_1HelloByeClientConfig.html#ab6359aa6d88b7f655b562861a6fc82bc" target="_top" xlink:title="HelloBye::HelloByeClient\lConfig::getSrcIP">
<polygon fill="none" stroke="black" points="336,-339.5 336,-369.5 464,-369.5 464,-339.5 336,-339.5"/>
<text text-anchor="start" x="344" y="-357.5" font-family="Helvetica,sans-Serif" font-size="10.00">HelloBye::HelloByeClient</text>
<text text-anchor="middle" x="400" y="-346.5" font-family="Helvetica,sans-Serif" font-size="10.00">Config::getSrcIP</text>
</a>
</g>
</g>
<!-- Node2&#45;&gt;Node9 -->
<g id="edge8" class="edge"><title>Node2&#45;&gt;Node9</title>
<path fill="none" stroke="midnightblue" d="M287.029,-325.519C301.174,-329.18 316.432,-333.129 330.995,-336.899"/>
<polygon fill="midnightblue" stroke="midnightblue" points="330.386,-340.356 340.944,-339.474 332.14,-333.58 330.386,-340.356"/>
</g>
<!-- Node10 -->
<g id="node10" class="node"><title>Node10</title>
<g id="a_node10"><a xlink:href="structHeaders_1_1IPv4.html#a3de15b59ea6a3656f37c63e0c8d83df7" target="_top" xlink:title="Set the protocol to UDP. ">
<polygon fill="none" stroke="black" points="328,-301 328,-320 472,-320 472,-301 328,-301"/>
<text text-anchor="middle" x="400" y="-308" font-family="Helvetica,sans-Serif" font-size="10.00">Headers::IPv4::setProtoUDP</text>
</a>
</g>
</g>
<!-- Node2&#45;&gt;Node10 -->
<g id="edge9" class="edge"><title>Node2&#45;&gt;Node10</title>
<path fill="none" stroke="midnightblue" d="M292.302,-310.5C300.647,-310.5 309.292,-310.5 317.884,-310.5"/>
<polygon fill="midnightblue" stroke="midnightblue" points="317.924,-314 327.924,-310.5 317.924,-307 317.924,-314"/>
</g>
<!-- Node11 -->
<g id="node11" class="node"><title>Node11</title>
<g id="a_node11"><a xlink:href="structHeaders_1_1IPv4.html#acc4a8033c5da9c2ce147ee10e15d2a49" target="_top" xlink:title="Get the SDU. ">
<polygon fill="none" stroke="black" points="333,-263 333,-282 467,-282 467,-263 333,-263"/>
<text text-anchor="middle" x="400" y="-270" font-family="Helvetica,sans-Serif" font-size="10.00">Headers::IPv4::getPayload</text>
</a>
</g>
</g>
<!-- Node2&#45;&gt;Node11 -->
<g id="edge10" class="edge"><title>Node2&#45;&gt;Node11</title>
<path fill="none" stroke="midnightblue" d="M292.302,-296.35C310.136,-292.364 329.336,-288.072 346.466,-284.243"/>
<polygon fill="midnightblue" stroke="midnightblue" points="347.291,-287.645 356.287,-282.048 345.764,-280.813 347.291,-287.645"/>
</g>
<!-- Node12 -->
<g id="node12" class="node"><title>Node12</title>
<g id="a_node12"><a xlink:href="structHeaders_1_1Udp.html#a531f2e8247abf7807c50d806208b7cb1" target="_top" xlink:title="Get the SDU. ">
<polygon fill="none" stroke="black" points="334,-225 334,-244 466,-244 466,-225 334,-225"/>
<text text-anchor="middle" x="400" y="-232" font-family="Helvetica,sans-Serif" font-size="10.00">Headers::Udp::getPayload</text>
</a>
</g>
</g>
<!-- Node2&#45;&gt;Node12 -->
<g id="edge11" class="edge"><title>Node2&#45;&gt;Node12</title>
<path fill="none" stroke="midnightblue" d="M251.334,-295.372C270.853,-282.715 300.323,-264.939 328,-253.5 333.804,-251.101 340.001,-248.922 346.225,-246.967"/>
<polygon fill="midnightblue" stroke="midnightblue" points="347.38,-250.276 355.975,-244.081 345.393,-243.564 347.38,-250.276"/>
</g>
<!-- Node13 -->
<g id="node13" class="node"><title>Node13</title>
<g id="a_node13"><a xlink:href="structHeaders_1_1Udp.html#ad7860fd7b0f369d39d55aef85a11045a" target="_top" xlink:title="Set the destination port. ">
<polygon fill="none" stroke="black" points="334.5,-187 334.5,-206 465.5,-206 465.5,-187 334.5,-187"/>
<text text-anchor="middle" x="400" y="-194" font-family="Helvetica,sans-Serif" font-size="10.00">Headers::Udp::setDstPort</text>
</a>
</g>
</g>
<!-- Node2&#45;&gt;Node13 -->
<g id="edge12" class="edge"><title>Node2&#45;&gt;Node13</title>
<path fill="none" stroke="midnightblue" d="M240.683,-295.213C257.627,-274.113 291.06,-236.315 328,-215.5 331.985,-213.255 336.245,-211.266 340.627,-209.505"/>
<polygon fill="midnightblue" stroke="midnightblue" points="342.127,-212.685 350.351,-206.005 339.756,-206.099 342.127,-212.685"/>
</g>
<!-- Node14 -->
<g id="node14" class="node"><title>Node14</title>
<g id="a_node14"><a xlink:href="classHelloBye_1_1HelloByeClientConfig.html#a632d9fcc0cdea73b31e5871ae6b54c24" target="_top" xlink:title="HelloBye::HelloByeClient\lConfig::getDstPort">
<polygon fill="none" stroke="black" points="336,-137.5 336,-167.5 464,-167.5 464,-137.5 336,-137.5"/>
<text text-anchor="start" x="344" y="-155.5" font-family="Helvetica,sans-Serif" font-size="10.00">HelloBye::HelloByeClient</text>
<text text-anchor="middle" x="400" y="-144.5" font-family="Helvetica,sans-Serif" font-size="10.00">Config::getDstPort</text>
</a>
</g>
</g>
<!-- Node2&#45;&gt;Node14 -->
<g id="edge13" class="edge"><title>Node2&#45;&gt;Node14</title>
<path fill="none" stroke="midnightblue" d="M236.344,-295.436C250.41,-268.09 283.729,-210.101 328,-177.5 330.498,-175.661 333.142,-173.948 335.885,-172.353"/>
<polygon fill="midnightblue" stroke="midnightblue" points="337.664,-175.374 344.922,-167.655 334.435,-169.163 337.664,-175.374"/>
</g>
<!-- Node15 -->
<g id="node15" class="node"><title>Node15</title>
<g id="a_node15"><a xlink:href="structHeaders_1_1Udp.html#ab28d05a7270cf1537848db896588ca01" target="_top" xlink:title="Set the source port. ">
<polygon fill="none" stroke="black" points="335,-99 335,-118 465,-118 465,-99 335,-99"/>
<text text-anchor="middle" x="400" y="-106" font-family="Helvetica,sans-Serif" font-size="10.00">Headers::Udp::setSrcPort</text>
</a>
</g>
</g>
<!-- Node2&#45;&gt;Node15 -->
<g id="edge14" class="edge"><title>Node2&#45;&gt;Node15</title>
<path fill="none" stroke="midnightblue" d="M232.848,-295.413C242.546,-260.507 271.352,-173.712 328,-128.5 330.925,-126.166 334.106,-124.104 337.449,-122.283"/>
<polygon fill="midnightblue" stroke="midnightblue" points="339.028,-125.408 346.604,-118.002 336.063,-119.067 339.028,-125.408"/>
</g>
<!-- Node16 -->
<g id="node16" class="node"><title>Node16</title>
<g id="a_node16"><a xlink:href="structHeaders_1_1Udp.html#ac5397a534d246cfa93ac157eee3c565e" target="_top" xlink:title="Set the length of the L4&#45;SDU (UDP payload) ">
<polygon fill="none" stroke="black" points="334,-49.5 334,-79.5 466,-79.5 466,-49.5 334,-49.5"/>
<text text-anchor="start" x="342" y="-67.5" font-family="Helvetica,sans-Serif" font-size="10.00">Headers::Udp::setPayload</text>
<text text-anchor="middle" x="400" y="-56.5" font-family="Helvetica,sans-Serif" font-size="10.00">Length</text>
</a>
</g>
</g>
<!-- Node2&#45;&gt;Node16 -->
<g id="edge15" class="edge"><title>Node2&#45;&gt;Node16</title>
<path fill="none" stroke="midnightblue" d="M231.563,-295.215C239.006,-255.516 264.284,-148.159 328,-89.5 329.719,-87.9179 331.543,-86.4348 333.451,-85.0446"/>
<polygon fill="midnightblue" stroke="midnightblue" points="335.652,-87.796 342.275,-79.5258 331.94,-81.8613 335.652,-87.796"/>
</g>
<!-- Node17 -->
<g id="node17" class="node"><title>Node17</title>
<g id="a_node17"><a xlink:href="structStateMachine_1_1State.html#a89a520519a2b8dab5f4ae7a90c2bee83" target="_top" xlink:title="Transition to another state. ">
<polygon fill="none" stroke="black" points="347,-0.5 347,-30.5 453,-30.5 453,-0.5 347,-0.5"/>
<text text-anchor="start" x="355" y="-18.5" font-family="Helvetica,sans-Serif" font-size="10.00">StateMachine::State</text>
<text text-anchor="middle" x="400" y="-7.5" font-family="Helvetica,sans-Serif" font-size="10.00">::transition</text>
</a>
</g>
</g>
<!-- Node2&#45;&gt;Node17 -->
<g id="edge16" class="edge"><title>Node2&#45;&gt;Node17</title>
<path fill="none" stroke="midnightblue" d="M230.152,-295.265C234.389,-249.94 253.031,-114.509 328,-40.5 331.034,-37.5047 334.448,-34.8669 338.096,-32.544"/>
<polygon fill="midnightblue" stroke="midnightblue" points="339.881,-35.5566 346.962,-27.6755 336.512,-29.4207 339.881,-35.5566"/>
</g>
</g>
</svg>
