<?xml version="1.0" encoding="UTF-8" standalone="no"?>
<!DOCTYPE svg PUBLIC "-//W3C//DTD SVG 1.1//EN"
 "http://www.w3.org/Graphics/SVG/1.1/DTD/svg11.dtd">
<!-- Generated by graphviz version 2.38.0 (20140413.2041)
 -->
<!-- Title: HelloBye::HelloByeServerHello::run Pages: 1 -->
<svg width="476pt" height="214pt"
 viewBox="0.00 0.00 476.00 214.00" xmlns="http://www.w3.org/2000/svg" xmlns:xlink="http://www.w3.org/1999/xlink">
<g id="graph0" class="graph" transform="scale(1 1) rotate(0) translate(4 210)">
<title>HelloBye::HelloByeServerHello::run</title>
<!-- Node1 -->
<g id="node1" class="node"><title>Node1</title>
<polygon fill="#bfbfbf" stroke="black" points="0,-93.5 0,-123.5 131,-123.5 131,-93.5 0,-93.5"/>
<text text-anchor="start" x="8" y="-111.5" font-family="Helvetica,sans-Serif" font-size="10.00">HelloBye::HelloByeServer</text>
<text text-anchor="middle" x="65.5" y="-100.5" font-family="Helvetica,sans-Serif" font-size="10.00">Hello::run</text>
</g>
<!-- Node2 -->
<g id="node2" class="node"><title>Node2</title>
<g id="a_node2"><a xlink:href="classHelloBye_1_1HelloByeServerHello.html#a16af124d320d5cee2ae52d6d7fd2876f" target="_top" xlink:title="HelloBye::HelloByeServer\lHello::fun">
<polygon fill="none" stroke="black" points="167,-93.5 167,-123.5 298,-123.5 298,-93.5 167,-93.5"/>
<text text-anchor="start" x="175" y="-111.5" font-family="Helvetica,sans-Serif" font-size="10.00">HelloBye::HelloByeServer</text>
<text text-anchor="middle" x="232.5" y="-100.5" font-family="Helvetica,sans-Serif" font-size="10.00">Hello::fun</text>
</a>
</g>
</g>
<!-- Node1&#45;&gt;Node2 -->
<g id="edge1" class="edge"><title>Node1&#45;&gt;Node2</title>
<path fill="none" stroke="midnightblue" d="M131.239,-108.5C139.583,-108.5 148.182,-108.5 156.671,-108.5"/>
<polygon fill="midnightblue" stroke="midnightblue" points="156.948,-112 166.948,-108.5 156.948,-105 156.948,-112"/>
</g>
<!-- Node3 -->
<g id="node3" class="node"><title>Node3</title>
<g id="a_node3"><a xlink:href="structHeaders_1_1Ethernet.html#ad59e9fe1ec95b8e2ed11f97b44a20650" target="_top" xlink:title="Get the SDU. ">
<polygon fill="none" stroke="black" points="350,-175.5 350,-205.5 452,-205.5 452,-175.5 350,-175.5"/>
<text text-anchor="start" x="358" y="-193.5" font-family="Helvetica,sans-Serif" font-size="10.00">Headers::Ethernet::</text>
<text text-anchor="middle" x="401" y="-182.5" font-family="Helvetica,sans-Serif" font-size="10.00">getPayload</text>
</a>
</g>
</g>
<!-- Node2&#45;&gt;Node3 -->
<g id="edge2" class="edge"><title>Node2&#45;&gt;Node3</title>
<path fill="none" stroke="midnightblue" d="M257.721,-123.637C277.737,-135.802 307.128,-152.882 334,-165.5 338.412,-167.572 343.047,-169.603 347.728,-171.557"/>
<polygon fill="midnightblue" stroke="midnightblue" points="346.764,-174.943 357.347,-175.447 349.388,-168.453 346.764,-174.943"/>
</g>
<!-- Node4 -->
<g id="node4" class="node"><title>Node4</title>
<g id="a_node4"><a xlink:href="structHeaders_1_1IPv4.html#acc4a8033c5da9c2ce147ee10e15d2a49" target="_top" xlink:title="Get the SDU. ">
<polygon fill="none" stroke="black" points="334,-137 334,-156 468,-156 468,-137 334,-137"/>
<text text-anchor="middle" x="401" y="-144" font-family="Helvetica,sans-Serif" font-size="10.00">Headers::IPv4::getPayload</text>
</a>
</g>
</g>
<!-- Node2&#45;&gt;Node4 -->
<g id="edge3" class="edge"><title>Node2&#45;&gt;Node4</title>
<path fill="none" stroke="midnightblue" d="M298.35,-123.301C314.829,-127.061 332.319,-131.053 348.062,-134.646"/>
<polygon fill="midnightblue" stroke="midnightblue" points="347.598,-138.13 358.126,-136.943 349.156,-131.306 347.598,-138.13"/>
</g>
<!-- Node5 -->
<g id="node5" class="node"><title>Node5</title>
<g id="a_node5"><a xlink:href="structHeaders_1_1Udp.html#a531f2e8247abf7807c50d806208b7cb1" target="_top" xlink:title="Get the SDU. ">
<polygon fill="none" stroke="black" points="335,-99 335,-118 467,-118 467,-99 335,-99"/>
<text text-anchor="middle" x="401" y="-106" font-family="Helvetica,sans-Serif" font-size="10.00">Headers::Udp::getPayload</text>
</a>
</g>
</g>
<!-- Node2&#45;&gt;Node5 -->
<g id="edge4" class="edge"><title>Node2&#45;&gt;Node5</title>
<path fill="none" stroke="midnightblue" d="M298.35,-108.5C306.947,-108.5 315.82,-108.5 324.577,-108.5"/>
<polygon fill="midnightblue" stroke="midnightblue" points="324.779,-112 334.779,-108.5 324.779,-105 324.779,-112"/>
</g>
<!-- Node6 -->
<g id="node6" class="node"><title>Node6</title>
<g id="a_node6"><a xlink:href="classStateMachine_1_1FunIface.html#af87038e844cd7e3e778252ef1c15ed28" target="_top" xlink:title="Transition to another state. ">
<polygon fill="none" stroke="black" points="340.5,-49.5 340.5,-79.5 461.5,-79.5 461.5,-49.5 340.5,-49.5"/>
<text text-anchor="start" x="348.5" y="-67.5" font-family="Helvetica,sans-Serif" font-size="10.00">StateMachine::FunIface</text>
<text text-anchor="middle" x="401" y="-56.5" font-family="Helvetica,sans-Serif" font-size="10.00">::transition</text>
</a>
</g>
</g>
<!-- Node2&#45;&gt;Node6 -->
<g id="edge5" class="edge"><title>Node2&#45;&gt;Node6</title>
<path fill="none" stroke="midnightblue" d="M290.334,-93.4808C304.188,-89.8196 319.132,-85.8706 333.395,-82.1013"/>
<polygon fill="midnightblue" stroke="midnightblue" points="334.366,-85.4651 343.139,-79.5262 332.577,-78.6974 334.366,-85.4651"/>
</g>
<!-- Node7 -->
<g id="node7" class="node"><title>Node7</title>
<g id="a_node7"><a xlink:href="classStateMachine_1_1FunIface.html#a1985ec03a8173ed85b6ad89a449c5f16" target="_top" xlink:title="Free the packet after the batch is processed, do not send it. ">
<polygon fill="none" stroke="black" points="340.5,-0.5 340.5,-30.5 461.5,-30.5 461.5,-0.5 340.5,-0.5"/>
<text text-anchor="start" x="348.5" y="-18.5" font-family="Helvetica,sans-Serif" font-size="10.00">StateMachine::FunIface</text>
<text text-anchor="middle" x="401" y="-7.5" font-family="Helvetica,sans-Serif" font-size="10.00">::freePkt</text>
</a>
</g>
</g>
<!-- Node2&#45;&gt;Node7 -->
<g id="edge6" class="edge"><title>Node2&#45;&gt;Node7</title>
<path fill="none" stroke="midnightblue" d="M253.045,-93.2526C272.698,-78.4187 304.266,-55.9223 334,-40.5 338.024,-38.4126 342.264,-36.4064 346.573,-34.5015"/>
<polygon fill="midnightblue" stroke="midnightblue" points="348.205,-37.6117 356.059,-30.5009 345.485,-31.1618 348.205,-37.6117"/>
</g>
</g>
</svg>
