<?xml version="1.0" encoding="UTF-8" standalone="no"?>
<!DOCTYPE svg PUBLIC "-//W3C//DTD SVG 1.1//EN"
 "http://www.w3.org/Graphics/SVG/1.1/DTD/svg11.dtd">
<!-- Generated by graphviz version 2.40.1 (20161225.0304)
 -->
<!-- Title: /home/dominik/uni/MoonState/include/common.hpp Pages: 1 -->
<svg width="1543pt" height="374pt"
 viewBox="0.00 0.00 1543.00 374.00" xmlns="http://www.w3.org/2000/svg" xmlns:xlink="http://www.w3.org/1999/xlink">
<g id="graph0" class="graph" transform="scale(1 1) rotate(0) translate(4 370)">
<title>/home/dominik/uni/MoonState/include/common.hpp</title>
<!-- Node3 -->
<g id="node1" class="node">
<title>Node3</title>
<polygon fill="#bfbfbf" stroke="#000000" points="791,-335.5 791,-365.5 938,-365.5 938,-335.5 791,-335.5"/>
<text text-anchor="start" x="799" y="-353.5" font-family="Helvetica,sans-Serif" font-size="10.00" fill="#000000">/home/dominik/uni/MoonState</text>
<text text-anchor="middle" x="864.5" y="-342.5" font-family="Helvetica,sans-Serif" font-size="10.00" fill="#000000">/include/common.hpp</text>
</g>
<!-- Node4 -->
<g id="node2" class="node">
<title>Node4</title>
<g id="a_node2"><a xlink:href="dtls_8hpp.html" target="_top" xlink:title="/home/dominik/uni/MoonState\l/include/dtls.hpp">
<polygon fill="none" stroke="#000000" points="165,-268.5 165,-298.5 312,-298.5 312,-268.5 165,-268.5"/>
<text text-anchor="start" x="173" y="-286.5" font-family="Helvetica,sans-Serif" font-size="10.00" fill="#000000">/home/dominik/uni/MoonState</text>
<text text-anchor="middle" x="238.5" y="-275.5" font-family="Helvetica,sans-Serif" font-size="10.00" fill="#000000">/include/dtls.hpp</text>
</a>
</g>
</g>
<!-- Node3&#45;&gt;Node4 -->
<g id="edge1" class="edge">
<title>Node3&#45;&gt;Node4</title>
<path fill="none" stroke="#191970" d="M780.7552,-344.5419C674.7368,-336.5268 486.6027,-320.7284 326.5,-299 321.8884,-298.3741 317.1491,-297.6821 312.3755,-296.948"/>
<polygon fill="#191970" stroke="#191970" points="780.5208,-348.0341 790.755,-345.2932 781.0453,-341.0538 780.5208,-348.0341"/>
</g>
<!-- Node7 -->
<g id="node5" class="node">
<title>Node7</title>
<g id="a_node5"><a xlink:href="IPv4__5TupleL2Ident_8hpp.html" target="_top" xlink:title="/home/dominik/uni/MoonState\l/include/IPv4_5TupleL2Ident.hpp">
<polygon fill="none" stroke="#000000" points="839.5,-268.5 839.5,-298.5 997.5,-298.5 997.5,-268.5 839.5,-268.5"/>
<text text-anchor="start" x="847.5" y="-286.5" font-family="Helvetica,sans-Serif" font-size="10.00" fill="#000000">/home/dominik/uni/MoonState</text>
<text text-anchor="middle" x="918.5" y="-275.5" font-family="Helvetica,sans-Serif" font-size="10.00" fill="#000000">/include/IPv4_5TupleL2Ident.hpp</text>
</a>
</g>
</g>
<!-- Node3&#45;&gt;Node7 -->
<g id="edge6" class="edge">
<title>Node3&#45;&gt;Node7</title>
<path fill="none" stroke="#191970" d="M883.1575,-327.3509C890.8164,-317.8482 899.4685,-307.1132 906.2951,-298.6432"/>
<polygon fill="#191970" stroke="#191970" points="880.3036,-325.3143 876.7534,-335.2967 885.7538,-329.707 880.3036,-325.3143"/>
</g>
<!-- Node11 -->
<g id="node9" class="node">
<title>Node11</title>
<g id="a_node9"><a xlink:href="helloBye2Proto_8hpp.html" target="_top" xlink:title="/home/dominik/uni/MoonState\l/include/helloBye2Proto.hpp">
<polygon fill="none" stroke="#000000" points="534,-134.5 534,-164.5 681,-164.5 681,-134.5 534,-134.5"/>
<text text-anchor="start" x="542" y="-152.5" font-family="Helvetica,sans-Serif" font-size="10.00" fill="#000000">/home/dominik/uni/MoonState</text>
<text text-anchor="middle" x="607.5" y="-141.5" font-family="Helvetica,sans-Serif" font-size="10.00" fill="#000000">/include/helloBye2Proto.hpp</text>
</a>
</g>
</g>
<!-- Node3&#45;&gt;Node11 -->
<g id="edge36" class="edge">
<title>Node3&#45;&gt;Node11</title>
<path fill="none" stroke="#191970" d="M794.4847,-332.7161C714.2589,-310.7563 590.3671,-271.4514 563.5,-232 548.3324,-209.728 571.336,-181.6511 589.3851,-164.6623"/>
<polygon fill="#191970" stroke="#191970" points="793.9605,-336.2002 804.5278,-335.4372 795.7911,-329.4438 793.9605,-336.2002"/>
</g>
<!-- Node16 -->
<g id="node14" class="node">
<title>Node16</title>
<g id="a_node14"><a xlink:href="helloBye3_8hpp.html" target="_top" xlink:title="/home/dominik/uni/MoonState\l/include/helloBye3.hpp">
<polygon fill="none" stroke="#000000" points="369,-134.5 369,-164.5 516,-164.5 516,-134.5 369,-134.5"/>
<text text-anchor="start" x="377" y="-152.5" font-family="Helvetica,sans-Serif" font-size="10.00" fill="#000000">/home/dominik/uni/MoonState</text>
<text text-anchor="middle" x="442.5" y="-141.5" font-family="Helvetica,sans-Serif" font-size="10.00" fill="#000000">/include/helloBye3.hpp</text>
</a>
</g>
</g>
<!-- Node3&#45;&gt;Node16 -->
<g id="edge37" class="edge">
<title>Node3&#45;&gt;Node16</title>
<path fill="none" stroke="#191970" d="M780.4393,-343.371C650.4147,-330.3831 410.1715,-297.9041 359.5,-232 351.102,-221.0775 352.8014,-213.0397 359.5,-201 368.6519,-184.5509 385.4717,-172.6841 401.5892,-164.5184"/>
<polygon fill="#191970" stroke="#191970" points="780.4604,-346.8898 790.7546,-344.3836 781.1443,-339.9233 780.4604,-346.8898"/>
</g>
<!-- Node18 -->
<g id="node16" class="node">
<title>Node18</title>
<g id="a_node16"><a xlink:href="helloBye3MemPool_8hpp.html" target="_top" xlink:title="/home/dominik/uni/MoonState\l/include/helloBye3MemPool.hpp">
<polygon fill="none" stroke="#000000" points="1179.5,-134.5 1179.5,-164.5 1335.5,-164.5 1335.5,-134.5 1179.5,-134.5"/>
<text text-anchor="start" x="1187.5" y="-152.5" font-family="Helvetica,sans-Serif" font-size="10.00" fill="#000000">/home/dominik/uni/MoonState</text>
<text text-anchor="middle" x="1257.5" y="-141.5" font-family="Helvetica,sans-Serif" font-size="10.00" fill="#000000">/include/helloBye3MemPool.hpp</text>
</a>
</g>
</g>
<!-- Node3&#45;&gt;Node18 -->
<g id="edge38" class="edge">
<title>Node3&#45;&gt;Node18</title>
<path fill="none" stroke="#191970" d="M948.637,-341.9934C1072.0704,-327.5578 1292.7038,-293.6495 1339.5,-232 1347.8302,-221.0257 1346.1658,-213.0579 1339.5,-201 1330.472,-184.6691 1313.8567,-172.818 1297.931,-164.6321"/>
<polygon fill="#191970" stroke="#191970" points="947.9974,-338.5438 938.4634,-343.1649 948.7982,-345.4979 947.9974,-338.5438"/>
</g>
<!-- Node20 -->
<g id="node18" class="node">
<title>Node20</title>
<g id="a_node18"><a xlink:href="helloByeProto_8hpp.html" target="_top" xlink:title="/home/dominik/uni/MoonState\l/include/helloByeProto.hpp">
<polygon fill="none" stroke="#000000" points="980,-134.5 980,-164.5 1127,-164.5 1127,-134.5 980,-134.5"/>
<text text-anchor="start" x="988" y="-152.5" font-family="Helvetica,sans-Serif" font-size="10.00" fill="#000000">/home/dominik/uni/MoonState</text>
<text text-anchor="middle" x="1053.5" y="-141.5" font-family="Helvetica,sans-Serif" font-size="10.00" fill="#000000">/include/helloByeProto.hpp</text>
</a>
</g>
</g>
<!-- Node3&#45;&gt;Node20 -->
<g id="edge39" class="edge">
<title>Node3&#45;&gt;Node20</title>
<path fill="none" stroke="#191970" d="M948.2595,-339.5328C1012.3552,-326.1573 1096.2129,-296.6749 1135.5,-232 1142.653,-220.2246 1142.1658,-213.0579 1135.5,-201 1126.472,-184.6691 1109.8567,-172.818 1093.931,-164.6321"/>
<polygon fill="#191970" stroke="#191970" points="947.2767,-336.1597 938.1521,-341.5441 948.6429,-343.0251 947.2767,-336.1597"/>
</g>
<!-- Node24 -->
<g id="node22" class="node">
<title>Node24</title>
<g id="a_node22"><a xlink:href="stateMachine_8hpp.html" target="_top" xlink:title="/home/dominik/uni/MoonState\l/include/stateMachine.hpp">
<polygon fill="none" stroke="#000000" points="738,-201.5 738,-231.5 885,-231.5 885,-201.5 738,-201.5"/>
<text text-anchor="start" x="746" y="-219.5" font-family="Helvetica,sans-Serif" font-size="10.00" fill="#000000">/home/dominik/uni/MoonState</text>
<text text-anchor="middle" x="811.5" y="-208.5" font-family="Helvetica,sans-Serif" font-size="10.00" fill="#000000">/include/stateMachine.hpp</text>
</a>
</g>
</g>
<!-- Node3&#45;&gt;Node24 -->
<g id="edge28" class="edge">
<title>Node3&#45;&gt;Node24</title>
<path fill="none" stroke="#191970" d="M846.3542,-326.883C840.5845,-318.453 834.635,-308.6473 830.5,-299 820.8881,-276.5747 815.7527,-248.5433 813.3298,-231.6055"/>
<polygon fill="#191970" stroke="#191970" points="843.5622,-328.9961 852.2181,-335.1057 849.2615,-324.9317 843.5622,-328.9961"/>
</g>
<!-- Node25 -->
<g id="node23" class="node">
<title>Node25</title>
<g id="a_node23"><a xlink:href="hexdump_8cpp.html" target="_top" xlink:title="/home/dominik/uni/MoonState\l/src/hexdump.cpp">
<polygon fill="none" stroke="#000000" points="1388,-268.5 1388,-298.5 1535,-298.5 1535,-268.5 1388,-268.5"/>
<text text-anchor="start" x="1396" y="-286.5" font-family="Helvetica,sans-Serif" font-size="10.00" fill="#000000">/home/dominik/uni/MoonState</text>
<text text-anchor="middle" x="1461.5" y="-275.5" font-family="Helvetica,sans-Serif" font-size="10.00" fill="#000000">/src/hexdump.cpp</text>
</a>
</g>
</g>
<!-- Node3&#45;&gt;Node25 -->
<g id="edge40" class="edge">
<title>Node3&#45;&gt;Node25</title>
<path fill="none" stroke="#191970" d="M948.1802,-343.9322C1049.2272,-335.5636 1224.2222,-319.67 1373.5,-299 1378.1099,-298.3617 1382.8479,-297.6601 1387.6205,-296.9189"/>
<polygon fill="#191970" stroke="#191970" points="947.7139,-340.4587 938.035,-344.7677 948.2885,-347.4351 947.7139,-340.4587"/>
</g>
<!-- Node5 -->
<g id="node3" class="node">
<title>Node5</title>
<g id="a_node3"><a xlink:href="dtls__handshake_8hpp.html" target="_top" xlink:title="/home/dominik/uni/MoonState\l/include/dtls_handshake.hpp">
<polygon fill="none" stroke="#000000" points="165,-201.5 165,-231.5 312,-231.5 312,-201.5 165,-201.5"/>
<text text-anchor="start" x="173" y="-219.5" font-family="Helvetica,sans-Serif" font-size="10.00" fill="#000000">/home/dominik/uni/MoonState</text>
<text text-anchor="middle" x="238.5" y="-208.5" font-family="Helvetica,sans-Serif" font-size="10.00" fill="#000000">/include/dtls_handshake.hpp</text>
</a>
</g>
</g>
<!-- Node4&#45;&gt;Node5 -->
<g id="edge2" class="edge">
<title>Node4&#45;&gt;Node5</title>
<path fill="none" stroke="#191970" d="M231.9384,-258.3179C231.5239,-249.3414 231.7933,-239.5143 232.7464,-231.6432"/>
<polygon fill="#191970" stroke="#191970" points="228.4504,-258.6087 232.7392,-268.2967 235.428,-258.0487 228.4504,-258.6087"/>
</g>
<!-- Node6 -->
<g id="node4" class="node">
<title>Node6</title>
<g id="a_node4"><a xlink:href="dtls__record_8hpp.html" target="_top" xlink:title="/home/dominik/uni/MoonState\l/include/dtls_record.hpp">
<polygon fill="none" stroke="#000000" points="0,-201.5 0,-231.5 147,-231.5 147,-201.5 0,-201.5"/>
<text text-anchor="start" x="8" y="-219.5" font-family="Helvetica,sans-Serif" font-size="10.00" fill="#000000">/home/dominik/uni/MoonState</text>
<text text-anchor="middle" x="73.5" y="-208.5" font-family="Helvetica,sans-Serif" font-size="10.00" fill="#000000">/include/dtls_record.hpp</text>
</a>
</g>
</g>
<!-- Node4&#45;&gt;Node6 -->
<g id="edge4" class="edge">
<title>Node4&#45;&gt;Node6</title>
<path fill="none" stroke="#191970" d="M186.136,-264.7275C159.4337,-254.2645 127.9015,-241.4084 104.9422,-231.6017"/>
<polygon fill="#191970" stroke="#191970" points="185.1418,-268.0963 195.7303,-268.4639 187.6821,-261.5735 185.1418,-268.0963"/>
</g>
<!-- Node5&#45;&gt;Node4 -->
<g id="edge3" class="edge">
<title>Node5&#45;&gt;Node4</title>
<path fill="none" stroke="#191970" d="M245.0584,-241.6135C245.4764,-250.5857 245.2105,-260.4156 244.2608,-268.2967"/>
<polygon fill="#191970" stroke="#191970" points="248.5469,-241.3291 244.2536,-231.6432 241.5696,-241.8924 248.5469,-241.3291"/>
</g>
<!-- Node6&#45;&gt;Node4 -->
<g id="edge5" class="edge">
<title>Node6&#45;&gt;Node4</title>
<path fill="none" stroke="#191970" d="M126.0428,-235.3426C152.7665,-245.8162 184.2903,-258.6708 207.2113,-268.4639"/>
<polygon fill="#191970" stroke="#191970" points="127.0277,-231.9701 116.4392,-231.6017 124.4869,-238.4927 127.0277,-231.9701"/>
</g>
<!-- Node8 -->
<g id="node6" class="node">
<title>Node8</title>
<g id="a_node6"><a xlink:href="dtlsClient_8hpp.html" target="_top" xlink:title="/home/dominik/uni/MoonState\l/include/dtlsClient.hpp">
<polygon fill="none" stroke="#000000" points="776,-134.5 776,-164.5 923,-164.5 923,-134.5 776,-134.5"/>
<text text-anchor="start" x="784" y="-152.5" font-family="Helvetica,sans-Serif" font-size="10.00" fill="#000000">/home/dominik/uni/MoonState</text>
<text text-anchor="middle" x="849.5" y="-141.5" font-family="Helvetica,sans-Serif" font-size="10.00" fill="#000000">/include/dtlsClient.hpp</text>
</a>
</g>
</g>
<!-- Node7&#45;&gt;Node8 -->
<g id="edge7" class="edge">
<title>Node7&#45;&gt;Node8</title>
<path fill="none" stroke="#191970" d="M913.695,-258.2506C909.8084,-241.3474 903.3407,-218.9863 893.5,-201 886.1622,-187.5883 874.9304,-174.5174 865.6517,-164.8997"/>
<polygon fill="#191970" stroke="#191970" points="910.3673,-259.4254 915.8859,-268.4695 917.2117,-257.9579 910.3673,-259.4254"/>
</g>
<!-- Node10 -->
<g id="node8" class="node">
<title>Node10</title>
<g id="a_node8"><a xlink:href="helloBye2Proto_8cpp.html" target="_top" xlink:title="/home/dominik/uni/MoonState\l/src/helloBye2Proto.cpp">
<polygon fill="none" stroke="#000000" points="573,-201.5 573,-231.5 720,-231.5 720,-201.5 573,-201.5"/>
<text text-anchor="start" x="581" y="-219.5" font-family="Helvetica,sans-Serif" font-size="10.00" fill="#000000">/home/dominik/uni/MoonState</text>
<text text-anchor="middle" x="646.5" y="-208.5" font-family="Helvetica,sans-Serif" font-size="10.00" fill="#000000">/src/helloBye2Proto.cpp</text>
</a>
</g>
</g>
<!-- Node7&#45;&gt;Node10 -->
<g id="edge9" class="edge">
<title>Node7&#45;&gt;Node10</title>
<path fill="none" stroke="#191970" d="M847.5465,-266.0225C804.1834,-255.3411 749.2797,-241.8171 707.8083,-231.6017"/>
<polygon fill="#191970" stroke="#191970" points="846.911,-269.4705 857.4579,-268.4639 848.5853,-262.6737 846.911,-269.4705"/>
</g>
<!-- Node15 -->
<g id="node13" class="node">
<title>Node15</title>
<g id="a_node13"><a xlink:href="helloBye3_8cpp.html" target="_top" xlink:title="/home/dominik/uni/MoonState\l/src/helloBye3.cpp">
<polygon fill="none" stroke="#000000" points="369,-201.5 369,-231.5 516,-231.5 516,-201.5 369,-201.5"/>
<text text-anchor="start" x="377" y="-219.5" font-family="Helvetica,sans-Serif" font-size="10.00" fill="#000000">/home/dominik/uni/MoonState</text>
<text text-anchor="middle" x="442.5" y="-208.5" font-family="Helvetica,sans-Serif" font-size="10.00" fill="#000000">/src/helloBye3.cpp</text>
</a>
</g>
</g>
<!-- Node7&#45;&gt;Node15 -->
<g id="edge15" class="edge">
<title>Node7&#45;&gt;Node15</title>
<path fill="none" stroke="#191970" d="M829.4083,-270.9598C739.0412,-258.24 600.7993,-238.7816 516.3405,-226.8935"/>
<polygon fill="#191970" stroke="#191970" points="828.9737,-274.433 839.3639,-272.3611 829.9494,-267.5014 828.9737,-274.433"/>
</g>
<!-- Node17 -->
<g id="node15" class="node">
<title>Node17</title>
<g id="a_node15"><a xlink:href="helloBye3MemPool_8cpp.html" target="_top" xlink:title="/home/dominik/uni/MoonState\l/src/helloBye3MemPool.cpp">
<polygon fill="none" stroke="#000000" points="1184,-201.5 1184,-231.5 1331,-231.5 1331,-201.5 1184,-201.5"/>
<text text-anchor="start" x="1192" y="-219.5" font-family="Helvetica,sans-Serif" font-size="10.00" fill="#000000">/home/dominik/uni/MoonState</text>
<text text-anchor="middle" x="1257.5" y="-208.5" font-family="Helvetica,sans-Serif" font-size="10.00" fill="#000000">/src/helloBye3MemPool.cpp</text>
</a>
</g>
</g>
<!-- Node7&#45;&gt;Node17 -->
<g id="edge18" class="edge">
<title>Node7&#45;&gt;Node17</title>
<path fill="none" stroke="#191970" d="M1004.7116,-266.4611C1060.005,-255.5329 1131.0344,-241.4947 1183.7143,-231.083"/>
<polygon fill="#191970" stroke="#191970" points="1003.7098,-263.0913 994.5782,-268.4639 1005.0671,-269.9585 1003.7098,-263.0913"/>
</g>
<!-- Node19 -->
<g id="node17" class="node">
<title>Node19</title>
<g id="a_node17"><a xlink:href="helloByeProto_8cpp.html" target="_top" xlink:title="/home/dominik/uni/MoonState\l/src/helloByeProto.cpp">
<polygon fill="none" stroke="#000000" points="980,-201.5 980,-231.5 1127,-231.5 1127,-201.5 980,-201.5"/>
<text text-anchor="start" x="988" y="-219.5" font-family="Helvetica,sans-Serif" font-size="10.00" fill="#000000">/home/dominik/uni/MoonState</text>
<text text-anchor="middle" x="1053.5" y="-208.5" font-family="Helvetica,sans-Serif" font-size="10.00" fill="#000000">/src/helloByeProto.cpp</text>
</a>
</g>
</g>
<!-- Node7&#45;&gt;Node19 -->
<g id="edge21" class="edge">
<title>Node7&#45;&gt;Node19</title>
<path fill="none" stroke="#191970" d="M957.966,-263.9132C978.6555,-253.645 1003.6182,-241.2561 1022.8374,-231.7177"/>
<polygon fill="#191970" stroke="#191970" points="956.1982,-260.8831 948.7966,-268.4639 959.3101,-267.1534 956.1982,-260.8831"/>
</g>
<!-- Node22 -->
<g id="node20" class="node">
<title>Node22</title>
<g id="a_node20"><a xlink:href="helloBye__C_8cpp.html" target="_top" xlink:title="/home/dominik/uni/MoonState\l/src/helloBye_C.cpp">
<polygon fill="none" stroke="#000000" points="878,-.5 878,-30.5 1025,-30.5 1025,-.5 878,-.5"/>
<text text-anchor="start" x="886" y="-18.5" font-family="Helvetica,sans-Serif" font-size="10.00" fill="#000000">/home/dominik/uni/MoonState</text>
<text text-anchor="middle" x="951.5" y="-7.5" font-family="Helvetica,sans-Serif" font-size="10.00" fill="#000000">/src/helloBye_C.cpp</text>
</a>
</g>
</g>
<!-- Node7&#45;&gt;Node22 -->
<g id="edge27" class="edge">
<title>Node7&#45;&gt;Node22</title>
<path fill="none" stroke="#191970" d="M921.5913,-258.3947C928.3424,-203.5679 944.2327,-74.5194 949.6517,-30.5103"/>
<polygon fill="#191970" stroke="#191970" points="918.1172,-257.9705 920.3688,-268.3233 925.0647,-258.826 918.1172,-257.9705"/>
</g>
<!-- Node9 -->
<g id="node7" class="node">
<title>Node9</title>
<g id="a_node7"><a xlink:href="dtlsClient_8cpp.html" target="_top" xlink:title="/home/dominik/uni/MoonState\l/src/dtlsClient.cpp">
<polygon fill="none" stroke="#000000" points="776,-67.5 776,-97.5 923,-97.5 923,-67.5 776,-67.5"/>
<text text-anchor="start" x="784" y="-85.5" font-family="Helvetica,sans-Serif" font-size="10.00" fill="#000000">/home/dominik/uni/MoonState</text>
<text text-anchor="middle" x="849.5" y="-74.5" font-family="Helvetica,sans-Serif" font-size="10.00" fill="#000000">/src/dtlsClient.cpp</text>
</a>
</g>
</g>
<!-- Node8&#45;&gt;Node9 -->
<g id="edge8" class="edge">
<title>Node8&#45;&gt;Node9</title>
<path fill="none" stroke="#191970" d="M849.5,-124.0249C849.5,-115.128 849.5,-105.4287 849.5,-97.6432"/>
<polygon fill="#191970" stroke="#191970" points="846.0001,-124.2966 849.5,-134.2967 853.0001,-124.2967 846.0001,-124.2966"/>
</g>
<!-- Node10&#45;&gt;Node11 -->
<g id="edge10" class="edge">
<title>Node10&#45;&gt;Node11</title>
<path fill="none" stroke="#191970" d="M626.2011,-192.7735C620.2384,-183.4154 614.3868,-172.9421 610.5611,-164.6432"/>
<polygon fill="#191970" stroke="#191970" points="623.427,-194.9219 631.8895,-201.2967 629.2494,-191.036 623.427,-194.9219"/>
</g>
<!-- Node11&#45;&gt;Node10 -->
<g id="edge13" class="edge">
<title>Node11&#45;&gt;Node10</title>
<path fill="none" stroke="#191970" d="M627.7557,-173.1587C633.7189,-182.5115 639.5756,-192.9873 643.4111,-201.2967"/>
<polygon fill="#191970" stroke="#191970" points="630.5328,-171.0151 622.0682,-164.6432 624.7118,-174.9029 630.5328,-171.0151"/>
</g>
<!-- Node12 -->
<g id="node10" class="node">
<title>Node12</title>
<g id="a_node10"><a xlink:href="helloBye2__C_8hpp.html" target="_top" xlink:title="/home/dominik/uni/MoonState\l/include/helloBye2_C.hpp">
<polygon fill="none" stroke="#000000" points="534,-67.5 534,-97.5 681,-97.5 681,-67.5 534,-67.5"/>
<text text-anchor="start" x="542" y="-85.5" font-family="Helvetica,sans-Serif" font-size="10.00" fill="#000000">/home/dominik/uni/MoonState</text>
<text text-anchor="middle" x="607.5" y="-74.5" font-family="Helvetica,sans-Serif" font-size="10.00" fill="#000000">/include/helloBye2_C.hpp</text>
</a>
</g>
</g>
<!-- Node11&#45;&gt;Node12 -->
<g id="edge11" class="edge">
<title>Node11&#45;&gt;Node12</title>
<path fill="none" stroke="#191970" d="M607.5,-124.0249C607.5,-115.128 607.5,-105.4287 607.5,-97.6432"/>
<polygon fill="#191970" stroke="#191970" points="604.0001,-124.2966 607.5,-134.2967 611.0001,-124.2967 604.0001,-124.2966"/>
</g>
<!-- Node14 -->
<g id="node12" class="node">
<title>Node14</title>
<g id="a_node12"><a xlink:href="helloBye2ProtoStatic_8cpp.html" target="_top" xlink:title="/home/dominik/uni/MoonState\l/src/helloBye2ProtoStatic.cpp">
<polygon fill="none" stroke="#000000" points="369,-67.5 369,-97.5 516,-97.5 516,-67.5 369,-67.5"/>
<text text-anchor="start" x="377" y="-85.5" font-family="Helvetica,sans-Serif" font-size="10.00" fill="#000000">/home/dominik/uni/MoonState</text>
<text text-anchor="middle" x="442.5" y="-74.5" font-family="Helvetica,sans-Serif" font-size="10.00" fill="#000000">/src/helloBye2ProtoStatic.cpp</text>
</a>
</g>
</g>
<!-- Node11&#45;&gt;Node14 -->
<g id="edge14" class="edge">
<title>Node11&#45;&gt;Node14</title>
<path fill="none" stroke="#191970" d="M560.9298,-130.5897C535.2245,-120.1518 503.7358,-107.3654 479.6907,-97.6017"/>
<polygon fill="#191970" stroke="#191970" points="559.8887,-133.9444 570.4708,-134.4639 562.5223,-127.4587 559.8887,-133.9444"/>
</g>
<!-- Node13 -->
<g id="node11" class="node">
<title>Node13</title>
<g id="a_node11"><a xlink:href="helloBye2__C_8cpp.html" target="_top" xlink:title="/home/dominik/uni/MoonState\l/src/helloBye2_C.cpp">
<polygon fill="none" stroke="#000000" points="585,-.5 585,-30.5 732,-30.5 732,-.5 585,-.5"/>
<text text-anchor="start" x="593" y="-18.5" font-family="Helvetica,sans-Serif" font-size="10.00" fill="#000000">/home/dominik/uni/MoonState</text>
<text text-anchor="middle" x="658.5" y="-7.5" font-family="Helvetica,sans-Serif" font-size="10.00" fill="#000000">/src/helloBye2_C.cpp</text>
</a>
</g>
</g>
<!-- Node12&#45;&gt;Node13 -->
<g id="edge12" class="edge">
<title>Node12&#45;&gt;Node13</title>
<path fill="none" stroke="#191970" d="M625.3404,-59.0626C632.5193,-49.6315 640.5909,-39.0276 646.9731,-30.6432"/>
<polygon fill="#191970" stroke="#191970" points="622.3446,-57.2197 619.0727,-67.2967 627.9146,-61.4595 622.3446,-57.2197"/>
</g>
<!-- Node15&#45;&gt;Node16 -->
<g id="edge16" class="edge">
<title>Node15&#45;&gt;Node16</title>
<path fill="none" stroke="#191970" d="M435.9384,-191.3179C435.5239,-182.3414 435.7933,-172.5143 436.7464,-164.6432"/>
<polygon fill="#191970" stroke="#191970" points="432.4504,-191.6087 436.7392,-201.2967 439.428,-191.0487 432.4504,-191.6087"/>
</g>
<!-- Node16&#45;&gt;Node15 -->
<g id="edge17" class="edge">
<title>Node16&#45;&gt;Node15</title>
<path fill="none" stroke="#191970" d="M449.0584,-174.6135C449.4764,-183.5857 449.2105,-193.4156 448.2608,-201.2967"/>
<polygon fill="#191970" stroke="#191970" points="452.5469,-174.3291 448.2536,-164.6432 445.5696,-174.8924 452.5469,-174.3291"/>
</g>
<!-- Node17&#45;&gt;Node18 -->
<g id="edge19" class="edge">
<title>Node17&#45;&gt;Node18</title>
<path fill="none" stroke="#191970" d="M1250.9384,-191.3179C1250.5239,-182.3414 1250.7933,-172.5143 1251.7464,-164.6432"/>
<polygon fill="#191970" stroke="#191970" points="1247.4504,-191.6087 1251.7392,-201.2967 1254.428,-191.0487 1247.4504,-191.6087"/>
</g>
<!-- Node18&#45;&gt;Node17 -->
<g id="edge20" class="edge">
<title>Node18&#45;&gt;Node17</title>
<path fill="none" stroke="#191970" d="M1264.0584,-174.6135C1264.4764,-183.5857 1264.2105,-193.4156 1263.2608,-201.2967"/>
<polygon fill="#191970" stroke="#191970" points="1267.5469,-174.3291 1263.2536,-164.6432 1260.5696,-174.8924 1267.5469,-174.3291"/>
</g>
<!-- Node19&#45;&gt;Node20 -->
<g id="edge22" class="edge">
<title>Node19&#45;&gt;Node20</title>
<path fill="none" stroke="#191970" d="M1046.9384,-191.3179C1046.5239,-182.3414 1046.7933,-172.5143 1047.7464,-164.6432"/>
<polygon fill="#191970" stroke="#191970" points="1043.4504,-191.6087 1047.7392,-201.2967 1050.428,-191.0487 1043.4504,-191.6087"/>
</g>
<!-- Node20&#45;&gt;Node19 -->
<g id="edge25" class="edge">
<title>Node20&#45;&gt;Node19</title>
<path fill="none" stroke="#191970" d="M1060.0584,-174.6135C1060.4764,-183.5857 1060.2105,-193.4156 1059.2608,-201.2967"/>
<polygon fill="#191970" stroke="#191970" points="1063.5469,-174.3291 1059.2536,-164.6432 1056.5696,-174.8924 1063.5469,-174.3291"/>
</g>
<!-- Node21 -->
<g id="node19" class="node">
<title>Node21</title>
<g id="a_node19"><a xlink:href="helloBye__C_8hpp.html" target="_top" xlink:title="/home/dominik/uni/MoonState\l/include/helloBye_C.hpp">
<polygon fill="none" stroke="#000000" points="980,-67.5 980,-97.5 1127,-97.5 1127,-67.5 980,-67.5"/>
<text text-anchor="start" x="988" y="-85.5" font-family="Helvetica,sans-Serif" font-size="10.00" fill="#000000">/home/dominik/uni/MoonState</text>
<text text-anchor="middle" x="1053.5" y="-74.5" font-family="Helvetica,sans-Serif" font-size="10.00" fill="#000000">/include/helloBye_C.hpp</text>
</a>
</g>
</g>
<!-- Node20&#45;&gt;Node21 -->
<g id="edge23" class="edge">
<title>Node20&#45;&gt;Node21</title>
<path fill="none" stroke="#191970" d="M1053.5,-124.0249C1053.5,-115.128 1053.5,-105.4287 1053.5,-97.6432"/>
<polygon fill="#191970" stroke="#191970" points="1050.0001,-124.2966 1053.5,-134.2967 1057.0001,-124.2967 1050.0001,-124.2966"/>
</g>
<!-- Node23 -->
<g id="node21" class="node">
<title>Node23</title>
<g id="a_node21"><a xlink:href="helloByeProtoStatic_8cpp.html" target="_top" xlink:title="/home/dominik/uni/MoonState\l/src/helloByeProtoStatic.cpp">
<polygon fill="none" stroke="#000000" points="1145,-67.5 1145,-97.5 1292,-97.5 1292,-67.5 1145,-67.5"/>
<text text-anchor="start" x="1153" y="-85.5" font-family="Helvetica,sans-Serif" font-size="10.00" fill="#000000">/home/dominik/uni/MoonState</text>
<text text-anchor="middle" x="1218.5" y="-74.5" font-family="Helvetica,sans-Serif" font-size="10.00" fill="#000000">/src/helloByeProtoStatic.cpp</text>
</a>
</g>
</g>
<!-- Node20&#45;&gt;Node23 -->
<g id="edge26" class="edge">
<title>Node20&#45;&gt;Node23</title>
<path fill="none" stroke="#191970" d="M1100.0702,-130.5897C1125.7755,-120.1518 1157.2642,-107.3654 1181.3093,-97.6017"/>
<polygon fill="#191970" stroke="#191970" points="1098.4777,-127.4587 1090.5292,-134.4639 1101.1113,-133.9444 1098.4777,-127.4587"/>
</g>
<!-- Node21&#45;&gt;Node22 -->
<g id="edge24" class="edge">
<title>Node21&#45;&gt;Node22</title>
<path fill="none" stroke="#191970" d="M1021.9791,-61.7951C1006.6955,-51.7558 988.6652,-39.9124 974.6673,-30.7177"/>
<polygon fill="#191970" stroke="#191970" points="1020.3295,-64.8991 1030.6092,-67.4639 1024.1726,-59.0484 1020.3295,-64.8991"/>
</g>
<!-- Node24&#45;&gt;Node8 -->
<g id="edge29" class="edge">
<title>Node24&#45;&gt;Node8</title>
<path fill="none" stroke="#191970" d="M825.1212,-192.4837C830.3868,-183.1996 836.253,-172.8565 840.9113,-164.6432"/>
<polygon fill="#191970" stroke="#191970" points="822.0118,-190.8716 820.1228,-201.2967 828.1007,-194.325 822.0118,-190.8716"/>
</g>
<!-- Node24&#45;&gt;Node11 -->
<g id="edge30" class="edge">
<title>Node24&#45;&gt;Node11</title>
<path fill="none" stroke="#191970" d="M756.0117,-198.2759C723.8608,-187.7165 683.8645,-174.5805 653.4813,-164.6017"/>
<polygon fill="#191970" stroke="#191970" points="755.1256,-201.6687 765.7184,-201.4639 757.3098,-195.0182 755.1256,-201.6687"/>
</g>
<!-- Node24&#45;&gt;Node13 -->
<g id="edge34" class="edge">
<title>Node24&#45;&gt;Node13</title>
<path fill="none" stroke="#191970" d="M783.3277,-194.8019C773.0079,-186.1358 761.6315,-175.6835 752.5,-165 742.3905,-153.1723 689.2069,-66.0971 667.6189,-30.5494"/>
<polygon fill="#191970" stroke="#191970" points="781.3591,-197.7136 791.3143,-201.3393 785.793,-192.2968 781.3591,-197.7136"/>
</g>
<!-- Node24&#45;&gt;Node16 -->
<g id="edge31" class="edge">
<title>Node24&#45;&gt;Node16</title>
<path fill="none" stroke="#191970" d="M727.7686,-200.8785C636.2732,-184.3284 611.9722,-180.9847 524.5,-165 521.7921,-164.5052 519.0344,-163.9984 516.2493,-163.4842"/>
<polygon fill="#191970" stroke="#191970" points="727.2768,-204.3463 737.7408,-202.6863 728.5255,-197.4585 727.2768,-204.3463"/>
</g>
<!-- Node24&#45;&gt;Node18 -->
<g id="edge32" class="edge">
<title>Node24&#45;&gt;Node18</title>
<path fill="none" stroke="#191970" d="M895.3732,-203.9002C976.884,-191.6553 1099.6916,-173.2066 1179.2385,-161.2568"/>
<polygon fill="#191970" stroke="#191970" points="894.5169,-200.4895 885.1478,-205.4363 895.5568,-207.4118 894.5169,-200.4895"/>
</g>
<!-- Node24&#45;&gt;Node20 -->
<g id="edge33" class="edge">
<title>Node24&#45;&gt;Node20</title>
<path fill="none" stroke="#191970" d="M875.8495,-198.6842C914.2352,-188.0568 962.4447,-174.7095 998.9536,-164.6017"/>
<polygon fill="#191970" stroke="#191970" points="874.5131,-195.4225 865.8095,-201.4639 876.3809,-202.1687 874.5131,-195.4225"/>
</g>
<!-- Node24&#45;&gt;Node22 -->
<g id="edge35" class="edge">
<title>Node24&#45;&gt;Node22</title>
<path fill="none" stroke="#191970" d="M785.9073,-194.312C778.1418,-185.9941 770.5889,-175.8938 766.5,-165 751.1944,-124.2223 740.153,-101.6832 766.5,-67 780.3145,-48.8146 832.3257,-35.3441 877.6949,-26.7502"/>
<polygon fill="#191970" stroke="#191970" points="783.4631,-196.8176 793.0055,-201.4215 788.4168,-191.8718 783.4631,-196.8176"/>
</g>
</g>
</svg>
