<?xml version="1.0" encoding="UTF-8" standalone="no"?>
<!DOCTYPE svg PUBLIC "-//W3C//DTD SVG 1.1//EN"
 "http://www.w3.org/Graphics/SVG/1.1/DTD/svg11.dtd">
<!-- Generated by graphviz version 2.38.0 (20140413.2041)
 -->
<!-- Title: /home/dominik/uni/MoonState/include/common.hpp Pages: 1 -->
<svg width="1109pt" height="307pt"
 viewBox="0.00 0.00 1109.00 307.00" xmlns="http://www.w3.org/2000/svg" xmlns:xlink="http://www.w3.org/1999/xlink">
<g id="graph0" class="graph" transform="scale(1 1) rotate(0) translate(4 303)">
<title>/home/dominik/uni/MoonState/include/common.hpp</title>
<!-- Node1 -->
<g id="node1" class="node"><title>Node1</title>
<polygon fill="#bfbfbf" stroke="black" points="445,-268.5 445,-298.5 592,-298.5 592,-268.5 445,-268.5"/>
<text text-anchor="start" x="453" y="-286.5" font-family="Helvetica,sans-Serif" font-size="10.00">/home/dominik/uni/MoonState</text>
<text text-anchor="middle" x="518.5" y="-275.5" font-family="Helvetica,sans-Serif" font-size="10.00">/include/common.hpp</text>
</g>
<!-- Node2 -->
<g id="node2" class="node"><title>Node2</title>
<g id="a_node2"><a xlink:href="helloBye2Proto_8hpp.html" target="_top" xlink:title="/home/dominik/uni/MoonState\l/include/helloBye2Proto.hpp">
<polygon fill="none" stroke="black" points="282,-134.5 282,-164.5 429,-164.5 429,-134.5 282,-134.5"/>
<text text-anchor="start" x="290" y="-152.5" font-family="Helvetica,sans-Serif" font-size="10.00">/home/dominik/uni/MoonState</text>
<text text-anchor="middle" x="355.5" y="-141.5" font-family="Helvetica,sans-Serif" font-size="10.00">/include/helloBye2Proto.hpp</text>
</a>
</g>
</g>
<!-- Node1&#45;&gt;Node2 -->
<g id="edge1" class="edge"><title>Node1&#45;&gt;Node2</title>
<path fill="none" stroke="midnightblue" d="M499.159,-260.343C483.491,-243.087 460.339,-219.103 437.5,-201 420.074,-187.187 398.622,-174.096 382.03,-164.705"/>
<polygon fill="midnightblue" stroke="midnightblue" points="496.936,-263.107 506.216,-268.219 502.15,-258.436 496.936,-263.107"/>
</g>
<!-- Node7 -->
<g id="node7" class="node"><title>Node7</title>
<g id="a_node7"><a xlink:href="stateMachine_8hpp.html" target="_top" xlink:title="/home/dominik/uni/MoonState\l/include/stateMachine.hpp">
<polygon fill="none" stroke="black" points="282,-201.5 282,-231.5 429,-231.5 429,-201.5 282,-201.5"/>
<text text-anchor="start" x="290" y="-219.5" font-family="Helvetica,sans-Serif" font-size="10.00">/home/dominik/uni/MoonState</text>
<text text-anchor="middle" x="355.5" y="-208.5" font-family="Helvetica,sans-Serif" font-size="10.00">/include/stateMachine.hpp</text>
</a>
</g>
</g>
<!-- Node1&#45;&gt;Node7 -->
<g id="edge7" class="edge"><title>Node1&#45;&gt;Node7</title>
<path fill="none" stroke="midnightblue" d="M473.817,-264.682C447.675,-254.257 415.134,-241.281 390.8,-231.577"/>
<polygon fill="midnightblue" stroke="midnightblue" points="472.546,-267.943 483.131,-268.396 475.139,-261.441 472.546,-267.943"/>
</g>
<!-- Node8 -->
<g id="node8" class="node"><title>Node8</title>
<g id="a_node8"><a xlink:href="helloByeProto_8hpp.html" target="_top" xlink:title="/home/dominik/uni/MoonState\l/include/helloByeProto.hpp">
<polygon fill="none" stroke="black" points="624,-134.5 624,-164.5 771,-164.5 771,-134.5 624,-134.5"/>
<text text-anchor="start" x="632" y="-152.5" font-family="Helvetica,sans-Serif" font-size="10.00">/home/dominik/uni/MoonState</text>
<text text-anchor="middle" x="697.5" y="-141.5" font-family="Helvetica,sans-Serif" font-size="10.00">/include/helloByeProto.hpp</text>
</a>
</g>
</g>
<!-- Node1&#45;&gt;Node8 -->
<g id="edge17" class="edge"><title>Node1&#45;&gt;Node8</title>
<path fill="none" stroke="midnightblue" d="M530.146,-259.019C540.074,-241.061 555.847,-216.779 575.5,-201 596.057,-184.496 622.764,-172.629 645.947,-164.564"/>
<polygon fill="midnightblue" stroke="midnightblue" points="526.842,-257.778 525.244,-268.251 533.025,-261.06 526.842,-257.778"/>
</g>
<!-- Node13 -->
<g id="node13" class="node"><title>Node13</title>
<g id="a_node13"><a xlink:href="IPv4__5TupleL2Ident_8hpp.html" target="_top" xlink:title="/home/dominik/uni/MoonState\l/include/IPv4_5TupleL2Ident.hpp">
<polygon fill="none" stroke="black" points="447.5,-134.5 447.5,-164.5 605.5,-164.5 605.5,-134.5 447.5,-134.5"/>
<text text-anchor="start" x="455.5" y="-152.5" font-family="Helvetica,sans-Serif" font-size="10.00">/home/dominik/uni/MoonState</text>
<text text-anchor="middle" x="526.5" y="-141.5" font-family="Helvetica,sans-Serif" font-size="10.00">/include/IPv4_5TupleL2Ident.hpp</text>
</a>
</g>
</g>
<!-- Node1&#45;&gt;Node13 -->
<g id="edge18" class="edge"><title>Node1&#45;&gt;Node13</title>
<path fill="none" stroke="midnightblue" d="M519.961,-258.39C521.627,-230.901 524.295,-186.888 525.65,-164.525"/>
<polygon fill="midnightblue" stroke="midnightblue" points="516.468,-258.18 519.356,-268.374 523.455,-258.604 516.468,-258.18"/>
</g>
<!-- Node14 -->
<g id="node14" class="node"><title>Node14</title>
<g id="a_node14"><a xlink:href="hexdump_8cpp.html" target="_top" xlink:title="/home/dominik/uni/MoonState\l/src/hexdump.cpp">
<polygon fill="none" stroke="black" points="585,-201.5 585,-231.5 732,-231.5 732,-201.5 585,-201.5"/>
<text text-anchor="start" x="593" y="-219.5" font-family="Helvetica,sans-Serif" font-size="10.00">/home/dominik/uni/MoonState</text>
<text text-anchor="middle" x="658.5" y="-208.5" font-family="Helvetica,sans-Serif" font-size="10.00">/src/hexdump.cpp</text>
</a>
</g>
</g>
<!-- Node1&#45;&gt;Node14 -->
<g id="edge22" class="edge"><title>Node1&#45;&gt;Node14</title>
<path fill="none" stroke="midnightblue" d="M558.065,-264.131C580.31,-253.802 607.647,-241.11 628.181,-231.577"/>
<polygon fill="midnightblue" stroke="midnightblue" points="556.474,-261.01 548.878,-268.396 559.422,-267.359 556.474,-261.01"/>
</g>
<!-- Node3 -->
<g id="node3" class="node"><title>Node3</title>
<g id="a_node3"><a xlink:href="helloBye2__C_8hpp.html" target="_top" xlink:title="/home/dominik/uni/MoonState\l/include/helloBye2_C.hpp">
<polygon fill="none" stroke="black" points="51,-67.5 51,-97.5 198,-97.5 198,-67.5 51,-67.5"/>
<text text-anchor="start" x="59" y="-85.5" font-family="Helvetica,sans-Serif" font-size="10.00">/home/dominik/uni/MoonState</text>
<text text-anchor="middle" x="124.5" y="-74.5" font-family="Helvetica,sans-Serif" font-size="10.00">/include/helloBye2_C.hpp</text>
</a>
</g>
</g>
<!-- Node2&#45;&gt;Node3 -->
<g id="edge2" class="edge"><title>Node2&#45;&gt;Node3</title>
<path fill="none" stroke="midnightblue" d="M295.848,-131.715C258.257,-121.137 210.271,-107.635 174.648,-97.6109"/>
<polygon fill="midnightblue" stroke="midnightblue" points="295.087,-135.136 305.661,-134.476 296.983,-128.398 295.087,-135.136"/>
</g>
<!-- Node5 -->
<g id="node5" class="node"><title>Node5</title>
<g id="a_node5"><a xlink:href="helloBye2Proto_8cpp.html" target="_top" xlink:title="/home/dominik/uni/MoonState\l/src/helloBye2Proto.cpp">
<polygon fill="none" stroke="black" points="420,-67.5 420,-97.5 567,-97.5 567,-67.5 420,-67.5"/>
<text text-anchor="start" x="428" y="-85.5" font-family="Helvetica,sans-Serif" font-size="10.00">/home/dominik/uni/MoonState</text>
<text text-anchor="middle" x="493.5" y="-74.5" font-family="Helvetica,sans-Serif" font-size="10.00">/src/helloBye2Proto.cpp</text>
</a>
</g>
</g>
<!-- Node2&#45;&gt;Node5 -->
<g id="edge4" class="edge"><title>Node2&#45;&gt;Node5</title>
<path fill="none" stroke="midnightblue" d="M388.916,-129.853C409.825,-119.576 436.637,-107.025 457.94,-97.5765"/>
<polygon fill="midnightblue" stroke="midnightblue" points="387.166,-126.814 379.766,-134.396 390.279,-133.084 387.166,-126.814"/>
</g>
<!-- Node6 -->
<g id="node6" class="node"><title>Node6</title>
<g id="a_node6"><a xlink:href="helloBye2ProtoStatic_8cpp.html" target="_top" xlink:title="/home/dominik/uni/MoonState\l/src/helloBye2ProtoStatic.cpp">
<polygon fill="none" stroke="black" points="255,-67.5 255,-97.5 402,-97.5 402,-67.5 255,-67.5"/>
<text text-anchor="start" x="263" y="-85.5" font-family="Helvetica,sans-Serif" font-size="10.00">/home/dominik/uni/MoonState</text>
<text text-anchor="middle" x="328.5" y="-74.5" font-family="Helvetica,sans-Serif" font-size="10.00">/src/helloBye2ProtoStatic.cpp</text>
</a>
</g>
</g>
<!-- Node2&#45;&gt;Node6 -->
<g id="edge6" class="edge"><title>Node2&#45;&gt;Node6</title>
<path fill="none" stroke="midnightblue" d="M345.735,-124.991C341.919,-115.804 337.671,-105.578 334.347,-97.5765"/>
<polygon fill="midnightblue" stroke="midnightblue" points="342.573,-126.504 349.641,-134.396 349.038,-123.818 342.573,-126.504"/>
</g>
<!-- Node4 -->
<g id="node4" class="node"><title>Node4</title>
<g id="a_node4"><a xlink:href="helloBye2__C_8cpp.html" target="_top" xlink:title="/home/dominik/uni/MoonState\l/src/helloBye2_C.cpp">
<polygon fill="none" stroke="black" points="0,-0.5 0,-30.5 147,-30.5 147,-0.5 0,-0.5"/>
<text text-anchor="start" x="8" y="-18.5" font-family="Helvetica,sans-Serif" font-size="10.00">/home/dominik/uni/MoonState</text>
<text text-anchor="middle" x="73.5" y="-7.5" font-family="Helvetica,sans-Serif" font-size="10.00">/src/helloBye2_C.cpp</text>
</a>
</g>
</g>
<!-- Node3&#45;&gt;Node4 -->
<g id="edge3" class="edge"><title>Node3&#45;&gt;Node4</title>
<path fill="none" stroke="midnightblue" d="M107.197,-59.4472C99.7051,-49.8986 91.1567,-39.0037 84.5446,-30.5765"/>
<polygon fill="midnightblue" stroke="midnightblue" points="104.507,-61.6891 113.434,-67.396 110.014,-57.368 104.507,-61.6891"/>
</g>
<!-- Node5&#45;&gt;Node2 -->
<g id="edge5" class="edge"><title>Node5&#45;&gt;Node2</title>
<path fill="none" stroke="midnightblue" d="M460.145,-102.117C439.247,-112.39 412.435,-124.941 391.122,-134.396"/>
<polygon fill="midnightblue" stroke="midnightblue" points="461.889,-105.159 469.289,-97.5765 458.776,-98.8888 461.889,-105.159"/>
</g>
<!-- Node7&#45;&gt;Node2 -->
<g id="edge8" class="edge"><title>Node7&#45;&gt;Node2</title>
<path fill="none" stroke="midnightblue" d="M355.5,-191.108C355.5,-182.154 355.5,-172.323 355.5,-164.577"/>
<polygon fill="midnightblue" stroke="midnightblue" points="352,-191.396 355.5,-201.396 359,-191.396 352,-191.396"/>
</g>
<!-- Node7&#45;&gt;Node4 -->
<g id="edge15" class="edge"><title>Node7&#45;&gt;Node4</title>
<path fill="none" stroke="midnightblue" d="M271.392,-209.674C197.127,-199.558 92.9012,-172.117 41.5,-98 26.7734,-76.7653 45.7169,-47.7932 60.1065,-30.7239"/>
<polygon fill="midnightblue" stroke="midnightblue" points="271.3,-213.191 281.664,-210.99 272.189,-206.248 271.3,-213.191"/>
</g>
<!-- Node7&#45;&gt;Node8 -->
<g id="edge9" class="edge"><title>Node7&#45;&gt;Node8</title>
<path fill="none" stroke="midnightblue" d="M439.268,-199.579C495.76,-188.842 569.6,-174.808 623.844,-164.499"/>
<polygon fill="midnightblue" stroke="midnightblue" points="438.458,-196.17 429.288,-201.476 439.766,-203.047 438.458,-196.17"/>
</g>
<!-- Node10 -->
<g id="node10" class="node"><title>Node10</title>
<g id="a_node10"><a xlink:href="helloBye__C_8cpp.html" target="_top" xlink:title="/home/dominik/uni/MoonState\l/src/helloBye_C.cpp">
<polygon fill="none" stroke="black" points="522,-0.5 522,-30.5 669,-30.5 669,-0.5 522,-0.5"/>
<text text-anchor="start" x="530" y="-18.5" font-family="Helvetica,sans-Serif" font-size="10.00">/home/dominik/uni/MoonState</text>
<text text-anchor="middle" x="595.5" y="-7.5" font-family="Helvetica,sans-Serif" font-size="10.00">/src/helloBye_C.cpp</text>
</a>
</g>
</g>
<!-- Node7&#45;&gt;Node10 -->
<g id="edge16" class="edge"><title>Node7&#45;&gt;Node10</title>
<path fill="none" stroke="midnightblue" d="M313.199,-196.673C298.776,-188.597 283.526,-177.994 272.5,-165 243.27,-130.552 215.923,-101.151 245.5,-67 280.518,-26.5672 430.021,-17.7799 521.934,-16.2908"/>
<polygon fill="midnightblue" stroke="midnightblue" points="311.556,-199.763 322.028,-201.373 314.846,-193.584 311.556,-199.763"/>
</g>
<!-- Node9 -->
<g id="node9" class="node"><title>Node9</title>
<g id="a_node9"><a xlink:href="helloBye__C_8hpp.html" target="_top" xlink:title="/home/dominik/uni/MoonState\l/include/helloBye_C.hpp">
<polygon fill="none" stroke="black" points="789,-67.5 789,-97.5 936,-97.5 936,-67.5 789,-67.5"/>
<text text-anchor="start" x="797" y="-85.5" font-family="Helvetica,sans-Serif" font-size="10.00">/home/dominik/uni/MoonState</text>
<text text-anchor="middle" x="862.5" y="-74.5" font-family="Helvetica,sans-Serif" font-size="10.00">/include/helloBye_C.hpp</text>
</a>
</g>
</g>
<!-- Node8&#45;&gt;Node9 -->
<g id="edge10" class="edge"><title>Node8&#45;&gt;Node9</title>
<path fill="none" stroke="midnightblue" d="M742.732,-130.682C769.194,-120.257 802.134,-107.281 826.767,-97.5765"/>
<polygon fill="midnightblue" stroke="midnightblue" points="741.324,-127.474 733.303,-134.396 743.889,-133.987 741.324,-127.474"/>
</g>
<!-- Node11 -->
<g id="node11" class="node"><title>Node11</title>
<g id="a_node11"><a xlink:href="helloByeProto_8cpp.html" target="_top" xlink:title="/home/dominik/uni/MoonState\l/src/helloByeProto.cpp">
<polygon fill="none" stroke="black" points="624,-67.5 624,-97.5 771,-97.5 771,-67.5 624,-67.5"/>
<text text-anchor="start" x="632" y="-85.5" font-family="Helvetica,sans-Serif" font-size="10.00">/home/dominik/uni/MoonState</text>
<text text-anchor="middle" x="697.5" y="-74.5" font-family="Helvetica,sans-Serif" font-size="10.00">/src/helloByeProto.cpp</text>
</a>
</g>
</g>
<!-- Node8&#45;&gt;Node11 -->
<g id="edge12" class="edge"><title>Node8&#45;&gt;Node11</title>
<path fill="none" stroke="midnightblue" d="M690.955,-124.403C690.505,-115.37 690.796,-105.408 691.825,-97.5765"/>
<polygon fill="midnightblue" stroke="midnightblue" points="687.47,-124.736 691.822,-134.396 694.444,-124.131 687.47,-124.736"/>
</g>
<!-- Node12 -->
<g id="node12" class="node"><title>Node12</title>
<g id="a_node12"><a xlink:href="helloByeProtoStatic_8cpp.html" target="_top" xlink:title="/home/dominik/uni/MoonState\l/src/helloByeProtoStatic.cpp">
<polygon fill="none" stroke="black" points="954,-67.5 954,-97.5 1101,-97.5 1101,-67.5 954,-67.5"/>
<text text-anchor="start" x="962" y="-85.5" font-family="Helvetica,sans-Serif" font-size="10.00">/home/dominik/uni/MoonState</text>
<text text-anchor="middle" x="1027.5" y="-74.5" font-family="Helvetica,sans-Serif" font-size="10.00">/src/helloByeProtoStatic.cpp</text>
</a>
</g>
</g>
<!-- Node8&#45;&gt;Node12 -->
<g id="edge14" class="edge"><title>Node8&#45;&gt;Node12</title>
<path fill="none" stroke="midnightblue" d="M778.65,-132.516C833.02,-121.807 903.933,-107.839 956.145,-97.5549"/>
<polygon fill="midnightblue" stroke="midnightblue" points="777.834,-129.109 768.699,-134.476 779.187,-135.977 777.834,-129.109"/>
</g>
<!-- Node9&#45;&gt;Node10 -->
<g id="edge11" class="edge"><title>Node9&#45;&gt;Node10</title>
<path fill="none" stroke="midnightblue" d="M794.935,-65.0515C751.284,-54.425 695.076,-40.7414 653.463,-30.6109"/>
<polygon fill="midnightblue" stroke="midnightblue" points="794.35,-68.5112 804.894,-67.476 796.005,-61.7099 794.35,-68.5112"/>
</g>
<!-- Node11&#45;&gt;Node8 -->
<g id="edge13" class="edge"><title>Node11&#45;&gt;Node8</title>
<path fill="none" stroke="midnightblue" d="M704.044,-107.565C704.495,-116.596 704.206,-126.56 703.178,-134.396"/>
<polygon fill="midnightblue" stroke="midnightblue" points="707.528,-107.236 703.175,-97.5765 700.555,-107.842 707.528,-107.236"/>
</g>
<!-- Node13&#45;&gt;Node5 -->
<g id="edge19" class="edge"><title>Node13&#45;&gt;Node5</title>
<path fill="none" stroke="midnightblue" d="M514.713,-125.283C510.011,-116.022 504.752,-105.663 500.647,-97.5765"/>
<polygon fill="midnightblue" stroke="midnightblue" points="511.692,-127.064 519.339,-134.396 517.933,-123.895 511.692,-127.064"/>
</g>
<!-- Node13&#45;&gt;Node10 -->
<g id="edge21" class="edge"><title>Node13&#45;&gt;Node10</title>
<path fill="none" stroke="midnightblue" d="M551.788,-127.521C560.445,-119.152 569.461,-108.912 575.5,-98 587.493,-76.3299 592.378,-47.5006 594.306,-30.5765"/>
<polygon fill="midnightblue" stroke="midnightblue" points="549.342,-125.016 544.356,-134.364 554.083,-130.165 549.342,-125.016"/>
</g>
<!-- Node13&#45;&gt;Node11 -->
<g id="edge20" class="edge"><title>Node13&#45;&gt;Node11</title>
<path fill="none" stroke="midnightblue" d="M573.016,-130.819C600.502,-120.371 634.827,-107.323 660.468,-97.5765"/>
<polygon fill="midnightblue" stroke="midnightblue" points="571.708,-127.571 563.604,-134.396 574.196,-134.114 571.708,-127.571"/>
</g>
</g>
</svg>
