<?xml version="1.0" encoding="UTF-8" standalone="no"?>
<!DOCTYPE svg PUBLIC "-//W3C//DTD SVG 1.1//EN"
 "http://www.w3.org/Graphics/SVG/1.1/DTD/svg11.dtd">
<!-- Generated by graphviz version 2.38.0 (20140413.2041)
 -->
<!-- Title: /home/dominik/uni/MoonState/include/common.hpp Pages: 1 -->
<svg width="552pt" height="307pt"
 viewBox="0.00 0.00 551.86 307.00" xmlns="http://www.w3.org/2000/svg" xmlns:xlink="http://www.w3.org/1999/xlink">
<g id="graph0" class="graph" transform="scale(1 1) rotate(0) translate(4 303)">
<title>/home/dominik/uni/MoonState/include/common.hpp</title>
<!-- Node1 -->
<g id="node1" class="node"><title>Node1</title>
<polygon fill="#bfbfbf" stroke="black" points="180.856,-268.5 180.856,-298.5 327.856,-298.5 327.856,-268.5 180.856,-268.5"/>
<text text-anchor="start" x="188.856" y="-286.5" font-family="Helvetica,sans-Serif" font-size="10.00">/home/dominik/uni/MoonState</text>
<text text-anchor="middle" x="254.356" y="-275.5" font-family="Helvetica,sans-Serif" font-size="10.00">/include/common.hpp</text>
</g>
<!-- Node2 -->
<g id="node2" class="node"><title>Node2</title>
<g id="a_node2"><a xlink:href="helloByeProto_8hpp.html" target="_top" xlink:title="/home/dominik/uni/MoonState\l/include/helloByeProto.hpp">
<polygon fill="none" stroke="black" points="180.856,-134.5 180.856,-164.5 327.856,-164.5 327.856,-134.5 180.856,-134.5"/>
<text text-anchor="start" x="188.856" y="-152.5" font-family="Helvetica,sans-Serif" font-size="10.00">/home/dominik/uni/MoonState</text>
<text text-anchor="middle" x="254.356" y="-141.5" font-family="Helvetica,sans-Serif" font-size="10.00">/include/helloByeProto.hpp</text>
</a>
</g>
</g>
<!-- Node1&#45;&gt;Node2 -->
<g id="edge1" class="edge"><title>Node1&#45;&gt;Node2</title>
<path fill="none" stroke="midnightblue" d="M236.141,-259.801C230.588,-251.539 225.202,-241.809 222.356,-232 218.516,-218.768 218.516,-214.232 222.356,-201 226.231,-187.643 234.817,-174.432 242.12,-164.875"/>
<polygon fill="midnightblue" stroke="midnightblue" points="233.444,-262.045 242.12,-268.125 239.129,-257.961 233.444,-262.045"/>
</g>
<!-- Node7 -->
<g id="node7" class="node"><title>Node7</title>
<g id="a_node7"><a xlink:href="stateMachine_8hpp.html" target="_top" xlink:title="/home/dominik/uni/MoonState\l/include/stateMachine.hpp">
<polygon fill="none" stroke="black" points="231.856,-201.5 231.856,-231.5 378.856,-231.5 378.856,-201.5 231.856,-201.5"/>
<text text-anchor="start" x="239.856" y="-219.5" font-family="Helvetica,sans-Serif" font-size="10.00">/home/dominik/uni/MoonState</text>
<text text-anchor="middle" x="305.356" y="-208.5" font-family="Helvetica,sans-Serif" font-size="10.00">/include/stateMachine.hpp</text>
</a>
</g>
</g>
<!-- Node1&#45;&gt;Node7 -->
<g id="edge7" class="edge"><title>Node1&#45;&gt;Node7</title>
<path fill="none" stroke="midnightblue" d="M271.658,-260.447C279.15,-250.899 287.699,-240.004 294.311,-231.577"/>
<polygon fill="midnightblue" stroke="midnightblue" points="268.841,-258.368 265.422,-268.396 274.348,-262.689 268.841,-258.368"/>
</g>
<!-- Node8 -->
<g id="node8" class="node"><title>Node8</title>
<g id="a_node8"><a xlink:href="IPv4__5TupleL2Ident_8hpp.html" target="_top" xlink:title="/home/dominik/uni/MoonState\l/include/IPv4_5TupleL2Ident.hpp">
<polygon fill="none" stroke="black" points="4.35553,-134.5 4.35553,-164.5 162.356,-164.5 162.356,-134.5 4.35553,-134.5"/>
<text text-anchor="start" x="12.3555" y="-152.5" font-family="Helvetica,sans-Serif" font-size="10.00">/home/dominik/uni/MoonState</text>
<text text-anchor="middle" x="83.3555" y="-141.5" font-family="Helvetica,sans-Serif" font-size="10.00">/include/IPv4_5TupleL2Ident.hpp</text>
</a>
</g>
</g>
<!-- Node1&#45;&gt;Node8 -->
<g id="edge10" class="edge"><title>Node1&#45;&gt;Node8</title>
<path fill="none" stroke="midnightblue" d="M227.719,-261.938C192.612,-234.838 131.777,-187.878 101.524,-164.525"/>
<polygon fill="midnightblue" stroke="midnightblue" points="226.001,-265.034 236.056,-268.374 230.278,-259.493 226.001,-265.034"/>
</g>
<!-- Node9 -->
<g id="node9" class="node"><title>Node9</title>
<g id="a_node9"><a xlink:href="hexdump_8cpp.html" target="_top" xlink:title="/home/dominik/uni/MoonState\l/src/hexdump.cpp">
<polygon fill="none" stroke="black" points="396.856,-201.5 396.856,-231.5 543.856,-231.5 543.856,-201.5 396.856,-201.5"/>
<text text-anchor="start" x="404.856" y="-219.5" font-family="Helvetica,sans-Serif" font-size="10.00">/home/dominik/uni/MoonState</text>
<text text-anchor="middle" x="470.356" y="-208.5" font-family="Helvetica,sans-Serif" font-size="10.00">/src/hexdump.cpp</text>
</a>
</g>
</g>
<!-- Node1&#45;&gt;Node9 -->
<g id="edge13" class="edge"><title>Node1&#45;&gt;Node9</title>
<path fill="none" stroke="midnightblue" d="M310.583,-265.58C345.665,-255.022 390.295,-241.592 423.464,-231.611"/>
<polygon fill="midnightblue" stroke="midnightblue" points="309.526,-262.243 300.958,-268.476 311.543,-268.946 309.526,-262.243"/>
</g>
<!-- Node3 -->
<g id="node3" class="node"><title>Node3</title>
<g id="a_node3"><a xlink:href="helloBye__C_8hpp.html" target="_top" xlink:title="/home/dominik/uni/MoonState\l/include/helloBye_C.hpp">
<polygon fill="none" stroke="black" points="345.856,-67.5 345.856,-97.5 492.856,-97.5 492.856,-67.5 345.856,-67.5"/>
<text text-anchor="start" x="353.856" y="-85.5" font-family="Helvetica,sans-Serif" font-size="10.00">/home/dominik/uni/MoonState</text>
<text text-anchor="middle" x="419.356" y="-74.5" font-family="Helvetica,sans-Serif" font-size="10.00">/include/helloBye_C.hpp</text>
</a>
</g>
</g>
<!-- Node2&#45;&gt;Node3 -->
<g id="edge2" class="edge"><title>Node2&#45;&gt;Node3</title>
<path fill="none" stroke="midnightblue" d="M299.587,-130.682C326.05,-120.257 358.99,-107.281 383.623,-97.5765"/>
<polygon fill="midnightblue" stroke="midnightblue" points="298.179,-127.474 290.158,-134.396 300.745,-133.987 298.179,-127.474"/>
</g>
<!-- Node5 -->
<g id="node5" class="node"><title>Node5</title>
<g id="a_node5"><a xlink:href="helloByeProto_8cpp.html" target="_top" xlink:title="/home/dominik/uni/MoonState\l/src/helloByeProto.cpp">
<polygon fill="none" stroke="black" points="15.8555,-67.5 15.8555,-97.5 162.856,-97.5 162.856,-67.5 15.8555,-67.5"/>
<text text-anchor="start" x="23.8555" y="-85.5" font-family="Helvetica,sans-Serif" font-size="10.00">/home/dominik/uni/MoonState</text>
<text text-anchor="middle" x="89.3555" y="-74.5" font-family="Helvetica,sans-Serif" font-size="10.00">/src/helloByeProto.cpp</text>
</a>
</g>
</g>
<!-- Node2&#45;&gt;Node5 -->
<g id="edge4" class="edge"><title>Node2&#45;&gt;Node5</title>
<path fill="none" stroke="midnightblue" d="M203.389,-130.819C175.858,-120.371 142.873,-107.323 119.413,-97.5765"/>
<polygon fill="midnightblue" stroke="midnightblue" points="202.283,-134.142 212.875,-134.396 204.753,-127.592 202.283,-134.142"/>
</g>
<!-- Node6 -->
<g id="node6" class="node"><title>Node6</title>
<g id="a_node6"><a xlink:href="helloByeProtoStatic_8cpp.html" target="_top" xlink:title="/home/dominik/uni/MoonState\l/src/helloByeProtoStatic.cpp">
<polygon fill="none" stroke="black" points="180.856,-67.5 180.856,-97.5 327.856,-97.5 327.856,-67.5 180.856,-67.5"/>
<text text-anchor="start" x="188.856" y="-85.5" font-family="Helvetica,sans-Serif" font-size="10.00">/home/dominik/uni/MoonState</text>
<text text-anchor="middle" x="254.356" y="-74.5" font-family="Helvetica,sans-Serif" font-size="10.00">/src/helloByeProtoStatic.cpp</text>
</a>
</g>
</g>
<!-- Node2&#45;&gt;Node6 -->
<g id="edge6" class="edge"><title>Node2&#45;&gt;Node6</title>
<path fill="none" stroke="midnightblue" d="M254.356,-124.108C254.356,-115.154 254.356,-105.323 254.356,-97.5765"/>
<polygon fill="midnightblue" stroke="midnightblue" points="250.856,-124.396 254.356,-134.396 257.856,-124.396 250.856,-124.396"/>
</g>
<!-- Node4 -->
<g id="node4" class="node"><title>Node4</title>
<g id="a_node4"><a xlink:href="helloBye__C_8cpp.html" target="_top" xlink:title="/home/dominik/uni/MoonState\l/src/helloBye_C.cpp">
<polygon fill="none" stroke="black" points="345.856,-0.5 345.856,-30.5 492.856,-30.5 492.856,-0.5 345.856,-0.5"/>
<text text-anchor="start" x="353.856" y="-18.5" font-family="Helvetica,sans-Serif" font-size="10.00">/home/dominik/uni/MoonState</text>
<text text-anchor="middle" x="419.356" y="-7.5" font-family="Helvetica,sans-Serif" font-size="10.00">/src/helloBye_C.cpp</text>
</a>
</g>
</g>
<!-- Node3&#45;&gt;Node4 -->
<g id="edge3" class="edge"><title>Node3&#45;&gt;Node4</title>
<path fill="none" stroke="midnightblue" d="M419.356,-57.1081C419.356,-48.1539 419.356,-38.3227 419.356,-30.5765"/>
<polygon fill="midnightblue" stroke="midnightblue" points="415.856,-57.3959 419.356,-67.396 422.856,-57.396 415.856,-57.3959"/>
</g>
<!-- Node5&#45;&gt;Node2 -->
<g id="edge5" class="edge"><title>Node5&#45;&gt;Node2</title>
<path fill="none" stroke="midnightblue" d="M140.245,-101.152C167.765,-111.595 200.753,-124.643 224.231,-134.396"/>
<polygon fill="midnightblue" stroke="midnightblue" points="141.355,-97.8301 130.763,-97.5765 138.885,-104.38 141.355,-97.8301"/>
</g>
<!-- Node7&#45;&gt;Node2 -->
<g id="edge8" class="edge"><title>Node7&#45;&gt;Node2</title>
<path fill="none" stroke="midnightblue" d="M288.053,-193.447C280.561,-183.899 272.012,-173.004 265.4,-164.577"/>
<polygon fill="midnightblue" stroke="midnightblue" points="285.363,-195.689 294.289,-201.396 290.87,-191.368 285.363,-195.689"/>
</g>
<!-- Node7&#45;&gt;Node4 -->
<g id="edge9" class="edge"><title>Node7&#45;&gt;Node4</title>
<path fill="none" stroke="midnightblue" d="M365.001,-197.926C411.589,-180.7 473.163,-149.403 502.356,-98 509.16,-86.0195 509.107,-79.0103 502.356,-67 493.016,-50.385 475.75,-38.5985 459.374,-30.6152"/>
<polygon fill="midnightblue" stroke="midnightblue" points="363.544,-194.729 355.304,-201.39 365.899,-201.321 363.544,-194.729"/>
</g>
<!-- Node8&#45;&gt;Node4 -->
<g id="edge12" class="edge"><title>Node8&#45;&gt;Node4</title>
<path fill="none" stroke="midnightblue" d="M44.8639,-129.476C16.8602,-113.164 -13.0283,-88.8984 6.35553,-67 28.4094,-42.0852 232.654,-26.8748 345.411,-20.3057"/>
<polygon fill="midnightblue" stroke="midnightblue" points="43.3874,-132.66 53.8249,-134.48 46.8001,-126.548 43.3874,-132.66"/>
</g>
<!-- Node8&#45;&gt;Node5 -->
<g id="edge11" class="edge"><title>Node8&#45;&gt;Node5</title>
<path fill="none" stroke="midnightblue" d="M85.5799,-124.403C86.4137,-115.37 87.3333,-105.408 88.0562,-97.5765"/>
<polygon fill="midnightblue" stroke="midnightblue" points="82.0915,-124.117 84.6574,-134.396 89.0619,-124.76 82.0915,-124.117"/>
</g>
</g>
</svg>
