<?xml version="1.0" encoding="UTF-8" standalone="no"?>
<!DOCTYPE svg PUBLIC "-//W3C//DTD SVG 1.1//EN"
 "http://www.w3.org/Graphics/SVG/1.1/DTD/svg11.dtd">
<!-- Generated by graphviz version 2.40.1 (20161225.0304)
 -->
<!-- Title: /home/dominik/uni/MoonState/include/common.hpp Pages: 1 -->
<svg width="1167pt" height="374pt"
 viewBox="0.00 0.00 1167.00 374.00" xmlns="http://www.w3.org/2000/svg" xmlns:xlink="http://www.w3.org/1999/xlink">
<g id="graph0" class="graph" transform="scale(1 1) rotate(0) translate(4 370)">
<title>/home/dominik/uni/MoonState/include/common.hpp</title>
<!-- Node3 -->
<g id="node1" class="node">
<title>Node3</title>
<polygon fill="#bfbfbf" stroke="#000000" points="587,-335.5 587,-365.5 734,-365.5 734,-335.5 587,-335.5"/>
<text text-anchor="start" x="595" y="-353.5" font-family="Helvetica,sans-Serif" font-size="10.00" fill="#000000">/home/dominik/uni/MoonState</text>
<text text-anchor="middle" x="660.5" y="-342.5" font-family="Helvetica,sans-Serif" font-size="10.00" fill="#000000">/include/common.hpp</text>
</g>
<!-- Node4 -->
<g id="node2" class="node">
<title>Node4</title>
<g id="a_node2"><a xlink:href="dtls_8hpp.html" target="_top" xlink:title="/home/dominik/uni/MoonState\l/include/dtls.hpp">
<polygon fill="none" stroke="#000000" points="165,-268.5 165,-298.5 312,-298.5 312,-268.5 165,-268.5"/>
<text text-anchor="start" x="173" y="-286.5" font-family="Helvetica,sans-Serif" font-size="10.00" fill="#000000">/home/dominik/uni/MoonState</text>
<text text-anchor="middle" x="238.5" y="-275.5" font-family="Helvetica,sans-Serif" font-size="10.00" fill="#000000">/include/dtls.hpp</text>
</a>
</g>
</g>
<!-- Node3&#45;&gt;Node4 -->
<g id="edge1" class="edge">
<title>Node3&#45;&gt;Node4</title>
<path fill="none" stroke="#191970" d="M576.63,-338.0751C509.0337,-327.9389 411.5689,-313.0487 326.5,-299 321.9083,-298.2417 317.1843,-297.4483 312.422,-296.6384"/>
<polygon fill="#191970" stroke="#191970" points="576.3902,-341.5782 586.7983,-339.5978 577.4269,-334.6553 576.3902,-341.5782"/>
</g>
<!-- Node7 -->
<g id="node5" class="node">
<title>Node7</title>
<g id="a_node5"><a xlink:href="IPv4__5TupleL2Ident_8hpp.html" target="_top" xlink:title="/home/dominik/uni/MoonState\l/include/IPv4_5TupleL2Ident.hpp">
<polygon fill="none" stroke="#000000" points="635.5,-268.5 635.5,-298.5 793.5,-298.5 793.5,-268.5 635.5,-268.5"/>
<text text-anchor="start" x="643.5" y="-286.5" font-family="Helvetica,sans-Serif" font-size="10.00" fill="#000000">/home/dominik/uni/MoonState</text>
<text text-anchor="middle" x="714.5" y="-275.5" font-family="Helvetica,sans-Serif" font-size="10.00" fill="#000000">/include/IPv4_5TupleL2Ident.hpp</text>
</a>
</g>
</g>
<!-- Node3&#45;&gt;Node7 -->
<g id="edge6" class="edge">
<title>Node3&#45;&gt;Node7</title>
<path fill="none" stroke="#191970" d="M679.1575,-327.3509C686.8164,-317.8482 695.4685,-307.1132 702.2951,-298.6432"/>
<polygon fill="#191970" stroke="#191970" points="676.3036,-325.3143 672.7534,-335.2967 681.7538,-329.707 676.3036,-325.3143"/>
</g>
<!-- Node11 -->
<g id="node9" class="node">
<title>Node11</title>
<g id="a_node9"><a xlink:href="helloBye2Proto_8hpp.html" target="_top" xlink:title="/home/dominik/uni/MoonState\l/include/helloBye2Proto.hpp">
<polygon fill="none" stroke="#000000" points="311,-134.5 311,-164.5 458,-164.5 458,-134.5 311,-134.5"/>
<text text-anchor="start" x="319" y="-152.5" font-family="Helvetica,sans-Serif" font-size="10.00" fill="#000000">/home/dominik/uni/MoonState</text>
<text text-anchor="middle" x="384.5" y="-141.5" font-family="Helvetica,sans-Serif" font-size="10.00" fill="#000000">/include/helloBye2Proto.hpp</text>
</a>
</g>
</g>
<!-- Node3&#45;&gt;Node11 -->
<g id="edge28" class="edge">
<title>Node3&#45;&gt;Node11</title>
<path fill="none" stroke="#191970" d="M590.4847,-332.7161C510.2589,-310.7563 386.3671,-271.4514 359.5,-232 345.3474,-211.2184 360.5367,-182.1829 372.6516,-164.6766"/>
<polygon fill="#191970" stroke="#191970" points="589.9605,-336.2002 600.5278,-335.4372 591.7911,-329.4438 589.9605,-336.2002"/>
</g>
<!-- Node16 -->
<g id="node14" class="node">
<title>Node16</title>
<g id="a_node14"><a xlink:href="helloByeProto_8hpp.html" target="_top" xlink:title="/home/dominik/uni/MoonState\l/include/helloByeProto.hpp">
<polygon fill="none" stroke="#000000" points="738,-134.5 738,-164.5 885,-164.5 885,-134.5 738,-134.5"/>
<text text-anchor="start" x="746" y="-152.5" font-family="Helvetica,sans-Serif" font-size="10.00" fill="#000000">/home/dominik/uni/MoonState</text>
<text text-anchor="middle" x="811.5" y="-141.5" font-family="Helvetica,sans-Serif" font-size="10.00" fill="#000000">/include/helloByeProto.hpp</text>
</a>
</g>
</g>
<!-- Node3&#45;&gt;Node16 -->
<g id="edge29" class="edge">
<title>Node3&#45;&gt;Node16</title>
<path fill="none" stroke="#191970" d="M743.7361,-334.2754C798.4298,-318.559 864.9616,-288.4509 893.5,-232 899.7161,-219.7042 900.1658,-213.0579 893.5,-201 884.472,-184.6691 867.8567,-172.818 851.931,-164.6321"/>
<polygon fill="#191970" stroke="#191970" points="742.7333,-330.9212 734.0232,-336.9532 744.5938,-337.6694 742.7333,-330.9212"/>
</g>
<!-- Node20 -->
<g id="node18" class="node">
<title>Node20</title>
<g id="a_node18"><a xlink:href="stateMachine_8hpp.html" target="_top" xlink:title="/home/dominik/uni/MoonState\l/include/stateMachine.hpp">
<polygon fill="none" stroke="#000000" points="534,-201.5 534,-231.5 681,-231.5 681,-201.5 534,-201.5"/>
<text text-anchor="start" x="542" y="-219.5" font-family="Helvetica,sans-Serif" font-size="10.00" fill="#000000">/home/dominik/uni/MoonState</text>
<text text-anchor="middle" x="607.5" y="-208.5" font-family="Helvetica,sans-Serif" font-size="10.00" fill="#000000">/include/stateMachine.hpp</text>
</a>
</g>
</g>
<!-- Node3&#45;&gt;Node20 -->
<g id="edge22" class="edge">
<title>Node3&#45;&gt;Node20</title>
<path fill="none" stroke="#191970" d="M642.3542,-326.883C636.5845,-318.453 630.635,-308.6473 626.5,-299 616.8881,-276.5747 611.7527,-248.5433 609.3298,-231.6055"/>
<polygon fill="#191970" stroke="#191970" points="639.5622,-328.9961 648.2181,-335.1057 645.2615,-324.9317 639.5622,-328.9961"/>
</g>
<!-- Node21 -->
<g id="node19" class="node">
<title>Node21</title>
<g id="a_node19"><a xlink:href="hexdump_8cpp.html" target="_top" xlink:title="/home/dominik/uni/MoonState\l/src/hexdump.cpp">
<polygon fill="none" stroke="#000000" points="1012,-268.5 1012,-298.5 1159,-298.5 1159,-268.5 1012,-268.5"/>
<text text-anchor="start" x="1020" y="-286.5" font-family="Helvetica,sans-Serif" font-size="10.00" fill="#000000">/home/dominik/uni/MoonState</text>
<text text-anchor="middle" x="1085.5" y="-275.5" font-family="Helvetica,sans-Serif" font-size="10.00" fill="#000000">/src/hexdump.cpp</text>
</a>
</g>
</g>
<!-- Node3&#45;&gt;Node21 -->
<g id="edge30" class="edge">
<title>Node3&#45;&gt;Node21</title>
<path fill="none" stroke="#191970" d="M744.4665,-338.209C812.6971,-328.0913 911.3974,-313.1601 997.5,-299 1002.0922,-298.2448 1006.8166,-297.4537 1011.5792,-296.6456"/>
<polygon fill="#191970" stroke="#191970" points="743.5849,-334.8013 734.2054,-339.7283 744.6102,-341.7258 743.5849,-334.8013"/>
</g>
<!-- Node5 -->
<g id="node3" class="node">
<title>Node5</title>
<g id="a_node3"><a xlink:href="dtls__handshake_8hpp.html" target="_top" xlink:title="/home/dominik/uni/MoonState\l/include/dtls_handshake.hpp">
<polygon fill="none" stroke="#000000" points="165,-201.5 165,-231.5 312,-231.5 312,-201.5 165,-201.5"/>
<text text-anchor="start" x="173" y="-219.5" font-family="Helvetica,sans-Serif" font-size="10.00" fill="#000000">/home/dominik/uni/MoonState</text>
<text text-anchor="middle" x="238.5" y="-208.5" font-family="Helvetica,sans-Serif" font-size="10.00" fill="#000000">/include/dtls_handshake.hpp</text>
</a>
</g>
</g>
<!-- Node4&#45;&gt;Node5 -->
<g id="edge2" class="edge">
<title>Node4&#45;&gt;Node5</title>
<path fill="none" stroke="#191970" d="M231.9384,-258.3179C231.5239,-249.3414 231.7933,-239.5143 232.7464,-231.6432"/>
<polygon fill="#191970" stroke="#191970" points="228.4504,-258.6087 232.7392,-268.2967 235.428,-258.0487 228.4504,-258.6087"/>
</g>
<!-- Node6 -->
<g id="node4" class="node">
<title>Node6</title>
<g id="a_node4"><a xlink:href="dtls__record_8hpp.html" target="_top" xlink:title="/home/dominik/uni/MoonState\l/include/dtls_record.hpp">
<polygon fill="none" stroke="#000000" points="0,-201.5 0,-231.5 147,-231.5 147,-201.5 0,-201.5"/>
<text text-anchor="start" x="8" y="-219.5" font-family="Helvetica,sans-Serif" font-size="10.00" fill="#000000">/home/dominik/uni/MoonState</text>
<text text-anchor="middle" x="73.5" y="-208.5" font-family="Helvetica,sans-Serif" font-size="10.00" fill="#000000">/include/dtls_record.hpp</text>
</a>
</g>
</g>
<!-- Node4&#45;&gt;Node6 -->
<g id="edge4" class="edge">
<title>Node4&#45;&gt;Node6</title>
<path fill="none" stroke="#191970" d="M186.136,-264.7275C159.4337,-254.2645 127.9015,-241.4084 104.9422,-231.6017"/>
<polygon fill="#191970" stroke="#191970" points="185.1418,-268.0963 195.7303,-268.4639 187.6821,-261.5735 185.1418,-268.0963"/>
</g>
<!-- Node5&#45;&gt;Node4 -->
<g id="edge3" class="edge">
<title>Node5&#45;&gt;Node4</title>
<path fill="none" stroke="#191970" d="M245.0584,-241.6135C245.4764,-250.5857 245.2105,-260.4156 244.2608,-268.2967"/>
<polygon fill="#191970" stroke="#191970" points="248.5469,-241.3291 244.2536,-231.6432 241.5696,-241.8924 248.5469,-241.3291"/>
</g>
<!-- Node6&#45;&gt;Node4 -->
<g id="edge5" class="edge">
<title>Node6&#45;&gt;Node4</title>
<path fill="none" stroke="#191970" d="M126.0428,-235.3426C152.7665,-245.8162 184.2903,-258.6708 207.2113,-268.4639"/>
<polygon fill="#191970" stroke="#191970" points="127.0277,-231.9701 116.4392,-231.6017 124.4869,-238.4927 127.0277,-231.9701"/>
</g>
<!-- Node8 -->
<g id="node6" class="node">
<title>Node8</title>
<g id="a_node6"><a xlink:href="dtlsClient_8hpp.html" target="_top" xlink:title="/home/dominik/uni/MoonState\l/include/dtlsClient.hpp">
<polygon fill="none" stroke="#000000" points="553,-134.5 553,-164.5 700,-164.5 700,-134.5 553,-134.5"/>
<text text-anchor="start" x="561" y="-152.5" font-family="Helvetica,sans-Serif" font-size="10.00" fill="#000000">/home/dominik/uni/MoonState</text>
<text text-anchor="middle" x="626.5" y="-141.5" font-family="Helvetica,sans-Serif" font-size="10.00" fill="#000000">/include/dtlsClient.hpp</text>
</a>
</g>
</g>
<!-- Node7&#45;&gt;Node8 -->
<g id="edge7" class="edge">
<title>Node7&#45;&gt;Node8</title>
<path fill="none" stroke="#191970" d="M710.8677,-258.4338C707.459,-241.1652 701.082,-218.303 689.5,-201 679.6774,-186.3254 664.4268,-173.7029 651.3909,-164.6272"/>
<polygon fill="#191970" stroke="#191970" points="707.4359,-259.1271 712.6265,-268.3634 714.3287,-257.9062 707.4359,-259.1271"/>
</g>
<!-- Node10 -->
<g id="node8" class="node">
<title>Node10</title>
<g id="a_node8"><a xlink:href="helloBye2Proto_8cpp.html" target="_top" xlink:title="/home/dominik/uni/MoonState\l/src/helloBye2Proto.cpp">
<polygon fill="none" stroke="#000000" points="369,-201.5 369,-231.5 516,-231.5 516,-201.5 369,-201.5"/>
<text text-anchor="start" x="377" y="-219.5" font-family="Helvetica,sans-Serif" font-size="10.00" fill="#000000">/home/dominik/uni/MoonState</text>
<text text-anchor="middle" x="442.5" y="-208.5" font-family="Helvetica,sans-Serif" font-size="10.00" fill="#000000">/src/helloBye2Proto.cpp</text>
</a>
</g>
</g>
<!-- Node7&#45;&gt;Node10 -->
<g id="edge9" class="edge">
<title>Node7&#45;&gt;Node10</title>
<path fill="none" stroke="#191970" d="M643.5465,-266.0225C600.1834,-255.3411 545.2797,-241.8171 503.8083,-231.6017"/>
<polygon fill="#191970" stroke="#191970" points="642.911,-269.4705 653.4579,-268.4639 644.5853,-262.6737 642.911,-269.4705"/>
</g>
<!-- Node15 -->
<g id="node13" class="node">
<title>Node15</title>
<g id="a_node13"><a xlink:href="helloByeProto_8cpp.html" target="_top" xlink:title="/home/dominik/uni/MoonState\l/src/helloByeProto.cpp">
<polygon fill="none" stroke="#000000" points="738,-201.5 738,-231.5 885,-231.5 885,-201.5 738,-201.5"/>
<text text-anchor="start" x="746" y="-219.5" font-family="Helvetica,sans-Serif" font-size="10.00" fill="#000000">/home/dominik/uni/MoonState</text>
<text text-anchor="middle" x="811.5" y="-208.5" font-family="Helvetica,sans-Serif" font-size="10.00" fill="#000000">/src/helloByeProto.cpp</text>
</a>
</g>
</g>
<!-- Node7&#45;&gt;Node15 -->
<g id="edge15" class="edge">
<title>Node7&#45;&gt;Node15</title>
<path fill="none" stroke="#191970" d="M745.1246,-262.3469C759.5578,-252.3776 776.4467,-240.7121 789.5763,-231.6432"/>
<polygon fill="#191970" stroke="#191970" points="742.7497,-259.7335 736.5108,-268.2967 746.728,-265.4932 742.7497,-259.7335"/>
</g>
<!-- Node18 -->
<g id="node16" class="node">
<title>Node18</title>
<g id="a_node16"><a xlink:href="helloBye__C_8cpp.html" target="_top" xlink:title="/home/dominik/uni/MoonState\l/src/helloBye_C.cpp">
<polygon fill="none" stroke="#000000" points="718,-.5 718,-30.5 865,-30.5 865,-.5 718,-.5"/>
<text text-anchor="start" x="726" y="-18.5" font-family="Helvetica,sans-Serif" font-size="10.00" fill="#000000">/home/dominik/uni/MoonState</text>
<text text-anchor="middle" x="791.5" y="-7.5" font-family="Helvetica,sans-Serif" font-size="10.00" fill="#000000">/src/helloBye_C.cpp</text>
</a>
</g>
</g>
<!-- Node7&#45;&gt;Node18 -->
<g id="edge21" class="edge">
<title>Node7&#45;&gt;Node18</title>
<path fill="none" stroke="#191970" d="M803.7817,-266.4591C833.5012,-258.571 866.01,-247.4257 893.5,-232 970.3098,-188.899 1004.0599,-178.6315 1039.5,-98 1045.0439,-85.3868 1048.1957,-77.687 1039.5,-67 1017.8173,-40.3521 930.2156,-27.0481 865.2398,-20.7262"/>
<polygon fill="#191970" stroke="#191970" points="802.6397,-263.1385 793.8211,-269.0107 804.3769,-269.9195 802.6397,-263.1385"/>
</g>
<!-- Node9 -->
<g id="node7" class="node">
<title>Node9</title>
<g id="a_node7"><a xlink:href="dtlsClient_8cpp.html" target="_top" xlink:title="/home/dominik/uni/MoonState\l/src/dtlsClient.cpp">
<polygon fill="none" stroke="#000000" points="553,-67.5 553,-97.5 700,-97.5 700,-67.5 553,-67.5"/>
<text text-anchor="start" x="561" y="-85.5" font-family="Helvetica,sans-Serif" font-size="10.00" fill="#000000">/home/dominik/uni/MoonState</text>
<text text-anchor="middle" x="626.5" y="-74.5" font-family="Helvetica,sans-Serif" font-size="10.00" fill="#000000">/src/dtlsClient.cpp</text>
</a>
</g>
</g>
<!-- Node8&#45;&gt;Node9 -->
<g id="edge8" class="edge">
<title>Node8&#45;&gt;Node9</title>
<path fill="none" stroke="#191970" d="M626.5,-124.0249C626.5,-115.128 626.5,-105.4287 626.5,-97.6432"/>
<polygon fill="#191970" stroke="#191970" points="623.0001,-124.2966 626.5,-134.2967 630.0001,-124.2967 623.0001,-124.2966"/>
</g>
<!-- Node10&#45;&gt;Node11 -->
<g id="edge10" class="edge">
<title>Node10&#45;&gt;Node11</title>
<path fill="none" stroke="#191970" d="M416.5374,-193.9253C407.5883,-184.2828 398.2894,-173.2843 391.8555,-164.6432"/>
<polygon fill="#191970" stroke="#191970" points="414.1401,-196.4827 423.5781,-201.2967 419.2021,-191.6477 414.1401,-196.4827"/>
</g>
<!-- Node11&#45;&gt;Node10 -->
<g id="edge13" class="edge">
<title>Node11&#45;&gt;Node10</title>
<path fill="none" stroke="#191970" d="M410.4003,-172.0076C419.3478,-181.6438 428.6525,-192.6446 435.0997,-201.2967"/>
<polygon fill="#191970" stroke="#191970" points="412.8018,-169.4547 403.3626,-164.6432 407.7411,-174.2909 412.8018,-169.4547"/>
</g>
<!-- Node12 -->
<g id="node10" class="node">
<title>Node12</title>
<g id="a_node10"><a xlink:href="helloBye2__C_8hpp.html" target="_top" xlink:title="/home/dominik/uni/MoonState\l/include/helloBye2_C.hpp">
<polygon fill="none" stroke="#000000" points="311,-67.5 311,-97.5 458,-97.5 458,-67.5 311,-67.5"/>
<text text-anchor="start" x="319" y="-85.5" font-family="Helvetica,sans-Serif" font-size="10.00" fill="#000000">/home/dominik/uni/MoonState</text>
<text text-anchor="middle" x="384.5" y="-74.5" font-family="Helvetica,sans-Serif" font-size="10.00" fill="#000000">/include/helloBye2_C.hpp</text>
</a>
</g>
</g>
<!-- Node11&#45;&gt;Node12 -->
<g id="edge11" class="edge">
<title>Node11&#45;&gt;Node12</title>
<path fill="none" stroke="#191970" d="M384.5,-124.0249C384.5,-115.128 384.5,-105.4287 384.5,-97.6432"/>
<polygon fill="#191970" stroke="#191970" points="381.0001,-124.2966 384.5,-134.2967 388.0001,-124.2967 381.0001,-124.2966"/>
</g>
<!-- Node14 -->
<g id="node12" class="node">
<title>Node14</title>
<g id="a_node12"><a xlink:href="helloBye2ProtoStatic_8cpp.html" target="_top" xlink:title="/home/dominik/uni/MoonState\l/src/helloBye2ProtoStatic.cpp">
<polygon fill="none" stroke="#000000" points="146,-67.5 146,-97.5 293,-97.5 293,-67.5 146,-67.5"/>
<text text-anchor="start" x="154" y="-85.5" font-family="Helvetica,sans-Serif" font-size="10.00" fill="#000000">/home/dominik/uni/MoonState</text>
<text text-anchor="middle" x="219.5" y="-74.5" font-family="Helvetica,sans-Serif" font-size="10.00" fill="#000000">/src/helloBye2ProtoStatic.cpp</text>
</a>
</g>
</g>
<!-- Node11&#45;&gt;Node14 -->
<g id="edge14" class="edge">
<title>Node11&#45;&gt;Node14</title>
<path fill="none" stroke="#191970" d="M337.9298,-130.5897C312.2245,-120.1518 280.7358,-107.3654 256.6907,-97.6017"/>
<polygon fill="#191970" stroke="#191970" points="336.8887,-133.9444 347.4708,-134.4639 339.5223,-127.4587 336.8887,-133.9444"/>
</g>
<!-- Node13 -->
<g id="node11" class="node">
<title>Node13</title>
<g id="a_node11"><a xlink:href="helloBye2__C_8cpp.html" target="_top" xlink:title="/home/dominik/uni/MoonState\l/src/helloBye2_C.cpp">
<polygon fill="none" stroke="#000000" points="362,-.5 362,-30.5 509,-30.5 509,-.5 362,-.5"/>
<text text-anchor="start" x="370" y="-18.5" font-family="Helvetica,sans-Serif" font-size="10.00" fill="#000000">/home/dominik/uni/MoonState</text>
<text text-anchor="middle" x="435.5" y="-7.5" font-family="Helvetica,sans-Serif" font-size="10.00" fill="#000000">/src/helloBye2_C.cpp</text>
</a>
</g>
</g>
<!-- Node12&#45;&gt;Node13 -->
<g id="edge12" class="edge">
<title>Node12&#45;&gt;Node13</title>
<path fill="none" stroke="#191970" d="M402.3404,-59.0626C409.5193,-49.6315 417.5909,-39.0276 423.9731,-30.6432"/>
<polygon fill="#191970" stroke="#191970" points="399.3446,-57.2197 396.0727,-67.2967 404.9146,-61.4595 399.3446,-57.2197"/>
</g>
<!-- Node15&#45;&gt;Node16 -->
<g id="edge16" class="edge">
<title>Node15&#45;&gt;Node16</title>
<path fill="none" stroke="#191970" d="M804.9384,-191.3179C804.5239,-182.3414 804.7933,-172.5143 805.7464,-164.6432"/>
<polygon fill="#191970" stroke="#191970" points="801.4504,-191.6087 805.7392,-201.2967 808.428,-191.0487 801.4504,-191.6087"/>
</g>
<!-- Node16&#45;&gt;Node15 -->
<g id="edge19" class="edge">
<title>Node16&#45;&gt;Node15</title>
<path fill="none" stroke="#191970" d="M818.0584,-174.6135C818.4764,-183.5857 818.2105,-193.4156 817.2608,-201.2967"/>
<polygon fill="#191970" stroke="#191970" points="821.5469,-174.3291 817.2536,-164.6432 814.5696,-174.8924 821.5469,-174.3291"/>
</g>
<!-- Node17 -->
<g id="node15" class="node">
<title>Node17</title>
<g id="a_node15"><a xlink:href="helloBye__C_8hpp.html" target="_top" xlink:title="/home/dominik/uni/MoonState\l/include/helloBye_C.hpp">
<polygon fill="none" stroke="#000000" points="718,-67.5 718,-97.5 865,-97.5 865,-67.5 718,-67.5"/>
<text text-anchor="start" x="726" y="-85.5" font-family="Helvetica,sans-Serif" font-size="10.00" fill="#000000">/home/dominik/uni/MoonState</text>
<text text-anchor="middle" x="791.5" y="-74.5" font-family="Helvetica,sans-Serif" font-size="10.00" fill="#000000">/include/helloBye_C.hpp</text>
</a>
</g>
</g>
<!-- Node16&#45;&gt;Node17 -->
<g id="edge17" class="edge">
<title>Node16&#45;&gt;Node17</title>
<path fill="none" stroke="#191970" d="M804.0702,-124.6103C801.3672,-115.5553 798.3955,-105.5998 796.0203,-97.6432"/>
<polygon fill="#191970" stroke="#191970" points="800.7475,-125.7156 806.9617,-134.2967 807.455,-123.7133 800.7475,-125.7156"/>
</g>
<!-- Node19 -->
<g id="node17" class="node">
<title>Node19</title>
<g id="a_node17"><a xlink:href="helloByeProtoStatic_8cpp.html" target="_top" xlink:title="/home/dominik/uni/MoonState\l/src/helloByeProtoStatic.cpp">
<polygon fill="none" stroke="#000000" points="883,-67.5 883,-97.5 1030,-97.5 1030,-67.5 883,-67.5"/>
<text text-anchor="start" x="891" y="-85.5" font-family="Helvetica,sans-Serif" font-size="10.00" fill="#000000">/home/dominik/uni/MoonState</text>
<text text-anchor="middle" x="956.5" y="-74.5" font-family="Helvetica,sans-Serif" font-size="10.00" fill="#000000">/src/helloByeProtoStatic.cpp</text>
</a>
</g>
</g>
<!-- Node16&#45;&gt;Node19 -->
<g id="edge20" class="edge">
<title>Node16&#45;&gt;Node19</title>
<path fill="none" stroke="#191970" d="M853.3236,-130.1746C875.7451,-119.8143 902.966,-107.2364 923.8172,-97.6017"/>
<polygon fill="#191970" stroke="#191970" points="851.6505,-127.0921 844.0408,-134.4639 854.5867,-133.4465 851.6505,-127.0921"/>
</g>
<!-- Node17&#45;&gt;Node18 -->
<g id="edge18" class="edge">
<title>Node17&#45;&gt;Node18</title>
<path fill="none" stroke="#191970" d="M791.5,-57.0249C791.5,-48.128 791.5,-38.4287 791.5,-30.6432"/>
<polygon fill="#191970" stroke="#191970" points="788.0001,-57.2966 791.5,-67.2967 795.0001,-57.2967 788.0001,-57.2966"/>
</g>
<!-- Node20&#45;&gt;Node8 -->
<g id="edge23" class="edge">
<title>Node20&#45;&gt;Node8</title>
<path fill="none" stroke="#191970" d="M614.5583,-191.6103C617.1261,-182.5553 619.9493,-172.5998 622.2057,-164.6432"/>
<polygon fill="#191970" stroke="#191970" points="611.1725,-190.7211 611.8114,-201.2967 617.9069,-192.6309 611.1725,-190.7211"/>
</g>
<!-- Node20&#45;&gt;Node11 -->
<g id="edge24" class="edge">
<title>Node20&#45;&gt;Node11</title>
<path fill="none" stroke="#191970" d="M547.7507,-198.5484C512.4529,-187.9432 468.2632,-174.6665 434.7638,-164.6017"/>
<polygon fill="#191970" stroke="#191970" points="546.8702,-201.9384 557.4544,-201.4639 548.8845,-195.2344 546.8702,-201.9384"/>
</g>
<!-- Node20&#45;&gt;Node13 -->
<g id="edge26" class="edge">
<title>Node20&#45;&gt;Node13</title>
<path fill="none" stroke="#191970" d="M555.9162,-196.9883C539.8223,-188.9756 523.0256,-178.3818 510.5,-165 477.8734,-130.143 488.6288,-109.3063 466.5,-67 459.9219,-54.4238 451.584,-40.6751 445.2126,-30.5491"/>
<polygon fill="#191970" stroke="#191970" points="554.7364,-200.3018 565.2732,-201.4093 557.7269,-193.9727 554.7364,-200.3018"/>
</g>
<!-- Node20&#45;&gt;Node16 -->
<g id="edge25" class="edge">
<title>Node20&#45;&gt;Node16</title>
<path fill="none" stroke="#191970" d="M662.9883,-198.2759C695.1392,-187.7165 735.1355,-174.5805 765.5187,-164.6017"/>
<polygon fill="#191970" stroke="#191970" points="661.6902,-195.0182 653.2816,-201.4639 663.8744,-201.6687 661.6902,-195.0182"/>
</g>
<!-- Node20&#45;&gt;Node18 -->
<g id="edge27" class="edge">
<title>Node20&#45;&gt;Node18</title>
<path fill="none" stroke="#191970" d="M570.5533,-195.6709C559.8098,-187.597 549.3902,-177.3002 543.5,-165 524.6882,-125.7164 516.0103,-100.7847 543.5,-67 565.1827,-40.3521 652.7844,-27.0481 717.7602,-20.7262"/>
<polygon fill="#191970" stroke="#191970" points="568.5606,-198.5483 578.7623,-201.4081 572.5706,-192.8107 568.5606,-198.5483"/>
</g>
</g>
</svg>
