<?xml version="1.0" encoding="UTF-8" standalone="no"?>
<!DOCTYPE svg PUBLIC "-//W3C//DTD SVG 1.1//EN"
 "http://www.w3.org/Graphics/SVG/1.1/DTD/svg11.dtd">
<!-- Generated by graphviz version 2.40.1 (20161225.0304)
 -->
<!-- Title: /home/dominik/uni/MoonState/include/common.hpp Pages: 1 -->
<svg width="1339pt" height="374pt"
 viewBox="0.00 0.00 1339.00 374.00" xmlns="http://www.w3.org/2000/svg" xmlns:xlink="http://www.w3.org/1999/xlink">
<g id="graph0" class="graph" transform="scale(1 1) rotate(0) translate(4 370)">
<title>/home/dominik/uni/MoonState/include/common.hpp</title>
<!-- Node3 -->
<g id="node1" class="node">
<title>Node3</title>
<polygon fill="#bfbfbf" stroke="#000000" points="738,-335.5 738,-365.5 885,-365.5 885,-335.5 738,-335.5"/>
<text text-anchor="start" x="746" y="-353.5" font-family="Helvetica,sans-Serif" font-size="10.00" fill="#000000">/home/dominik/uni/MoonState</text>
<text text-anchor="middle" x="811.5" y="-342.5" font-family="Helvetica,sans-Serif" font-size="10.00" fill="#000000">/include/common.hpp</text>
</g>
<!-- Node4 -->
<g id="node2" class="node">
<title>Node4</title>
<g id="a_node2"><a xlink:href="dtls_8hpp.html" target="_top" xlink:title="/home/dominik/uni/MoonState\l/include/dtls.hpp">
<polygon fill="none" stroke="#000000" points="165,-268.5 165,-298.5 312,-298.5 312,-268.5 165,-268.5"/>
<text text-anchor="start" x="173" y="-286.5" font-family="Helvetica,sans-Serif" font-size="10.00" fill="#000000">/home/dominik/uni/MoonState</text>
<text text-anchor="middle" x="238.5" y="-275.5" font-family="Helvetica,sans-Serif" font-size="10.00" fill="#000000">/include/dtls.hpp</text>
</a>
</g>
</g>
<!-- Node3&#45;&gt;Node4 -->
<g id="edge1" class="edge">
<title>Node3&#45;&gt;Node4</title>
<path fill="none" stroke="#191970" d="M727.7426,-343.3638C630.8959,-334.7053 466.7973,-318.7808 326.5,-299 321.8917,-298.3503 317.155,-297.64 312.3832,-296.8922"/>
<polygon fill="#191970" stroke="#191970" points="727.4971,-346.8557 737.7679,-344.2556 728.1174,-339.8832 727.4971,-346.8557"/>
</g>
<!-- Node7 -->
<g id="node5" class="node">
<title>Node7</title>
<g id="a_node5"><a xlink:href="IPv4__5TupleL2Ident_8hpp.html" target="_top" xlink:title="/home/dominik/uni/MoonState\l/include/IPv4_5TupleL2Ident.hpp">
<polygon fill="none" stroke="#000000" points="732.5,-268.5 732.5,-298.5 890.5,-298.5 890.5,-268.5 732.5,-268.5"/>
<text text-anchor="start" x="740.5" y="-286.5" font-family="Helvetica,sans-Serif" font-size="10.00" fill="#000000">/home/dominik/uni/MoonState</text>
<text text-anchor="middle" x="811.5" y="-275.5" font-family="Helvetica,sans-Serif" font-size="10.00" fill="#000000">/include/IPv4_5TupleL2Ident.hpp</text>
</a>
</g>
</g>
<!-- Node3&#45;&gt;Node7 -->
<g id="edge6" class="edge">
<title>Node3&#45;&gt;Node7</title>
<path fill="none" stroke="#191970" d="M811.5,-325.0249C811.5,-316.128 811.5,-306.4287 811.5,-298.6432"/>
<polygon fill="#191970" stroke="#191970" points="808.0001,-325.2966 811.5,-335.2967 815.0001,-325.2967 808.0001,-325.2966"/>
</g>
<!-- Node11 -->
<g id="node9" class="node">
<title>Node11</title>
<g id="a_node9"><a xlink:href="helloBye2Proto_8hpp.html" target="_top" xlink:title="/home/dominik/uni/MoonState\l/include/helloBye2Proto.hpp">
<polygon fill="none" stroke="#000000" points="312,-134.5 312,-164.5 459,-164.5 459,-134.5 312,-134.5"/>
<text text-anchor="start" x="320" y="-152.5" font-family="Helvetica,sans-Serif" font-size="10.00" fill="#000000">/home/dominik/uni/MoonState</text>
<text text-anchor="middle" x="385.5" y="-141.5" font-family="Helvetica,sans-Serif" font-size="10.00" fill="#000000">/include/helloBye2Proto.hpp</text>
</a>
</g>
</g>
<!-- Node3&#45;&gt;Node11 -->
<g id="edge32" class="edge">
<title>Node3&#45;&gt;Node11</title>
<path fill="none" stroke="#191970" d="M727.9201,-340.7174C610.0079,-325.0018 404.1641,-289.8831 359.5,-232 343.9957,-211.907 360.2929,-182.389 373.1605,-164.6466"/>
<polygon fill="#191970" stroke="#191970" points="727.6289,-344.2091 737.9997,-342.0422 728.5411,-337.2688 727.6289,-344.2091"/>
</g>
<!-- Node16 -->
<g id="node14" class="node">
<title>Node16</title>
<g id="a_node14"><a xlink:href="helloBye3_8hpp.html" target="_top" xlink:title="/home/dominik/uni/MoonState\l/include/helloBye3.hpp">
<polygon fill="none" stroke="#000000" points="980,-134.5 980,-164.5 1127,-164.5 1127,-134.5 980,-134.5"/>
<text text-anchor="start" x="988" y="-152.5" font-family="Helvetica,sans-Serif" font-size="10.00" fill="#000000">/home/dominik/uni/MoonState</text>
<text text-anchor="middle" x="1053.5" y="-141.5" font-family="Helvetica,sans-Serif" font-size="10.00" fill="#000000">/include/helloBye3.hpp</text>
</a>
</g>
</g>
<!-- Node3&#45;&gt;Node16 -->
<g id="edge33" class="edge">
<title>Node3&#45;&gt;Node16</title>
<path fill="none" stroke="#191970" d="M888.9025,-333.0548C975.4832,-311.7888 1107.4474,-273.5165 1136.5,-232 1144.3994,-220.7117 1143.1986,-213.0397 1136.5,-201 1127.3481,-184.5509 1110.5283,-172.6841 1094.4108,-164.5184"/>
<polygon fill="#191970" stroke="#191970" points="887.9931,-329.6738 879.1029,-335.437 889.6467,-336.4758 887.9931,-329.6738"/>
</g>
<!-- Node18 -->
<g id="node16" class="node">
<title>Node18</title>
<g id="a_node16"><a xlink:href="helloByeProto_8hpp.html" target="_top" xlink:title="/home/dominik/uni/MoonState\l/include/helloByeProto.hpp">
<polygon fill="none" stroke="#000000" points="738,-134.5 738,-164.5 885,-164.5 885,-134.5 738,-134.5"/>
<text text-anchor="start" x="746" y="-152.5" font-family="Helvetica,sans-Serif" font-size="10.00" fill="#000000">/home/dominik/uni/MoonState</text>
<text text-anchor="middle" x="811.5" y="-141.5" font-family="Helvetica,sans-Serif" font-size="10.00" fill="#000000">/include/helloByeProto.hpp</text>
</a>
</g>
</g>
<!-- Node3&#45;&gt;Node18 -->
<g id="edge34" class="edge">
<title>Node3&#45;&gt;Node18</title>
<path fill="none" stroke="#191970" d="M865.1688,-330.6875C878.7577,-322.9608 891.6987,-312.6046 899.5,-299 908.5872,-283.153 903.9897,-218.1222 893.5,-201 883.5763,-184.8018 866.4366,-172.8693 850.3847,-164.5928"/>
<polygon fill="#191970" stroke="#191970" points="863.4245,-327.6501 856.1929,-335.3931 866.6747,-333.8498 863.4245,-327.6501"/>
</g>
<!-- Node22 -->
<g id="node20" class="node">
<title>Node22</title>
<g id="a_node20"><a xlink:href="stateMachine_8hpp.html" target="_top" xlink:title="/home/dominik/uni/MoonState\l/include/stateMachine.hpp">
<polygon fill="none" stroke="#000000" points="534,-201.5 534,-231.5 681,-231.5 681,-201.5 534,-201.5"/>
<text text-anchor="start" x="542" y="-219.5" font-family="Helvetica,sans-Serif" font-size="10.00" fill="#000000">/home/dominik/uni/MoonState</text>
<text text-anchor="middle" x="607.5" y="-208.5" font-family="Helvetica,sans-Serif" font-size="10.00" fill="#000000">/include/stateMachine.hpp</text>
</a>
</g>
</g>
<!-- Node3&#45;&gt;Node22 -->
<g id="edge25" class="edge">
<title>Node3&#45;&gt;Node22</title>
<path fill="none" stroke="#191970" d="M775.1044,-330.1672C759.0805,-320.9688 740.1525,-309.7644 723.5,-299 689.048,-276.7299 650.5012,-248.6524 627.6562,-231.663"/>
<polygon fill="#191970" stroke="#191970" points="773.7434,-333.4201 784.1642,-335.3328 777.2106,-327.3391 773.7434,-333.4201"/>
</g>
<!-- Node23 -->
<g id="node21" class="node">
<title>Node23</title>
<g id="a_node21"><a xlink:href="hexdump_8cpp.html" target="_top" xlink:title="/home/dominik/uni/MoonState\l/src/hexdump.cpp">
<polygon fill="none" stroke="#000000" points="1184,-268.5 1184,-298.5 1331,-298.5 1331,-268.5 1184,-268.5"/>
<text text-anchor="start" x="1192" y="-286.5" font-family="Helvetica,sans-Serif" font-size="10.00" fill="#000000">/home/dominik/uni/MoonState</text>
<text text-anchor="middle" x="1257.5" y="-275.5" font-family="Helvetica,sans-Serif" font-size="10.00" fill="#000000">/src/hexdump.cpp</text>
</a>
</g>
</g>
<!-- Node3&#45;&gt;Node23 -->
<g id="edge35" class="edge">
<title>Node3&#45;&gt;Node23</title>
<path fill="none" stroke="#191970" d="M895.3177,-339.2018C967.9417,-329.2311 1075.7859,-313.99 1169.5,-299 1174.0955,-298.2649 1178.8224,-297.4893 1183.5868,-296.6927"/>
<polygon fill="#191970" stroke="#191970" points="894.7414,-335.748 885.3091,-340.5732 895.6917,-342.6832 894.7414,-335.748"/>
</g>
<!-- Node5 -->
<g id="node3" class="node">
<title>Node5</title>
<g id="a_node3"><a xlink:href="dtls__handshake_8hpp.html" target="_top" xlink:title="/home/dominik/uni/MoonState\l/include/dtls_handshake.hpp">
<polygon fill="none" stroke="#000000" points="165,-201.5 165,-231.5 312,-231.5 312,-201.5 165,-201.5"/>
<text text-anchor="start" x="173" y="-219.5" font-family="Helvetica,sans-Serif" font-size="10.00" fill="#000000">/home/dominik/uni/MoonState</text>
<text text-anchor="middle" x="238.5" y="-208.5" font-family="Helvetica,sans-Serif" font-size="10.00" fill="#000000">/include/dtls_handshake.hpp</text>
</a>
</g>
</g>
<!-- Node4&#45;&gt;Node5 -->
<g id="edge2" class="edge">
<title>Node4&#45;&gt;Node5</title>
<path fill="none" stroke="#191970" d="M231.9384,-258.3179C231.5239,-249.3414 231.7933,-239.5143 232.7464,-231.6432"/>
<polygon fill="#191970" stroke="#191970" points="228.4504,-258.6087 232.7392,-268.2967 235.428,-258.0487 228.4504,-258.6087"/>
</g>
<!-- Node6 -->
<g id="node4" class="node">
<title>Node6</title>
<g id="a_node4"><a xlink:href="dtls__record_8hpp.html" target="_top" xlink:title="/home/dominik/uni/MoonState\l/include/dtls_record.hpp">
<polygon fill="none" stroke="#000000" points="0,-201.5 0,-231.5 147,-231.5 147,-201.5 0,-201.5"/>
<text text-anchor="start" x="8" y="-219.5" font-family="Helvetica,sans-Serif" font-size="10.00" fill="#000000">/home/dominik/uni/MoonState</text>
<text text-anchor="middle" x="73.5" y="-208.5" font-family="Helvetica,sans-Serif" font-size="10.00" fill="#000000">/include/dtls_record.hpp</text>
</a>
</g>
</g>
<!-- Node4&#45;&gt;Node6 -->
<g id="edge4" class="edge">
<title>Node4&#45;&gt;Node6</title>
<path fill="none" stroke="#191970" d="M186.136,-264.7275C159.4337,-254.2645 127.9015,-241.4084 104.9422,-231.6017"/>
<polygon fill="#191970" stroke="#191970" points="185.1418,-268.0963 195.7303,-268.4639 187.6821,-261.5735 185.1418,-268.0963"/>
</g>
<!-- Node5&#45;&gt;Node4 -->
<g id="edge3" class="edge">
<title>Node5&#45;&gt;Node4</title>
<path fill="none" stroke="#191970" d="M245.0584,-241.6135C245.4764,-250.5857 245.2105,-260.4156 244.2608,-268.2967"/>
<polygon fill="#191970" stroke="#191970" points="248.5469,-241.3291 244.2536,-231.6432 241.5696,-241.8924 248.5469,-241.3291"/>
</g>
<!-- Node6&#45;&gt;Node4 -->
<g id="edge5" class="edge">
<title>Node6&#45;&gt;Node4</title>
<path fill="none" stroke="#191970" d="M126.0428,-235.3426C152.7665,-245.8162 184.2903,-258.6708 207.2113,-268.4639"/>
<polygon fill="#191970" stroke="#191970" points="127.0277,-231.9701 116.4392,-231.6017 124.4869,-238.4927 127.0277,-231.9701"/>
</g>
<!-- Node8 -->
<g id="node6" class="node">
<title>Node8</title>
<g id="a_node6"><a xlink:href="dtlsClient_8hpp.html" target="_top" xlink:title="/home/dominik/uni/MoonState\l/include/dtlsClient.hpp">
<polygon fill="none" stroke="#000000" points="554,-134.5 554,-164.5 701,-164.5 701,-134.5 554,-134.5"/>
<text text-anchor="start" x="562" y="-152.5" font-family="Helvetica,sans-Serif" font-size="10.00" fill="#000000">/home/dominik/uni/MoonState</text>
<text text-anchor="middle" x="627.5" y="-141.5" font-family="Helvetica,sans-Serif" font-size="10.00" fill="#000000">/include/dtlsClient.hpp</text>
</a>
</g>
</g>
<!-- Node7&#45;&gt;Node8 -->
<g id="edge7" class="edge">
<title>Node7&#45;&gt;Node8</title>
<path fill="none" stroke="#191970" d="M776.1741,-262.9669C761.1845,-253.9018 743.7001,-242.8545 728.5,-232 720.1165,-226.0133 672.6047,-186.8408 645.8374,-164.6944"/>
<polygon fill="#191970" stroke="#191970" points="774.7642,-266.2021 785.1421,-268.3355 778.3598,-260.196 774.7642,-266.2021"/>
</g>
<!-- Node10 -->
<g id="node8" class="node">
<title>Node10</title>
<g id="a_node8"><a xlink:href="helloBye2Proto_8cpp.html" target="_top" xlink:title="/home/dominik/uni/MoonState\l/src/helloBye2Proto.cpp">
<polygon fill="none" stroke="#000000" points="369,-201.5 369,-231.5 516,-231.5 516,-201.5 369,-201.5"/>
<text text-anchor="start" x="377" y="-219.5" font-family="Helvetica,sans-Serif" font-size="10.00" fill="#000000">/home/dominik/uni/MoonState</text>
<text text-anchor="middle" x="442.5" y="-208.5" font-family="Helvetica,sans-Serif" font-size="10.00" fill="#000000">/src/helloBye2Proto.cpp</text>
</a>
</g>
</g>
<!-- Node7&#45;&gt;Node10 -->
<g id="edge9" class="edge">
<title>Node7&#45;&gt;Node10</title>
<path fill="none" stroke="#191970" d="M722.2775,-267.7092C665.6072,-257.6252 590.7201,-244.1997 524.5,-232 521.7928,-231.5013 519.0358,-230.9912 516.2512,-230.4742"/>
<polygon fill="#191970" stroke="#191970" points="721.8239,-271.1834 732.2823,-269.4884 723.0496,-264.2915 721.8239,-271.1834"/>
</g>
<!-- Node15 -->
<g id="node13" class="node">
<title>Node15</title>
<g id="a_node13"><a xlink:href="helloBye3_8cpp.html" target="_top" xlink:title="/home/dominik/uni/MoonState\l/src/helloBye3.cpp">
<polygon fill="none" stroke="#000000" points="980,-201.5 980,-231.5 1127,-231.5 1127,-201.5 980,-201.5"/>
<text text-anchor="start" x="988" y="-219.5" font-family="Helvetica,sans-Serif" font-size="10.00" fill="#000000">/home/dominik/uni/MoonState</text>
<text text-anchor="middle" x="1053.5" y="-208.5" font-family="Helvetica,sans-Serif" font-size="10.00" fill="#000000">/src/helloBye3.cpp</text>
</a>
</g>
</g>
<!-- Node7&#45;&gt;Node15 -->
<g id="edge15" class="edge">
<title>Node7&#45;&gt;Node15</title>
<path fill="none" stroke="#191970" d="M875.8495,-265.6842C914.2352,-255.0568 962.4447,-241.7095 998.9536,-231.6017"/>
<polygon fill="#191970" stroke="#191970" points="874.5131,-262.4225 865.8095,-268.4639 876.3809,-269.1687 874.5131,-262.4225"/>
</g>
<!-- Node17 -->
<g id="node15" class="node">
<title>Node17</title>
<g id="a_node15"><a xlink:href="helloByeProto_8cpp.html" target="_top" xlink:title="/home/dominik/uni/MoonState\l/src/helloByeProto.cpp">
<polygon fill="none" stroke="#000000" points="738,-201.5 738,-231.5 885,-231.5 885,-201.5 738,-201.5"/>
<text text-anchor="start" x="746" y="-219.5" font-family="Helvetica,sans-Serif" font-size="10.00" fill="#000000">/home/dominik/uni/MoonState</text>
<text text-anchor="middle" x="811.5" y="-208.5" font-family="Helvetica,sans-Serif" font-size="10.00" fill="#000000">/src/helloByeProto.cpp</text>
</a>
</g>
</g>
<!-- Node7&#45;&gt;Node17 -->
<g id="edge18" class="edge">
<title>Node7&#45;&gt;Node17</title>
<path fill="none" stroke="#191970" d="M811.5,-258.0249C811.5,-249.128 811.5,-239.4287 811.5,-231.6432"/>
<polygon fill="#191970" stroke="#191970" points="808.0001,-258.2966 811.5,-268.2967 815.0001,-258.2967 808.0001,-258.2966"/>
</g>
<!-- Node20 -->
<g id="node18" class="node">
<title>Node20</title>
<g id="a_node18"><a xlink:href="helloBye__C_8cpp.html" target="_top" xlink:title="/home/dominik/uni/MoonState\l/src/helloBye_C.cpp">
<polygon fill="none" stroke="#000000" points="884,-.5 884,-30.5 1031,-30.5 1031,-.5 884,-.5"/>
<text text-anchor="start" x="892" y="-18.5" font-family="Helvetica,sans-Serif" font-size="10.00" fill="#000000">/home/dominik/uni/MoonState</text>
<text text-anchor="middle" x="957.5" y="-7.5" font-family="Helvetica,sans-Serif" font-size="10.00" fill="#000000">/src/helloBye_C.cpp</text>
</a>
</g>
</g>
<!-- Node7&#45;&gt;Node20 -->
<g id="edge24" class="edge">
<title>Node7&#45;&gt;Node20</title>
<path fill="none" stroke="#191970" d="M849.6664,-263.2513C864.1745,-254.629 880.3582,-243.8275 893.5,-232 934.6726,-194.9452 927.7765,-169.2555 970.5,-134 997.4833,-111.7334 1022.277,-127.8634 1040.5,-98 1047.6767,-86.239 1047.1986,-79.0397 1040.5,-67 1031.3481,-50.5509 1014.5283,-38.6841 998.4108,-30.5184"/>
<polygon fill="#191970" stroke="#191970" points="847.7947,-260.2905 840.8917,-268.3279 851.3002,-266.3495 847.7947,-260.2905"/>
</g>
<!-- Node9 -->
<g id="node7" class="node">
<title>Node9</title>
<g id="a_node7"><a xlink:href="dtlsClient_8cpp.html" target="_top" xlink:title="/home/dominik/uni/MoonState\l/src/dtlsClient.cpp">
<polygon fill="none" stroke="#000000" points="554,-67.5 554,-97.5 701,-97.5 701,-67.5 554,-67.5"/>
<text text-anchor="start" x="562" y="-85.5" font-family="Helvetica,sans-Serif" font-size="10.00" fill="#000000">/home/dominik/uni/MoonState</text>
<text text-anchor="middle" x="627.5" y="-74.5" font-family="Helvetica,sans-Serif" font-size="10.00" fill="#000000">/src/dtlsClient.cpp</text>
</a>
</g>
</g>
<!-- Node8&#45;&gt;Node9 -->
<g id="edge8" class="edge">
<title>Node8&#45;&gt;Node9</title>
<path fill="none" stroke="#191970" d="M627.5,-124.0249C627.5,-115.128 627.5,-105.4287 627.5,-97.6432"/>
<polygon fill="#191970" stroke="#191970" points="624.0001,-124.2966 627.5,-134.2967 631.0001,-124.2967 624.0001,-124.2966"/>
</g>
<!-- Node10&#45;&gt;Node11 -->
<g id="edge10" class="edge">
<title>Node10&#45;&gt;Node11</title>
<path fill="none" stroke="#191970" d="M416.8744,-193.9253C408.0691,-184.2828 398.9344,-173.2843 392.6294,-164.6432"/>
<polygon fill="#191970" stroke="#191970" points="414.4051,-196.4086 423.805,-201.2967 419.505,-191.6136 414.4051,-196.4086"/>
</g>
<!-- Node11&#45;&gt;Node10 -->
<g id="edge13" class="edge">
<title>Node11&#45;&gt;Node10</title>
<path fill="none" stroke="#191970" d="M411.0644,-172.0076C419.8681,-181.6438 429.0086,-192.6446 435.3266,-201.2967"/>
<polygon fill="#191970" stroke="#191970" points="413.5377,-169.5287 404.1365,-164.6432 408.4391,-174.3251 413.5377,-169.5287"/>
</g>
<!-- Node12 -->
<g id="node10" class="node">
<title>Node12</title>
<g id="a_node10"><a xlink:href="helloBye2__C_8hpp.html" target="_top" xlink:title="/home/dominik/uni/MoonState\l/include/helloBye2_C.hpp">
<polygon fill="none" stroke="#000000" points="147,-67.5 147,-97.5 294,-97.5 294,-67.5 147,-67.5"/>
<text text-anchor="start" x="155" y="-85.5" font-family="Helvetica,sans-Serif" font-size="10.00" fill="#000000">/home/dominik/uni/MoonState</text>
<text text-anchor="middle" x="220.5" y="-74.5" font-family="Helvetica,sans-Serif" font-size="10.00" fill="#000000">/include/helloBye2_C.hpp</text>
</a>
</g>
</g>
<!-- Node11&#45;&gt;Node12 -->
<g id="edge11" class="edge">
<title>Node11&#45;&gt;Node12</title>
<path fill="none" stroke="#191970" d="M338.9298,-130.5897C313.2245,-120.1518 281.7358,-107.3654 257.6907,-97.6017"/>
<polygon fill="#191970" stroke="#191970" points="337.8887,-133.9444 348.4708,-134.4639 340.5223,-127.4587 337.8887,-133.9444"/>
</g>
<!-- Node14 -->
<g id="node12" class="node">
<title>Node14</title>
<g id="a_node12"><a xlink:href="helloBye2ProtoStatic_8cpp.html" target="_top" xlink:title="/home/dominik/uni/MoonState\l/src/helloBye2ProtoStatic.cpp">
<polygon fill="none" stroke="#000000" points="312,-67.5 312,-97.5 459,-97.5 459,-67.5 312,-67.5"/>
<text text-anchor="start" x="320" y="-85.5" font-family="Helvetica,sans-Serif" font-size="10.00" fill="#000000">/home/dominik/uni/MoonState</text>
<text text-anchor="middle" x="385.5" y="-74.5" font-family="Helvetica,sans-Serif" font-size="10.00" fill="#000000">/src/helloBye2ProtoStatic.cpp</text>
</a>
</g>
</g>
<!-- Node11&#45;&gt;Node14 -->
<g id="edge14" class="edge">
<title>Node11&#45;&gt;Node14</title>
<path fill="none" stroke="#191970" d="M385.5,-124.0249C385.5,-115.128 385.5,-105.4287 385.5,-97.6432"/>
<polygon fill="#191970" stroke="#191970" points="382.0001,-124.2966 385.5,-134.2967 389.0001,-124.2967 382.0001,-124.2966"/>
</g>
<!-- Node13 -->
<g id="node11" class="node">
<title>Node13</title>
<g id="a_node11"><a xlink:href="helloBye2__C_8cpp.html" target="_top" xlink:title="/home/dominik/uni/MoonState\l/src/helloBye2_C.cpp">
<polygon fill="none" stroke="#000000" points="281,-.5 281,-30.5 428,-30.5 428,-.5 281,-.5"/>
<text text-anchor="start" x="289" y="-18.5" font-family="Helvetica,sans-Serif" font-size="10.00" fill="#000000">/home/dominik/uni/MoonState</text>
<text text-anchor="middle" x="354.5" y="-7.5" font-family="Helvetica,sans-Serif" font-size="10.00" fill="#000000">/src/helloBye2_C.cpp</text>
</a>
</g>
</g>
<!-- Node12&#45;&gt;Node13 -->
<g id="edge12" class="edge">
<title>Node12&#45;&gt;Node13</title>
<path fill="none" stroke="#191970" d="M259.6736,-62.9132C280.2099,-52.645 304.9877,-40.2561 324.0645,-30.7177"/>
<polygon fill="#191970" stroke="#191970" points="257.9512,-59.8612 250.5722,-67.4639 261.0818,-66.1222 257.9512,-59.8612"/>
</g>
<!-- Node15&#45;&gt;Node16 -->
<g id="edge16" class="edge">
<title>Node15&#45;&gt;Node16</title>
<path fill="none" stroke="#191970" d="M1046.9384,-191.3179C1046.5239,-182.3414 1046.7933,-172.5143 1047.7464,-164.6432"/>
<polygon fill="#191970" stroke="#191970" points="1043.4504,-191.6087 1047.7392,-201.2967 1050.428,-191.0487 1043.4504,-191.6087"/>
</g>
<!-- Node16&#45;&gt;Node15 -->
<g id="edge17" class="edge">
<title>Node16&#45;&gt;Node15</title>
<path fill="none" stroke="#191970" d="M1060.0584,-174.6135C1060.4764,-183.5857 1060.2105,-193.4156 1059.2608,-201.2967"/>
<polygon fill="#191970" stroke="#191970" points="1063.5469,-174.3291 1059.2536,-164.6432 1056.5696,-174.8924 1063.5469,-174.3291"/>
</g>
<!-- Node17&#45;&gt;Node18 -->
<g id="edge19" class="edge">
<title>Node17&#45;&gt;Node18</title>
<path fill="none" stroke="#191970" d="M804.9384,-191.3179C804.5239,-182.3414 804.7933,-172.5143 805.7464,-164.6432"/>
<polygon fill="#191970" stroke="#191970" points="801.4504,-191.6087 805.7392,-201.2967 808.428,-191.0487 801.4504,-191.6087"/>
</g>
<!-- Node18&#45;&gt;Node17 -->
<g id="edge22" class="edge">
<title>Node18&#45;&gt;Node17</title>
<path fill="none" stroke="#191970" d="M818.0584,-174.6135C818.4764,-183.5857 818.2105,-193.4156 817.2608,-201.2967"/>
<polygon fill="#191970" stroke="#191970" points="821.5469,-174.3291 817.2536,-164.6432 814.5696,-174.8924 821.5469,-174.3291"/>
</g>
<!-- Node19 -->
<g id="node17" class="node">
<title>Node19</title>
<g id="a_node17"><a xlink:href="helloBye__C_8hpp.html" target="_top" xlink:title="/home/dominik/uni/MoonState\l/include/helloBye_C.hpp">
<polygon fill="none" stroke="#000000" points="884,-67.5 884,-97.5 1031,-97.5 1031,-67.5 884,-67.5"/>
<text text-anchor="start" x="892" y="-85.5" font-family="Helvetica,sans-Serif" font-size="10.00" fill="#000000">/home/dominik/uni/MoonState</text>
<text text-anchor="middle" x="957.5" y="-74.5" font-family="Helvetica,sans-Serif" font-size="10.00" fill="#000000">/include/helloBye_C.hpp</text>
</a>
</g>
</g>
<!-- Node18&#45;&gt;Node19 -->
<g id="edge20" class="edge">
<title>Node18&#45;&gt;Node19</title>
<path fill="none" stroke="#191970" d="M853.6121,-130.1746C876.1882,-119.8143 903.5968,-107.2364 924.5918,-97.6017"/>
<polygon fill="#191970" stroke="#191970" points="851.8941,-127.112 844.2652,-134.4639 854.8138,-133.474 851.8941,-127.112"/>
</g>
<!-- Node21 -->
<g id="node19" class="node">
<title>Node21</title>
<g id="a_node19"><a xlink:href="helloByeProtoStatic_8cpp.html" target="_top" xlink:title="/home/dominik/uni/MoonState\l/src/helloByeProtoStatic.cpp">
<polygon fill="none" stroke="#000000" points="719,-67.5 719,-97.5 866,-97.5 866,-67.5 719,-67.5"/>
<text text-anchor="start" x="727" y="-85.5" font-family="Helvetica,sans-Serif" font-size="10.00" fill="#000000">/home/dominik/uni/MoonState</text>
<text text-anchor="middle" x="792.5" y="-74.5" font-family="Helvetica,sans-Serif" font-size="10.00" fill="#000000">/src/helloByeProtoStatic.cpp</text>
</a>
</g>
</g>
<!-- Node18&#45;&gt;Node21 -->
<g id="edge23" class="edge">
<title>Node18&#45;&gt;Node21</title>
<path fill="none" stroke="#191970" d="M804.4417,-124.6103C801.8739,-115.5553 799.0507,-105.5998 796.7943,-97.6432"/>
<polygon fill="#191970" stroke="#191970" points="801.0931,-125.6309 807.1886,-134.2967 807.8275,-123.7211 801.0931,-125.6309"/>
</g>
<!-- Node19&#45;&gt;Node20 -->
<g id="edge21" class="edge">
<title>Node19&#45;&gt;Node20</title>
<path fill="none" stroke="#191970" d="M957.5,-57.0249C957.5,-48.128 957.5,-38.4287 957.5,-30.6432"/>
<polygon fill="#191970" stroke="#191970" points="954.0001,-57.2966 957.5,-67.2967 961.0001,-57.2967 954.0001,-57.2966"/>
</g>
<!-- Node22&#45;&gt;Node8 -->
<g id="edge26" class="edge">
<title>Node22&#45;&gt;Node8</title>
<path fill="none" stroke="#191970" d="M614.9298,-191.6103C617.6328,-182.5553 620.6045,-172.5998 622.9797,-164.6432"/>
<polygon fill="#191970" stroke="#191970" points="611.545,-190.7133 612.0383,-201.2967 618.2525,-192.7156 611.545,-190.7133"/>
</g>
<!-- Node22&#45;&gt;Node11 -->
<g id="edge27" class="edge">
<title>Node22&#45;&gt;Node11</title>
<path fill="none" stroke="#191970" d="M548.0186,-198.5484C512.8791,-187.9432 468.8875,-174.6665 435.5384,-164.6017"/>
<polygon fill="#191970" stroke="#191970" points="547.0941,-201.9252 557.6789,-201.4639 549.1166,-195.2238 547.0941,-201.9252"/>
</g>
<!-- Node22&#45;&gt;Node13 -->
<g id="edge30" class="edge">
<title>Node22&#45;&gt;Node13</title>
<path fill="none" stroke="#191970" d="M556.4479,-196.8938C540.5199,-188.8747 523.8963,-178.301 511.5,-165 478.9485,-130.0729 501.1652,-100.855 467.5,-67 451.0059,-50.4129 428.1949,-38.635 407.3844,-30.5693"/>
<polygon fill="#191970" stroke="#191970" points="555.1769,-200.1655 565.7085,-201.3214 558.1963,-193.8502 555.1769,-200.1655"/>
</g>
<!-- Node22&#45;&gt;Node16 -->
<g id="edge28" class="edge">
<title>Node22&#45;&gt;Node16</title>
<path fill="none" stroke="#191970" d="M691.0576,-203.9476C774.1195,-191.4697 900.2912,-172.5157 979.7428,-160.5801"/>
<polygon fill="#191970" stroke="#191970" points="690.5169,-200.4895 681.1478,-205.4363 691.5568,-207.4118 690.5169,-200.4895"/>
</g>
<!-- Node22&#45;&gt;Node18 -->
<g id="edge29" class="edge">
<title>Node22&#45;&gt;Node18</title>
<path fill="none" stroke="#191970" d="M662.9883,-198.2759C695.1392,-187.7165 735.1355,-174.5805 765.5187,-164.6017"/>
<polygon fill="#191970" stroke="#191970" points="661.6902,-195.0182 653.2816,-201.4639 663.8744,-201.6687 661.6902,-195.0182"/>
</g>
<!-- Node22&#45;&gt;Node20 -->
<g id="edge31" class="edge">
<title>Node22&#45;&gt;Node20</title>
<path fill="none" stroke="#191970" d="M570.8071,-195.322C560.341,-187.2777 550.2308,-177.0866 544.5,-165 525.8397,-125.6442 515.67,-99.6484 544.5,-67 566.5307,-42.0516 770.7858,-26.3379 883.5498,-19.4894"/>
<polygon fill="#191970" stroke="#191970" points="569.0263,-198.3509 579.2,-201.3083 573.0911,-192.652 569.0263,-198.3509"/>
</g>
</g>
</svg>
