<?xml version="1.0" encoding="UTF-8" standalone="no"?>
<!DOCTYPE svg PUBLIC "-//W3C//DTD SVG 1.1//EN"
 "http://www.w3.org/Graphics/SVG/1.1/DTD/svg11.dtd">
<!-- Generated by graphviz version 2.40.1 (20161225.0304)
 -->
<!-- Title: /home/dominik/uni/MoonState/include/dtls_handshake.hpp Pages: 1 -->
<svg width="155pt" height="173pt"
 viewBox="0.00 0.00 155.00 173.00" xmlns="http://www.w3.org/2000/svg" xmlns:xlink="http://www.w3.org/1999/xlink">
<g id="graph0" class="graph" transform="scale(1 1) rotate(0) translate(4 169)">
<title>/home/dominik/uni/MoonState/include/dtls_handshake.hpp</title>
<!-- Node7 -->
<g id="node1" class="node">
<title>Node7</title>
<polygon fill="#bfbfbf" stroke="#000000" points="0,-134.5 0,-164.5 147,-164.5 147,-134.5 0,-134.5"/>
<text text-anchor="start" x="8" y="-152.5" font-family="Helvetica,sans-Serif" font-size="10.00" fill="#000000">/home/dominik/uni/MoonState</text>
<text text-anchor="middle" x="73.5" y="-141.5" font-family="Helvetica,sans-Serif" font-size="10.00" fill="#000000">/include/dtls_handshake.hpp</text>
</g>
<!-- Node8 -->
<g id="node2" class="node">
<title>Node8</title>
<g id="a_node2"><a xlink:href="dtls_8hpp.html" target="_top" xlink:title="/home/dominik/uni/MoonState\l/include/dtls.hpp">
<polygon fill="none" stroke="#000000" points="0,-67.5 0,-97.5 147,-97.5 147,-67.5 0,-67.5"/>
<text text-anchor="start" x="8" y="-85.5" font-family="Helvetica,sans-Serif" font-size="10.00" fill="#000000">/home/dominik/uni/MoonState</text>
<text text-anchor="middle" x="73.5" y="-74.5" font-family="Helvetica,sans-Serif" font-size="10.00" fill="#000000">/include/dtls.hpp</text>
</a>
</g>
</g>
<!-- Node7&#45;&gt;Node8 -->
<g id="edge1" class="edge">
<title>Node7&#45;&gt;Node8</title>
<path fill="none" stroke="#191970" d="M66.9384,-124.3179C66.5239,-115.3414 66.7933,-105.5143 67.7464,-97.6432"/>
<polygon fill="#191970" stroke="#191970" points="63.4504,-124.6087 67.7392,-134.2967 70.428,-124.0487 63.4504,-124.6087"/>
</g>
<!-- Node8&#45;&gt;Node7 -->
<g id="edge2" class="edge">
<title>Node8&#45;&gt;Node7</title>
<path fill="none" stroke="#191970" d="M80.0584,-107.6135C80.4764,-116.5857 80.2105,-126.4156 79.2608,-134.2967"/>
<polygon fill="#191970" stroke="#191970" points="83.5469,-107.3291 79.2536,-97.6432 76.5696,-107.8924 83.5469,-107.3291"/>
</g>
<!-- Node9 -->
<g id="node3" class="node">
<title>Node9</title>
<g id="a_node3"><a xlink:href="dtls__record_8hpp.html" target="_top" xlink:title="/home/dominik/uni/MoonState\l/include/dtls_record.hpp">
<polygon fill="none" stroke="#000000" points="0,-.5 0,-30.5 147,-30.5 147,-.5 0,-.5"/>
<text text-anchor="start" x="8" y="-18.5" font-family="Helvetica,sans-Serif" font-size="10.00" fill="#000000">/home/dominik/uni/MoonState</text>
<text text-anchor="middle" x="73.5" y="-7.5" font-family="Helvetica,sans-Serif" font-size="10.00" fill="#000000">/include/dtls_record.hpp</text>
</a>
</g>
</g>
<!-- Node8&#45;&gt;Node9 -->
<g id="edge3" class="edge">
<title>Node8&#45;&gt;Node9</title>
<path fill="none" stroke="#191970" d="M66.9384,-57.3179C66.5239,-48.3414 66.7933,-38.5143 67.7464,-30.6432"/>
<polygon fill="#191970" stroke="#191970" points="63.4504,-57.6087 67.7392,-67.2967 70.428,-57.0487 63.4504,-57.6087"/>
</g>
<!-- Node9&#45;&gt;Node8 -->
<g id="edge4" class="edge">
<title>Node9&#45;&gt;Node8</title>
<path fill="none" stroke="#191970" d="M80.0584,-40.6135C80.4764,-49.5857 80.2105,-59.4156 79.2608,-67.2967"/>
<polygon fill="#191970" stroke="#191970" points="83.5469,-40.3291 79.2536,-30.6432 76.5696,-40.8924 83.5469,-40.3291"/>
</g>
</g>
</svg>
