<?xml version="1.0" encoding="UTF-8" standalone="no"?>
<!DOCTYPE svg PUBLIC "-//W3C//DTD SVG 1.1//EN"
 "http://www.w3.org/Graphics/SVG/1.1/DTD/svg11.dtd">
<!-- Generated by graphviz version 2.40.1 (20161225.0304)
 -->
<!-- Title: /home/dominik/uni/MoonState/include/dtls.hpp Pages: 1 -->
<svg width="383pt" height="151pt"
 viewBox="0.00 0.00 382.50 151.00" xmlns="http://www.w3.org/2000/svg" xmlns:xlink="http://www.w3.org/1999/xlink">
<g id="graph0" class="graph" transform="scale(1 1) rotate(0) translate(4 147)">
<title>/home/dominik/uni/MoonState/include/dtls.hpp</title>
<!-- Node0 -->
<g id="node1" class="node">
<title>Node0</title>
<polygon fill="#bfbfbf" stroke="#000000" points="147.5,-112.5 147.5,-142.5 294.5,-142.5 294.5,-112.5 147.5,-112.5"/>
<text text-anchor="start" x="155.5" y="-130.5" font-family="Helvetica,sans-Serif" font-size="10.00" fill="#000000">/home/dominik/uni/MoonState</text>
<text text-anchor="middle" x="221" y="-119.5" font-family="Helvetica,sans-Serif" font-size="10.00" fill="#000000">/include/dtls.hpp</text>
</g>
<!-- Node1 -->
<g id="node2" class="node">
<title>Node1</title>
<g id="a_node2"><a xlink:href="common_8hpp.html" target="_top" xlink:title="common.hpp">
<polygon fill="none" stroke="#000000" points="13.5,-56.5 13.5,-75.5 86.5,-75.5 86.5,-56.5 13.5,-56.5"/>
<text text-anchor="middle" x="50" y="-63.5" font-family="Helvetica,sans-Serif" font-size="10.00" fill="#000000">common.hpp</text>
</a>
</g>
</g>
<!-- Node0&#45;&gt;Node1 -->
<g id="edge1" class="edge">
<title>Node0&#45;&gt;Node1</title>
<path fill="none" stroke="#191970" d="M179.1687,-112.4554C150.6369,-102.194 113.2365,-88.7429 86.0271,-78.9571"/>
<polygon fill="#191970" stroke="#191970" points="87.0934,-75.6212 76.4989,-75.5303 84.7243,-82.2081 87.0934,-75.6212"/>
</g>
<!-- Node4 -->
<g id="node5" class="node">
<title>Node4</title>
<polygon fill="none" stroke="#bfbfbf" points="105,-56.5 105,-75.5 151,-75.5 151,-56.5 105,-56.5"/>
<text text-anchor="middle" x="128" y="-63.5" font-family="Helvetica,sans-Serif" font-size="10.00" fill="#000000">cstdint</text>
</g>
<!-- Node0&#45;&gt;Node4 -->
<g id="edge4" class="edge">
<title>Node0&#45;&gt;Node4</title>
<path fill="none" stroke="#191970" d="M198.0112,-112.2977C183.8034,-102.9022 165.6215,-90.8787 151.3475,-81.4395"/>
<polygon fill="#191970" stroke="#191970" points="152.8845,-78.2598 142.6128,-75.6633 149.0233,-84.0986 152.8845,-78.2598"/>
</g>
<!-- Node5 -->
<g id="node6" class="node">
<title>Node5</title>
<g id="a_node6"><a xlink:href="dtls__handshake_8hpp.html" target="_top" xlink:title="dtls_handshake.hpp">
<polygon fill="none" stroke="#000000" points="169,-56.5 169,-75.5 273,-75.5 273,-56.5 169,-56.5"/>
<text text-anchor="middle" x="221" y="-63.5" font-family="Helvetica,sans-Serif" font-size="10.00" fill="#000000">dtls_handshake.hpp</text>
</a>
</g>
</g>
<!-- Node0&#45;&gt;Node5 -->
<g id="edge5" class="edge">
<title>Node0&#45;&gt;Node5</title>
<path fill="none" stroke="#191970" d="M215.0843,-112.2977C214.1446,-104.2945 213.9987,-94.3843 214.6466,-85.7889"/>
<polygon fill="#191970" stroke="#191970" points="218.1218,-86.2044 215.8917,-75.8469 211.176,-85.3345 218.1218,-86.2044"/>
</g>
<!-- Node6 -->
<g id="node7" class="node">
<title>Node6</title>
<g id="a_node7"><a xlink:href="dtls__record_8hpp.html" target="_top" xlink:title="dtls_record.hpp">
<polygon fill="none" stroke="#000000" points="291.5,-56.5 291.5,-75.5 374.5,-75.5 374.5,-56.5 291.5,-56.5"/>
<text text-anchor="middle" x="333" y="-63.5" font-family="Helvetica,sans-Serif" font-size="10.00" fill="#000000">dtls_record.hpp</text>
</a>
</g>
</g>
<!-- Node0&#45;&gt;Node6 -->
<g id="edge7" class="edge">
<title>Node0&#45;&gt;Node6</title>
<path fill="none" stroke="#191970" d="M242.5012,-112.4554C259.2773,-102.599 282.624,-89.7999 301.4785,-80.1327"/>
<polygon fill="#191970" stroke="#191970" points="303.2467,-83.1608 310.597,-75.5303 300.0926,-76.9117 303.2467,-83.1608"/>
</g>
<!-- Node2 -->
<g id="node3" class="node">
<title>Node2</title>
<polygon fill="none" stroke="#bfbfbf" points="0,-.5 0,-19.5 38,-19.5 38,-.5 0,-.5"/>
<text text-anchor="middle" x="19" y="-7.5" font-family="Helvetica,sans-Serif" font-size="10.00" fill="#000000">array</text>
</g>
<!-- Node1&#45;&gt;Node2 -->
<g id="edge2" class="edge">
<title>Node1&#45;&gt;Node2</title>
<path fill="none" stroke="#191970" d="M44.6002,-56.2455C40.3773,-48.617 34.3827,-37.7881 29.2559,-28.5267"/>
<polygon fill="#191970" stroke="#191970" points="32.2432,-26.6965 24.3379,-19.6427 26.119,-30.0867 32.2432,-26.6965"/>
</g>
<!-- Node3 -->
<g id="node4" class="node">
<title>Node3</title>
<polygon fill="none" stroke="#bfbfbf" points="56.5,-.5 56.5,-19.5 105.5,-19.5 105.5,-.5 56.5,-.5"/>
<text text-anchor="middle" x="81" y="-7.5" font-family="Helvetica,sans-Serif" font-size="10.00" fill="#000000">cassert</text>
</g>
<!-- Node1&#45;&gt;Node3 -->
<g id="edge3" class="edge">
<title>Node1&#45;&gt;Node3</title>
<path fill="none" stroke="#191970" d="M55.3998,-56.2455C59.6227,-48.617 65.6173,-37.7881 70.7441,-28.5267"/>
<polygon fill="#191970" stroke="#191970" points="73.881,-30.0867 75.6621,-19.6427 67.7568,-26.6965 73.881,-30.0867"/>
</g>
<!-- Node5&#45;&gt;Node0 -->
<g id="edge6" class="edge">
<title>Node5&#45;&gt;Node0</title>
<path fill="none" stroke="#191970" d="M226.1083,-75.8469C227.4704,-82.9883 227.9849,-92.9858 227.6519,-102.2849"/>
<polygon fill="#191970" stroke="#191970" points="224.1584,-102.068 226.9157,-112.2977 231.1396,-102.5813 224.1584,-102.068"/>
</g>
<!-- Node6&#45;&gt;Node0 -->
<g id="edge8" class="edge">
<title>Node6&#45;&gt;Node0</title>
<path fill="none" stroke="#191970" d="M320.691,-75.5303C306.7369,-84.12 283.6749,-97.0211 263.185,-107.8201"/>
<polygon fill="#191970" stroke="#191970" points="261.5441,-104.7284 254.2954,-112.4554 264.7806,-110.9353 261.5441,-104.7284"/>
</g>
</g>
</svg>
