<?xml version="1.0" encoding="UTF-8" standalone="no"?>
<!DOCTYPE svg PUBLIC "-//W3C//DTD SVG 1.1//EN"
 "http://www.w3.org/Graphics/SVG/1.1/DTD/svg11.dtd">
<!-- Generated by graphviz version 2.40.1 (20161225.0304)
 -->
<!-- Title: /home/dominik/uni/MoonState/include/dtls.hpp Pages: 1 -->
<svg width="320pt" height="106pt"
 viewBox="0.00 0.00 320.00 106.00" xmlns="http://www.w3.org/2000/svg" xmlns:xlink="http://www.w3.org/1999/xlink">
<g id="graph0" class="graph" transform="scale(1 1) rotate(0) translate(4 102)">
<title>/home/dominik/uni/MoonState/include/dtls.hpp</title>
<!-- Node7 -->
<g id="node1" class="node">
<title>Node7</title>
<polygon fill="#bfbfbf" stroke="#000000" points="82,-67.5 82,-97.5 229,-97.5 229,-67.5 82,-67.5"/>
<text text-anchor="start" x="90" y="-85.5" font-family="Helvetica,sans-Serif" font-size="10.00" fill="#000000">/home/dominik/uni/MoonState</text>
<text text-anchor="middle" x="155.5" y="-74.5" font-family="Helvetica,sans-Serif" font-size="10.00" fill="#000000">/include/dtls.hpp</text>
</g>
<!-- Node8 -->
<g id="node2" class="node">
<title>Node8</title>
<g id="a_node2"><a xlink:href="dtls__handshake_8hpp.html" target="_top" xlink:title="/home/dominik/uni/MoonState\l/include/dtls_handshake.hpp">
<polygon fill="none" stroke="#000000" points="0,-.5 0,-30.5 147,-30.5 147,-.5 0,-.5"/>
<text text-anchor="start" x="8" y="-18.5" font-family="Helvetica,sans-Serif" font-size="10.00" fill="#000000">/home/dominik/uni/MoonState</text>
<text text-anchor="middle" x="73.5" y="-7.5" font-family="Helvetica,sans-Serif" font-size="10.00" fill="#000000">/include/dtls_handshake.hpp</text>
</a>
</g>
</g>
<!-- Node7&#45;&gt;Node8 -->
<g id="edge1" class="edge">
<title>Node7&#45;&gt;Node8</title>
<path fill="none" stroke="#191970" d="M122.9204,-61.0643C110.1022,-51.1577 96.1865,-39.6265 86.2799,-30.6432"/>
<polygon fill="#191970" stroke="#191970" points="121.0505,-64.039 131.1321,-67.2967 125.2824,-58.4631 121.0505,-64.039"/>
</g>
<!-- Node9 -->
<g id="node3" class="node">
<title>Node9</title>
<g id="a_node3"><a xlink:href="dtls__record_8hpp.html" target="_top" xlink:title="/home/dominik/uni/MoonState\l/include/dtls_record.hpp">
<polygon fill="none" stroke="#000000" points="165,-.5 165,-30.5 312,-30.5 312,-.5 165,-.5"/>
<text text-anchor="start" x="173" y="-18.5" font-family="Helvetica,sans-Serif" font-size="10.00" fill="#000000">/home/dominik/uni/MoonState</text>
<text text-anchor="middle" x="238.5" y="-7.5" font-family="Helvetica,sans-Serif" font-size="10.00" fill="#000000">/include/dtls_record.hpp</text>
</a>
</g>
</g>
<!-- Node7&#45;&gt;Node9 -->
<g id="edge3" class="edge">
<title>Node7&#45;&gt;Node9</title>
<path fill="none" stroke="#191970" d="M176.3746,-60.4965C187.8394,-50.7193 202.0032,-39.4554 213.987,-30.6432"/>
<polygon fill="#191970" stroke="#191970" points="173.8116,-58.0875 168.5732,-67.2967 178.4112,-63.3642 173.8116,-58.0875"/>
</g>
<!-- Node8&#45;&gt;Node7 -->
<g id="edge2" class="edge">
<title>Node8&#45;&gt;Node7</title>
<path fill="none" stroke="#191970" d="M105.9938,-36.8694C118.8071,-46.7687 132.7292,-58.302 142.6537,-67.2967"/>
<polygon fill="#191970" stroke="#191970" points="107.8692,-33.8989 97.787,-30.6432 103.6383,-39.4757 107.8692,-33.8989"/>
</g>
<!-- Node9&#45;&gt;Node7 -->
<g id="edge4" class="edge">
<title>Node9&#45;&gt;Node7</title>
<path fill="none" stroke="#191970" d="M217.7036,-37.4368C206.2511,-47.2072 192.0885,-58.4733 180.0948,-67.2967"/>
<polygon fill="#191970" stroke="#191970" points="220.2577,-39.8535 225.4941,-30.6432 215.6569,-34.5778 220.2577,-39.8535"/>
</g>
</g>
</svg>
