<?xml version="1.0" encoding="UTF-8" standalone="no"?>
<!DOCTYPE svg PUBLIC "-//W3C//DTD SVG 1.1//EN"
 "http://www.w3.org/Graphics/SVG/1.1/DTD/svg11.dtd">
<!-- Generated by graphviz version 2.40.1 (20161225.0304)
 -->
<!-- Title: /home/dominik/uni/MoonState/src/dtlsClient.cpp Pages: 1 -->
<svg width="1645pt" height="263pt"
 viewBox="0.00 0.00 1644.50 263.00" xmlns="http://www.w3.org/2000/svg" xmlns:xlink="http://www.w3.org/1999/xlink">
<g id="graph0" class="graph" transform="scale(1 1) rotate(0) translate(4 259)">
<title>/home/dominik/uni/MoonState/src/dtlsClient.cpp</title>
<!-- Node0 -->
<g id="node1" class="node">
<title>Node0</title>
<polygon fill="#bfbfbf" stroke="#000000" points="65.5,-224.5 65.5,-254.5 212.5,-254.5 212.5,-224.5 65.5,-224.5"/>
<text text-anchor="start" x="73.5" y="-242.5" font-family="Helvetica,sans-Serif" font-size="10.00" fill="#000000">/home/dominik/uni/MoonState</text>
<text text-anchor="middle" x="139" y="-231.5" font-family="Helvetica,sans-Serif" font-size="10.00" fill="#000000">/src/dtlsClient.cpp</text>
</g>
<!-- Node1 -->
<g id="node2" class="node">
<title>Node1</title>
<polygon fill="none" stroke="#bfbfbf" points="0,-.5 0,-19.5 46,-19.5 46,-.5 0,-.5"/>
<text text-anchor="middle" x="23" y="-7.5" font-family="Helvetica,sans-Serif" font-size="10.00" fill="#000000">cstring</text>
</g>
<!-- Node0&#45;&gt;Node1 -->
<g id="edge1" class="edge">
<title>Node0&#45;&gt;Node1</title>
<path fill="none" stroke="#191970" d="M131.3889,-224.4419C111.0009,-184.1052 55.1773,-73.6611 32.633,-29.0583"/>
<polygon fill="#191970" stroke="#191970" points="35.6377,-27.244 28.003,-19.8981 29.3903,-30.4017 35.6377,-27.244"/>
</g>
<!-- Node2 -->
<g id="node3" class="node">
<title>Node2</title>
<polygon fill="none" stroke="#bfbfbf" points="367.5,-56.5 367.5,-75.5 426.5,-75.5 426.5,-56.5 367.5,-56.5"/>
<text text-anchor="middle" x="397" y="-63.5" font-family="Helvetica,sans-Serif" font-size="10.00" fill="#000000">functional</text>
</g>
<!-- Node0&#45;&gt;Node2 -->
<g id="edge2" class="edge">
<title>Node0&#45;&gt;Node2</title>
<path fill="none" stroke="#191970" d="M141.5382,-224.2969C146.9156,-193.9211 160.3398,-127.3235 177,-112 202.8341,-88.2386 301.0083,-75.1563 357.0893,-69.4785"/>
<polygon fill="#191970" stroke="#191970" points="357.7656,-72.9291 367.3773,-68.4721 357.084,-65.9624 357.7656,-72.9291"/>
</g>
<!-- Node3 -->
<g id="node4" class="node">
<title>Node3</title>
<g id="a_node4"><a xlink:href="dtlsClient_8hpp.html" target="_top" xlink:title="dtlsClient.hpp">
<polygon fill="none" stroke="#000000" points="764.5,-168.5 764.5,-187.5 841.5,-187.5 841.5,-168.5 764.5,-168.5"/>
<text text-anchor="middle" x="803" y="-175.5" font-family="Helvetica,sans-Serif" font-size="10.00" fill="#000000">dtlsClient.hpp</text>
</a>
</g>
</g>
<!-- Node0&#45;&gt;Node3 -->
<g id="edge3" class="edge">
<title>Node0&#45;&gt;Node3</title>
<path fill="none" stroke="#191970" d="M212.5966,-232.6834C349.3009,-220.0218 638.974,-193.1922 754.2197,-182.5181"/>
<polygon fill="#191970" stroke="#191970" points="754.8586,-185.9739 764.4932,-181.5665 754.213,-179.0038 754.8586,-185.9739"/>
</g>
<!-- Node20 -->
<g id="node21" class="node">
<title>Node20</title>
<g id="a_node21"><a xlink:href="headers_8hpp.html" target="_top" xlink:title="headers.hpp">
<polygon fill="none" stroke="#000000" points="127,-56.5 127,-75.5 197,-75.5 197,-56.5 127,-56.5"/>
<text text-anchor="middle" x="162" y="-63.5" font-family="Helvetica,sans-Serif" font-size="10.00" fill="#000000">headers.hpp</text>
</a>
</g>
</g>
<!-- Node0&#45;&gt;Node20 -->
<g id="edge60" class="edge">
<title>Node0&#45;&gt;Node20</title>
<path fill="none" stroke="#191970" d="M137.9847,-224.3847C136.7251,-200.3093 135.6589,-151.8979 144,-112 145.9249,-102.7925 149.5048,-93.0304 152.9681,-84.8792"/>
<polygon fill="#191970" stroke="#191970" points="156.2416,-86.1341 157.1592,-75.5791 149.8596,-83.258 156.2416,-86.1341"/>
</g>
<!-- Node4 -->
<g id="node5" class="node">
<title>Node4</title>
<polygon fill="none" stroke="#bfbfbf" points="274,-.5 274,-19.5 312,-19.5 312,-.5 274,-.5"/>
<text text-anchor="middle" x="293" y="-7.5" font-family="Helvetica,sans-Serif" font-size="10.00" fill="#000000">array</text>
</g>
<!-- Node3&#45;&gt;Node4 -->
<g id="edge4" class="edge">
<title>Node3&#45;&gt;Node4</title>
<path fill="none" stroke="#191970" d="M764.1198,-176.7359C656.4698,-172.893 360.2438,-159.8688 327,-132 296.9365,-106.7973 292.2633,-57.465 292.1919,-29.8789"/>
<polygon fill="#191970" stroke="#191970" points="295.6921,-29.8956 292.3701,-19.8351 288.6932,-29.7714 295.6921,-29.8956"/>
</g>
<!-- Node5 -->
<g id="node6" class="node">
<title>Node5</title>
<polygon fill="none" stroke="#bfbfbf" points="795,-.5 795,-19.5 841,-19.5 841,-.5 795,-.5"/>
<text text-anchor="middle" x="818" y="-7.5" font-family="Helvetica,sans-Serif" font-size="10.00" fill="#000000">cstdint</text>
</g>
<!-- Node3&#45;&gt;Node5 -->
<g id="edge5" class="edge">
<title>Node3&#45;&gt;Node5</title>
<path fill="none" stroke="#191970" d="M804.1792,-168.4233C806.1681,-155.0035 811.0934,-130.2074 822,-112 833.7903,-92.3173 850.0748,-97.1367 859,-76 866.5886,-58.0287 852.5193,-39.2996 838.84,-26.4039"/>
<polygon fill="#191970" stroke="#191970" points="840.8262,-23.4909 830.9976,-19.535 836.2141,-28.7567 840.8262,-23.4909"/>
</g>
<!-- Node6 -->
<g id="node7" class="node">
<title>Node6</title>
<polygon fill="none" stroke="#bfbfbf" points="483,-56.5 483,-75.5 537,-75.5 537,-56.5 483,-56.5"/>
<text text-anchor="middle" x="510" y="-63.5" font-family="Helvetica,sans-Serif" font-size="10.00" fill="#000000">iostream</text>
</g>
<!-- Node3&#45;&gt;Node6 -->
<g id="edge6" class="edge">
<title>Node3&#45;&gt;Node6</title>
<path fill="none" stroke="#191970" d="M778.019,-168.4509C725.5822,-148.4069 603.9697,-101.9202 544.287,-79.1063"/>
<polygon fill="#191970" stroke="#191970" points="545.5083,-75.8262 534.9178,-75.5249 543.0089,-82.3648 545.5083,-75.8262"/>
</g>
<!-- Node7 -->
<g id="node8" class="node">
<title>Node7</title>
<polygon fill="none" stroke="#bfbfbf" points="831,-112.5 831,-131.5 905,-131.5 905,-112.5 831,-112.5"/>
<text text-anchor="middle" x="868" y="-119.5" font-family="Helvetica,sans-Serif" font-size="10.00" fill="#000000">openssl/bio.h</text>
</g>
<!-- Node3&#45;&gt;Node7 -->
<g id="edge7" class="edge">
<title>Node3&#45;&gt;Node7</title>
<path fill="none" stroke="#191970" d="M814.3221,-168.2455C823.9223,-159.9746 837.8892,-147.9416 849.1695,-138.2232"/>
<polygon fill="#191970" stroke="#191970" points="851.516,-140.8214 856.8076,-131.6427 846.947,-135.5182 851.516,-140.8214"/>
</g>
<!-- Node8 -->
<g id="node9" class="node">
<title>Node8</title>
<polygon fill="none" stroke="#bfbfbf" points="923,-112.5 923,-131.5 1003,-131.5 1003,-112.5 923,-112.5"/>
<text text-anchor="middle" x="963" y="-119.5" font-family="Helvetica,sans-Serif" font-size="10.00" fill="#000000">openssl/conf.h</text>
</g>
<!-- Node3&#45;&gt;Node8 -->
<g id="edge8" class="edge">
<title>Node3&#45;&gt;Node8</title>
<path fill="none" stroke="#191970" d="M830.505,-168.3733C856.8802,-159.1419 896.8851,-145.1402 926.0358,-134.9375"/>
<polygon fill="#191970" stroke="#191970" points="927.5716,-138.1082 935.8539,-131.5011 925.2591,-131.5012 927.5716,-138.1082"/>
</g>
<!-- Node9 -->
<g id="node10" class="node">
<title>Node9</title>
<polygon fill="none" stroke="#bfbfbf" points="1021,-112.5 1021,-131.5 1093,-131.5 1093,-112.5 1021,-112.5"/>
<text text-anchor="middle" x="1057" y="-119.5" font-family="Helvetica,sans-Serif" font-size="10.00" fill="#000000">openssl/dh.h</text>
</g>
<!-- Node3&#45;&gt;Node9 -->
<g id="edge9" class="edge">
<title>Node3&#45;&gt;Node9</title>
<path fill="none" stroke="#191970" d="M841.5256,-169.5452C881.4174,-160.7851 945.8287,-146.6255 1010.6667,-132.292"/>
<polygon fill="#191970" stroke="#191970" points="1011.6437,-135.6606 1020.6521,-130.0839 1010.1323,-128.8257 1011.6437,-135.6606"/>
</g>
<!-- Node10 -->
<g id="node11" class="node">
<title>Node10</title>
<polygon fill="none" stroke="#bfbfbf" points="1223,-112.5 1223,-131.5 1313,-131.5 1313,-112.5 1223,-112.5"/>
<text text-anchor="middle" x="1268" y="-119.5" font-family="Helvetica,sans-Serif" font-size="10.00" fill="#000000">openssl/engine.h</text>
</g>
<!-- Node3&#45;&gt;Node10 -->
<g id="edge10" class="edge">
<title>Node3&#45;&gt;Node10</title>
<path fill="none" stroke="#191970" d="M841.6507,-174.6057C912.9206,-168.1454 1070.0457,-152.9644 1212.7134,-132.1023"/>
<polygon fill="#191970" stroke="#191970" points="1213.5772,-135.5128 1222.9591,-130.5904 1212.5553,-128.5878 1213.5772,-135.5128"/>
</g>
<!-- Node11 -->
<g id="node12" class="node">
<title>Node11</title>
<polygon fill="none" stroke="#bfbfbf" points="1331,-112.5 1331,-131.5 1403,-131.5 1403,-112.5 1331,-112.5"/>
<text text-anchor="middle" x="1367" y="-119.5" font-family="Helvetica,sans-Serif" font-size="10.00" fill="#000000">openssl/err.h</text>
</g>
<!-- Node3&#45;&gt;Node11 -->
<g id="edge11" class="edge">
<title>Node3&#45;&gt;Node11</title>
<path fill="none" stroke="#191970" d="M841.6216,-176.3C926.5693,-172.1917 1136.1216,-160.0361 1320.8372,-132.006"/>
<polygon fill="#191970" stroke="#191970" points="1321.3753,-135.4645 1330.7276,-130.4861 1320.312,-128.5457 1321.3753,-135.4645"/>
</g>
<!-- Node12 -->
<g id="node13" class="node">
<title>Node12</title>
<polygon fill="none" stroke="#bfbfbf" points="186,-112.5 186,-131.5 260,-131.5 260,-112.5 186,-112.5"/>
<text text-anchor="middle" x="223" y="-119.5" font-family="Helvetica,sans-Serif" font-size="10.00" fill="#000000">openssl/ssl.h</text>
</g>
<!-- Node3&#45;&gt;Node12 -->
<g id="edge12" class="edge">
<title>Node3&#45;&gt;Node12</title>
<path fill="none" stroke="#191970" d="M764.3423,-176.0576C676.7482,-171.3466 456.5651,-157.761 274,-132 272.7436,-131.8227 271.4714,-131.6347 270.1888,-131.4378"/>
<polygon fill="#191970" stroke="#191970" points="270.6852,-127.9723 260.2458,-129.7801 269.5341,-134.877 270.6852,-127.9723"/>
</g>
<!-- Node13 -->
<g id="node14" class="node">
<title>Node13</title>
<g id="a_node14"><a xlink:href="IPv4__5TupleL2Ident_8hpp.html" target="_top" xlink:title="IPv4_5TupleL2Ident.hpp">
<polygon fill="none" stroke="#000000" points="336,-112.5 336,-131.5 458,-131.5 458,-112.5 336,-112.5"/>
<text text-anchor="middle" x="397" y="-119.5" font-family="Helvetica,sans-Serif" font-size="10.00" fill="#000000">IPv4_5TupleL2Ident.hpp</text>
</a>
</g>
</g>
<!-- Node3&#45;&gt;Node13 -->
<g id="edge13" class="edge">
<title>Node3&#45;&gt;Node13</title>
<path fill="none" stroke="#191970" d="M764.4385,-172.6812C696.4658,-163.3056 554.3803,-143.7076 468.1759,-131.8174"/>
<polygon fill="#191970" stroke="#191970" points="468.5917,-128.3417 458.2073,-130.4424 467.6352,-135.276 468.5917,-128.3417"/>
</g>
<!-- Node23 -->
<g id="node24" class="node">
<title>Node23</title>
<g id="a_node24"><a xlink:href="mbuf_8hpp.html" target="_top" xlink:title="mbuf.hpp">
<polygon fill="none" stroke="#000000" points="717.5,-112.5 717.5,-131.5 774.5,-131.5 774.5,-112.5 717.5,-112.5"/>
<text text-anchor="middle" x="746" y="-119.5" font-family="Helvetica,sans-Serif" font-size="10.00" fill="#000000">mbuf.hpp</text>
</a>
</g>
</g>
<!-- Node3&#45;&gt;Node23 -->
<g id="edge34" class="edge">
<title>Node3&#45;&gt;Node23</title>
<path fill="none" stroke="#191970" d="M793.0714,-168.2455C784.8162,-160.1352 772.8791,-148.4075 763.0918,-138.7919"/>
<polygon fill="#191970" stroke="#191970" points="765.4011,-136.1542 755.8149,-131.6427 760.4954,-141.1476 765.4011,-136.1542"/>
</g>
<!-- Node25 -->
<g id="node26" class="node">
<title>Node25</title>
<g id="a_node26"><a xlink:href="stateMachine_8hpp.html" target="_top" xlink:title="stateMachine.hpp">
<polygon fill="none" stroke="#000000" points="1111,-112.5 1111,-131.5 1205,-131.5 1205,-112.5 1111,-112.5"/>
<text text-anchor="middle" x="1158" y="-119.5" font-family="Helvetica,sans-Serif" font-size="10.00" fill="#000000">stateMachine.hpp</text>
</a>
</g>
</g>
<!-- Node3&#45;&gt;Node25 -->
<g id="edge37" class="edge">
<title>Node3&#45;&gt;Node25</title>
<path fill="none" stroke="#191970" d="M841.7524,-172.3423C896.9685,-164.2143 1001.7114,-148.5496 1101.056,-132.1274"/>
<polygon fill="#191970" stroke="#191970" points="1101.6679,-135.5738 1110.9604,-130.4846 1100.5225,-128.6682 1101.6679,-135.5738"/>
</g>
<!-- Node13&#45;&gt;Node2 -->
<g id="edge16" class="edge">
<title>Node13&#45;&gt;Node2</title>
<path fill="none" stroke="#191970" d="M397,-112.2455C397,-104.9382 397,-94.6944 397,-85.7046"/>
<polygon fill="#191970" stroke="#191970" points="400.5001,-85.6426 397,-75.6427 393.5001,-85.6427 400.5001,-85.6426"/>
</g>
<!-- Node13&#45;&gt;Node5 -->
<g id="edge14" class="edge">
<title>Node13&#45;&gt;Node5</title>
<path fill="none" stroke="#191970" d="M384.4449,-112.4421C368.0263,-98.8251 343.1212,-73.5497 359,-56 373.3037,-40.1911 681.4547,-18.8509 784.6581,-12.1226"/>
<polygon fill="#191970" stroke="#191970" points="785.07,-15.6034 794.8228,-11.4641 784.6174,-8.618 785.07,-15.6034"/>
</g>
<!-- Node13&#45;&gt;Node6 -->
<g id="edge17" class="edge">
<title>Node13&#45;&gt;Node6</title>
<path fill="none" stroke="#191970" d="M416.4254,-112.3733C434.4021,-103.4644 461.3441,-90.1127 481.709,-80.0203"/>
<polygon fill="#191970" stroke="#191970" points="483.4222,-83.0776 490.8281,-75.5011 480.3139,-76.8055 483.4222,-83.0776"/>
</g>
<!-- Node14 -->
<g id="node15" class="node">
<title>Node14</title>
<polygon fill="none" stroke="#bfbfbf" points="555.5,-.5 555.5,-19.5 614.5,-19.5 614.5,-.5 555.5,-.5"/>
<text text-anchor="middle" x="585" y="-7.5" font-family="Helvetica,sans-Serif" font-size="10.00" fill="#000000">exception</text>
</g>
<!-- Node13&#45;&gt;Node14 -->
<g id="edge15" class="edge">
<title>Node13&#45;&gt;Node14</title>
<path fill="none" stroke="#191970" d="M372.2959,-112.3516C344.7521,-100.2022 306.3677,-78.2181 325,-56 352.6099,-23.0765 479.2132,-13.7046 545.0162,-11.0463"/>
<polygon fill="#191970" stroke="#191970" points="545.1674,-14.5432 555.0307,-10.6748 544.9078,-7.5481 545.1674,-14.5432"/>
</g>
<!-- Node15 -->
<g id="node16" class="node">
<title>Node15</title>
<polygon fill="none" stroke="#bfbfbf" points="64,-.5 64,-19.5 116,-19.5 116,-.5 64,-.5"/>
<text text-anchor="middle" x="90" y="-7.5" font-family="Helvetica,sans-Serif" font-size="10.00" fill="#000000">sstream</text>
</g>
<!-- Node13&#45;&gt;Node15 -->
<g id="edge18" class="edge">
<title>Node13&#45;&gt;Node15</title>
<path fill="none" stroke="#191970" d="M335.951,-115.0865C259.0595,-105.8983 134.8813,-89.278 118,-76 103.6722,-64.7305 96.574,-44.7548 93.1227,-29.7225"/>
<polygon fill="#191970" stroke="#191970" points="96.5467,-28.9939 91.2029,-19.8455 89.6752,-30.3296 96.5467,-28.9939"/>
</g>
<!-- Node16 -->
<g id="node17" class="node">
<title>Node16</title>
<polygon fill="none" stroke="#bfbfbf" points="1053.5,-.5 1053.5,-19.5 1112.5,-19.5 1112.5,-.5 1053.5,-.5"/>
<text text-anchor="middle" x="1083" y="-7.5" font-family="Helvetica,sans-Serif" font-size="10.00" fill="#000000">stdexcept</text>
</g>
<!-- Node13&#45;&gt;Node16 -->
<g id="edge19" class="edge">
<title>Node13&#45;&gt;Node16</title>
<path fill="none" stroke="#191970" d="M404.7417,-112.2116C417.381,-97.0577 444.061,-68.3769 474,-56 526.4194,-34.3296 916.7084,-16.747 1043.4076,-11.5593"/>
<polygon fill="#191970" stroke="#191970" points="1043.605,-15.0543 1053.4548,-11.1514 1043.321,-8.0601 1043.605,-15.0543"/>
</g>
<!-- Node17 -->
<g id="node18" class="node">
<title>Node17</title>
<polygon fill="none" stroke="#bfbfbf" points="214.5,-.5 214.5,-19.5 255.5,-19.5 255.5,-.5 214.5,-.5"/>
<text text-anchor="middle" x="235" y="-7.5" font-family="Helvetica,sans-Serif" font-size="10.00" fill="#000000">string</text>
</g>
<!-- Node13&#45;&gt;Node17 -->
<g id="edge20" class="edge">
<title>Node13&#45;&gt;Node17</title>
<path fill="none" stroke="#191970" d="M362.1768,-112.4625C339.2769,-105.0377 309.4972,-93.0949 287,-76 269.8501,-62.9684 255.1845,-43.0128 245.8427,-28.4559"/>
<polygon fill="#191970" stroke="#191970" points="248.7296,-26.4693 240.5001,-19.7965 242.7723,-30.1449 248.7296,-26.4693"/>
</g>
<!-- Node18 -->
<g id="node19" class="node">
<title>Node18</title>
<g id="a_node19"><a xlink:href="common_8hpp.html" target="_top" xlink:title="common.hpp">
<polygon fill="none" stroke="#000000" points="555.5,-56.5 555.5,-75.5 628.5,-75.5 628.5,-56.5 555.5,-56.5"/>
<text text-anchor="middle" x="592" y="-63.5" font-family="Helvetica,sans-Serif" font-size="10.00" fill="#000000">common.hpp</text>
</a>
</g>
</g>
<!-- Node13&#45;&gt;Node18 -->
<g id="edge21" class="edge">
<title>Node13&#45;&gt;Node18</title>
<path fill="none" stroke="#191970" d="M430.5217,-112.3733C463.3683,-102.9404 513.5595,-88.5265 549.2578,-78.2747"/>
<polygon fill="#191970" stroke="#191970" points="550.2703,-81.6255 558.9157,-75.5011 548.3381,-74.8974 550.2703,-81.6255"/>
</g>
<!-- Node13&#45;&gt;Node20 -->
<g id="edge24" class="edge">
<title>Node13&#45;&gt;Node20</title>
<path fill="none" stroke="#191970" d="M356.8691,-112.4369C315.3633,-102.5461 250.6714,-87.1302 207.3419,-76.8049"/>
<polygon fill="#191970" stroke="#191970" points="207.8947,-73.3387 197.3557,-74.4252 206.272,-80.148 207.8947,-73.3387"/>
</g>
<!-- Node22 -->
<g id="node23" class="node">
<title>Node22</title>
<g id="a_node23"><a xlink:href="exceptions_8hpp.html" target="_top" xlink:title="exceptions.hpp">
<polygon fill="none" stroke="#000000" points="646.5,-56.5 646.5,-75.5 729.5,-75.5 729.5,-56.5 646.5,-56.5"/>
<text text-anchor="middle" x="688" y="-63.5" font-family="Helvetica,sans-Serif" font-size="10.00" fill="#000000">exceptions.hpp</text>
</a>
</g>
</g>
<!-- Node13&#45;&gt;Node22 -->
<g id="edge31" class="edge">
<title>Node13&#45;&gt;Node22</title>
<path fill="none" stroke="#191970" d="M447.8028,-112.4375C494.4014,-103.636 565.6132,-90.1097 636.296,-76.3225"/>
<polygon fill="#191970" stroke="#191970" points="637.1199,-79.7278 646.2635,-74.3758 635.7781,-72.8576 637.1199,-79.7278"/>
</g>
<!-- Node18&#45;&gt;Node4 -->
<g id="edge22" class="edge">
<title>Node18&#45;&gt;Node4</title>
<path fill="none" stroke="#191970" d="M555.3653,-57.9177C552.2005,-57.2554 549.0456,-56.6077 546,-56 465.1726,-39.8714 369.3443,-23.0818 322.1885,-14.9728"/>
<polygon fill="#191970" stroke="#191970" points="322.5327,-11.4808 312.085,-13.2403 321.3496,-18.3801 322.5327,-11.4808"/>
</g>
<!-- Node19 -->
<g id="node20" class="node">
<title>Node19</title>
<polygon fill="none" stroke="#bfbfbf" points="1384.5,-.5 1384.5,-19.5 1433.5,-19.5 1433.5,-.5 1384.5,-.5"/>
<text text-anchor="middle" x="1409" y="-7.5" font-family="Helvetica,sans-Serif" font-size="10.00" fill="#000000">cassert</text>
</g>
<!-- Node18&#45;&gt;Node19 -->
<g id="edge23" class="edge">
<title>Node18&#45;&gt;Node19</title>
<path fill="none" stroke="#191970" d="M628.5672,-57.5171C631.7467,-56.9418 634.9234,-56.4236 638,-56 783.3575,-35.9862 1243.6441,-16.5737 1374.1821,-11.3607"/>
<polygon fill="#191970" stroke="#191970" points="1374.542,-14.8493 1384.3952,-10.955 1374.2641,-7.8548 1374.542,-14.8493"/>
</g>
<!-- Node20&#45;&gt;Node1 -->
<g id="edge27" class="edge">
<title>Node20&#45;&gt;Node1</title>
<path fill="none" stroke="#191970" d="M138.105,-56.3733C115.3547,-47.2077 80.9315,-33.3393 55.6549,-23.156"/>
<polygon fill="#191970" stroke="#191970" points="56.7047,-19.8056 46.1213,-19.315 54.0889,-26.2984 56.7047,-19.8056"/>
</g>
<!-- Node20&#45;&gt;Node4 -->
<g id="edge25" class="edge">
<title>Node20&#45;&gt;Node4</title>
<path fill="none" stroke="#191970" d="M184.5197,-56.3733C206.6373,-46.9184 240.4613,-32.4593 264.4535,-22.2031"/>
<polygon fill="#191970" stroke="#191970" points="265.9348,-25.3763 273.7541,-18.2273 263.1832,-18.9398 265.9348,-25.3763"/>
</g>
<!-- Node20&#45;&gt;Node5 -->
<g id="edge26" class="edge">
<title>Node20&#45;&gt;Node5</title>
<path fill="none" stroke="#191970" d="M197.2694,-62.9892C311.9959,-53.1955 673.5823,-22.3283 784.9933,-12.8176"/>
<polygon fill="#191970" stroke="#191970" points="785.3113,-16.3033 794.9773,-11.9653 784.7159,-9.3287 785.3113,-16.3033"/>
</g>
<!-- Node20&#45;&gt;Node15 -->
<g id="edge28" class="edge">
<title>Node20&#45;&gt;Node15</title>
<path fill="none" stroke="#191970" d="M149.4586,-56.2455C138.7213,-47.8943 123.0527,-35.7076 110.4953,-25.9408"/>
<polygon fill="#191970" stroke="#191970" points="112.4401,-23.0194 102.3977,-19.6427 108.1425,-28.5449 112.4401,-23.0194"/>
</g>
<!-- Node20&#45;&gt;Node17 -->
<g id="edge29" class="edge">
<title>Node20&#45;&gt;Node17</title>
<path fill="none" stroke="#191970" d="M174.7156,-56.2455C185.602,-47.8943 201.4883,-35.7076 214.22,-25.9408"/>
<polygon fill="#191970" stroke="#191970" points="216.6261,-28.5063 222.4301,-19.6427 212.3654,-22.9523 216.6261,-28.5063"/>
</g>
<!-- Node21 -->
<g id="node22" class="node">
<title>Node21</title>
<polygon fill="none" stroke="#bfbfbf" points="134,-.5 134,-19.5 196,-19.5 196,-.5 134,-.5"/>
<text text-anchor="middle" x="165" y="-7.5" font-family="Helvetica,sans-Serif" font-size="10.00" fill="#000000">arpa/inet.h</text>
</g>
<!-- Node20&#45;&gt;Node21 -->
<g id="edge30" class="edge">
<title>Node20&#45;&gt;Node21</title>
<path fill="none" stroke="#191970" d="M162.5226,-56.2455C162.914,-48.9382 163.4628,-38.6944 163.9444,-29.7046"/>
<polygon fill="#191970" stroke="#191970" points="167.4434,-29.8156 164.4834,-19.6427 160.4534,-29.4411 167.4434,-29.8156"/>
</g>
<!-- Node22&#45;&gt;Node14 -->
<g id="edge32" class="edge">
<title>Node22&#45;&gt;Node14</title>
<path fill="none" stroke="#191970" d="M670.0588,-56.2455C653.96,-47.4928 630.1121,-34.527 611.7609,-24.5496"/>
<polygon fill="#191970" stroke="#191970" points="613.1929,-21.3444 602.7356,-19.6427 609.8493,-27.4942 613.1929,-21.3444"/>
</g>
<!-- Node22&#45;&gt;Node16 -->
<g id="edge33" class="edge">
<title>Node22&#45;&gt;Node16</title>
<path fill="none" stroke="#191970" d="M729.5254,-60.1129C806.0477,-49.2641 968.3391,-26.2557 1043.3981,-15.6145"/>
<polygon fill="#191970" stroke="#191970" points="1043.9826,-19.0667 1053.3922,-14.1976 1042.9999,-12.136 1043.9826,-19.0667"/>
</g>
<!-- Node23&#45;&gt;Node5 -->
<g id="edge35" class="edge">
<title>Node23&#45;&gt;Node5</title>
<path fill="none" stroke="#191970" d="M749.8038,-112.1716C755.1564,-98.8844 765.6503,-74.7025 778,-56 784.8057,-45.6934 793.7191,-35.2241 801.4042,-26.8823"/>
<polygon fill="#191970" stroke="#191970" points="803.9543,-29.2796 808.2871,-19.6112 798.8707,-24.4674 803.9543,-29.2796"/>
</g>
<!-- Node24 -->
<g id="node25" class="node">
<title>Node24</title>
<polygon fill="none" stroke="#bfbfbf" points="786.5,-56.5 786.5,-75.5 849.5,-75.5 849.5,-56.5 786.5,-56.5"/>
<text text-anchor="middle" x="818" y="-63.5" font-family="Helvetica,sans-Serif" font-size="10.00" fill="#000000">rte_mbuf.h</text>
</g>
<!-- Node23&#45;&gt;Node24 -->
<g id="edge36" class="edge">
<title>Node23&#45;&gt;Node24</title>
<path fill="none" stroke="#191970" d="M758.5414,-112.2455C769.2787,-103.8943 784.9473,-91.7076 797.5047,-81.9408"/>
<polygon fill="#191970" stroke="#191970" points="799.8575,-84.5449 805.6023,-75.6427 795.5599,-79.0194 799.8575,-84.5449"/>
</g>
<!-- Node25&#45;&gt;Node2 -->
<g id="edge41" class="edge">
<title>Node25&#45;&gt;Node2</title>
<path fill="none" stroke="#191970" d="M1110.7026,-113.1444C1107.7631,-112.7212 1104.8445,-112.3343 1102,-112 824.3415,-79.369 752.3559,-102.0195 474,-76 461.8543,-74.8647 448.674,-73.2825 436.7081,-71.7112"/>
<polygon fill="#191970" stroke="#191970" points="436.9395,-68.2108 426.5618,-70.3447 436.0051,-75.1482 436.9395,-68.2108"/>
</g>
<!-- Node25&#45;&gt;Node5 -->
<g id="edge40" class="edge">
<title>Node25&#45;&gt;Node5</title>
<path fill="none" stroke="#191970" d="M1110.7926,-113.0697C1050.3001,-101.5014 951.2643,-82.0944 935,-76 916.3778,-69.0221 870.6426,-42.0505 842.1833,-24.8209"/>
<polygon fill="#191970" stroke="#191970" points="843.9697,-21.8109 833.6066,-19.6069 840.3334,-27.7924 843.9697,-21.8109"/>
</g>
<!-- Node25&#45;&gt;Node6 -->
<g id="edge42" class="edge">
<title>Node25&#45;&gt;Node6</title>
<path fill="none" stroke="#191970" d="M1110.6996,-113.1696C1107.7609,-112.7401 1104.8432,-112.345 1102,-112 859.8496,-82.6195 792.6186,-115.5557 547.2746,-75.6796"/>
<polygon fill="#191970" stroke="#191970" points="547.7814,-72.216 537.3452,-74.0421 546.6424,-79.1227 547.7814,-72.216"/>
</g>
<!-- Node25&#45;&gt;Node16 -->
<g id="edge47" class="edge">
<title>Node25&#45;&gt;Node16</title>
<path fill="none" stroke="#191970" d="M1204.4911,-112.4809C1260.3937,-100.8148 1347.3576,-81.8719 1352,-76 1357.5128,-69.0271 1357.7312,-62.7945 1352,-56 1337.3689,-38.6546 1193.988,-21.5087 1122.7514,-13.9777"/>
<polygon fill="#191970" stroke="#191970" points="1123.098,-10.4949 1112.7885,-12.9374 1122.371,-17.4571 1123.098,-10.4949"/>
</g>
<!-- Node25&#45;&gt;Node18 -->
<g id="edge56" class="edge">
<title>Node25&#45;&gt;Node18</title>
<path fill="none" stroke="#191970" d="M1110.9983,-113.2577C1107.9581,-112.8003 1104.9389,-112.3755 1102,-112 900.0315,-86.1968 844.3789,-105.4182 638.4945,-75.8676"/>
<polygon fill="#191970" stroke="#191970" points="638.9757,-72.4009 628.5757,-74.4232 637.9669,-79.3278 638.9757,-72.4009"/>
</g>
<!-- Node25&#45;&gt;Node19 -->
<g id="edge38" class="edge">
<title>Node25&#45;&gt;Node19</title>
<path fill="none" stroke="#191970" d="M1205.2523,-112.6169C1265.1004,-100.5909 1361.3139,-80.7258 1368,-76 1384.2891,-64.4866 1395.4401,-44.2525 1401.9538,-29.2141"/>
<polygon fill="#191970" stroke="#191970" points="1405.2538,-30.3882 1405.7285,-19.804 1398.7571,-27.782 1405.2538,-30.3882"/>
</g>
<!-- Node25&#45;&gt;Node22 -->
<g id="edge57" class="edge">
<title>Node25&#45;&gt;Node22</title>
<path fill="none" stroke="#191970" d="M1110.9828,-113.3717C1107.9463,-112.8864 1104.9323,-112.4242 1102,-112 1101.7211,-111.9596 850.3997,-84.0403 739.5201,-71.7231"/>
<polygon fill="#191970" stroke="#191970" points="739.8835,-68.242 729.5582,-70.6165 739.1106,-75.1992 739.8835,-68.242"/>
</g>
<!-- Node26 -->
<g id="node27" class="node">
<title>Node26</title>
<polygon fill="none" stroke="#bfbfbf" points="944,-56.5 944,-75.5 990,-75.5 990,-56.5 944,-56.5"/>
<text text-anchor="middle" x="967" y="-63.5" font-family="Helvetica,sans-Serif" font-size="10.00" fill="#000000">chrono</text>
</g>
<!-- Node25&#45;&gt;Node26 -->
<g id="edge39" class="edge">
<title>Node25&#45;&gt;Node26</title>
<path fill="none" stroke="#191970" d="M1124.13,-112.4267C1093.9128,-103.8359 1048.2256,-90.7251 999.7768,-76.1931"/>
<polygon fill="#191970" stroke="#191970" points="1000.6384,-72.7974 990.054,-73.2686 998.6221,-79.5007 1000.6384,-72.7974"/>
</g>
<!-- Node27 -->
<g id="node28" class="node">
<title>Node27</title>
<polygon fill="none" stroke="#bfbfbf" points="1008,-56.5 1008,-75.5 1048,-75.5 1048,-56.5 1008,-56.5"/>
<text text-anchor="middle" x="1028" y="-63.5" font-family="Helvetica,sans-Serif" font-size="10.00" fill="#000000">limits</text>
</g>
<!-- Node25&#45;&gt;Node27 -->
<g id="edge43" class="edge">
<title>Node25&#45;&gt;Node27</title>
<path fill="none" stroke="#191970" d="M1135.6522,-112.3733C1114.0862,-103.0833 1081.305,-88.9621 1057.5832,-78.7435"/>
<polygon fill="#191970" stroke="#191970" points="1058.9159,-75.5068 1048.3471,-74.7649 1056.1465,-81.9357 1058.9159,-75.5068"/>
</g>
<!-- Node28 -->
<g id="node29" class="node">
<title>Node28</title>
<polygon fill="none" stroke="#bfbfbf" points="1066,-56.5 1066,-75.5 1118,-75.5 1118,-56.5 1066,-56.5"/>
<text text-anchor="middle" x="1092" y="-63.5" font-family="Helvetica,sans-Serif" font-size="10.00" fill="#000000">memory</text>
</g>
<!-- Node25&#45;&gt;Node28 -->
<g id="edge44" class="edge">
<title>Node25&#45;&gt;Node28</title>
<path fill="none" stroke="#191970" d="M1146.5037,-112.2455C1136.7558,-103.9746 1122.5741,-91.9416 1111.1202,-82.2232"/>
<polygon fill="#191970" stroke="#191970" points="1113.2541,-79.4437 1103.3646,-75.6427 1108.7253,-84.7813 1113.2541,-79.4437"/>
</g>
<!-- Node29 -->
<g id="node30" class="node">
<title>Node29</title>
<polygon fill="none" stroke="#bfbfbf" points="1136,-56.5 1136,-75.5 1180,-75.5 1180,-56.5 1136,-56.5"/>
<text text-anchor="middle" x="1158" y="-63.5" font-family="Helvetica,sans-Serif" font-size="10.00" fill="#000000">mutex</text>
</g>
<!-- Node25&#45;&gt;Node29 -->
<g id="edge45" class="edge">
<title>Node25&#45;&gt;Node29</title>
<path fill="none" stroke="#191970" d="M1158,-112.2455C1158,-104.9382 1158,-94.6944 1158,-85.7046"/>
<polygon fill="#191970" stroke="#191970" points="1161.5001,-85.6426 1158,-75.6427 1154.5001,-85.6427 1161.5001,-85.6426"/>
</g>
<!-- Node30 -->
<g id="node31" class="node">
<title>Node30</title>
<polygon fill="none" stroke="#bfbfbf" points="1198.5,-56.5 1198.5,-75.5 1241.5,-75.5 1241.5,-56.5 1198.5,-56.5"/>
<text text-anchor="middle" x="1220" y="-63.5" font-family="Helvetica,sans-Serif" font-size="10.00" fill="#000000">queue</text>
</g>
<!-- Node25&#45;&gt;Node30 -->
<g id="edge46" class="edge">
<title>Node25&#45;&gt;Node30</title>
<path fill="none" stroke="#191970" d="M1168.7996,-112.2455C1177.8678,-104.0549 1191.0206,-92.1749 1201.7245,-82.5069"/>
<polygon fill="#191970" stroke="#191970" points="1204.2491,-84.9429 1209.3242,-75.6427 1199.5571,-79.7482 1204.2491,-84.9429"/>
</g>
<!-- Node31 -->
<g id="node32" class="node">
<title>Node31</title>
<polygon fill="none" stroke="#bfbfbf" points="1259.5,-56.5 1259.5,-75.5 1342.5,-75.5 1342.5,-56.5 1259.5,-56.5"/>
<text text-anchor="middle" x="1301" y="-63.5" font-family="Helvetica,sans-Serif" font-size="10.00" fill="#000000">unordered_map</text>
</g>
<!-- Node25&#45;&gt;Node31 -->
<g id="edge48" class="edge">
<title>Node25&#45;&gt;Node31</title>
<path fill="none" stroke="#191970" d="M1182.5826,-112.3733C1205.9496,-103.2226 1241.2862,-89.3844 1267.2784,-79.2057"/>
<polygon fill="#191970" stroke="#191970" points="1268.703,-82.4066 1276.7382,-75.5011 1266.1505,-75.8886 1268.703,-82.4066"/>
</g>
<!-- Node32 -->
<g id="node33" class="node">
<title>Node32</title>
<polygon fill="none" stroke="#bfbfbf" points="1513,-.5 1513,-19.5 1557,-19.5 1557,-.5 1513,-.5"/>
<text text-anchor="middle" x="1535" y="-7.5" font-family="Helvetica,sans-Serif" font-size="10.00" fill="#000000">vector</text>
</g>
<!-- Node25&#45;&gt;Node32 -->
<g id="edge49" class="edge">
<title>Node25&#45;&gt;Node32</title>
<path fill="none" stroke="#191970" d="M1205.0209,-113.3964C1208.0564,-112.9051 1211.0693,-112.4348 1214,-112 1281.291,-102.0164 1466.7797,-120.7686 1518,-76 1530.9208,-64.7067 1534.6578,-45.0264 1535.4698,-30.0866"/>
<polygon fill="#191970" stroke="#191970" points="1538.9736,-29.855 1535.6243,-19.8036 1531.9744,-29.7499 1538.9736,-29.855"/>
</g>
<!-- Node33 -->
<g id="node34" class="node">
<title>Node33</title>
<g id="a_node34"><a xlink:href="bufArray_8hpp.html" target="_top" xlink:title="bufArray.hpp">
<polygon fill="none" stroke="#000000" points="1437.5,-56.5 1437.5,-75.5 1508.5,-75.5 1508.5,-56.5 1437.5,-56.5"/>
<text text-anchor="middle" x="1473" y="-63.5" font-family="Helvetica,sans-Serif" font-size="10.00" fill="#000000">bufArray.hpp</text>
</a>
</g>
</g>
<!-- Node25&#45;&gt;Node33 -->
<g id="edge50" class="edge">
<title>Node25&#45;&gt;Node33</title>
<path fill="none" stroke="#191970" d="M1205.05,-113.5766C1208.0784,-113.0411 1211.0817,-112.5119 1214,-112 1306.8394,-95.7152 1330.334,-93.2442 1423,-76 1424.4414,-75.7318 1425.9057,-75.4564 1427.3837,-75.1759"/>
<polygon fill="#191970" stroke="#191970" points="1428.088,-78.6046 1437.2432,-73.2724 1426.761,-71.7315 1428.088,-78.6046"/>
</g>
<!-- Node35 -->
<g id="node36" class="node">
<title>Node35</title>
<g id="a_node36"><a xlink:href="spinlock_8hpp.html" target="_top" xlink:title="spinlock.hpp">
<polygon fill="none" stroke="#000000" points="1565.5,-56.5 1565.5,-75.5 1636.5,-75.5 1636.5,-56.5 1565.5,-56.5"/>
<text text-anchor="middle" x="1601" y="-63.5" font-family="Helvetica,sans-Serif" font-size="10.00" fill="#000000">spinlock.hpp</text>
</a>
</g>
</g>
<!-- Node25&#45;&gt;Node35 -->
<g id="edge58" class="edge">
<title>Node25&#45;&gt;Node35</title>
<path fill="none" stroke="#191970" d="M1205.0152,-113.3572C1208.0521,-112.8754 1211.0668,-112.418 1214,-112 1363.1231,-90.7472 1402.1047,-98.7941 1551,-76 1552.4493,-75.7781 1553.9204,-75.5431 1555.4043,-75.2976"/>
<polygon fill="#191970" stroke="#191970" points="1556.0514,-78.7375 1565.2906,-73.5523 1554.8344,-71.8441 1556.0514,-78.7375"/>
</g>
<!-- Node33&#45;&gt;Node5 -->
<g id="edge52" class="edge">
<title>Node33&#45;&gt;Node5</title>
<path fill="none" stroke="#191970" d="M1437.3192,-62.9494C1322.3635,-53.1212 962.703,-22.3716 851.2604,-12.8436"/>
<polygon fill="#191970" stroke="#191970" points="851.5288,-9.3539 841.267,-11.9892 850.9325,-16.3285 851.5288,-9.3539"/>
</g>
<!-- Node33&#45;&gt;Node16 -->
<g id="edge53" class="edge">
<title>Node33&#45;&gt;Node16</title>
<path fill="none" stroke="#191970" d="M1437.3562,-60.8819C1364.5317,-50.4251 1199.1288,-26.6749 1122.8702,-15.725"/>
<polygon fill="#191970" stroke="#191970" points="1123.1163,-12.2245 1112.7203,-14.2675 1122.1213,-19.1534 1123.1163,-12.2245"/>
</g>
<!-- Node33&#45;&gt;Node19 -->
<g id="edge51" class="edge">
<title>Node33&#45;&gt;Node19</title>
<path fill="none" stroke="#191970" d="M1461.8521,-56.2455C1452.4913,-48.0549 1438.9142,-36.1749 1427.8651,-26.5069"/>
<polygon fill="#191970" stroke="#191970" points="1429.8508,-23.5937 1420.0202,-19.6427 1425.2412,-28.8618 1429.8508,-23.5937"/>
</g>
<!-- Node33&#45;&gt;Node32 -->
<g id="edge55" class="edge">
<title>Node33&#45;&gt;Node32</title>
<path fill="none" stroke="#191970" d="M1483.7996,-56.2455C1492.8678,-48.0549 1506.0206,-36.1749 1516.7245,-26.5069"/>
<polygon fill="#191970" stroke="#191970" points="1519.2491,-28.9429 1524.3242,-19.6427 1514.5571,-23.7482 1519.2491,-28.9429"/>
</g>
<!-- Node34 -->
<g id="node35" class="node">
<title>Node34</title>
<polygon fill="none" stroke="#bfbfbf" points="1453,-.5 1453,-19.5 1493,-19.5 1493,-.5 1453,-.5"/>
<text text-anchor="middle" x="1473" y="-7.5" font-family="Helvetica,sans-Serif" font-size="10.00" fill="#000000">utility</text>
</g>
<!-- Node33&#45;&gt;Node34 -->
<g id="edge54" class="edge">
<title>Node33&#45;&gt;Node34</title>
<path fill="none" stroke="#191970" d="M1473,-56.2455C1473,-48.9382 1473,-38.6944 1473,-29.7046"/>
<polygon fill="#191970" stroke="#191970" points="1476.5001,-29.6426 1473,-19.6427 1469.5001,-29.6427 1476.5001,-29.6426"/>
</g>
<!-- Node36 -->
<g id="node37" class="node">
<title>Node36</title>
<polygon fill="none" stroke="#bfbfbf" points="1578,-.5 1578,-19.5 1624,-19.5 1624,-.5 1578,-.5"/>
<text text-anchor="middle" x="1601" y="-7.5" font-family="Helvetica,sans-Serif" font-size="10.00" fill="#000000">atomic</text>
</g>
<!-- Node35&#45;&gt;Node36 -->
<g id="edge59" class="edge">
<title>Node35&#45;&gt;Node36</title>
<path fill="none" stroke="#191970" d="M1601,-56.2455C1601,-48.9382 1601,-38.6944 1601,-29.7046"/>
<polygon fill="#191970" stroke="#191970" points="1604.5001,-29.6426 1601,-19.6427 1597.5001,-29.6427 1604.5001,-29.6426"/>
</g>
</g>
</svg>
