<?xml version="1.0" encoding="UTF-8" standalone="no"?>
<!DOCTYPE svg PUBLIC "-//W3C//DTD SVG 1.1//EN"
 "http://www.w3.org/Graphics/SVG/1.1/DTD/svg11.dtd">
<!-- Generated by graphviz version 2.40.1 (20161225.0304)
 -->
<!-- Title: /home/dominik/uni/MoonState/include/dtls_record.hpp Pages: 1 -->
<svg width="281pt" height="207pt"
 viewBox="0.00 0.00 281.00 207.00" xmlns="http://www.w3.org/2000/svg" xmlns:xlink="http://www.w3.org/1999/xlink">
<g id="graph0" class="graph" transform="scale(1 1) rotate(0) translate(4 203)">
<title>/home/dominik/uni/MoonState/include/dtls_record.hpp</title>
<!-- Node0 -->
<g id="node1" class="node">
<title>Node0</title>
<polygon fill="#bfbfbf" stroke="#000000" points="100.5,-168.5 100.5,-198.5 247.5,-198.5 247.5,-168.5 100.5,-168.5"/>
<text text-anchor="start" x="108.5" y="-186.5" font-family="Helvetica,sans-Serif" font-size="10.00" fill="#000000">/home/dominik/uni/MoonState</text>
<text text-anchor="middle" x="174" y="-175.5" font-family="Helvetica,sans-Serif" font-size="10.00" fill="#000000">/include/dtls_record.hpp</text>
</g>
<!-- Node1 -->
<g id="node2" class="node">
<title>Node1</title>
<g id="a_node2"><a xlink:href="dtls_8hpp.html" target="_top" xlink:title="dtls.hpp">
<polygon fill="none" stroke="#000000" points="148.5,-112.5 148.5,-131.5 199.5,-131.5 199.5,-112.5 148.5,-112.5"/>
<text text-anchor="middle" x="174" y="-119.5" font-family="Helvetica,sans-Serif" font-size="10.00" fill="#000000">dtls.hpp</text>
</a>
</g>
</g>
<!-- Node0&#45;&gt;Node1 -->
<g id="edge1" class="edge">
<title>Node0&#45;&gt;Node1</title>
<path fill="none" stroke="#191970" d="M168.0843,-168.2977C167.1446,-160.2945 166.9987,-150.3843 167.6466,-141.7889"/>
<polygon fill="#191970" stroke="#191970" points="171.1218,-142.2044 168.8917,-131.8469 164.176,-141.3345 171.1218,-142.2044"/>
</g>
<!-- Node1&#45;&gt;Node0 -->
<g id="edge8" class="edge">
<title>Node1&#45;&gt;Node0</title>
<path fill="none" stroke="#191970" d="M179.1083,-131.8469C180.4704,-138.9883 180.9849,-148.9858 180.6519,-158.2849"/>
<polygon fill="#191970" stroke="#191970" points="177.1584,-158.068 179.9157,-168.2977 184.1396,-158.5813 177.1584,-158.068"/>
</g>
<!-- Node2 -->
<g id="node3" class="node">
<title>Node2</title>
<g id="a_node3"><a xlink:href="common_8hpp.html" target="_top" xlink:title="common.hpp">
<polygon fill="none" stroke="#000000" points="13.5,-56.5 13.5,-75.5 86.5,-75.5 86.5,-56.5 13.5,-56.5"/>
<text text-anchor="middle" x="50" y="-63.5" font-family="Helvetica,sans-Serif" font-size="10.00" fill="#000000">common.hpp</text>
</a>
</g>
</g>
<!-- Node1&#45;&gt;Node2 -->
<g id="edge2" class="edge">
<title>Node1&#45;&gt;Node2</title>
<path fill="none" stroke="#191970" d="M152.6836,-112.3733C132.7784,-103.3838 102.8564,-89.8706 80.44,-79.7471"/>
<polygon fill="#191970" stroke="#191970" points="81.5925,-76.4272 71.0382,-75.5011 78.7113,-82.8068 81.5925,-76.4272"/>
</g>
<!-- Node5 -->
<g id="node6" class="node">
<title>Node5</title>
<polygon fill="none" stroke="#bfbfbf" points="105,-56.5 105,-75.5 151,-75.5 151,-56.5 105,-56.5"/>
<text text-anchor="middle" x="128" y="-63.5" font-family="Helvetica,sans-Serif" font-size="10.00" fill="#000000">cstdint</text>
</g>
<!-- Node1&#45;&gt;Node5 -->
<g id="edge5" class="edge">
<title>Node1&#45;&gt;Node5</title>
<path fill="none" stroke="#191970" d="M165.9874,-112.2455C159.5232,-104.3761 150.2615,-93.101 142.5017,-83.6542"/>
<polygon fill="#191970" stroke="#191970" points="144.9727,-81.1484 135.9208,-75.6427 139.5636,-85.5916 144.9727,-81.1484"/>
</g>
<!-- Node6 -->
<g id="node7" class="node">
<title>Node6</title>
<g id="a_node7"><a xlink:href="dtls__handshake_8hpp.html" target="_top" xlink:title="dtls_handshake.hpp">
<polygon fill="none" stroke="#000000" points="169,-56.5 169,-75.5 273,-75.5 273,-56.5 169,-56.5"/>
<text text-anchor="middle" x="221" y="-63.5" font-family="Helvetica,sans-Serif" font-size="10.00" fill="#000000">dtls_handshake.hpp</text>
</a>
</g>
</g>
<!-- Node1&#45;&gt;Node6 -->
<g id="edge6" class="edge">
<title>Node1&#45;&gt;Node6</title>
<path fill="none" stroke="#191970" d="M176.9199,-112.2455C182.1607,-104.1352 191.6778,-92.4075 200.6624,-82.7919"/>
<polygon fill="#191970" stroke="#191970" points="203.167,-85.2368 207.6619,-75.6427 198.1651,-80.3397 203.167,-85.2368"/>
</g>
<!-- Node3 -->
<g id="node4" class="node">
<title>Node3</title>
<polygon fill="none" stroke="#bfbfbf" points="0,-.5 0,-19.5 38,-19.5 38,-.5 0,-.5"/>
<text text-anchor="middle" x="19" y="-7.5" font-family="Helvetica,sans-Serif" font-size="10.00" fill="#000000">array</text>
</g>
<!-- Node2&#45;&gt;Node3 -->
<g id="edge3" class="edge">
<title>Node2&#45;&gt;Node3</title>
<path fill="none" stroke="#191970" d="M44.6002,-56.2455C40.3773,-48.617 34.3827,-37.7881 29.2559,-28.5267"/>
<polygon fill="#191970" stroke="#191970" points="32.2432,-26.6965 24.3379,-19.6427 26.119,-30.0867 32.2432,-26.6965"/>
</g>
<!-- Node4 -->
<g id="node5" class="node">
<title>Node4</title>
<polygon fill="none" stroke="#bfbfbf" points="56.5,-.5 56.5,-19.5 105.5,-19.5 105.5,-.5 56.5,-.5"/>
<text text-anchor="middle" x="81" y="-7.5" font-family="Helvetica,sans-Serif" font-size="10.00" fill="#000000">cassert</text>
</g>
<!-- Node2&#45;&gt;Node4 -->
<g id="edge4" class="edge">
<title>Node2&#45;&gt;Node4</title>
<path fill="none" stroke="#191970" d="M55.3998,-56.2455C59.6227,-48.617 65.6173,-37.7881 70.7441,-28.5267"/>
<polygon fill="#191970" stroke="#191970" points="73.881,-30.0867 75.6621,-19.6427 67.7568,-26.6965 73.881,-30.0867"/>
</g>
<!-- Node6&#45;&gt;Node1 -->
<g id="edge7" class="edge">
<title>Node6&#45;&gt;Node1</title>
<path fill="none" stroke="#191970" d="M218.1522,-75.6427C212.9509,-83.7196 203.4511,-95.4402 194.4617,-105.0751"/>
<polygon fill="#191970" stroke="#191970" points="191.9403,-102.6476 187.4536,-112.2455 196.9464,-107.5404 191.9403,-102.6476"/>
</g>
</g>
</svg>
