<?xml version="1.0" encoding="UTF-8" standalone="no"?>
<!DOCTYPE svg PUBLIC "-//W3C//DTD SVG 1.1//EN"
 "http://www.w3.org/Graphics/SVG/1.1/DTD/svg11.dtd">
<!-- Generated by graphviz version 2.40.1 (20161225.0304)
 -->
<!-- Title: DtlsClient_connect Pages: 1 -->
<svg width="452pt" height="104pt"
 viewBox="0.00 0.00 452.00 104.00" xmlns="http://www.w3.org/2000/svg" xmlns:xlink="http://www.w3.org/1999/xlink">
<g id="graph0" class="graph" transform="scale(1 1) rotate(0) translate(4 100)">
<title>DtlsClient_connect</title>
<!-- Node0 -->
<g id="node1" class="node">
<title>Node0</title>
<polygon fill="#bfbfbf" stroke="#000000" points="0,-38.5 0,-57.5 100,-57.5 100,-38.5 0,-38.5"/>
<text text-anchor="middle" x="50" y="-45.5" font-family="Helvetica,sans-Serif" font-size="10.00" fill="#000000">DtlsClient_connect</text>
</g>
<!-- Node1 -->
<g id="node2" class="node">
<title>Node1</title>
<g id="a_node2"><a xlink:href="namespaceDTLS__Client.html#ab06ed37ed603b190705ce91aac81e75c" target="_top" xlink:title="Create the state of the client. ">
<polygon fill="none" stroke="#000000" points="136,-76.5 136,-95.5 285,-95.5 285,-76.5 136,-76.5"/>
<text text-anchor="middle" x="210.5" y="-83.5" font-family="Helvetica,sans-Serif" font-size="10.00" fill="#000000">DTLS_Client::createStateData</text>
</a>
</g>
</g>
<!-- Node0&#45;&gt;Node1 -->
<g id="edge1" class="edge">
<title>Node0&#45;&gt;Node1</title>
<path fill="none" stroke="#191970" d="M90.5009,-57.589C111.6806,-62.6035 137.8022,-68.7881 160.2604,-74.1053"/>
<polygon fill="#191970" stroke="#191970" points="159.7529,-77.5818 170.2903,-76.4799 161.3657,-70.7701 159.7529,-77.5818"/>
</g>
<!-- Node2 -->
<g id="node3" class="node">
<title>Node2</title>
<g id="a_node3"><a xlink:href="classBufArray.html#a1d52cd9f63feaa98f800bcae8277e675" target="_top" xlink:title="Get the number of packets currently marked as send. ">
<polygon fill="none" stroke="#000000" points="321,-19.5 321,-38.5 444,-38.5 444,-19.5 321,-19.5"/>
<text text-anchor="middle" x="382.5" y="-26.5" font-family="Helvetica,sans-Serif" font-size="10.00" fill="#000000">BufArray::getSendCount</text>
</a>
</g>
</g>
<!-- Node0&#45;&gt;Node2 -->
<g id="edge2" class="edge">
<title>Node0&#45;&gt;Node2</title>
<path fill="none" stroke="#191970" d="M100.1386,-45.1349C156.0767,-41.9385 247.0436,-36.7404 310.5628,-33.1107"/>
<polygon fill="#191970" stroke="#191970" points="311.1211,-36.5846 320.9051,-32.5197 310.7217,-29.596 311.1211,-36.5846"/>
</g>
<!-- Node3 -->
<g id="node4" class="node">
<title>Node3</title>
<g id="a_node4"><a xlink:href="classBufArray.html#a77223130b4dca30992a335dbff4b4781" target="_top" xlink:title="Get the number of packets currently marked as free. ">
<polygon fill="none" stroke="#000000" points="150.5,-.5 150.5,-19.5 270.5,-19.5 270.5,-.5 150.5,-.5"/>
<text text-anchor="middle" x="210.5" y="-7.5" font-family="Helvetica,sans-Serif" font-size="10.00" fill="#000000">BufArray::getFreeCount</text>
</a>
</g>
</g>
<!-- Node0&#45;&gt;Node3 -->
<g id="edge3" class="edge">
<title>Node0&#45;&gt;Node3</title>
<path fill="none" stroke="#191970" d="M90.5009,-38.411C111.6806,-33.3965 137.8022,-27.2119 160.2604,-21.8947"/>
<polygon fill="#191970" stroke="#191970" points="161.3657,-25.2299 170.2903,-19.5201 159.7529,-18.4182 161.3657,-25.2299"/>
</g>
<!-- Node3&#45;&gt;Node2 -->
<g id="edge4" class="edge">
<title>Node3&#45;&gt;Node2</title>
<path fill="none" stroke="#191970" d="M270.6573,-16.6453C283.6263,-18.0779 297.4598,-19.606 310.819,-21.0818"/>
<polygon fill="#191970" stroke="#191970" points="310.5963,-24.5784 320.9202,-22.1976 311.365,-17.6207 310.5963,-24.5784"/>
</g>
</g>
</svg>
