<?xml version="1.0" encoding="UTF-8" standalone="no"?>
<!DOCTYPE svg PUBLIC "-//W3C//DTD SVG 1.1//EN"
 "http://www.w3.org/Graphics/SVG/1.1/DTD/svg11.dtd">
<!-- Generated by graphviz version 2.40.1 (20161225.0304)
 -->
<!-- Title: DtlsClient_init Pages: 1 -->
<svg width="250pt" height="78pt"
 viewBox="0.00 0.00 250.00 77.50" xmlns="http://www.w3.org/2000/svg" xmlns:xlink="http://www.w3.org/1999/xlink">
<g id="graph0" class="graph" transform="scale(1 1) rotate(0) translate(4 73.5)">
<title>DtlsClient_init</title>
<!-- Node10 -->
<g id="node1" class="node">
<title>Node10</title>
<polygon fill="#bfbfbf" stroke="#000000" points="0,-22.5 0,-41.5 78,-41.5 78,-22.5 0,-22.5"/>
<text text-anchor="middle" x="39" y="-29.5" font-family="Helvetica,sans-Serif" font-size="10.00" fill="#000000">DtlsClient_init</text>
</g>
<!-- Node11 -->
<g id="node2" class="node">
<title>Node11</title>
<g id="a_node2"><a xlink:href="namespaceDTLS__Client.html#a2672d587e869ae9e5a3132282b552084" target="_top" xlink:title="Configure the state machine. ">
<polygon fill="none" stroke="#000000" points="114,-39 114,-69 242,-69 242,-39 114,-39"/>
<text text-anchor="start" x="122" y="-57" font-family="Helvetica,sans-Serif" font-size="10.00" fill="#000000">DTLS_Client::configState</text>
<text text-anchor="middle" x="178" y="-46" font-family="Helvetica,sans-Serif" font-size="10.00" fill="#000000">Machine</text>
</a>
</g>
</g>
<!-- Node10&#45;&gt;Node11 -->
<g id="edge1" class="edge">
<title>Node10&#45;&gt;Node11</title>
<path fill="none" stroke="#191970" d="M78.0892,-38.1868C86.1987,-39.4703 94.9963,-40.8627 103.895,-42.2711"/>
<polygon fill="#191970" stroke="#191970" points="103.5294,-45.7568 113.9536,-43.8632 104.6237,-38.8428 103.5294,-45.7568"/>
</g>
<!-- Node12 -->
<g id="node3" class="node">
<title>Node12</title>
<g id="a_node3"><a xlink:href="namespaceDTLS__Client.html#ac35a43b440c9b4a494132f474389bffe" target="_top" xlink:title="Use this to create the SSL context for creaeteStateData() ">
<polygon fill="none" stroke="#000000" points="115.5,-.5 115.5,-19.5 240.5,-19.5 240.5,-.5 115.5,-.5"/>
<text text-anchor="middle" x="178" y="-7.5" font-family="Helvetica,sans-Serif" font-size="10.00" fill="#000000">DTLS_Client::createCTX</text>
</a>
</g>
</g>
<!-- Node10&#45;&gt;Node12 -->
<g id="edge2" class="edge">
<title>Node10&#45;&gt;Node12</title>
<path fill="none" stroke="#191970" d="M78.0892,-25.8132C87.3636,-24.3453 97.5381,-22.735 107.7345,-21.1212"/>
<polygon fill="#191970" stroke="#191970" points="108.5758,-24.5317 117.9057,-19.5113 107.4815,-17.6177 108.5758,-24.5317"/>
</g>
</g>
</svg>
