<?xml version="1.0" encoding="UTF-8" standalone="no"?>
<!DOCTYPE svg PUBLIC "-//W3C//DTD SVG 1.1//EN"
 "http://www.w3.org/Graphics/SVG/1.1/DTD/svg11.dtd">
<!-- Generated by graphviz version 2.40.1 (20161225.0304)
 -->
<!-- Title: DtlsClient_getPkts Pages: 1 -->
<svg width="572pt" height="66pt"
 viewBox="0.00 0.00 572.00 66.00" xmlns="http://www.w3.org/2000/svg" xmlns:xlink="http://www.w3.org/1999/xlink">
<g id="graph0" class="graph" transform="scale(1 1) rotate(0) translate(4 62)">
<title>DtlsClient_getPkts</title>
<!-- Node5 -->
<g id="node1" class="node">
<title>Node5</title>
<polygon fill="#bfbfbf" stroke="#000000" points="0,-19.5 0,-38.5 99,-38.5 99,-19.5 0,-19.5"/>
<text text-anchor="middle" x="49.5" y="-26.5" font-family="Helvetica,sans-Serif" font-size="10.00" fill="#000000">DtlsClient_getPkts</text>
</g>
<!-- Node6 -->
<g id="node2" class="node">
<title>Node6</title>
<g id="a_node2"><a xlink:href="classBufArray.html#a65ec6fb832e58b88b2be695c4d30a437" target="_top" xlink:title="Get all the packets which are to be sent. ">
<polygon fill="none" stroke="#000000" points="286.5,-38.5 286.5,-57.5 403.5,-57.5 403.5,-38.5 286.5,-38.5"/>
<text text-anchor="middle" x="345" y="-45.5" font-family="Helvetica,sans-Serif" font-size="10.00" fill="#000000">BufArray::getSendBufs</text>
</a>
</g>
</g>
<!-- Node5&#45;&gt;Node6 -->
<g id="edge1" class="edge">
<title>Node5&#45;&gt;Node6</title>
<path fill="none" stroke="#191970" d="M99.2934,-32.2016C147.8139,-35.3214 221.9861,-40.0905 276.1453,-43.5728"/>
<polygon fill="#191970" stroke="#191970" points="276.1512,-47.0803 286.3552,-44.2293 276.6004,-40.0947 276.1512,-47.0803"/>
</g>
<!-- Node8 -->
<g id="node4" class="node">
<title>Node8</title>
<g id="a_node4"><a xlink:href="classBufArray.html#a81ad0c7cdb324569ecfb42e735e653c9" target="_top" xlink:title="Get all the packets which are to be freed. ">
<polygon fill="none" stroke="#000000" points="135,-.5 135,-19.5 249,-19.5 249,-.5 135,-.5"/>
<text text-anchor="middle" x="192" y="-7.5" font-family="Helvetica,sans-Serif" font-size="10.00" fill="#000000">BufArray::getFreeBufs</text>
</a>
</g>
</g>
<!-- Node5&#45;&gt;Node8 -->
<g id="edge3" class="edge">
<title>Node5&#45;&gt;Node8</title>
<path fill="none" stroke="#191970" d="M99.3396,-22.3547C107.5311,-21.2625 116.1388,-20.1148 124.6713,-18.9772"/>
<polygon fill="#191970" stroke="#191970" points="125.174,-22.4412 134.6237,-17.6502 124.2488,-15.5026 125.174,-22.4412"/>
</g>
<!-- Node7 -->
<g id="node3" class="node">
<title>Node7</title>
<g id="a_node3"><a xlink:href="classBufArray.html#a1d52cd9f63feaa98f800bcae8277e675" target="_top" xlink:title="Get the number of packets currently marked as send. ">
<polygon fill="none" stroke="#000000" points="441,-19.5 441,-38.5 564,-38.5 564,-19.5 441,-19.5"/>
<text text-anchor="middle" x="502.5" y="-26.5" font-family="Helvetica,sans-Serif" font-size="10.00" fill="#000000">BufArray::getSendCount</text>
</a>
</g>
</g>
<!-- Node6&#45;&gt;Node7 -->
<g id="edge2" class="edge">
<title>Node6&#45;&gt;Node7</title>
<path fill="none" stroke="#191970" d="M403.6472,-40.9251C412.48,-39.8596 421.6743,-38.7504 430.744,-37.6563"/>
<polygon fill="#191970" stroke="#191970" points="431.3962,-41.1031 440.905,-36.4305 430.5578,-34.1535 431.3962,-41.1031"/>
</g>
<!-- Node9 -->
<g id="node5" class="node">
<title>Node9</title>
<g id="a_node5"><a xlink:href="classBufArray.html#a77223130b4dca30992a335dbff4b4781" target="_top" xlink:title="Get the number of packets currently marked as free. ">
<polygon fill="none" stroke="#000000" points="285,-.5 285,-19.5 405,-19.5 405,-.5 285,-.5"/>
<text text-anchor="middle" x="345" y="-7.5" font-family="Helvetica,sans-Serif" font-size="10.00" fill="#000000">BufArray::getFreeCount</text>
</a>
</g>
</g>
<!-- Node8&#45;&gt;Node9 -->
<g id="edge4" class="edge">
<title>Node8&#45;&gt;Node9</title>
<path fill="none" stroke="#191970" d="M249.4069,-10C257.6656,-10 266.2416,-10 274.7151,-10"/>
<polygon fill="#191970" stroke="#191970" points="274.9721,-13.5001 284.972,-10 274.972,-6.5001 274.9721,-13.5001"/>
</g>
<!-- Node9&#45;&gt;Node7 -->
<g id="edge5" class="edge">
<title>Node9&#45;&gt;Node7</title>
<path fill="none" stroke="#191970" d="M405.4432,-17.2916C413.7983,-18.2995 422.4444,-19.3425 430.9764,-20.3718"/>
<polygon fill="#191970" stroke="#191970" points="430.5684,-23.8478 440.9156,-21.5708 431.4068,-16.8982 430.5684,-23.8478"/>
</g>
</g>
</svg>
