<?xml version="1.0" encoding="UTF-8" standalone="no"?>
<!DOCTYPE svg PUBLIC "-//W3C//DTD SVG 1.1//EN"
 "http://www.w3.org/Graphics/SVG/1.1/DTD/svg11.dtd">
<!-- Generated by graphviz version 2.40.1 (20161225.0304)
 -->
<!-- Title: /home/dominik/uni/MoonState/include/dtlsClient.hpp Pages: 1 -->
<svg width="1560pt" height="207pt"
 viewBox="0.00 0.00 1560.00 207.00" xmlns="http://www.w3.org/2000/svg" xmlns:xlink="http://www.w3.org/1999/xlink">
<g id="graph0" class="graph" transform="scale(1 1) rotate(0) translate(4 203)">
<title>/home/dominik/uni/MoonState/include/dtlsClient.hpp</title>
<!-- Node0 -->
<g id="node1" class="node">
<title>Node0</title>
<polygon fill="#bfbfbf" stroke="#000000" points="848,-168.5 848,-198.5 995,-198.5 995,-168.5 848,-168.5"/>
<text text-anchor="start" x="856" y="-186.5" font-family="Helvetica,sans-Serif" font-size="10.00" fill="#000000">/home/dominik/uni/MoonState</text>
<text text-anchor="middle" x="921.5" y="-175.5" font-family="Helvetica,sans-Serif" font-size="10.00" fill="#000000">/include/dtlsClient.hpp</text>
</g>
<!-- Node1 -->
<g id="node2" class="node">
<title>Node1</title>
<polygon fill="none" stroke="#bfbfbf" points="312.5,-.5 312.5,-19.5 350.5,-19.5 350.5,-.5 312.5,-.5"/>
<text text-anchor="middle" x="331.5" y="-7.5" font-family="Helvetica,sans-Serif" font-size="10.00" fill="#000000">array</text>
</g>
<!-- Node0&#45;&gt;Node1 -->
<g id="edge1" class="edge">
<title>Node0&#45;&gt;Node1</title>
<path fill="none" stroke="#191970" d="M847.9865,-180.325C681.9544,-172.7986 290.8368,-152.9294 271.5,-132 242.1974,-100.2839 285.4154,-51.5951 312.4695,-26.3881"/>
<polygon fill="#191970" stroke="#191970" points="314.8531,-28.9515 319.9234,-19.6487 310.1584,-23.7592 314.8531,-28.9515"/>
</g>
<!-- Node2 -->
<g id="node3" class="node">
<title>Node2</title>
<polygon fill="none" stroke="#bfbfbf" points="368.5,-.5 368.5,-19.5 414.5,-19.5 414.5,-.5 368.5,-.5"/>
<text text-anchor="middle" x="391.5" y="-7.5" font-family="Helvetica,sans-Serif" font-size="10.00" fill="#000000">cstdint</text>
</g>
<!-- Node0&#45;&gt;Node2 -->
<g id="edge2" class="edge">
<title>Node0&#45;&gt;Node2</title>
<path fill="none" stroke="#191970" d="M847.7762,-181.806C708.0818,-177.8302 415.9884,-165.5582 385.5,-132 360.0705,-104.0101 372.9806,-55.8157 383.1554,-29.1474"/>
<polygon fill="#191970" stroke="#191970" points="386.4467,-30.3449 386.9667,-19.7628 379.9611,-27.7109 386.4467,-30.3449"/>
</g>
<!-- Node3 -->
<g id="node4" class="node">
<title>Node3</title>
<polygon fill="none" stroke="#bfbfbf" points="648.5,-56.5 648.5,-75.5 702.5,-75.5 702.5,-56.5 648.5,-56.5"/>
<text text-anchor="middle" x="675.5" y="-63.5" font-family="Helvetica,sans-Serif" font-size="10.00" fill="#000000">iostream</text>
</g>
<!-- Node0&#45;&gt;Node3 -->
<g id="edge3" class="edge">
<title>Node0&#45;&gt;Node3</title>
<path fill="none" stroke="#191970" d="M890.0941,-168.4992C842.207,-145.6263 751.588,-102.3429 704.9166,-80.0506"/>
<polygon fill="#191970" stroke="#191970" points="706.1877,-76.779 695.6557,-75.6272 703.1707,-83.0955 706.1877,-76.779"/>
</g>
<!-- Node4 -->
<g id="node5" class="node">
<title>Node4</title>
<polygon fill="none" stroke="#bfbfbf" points="935.5,-112.5 935.5,-131.5 1009.5,-131.5 1009.5,-112.5 935.5,-112.5"/>
<text text-anchor="middle" x="972.5" y="-119.5" font-family="Helvetica,sans-Serif" font-size="10.00" fill="#000000">openssl/bio.h</text>
</g>
<!-- Node0&#45;&gt;Node4 -->
<g id="edge4" class="edge">
<title>Node0&#45;&gt;Node4</title>
<path fill="none" stroke="#191970" d="M934.1067,-168.2977C941.2598,-159.672 950.2497,-148.8312 957.7318,-139.8087"/>
<polygon fill="#191970" stroke="#191970" points="960.645,-141.7787 964.3343,-131.8469 955.2567,-137.3103 960.645,-141.7787"/>
</g>
<!-- Node5 -->
<g id="node6" class="node">
<title>Node5</title>
<polygon fill="none" stroke="#bfbfbf" points="1027.5,-112.5 1027.5,-131.5 1107.5,-131.5 1107.5,-112.5 1027.5,-112.5"/>
<text text-anchor="middle" x="1067.5" y="-119.5" font-family="Helvetica,sans-Serif" font-size="10.00" fill="#000000">openssl/conf.h</text>
</g>
<!-- Node0&#45;&gt;Node5 -->
<g id="edge5" class="edge">
<title>Node0&#45;&gt;Node5</title>
<path fill="none" stroke="#191970" d="M957.2156,-168.4554C981.1487,-158.374 1012.3905,-145.2139 1035.5094,-135.4755"/>
<polygon fill="#191970" stroke="#191970" points="1037.0181,-138.6379 1044.8752,-131.5303 1034.3007,-132.1868 1037.0181,-138.6379"/>
</g>
<!-- Node6 -->
<g id="node7" class="node">
<title>Node6</title>
<polygon fill="none" stroke="#bfbfbf" points="1125.5,-112.5 1125.5,-131.5 1197.5,-131.5 1197.5,-112.5 1125.5,-112.5"/>
<text text-anchor="middle" x="1161.5" y="-119.5" font-family="Helvetica,sans-Serif" font-size="10.00" fill="#000000">openssl/dh.h</text>
</g>
<!-- Node0&#45;&gt;Node6 -->
<g id="edge6" class="edge">
<title>Node0&#45;&gt;Node6</title>
<path fill="none" stroke="#191970" d="M980.2106,-168.4554C1021.8668,-157.781 1076.9923,-143.6551 1115.4752,-133.7939"/>
<polygon fill="#191970" stroke="#191970" points="1116.5535,-137.1307 1125.3717,-131.2579 1114.8159,-130.3498 1116.5535,-137.1307"/>
</g>
<!-- Node7 -->
<g id="node8" class="node">
<title>Node7</title>
<polygon fill="none" stroke="#bfbfbf" points="1215.5,-112.5 1215.5,-131.5 1305.5,-131.5 1305.5,-112.5 1215.5,-112.5"/>
<text text-anchor="middle" x="1260.5" y="-119.5" font-family="Helvetica,sans-Serif" font-size="10.00" fill="#000000">openssl/engine.h</text>
</g>
<!-- Node0&#45;&gt;Node7 -->
<g id="edge7" class="edge">
<title>Node0&#45;&gt;Node7</title>
<path fill="none" stroke="#191970" d="M995.0319,-170.303C1050.2324,-160.3751 1127.9691,-146.3498 1205.4792,-132.1814"/>
<polygon fill="#191970" stroke="#191970" points="1206.2144,-135.6051 1215.4215,-130.363 1204.9549,-128.7193 1206.2144,-135.6051"/>
</g>
<!-- Node8 -->
<g id="node9" class="node">
<title>Node8</title>
<polygon fill="none" stroke="#bfbfbf" points="1323.5,-112.5 1323.5,-131.5 1395.5,-131.5 1395.5,-112.5 1323.5,-112.5"/>
<text text-anchor="middle" x="1359.5" y="-119.5" font-family="Helvetica,sans-Serif" font-size="10.00" fill="#000000">openssl/err.h</text>
</g>
<!-- Node0&#45;&gt;Node8 -->
<g id="edge8" class="edge">
<title>Node0&#45;&gt;Node8</title>
<path fill="none" stroke="#191970" d="M995.3149,-175.7977C1072.2773,-167.3209 1196.5831,-152.3782 1313.0441,-132.1375"/>
<polygon fill="#191970" stroke="#191970" points="1313.9613,-135.5301 1323.2058,-130.3542 1312.7513,-128.6355 1313.9613,-135.5301"/>
</g>
<!-- Node9 -->
<g id="node10" class="node">
<title>Node9</title>
<polygon fill="none" stroke="#bfbfbf" points="1413.5,-112.5 1413.5,-131.5 1487.5,-131.5 1487.5,-112.5 1413.5,-112.5"/>
<text text-anchor="middle" x="1450.5" y="-119.5" font-family="Helvetica,sans-Serif" font-size="10.00" fill="#000000">openssl/ssl.h</text>
</g>
<!-- Node0&#45;&gt;Node9 -->
<g id="edge9" class="edge">
<title>Node0&#45;&gt;Node9</title>
<path fill="none" stroke="#191970" d="M995.0634,-178.1383C1088.0015,-170.8092 1252.9889,-155.953 1403.5152,-132.013"/>
<polygon fill="#191970" stroke="#191970" points="1404.0905,-135.4655 1413.4083,-130.4229 1402.9796,-128.5542 1404.0905,-135.4655"/>
</g>
<!-- Node10 -->
<g id="node11" class="node">
<title>Node10</title>
<g id="a_node11"><a xlink:href="IPv4__5TupleL2Ident_8hpp.html" target="_top" xlink:title="IPv4_5TupleL2Ident.hpp">
<polygon fill="none" stroke="#000000" points="394.5,-112.5 394.5,-131.5 516.5,-131.5 516.5,-112.5 394.5,-112.5"/>
<text text-anchor="middle" x="455.5" y="-119.5" font-family="Helvetica,sans-Serif" font-size="10.00" fill="#000000">IPv4_5TupleL2Ident.hpp</text>
</a>
</g>
</g>
<!-- Node0&#45;&gt;Node10 -->
<g id="edge10" class="edge">
<title>Node0&#45;&gt;Node10</title>
<path fill="none" stroke="#191970" d="M847.9181,-173.7891C759.9665,-162.1817 613.794,-142.8907 526.8442,-131.4156"/>
<polygon fill="#191970" stroke="#191970" points="527.1739,-127.9288 516.8019,-130.0903 526.258,-134.8687 527.1739,-127.9288"/>
</g>
<!-- Node22 -->
<g id="node23" class="node">
<title>Node22</title>
<g id="a_node23"><a xlink:href="mbuf_8hpp.html" target="_top" xlink:title="mbuf.hpp">
<polygon fill="none" stroke="#000000" points="281,-112.5 281,-131.5 338,-131.5 338,-112.5 281,-112.5"/>
<text text-anchor="middle" x="309.5" y="-119.5" font-family="Helvetica,sans-Serif" font-size="10.00" fill="#000000">mbuf.hpp</text>
</a>
</g>
</g>
<!-- Node0&#45;&gt;Node22 -->
<g id="edge31" class="edge">
<title>Node0&#45;&gt;Node22</title>
<path fill="none" stroke="#191970" d="M847.8915,-180.0942C739.0516,-174.3236 529.0213,-160.3747 352.5,-132 351.0338,-131.7643 349.5433,-131.507 348.0404,-131.2328"/>
<polygon fill="#191970" stroke="#191970" points="348.5663,-127.7685 338.0721,-129.2252 347.1842,-134.6307 348.5663,-127.7685"/>
</g>
<!-- Node24 -->
<g id="node25" class="node">
<title>Node24</title>
<g id="a_node25"><a xlink:href="stateMachine_8hpp.html" target="_top" xlink:title="stateMachine.hpp">
<polygon fill="none" stroke="#000000" points="823.5,-112.5 823.5,-131.5 917.5,-131.5 917.5,-112.5 823.5,-112.5"/>
<text text-anchor="middle" x="870.5" y="-119.5" font-family="Helvetica,sans-Serif" font-size="10.00" fill="#000000">stateMachine.hpp</text>
</a>
</g>
</g>
<!-- Node0&#45;&gt;Node24 -->
<g id="edge34" class="edge">
<title>Node0&#45;&gt;Node24</title>
<path fill="none" stroke="#191970" d="M908.8933,-168.2977C901.7402,-159.672 892.7503,-148.8312 885.2682,-139.8087"/>
<polygon fill="#191970" stroke="#191970" points="887.7433,-137.3103 878.6657,-131.8469 882.355,-141.7787 887.7433,-137.3103"/>
</g>
<!-- Node10&#45;&gt;Node2 -->
<g id="edge11" class="edge">
<title>Node10&#45;&gt;Node2</title>
<path fill="none" stroke="#191970" d="M437.7275,-112.4106C424.8451,-104.4527 408.2159,-91.8834 399.5,-76 391.7784,-61.9285 390.0851,-43.6693 390.1493,-29.9243"/>
<polygon fill="#191970" stroke="#191970" points="393.6578,-29.7516 390.5228,-19.6313 386.6624,-29.4977 393.6578,-29.7516"/>
</g>
<!-- Node10&#45;&gt;Node3 -->
<g id="edge14" class="edge">
<title>Node10&#45;&gt;Node3</title>
<path fill="none" stroke="#191970" d="M494.4629,-112.4181C531.5458,-103.2483 588.8912,-88.9378 638.5,-76 638.6006,-75.9738 638.7014,-75.9475 638.8023,-75.9211"/>
<polygon fill="#191970" stroke="#191970" points="639.6638,-79.3137 648.4368,-73.3736 637.8743,-72.5463 639.6638,-79.3137"/>
</g>
<!-- Node11 -->
<g id="node12" class="node">
<title>Node11</title>
<polygon fill="none" stroke="#bfbfbf" points="582,-.5 582,-19.5 641,-19.5 641,-.5 582,-.5"/>
<text text-anchor="middle" x="611.5" y="-7.5" font-family="Helvetica,sans-Serif" font-size="10.00" fill="#000000">exception</text>
</g>
<!-- Node10&#45;&gt;Node11 -->
<g id="edge12" class="edge">
<title>Node10&#45;&gt;Node11</title>
<path fill="none" stroke="#191970" d="M448.2341,-112.4818C438.6549,-98.6868 424.4574,-72.9388 437.5,-56 453.7604,-34.8822 525.6198,-21.4822 571.7552,-14.8918"/>
<polygon fill="#191970" stroke="#191970" points="572.3187,-18.3473 581.7463,-13.513 571.3617,-11.413 572.3187,-18.3473"/>
</g>
<!-- Node12 -->
<g id="node13" class="node">
<title>Node12</title>
<polygon fill="none" stroke="#bfbfbf" points="571,-56.5 571,-75.5 630,-75.5 630,-56.5 571,-56.5"/>
<text text-anchor="middle" x="600.5" y="-63.5" font-family="Helvetica,sans-Serif" font-size="10.00" fill="#000000">functional</text>
</g>
<!-- Node10&#45;&gt;Node12 -->
<g id="edge13" class="edge">
<title>Node10&#45;&gt;Node12</title>
<path fill="none" stroke="#191970" d="M480.4264,-112.3733C504.1202,-103.2226 539.9511,-89.3844 566.3068,-79.2057"/>
<polygon fill="#191970" stroke="#191970" points="567.8314,-82.3689 575.8989,-75.5011 565.3094,-75.8389 567.8314,-82.3689"/>
</g>
<!-- Node13 -->
<g id="node14" class="node">
<title>Node13</title>
<polygon fill="none" stroke="#bfbfbf" points="38.5,-.5 38.5,-19.5 90.5,-19.5 90.5,-.5 38.5,-.5"/>
<text text-anchor="middle" x="64.5" y="-7.5" font-family="Helvetica,sans-Serif" font-size="10.00" fill="#000000">sstream</text>
</g>
<!-- Node10&#45;&gt;Node13 -->
<g id="edge15" class="edge">
<title>Node10&#45;&gt;Node13</title>
<path fill="none" stroke="#191970" d="M394.4996,-115.3748C307.4491,-105.608 155.512,-87.286 132.5,-76 109.7802,-64.8574 89.8141,-43.2786 77.4945,-27.8268"/>
<polygon fill="#191970" stroke="#191970" points="80.022,-25.371 71.1614,-19.5623 74.4658,-29.6287 80.022,-25.371"/>
</g>
<!-- Node14 -->
<g id="node15" class="node">
<title>Node14</title>
<polygon fill="none" stroke="#bfbfbf" points="789,-.5 789,-19.5 848,-19.5 848,-.5 789,-.5"/>
<text text-anchor="middle" x="818.5" y="-7.5" font-family="Helvetica,sans-Serif" font-size="10.00" fill="#000000">stdexcept</text>
</g>
<!-- Node10&#45;&gt;Node14 -->
<g id="edge16" class="edge">
<title>Node10&#45;&gt;Node14</title>
<path fill="none" stroke="#191970" d="M454.5744,-112.2562C453.783,-97.6895 454.6981,-70.4104 470.5,-56 492.9779,-35.5016 692.0977,-18.9953 778.6348,-12.7239"/>
<polygon fill="#191970" stroke="#191970" points="779.1295,-16.1975 788.8544,-11.993 778.6301,-9.2153 779.1295,-16.1975"/>
</g>
<!-- Node15 -->
<g id="node16" class="node">
<title>Node15</title>
<polygon fill="none" stroke="#bfbfbf" points="109,-.5 109,-19.5 150,-19.5 150,-.5 109,-.5"/>
<text text-anchor="middle" x="129.5" y="-7.5" font-family="Helvetica,sans-Serif" font-size="10.00" fill="#000000">string</text>
</g>
<!-- Node10&#45;&gt;Node15 -->
<g id="edge17" class="edge">
<title>Node10&#45;&gt;Node15</title>
<path fill="none" stroke="#191970" d="M394.1612,-116.3675C309.9047,-108.0971 166.6631,-91.9178 148.5,-76 135.4946,-64.6022 131.1269,-44.9358 129.7841,-30.0277"/>
<polygon fill="#191970" stroke="#191970" points="133.2655,-29.5767 129.2538,-19.7707 126.2748,-29.9381 133.2655,-29.5767"/>
</g>
<!-- Node16 -->
<g id="node17" class="node">
<title>Node16</title>
<g id="a_node17"><a xlink:href="common_8hpp.html" target="_top" xlink:title="common.hpp">
<polygon fill="none" stroke="#000000" points="480,-56.5 480,-75.5 553,-75.5 553,-56.5 480,-56.5"/>
<text text-anchor="middle" x="516.5" y="-63.5" font-family="Helvetica,sans-Serif" font-size="10.00" fill="#000000">common.hpp</text>
</a>
</g>
</g>
<!-- Node10&#45;&gt;Node16 -->
<g id="edge18" class="edge">
<title>Node10&#45;&gt;Node16</title>
<path fill="none" stroke="#191970" d="M466.1254,-112.2455C475.0473,-104.0549 487.988,-92.1749 498.5192,-82.5069"/>
<polygon fill="#191970" stroke="#191970" points="500.9968,-84.9837 505.9964,-75.6427 496.2629,-79.8271 500.9968,-84.9837"/>
</g>
<!-- Node18 -->
<g id="node19" class="node">
<title>Node18</title>
<g id="a_node19"><a xlink:href="headers_8hpp.html" target="_top" xlink:title="headers.hpp">
<polygon fill="none" stroke="#000000" points="157.5,-56.5 157.5,-75.5 227.5,-75.5 227.5,-56.5 157.5,-56.5"/>
<text text-anchor="middle" x="192.5" y="-63.5" font-family="Helvetica,sans-Serif" font-size="10.00" fill="#000000">headers.hpp</text>
</a>
</g>
</g>
<!-- Node10&#45;&gt;Node18 -->
<g id="edge21" class="edge">
<title>Node10&#45;&gt;Node18</title>
<path fill="none" stroke="#191970" d="M410.5875,-112.4369C362.2377,-102.1419 285.7746,-85.8608 237.4214,-75.565"/>
<polygon fill="#191970" stroke="#191970" points="238.0599,-72.1226 227.5502,-73.4632 236.602,-78.9691 238.0599,-72.1226"/>
</g>
<!-- Node21 -->
<g id="node22" class="node">
<title>Node21</title>
<g id="a_node22"><a xlink:href="exceptions_8hpp.html" target="_top" xlink:title="exceptions.hpp">
<polygon fill="none" stroke="#000000" points="759,-56.5 759,-75.5 842,-75.5 842,-56.5 759,-56.5"/>
<text text-anchor="middle" x="800.5" y="-63.5" font-family="Helvetica,sans-Serif" font-size="10.00" fill="#000000">exceptions.hpp</text>
</a>
</g>
</g>
<!-- Node10&#45;&gt;Node21 -->
<g id="edge28" class="edge">
<title>Node10&#45;&gt;Node21</title>
<path fill="none" stroke="#191970" d="M514.4156,-112.4369C580.3187,-101.7396 686.0388,-84.5792 748.8351,-74.3862"/>
<polygon fill="#191970" stroke="#191970" points="749.5994,-77.808 758.9094,-72.7509 748.4778,-70.8985 749.5994,-77.808"/>
</g>
<!-- Node16&#45;&gt;Node1 -->
<g id="edge19" class="edge">
<title>Node16&#45;&gt;Node1</title>
<path fill="none" stroke="#191970" d="M481.7125,-56.4329C451.8381,-48.0786 407.425,-35.3318 360.467,-20.195"/>
<polygon fill="#191970" stroke="#191970" points="361.3215,-16.7926 350.7294,-17.0331 359.1596,-23.4504 361.3215,-16.7926"/>
</g>
<!-- Node17 -->
<g id="node18" class="node">
<title>Node17</title>
<polygon fill="none" stroke="#bfbfbf" points="884,-.5 884,-19.5 933,-19.5 933,-.5 884,-.5"/>
<text text-anchor="middle" x="908.5" y="-7.5" font-family="Helvetica,sans-Serif" font-size="10.00" fill="#000000">cassert</text>
</g>
<!-- Node16&#45;&gt;Node17 -->
<g id="edge20" class="edge">
<title>Node16&#45;&gt;Node17</title>
<path fill="none" stroke="#191970" d="M553.2791,-57.52C556.0548,-56.9741 558.8181,-56.4599 561.5,-56 692.118,-33.599 726.6117,-40.7635 857.5,-20 862.7674,-19.1644 868.3214,-18.1815 873.7487,-17.164"/>
<polygon fill="#191970" stroke="#191970" points="874.7688,-20.5315 883.9209,-15.194 873.4378,-13.6592 874.7688,-20.5315"/>
</g>
<!-- Node18&#45;&gt;Node1 -->
<g id="edge22" class="edge">
<title>Node18&#45;&gt;Node1</title>
<path fill="none" stroke="#191970" d="M216.395,-56.3733C240.3787,-46.7107 277.3354,-31.8217 302.8723,-21.5335"/>
<polygon fill="#191970" stroke="#191970" points="304.4136,-24.686 312.3812,-17.7026 301.7977,-18.1931 304.4136,-24.686"/>
</g>
<!-- Node18&#45;&gt;Node2 -->
<g id="edge23" class="edge">
<title>Node18&#45;&gt;Node2</title>
<path fill="none" stroke="#191970" d="M227.7851,-56.6554C259.6027,-48.146 307.9065,-35.0231 358.6241,-20.1921"/>
<polygon fill="#191970" stroke="#191970" points="359.8482,-23.4805 368.4565,-17.3041 357.8754,-16.7642 359.8482,-23.4805"/>
</g>
<!-- Node18&#45;&gt;Node13 -->
<g id="edge25" class="edge">
<title>Node18&#45;&gt;Node13</title>
<path fill="none" stroke="#191970" d="M170.496,-56.3733C149.8565,-47.3435 118.7842,-33.7494 95.6111,-23.6111"/>
<polygon fill="#191970" stroke="#191970" points="96.7813,-20.3028 86.2169,-19.5011 93.9755,-26.7159 96.7813,-20.3028"/>
</g>
<!-- Node18&#45;&gt;Node15 -->
<g id="edge26" class="edge">
<title>Node18&#45;&gt;Node15</title>
<path fill="none" stroke="#191970" d="M181.5262,-56.2455C172.3118,-48.0549 158.9468,-36.1749 148.0703,-26.5069"/>
<polygon fill="#191970" stroke="#191970" points="150.1474,-23.6704 140.348,-19.6427 145.4968,-28.9023 150.1474,-23.6704"/>
</g>
<!-- Node19 -->
<g id="node20" class="node">
<title>Node19</title>
<polygon fill="none" stroke="#bfbfbf" points="168.5,-.5 168.5,-19.5 214.5,-19.5 214.5,-.5 168.5,-.5"/>
<text text-anchor="middle" x="191.5" y="-7.5" font-family="Helvetica,sans-Serif" font-size="10.00" fill="#000000">cstring</text>
</g>
<!-- Node18&#45;&gt;Node19 -->
<g id="edge24" class="edge">
<title>Node18&#45;&gt;Node19</title>
<path fill="none" stroke="#191970" d="M192.3258,-56.2455C192.1953,-48.9382 192.0124,-38.6944 191.8519,-29.7046"/>
<polygon fill="#191970" stroke="#191970" points="195.3503,-29.5786 191.6722,-19.6427 188.3514,-29.7036 195.3503,-29.5786"/>
</g>
<!-- Node20 -->
<g id="node21" class="node">
<title>Node20</title>
<polygon fill="none" stroke="#bfbfbf" points="232.5,-.5 232.5,-19.5 294.5,-19.5 294.5,-.5 232.5,-.5"/>
<text text-anchor="middle" x="263.5" y="-7.5" font-family="Helvetica,sans-Serif" font-size="10.00" fill="#000000">arpa/inet.h</text>
</g>
<!-- Node18&#45;&gt;Node20 -->
<g id="edge27" class="edge">
<title>Node18&#45;&gt;Node20</title>
<path fill="none" stroke="#191970" d="M204.8673,-56.2455C215.4554,-47.8943 230.9064,-35.7076 243.2893,-25.9408"/>
<polygon fill="#191970" stroke="#191970" points="245.5903,-28.5837 251.2745,-19.6427 241.2553,-23.0875 245.5903,-28.5837"/>
</g>
<!-- Node21&#45;&gt;Node11 -->
<g id="edge29" class="edge">
<title>Node21&#45;&gt;Node11</title>
<path fill="none" stroke="#191970" d="M768.0097,-56.3733C735.5413,-46.753 685.5875,-31.9519 650.8819,-21.6687"/>
<polygon fill="#191970" stroke="#191970" points="651.6639,-18.2501 641.0816,-18.7649 649.6752,-24.9617 651.6639,-18.2501"/>
</g>
<!-- Node21&#45;&gt;Node14 -->
<g id="edge30" class="edge">
<title>Node21&#45;&gt;Node14</title>
<path fill="none" stroke="#191970" d="M803.6354,-56.2455C806.01,-48.8579 809.3493,-38.4689 812.2615,-29.4087"/>
<polygon fill="#191970" stroke="#191970" points="815.6725,-30.234 815.4006,-19.6427 809.0083,-28.0919 815.6725,-30.234"/>
</g>
<!-- Node22&#45;&gt;Node2 -->
<g id="edge32" class="edge">
<title>Node22&#45;&gt;Node2</title>
<path fill="none" stroke="#191970" d="M309.3642,-112.1693C309.6362,-98.4477 311.8563,-73.2954 323.5,-56 332.5542,-42.551 346.9878,-31.9717 360.2326,-24.3673"/>
<polygon fill="#191970" stroke="#191970" points="361.9836,-27.3997 369.1314,-19.5792 358.6668,-21.2353 361.9836,-27.3997"/>
</g>
<!-- Node23 -->
<g id="node24" class="node">
<title>Node23</title>
<polygon fill="none" stroke="#bfbfbf" points="0,-56.5 0,-75.5 63,-75.5 63,-56.5 0,-56.5"/>
<text text-anchor="middle" x="31.5" y="-63.5" font-family="Helvetica,sans-Serif" font-size="10.00" fill="#000000">rte_mbuf.h</text>
</g>
<!-- Node22&#45;&gt;Node23 -->
<g id="edge33" class="edge">
<title>Node22&#45;&gt;Node23</title>
<path fill="none" stroke="#191970" d="M280.8928,-116.5028C237.0613,-108.0407 150.6693,-91.2057 77.5,-76 76.0497,-75.6986 74.5742,-75.3898 73.0843,-75.076"/>
<polygon fill="#191970" stroke="#191970" points="73.6673,-71.6218 63.1575,-72.9618 72.2091,-78.4682 73.6673,-71.6218"/>
</g>
<!-- Node24&#45;&gt;Node2 -->
<g id="edge37" class="edge">
<title>Node24&#45;&gt;Node2</title>
<path fill="none" stroke="#191970" d="M842.2326,-112.3494C817.4559,-103.6326 780.6369,-90.0502 749.5,-76 732.1038,-68.1502 729.6543,-61.888 711.5,-56 610.4762,-23.235 483.9659,-13.7748 424.8397,-11.0687"/>
<polygon fill="#191970" stroke="#191970" points="424.7434,-7.5617 414.605,-10.638 424.4489,-14.5555 424.7434,-7.5617"/>
</g>
<!-- Node24&#45;&gt;Node3 -->
<g id="edge39" class="edge">
<title>Node24&#45;&gt;Node3</title>
<path fill="none" stroke="#191970" d="M836.9783,-112.3733C802.3889,-102.4399 748.5657,-86.983 712.6873,-76.6794"/>
<polygon fill="#191970" stroke="#191970" points="713.2003,-73.1854 702.6227,-73.7891 711.2681,-79.9134 713.2003,-73.1854"/>
</g>
<!-- Node24&#45;&gt;Node12 -->
<g id="edge38" class="edge">
<title>Node24&#45;&gt;Node12</title>
<path fill="none" stroke="#191970" d="M823.4441,-113.4067C778.7545,-105.0711 709.4685,-91.6979 640.0618,-76.036"/>
<polygon fill="#191970" stroke="#191970" points="640.7969,-72.6139 630.27,-73.8111 639.2459,-79.4399 640.7969,-72.6139"/>
</g>
<!-- Node24&#45;&gt;Node14 -->
<g id="edge44" class="edge">
<title>Node24&#45;&gt;Node14</title>
<path fill="none" stroke="#191970" d="M868.7747,-112.225C866.2009,-98.9982 860.6526,-74.8846 851.5,-56 846.6521,-45.9974 839.6472,-35.855 833.3372,-27.6485"/>
<polygon fill="#191970" stroke="#191970" points="835.8787,-25.2227 826.8978,-19.6016 830.4132,-29.5963 835.8787,-25.2227"/>
</g>
<!-- Node24&#45;&gt;Node16 -->
<g id="edge53" class="edge">
<title>Node24&#45;&gt;Node16</title>
<path fill="none" stroke="#191970" d="M823.4754,-116.0548C764.769,-108.3993 661.0687,-94.11 563.3394,-76.2516"/>
<polygon fill="#191970" stroke="#191970" points="563.7624,-72.7707 553.2935,-74.3992 562.493,-79.6547 563.7624,-72.7707"/>
</g>
<!-- Node24&#45;&gt;Node17 -->
<g id="edge35" class="edge">
<title>Node24&#45;&gt;Node17</title>
<path fill="none" stroke="#191970" d="M873.7399,-112.4509C879.9937,-94.0186 893.8342,-53.2254 902.039,-29.043"/>
<polygon fill="#191970" stroke="#191970" points="905.3697,-30.1192 905.2683,-19.5249 898.7409,-27.8701 905.3697,-30.1192"/>
</g>
<!-- Node24&#45;&gt;Node21 -->
<g id="edge54" class="edge">
<title>Node24&#45;&gt;Node21</title>
<path fill="none" stroke="#191970" d="M858.3069,-112.2455C847.8679,-103.8943 832.6345,-91.7076 820.426,-81.9408"/>
<polygon fill="#191970" stroke="#191970" points="822.5485,-79.1566 812.5533,-75.6427 818.1756,-84.6227 822.5485,-79.1566"/>
</g>
<!-- Node25 -->
<g id="node26" class="node">
<title>Node25</title>
<polygon fill="none" stroke="#bfbfbf" points="936.5,-56.5 936.5,-75.5 982.5,-75.5 982.5,-56.5 936.5,-56.5"/>
<text text-anchor="middle" x="959.5" y="-63.5" font-family="Helvetica,sans-Serif" font-size="10.00" fill="#000000">chrono</text>
</g>
<!-- Node24&#45;&gt;Node25 -->
<g id="edge36" class="edge">
<title>Node24&#45;&gt;Node25</title>
<path fill="none" stroke="#191970" d="M886.0026,-112.2455C899.658,-103.6534 919.7657,-91.0014 935.4989,-81.1018"/>
<polygon fill="#191970" stroke="#191970" points="937.5751,-83.9307 944.175,-75.6427 933.8471,-78.006 937.5751,-83.9307"/>
</g>
<!-- Node26 -->
<g id="node27" class="node">
<title>Node26</title>
<polygon fill="none" stroke="#bfbfbf" points="1000.5,-56.5 1000.5,-75.5 1040.5,-75.5 1040.5,-56.5 1000.5,-56.5"/>
<text text-anchor="middle" x="1020.5" y="-63.5" font-family="Helvetica,sans-Serif" font-size="10.00" fill="#000000">limits</text>
</g>
<!-- Node24&#45;&gt;Node26 -->
<g id="edge40" class="edge">
<title>Node24&#45;&gt;Node26</title>
<path fill="none" stroke="#191970" d="M896.2859,-112.3733C922.546,-102.5695 963.2177,-87.3854 990.8071,-77.0854"/>
<polygon fill="#191970" stroke="#191970" points="992.1845,-80.3072 1000.3288,-73.5306 989.7362,-73.7493 992.1845,-80.3072"/>
</g>
<!-- Node27 -->
<g id="node28" class="node">
<title>Node27</title>
<polygon fill="none" stroke="#bfbfbf" points="1058.5,-56.5 1058.5,-75.5 1110.5,-75.5 1110.5,-56.5 1058.5,-56.5"/>
<text text-anchor="middle" x="1084.5" y="-63.5" font-family="Helvetica,sans-Serif" font-size="10.00" fill="#000000">memory</text>
</g>
<!-- Node24&#45;&gt;Node27 -->
<g id="edge41" class="edge">
<title>Node24&#45;&gt;Node27</title>
<path fill="none" stroke="#191970" d="M908.9875,-112.4259C943.2336,-103.8362 994.9221,-90.6997 1048.4833,-76.2308"/>
<polygon fill="#191970" stroke="#191970" points="1049.4119,-79.6054 1058.1478,-73.6109 1047.5804,-72.8493 1049.4119,-79.6054"/>
</g>
<!-- Node28 -->
<g id="node29" class="node">
<title>Node28</title>
<polygon fill="none" stroke="#bfbfbf" points="1128.5,-56.5 1128.5,-75.5 1172.5,-75.5 1172.5,-56.5 1128.5,-56.5"/>
<text text-anchor="middle" x="1150.5" y="-63.5" font-family="Helvetica,sans-Serif" font-size="10.00" fill="#000000">mutex</text>
</g>
<!-- Node24&#45;&gt;Node28 -->
<g id="edge42" class="edge">
<title>Node24&#45;&gt;Node28</title>
<path fill="none" stroke="#191970" d="M917.6006,-113.4608C979.1704,-102.2777 1082.6419,-83.4061 1118.1827,-75.8573"/>
<polygon fill="#191970" stroke="#191970" points="1119.2794,-79.197 1128.249,-73.5582 1117.7207,-72.3728 1119.2794,-79.197"/>
</g>
<!-- Node29 -->
<g id="node30" class="node">
<title>Node29</title>
<polygon fill="none" stroke="#bfbfbf" points="1191,-56.5 1191,-75.5 1234,-75.5 1234,-56.5 1191,-56.5"/>
<text text-anchor="middle" x="1212.5" y="-63.5" font-family="Helvetica,sans-Serif" font-size="10.00" fill="#000000">queue</text>
</g>
<!-- Node24&#45;&gt;Node29 -->
<g id="edge43" class="edge">
<title>Node24&#45;&gt;Node29</title>
<path fill="none" stroke="#191970" d="M917.5327,-113.473C920.5653,-112.9629 923.5743,-112.4676 926.5,-112 1036.322,-94.4483 1068.1671,-101.247 1180.8863,-75.7837"/>
<polygon fill="#191970" stroke="#191970" points="1181.9885,-79.1218 1190.9522,-73.4736 1180.4226,-72.2992 1181.9885,-79.1218"/>
</g>
<!-- Node30 -->
<g id="node31" class="node">
<title>Node30</title>
<polygon fill="none" stroke="#bfbfbf" points="1252,-56.5 1252,-75.5 1335,-75.5 1335,-56.5 1252,-56.5"/>
<text text-anchor="middle" x="1293.5" y="-63.5" font-family="Helvetica,sans-Serif" font-size="10.00" fill="#000000">unordered_map</text>
</g>
<!-- Node24&#45;&gt;Node30 -->
<g id="edge45" class="edge">
<title>Node24&#45;&gt;Node30</title>
<path fill="none" stroke="#191970" d="M917.5184,-113.38C920.5546,-112.8927 923.5682,-112.4278 926.5,-112 1063.5202,-92.0064 1101.6379,-97.6385 1241.5526,-76.2032"/>
<polygon fill="#191970" stroke="#191970" points="1242.4601,-79.6043 1251.8051,-74.6123 1241.3867,-72.6871 1242.4601,-79.6043"/>
</g>
<!-- Node31 -->
<g id="node32" class="node">
<title>Node31</title>
<polygon fill="none" stroke="#bfbfbf" points="1428.5,-.5 1428.5,-19.5 1472.5,-19.5 1472.5,-.5 1428.5,-.5"/>
<text text-anchor="middle" x="1450.5" y="-7.5" font-family="Helvetica,sans-Serif" font-size="10.00" fill="#000000">vector</text>
</g>
<!-- Node24&#45;&gt;Node31 -->
<g id="edge46" class="edge">
<title>Node24&#45;&gt;Node31</title>
<path fill="none" stroke="#191970" d="M917.8029,-113.1901C920.741,-112.7555 923.6579,-112.3537 926.5,-112 982.543,-105.0263 1390.1166,-112.1569 1433.5,-76 1446.6825,-65.0133 1450.3847,-45.2922 1451.1174,-30.2595"/>
<polygon fill="#191970" stroke="#191970" points="1454.6202,-29.9298 1451.2066,-19.9 1447.6205,-29.8695 1454.6202,-29.9298"/>
</g>
<!-- Node32 -->
<g id="node33" class="node">
<title>Node32</title>
<g id="a_node33"><a xlink:href="bufArray_8hpp.html" target="_top" xlink:title="bufArray.hpp">
<polygon fill="none" stroke="#000000" points="1353,-56.5 1353,-75.5 1424,-75.5 1424,-56.5 1353,-56.5"/>
<text text-anchor="middle" x="1388.5" y="-63.5" font-family="Helvetica,sans-Serif" font-size="10.00" fill="#000000">bufArray.hpp</text>
</a>
</g>
</g>
<!-- Node24&#45;&gt;Node32 -->
<g id="edge47" class="edge">
<title>Node24&#45;&gt;Node32</title>
<path fill="none" stroke="#191970" d="M917.5055,-113.2868C920.5448,-112.8223 923.5627,-112.3879 926.5,-112 1108.1107,-88.0146 1158.5,-104.1404 1342.55,-76.1378"/>
<polygon fill="#191970" stroke="#191970" points="1343.2108,-79.5774 1352.5593,-74.5918 1342.1422,-72.6594 1343.2108,-79.5774"/>
</g>
<!-- Node34 -->
<g id="node35" class="node">
<title>Node34</title>
<g id="a_node35"><a xlink:href="spinlock_8hpp.html" target="_top" xlink:title="spinlock.hpp">
<polygon fill="none" stroke="#000000" points="1481,-56.5 1481,-75.5 1552,-75.5 1552,-56.5 1481,-56.5"/>
<text text-anchor="middle" x="1516.5" y="-63.5" font-family="Helvetica,sans-Serif" font-size="10.00" fill="#000000">spinlock.hpp</text>
</a>
</g>
</g>
<!-- Node24&#45;&gt;Node34 -->
<g id="edge55" class="edge">
<title>Node24&#45;&gt;Node34</title>
<path fill="none" stroke="#191970" d="M917.8011,-113.1756C920.7397,-112.7446 923.6571,-112.3475 926.5,-112 1165.2555,-82.8141 1228.0592,-107.6539 1466.5,-76 1467.9534,-75.8071 1469.4281,-75.5972 1470.9151,-75.3735"/>
<polygon fill="#191970" stroke="#191970" points="1471.5253,-78.8202 1480.8156,-73.7269 1470.3768,-71.915 1471.5253,-78.8202"/>
</g>
<!-- Node32&#45;&gt;Node2 -->
<g id="edge49" class="edge">
<title>Node32&#45;&gt;Node2</title>
<path fill="none" stroke="#191970" d="M1352.5764,-57.2913C1349.8535,-56.7983 1347.1392,-56.3586 1344.5,-56 1004.143,-9.7576 915.5392,-37.4742 572.5,-20 520.8645,-17.3697 460.962,-13.9971 424.6673,-11.9181"/>
<polygon fill="#191970" stroke="#191970" points="424.8242,-8.4215 414.6399,-11.3422 424.4228,-15.4099 424.8242,-8.4215"/>
</g>
<!-- Node32&#45;&gt;Node14 -->
<g id="edge50" class="edge">
<title>Node32&#45;&gt;Node14</title>
<path fill="none" stroke="#191970" d="M1352.5636,-57.3805C1349.8437,-56.8669 1347.1335,-56.3981 1344.5,-56 1137.7912,-24.75 1082.9228,-46.0932 875.5,-20 869.8928,-19.2946 863.9977,-18.4164 858.212,-17.4754"/>
<polygon fill="#191970" stroke="#191970" points="858.4472,-13.9652 848.0017,-15.7375 857.2726,-20.8659 858.4472,-13.9652"/>
</g>
<!-- Node32&#45;&gt;Node17 -->
<g id="edge48" class="edge">
<title>Node32&#45;&gt;Node17</title>
<path fill="none" stroke="#191970" d="M1352.5502,-57.4651C1349.8333,-56.9319 1347.1276,-56.4356 1344.5,-56 1196.3506,-31.4382 1017.5875,-17.4132 943.3935,-12.2725"/>
<polygon fill="#191970" stroke="#191970" points="943.4369,-8.7674 933.2218,-11.5783 942.9602,-15.7512 943.4369,-8.7674"/>
</g>
<!-- Node32&#45;&gt;Node31 -->
<g id="edge52" class="edge">
<title>Node32&#45;&gt;Node31</title>
<path fill="none" stroke="#191970" d="M1399.2996,-56.2455C1408.3678,-48.0549 1421.5206,-36.1749 1432.2245,-26.5069"/>
<polygon fill="#191970" stroke="#191970" points="1434.7491,-28.9429 1439.8242,-19.6427 1430.0571,-23.7482 1434.7491,-28.9429"/>
</g>
<!-- Node33 -->
<g id="node34" class="node">
<title>Node33</title>
<polygon fill="none" stroke="#bfbfbf" points="1368.5,-.5 1368.5,-19.5 1408.5,-19.5 1408.5,-.5 1368.5,-.5"/>
<text text-anchor="middle" x="1388.5" y="-7.5" font-family="Helvetica,sans-Serif" font-size="10.00" fill="#000000">utility</text>
</g>
<!-- Node32&#45;&gt;Node33 -->
<g id="edge51" class="edge">
<title>Node32&#45;&gt;Node33</title>
<path fill="none" stroke="#191970" d="M1388.5,-56.2455C1388.5,-48.9382 1388.5,-38.6944 1388.5,-29.7046"/>
<polygon fill="#191970" stroke="#191970" points="1392.0001,-29.6426 1388.5,-19.6427 1385.0001,-29.6427 1392.0001,-29.6426"/>
</g>
<!-- Node35 -->
<g id="node36" class="node">
<title>Node35</title>
<polygon fill="none" stroke="#bfbfbf" points="1493.5,-.5 1493.5,-19.5 1539.5,-19.5 1539.5,-.5 1493.5,-.5"/>
<text text-anchor="middle" x="1516.5" y="-7.5" font-family="Helvetica,sans-Serif" font-size="10.00" fill="#000000">atomic</text>
</g>
<!-- Node34&#45;&gt;Node35 -->
<g id="edge56" class="edge">
<title>Node34&#45;&gt;Node35</title>
<path fill="none" stroke="#191970" d="M1516.5,-56.2455C1516.5,-48.9382 1516.5,-38.6944 1516.5,-29.7046"/>
<polygon fill="#191970" stroke="#191970" points="1520.0001,-29.6426 1516.5,-19.6427 1513.0001,-29.6427 1520.0001,-29.6426"/>
</g>
</g>
</svg>
