<?xml version="1.0" encoding="UTF-8" standalone="no"?>
<!DOCTYPE svg PUBLIC "-//W3C//DTD SVG 1.1//EN"
 "http://www.w3.org/Graphics/SVG/1.1/DTD/svg11.dtd">
<!-- Generated by graphviz version 2.40.1 (20161225.0304)
 -->
<!-- Title: /home/dominik/uni/MoonState/include/dtls_handshake.hpp Pages: 1 -->
<svg width="261pt" height="207pt"
 viewBox="0.00 0.00 260.50 207.00" xmlns="http://www.w3.org/2000/svg" xmlns:xlink="http://www.w3.org/1999/xlink">
<g id="graph0" class="graph" transform="scale(1 1) rotate(0) translate(4 203)">
<title>/home/dominik/uni/MoonState/include/dtls_handshake.hpp</title>
<!-- Node0 -->
<g id="node1" class="node">
<title>Node0</title>
<polygon fill="#bfbfbf" stroke="#000000" points="95.5,-168.5 95.5,-198.5 242.5,-198.5 242.5,-168.5 95.5,-168.5"/>
<text text-anchor="start" x="103.5" y="-186.5" font-family="Helvetica,sans-Serif" font-size="10.00" fill="#000000">/home/dominik/uni/MoonState</text>
<text text-anchor="middle" x="169" y="-175.5" font-family="Helvetica,sans-Serif" font-size="10.00" fill="#000000">/include/dtls_handshake.hpp</text>
</g>
<!-- Node1 -->
<g id="node2" class="node">
<title>Node1</title>
<g id="a_node2"><a xlink:href="dtls_8hpp.html" target="_top" xlink:title="dtls.hpp">
<polygon fill="none" stroke="#000000" points="143.5,-112.5 143.5,-131.5 194.5,-131.5 194.5,-112.5 143.5,-112.5"/>
<text text-anchor="middle" x="169" y="-119.5" font-family="Helvetica,sans-Serif" font-size="10.00" fill="#000000">dtls.hpp</text>
</a>
</g>
</g>
<!-- Node0&#45;&gt;Node1 -->
<g id="edge1" class="edge">
<title>Node0&#45;&gt;Node1</title>
<path fill="none" stroke="#191970" d="M163.0843,-168.2977C162.1446,-160.2945 161.9987,-150.3843 162.6466,-141.7889"/>
<polygon fill="#191970" stroke="#191970" points="166.1218,-142.2044 163.8917,-131.8469 159.176,-141.3345 166.1218,-142.2044"/>
</g>
<!-- Node1&#45;&gt;Node0 -->
<g id="edge6" class="edge">
<title>Node1&#45;&gt;Node0</title>
<path fill="none" stroke="#191970" d="M174.1083,-131.8469C175.4704,-138.9883 175.9849,-148.9858 175.6519,-158.2849"/>
<polygon fill="#191970" stroke="#191970" points="172.1584,-158.068 174.9157,-168.2977 179.1396,-158.5813 172.1584,-158.068"/>
</g>
<!-- Node2 -->
<g id="node3" class="node">
<title>Node2</title>
<g id="a_node3"><a xlink:href="common_8hpp.html" target="_top" xlink:title="common.hpp">
<polygon fill="none" stroke="#000000" points="13.5,-56.5 13.5,-75.5 86.5,-75.5 86.5,-56.5 13.5,-56.5"/>
<text text-anchor="middle" x="50" y="-63.5" font-family="Helvetica,sans-Serif" font-size="10.00" fill="#000000">common.hpp</text>
</a>
</g>
</g>
<!-- Node1&#45;&gt;Node2 -->
<g id="edge2" class="edge">
<title>Node1&#45;&gt;Node2</title>
<path fill="none" stroke="#191970" d="M148.5432,-112.3733C129.5262,-103.4241 100.9825,-89.9917 79.5024,-79.8835"/>
<polygon fill="#191970" stroke="#191970" points="80.7284,-76.5923 70.1899,-75.5011 77.7478,-82.926 80.7284,-76.5923"/>
</g>
<!-- Node5 -->
<g id="node6" class="node">
<title>Node5</title>
<polygon fill="none" stroke="#bfbfbf" points="105,-56.5 105,-75.5 151,-75.5 151,-56.5 105,-56.5"/>
<text text-anchor="middle" x="128" y="-63.5" font-family="Helvetica,sans-Serif" font-size="10.00" fill="#000000">cstdint</text>
</g>
<!-- Node1&#45;&gt;Node5 -->
<g id="edge5" class="edge">
<title>Node1&#45;&gt;Node5</title>
<path fill="none" stroke="#191970" d="M161.8583,-112.2455C156.1556,-104.4564 148.01,-93.3308 141.1375,-83.9439"/>
<polygon fill="#191970" stroke="#191970" points="143.7913,-81.6437 135.0598,-75.6427 138.1432,-85.7789 143.7913,-81.6437"/>
</g>
<!-- Node6 -->
<g id="node7" class="node">
<title>Node6</title>
<g id="a_node7"><a xlink:href="dtls__record_8hpp.html" target="_top" xlink:title="dtls_record.hpp">
<polygon fill="none" stroke="#000000" points="169.5,-56.5 169.5,-75.5 252.5,-75.5 252.5,-56.5 169.5,-56.5"/>
<text text-anchor="middle" x="211" y="-63.5" font-family="Helvetica,sans-Serif" font-size="10.00" fill="#000000">dtls_record.hpp</text>
</a>
</g>
</g>
<!-- Node1&#45;&gt;Node6 -->
<g id="edge7" class="edge">
<title>Node1&#45;&gt;Node6</title>
<path fill="none" stroke="#191970" d="M171.049,-112.2455C175.4762,-104.2958 183.7017,-92.8706 191.6786,-83.3656"/>
<polygon fill="#191970" stroke="#191970" points="194.5097,-85.4481 198.5229,-75.6427 189.2709,-80.8053 194.5097,-85.4481"/>
</g>
<!-- Node3 -->
<g id="node4" class="node">
<title>Node3</title>
<polygon fill="none" stroke="#bfbfbf" points="0,-.5 0,-19.5 38,-19.5 38,-.5 0,-.5"/>
<text text-anchor="middle" x="19" y="-7.5" font-family="Helvetica,sans-Serif" font-size="10.00" fill="#000000">array</text>
</g>
<!-- Node2&#45;&gt;Node3 -->
<g id="edge3" class="edge">
<title>Node2&#45;&gt;Node3</title>
<path fill="none" stroke="#191970" d="M44.6002,-56.2455C40.3773,-48.617 34.3827,-37.7881 29.2559,-28.5267"/>
<polygon fill="#191970" stroke="#191970" points="32.2432,-26.6965 24.3379,-19.6427 26.119,-30.0867 32.2432,-26.6965"/>
</g>
<!-- Node4 -->
<g id="node5" class="node">
<title>Node4</title>
<polygon fill="none" stroke="#bfbfbf" points="56.5,-.5 56.5,-19.5 105.5,-19.5 105.5,-.5 56.5,-.5"/>
<text text-anchor="middle" x="81" y="-7.5" font-family="Helvetica,sans-Serif" font-size="10.00" fill="#000000">cassert</text>
</g>
<!-- Node2&#45;&gt;Node4 -->
<g id="edge4" class="edge">
<title>Node2&#45;&gt;Node4</title>
<path fill="none" stroke="#191970" d="M55.3998,-56.2455C59.6227,-48.617 65.6173,-37.7881 70.7441,-28.5267"/>
<polygon fill="#191970" stroke="#191970" points="73.881,-30.0867 75.6621,-19.6427 67.7568,-26.6965 73.881,-30.0867"/>
</g>
<!-- Node6&#45;&gt;Node1 -->
<g id="edge8" class="edge">
<title>Node6&#45;&gt;Node1</title>
<path fill="none" stroke="#191970" d="M209.0131,-75.6427C204.6217,-83.5596 196.413,-94.9775 188.4338,-104.5004"/>
<polygon fill="#191970" stroke="#191970" points="185.5867,-102.4364 181.5827,-112.2455 190.8298,-107.0743 185.5867,-102.4364"/>
</g>
</g>
</svg>
