<?xml version="1.0" encoding="UTF-8" standalone="no"?>
<!DOCTYPE svg PUBLIC "-//W3C//DTD SVG 1.1//EN"
 "http://www.w3.org/Graphics/SVG/1.1/DTD/svg11.dtd">
<!-- Generated by graphviz version 2.40.1 (20161225.0304)
 -->
<!-- Title: DtlsClient_process Pages: 1 -->
<svg width="440pt" height="104pt"
 viewBox="0.00 0.00 440.00 104.00" xmlns="http://www.w3.org/2000/svg" xmlns:xlink="http://www.w3.org/1999/xlink">
<g id="graph0" class="graph" transform="scale(1 1) rotate(0) translate(4 100)">
<title>DtlsClient_process</title>
<!-- Node13 -->
<g id="node1" class="node">
<title>Node13</title>
<polygon fill="#bfbfbf" stroke="#000000" points="0,-38.5 0,-57.5 100,-57.5 100,-38.5 0,-38.5"/>
<text text-anchor="middle" x="50" y="-45.5" font-family="Helvetica,sans-Serif" font-size="10.00" fill="#000000">DtlsClient_process</text>
</g>
<!-- Node14 -->
<g id="node2" class="node">
<title>Node14</title>
<g id="a_node2"><a xlink:href="classStateMachine.html#aa1eae1413acf399a997e587c905e14aa" target="_top" xlink:title="Run a batch of packets. ">
<polygon fill="none" stroke="#000000" points="136,-76.5 136,-95.5 273,-95.5 273,-76.5 136,-76.5"/>
<text text-anchor="middle" x="204.5" y="-83.5" font-family="Helvetica,sans-Serif" font-size="10.00" fill="#000000">StateMachine::runPktBatch</text>
</a>
</g>
</g>
<!-- Node13&#45;&gt;Node14 -->
<g id="edge1" class="edge">
<title>Node13&#45;&gt;Node14</title>
<path fill="none" stroke="#191970" d="M88.9869,-57.589C109.283,-62.5809 134.2935,-68.7324 155.8462,-74.0334"/>
<polygon fill="#191970" stroke="#191970" points="155.2469,-77.4902 165.7935,-76.4799 156.9188,-70.6928 155.2469,-77.4902"/>
</g>
<!-- Node15 -->
<g id="node3" class="node">
<title>Node15</title>
<g id="a_node3"><a xlink:href="classBufArray.html#a1d52cd9f63feaa98f800bcae8277e675" target="_top" xlink:title="Get the number of packets currently marked as send. ">
<polygon fill="none" stroke="#000000" points="309,-19.5 309,-38.5 432,-38.5 432,-19.5 309,-19.5"/>
<text text-anchor="middle" x="370.5" y="-26.5" font-family="Helvetica,sans-Serif" font-size="10.00" fill="#000000">BufArray::getSendCount</text>
</a>
</g>
</g>
<!-- Node13&#45;&gt;Node15 -->
<g id="edge2" class="edge">
<title>Node13&#45;&gt;Node15</title>
<path fill="none" stroke="#191970" d="M100.0781,-45.0313C153.4183,-41.8691 238.322,-36.8358 298.7567,-33.2531"/>
<polygon fill="#191970" stroke="#191970" points="299.2135,-36.7323 308.9889,-32.6465 298.7992,-29.7445 299.2135,-36.7323"/>
</g>
<!-- Node16 -->
<g id="node4" class="node">
<title>Node16</title>
<g id="a_node4"><a xlink:href="classBufArray.html#a77223130b4dca30992a335dbff4b4781" target="_top" xlink:title="Get the number of packets currently marked as free. ">
<polygon fill="none" stroke="#000000" points="144.5,-.5 144.5,-19.5 264.5,-19.5 264.5,-.5 144.5,-.5"/>
<text text-anchor="middle" x="204.5" y="-7.5" font-family="Helvetica,sans-Serif" font-size="10.00" fill="#000000">BufArray::getFreeCount</text>
</a>
</g>
</g>
<!-- Node13&#45;&gt;Node16 -->
<g id="edge3" class="edge">
<title>Node13&#45;&gt;Node16</title>
<path fill="none" stroke="#191970" d="M88.9869,-38.411C109.283,-33.4191 134.2935,-27.2676 155.8462,-21.9666"/>
<polygon fill="#191970" stroke="#191970" points="156.9188,-25.3072 165.7935,-19.5201 155.2469,-18.5098 156.9188,-25.3072"/>
</g>
<!-- Node16&#45;&gt;Node15 -->
<g id="edge4" class="edge">
<title>Node16&#45;&gt;Node15</title>
<path fill="none" stroke="#191970" d="M264.8994,-16.9132C275.8296,-18.1642 287.3258,-19.4801 298.5476,-20.7645"/>
<polygon fill="#191970" stroke="#191970" points="298.4191,-24.2725 308.7522,-21.9325 299.2151,-17.3179 298.4191,-24.2725"/>
</g>
</g>
</svg>
