<?xml version="1.0" encoding="UTF-8" standalone="no"?>
<!DOCTYPE svg PUBLIC "-//W3C//DTD SVG 1.1//EN"
 "http://www.w3.org/Graphics/SVG/1.1/DTD/svg11.dtd">
<!-- Generated by graphviz version 2.40.1 (20161225.0304)
 -->
<!-- Title: /home/dominik/uni/MoonState/include/exceptions.hpp Pages: 1 -->
<svg width="963pt" height="374pt"
 viewBox="0.00 0.00 962.74 374.00" xmlns="http://www.w3.org/2000/svg" xmlns:xlink="http://www.w3.org/1999/xlink">
<g id="graph0" class="graph" transform="scale(1 1) rotate(0) translate(4 370)">
<title>/home/dominik/uni/MoonState/include/exceptions.hpp</title>
<!-- Node3 -->
<g id="node1" class="node">
<title>Node3</title>
<polygon fill="#bfbfbf" stroke="#000000" points="318.2691,-335.5 318.2691,-365.5 465.2691,-365.5 465.2691,-335.5 318.2691,-335.5"/>
<text text-anchor="start" x="326.2691" y="-353.5" font-family="Helvetica,sans-Serif" font-size="10.00" fill="#000000">/home/dominik/uni/MoonState</text>
<text text-anchor="middle" x="391.7691" y="-342.5" font-family="Helvetica,sans-Serif" font-size="10.00" fill="#000000">/include/exceptions.hpp</text>
</g>
<!-- Node4 -->
<g id="node2" class="node">
<title>Node4</title>
<g id="a_node2"><a xlink:href="IPv4__5TupleL2Ident_8hpp.html" target="_top" xlink:title="/home/dominik/uni/MoonState\l/include/IPv4_5TupleL2Ident.hpp">
<polygon fill="none" stroke="#000000" points="312.7691,-268.5 312.7691,-298.5 470.7691,-298.5 470.7691,-268.5 312.7691,-268.5"/>
<text text-anchor="start" x="320.7691" y="-286.5" font-family="Helvetica,sans-Serif" font-size="10.00" fill="#000000">/home/dominik/uni/MoonState</text>
<text text-anchor="middle" x="391.7691" y="-275.5" font-family="Helvetica,sans-Serif" font-size="10.00" fill="#000000">/include/IPv4_5TupleL2Ident.hpp</text>
</a>
</g>
</g>
<!-- Node3&#45;&gt;Node4 -->
<g id="edge1" class="edge">
<title>Node3&#45;&gt;Node4</title>
<path fill="none" stroke="#191970" d="M391.7691,-325.0249C391.7691,-316.128 391.7691,-306.4287 391.7691,-298.6432"/>
<polygon fill="#191970" stroke="#191970" points="388.2692,-325.2966 391.7691,-335.2967 395.2692,-325.2967 388.2692,-325.2966"/>
</g>
<!-- Node8 -->
<g id="node6" class="node">
<title>Node8</title>
<g id="a_node6"><a xlink:href="helloBye2Proto_8hpp.html" target="_top" xlink:title="/home/dominik/uni/MoonState\l/include/helloBye2Proto.hpp">
<polygon fill="none" stroke="#000000" points="15.2691,-134.5 15.2691,-164.5 162.2691,-164.5 162.2691,-134.5 15.2691,-134.5"/>
<text text-anchor="start" x="23.2691" y="-152.5" font-family="Helvetica,sans-Serif" font-size="10.00" fill="#000000">/home/dominik/uni/MoonState</text>
<text text-anchor="middle" x="88.7691" y="-141.5" font-family="Helvetica,sans-Serif" font-size="10.00" fill="#000000">/include/helloBye2Proto.hpp</text>
</a>
</g>
</g>
<!-- Node3&#45;&gt;Node8 -->
<g id="edge31" class="edge">
<title>Node3&#45;&gt;Node8</title>
<path fill="none" stroke="#191970" d="M308.129,-336.6614C205.8555,-317.8362 41.8575,-280.8296 5.7691,-232 -2.4198,-220.9199 -.9295,-213.0397 5.7691,-201 14.921,-184.5509 31.7408,-172.6841 47.8584,-164.5184"/>
<polygon fill="#191970" stroke="#191970" points="307.6687,-340.1351 318.1337,-338.4813 308.9216,-333.2481 307.6687,-340.1351"/>
</g>
<!-- Node13 -->
<g id="node11" class="node">
<title>Node13</title>
<g id="a_node11"><a xlink:href="helloBye3_8hpp.html" target="_top" xlink:title="/home/dominik/uni/MoonState\l/include/helloBye3.hpp">
<polygon fill="none" stroke="#000000" points="182.2691,-134.5 182.2691,-164.5 329.2691,-164.5 329.2691,-134.5 182.2691,-134.5"/>
<text text-anchor="start" x="190.2691" y="-152.5" font-family="Helvetica,sans-Serif" font-size="10.00" fill="#000000">/home/dominik/uni/MoonState</text>
<text text-anchor="middle" x="255.7691" y="-141.5" font-family="Helvetica,sans-Serif" font-size="10.00" fill="#000000">/include/helloBye3.hpp</text>
</a>
</g>
</g>
<!-- Node3&#45;&gt;Node13 -->
<g id="edge32" class="edge">
<title>Node3&#45;&gt;Node13</title>
<path fill="none" stroke="#191970" d="M336.095,-331.7272C292.6231,-313.7169 235.4314,-281.805 209.7691,-232 197.4508,-208.0928 219.7937,-180.9586 237.4437,-164.5436"/>
<polygon fill="#191970" stroke="#191970" points="334.8406,-334.9951 345.4248,-335.4688 337.4461,-328.4981 334.8406,-334.9951"/>
</g>
<!-- Node15 -->
<g id="node13" class="node">
<title>Node15</title>
<g id="a_node13"><a xlink:href="helloBye3MemPool_8hpp.html" target="_top" xlink:title="/home/dominik/uni/MoonState\l/include/helloBye3MemPool.hpp">
<polygon fill="none" stroke="#000000" points="792.7691,-134.5 792.7691,-164.5 948.7691,-164.5 948.7691,-134.5 792.7691,-134.5"/>
<text text-anchor="start" x="800.7691" y="-152.5" font-family="Helvetica,sans-Serif" font-size="10.00" fill="#000000">/home/dominik/uni/MoonState</text>
<text text-anchor="middle" x="870.7691" y="-141.5" font-family="Helvetica,sans-Serif" font-size="10.00" fill="#000000">/include/helloBye3MemPool.hpp</text>
</a>
</g>
</g>
<!-- Node3&#45;&gt;Node15 -->
<g id="edge33" class="edge">
<title>Node3&#45;&gt;Node15</title>
<path fill="none" stroke="#191970" d="M475.7662,-345.1973C616.4715,-334.3711 890.2011,-304.339 948.7691,-232 968.9242,-207.1059 932.0634,-180.5741 902.4492,-164.5143"/>
<polygon fill="#191970" stroke="#191970" points="475.1667,-341.7324 465.4581,-345.9743 475.693,-348.7126 475.1667,-341.7324"/>
</g>
<!-- Node21 -->
<g id="node19" class="node">
<title>Node21</title>
<g id="a_node19"><a xlink:href="stateMachine_8hpp.html" target="_top" xlink:title="/home/dominik/uni/MoonState\l/include/stateMachine.hpp">
<polygon fill="none" stroke="#000000" points="423.2691,-201.5 423.2691,-231.5 570.2691,-231.5 570.2691,-201.5 423.2691,-201.5"/>
<text text-anchor="start" x="431.2691" y="-219.5" font-family="Helvetica,sans-Serif" font-size="10.00" fill="#000000">/home/dominik/uni/MoonState</text>
<text text-anchor="middle" x="496.7691" y="-208.5" font-family="Helvetica,sans-Serif" font-size="10.00" fill="#000000">/include/stateMachine.hpp</text>
</a>
</g>
</g>
<!-- Node3&#45;&gt;Node21 -->
<g id="edge23" class="edge">
<title>Node3&#45;&gt;Node21</title>
<path fill="none" stroke="#191970" d="M441.8356,-330.6435C456.0293,-322.7627 470.2049,-312.3331 479.7691,-299 494.1745,-278.9181 496.969,-249.3966 497.2046,-231.6505"/>
<polygon fill="#191970" stroke="#191970" points="439.8186,-327.7469 432.5541,-335.4591 443.0424,-333.9604 439.8186,-327.7469"/>
</g>
<!-- Node5 -->
<g id="node3" class="node">
<title>Node5</title>
<g id="a_node3"><a xlink:href="dtlsClient_8hpp.html" target="_top" xlink:title="/home/dominik/uni/MoonState\l/include/dtlsClient.hpp">
<polygon fill="none" stroke="#000000" points="347.2691,-134.5 347.2691,-164.5 494.2691,-164.5 494.2691,-134.5 347.2691,-134.5"/>
<text text-anchor="start" x="355.2691" y="-152.5" font-family="Helvetica,sans-Serif" font-size="10.00" fill="#000000">/home/dominik/uni/MoonState</text>
<text text-anchor="middle" x="420.7691" y="-141.5" font-family="Helvetica,sans-Serif" font-size="10.00" fill="#000000">/include/dtlsClient.hpp</text>
</a>
</g>
</g>
<!-- Node4&#45;&gt;Node5 -->
<g id="edge2" class="edge">
<title>Node4&#45;&gt;Node5</title>
<path fill="none" stroke="#191970" d="M397.2139,-258.3415C403.1715,-230.8131 412.5298,-187.5714 417.4663,-164.7614"/>
<polygon fill="#191970" stroke="#191970" points="393.7339,-257.8749 395.0394,-268.389 400.5755,-259.3556 393.7339,-257.8749"/>
</g>
<!-- Node7 -->
<g id="node5" class="node">
<title>Node7</title>
<g id="a_node5"><a xlink:href="helloBye2Proto_8cpp.html" target="_top" xlink:title="/home/dominik/uni/MoonState\l/src/helloBye2Proto.cpp">
<polygon fill="none" stroke="#000000" points="15.2691,-201.5 15.2691,-231.5 162.2691,-231.5 162.2691,-201.5 15.2691,-201.5"/>
<text text-anchor="start" x="23.2691" y="-219.5" font-family="Helvetica,sans-Serif" font-size="10.00" fill="#000000">/home/dominik/uni/MoonState</text>
<text text-anchor="middle" x="88.7691" y="-208.5" font-family="Helvetica,sans-Serif" font-size="10.00" fill="#000000">/src/helloBye2Proto.cpp</text>
</a>
</g>
</g>
<!-- Node4&#45;&gt;Node7 -->
<g id="edge4" class="edge">
<title>Node4&#45;&gt;Node7</title>
<path fill="none" stroke="#191970" d="M313.929,-266.2878C265.349,-255.5457 203.4142,-241.8506 156.8029,-231.5438"/>
<polygon fill="#191970" stroke="#191970" points="313.2502,-269.7222 323.77,-268.4639 314.7616,-262.8873 313.2502,-269.7222"/>
</g>
<!-- Node12 -->
<g id="node10" class="node">
<title>Node12</title>
<g id="a_node10"><a xlink:href="helloBye3_8cpp.html" target="_top" xlink:title="/home/dominik/uni/MoonState\l/src/helloBye3.cpp">
<polygon fill="none" stroke="#000000" points="219.2691,-201.5 219.2691,-231.5 366.2691,-231.5 366.2691,-201.5 219.2691,-201.5"/>
<text text-anchor="start" x="227.2691" y="-219.5" font-family="Helvetica,sans-Serif" font-size="10.00" fill="#000000">/home/dominik/uni/MoonState</text>
<text text-anchor="middle" x="292.7691" y="-208.5" font-family="Helvetica,sans-Serif" font-size="10.00" fill="#000000">/src/helloBye3.cpp</text>
</a>
</g>
</g>
<!-- Node4&#45;&gt;Node12 -->
<g id="edge10" class="edge">
<title>Node4&#45;&gt;Node12</title>
<path fill="none" stroke="#191970" d="M360.9293,-262.6286C346.1078,-252.5979 328.6716,-240.7976 315.1449,-231.6432"/>
<polygon fill="#191970" stroke="#191970" points="359.0611,-265.5904 369.3045,-268.2967 362.9845,-259.7932 359.0611,-265.5904"/>
</g>
<!-- Node14 -->
<g id="node12" class="node">
<title>Node14</title>
<g id="a_node12"><a xlink:href="helloBye3MemPool_8cpp.html" target="_top" xlink:title="/home/dominik/uni/MoonState\l/src/helloBye3MemPool.cpp">
<polygon fill="none" stroke="#000000" points="792.2691,-201.5 792.2691,-231.5 939.2691,-231.5 939.2691,-201.5 792.2691,-201.5"/>
<text text-anchor="start" x="800.2691" y="-219.5" font-family="Helvetica,sans-Serif" font-size="10.00" fill="#000000">/home/dominik/uni/MoonState</text>
<text text-anchor="middle" x="865.7691" y="-208.5" font-family="Helvetica,sans-Serif" font-size="10.00" fill="#000000">/src/helloBye3MemPool.cpp</text>
</a>
</g>
</g>
<!-- Node4&#45;&gt;Node14 -->
<g id="edge13" class="edge">
<title>Node4&#45;&gt;Node14</title>
<path fill="none" stroke="#191970" d="M480.9189,-273.1394C560.2976,-263.5855 679.5046,-248.4307 782.7691,-232 785.8092,-231.5163 788.9091,-231.0076 792.0385,-230.4814"/>
<polygon fill="#191970" stroke="#191970" points="480.4688,-269.6682 470.9568,-274.3341 481.3024,-276.6184 480.4688,-269.6682"/>
</g>
<!-- Node16 -->
<g id="node14" class="node">
<title>Node16</title>
<g id="a_node14"><a xlink:href="helloByeProto_8cpp.html" target="_top" xlink:title="/home/dominik/uni/MoonState\l/src/helloByeProto.cpp">
<polygon fill="none" stroke="#000000" points="627.2691,-201.5 627.2691,-231.5 774.2691,-231.5 774.2691,-201.5 627.2691,-201.5"/>
<text text-anchor="start" x="635.2691" y="-219.5" font-family="Helvetica,sans-Serif" font-size="10.00" fill="#000000">/home/dominik/uni/MoonState</text>
<text text-anchor="middle" x="700.7691" y="-208.5" font-family="Helvetica,sans-Serif" font-size="10.00" fill="#000000">/src/helloByeProto.cpp</text>
</a>
</g>
</g>
<!-- Node4&#45;&gt;Node16 -->
<g id="edge16" class="edge">
<title>Node4&#45;&gt;Node16</title>
<path fill="none" stroke="#191970" d="M471.1506,-266.2878C520.6926,-255.5457 583.8538,-241.8506 631.3882,-231.5438"/>
<polygon fill="#191970" stroke="#191970" points="470.146,-262.9243 461.1148,-268.4639 471.6294,-269.7653 470.146,-262.9243"/>
</g>
<!-- Node19 -->
<g id="node17" class="node">
<title>Node19</title>
<g id="a_node17"><a xlink:href="helloBye__C_8cpp.html" target="_top" xlink:title="/home/dominik/uni/MoonState\l/src/helloBye_C.cpp">
<polygon fill="none" stroke="#000000" points="525.2691,-.5 525.2691,-30.5 672.2691,-30.5 672.2691,-.5 525.2691,-.5"/>
<text text-anchor="start" x="533.2691" y="-18.5" font-family="Helvetica,sans-Serif" font-size="10.00" fill="#000000">/home/dominik/uni/MoonState</text>
<text text-anchor="middle" x="598.7691" y="-7.5" font-family="Helvetica,sans-Serif" font-size="10.00" fill="#000000">/src/helloBye_C.cpp</text>
</a>
</g>
</g>
<!-- Node4&#45;&gt;Node19 -->
<g id="edge22" class="edge">
<title>Node4&#45;&gt;Node19</title>
<path fill="none" stroke="#191970" d="M480.792,-268.9294C522.3504,-260.2251 565.56,-247.7754 578.7691,-232 628.5679,-172.5261 611.304,-69.0269 602.5549,-30.5076"/>
<polygon fill="#191970" stroke="#191970" points="479.9479,-265.5293 470.8451,-270.9504 481.3418,-272.3892 479.9479,-265.5293"/>
</g>
<!-- Node6 -->
<g id="node4" class="node">
<title>Node6</title>
<g id="a_node4"><a xlink:href="dtlsClient_8cpp.html" target="_top" xlink:title="/home/dominik/uni/MoonState\l/src/dtlsClient.cpp">
<polygon fill="none" stroke="#000000" points="347.2691,-67.5 347.2691,-97.5 494.2691,-97.5 494.2691,-67.5 347.2691,-67.5"/>
<text text-anchor="start" x="355.2691" y="-85.5" font-family="Helvetica,sans-Serif" font-size="10.00" fill="#000000">/home/dominik/uni/MoonState</text>
<text text-anchor="middle" x="420.7691" y="-74.5" font-family="Helvetica,sans-Serif" font-size="10.00" fill="#000000">/src/dtlsClient.cpp</text>
</a>
</g>
</g>
<!-- Node5&#45;&gt;Node6 -->
<g id="edge3" class="edge">
<title>Node5&#45;&gt;Node6</title>
<path fill="none" stroke="#191970" d="M420.7691,-124.0249C420.7691,-115.128 420.7691,-105.4287 420.7691,-97.6432"/>
<polygon fill="#191970" stroke="#191970" points="417.2692,-124.2966 420.7691,-134.2967 424.2692,-124.2967 417.2692,-124.2966"/>
</g>
<!-- Node7&#45;&gt;Node8 -->
<g id="edge5" class="edge">
<title>Node7&#45;&gt;Node8</title>
<path fill="none" stroke="#191970" d="M82.2076,-191.3179C81.7931,-182.3414 82.0624,-172.5143 83.0156,-164.6432"/>
<polygon fill="#191970" stroke="#191970" points="78.7196,-191.6087 83.0083,-201.2967 85.6971,-191.0487 78.7196,-191.6087"/>
</g>
<!-- Node8&#45;&gt;Node7 -->
<g id="edge8" class="edge">
<title>Node8&#45;&gt;Node7</title>
<path fill="none" stroke="#191970" d="M95.3275,-174.6135C95.7455,-183.5857 95.4796,-193.4156 94.5299,-201.2967"/>
<polygon fill="#191970" stroke="#191970" points="98.816,-174.3291 94.5227,-164.6432 91.8387,-174.8924 98.816,-174.3291"/>
</g>
<!-- Node9 -->
<g id="node7" class="node">
<title>Node9</title>
<g id="a_node7"><a xlink:href="helloBye2__C_8hpp.html" target="_top" xlink:title="/home/dominik/uni/MoonState\l/include/helloBye2_C.hpp">
<polygon fill="none" stroke="#000000" points="181.2691,-67.5 181.2691,-97.5 328.2691,-97.5 328.2691,-67.5 181.2691,-67.5"/>
<text text-anchor="start" x="189.2691" y="-85.5" font-family="Helvetica,sans-Serif" font-size="10.00" fill="#000000">/home/dominik/uni/MoonState</text>
<text text-anchor="middle" x="254.7691" y="-74.5" font-family="Helvetica,sans-Serif" font-size="10.00" fill="#000000">/include/helloBye2_C.hpp</text>
</a>
</g>
</g>
<!-- Node8&#45;&gt;Node9 -->
<g id="edge6" class="edge">
<title>Node8&#45;&gt;Node9</title>
<path fill="none" stroke="#191970" d="M135.6216,-130.5897C161.4826,-120.1518 193.1623,-107.3654 217.353,-97.6017"/>
<polygon fill="#191970" stroke="#191970" points="133.9859,-127.4754 126.0228,-134.4639 136.6059,-133.9667 133.9859,-127.4754"/>
</g>
<!-- Node11 -->
<g id="node9" class="node">
<title>Node11</title>
<g id="a_node9"><a xlink:href="helloBye2ProtoStatic_8cpp.html" target="_top" xlink:title="/home/dominik/uni/MoonState\l/src/helloBye2ProtoStatic.cpp">
<polygon fill="none" stroke="#000000" points="15.2691,-67.5 15.2691,-97.5 162.2691,-97.5 162.2691,-67.5 15.2691,-67.5"/>
<text text-anchor="start" x="23.2691" y="-85.5" font-family="Helvetica,sans-Serif" font-size="10.00" fill="#000000">/home/dominik/uni/MoonState</text>
<text text-anchor="middle" x="88.7691" y="-74.5" font-family="Helvetica,sans-Serif" font-size="10.00" fill="#000000">/src/helloBye2ProtoStatic.cpp</text>
</a>
</g>
</g>
<!-- Node8&#45;&gt;Node11 -->
<g id="edge9" class="edge">
<title>Node8&#45;&gt;Node11</title>
<path fill="none" stroke="#191970" d="M88.7691,-124.0249C88.7691,-115.128 88.7691,-105.4287 88.7691,-97.6432"/>
<polygon fill="#191970" stroke="#191970" points="85.2692,-124.2966 88.7691,-134.2967 92.2692,-124.2967 85.2692,-124.2966"/>
</g>
<!-- Node10 -->
<g id="node8" class="node">
<title>Node10</title>
<g id="a_node8"><a xlink:href="helloBye2__C_8cpp.html" target="_top" xlink:title="/home/dominik/uni/MoonState\l/src/helloBye2_C.cpp">
<polygon fill="none" stroke="#000000" points="271.2691,-.5 271.2691,-30.5 418.2691,-30.5 418.2691,-.5 271.2691,-.5"/>
<text text-anchor="start" x="279.2691" y="-18.5" font-family="Helvetica,sans-Serif" font-size="10.00" fill="#000000">/home/dominik/uni/MoonState</text>
<text text-anchor="middle" x="344.7691" y="-7.5" font-family="Helvetica,sans-Serif" font-size="10.00" fill="#000000">/src/helloBye2_C.cpp</text>
</a>
</g>
</g>
<!-- Node9&#45;&gt;Node10 -->
<g id="edge7" class="edge">
<title>Node9&#45;&gt;Node10</title>
<path fill="none" stroke="#191970" d="M283.5633,-61.0643C296.8707,-51.1577 312.3604,-39.6265 324.4276,-30.6432"/>
<polygon fill="#191970" stroke="#191970" points="281.1229,-58.5177 275.1915,-67.2967 285.3029,-64.1327 281.1229,-58.5177"/>
</g>
<!-- Node12&#45;&gt;Node13 -->
<g id="edge11" class="edge">
<title>Node12&#45;&gt;Node13</title>
<path fill="none" stroke="#191970" d="M273.1785,-192.7735C267.4952,-183.4154 261.9562,-172.9421 258.3782,-164.6432"/>
<polygon fill="#191970" stroke="#191970" points="270.2853,-194.7461 278.6124,-201.2967 276.1878,-190.983 270.2853,-194.7461"/>
</g>
<!-- Node13&#45;&gt;Node12 -->
<g id="edge12" class="edge">
<title>Node13&#45;&gt;Node12</title>
<path fill="none" stroke="#191970" d="M275.3186,-173.1587C281.0026,-182.5115 286.5466,-192.9873 290.1341,-201.2967"/>
<polygon fill="#191970" stroke="#191970" points="278.2147,-171.1908 269.8853,-164.6432 272.3136,-174.956 278.2147,-171.1908"/>
</g>
<!-- Node14&#45;&gt;Node15 -->
<g id="edge14" class="edge">
<title>Node14&#45;&gt;Node15</title>
<path fill="none" stroke="#191970" d="M861.0954,-191.0249C861.3641,-182.128 862.3617,-172.4287 863.8855,-164.6432"/>
<polygon fill="#191970" stroke="#191970" points="857.5966,-191.313 861.1429,-201.2967 864.5965,-191.2806 857.5966,-191.313"/>
</g>
<!-- Node15&#45;&gt;Node14 -->
<g id="edge15" class="edge">
<title>Node15&#45;&gt;Node14</title>
<path fill="none" stroke="#191970" d="M875.4449,-174.9064C875.18,-183.7991 874.1857,-193.5013 872.6645,-201.2967"/>
<polygon fill="#191970" stroke="#191970" points="878.9436,-174.6252 875.3926,-164.6432 871.9437,-174.6609 878.9436,-174.6252"/>
</g>
<!-- Node17 -->
<g id="node15" class="node">
<title>Node17</title>
<g id="a_node15"><a xlink:href="helloByeProto_8hpp.html" target="_top" xlink:title="/home/dominik/uni/MoonState\l/include/helloByeProto.hpp">
<polygon fill="none" stroke="#000000" points="627.2691,-134.5 627.2691,-164.5 774.2691,-164.5 774.2691,-134.5 627.2691,-134.5"/>
<text text-anchor="start" x="635.2691" y="-152.5" font-family="Helvetica,sans-Serif" font-size="10.00" fill="#000000">/home/dominik/uni/MoonState</text>
<text text-anchor="middle" x="700.7691" y="-141.5" font-family="Helvetica,sans-Serif" font-size="10.00" fill="#000000">/include/helloByeProto.hpp</text>
</a>
</g>
</g>
<!-- Node16&#45;&gt;Node17 -->
<g id="edge17" class="edge">
<title>Node16&#45;&gt;Node17</title>
<path fill="none" stroke="#191970" d="M694.2076,-191.3179C693.7931,-182.3414 694.0624,-172.5143 695.0156,-164.6432"/>
<polygon fill="#191970" stroke="#191970" points="690.7196,-191.6087 695.0083,-201.2967 697.6971,-191.0487 690.7196,-191.6087"/>
</g>
<!-- Node17&#45;&gt;Node16 -->
<g id="edge20" class="edge">
<title>Node17&#45;&gt;Node16</title>
<path fill="none" stroke="#191970" d="M707.3275,-174.6135C707.7455,-183.5857 707.4796,-193.4156 706.5299,-201.2967"/>
<polygon fill="#191970" stroke="#191970" points="710.816,-174.3291 706.5227,-164.6432 703.8387,-174.8924 710.816,-174.3291"/>
</g>
<!-- Node18 -->
<g id="node16" class="node">
<title>Node18</title>
<g id="a_node16"><a xlink:href="helloBye__C_8hpp.html" target="_top" xlink:title="/home/dominik/uni/MoonState\l/include/helloBye_C.hpp">
<polygon fill="none" stroke="#000000" points="792.2691,-67.5 792.2691,-97.5 939.2691,-97.5 939.2691,-67.5 792.2691,-67.5"/>
<text text-anchor="start" x="800.2691" y="-85.5" font-family="Helvetica,sans-Serif" font-size="10.00" fill="#000000">/home/dominik/uni/MoonState</text>
<text text-anchor="middle" x="865.7691" y="-74.5" font-family="Helvetica,sans-Serif" font-size="10.00" fill="#000000">/include/helloBye_C.hpp</text>
</a>
</g>
</g>
<!-- Node17&#45;&gt;Node18 -->
<g id="edge18" class="edge">
<title>Node17&#45;&gt;Node18</title>
<path fill="none" stroke="#191970" d="M747.3394,-130.5897C773.0446,-120.1518 804.5334,-107.3654 828.5784,-97.6017"/>
<polygon fill="#191970" stroke="#191970" points="745.7468,-127.4587 737.7983,-134.4639 748.3804,-133.9444 745.7468,-127.4587"/>
</g>
<!-- Node20 -->
<g id="node18" class="node">
<title>Node20</title>
<g id="a_node18"><a xlink:href="helloByeProtoStatic_8cpp.html" target="_top" xlink:title="/home/dominik/uni/MoonState\l/src/helloByeProtoStatic.cpp">
<polygon fill="none" stroke="#000000" points="627.2691,-67.5 627.2691,-97.5 774.2691,-97.5 774.2691,-67.5 627.2691,-67.5"/>
<text text-anchor="start" x="635.2691" y="-85.5" font-family="Helvetica,sans-Serif" font-size="10.00" fill="#000000">/home/dominik/uni/MoonState</text>
<text text-anchor="middle" x="700.7691" y="-74.5" font-family="Helvetica,sans-Serif" font-size="10.00" fill="#000000">/src/helloByeProtoStatic.cpp</text>
</a>
</g>
</g>
<!-- Node17&#45;&gt;Node20 -->
<g id="edge21" class="edge">
<title>Node17&#45;&gt;Node20</title>
<path fill="none" stroke="#191970" d="M700.7691,-124.0249C700.7691,-115.128 700.7691,-105.4287 700.7691,-97.6432"/>
<polygon fill="#191970" stroke="#191970" points="697.2692,-124.2966 700.7691,-134.2967 704.2692,-124.2967 697.2692,-124.2966"/>
</g>
<!-- Node18&#45;&gt;Node19 -->
<g id="edge19" class="edge">
<title>Node18&#45;&gt;Node19</title>
<path fill="none" stroke="#191970" d="M796.1199,-65.0225C753.5539,-54.3411 699.6595,-40.8171 658.9505,-30.6017"/>
<polygon fill="#191970" stroke="#191970" points="795.2979,-68.4247 805.8491,-67.4639 797.0017,-61.6352 795.2979,-68.4247"/>
</g>
<!-- Node21&#45;&gt;Node5 -->
<g id="edge24" class="edge">
<title>Node21&#45;&gt;Node5</title>
<path fill="none" stroke="#191970" d="M471.8099,-194.4965C460.7194,-184.7193 447.9424,-173.4554 437.9465,-164.6432"/>
<polygon fill="#191970" stroke="#191970" points="469.7077,-197.3091 479.5236,-201.2967 474.3368,-192.0582 469.7077,-197.3091"/>
</g>
<!-- Node21&#45;&gt;Node8 -->
<g id="edge25" class="edge">
<title>Node21&#45;&gt;Node8</title>
<path fill="none" stroke="#191970" d="M412.7513,-203.7311C347.2896,-193.6408 254.1605,-178.9757 172.7691,-165 169.4075,-164.4228 165.9719,-163.8242 162.5028,-163.2127"/>
<polygon fill="#191970" stroke="#191970" points="412.5979,-207.2486 423.0139,-205.3105 413.6627,-200.3301 412.5979,-207.2486"/>
</g>
<!-- Node21&#45;&gt;Node10 -->
<g id="edge29" class="edge">
<title>Node21&#45;&gt;Node10</title>
<path fill="none" stroke="#191970" d="M506.3657,-191.6532C516.984,-159.5961 529.342,-103.6102 502.7691,-67 492.1347,-52.3486 453.9549,-39.6855 417.7929,-30.5823"/>
<polygon fill="#191970" stroke="#191970" points="503.0363,-190.5708 503.0308,-201.1656 509.6422,-192.8867 503.0363,-190.5708"/>
</g>
<!-- Node21&#45;&gt;Node13 -->
<g id="edge26" class="edge">
<title>Node21&#45;&gt;Node13</title>
<path fill="none" stroke="#191970" d="M432.6856,-198.6842C394.4584,-188.0568 346.4482,-174.7095 310.0901,-164.6017"/>
<polygon fill="#191970" stroke="#191970" points="432.1119,-202.1574 442.684,-201.4639 433.9869,-195.4132 432.1119,-202.1574"/>
</g>
<!-- Node21&#45;&gt;Node15 -->
<g id="edge27" class="edge">
<title>Node21&#45;&gt;Node15</title>
<path fill="none" stroke="#191970" d="M580.6335,-201.4762C644.057,-190.1142 730.5128,-174.6261 792.5195,-163.518"/>
<polygon fill="#191970" stroke="#191970" points="579.8856,-198.0543 570.6595,-203.263 581.12,-204.9447 579.8856,-198.0543"/>
</g>
<!-- Node21&#45;&gt;Node17 -->
<g id="edge28" class="edge">
<title>Node21&#45;&gt;Node17</title>
<path fill="none" stroke="#191970" d="M552.2574,-198.2759C584.4084,-187.7165 624.4047,-174.5805 654.7879,-164.6017"/>
<polygon fill="#191970" stroke="#191970" points="550.9593,-195.0182 542.5507,-201.4639 553.1436,-201.6687 550.9593,-195.0182"/>
</g>
<!-- Node21&#45;&gt;Node19 -->
<g id="edge30" class="edge">
<title>Node21&#45;&gt;Node19</title>
<path fill="none" stroke="#191970" d="M516.5695,-193.7336C523.5015,-185.0949 530.9897,-174.9378 536.7691,-165 563.7493,-118.6071 584.9827,-58.221 594.0259,-30.5471"/>
<polygon fill="#191970" stroke="#191970" points="513.8313,-191.5528 510.1677,-201.4941 519.2311,-196.0073 513.8313,-191.5528"/>
</g>
</g>
</svg>
