<?xml version="1.0" encoding="UTF-8" standalone="no"?>
<!DOCTYPE svg PUBLIC "-//W3C//DTD SVG 1.1//EN"
 "http://www.w3.org/Graphics/SVG/1.1/DTD/svg11.dtd">
<!-- Generated by graphviz version 2.38.0 (20140413.2041)
 -->
<!-- Title: /home/dominik/uni/MoonState/include/exceptions.hpp Pages: 1 -->
<svg width="1109pt" height="307pt"
 viewBox="0.00 0.00 1109.00 307.00" xmlns="http://www.w3.org/2000/svg" xmlns:xlink="http://www.w3.org/1999/xlink">
<g id="graph0" class="graph" transform="scale(1 1) rotate(0) translate(4 303)">
<title>/home/dominik/uni/MoonState/include/exceptions.hpp</title>
<!-- Node1 -->
<g id="node1" class="node"><title>Node1</title>
<polygon fill="#bfbfbf" stroke="black" points="292,-268.5 292,-298.5 439,-298.5 439,-268.5 292,-268.5"/>
<text text-anchor="start" x="300" y="-286.5" font-family="Helvetica,sans-Serif" font-size="10.00">/home/dominik/uni/MoonState</text>
<text text-anchor="middle" x="365.5" y="-275.5" font-family="Helvetica,sans-Serif" font-size="10.00">/include/exceptions.hpp</text>
</g>
<!-- Node2 -->
<g id="node2" class="node"><title>Node2</title>
<g id="a_node2"><a xlink:href="helloBye2Proto_8hpp.html" target="_top" xlink:title="/home/dominik/uni/MoonState\l/include/helloBye2Proto.hpp">
<polygon fill="none" stroke="black" points="262,-134.5 262,-164.5 409,-164.5 409,-134.5 262,-134.5"/>
<text text-anchor="start" x="270" y="-152.5" font-family="Helvetica,sans-Serif" font-size="10.00">/home/dominik/uni/MoonState</text>
<text text-anchor="middle" x="335.5" y="-141.5" font-family="Helvetica,sans-Serif" font-size="10.00">/include/helloBye2Proto.hpp</text>
</a>
</g>
</g>
<!-- Node1&#45;&gt;Node2 -->
<g id="edge1" class="edge"><title>Node1&#45;&gt;Node2</title>
<path fill="none" stroke="midnightblue" d="M360.02,-258.39C353.773,-230.901 343.77,-186.888 338.687,-164.525"/>
<polygon fill="midnightblue" stroke="midnightblue" points="356.66,-259.398 362.289,-268.374 363.486,-257.847 356.66,-259.398"/>
</g>
<!-- Node7 -->
<g id="node7" class="node"><title>Node7</title>
<g id="a_node7"><a xlink:href="stateMachine_8hpp.html" target="_top" xlink:title="/home/dominik/uni/MoonState\l/include/stateMachine.hpp">
<polygon fill="none" stroke="black" points="190,-201.5 190,-231.5 337,-231.5 337,-201.5 190,-201.5"/>
<text text-anchor="start" x="198" y="-219.5" font-family="Helvetica,sans-Serif" font-size="10.00">/home/dominik/uni/MoonState</text>
<text text-anchor="middle" x="263.5" y="-208.5" font-family="Helvetica,sans-Serif" font-size="10.00">/include/stateMachine.hpp</text>
</a>
</g>
</g>
<!-- Node1&#45;&gt;Node7 -->
<g id="edge7" class="edge"><title>Node1&#45;&gt;Node7</title>
<path fill="none" stroke="midnightblue" d="M334.924,-263.015C319.051,-252.9 300.016,-240.77 285.589,-231.577"/>
<polygon fill="midnightblue" stroke="midnightblue" points="333.053,-265.973 343.368,-268.396 336.815,-260.07 333.053,-265.973"/>
</g>
<!-- Node13 -->
<g id="node13" class="node"><title>Node13</title>
<g id="a_node13"><a xlink:href="IPv4__5TupleL2Ident_8hpp.html" target="_top" xlink:title="/home/dominik/uni/MoonState\l/include/IPv4_5TupleL2Ident.hpp">
<polygon fill="none" stroke="black" points="434.5,-134.5 434.5,-164.5 592.5,-164.5 592.5,-134.5 434.5,-134.5"/>
<text text-anchor="start" x="442.5" y="-152.5" font-family="Helvetica,sans-Serif" font-size="10.00">/home/dominik/uni/MoonState</text>
<text text-anchor="middle" x="513.5" y="-141.5" font-family="Helvetica,sans-Serif" font-size="10.00">/include/IPv4_5TupleL2Ident.hpp</text>
</a>
</g>
</g>
<!-- Node1&#45;&gt;Node13 -->
<g id="edge17" class="edge"><title>Node1&#45;&gt;Node13</title>
<path fill="none" stroke="midnightblue" d="M388.942,-261.593C419.384,-234.441 471.702,-187.779 497.775,-164.525"/>
<polygon fill="midnightblue" stroke="midnightblue" points="386.472,-259.105 381.339,-268.374 391.131,-264.33 386.472,-259.105"/>
</g>
<!-- Node3 -->
<g id="node3" class="node"><title>Node3</title>
<g id="a_node3"><a xlink:href="helloBye2__C_8hpp.html" target="_top" xlink:title="/home/dominik/uni/MoonState\l/include/helloBye2_C.hpp">
<polygon fill="none" stroke="black" points="51,-67.5 51,-97.5 198,-97.5 198,-67.5 51,-67.5"/>
<text text-anchor="start" x="59" y="-85.5" font-family="Helvetica,sans-Serif" font-size="10.00">/home/dominik/uni/MoonState</text>
<text text-anchor="middle" x="124.5" y="-74.5" font-family="Helvetica,sans-Serif" font-size="10.00">/include/helloBye2_C.hpp</text>
</a>
</g>
</g>
<!-- Node2&#45;&gt;Node3 -->
<g id="edge2" class="edge"><title>Node2&#45;&gt;Node3</title>
<path fill="none" stroke="midnightblue" d="M280.134,-131.444C245.931,-120.908 202.568,-107.549 170.306,-97.6109"/>
<polygon fill="midnightblue" stroke="midnightblue" points="279.389,-134.877 289.976,-134.476 281.45,-128.187 279.389,-134.877"/>
</g>
<!-- Node5 -->
<g id="node5" class="node"><title>Node5</title>
<g id="a_node5"><a xlink:href="helloBye2Proto_8cpp.html" target="_top" xlink:title="/home/dominik/uni/MoonState\l/src/helloBye2Proto.cpp">
<polygon fill="none" stroke="black" points="420,-67.5 420,-97.5 567,-97.5 567,-67.5 420,-67.5"/>
<text text-anchor="start" x="428" y="-85.5" font-family="Helvetica,sans-Serif" font-size="10.00">/home/dominik/uni/MoonState</text>
<text text-anchor="middle" x="493.5" y="-74.5" font-family="Helvetica,sans-Serif" font-size="10.00">/src/helloBye2Proto.cpp</text>
</a>
</g>
</g>
<!-- Node2&#45;&gt;Node5 -->
<g id="edge4" class="edge"><title>Node2&#45;&gt;Node5</title>
<path fill="none" stroke="midnightblue" d="M373.359,-130.407C397.617,-120.029 428.963,-107.195 453.608,-97.5765"/>
<polygon fill="midnightblue" stroke="midnightblue" points="371.903,-127.223 364.105,-134.396 374.674,-133.651 371.903,-127.223"/>
</g>
<!-- Node6 -->
<g id="node6" class="node"><title>Node6</title>
<g id="a_node6"><a xlink:href="helloBye2ProtoStatic_8cpp.html" target="_top" xlink:title="/home/dominik/uni/MoonState\l/src/helloBye2ProtoStatic.cpp">
<polygon fill="none" stroke="black" points="255,-67.5 255,-97.5 402,-97.5 402,-67.5 255,-67.5"/>
<text text-anchor="start" x="263" y="-85.5" font-family="Helvetica,sans-Serif" font-size="10.00">/home/dominik/uni/MoonState</text>
<text text-anchor="middle" x="328.5" y="-74.5" font-family="Helvetica,sans-Serif" font-size="10.00">/src/helloBye2ProtoStatic.cpp</text>
</a>
</g>
</g>
<!-- Node2&#45;&gt;Node6 -->
<g id="edge6" class="edge"><title>Node2&#45;&gt;Node6</title>
<path fill="none" stroke="midnightblue" d="M332.905,-124.403C331.932,-115.37 330.859,-105.408 330.016,-97.5765"/>
<polygon fill="midnightblue" stroke="midnightblue" points="329.43,-124.828 333.981,-134.396 336.39,-124.079 329.43,-124.828"/>
</g>
<!-- Node4 -->
<g id="node4" class="node"><title>Node4</title>
<g id="a_node4"><a xlink:href="helloBye2__C_8cpp.html" target="_top" xlink:title="/home/dominik/uni/MoonState\l/src/helloBye2_C.cpp">
<polygon fill="none" stroke="black" points="0,-0.5 0,-30.5 147,-30.5 147,-0.5 0,-0.5"/>
<text text-anchor="start" x="8" y="-18.5" font-family="Helvetica,sans-Serif" font-size="10.00">/home/dominik/uni/MoonState</text>
<text text-anchor="middle" x="73.5" y="-7.5" font-family="Helvetica,sans-Serif" font-size="10.00">/src/helloBye2_C.cpp</text>
</a>
</g>
</g>
<!-- Node3&#45;&gt;Node4 -->
<g id="edge3" class="edge"><title>Node3&#45;&gt;Node4</title>
<path fill="none" stroke="midnightblue" d="M107.197,-59.4472C99.7051,-49.8986 91.1567,-39.0037 84.5446,-30.5765"/>
<polygon fill="midnightblue" stroke="midnightblue" points="104.507,-61.6891 113.434,-67.396 110.014,-57.368 104.507,-61.6891"/>
</g>
<!-- Node5&#45;&gt;Node2 -->
<g id="edge5" class="edge"><title>Node5&#45;&gt;Node2</title>
<path fill="none" stroke="midnightblue" d="M455.711,-101.564C431.466,-111.936 400.121,-124.771 375.462,-134.396"/>
<polygon fill="midnightblue" stroke="midnightblue" points="457.161,-104.75 464.958,-97.5765 454.389,-98.3219 457.161,-104.75"/>
</g>
<!-- Node7&#45;&gt;Node2 -->
<g id="edge8" class="edge"><title>Node7&#45;&gt;Node2</title>
<path fill="none" stroke="midnightblue" d="M286.653,-194.598C297.525,-184.783 310.196,-173.344 319.908,-164.577"/>
<polygon fill="midnightblue" stroke="midnightblue" points="284.2,-192.097 279.123,-201.396 288.891,-197.293 284.2,-192.097"/>
</g>
<!-- Node7&#45;&gt;Node4 -->
<g id="edge15" class="edge"><title>Node7&#45;&gt;Node4</title>
<path fill="none" stroke="midnightblue" d="M191.267,-198.428C139.628,-182.037 73.7804,-151.608 41.5,-98 28.2481,-75.9924 46.4386,-47.5235 60.333,-30.7153"/>
<polygon fill="midnightblue" stroke="midnightblue" points="190.475,-201.846 201.061,-201.424 192.523,-195.152 190.475,-201.846"/>
</g>
<!-- Node8 -->
<g id="node8" class="node"><title>Node8</title>
<g id="a_node8"><a xlink:href="helloByeProto_8hpp.html" target="_top" xlink:title="/home/dominik/uni/MoonState\l/include/helloByeProto.hpp">
<polygon fill="none" stroke="black" points="624,-134.5 624,-164.5 771,-164.5 771,-134.5 624,-134.5"/>
<text text-anchor="start" x="632" y="-152.5" font-family="Helvetica,sans-Serif" font-size="10.00">/home/dominik/uni/MoonState</text>
<text text-anchor="middle" x="697.5" y="-141.5" font-family="Helvetica,sans-Serif" font-size="10.00">/include/helloByeProto.hpp</text>
</a>
</g>
</g>
<!-- Node7&#45;&gt;Node8 -->
<g id="edge9" class="edge"><title>Node7&#45;&gt;Node8</title>
<path fill="none" stroke="midnightblue" d="M347.307,-203.017C415.706,-192.819 514.857,-178.016 601.5,-165 608.751,-163.911 616.309,-162.773 623.862,-161.635"/>
<polygon fill="midnightblue" stroke="midnightblue" points="346.396,-199.614 337.022,-204.55 347.429,-206.537 346.396,-199.614"/>
</g>
<!-- Node10 -->
<g id="node10" class="node"><title>Node10</title>
<g id="a_node10"><a xlink:href="helloBye__C_8cpp.html" target="_top" xlink:title="/home/dominik/uni/MoonState\l/src/helloBye_C.cpp">
<polygon fill="none" stroke="black" points="522,-0.5 522,-30.5 669,-30.5 669,-0.5 522,-0.5"/>
<text text-anchor="start" x="530" y="-18.5" font-family="Helvetica,sans-Serif" font-size="10.00">/home/dominik/uni/MoonState</text>
<text text-anchor="middle" x="595.5" y="-7.5" font-family="Helvetica,sans-Serif" font-size="10.00">/src/helloBye_C.cpp</text>
</a>
</g>
</g>
<!-- Node7&#45;&gt;Node10 -->
<g id="edge16" class="edge"><title>Node7&#45;&gt;Node10</title>
<path fill="none" stroke="midnightblue" d="M250.98,-192.071C235.674,-159.842 215.301,-101.87 245.5,-67 280.518,-26.5672 430.021,-17.7799 521.934,-16.2908"/>
<polygon fill="midnightblue" stroke="midnightblue" points="247.926,-193.79 255.506,-201.192 254.196,-190.679 247.926,-193.79"/>
</g>
<!-- Node9 -->
<g id="node9" class="node"><title>Node9</title>
<g id="a_node9"><a xlink:href="helloBye__C_8hpp.html" target="_top" xlink:title="/home/dominik/uni/MoonState\l/include/helloBye_C.hpp">
<polygon fill="none" stroke="black" points="789,-67.5 789,-97.5 936,-97.5 936,-67.5 789,-67.5"/>
<text text-anchor="start" x="797" y="-85.5" font-family="Helvetica,sans-Serif" font-size="10.00">/home/dominik/uni/MoonState</text>
<text text-anchor="middle" x="862.5" y="-74.5" font-family="Helvetica,sans-Serif" font-size="10.00">/include/helloBye_C.hpp</text>
</a>
</g>
</g>
<!-- Node8&#45;&gt;Node9 -->
<g id="edge10" class="edge"><title>Node8&#45;&gt;Node9</title>
<path fill="none" stroke="midnightblue" d="M742.732,-130.682C769.194,-120.257 802.134,-107.281 826.767,-97.5765"/>
<polygon fill="midnightblue" stroke="midnightblue" points="741.324,-127.474 733.303,-134.396 743.889,-133.987 741.324,-127.474"/>
</g>
<!-- Node11 -->
<g id="node11" class="node"><title>Node11</title>
<g id="a_node11"><a xlink:href="helloByeProto_8cpp.html" target="_top" xlink:title="/home/dominik/uni/MoonState\l/src/helloByeProto.cpp">
<polygon fill="none" stroke="black" points="624,-67.5 624,-97.5 771,-97.5 771,-67.5 624,-67.5"/>
<text text-anchor="start" x="632" y="-85.5" font-family="Helvetica,sans-Serif" font-size="10.00">/home/dominik/uni/MoonState</text>
<text text-anchor="middle" x="697.5" y="-74.5" font-family="Helvetica,sans-Serif" font-size="10.00">/src/helloByeProto.cpp</text>
</a>
</g>
</g>
<!-- Node8&#45;&gt;Node11 -->
<g id="edge12" class="edge"><title>Node8&#45;&gt;Node11</title>
<path fill="none" stroke="midnightblue" d="M690.955,-124.403C690.505,-115.37 690.796,-105.408 691.825,-97.5765"/>
<polygon fill="midnightblue" stroke="midnightblue" points="687.47,-124.736 691.822,-134.396 694.444,-124.131 687.47,-124.736"/>
</g>
<!-- Node12 -->
<g id="node12" class="node"><title>Node12</title>
<g id="a_node12"><a xlink:href="helloByeProtoStatic_8cpp.html" target="_top" xlink:title="/home/dominik/uni/MoonState\l/src/helloByeProtoStatic.cpp">
<polygon fill="none" stroke="black" points="954,-67.5 954,-97.5 1101,-97.5 1101,-67.5 954,-67.5"/>
<text text-anchor="start" x="962" y="-85.5" font-family="Helvetica,sans-Serif" font-size="10.00">/home/dominik/uni/MoonState</text>
<text text-anchor="middle" x="1027.5" y="-74.5" font-family="Helvetica,sans-Serif" font-size="10.00">/src/helloByeProtoStatic.cpp</text>
</a>
</g>
</g>
<!-- Node8&#45;&gt;Node12 -->
<g id="edge14" class="edge"><title>Node8&#45;&gt;Node12</title>
<path fill="none" stroke="midnightblue" d="M778.65,-132.516C833.02,-121.807 903.933,-107.839 956.145,-97.5549"/>
<polygon fill="midnightblue" stroke="midnightblue" points="777.834,-129.109 768.699,-134.476 779.187,-135.977 777.834,-129.109"/>
</g>
<!-- Node9&#45;&gt;Node10 -->
<g id="edge11" class="edge"><title>Node9&#45;&gt;Node10</title>
<path fill="none" stroke="midnightblue" d="M794.935,-65.0515C751.284,-54.425 695.076,-40.7414 653.463,-30.6109"/>
<polygon fill="midnightblue" stroke="midnightblue" points="794.35,-68.5112 804.894,-67.476 796.005,-61.7099 794.35,-68.5112"/>
</g>
<!-- Node11&#45;&gt;Node8 -->
<g id="edge13" class="edge"><title>Node11&#45;&gt;Node8</title>
<path fill="none" stroke="midnightblue" d="M704.044,-107.565C704.495,-116.596 704.206,-126.56 703.178,-134.396"/>
<polygon fill="midnightblue" stroke="midnightblue" points="707.528,-107.236 703.175,-97.5765 700.555,-107.842 707.528,-107.236"/>
</g>
<!-- Node13&#45;&gt;Node5 -->
<g id="edge18" class="edge"><title>Node13&#45;&gt;Node5</title>
<path fill="none" stroke="midnightblue" d="M506.176,-124.697C503.373,-115.587 500.267,-105.493 497.831,-97.5765"/>
<polygon fill="midnightblue" stroke="midnightblue" points="502.874,-125.867 509.16,-134.396 509.565,-123.809 502.874,-125.867"/>
</g>
<!-- Node13&#45;&gt;Node10 -->
<g id="edge20" class="edge"><title>Node13&#45;&gt;Node10</title>
<path fill="none" stroke="midnightblue" d="M545.855,-128.461C556.728,-120.252 567.99,-109.874 575.5,-98 588.817,-76.9447 593.267,-47.6541 594.754,-30.5246"/>
<polygon fill="midnightblue" stroke="midnightblue" points="543.782,-125.641 537.684,-134.305 547.854,-131.334 543.782,-125.641"/>
</g>
<!-- Node13&#45;&gt;Node11 -->
<g id="edge19" class="edge"><title>Node13&#45;&gt;Node11</title>
<path fill="none" stroke="midnightblue" d="M563.165,-130.955C592.805,-120.485 629.942,-107.366 657.653,-97.5765"/>
<polygon fill="midnightblue" stroke="midnightblue" points="561.688,-127.765 553.425,-134.396 564.02,-134.365 561.688,-127.765"/>
</g>
</g>
</svg>
