<?xml version="1.0" encoding="UTF-8" standalone="no"?>
<!DOCTYPE svg PUBLIC "-//W3C//DTD SVG 1.1//EN"
 "http://www.w3.org/Graphics/SVG/1.1/DTD/svg11.dtd">
<!-- Generated by graphviz version 2.38.0 (20140413.2041)
 -->
<!-- Title: /home/dominik/uni/MoonState/include/exceptions.hpp Pages: 1 -->
<svg width="522pt" height="307pt"
 viewBox="0.00 0.00 521.99 307.00" xmlns="http://www.w3.org/2000/svg" xmlns:xlink="http://www.w3.org/1999/xlink">
<g id="graph0" class="graph" transform="scale(1 1) rotate(0) translate(4 303)">
<title>/home/dominik/uni/MoonState/include/exceptions.hpp</title>
<!-- Node1 -->
<g id="node1" class="node"><title>Node1</title>
<polygon fill="#bfbfbf" stroke="black" points="255.587,-268.5 255.587,-298.5 402.587,-298.5 402.587,-268.5 255.587,-268.5"/>
<text text-anchor="start" x="263.587" y="-286.5" font-family="Helvetica,sans-Serif" font-size="10.00">/home/dominik/uni/MoonState</text>
<text text-anchor="middle" x="329.087" y="-275.5" font-family="Helvetica,sans-Serif" font-size="10.00">/include/exceptions.hpp</text>
</g>
<!-- Node2 -->
<g id="node2" class="node"><title>Node2</title>
<g id="a_node2"><a xlink:href="stateMachine_8hpp.html" target="_top" xlink:title="/home/dominik/uni/MoonState\l/include/stateMachine.hpp">
<polygon fill="none" stroke="black" points="187.587,-201.5 187.587,-231.5 334.587,-231.5 334.587,-201.5 187.587,-201.5"/>
<text text-anchor="start" x="195.587" y="-219.5" font-family="Helvetica,sans-Serif" font-size="10.00">/home/dominik/uni/MoonState</text>
<text text-anchor="middle" x="261.087" y="-208.5" font-family="Helvetica,sans-Serif" font-size="10.00">/include/stateMachine.hpp</text>
</a>
</g>
</g>
<!-- Node1&#45;&gt;Node2 -->
<g id="edge1" class="edge"><title>Node1&#45;&gt;Node2</title>
<path fill="none" stroke="midnightblue" d="M306.921,-261.311C296.721,-251.561 284.897,-240.259 275.814,-231.577"/>
<polygon fill="midnightblue" stroke="midnightblue" points="304.685,-264.016 314.332,-268.396 309.522,-258.956 304.685,-264.016"/>
</g>
<!-- Node8 -->
<g id="node8" class="node"><title>Node8</title>
<g id="a_node8"><a xlink:href="IPv4__5TupleL2Ident_8hpp.html" target="_top" xlink:title="/home/dominik/uni/MoonState\l/include/IPv4_5TupleL2Ident.hpp">
<polygon fill="none" stroke="black" points="353.087,-134.5 353.087,-164.5 511.087,-164.5 511.087,-134.5 353.087,-134.5"/>
<text text-anchor="start" x="361.087" y="-152.5" font-family="Helvetica,sans-Serif" font-size="10.00">/home/dominik/uni/MoonState</text>
<text text-anchor="middle" x="432.087" y="-141.5" font-family="Helvetica,sans-Serif" font-size="10.00">/include/IPv4_5TupleL2Ident.hpp</text>
</a>
</g>
</g>
<!-- Node1&#45;&gt;Node8 -->
<g id="edge9" class="edge"><title>Node1&#45;&gt;Node8</title>
<path fill="none" stroke="midnightblue" d="M346.496,-260.189C367.822,-232.859 403.307,-187.383 421.144,-164.525"/>
<polygon fill="midnightblue" stroke="midnightblue" points="343.503,-258.337 340.11,-268.374 349.021,-262.643 343.503,-258.337"/>
</g>
<!-- Node3 -->
<g id="node3" class="node"><title>Node3</title>
<g id="a_node3"><a xlink:href="helloByeProto_8hpp.html" target="_top" xlink:title="/home/dominik/uni/MoonState\l/include/helloByeProto.hpp">
<polygon fill="none" stroke="black" points="187.587,-134.5 187.587,-164.5 334.587,-164.5 334.587,-134.5 187.587,-134.5"/>
<text text-anchor="start" x="195.587" y="-152.5" font-family="Helvetica,sans-Serif" font-size="10.00">/home/dominik/uni/MoonState</text>
<text text-anchor="middle" x="261.087" y="-141.5" font-family="Helvetica,sans-Serif" font-size="10.00">/include/helloByeProto.hpp</text>
</a>
</g>
</g>
<!-- Node2&#45;&gt;Node3 -->
<g id="edge2" class="edge"><title>Node2&#45;&gt;Node3</title>
<path fill="none" stroke="midnightblue" d="M261.087,-191.108C261.087,-182.154 261.087,-172.323 261.087,-164.577"/>
<polygon fill="midnightblue" stroke="midnightblue" points="257.587,-191.396 261.087,-201.396 264.587,-191.396 257.587,-191.396"/>
</g>
<!-- Node5 -->
<g id="node5" class="node"><title>Node5</title>
<g id="a_node5"><a xlink:href="helloBye__C_8cpp.html" target="_top" xlink:title="/home/dominik/uni/MoonState\l/src/helloBye_C.cpp">
<polygon fill="none" stroke="black" points="187.587,-0.5 187.587,-30.5 334.587,-30.5 334.587,-0.5 187.587,-0.5"/>
<text text-anchor="start" x="195.587" y="-18.5" font-family="Helvetica,sans-Serif" font-size="10.00">/home/dominik/uni/MoonState</text>
<text text-anchor="middle" x="261.087" y="-7.5" font-family="Helvetica,sans-Serif" font-size="10.00">/src/helloBye_C.cpp</text>
</a>
</g>
</g>
<!-- Node2&#45;&gt;Node5 -->
<g id="edge8" class="edge"><title>Node2&#45;&gt;Node5</title>
<path fill="none" stroke="midnightblue" d="M178.908,-199.152C87.3533,-177.277 -41.1319,-133.373 13.0874,-67 34.8043,-40.4152 122.398,-27.4699 187.363,-21.4178"/>
<polygon fill="midnightblue" stroke="midnightblue" points="178.224,-202.587 188.758,-201.456 179.818,-195.771 178.224,-202.587"/>
</g>
<!-- Node4 -->
<g id="node4" class="node"><title>Node4</title>
<g id="a_node4"><a xlink:href="helloBye__C_8hpp.html" target="_top" xlink:title="/home/dominik/uni/MoonState\l/include/helloBye_C.hpp">
<polygon fill="none" stroke="black" points="187.587,-67.5 187.587,-97.5 334.587,-97.5 334.587,-67.5 187.587,-67.5"/>
<text text-anchor="start" x="195.587" y="-85.5" font-family="Helvetica,sans-Serif" font-size="10.00">/home/dominik/uni/MoonState</text>
<text text-anchor="middle" x="261.087" y="-74.5" font-family="Helvetica,sans-Serif" font-size="10.00">/include/helloBye_C.hpp</text>
</a>
</g>
</g>
<!-- Node3&#45;&gt;Node4 -->
<g id="edge3" class="edge"><title>Node3&#45;&gt;Node4</title>
<path fill="none" stroke="midnightblue" d="M261.087,-124.108C261.087,-115.154 261.087,-105.323 261.087,-97.5765"/>
<polygon fill="midnightblue" stroke="midnightblue" points="257.587,-124.396 261.087,-134.396 264.587,-124.396 257.587,-124.396"/>
</g>
<!-- Node6 -->
<g id="node6" class="node"><title>Node6</title>
<g id="a_node6"><a xlink:href="helloByeProto_8cpp.html" target="_top" xlink:title="/home/dominik/uni/MoonState\l/src/helloByeProto.cpp">
<polygon fill="none" stroke="black" points="352.587,-67.5 352.587,-97.5 499.587,-97.5 499.587,-67.5 352.587,-67.5"/>
<text text-anchor="start" x="360.587" y="-85.5" font-family="Helvetica,sans-Serif" font-size="10.00">/home/dominik/uni/MoonState</text>
<text text-anchor="middle" x="426.087" y="-74.5" font-family="Helvetica,sans-Serif" font-size="10.00">/src/helloByeProto.cpp</text>
</a>
</g>
</g>
<!-- Node3&#45;&gt;Node6 -->
<g id="edge5" class="edge"><title>Node3&#45;&gt;Node6</title>
<path fill="none" stroke="midnightblue" d="M300.558,-130.544C325.981,-120.143 358.885,-107.238 384.68,-97.5765"/>
<polygon fill="midnightblue" stroke="midnightblue" points="299.124,-127.35 291.211,-134.396 301.791,-133.822 299.124,-127.35"/>
</g>
<!-- Node7 -->
<g id="node7" class="node"><title>Node7</title>
<g id="a_node7"><a xlink:href="helloByeProtoStatic_8cpp.html" target="_top" xlink:title="/home/dominik/uni/MoonState\l/src/helloByeProtoStatic.cpp">
<polygon fill="none" stroke="black" points="22.5874,-67.5 22.5874,-97.5 169.587,-97.5 169.587,-67.5 22.5874,-67.5"/>
<text text-anchor="start" x="30.5874" y="-85.5" font-family="Helvetica,sans-Serif" font-size="10.00">/home/dominik/uni/MoonState</text>
<text text-anchor="middle" x="96.0874" y="-74.5" font-family="Helvetica,sans-Serif" font-size="10.00">/src/helloByeProtoStatic.cpp</text>
</a>
</g>
</g>
<!-- Node3&#45;&gt;Node7 -->
<g id="edge7" class="edge"><title>Node3&#45;&gt;Node7</title>
<path fill="none" stroke="midnightblue" d="M215.856,-130.682C189.393,-120.257 156.453,-107.281 131.82,-97.5765"/>
<polygon fill="midnightblue" stroke="midnightblue" points="214.698,-133.987 225.285,-134.396 217.264,-127.474 214.698,-133.987"/>
</g>
<!-- Node4&#45;&gt;Node5 -->
<g id="edge4" class="edge"><title>Node4&#45;&gt;Node5</title>
<path fill="none" stroke="midnightblue" d="M261.087,-57.1081C261.087,-48.1539 261.087,-38.3227 261.087,-30.5765"/>
<polygon fill="midnightblue" stroke="midnightblue" points="257.587,-57.3959 261.087,-67.396 264.587,-57.396 257.587,-57.3959"/>
</g>
<!-- Node6&#45;&gt;Node3 -->
<g id="edge6" class="edge"><title>Node6&#45;&gt;Node3</title>
<path fill="none" stroke="midnightblue" d="M386.689,-101.426C361.281,-111.823 328.377,-124.728 302.568,-134.396"/>
<polygon fill="midnightblue" stroke="midnightblue" points="388.118,-104.623 396.029,-97.5765 385.45,-98.1511 388.118,-104.623"/>
</g>
<!-- Node8&#45;&gt;Node5 -->
<g id="edge11" class="edge"><title>Node8&#45;&gt;Node5</title>
<path fill="none" stroke="midnightblue" d="M470.188,-129.502C497.448,-113.386 526.357,-89.3825 508.087,-67 486.5,-40.552 399.501,-27.5849 334.828,-21.4901"/>
<polygon fill="midnightblue" stroke="midnightblue" points="468.434,-126.473 461.457,-134.445 471.883,-132.564 468.434,-126.473"/>
</g>
<!-- Node8&#45;&gt;Node6 -->
<g id="edge10" class="edge"><title>Node8&#45;&gt;Node6</title>
<path fill="none" stroke="midnightblue" d="M429.863,-124.403C429.029,-115.37 428.11,-105.408 427.387,-97.5765"/>
<polygon fill="midnightblue" stroke="midnightblue" points="426.381,-124.76 430.785,-134.396 433.351,-124.117 426.381,-124.76"/>
</g>
</g>
</svg>
