<?xml version="1.0" encoding="UTF-8" standalone="no"?>
<!DOCTYPE svg PUBLIC "-//W3C//DTD SVG 1.1//EN"
 "http://www.w3.org/Graphics/SVG/1.1/DTD/svg11.dtd">
<!-- Generated by graphviz version 2.40.1 (20161225.0304)
 -->
<!-- Title: /home/dominik/uni/MoonState/include/exceptions.hpp Pages: 1 -->
<svg width="942pt" height="374pt"
 viewBox="0.00 0.00 942.06 374.00" xmlns="http://www.w3.org/2000/svg" xmlns:xlink="http://www.w3.org/1999/xlink">
<g id="graph0" class="graph" transform="scale(1 1) rotate(0) translate(4 370)">
<title>/home/dominik/uni/MoonState/include/exceptions.hpp</title>
<!-- Node3 -->
<g id="node1" class="node">
<title>Node3</title>
<polygon fill="#bfbfbf" stroke="#000000" points="595.1552,-335.5 595.1552,-365.5 742.1552,-365.5 742.1552,-335.5 595.1552,-335.5"/>
<text text-anchor="start" x="603.1552" y="-353.5" font-family="Helvetica,sans-Serif" font-size="10.00" fill="#000000">/home/dominik/uni/MoonState</text>
<text text-anchor="middle" x="668.6552" y="-342.5" font-family="Helvetica,sans-Serif" font-size="10.00" fill="#000000">/include/exceptions.hpp</text>
</g>
<!-- Node4 -->
<g id="node2" class="node">
<title>Node4</title>
<g id="a_node2"><a xlink:href="IPv4__5TupleL2Ident_8hpp.html" target="_top" xlink:title="/home/dominik/uni/MoonState\l/include/IPv4_5TupleL2Ident.hpp">
<polygon fill="none" stroke="#000000" points="351.6552,-268.5 351.6552,-298.5 509.6552,-298.5 509.6552,-268.5 351.6552,-268.5"/>
<text text-anchor="start" x="359.6552" y="-286.5" font-family="Helvetica,sans-Serif" font-size="10.00" fill="#000000">/home/dominik/uni/MoonState</text>
<text text-anchor="middle" x="430.6552" y="-275.5" font-family="Helvetica,sans-Serif" font-size="10.00" fill="#000000">/include/IPv4_5TupleL2Ident.hpp</text>
</a>
</g>
</g>
<!-- Node3&#45;&gt;Node4 -->
<g id="edge1" class="edge">
<title>Node3&#45;&gt;Node4</title>
<path fill="none" stroke="#191970" d="M605.3694,-332.6842C567.6181,-322.0568 520.2055,-308.7095 484.3,-298.6017"/>
<polygon fill="#191970" stroke="#191970" points="604.6691,-336.1231 615.2434,-335.4639 606.566,-329.385 604.6691,-336.1231"/>
</g>
<!-- Node8 -->
<g id="node6" class="node">
<title>Node8</title>
<g id="a_node6"><a xlink:href="helloBye2Proto_8hpp.html" target="_top" xlink:title="/home/dominik/uni/MoonState\l/include/helloBye2Proto.hpp">
<polygon fill="none" stroke="#000000" points="772.1552,-134.5 772.1552,-164.5 919.1552,-164.5 919.1552,-134.5 772.1552,-134.5"/>
<text text-anchor="start" x="780.1552" y="-152.5" font-family="Helvetica,sans-Serif" font-size="10.00" fill="#000000">/home/dominik/uni/MoonState</text>
<text text-anchor="middle" x="845.6552" y="-141.5" font-family="Helvetica,sans-Serif" font-size="10.00" fill="#000000">/include/helloBye2Proto.hpp</text>
</a>
</g>
</g>
<!-- Node3&#45;&gt;Node8 -->
<g id="edge27" class="edge">
<title>Node3&#45;&gt;Node8</title>
<path fill="none" stroke="#191970" d="M752.2377,-336.7949C812.5944,-322.0563 890.0172,-292.0719 928.6552,-232 936.1084,-220.4122 935.3539,-213.0397 928.6552,-201 919.5033,-184.5509 902.6836,-172.6841 886.566,-164.5184"/>
<polygon fill="#191970" stroke="#191970" points="751.2637,-333.4282 742.3258,-339.1172 752.8606,-340.2437 751.2637,-333.4282"/>
</g>
<!-- Node13 -->
<g id="node11" class="node">
<title>Node13</title>
<g id="a_node11"><a xlink:href="helloBye3_8hpp.html" target="_top" xlink:title="/home/dominik/uni/MoonState\l/include/helloBye3.hpp">
<polygon fill="none" stroke="#000000" points="587.1552,-134.5 587.1552,-164.5 734.1552,-164.5 734.1552,-134.5 587.1552,-134.5"/>
<text text-anchor="start" x="595.1552" y="-152.5" font-family="Helvetica,sans-Serif" font-size="10.00" fill="#000000">/home/dominik/uni/MoonState</text>
<text text-anchor="middle" x="660.6552" y="-141.5" font-family="Helvetica,sans-Serif" font-size="10.00" fill="#000000">/include/helloBye3.hpp</text>
</a>
</g>
</g>
<!-- Node3&#45;&gt;Node13 -->
<g id="edge28" class="edge">
<title>Node3&#45;&gt;Node13</title>
<path fill="none" stroke="#191970" d="M688.7555,-327.5296C712.2537,-297.7283 745.4448,-244.4138 724.6552,-201 717.2636,-185.5644 702.7391,-173.2838 689.393,-164.5919"/>
<polygon fill="#191970" stroke="#191970" points="686.0408,-325.3204 682.4377,-335.2838 691.4676,-329.742 686.0408,-325.3204"/>
</g>
<!-- Node19 -->
<g id="node17" class="node">
<title>Node19</title>
<g id="a_node17"><a xlink:href="stateMachine_8hpp.html" target="_top" xlink:title="/home/dominik/uni/MoonState\l/include/stateMachine.hpp">
<polygon fill="none" stroke="#000000" points="403.1552,-201.5 403.1552,-231.5 550.1552,-231.5 550.1552,-201.5 403.1552,-201.5"/>
<text text-anchor="start" x="411.1552" y="-219.5" font-family="Helvetica,sans-Serif" font-size="10.00" fill="#000000">/home/dominik/uni/MoonState</text>
<text text-anchor="middle" x="476.6552" y="-208.5" font-family="Helvetica,sans-Serif" font-size="10.00" fill="#000000">/include/stateMachine.hpp</text>
</a>
</g>
</g>
<!-- Node3&#45;&gt;Node19 -->
<g id="edge20" class="edge">
<title>Node3&#45;&gt;Node19</title>
<path fill="none" stroke="#191970" d="M638.6687,-329.5719C599.6876,-302.3664 532.5508,-255.5105 498.2277,-231.5558"/>
<polygon fill="#191970" stroke="#191970" points="636.8001,-332.5359 647.0036,-335.389 640.8064,-326.7957 636.8001,-332.5359"/>
</g>
<!-- Node5 -->
<g id="node3" class="node">
<title>Node5</title>
<g id="a_node3"><a xlink:href="dtlsClient_8hpp.html" target="_top" xlink:title="/home/dominik/uni/MoonState\l/include/dtlsClient.hpp">
<polygon fill="none" stroke="#000000" points="345.1552,-134.5 345.1552,-164.5 492.1552,-164.5 492.1552,-134.5 345.1552,-134.5"/>
<text text-anchor="start" x="353.1552" y="-152.5" font-family="Helvetica,sans-Serif" font-size="10.00" fill="#000000">/home/dominik/uni/MoonState</text>
<text text-anchor="middle" x="418.6552" y="-141.5" font-family="Helvetica,sans-Serif" font-size="10.00" fill="#000000">/include/dtlsClient.hpp</text>
</a>
</g>
</g>
<!-- Node4&#45;&gt;Node5 -->
<g id="edge2" class="edge">
<title>Node4&#45;&gt;Node5</title>
<path fill="none" stroke="#191970" d="M409.4514,-260.4707C403.096,-252.1224 396.9451,-242.2175 393.6552,-232 386.1327,-208.6368 398.5084,-181.3497 408.375,-164.7544"/>
<polygon fill="#191970" stroke="#191970" points="406.7537,-262.7009 415.7766,-268.2541 412.1861,-258.2862 406.7537,-262.7009"/>
</g>
<!-- Node7 -->
<g id="node5" class="node">
<title>Node7</title>
<g id="a_node5"><a xlink:href="helloBye2Proto_8cpp.html" target="_top" xlink:title="/home/dominik/uni/MoonState\l/src/helloBye2Proto.cpp">
<polygon fill="none" stroke="#000000" points="772.1552,-201.5 772.1552,-231.5 919.1552,-231.5 919.1552,-201.5 772.1552,-201.5"/>
<text text-anchor="start" x="780.1552" y="-219.5" font-family="Helvetica,sans-Serif" font-size="10.00" fill="#000000">/home/dominik/uni/MoonState</text>
<text text-anchor="middle" x="845.6552" y="-208.5" font-family="Helvetica,sans-Serif" font-size="10.00" fill="#000000">/src/helloBye2Proto.cpp</text>
</a>
</g>
</g>
<!-- Node4&#45;&gt;Node7 -->
<g id="edge4" class="edge">
<title>Node4&#45;&gt;Node7</title>
<path fill="none" stroke="#191970" d="M519.6384,-269.134C594.9473,-256.9757 701.5903,-239.7587 772.1365,-228.3693"/>
<polygon fill="#191970" stroke="#191970" points="519.0047,-265.6909 509.6904,-270.7401 520.1204,-272.6015 519.0047,-265.6909"/>
</g>
<!-- Node12 -->
<g id="node10" class="node">
<title>Node12</title>
<g id="a_node10"><a xlink:href="helloBye3_8cpp.html" target="_top" xlink:title="/home/dominik/uni/MoonState\l/src/helloBye3.cpp">
<polygon fill="none" stroke="#000000" points="568.1552,-201.5 568.1552,-231.5 715.1552,-231.5 715.1552,-201.5 568.1552,-201.5"/>
<text text-anchor="start" x="576.1552" y="-219.5" font-family="Helvetica,sans-Serif" font-size="10.00" fill="#000000">/home/dominik/uni/MoonState</text>
<text text-anchor="middle" x="641.6552" y="-208.5" font-family="Helvetica,sans-Serif" font-size="10.00" fill="#000000">/src/helloBye3.cpp</text>
</a>
</g>
</g>
<!-- Node4&#45;&gt;Node12 -->
<g id="edge10" class="edge">
<title>Node4&#45;&gt;Node12</title>
<path fill="none" stroke="#191970" d="M487.6179,-265.4123C520.9449,-254.8298 562.535,-241.6235 594.0962,-231.6017"/>
<polygon fill="#191970" stroke="#191970" points="486.4795,-262.1015 478.0077,-268.4639 488.5981,-268.7732 486.4795,-262.1015"/>
</g>
<!-- Node14 -->
<g id="node12" class="node">
<title>Node14</title>
<g id="a_node12"><a xlink:href="helloByeProto_8cpp.html" target="_top" xlink:title="/home/dominik/uni/MoonState\l/src/helloByeProto.cpp">
<polygon fill="none" stroke="#000000" points="180.1552,-201.5 180.1552,-231.5 327.1552,-231.5 327.1552,-201.5 180.1552,-201.5"/>
<text text-anchor="start" x="188.1552" y="-219.5" font-family="Helvetica,sans-Serif" font-size="10.00" fill="#000000">/home/dominik/uni/MoonState</text>
<text text-anchor="middle" x="253.6552" y="-208.5" font-family="Helvetica,sans-Serif" font-size="10.00" fill="#000000">/src/helloByeProto.cpp</text>
</a>
</g>
</g>
<!-- Node4&#45;&gt;Node14 -->
<g id="edge13" class="edge">
<title>Node4&#45;&gt;Node14</title>
<path fill="none" stroke="#191970" d="M381.4254,-264.865C353.7192,-254.3773 319.5717,-241.4515 293.5507,-231.6017"/>
<polygon fill="#191970" stroke="#191970" points="380.3415,-268.197 390.933,-268.4639 382.8197,-261.6503 380.3415,-268.197"/>
</g>
<!-- Node17 -->
<g id="node15" class="node">
<title>Node17</title>
<g id="a_node15"><a xlink:href="helloBye__C_8cpp.html" target="_top" xlink:title="/home/dominik/uni/MoonState\l/src/helloBye_C.cpp">
<polygon fill="none" stroke="#000000" points="180.1552,-.5 180.1552,-30.5 327.1552,-30.5 327.1552,-.5 180.1552,-.5"/>
<text text-anchor="start" x="188.1552" y="-18.5" font-family="Helvetica,sans-Serif" font-size="10.00" fill="#000000">/home/dominik/uni/MoonState</text>
<text text-anchor="middle" x="253.6552" y="-7.5" font-family="Helvetica,sans-Serif" font-size="10.00" fill="#000000">/src/helloBye_C.cpp</text>
</a>
</g>
</g>
<!-- Node4&#45;&gt;Node17 -->
<g id="edge19" class="edge">
<title>Node4&#45;&gt;Node17</title>
<path fill="none" stroke="#191970" d="M341.4576,-276.6224C289.6577,-270.0347 224.2549,-257.1563 170.6552,-232 85.1355,-191.8625 46.2656,-183.2962 5.6552,-98 -.2675,-85.5602 -3.0405,-77.687 5.6552,-67 27.3379,-40.3521 114.9397,-27.0481 179.9155,-20.7262"/>
<polygon fill="#191970" stroke="#191970" points="341.2796,-280.1264 351.6287,-277.8578 342.1237,-273.1775 341.2796,-280.1264"/>
</g>
<!-- Node6 -->
<g id="node4" class="node">
<title>Node6</title>
<g id="a_node4"><a xlink:href="dtlsClient_8cpp.html" target="_top" xlink:title="/home/dominik/uni/MoonState\l/src/dtlsClient.cpp">
<polygon fill="none" stroke="#000000" points="345.1552,-67.5 345.1552,-97.5 492.1552,-97.5 492.1552,-67.5 345.1552,-67.5"/>
<text text-anchor="start" x="353.1552" y="-85.5" font-family="Helvetica,sans-Serif" font-size="10.00" fill="#000000">/home/dominik/uni/MoonState</text>
<text text-anchor="middle" x="418.6552" y="-74.5" font-family="Helvetica,sans-Serif" font-size="10.00" fill="#000000">/src/dtlsClient.cpp</text>
</a>
</g>
</g>
<!-- Node5&#45;&gt;Node6 -->
<g id="edge3" class="edge">
<title>Node5&#45;&gt;Node6</title>
<path fill="none" stroke="#191970" d="M418.6552,-124.0249C418.6552,-115.128 418.6552,-105.4287 418.6552,-97.6432"/>
<polygon fill="#191970" stroke="#191970" points="415.1553,-124.2966 418.6552,-134.2967 422.1553,-124.2967 415.1553,-124.2966"/>
</g>
<!-- Node7&#45;&gt;Node8 -->
<g id="edge5" class="edge">
<title>Node7&#45;&gt;Node8</title>
<path fill="none" stroke="#191970" d="M839.0937,-191.3179C838.6792,-182.3414 838.9485,-172.5143 839.9017,-164.6432"/>
<polygon fill="#191970" stroke="#191970" points="835.6057,-191.6087 839.8944,-201.2967 842.5832,-191.0487 835.6057,-191.6087"/>
</g>
<!-- Node8&#45;&gt;Node7 -->
<g id="edge8" class="edge">
<title>Node8&#45;&gt;Node7</title>
<path fill="none" stroke="#191970" d="M852.2136,-174.6135C852.6316,-183.5857 852.3657,-193.4156 851.416,-201.2967"/>
<polygon fill="#191970" stroke="#191970" points="855.7021,-174.3291 851.4088,-164.6432 848.7248,-174.8924 855.7021,-174.3291"/>
</g>
<!-- Node9 -->
<g id="node7" class="node">
<title>Node9</title>
<g id="a_node7"><a xlink:href="helloBye2__C_8hpp.html" target="_top" xlink:title="/home/dominik/uni/MoonState\l/include/helloBye2_C.hpp">
<polygon fill="none" stroke="#000000" points="772.1552,-67.5 772.1552,-97.5 919.1552,-97.5 919.1552,-67.5 772.1552,-67.5"/>
<text text-anchor="start" x="780.1552" y="-85.5" font-family="Helvetica,sans-Serif" font-size="10.00" fill="#000000">/home/dominik/uni/MoonState</text>
<text text-anchor="middle" x="845.6552" y="-74.5" font-family="Helvetica,sans-Serif" font-size="10.00" fill="#000000">/include/helloBye2_C.hpp</text>
</a>
</g>
</g>
<!-- Node8&#45;&gt;Node9 -->
<g id="edge6" class="edge">
<title>Node8&#45;&gt;Node9</title>
<path fill="none" stroke="#191970" d="M845.6552,-124.0249C845.6552,-115.128 845.6552,-105.4287 845.6552,-97.6432"/>
<polygon fill="#191970" stroke="#191970" points="842.1553,-124.2966 845.6552,-134.2967 849.1553,-124.2967 842.1553,-124.2966"/>
</g>
<!-- Node11 -->
<g id="node9" class="node">
<title>Node11</title>
<g id="a_node9"><a xlink:href="helloBye2ProtoStatic_8cpp.html" target="_top" xlink:title="/home/dominik/uni/MoonState\l/src/helloBye2ProtoStatic.cpp">
<polygon fill="none" stroke="#000000" points="607.1552,-67.5 607.1552,-97.5 754.1552,-97.5 754.1552,-67.5 607.1552,-67.5"/>
<text text-anchor="start" x="615.1552" y="-85.5" font-family="Helvetica,sans-Serif" font-size="10.00" fill="#000000">/home/dominik/uni/MoonState</text>
<text text-anchor="middle" x="680.6552" y="-74.5" font-family="Helvetica,sans-Serif" font-size="10.00" fill="#000000">/src/helloBye2ProtoStatic.cpp</text>
</a>
</g>
</g>
<!-- Node8&#45;&gt;Node11 -->
<g id="edge9" class="edge">
<title>Node8&#45;&gt;Node11</title>
<path fill="none" stroke="#191970" d="M799.085,-130.5897C773.3798,-120.1518 741.891,-107.3654 717.8459,-97.6017"/>
<polygon fill="#191970" stroke="#191970" points="798.0439,-133.9444 808.626,-134.4639 800.6775,-127.4587 798.0439,-133.9444"/>
</g>
<!-- Node10 -->
<g id="node8" class="node">
<title>Node10</title>
<g id="a_node8"><a xlink:href="helloBye2__C_8cpp.html" target="_top" xlink:title="/home/dominik/uni/MoonState\l/src/helloBye2_C.cpp">
<polygon fill="none" stroke="#000000" points="628.1552,-.5 628.1552,-30.5 775.1552,-30.5 775.1552,-.5 628.1552,-.5"/>
<text text-anchor="start" x="636.1552" y="-18.5" font-family="Helvetica,sans-Serif" font-size="10.00" fill="#000000">/home/dominik/uni/MoonState</text>
<text text-anchor="middle" x="701.6552" y="-7.5" font-family="Helvetica,sans-Serif" font-size="10.00" fill="#000000">/src/helloBye2_C.cpp</text>
</a>
</g>
</g>
<!-- Node9&#45;&gt;Node10 -->
<g id="edge7" class="edge">
<title>Node9&#45;&gt;Node10</title>
<path fill="none" stroke="#191970" d="M804.1535,-63.1902C781.9696,-52.8685 755.0471,-40.3421 734.362,-30.7177"/>
<polygon fill="#191970" stroke="#191970" points="802.7957,-66.4187 813.3388,-67.4639 805.7487,-60.072 802.7957,-66.4187"/>
</g>
<!-- Node12&#45;&gt;Node13 -->
<g id="edge11" class="edge">
<title>Node12&#45;&gt;Node13</title>
<path fill="none" stroke="#191970" d="M642.2349,-191.3179C644.3659,-182.3414 647.422,-172.5143 650.6073,-164.6432"/>
<polygon fill="#191970" stroke="#191970" points="638.7687,-190.7998 640.2058,-201.2967 645.6283,-192.1946 638.7687,-190.7998"/>
</g>
<!-- Node13&#45;&gt;Node12 -->
<g id="edge12" class="edge">
<title>Node13&#45;&gt;Node12</title>
<path fill="none" stroke="#191970" d="M660.0919,-174.6135C657.9655,-183.5857 654.9121,-193.4156 651.7274,-201.2967"/>
<polygon fill="#191970" stroke="#191970" points="663.5564,-175.1394 662.1144,-164.6432 656.6961,-173.7477 663.5564,-175.1394"/>
</g>
<!-- Node15 -->
<g id="node13" class="node">
<title>Node15</title>
<g id="a_node13"><a xlink:href="helloByeProto_8hpp.html" target="_top" xlink:title="/home/dominik/uni/MoonState\l/include/helloByeProto.hpp">
<polygon fill="none" stroke="#000000" points="180.1552,-134.5 180.1552,-164.5 327.1552,-164.5 327.1552,-134.5 180.1552,-134.5"/>
<text text-anchor="start" x="188.1552" y="-152.5" font-family="Helvetica,sans-Serif" font-size="10.00" fill="#000000">/home/dominik/uni/MoonState</text>
<text text-anchor="middle" x="253.6552" y="-141.5" font-family="Helvetica,sans-Serif" font-size="10.00" fill="#000000">/include/helloByeProto.hpp</text>
</a>
</g>
</g>
<!-- Node14&#45;&gt;Node15 -->
<g id="edge14" class="edge">
<title>Node14&#45;&gt;Node15</title>
<path fill="none" stroke="#191970" d="M247.0937,-191.3179C246.6792,-182.3414 246.9485,-172.5143 247.9017,-164.6432"/>
<polygon fill="#191970" stroke="#191970" points="243.6057,-191.6087 247.8944,-201.2967 250.5832,-191.0487 243.6057,-191.6087"/>
</g>
<!-- Node15&#45;&gt;Node14 -->
<g id="edge17" class="edge">
<title>Node15&#45;&gt;Node14</title>
<path fill="none" stroke="#191970" d="M260.2136,-174.6135C260.6316,-183.5857 260.3657,-193.4156 259.416,-201.2967"/>
<polygon fill="#191970" stroke="#191970" points="263.7021,-174.3291 259.4088,-164.6432 256.7248,-174.8924 263.7021,-174.3291"/>
</g>
<!-- Node16 -->
<g id="node14" class="node">
<title>Node16</title>
<g id="a_node14"><a xlink:href="helloBye__C_8hpp.html" target="_top" xlink:title="/home/dominik/uni/MoonState\l/include/helloBye_C.hpp">
<polygon fill="none" stroke="#000000" points="180.1552,-67.5 180.1552,-97.5 327.1552,-97.5 327.1552,-67.5 180.1552,-67.5"/>
<text text-anchor="start" x="188.1552" y="-85.5" font-family="Helvetica,sans-Serif" font-size="10.00" fill="#000000">/home/dominik/uni/MoonState</text>
<text text-anchor="middle" x="253.6552" y="-74.5" font-family="Helvetica,sans-Serif" font-size="10.00" fill="#000000">/include/helloBye_C.hpp</text>
</a>
</g>
</g>
<!-- Node15&#45;&gt;Node16 -->
<g id="edge15" class="edge">
<title>Node15&#45;&gt;Node16</title>
<path fill="none" stroke="#191970" d="M253.6552,-124.0249C253.6552,-115.128 253.6552,-105.4287 253.6552,-97.6432"/>
<polygon fill="#191970" stroke="#191970" points="250.1553,-124.2966 253.6552,-134.2967 257.1553,-124.2967 250.1553,-124.2966"/>
</g>
<!-- Node18 -->
<g id="node16" class="node">
<title>Node18</title>
<g id="a_node16"><a xlink:href="helloByeProtoStatic_8cpp.html" target="_top" xlink:title="/home/dominik/uni/MoonState\l/src/helloByeProtoStatic.cpp">
<polygon fill="none" stroke="#000000" points="15.1552,-67.5 15.1552,-97.5 162.1552,-97.5 162.1552,-67.5 15.1552,-67.5"/>
<text text-anchor="start" x="23.1552" y="-85.5" font-family="Helvetica,sans-Serif" font-size="10.00" fill="#000000">/home/dominik/uni/MoonState</text>
<text text-anchor="middle" x="88.6552" y="-74.5" font-family="Helvetica,sans-Serif" font-size="10.00" fill="#000000">/src/helloByeProtoStatic.cpp</text>
</a>
</g>
</g>
<!-- Node15&#45;&gt;Node18 -->
<g id="edge18" class="edge">
<title>Node15&#45;&gt;Node18</title>
<path fill="none" stroke="#191970" d="M207.085,-130.5897C181.3798,-120.1518 149.891,-107.3654 125.8459,-97.6017"/>
<polygon fill="#191970" stroke="#191970" points="206.0439,-133.9444 216.626,-134.4639 208.6775,-127.4587 206.0439,-133.9444"/>
</g>
<!-- Node16&#45;&gt;Node17 -->
<g id="edge16" class="edge">
<title>Node16&#45;&gt;Node17</title>
<path fill="none" stroke="#191970" d="M253.6552,-57.0249C253.6552,-48.128 253.6552,-38.4287 253.6552,-30.6432"/>
<polygon fill="#191970" stroke="#191970" points="250.1553,-57.2966 253.6552,-67.2967 257.1553,-57.2967 250.1553,-57.2966"/>
</g>
<!-- Node19&#45;&gt;Node5 -->
<g id="edge21" class="edge">
<title>Node19&#45;&gt;Node5</title>
<path fill="none" stroke="#191970" d="M456.8647,-193.6385C448.5774,-184.0653 439.1705,-173.1987 431.7642,-164.6432"/>
<polygon fill="#191970" stroke="#191970" points="454.3029,-196.0268 463.4941,-201.2967 459.5953,-191.4453 454.3029,-196.0268"/>
</g>
<!-- Node19&#45;&gt;Node8 -->
<g id="edge22" class="edge">
<title>Node19&#45;&gt;Node8</title>
<path fill="none" stroke="#191970" d="M560.4261,-200.8648C638.448,-186.574 716.4593,-172.5592 771.8575,-162.6537"/>
<polygon fill="#191970" stroke="#191970" points="559.6219,-197.4538 550.4169,-202.6997 560.8841,-204.3391 559.6219,-197.4538"/>
</g>
<!-- Node19&#45;&gt;Node10 -->
<g id="edge25" class="edge">
<title>Node19&#45;&gt;Node10</title>
<path fill="none" stroke="#191970" d="M497.0474,-193.6798C504.8499,-184.8142 513.7661,-174.5188 521.6552,-165 557.0019,-122.3519 555.7321,-102.0121 598.6552,-67 617.4009,-51.7093 641.4367,-39.3677 661.5739,-30.6035"/>
<polygon fill="#191970" stroke="#191970" points="494.2608,-191.5474 490.2563,-201.3563 499.5037,-196.1856 494.2608,-191.5474"/>
</g>
<!-- Node19&#45;&gt;Node13 -->
<g id="edge23" class="edge">
<title>Node19&#45;&gt;Node13</title>
<path fill="none" stroke="#191970" d="M527.455,-198.0023C556.3237,-187.4903 592.0137,-174.4945 619.1819,-164.6017"/>
<polygon fill="#191970" stroke="#191970" points="526.1473,-194.7535 517.9484,-201.4639 528.5424,-201.3311 526.1473,-194.7535"/>
</g>
<!-- Node19&#45;&gt;Node15 -->
<g id="edge24" class="edge">
<title>Node19&#45;&gt;Node15</title>
<path fill="none" stroke="#191970" d="M416.9059,-198.5484C381.6081,-187.9432 337.4184,-174.6665 303.9191,-164.6017"/>
<polygon fill="#191970" stroke="#191970" points="416.0255,-201.9384 426.6097,-201.4639 418.0397,-195.2344 416.0255,-201.9384"/>
</g>
<!-- Node19&#45;&gt;Node17 -->
<g id="edge26" class="edge">
<title>Node19&#45;&gt;Node17</title>
<path fill="none" stroke="#191970" d="M491.072,-192.2477C508.1568,-159.9934 530.8553,-102.8867 501.6552,-67 479.9725,-40.3521 392.3708,-27.0481 327.395,-20.7262"/>
<polygon fill="#191970" stroke="#191970" points="487.7834,-190.9628 486.0138,-201.4088 493.9114,-194.3464 487.7834,-190.9628"/>
</g>
</g>
</svg>
