<?xml version="1.0" encoding="UTF-8" standalone="no"?>
<!DOCTYPE svg PUBLIC "-//W3C//DTD SVG 1.1//EN"
 "http://www.w3.org/Graphics/SVG/1.1/DTD/svg11.dtd">
<!-- Generated by graphviz version 2.40.1 (20161225.0304)
 -->
<!-- Title: /home/dominik/uni/MoonState/include/exceptions.hpp Pages: 1 -->
<svg width="907pt" height="374pt"
 viewBox="0.00 0.00 907.16 374.00" xmlns="http://www.w3.org/2000/svg" xmlns:xlink="http://www.w3.org/1999/xlink">
<g id="graph0" class="graph" transform="scale(1 1) rotate(0) translate(4 370)">
<title>/home/dominik/uni/MoonState/include/exceptions.hpp</title>
<!-- Node3 -->
<g id="node1" class="node">
<title>Node3</title>
<polygon fill="#bfbfbf" stroke="#000000" points="423.1552,-335.5 423.1552,-365.5 570.1552,-365.5 570.1552,-335.5 423.1552,-335.5"/>
<text text-anchor="start" x="431.1552" y="-353.5" font-family="Helvetica,sans-Serif" font-size="10.00" fill="#000000">/home/dominik/uni/MoonState</text>
<text text-anchor="middle" x="496.6552" y="-342.5" font-family="Helvetica,sans-Serif" font-size="10.00" fill="#000000">/include/exceptions.hpp</text>
</g>
<!-- Node4 -->
<g id="node2" class="node">
<title>Node4</title>
<g id="a_node2"><a xlink:href="IPv4__5TupleL2Ident_8hpp.html" target="_top" xlink:title="/home/dominik/uni/MoonState\l/include/IPv4_5TupleL2Ident.hpp">
<polygon fill="none" stroke="#000000" points="310.6552,-268.5 310.6552,-298.5 468.6552,-298.5 468.6552,-268.5 310.6552,-268.5"/>
<text text-anchor="start" x="318.6552" y="-286.5" font-family="Helvetica,sans-Serif" font-size="10.00" fill="#000000">/home/dominik/uni/MoonState</text>
<text text-anchor="middle" x="389.6552" y="-275.5" font-family="Helvetica,sans-Serif" font-size="10.00" fill="#000000">/include/IPv4_5TupleL2Ident.hpp</text>
</a>
</g>
</g>
<!-- Node3&#45;&gt;Node4 -->
<g id="edge1" class="edge">
<title>Node3&#45;&gt;Node4</title>
<path fill="none" stroke="#191970" d="M464.0379,-330.0761C447.9102,-319.9774 428.7794,-307.9983 413.9582,-298.7177"/>
<polygon fill="#191970" stroke="#191970" points="462.3093,-333.1232 472.6423,-335.4639 466.0243,-327.1903 462.3093,-333.1232"/>
</g>
<!-- Node8 -->
<g id="node6" class="node">
<title>Node8</title>
<g id="a_node6"><a xlink:href="helloBye2Proto_8hpp.html" target="_top" xlink:title="/home/dominik/uni/MoonState\l/include/helloBye2Proto.hpp">
<polygon fill="none" stroke="#000000" points="587.1552,-134.5 587.1552,-164.5 734.1552,-164.5 734.1552,-134.5 587.1552,-134.5"/>
<text text-anchor="start" x="595.1552" y="-152.5" font-family="Helvetica,sans-Serif" font-size="10.00" fill="#000000">/home/dominik/uni/MoonState</text>
<text text-anchor="middle" x="660.6552" y="-141.5" font-family="Helvetica,sans-Serif" font-size="10.00" fill="#000000">/include/helloBye2Proto.hpp</text>
</a>
</g>
</g>
<!-- Node3&#45;&gt;Node8 -->
<g id="edge23" class="edge">
<title>Node3&#45;&gt;Node8</title>
<path fill="none" stroke="#191970" d="M579.9599,-334.5558C636.7823,-318.8768 707.9719,-288.6968 743.6552,-232 750.9941,-220.3394 750.3539,-213.0397 743.6552,-201 734.5033,-184.5509 717.6836,-172.6841 701.566,-164.5184"/>
<polygon fill="#191970" stroke="#191970" points="579.0187,-331.1843 570.252,-337.1337 580.8154,-337.9499 579.0187,-331.1843"/>
</g>
<!-- Node17 -->
<g id="node15" class="node">
<title>Node17</title>
<g id="a_node15"><a xlink:href="stateMachine_8hpp.html" target="_top" xlink:title="/home/dominik/uni/MoonState\l/include/stateMachine.hpp">
<polygon fill="none" stroke="#000000" points="422.1552,-201.5 422.1552,-231.5 569.1552,-231.5 569.1552,-201.5 422.1552,-201.5"/>
<text text-anchor="start" x="430.1552" y="-219.5" font-family="Helvetica,sans-Serif" font-size="10.00" fill="#000000">/home/dominik/uni/MoonState</text>
<text text-anchor="middle" x="495.6552" y="-208.5" font-family="Helvetica,sans-Serif" font-size="10.00" fill="#000000">/include/stateMachine.hpp</text>
</a>
</g>
</g>
<!-- Node3&#45;&gt;Node17 -->
<g id="edge17" class="edge">
<title>Node3&#45;&gt;Node17</title>
<path fill="none" stroke="#191970" d="M496.4675,-325.3415C496.262,-297.8131 495.9393,-254.5714 495.7691,-231.7614"/>
<polygon fill="#191970" stroke="#191970" points="492.9678,-325.4154 496.5425,-335.389 499.9676,-325.3631 492.9678,-325.4154"/>
</g>
<!-- Node5 -->
<g id="node3" class="node">
<title>Node5</title>
<g id="a_node3"><a xlink:href="dtlsClient_8hpp.html" target="_top" xlink:title="/home/dominik/uni/MoonState\l/include/dtlsClient.hpp">
<polygon fill="none" stroke="#000000" points="345.1552,-134.5 345.1552,-164.5 492.1552,-164.5 492.1552,-134.5 345.1552,-134.5"/>
<text text-anchor="start" x="353.1552" y="-152.5" font-family="Helvetica,sans-Serif" font-size="10.00" fill="#000000">/home/dominik/uni/MoonState</text>
<text text-anchor="middle" x="418.6552" y="-141.5" font-family="Helvetica,sans-Serif" font-size="10.00" fill="#000000">/include/dtlsClient.hpp</text>
</a>
</g>
</g>
<!-- Node4&#45;&gt;Node5 -->
<g id="edge2" class="edge">
<title>Node4&#45;&gt;Node5</title>
<path fill="none" stroke="#191970" d="M395.1,-258.3415C401.0576,-230.8131 410.4159,-187.5714 415.3524,-164.7614"/>
<polygon fill="#191970" stroke="#191970" points="391.62,-257.8749 392.9255,-268.389 398.4616,-259.3556 391.62,-257.8749"/>
</g>
<!-- Node7 -->
<g id="node5" class="node">
<title>Node7</title>
<g id="a_node5"><a xlink:href="helloBye2Proto_8cpp.html" target="_top" xlink:title="/home/dominik/uni/MoonState\l/src/helloBye2Proto.cpp">
<polygon fill="none" stroke="#000000" points="587.1552,-201.5 587.1552,-231.5 734.1552,-231.5 734.1552,-201.5 587.1552,-201.5"/>
<text text-anchor="start" x="595.1552" y="-219.5" font-family="Helvetica,sans-Serif" font-size="10.00" fill="#000000">/home/dominik/uni/MoonState</text>
<text text-anchor="middle" x="660.6552" y="-208.5" font-family="Helvetica,sans-Serif" font-size="10.00" fill="#000000">/src/helloBye2Proto.cpp</text>
</a>
</g>
</g>
<!-- Node4&#45;&gt;Node7 -->
<g id="edge4" class="edge">
<title>Node4&#45;&gt;Node7</title>
<path fill="none" stroke="#191970" d="M460.3479,-266.0225C503.5516,-255.3411 558.2534,-241.8171 599.5723,-231.6017"/>
<polygon fill="#191970" stroke="#191970" points="459.3406,-262.6661 450.4729,-268.4639 461.0207,-269.4615 459.3406,-262.6661"/>
</g>
<!-- Node12 -->
<g id="node10" class="node">
<title>Node12</title>
<g id="a_node10"><a xlink:href="helloByeProto_8cpp.html" target="_top" xlink:title="/home/dominik/uni/MoonState\l/src/helloByeProto.cpp">
<polygon fill="none" stroke="#000000" points="180.1552,-201.5 180.1552,-231.5 327.1552,-231.5 327.1552,-201.5 180.1552,-201.5"/>
<text text-anchor="start" x="188.1552" y="-219.5" font-family="Helvetica,sans-Serif" font-size="10.00" fill="#000000">/home/dominik/uni/MoonState</text>
<text text-anchor="middle" x="253.6552" y="-208.5" font-family="Helvetica,sans-Serif" font-size="10.00" fill="#000000">/src/helloByeProto.cpp</text>
</a>
</g>
</g>
<!-- Node4&#45;&gt;Node12 -->
<g id="edge10" class="edge">
<title>Node4&#45;&gt;Node12</title>
<path fill="none" stroke="#191970" d="M349.8969,-263.9132C329.0541,-253.645 303.9065,-241.2561 284.545,-231.7177"/>
<polygon fill="#191970" stroke="#191970" points="348.6169,-267.1842 359.1342,-268.4639 351.7104,-260.9049 348.6169,-267.1842"/>
</g>
<!-- Node15 -->
<g id="node13" class="node">
<title>Node15</title>
<g id="a_node13"><a xlink:href="helloBye__C_8cpp.html" target="_top" xlink:title="/home/dominik/uni/MoonState\l/src/helloBye_C.cpp">
<polygon fill="none" stroke="#000000" points="180.1552,-.5 180.1552,-30.5 327.1552,-30.5 327.1552,-.5 180.1552,-.5"/>
<text text-anchor="start" x="188.1552" y="-18.5" font-family="Helvetica,sans-Serif" font-size="10.00" fill="#000000">/home/dominik/uni/MoonState</text>
<text text-anchor="middle" x="253.6552" y="-7.5" font-family="Helvetica,sans-Serif" font-size="10.00" fill="#000000">/src/helloBye_C.cpp</text>
</a>
</g>
</g>
<!-- Node4&#45;&gt;Node15 -->
<g id="edge16" class="edge">
<title>Node4&#45;&gt;Node15</title>
<path fill="none" stroke="#191970" d="M300.4431,-272.0241C204.4769,-254.0871 58.5266,-209.0485 5.6552,-98 -.2675,-85.5602 -3.0405,-77.687 5.6552,-67 27.3379,-40.3521 114.9397,-27.0481 179.9155,-20.7262"/>
<polygon fill="#191970" stroke="#191970" points="299.9748,-275.496 310.4375,-273.8283 301.2184,-268.6074 299.9748,-275.496"/>
</g>
<!-- Node6 -->
<g id="node4" class="node">
<title>Node6</title>
<g id="a_node4"><a xlink:href="dtlsClient_8cpp.html" target="_top" xlink:title="/home/dominik/uni/MoonState\l/src/dtlsClient.cpp">
<polygon fill="none" stroke="#000000" points="345.1552,-67.5 345.1552,-97.5 492.1552,-97.5 492.1552,-67.5 345.1552,-67.5"/>
<text text-anchor="start" x="353.1552" y="-85.5" font-family="Helvetica,sans-Serif" font-size="10.00" fill="#000000">/home/dominik/uni/MoonState</text>
<text text-anchor="middle" x="418.6552" y="-74.5" font-family="Helvetica,sans-Serif" font-size="10.00" fill="#000000">/src/dtlsClient.cpp</text>
</a>
</g>
</g>
<!-- Node5&#45;&gt;Node6 -->
<g id="edge3" class="edge">
<title>Node5&#45;&gt;Node6</title>
<path fill="none" stroke="#191970" d="M418.6552,-124.0249C418.6552,-115.128 418.6552,-105.4287 418.6552,-97.6432"/>
<polygon fill="#191970" stroke="#191970" points="415.1553,-124.2966 418.6552,-134.2967 422.1553,-124.2967 415.1553,-124.2966"/>
</g>
<!-- Node7&#45;&gt;Node8 -->
<g id="edge5" class="edge">
<title>Node7&#45;&gt;Node8</title>
<path fill="none" stroke="#191970" d="M654.0937,-191.3179C653.6792,-182.3414 653.9485,-172.5143 654.9017,-164.6432"/>
<polygon fill="#191970" stroke="#191970" points="650.6057,-191.6087 654.8944,-201.2967 657.5832,-191.0487 650.6057,-191.6087"/>
</g>
<!-- Node8&#45;&gt;Node7 -->
<g id="edge8" class="edge">
<title>Node8&#45;&gt;Node7</title>
<path fill="none" stroke="#191970" d="M667.2136,-174.6135C667.6316,-183.5857 667.3657,-193.4156 666.416,-201.2967"/>
<polygon fill="#191970" stroke="#191970" points="670.7021,-174.3291 666.4088,-164.6432 663.7248,-174.8924 670.7021,-174.3291"/>
</g>
<!-- Node9 -->
<g id="node7" class="node">
<title>Node9</title>
<g id="a_node7"><a xlink:href="helloBye2__C_8hpp.html" target="_top" xlink:title="/home/dominik/uni/MoonState\l/include/helloBye2_C.hpp">
<polygon fill="none" stroke="#000000" points="752.1552,-67.5 752.1552,-97.5 899.1552,-97.5 899.1552,-67.5 752.1552,-67.5"/>
<text text-anchor="start" x="760.1552" y="-85.5" font-family="Helvetica,sans-Serif" font-size="10.00" fill="#000000">/home/dominik/uni/MoonState</text>
<text text-anchor="middle" x="825.6552" y="-74.5" font-family="Helvetica,sans-Serif" font-size="10.00" fill="#000000">/include/helloBye2_C.hpp</text>
</a>
</g>
</g>
<!-- Node8&#45;&gt;Node9 -->
<g id="edge6" class="edge">
<title>Node8&#45;&gt;Node9</title>
<path fill="none" stroke="#191970" d="M707.2255,-130.5897C732.9307,-120.1518 764.4195,-107.3654 788.4645,-97.6017"/>
<polygon fill="#191970" stroke="#191970" points="705.6329,-127.4587 697.6844,-134.4639 708.2665,-133.9444 705.6329,-127.4587"/>
</g>
<!-- Node11 -->
<g id="node9" class="node">
<title>Node11</title>
<g id="a_node9"><a xlink:href="helloBye2ProtoStatic_8cpp.html" target="_top" xlink:title="/home/dominik/uni/MoonState\l/src/helloBye2ProtoStatic.cpp">
<polygon fill="none" stroke="#000000" points="587.1552,-67.5 587.1552,-97.5 734.1552,-97.5 734.1552,-67.5 587.1552,-67.5"/>
<text text-anchor="start" x="595.1552" y="-85.5" font-family="Helvetica,sans-Serif" font-size="10.00" fill="#000000">/home/dominik/uni/MoonState</text>
<text text-anchor="middle" x="660.6552" y="-74.5" font-family="Helvetica,sans-Serif" font-size="10.00" fill="#000000">/src/helloBye2ProtoStatic.cpp</text>
</a>
</g>
</g>
<!-- Node8&#45;&gt;Node11 -->
<g id="edge9" class="edge">
<title>Node8&#45;&gt;Node11</title>
<path fill="none" stroke="#191970" d="M660.6552,-124.0249C660.6552,-115.128 660.6552,-105.4287 660.6552,-97.6432"/>
<polygon fill="#191970" stroke="#191970" points="657.1553,-124.2966 660.6552,-134.2967 664.1553,-124.2967 657.1553,-124.2966"/>
</g>
<!-- Node10 -->
<g id="node8" class="node">
<title>Node10</title>
<g id="a_node8"><a xlink:href="helloBye2__C_8cpp.html" target="_top" xlink:title="/home/dominik/uni/MoonState\l/src/helloBye2_C.cpp">
<polygon fill="none" stroke="#000000" points="618.1552,-.5 618.1552,-30.5 765.1552,-30.5 765.1552,-.5 618.1552,-.5"/>
<text text-anchor="start" x="626.1552" y="-18.5" font-family="Helvetica,sans-Serif" font-size="10.00" fill="#000000">/home/dominik/uni/MoonState</text>
<text text-anchor="middle" x="691.6552" y="-7.5" font-family="Helvetica,sans-Serif" font-size="10.00" fill="#000000">/src/helloBye2_C.cpp</text>
</a>
</g>
</g>
<!-- Node9&#45;&gt;Node10 -->
<g id="edge7" class="edge">
<title>Node9&#45;&gt;Node10</title>
<path fill="none" stroke="#191970" d="M786.4816,-62.9132C765.9453,-52.645 741.1675,-40.2561 722.0907,-30.7177"/>
<polygon fill="#191970" stroke="#191970" points="785.0735,-66.1222 795.583,-67.4639 788.204,-59.8612 785.0735,-66.1222"/>
</g>
<!-- Node13 -->
<g id="node11" class="node">
<title>Node13</title>
<g id="a_node11"><a xlink:href="helloByeProto_8hpp.html" target="_top" xlink:title="/home/dominik/uni/MoonState\l/include/helloByeProto.hpp">
<polygon fill="none" stroke="#000000" points="180.1552,-134.5 180.1552,-164.5 327.1552,-164.5 327.1552,-134.5 180.1552,-134.5"/>
<text text-anchor="start" x="188.1552" y="-152.5" font-family="Helvetica,sans-Serif" font-size="10.00" fill="#000000">/home/dominik/uni/MoonState</text>
<text text-anchor="middle" x="253.6552" y="-141.5" font-family="Helvetica,sans-Serif" font-size="10.00" fill="#000000">/include/helloByeProto.hpp</text>
</a>
</g>
</g>
<!-- Node12&#45;&gt;Node13 -->
<g id="edge11" class="edge">
<title>Node12&#45;&gt;Node13</title>
<path fill="none" stroke="#191970" d="M247.0937,-191.3179C246.6792,-182.3414 246.9485,-172.5143 247.9017,-164.6432"/>
<polygon fill="#191970" stroke="#191970" points="243.6057,-191.6087 247.8944,-201.2967 250.5832,-191.0487 243.6057,-191.6087"/>
</g>
<!-- Node13&#45;&gt;Node12 -->
<g id="edge14" class="edge">
<title>Node13&#45;&gt;Node12</title>
<path fill="none" stroke="#191970" d="M260.2136,-174.6135C260.6316,-183.5857 260.3657,-193.4156 259.416,-201.2967"/>
<polygon fill="#191970" stroke="#191970" points="263.7021,-174.3291 259.4088,-164.6432 256.7248,-174.8924 263.7021,-174.3291"/>
</g>
<!-- Node14 -->
<g id="node12" class="node">
<title>Node14</title>
<g id="a_node12"><a xlink:href="helloBye__C_8hpp.html" target="_top" xlink:title="/home/dominik/uni/MoonState\l/include/helloBye_C.hpp">
<polygon fill="none" stroke="#000000" points="180.1552,-67.5 180.1552,-97.5 327.1552,-97.5 327.1552,-67.5 180.1552,-67.5"/>
<text text-anchor="start" x="188.1552" y="-85.5" font-family="Helvetica,sans-Serif" font-size="10.00" fill="#000000">/home/dominik/uni/MoonState</text>
<text text-anchor="middle" x="253.6552" y="-74.5" font-family="Helvetica,sans-Serif" font-size="10.00" fill="#000000">/include/helloBye_C.hpp</text>
</a>
</g>
</g>
<!-- Node13&#45;&gt;Node14 -->
<g id="edge12" class="edge">
<title>Node13&#45;&gt;Node14</title>
<path fill="none" stroke="#191970" d="M253.6552,-124.0249C253.6552,-115.128 253.6552,-105.4287 253.6552,-97.6432"/>
<polygon fill="#191970" stroke="#191970" points="250.1553,-124.2966 253.6552,-134.2967 257.1553,-124.2967 250.1553,-124.2966"/>
</g>
<!-- Node16 -->
<g id="node14" class="node">
<title>Node16</title>
<g id="a_node14"><a xlink:href="helloByeProtoStatic_8cpp.html" target="_top" xlink:title="/home/dominik/uni/MoonState\l/src/helloByeProtoStatic.cpp">
<polygon fill="none" stroke="#000000" points="15.1552,-67.5 15.1552,-97.5 162.1552,-97.5 162.1552,-67.5 15.1552,-67.5"/>
<text text-anchor="start" x="23.1552" y="-85.5" font-family="Helvetica,sans-Serif" font-size="10.00" fill="#000000">/home/dominik/uni/MoonState</text>
<text text-anchor="middle" x="88.6552" y="-74.5" font-family="Helvetica,sans-Serif" font-size="10.00" fill="#000000">/src/helloByeProtoStatic.cpp</text>
</a>
</g>
</g>
<!-- Node13&#45;&gt;Node16 -->
<g id="edge15" class="edge">
<title>Node13&#45;&gt;Node16</title>
<path fill="none" stroke="#191970" d="M207.085,-130.5897C181.3798,-120.1518 149.891,-107.3654 125.8459,-97.6017"/>
<polygon fill="#191970" stroke="#191970" points="206.0439,-133.9444 216.626,-134.4639 208.6775,-127.4587 206.0439,-133.9444"/>
</g>
<!-- Node14&#45;&gt;Node15 -->
<g id="edge13" class="edge">
<title>Node14&#45;&gt;Node15</title>
<path fill="none" stroke="#191970" d="M253.6552,-57.0249C253.6552,-48.128 253.6552,-38.4287 253.6552,-30.6432"/>
<polygon fill="#191970" stroke="#191970" points="250.1553,-57.2966 253.6552,-67.2967 257.1553,-57.2967 250.1553,-57.2966"/>
</g>
<!-- Node17&#45;&gt;Node5 -->
<g id="edge18" class="edge">
<title>Node17&#45;&gt;Node5</title>
<path fill="none" stroke="#191970" d="M470.3676,-194.4965C459.1312,-184.7193 446.1861,-173.4554 436.0586,-164.6432"/>
<polygon fill="#191970" stroke="#191970" points="468.3413,-197.3728 478.1827,-201.2967 472.9362,-192.092 468.3413,-197.3728"/>
</g>
<!-- Node17&#45;&gt;Node8 -->
<g id="edge19" class="edge">
<title>Node17&#45;&gt;Node8</title>
<path fill="none" stroke="#191970" d="M542.2255,-197.5897C567.9307,-187.1518 599.4195,-174.3654 623.4645,-164.6017"/>
<polygon fill="#191970" stroke="#191970" points="540.6329,-194.4587 532.6844,-201.4639 543.2665,-200.9444 540.6329,-194.4587"/>
</g>
<!-- Node17&#45;&gt;Node10 -->
<g id="edge21" class="edge">
<title>Node17&#45;&gt;Node10</title>
<path fill="none" stroke="#191970" d="M514.981,-193.3118C521.6625,-184.7163 528.9078,-174.6961 534.6552,-165 559.0002,-123.929 544.99,-100.855 578.6552,-67 595.1493,-50.4129 617.9603,-38.635 638.7708,-30.5693"/>
<polygon fill="#191970" stroke="#191970" points="512.057,-191.3651 508.5639,-201.3676 517.5322,-195.7266 512.057,-191.3651"/>
</g>
<!-- Node17&#45;&gt;Node13 -->
<g id="edge20" class="edge">
<title>Node17&#45;&gt;Node13</title>
<path fill="none" stroke="#191970" d="M431.3058,-198.6842C392.92,-188.0568 344.7105,-174.7095 308.2016,-164.6017"/>
<polygon fill="#191970" stroke="#191970" points="430.7743,-202.1687 441.3457,-201.4639 432.6421,-195.4225 430.7743,-202.1687"/>
</g>
<!-- Node17&#45;&gt;Node15 -->
<g id="edge22" class="edge">
<title>Node17&#45;&gt;Node15</title>
<path fill="none" stroke="#191970" d="M505.6833,-191.691C516.9985,-159.21 530.3543,-102.271 501.6552,-67 479.9725,-40.3521 392.3708,-27.0481 327.395,-20.7262"/>
<polygon fill="#191970" stroke="#191970" points="502.3091,-190.7255 502.1371,-201.3189 508.8777,-193.1449 502.3091,-190.7255"/>
</g>
</g>
</svg>
