<?xml version="1.0" encoding="UTF-8" standalone="no"?>
<!DOCTYPE svg PUBLIC "-//W3C//DTD SVG 1.1//EN"
 "http://www.w3.org/Graphics/SVG/1.1/DTD/svg11.dtd">
<!-- Generated by graphviz version 2.38.0 (20140413.2041)
 -->
<!-- Title: /home/dominik/uni/MoonState/include/headers.hpp Pages: 1 -->
<svg width="899pt" height="374pt"
 viewBox="0.00 0.00 898.87 374.00" xmlns="http://www.w3.org/2000/svg" xmlns:xlink="http://www.w3.org/1999/xlink">
<g id="graph0" class="graph" transform="scale(1 1) rotate(0) translate(4 370)">
<title>/home/dominik/uni/MoonState/include/headers.hpp</title>
<!-- Node1 -->
<g id="node1" class="node"><title>Node1</title>
<polygon fill="#bfbfbf" stroke="black" points="393.67,-335.5 393.67,-365.5 540.67,-365.5 540.67,-335.5 393.67,-335.5"/>
<text text-anchor="start" x="401.67" y="-353.5" font-family="Helvetica,sans-Serif" font-size="10.00">/home/dominik/uni/MoonState</text>
<text text-anchor="middle" x="467.17" y="-342.5" font-family="Helvetica,sans-Serif" font-size="10.00">/include/headers.hpp</text>
</g>
<!-- Node2 -->
<g id="node2" class="node"><title>Node2</title>
<g id="a_node2"><a xlink:href="helloBye2Proto_8hpp.html" target="_top" xlink:title="/home/dominik/uni/MoonState\l/include/helloBye2Proto.hpp">
<polygon fill="none" stroke="black" points="238.67,-268.5 238.67,-298.5 385.67,-298.5 385.67,-268.5 238.67,-268.5"/>
<text text-anchor="start" x="246.67" y="-286.5" font-family="Helvetica,sans-Serif" font-size="10.00">/home/dominik/uni/MoonState</text>
<text text-anchor="middle" x="312.17" y="-275.5" font-family="Helvetica,sans-Serif" font-size="10.00">/include/helloBye2Proto.hpp</text>
</a>
</g>
</g>
<!-- Node1&#45;&gt;Node2 -->
<g id="edge1" class="edge"><title>Node1&#45;&gt;Node2</title>
<path fill="none" stroke="midnightblue" d="M424.025,-331.407C399.279,-321.029 368.675,-308.195 345.737,-298.577"/>
<polygon fill="midnightblue" stroke="midnightblue" points="422.962,-334.756 433.538,-335.396 425.669,-328.301 422.962,-334.756"/>
</g>
<!-- Node4 -->
<g id="node4" class="node"><title>Node4</title>
<g id="a_node4"><a xlink:href="helloBye2__C_8cpp.html" target="_top" xlink:title="/home/dominik/uni/MoonState\l/src/helloBye2_C.cpp">
<polygon fill="none" stroke="black" points="47.6704,-134.5 47.6704,-164.5 194.67,-164.5 194.67,-134.5 47.6704,-134.5"/>
<text text-anchor="start" x="55.6704" y="-152.5" font-family="Helvetica,sans-Serif" font-size="10.00">/home/dominik/uni/MoonState</text>
<text text-anchor="middle" x="121.17" y="-141.5" font-family="Helvetica,sans-Serif" font-size="10.00">/src/helloBye2_C.cpp</text>
</a>
</g>
</g>
<!-- Node1&#45;&gt;Node4 -->
<g id="edge18" class="edge"><title>Node1&#45;&gt;Node4</title>
<path fill="none" stroke="midnightblue" d="M383.088,-340.592C262.7,-325.872 50.7708,-291.97 6.17039,-232 -16.3186,-201.761 29.8653,-178.41 70.2384,-164.603"/>
<polygon fill="midnightblue" stroke="midnightblue" points="383.027,-344.11 393.374,-341.83 383.864,-337.16 383.027,-344.11"/>
</g>
<!-- Node5 -->
<g id="node5" class="node"><title>Node5</title>
<g id="a_node5"><a xlink:href="helloBye2Proto_8cpp.html" target="_top" xlink:title="/home/dominik/uni/MoonState\l/src/helloBye2Proto.cpp">
<polygon fill="none" stroke="black" points="345.67,-201.5 345.67,-231.5 492.67,-231.5 492.67,-201.5 345.67,-201.5"/>
<text text-anchor="start" x="353.67" y="-219.5" font-family="Helvetica,sans-Serif" font-size="10.00">/home/dominik/uni/MoonState</text>
<text text-anchor="middle" x="419.17" y="-208.5" font-family="Helvetica,sans-Serif" font-size="10.00">/src/helloBye2Proto.cpp</text>
</a>
</g>
</g>
<!-- Node1&#45;&gt;Node5 -->
<g id="edge7" class="edge"><title>Node1&#45;&gt;Node5</title>
<path fill="none" stroke="midnightblue" d="M449.229,-327.26C443.266,-318.846 437.141,-308.902 433.17,-299 424.141,-276.48 420.932,-248.175 419.794,-231.538"/>
<polygon fill="midnightblue" stroke="midnightblue" points="446.513,-329.472 455.288,-335.409 452.13,-325.296 446.513,-329.472"/>
</g>
<!-- Node7 -->
<g id="node7" class="node"><title>Node7</title>
<g id="a_node7"><a xlink:href="helloByeProto_8cpp.html" target="_top" xlink:title="/home/dominik/uni/MoonState\l/src/helloByeProto.cpp">
<polygon fill="none" stroke="black" points="551.67,-201.5 551.67,-231.5 698.67,-231.5 698.67,-201.5 551.67,-201.5"/>
<text text-anchor="start" x="559.67" y="-219.5" font-family="Helvetica,sans-Serif" font-size="10.00">/home/dominik/uni/MoonState</text>
<text text-anchor="middle" x="625.17" y="-208.5" font-family="Helvetica,sans-Serif" font-size="10.00">/src/helloByeProto.cpp</text>
</a>
</g>
</g>
<!-- Node1&#45;&gt;Node7 -->
<g id="edge8" class="edge"><title>Node1&#45;&gt;Node7</title>
<path fill="none" stroke="midnightblue" d="M550.636,-335.437C572.455,-327.964 594.065,-316.522 609.17,-299 625.459,-280.106 627.039,-249.529 626.352,-231.688"/>
<polygon fill="midnightblue" stroke="midnightblue" points="549.434,-332.146 540.956,-338.5 551.546,-338.82 549.434,-332.146"/>
</g>
<!-- Node10 -->
<g id="node10" class="node"><title>Node10</title>
<g id="a_node10"><a xlink:href="helloBye__C_8cpp.html" target="_top" xlink:title="/home/dominik/uni/MoonState\l/src/helloBye_C.cpp">
<polygon fill="none" stroke="black" points="714.67,-0.5 714.67,-30.5 861.67,-30.5 861.67,-0.5 714.67,-0.5"/>
<text text-anchor="start" x="722.67" y="-18.5" font-family="Helvetica,sans-Serif" font-size="10.00">/home/dominik/uni/MoonState</text>
<text text-anchor="middle" x="788.17" y="-7.5" font-family="Helvetica,sans-Serif" font-size="10.00">/src/helloBye_C.cpp</text>
</a>
</g>
</g>
<!-- Node1&#45;&gt;Node10 -->
<g id="edge19" class="edge"><title>Node1&#45;&gt;Node10</title>
<path fill="none" stroke="midnightblue" d="M551.026,-340.557C674.349,-325.04 890.17,-287.837 890.17,-217.5 890.17,-217.5 890.17,-217.5 890.17,-148.5 890.17,-111.306 892.981,-97.1273 871.17,-67 859.499,-50.8779 840.953,-38.889 824.349,-30.6483"/>
<polygon fill="midnightblue" stroke="midnightblue" points="550.347,-337.114 540.851,-341.814 551.205,-344.061 550.347,-337.114"/>
</g>
<!-- Node12 -->
<g id="node12" class="node"><title>Node12</title>
<g id="a_node12"><a xlink:href="IPv4__5TupleL2Ident_8hpp.html" target="_top" xlink:title="/home/dominik/uni/MoonState\l/include/IPv4_5TupleL2Ident.hpp">
<polygon fill="none" stroke="black" points="442.17,-268.5 442.17,-298.5 600.17,-298.5 600.17,-268.5 442.17,-268.5"/>
<text text-anchor="start" x="450.17" y="-286.5" font-family="Helvetica,sans-Serif" font-size="10.00">/home/dominik/uni/MoonState</text>
<text text-anchor="middle" x="521.17" y="-275.5" font-family="Helvetica,sans-Serif" font-size="10.00">/include/IPv4_5TupleL2Ident.hpp</text>
</a>
</g>
</g>
<!-- Node1&#45;&gt;Node12 -->
<g id="edge14" class="edge"><title>Node1&#45;&gt;Node12</title>
<path fill="none" stroke="midnightblue" d="M485.491,-327.447C493.424,-317.899 502.475,-307.004 509.476,-298.577"/>
<polygon fill="midnightblue" stroke="midnightblue" points="482.586,-325.467 478.888,-335.396 487.97,-329.941 482.586,-325.467"/>
</g>
<!-- Node3 -->
<g id="node3" class="node"><title>Node3</title>
<g id="a_node3"><a xlink:href="helloBye2__C_8hpp.html" target="_top" xlink:title="/home/dominik/uni/MoonState\l/include/helloBye2_C.hpp">
<polygon fill="none" stroke="black" points="180.67,-201.5 180.67,-231.5 327.67,-231.5 327.67,-201.5 180.67,-201.5"/>
<text text-anchor="start" x="188.67" y="-219.5" font-family="Helvetica,sans-Serif" font-size="10.00">/home/dominik/uni/MoonState</text>
<text text-anchor="middle" x="254.17" y="-208.5" font-family="Helvetica,sans-Serif" font-size="10.00">/include/helloBye2_C.hpp</text>
</a>
</g>
</g>
<!-- Node2&#45;&gt;Node3 -->
<g id="edge2" class="edge"><title>Node2&#45;&gt;Node3</title>
<path fill="none" stroke="midnightblue" d="M292.75,-260.736C284.169,-251.119 274.327,-240.089 266.731,-231.577"/>
<polygon fill="midnightblue" stroke="midnightblue" points="290.316,-263.265 299.585,-268.396 295.539,-258.604 290.316,-263.265"/>
</g>
<!-- Node2&#45;&gt;Node5 -->
<g id="edge4" class="edge"><title>Node2&#45;&gt;Node5</title>
<path fill="none" stroke="midnightblue" d="M338.442,-262.734C354.197,-252.676 374.133,-240.685 390.323,-231.577"/>
<polygon fill="midnightblue" stroke="midnightblue" points="336.196,-260.019 329.709,-268.396 340.004,-265.892 336.196,-260.019"/>
</g>
<!-- Node6 -->
<g id="node6" class="node"><title>Node6</title>
<g id="a_node6"><a xlink:href="helloBye2ProtoStatic_8cpp.html" target="_top" xlink:title="/home/dominik/uni/MoonState\l/src/helloBye2ProtoStatic.cpp">
<polygon fill="none" stroke="black" points="15.6704,-201.5 15.6704,-231.5 162.67,-231.5 162.67,-201.5 15.6704,-201.5"/>
<text text-anchor="start" x="23.6704" y="-219.5" font-family="Helvetica,sans-Serif" font-size="10.00">/home/dominik/uni/MoonState</text>
<text text-anchor="middle" x="89.1704" y="-208.5" font-family="Helvetica,sans-Serif" font-size="10.00">/src/helloBye2ProtoStatic.cpp</text>
</a>
</g>
</g>
<!-- Node2&#45;&gt;Node6 -->
<g id="edge6" class="edge"><title>Node2&#45;&gt;Node6</title>
<path fill="none" stroke="midnightblue" d="M254.121,-265.58C217.901,-255.022 171.825,-241.592 137.582,-231.611"/>
<polygon fill="midnightblue" stroke="midnightblue" points="253.477,-269.038 264.057,-268.476 255.436,-262.317 253.477,-269.038"/>
</g>
<!-- Node3&#45;&gt;Node4 -->
<g id="edge3" class="edge"><title>Node3&#45;&gt;Node4</title>
<path fill="none" stroke="midnightblue" d="M216.3,-196.992C195.219,-186.689 169.394,-174.068 149.973,-164.577"/>
<polygon fill="midnightblue" stroke="midnightblue" points="214.79,-200.15 225.311,-201.396 217.864,-193.86 214.79,-200.15"/>
</g>
<!-- Node5&#45;&gt;Node2 -->
<g id="edge5" class="edge"><title>Node5&#45;&gt;Node2</title>
<path fill="none" stroke="midnightblue" d="M392.946,-237.236C377.2,-247.29 357.265,-259.282 341.066,-268.396"/>
<polygon fill="midnightblue" stroke="midnightblue" points="395.187,-239.954 401.673,-231.577 391.379,-234.081 395.187,-239.954"/>
</g>
<!-- Node8 -->
<g id="node8" class="node"><title>Node8</title>
<g id="a_node8"><a xlink:href="helloByeProto_8hpp.html" target="_top" xlink:title="/home/dominik/uni/MoonState\l/include/helloByeProto.hpp">
<polygon fill="none" stroke="black" points="551.67,-134.5 551.67,-164.5 698.67,-164.5 698.67,-134.5 551.67,-134.5"/>
<text text-anchor="start" x="559.67" y="-152.5" font-family="Helvetica,sans-Serif" font-size="10.00">/home/dominik/uni/MoonState</text>
<text text-anchor="middle" x="625.17" y="-141.5" font-family="Helvetica,sans-Serif" font-size="10.00">/include/helloByeProto.hpp</text>
</a>
</g>
</g>
<!-- Node7&#45;&gt;Node8 -->
<g id="edge9" class="edge"><title>Node7&#45;&gt;Node8</title>
<path fill="none" stroke="midnightblue" d="M618.625,-191.403C618.176,-182.37 618.466,-172.408 619.496,-164.577"/>
<polygon fill="midnightblue" stroke="midnightblue" points="615.141,-191.736 619.492,-201.396 622.115,-191.131 615.141,-191.736"/>
</g>
<!-- Node8&#45;&gt;Node7 -->
<g id="edge12" class="edge"><title>Node8&#45;&gt;Node7</title>
<path fill="none" stroke="midnightblue" d="M631.714,-174.565C632.165,-183.596 631.877,-193.56 630.849,-201.396"/>
<polygon fill="midnightblue" stroke="midnightblue" points="635.199,-174.236 630.845,-164.577 628.225,-174.842 635.199,-174.236"/>
</g>
<!-- Node9 -->
<g id="node9" class="node"><title>Node9</title>
<g id="a_node9"><a xlink:href="helloBye__C_8hpp.html" target="_top" xlink:title="/home/dominik/uni/MoonState\l/include/helloBye_C.hpp">
<polygon fill="none" stroke="black" points="714.67,-67.5 714.67,-97.5 861.67,-97.5 861.67,-67.5 714.67,-67.5"/>
<text text-anchor="start" x="722.67" y="-85.5" font-family="Helvetica,sans-Serif" font-size="10.00">/home/dominik/uni/MoonState</text>
<text text-anchor="middle" x="788.17" y="-74.5" font-family="Helvetica,sans-Serif" font-size="10.00">/include/helloBye_C.hpp</text>
</a>
</g>
</g>
<!-- Node8&#45;&gt;Node9 -->
<g id="edge10" class="edge"><title>Node8&#45;&gt;Node9</title>
<path fill="none" stroke="midnightblue" d="M669.854,-130.682C695.996,-120.257 728.536,-107.281 752.871,-97.5765"/>
<polygon fill="midnightblue" stroke="midnightblue" points="668.531,-127.441 660.539,-134.396 671.124,-133.943 668.531,-127.441"/>
</g>
<!-- Node11 -->
<g id="node11" class="node"><title>Node11</title>
<g id="a_node11"><a xlink:href="helloByeProtoStatic_8cpp.html" target="_top" xlink:title="/home/dominik/uni/MoonState\l/src/helloByeProtoStatic.cpp">
<polygon fill="none" stroke="black" points="549.67,-67.5 549.67,-97.5 696.67,-97.5 696.67,-67.5 549.67,-67.5"/>
<text text-anchor="start" x="557.67" y="-85.5" font-family="Helvetica,sans-Serif" font-size="10.00">/home/dominik/uni/MoonState</text>
<text text-anchor="middle" x="623.17" y="-74.5" font-family="Helvetica,sans-Serif" font-size="10.00">/src/helloByeProtoStatic.cpp</text>
</a>
</g>
</g>
<!-- Node8&#45;&gt;Node11 -->
<g id="edge13" class="edge"><title>Node8&#45;&gt;Node11</title>
<path fill="none" stroke="midnightblue" d="M624.42,-124.108C624.144,-115.154 623.842,-105.323 623.604,-97.5765"/>
<polygon fill="midnightblue" stroke="midnightblue" points="620.93,-124.508 624.736,-134.396 627.927,-124.293 620.93,-124.508"/>
</g>
<!-- Node9&#45;&gt;Node10 -->
<g id="edge11" class="edge"><title>Node9&#45;&gt;Node10</title>
<path fill="none" stroke="midnightblue" d="M788.17,-57.1081C788.17,-48.1539 788.17,-38.3227 788.17,-30.5765"/>
<polygon fill="midnightblue" stroke="midnightblue" points="784.67,-57.3959 788.17,-67.396 791.67,-57.396 784.67,-57.3959"/>
</g>
<!-- Node12&#45;&gt;Node5 -->
<g id="edge15" class="edge"><title>Node12&#45;&gt;Node5</title>
<path fill="none" stroke="midnightblue" d="M490.594,-263.015C474.721,-252.9 455.686,-240.77 441.26,-231.577"/>
<polygon fill="midnightblue" stroke="midnightblue" points="488.724,-265.973 499.038,-268.396 492.486,-260.07 488.724,-265.973"/>
</g>
<!-- Node12&#45;&gt;Node7 -->
<g id="edge16" class="edge"><title>Node12&#45;&gt;Node7</title>
<path fill="none" stroke="midnightblue" d="M552.346,-263.015C568.531,-252.9 587.939,-240.77 602.648,-231.577"/>
<polygon fill="midnightblue" stroke="midnightblue" points="550.362,-260.128 543.737,-268.396 554.072,-266.064 550.362,-260.128"/>
</g>
<!-- Node12&#45;&gt;Node10 -->
<g id="edge17" class="edge"><title>Node12&#45;&gt;Node10</title>
<path fill="none" stroke="midnightblue" d="M515.087,-258.704C505.425,-214.812 492.215,-120.702 540.17,-67 562.998,-41.4365 650.096,-28.2759 714.659,-21.8949"/>
<polygon fill="midnightblue" stroke="midnightblue" points="511.688,-259.542 517.368,-268.486 518.506,-257.952 511.688,-259.542"/>
</g>
</g>
</svg>
