<?xml version="1.0" encoding="UTF-8" standalone="no"?>
<!DOCTYPE svg PUBLIC "-//W3C//DTD SVG 1.1//EN"
 "http://www.w3.org/Graphics/SVG/1.1/DTD/svg11.dtd">
<!-- Generated by graphviz version 2.38.0 (20140413.2041)
 -->
<!-- Title: /home/dominik/uni/MoonState/include/headers.hpp Pages: 1 -->
<svg width="384pt" height="95pt"
 viewBox="0.00 0.00 384.00 95.00" xmlns="http://www.w3.org/2000/svg" xmlns:xlink="http://www.w3.org/1999/xlink">
<g id="graph0" class="graph" transform="scale(1 1) rotate(0) translate(4 91)">
<title>/home/dominik/uni/MoonState/include/headers.hpp</title>
<!-- Node1 -->
<g id="node1" class="node"><title>Node1</title>
<polygon fill="#bfbfbf" stroke="black" points="102.5,-56.5 102.5,-86.5 249.5,-86.5 249.5,-56.5 102.5,-56.5"/>
<text text-anchor="start" x="110.5" y="-74.5" font-family="Helvetica,sans-Serif" font-size="10.00">/home/dominik/uni/MoonState</text>
<text text-anchor="middle" x="176" y="-63.5" font-family="Helvetica,sans-Serif" font-size="10.00">/include/headers.hpp</text>
</g>
<!-- Node2 -->
<g id="node2" class="node"><title>Node2</title>
<polygon fill="none" stroke="#bfbfbf" points="0,-0.5 0,-19.5 38,-19.5 38,-0.5 0,-0.5"/>
<text text-anchor="middle" x="19" y="-7.5" font-family="Helvetica,sans-Serif" font-size="10.00">array</text>
</g>
<!-- Node1&#45;&gt;Node2 -->
<g id="edge1" class="edge"><title>Node1&#45;&gt;Node2</title>
<path fill="none" stroke="midnightblue" d="M138.793,-56.3993C110.935,-45.8417 73.3781,-31.6083 47.7915,-21.9114"/>
<polygon fill="midnightblue" stroke="midnightblue" points="48.8771,-18.58 38.2857,-18.3089 46.3963,-25.1257 48.8771,-18.58"/>
</g>
<!-- Node3 -->
<g id="node3" class="node"><title>Node3</title>
<polygon fill="none" stroke="#bfbfbf" points="56,-0.5 56,-19.5 102,-19.5 102,-0.5 56,-0.5"/>
<text text-anchor="middle" x="79" y="-7.5" font-family="Helvetica,sans-Serif" font-size="10.00">cstdint</text>
</g>
<!-- Node1&#45;&gt;Node3 -->
<g id="edge2" class="edge"><title>Node1&#45;&gt;Node3</title>
<path fill="none" stroke="midnightblue" d="M153.012,-56.3993C137.609,-46.9511 117.407,-34.5589 102.001,-25.1089"/>
<polygon fill="midnightblue" stroke="midnightblue" points="103.469,-21.9031 93.1144,-19.6578 99.8084,-27.87 103.469,-21.9031"/>
</g>
<!-- Node4 -->
<g id="node4" class="node"><title>Node4</title>
<polygon fill="none" stroke="#bfbfbf" points="120,-0.5 120,-19.5 166,-19.5 166,-0.5 120,-0.5"/>
<text text-anchor="middle" x="143" y="-7.5" font-family="Helvetica,sans-Serif" font-size="10.00">cstring</text>
</g>
<!-- Node1&#45;&gt;Node4 -->
<g id="edge3" class="edge"><title>Node1&#45;&gt;Node4</title>
<path fill="none" stroke="midnightblue" d="M168.179,-56.3993C163.532,-48.0207 157.601,-37.3269 152.663,-28.4229"/>
<polygon fill="midnightblue" stroke="midnightblue" points="155.713,-26.7052 147.802,-19.6578 149.591,-30.1004 155.713,-26.7052"/>
</g>
<!-- Node5 -->
<g id="node5" class="node"><title>Node5</title>
<polygon fill="none" stroke="#bfbfbf" points="184,-0.5 184,-19.5 236,-19.5 236,-0.5 184,-0.5"/>
<text text-anchor="middle" x="210" y="-7.5" font-family="Helvetica,sans-Serif" font-size="10.00">sstream</text>
</g>
<!-- Node1&#45;&gt;Node5 -->
<g id="edge4" class="edge"><title>Node1&#45;&gt;Node5</title>
<path fill="none" stroke="midnightblue" d="M184.058,-56.3993C188.845,-48.0207 194.956,-37.3269 200.044,-28.4229"/>
<polygon fill="midnightblue" stroke="midnightblue" points="203.13,-30.0767 205.053,-19.6578 197.052,-26.6037 203.13,-30.0767"/>
</g>
<!-- Node6 -->
<g id="node6" class="node"><title>Node6</title>
<polygon fill="none" stroke="#bfbfbf" points="254.5,-0.5 254.5,-19.5 295.5,-19.5 295.5,-0.5 254.5,-0.5"/>
<text text-anchor="middle" x="275" y="-7.5" font-family="Helvetica,sans-Serif" font-size="10.00">string</text>
</g>
<!-- Node1&#45;&gt;Node6 -->
<g id="edge5" class="edge"><title>Node1&#45;&gt;Node6</title>
<path fill="none" stroke="midnightblue" d="M199.462,-56.3993C215.331,-46.8619 236.191,-34.3248 251.968,-24.8422"/>
<polygon fill="midnightblue" stroke="midnightblue" points="253.826,-27.809 260.595,-19.6578 250.221,-21.8093 253.826,-27.809"/>
</g>
<!-- Node7 -->
<g id="node7" class="node"><title>Node7</title>
<polygon fill="none" stroke="#bfbfbf" points="314,-0.5 314,-19.5 376,-19.5 376,-0.5 314,-0.5"/>
<text text-anchor="middle" x="345" y="-7.5" font-family="Helvetica,sans-Serif" font-size="10.00">arpa/inet.h</text>
</g>
<!-- Node1&#45;&gt;Node7 -->
<g id="edge6" class="edge"><title>Node1&#45;&gt;Node7</title>
<path fill="none" stroke="midnightblue" d="M216.051,-56.3993C244.912,-46.238 283.445,-32.6716 310.853,-23.0221"/>
<polygon fill="midnightblue" stroke="midnightblue" points="312.139,-26.2801 320.409,-19.6578 309.814,-19.6774 312.139,-26.2801"/>
</g>
</g>
</svg>
