<?xml version="1.0" encoding="UTF-8" standalone="no"?>
<!DOCTYPE svg PUBLIC "-//W3C//DTD SVG 1.1//EN"
 "http://www.w3.org/Graphics/SVG/1.1/DTD/svg11.dtd">
<!-- Generated by graphviz version 2.38.0 (20140413.2041)
 -->
<!-- Title: /home/dominik/uni/MoonState/include/headers.hpp Pages: 1 -->
<svg width="374pt" height="374pt"
 viewBox="0.00 0.00 373.70 374.00" xmlns="http://www.w3.org/2000/svg" xmlns:xlink="http://www.w3.org/1999/xlink">
<g id="graph0" class="graph" transform="scale(1 1) rotate(0) translate(4 370)">
<title>/home/dominik/uni/MoonState/include/headers.hpp</title>
<!-- Node1 -->
<g id="node1" class="node"><title>Node1</title>
<polygon fill="#bfbfbf" stroke="black" points="26.2027,-335.5 26.2027,-365.5 173.203,-365.5 173.203,-335.5 26.2027,-335.5"/>
<text text-anchor="start" x="34.2027" y="-353.5" font-family="Helvetica,sans-Serif" font-size="10.00">/home/dominik/uni/MoonState</text>
<text text-anchor="middle" x="99.7027" y="-342.5" font-family="Helvetica,sans-Serif" font-size="10.00">/include/headers.hpp</text>
</g>
<!-- Node2 -->
<g id="node2" class="node"><title>Node2</title>
<g id="a_node2"><a xlink:href="helloByeProto_8cpp.html" target="_top" xlink:title="/home/dominik/uni/MoonState\l/src/helloByeProto.cpp">
<polygon fill="none" stroke="black" points="81.2027,-201.5 81.2027,-231.5 228.203,-231.5 228.203,-201.5 81.2027,-201.5"/>
<text text-anchor="start" x="89.2027" y="-219.5" font-family="Helvetica,sans-Serif" font-size="10.00">/home/dominik/uni/MoonState</text>
<text text-anchor="middle" x="154.703" y="-208.5" font-family="Helvetica,sans-Serif" font-size="10.00">/src/helloByeProto.cpp</text>
</a>
</g>
</g>
<!-- Node1&#45;&gt;Node2 -->
<g id="edge1" class="edge"><title>Node1&#45;&gt;Node2</title>
<path fill="none" stroke="midnightblue" d="M102.794,-325.391C105.53,-308.732 110.413,-286.357 118.703,-268 124.729,-254.655 134.513,-241.236 142.361,-231.589"/>
<polygon fill="midnightblue" stroke="midnightblue" points="99.3133,-325.005 101.293,-335.413 106.236,-326.042 99.3133,-325.005"/>
</g>
<!-- Node5 -->
<g id="node5" class="node"><title>Node5</title>
<g id="a_node5"><a xlink:href="helloBye__C_8cpp.html" target="_top" xlink:title="/home/dominik/uni/MoonState\l/src/helloBye_C.cpp">
<polygon fill="none" stroke="black" points="29.2027,-0.5 29.2027,-30.5 176.203,-30.5 176.203,-0.5 29.2027,-0.5"/>
<text text-anchor="start" x="37.2027" y="-18.5" font-family="Helvetica,sans-Serif" font-size="10.00">/home/dominik/uni/MoonState</text>
<text text-anchor="middle" x="102.703" y="-7.5" font-family="Helvetica,sans-Serif" font-size="10.00">/src/helloBye_C.cpp</text>
</a>
</g>
</g>
<!-- Node1&#45;&gt;Node5 -->
<g id="edge10" class="edge"><title>Node1&#45;&gt;Node5</title>
<path fill="none" stroke="midnightblue" d="M70.443,-328.738C41.2472,-305.353 0.702653,-264.43 0.702653,-217.5 0.702653,-217.5 0.702653,-217.5 0.702653,-148.5 0.702653,-111.306 -2.10796,-97.1273 19.7027,-67 31.3742,-50.8779 49.9205,-38.889 66.5241,-30.6483"/>
<polygon fill="midnightblue" stroke="midnightblue" points="68.6582,-331.783 78.7073,-335.14 72.9448,-326.249 68.6582,-331.783"/>
</g>
<!-- Node7 -->
<g id="node7" class="node"><title>Node7</title>
<g id="a_node7"><a xlink:href="IPv4__5TupleL2Ident_8hpp.html" target="_top" xlink:title="/home/dominik/uni/MoonState\l/include/IPv4_5TupleL2Ident.hpp">
<polygon fill="none" stroke="black" points="127.703,-268.5 127.703,-298.5 285.703,-298.5 285.703,-268.5 127.703,-268.5"/>
<text text-anchor="start" x="135.703" y="-286.5" font-family="Helvetica,sans-Serif" font-size="10.00">/home/dominik/uni/MoonState</text>
<text text-anchor="middle" x="206.703" y="-275.5" font-family="Helvetica,sans-Serif" font-size="10.00">/include/IPv4_5TupleL2Ident.hpp</text>
</a>
</g>
</g>
<!-- Node1&#45;&gt;Node7 -->
<g id="edge7" class="edge"><title>Node1&#45;&gt;Node7</title>
<path fill="none" stroke="midnightblue" d="M131.778,-330.015C148.429,-319.9 168.397,-307.77 183.531,-298.577"/>
<polygon fill="midnightblue" stroke="midnightblue" points="129.65,-327.213 122.92,-335.396 133.284,-333.195 129.65,-327.213"/>
</g>
<!-- Node3 -->
<g id="node3" class="node"><title>Node3</title>
<g id="a_node3"><a xlink:href="helloByeProto_8hpp.html" target="_top" xlink:title="/home/dominik/uni/MoonState\l/include/helloByeProto.hpp">
<polygon fill="none" stroke="black" points="81.2027,-134.5 81.2027,-164.5 228.203,-164.5 228.203,-134.5 81.2027,-134.5"/>
<text text-anchor="start" x="89.2027" y="-152.5" font-family="Helvetica,sans-Serif" font-size="10.00">/home/dominik/uni/MoonState</text>
<text text-anchor="middle" x="154.703" y="-141.5" font-family="Helvetica,sans-Serif" font-size="10.00">/include/helloByeProto.hpp</text>
</a>
</g>
</g>
<!-- Node2&#45;&gt;Node3 -->
<g id="edge2" class="edge"><title>Node2&#45;&gt;Node3</title>
<path fill="none" stroke="midnightblue" d="M148.157,-191.403C147.708,-182.37 147.998,-172.408 149.028,-164.577"/>
<polygon fill="midnightblue" stroke="midnightblue" points="144.673,-191.736 149.024,-201.396 151.647,-191.131 144.673,-191.736"/>
</g>
<!-- Node3&#45;&gt;Node2 -->
<g id="edge5" class="edge"><title>Node3&#45;&gt;Node2</title>
<path fill="none" stroke="midnightblue" d="M161.246,-174.565C161.697,-183.596 161.409,-193.56 160.381,-201.396"/>
<polygon fill="midnightblue" stroke="midnightblue" points="164.731,-174.236 160.377,-164.577 157.757,-174.842 164.731,-174.236"/>
</g>
<!-- Node4 -->
<g id="node4" class="node"><title>Node4</title>
<g id="a_node4"><a xlink:href="helloBye__C_8hpp.html" target="_top" xlink:title="/home/dominik/uni/MoonState\l/include/helloBye_C.hpp">
<polygon fill="none" stroke="black" points="29.2027,-67.5 29.2027,-97.5 176.203,-97.5 176.203,-67.5 29.2027,-67.5"/>
<text text-anchor="start" x="37.2027" y="-85.5" font-family="Helvetica,sans-Serif" font-size="10.00">/home/dominik/uni/MoonState</text>
<text text-anchor="middle" x="102.703" y="-74.5" font-family="Helvetica,sans-Serif" font-size="10.00">/include/helloBye_C.hpp</text>
</a>
</g>
</g>
<!-- Node3&#45;&gt;Node4 -->
<g id="edge3" class="edge"><title>Node3&#45;&gt;Node4</title>
<path fill="none" stroke="midnightblue" d="M137.06,-126.447C129.422,-116.899 120.706,-106.004 113.964,-97.5765"/>
<polygon fill="midnightblue" stroke="midnightblue" points="134.439,-128.774 143.419,-134.396 139.905,-124.401 134.439,-128.774"/>
</g>
<!-- Node6 -->
<g id="node6" class="node"><title>Node6</title>
<g id="a_node6"><a xlink:href="helloByeProtoStatic_8cpp.html" target="_top" xlink:title="/home/dominik/uni/MoonState\l/src/helloByeProtoStatic.cpp">
<polygon fill="none" stroke="black" points="194.203,-67.5 194.203,-97.5 341.203,-97.5 341.203,-67.5 194.203,-67.5"/>
<text text-anchor="start" x="202.203" y="-85.5" font-family="Helvetica,sans-Serif" font-size="10.00">/home/dominik/uni/MoonState</text>
<text text-anchor="middle" x="267.703" y="-74.5" font-family="Helvetica,sans-Serif" font-size="10.00">/src/helloByeProtoStatic.cpp</text>
</a>
</g>
</g>
<!-- Node3&#45;&gt;Node6 -->
<g id="edge6" class="edge"><title>Node3&#45;&gt;Node6</title>
<path fill="none" stroke="midnightblue" d="M188.089,-129.296C205.77,-119.125 227.101,-106.855 243.231,-97.5765"/>
<polygon fill="midnightblue" stroke="midnightblue" points="186.145,-126.376 179.222,-134.396 189.635,-132.444 186.145,-126.376"/>
</g>
<!-- Node4&#45;&gt;Node5 -->
<g id="edge4" class="edge"><title>Node4&#45;&gt;Node5</title>
<path fill="none" stroke="midnightblue" d="M102.703,-57.1081C102.703,-48.1539 102.703,-38.3227 102.703,-30.5765"/>
<polygon fill="midnightblue" stroke="midnightblue" points="99.2028,-57.3959 102.703,-67.396 106.203,-57.396 99.2028,-57.3959"/>
</g>
<!-- Node7&#45;&gt;Node2 -->
<g id="edge8" class="edge"><title>Node7&#45;&gt;Node2</title>
<path fill="none" stroke="midnightblue" d="M189.06,-260.447C181.422,-250.899 172.706,-240.004 165.964,-231.577"/>
<polygon fill="midnightblue" stroke="midnightblue" points="186.439,-262.774 195.419,-268.396 191.905,-258.401 186.439,-262.774"/>
</g>
<!-- Node7&#45;&gt;Node5 -->
<g id="edge9" class="edge"><title>Node7&#45;&gt;Node5</title>
<path fill="none" stroke="midnightblue" d="M237.215,-262.908C294.165,-223.975 406.075,-134.784 350.703,-67 328.986,-40.4152 241.392,-27.4699 176.427,-21.4178"/>
<polygon fill="midnightblue" stroke="midnightblue" points="235.252,-260.011 228.909,-268.497 239.16,-265.818 235.252,-260.011"/>
</g>
</g>
</svg>
