<?xml version="1.0" encoding="UTF-8" standalone="no"?>
<!DOCTYPE svg PUBLIC "-//W3C//DTD SVG 1.1//EN"
 "http://www.w3.org/Graphics/SVG/1.1/DTD/svg11.dtd">
<!-- Generated by graphviz version 2.40.1 (20161225.0304)
 -->
<!-- Title: /home/dominik/uni/MoonState/include/headers.hpp Pages: 1 -->
<svg width="1065pt" height="374pt"
 viewBox="0.00 0.00 1065.22 374.00" xmlns="http://www.w3.org/2000/svg" xmlns:xlink="http://www.w3.org/1999/xlink">
<g id="graph0" class="graph" transform="scale(1 1) rotate(0) translate(4 370)">
<title>/home/dominik/uni/MoonState/include/headers.hpp</title>
<!-- Node7 -->
<g id="node1" class="node">
<title>Node7</title>
<polygon fill="#bfbfbf" stroke="#000000" points="391.7235,-335.5 391.7235,-365.5 538.7235,-365.5 538.7235,-335.5 391.7235,-335.5"/>
<text text-anchor="start" x="399.7235" y="-353.5" font-family="Helvetica,sans-Serif" font-size="10.00" fill="#000000">/home/dominik/uni/MoonState</text>
<text text-anchor="middle" x="465.2235" y="-342.5" font-family="Helvetica,sans-Serif" font-size="10.00" fill="#000000">/include/headers.hpp</text>
</g>
<!-- Node8 -->
<g id="node2" class="node">
<title>Node8</title>
<g id="a_node2"><a xlink:href="IPv4__5TupleL2Ident_8hpp.html" target="_top" xlink:title="/home/dominik/uni/MoonState\l/include/IPv4_5TupleL2Ident.hpp">
<polygon fill="none" stroke="#000000" points="493.2235,-268.5 493.2235,-298.5 651.2235,-298.5 651.2235,-268.5 493.2235,-268.5"/>
<text text-anchor="start" x="501.2235" y="-286.5" font-family="Helvetica,sans-Serif" font-size="10.00" fill="#000000">/home/dominik/uni/MoonState</text>
<text text-anchor="middle" x="572.2235" y="-275.5" font-family="Helvetica,sans-Serif" font-size="10.00" fill="#000000">/include/IPv4_5TupleL2Ident.hpp</text>
</a>
</g>
</g>
<!-- Node7&#45;&gt;Node8 -->
<g id="edge1" class="edge">
<title>Node7&#45;&gt;Node8</title>
<path fill="none" stroke="#191970" d="M497.8408,-330.0761C513.9685,-319.9774 533.0993,-307.9983 547.9206,-298.7177"/>
<polygon fill="#191970" stroke="#191970" points="495.8545,-327.1903 489.2364,-335.4639 499.5695,-333.1232 495.8545,-327.1903"/>
</g>
<!-- Node10 -->
<g id="node4" class="node">
<title>Node10</title>
<g id="a_node4"><a xlink:href="dtlsClient_8cpp.html" target="_top" xlink:title="/home/dominik/uni/MoonState\l/src/dtlsClient.cpp">
<polygon fill="none" stroke="#000000" points="271.7235,-134.5 271.7235,-164.5 418.7235,-164.5 418.7235,-134.5 271.7235,-134.5"/>
<text text-anchor="start" x="279.7235" y="-152.5" font-family="Helvetica,sans-Serif" font-size="10.00" fill="#000000">/home/dominik/uni/MoonState</text>
<text text-anchor="middle" x="345.2235" y="-141.5" font-family="Helvetica,sans-Serif" font-size="10.00" fill="#000000">/src/dtlsClient.cpp</text>
</a>
</g>
</g>
<!-- Node7&#45;&gt;Node10 -->
<g id="edge30" class="edge">
<title>Node7&#45;&gt;Node10</title>
<path fill="none" stroke="#191970" d="M389.2521,-332.7944C354.9549,-323.4233 319.4085,-311.3241 307.2235,-299 275.9053,-267.3241 267.7927,-241.5525 286.2235,-201 293.0869,-185.8989 306.8082,-173.4948 319.2922,-164.6467"/>
<polygon fill="#191970" stroke="#191970" points="388.7843,-336.2919 399.3486,-335.4874 390.5884,-329.5284 388.7843,-336.2919"/>
</g>
<!-- Node11 -->
<g id="node5" class="node">
<title>Node11</title>
<g id="a_node5"><a xlink:href="helloBye2Proto_8cpp.html" target="_top" xlink:title="/home/dominik/uni/MoonState\l/src/helloBye2Proto.cpp">
<polygon fill="none" stroke="#000000" points="67.7235,-201.5 67.7235,-231.5 214.7235,-231.5 214.7235,-201.5 67.7235,-201.5"/>
<text text-anchor="start" x="75.7235" y="-219.5" font-family="Helvetica,sans-Serif" font-size="10.00" fill="#000000">/home/dominik/uni/MoonState</text>
<text text-anchor="middle" x="141.2235" y="-208.5" font-family="Helvetica,sans-Serif" font-size="10.00" fill="#000000">/src/helloBye2Proto.cpp</text>
</a>
</g>
</g>
<!-- Node7&#45;&gt;Node11 -->
<g id="edge24" class="edge">
<title>Node7&#45;&gt;Node11</title>
<path fill="none" stroke="#191970" d="M381.4224,-343.28C334.5423,-336.5909 276.2552,-323.7249 229.2235,-299 197.1556,-282.1416 168.2416,-250.3923 152.8636,-231.5769"/>
<polygon fill="#191970" stroke="#191970" points="381.1688,-346.7776 391.5488,-344.655 382.1106,-339.8413 381.1688,-346.7776"/>
</g>
<!-- Node12 -->
<g id="node6" class="node">
<title>Node12</title>
<g id="a_node6"><a xlink:href="helloBye2Proto_8hpp.html" target="_top" xlink:title="/home/dominik/uni/MoonState\l/include/helloBye2Proto.hpp">
<polygon fill="none" stroke="#000000" points="67.7235,-134.5 67.7235,-164.5 214.7235,-164.5 214.7235,-134.5 67.7235,-134.5"/>
<text text-anchor="start" x="75.7235" y="-152.5" font-family="Helvetica,sans-Serif" font-size="10.00" fill="#000000">/home/dominik/uni/MoonState</text>
<text text-anchor="middle" x="141.2235" y="-141.5" font-family="Helvetica,sans-Serif" font-size="10.00" fill="#000000">/include/helloBye2Proto.hpp</text>
</a>
</g>
</g>
<!-- Node7&#45;&gt;Node12 -->
<g id="edge23" class="edge">
<title>Node7&#45;&gt;Node12</title>
<path fill="none" stroke="#191970" d="M381.4988,-341.6994C325.1947,-334.1783 249.9116,-320.984 186.2235,-299 125.5268,-278.0485 91.4726,-286.9323 58.2235,-232 51.0893,-220.2132 51.5249,-213.0397 58.2235,-201 67.3754,-184.5509 84.1952,-172.6841 100.3128,-164.5184"/>
<polygon fill="#191970" stroke="#191970" points="381.0601,-345.1717 391.4286,-342.9934 381.9648,-338.2304 381.0601,-345.1717"/>
</g>
<!-- Node14 -->
<g id="node8" class="node">
<title>Node14</title>
<g id="a_node8"><a xlink:href="helloBye2__C_8cpp.html" target="_top" xlink:title="/home/dominik/uni/MoonState\l/src/helloBye2_C.cpp">
<polygon fill="none" stroke="#000000" points="61.7235,-.5 61.7235,-30.5 208.7235,-30.5 208.7235,-.5 61.7235,-.5"/>
<text text-anchor="start" x="69.7235" y="-18.5" font-family="Helvetica,sans-Serif" font-size="10.00" fill="#000000">/home/dominik/uni/MoonState</text>
<text text-anchor="middle" x="135.2235" y="-7.5" font-family="Helvetica,sans-Serif" font-size="10.00" fill="#000000">/src/helloBye2_C.cpp</text>
</a>
</g>
</g>
<!-- Node7&#45;&gt;Node14 -->
<g id="edge31" class="edge">
<title>Node7&#45;&gt;Node14</title>
<path fill="none" stroke="#191970" d="M381.3754,-345.0451C286.4628,-337.8282 138.5063,-323.1228 88.2235,-299 40.1788,-275.9509 1.2235,-269.7875 1.2235,-216.5 1.2235,-216.5 1.2235,-216.5 1.2235,-149.5 1.2235,-111.8735 -3.6706,-96.0658 20.2235,-67 34.2544,-49.9323 55.1143,-38.3158 75.2308,-30.5059"/>
<polygon fill="#191970" stroke="#191970" points="381.2988,-348.549 391.5319,-345.8042 381.8207,-341.5685 381.2988,-348.549"/>
</g>
<!-- Node16 -->
<g id="node10" class="node">
<title>Node16</title>
<g id="a_node10"><a xlink:href="helloBye3_8cpp.html" target="_top" xlink:title="/home/dominik/uni/MoonState\l/src/helloBye3.cpp">
<polygon fill="none" stroke="#000000" points="474.7235,-201.5 474.7235,-231.5 621.7235,-231.5 621.7235,-201.5 474.7235,-201.5"/>
<text text-anchor="start" x="482.7235" y="-219.5" font-family="Helvetica,sans-Serif" font-size="10.00" fill="#000000">/home/dominik/uni/MoonState</text>
<text text-anchor="middle" x="548.2235" y="-208.5" font-family="Helvetica,sans-Serif" font-size="10.00" fill="#000000">/src/helloBye3.cpp</text>
</a>
</g>
</g>
<!-- Node7&#45;&gt;Node16 -->
<g id="edge26" class="edge">
<title>Node7&#45;&gt;Node16</title>
<path fill="none" stroke="#191970" d="M466.7559,-324.959C468.7862,-307.7566 473.4679,-285.1639 484.2235,-268 493.614,-253.0146 508.9231,-240.4634 522.214,-231.5042"/>
<polygon fill="#191970" stroke="#191970" points="463.228,-325.0878 465.7674,-335.3738 470.1967,-325.7493 463.228,-325.0878"/>
</g>
<!-- Node17 -->
<g id="node11" class="node">
<title>Node17</title>
<g id="a_node11"><a xlink:href="helloBye3_8hpp.html" target="_top" xlink:title="/home/dominik/uni/MoonState\l/include/helloBye3.hpp">
<polygon fill="none" stroke="#000000" points="474.7235,-134.5 474.7235,-164.5 621.7235,-164.5 621.7235,-134.5 474.7235,-134.5"/>
<text text-anchor="start" x="482.7235" y="-152.5" font-family="Helvetica,sans-Serif" font-size="10.00" fill="#000000">/home/dominik/uni/MoonState</text>
<text text-anchor="middle" x="548.2235" y="-141.5" font-family="Helvetica,sans-Serif" font-size="10.00" fill="#000000">/include/helloBye3.hpp</text>
</a>
</g>
</g>
<!-- Node7&#45;&gt;Node17 -->
<g id="edge25" class="edge">
<title>Node7&#45;&gt;Node17</title>
<path fill="none" stroke="#191970" d="M415.1038,-331.5941C352.1044,-305.0374 257.1189,-253.9754 300.2235,-201 311.3251,-187.3563 405.4247,-170.65 474.4382,-160.039"/>
<polygon fill="#191970" stroke="#191970" points="413.9513,-334.9048 424.5301,-335.4872 416.6234,-328.4349 413.9513,-334.9048"/>
</g>
<!-- Node18 -->
<g id="node12" class="node">
<title>Node18</title>
<g id="a_node12"><a xlink:href="helloBye3MemPool_8cpp.html" target="_top" xlink:title="/home/dominik/uni/MoonState\l/src/helloBye3MemPool.cpp">
<polygon fill="none" stroke="#000000" points="843.7235,-201.5 843.7235,-231.5 990.7235,-231.5 990.7235,-201.5 843.7235,-201.5"/>
<text text-anchor="start" x="851.7235" y="-219.5" font-family="Helvetica,sans-Serif" font-size="10.00" fill="#000000">/home/dominik/uni/MoonState</text>
<text text-anchor="middle" x="917.2235" y="-208.5" font-family="Helvetica,sans-Serif" font-size="10.00" fill="#000000">/src/helloBye3MemPool.cpp</text>
</a>
</g>
</g>
<!-- Node7&#45;&gt;Node18 -->
<g id="edge28" class="edge">
<title>Node7&#45;&gt;Node18</title>
<path fill="none" stroke="#191970" d="M548.9637,-334.5968C592.8819,-325.5419 647.3598,-313.1812 695.2235,-299 762.0456,-279.2018 837.7029,-249.4537 881.2017,-231.6108"/>
<polygon fill="#191970" stroke="#191970" points="547.9984,-331.2216 538.901,-336.6519 549.3991,-338.08 547.9984,-331.2216"/>
</g>
<!-- Node19 -->
<g id="node13" class="node">
<title>Node19</title>
<g id="a_node13"><a xlink:href="helloBye3MemPool_8hpp.html" target="_top" xlink:title="/home/dominik/uni/MoonState\l/include/helloBye3MemPool.hpp">
<polygon fill="none" stroke="#000000" points="844.2235,-134.5 844.2235,-164.5 1000.2235,-164.5 1000.2235,-134.5 844.2235,-134.5"/>
<text text-anchor="start" x="852.2235" y="-152.5" font-family="Helvetica,sans-Serif" font-size="10.00" fill="#000000">/home/dominik/uni/MoonState</text>
<text text-anchor="middle" x="922.2235" y="-141.5" font-family="Helvetica,sans-Serif" font-size="10.00" fill="#000000">/include/helloBye3MemPool.hpp</text>
</a>
</g>
</g>
<!-- Node7&#45;&gt;Node19 -->
<g id="edge27" class="edge">
<title>Node7&#45;&gt;Node19</title>
<path fill="none" stroke="#191970" d="M548.943,-344.725C685.4335,-333.3379 946.1635,-302.6776 1000.2235,-232 1019.5634,-206.7152 983.4591,-180.499 954.1686,-164.5896"/>
<polygon fill="#191970" stroke="#191970" points="548.6158,-341.24 538.9346,-345.544 549.1868,-348.2167 548.6158,-341.24"/>
</g>
<!-- Node20 -->
<g id="node14" class="node">
<title>Node20</title>
<g id="a_node14"><a xlink:href="helloByeProto_8cpp.html" target="_top" xlink:title="/home/dominik/uni/MoonState\l/src/helloByeProto.cpp">
<polygon fill="none" stroke="#000000" points="678.7235,-201.5 678.7235,-231.5 825.7235,-231.5 825.7235,-201.5 678.7235,-201.5"/>
<text text-anchor="start" x="686.7235" y="-219.5" font-family="Helvetica,sans-Serif" font-size="10.00" fill="#000000">/home/dominik/uni/MoonState</text>
<text text-anchor="middle" x="752.2235" y="-208.5" font-family="Helvetica,sans-Serif" font-size="10.00" fill="#000000">/src/helloByeProto.cpp</text>
</a>
</g>
</g>
<!-- Node7&#45;&gt;Node20 -->
<g id="edge29" class="edge">
<title>Node7&#45;&gt;Node20</title>
<path fill="none" stroke="#191970" d="M549.0526,-337.4193C584.7674,-329.5948 625.9969,-317.4592 660.2235,-299 692.7014,-281.4839 723.0674,-250.2633 739.4983,-231.6606"/>
<polygon fill="#191970" stroke="#191970" points="548.1968,-334.0228 539.1359,-339.5136 549.6433,-340.8717 548.1968,-334.0228"/>
</g>
<!-- Node23 -->
<g id="node17" class="node">
<title>Node23</title>
<g id="a_node17"><a xlink:href="helloBye__C_8cpp.html" target="_top" xlink:title="/home/dominik/uni/MoonState\l/src/helloBye_C.cpp">
<polygon fill="none" stroke="#000000" points="843.7235,-.5 843.7235,-30.5 990.7235,-30.5 990.7235,-.5 843.7235,-.5"/>
<text text-anchor="start" x="851.7235" y="-18.5" font-family="Helvetica,sans-Serif" font-size="10.00" fill="#000000">/home/dominik/uni/MoonState</text>
<text text-anchor="middle" x="917.2235" y="-7.5" font-family="Helvetica,sans-Serif" font-size="10.00" fill="#000000">/src/helloBye_C.cpp</text>
</a>
</g>
</g>
<!-- Node7&#45;&gt;Node23 -->
<g id="edge32" class="edge">
<title>Node7&#45;&gt;Node23</title>
<path fill="none" stroke="#191970" d="M549.0948,-345.1898C660.7454,-337.396 851.8371,-321.3261 918.2235,-299 986.3157,-276.1003 1057.2235,-288.3397 1057.2235,-216.5 1057.2235,-216.5 1057.2235,-216.5 1057.2235,-149.5 1057.2235,-91.631 994.0253,-51.0338 952.5514,-30.6223"/>
<polygon fill="#191970" stroke="#191970" points="548.6116,-341.7147 538.8765,-345.8955 549.0939,-348.6981 548.6116,-341.7147"/>
</g>
<!-- Node9 -->
<g id="node3" class="node">
<title>Node9</title>
<g id="a_node3"><a xlink:href="dtlsClient_8hpp.html" target="_top" xlink:title="/home/dominik/uni/MoonState\l/include/dtlsClient.hpp">
<polygon fill="none" stroke="#000000" points="309.7235,-201.5 309.7235,-231.5 456.7235,-231.5 456.7235,-201.5 309.7235,-201.5"/>
<text text-anchor="start" x="317.7235" y="-219.5" font-family="Helvetica,sans-Serif" font-size="10.00" fill="#000000">/home/dominik/uni/MoonState</text>
<text text-anchor="middle" x="383.2235" y="-208.5" font-family="Helvetica,sans-Serif" font-size="10.00" fill="#000000">/include/dtlsClient.hpp</text>
</a>
</g>
</g>
<!-- Node8&#45;&gt;Node9 -->
<g id="edge2" class="edge">
<title>Node8&#45;&gt;Node9</title>
<path fill="none" stroke="#191970" d="M520.0433,-265.0023C490.3901,-254.4903 453.7303,-241.4945 425.8238,-231.6017"/>
<polygon fill="#191970" stroke="#191970" points="519.2135,-268.4214 529.8082,-268.4639 521.5524,-261.8237 519.2135,-268.4214"/>
</g>
<!-- Node8&#45;&gt;Node11 -->
<g id="edge4" class="edge">
<title>Node8&#45;&gt;Node11</title>
<path fill="none" stroke="#191970" d="M483.187,-269.6591C403.8098,-257.3197 289.0073,-239.4734 214.7413,-227.9285"/>
<polygon fill="#191970" stroke="#191970" points="482.7525,-273.1335 493.1715,-271.2112 483.8278,-266.2165 482.7525,-273.1335"/>
</g>
<!-- Node8&#45;&gt;Node16 -->
<g id="edge10" class="edge">
<title>Node8&#45;&gt;Node16</title>
<path fill="none" stroke="#191970" d="M563.3078,-258.6103C560.0642,-249.5553 556.4981,-239.5998 553.648,-231.6432"/>
<polygon fill="#191970" stroke="#191970" points="560.1103,-260.0627 566.7776,-268.2967 566.7002,-257.7021 560.1103,-260.0627"/>
</g>
<!-- Node8&#45;&gt;Node18 -->
<g id="edge13" class="edge">
<title>Node8&#45;&gt;Node18</title>
<path fill="none" stroke="#191970" d="M659.6986,-266.5121C716.5239,-255.4765 789.7643,-241.2529 843.6025,-230.7974"/>
<polygon fill="#191970" stroke="#191970" points="658.7976,-263.1216 649.6483,-268.4639 660.1321,-269.9932 658.7976,-263.1216"/>
</g>
<!-- Node8&#45;&gt;Node20 -->
<g id="edge16" class="edge">
<title>Node8&#45;&gt;Node20</title>
<path fill="none" stroke="#191970" d="M622.2877,-264.865C650.4636,-254.3773 685.1898,-241.4515 711.6518,-231.6017"/>
<polygon fill="#191970" stroke="#191970" points="620.7699,-261.6953 612.619,-268.4639 623.2118,-268.2556 620.7699,-261.6953"/>
</g>
<!-- Node8&#45;&gt;Node23 -->
<g id="edge22" class="edge">
<title>Node8&#45;&gt;Node23</title>
<path fill="none" stroke="#191970" d="M603.0698,-262.1694C613.0778,-253.8282 623.3586,-243.4942 630.2235,-232 668.862,-167.3062 615.2165,-119.5496 669.2235,-67 693.6884,-43.1953 779.6885,-29.3227 843.5907,-22.0903"/>
<polygon fill="#191970" stroke="#191970" points="600.8445,-259.467 595.1726,-268.4158 605.187,-264.9573 600.8445,-259.467"/>
</g>
<!-- Node9&#45;&gt;Node10 -->
<g id="edge3" class="edge">
<title>Node9&#45;&gt;Node10</title>
<path fill="none" stroke="#191970" d="M369.6024,-192.4837C364.3368,-183.1996 358.4705,-172.8565 353.8122,-164.6432"/>
<polygon fill="#191970" stroke="#191970" points="366.6229,-194.325 374.6007,-201.2967 372.7117,-190.8716 366.6229,-194.325"/>
</g>
<!-- Node11&#45;&gt;Node12 -->
<g id="edge5" class="edge">
<title>Node11&#45;&gt;Node12</title>
<path fill="none" stroke="#191970" d="M134.662,-191.3179C134.2475,-182.3414 134.5168,-172.5143 135.47,-164.6432"/>
<polygon fill="#191970" stroke="#191970" points="131.174,-191.6087 135.4627,-201.2967 138.1515,-191.0487 131.174,-191.6087"/>
</g>
<!-- Node12&#45;&gt;Node11 -->
<g id="edge8" class="edge">
<title>Node12&#45;&gt;Node11</title>
<path fill="none" stroke="#191970" d="M147.7819,-174.6135C148.1999,-183.5857 147.9341,-193.4156 146.9844,-201.2967"/>
<polygon fill="#191970" stroke="#191970" points="151.2704,-174.3291 146.9771,-164.6432 144.2931,-174.8924 151.2704,-174.3291"/>
</g>
<!-- Node13 -->
<g id="node7" class="node">
<title>Node13</title>
<g id="a_node7"><a xlink:href="helloBye2__C_8hpp.html" target="_top" xlink:title="/home/dominik/uni/MoonState\l/include/helloBye2_C.hpp">
<polygon fill="none" stroke="#000000" points="194.7235,-67.5 194.7235,-97.5 341.7235,-97.5 341.7235,-67.5 194.7235,-67.5"/>
<text text-anchor="start" x="202.7235" y="-85.5" font-family="Helvetica,sans-Serif" font-size="10.00" fill="#000000">/home/dominik/uni/MoonState</text>
<text text-anchor="middle" x="268.2235" y="-74.5" font-family="Helvetica,sans-Serif" font-size="10.00" fill="#000000">/include/helloBye2_C.hpp</text>
</a>
</g>
</g>
<!-- Node12&#45;&gt;Node13 -->
<g id="edge6" class="edge">
<title>Node12&#45;&gt;Node13</title>
<path fill="none" stroke="#191970" d="M178.614,-129.7743C198.0257,-119.5335 221.3792,-107.2132 239.378,-97.7177"/>
<polygon fill="#191970" stroke="#191970" points="176.9363,-126.7021 169.7248,-134.4639 180.2026,-132.8934 176.9363,-126.7021"/>
</g>
<!-- Node15 -->
<g id="node9" class="node">
<title>Node15</title>
<g id="a_node9"><a xlink:href="helloBye2ProtoStatic_8cpp.html" target="_top" xlink:title="/home/dominik/uni/MoonState\l/src/helloBye2ProtoStatic.cpp">
<polygon fill="none" stroke="#000000" points="29.7235,-67.5 29.7235,-97.5 176.7235,-97.5 176.7235,-67.5 29.7235,-67.5"/>
<text text-anchor="start" x="37.7235" y="-85.5" font-family="Helvetica,sans-Serif" font-size="10.00" fill="#000000">/home/dominik/uni/MoonState</text>
<text text-anchor="middle" x="103.2235" y="-74.5" font-family="Helvetica,sans-Serif" font-size="10.00" fill="#000000">/src/helloBye2ProtoStatic.cpp</text>
</a>
</g>
</g>
<!-- Node12&#45;&gt;Node15 -->
<g id="edge9" class="edge">
<title>Node12&#45;&gt;Node15</title>
<path fill="none" stroke="#191970" d="M127.6024,-125.4837C122.3368,-116.1996 116.4705,-105.8565 111.8122,-97.6432"/>
<polygon fill="#191970" stroke="#191970" points="124.6229,-127.325 132.6007,-134.2967 130.7117,-123.8716 124.6229,-127.325"/>
</g>
<!-- Node13&#45;&gt;Node14 -->
<g id="edge7" class="edge">
<title>Node13&#45;&gt;Node14</title>
<path fill="none" stroke="#191970" d="M229.3422,-62.9132C208.9592,-52.645 184.3663,-40.2561 165.4319,-30.7177"/>
<polygon fill="#191970" stroke="#191970" points="227.8703,-66.0906 238.3757,-67.4639 231.0196,-59.8391 227.8703,-66.0906"/>
</g>
<!-- Node16&#45;&gt;Node17 -->
<g id="edge11" class="edge">
<title>Node16&#45;&gt;Node17</title>
<path fill="none" stroke="#191970" d="M541.662,-191.3179C541.2475,-182.3414 541.5168,-172.5143 542.47,-164.6432"/>
<polygon fill="#191970" stroke="#191970" points="538.174,-191.6087 542.4627,-201.2967 545.1515,-191.0487 538.174,-191.6087"/>
</g>
<!-- Node17&#45;&gt;Node16 -->
<g id="edge12" class="edge">
<title>Node17&#45;&gt;Node16</title>
<path fill="none" stroke="#191970" d="M554.7819,-174.6135C555.1999,-183.5857 554.9341,-193.4156 553.9844,-201.2967"/>
<polygon fill="#191970" stroke="#191970" points="558.2704,-174.3291 553.9771,-164.6432 551.2931,-174.8924 558.2704,-174.3291"/>
</g>
<!-- Node18&#45;&gt;Node19 -->
<g id="edge14" class="edge">
<title>Node18&#45;&gt;Node19</title>
<path fill="none" stroke="#191970" d="M912.5498,-191.0249C912.8185,-182.128 913.8161,-172.4287 915.3399,-164.6432"/>
<polygon fill="#191970" stroke="#191970" points="909.051,-191.313 912.5973,-201.2967 916.051,-191.2806 909.051,-191.313"/>
</g>
<!-- Node19&#45;&gt;Node18 -->
<g id="edge15" class="edge">
<title>Node19&#45;&gt;Node18</title>
<path fill="none" stroke="#191970" d="M926.8993,-174.9064C926.6344,-183.7991 925.6401,-193.5013 924.1189,-201.2967"/>
<polygon fill="#191970" stroke="#191970" points="930.398,-174.6252 926.847,-164.6432 923.3981,-174.6609 930.398,-174.6252"/>
</g>
<!-- Node21 -->
<g id="node15" class="node">
<title>Node21</title>
<g id="a_node15"><a xlink:href="helloByeProto_8hpp.html" target="_top" xlink:title="/home/dominik/uni/MoonState\l/include/helloByeProto.hpp">
<polygon fill="none" stroke="#000000" points="678.7235,-134.5 678.7235,-164.5 825.7235,-164.5 825.7235,-134.5 678.7235,-134.5"/>
<text text-anchor="start" x="686.7235" y="-152.5" font-family="Helvetica,sans-Serif" font-size="10.00" fill="#000000">/home/dominik/uni/MoonState</text>
<text text-anchor="middle" x="752.2235" y="-141.5" font-family="Helvetica,sans-Serif" font-size="10.00" fill="#000000">/include/helloByeProto.hpp</text>
</a>
</g>
</g>
<!-- Node20&#45;&gt;Node21 -->
<g id="edge17" class="edge">
<title>Node20&#45;&gt;Node21</title>
<path fill="none" stroke="#191970" d="M745.662,-191.3179C745.2475,-182.3414 745.5168,-172.5143 746.47,-164.6432"/>
<polygon fill="#191970" stroke="#191970" points="742.174,-191.6087 746.4627,-201.2967 749.1515,-191.0487 742.174,-191.6087"/>
</g>
<!-- Node21&#45;&gt;Node20 -->
<g id="edge20" class="edge">
<title>Node21&#45;&gt;Node20</title>
<path fill="none" stroke="#191970" d="M758.7819,-174.6135C759.1999,-183.5857 758.9341,-193.4156 757.9844,-201.2967"/>
<polygon fill="#191970" stroke="#191970" points="762.2704,-174.3291 757.9771,-164.6432 755.2931,-174.8924 762.2704,-174.3291"/>
</g>
<!-- Node22 -->
<g id="node16" class="node">
<title>Node22</title>
<g id="a_node16"><a xlink:href="helloBye__C_8hpp.html" target="_top" xlink:title="/home/dominik/uni/MoonState\l/include/helloBye_C.hpp">
<polygon fill="none" stroke="#000000" points="843.7235,-67.5 843.7235,-97.5 990.7235,-97.5 990.7235,-67.5 843.7235,-67.5"/>
<text text-anchor="start" x="851.7235" y="-85.5" font-family="Helvetica,sans-Serif" font-size="10.00" fill="#000000">/home/dominik/uni/MoonState</text>
<text text-anchor="middle" x="917.2235" y="-74.5" font-family="Helvetica,sans-Serif" font-size="10.00" fill="#000000">/include/helloBye_C.hpp</text>
</a>
</g>
</g>
<!-- Node21&#45;&gt;Node22 -->
<g id="edge18" class="edge">
<title>Node21&#45;&gt;Node22</title>
<path fill="none" stroke="#191970" d="M798.7938,-130.5897C824.499,-120.1518 855.9878,-107.3654 880.0328,-97.6017"/>
<polygon fill="#191970" stroke="#191970" points="797.2012,-127.4587 789.2528,-134.4639 799.8349,-133.9444 797.2012,-127.4587"/>
</g>
<!-- Node24 -->
<g id="node18" class="node">
<title>Node24</title>
<g id="a_node18"><a xlink:href="helloByeProtoStatic_8cpp.html" target="_top" xlink:title="/home/dominik/uni/MoonState\l/src/helloByeProtoStatic.cpp">
<polygon fill="none" stroke="#000000" points="678.7235,-67.5 678.7235,-97.5 825.7235,-97.5 825.7235,-67.5 678.7235,-67.5"/>
<text text-anchor="start" x="686.7235" y="-85.5" font-family="Helvetica,sans-Serif" font-size="10.00" fill="#000000">/home/dominik/uni/MoonState</text>
<text text-anchor="middle" x="752.2235" y="-74.5" font-family="Helvetica,sans-Serif" font-size="10.00" fill="#000000">/src/helloByeProtoStatic.cpp</text>
</a>
</g>
</g>
<!-- Node21&#45;&gt;Node24 -->
<g id="edge21" class="edge">
<title>Node21&#45;&gt;Node24</title>
<path fill="none" stroke="#191970" d="M752.2235,-124.0249C752.2235,-115.128 752.2235,-105.4287 752.2235,-97.6432"/>
<polygon fill="#191970" stroke="#191970" points="748.7236,-124.2966 752.2235,-134.2967 755.7236,-124.2967 748.7236,-124.2966"/>
</g>
<!-- Node22&#45;&gt;Node23 -->
<g id="edge19" class="edge">
<title>Node22&#45;&gt;Node23</title>
<path fill="none" stroke="#191970" d="M917.2235,-57.0249C917.2235,-48.128 917.2235,-38.4287 917.2235,-30.6432"/>
<polygon fill="#191970" stroke="#191970" points="913.7236,-57.2966 917.2235,-67.2967 920.7236,-57.2967 913.7236,-57.2966"/>
</g>
</g>
</svg>
