<?xml version="1.0" encoding="UTF-8" standalone="no"?>
<!DOCTYPE svg PUBLIC "-//W3C//DTD SVG 1.1//EN"
 "http://www.w3.org/Graphics/SVG/1.1/DTD/svg11.dtd">
<!-- Generated by graphviz version 2.40.1 (20161225.0304)
 -->
<!-- Title: /home/dominik/uni/MoonState/include/headers.hpp Pages: 1 -->
<svg width="884pt" height="374pt"
 viewBox="0.00 0.00 883.50 374.00" xmlns="http://www.w3.org/2000/svg" xmlns:xlink="http://www.w3.org/1999/xlink">
<g id="graph0" class="graph" transform="scale(1 1) rotate(0) translate(4 370)">
<title>/home/dominik/uni/MoonState/include/headers.hpp</title>
<!-- Node7 -->
<g id="node1" class="node">
<title>Node7</title>
<polygon fill="#bfbfbf" stroke="#000000" points="390,-335.5 390,-365.5 537,-365.5 537,-335.5 390,-335.5"/>
<text text-anchor="start" x="398" y="-353.5" font-family="Helvetica,sans-Serif" font-size="10.00" fill="#000000">/home/dominik/uni/MoonState</text>
<text text-anchor="middle" x="463.5" y="-342.5" font-family="Helvetica,sans-Serif" font-size="10.00" fill="#000000">/include/headers.hpp</text>
</g>
<!-- Node8 -->
<g id="node2" class="node">
<title>Node8</title>
<g id="a_node2"><a xlink:href="IPv4__5TupleL2Ident_8hpp.html" target="_top" xlink:title="/home/dominik/uni/MoonState\l/include/IPv4_5TupleL2Ident.hpp">
<polygon fill="none" stroke="#000000" points="384.5,-268.5 384.5,-298.5 542.5,-298.5 542.5,-268.5 384.5,-268.5"/>
<text text-anchor="start" x="392.5" y="-286.5" font-family="Helvetica,sans-Serif" font-size="10.00" fill="#000000">/home/dominik/uni/MoonState</text>
<text text-anchor="middle" x="463.5" y="-275.5" font-family="Helvetica,sans-Serif" font-size="10.00" fill="#000000">/include/IPv4_5TupleL2Ident.hpp</text>
</a>
</g>
</g>
<!-- Node7&#45;&gt;Node8 -->
<g id="edge1" class="edge">
<title>Node7&#45;&gt;Node8</title>
<path fill="none" stroke="#191970" d="M463.5,-325.0249C463.5,-316.128 463.5,-306.4287 463.5,-298.6432"/>
<polygon fill="#191970" stroke="#191970" points="460.0001,-325.2966 463.5,-335.2967 467.0001,-325.2967 460.0001,-325.2966"/>
</g>
<!-- Node10 -->
<g id="node4" class="node">
<title>Node10</title>
<g id="a_node4"><a xlink:href="dtlsClient_8cpp.html" target="_top" xlink:title="/home/dominik/uni/MoonState\l/src/dtlsClient.cpp">
<polygon fill="none" stroke="#000000" points="274,-134.5 274,-164.5 421,-164.5 421,-134.5 274,-134.5"/>
<text text-anchor="start" x="282" y="-152.5" font-family="Helvetica,sans-Serif" font-size="10.00" fill="#000000">/home/dominik/uni/MoonState</text>
<text text-anchor="middle" x="347.5" y="-141.5" font-family="Helvetica,sans-Serif" font-size="10.00" fill="#000000">/src/dtlsClient.cpp</text>
</a>
</g>
</g>
<!-- Node7&#45;&gt;Node10 -->
<g id="edge25" class="edge">
<title>Node7&#45;&gt;Node10</title>
<path fill="none" stroke="#191970" d="M408.078,-331.4789C365.0653,-313.3693 308.6593,-281.4467 283.5,-232 277.2519,-219.7204 277.5493,-213.4265 283.5,-201 290.8916,-185.5644 305.4161,-173.2838 318.7623,-164.5919"/>
<polygon fill="#191970" stroke="#191970" points="407.0065,-334.8216 417.5881,-335.3524 409.6471,-328.3387 407.0065,-334.8216"/>
</g>
<!-- Node11 -->
<g id="node5" class="node">
<title>Node11</title>
<g id="a_node5"><a xlink:href="helloBye2Proto_8cpp.html" target="_top" xlink:title="/home/dominik/uni/MoonState\l/src/helloBye2Proto.cpp">
<polygon fill="none" stroke="#000000" points="89,-201.5 89,-231.5 236,-231.5 236,-201.5 89,-201.5"/>
<text text-anchor="start" x="97" y="-219.5" font-family="Helvetica,sans-Serif" font-size="10.00" fill="#000000">/home/dominik/uni/MoonState</text>
<text text-anchor="middle" x="162.5" y="-208.5" font-family="Helvetica,sans-Serif" font-size="10.00" fill="#000000">/src/helloBye2Proto.cpp</text>
</a>
</g>
</g>
<!-- Node7&#45;&gt;Node11 -->
<g id="edge21" class="edge">
<title>Node7&#45;&gt;Node11</title>
<path fill="none" stroke="#191970" d="M379.7145,-340.4692C338.9244,-333.0934 290.2385,-320.4617 250.5,-299 218.807,-281.8834 189.9768,-250.5254 174.4693,-231.7896"/>
<polygon fill="#191970" stroke="#191970" points="379.1829,-343.9292 389.6337,-342.1885 380.3784,-337.032 379.1829,-343.9292"/>
</g>
<!-- Node12 -->
<g id="node6" class="node">
<title>Node12</title>
<g id="a_node6"><a xlink:href="helloBye2Proto_8hpp.html" target="_top" xlink:title="/home/dominik/uni/MoonState\l/include/helloBye2Proto.hpp">
<polygon fill="none" stroke="#000000" points="89,-134.5 89,-164.5 236,-164.5 236,-134.5 89,-134.5"/>
<text text-anchor="start" x="97" y="-152.5" font-family="Helvetica,sans-Serif" font-size="10.00" fill="#000000">/home/dominik/uni/MoonState</text>
<text text-anchor="middle" x="162.5" y="-141.5" font-family="Helvetica,sans-Serif" font-size="10.00" fill="#000000">/include/helloBye2Proto.hpp</text>
</a>
</g>
</g>
<!-- Node7&#45;&gt;Node12 -->
<g id="edge20" class="edge">
<title>Node7&#45;&gt;Node12</title>
<path fill="none" stroke="#191970" d="M379.7117,-337.7104C276.4904,-319.8921 110.879,-283.8427 79.5,-232 72.3657,-220.2132 72.8014,-213.0397 79.5,-201 88.6519,-184.5509 105.4717,-172.6841 121.5892,-164.5184"/>
<polygon fill="#191970" stroke="#191970" points="379.3629,-341.2013 389.8086,-339.4296 380.538,-334.3006 379.3629,-341.2013"/>
</g>
<!-- Node14 -->
<g id="node8" class="node">
<title>Node14</title>
<g id="a_node8"><a xlink:href="helloBye2__C_8cpp.html" target="_top" xlink:title="/home/dominik/uni/MoonState\l/src/helloBye2_C.cpp">
<polygon fill="none" stroke="#000000" points="0,-.5 0,-30.5 147,-30.5 147,-.5 0,-.5"/>
<text text-anchor="start" x="8" y="-18.5" font-family="Helvetica,sans-Serif" font-size="10.00" fill="#000000">/home/dominik/uni/MoonState</text>
<text text-anchor="middle" x="73.5" y="-7.5" font-family="Helvetica,sans-Serif" font-size="10.00" fill="#000000">/src/helloBye2_C.cpp</text>
</a>
</g>
</g>
<!-- Node7&#45;&gt;Node14 -->
<g id="edge26" class="edge">
<title>Node7&#45;&gt;Node14</title>
<path fill="none" stroke="#191970" d="M379.6578,-343.0062C293.933,-334.4297 167.202,-318.9545 122.5,-299 69.8867,-275.514 22.5,-274.1173 22.5,-216.5 22.5,-216.5 22.5,-216.5 22.5,-149.5 22.5,-111.8735 27.1543,-101.7844 41.5,-67 46.8779,-53.9601 55.3934,-40.461 62.2883,-30.5562"/>
<polygon fill="#191970" stroke="#191970" points="379.3442,-346.4921 389.6399,-343.9923 380.0325,-339.5261 379.3442,-346.4921"/>
</g>
<!-- Node16 -->
<g id="node10" class="node">
<title>Node16</title>
<g id="a_node10"><a xlink:href="helloBye3_8cpp.html" target="_top" xlink:title="/home/dominik/uni/MoonState\l/src/helloBye3.cpp">
<polygon fill="none" stroke="#000000" points="662,-201.5 662,-231.5 809,-231.5 809,-201.5 662,-201.5"/>
<text text-anchor="start" x="670" y="-219.5" font-family="Helvetica,sans-Serif" font-size="10.00" fill="#000000">/home/dominik/uni/MoonState</text>
<text text-anchor="middle" x="735.5" y="-208.5" font-family="Helvetica,sans-Serif" font-size="10.00" fill="#000000">/src/helloBye3.cpp</text>
</a>
</g>
</g>
<!-- Node7&#45;&gt;Node16 -->
<g id="edge23" class="edge">
<title>Node7&#45;&gt;Node16</title>
<path fill="none" stroke="#191970" d="M505.3421,-331.055C525.6742,-321.5237 550.4271,-309.7979 572.5,-299 619.5093,-276.0033 673.6342,-248.3786 706.1736,-231.645"/>
<polygon fill="#191970" stroke="#191970" points="503.6173,-327.9978 496.0429,-335.406 506.5838,-334.3381 503.6173,-327.9978"/>
</g>
<!-- Node17 -->
<g id="node11" class="node">
<title>Node17</title>
<g id="a_node11"><a xlink:href="helloBye3_8hpp.html" target="_top" xlink:title="/home/dominik/uni/MoonState\l/include/helloBye3.hpp">
<polygon fill="none" stroke="#000000" points="662,-134.5 662,-164.5 809,-164.5 809,-134.5 662,-134.5"/>
<text text-anchor="start" x="670" y="-152.5" font-family="Helvetica,sans-Serif" font-size="10.00" fill="#000000">/home/dominik/uni/MoonState</text>
<text text-anchor="middle" x="735.5" y="-141.5" font-family="Helvetica,sans-Serif" font-size="10.00" fill="#000000">/include/helloBye3.hpp</text>
</a>
</g>
</g>
<!-- Node7&#45;&gt;Node17 -->
<g id="edge22" class="edge">
<title>Node7&#45;&gt;Node17</title>
<path fill="none" stroke="#191970" d="M547.0781,-334.2723C641.5306,-314.0361 786.3572,-276.6156 818.5,-232 826.5536,-220.8212 825.1986,-213.0397 818.5,-201 809.3481,-184.5509 792.5283,-172.6841 776.4108,-164.5184"/>
<polygon fill="#191970" stroke="#191970" points="546.3039,-330.8585 537.2468,-336.3557 547.7551,-337.7065 546.3039,-330.8585"/>
</g>
<!-- Node18 -->
<g id="node12" class="node">
<title>Node18</title>
<g id="a_node12"><a xlink:href="helloByeProto_8cpp.html" target="_top" xlink:title="/home/dominik/uni/MoonState\l/src/helloByeProto.cpp">
<polygon fill="none" stroke="#000000" points="497,-201.5 497,-231.5 644,-231.5 644,-201.5 497,-201.5"/>
<text text-anchor="start" x="505" y="-219.5" font-family="Helvetica,sans-Serif" font-size="10.00" fill="#000000">/home/dominik/uni/MoonState</text>
<text text-anchor="middle" x="570.5" y="-208.5" font-family="Helvetica,sans-Serif" font-size="10.00" fill="#000000">/src/helloByeProto.cpp</text>
</a>
</g>
</g>
<!-- Node7&#45;&gt;Node18 -->
<g id="edge24" class="edge">
<title>Node7&#45;&gt;Node18</title>
<path fill="none" stroke="#191970" d="M513.379,-330.5073C527.5641,-322.6204 541.7822,-312.2215 551.5,-299 566.2108,-278.9853 569.7791,-249.4423 570.5054,-231.6738"/>
<polygon fill="#191970" stroke="#191970" points="511.3642,-327.6102 504.1097,-335.3318 514.596,-333.8195 511.3642,-327.6102"/>
</g>
<!-- Node21 -->
<g id="node15" class="node">
<title>Node21</title>
<g id="a_node15"><a xlink:href="helloBye__C_8cpp.html" target="_top" xlink:title="/home/dominik/uni/MoonState\l/src/helloBye_C.cpp">
<polygon fill="none" stroke="#000000" points="497,-.5 497,-30.5 644,-30.5 644,-.5 497,-.5"/>
<text text-anchor="start" x="505" y="-18.5" font-family="Helvetica,sans-Serif" font-size="10.00" fill="#000000">/home/dominik/uni/MoonState</text>
<text text-anchor="middle" x="570.5" y="-7.5" font-family="Helvetica,sans-Serif" font-size="10.00" fill="#000000">/src/helloBye_C.cpp</text>
</a>
</g>
</g>
<!-- Node7&#45;&gt;Node21 -->
<g id="edge27" class="edge">
<title>Node7&#45;&gt;Node21</title>
<path fill="none" stroke="#191970" d="M547.0992,-340.5094C667.5211,-323.7501 875.5,-284.9039 875.5,-216.5 875.5,-216.5 875.5,-216.5 875.5,-149.5 875.5,-104.9329 855.6444,-91.6275 818.5,-67 790.3251,-48.3195 706.5387,-33.5012 644.1025,-24.6442"/>
<polygon fill="#191970" stroke="#191970" points="546.5901,-337.0464 537.1573,-341.8706 547.5397,-343.9816 546.5901,-337.0464"/>
</g>
<!-- Node9 -->
<g id="node3" class="node">
<title>Node9</title>
<g id="a_node3"><a xlink:href="dtlsClient_8hpp.html" target="_top" xlink:title="/home/dominik/uni/MoonState\l/include/dtlsClient.hpp">
<polygon fill="none" stroke="#000000" points="293,-201.5 293,-231.5 440,-231.5 440,-201.5 293,-201.5"/>
<text text-anchor="start" x="301" y="-219.5" font-family="Helvetica,sans-Serif" font-size="10.00" fill="#000000">/home/dominik/uni/MoonState</text>
<text text-anchor="middle" x="366.5" y="-208.5" font-family="Helvetica,sans-Serif" font-size="10.00" fill="#000000">/include/dtlsClient.hpp</text>
</a>
</g>
</g>
<!-- Node8&#45;&gt;Node9 -->
<g id="edge2" class="edge">
<title>Node8&#45;&gt;Node9</title>
<path fill="none" stroke="#191970" d="M432.8754,-262.3469C418.4422,-252.3776 401.5533,-240.7121 388.4237,-231.6432"/>
<polygon fill="#191970" stroke="#191970" points="431.272,-265.4932 441.4892,-268.2967 435.2503,-259.7335 431.272,-265.4932"/>
</g>
<!-- Node8&#45;&gt;Node11 -->
<g id="edge4" class="edge">
<title>Node8&#45;&gt;Node11</title>
<path fill="none" stroke="#191970" d="M386.1737,-266.2878C337.9144,-255.5457 276.3884,-241.8506 230.0847,-231.5438"/>
<polygon fill="#191970" stroke="#191970" points="385.4281,-269.7075 395.9497,-268.4639 386.9491,-262.8747 385.4281,-269.7075"/>
</g>
<!-- Node8&#45;&gt;Node16 -->
<g id="edge10" class="edge">
<title>Node8&#45;&gt;Node16</title>
<path fill="none" stroke="#191970" d="M534.4535,-266.0225C577.8166,-255.3411 632.7203,-241.8171 674.1917,-231.6017"/>
<polygon fill="#191970" stroke="#191970" points="533.4147,-262.6737 524.5421,-268.4639 535.089,-269.4705 533.4147,-262.6737"/>
</g>
<!-- Node8&#45;&gt;Node18 -->
<g id="edge13" class="edge">
<title>Node8&#45;&gt;Node18</title>
<path fill="none" stroke="#191970" d="M496.1173,-263.0761C512.245,-252.9774 531.3758,-240.9983 546.197,-231.7177"/>
<polygon fill="#191970" stroke="#191970" points="494.1309,-260.1903 487.5129,-268.4639 497.8459,-266.1232 494.1309,-260.1903"/>
</g>
<!-- Node8&#45;&gt;Node21 -->
<g id="edge19" class="edge">
<title>Node8&#45;&gt;Node21</title>
<path fill="none" stroke="#191970" d="M459.6213,-258.2854C454.3831,-215.3852 449.6263,-127.0182 487.5,-67 497.7265,-50.7941 515.0966,-38.8607 531.3113,-30.5856"/>
<polygon fill="#191970" stroke="#191970" points="456.1799,-258.9575 460.9724,-268.4064 463.1183,-258.0312 456.1799,-258.9575"/>
</g>
<!-- Node9&#45;&gt;Node10 -->
<g id="edge3" class="edge">
<title>Node9&#45;&gt;Node10</title>
<path fill="none" stroke="#191970" d="M359.4417,-191.6103C356.8739,-182.5553 354.0507,-172.5998 351.7943,-164.6432"/>
<polygon fill="#191970" stroke="#191970" points="356.0931,-192.6309 362.1886,-201.2967 362.8275,-190.7211 356.0931,-192.6309"/>
</g>
<!-- Node11&#45;&gt;Node12 -->
<g id="edge5" class="edge">
<title>Node11&#45;&gt;Node12</title>
<path fill="none" stroke="#191970" d="M155.9384,-191.3179C155.5239,-182.3414 155.7933,-172.5143 156.7464,-164.6432"/>
<polygon fill="#191970" stroke="#191970" points="152.4504,-191.6087 156.7392,-201.2967 159.428,-191.0487 152.4504,-191.6087"/>
</g>
<!-- Node12&#45;&gt;Node11 -->
<g id="edge8" class="edge">
<title>Node12&#45;&gt;Node11</title>
<path fill="none" stroke="#191970" d="M169.0584,-174.6135C169.4764,-183.5857 169.2105,-193.4156 168.2608,-201.2967"/>
<polygon fill="#191970" stroke="#191970" points="172.5469,-174.3291 168.2536,-164.6432 165.5696,-174.8924 172.5469,-174.3291"/>
</g>
<!-- Node13 -->
<g id="node7" class="node">
<title>Node13</title>
<g id="a_node7"><a xlink:href="helloBye2__C_8hpp.html" target="_top" xlink:title="/home/dominik/uni/MoonState\l/include/helloBye2_C.hpp">
<polygon fill="none" stroke="#000000" points="51,-67.5 51,-97.5 198,-97.5 198,-67.5 51,-67.5"/>
<text text-anchor="start" x="59" y="-85.5" font-family="Helvetica,sans-Serif" font-size="10.00" fill="#000000">/home/dominik/uni/MoonState</text>
<text text-anchor="middle" x="124.5" y="-74.5" font-family="Helvetica,sans-Serif" font-size="10.00" fill="#000000">/include/helloBye2_C.hpp</text>
</a>
</g>
</g>
<!-- Node12&#45;&gt;Node13 -->
<g id="edge6" class="edge">
<title>Node12&#45;&gt;Node13</title>
<path fill="none" stroke="#191970" d="M148.8788,-125.4837C143.6132,-116.1996 137.747,-105.8565 133.0887,-97.6432"/>
<polygon fill="#191970" stroke="#191970" points="145.8993,-127.325 153.8772,-134.2967 151.9882,-123.8716 145.8993,-127.325"/>
</g>
<!-- Node15 -->
<g id="node9" class="node">
<title>Node15</title>
<g id="a_node9"><a xlink:href="helloBye2ProtoStatic_8cpp.html" target="_top" xlink:title="/home/dominik/uni/MoonState\l/src/helloBye2ProtoStatic.cpp">
<polygon fill="none" stroke="#000000" points="216,-67.5 216,-97.5 363,-97.5 363,-67.5 216,-67.5"/>
<text text-anchor="start" x="224" y="-85.5" font-family="Helvetica,sans-Serif" font-size="10.00" fill="#000000">/home/dominik/uni/MoonState</text>
<text text-anchor="middle" x="289.5" y="-74.5" font-family="Helvetica,sans-Serif" font-size="10.00" fill="#000000">/src/helloBye2ProtoStatic.cpp</text>
</a>
</g>
</g>
<!-- Node12&#45;&gt;Node15 -->
<g id="edge9" class="edge">
<title>Node12&#45;&gt;Node15</title>
<path fill="none" stroke="#191970" d="M199.8905,-129.7743C219.3022,-119.5335 242.6556,-107.2132 260.6544,-97.7177"/>
<polygon fill="#191970" stroke="#191970" points="198.2128,-126.7021 191.0013,-134.4639 201.4791,-132.8934 198.2128,-126.7021"/>
</g>
<!-- Node13&#45;&gt;Node14 -->
<g id="edge7" class="edge">
<title>Node13&#45;&gt;Node14</title>
<path fill="none" stroke="#191970" d="M106.6596,-59.0626C99.4807,-49.6315 91.4091,-39.0276 85.0269,-30.6432"/>
<polygon fill="#191970" stroke="#191970" points="104.0854,-61.4595 112.9273,-67.2967 109.6554,-57.2197 104.0854,-61.4595"/>
</g>
<!-- Node16&#45;&gt;Node17 -->
<g id="edge11" class="edge">
<title>Node16&#45;&gt;Node17</title>
<path fill="none" stroke="#191970" d="M728.9384,-191.3179C728.5239,-182.3414 728.7933,-172.5143 729.7464,-164.6432"/>
<polygon fill="#191970" stroke="#191970" points="725.4504,-191.6087 729.7392,-201.2967 732.428,-191.0487 725.4504,-191.6087"/>
</g>
<!-- Node17&#45;&gt;Node16 -->
<g id="edge12" class="edge">
<title>Node17&#45;&gt;Node16</title>
<path fill="none" stroke="#191970" d="M742.0584,-174.6135C742.4764,-183.5857 742.2105,-193.4156 741.2608,-201.2967"/>
<polygon fill="#191970" stroke="#191970" points="745.5469,-174.3291 741.2536,-164.6432 738.5696,-174.8924 745.5469,-174.3291"/>
</g>
<!-- Node19 -->
<g id="node13" class="node">
<title>Node19</title>
<g id="a_node13"><a xlink:href="helloByeProto_8hpp.html" target="_top" xlink:title="/home/dominik/uni/MoonState\l/include/helloByeProto.hpp">
<polygon fill="none" stroke="#000000" points="497,-134.5 497,-164.5 644,-164.5 644,-134.5 497,-134.5"/>
<text text-anchor="start" x="505" y="-152.5" font-family="Helvetica,sans-Serif" font-size="10.00" fill="#000000">/home/dominik/uni/MoonState</text>
<text text-anchor="middle" x="570.5" y="-141.5" font-family="Helvetica,sans-Serif" font-size="10.00" fill="#000000">/include/helloByeProto.hpp</text>
</a>
</g>
</g>
<!-- Node18&#45;&gt;Node19 -->
<g id="edge14" class="edge">
<title>Node18&#45;&gt;Node19</title>
<path fill="none" stroke="#191970" d="M563.9384,-191.3179C563.5239,-182.3414 563.7933,-172.5143 564.7464,-164.6432"/>
<polygon fill="#191970" stroke="#191970" points="560.4504,-191.6087 564.7392,-201.2967 567.428,-191.0487 560.4504,-191.6087"/>
</g>
<!-- Node19&#45;&gt;Node18 -->
<g id="edge17" class="edge">
<title>Node19&#45;&gt;Node18</title>
<path fill="none" stroke="#191970" d="M577.0584,-174.6135C577.4764,-183.5857 577.2105,-193.4156 576.2608,-201.2967"/>
<polygon fill="#191970" stroke="#191970" points="580.5469,-174.3291 576.2536,-164.6432 573.5696,-174.8924 580.5469,-174.3291"/>
</g>
<!-- Node20 -->
<g id="node14" class="node">
<title>Node20</title>
<g id="a_node14"><a xlink:href="helloBye__C_8hpp.html" target="_top" xlink:title="/home/dominik/uni/MoonState\l/include/helloBye_C.hpp">
<polygon fill="none" stroke="#000000" points="497,-67.5 497,-97.5 644,-97.5 644,-67.5 497,-67.5"/>
<text text-anchor="start" x="505" y="-85.5" font-family="Helvetica,sans-Serif" font-size="10.00" fill="#000000">/home/dominik/uni/MoonState</text>
<text text-anchor="middle" x="570.5" y="-74.5" font-family="Helvetica,sans-Serif" font-size="10.00" fill="#000000">/include/helloBye_C.hpp</text>
</a>
</g>
</g>
<!-- Node19&#45;&gt;Node20 -->
<g id="edge15" class="edge">
<title>Node19&#45;&gt;Node20</title>
<path fill="none" stroke="#191970" d="M570.5,-124.0249C570.5,-115.128 570.5,-105.4287 570.5,-97.6432"/>
<polygon fill="#191970" stroke="#191970" points="567.0001,-124.2966 570.5,-134.2967 574.0001,-124.2967 567.0001,-124.2966"/>
</g>
<!-- Node22 -->
<g id="node16" class="node">
<title>Node22</title>
<g id="a_node16"><a xlink:href="helloByeProtoStatic_8cpp.html" target="_top" xlink:title="/home/dominik/uni/MoonState\l/src/helloByeProtoStatic.cpp">
<polygon fill="none" stroke="#000000" points="662,-67.5 662,-97.5 809,-97.5 809,-67.5 662,-67.5"/>
<text text-anchor="start" x="670" y="-85.5" font-family="Helvetica,sans-Serif" font-size="10.00" fill="#000000">/home/dominik/uni/MoonState</text>
<text text-anchor="middle" x="735.5" y="-74.5" font-family="Helvetica,sans-Serif" font-size="10.00" fill="#000000">/src/helloByeProtoStatic.cpp</text>
</a>
</g>
</g>
<!-- Node19&#45;&gt;Node22 -->
<g id="edge18" class="edge">
<title>Node19&#45;&gt;Node22</title>
<path fill="none" stroke="#191970" d="M617.0702,-130.5897C642.7755,-120.1518 674.2642,-107.3654 698.3093,-97.6017"/>
<polygon fill="#191970" stroke="#191970" points="615.4777,-127.4587 607.5292,-134.4639 618.1113,-133.9444 615.4777,-127.4587"/>
</g>
<!-- Node20&#45;&gt;Node21 -->
<g id="edge16" class="edge">
<title>Node20&#45;&gt;Node21</title>
<path fill="none" stroke="#191970" d="M570.5,-57.0249C570.5,-48.128 570.5,-38.4287 570.5,-30.6432"/>
<polygon fill="#191970" stroke="#191970" points="567.0001,-57.2966 570.5,-67.2967 574.0001,-57.2967 567.0001,-57.2966"/>
</g>
</g>
</svg>
