<?xml version="1.0" encoding="UTF-8" standalone="no"?>
<!DOCTYPE svg PUBLIC "-//W3C//DTD SVG 1.1//EN"
 "http://www.w3.org/Graphics/SVG/1.1/DTD/svg11.dtd">
<!-- Generated by graphviz version 2.40.1 (20161225.0304)
 -->
<!-- Title: /home/dominik/uni/MoonState/include/headers.hpp Pages: 1 -->
<svg width="847pt" height="374pt"
 viewBox="0.00 0.00 847.47 374.00" xmlns="http://www.w3.org/2000/svg" xmlns:xlink="http://www.w3.org/1999/xlink">
<g id="graph0" class="graph" transform="scale(1 1) rotate(0) translate(4 370)">
<title>/home/dominik/uni/MoonState/include/headers.hpp</title>
<!-- Node7 -->
<g id="node1" class="node">
<title>Node7</title>
<polygon fill="#bfbfbf" stroke="#000000" points="191,-335.5 191,-365.5 338,-365.5 338,-335.5 191,-335.5"/>
<text text-anchor="start" x="199" y="-353.5" font-family="Helvetica,sans-Serif" font-size="10.00" fill="#000000">/home/dominik/uni/MoonState</text>
<text text-anchor="middle" x="264.5" y="-342.5" font-family="Helvetica,sans-Serif" font-size="10.00" fill="#000000">/include/headers.hpp</text>
</g>
<!-- Node8 -->
<g id="node2" class="node">
<title>Node8</title>
<g id="a_node2"><a xlink:href="IPv4__5TupleL2Ident_8hpp.html" target="_top" xlink:title="/home/dominik/uni/MoonState\l/include/IPv4_5TupleL2Ident.hpp">
<polygon fill="none" stroke="#000000" points="292.5,-268.5 292.5,-298.5 450.5,-298.5 450.5,-268.5 292.5,-268.5"/>
<text text-anchor="start" x="300.5" y="-286.5" font-family="Helvetica,sans-Serif" font-size="10.00" fill="#000000">/home/dominik/uni/MoonState</text>
<text text-anchor="middle" x="371.5" y="-275.5" font-family="Helvetica,sans-Serif" font-size="10.00" fill="#000000">/include/IPv4_5TupleL2Ident.hpp</text>
</a>
</g>
</g>
<!-- Node7&#45;&gt;Node8 -->
<g id="edge1" class="edge">
<title>Node7&#45;&gt;Node8</title>
<path fill="none" stroke="#191970" d="M297.1173,-330.0761C313.245,-319.9774 332.3758,-307.9983 347.197,-298.7177"/>
<polygon fill="#191970" stroke="#191970" points="295.1309,-327.1903 288.5129,-335.4639 298.8459,-333.1232 295.1309,-327.1903"/>
</g>
<!-- Node10 -->
<g id="node4" class="node">
<title>Node10</title>
<g id="a_node4"><a xlink:href="dtlsClient_8cpp.html" target="_top" xlink:title="/home/dominik/uni/MoonState\l/src/dtlsClient.cpp">
<polygon fill="none" stroke="#000000" points="274,-134.5 274,-164.5 421,-164.5 421,-134.5 274,-134.5"/>
<text text-anchor="start" x="282" y="-152.5" font-family="Helvetica,sans-Serif" font-size="10.00" fill="#000000">/home/dominik/uni/MoonState</text>
<text text-anchor="middle" x="347.5" y="-141.5" font-family="Helvetica,sans-Serif" font-size="10.00" fill="#000000">/src/dtlsClient.cpp</text>
</a>
</g>
</g>
<!-- Node7&#45;&gt;Node10 -->
<g id="edge20" class="edge">
<title>Node7&#45;&gt;Node10</title>
<path fill="none" stroke="#191970" d="M262.1937,-325.3257C260.5141,-294.1066 261.5708,-240.2219 283.5,-201 291.9911,-185.8132 306.9242,-173.405 320.231,-164.5763"/>
<polygon fill="#191970" stroke="#191970" points="258.7056,-325.6207 262.8722,-335.3618 265.6897,-325.1485 258.7056,-325.6207"/>
</g>
<!-- Node11 -->
<g id="node5" class="node">
<title>Node11</title>
<g id="a_node5"><a xlink:href="helloBye2Proto_8cpp.html" target="_top" xlink:title="/home/dominik/uni/MoonState\l/src/helloBye2Proto.cpp">
<polygon fill="none" stroke="#000000" points="89,-201.5 89,-231.5 236,-231.5 236,-201.5 89,-201.5"/>
<text text-anchor="start" x="97" y="-219.5" font-family="Helvetica,sans-Serif" font-size="10.00" fill="#000000">/home/dominik/uni/MoonState</text>
<text text-anchor="middle" x="162.5" y="-208.5" font-family="Helvetica,sans-Serif" font-size="10.00" fill="#000000">/src/helloBye2Proto.cpp</text>
</a>
</g>
</g>
<!-- Node7&#45;&gt;Node11 -->
<g id="edge18" class="edge">
<title>Node7&#45;&gt;Node11</title>
<path fill="none" stroke="#191970" d="M246.7224,-327.1452C225.8591,-299.7365 191.8638,-255.076 174.1169,-231.7614"/>
<polygon fill="#191970" stroke="#191970" points="244.1557,-329.5518 252.9976,-335.389 249.7257,-325.312 244.1557,-329.5518"/>
</g>
<!-- Node12 -->
<g id="node6" class="node">
<title>Node12</title>
<g id="a_node6"><a xlink:href="helloBye2Proto_8hpp.html" target="_top" xlink:title="/home/dominik/uni/MoonState\l/include/helloBye2Proto.hpp">
<polygon fill="none" stroke="#000000" points="89,-134.5 89,-164.5 236,-164.5 236,-134.5 89,-134.5"/>
<text text-anchor="start" x="97" y="-152.5" font-family="Helvetica,sans-Serif" font-size="10.00" fill="#000000">/home/dominik/uni/MoonState</text>
<text text-anchor="middle" x="162.5" y="-141.5" font-family="Helvetica,sans-Serif" font-size="10.00" fill="#000000">/include/helloBye2Proto.hpp</text>
</a>
</g>
</g>
<!-- Node7&#45;&gt;Node12 -->
<g id="edge17" class="edge">
<title>Node7&#45;&gt;Node12</title>
<path fill="none" stroke="#191970" d="M208.4969,-331.6847C164.6552,-313.6493 106.7001,-281.7245 79.5,-232 72.8879,-219.9125 72.8014,-213.0397 79.5,-201 88.6519,-184.5509 105.4717,-172.6841 121.5892,-164.5184"/>
<polygon fill="#191970" stroke="#191970" points="207.3166,-334.982 217.9019,-335.432 209.9076,-328.4791 207.3166,-334.982"/>
</g>
<!-- Node14 -->
<g id="node8" class="node">
<title>Node14</title>
<g id="a_node8"><a xlink:href="helloBye2__C_8cpp.html" target="_top" xlink:title="/home/dominik/uni/MoonState\l/src/helloBye2_C.cpp">
<polygon fill="none" stroke="#000000" points="0,-.5 0,-30.5 147,-30.5 147,-.5 0,-.5"/>
<text text-anchor="start" x="8" y="-18.5" font-family="Helvetica,sans-Serif" font-size="10.00" fill="#000000">/home/dominik/uni/MoonState</text>
<text text-anchor="middle" x="73.5" y="-7.5" font-family="Helvetica,sans-Serif" font-size="10.00" fill="#000000">/src/helloBye2_C.cpp</text>
</a>
</g>
</g>
<!-- Node7&#45;&gt;Node14 -->
<g id="edge21" class="edge">
<title>Node7&#45;&gt;Node14</title>
<path fill="none" stroke="#191970" d="M180.7354,-339.0429C110.8089,-324.2064 22.5,-290.7676 22.5,-216.5 22.5,-216.5 22.5,-216.5 22.5,-149.5 22.5,-111.8735 27.1543,-101.7844 41.5,-67 46.8779,-53.9601 55.3934,-40.461 62.2883,-30.5562"/>
<polygon fill="#191970" stroke="#191970" points="180.411,-342.548 190.9064,-341.0995 181.7985,-335.6869 180.411,-342.548"/>
</g>
<!-- Node16 -->
<g id="node10" class="node">
<title>Node16</title>
<g id="a_node10"><a xlink:href="helloByeProto_8cpp.html" target="_top" xlink:title="/home/dominik/uni/MoonState\l/src/helloByeProto.cpp">
<polygon fill="none" stroke="#000000" points="497,-201.5 497,-231.5 644,-231.5 644,-201.5 497,-201.5"/>
<text text-anchor="start" x="505" y="-219.5" font-family="Helvetica,sans-Serif" font-size="10.00" fill="#000000">/home/dominik/uni/MoonState</text>
<text text-anchor="middle" x="570.5" y="-208.5" font-family="Helvetica,sans-Serif" font-size="10.00" fill="#000000">/src/helloByeProto.cpp</text>
</a>
</g>
</g>
<!-- Node7&#45;&gt;Node16 -->
<g id="edge19" class="edge">
<title>Node7&#45;&gt;Node16</title>
<path fill="none" stroke="#191970" d="M347.9884,-335.7894C383.4653,-327.6953 424.6062,-315.7991 459.5,-299 496.7105,-281.0856 534.0266,-250.0018 554.5089,-231.5319"/>
<polygon fill="#191970" stroke="#191970" points="347.1474,-332.3908 338.1421,-337.9725 348.6627,-339.2248 347.1474,-332.3908"/>
</g>
<!-- Node19 -->
<g id="node13" class="node">
<title>Node19</title>
<g id="a_node13"><a xlink:href="helloBye__C_8cpp.html" target="_top" xlink:title="/home/dominik/uni/MoonState\l/src/helloBye_C.cpp">
<polygon fill="none" stroke="#000000" points="497,-.5 497,-30.5 644,-30.5 644,-.5 497,-.5"/>
<text text-anchor="start" x="505" y="-18.5" font-family="Helvetica,sans-Serif" font-size="10.00" fill="#000000">/home/dominik/uni/MoonState</text>
<text text-anchor="middle" x="570.5" y="-7.5" font-family="Helvetica,sans-Serif" font-size="10.00" fill="#000000">/src/helloBye_C.cpp</text>
</a>
</g>
</g>
<!-- Node7&#45;&gt;Node19 -->
<g id="edge22" class="edge">
<title>Node7&#45;&gt;Node19</title>
<path fill="none" stroke="#191970" d="M348.4688,-348.1899C507.6388,-341.5168 837.5,-315.7185 837.5,-216.5 837.5,-216.5 837.5,-216.5 837.5,-149.5 837.5,-111.8735 845.3918,-93.317 818.5,-67 794.1037,-43.1251 708.089,-29.2674 644.1647,-22.0577"/>
<polygon fill="#191970" stroke="#191970" points="348.0876,-344.7024 338.2367,-348.6024 348.3696,-351.6967 348.0876,-344.7024"/>
</g>
<!-- Node9 -->
<g id="node3" class="node">
<title>Node9</title>
<g id="a_node3"><a xlink:href="dtlsClient_8hpp.html" target="_top" xlink:title="/home/dominik/uni/MoonState\l/include/dtlsClient.hpp">
<polygon fill="none" stroke="#000000" points="293,-201.5 293,-231.5 440,-231.5 440,-201.5 293,-201.5"/>
<text text-anchor="start" x="301" y="-219.5" font-family="Helvetica,sans-Serif" font-size="10.00" fill="#000000">/home/dominik/uni/MoonState</text>
<text text-anchor="middle" x="366.5" y="-208.5" font-family="Helvetica,sans-Serif" font-size="10.00" fill="#000000">/include/dtlsClient.hpp</text>
</a>
</g>
</g>
<!-- Node8&#45;&gt;Node9 -->
<g id="edge2" class="edge">
<title>Node8&#45;&gt;Node9</title>
<path fill="none" stroke="#191970" d="M369.6207,-258.3179C368.9509,-249.3414 368.2175,-239.5143 367.6301,-231.6432"/>
<polygon fill="#191970" stroke="#191970" points="366.1308,-258.5849 370.3654,-268.2967 373.1114,-258.0639 366.1308,-258.5849"/>
</g>
<!-- Node8&#45;&gt;Node11 -->
<g id="edge4" class="edge">
<title>Node8&#45;&gt;Node11</title>
<path fill="none" stroke="#191970" d="M314.6517,-265.2759C281.7127,-254.7165 240.7361,-241.5805 209.6083,-231.6017"/>
<polygon fill="#191970" stroke="#191970" points="314.0052,-268.744 324.5963,-268.4639 316.1421,-262.0782 314.0052,-268.744"/>
</g>
<!-- Node8&#45;&gt;Node16 -->
<g id="edge10" class="edge">
<title>Node8&#45;&gt;Node16</title>
<path fill="none" stroke="#191970" d="M426.0342,-265.1392C457.3274,-254.6033 496.135,-241.5375 525.6457,-231.6017"/>
<polygon fill="#191970" stroke="#191970" points="424.5199,-261.9559 416.1595,-268.4639 426.7536,-268.59 424.5199,-261.9559"/>
</g>
<!-- Node8&#45;&gt;Node19 -->
<g id="edge16" class="edge">
<title>Node8&#45;&gt;Node19</title>
<path fill="none" stroke="#191970" d="M413.8711,-263.1273C426.7023,-255.0698 439.7087,-244.6673 448.5,-232 491.4638,-170.0942 443.4853,-128.1631 487.5,-67 498.9903,-51.0331 517.1092,-38.9621 533.4904,-30.5347"/>
<polygon fill="#191970" stroke="#191970" points="411.8974,-260.2282 405.07,-268.3298 415.4595,-266.2541 411.8974,-260.2282"/>
</g>
<!-- Node9&#45;&gt;Node10 -->
<g id="edge3" class="edge">
<title>Node9&#45;&gt;Node10</title>
<path fill="none" stroke="#191970" d="M359.4417,-191.6103C356.8739,-182.5553 354.0507,-172.5998 351.7943,-164.6432"/>
<polygon fill="#191970" stroke="#191970" points="356.0931,-192.6309 362.1886,-201.2967 362.8275,-190.7211 356.0931,-192.6309"/>
</g>
<!-- Node11&#45;&gt;Node12 -->
<g id="edge5" class="edge">
<title>Node11&#45;&gt;Node12</title>
<path fill="none" stroke="#191970" d="M155.9384,-191.3179C155.5239,-182.3414 155.7933,-172.5143 156.7464,-164.6432"/>
<polygon fill="#191970" stroke="#191970" points="152.4504,-191.6087 156.7392,-201.2967 159.428,-191.0487 152.4504,-191.6087"/>
</g>
<!-- Node12&#45;&gt;Node11 -->
<g id="edge8" class="edge">
<title>Node12&#45;&gt;Node11</title>
<path fill="none" stroke="#191970" d="M169.0584,-174.6135C169.4764,-183.5857 169.2105,-193.4156 168.2608,-201.2967"/>
<polygon fill="#191970" stroke="#191970" points="172.5469,-174.3291 168.2536,-164.6432 165.5696,-174.8924 172.5469,-174.3291"/>
</g>
<!-- Node13 -->
<g id="node7" class="node">
<title>Node13</title>
<g id="a_node7"><a xlink:href="helloBye2__C_8hpp.html" target="_top" xlink:title="/home/dominik/uni/MoonState\l/include/helloBye2_C.hpp">
<polygon fill="none" stroke="#000000" points="51,-67.5 51,-97.5 198,-97.5 198,-67.5 51,-67.5"/>
<text text-anchor="start" x="59" y="-85.5" font-family="Helvetica,sans-Serif" font-size="10.00" fill="#000000">/home/dominik/uni/MoonState</text>
<text text-anchor="middle" x="124.5" y="-74.5" font-family="Helvetica,sans-Serif" font-size="10.00" fill="#000000">/include/helloBye2_C.hpp</text>
</a>
</g>
</g>
<!-- Node12&#45;&gt;Node13 -->
<g id="edge6" class="edge">
<title>Node12&#45;&gt;Node13</title>
<path fill="none" stroke="#191970" d="M148.8788,-125.4837C143.6132,-116.1996 137.747,-105.8565 133.0887,-97.6432"/>
<polygon fill="#191970" stroke="#191970" points="145.8993,-127.325 153.8772,-134.2967 151.9882,-123.8716 145.8993,-127.325"/>
</g>
<!-- Node15 -->
<g id="node9" class="node">
<title>Node15</title>
<g id="a_node9"><a xlink:href="helloBye2ProtoStatic_8cpp.html" target="_top" xlink:title="/home/dominik/uni/MoonState\l/src/helloBye2ProtoStatic.cpp">
<polygon fill="none" stroke="#000000" points="216,-67.5 216,-97.5 363,-97.5 363,-67.5 216,-67.5"/>
<text text-anchor="start" x="224" y="-85.5" font-family="Helvetica,sans-Serif" font-size="10.00" fill="#000000">/home/dominik/uni/MoonState</text>
<text text-anchor="middle" x="289.5" y="-74.5" font-family="Helvetica,sans-Serif" font-size="10.00" fill="#000000">/src/helloBye2ProtoStatic.cpp</text>
</a>
</g>
</g>
<!-- Node12&#45;&gt;Node15 -->
<g id="edge9" class="edge">
<title>Node12&#45;&gt;Node15</title>
<path fill="none" stroke="#191970" d="M199.8905,-129.7743C219.3022,-119.5335 242.6556,-107.2132 260.6544,-97.7177"/>
<polygon fill="#191970" stroke="#191970" points="198.2128,-126.7021 191.0013,-134.4639 201.4791,-132.8934 198.2128,-126.7021"/>
</g>
<!-- Node13&#45;&gt;Node14 -->
<g id="edge7" class="edge">
<title>Node13&#45;&gt;Node14</title>
<path fill="none" stroke="#191970" d="M106.6596,-59.0626C99.4807,-49.6315 91.4091,-39.0276 85.0269,-30.6432"/>
<polygon fill="#191970" stroke="#191970" points="104.0854,-61.4595 112.9273,-67.2967 109.6554,-57.2197 104.0854,-61.4595"/>
</g>
<!-- Node17 -->
<g id="node11" class="node">
<title>Node17</title>
<g id="a_node11"><a xlink:href="helloByeProto_8hpp.html" target="_top" xlink:title="/home/dominik/uni/MoonState\l/include/helloByeProto.hpp">
<polygon fill="none" stroke="#000000" points="497,-134.5 497,-164.5 644,-164.5 644,-134.5 497,-134.5"/>
<text text-anchor="start" x="505" y="-152.5" font-family="Helvetica,sans-Serif" font-size="10.00" fill="#000000">/home/dominik/uni/MoonState</text>
<text text-anchor="middle" x="570.5" y="-141.5" font-family="Helvetica,sans-Serif" font-size="10.00" fill="#000000">/include/helloByeProto.hpp</text>
</a>
</g>
</g>
<!-- Node16&#45;&gt;Node17 -->
<g id="edge11" class="edge">
<title>Node16&#45;&gt;Node17</title>
<path fill="none" stroke="#191970" d="M563.9384,-191.3179C563.5239,-182.3414 563.7933,-172.5143 564.7464,-164.6432"/>
<polygon fill="#191970" stroke="#191970" points="560.4504,-191.6087 564.7392,-201.2967 567.428,-191.0487 560.4504,-191.6087"/>
</g>
<!-- Node17&#45;&gt;Node16 -->
<g id="edge14" class="edge">
<title>Node17&#45;&gt;Node16</title>
<path fill="none" stroke="#191970" d="M577.0584,-174.6135C577.4764,-183.5857 577.2105,-193.4156 576.2608,-201.2967"/>
<polygon fill="#191970" stroke="#191970" points="580.5469,-174.3291 576.2536,-164.6432 573.5696,-174.8924 580.5469,-174.3291"/>
</g>
<!-- Node18 -->
<g id="node12" class="node">
<title>Node18</title>
<g id="a_node12"><a xlink:href="helloBye__C_8hpp.html" target="_top" xlink:title="/home/dominik/uni/MoonState\l/include/helloBye_C.hpp">
<polygon fill="none" stroke="#000000" points="497,-67.5 497,-97.5 644,-97.5 644,-67.5 497,-67.5"/>
<text text-anchor="start" x="505" y="-85.5" font-family="Helvetica,sans-Serif" font-size="10.00" fill="#000000">/home/dominik/uni/MoonState</text>
<text text-anchor="middle" x="570.5" y="-74.5" font-family="Helvetica,sans-Serif" font-size="10.00" fill="#000000">/include/helloBye_C.hpp</text>
</a>
</g>
</g>
<!-- Node17&#45;&gt;Node18 -->
<g id="edge12" class="edge">
<title>Node17&#45;&gt;Node18</title>
<path fill="none" stroke="#191970" d="M570.5,-124.0249C570.5,-115.128 570.5,-105.4287 570.5,-97.6432"/>
<polygon fill="#191970" stroke="#191970" points="567.0001,-124.2966 570.5,-134.2967 574.0001,-124.2967 567.0001,-124.2966"/>
</g>
<!-- Node20 -->
<g id="node14" class="node">
<title>Node20</title>
<g id="a_node14"><a xlink:href="helloByeProtoStatic_8cpp.html" target="_top" xlink:title="/home/dominik/uni/MoonState\l/src/helloByeProtoStatic.cpp">
<polygon fill="none" stroke="#000000" points="662,-67.5 662,-97.5 809,-97.5 809,-67.5 662,-67.5"/>
<text text-anchor="start" x="670" y="-85.5" font-family="Helvetica,sans-Serif" font-size="10.00" fill="#000000">/home/dominik/uni/MoonState</text>
<text text-anchor="middle" x="735.5" y="-74.5" font-family="Helvetica,sans-Serif" font-size="10.00" fill="#000000">/src/helloByeProtoStatic.cpp</text>
</a>
</g>
</g>
<!-- Node17&#45;&gt;Node20 -->
<g id="edge15" class="edge">
<title>Node17&#45;&gt;Node20</title>
<path fill="none" stroke="#191970" d="M617.0702,-130.5897C642.7755,-120.1518 674.2642,-107.3654 698.3093,-97.6017"/>
<polygon fill="#191970" stroke="#191970" points="615.4777,-127.4587 607.5292,-134.4639 618.1113,-133.9444 615.4777,-127.4587"/>
</g>
<!-- Node18&#45;&gt;Node19 -->
<g id="edge13" class="edge">
<title>Node18&#45;&gt;Node19</title>
<path fill="none" stroke="#191970" d="M570.5,-57.0249C570.5,-48.128 570.5,-38.4287 570.5,-30.6432"/>
<polygon fill="#191970" stroke="#191970" points="567.0001,-57.2966 570.5,-67.2967 574.0001,-57.2967 567.0001,-57.2966"/>
</g>
</g>
</svg>
