<?xml version="1.0" encoding="UTF-8" standalone="no"?>
<!DOCTYPE svg PUBLIC "-//W3C//DTD SVG 1.1//EN"
 "http://www.w3.org/Graphics/SVG/1.1/DTD/svg11.dtd">
<!-- Generated by graphviz version 2.40.1 (20161225.0304)
 -->
<!-- Title: /home/dominik/uni/MoonState/include/headers.hpp Pages: 1 -->
<svg width="384pt" height="95pt"
 viewBox="0.00 0.00 384.00 95.00" xmlns="http://www.w3.org/2000/svg" xmlns:xlink="http://www.w3.org/1999/xlink">
<g id="graph0" class="graph" transform="scale(1 1) rotate(0) translate(4 91)">
<title>/home/dominik/uni/MoonState/include/headers.hpp</title>
<!-- Node0 -->
<g id="node1" class="node">
<title>Node0</title>
<polygon fill="#bfbfbf" stroke="#000000" points="102.5,-56.5 102.5,-86.5 249.5,-86.5 249.5,-56.5 102.5,-56.5"/>
<text text-anchor="start" x="110.5" y="-74.5" font-family="Helvetica,sans-Serif" font-size="10.00" fill="#000000">/home/dominik/uni/MoonState</text>
<text text-anchor="middle" x="176" y="-63.5" font-family="Helvetica,sans-Serif" font-size="10.00" fill="#000000">/include/headers.hpp</text>
</g>
<!-- Node1 -->
<g id="node2" class="node">
<title>Node1</title>
<polygon fill="none" stroke="#bfbfbf" points="0,-.5 0,-19.5 38,-19.5 38,-.5 0,-.5"/>
<text text-anchor="middle" x="19" y="-7.5" font-family="Helvetica,sans-Serif" font-size="10.00" fill="#000000">array</text>
</g>
<!-- Node0&#45;&gt;Node1 -->
<g id="edge1" class="edge">
<title>Node0&#45;&gt;Node1</title>
<path fill="none" stroke="#191970" d="M137.5935,-56.4554C109.8643,-45.5933 73.0114,-31.1573 47.7903,-21.2777"/>
<polygon fill="#191970" stroke="#191970" points="48.9977,-17.9918 38.41,-17.6033 46.4445,-24.5096 48.9977,-17.9918"/>
</g>
<!-- Node2 -->
<g id="node3" class="node">
<title>Node2</title>
<polygon fill="none" stroke="#bfbfbf" points="56,-.5 56,-19.5 102,-19.5 102,-.5 56,-.5"/>
<text text-anchor="middle" x="79" y="-7.5" font-family="Helvetica,sans-Serif" font-size="10.00" fill="#000000">cstdint</text>
</g>
<!-- Node0&#45;&gt;Node2 -->
<g id="edge2" class="edge">
<title>Node0&#45;&gt;Node2</title>
<path fill="none" stroke="#191970" d="M152.0225,-56.2977C137.0624,-46.8127 117.878,-34.6495 102.9274,-25.1705"/>
<polygon fill="#191970" stroke="#191970" points="104.561,-22.062 94.2413,-19.6633 100.8127,-27.9739 104.561,-22.062"/>
</g>
<!-- Node3 -->
<g id="node4" class="node">
<title>Node3</title>
<polygon fill="none" stroke="#bfbfbf" points="120,-.5 120,-19.5 166,-19.5 166,-.5 120,-.5"/>
<text text-anchor="middle" x="143" y="-7.5" font-family="Helvetica,sans-Serif" font-size="10.00" fill="#000000">cstring</text>
</g>
<!-- Node0&#45;&gt;Node3 -->
<g id="edge3" class="edge">
<title>Node0&#45;&gt;Node3</title>
<path fill="none" stroke="#191970" d="M167.8427,-56.2977C163.4051,-48.0277 157.875,-37.7215 153.1596,-28.9339"/>
<polygon fill="#191970" stroke="#191970" points="156.096,-27.0037 148.2837,-19.8469 149.9279,-30.3134 156.096,-27.0037"/>
</g>
<!-- Node4 -->
<g id="node5" class="node">
<title>Node4</title>
<polygon fill="none" stroke="#bfbfbf" points="184,-.5 184,-19.5 236,-19.5 236,-.5 184,-.5"/>
<text text-anchor="middle" x="210" y="-7.5" font-family="Helvetica,sans-Serif" font-size="10.00" fill="#000000">sstream</text>
</g>
<!-- Node0&#45;&gt;Node4 -->
<g id="edge4" class="edge">
<title>Node0&#45;&gt;Node4</title>
<path fill="none" stroke="#191970" d="M184.4045,-56.2977C189.0257,-47.9388 194.7969,-37.4997 199.6889,-28.6509"/>
<polygon fill="#191970" stroke="#191970" points="202.7809,-30.292 204.5562,-19.8469 196.6548,-26.9051 202.7809,-30.292"/>
</g>
<!-- Node5 -->
<g id="node6" class="node">
<title>Node5</title>
<polygon fill="none" stroke="#bfbfbf" points="254.5,-.5 254.5,-19.5 295.5,-19.5 295.5,-.5 254.5,-.5"/>
<text text-anchor="middle" x="275" y="-7.5" font-family="Helvetica,sans-Serif" font-size="10.00" fill="#000000">string</text>
</g>
<!-- Node0&#45;&gt;Node5 -->
<g id="edge5" class="edge">
<title>Node0&#45;&gt;Node5</title>
<path fill="none" stroke="#191970" d="M200.2181,-56.4554C215.5773,-46.9141 235.3757,-34.6151 250.7425,-25.0691"/>
<polygon fill="#191970" stroke="#191970" points="253.011,-27.7802 259.6585,-19.5303 249.3172,-21.8341 253.011,-27.7802"/>
</g>
<!-- Node6 -->
<g id="node7" class="node">
<title>Node6</title>
<polygon fill="none" stroke="#bfbfbf" points="314,-.5 314,-19.5 376,-19.5 376,-.5 314,-.5"/>
<text text-anchor="middle" x="345" y="-7.5" font-family="Helvetica,sans-Serif" font-size="10.00" fill="#000000">arpa/inet.h</text>
</g>
<!-- Node0&#45;&gt;Node6 -->
<g id="edge6" class="edge">
<title>Node0&#45;&gt;Node6</title>
<path fill="none" stroke="#191970" d="M217.3421,-56.4554C245.5401,-46.194 282.5031,-32.7429 309.3943,-22.9571"/>
<polygon fill="#191970" stroke="#191970" points="310.6108,-26.239 318.811,-19.5303 308.217,-19.6611 310.6108,-26.239"/>
</g>
</g>
</svg>
