<?xml version="1.0" encoding="UTF-8" standalone="no"?>
<!DOCTYPE svg PUBLIC "-//W3C//DTD SVG 1.1//EN"
 "http://www.w3.org/Graphics/SVG/1.1/DTD/svg11.dtd">
<!-- Generated by graphviz version 2.40.1 (20161225.0304)
 -->
<!-- Title: /home/dominik/uni/MoonState/src/helloBye2_C.cpp Pages: 1 -->
<svg width="1680pt" height="375pt"
 viewBox="0.00 0.00 1679.50 375.00" xmlns="http://www.w3.org/2000/svg" xmlns:xlink="http://www.w3.org/1999/xlink">
<g id="graph0" class="graph" transform="scale(1 1) rotate(0) translate(4 371)">
<title>/home/dominik/uni/MoonState/src/helloBye2_C.cpp</title>
<!-- Node0 -->
<g id="node1" class="node">
<title>Node0</title>
<polygon fill="#bfbfbf" stroke="#000000" points="1135,-336.5 1135,-366.5 1282,-366.5 1282,-336.5 1135,-336.5"/>
<text text-anchor="start" x="1143" y="-354.5" font-family="Helvetica,sans-Serif" font-size="10.00" fill="#000000">/home/dominik/uni/MoonState</text>
<text text-anchor="middle" x="1208.5" y="-343.5" font-family="Helvetica,sans-Serif" font-size="10.00" fill="#000000">/src/helloBye2_C.cpp</text>
</g>
<!-- Node1 -->
<g id="node2" class="node">
<title>Node1</title>
<g id="a_node2"><a xlink:href="helloBye2__C_8hpp.html" target="_top" xlink:title="helloBye2_C.hpp">
<polygon fill="none" stroke="#000000" points="1126,-280.5 1126,-299.5 1217,-299.5 1217,-280.5 1126,-280.5"/>
<text text-anchor="middle" x="1171.5" y="-287.5" font-family="Helvetica,sans-Serif" font-size="10.00" fill="#000000">helloBye2_C.hpp</text>
</a>
</g>
</g>
<!-- Node0&#45;&gt;Node1 -->
<g id="edge1" class="edge">
<title>Node0&#45;&gt;Node1</title>
<path fill="none" stroke="#191970" d="M1199.3539,-336.2977C1194.3249,-327.9388 1188.0445,-317.4997 1182.7209,-308.6509"/>
<polygon fill="#191970" stroke="#191970" points="1185.5785,-306.6114 1177.4242,-299.8469 1179.5803,-310.2201 1185.5785,-306.6114"/>
</g>
<!-- Node11 -->
<g id="node12" class="node">
<title>Node11</title>
<g id="a_node12"><a xlink:href="headers_8hpp.html" target="_top" xlink:title="headers.hpp">
<polygon fill="none" stroke="#000000" points="1243.5,-56.5 1243.5,-75.5 1313.5,-75.5 1313.5,-56.5 1243.5,-56.5"/>
<text text-anchor="middle" x="1278.5" y="-63.5" font-family="Helvetica,sans-Serif" font-size="10.00" fill="#000000">headers.hpp</text>
</a>
</g>
</g>
<!-- Node0&#45;&gt;Node11 -->
<g id="edge65" class="edge">
<title>Node0&#45;&gt;Node11</title>
<path fill="none" stroke="#191970" d="M1216.5284,-336.3944C1227.4104,-314.4758 1245.5,-272.2823 1245.5,-234 1245.5,-234 1245.5,-234 1245.5,-178 1245.5,-144.051 1259.6235,-106.5869 1269.3911,-84.7366"/>
<polygon fill="#191970" stroke="#191970" points="1272.5937,-86.1501 1273.6307,-75.6061 1266.2448,-83.202 1272.5937,-86.1501"/>
</g>
<!-- Node16 -->
<g id="node17" class="node">
<title>Node16</title>
<g id="a_node17"><a xlink:href="stateMachine_8hpp.html" target="_top" xlink:title="stateMachine.hpp">
<polygon fill="none" stroke="#000000" points="538.5,-112.5 538.5,-131.5 632.5,-131.5 632.5,-112.5 538.5,-112.5"/>
<text text-anchor="middle" x="585.5" y="-119.5" font-family="Helvetica,sans-Serif" font-size="10.00" fill="#000000">stateMachine.hpp</text>
</a>
</g>
</g>
<!-- Node0&#45;&gt;Node16 -->
<g id="edge67" class="edge">
<title>Node0&#45;&gt;Node16</title>
<path fill="none" stroke="#191970" d="M1151.3021,-336.4724C1056.9668,-310.8876 863.6561,-255.0683 707.5,-188 672.5345,-172.9825 634.2498,-151.3567 610.0668,-137.0032"/>
<polygon fill="#191970" stroke="#191970" points="611.5995,-133.8415 601.2225,-131.7041 608.0017,-139.8461 611.5995,-133.8415"/>
</g>
<!-- Node25 -->
<g id="node26" class="node">
<title>Node25</title>
<g id="a_node26"><a xlink:href="bufArray_8hpp.html" target="_top" xlink:title="bufArray.hpp">
<polygon fill="none" stroke="#000000" points="128,-56.5 128,-75.5 199,-75.5 199,-56.5 128,-56.5"/>
<text text-anchor="middle" x="163.5" y="-63.5" font-family="Helvetica,sans-Serif" font-size="10.00" fill="#000000">bufArray.hpp</text>
</a>
</g>
</g>
<!-- Node0&#45;&gt;Node25 -->
<g id="edge64" class="edge">
<title>Node0&#45;&gt;Node25</title>
<path fill="none" stroke="#191970" d="M1134.9931,-349.4727C921.9999,-342.6302 319.5,-316.0252 319.5,-234 319.5,-234 319.5,-234 319.5,-178 319.5,-123.1766 255.1378,-92.573 209.096,-77.6944"/>
<polygon fill="#191970" stroke="#191970" points="209.8769,-74.2726 199.2896,-74.6698 207.8138,-80.9617 209.8769,-74.2726"/>
</g>
<!-- Node32 -->
<g id="node33" class="node">
<title>Node32</title>
<g id="a_node33"><a xlink:href="mbuf_8hpp.html" target="_top" xlink:title="mbuf.hpp">
<polygon fill="none" stroke="#000000" points="1548,-112.5 1548,-131.5 1605,-131.5 1605,-112.5 1548,-112.5"/>
<text text-anchor="middle" x="1576.5" y="-119.5" font-family="Helvetica,sans-Serif" font-size="10.00" fill="#000000">mbuf.hpp</text>
</a>
</g>
</g>
<!-- Node0&#45;&gt;Node32 -->
<g id="edge66" class="edge">
<title>Node0&#45;&gt;Node32</title>
<path fill="none" stroke="#191970" d="M1232.6455,-336.4419C1299.3839,-294.821 1485.8098,-178.5581 1552.4427,-137.0031"/>
<polygon fill="#191970" stroke="#191970" points="1554.3918,-139.9125 1561.0249,-131.6509 1550.6876,-133.9729 1554.3918,-139.9125"/>
</g>
<!-- Node33 -->
<g id="node34" class="node">
<title>Node33</title>
<polygon fill="none" stroke="#bfbfbf" points="1602,-56.5 1602,-75.5 1665,-75.5 1665,-56.5 1602,-56.5"/>
<text text-anchor="middle" x="1633.5" y="-63.5" font-family="Helvetica,sans-Serif" font-size="10.00" fill="#000000">rte_mbuf.h</text>
</g>
<!-- Node0&#45;&gt;Node33 -->
<g id="edge68" class="edge">
<title>Node0&#45;&gt;Node33</title>
<path fill="none" stroke="#191970" d="M1282.1195,-347.9877C1412.7553,-339.7285 1671.5,-313.3537 1671.5,-234 1671.5,-234 1671.5,-234 1671.5,-178 1671.5,-143.6118 1655.2366,-106.2832 1643.989,-84.5791"/>
<polygon fill="#191970" stroke="#191970" points="1646.931,-82.6605 1639.107,-75.5166 1640.7683,-85.9804 1646.931,-82.6605"/>
</g>
<!-- Node2 -->
<g id="node3" class="node">
<title>Node2</title>
<g id="a_node3"><a xlink:href="helloBye2Proto_8hpp.html" target="_top" xlink:title="helloBye2Proto.hpp">
<polygon fill="none" stroke="#000000" points="1116,-224.5 1116,-243.5 1217,-243.5 1217,-224.5 1116,-224.5"/>
<text text-anchor="middle" x="1166.5" y="-231.5" font-family="Helvetica,sans-Serif" font-size="10.00" fill="#000000">helloBye2Proto.hpp</text>
</a>
</g>
</g>
<!-- Node1&#45;&gt;Node2 -->
<g id="edge2" class="edge">
<title>Node1&#45;&gt;Node2</title>
<path fill="none" stroke="#191970" d="M1170.6291,-280.2455C1169.9766,-272.9382 1169.062,-262.6944 1168.2593,-253.7046"/>
<polygon fill="#191970" stroke="#191970" points="1171.7365,-253.2918 1167.361,-243.6427 1164.7642,-253.9143 1171.7365,-253.2918"/>
</g>
<!-- Node1&#45;&gt;Node33 -->
<g id="edge63" class="edge">
<title>Node1&#45;&gt;Node33</title>
<path fill="none" stroke="#191970" d="M1217.0873,-287.0652C1306.5299,-278.8163 1505.7499,-247.7449 1614.5,-132 1626.2112,-119.5356 1630.7636,-100.3189 1632.5028,-85.8296"/>
<polygon fill="#191970" stroke="#191970" points="1635.9904,-86.1234 1633.3564,-75.8612 1629.0159,-85.5261 1635.9904,-86.1234"/>
</g>
<!-- Node3 -->
<g id="node4" class="node">
<title>Node3</title>
<polygon fill="none" stroke="#bfbfbf" points="648.5,-56.5 648.5,-75.5 692.5,-75.5 692.5,-56.5 648.5,-56.5"/>
<text text-anchor="middle" x="670.5" y="-63.5" font-family="Helvetica,sans-Serif" font-size="10.00" fill="#000000">mutex</text>
</g>
<!-- Node2&#45;&gt;Node3 -->
<g id="edge3" class="edge">
<title>Node2&#45;&gt;Node3</title>
<path fill="none" stroke="#191970" d="M1138.4117,-224.4862C1052.4754,-195.3788 793.4332,-107.6387 702.4856,-76.8338"/>
<polygon fill="#191970" stroke="#191970" points="703.3332,-73.4257 692.739,-73.5325 701.0876,-80.0557 703.3332,-73.4257"/>
</g>
<!-- Node4 -->
<g id="node5" class="node">
<title>Node4</title>
<polygon fill="none" stroke="#bfbfbf" points="1439.5,-.5 1439.5,-19.5 1491.5,-19.5 1491.5,-.5 1439.5,-.5"/>
<text text-anchor="middle" x="1465.5" y="-7.5" font-family="Helvetica,sans-Serif" font-size="10.00" fill="#000000">sstream</text>
</g>
<!-- Node2&#45;&gt;Node4 -->
<g id="edge4" class="edge">
<title>Node2&#45;&gt;Node4</title>
<path fill="none" stroke="#191970" d="M1217.0633,-229.7768C1281.8568,-223.5485 1389.7315,-210.1781 1422.5,-188 1468.4259,-156.9168 1468.0352,-130.6423 1477.5,-76 1480.202,-60.4007 1476.6508,-42.7582 1472.7256,-29.6409"/>
<polygon fill="#191970" stroke="#191970" points="1475.9415,-28.2191 1469.4694,-19.8309 1469.2979,-30.4243 1475.9415,-28.2191"/>
</g>
<!-- Node5 -->
<g id="node6" class="node">
<title>Node5</title>
<g id="a_node6"><a xlink:href="common_8hpp.html" target="_top" xlink:title="common.hpp">
<polygon fill="none" stroke="#000000" points="861,-56.5 861,-75.5 934,-75.5 934,-56.5 861,-56.5"/>
<text text-anchor="middle" x="897.5" y="-63.5" font-family="Helvetica,sans-Serif" font-size="10.00" fill="#000000">common.hpp</text>
</a>
</g>
</g>
<!-- Node2&#45;&gt;Node5 -->
<g id="edge5" class="edge">
<title>Node2&#45;&gt;Node5</title>
<path fill="none" stroke="#191970" d="M1148.7085,-224.4659C1131.9651,-215.3889 1106.2797,-201.1934 1084.5,-188 1023.9342,-151.3113 954.5861,-104.8616 919.8291,-81.2629"/>
<polygon fill="#191970" stroke="#191970" points="921.6074,-78.2395 911.3709,-75.5072 917.6692,-84.0267 921.6074,-78.2395"/>
</g>
<!-- Node8 -->
<g id="node9" class="node">
<title>Node8</title>
<g id="a_node9"><a xlink:href="exceptions_8hpp.html" target="_top" xlink:title="exceptions.hpp">
<polygon fill="none" stroke="#000000" points="952,-56.5 952,-75.5 1035,-75.5 1035,-56.5 952,-56.5"/>
<text text-anchor="middle" x="993.5" y="-63.5" font-family="Helvetica,sans-Serif" font-size="10.00" fill="#000000">exceptions.hpp</text>
</a>
</g>
</g>
<!-- Node2&#45;&gt;Node8 -->
<g id="edge8" class="edge">
<title>Node2&#45;&gt;Node8</title>
<path fill="none" stroke="#191970" d="M1154.2032,-224.4763C1132.088,-207.1133 1084.5506,-168.7076 1048.5,-132 1033.4112,-116.6362 1017.8484,-97.61 1007.1453,-83.9388"/>
<polygon fill="#191970" stroke="#191970" points="1009.7536,-81.5902 1000.8675,-75.8205 1004.2161,-85.8723 1009.7536,-81.5902"/>
</g>
<!-- Node2&#45;&gt;Node11 -->
<g id="edge11" class="edge">
<title>Node2&#45;&gt;Node11</title>
<path fill="none" stroke="#191970" d="M1170.4743,-224.2338C1179.4737,-202.7425 1202.8702,-150.2256 1231.5,-112 1239.5465,-101.2565 1250.1145,-90.6795 1259.1912,-82.3817"/>
<polygon fill="#191970" stroke="#191970" points="1261.5291,-84.9865 1266.6829,-75.7296 1256.8814,-79.7521 1261.5291,-84.9865"/>
</g>
<!-- Node2&#45;&gt;Node16 -->
<g id="edge18" class="edge">
<title>Node2&#45;&gt;Node16</title>
<path fill="none" stroke="#191970" d="M1115.8984,-231.143C1042.2404,-226.257 901.5123,-214.1714 784.5,-188 724.8644,-174.6617 657.8617,-150.4328 618.8026,-135.3341"/>
<polygon fill="#191970" stroke="#191970" points="619.8492,-131.9855 609.261,-131.6118 617.3052,-138.5069 619.8492,-131.9855"/>
</g>
<!-- Node29 -->
<g id="node30" class="node">
<title>Node29</title>
<g id="a_node30"><a xlink:href="helloBye2Proto_8cpp.html" target="_top" xlink:title="../src/helloBye2Proto.cpp">
<polygon fill="none" stroke="#000000" points="1286,-168.5 1286,-187.5 1413,-187.5 1413,-168.5 1286,-168.5"/>
<text text-anchor="middle" x="1349.5" y="-175.5" font-family="Helvetica,sans-Serif" font-size="10.00" fill="#000000">../src/helloBye2Proto.cpp</text>
</a>
</g>
</g>
<!-- Node2&#45;&gt;Node29 -->
<g id="edge41" class="edge">
<title>Node2&#45;&gt;Node29</title>
<path fill="none" stroke="#191970" d="M1192.7168,-224.3733C1221.5729,-214.9807 1268.2466,-200.6496 1303.241,-190.4064"/>
<polygon fill="#191970" stroke="#191970" points="1304.609,-193.6536 1313.2344,-187.5011 1302.6549,-186.9319 1304.609,-193.6536"/>
</g>
<!-- Node6 -->
<g id="node7" class="node">
<title>Node6</title>
<polygon fill="none" stroke="#bfbfbf" points="892.5,-.5 892.5,-19.5 930.5,-19.5 930.5,-.5 892.5,-.5"/>
<text text-anchor="middle" x="911.5" y="-7.5" font-family="Helvetica,sans-Serif" font-size="10.00" fill="#000000">array</text>
</g>
<!-- Node5&#45;&gt;Node6 -->
<g id="edge6" class="edge">
<title>Node5&#45;&gt;Node6</title>
<path fill="none" stroke="#191970" d="M899.9386,-56.2455C901.7855,-48.8579 904.3828,-38.4689 906.6478,-29.4087"/>
<polygon fill="#191970" stroke="#191970" points="910.0594,-30.193 909.0893,-19.6427 903.2684,-28.4952 910.0594,-30.193"/>
</g>
<!-- Node7 -->
<g id="node8" class="node">
<title>Node7</title>
<polygon fill="none" stroke="#bfbfbf" points="203,-.5 203,-19.5 252,-19.5 252,-.5 203,-.5"/>
<text text-anchor="middle" x="227.5" y="-7.5" font-family="Helvetica,sans-Serif" font-size="10.00" fill="#000000">cassert</text>
</g>
<!-- Node5&#45;&gt;Node7 -->
<g id="edge7" class="edge">
<title>Node5&#45;&gt;Node7</title>
<path fill="none" stroke="#191970" d="M860.9262,-57.5639C857.7482,-56.9784 854.5735,-56.4451 851.5,-56 628.4224,-23.6933 357.0086,-13.5373 262.1803,-10.8488"/>
<polygon fill="#191970" stroke="#191970" points="262.1082,-7.3456 252.0161,-10.5704 261.9165,-14.343 262.1082,-7.3456"/>
</g>
<!-- Node9 -->
<g id="node10" class="node">
<title>Node9</title>
<polygon fill="none" stroke="#bfbfbf" points="1010,-.5 1010,-19.5 1069,-19.5 1069,-.5 1010,-.5"/>
<text text-anchor="middle" x="1039.5" y="-7.5" font-family="Helvetica,sans-Serif" font-size="10.00" fill="#000000">exception</text>
</g>
<!-- Node8&#45;&gt;Node9 -->
<g id="edge9" class="edge">
<title>Node8&#45;&gt;Node9</title>
<path fill="none" stroke="#191970" d="M1001.5126,-56.2455C1007.9768,-48.3761 1017.2385,-37.101 1024.9983,-27.6542"/>
<polygon fill="#191970" stroke="#191970" points="1027.9364,-29.5916 1031.5792,-19.6427 1022.5273,-25.1484 1027.9364,-29.5916"/>
</g>
<!-- Node10 -->
<g id="node11" class="node">
<title>Node10</title>
<polygon fill="none" stroke="#bfbfbf" points="710,-.5 710,-19.5 769,-19.5 769,-.5 710,-.5"/>
<text text-anchor="middle" x="739.5" y="-7.5" font-family="Helvetica,sans-Serif" font-size="10.00" fill="#000000">stdexcept</text>
</g>
<!-- Node8&#45;&gt;Node10 -->
<g id="edge10" class="edge">
<title>Node8&#45;&gt;Node10</title>
<path fill="none" stroke="#191970" d="M951.8415,-56.8154C903.9829,-46.2639 826.0306,-29.0776 779.0692,-18.7239"/>
<polygon fill="#191970" stroke="#191970" points="779.7756,-15.2957 769.2565,-16.5605 778.2684,-22.1315 779.7756,-15.2957"/>
</g>
<!-- Node11&#45;&gt;Node4 -->
<g id="edge15" class="edge">
<title>Node11&#45;&gt;Node4</title>
<path fill="none" stroke="#191970" d="M1310.6464,-56.3733C1343.8168,-46.4399 1395.4318,-30.983 1429.8383,-20.6794"/>
<polygon fill="#191970" stroke="#191970" points="1430.9144,-24.0108 1439.49,-17.7891 1428.9062,-17.3051 1430.9144,-24.0108"/>
</g>
<!-- Node11&#45;&gt;Node6 -->
<g id="edge12" class="edge">
<title>Node11&#45;&gt;Node6</title>
<path fill="none" stroke="#191970" d="M1243.3105,-60.6305C1171.2528,-49.6353 1008.0613,-24.7341 941.0586,-14.5103"/>
<polygon fill="#191970" stroke="#191970" points="941.2087,-10.9928 930.7951,-12.9442 940.1527,-17.9127 941.2087,-10.9928"/>
</g>
<!-- Node12 -->
<g id="node13" class="node">
<title>Node12</title>
<polygon fill="none" stroke="#bfbfbf" points="1204.5,-.5 1204.5,-19.5 1250.5,-19.5 1250.5,-.5 1204.5,-.5"/>
<text text-anchor="middle" x="1227.5" y="-7.5" font-family="Helvetica,sans-Serif" font-size="10.00" fill="#000000">cstdint</text>
</g>
<!-- Node11&#45;&gt;Node12 -->
<g id="edge13" class="edge">
<title>Node11&#45;&gt;Node12</title>
<path fill="none" stroke="#191970" d="M1269.6165,-56.2455C1262.3034,-48.2155 1251.7609,-36.6394 1243.0533,-27.0781"/>
<polygon fill="#191970" stroke="#191970" points="1245.6028,-24.6795 1236.2817,-19.6427 1240.4273,-29.3928 1245.6028,-24.6795"/>
</g>
<!-- Node13 -->
<g id="node14" class="node">
<title>Node13</title>
<polygon fill="none" stroke="#bfbfbf" points="1348.5,-.5 1348.5,-19.5 1394.5,-19.5 1394.5,-.5 1348.5,-.5"/>
<text text-anchor="middle" x="1371.5" y="-7.5" font-family="Helvetica,sans-Serif" font-size="10.00" fill="#000000">cstring</text>
</g>
<!-- Node11&#45;&gt;Node13 -->
<g id="edge14" class="edge">
<title>Node11&#45;&gt;Node13</title>
<path fill="none" stroke="#191970" d="M1294.6994,-56.2455C1309.1018,-47.5731 1330.3732,-34.7645 1346.8799,-24.825"/>
<polygon fill="#191970" stroke="#191970" points="1348.725,-27.7996 1355.4863,-19.6427 1345.114,-21.8028 1348.725,-27.7996"/>
</g>
<!-- Node14 -->
<g id="node15" class="node">
<title>Node14</title>
<polygon fill="none" stroke="#bfbfbf" points="1145,-.5 1145,-19.5 1186,-19.5 1186,-.5 1145,-.5"/>
<text text-anchor="middle" x="1165.5" y="-7.5" font-family="Helvetica,sans-Serif" font-size="10.00" fill="#000000">string</text>
</g>
<!-- Node11&#45;&gt;Node14 -->
<g id="edge16" class="edge">
<title>Node11&#45;&gt;Node14</title>
<path fill="none" stroke="#191970" d="M1259.0746,-56.3733C1241.0979,-47.4644 1214.1559,-34.1127 1193.791,-24.0203"/>
<polygon fill="#191970" stroke="#191970" points="1195.1861,-20.8055 1184.6719,-19.5011 1192.0778,-27.0776 1195.1861,-20.8055"/>
</g>
<!-- Node15 -->
<g id="node16" class="node">
<title>Node15</title>
<polygon fill="none" stroke="#bfbfbf" points="1268.5,-.5 1268.5,-19.5 1330.5,-19.5 1330.5,-.5 1268.5,-.5"/>
<text text-anchor="middle" x="1299.5" y="-7.5" font-family="Helvetica,sans-Serif" font-size="10.00" fill="#000000">arpa/inet.h</text>
</g>
<!-- Node11&#45;&gt;Node15 -->
<g id="edge17" class="edge">
<title>Node11&#45;&gt;Node15</title>
<path fill="none" stroke="#191970" d="M1282.1579,-56.2455C1284.9584,-48.7776 1288.909,-38.2427 1292.3324,-29.1137"/>
<polygon fill="#191970" stroke="#191970" points="1295.6499,-30.2349 1295.884,-19.6427 1289.0955,-27.777 1295.6499,-30.2349"/>
</g>
<!-- Node16&#45;&gt;Node3 -->
<g id="edge26" class="edge">
<title>Node16&#45;&gt;Node3</title>
<path fill="none" stroke="#191970" d="M600.3059,-112.2455C613.2256,-103.7337 632.1931,-91.2375 647.1552,-81.3801"/>
<polygon fill="#191970" stroke="#191970" points="649.4387,-84.067 655.8638,-75.6427 645.5876,-78.2216 649.4387,-84.067"/>
</g>
<!-- Node16&#45;&gt;Node5 -->
<g id="edge37" class="edge">
<title>Node16&#45;&gt;Node5</title>
<path fill="none" stroke="#191970" d="M632.7006,-114.4642C683.8846,-106.1527 768.2296,-92.0512 850.8111,-76.069"/>
<polygon fill="#191970" stroke="#191970" points="851.7239,-79.4571 860.8709,-74.1109 850.3864,-72.586 851.7239,-79.4571"/>
</g>
<!-- Node16&#45;&gt;Node7 -->
<g id="edge19" class="edge">
<title>Node16&#45;&gt;Node7</title>
<path fill="none" stroke="#191970" d="M538.2945,-118.4454C450.3218,-111.411 268.2106,-94.7624 246.5,-76 233.4159,-64.6926 229.0587,-45.0142 227.7397,-30.0787"/>
<polygon fill="#191970" stroke="#191970" points="231.221,-29.6132 227.2291,-19.7992 224.2296,-29.9605 231.221,-29.6132"/>
</g>
<!-- Node16&#45;&gt;Node8 -->
<g id="edge38" class="edge">
<title>Node16&#45;&gt;Node8</title>
<path fill="none" stroke="#191970" d="M632.5642,-117.0097C699.2111,-109.7106 825.1128,-95.068 941.635,-76.2244"/>
<polygon fill="#191970" stroke="#191970" points="942.4919,-79.6309 951.7977,-74.5661 941.3646,-72.7223 942.4919,-79.6309"/>
</g>
<!-- Node16&#45;&gt;Node10 -->
<g id="edge28" class="edge">
<title>Node16&#45;&gt;Node10</title>
<path fill="none" stroke="#191970" d="M591.3775,-112.3126C600.285,-98.3068 618.4167,-72.2988 639.5,-56 657.7365,-41.9019 680.9885,-30.8769 700.481,-23.1589"/>
<polygon fill="#191970" stroke="#191970" points="701.8992,-26.364 709.9965,-19.5313 699.4057,-19.8231 701.8992,-26.364"/>
</g>
<!-- Node16&#45;&gt;Node12 -->
<g id="edge21" class="edge">
<title>Node16&#45;&gt;Node12</title>
<path fill="none" stroke="#191970" d="M632.6967,-121.0856C716.5745,-118.6197 896.6893,-109.5208 1044.5,-76 1099.7463,-63.4711 1161.157,-39.0273 1196.938,-23.6603"/>
<polygon fill="#191970" stroke="#191970" points="1198.5458,-26.7779 1206.324,-19.5841 1195.7574,-20.3572 1198.5458,-26.7779"/>
</g>
<!-- Node17 -->
<g id="node18" class="node">
<title>Node17</title>
<polygon fill="none" stroke="#bfbfbf" points="255.5,-56.5 255.5,-75.5 301.5,-75.5 301.5,-56.5 255.5,-56.5"/>
<text text-anchor="middle" x="278.5" y="-63.5" font-family="Helvetica,sans-Serif" font-size="10.00" fill="#000000">chrono</text>
</g>
<!-- Node16&#45;&gt;Node17 -->
<g id="edge20" class="edge">
<title>Node16&#45;&gt;Node17</title>
<path fill="none" stroke="#191970" d="M538.3956,-116.1235C485.3583,-109.0633 396.5026,-95.9043 311.611,-76.0209"/>
<polygon fill="#191970" stroke="#191970" points="312.3543,-72.6002 301.8159,-73.692 310.735,-79.4103 312.3543,-72.6002"/>
</g>
<!-- Node18 -->
<g id="node19" class="node">
<title>Node18</title>
<polygon fill="none" stroke="#bfbfbf" points="711,-56.5 711,-75.5 770,-75.5 770,-56.5 711,-56.5"/>
<text text-anchor="middle" x="740.5" y="-63.5" font-family="Helvetica,sans-Serif" font-size="10.00" fill="#000000">functional</text>
</g>
<!-- Node16&#45;&gt;Node18 -->
<g id="edge22" class="edge">
<title>Node16&#45;&gt;Node18</title>
<path fill="none" stroke="#191970" d="M612.1454,-112.3733C637.6964,-103.1419 676.4512,-89.1402 704.6909,-78.9375"/>
<polygon fill="#191970" stroke="#191970" points="705.9865,-82.1909 714.2022,-75.5011 703.6079,-75.6074 705.9865,-82.1909"/>
</g>
<!-- Node19 -->
<g id="node20" class="node">
<title>Node19</title>
<polygon fill="none" stroke="#bfbfbf" points="788.5,-56.5 788.5,-75.5 842.5,-75.5 842.5,-56.5 788.5,-56.5"/>
<text text-anchor="middle" x="815.5" y="-63.5" font-family="Helvetica,sans-Serif" font-size="10.00" fill="#000000">iostream</text>
</g>
<!-- Node16&#45;&gt;Node19 -->
<g id="edge23" class="edge">
<title>Node16&#45;&gt;Node19</title>
<path fill="none" stroke="#191970" d="M628.0006,-112.4134C665.2282,-103.9064 721.0229,-90.8924 778.4273,-76.2105"/>
<polygon fill="#191970" stroke="#191970" points="779.5892,-79.5257 788.4029,-73.6462 777.8464,-72.7461 779.5892,-79.5257"/>
</g>
<!-- Node20 -->
<g id="node21" class="node">
<title>Node20</title>
<polygon fill="none" stroke="#bfbfbf" points="319.5,-56.5 319.5,-75.5 359.5,-75.5 359.5,-56.5 319.5,-56.5"/>
<text text-anchor="middle" x="339.5" y="-63.5" font-family="Helvetica,sans-Serif" font-size="10.00" fill="#000000">limits</text>
</g>
<!-- Node16&#45;&gt;Node20 -->
<g id="edge24" class="edge">
<title>Node16&#45;&gt;Node20</title>
<path fill="none" stroke="#191970" d="M538.1089,-113.6959C496.0336,-105.9335 432.7593,-93.3093 369.4319,-76.015"/>
<polygon fill="#191970" stroke="#191970" points="370.2531,-72.6108 359.6817,-73.3147 368.3848,-79.3568 370.2531,-72.6108"/>
</g>
<!-- Node21 -->
<g id="node22" class="node">
<title>Node21</title>
<polygon fill="none" stroke="#bfbfbf" points="377.5,-56.5 377.5,-75.5 429.5,-75.5 429.5,-56.5 377.5,-56.5"/>
<text text-anchor="middle" x="403.5" y="-63.5" font-family="Helvetica,sans-Serif" font-size="10.00" fill="#000000">memory</text>
</g>
<!-- Node16&#45;&gt;Node21 -->
<g id="edge25" class="edge">
<title>Node16&#45;&gt;Node21</title>
<path fill="none" stroke="#191970" d="M554.2131,-112.3733C522.3445,-102.5676 472.9829,-87.3793 439.5074,-77.0792"/>
<polygon fill="#191970" stroke="#191970" points="440.2526,-73.6466 429.6654,-74.0509 438.1939,-80.3371 440.2526,-73.6466"/>
</g>
<!-- Node22 -->
<g id="node23" class="node">
<title>Node22</title>
<polygon fill="none" stroke="#bfbfbf" points="448,-56.5 448,-75.5 491,-75.5 491,-56.5 448,-56.5"/>
<text text-anchor="middle" x="469.5" y="-63.5" font-family="Helvetica,sans-Serif" font-size="10.00" fill="#000000">queue</text>
</g>
<!-- Node16&#45;&gt;Node22 -->
<g id="edge27" class="edge">
<title>Node16&#45;&gt;Node22</title>
<path fill="none" stroke="#191970" d="M565.5589,-112.3733C547.0214,-103.4241 519.1972,-89.9917 498.2587,-79.8835"/>
<polygon fill="#191970" stroke="#191970" points="499.7081,-76.6967 489.1809,-75.5011 496.6648,-83.0006 499.7081,-76.6967"/>
</g>
<!-- Node23 -->
<g id="node24" class="node">
<title>Node23</title>
<polygon fill="none" stroke="#bfbfbf" points="509,-56.5 509,-75.5 592,-75.5 592,-56.5 509,-56.5"/>
<text text-anchor="middle" x="550.5" y="-63.5" font-family="Helvetica,sans-Serif" font-size="10.00" fill="#000000">unordered_map</text>
</g>
<!-- Node16&#45;&gt;Node23 -->
<g id="edge29" class="edge">
<title>Node16&#45;&gt;Node23</title>
<path fill="none" stroke="#191970" d="M579.4035,-112.2455C574.5855,-104.5367 567.7249,-93.5598 561.8968,-84.2348"/>
<polygon fill="#191970" stroke="#191970" points="564.7947,-82.2677 556.5267,-75.6427 558.8587,-85.9777 564.7947,-82.2677"/>
</g>
<!-- Node24 -->
<g id="node25" class="node">
<title>Node24</title>
<polygon fill="none" stroke="#bfbfbf" points="79.5,-.5 79.5,-19.5 123.5,-19.5 123.5,-.5 79.5,-.5"/>
<text text-anchor="middle" x="101.5" y="-7.5" font-family="Helvetica,sans-Serif" font-size="10.00" fill="#000000">vector</text>
</g>
<!-- Node16&#45;&gt;Node24 -->
<g id="edge30" class="edge">
<title>Node16&#45;&gt;Node24</title>
<path fill="none" stroke="#191970" d="M538.1911,-120.3764C425.8279,-116.0961 149.9354,-102.9346 118.5,-76 105.4687,-64.8344 101.7463,-45.1371 100.9679,-30.1586"/>
<polygon fill="#191970" stroke="#191970" points="104.4638,-29.7999 100.841,-19.8438 97.4643,-29.8861 104.4638,-29.7999"/>
</g>
<!-- Node16&#45;&gt;Node25 -->
<g id="edge31" class="edge">
<title>Node16&#45;&gt;Node25</title>
<path fill="none" stroke="#191970" d="M538.3619,-117.3071C467.5917,-110.005 329.7777,-94.7903 213.5,-76 212.0526,-75.7661 210.5832,-75.5206 209.1007,-75.266"/>
<polygon fill="#191970" stroke="#191970" points="209.684,-71.8148 199.2208,-73.4797 208.4385,-78.7031 209.684,-71.8148"/>
</g>
<!-- Node27 -->
<g id="node28" class="node">
<title>Node27</title>
<g id="a_node28"><a xlink:href="spinlock_8hpp.html" target="_top" xlink:title="spinlock.hpp">
<polygon fill="none" stroke="#000000" points="0,-56.5 0,-75.5 71,-75.5 71,-56.5 0,-56.5"/>
<text text-anchor="middle" x="35.5" y="-63.5" font-family="Helvetica,sans-Serif" font-size="10.00" fill="#000000">spinlock.hpp</text>
</a>
</g>
</g>
<!-- Node16&#45;&gt;Node27 -->
<g id="edge39" class="edge">
<title>Node16&#45;&gt;Node27</title>
<path fill="none" stroke="#191970" d="M538.4296,-119.3336C449.5623,-113.9312 251.1245,-100.1123 85.5,-76 84.0491,-75.7888 82.5767,-75.563 81.0915,-75.3255"/>
<polygon fill="#191970" stroke="#191970" points="81.6497,-71.8702 71.1998,-73.6165 80.4579,-78.768 81.6497,-71.8702"/>
</g>
<!-- Node25&#45;&gt;Node7 -->
<g id="edge32" class="edge">
<title>Node25&#45;&gt;Node7</title>
<path fill="none" stroke="#191970" d="M174.6479,-56.2455C184.0087,-48.0549 197.5858,-36.1749 208.6349,-26.5069"/>
<polygon fill="#191970" stroke="#191970" points="211.2588,-28.8618 216.4798,-19.6427 206.6492,-23.5937 211.2588,-28.8618"/>
</g>
<!-- Node25&#45;&gt;Node10 -->
<g id="edge34" class="edge">
<title>Node25&#45;&gt;Node10</title>
<path fill="none" stroke="#191970" d="M199.0193,-61.5079C213.7061,-59.7058 230.9137,-57.6658 246.5,-56 414.7423,-38.0192 615.7155,-20.4947 699.6286,-13.3544"/>
<polygon fill="#191970" stroke="#191970" points="700.0732,-16.8294 709.7413,-12.496 699.4811,-9.8544 700.0732,-16.8294"/>
</g>
<!-- Node25&#45;&gt;Node12 -->
<g id="edge33" class="edge">
<title>Node25&#45;&gt;Node12</title>
<path fill="none" stroke="#191970" d="M199.3876,-61.0247C213.9786,-59.172 231.0184,-57.2242 246.5,-56 663.9805,-22.988 777.7589,-90.5058 1194.3592,-19.7433"/>
<polygon fill="#191970" stroke="#191970" points="1194.9923,-23.1859 1204.2568,-18.0459 1193.809,-16.2866 1194.9923,-23.1859"/>
</g>
<!-- Node25&#45;&gt;Node24 -->
<g id="edge36" class="edge">
<title>Node25&#45;&gt;Node24</title>
<path fill="none" stroke="#191970" d="M152.7004,-56.2455C143.6322,-48.0549 130.4794,-36.1749 119.7755,-26.5069"/>
<polygon fill="#191970" stroke="#191970" points="121.9429,-23.7482 112.1758,-19.6427 117.2509,-28.9429 121.9429,-23.7482"/>
</g>
<!-- Node26 -->
<g id="node27" class="node">
<title>Node26</title>
<polygon fill="none" stroke="#bfbfbf" points="143.5,-.5 143.5,-19.5 183.5,-19.5 183.5,-.5 143.5,-.5"/>
<text text-anchor="middle" x="163.5" y="-7.5" font-family="Helvetica,sans-Serif" font-size="10.00" fill="#000000">utility</text>
</g>
<!-- Node25&#45;&gt;Node26 -->
<g id="edge35" class="edge">
<title>Node25&#45;&gt;Node26</title>
<path fill="none" stroke="#191970" d="M163.5,-56.2455C163.5,-48.9382 163.5,-38.6944 163.5,-29.7046"/>
<polygon fill="#191970" stroke="#191970" points="167.0001,-29.6426 163.5,-19.6427 160.0001,-29.6427 167.0001,-29.6426"/>
</g>
<!-- Node28 -->
<g id="node29" class="node">
<title>Node28</title>
<polygon fill="none" stroke="#bfbfbf" points="12.5,-.5 12.5,-19.5 58.5,-19.5 58.5,-.5 12.5,-.5"/>
<text text-anchor="middle" x="35.5" y="-7.5" font-family="Helvetica,sans-Serif" font-size="10.00" fill="#000000">atomic</text>
</g>
<!-- Node27&#45;&gt;Node28 -->
<g id="edge40" class="edge">
<title>Node27&#45;&gt;Node28</title>
<path fill="none" stroke="#191970" d="M35.5,-56.2455C35.5,-48.9382 35.5,-38.6944 35.5,-29.7046"/>
<polygon fill="#191970" stroke="#191970" points="39.0001,-29.6426 35.5,-19.6427 32.0001,-29.6427 39.0001,-29.6426"/>
</g>
<!-- Node29&#45;&gt;Node2 -->
<g id="edge56" class="edge">
<title>Node29&#45;&gt;Node2</title>
<path fill="none" stroke="#191970" d="M1323.669,-187.5011C1294.9727,-196.8494 1248.327,-211.1765 1213.2288,-221.4561"/>
<polygon fill="#191970" stroke="#191970" points="1211.8252,-218.2192 1203.2008,-224.3733 1213.7805,-224.9406 1211.8252,-218.2192"/>
</g>
<!-- Node29&#45;&gt;Node4 -->
<g id="edge43" class="edge">
<title>Node29&#45;&gt;Node4</title>
<path fill="none" stroke="#191970" d="M1377.9714,-168.4247C1396.5992,-160.9542 1420.382,-148.9736 1436.5,-132 1455.3954,-112.1015 1455.976,-102.6538 1462.5,-76 1466.2121,-60.8339 1466.8247,-43.1354 1466.5845,-29.8858"/>
<polygon fill="#191970" stroke="#191970" points="1470.0704,-29.4295 1466.2103,-19.5629 1463.075,-29.6832 1470.0704,-29.4295"/>
</g>
<!-- Node29&#45;&gt;Node11 -->
<g id="edge55" class="edge">
<title>Node29&#45;&gt;Node11</title>
<path fill="none" stroke="#191970" d="M1336.7707,-168.2757C1326.3189,-159.7144 1311.7773,-146.3958 1302.5,-132 1293.2236,-117.6056 1286.9018,-99.1393 1283.0849,-85.402"/>
<polygon fill="#191970" stroke="#191970" points="1286.4355,-84.3782 1280.5522,-75.567 1279.6567,-86.1239 1286.4355,-84.3782"/>
</g>
<!-- Node30 -->
<g id="node31" class="node">
<title>Node30</title>
<polygon fill="none" stroke="#bfbfbf" points="1408,-56.5 1408,-75.5 1453,-75.5 1453,-56.5 1408,-56.5"/>
<text text-anchor="middle" x="1430.5" y="-63.5" font-family="Helvetica,sans-Serif" font-size="10.00" fill="#000000">cstdlib</text>
</g>
<!-- Node29&#45;&gt;Node30 -->
<g id="edge42" class="edge">
<title>Node29&#45;&gt;Node30</title>
<path fill="none" stroke="#191970" d="M1372.6775,-168.4379C1388.1129,-160.849 1407.5108,-148.7248 1418.5,-132 1427.4824,-118.3295 1430.2206,-99.7927 1430.8625,-85.8444"/>
<polygon fill="#191970" stroke="#191970" points="1434.3624,-85.872 1431.0072,-75.8225 1427.3631,-85.7709 1434.3624,-85.872"/>
</g>
<!-- Node31 -->
<g id="node32" class="node">
<title>Node31</title>
<g id="a_node32"><a xlink:href="IPv4__5TupleL2Ident_8hpp.html" target="_top" xlink:title="IPv4_5TupleL2Ident.hpp">
<polygon fill="none" stroke="#000000" points="1057.5,-112.5 1057.5,-131.5 1179.5,-131.5 1179.5,-112.5 1057.5,-112.5"/>
<text text-anchor="middle" x="1118.5" y="-119.5" font-family="Helvetica,sans-Serif" font-size="10.00" fill="#000000">IPv4_5TupleL2Ident.hpp</text>
</a>
</g>
</g>
<!-- Node29&#45;&gt;Node31 -->
<g id="edge44" class="edge">
<title>Node29&#45;&gt;Node31</title>
<path fill="none" stroke="#191970" d="M1310.0522,-168.4369C1270.6844,-158.8932 1210.0966,-144.2052 1167.6292,-133.9101"/>
<polygon fill="#191970" stroke="#191970" points="1168.3283,-130.4783 1157.7851,-131.5237 1166.679,-137.2812 1168.3283,-130.4783"/>
</g>
<!-- Node29&#45;&gt;Node32 -->
<g id="edge57" class="edge">
<title>Node29&#45;&gt;Node32</title>
<path fill="none" stroke="#191970" d="M1388.2648,-168.4369C1430.1447,-158.1053 1496.4627,-141.7449 1538.1718,-131.4554"/>
<polygon fill="#191970" stroke="#191970" points="1539.0889,-134.8342 1547.9595,-129.0408 1537.4123,-128.0379 1539.0889,-134.8342"/>
</g>
<!-- Node34 -->
<g id="node35" class="node">
<title>Node34</title>
<g id="a_node35"><a xlink:href="samplePacket_8hpp.html" target="_top" xlink:title="samplePacket.hpp">
<polygon fill="none" stroke="#000000" points="1311.5,-112.5 1311.5,-131.5 1409.5,-131.5 1409.5,-112.5 1311.5,-112.5"/>
<text text-anchor="middle" x="1360.5" y="-119.5" font-family="Helvetica,sans-Serif" font-size="10.00" fill="#000000">samplePacket.hpp</text>
</a>
</g>
</g>
<!-- Node29&#45;&gt;Node34 -->
<g id="edge60" class="edge">
<title>Node29&#45;&gt;Node34</title>
<path fill="none" stroke="#191970" d="M1351.4161,-168.2455C1352.8514,-160.9382 1354.8636,-150.6944 1356.6295,-141.7046"/>
<polygon fill="#191970" stroke="#191970" points="1360.1127,-142.1298 1358.6059,-131.6427 1353.244,-140.7805 1360.1127,-142.1298"/>
</g>
<!-- Node31&#45;&gt;Node4 -->
<g id="edge49" class="edge">
<title>Node31&#45;&gt;Node4</title>
<path fill="none" stroke="#191970" d="M1175.6667,-112.449C1217.0609,-104.7315 1274.0229,-92.4474 1322.5,-76 1364.4239,-61.776 1410.5184,-39.1438 1438.7381,-24.4288"/>
<polygon fill="#191970" stroke="#191970" points="1440.7229,-27.3391 1447.9382,-19.5808 1437.4596,-21.1463 1440.7229,-27.3391"/>
</g>
<!-- Node31&#45;&gt;Node5 -->
<g id="edge52" class="edge">
<title>Node31&#45;&gt;Node5</title>
<path fill="none" stroke="#191970" d="M1080.7599,-112.4369C1043.0279,-102.8759 984.9208,-88.1519 944.2812,-77.8541"/>
<polygon fill="#191970" stroke="#191970" points="944.9019,-74.4008 934.3485,-75.3372 943.1824,-81.1863 944.9019,-74.4008"/>
</g>
<!-- Node31&#45;&gt;Node8 -->
<g id="edge54" class="edge">
<title>Node31&#45;&gt;Node8</title>
<path fill="none" stroke="#191970" d="M1097.0117,-112.3733C1076.856,-103.3435 1046.512,-89.7494 1023.882,-79.6111"/>
<polygon fill="#191970" stroke="#191970" points="1025.2649,-76.3955 1014.7079,-75.5011 1022.4029,-82.7838 1025.2649,-76.3955"/>
</g>
<!-- Node31&#45;&gt;Node9 -->
<g id="edge46" class="edge">
<title>Node31&#45;&gt;Node9</title>
<path fill="none" stroke="#191970" d="M1120.738,-112.2413C1123.304,-98.6052 1125.9264,-73.5539 1115.5,-56 1106.9716,-41.6415 1092.0608,-31.1998 1077.6927,-23.9304"/>
<polygon fill="#191970" stroke="#191970" points="1078.9443,-20.6524 1068.4016,-19.6021 1075.9883,-26.9976 1078.9443,-20.6524"/>
</g>
<!-- Node31&#45;&gt;Node10 -->
<g id="edge50" class="edge">
<title>Node31&#45;&gt;Node10</title>
<path fill="none" stroke="#191970" d="M1111.0359,-112.4694C1098.8562,-97.6687 1073.1714,-69.4631 1044.5,-56 998.1843,-34.2518 851.0564,-19.3398 779.4363,-13.1769"/>
<polygon fill="#191970" stroke="#191970" points="779.6977,-9.6866 769.4383,-12.3313 779.1077,-16.6617 779.6977,-9.6866"/>
</g>
<!-- Node31&#45;&gt;Node11 -->
<g id="edge53" class="edge">
<title>Node31&#45;&gt;Node11</title>
<path fill="none" stroke="#191970" d="M1146.005,-112.3733C1172.3802,-103.1419 1212.3851,-89.1402 1241.5358,-78.9375"/>
<polygon fill="#191970" stroke="#191970" points="1243.0716,-82.1082 1251.3539,-75.5011 1240.7591,-75.5012 1243.0716,-82.1082"/>
</g>
<!-- Node31&#45;&gt;Node12 -->
<g id="edge45" class="edge">
<title>Node31&#45;&gt;Node12</title>
<path fill="none" stroke="#191970" d="M1130.4734,-112.1995C1141.2856,-103.1675 1157.4531,-89.203 1170.5,-76 1185.8641,-60.4521 1202.0278,-41.4494 1213.2025,-27.8338"/>
<polygon fill="#191970" stroke="#191970" points="1216.1772,-29.723 1219.767,-19.7548 1210.7445,-25.3087 1216.1772,-29.723"/>
</g>
<!-- Node31&#45;&gt;Node14 -->
<g id="edge51" class="edge">
<title>Node31&#45;&gt;Node14</title>
<path fill="none" stroke="#191970" d="M1128.0899,-112.3036C1136.1628,-103.5573 1147.3482,-89.9576 1153.5,-76 1159.9585,-61.3467 1162.941,-43.3941 1164.3183,-29.9137"/>
<polygon fill="#191970" stroke="#191970" points="1167.8176,-30.0632 1165.1387,-19.8126 1160.8406,-29.4964 1167.8176,-30.0632"/>
</g>
<!-- Node31&#45;&gt;Node18 -->
<g id="edge47" class="edge">
<title>Node31&#45;&gt;Node18</title>
<path fill="none" stroke="#191970" d="M1057.2166,-115.8513C991.179,-108.7391 882.8591,-95.6685 780.1501,-75.9328"/>
<polygon fill="#191970" stroke="#191970" points="780.7141,-72.477 770.2296,-74.0021 779.3768,-79.3481 780.7141,-72.477"/>
</g>
<!-- Node31&#45;&gt;Node19 -->
<g id="edge48" class="edge">
<title>Node31&#45;&gt;Node19</title>
<path fill="none" stroke="#191970" d="M1057.4397,-113.0891C1003.3213,-104.8 922.2852,-91.4297 852.5,-76 852.3985,-75.9776 852.2968,-75.955 852.195,-75.9324"/>
<polygon fill="#191970" stroke="#191970" points="853.0469,-72.5375 842.5064,-73.6093 851.4147,-79.3446 853.0469,-72.5375"/>
</g>
<!-- Node32&#45;&gt;Node12 -->
<g id="edge58" class="edge">
<title>Node32&#45;&gt;Node12</title>
<path fill="none" stroke="#191970" d="M1563.5669,-112.4627C1543.1739,-97.9139 1501.8112,-70.3566 1462.5,-56 1379.372,-25.6413 1350.4969,-40.5944 1260.6008,-19.9899"/>
<polygon fill="#191970" stroke="#191970" points="1261.3607,-16.5731 1250.8223,-17.6652 1259.7416,-23.3833 1261.3607,-16.5731"/>
</g>
<!-- Node32&#45;&gt;Node33 -->
<g id="edge59" class="edge">
<title>Node32&#45;&gt;Node33</title>
<path fill="none" stroke="#191970" d="M1586.4286,-112.2455C1594.6838,-104.1352 1606.6209,-92.4075 1616.4082,-82.7919"/>
<polygon fill="#191970" stroke="#191970" points="1619.0046,-85.1476 1623.6851,-75.6427 1614.0989,-80.1542 1619.0046,-85.1476"/>
</g>
<!-- Node34&#45;&gt;Node12 -->
<g id="edge61" class="edge">
<title>Node34&#45;&gt;Node12</title>
<path fill="none" stroke="#191970" d="M1357.0469,-112.2909C1351.6292,-98.258 1339.9191,-72.2167 1322.5,-56 1304.8304,-39.5501 1280.188,-27.8488 1260.4289,-20.3651"/>
<polygon fill="#191970" stroke="#191970" points="1261.4838,-17.025 1250.8894,-16.9306 1259.1125,-23.6112 1261.4838,-17.025"/>
</g>
<!-- Node34&#45;&gt;Node30 -->
<g id="edge62" class="edge">
<title>Node34&#45;&gt;Node30</title>
<path fill="none" stroke="#191970" d="M1372.6931,-112.2455C1383.1321,-103.8943 1398.3655,-91.7076 1410.574,-81.9408"/>
<polygon fill="#191970" stroke="#191970" points="1412.8244,-84.6227 1418.4467,-75.6427 1408.4515,-79.1566 1412.8244,-84.6227"/>
</g>
</g>
</svg>
