<?xml version="1.0" encoding="UTF-8" standalone="no"?>
<!DOCTYPE svg PUBLIC "-//W3C//DTD SVG 1.1//EN"
 "http://www.w3.org/Graphics/SVG/1.1/DTD/svg11.dtd">
<!-- Generated by graphviz version 2.38.0 (20140413.2041)
 -->
<!-- Title: HelloByeServer_getPkts Pages: 1 -->
<svg width="597pt" height="66pt"
 viewBox="0.00 0.00 597.00 66.00" xmlns="http://www.w3.org/2000/svg" xmlns:xlink="http://www.w3.org/1999/xlink">
<g id="graph0" class="graph" transform="scale(1 1) rotate(0) translate(4 62)">
<title>HelloByeServer_getPkts</title>
<!-- Node1 -->
<g id="node1" class="node"><title>Node1</title>
<polygon fill="#bfbfbf" stroke="black" points="0,-19.5 0,-38.5 124,-38.5 124,-19.5 0,-19.5"/>
<text text-anchor="middle" x="62" y="-26.5" font-family="Helvetica,sans-Serif" font-size="10.00">HelloByeServer_getPkts</text>
</g>
<!-- Node2 -->
<g id="node2" class="node"><title>Node2</title>
<g id="a_node2"><a xlink:href="classBufArray.html#a615b6c144c343ca7337a6ef22abbea83" target="_top" xlink:title="Get all the packets which are to be sent. ">
<polygon fill="none" stroke="black" points="311.5,-38.5 311.5,-57.5 428.5,-57.5 428.5,-38.5 311.5,-38.5"/>
<text text-anchor="middle" x="370" y="-45.5" font-family="Helvetica,sans-Serif" font-size="10.00">BufArray::getSendBufs</text>
</a>
</g>
</g>
<!-- Node1&#45;&gt;Node2 -->
<g id="edge1" class="edge"><title>Node1&#45;&gt;Node2</title>
<path fill="none" stroke="midnightblue" d="M124.188,-32.7993C175.285,-35.972 248.062,-40.4908 300.978,-43.7764"/>
<polygon fill="midnightblue" stroke="midnightblue" points="301.087,-47.2898 311.284,-44.4163 301.52,-40.3033 301.087,-47.2898"/>
</g>
<!-- Node4 -->
<g id="node4" class="node"><title>Node4</title>
<g id="a_node4"><a xlink:href="classBufArray.html#aa29b07f7f2d34072da0fafb38e0ccfa5" target="_top" xlink:title="Get all the packets which are to be freed. ">
<polygon fill="none" stroke="black" points="160,-0.5 160,-19.5 274,-19.5 274,-0.5 160,-0.5"/>
<text text-anchor="middle" x="217" y="-7.5" font-family="Helvetica,sans-Serif" font-size="10.00">BufArray::getFreeBufs</text>
</a>
</g>
</g>
<!-- Node1&#45;&gt;Node4 -->
<g id="edge3" class="edge"><title>Node1&#45;&gt;Node4</title>
<path fill="none" stroke="midnightblue" d="M124.349,-21.3815C132.624,-20.3539 141.145,-19.2957 149.504,-18.2577"/>
<polygon fill="midnightblue" stroke="midnightblue" points="150.1,-21.7107 159.592,-17.0049 149.237,-14.764 150.1,-21.7107"/>
</g>
<!-- Node3 -->
<g id="node3" class="node"><title>Node3</title>
<g id="a_node3"><a xlink:href="classBufArray.html#a7570e31b14ed3d44f5b60b3a9e8afee5" target="_top" xlink:title="Get the number of packets currently marked as send. ">
<polygon fill="none" stroke="black" points="466,-19.5 466,-38.5 589,-38.5 589,-19.5 466,-19.5"/>
<text text-anchor="middle" x="527.5" y="-26.5" font-family="Helvetica,sans-Serif" font-size="10.00">BufArray::getSendCount</text>
</a>
</g>
</g>
<!-- Node2&#45;&gt;Node3 -->
<g id="edge2" class="edge"><title>Node2&#45;&gt;Node3</title>
<path fill="none" stroke="midnightblue" d="M428.902,-40.9251C437.686,-39.8519 446.831,-38.7344 455.848,-37.6327"/>
<polygon fill="midnightblue" stroke="midnightblue" points="456.447,-41.0857 465.948,-36.3986 455.598,-34.1374 456.447,-41.0857"/>
</g>
<!-- Node5 -->
<g id="node5" class="node"><title>Node5</title>
<g id="a_node5"><a xlink:href="classBufArray.html#a5b533f3c7add88f873d41e841fc55136" target="_top" xlink:title="Get the number of packets currently marked as free. ">
<polygon fill="none" stroke="black" points="310,-0.5 310,-19.5 430,-19.5 430,-0.5 310,-0.5"/>
<text text-anchor="middle" x="370" y="-7.5" font-family="Helvetica,sans-Serif" font-size="10.00">BufArray::getFreeCount</text>
</a>
</g>
</g>
<!-- Node4&#45;&gt;Node5 -->
<g id="edge4" class="edge"><title>Node4&#45;&gt;Node5</title>
<path fill="none" stroke="midnightblue" d="M274.227,-10C282.604,-10 291.32,-10 299.925,-10"/>
<polygon fill="midnightblue" stroke="midnightblue" points="299.947,-13.5001 309.947,-10 299.947,-6.5001 299.947,-13.5001"/>
</g>
<!-- Node5&#45;&gt;Node3 -->
<g id="edge5" class="edge"><title>Node5&#45;&gt;Node3</title>
<path fill="none" stroke="midnightblue" d="M430.231,-17.2373C438.621,-18.2624 447.316,-19.3248 455.895,-20.373"/>
<polygon fill="midnightblue" stroke="midnightblue" points="455.535,-23.855 465.886,-21.5937 456.384,-16.9066 455.535,-23.855"/>
</g>
</g>
</svg>
