<?xml version="1.0" encoding="UTF-8" standalone="no"?>
<!DOCTYPE svg PUBLIC "-//W3C//DTD SVG 1.1//EN"
 "http://www.w3.org/Graphics/SVG/1.1/DTD/svg11.dtd">
<!-- Generated by graphviz version 2.40.1 (20161225.0304)
 -->
<!-- Title: HelloByeClient_process Pages: 1 -->
<svg width="445pt" height="47pt"
 viewBox="0.00 0.00 445.00 47.00" xmlns="http://www.w3.org/2000/svg" xmlns:xlink="http://www.w3.org/1999/xlink">
<g id="graph0" class="graph" transform="scale(1 1) rotate(0) translate(4 43)">
<title>HelloByeClient_process</title>
<!-- Node16 -->
<g id="node1" class="node">
<title>Node16</title>
<polygon fill="#bfbfbf" stroke="#000000" points="0,-19.5 0,-38.5 122,-38.5 122,-19.5 0,-19.5"/>
<text text-anchor="middle" x="61" y="-26.5" font-family="Helvetica,sans-Serif" font-size="10.00" fill="#000000">HelloByeClient_process</text>
</g>
<!-- Node17 -->
<g id="node2" class="node">
<title>Node17</title>
<g id="a_node2"><a xlink:href="classBufArray.html#a1d52cd9f63feaa98f800bcae8277e675" target="_top" xlink:title="Get the number of packets currently marked as send. ">
<polygon fill="none" stroke="#000000" points="314,-19.5 314,-38.5 437,-38.5 437,-19.5 314,-19.5"/>
<text text-anchor="middle" x="375.5" y="-26.5" font-family="Helvetica,sans-Serif" font-size="10.00" fill="#000000">BufArray::getSendCount</text>
</a>
</g>
</g>
<!-- Node16&#45;&gt;Node17 -->
<g id="edge1" class="edge">
<title>Node16&#45;&gt;Node17</title>
<path fill="none" stroke="#191970" d="M122.0117,-29C174.0581,-29 248.9588,-29 303.8473,-29"/>
<polygon fill="#191970" stroke="#191970" points="303.8533,-32.5001 313.8532,-29 303.8532,-25.5001 303.8533,-32.5001"/>
</g>
<!-- Node18 -->
<g id="node3" class="node">
<title>Node18</title>
<g id="a_node3"><a xlink:href="classBufArray.html#a77223130b4dca30992a335dbff4b4781" target="_top" xlink:title="Get the number of packets currently marked as free. ">
<polygon fill="none" stroke="#000000" points="158,-.5 158,-19.5 278,-19.5 278,-.5 158,-.5"/>
<text text-anchor="middle" x="218" y="-7.5" font-family="Helvetica,sans-Serif" font-size="10.00" fill="#000000">BufArray::getFreeCount</text>
</a>
</g>
</g>
<!-- Node16&#45;&gt;Node18 -->
<g id="edge2" class="edge">
<title>Node16&#45;&gt;Node18</title>
<path fill="none" stroke="#191970" d="M122.1499,-21.5997C130.5661,-20.5812 139.2624,-19.5288 147.8251,-18.4925"/>
<polygon fill="#191970" stroke="#191970" points="148.2837,-21.9626 157.7908,-17.2865 147.4427,-15.0133 148.2837,-21.9626"/>
</g>
<!-- Node18&#45;&gt;Node17 -->
<g id="edge3" class="edge">
<title>Node18&#45;&gt;Node17</title>
<path fill="none" stroke="#191970" d="M278.4432,-17.2916C286.7983,-18.2995 295.4444,-19.3425 303.9764,-20.3718"/>
<polygon fill="#191970" stroke="#191970" points="303.5684,-23.8478 313.9156,-21.5708 304.4068,-16.8982 303.5684,-23.8478"/>
</g>
</g>
</svg>
