<?xml version="1.0" encoding="UTF-8" standalone="no"?>
<!DOCTYPE svg PUBLIC "-//W3C//DTD SVG 1.1//EN"
 "http://www.w3.org/Graphics/SVG/1.1/DTD/svg11.dtd">
<!-- Generated by graphviz version 2.38.0 (20140413.2041)
 -->
<!-- Title: /home/dominik/uni/MoonState/src/helloByeProto.cpp Pages: 1 -->
<svg width="1649pt" height="263pt"
 viewBox="0.00 0.00 1648.50 263.00" xmlns="http://www.w3.org/2000/svg" xmlns:xlink="http://www.w3.org/1999/xlink">
<g id="graph0" class="graph" transform="scale(1 1) rotate(0) translate(4 259)">
<title>/home/dominik/uni/MoonState/src/helloByeProto.cpp</title>
<!-- Node1 -->
<g id="node1" class="node"><title>Node1</title>
<polygon fill="#bfbfbf" stroke="black" points="637.5,-224.5 637.5,-254.5 784.5,-254.5 784.5,-224.5 637.5,-224.5"/>
<text text-anchor="start" x="645.5" y="-242.5" font-family="Helvetica,sans-Serif" font-size="10.00">/home/dominik/uni/MoonState</text>
<text text-anchor="middle" x="711" y="-231.5" font-family="Helvetica,sans-Serif" font-size="10.00">/src/helloByeProto.cpp</text>
</g>
<!-- Node2 -->
<g id="node2" class="node"><title>Node2</title>
<polygon fill="none" stroke="#bfbfbf" points="915.5,-112.5 915.5,-131.5 960.5,-131.5 960.5,-112.5 915.5,-112.5"/>
<text text-anchor="middle" x="938" y="-119.5" font-family="Helvetica,sans-Serif" font-size="10.00">cstdlib</text>
</g>
<!-- Node1&#45;&gt;Node2 -->
<g id="edge1" class="edge"><title>Node1&#45;&gt;Node2</title>
<path fill="none" stroke="midnightblue" d="M738.835,-224.337C783.191,-201.768 869.28,-157.966 912.272,-136.091"/>
<polygon fill="midnightblue" stroke="midnightblue" points="913.925,-139.177 921.251,-131.522 910.751,-132.938 913.925,-139.177"/>
</g>
<!-- Node3 -->
<g id="node3" class="node"><title>Node3</title>
<polygon fill="none" stroke="#bfbfbf" points="0,-0.5 0,-19.5 52,-19.5 52,-0.5 0,-0.5"/>
<text text-anchor="middle" x="26" y="-7.5" font-family="Helvetica,sans-Serif" font-size="10.00">sstream</text>
</g>
<!-- Node1&#45;&gt;Node3 -->
<g id="edge2" class="edge"><title>Node1&#45;&gt;Node3</title>
<path fill="none" stroke="midnightblue" d="M637.446,-237.758C509.612,-232.879 243.627,-206.457 71,-76 54.6297,-63.6287 42.0327,-43.5392 34.3848,-28.9653"/>
<polygon fill="midnightblue" stroke="midnightblue" points="37.4761,-27.3208 29.8952,-19.9194 31.2059,-30.4329 37.4761,-27.3208"/>
</g>
<!-- Node4 -->
<g id="node4" class="node"><title>Node4</title>
<g id="a_node4"><a xlink:href="IPv4__5TupleL2Ident_8hpp.html" target="_top" xlink:title="IPv4_5TupleL2Ident.hpp">
<polygon fill="none" stroke="black" points="298,-112.5 298,-131.5 420,-131.5 420,-112.5 298,-112.5"/>
<text text-anchor="middle" x="359" y="-119.5" font-family="Helvetica,sans-Serif" font-size="10.00">IPv4_5TupleL2Ident.hpp</text>
</a>
</g>
</g>
<!-- Node1&#45;&gt;Node4 -->
<g id="edge3" class="edge"><title>Node1&#45;&gt;Node4</title>
<path fill="none" stroke="midnightblue" d="M668.19,-224.453C598.102,-201.455 460.15,-156.19 394.866,-134.768"/>
<polygon fill="midnightblue" stroke="midnightblue" points="395.626,-131.334 385.034,-131.542 393.444,-137.986 395.626,-131.334"/>
</g>
<!-- Node12 -->
<g id="node12" class="node"><title>Node12</title>
<g id="a_node12"><a xlink:href="headers_8hpp.html" target="_top" xlink:title="headers.hpp">
<polygon fill="none" stroke="black" points="115,-56.5 115,-75.5 185,-75.5 185,-56.5 115,-56.5"/>
<text text-anchor="middle" x="150" y="-63.5" font-family="Helvetica,sans-Serif" font-size="10.00">headers.hpp</text>
</a>
</g>
</g>
<!-- Node1&#45;&gt;Node12 -->
<g id="edge23" class="edge"><title>Node1&#45;&gt;Node12</title>
<path fill="none" stroke="midnightblue" d="M637.22,-224.609C551.91,-207.469 407.96,-175.211 289,-132 247.787,-117.03 202.11,-94.4401 174.745,-80.217"/>
<polygon fill="midnightblue" stroke="midnightblue" points="176.349,-77.106 165.867,-75.5613 173.098,-83.3053 176.349,-77.106"/>
</g>
<!-- Node17 -->
<g id="node17" class="node"><title>Node17</title>
<g id="a_node17"><a xlink:href="helloByeProto_8hpp.html" target="_top" xlink:title="helloByeProto.hpp">
<polygon fill="none" stroke="black" points="663,-168.5 663,-187.5 759,-187.5 759,-168.5 663,-168.5"/>
<text text-anchor="middle" x="711" y="-175.5" font-family="Helvetica,sans-Serif" font-size="10.00">helloByeProto.hpp</text>
</a>
</g>
</g>
<!-- Node1&#45;&gt;Node17 -->
<g id="edge24" class="edge"><title>Node1&#45;&gt;Node17</title>
<path fill="none" stroke="midnightblue" d="M705.16,-224.399C704.13,-216.377 703.974,-206.233 704.693,-197.569"/>
<polygon fill="midnightblue" stroke="midnightblue" points="708.16,-198.044 706.071,-187.658 701.227,-197.081 708.16,-198.044"/>
</g>
<!-- Node32 -->
<g id="node32" class="node"><title>Node32</title>
<g id="a_node32"><a xlink:href="mbuf_8hpp.html" target="_top" xlink:title="mbuf.hpp">
<polygon fill="none" stroke="black" points="1520.5,-168.5 1520.5,-187.5 1577.5,-187.5 1577.5,-168.5 1520.5,-168.5"/>
<text text-anchor="middle" x="1549" y="-175.5" font-family="Helvetica,sans-Serif" font-size="10.00">mbuf.hpp</text>
</a>
</g>
</g>
<!-- Node1&#45;&gt;Node32 -->
<g id="edge48" class="edge"><title>Node1&#45;&gt;Node32</title>
<path fill="none" stroke="midnightblue" d="M784.632,-233.272C956.53,-221.067 1379.57,-191.03 1510.04,-181.766"/>
<polygon fill="midnightblue" stroke="midnightblue" points="1510.61,-185.234 1520.34,-181.035 1510.12,-178.252 1510.61,-185.234"/>
</g>
<!-- Node34 -->
<g id="node34" class="node"><title>Node34</title>
<g id="a_node34"><a xlink:href="samplePacket_8hpp.html" target="_top" xlink:title="samplePacket.hpp">
<polygon fill="none" stroke="black" points="889,-168.5 889,-187.5 987,-187.5 987,-168.5 889,-168.5"/>
<text text-anchor="middle" x="938" y="-175.5" font-family="Helvetica,sans-Serif" font-size="10.00">samplePacket.hpp</text>
</a>
</g>
</g>
<!-- Node1&#45;&gt;Node34 -->
<g id="edge51" class="edge"><title>Node1&#45;&gt;Node34</title>
<path fill="none" stroke="midnightblue" d="M764.508,-224.475C804.526,-213.986 858.505,-199.837 895.568,-190.122"/>
<polygon fill="midnightblue" stroke="midnightblue" points="896.761,-193.428 905.547,-187.506 894.986,-186.656 896.761,-193.428"/>
</g>
<!-- Node4&#45;&gt;Node3 -->
<g id="edge8" class="edge"><title>Node4&#45;&gt;Node3</title>
<path fill="none" stroke="midnightblue" d="M297.93,-118.706C245.037,-114.756 167.561,-104.171 106,-76 80.4623,-64.3135 56.1706,-42.5276 41.1946,-27.4168"/>
<polygon fill="midnightblue" stroke="midnightblue" points="43.3387,-24.597 33.8842,-19.8152 38.2932,-29.4492 43.3387,-24.597"/>
</g>
<!-- Node5 -->
<g id="node5" class="node"><title>Node5</title>
<polygon fill="none" stroke="#bfbfbf" points="724,-0.5 724,-19.5 770,-19.5 770,-0.5 724,-0.5"/>
<text text-anchor="middle" x="747" y="-7.5" font-family="Helvetica,sans-Serif" font-size="10.00">cstdint</text>
</g>
<!-- Node4&#45;&gt;Node5 -->
<g id="edge4" class="edge"><title>Node4&#45;&gt;Node5</title>
<path fill="none" stroke="midnightblue" d="M367.941,-112.114C383.017,-97.714 415.085,-69.5332 448,-56 538.994,-18.5869 657.013,-11.8355 713.715,-10.9032"/>
<polygon fill="midnightblue" stroke="midnightblue" points="713.93,-14.4011 723.89,-10.7888 713.851,-7.40153 713.93,-14.4011"/>
</g>
<!-- Node6 -->
<g id="node6" class="node"><title>Node6</title>
<polygon fill="none" stroke="#bfbfbf" points="329.5,-0.5 329.5,-19.5 388.5,-19.5 388.5,-0.5 329.5,-0.5"/>
<text text-anchor="middle" x="359" y="-7.5" font-family="Helvetica,sans-Serif" font-size="10.00">exception</text>
</g>
<!-- Node4&#45;&gt;Node6 -->
<g id="edge5" class="edge"><title>Node4&#45;&gt;Node6</title>
<path fill="none" stroke="midnightblue" d="M329.865,-112.474C299.747,-102.031 259.181,-82.4204 275,-56 284.804,-39.6255 302.829,-28.8707 319.676,-21.9959"/>
<polygon fill="midnightblue" stroke="midnightblue" points="321.235,-25.1502 329.387,-18.3833 318.795,-18.5894 321.235,-25.1502"/>
</g>
<!-- Node7 -->
<g id="node7" class="node"><title>Node7</title>
<polygon fill="none" stroke="#bfbfbf" points="457.5,-56.5 457.5,-75.5 516.5,-75.5 516.5,-56.5 457.5,-56.5"/>
<text text-anchor="middle" x="487" y="-63.5" font-family="Helvetica,sans-Serif" font-size="10.00">functional</text>
</g>
<!-- Node4&#45;&gt;Node7 -->
<g id="edge6" class="edge"><title>Node4&#45;&gt;Node7</title>
<path fill="none" stroke="midnightblue" d="M379.282,-112.444C400.347,-103.557 433.517,-89.5632 457.486,-79.4514"/>
<polygon fill="midnightblue" stroke="midnightblue" points="458.96,-82.6283 466.813,-75.5164 456.239,-76.1787 458.96,-82.6283"/>
</g>
<!-- Node8 -->
<g id="node8" class="node"><title>Node8</title>
<polygon fill="none" stroke="#bfbfbf" points="535,-56.5 535,-75.5 589,-75.5 589,-56.5 535,-56.5"/>
<text text-anchor="middle" x="562" y="-63.5" font-family="Helvetica,sans-Serif" font-size="10.00">iostream</text>
</g>
<!-- Node4&#45;&gt;Node8 -->
<g id="edge7" class="edge"><title>Node4&#45;&gt;Node8</title>
<path fill="none" stroke="midnightblue" d="M391.166,-112.444C427.599,-102.752 486.86,-86.9879 525.131,-76.8075"/>
<polygon fill="midnightblue" stroke="midnightblue" points="526.093,-80.1735 534.857,-74.2203 524.293,-73.4087 526.093,-80.1735"/>
</g>
<!-- Node9 -->
<g id="node9" class="node"><title>Node9</title>
<polygon fill="none" stroke="#bfbfbf" points="406.5,-0.5 406.5,-19.5 465.5,-19.5 465.5,-0.5 406.5,-0.5"/>
<text text-anchor="middle" x="436" y="-7.5" font-family="Helvetica,sans-Serif" font-size="10.00">stdexcept</text>
</g>
<!-- Node4&#45;&gt;Node9 -->
<g id="edge9" class="edge"><title>Node4&#45;&gt;Node9</title>
<path fill="none" stroke="midnightblue" d="M343.571,-112.377C323.663,-100.12 293.241,-76.8335 308,-56 313.383,-48.4013 360.956,-33.0199 396.542,-22.37"/>
<polygon fill="midnightblue" stroke="midnightblue" points="397.624,-25.7 406.217,-19.502 395.634,-18.9887 397.624,-25.7"/>
</g>
<!-- Node10 -->
<g id="node10" class="node"><title>Node10</title>
<polygon fill="none" stroke="#bfbfbf" points="270.5,-0.5 270.5,-19.5 311.5,-19.5 311.5,-0.5 270.5,-0.5"/>
<text text-anchor="middle" x="291" y="-7.5" font-family="Helvetica,sans-Serif" font-size="10.00">string</text>
</g>
<!-- Node4&#45;&gt;Node10 -->
<g id="edge10" class="edge"><title>Node4&#45;&gt;Node10</title>
<path fill="none" stroke="midnightblue" d="M321.032,-112.411C301.592,-105.883 279.624,-94.7151 268,-76 258.571,-60.8184 267.962,-41.2371 277.429,-27.5513"/>
<polygon fill="midnightblue" stroke="midnightblue" points="280.258,-29.6127 283.464,-19.5145 274.661,-25.4093 280.258,-29.6127"/>
</g>
<!-- Node11 -->
<g id="node11" class="node"><title>Node11</title>
<g id="a_node11"><a xlink:href="common_8hpp.html" target="_top" xlink:title="common.hpp">
<polygon fill="none" stroke="black" points="607.5,-56.5 607.5,-75.5 680.5,-75.5 680.5,-56.5 607.5,-56.5"/>
<text text-anchor="middle" x="644" y="-63.5" font-family="Helvetica,sans-Serif" font-size="10.00">common.hpp</text>
</a>
</g>
</g>
<!-- Node4&#45;&gt;Node11 -->
<g id="edge11" class="edge"><title>Node4&#45;&gt;Node11</title>
<path fill="none" stroke="midnightblue" d="M404.836,-112.47C450.894,-103.876 524.19,-90.1389 597.477,-76.0895"/>
<polygon fill="midnightblue" stroke="midnightblue" points="598.185,-79.5177 607.346,-74.1957 596.866,-72.6431 598.185,-79.5177"/>
</g>
<!-- Node4&#45;&gt;Node12 -->
<g id="edge13" class="edge"><title>Node4&#45;&gt;Node12</title>
<path fill="none" stroke="midnightblue" d="M325.883,-112.444C289.882,-103.142 232.23,-88.246 192.814,-78.062"/>
<polygon fill="midnightblue" stroke="midnightblue" points="193.519,-74.6294 182.962,-75.5164 191.768,-81.4068 193.519,-74.6294"/>
</g>
<!-- Node16 -->
<g id="node16" class="node"><title>Node16</title>
<g id="a_node16"><a xlink:href="exceptions_8hpp.html" target="_top" xlink:title="exceptions.hpp">
<polygon fill="none" stroke="black" points="317.5,-56.5 317.5,-75.5 400.5,-75.5 400.5,-56.5 317.5,-56.5"/>
<text text-anchor="middle" x="359" y="-63.5" font-family="Helvetica,sans-Serif" font-size="10.00">exceptions.hpp</text>
</a>
</g>
</g>
<!-- Node4&#45;&gt;Node16 -->
<g id="edge20" class="edge"><title>Node4&#45;&gt;Node16</title>
<path fill="none" stroke="midnightblue" d="M359,-112.083C359,-105.006 359,-94.8611 359,-85.9865"/>
<polygon fill="midnightblue" stroke="midnightblue" points="362.5,-85.751 359,-75.7511 355.5,-85.7511 362.5,-85.751"/>
</g>
<!-- Node11&#45;&gt;Node5 -->
<g id="edge12" class="edge"><title>Node11&#45;&gt;Node5</title>
<path fill="none" stroke="midnightblue" d="M660.549,-56.324C676.992,-47.7034 702.435,-34.3643 721.468,-24.3855"/>
<polygon fill="midnightblue" stroke="midnightblue" points="723.261,-27.3977 730.492,-19.6545 720.011,-21.198 723.261,-27.3977"/>
</g>
<!-- Node12&#45;&gt;Node3 -->
<g id="edge17" class="edge"><title>Node12&#45;&gt;Node3</title>
<path fill="none" stroke="midnightblue" d="M130.352,-56.4435C110.035,-47.5961 78.0972,-33.6875 54.9023,-23.5865"/>
<polygon fill="midnightblue" stroke="midnightblue" points="56.1221,-20.3002 45.5562,-19.5164 53.3271,-26.7181 56.1221,-20.3002"/>
</g>
<!-- Node12&#45;&gt;Node5 -->
<g id="edge15" class="edge"><title>Node12&#45;&gt;Node5</title>
<path fill="none" stroke="midnightblue" d="M185.116,-61.8237C291.573,-52.1944 609.755,-23.4142 713.726,-14.0097"/>
<polygon fill="midnightblue" stroke="midnightblue" points="714.297,-17.4725 723.941,-13.0858 713.666,-10.5009 714.297,-17.4725"/>
</g>
<!-- Node12&#45;&gt;Node10 -->
<g id="edge18" class="edge"><title>Node12&#45;&gt;Node10</title>
<path fill="none" stroke="midnightblue" d="M172.342,-56.4435C196.166,-47.3194 234.045,-32.8125 260.58,-22.6501"/>
<polygon fill="midnightblue" stroke="midnightblue" points="262.055,-25.8333 270.142,-18.9883 259.551,-19.2963 262.055,-25.8333"/>
</g>
<!-- Node13 -->
<g id="node13" class="node"><title>Node13</title>
<polygon fill="none" stroke="#bfbfbf" points="70,-0.5 70,-19.5 108,-19.5 108,-0.5 70,-0.5"/>
<text text-anchor="middle" x="89" y="-7.5" font-family="Helvetica,sans-Serif" font-size="10.00">array</text>
</g>
<!-- Node12&#45;&gt;Node13 -->
<g id="edge14" class="edge"><title>Node12&#45;&gt;Node13</title>
<path fill="none" stroke="midnightblue" d="M140.199,-56.324C131.182,-48.3414 117.594,-36.3128 106.682,-26.6529"/>
<polygon fill="midnightblue" stroke="midnightblue" points="108.787,-23.8416 98.979,-19.8339 104.147,-29.083 108.787,-23.8416"/>
</g>
<!-- Node14 -->
<g id="node14" class="node"><title>Node14</title>
<polygon fill="none" stroke="#bfbfbf" points="126,-0.5 126,-19.5 172,-19.5 172,-0.5 126,-0.5"/>
<text text-anchor="middle" x="149" y="-7.5" font-family="Helvetica,sans-Serif" font-size="10.00">cstring</text>
</g>
<!-- Node12&#45;&gt;Node14 -->
<g id="edge16" class="edge"><title>Node12&#45;&gt;Node14</title>
<path fill="none" stroke="midnightblue" d="M149.835,-56.083C149.704,-49.0059 149.516,-38.8611 149.352,-29.9865"/>
<polygon fill="midnightblue" stroke="midnightblue" points="152.847,-29.6845 149.162,-19.7511 145.848,-29.8142 152.847,-29.6845"/>
</g>
<!-- Node15 -->
<g id="node15" class="node"><title>Node15</title>
<polygon fill="none" stroke="#bfbfbf" points="190,-0.5 190,-19.5 252,-19.5 252,-0.5 190,-0.5"/>
<text text-anchor="middle" x="221" y="-7.5" font-family="Helvetica,sans-Serif" font-size="10.00">arpa/inet.h</text>
</g>
<!-- Node12&#45;&gt;Node15 -->
<g id="edge19" class="edge"><title>Node12&#45;&gt;Node15</title>
<path fill="none" stroke="midnightblue" d="M161.407,-56.324C172.109,-48.1849 188.341,-35.8395 201.163,-26.0874"/>
<polygon fill="midnightblue" stroke="midnightblue" points="203.544,-28.6734 209.385,-19.8339 199.307,-23.1018 203.544,-28.6734"/>
</g>
<!-- Node16&#45;&gt;Node6 -->
<g id="edge21" class="edge"><title>Node16&#45;&gt;Node6</title>
<path fill="none" stroke="midnightblue" d="M359,-56.083C359,-49.0059 359,-38.8611 359,-29.9865"/>
<polygon fill="midnightblue" stroke="midnightblue" points="362.5,-29.751 359,-19.7511 355.5,-29.7511 362.5,-29.751"/>
</g>
<!-- Node16&#45;&gt;Node9 -->
<g id="edge22" class="edge"><title>Node16&#45;&gt;Node9</title>
<path fill="none" stroke="midnightblue" d="M371.371,-56.324C383.158,-48.0577 401.132,-35.4527 415.136,-25.6322"/>
<polygon fill="midnightblue" stroke="midnightblue" points="417.482,-28.2619 423.659,-19.6545 413.462,-22.5307 417.482,-28.2619"/>
</g>
<!-- Node17&#45;&gt;Node1 -->
<g id="edge47" class="edge"><title>Node17&#45;&gt;Node1</title>
<path fill="none" stroke="midnightblue" d="M715.929,-187.658C717.435,-194.655 718.007,-204.857 717.645,-214.289"/>
<polygon fill="midnightblue" stroke="midnightblue" points="714.145,-214.153 716.84,-224.399 721.123,-214.709 714.145,-214.153"/>
</g>
<!-- Node17&#45;&gt;Node11 -->
<g id="edge25" class="edge"><title>Node17&#45;&gt;Node11</title>
<path fill="none" stroke="midnightblue" d="M705.743,-168.368C694.735,-150.296 669.08,-108.176 654.542,-84.3074"/>
<polygon fill="midnightblue" stroke="midnightblue" points="657.424,-82.3112 649.233,-75.5914 651.446,-85.9526 657.424,-82.3112"/>
</g>
<!-- Node18 -->
<g id="node18" class="node"><title>Node18</title>
<g id="a_node18"><a xlink:href="stateMachine_8hpp.html" target="_top" xlink:title="stateMachine.hpp">
<polygon fill="none" stroke="black" points="803,-112.5 803,-131.5 897,-131.5 897,-112.5 803,-112.5"/>
<text text-anchor="middle" x="850" y="-119.5" font-family="Helvetica,sans-Serif" font-size="10.00">stateMachine.hpp</text>
</a>
</g>
</g>
<!-- Node17&#45;&gt;Node18 -->
<g id="edge26" class="edge"><title>Node17&#45;&gt;Node18</title>
<path fill="none" stroke="midnightblue" d="M733.025,-168.444C756.104,-159.478 792.562,-145.314 818.641,-135.183"/>
<polygon fill="midnightblue" stroke="midnightblue" points="820.024,-138.4 828.078,-131.516 817.489,-131.875 820.024,-138.4"/>
</g>
<!-- Node18&#45;&gt;Node5 -->
<g id="edge29" class="edge"><title>Node18&#45;&gt;Node5</title>
<path fill="none" stroke="midnightblue" d="M822.081,-112.431C803.671,-105.42 780.386,-93.7285 766,-76 755.244,-62.7452 750.577,-43.6181 748.552,-29.5427"/>
<polygon fill="midnightblue" stroke="midnightblue" points="752.024,-29.0929 747.429,-19.5464 745.068,-29.8748 752.024,-29.0929"/>
</g>
<!-- Node18&#45;&gt;Node7 -->
<g id="edge30" class="edge"><title>Node18&#45;&gt;Node7</title>
<path fill="none" stroke="midnightblue" d="M802.841,-115.781C741.559,-108.706 631.054,-94.9476 526.82,-76.0023"/>
<polygon fill="midnightblue" stroke="midnightblue" points="527.222,-72.5177 516.754,-74.1528 525.957,-79.4024 527.222,-72.5177"/>
</g>
<!-- Node18&#45;&gt;Node8 -->
<g id="edge31" class="edge"><title>Node18&#45;&gt;Node8</title>
<path fill="none" stroke="midnightblue" d="M802.904,-113.577C754.221,-105.683 675.815,-92.3571 598.934,-76.0845"/>
<polygon fill="midnightblue" stroke="midnightblue" points="599.591,-72.6459 589.081,-73.9806 598.129,-79.4916 599.591,-72.6459"/>
</g>
<!-- Node18&#45;&gt;Node9 -->
<g id="edge36" class="edge"><title>Node18&#45;&gt;Node9</title>
<path fill="none" stroke="midnightblue" d="M832.085,-112.329C802.808,-98.4895 742.596,-71.4041 689,-56 615.145,-34.7731 526.138,-21.7386 475.804,-15.4819"/>
<polygon fill="midnightblue" stroke="midnightblue" points="476.019,-11.9824 465.67,-14.2492 475.174,-18.9312 476.019,-11.9824"/>
</g>
<!-- Node18&#45;&gt;Node11 -->
<g id="edge43" class="edge"><title>Node18&#45;&gt;Node11</title>
<path fill="none" stroke="midnightblue" d="M817.359,-112.444C781.95,-103.162 725.291,-88.3093 686.447,-78.127"/>
<polygon fill="midnightblue" stroke="midnightblue" points="687.049,-74.6666 676.489,-75.5164 685.274,-81.4378 687.049,-74.6666"/>
</g>
<!-- Node18&#45;&gt;Node16 -->
<g id="edge44" class="edge"><title>Node18&#45;&gt;Node16</title>
<path fill="none" stroke="midnightblue" d="M802.921,-115.822C710.633,-105.672 506.61,-83.2341 410.713,-72.6874"/>
<polygon fill="midnightblue" stroke="midnightblue" points="410.995,-69.1973 400.672,-71.5831 410.229,-76.1554 410.995,-69.1973"/>
</g>
<!-- Node19 -->
<g id="node19" class="node"><title>Node19</title>
<polygon fill="none" stroke="#bfbfbf" points="864.5,-56.5 864.5,-75.5 913.5,-75.5 913.5,-56.5 864.5,-56.5"/>
<text text-anchor="middle" x="889" y="-63.5" font-family="Helvetica,sans-Serif" font-size="10.00">cassert</text>
</g>
<!-- Node18&#45;&gt;Node19 -->
<g id="edge27" class="edge"><title>Node18&#45;&gt;Node19</title>
<path fill="none" stroke="midnightblue" d="M856.44,-112.083C861.949,-104.455 870.031,-93.2645 876.765,-83.9408"/>
<polygon fill="midnightblue" stroke="midnightblue" points="879.662,-85.9071 882.68,-75.7511 873.987,-81.8087 879.662,-85.9071"/>
</g>
<!-- Node20 -->
<g id="node20" class="node"><title>Node20</title>
<polygon fill="none" stroke="#bfbfbf" points="932,-56.5 932,-75.5 978,-75.5 978,-56.5 932,-56.5"/>
<text text-anchor="middle" x="955" y="-63.5" font-family="Helvetica,sans-Serif" font-size="10.00">chrono</text>
</g>
<!-- Node18&#45;&gt;Node20 -->
<g id="edge28" class="edge"><title>Node18&#45;&gt;Node20</title>
<path fill="none" stroke="midnightblue" d="M866.87,-112.324C883.709,-103.664 909.807,-90.2424 929.238,-80.249"/>
<polygon fill="midnightblue" stroke="midnightblue" points="930.88,-83.3405 938.172,-75.6545 927.678,-77.1155 930.88,-83.3405"/>
</g>
<!-- Node21 -->
<g id="node21" class="node"><title>Node21</title>
<polygon fill="none" stroke="#bfbfbf" points="996,-56.5 996,-75.5 1036,-75.5 1036,-56.5 996,-56.5"/>
<text text-anchor="middle" x="1016" y="-63.5" font-family="Helvetica,sans-Serif" font-size="10.00">limits</text>
</g>
<!-- Node18&#45;&gt;Node21 -->
<g id="edge32" class="edge"><title>Node18&#45;&gt;Node21</title>
<path fill="none" stroke="midnightblue" d="M876.303,-112.444C906.036,-102.771 954.364,-87.0503 985.665,-76.8679"/>
<polygon fill="midnightblue" stroke="midnightblue" points="987.149,-80.0657 995.576,-73.6439 984.984,-73.4091 987.149,-80.0657"/>
</g>
<!-- Node22 -->
<g id="node22" class="node"><title>Node22</title>
<polygon fill="none" stroke="#bfbfbf" points="1054,-56.5 1054,-75.5 1106,-75.5 1106,-56.5 1054,-56.5"/>
<text text-anchor="middle" x="1080" y="-63.5" font-family="Helvetica,sans-Serif" font-size="10.00">memory</text>
</g>
<!-- Node18&#45;&gt;Node22 -->
<g id="edge33" class="edge"><title>Node18&#45;&gt;Node22</title>
<path fill="none" stroke="midnightblue" d="M888.179,-112.485C925.464,-104.103 984.065,-90.7569 1043.68,-76.2797"/>
<polygon fill="midnightblue" stroke="midnightblue" points="1044.76,-79.6201 1053.64,-73.852 1043.1,-72.8191 1044.76,-79.6201"/>
</g>
<!-- Node23 -->
<g id="node23" class="node"><title>Node23</title>
<polygon fill="none" stroke="#bfbfbf" points="1124,-56.5 1124,-75.5 1168,-75.5 1168,-56.5 1124,-56.5"/>
<text text-anchor="middle" x="1146" y="-63.5" font-family="Helvetica,sans-Serif" font-size="10.00">mutex</text>
</g>
<!-- Node18&#45;&gt;Node23 -->
<g id="edge34" class="edge"><title>Node18&#45;&gt;Node23</title>
<path fill="none" stroke="midnightblue" d="M897.279,-113.273C961.526,-102.732 1072.39,-84.3803 1113.8,-75.9432"/>
<polygon fill="midnightblue" stroke="midnightblue" points="1114.69,-79.3303 1123.73,-73.7962 1113.21,-72.4884 1114.69,-79.3303"/>
</g>
<!-- Node24 -->
<g id="node24" class="node"><title>Node24</title>
<polygon fill="none" stroke="#bfbfbf" points="1186.5,-56.5 1186.5,-75.5 1229.5,-75.5 1229.5,-56.5 1186.5,-56.5"/>
<text text-anchor="middle" x="1208" y="-63.5" font-family="Helvetica,sans-Serif" font-size="10.00">queue</text>
</g>
<!-- Node18&#45;&gt;Node24 -->
<g id="edge35" class="edge"><title>Node18&#45;&gt;Node24</title>
<path fill="none" stroke="midnightblue" d="M897.039,-113.345C900.07,-112.881 903.077,-112.429 906,-112 1023.05,-94.8236 1056.36,-100.675 1176.47,-75.803"/>
<polygon fill="midnightblue" stroke="midnightblue" points="1177.36,-79.1935 1186.42,-73.7136 1175.92,-72.3428 1177.36,-79.1935"/>
</g>
<!-- Node25 -->
<g id="node25" class="node"><title>Node25</title>
<polygon fill="none" stroke="#bfbfbf" points="1247.5,-56.5 1247.5,-75.5 1330.5,-75.5 1330.5,-56.5 1247.5,-56.5"/>
<text text-anchor="middle" x="1289" y="-63.5" font-family="Helvetica,sans-Serif" font-size="10.00">unordered_map</text>
</g>
<!-- Node18&#45;&gt;Node25 -->
<g id="edge37" class="edge"><title>Node18&#45;&gt;Node25</title>
<path fill="none" stroke="midnightblue" d="M897.028,-113.262C900.062,-112.819 903.072,-112.394 906,-112 1049.94,-92.6429 1089.38,-96.718 1237.38,-75.9957"/>
<polygon fill="midnightblue" stroke="midnightblue" points="1237.88,-79.4604 1247.29,-74.5944 1236.9,-72.5294 1237.88,-79.4604"/>
</g>
<!-- Node26 -->
<g id="node26" class="node"><title>Node26</title>
<polygon fill="none" stroke="#bfbfbf" points="1349,-56.5 1349,-75.5 1393,-75.5 1393,-56.5 1349,-56.5"/>
<text text-anchor="middle" x="1371" y="-63.5" font-family="Helvetica,sans-Serif" font-size="10.00">vector</text>
</g>
<!-- Node18&#45;&gt;Node26 -->
<g id="edge38" class="edge"><title>Node18&#45;&gt;Node26</title>
<path fill="none" stroke="midnightblue" d="M897.017,-113.177C900.053,-112.754 903.068,-112.357 906,-112 1094.42,-89.0608 1147.17,-109.572 1338.63,-75.6639"/>
<polygon fill="midnightblue" stroke="midnightblue" points="1339.52,-79.0599 1348.75,-73.8454 1338.29,-72.1703 1339.52,-79.0599"/>
</g>
<!-- Node27 -->
<g id="node27" class="node"><title>Node27</title>
<g id="a_node27"><a xlink:href="bufArray_8hpp.html" target="_top" xlink:title="bufArray.hpp">
<polygon fill="none" stroke="black" points="775.5,-56.5 775.5,-75.5 846.5,-75.5 846.5,-56.5 775.5,-56.5"/>
<text text-anchor="middle" x="811" y="-63.5" font-family="Helvetica,sans-Serif" font-size="10.00">bufArray.hpp</text>
</a>
</g>
</g>
<!-- Node18&#45;&gt;Node27 -->
<g id="edge39" class="edge"><title>Node18&#45;&gt;Node27</title>
<path fill="none" stroke="midnightblue" d="M843.56,-112.083C838.051,-104.455 829.969,-93.2645 823.235,-83.9408"/>
<polygon fill="midnightblue" stroke="midnightblue" points="826.013,-81.8087 817.32,-75.7511 820.338,-85.9071 826.013,-81.8087"/>
</g>
<!-- Node30 -->
<g id="node30" class="node"><title>Node30</title>
<g id="a_node30"><a xlink:href="spinlock_8hpp.html" target="_top" xlink:title="spinlock.hpp">
<polygon fill="none" stroke="black" points="1411.5,-56.5 1411.5,-75.5 1482.5,-75.5 1482.5,-56.5 1411.5,-56.5"/>
<text text-anchor="middle" x="1447" y="-63.5" font-family="Helvetica,sans-Serif" font-size="10.00">spinlock.hpp</text>
</a>
</g>
</g>
<!-- Node18&#45;&gt;Node30 -->
<g id="edge45" class="edge"><title>Node18&#45;&gt;Node30</title>
<path fill="none" stroke="midnightblue" d="M897.013,-113.141C900.05,-112.727 903.066,-112.342 906,-112 1122.33,-86.8144 1181.27,-105.176 1401.29,-75.9149"/>
<polygon fill="midnightblue" stroke="midnightblue" points="1401.76,-79.3822 1411.21,-74.578 1400.83,-72.445 1401.76,-79.3822"/>
</g>
<!-- Node27&#45;&gt;Node5 -->
<g id="edge40" class="edge"><title>Node27&#45;&gt;Node5</title>
<path fill="none" stroke="midnightblue" d="M800.717,-56.324C791.164,-48.2631 776.72,-36.0765 765.216,-26.3695"/>
<polygon fill="midnightblue" stroke="midnightblue" points="767.37,-23.6076 757.47,-19.8339 762.856,-28.9577 767.37,-23.6076"/>
</g>
<!-- Node28 -->
<g id="node28" class="node"><title>Node28</title>
<polygon fill="none" stroke="#bfbfbf" points="848.5,-0.5 848.5,-19.5 895.5,-19.5 895.5,-0.5 848.5,-0.5"/>
<text text-anchor="middle" x="872" y="-7.5" font-family="Helvetica,sans-Serif" font-size="10.00">iterator</text>
</g>
<!-- Node27&#45;&gt;Node28 -->
<g id="edge41" class="edge"><title>Node27&#45;&gt;Node28</title>
<path fill="none" stroke="midnightblue" d="M820.801,-56.324C829.818,-48.3414 843.406,-36.3128 854.318,-26.6529"/>
<polygon fill="midnightblue" stroke="midnightblue" points="856.853,-29.083 862.021,-19.8339 852.213,-23.8416 856.853,-29.083"/>
</g>
<!-- Node29 -->
<g id="node29" class="node"><title>Node29</title>
<polygon fill="none" stroke="#bfbfbf" points="790,-0.5 790,-19.5 830,-19.5 830,-0.5 790,-0.5"/>
<text text-anchor="middle" x="810" y="-7.5" font-family="Helvetica,sans-Serif" font-size="10.00">utility</text>
</g>
<!-- Node27&#45;&gt;Node29 -->
<g id="edge42" class="edge"><title>Node27&#45;&gt;Node29</title>
<path fill="none" stroke="midnightblue" d="M810.835,-56.083C810.704,-49.0059 810.516,-38.8611 810.352,-29.9865"/>
<polygon fill="midnightblue" stroke="midnightblue" points="813.847,-29.6845 810.162,-19.7511 806.848,-29.8142 813.847,-29.6845"/>
</g>
<!-- Node31 -->
<g id="node31" class="node"><title>Node31</title>
<polygon fill="none" stroke="#bfbfbf" points="1424,-0.5 1424,-19.5 1470,-19.5 1470,-0.5 1424,-0.5"/>
<text text-anchor="middle" x="1447" y="-7.5" font-family="Helvetica,sans-Serif" font-size="10.00">atomic</text>
</g>
<!-- Node30&#45;&gt;Node31 -->
<g id="edge46" class="edge"><title>Node30&#45;&gt;Node31</title>
<path fill="none" stroke="midnightblue" d="M1447,-56.083C1447,-49.0059 1447,-38.8611 1447,-29.9865"/>
<polygon fill="midnightblue" stroke="midnightblue" points="1450.5,-29.751 1447,-19.7511 1443.5,-29.7511 1450.5,-29.751"/>
</g>
<!-- Node32&#45;&gt;Node5 -->
<g id="edge49" class="edge"><title>Node32&#45;&gt;Node5</title>
<path fill="none" stroke="midnightblue" d="M1549.17,-168.446C1549.11,-145.73 1545.45,-83.7339 1509,-56 1444.55,-6.95711 861.028,-32.4301 781,-20 780.781,-19.966 780.562,-19.9312 780.342,-19.8956"/>
<polygon fill="midnightblue" stroke="midnightblue" points="780.772,-16.4114 770.275,-17.8479 779.376,-23.2709 780.772,-16.4114"/>
</g>
<!-- Node33 -->
<g id="node33" class="node"><title>Node33</title>
<polygon fill="none" stroke="#bfbfbf" points="1577.5,-112.5 1577.5,-131.5 1640.5,-131.5 1640.5,-112.5 1577.5,-112.5"/>
<text text-anchor="middle" x="1609" y="-119.5" font-family="Helvetica,sans-Serif" font-size="10.00">rte_mbuf.h</text>
</g>
<!-- Node32&#45;&gt;Node33 -->
<g id="edge50" class="edge"><title>Node32&#45;&gt;Node33</title>
<path fill="none" stroke="midnightblue" d="M1558.64,-168.324C1567.51,-160.341 1580.87,-148.313 1591.61,-138.653"/>
<polygon fill="midnightblue" stroke="midnightblue" points="1594.09,-141.125 1599.18,-131.834 1589.41,-135.922 1594.09,-141.125"/>
</g>
<!-- Node34&#45;&gt;Node2 -->
<g id="edge53" class="edge"><title>Node34&#45;&gt;Node2</title>
<path fill="none" stroke="midnightblue" d="M938,-168.083C938,-161.006 938,-150.861 938,-141.986"/>
<polygon fill="midnightblue" stroke="midnightblue" points="941.5,-141.751 938,-131.751 934.5,-141.751 941.5,-141.751"/>
</g>
<!-- Node34&#45;&gt;Node5 -->
<g id="edge52" class="edge"><title>Node34&#45;&gt;Node5</title>
<path fill="none" stroke="midnightblue" d="M987.229,-174.229C1135.42,-165.014 1562.86,-131.594 1491,-56 1436.58,1.25128 859.047,-32.1723 781,-20 780.781,-19.9659 780.562,-19.9309 780.342,-19.8952"/>
<polygon fill="midnightblue" stroke="midnightblue" points="780.773,-16.4111 770.275,-17.844 779.375,-23.2702 780.773,-16.4111"/>
</g>
</g>
</svg>
