<?xml version="1.0" encoding="UTF-8" standalone="no"?>
<!DOCTYPE svg PUBLIC "-//W3C//DTD SVG 1.1//EN"
 "http://www.w3.org/Graphics/SVG/1.1/DTD/svg11.dtd">
<!-- Generated by graphviz version 2.40.1 (20161225.0304)
 -->
<!-- Title: /home/dominik/uni/MoonState/include/helloBye3.hpp Pages: 1 -->
<svg width="1620pt" height="263pt"
 viewBox="0.00 0.00 1620.00 263.00" xmlns="http://www.w3.org/2000/svg" xmlns:xlink="http://www.w3.org/1999/xlink">
<g id="graph0" class="graph" transform="scale(1 1) rotate(0) translate(4 259)">
<title>/home/dominik/uni/MoonState/include/helloBye3.hpp</title>
<!-- Node0 -->
<g id="node1" class="node">
<title>Node0</title>
<polygon fill="#bfbfbf" stroke="#000000" points="1200.5,-224.5 1200.5,-254.5 1347.5,-254.5 1347.5,-224.5 1200.5,-224.5"/>
<text text-anchor="start" x="1208.5" y="-242.5" font-family="Helvetica,sans-Serif" font-size="10.00" fill="#000000">/home/dominik/uni/MoonState</text>
<text text-anchor="middle" x="1274" y="-231.5" font-family="Helvetica,sans-Serif" font-size="10.00" fill="#000000">/include/helloBye3.hpp</text>
</g>
<!-- Node1 -->
<g id="node2" class="node">
<title>Node1</title>
<polygon fill="none" stroke="#bfbfbf" points="0,-56.5 0,-75.5 44,-75.5 44,-56.5 0,-56.5"/>
<text text-anchor="middle" x="22" y="-63.5" font-family="Helvetica,sans-Serif" font-size="10.00" fill="#000000">mutex</text>
</g>
<!-- Node0&#45;&gt;Node1 -->
<g id="edge1" class="edge">
<title>Node0&#45;&gt;Node1</title>
<path fill="none" stroke="#191970" d="M1200.3592,-231.6776C1111.6936,-222.1062 958.3055,-205.0605 827,-188 485.5964,-143.6415 393.348,-154.3111 54.0784,-75.949"/>
<polygon fill="#191970" stroke="#191970" points="54.7575,-72.5137 44.2253,-73.6643 53.1762,-79.3327 54.7575,-72.5137"/>
</g>
<!-- Node2 -->
<g id="node3" class="node">
<title>Node2</title>
<polygon fill="none" stroke="#bfbfbf" points="1560,-.5 1560,-19.5 1612,-19.5 1612,-.5 1560,-.5"/>
<text text-anchor="middle" x="1586" y="-7.5" font-family="Helvetica,sans-Serif" font-size="10.00" fill="#000000">sstream</text>
</g>
<!-- Node0&#45;&gt;Node2 -->
<g id="edge2" class="edge">
<title>Node0&#45;&gt;Node2</title>
<path fill="none" stroke="#191970" d="M1347.753,-232.2091C1415.5101,-221.5812 1513.9553,-195.5576 1572,-132 1595.979,-105.7435 1601.1636,-91.3137 1597,-56 1595.9571,-47.1546 1593.8232,-37.5467 1591.71,-29.4104"/>
<polygon fill="#191970" stroke="#191970" points="1595.0772,-28.4548 1589.0375,-19.7501 1588.3306,-30.3213 1595.0772,-28.4548"/>
</g>
<!-- Node3 -->
<g id="node4" class="node">
<title>Node3</title>
<g id="a_node4"><a xlink:href="common_8hpp.html" target="_top" xlink:title="common.hpp">
<polygon fill="none" stroke="#000000" points="998.5,-56.5 998.5,-75.5 1071.5,-75.5 1071.5,-56.5 998.5,-56.5"/>
<text text-anchor="middle" x="1035" y="-63.5" font-family="Helvetica,sans-Serif" font-size="10.00" fill="#000000">common.hpp</text>
</a>
</g>
</g>
<!-- Node0&#45;&gt;Node3 -->
<g id="edge3" class="edge">
<title>Node0&#45;&gt;Node3</title>
<path fill="none" stroke="#191970" d="M1226.6213,-224.4422C1181.1066,-207.9446 1112.8191,-177.6023 1068,-132 1055.1196,-118.8945 1046.313,-99.7551 1041.0588,-85.4578"/>
<polygon fill="#191970" stroke="#191970" points="1044.2567,-83.9902 1037.7247,-75.6485 1037.6291,-86.2429 1044.2567,-83.9902"/>
</g>
<!-- Node6 -->
<g id="node7" class="node">
<title>Node6</title>
<g id="a_node7"><a xlink:href="exceptions_8hpp.html" target="_top" xlink:title="exceptions.hpp">
<polygon fill="none" stroke="#000000" points="897.5,-56.5 897.5,-75.5 980.5,-75.5 980.5,-56.5 897.5,-56.5"/>
<text text-anchor="middle" x="939" y="-63.5" font-family="Helvetica,sans-Serif" font-size="10.00" fill="#000000">exceptions.hpp</text>
</a>
</g>
</g>
<!-- Node0&#45;&gt;Node6 -->
<g id="edge6" class="edge">
<title>Node0&#45;&gt;Node6</title>
<path fill="none" stroke="#191970" d="M1209.0803,-224.4036C1177.9043,-215.8728 1140.5557,-203.7329 1109,-188 1049.2284,-158.1994 987.6285,-108.2789 957.6547,-82.5077"/>
<polygon fill="#191970" stroke="#191970" points="959.5787,-79.5427 949.735,-75.6244 954.9867,-84.8261 959.5787,-79.5427"/>
</g>
<!-- Node9 -->
<g id="node10" class="node">
<title>Node9</title>
<g id="a_node10"><a xlink:href="headers_8hpp.html" target="_top" xlink:title="headers.hpp">
<polygon fill="none" stroke="#000000" points="1400,-56.5 1400,-75.5 1470,-75.5 1470,-56.5 1400,-56.5"/>
<text text-anchor="middle" x="1435" y="-63.5" font-family="Helvetica,sans-Serif" font-size="10.00" fill="#000000">headers.hpp</text>
</a>
</g>
</g>
<!-- Node0&#45;&gt;Node9 -->
<g id="edge9" class="edge">
<title>Node0&#45;&gt;Node9</title>
<path fill="none" stroke="#191970" d="M1288.006,-224.4065C1317.7687,-192.3331 1387.1674,-117.5463 1418.7861,-83.4728"/>
<polygon fill="#191970" stroke="#191970" points="1421.7271,-85.449 1425.9636,-75.738 1416.5959,-80.6875 1421.7271,-85.449"/>
</g>
<!-- Node14 -->
<g id="node15" class="node">
<title>Node14</title>
<g id="a_node15"><a xlink:href="mbuf_8hpp.html" target="_top" xlink:title="mbuf.hpp">
<polygon fill="none" stroke="#000000" points="1245.5,-112.5 1245.5,-131.5 1302.5,-131.5 1302.5,-112.5 1245.5,-112.5"/>
<text text-anchor="middle" x="1274" y="-119.5" font-family="Helvetica,sans-Serif" font-size="10.00" fill="#000000">mbuf.hpp</text>
</a>
</g>
</g>
<!-- Node0&#45;&gt;Node14 -->
<g id="edge16" class="edge">
<title>Node0&#45;&gt;Node14</title>
<path fill="none" stroke="#191970" d="M1274,-224.1389C1274,-202.9692 1274,-164.8174 1274,-141.6112"/>
<polygon fill="#191970" stroke="#191970" points="1277.5001,-141.5594 1274,-131.5595 1270.5001,-141.5595 1277.5001,-141.5594"/>
</g>
<!-- Node16 -->
<g id="node17" class="node">
<title>Node16</title>
<g id="a_node17"><a xlink:href="stateMachine_8hpp.html" target="_top" xlink:title="stateMachine.hpp">
<polygon fill="none" stroke="#000000" points="476,-112.5 476,-131.5 570,-131.5 570,-112.5 476,-112.5"/>
<text text-anchor="middle" x="523" y="-119.5" font-family="Helvetica,sans-Serif" font-size="10.00" fill="#000000">stateMachine.hpp</text>
</a>
</g>
</g>
<!-- Node0&#45;&gt;Node16 -->
<g id="edge19" class="edge">
<title>Node0&#45;&gt;Node16</title>
<path fill="none" stroke="#191970" d="M1200.2801,-227.9659C1050.8034,-204.5791 714.8351,-152.0142 580.3,-130.9651"/>
<polygon fill="#191970" stroke="#191970" points="580.6231,-127.4731 570.2023,-129.3852 579.541,-134.389 580.6231,-127.4731"/>
</g>
<!-- Node29 -->
<g id="node30" class="node">
<title>Node29</title>
<g id="a_node30"><a xlink:href="helloBye3_8cpp.html" target="_top" xlink:title="../src/helloBye3.cpp">
<polygon fill="none" stroke="#000000" points="1359,-168.5 1359,-187.5 1463,-187.5 1463,-168.5 1359,-168.5"/>
<text text-anchor="middle" x="1411" y="-175.5" font-family="Helvetica,sans-Serif" font-size="10.00" fill="#000000">../src/helloBye3.cpp</text>
</a>
</g>
</g>
<!-- Node0&#45;&gt;Node29 -->
<g id="edge42" class="edge">
<title>Node0&#45;&gt;Node29</title>
<path fill="none" stroke="#191970" d="M1301.6169,-224.4554C1322.8741,-214.374 1352.2569,-201.2139 1375.285,-191.4755"/>
<polygon fill="#191970" stroke="#191970" points="1376.8464,-194.6164 1384.7228,-187.5303 1374.1466,-188.1579 1376.8464,-194.6164"/>
</g>
<!-- Node4 -->
<g id="node5" class="node">
<title>Node4</title>
<polygon fill="none" stroke="#bfbfbf" points="1256,-.5 1256,-19.5 1294,-19.5 1294,-.5 1256,-.5"/>
<text text-anchor="middle" x="1275" y="-7.5" font-family="Helvetica,sans-Serif" font-size="10.00" fill="#000000">array</text>
</g>
<!-- Node3&#45;&gt;Node4 -->
<g id="edge4" class="edge">
<title>Node3&#45;&gt;Node4</title>
<path fill="none" stroke="#191970" d="M1071.7121,-57.4338C1119.5077,-46.2815 1202.0877,-27.0129 1245.8388,-16.8043"/>
<polygon fill="#191970" stroke="#191970" points="1246.8847,-20.1543 1255.8278,-14.4735 1245.294,-13.3374 1246.8847,-20.1543"/>
</g>
<!-- Node5 -->
<g id="node6" class="node">
<title>Node5</title>
<polygon fill="none" stroke="#bfbfbf" points="625.5,-.5 625.5,-19.5 674.5,-19.5 674.5,-.5 625.5,-.5"/>
<text text-anchor="middle" x="650" y="-7.5" font-family="Helvetica,sans-Serif" font-size="10.00" fill="#000000">cassert</text>
</g>
<!-- Node3&#45;&gt;Node5 -->
<g id="edge5" class="edge">
<title>Node3&#45;&gt;Node5</title>
<path fill="none" stroke="#191970" d="M998.2138,-57.5606C995.4397,-57.0054 992.6787,-56.478 990,-56 879.1349,-36.2182 746.5805,-20.5658 684.841,-13.7329"/>
<polygon fill="#191970" stroke="#191970" points="685.177,-10.2488 674.8548,-12.6364 684.413,-17.207 685.177,-10.2488"/>
</g>
<!-- Node7 -->
<g id="node8" class="node">
<title>Node7</title>
<polygon fill="none" stroke="#bfbfbf" points="1035.5,-.5 1035.5,-19.5 1094.5,-19.5 1094.5,-.5 1035.5,-.5"/>
<text text-anchor="middle" x="1065" y="-7.5" font-family="Helvetica,sans-Serif" font-size="10.00" fill="#000000">exception</text>
</g>
<!-- Node6&#45;&gt;Node7 -->
<g id="edge7" class="edge">
<title>Node6&#45;&gt;Node7</title>
<path fill="none" stroke="#191970" d="M960.6602,-56.3733C980.9772,-47.3435 1011.564,-33.7494 1034.375,-23.6111"/>
<polygon fill="#191970" stroke="#191970" points="1035.9059,-26.7609 1043.6225,-19.5011 1033.0628,-20.3642 1035.9059,-26.7609"/>
</g>
<!-- Node8 -->
<g id="node9" class="node">
<title>Node8</title>
<polygon fill="none" stroke="#bfbfbf" points="801.5,-.5 801.5,-19.5 860.5,-19.5 860.5,-.5 801.5,-.5"/>
<text text-anchor="middle" x="831" y="-7.5" font-family="Helvetica,sans-Serif" font-size="10.00" fill="#000000">stdexcept</text>
</g>
<!-- Node6&#45;&gt;Node8 -->
<g id="edge8" class="edge">
<title>Node6&#45;&gt;Node8</title>
<path fill="none" stroke="#191970" d="M920.1878,-56.2455C903.1527,-47.4125 877.8425,-34.2887 858.5319,-24.2758"/>
<polygon fill="#191970" stroke="#191970" points="860.0853,-21.1388 849.5966,-19.6427 856.863,-27.353 860.0853,-21.1388"/>
</g>
<!-- Node9&#45;&gt;Node2 -->
<g id="edge13" class="edge">
<title>Node9&#45;&gt;Node2</title>
<path fill="none" stroke="#191970" d="M1460.9578,-56.3733C1485.7407,-47.1822 1523.2746,-33.2624 1550.754,-23.0713"/>
<polygon fill="#191970" stroke="#191970" points="1552.2219,-26.26 1560.3809,-19.5011 1549.7879,-19.6968 1552.2219,-26.26"/>
</g>
<!-- Node9&#45;&gt;Node4 -->
<g id="edge10" class="edge">
<title>Node9&#45;&gt;Node4</title>
<path fill="none" stroke="#191970" d="M1407.495,-56.3733C1378.5622,-46.2468 1333.2282,-30.3799 1303.8125,-20.0844"/>
<polygon fill="#191970" stroke="#191970" points="1304.7195,-16.6937 1294.1247,-16.6936 1302.407,-23.3007 1304.7195,-16.6937"/>
</g>
<!-- Node10 -->
<g id="node11" class="node">
<title>Node10</title>
<polygon fill="none" stroke="#bfbfbf" points="1157,-.5 1157,-19.5 1203,-19.5 1203,-.5 1157,-.5"/>
<text text-anchor="middle" x="1180" y="-7.5" font-family="Helvetica,sans-Serif" font-size="10.00" fill="#000000">cstdint</text>
</g>
<!-- Node9&#45;&gt;Node10 -->
<g id="edge11" class="edge">
<title>Node9&#45;&gt;Node10</title>
<path fill="none" stroke="#191970" d="M1399.8111,-58.2722C1350.4235,-47.4263 1261.2075,-27.8338 1213.0188,-17.2512"/>
<polygon fill="#191970" stroke="#191970" points="1213.6238,-13.8007 1203.1058,-15.0742 1212.1222,-20.6378 1213.6238,-13.8007"/>
</g>
<!-- Node11 -->
<g id="node12" class="node">
<title>Node11</title>
<polygon fill="none" stroke="#bfbfbf" points="1479,-.5 1479,-19.5 1525,-19.5 1525,-.5 1479,-.5"/>
<text text-anchor="middle" x="1502" y="-7.5" font-family="Helvetica,sans-Serif" font-size="10.00" fill="#000000">cstring</text>
</g>
<!-- Node9&#45;&gt;Node11 -->
<g id="edge12" class="edge">
<title>Node9&#45;&gt;Node11</title>
<path fill="none" stroke="#191970" d="M1446.6705,-56.2455C1456.5661,-47.9746 1470.9627,-35.9416 1482.5901,-26.2232"/>
<polygon fill="#191970" stroke="#191970" points="1485.035,-28.7413 1490.4632,-19.6427 1480.5458,-23.3703 1485.035,-28.7413"/>
</g>
<!-- Node12 -->
<g id="node13" class="node">
<title>Node12</title>
<polygon fill="none" stroke="#bfbfbf" points="1330.5,-.5 1330.5,-19.5 1371.5,-19.5 1371.5,-.5 1330.5,-.5"/>
<text text-anchor="middle" x="1351" y="-7.5" font-family="Helvetica,sans-Serif" font-size="10.00" fill="#000000">string</text>
</g>
<!-- Node9&#45;&gt;Node12 -->
<g id="edge14" class="edge">
<title>Node9&#45;&gt;Node12</title>
<path fill="none" stroke="#191970" d="M1420.3683,-56.2455C1407.6006,-47.7337 1388.8562,-35.2375 1374.0701,-25.3801"/>
<polygon fill="#191970" stroke="#191970" points="1375.726,-22.2775 1365.464,-19.6427 1371.8431,-28.1019 1375.726,-22.2775"/>
</g>
<!-- Node13 -->
<g id="node14" class="node">
<title>Node13</title>
<polygon fill="none" stroke="#bfbfbf" points="1399,-.5 1399,-19.5 1461,-19.5 1461,-.5 1399,-.5"/>
<text text-anchor="middle" x="1430" y="-7.5" font-family="Helvetica,sans-Serif" font-size="10.00" fill="#000000">arpa/inet.h</text>
</g>
<!-- Node9&#45;&gt;Node13 -->
<g id="edge15" class="edge">
<title>Node9&#45;&gt;Node13</title>
<path fill="none" stroke="#191970" d="M1434.1291,-56.2455C1433.4766,-48.9382 1432.562,-38.6944 1431.7593,-29.7046"/>
<polygon fill="#191970" stroke="#191970" points="1435.2365,-29.2918 1430.861,-19.6427 1428.2642,-29.9143 1435.2365,-29.2918"/>
</g>
<!-- Node14&#45;&gt;Node10 -->
<g id="edge17" class="edge">
<title>Node14&#45;&gt;Node10</title>
<path fill="none" stroke="#191970" d="M1287.5574,-112.3484C1304.2571,-99.2615 1328.8175,-75.3058 1315,-56 1302.9659,-39.1859 1249.1748,-24.7321 1213.233,-16.7154"/>
<polygon fill="#191970" stroke="#191970" points="1213.683,-13.2317 1203.1684,-14.5334 1212.1998,-20.0728 1213.683,-13.2317"/>
</g>
<!-- Node15 -->
<g id="node16" class="node">
<title>Node15</title>
<polygon fill="none" stroke="#bfbfbf" points="1242.5,-56.5 1242.5,-75.5 1305.5,-75.5 1305.5,-56.5 1242.5,-56.5"/>
<text text-anchor="middle" x="1274" y="-63.5" font-family="Helvetica,sans-Serif" font-size="10.00" fill="#000000">rte_mbuf.h</text>
</g>
<!-- Node14&#45;&gt;Node15 -->
<g id="edge18" class="edge">
<title>Node14&#45;&gt;Node15</title>
<path fill="none" stroke="#191970" d="M1274,-112.2455C1274,-104.9382 1274,-94.6944 1274,-85.7046"/>
<polygon fill="#191970" stroke="#191970" points="1277.5001,-85.6426 1274,-75.6427 1270.5001,-85.6427 1277.5001,-85.6426"/>
</g>
<!-- Node16&#45;&gt;Node1 -->
<g id="edge27" class="edge">
<title>Node16&#45;&gt;Node1</title>
<path fill="none" stroke="#191970" d="M475.8018,-120.7212C392.2875,-117.7365 213.0667,-108.0875 54.1515,-75.8456"/>
<polygon fill="#191970" stroke="#191970" points="54.6987,-72.3848 44.1976,-73.7905 53.2833,-79.2402 54.6987,-72.3848"/>
</g>
<!-- Node16&#45;&gt;Node3 -->
<g id="edge38" class="edge">
<title>Node16&#45;&gt;Node3</title>
<path fill="none" stroke="#191970" d="M570.3042,-119.2312C653.1713,-113.9696 830.1001,-100.9067 988.32,-76.1214"/>
<polygon fill="#191970" stroke="#191970" points="988.9042,-79.5726 998.2324,-74.5492 987.8075,-72.6591 988.9042,-79.5726"/>
</g>
<!-- Node16&#45;&gt;Node5 -->
<g id="edge20" class="edge">
<title>Node16&#45;&gt;Node5</title>
<path fill="none" stroke="#191970" d="M475.7767,-118.2095C394.5616,-111.2084 235.5113,-95.1977 219,-76 213.2038,-69.2608 213.0051,-62.5631 219,-56 247.3547,-24.9578 540.3803,-27.8788 615.1951,-19.3589"/>
<polygon fill="#191970" stroke="#191970" points="615.8673,-22.7978 625.2549,-17.8863 614.8534,-15.8717 615.8673,-22.7978"/>
</g>
<!-- Node16&#45;&gt;Node6 -->
<g id="edge39" class="edge">
<title>Node16&#45;&gt;Node6</title>
<path fill="none" stroke="#191970" d="M570.2441,-117.1677C638.2132,-109.9726 767.7311,-95.3566 887.245,-76.201"/>
<polygon fill="#191970" stroke="#191970" points="887.9863,-79.6267 897.2992,-74.5748 886.8686,-72.7165 887.9863,-79.6267"/>
</g>
<!-- Node16&#45;&gt;Node8 -->
<g id="edge29" class="edge">
<title>Node16&#45;&gt;Node8</title>
<path fill="none" stroke="#191970" d="M555.6372,-112.4703C584.2604,-103.8309 626.8349,-90.2943 663,-76 682.6016,-68.2524 686.5376,-64.0909 706,-56 735.0295,-43.9318 768.4798,-31.7082 793.4681,-22.8978"/>
<polygon fill="#191970" stroke="#191970" points="794.6619,-26.1882 802.9418,-19.578 792.347,-19.5821 794.6619,-26.1882"/>
</g>
<!-- Node16&#45;&gt;Node10 -->
<g id="edge22" class="edge">
<title>Node16&#45;&gt;Node10</title>
<path fill="none" stroke="#191970" d="M569.0859,-112.4957C604.8256,-104.504 655.2969,-91.8518 698,-76 717.0073,-68.9443 719.4931,-61.5266 739,-56 895.8365,-11.5662 942.0593,-38.6351 1104,-20 1117.9791,-18.3914 1133.3755,-16.4057 1146.6339,-14.6288"/>
<polygon fill="#191970" stroke="#191970" points="1147.3009,-18.0705 1156.7405,-13.2597 1146.3611,-11.1338 1147.3009,-18.0705"/>
</g>
<!-- Node17 -->
<g id="node18" class="node">
<title>Node17</title>
<polygon fill="none" stroke="#bfbfbf" points="228,-56.5 228,-75.5 274,-75.5 274,-56.5 228,-56.5"/>
<text text-anchor="middle" x="251" y="-63.5" font-family="Helvetica,sans-Serif" font-size="10.00" fill="#000000">chrono</text>
</g>
<!-- Node16&#45;&gt;Node17 -->
<g id="edge21" class="edge">
<title>Node16&#45;&gt;Node17</title>
<path fill="none" stroke="#191970" d="M475.7464,-114.573C429.2781,-106.9064 356.181,-93.8796 284.4424,-76.1587"/>
<polygon fill="#191970" stroke="#191970" points="284.8824,-72.6609 274.3317,-73.6272 283.1822,-79.4513 284.8824,-72.6609"/>
</g>
<!-- Node18 -->
<g id="node19" class="node">
<title>Node18</title>
<polygon fill="none" stroke="#bfbfbf" points="820.5,-56.5 820.5,-75.5 879.5,-75.5 879.5,-56.5 820.5,-56.5"/>
<text text-anchor="middle" x="850" y="-63.5" font-family="Helvetica,sans-Serif" font-size="10.00" fill="#000000">functional</text>
</g>
<!-- Node16&#45;&gt;Node18 -->
<g id="edge23" class="edge">
<title>Node16&#45;&gt;Node18</title>
<path fill="none" stroke="#191970" d="M570.1345,-115.8378C625.3599,-108.3148 719.7863,-94.511 810.3711,-75.9742"/>
<polygon fill="#191970" stroke="#191970" points="811.1722,-79.3827 820.2557,-73.9291 809.754,-72.5278 811.1722,-79.3827"/>
</g>
<!-- Node19 -->
<g id="node20" class="node">
<title>Node19</title>
<polygon fill="none" stroke="#bfbfbf" points="748,-56.5 748,-75.5 802,-75.5 802,-56.5 748,-56.5"/>
<text text-anchor="middle" x="775" y="-63.5" font-family="Helvetica,sans-Serif" font-size="10.00" fill="#000000">iostream</text>
</g>
<!-- Node16&#45;&gt;Node19 -->
<g id="edge24" class="edge">
<title>Node16&#45;&gt;Node19</title>
<path fill="none" stroke="#191970" d="M568.3478,-112.4505C611.1255,-103.3626 677.0116,-89.1597 734,-76 735.2448,-75.7125 736.5103,-75.4178 737.7879,-75.1182"/>
<polygon fill="#191970" stroke="#191970" points="738.7581,-78.4852 747.6751,-72.7636 737.1363,-71.6756 738.7581,-78.4852"/>
</g>
<!-- Node20 -->
<g id="node21" class="node">
<title>Node20</title>
<polygon fill="none" stroke="#bfbfbf" points="292,-56.5 292,-75.5 332,-75.5 332,-56.5 292,-56.5"/>
<text text-anchor="middle" x="312" y="-63.5" font-family="Helvetica,sans-Serif" font-size="10.00" fill="#000000">limits</text>
</g>
<!-- Node16&#45;&gt;Node20 -->
<g id="edge25" class="edge">
<title>Node16&#45;&gt;Node20</title>
<path fill="none" stroke="#191970" d="M481.1633,-112.4876C446.2688,-104.3168 395.0654,-91.7806 342.1147,-76.1646"/>
<polygon fill="#191970" stroke="#191970" points="342.794,-72.715 332.2109,-73.2132 340.7948,-79.4234 342.794,-72.715"/>
</g>
<!-- Node21 -->
<g id="node22" class="node">
<title>Node21</title>
<polygon fill="none" stroke="#bfbfbf" points="350,-56.5 350,-75.5 402,-75.5 402,-56.5 350,-56.5"/>
<text text-anchor="middle" x="376" y="-63.5" font-family="Helvetica,sans-Serif" font-size="10.00" fill="#000000">memory</text>
</g>
<!-- Node16&#45;&gt;Node21 -->
<g id="edge26" class="edge">
<title>Node16&#45;&gt;Node21</title>
<path fill="none" stroke="#191970" d="M497.7298,-112.3733C473.6034,-103.1822 437.0638,-89.2624 410.3123,-79.0713"/>
<polygon fill="#191970" stroke="#191970" points="411.5313,-75.7904 400.9404,-75.5011 409.0393,-82.3318 411.5313,-75.7904"/>
</g>
<!-- Node22 -->
<g id="node23" class="node">
<title>Node22</title>
<polygon fill="none" stroke="#bfbfbf" points="420.5,-56.5 420.5,-75.5 463.5,-75.5 463.5,-56.5 420.5,-56.5"/>
<text text-anchor="middle" x="442" y="-63.5" font-family="Helvetica,sans-Serif" font-size="10.00" fill="#000000">queue</text>
</g>
<!-- Node16&#45;&gt;Node22 -->
<g id="edge28" class="edge">
<title>Node16&#45;&gt;Node22</title>
<path fill="none" stroke="#191970" d="M508.8909,-112.2455C496.5791,-103.7337 478.5042,-91.2375 464.2462,-81.3801"/>
<polygon fill="#191970" stroke="#191970" points="466.1634,-78.4506 455.9474,-75.6427 462.1826,-84.2085 466.1634,-78.4506"/>
</g>
<!-- Node23 -->
<g id="node24" class="node">
<title>Node23</title>
<polygon fill="none" stroke="#bfbfbf" points="481.5,-56.5 481.5,-75.5 564.5,-75.5 564.5,-56.5 481.5,-56.5"/>
<text text-anchor="middle" x="523" y="-63.5" font-family="Helvetica,sans-Serif" font-size="10.00" fill="#000000">unordered_map</text>
</g>
<!-- Node16&#45;&gt;Node23 -->
<g id="edge30" class="edge">
<title>Node16&#45;&gt;Node23</title>
<path fill="none" stroke="#191970" d="M523,-112.2455C523,-104.9382 523,-94.6944 523,-85.7046"/>
<polygon fill="#191970" stroke="#191970" points="526.5001,-85.6426 523,-75.6427 519.5001,-85.6427 526.5001,-85.6426"/>
</g>
<!-- Node24 -->
<g id="node25" class="node">
<title>Node24</title>
<polygon fill="none" stroke="#bfbfbf" points="307,-.5 307,-19.5 351,-19.5 351,-.5 307,-.5"/>
<text text-anchor="middle" x="329" y="-7.5" font-family="Helvetica,sans-Serif" font-size="10.00" fill="#000000">vector</text>
</g>
<!-- Node16&#45;&gt;Node24 -->
<g id="edge31" class="edge">
<title>Node16&#45;&gt;Node24</title>
<path fill="none" stroke="#191970" d="M475.8506,-118.4099C392.9204,-111.6138 228.063,-95.7632 211,-76 183.3077,-43.9255 253.3515,-24.2671 297.0584,-15.4636"/>
<polygon fill="#191970" stroke="#191970" points="297.8379,-18.878 306.9984,-13.5548 296.5178,-12.0036 297.8379,-18.878"/>
</g>
<!-- Node25 -->
<g id="node26" class="node">
<title>Node25</title>
<g id="a_node26"><a xlink:href="bufArray_8hpp.html" target="_top" xlink:title="bufArray.hpp">
<polygon fill="none" stroke="#000000" points="582.5,-56.5 582.5,-75.5 653.5,-75.5 653.5,-56.5 582.5,-56.5"/>
<text text-anchor="middle" x="618" y="-63.5" font-family="Helvetica,sans-Serif" font-size="10.00" fill="#000000">bufArray.hpp</text>
</a>
</g>
</g>
<!-- Node16&#45;&gt;Node25 -->
<g id="edge32" class="edge">
<title>Node16&#45;&gt;Node25</title>
<path fill="none" stroke="#191970" d="M539.5477,-112.2455C554.2599,-103.5731 575.9888,-90.7645 592.8505,-80.825"/>
<polygon fill="#191970" stroke="#191970" points="594.8046,-83.736 601.6419,-75.6427 591.2498,-77.7057 594.8046,-83.736"/>
</g>
<!-- Node27 -->
<g id="node28" class="node">
<title>Node27</title>
<g id="a_node28"><a xlink:href="spinlock_8hpp.html" target="_top" xlink:title="spinlock.hpp">
<polygon fill="none" stroke="#000000" points="62.5,-56.5 62.5,-75.5 133.5,-75.5 133.5,-56.5 62.5,-56.5"/>
<text text-anchor="middle" x="98" y="-63.5" font-family="Helvetica,sans-Serif" font-size="10.00" fill="#000000">spinlock.hpp</text>
</a>
</g>
</g>
<!-- Node16&#45;&gt;Node27 -->
<g id="edge40" class="edge">
<title>Node16&#45;&gt;Node27</title>
<path fill="none" stroke="#191970" d="M475.7758,-117.3609C404.5218,-110.1009 265.3725,-94.9085 148,-76 146.5525,-75.7668 145.083,-75.5219 143.6004,-75.2679"/>
<polygon fill="#191970" stroke="#191970" points="144.1829,-71.8165 133.7201,-73.4839 142.9391,-78.7051 144.1829,-71.8165"/>
</g>
<!-- Node25&#45;&gt;Node5 -->
<g id="edge33" class="edge">
<title>Node25&#45;&gt;Node5</title>
<path fill="none" stroke="#191970" d="M623.574,-56.2455C627.9331,-48.617 634.1211,-37.7881 639.4133,-28.5267"/>
<polygon fill="#191970" stroke="#191970" points="642.5673,-30.0616 644.4899,-19.6427 636.4896,-26.5886 642.5673,-30.0616"/>
</g>
<!-- Node25&#45;&gt;Node8 -->
<g id="edge35" class="edge">
<title>Node25&#45;&gt;Node8</title>
<path fill="none" stroke="#191970" d="M653.6514,-56.6269C691.7825,-46.6018 752.0894,-30.7464 791.6024,-20.3581"/>
<polygon fill="#191970" stroke="#191970" points="792.6386,-23.7046 801.42,-17.7769 790.8587,-16.9347 792.6386,-23.7046"/>
</g>
<!-- Node25&#45;&gt;Node10 -->
<g id="edge34" class="edge">
<title>Node25&#45;&gt;Node10</title>
<path fill="none" stroke="#191970" d="M653.5186,-61.776C669.5433,-59.9187 688.7147,-57.7636 706,-56 882.6937,-37.9718 927.4725,-39.5891 1104,-20 1117.9855,-18.448 1133.383,-16.4722 1146.6405,-14.6873"/>
<polygon fill="#191970" stroke="#191970" points="1147.311,-18.1284 1156.746,-13.3086 1146.3646,-11.1926 1147.311,-18.1284"/>
</g>
<!-- Node25&#45;&gt;Node24 -->
<g id="edge37" class="edge">
<title>Node25&#45;&gt;Node24</title>
<path fill="none" stroke="#191970" d="M582.4836,-57.8067C579.6162,-57.1823 576.7613,-56.5728 574,-56 497.7682,-40.1868 407.6922,-23.8828 360.8727,-15.5865"/>
<polygon fill="#191970" stroke="#191970" points="361.4732,-12.1384 351.0167,-13.8452 360.2553,-19.0317 361.4732,-12.1384"/>
</g>
<!-- Node26 -->
<g id="node27" class="node">
<title>Node26</title>
<polygon fill="none" stroke="#bfbfbf" points="567,-.5 567,-19.5 607,-19.5 607,-.5 567,-.5"/>
<text text-anchor="middle" x="587" y="-7.5" font-family="Helvetica,sans-Serif" font-size="10.00" fill="#000000">utility</text>
</g>
<!-- Node25&#45;&gt;Node26 -->
<g id="edge36" class="edge">
<title>Node25&#45;&gt;Node26</title>
<path fill="none" stroke="#191970" d="M612.6002,-56.2455C608.3773,-48.617 602.3827,-37.7881 597.2559,-28.5267"/>
<polygon fill="#191970" stroke="#191970" points="600.2432,-26.6965 592.3379,-19.6427 594.119,-30.0867 600.2432,-26.6965"/>
</g>
<!-- Node28 -->
<g id="node29" class="node">
<title>Node28</title>
<polygon fill="none" stroke="#bfbfbf" points="75,-.5 75,-19.5 121,-19.5 121,-.5 75,-.5"/>
<text text-anchor="middle" x="98" y="-7.5" font-family="Helvetica,sans-Serif" font-size="10.00" fill="#000000">atomic</text>
</g>
<!-- Node27&#45;&gt;Node28 -->
<g id="edge41" class="edge">
<title>Node27&#45;&gt;Node28</title>
<path fill="none" stroke="#191970" d="M98,-56.2455C98,-48.9382 98,-38.6944 98,-29.7046"/>
<polygon fill="#191970" stroke="#191970" points="101.5001,-29.6426 98,-19.6427 94.5001,-29.6427 101.5001,-29.6426"/>
</g>
<!-- Node29&#45;&gt;Node0 -->
<g id="edge57" class="edge">
<title>Node29&#45;&gt;Node0</title>
<path fill="none" stroke="#191970" d="M1394.8169,-187.5303C1377.0582,-196.274 1348.0457,-209.4853 1322.8495,-220.3992"/>
<polygon fill="#191970" stroke="#191970" points="1321.2166,-217.2913 1313.4111,-224.4554 1323.9805,-223.7226 1321.2166,-217.2913"/>
</g>
<!-- Node29&#45;&gt;Node2 -->
<g id="edge44" class="edge">
<title>Node29&#45;&gt;Node2</title>
<path fill="none" stroke="#191970" d="M1463.2474,-169.9137C1491.1133,-163.45 1524.5872,-152.0137 1549,-132 1571.1685,-113.8262 1572.6005,-103.4076 1581,-76 1585.5835,-61.0442 1586.7062,-43.3324 1586.7527,-30.0241"/>
<polygon fill="#191970" stroke="#191970" points="1590.2458,-29.5817 1586.5765,-19.6426 1583.2468,-29.7006 1590.2458,-29.5817"/>
</g>
<!-- Node29&#45;&gt;Node9 -->
<g id="edge56" class="edge">
<title>Node29&#45;&gt;Node9</title>
<path fill="none" stroke="#191970" d="M1410.3081,-168.4416C1409.6216,-155.4603 1409.2633,-131.6239 1414,-112 1416.2552,-102.6567 1420.4224,-92.8916 1424.4537,-84.7744"/>
<polygon fill="#191970" stroke="#191970" points="1427.6016,-86.3082 1429.166,-75.8295 1421.4085,-83.0456 1427.6016,-86.3082"/>
</g>
<!-- Node29&#45;&gt;Node14 -->
<g id="edge58" class="edge">
<title>Node29&#45;&gt;Node14</title>
<path fill="none" stroke="#191970" d="M1387.4489,-168.3733C1365.1609,-159.2629 1331.5063,-145.5062 1306.6363,-135.3404"/>
<polygon fill="#191970" stroke="#191970" points="1307.8247,-132.0451 1297.2438,-131.5011 1305.1761,-138.5247 1307.8247,-132.0451"/>
</g>
<!-- Node30 -->
<g id="node31" class="node">
<title>Node30</title>
<polygon fill="none" stroke="#bfbfbf" points="1526.5,-56.5 1526.5,-75.5 1571.5,-75.5 1571.5,-56.5 1526.5,-56.5"/>
<text text-anchor="middle" x="1549" y="-63.5" font-family="Helvetica,sans-Serif" font-size="10.00" fill="#000000">cstdlib</text>
</g>
<!-- Node29&#45;&gt;Node30 -->
<g id="edge43" class="edge">
<title>Node29&#45;&gt;Node30</title>
<path fill="none" stroke="#191970" d="M1463.2796,-168.7814C1486.5945,-162.1763 1512.654,-150.9545 1530,-132 1541.4333,-119.5065 1546.0284,-100.5604 1547.8538,-86.1672"/>
<polygon fill="#191970" stroke="#191970" points="1551.3756,-86.0879 1548.8017,-75.8105 1544.4048,-85.4499 1551.3756,-86.0879"/>
</g>
<!-- Node31 -->
<g id="node32" class="node">
<title>Node31</title>
<g id="a_node32"><a xlink:href="IPv4__5TupleL2Ident_8hpp.html" target="_top" xlink:title="IPv4_5TupleL2Ident.hpp">
<polygon fill="none" stroke="#000000" points="1077,-112.5 1077,-131.5 1199,-131.5 1199,-112.5 1077,-112.5"/>
<text text-anchor="middle" x="1138" y="-119.5" font-family="Helvetica,sans-Serif" font-size="10.00" fill="#000000">IPv4_5TupleL2Ident.hpp</text>
</a>
</g>
</g>
<!-- Node29&#45;&gt;Node31 -->
<g id="edge45" class="edge">
<title>Node29&#45;&gt;Node31</title>
<path fill="none" stroke="#191970" d="M1364.3798,-168.4369C1317.3635,-158.7925 1244.7371,-143.8948 1194.4807,-133.5858"/>
<polygon fill="#191970" stroke="#191970" points="1194.9273,-130.1046 1184.4279,-131.5237 1193.5206,-136.9618 1194.9273,-130.1046"/>
</g>
<!-- Node32 -->
<g id="node33" class="node">
<title>Node32</title>
<g id="a_node33"><a xlink:href="samplePacket_8hpp.html" target="_top" xlink:title="samplePacket.hpp">
<polygon fill="none" stroke="#000000" points="1423,-112.5 1423,-131.5 1521,-131.5 1521,-112.5 1423,-112.5"/>
<text text-anchor="middle" x="1472" y="-119.5" font-family="Helvetica,sans-Serif" font-size="10.00" fill="#000000">samplePacket.hpp</text>
</a>
</g>
</g>
<!-- Node29&#45;&gt;Node32 -->
<g id="edge59" class="edge">
<title>Node29&#45;&gt;Node32</title>
<path fill="none" stroke="#191970" d="M1421.6254,-168.2455C1430.5473,-160.0549 1443.488,-148.1749 1454.0192,-138.5069"/>
<polygon fill="#191970" stroke="#191970" points="1456.4968,-140.9837 1461.4964,-131.6427 1451.7629,-135.8271 1456.4968,-140.9837"/>
</g>
<!-- Node31&#45;&gt;Node2 -->
<g id="edge50" class="edge">
<title>Node31&#45;&gt;Node2</title>
<path fill="none" stroke="#191970" d="M1199.0929,-115.1565C1290.0718,-104.7538 1453.2656,-85.2015 1479,-76 1496.465,-69.7552 1537.9027,-42.7112 1563.7835,-25.238"/>
<polygon fill="#191970" stroke="#191970" points="1565.9174,-28.0197 1572.2243,-19.5065 1561.9851,-22.2286 1565.9174,-28.0197"/>
</g>
<!-- Node31&#45;&gt;Node3 -->
<g id="edge53" class="edge">
<title>Node31&#45;&gt;Node3</title>
<path fill="none" stroke="#191970" d="M1120.0588,-112.2455C1103.96,-103.4928 1080.1121,-90.527 1061.7609,-80.5496"/>
<polygon fill="#191970" stroke="#191970" points="1063.1929,-77.3444 1052.7356,-75.6427 1059.8493,-83.4942 1063.1929,-77.3444"/>
</g>
<!-- Node31&#45;&gt;Node6 -->
<g id="edge55" class="edge">
<title>Node31&#45;&gt;Node6</title>
<path fill="none" stroke="#191970" d="M1103.7907,-112.3733C1070.2703,-102.9404 1019.0495,-88.5265 982.619,-78.2747"/>
<polygon fill="#191970" stroke="#191970" points="983.3372,-74.8409 972.7629,-75.5011 981.4409,-81.5792 983.3372,-74.8409"/>
</g>
<!-- Node31&#45;&gt;Node7 -->
<g id="edge47" class="edge">
<title>Node31&#45;&gt;Node7</title>
<path fill="none" stroke="#191970" d="M1136.0005,-112.3987C1132.8823,-98.9497 1125.9455,-74.1191 1114,-56 1106.549,-44.6982 1095.7879,-34.1927 1086.2471,-26.0828"/>
<polygon fill="#191970" stroke="#191970" points="1088.2576,-23.2066 1078.2908,-19.6129 1083.8412,-28.6376 1088.2576,-23.2066"/>
</g>
<!-- Node31&#45;&gt;Node8 -->
<g id="edge51" class="edge">
<title>Node31&#45;&gt;Node8</title>
<path fill="none" stroke="#191970" d="M1132.4587,-112.0772C1123.6325,-97.2767 1104.9099,-69.6963 1081,-56 1045.796,-35.8341 932.2016,-20.9068 870.9787,-14.0954"/>
<polygon fill="#191970" stroke="#191970" points="871.2253,-10.6016 860.9044,-12.9953 870.4653,-17.5603 871.2253,-10.6016"/>
</g>
<!-- Node31&#45;&gt;Node9 -->
<g id="edge54" class="edge">
<title>Node31&#45;&gt;Node9</title>
<path fill="none" stroke="#191970" d="M1188.7187,-112.4369C1245.2181,-101.7838 1335.7123,-84.7209 1389.8512,-74.5129"/>
<polygon fill="#191970" stroke="#191970" points="1390.6687,-77.9205 1399.847,-72.6282 1389.3716,-71.0417 1390.6687,-77.9205"/>
</g>
<!-- Node31&#45;&gt;Node10 -->
<g id="edge46" class="edge">
<title>Node31&#45;&gt;Node10</title>
<path fill="none" stroke="#191970" d="M1141.5809,-112.4509C1148.493,-94.0186 1163.7905,-53.2254 1172.8589,-29.043"/>
<polygon fill="#191970" stroke="#191970" points="1176.194,-30.1171 1176.4282,-19.5249 1169.6397,-27.6592 1176.194,-30.1171"/>
</g>
<!-- Node31&#45;&gt;Node12 -->
<g id="edge52" class="edge">
<title>Node31&#45;&gt;Node12</title>
<path fill="none" stroke="#191970" d="M1150.1536,-112.2898C1167.8329,-98.4876 1202.0298,-72.9886 1234,-56 1262.1638,-41.034 1296.296,-28.1658 1320.4068,-19.8767"/>
<polygon fill="#191970" stroke="#191970" points="1321.7244,-23.126 1330.0799,-16.6118 1319.4857,-16.4936 1321.7244,-23.126"/>
</g>
<!-- Node31&#45;&gt;Node18 -->
<g id="edge48" class="edge">
<title>Node31&#45;&gt;Node18</title>
<path fill="none" stroke="#191970" d="M1080.1644,-112.4682C1031.8273,-104.2399 960.8728,-91.5555 889.7891,-76.0591"/>
<polygon fill="#191970" stroke="#191970" points="890.2787,-72.5832 879.7604,-73.854 888.7754,-79.4199 890.2787,-72.5832"/>
</g>
<!-- Node31&#45;&gt;Node19 -->
<g id="edge49" class="edge">
<title>Node31&#45;&gt;Node19</title>
<path fill="none" stroke="#191970" d="M1076.9303,-115.6692C1013.2567,-108.5545 910.4424,-95.6236 812.1874,-75.8099"/>
<polygon fill="#191970" stroke="#191970" points="812.8869,-72.3806 802.3886,-73.8076 811.4854,-79.2389 812.8869,-72.3806"/>
</g>
<!-- Node32&#45;&gt;Node10 -->
<g id="edge60" class="edge">
<title>Node32&#45;&gt;Node10</title>
<path fill="none" stroke="#191970" d="M1453.6627,-112.3875C1427.1043,-98.704 1376.1631,-73.3483 1331,-56 1291.1226,-40.6821 1243.8231,-26.9633 1212.9251,-18.5756"/>
<polygon fill="#191970" stroke="#191970" points="1213.6754,-15.1531 1203.1099,-15.9408 1211.8605,-21.9138 1213.6754,-15.1531"/>
</g>
<!-- Node32&#45;&gt;Node30 -->
<g id="edge61" class="edge">
<title>Node32&#45;&gt;Node30</title>
<path fill="none" stroke="#191970" d="M1485.4124,-112.2455C1497.0057,-103.814 1513.9748,-91.4729 1527.4678,-81.6598"/>
<polygon fill="#191970" stroke="#191970" points="1529.7126,-84.355 1535.7413,-75.6427 1525.5953,-78.6938 1529.7126,-84.355"/>
</g>
</g>
</svg>
