<?xml version="1.0" encoding="UTF-8" standalone="no"?>
<!DOCTYPE svg PUBLIC "-//W3C//DTD SVG 1.1//EN"
 "http://www.w3.org/Graphics/SVG/1.1/DTD/svg11.dtd">
<!-- Generated by graphviz version 2.38.0 (20140413.2041)
 -->
<!-- Title: /home/dominik/uni/MoonState/src/helloBye_C.cpp Pages: 1 -->
<svg width="1708pt" height="375pt"
 viewBox="0.00 0.00 1708.00 375.00" xmlns="http://www.w3.org/2000/svg" xmlns:xlink="http://www.w3.org/1999/xlink">
<g id="graph0" class="graph" transform="scale(1 1) rotate(0) translate(4 371)">
<title>/home/dominik/uni/MoonState/src/helloBye_C.cpp</title>
<!-- Node1 -->
<g id="node1" class="node"><title>Node1</title>
<polygon fill="#bfbfbf" stroke="black" points="1214,-336.5 1214,-366.5 1361,-366.5 1361,-336.5 1214,-336.5"/>
<text text-anchor="start" x="1222" y="-354.5" font-family="Helvetica,sans-Serif" font-size="10.00">/home/dominik/uni/MoonState</text>
<text text-anchor="middle" x="1287.5" y="-343.5" font-family="Helvetica,sans-Serif" font-size="10.00">/src/helloBye_C.cpp</text>
</g>
<!-- Node2 -->
<g id="node2" class="node"><title>Node2</title>
<g id="a_node2"><a xlink:href="helloBye__C_8hpp.html" target="_top" xlink:title="helloBye_C.hpp">
<polygon fill="none" stroke="black" points="1307.5,-280.5 1307.5,-299.5 1393.5,-299.5 1393.5,-280.5 1307.5,-280.5"/>
<text text-anchor="middle" x="1350.5" y="-287.5" font-family="Helvetica,sans-Serif" font-size="10.00">helloBye_C.hpp</text>
</a>
</g>
</g>
<!-- Node1&#45;&gt;Node2 -->
<g id="edge1" class="edge"><title>Node1&#45;&gt;Node2</title>
<path fill="none" stroke="midnightblue" d="M1302.43,-336.399C1311.87,-327.486 1324.08,-315.952 1333.83,-306.741"/>
<polygon fill="midnightblue" stroke="midnightblue" points="1336.47,-309.069 1341.33,-299.658 1331.66,-303.979 1336.47,-309.069"/>
</g>
<!-- Node6 -->
<g id="node6" class="node"><title>Node6</title>
<g id="a_node6"><a xlink:href="stateMachine_8hpp.html" target="_top" xlink:title="stateMachine.hpp">
<polygon fill="none" stroke="black" points="641.5,-112.5 641.5,-131.5 735.5,-131.5 735.5,-112.5 641.5,-112.5"/>
<text text-anchor="middle" x="688.5" y="-119.5" font-family="Helvetica,sans-Serif" font-size="10.00">stateMachine.hpp</text>
</a>
</g>
</g>
<!-- Node1&#45;&gt;Node6 -->
<g id="edge60" class="edge"><title>Node1&#45;&gt;Node6</title>
<path fill="none" stroke="midnightblue" d="M1250.48,-336.441C1141.5,-295.048 823.038,-174.098 720.623,-135.2"/>
<polygon fill="midnightblue" stroke="midnightblue" points="721.717,-131.872 711.126,-131.593 719.232,-138.416 721.717,-131.872"/>
</g>
<!-- Node18 -->
<g id="node18" class="node"><title>Node18</title>
<g id="a_node18"><a xlink:href="bufArray_8hpp.html" target="_top" xlink:title="bufArray.hpp">
<polygon fill="none" stroke="black" points="36,-56.5 36,-75.5 107,-75.5 107,-56.5 36,-56.5"/>
<text text-anchor="middle" x="71.5" y="-63.5" font-family="Helvetica,sans-Serif" font-size="10.00">bufArray.hpp</text>
</a>
</g>
</g>
<!-- Node1&#45;&gt;Node18 -->
<g id="edge58" class="edge"><title>Node1&#45;&gt;Node18</title>
<path fill="none" stroke="midnightblue" d="M1213.74,-349.209C991.337,-344.347 342.5,-322.652 342.5,-235 342.5,-235 342.5,-235 342.5,-177 342.5,-152.267 185.526,-101.465 110.517,-78.6016"/>
<polygon fill="midnightblue" stroke="midnightblue" points="111.087,-75.1173 100.502,-75.5665 109.057,-81.8164 111.087,-75.1173"/>
</g>
<!-- Node28 -->
<g id="node28" class="node"><title>Node28</title>
<g id="a_node28"><a xlink:href="IPv4__5TupleL2Ident_8hpp.html" target="_top" xlink:title="IPv4_5TupleL2Ident.hpp">
<polygon fill="none" stroke="black" points="1139.5,-112.5 1139.5,-131.5 1261.5,-131.5 1261.5,-112.5 1139.5,-112.5"/>
<text text-anchor="middle" x="1200.5" y="-119.5" font-family="Helvetica,sans-Serif" font-size="10.00">IPv4_5TupleL2Ident.hpp</text>
</a>
</g>
</g>
<!-- Node1&#45;&gt;Node28 -->
<g id="edge57" class="edge"><title>Node1&#45;&gt;Node28</title>
<path fill="none" stroke="midnightblue" d="M1282.06,-336.269C1266.94,-296.728 1224.42,-185.548 1207.54,-141.402"/>
<polygon fill="midnightblue" stroke="midnightblue" points="1210.75,-140.017 1203.91,-131.927 1204.22,-142.518 1210.75,-140.017"/>
</g>
<!-- Node34 -->
<g id="node34" class="node"><title>Node34</title>
<g id="a_node34"><a xlink:href="mbuf_8hpp.html" target="_top" xlink:title="mbuf.hpp">
<polygon fill="none" stroke="black" points="1548,-112.5 1548,-131.5 1605,-131.5 1605,-112.5 1548,-112.5"/>
<text text-anchor="middle" x="1576.5" y="-119.5" font-family="Helvetica,sans-Serif" font-size="10.00">mbuf.hpp</text>
</a>
</g>
</g>
<!-- Node1&#45;&gt;Node34 -->
<g id="edge59" class="edge"><title>Node1&#45;&gt;Node34</title>
<path fill="none" stroke="midnightblue" d="M1329.67,-336.417C1352.34,-327.781 1380.15,-315.415 1402.5,-300 1472.18,-251.934 1537.38,-173.41 1563.94,-139.476"/>
<polygon fill="midnightblue" stroke="midnightblue" points="1566.76,-141.552 1570.12,-131.501 1561.23,-137.268 1566.76,-141.552"/>
</g>
<!-- Node35 -->
<g id="node35" class="node"><title>Node35</title>
<polygon fill="none" stroke="#bfbfbf" points="1637,-56.5 1637,-75.5 1700,-75.5 1700,-56.5 1637,-56.5"/>
<text text-anchor="middle" x="1668.5" y="-63.5" font-family="Helvetica,sans-Serif" font-size="10.00">rte_mbuf.h</text>
</g>
<!-- Node1&#45;&gt;Node35 -->
<g id="edge61" class="edge"><title>Node1&#45;&gt;Node35</title>
<path fill="none" stroke="midnightblue" d="M1361.08,-343.481C1472.59,-330.78 1671.5,-299.135 1671.5,-235 1671.5,-235 1671.5,-235 1671.5,-177 1671.5,-144.936 1670.21,-107.634 1669.32,-85.7446"/>
<polygon fill="midnightblue" stroke="midnightblue" points="1672.81,-85.399 1668.89,-75.5556 1665.82,-85.6944 1672.81,-85.399"/>
</g>
<!-- Node3 -->
<g id="node3" class="node"><title>Node3</title>
<g id="a_node3"><a xlink:href="helloByeProto_8hpp.html" target="_top" xlink:title="helloByeProto.hpp">
<polygon fill="none" stroke="black" points="1302.5,-224.5 1302.5,-243.5 1398.5,-243.5 1398.5,-224.5 1302.5,-224.5"/>
<text text-anchor="middle" x="1350.5" y="-231.5" font-family="Helvetica,sans-Serif" font-size="10.00">helloByeProto.hpp</text>
</a>
</g>
</g>
<!-- Node2&#45;&gt;Node3 -->
<g id="edge2" class="edge"><title>Node2&#45;&gt;Node3</title>
<path fill="none" stroke="midnightblue" d="M1350.5,-280.083C1350.5,-273.006 1350.5,-262.861 1350.5,-253.986"/>
<polygon fill="midnightblue" stroke="midnightblue" points="1354,-253.751 1350.5,-243.751 1347,-253.751 1354,-253.751"/>
</g>
<!-- Node2&#45;&gt;Node35 -->
<g id="edge56" class="edge"><title>Node2&#45;&gt;Node35</title>
<path fill="none" stroke="midnightblue" d="M1369.51,-280.486C1415,-259.554 1532.4,-202.146 1614.5,-132 1631.15,-117.772 1646.75,-98.032 1656.86,-84.0482"/>
<polygon fill="midnightblue" stroke="midnightblue" points="1659.76,-85.997 1662.66,-75.8059 1654.04,-81.966 1659.76,-85.997"/>
</g>
<!-- Node4 -->
<g id="node4" class="node"><title>Node4</title>
<g id="a_node4"><a xlink:href="common_8hpp.html" target="_top" xlink:title="common.hpp">
<polygon fill="none" stroke="black" points="1165,-56.5 1165,-75.5 1238,-75.5 1238,-56.5 1165,-56.5"/>
<text text-anchor="middle" x="1201.5" y="-63.5" font-family="Helvetica,sans-Serif" font-size="10.00">common.hpp</text>
</a>
</g>
</g>
<!-- Node3&#45;&gt;Node4 -->
<g id="edge3" class="edge"><title>Node3&#45;&gt;Node4</title>
<path fill="none" stroke="midnightblue" d="M1346.3,-224.222C1335.82,-203.005 1306.76,-148.035 1270.5,-112 1257.89,-99.4681 1241.26,-88.4959 1227.48,-80.5238"/>
<polygon fill="midnightblue" stroke="midnightblue" points="1228.92,-77.3201 1218.48,-75.5015 1225.51,-83.4321 1228.92,-77.3201"/>
</g>
<!-- Node3&#45;&gt;Node6 -->
<g id="edge5" class="edge"><title>Node3&#45;&gt;Node6</title>
<path fill="none" stroke="midnightblue" d="M1302.36,-225C1183.01,-205.169 873.87,-153.802 745.591,-132.486"/>
<polygon fill="midnightblue" stroke="midnightblue" points="746.013,-129.009 735.575,-130.822 744.866,-135.914 746.013,-129.009"/>
</g>
<!-- Node25 -->
<g id="node25" class="node"><title>Node25</title>
<g id="a_node25"><a xlink:href="helloByeProto_8cpp.html" target="_top" xlink:title="../src/helloByeProto.cpp">
<polygon fill="none" stroke="black" points="1350.5,-168.5 1350.5,-187.5 1472.5,-187.5 1472.5,-168.5 1350.5,-168.5"/>
<text text-anchor="middle" x="1411.5" y="-175.5" font-family="Helvetica,sans-Serif" font-size="10.00">../src/helloByeProto.cpp</text>
</a>
</g>
</g>
<!-- Node3&#45;&gt;Node25 -->
<g id="edge28" class="edge"><title>Node3&#45;&gt;Node25</title>
<path fill="none" stroke="midnightblue" d="M1355.41,-224.083C1362.92,-215.905 1376.47,-203.631 1388.49,-193.954"/>
<polygon fill="midnightblue" stroke="midnightblue" points="1390.73,-196.648 1396.48,-187.751 1386.44,-191.119 1390.73,-196.648"/>
</g>
<!-- Node5 -->
<g id="node5" class="node"><title>Node5</title>
<polygon fill="none" stroke="#bfbfbf" points="1220.5,-0.5 1220.5,-19.5 1266.5,-19.5 1266.5,-0.5 1220.5,-0.5"/>
<text text-anchor="middle" x="1243.5" y="-7.5" font-family="Helvetica,sans-Serif" font-size="10.00">cstdint</text>
</g>
<!-- Node4&#45;&gt;Node5 -->
<g id="edge4" class="edge"><title>Node4&#45;&gt;Node5</title>
<path fill="none" stroke="midnightblue" d="M1208.44,-56.083C1214.43,-48.3768 1223.25,-37.0333 1230.55,-27.6531"/>
<polygon fill="midnightblue" stroke="midnightblue" points="1233.32,-29.7934 1236.69,-19.7511 1227.79,-25.4958 1233.32,-29.7934"/>
</g>
<!-- Node6&#45;&gt;Node4 -->
<g id="edge22" class="edge"><title>Node6&#45;&gt;Node4</title>
<path fill="none" stroke="midnightblue" d="M735.53,-117.631C819.216,-111.367 999.393,-96.6603 1150.5,-76 1151.95,-75.8021 1153.42,-75.593 1154.9,-75.375"/>
<polygon fill="midnightblue" stroke="midnightblue" points="1155.44,-78.8327 1164.78,-73.8303 1154.36,-71.9166 1155.44,-78.8327"/>
</g>
<!-- Node6&#45;&gt;Node5 -->
<g id="edge8" class="edge"><title>Node6&#45;&gt;Node5</title>
<path fill="none" stroke="midnightblue" d="M735.731,-119.505C809.798,-116.281 957.333,-106.304 1078.5,-76 1129.12,-63.3405 1185.03,-38.9571 1217.04,-23.9196"/>
<polygon fill="midnightblue" stroke="midnightblue" points="1218.65,-27.0311 1226.17,-19.5762 1215.64,-20.7092 1218.65,-27.0311"/>
</g>
<!-- Node7 -->
<g id="node7" class="node"><title>Node7</title>
<polygon fill="none" stroke="#bfbfbf" points="214,-56.5 214,-75.5 263,-75.5 263,-56.5 214,-56.5"/>
<text text-anchor="middle" x="238.5" y="-63.5" font-family="Helvetica,sans-Serif" font-size="10.00">cassert</text>
</g>
<!-- Node6&#45;&gt;Node7 -->
<g id="edge6" class="edge"><title>Node6&#45;&gt;Node7</title>
<path fill="none" stroke="midnightblue" d="M641.374,-118.229C565.717,-113.272 412.401,-101.144 273.275,-75.8661"/>
<polygon fill="midnightblue" stroke="midnightblue" points="273.753,-72.3953 263.284,-74.0233 272.484,-79.2792 273.753,-72.3953"/>
</g>
<!-- Node8 -->
<g id="node8" class="node"><title>Node8</title>
<polygon fill="none" stroke="#bfbfbf" points="696.5,-56.5 696.5,-75.5 742.5,-75.5 742.5,-56.5 696.5,-56.5"/>
<text text-anchor="middle" x="719.5" y="-63.5" font-family="Helvetica,sans-Serif" font-size="10.00">chrono</text>
</g>
<!-- Node6&#45;&gt;Node8 -->
<g id="edge7" class="edge"><title>Node6&#45;&gt;Node8</title>
<path fill="none" stroke="midnightblue" d="M693.619,-112.083C697.908,-104.613 704.158,-93.7244 709.442,-84.5199"/>
<polygon fill="midnightblue" stroke="midnightblue" points="712.533,-86.1662 714.476,-75.7511 706.462,-82.6811 712.533,-86.1662"/>
</g>
<!-- Node9 -->
<g id="node9" class="node"><title>Node9</title>
<polygon fill="none" stroke="#bfbfbf" points="871,-56.5 871,-75.5 930,-75.5 930,-56.5 871,-56.5"/>
<text text-anchor="middle" x="900.5" y="-63.5" font-family="Helvetica,sans-Serif" font-size="10.00">functional</text>
</g>
<!-- Node6&#45;&gt;Node9 -->
<g id="edge9" class="edge"><title>Node6&#45;&gt;Node9</title>
<path fill="none" stroke="midnightblue" d="M722.092,-112.444C759.791,-102.841 820.897,-87.2763 860.892,-77.0887"/>
<polygon fill="midnightblue" stroke="midnightblue" points="862.001,-80.4181 870.828,-74.558 860.273,-73.6347 862.001,-80.4181"/>
</g>
<!-- Node10 -->
<g id="node10" class="node"><title>Node10</title>
<polygon fill="none" stroke="#bfbfbf" points="798.5,-56.5 798.5,-75.5 852.5,-75.5 852.5,-56.5 798.5,-56.5"/>
<text text-anchor="middle" x="825.5" y="-63.5" font-family="Helvetica,sans-Serif" font-size="10.00">iostream</text>
</g>
<!-- Node6&#45;&gt;Node10 -->
<g id="edge10" class="edge"><title>Node6&#45;&gt;Node10</title>
<path fill="none" stroke="midnightblue" d="M710.208,-112.444C732.855,-103.517 768.572,-89.4387 794.252,-79.3168"/>
<polygon fill="midnightblue" stroke="midnightblue" points="795.874,-82.4397 803.894,-75.5164 793.307,-75.9273 795.874,-82.4397"/>
</g>
<!-- Node11 -->
<g id="node11" class="node"><title>Node11</title>
<polygon fill="none" stroke="#bfbfbf" points="281.5,-56.5 281.5,-75.5 321.5,-75.5 321.5,-56.5 281.5,-56.5"/>
<text text-anchor="middle" x="301.5" y="-63.5" font-family="Helvetica,sans-Serif" font-size="10.00">limits</text>
</g>
<!-- Node6&#45;&gt;Node11 -->
<g id="edge11" class="edge"><title>Node6&#45;&gt;Node11</title>
<path fill="none" stroke="midnightblue" d="M641.43,-117.736C574.442,-112.511 447.726,-100.482 331.442,-75.8604"/>
<polygon fill="midnightblue" stroke="midnightblue" points="332.173,-72.4378 321.661,-73.7538 330.7,-79.2809 332.173,-72.4378"/>
</g>
<!-- Node12 -->
<g id="node12" class="node"><title>Node12</title>
<polygon fill="none" stroke="#bfbfbf" points="339.5,-56.5 339.5,-75.5 391.5,-75.5 391.5,-56.5 339.5,-56.5"/>
<text text-anchor="middle" x="365.5" y="-63.5" font-family="Helvetica,sans-Serif" font-size="10.00">memory</text>
</g>
<!-- Node6&#45;&gt;Node12 -->
<g id="edge12" class="edge"><title>Node6&#45;&gt;Node12</title>
<path fill="none" stroke="midnightblue" d="M641.358,-115.059C586.126,-107.782 491.693,-94.3599 401.635,-76.0742"/>
<polygon fill="midnightblue" stroke="midnightblue" points="402.309,-72.6399 391.81,-74.0561 400.901,-79.4967 402.309,-72.6399"/>
</g>
<!-- Node13 -->
<g id="node13" class="node"><title>Node13</title>
<polygon fill="none" stroke="#bfbfbf" points="409.5,-56.5 409.5,-75.5 453.5,-75.5 453.5,-56.5 409.5,-56.5"/>
<text text-anchor="middle" x="431.5" y="-63.5" font-family="Helvetica,sans-Serif" font-size="10.00">mutex</text>
</g>
<!-- Node6&#45;&gt;Node13 -->
<g id="edge13" class="edge"><title>Node6&#45;&gt;Node13</title>
<path fill="none" stroke="midnightblue" d="M641.495,-112.859C597.753,-105.01 530.57,-92.2632 463.657,-76.1251"/>
<polygon fill="midnightblue" stroke="midnightblue" points="464.334,-72.6877 453.789,-73.7196 462.676,-79.4885 464.334,-72.6877"/>
</g>
<!-- Node14 -->
<g id="node14" class="node"><title>Node14</title>
<polygon fill="none" stroke="#bfbfbf" points="472,-56.5 472,-75.5 515,-75.5 515,-56.5 472,-56.5"/>
<text text-anchor="middle" x="493.5" y="-63.5" font-family="Helvetica,sans-Serif" font-size="10.00">queue</text>
</g>
<!-- Node6&#45;&gt;Node14 -->
<g id="edge14" class="edge"><title>Node6&#45;&gt;Node14</title>
<path fill="none" stroke="midnightblue" d="M656.184,-112.445C624.888,-104.102 575.852,-90.8826 524.968,-76.3744"/>
<polygon fill="midnightblue" stroke="midnightblue" points="525.688,-72.94 515.111,-73.5541 523.762,-79.6699 525.688,-72.94"/>
</g>
<!-- Node15 -->
<g id="node15" class="node"><title>Node15</title>
<polygon fill="none" stroke="#bfbfbf" points="929,-0.5 929,-19.5 988,-19.5 988,-0.5 929,-0.5"/>
<text text-anchor="middle" x="958.5" y="-7.5" font-family="Helvetica,sans-Serif" font-size="10.00">stdexcept</text>
</g>
<!-- Node6&#45;&gt;Node15 -->
<g id="edge15" class="edge"><title>Node6&#45;&gt;Node15</title>
<path fill="none" stroke="midnightblue" d="M699.355,-112.372C717.182,-98.5928 754.214,-71.5902 789.5,-56 831.966,-37.2374 883.995,-24.8342 919.013,-17.8873"/>
<polygon fill="midnightblue" stroke="midnightblue" points="919.703,-21.3187 928.86,-15.9887 918.378,-14.4453 919.703,-21.3187"/>
</g>
<!-- Node16 -->
<g id="node16" class="node"><title>Node16</title>
<polygon fill="none" stroke="#bfbfbf" points="533,-56.5 533,-75.5 616,-75.5 616,-56.5 533,-56.5"/>
<text text-anchor="middle" x="574.5" y="-63.5" font-family="Helvetica,sans-Serif" font-size="10.00">unordered_map</text>
</g>
<!-- Node6&#45;&gt;Node16 -->
<g id="edge16" class="edge"><title>Node6&#45;&gt;Node16</title>
<path fill="none" stroke="midnightblue" d="M670.436,-112.444C651.925,-103.675 622.919,-89.9355 601.645,-79.8579"/>
<polygon fill="midnightblue" stroke="midnightblue" points="603.015,-76.6343 592.479,-75.5164 600.018,-82.9604 603.015,-76.6343"/>
</g>
<!-- Node17 -->
<g id="node17" class="node"><title>Node17</title>
<polygon fill="none" stroke="#bfbfbf" points="634.5,-56.5 634.5,-75.5 678.5,-75.5 678.5,-56.5 634.5,-56.5"/>
<text text-anchor="middle" x="656.5" y="-63.5" font-family="Helvetica,sans-Serif" font-size="10.00">vector</text>
</g>
<!-- Node6&#45;&gt;Node17 -->
<g id="edge17" class="edge"><title>Node6&#45;&gt;Node17</title>
<path fill="none" stroke="midnightblue" d="M683.216,-112.083C678.789,-104.613 672.337,-93.7244 666.882,-84.5199"/>
<polygon fill="midnightblue" stroke="midnightblue" points="669.795,-82.5697 661.686,-75.7511 663.773,-86.1383 669.795,-82.5697"/>
</g>
<!-- Node6&#45;&gt;Node18 -->
<g id="edge18" class="edge"><title>Node6&#45;&gt;Node18</title>
<path fill="none" stroke="midnightblue" d="M641.493,-119.274C544.98,-115.305 317.38,-103.766 117.552,-76.1437"/>
<polygon fill="midnightblue" stroke="midnightblue" points="117.844,-72.6506 107.456,-74.7309 116.874,-79.5831 117.844,-72.6506"/>
</g>
<!-- Node21 -->
<g id="node21" class="node"><title>Node21</title>
<g id="a_node21"><a xlink:href="exceptions_8hpp.html" target="_top" xlink:title="exceptions.hpp">
<polygon fill="none" stroke="black" points="987,-56.5 987,-75.5 1070,-75.5 1070,-56.5 987,-56.5"/>
<text text-anchor="middle" x="1028.5" y="-63.5" font-family="Helvetica,sans-Serif" font-size="10.00">exceptions.hpp</text>
</a>
</g>
</g>
<!-- Node6&#45;&gt;Node21 -->
<g id="edge23" class="edge"><title>Node6&#45;&gt;Node21</title>
<path fill="none" stroke="midnightblue" d="M735.776,-113.492C799.167,-103.423 911.307,-85.613 976.853,-75.2027"/>
<polygon fill="midnightblue" stroke="midnightblue" points="977.631,-78.6232 986.958,-73.5978 976.533,-71.7098 977.631,-78.6232"/>
</g>
<!-- Node23 -->
<g id="node23" class="node"><title>Node23</title>
<g id="a_node23"><a xlink:href="spinlock_8hpp.html" target="_top" xlink:title="spinlock.hpp">
<polygon fill="none" stroke="black" points="125,-56.5 125,-75.5 196,-75.5 196,-56.5 125,-56.5"/>
<text text-anchor="middle" x="160.5" y="-63.5" font-family="Helvetica,sans-Serif" font-size="10.00">spinlock.hpp</text>
</a>
</g>
</g>
<!-- Node6&#45;&gt;Node23 -->
<g id="edge26" class="edge"><title>Node6&#45;&gt;Node23</title>
<path fill="none" stroke="midnightblue" d="M641.233,-118.323C556.169,-113.131 371.509,-100.162 206.781,-76.2076"/>
<polygon fill="midnightblue" stroke="midnightblue" points="206.865,-72.6823 196.462,-74.6885 205.845,-79.6076 206.865,-72.6823"/>
</g>
<!-- Node18&#45;&gt;Node5 -->
<g id="edge19" class="edge"><title>Node18&#45;&gt;Node5</title>
<path fill="none" stroke="midnightblue" d="M107.439,-57.1444C110.159,-56.7049 112.868,-56.3149 115.5,-56 552.674,-3.70493 665.776,-42.3292 1105.5,-20 1141.22,-18.1861 1182.1,-15.4357 1210.04,-13.4529"/>
<polygon fill="midnightblue" stroke="midnightblue" points="1210.35,-16.9397 1220.07,-12.7341 1209.85,-9.95756 1210.35,-16.9397"/>
</g>
<!-- Node19 -->
<g id="node19" class="node"><title>Node19</title>
<polygon fill="none" stroke="#bfbfbf" points="0,-0.5 0,-19.5 47,-19.5 47,-0.5 0,-0.5"/>
<text text-anchor="middle" x="23.5" y="-7.5" font-family="Helvetica,sans-Serif" font-size="10.00">iterator</text>
</g>
<!-- Node18&#45;&gt;Node19 -->
<g id="edge20" class="edge"><title>Node18&#45;&gt;Node19</title>
<path fill="none" stroke="midnightblue" d="M63.5738,-56.083C56.6539,-48.2982 46.4346,-36.8015 38.048,-27.3665"/>
<polygon fill="midnightblue" stroke="midnightblue" points="40.5383,-24.8999 31.2787,-19.7511 35.3065,-29.5505 40.5383,-24.8999"/>
</g>
<!-- Node20 -->
<g id="node20" class="node"><title>Node20</title>
<polygon fill="none" stroke="#bfbfbf" points="65.5,-0.5 65.5,-19.5 105.5,-19.5 105.5,-0.5 65.5,-0.5"/>
<text text-anchor="middle" x="85.5" y="-7.5" font-family="Helvetica,sans-Serif" font-size="10.00">utility</text>
</g>
<!-- Node18&#45;&gt;Node20 -->
<g id="edge21" class="edge"><title>Node18&#45;&gt;Node20</title>
<path fill="none" stroke="midnightblue" d="M73.8118,-56.083C75.667,-48.9272 78.3353,-38.6353 80.6542,-29.6911"/>
<polygon fill="midnightblue" stroke="midnightblue" points="84.1095,-30.3094 83.2312,-19.7511 77.3335,-28.5527 84.1095,-30.3094"/>
</g>
<!-- Node21&#45;&gt;Node15 -->
<g id="edge25" class="edge"><title>Node21&#45;&gt;Node15</title>
<path fill="none" stroke="midnightblue" d="M1017.25,-56.324C1006.7,-48.1849 990.699,-35.8395 978.058,-26.0874"/>
<polygon fill="midnightblue" stroke="midnightblue" points="980.007,-23.1707 969.951,-19.8339 975.731,-28.7132 980.007,-23.1707"/>
</g>
<!-- Node22 -->
<g id="node22" class="node"><title>Node22</title>
<polygon fill="none" stroke="#bfbfbf" points="1038,-0.5 1038,-19.5 1097,-19.5 1097,-0.5 1038,-0.5"/>
<text text-anchor="middle" x="1067.5" y="-7.5" font-family="Helvetica,sans-Serif" font-size="10.00">exception</text>
</g>
<!-- Node21&#45;&gt;Node22 -->
<g id="edge24" class="edge"><title>Node21&#45;&gt;Node22</title>
<path fill="none" stroke="midnightblue" d="M1034.94,-56.083C1040.45,-48.4554 1048.53,-37.2645 1055.26,-27.9408"/>
<polygon fill="midnightblue" stroke="midnightblue" points="1058.16,-29.9071 1061.18,-19.7511 1052.49,-25.8087 1058.16,-29.9071"/>
</g>
<!-- Node24 -->
<g id="node24" class="node"><title>Node24</title>
<polygon fill="none" stroke="#bfbfbf" points="137.5,-0.5 137.5,-19.5 183.5,-19.5 183.5,-0.5 137.5,-0.5"/>
<text text-anchor="middle" x="160.5" y="-7.5" font-family="Helvetica,sans-Serif" font-size="10.00">atomic</text>
</g>
<!-- Node23&#45;&gt;Node24 -->
<g id="edge27" class="edge"><title>Node23&#45;&gt;Node24</title>
<path fill="none" stroke="midnightblue" d="M160.5,-56.083C160.5,-49.0059 160.5,-38.8611 160.5,-29.9865"/>
<polygon fill="midnightblue" stroke="midnightblue" points="164,-29.751 160.5,-19.7511 157,-29.7511 164,-29.751"/>
</g>
<!-- Node25&#45;&gt;Node3 -->
<g id="edge49" class="edge"><title>Node25&#45;&gt;Node3</title>
<path fill="none" stroke="midnightblue" d="M1406.67,-187.834C1399.16,-196.027 1385.52,-208.382 1373.44,-218.101"/>
<polygon fill="midnightblue" stroke="midnightblue" points="1371.17,-215.429 1365.42,-224.324 1375.46,-220.96 1371.17,-215.429"/>
</g>
<!-- Node26 -->
<g id="node26" class="node"><title>Node26</title>
<polygon fill="none" stroke="#bfbfbf" points="1535,-56.5 1535,-75.5 1580,-75.5 1580,-56.5 1535,-56.5"/>
<text text-anchor="middle" x="1557.5" y="-63.5" font-family="Helvetica,sans-Serif" font-size="10.00">cstdlib</text>
</g>
<!-- Node25&#45;&gt;Node26 -->
<g id="edge29" class="edge"><title>Node25&#45;&gt;Node26</title>
<path fill="none" stroke="midnightblue" d="M1422.96,-168.368C1447.8,-149.653 1506.86,-105.151 1537.81,-81.8324"/>
<polygon fill="midnightblue" stroke="midnightblue" points="1540.22,-84.4044 1546.1,-75.5914 1536,-78.8135 1540.22,-84.4044"/>
</g>
<!-- Node27 -->
<g id="node27" class="node"><title>Node27</title>
<polygon fill="none" stroke="#bfbfbf" points="1544.5,-0.5 1544.5,-19.5 1596.5,-19.5 1596.5,-0.5 1544.5,-0.5"/>
<text text-anchor="middle" x="1570.5" y="-7.5" font-family="Helvetica,sans-Serif" font-size="10.00">sstream</text>
</g>
<!-- Node25&#45;&gt;Node27 -->
<g id="edge30" class="edge"><title>Node25&#45;&gt;Node27</title>
<path fill="none" stroke="midnightblue" d="M1428.82,-168.464C1471.82,-147.1 1580.62,-91.8962 1589.5,-76 1597.81,-61.1343 1590.63,-42.2824 1582.83,-28.7139"/>
<polygon fill="midnightblue" stroke="midnightblue" points="1585.56,-26.4804 1577.26,-19.9003 1579.65,-30.2225 1585.56,-26.4804"/>
</g>
<!-- Node25&#45;&gt;Node28 -->
<g id="edge31" class="edge"><title>Node25&#45;&gt;Node28</title>
<path fill="none" stroke="midnightblue" d="M1378.07,-168.444C1341.64,-159.122 1283.27,-144.183 1243.47,-133.997"/>
<polygon fill="midnightblue" stroke="midnightblue" points="1244.33,-130.605 1233.78,-131.516 1242.6,-137.387 1244.33,-130.605"/>
</g>
<!-- Node30 -->
<g id="node30" class="node"><title>Node30</title>
<g id="a_node30"><a xlink:href="headers_8hpp.html" target="_top" xlink:title="headers.hpp">
<polygon fill="none" stroke="black" points="1408.5,-56.5 1408.5,-75.5 1478.5,-75.5 1478.5,-56.5 1408.5,-56.5"/>
<text text-anchor="middle" x="1443.5" y="-63.5" font-family="Helvetica,sans-Serif" font-size="10.00">headers.hpp</text>
</a>
</g>
</g>
<!-- Node25&#45;&gt;Node30 -->
<g id="edge48" class="edge"><title>Node25&#45;&gt;Node30</title>
<path fill="none" stroke="midnightblue" d="M1414.01,-168.368C1419.2,-150.537 1431.2,-109.295 1438.18,-85.2717"/>
<polygon fill="midnightblue" stroke="midnightblue" points="1441.57,-86.1711 1441,-75.5914 1434.85,-84.2157 1441.57,-86.1711"/>
</g>
<!-- Node25&#45;&gt;Node34 -->
<g id="edge50" class="edge"><title>Node25&#45;&gt;Node34</title>
<path fill="none" stroke="midnightblue" d="M1437.64,-168.444C1465.52,-159.32 1509.85,-144.813 1540.9,-134.651"/>
<polygon fill="midnightblue" stroke="midnightblue" points="1542.06,-137.953 1550.48,-131.516 1539.88,-131.3 1542.06,-137.953"/>
</g>
<!-- Node36 -->
<g id="node36" class="node"><title>Node36</title>
<g id="a_node36"><a xlink:href="samplePacket_8hpp.html" target="_top" xlink:title="samplePacket.hpp">
<polygon fill="none" stroke="black" points="1317.5,-112.5 1317.5,-131.5 1415.5,-131.5 1415.5,-112.5 1317.5,-112.5"/>
<text text-anchor="middle" x="1366.5" y="-119.5" font-family="Helvetica,sans-Serif" font-size="10.00">samplePacket.hpp</text>
</a>
</g>
</g>
<!-- Node25&#45;&gt;Node36 -->
<g id="edge53" class="edge"><title>Node25&#45;&gt;Node36</title>
<path fill="none" stroke="midnightblue" d="M1404.07,-168.083C1397.65,-160.377 1388.19,-149.033 1380.38,-139.653"/>
<polygon fill="midnightblue" stroke="midnightblue" points="1382.88,-137.193 1373.79,-131.751 1377.51,-141.674 1382.88,-137.193"/>
</g>
<!-- Node28&#45;&gt;Node4 -->
<g id="edge39" class="edge"><title>Node28&#45;&gt;Node4</title>
<path fill="none" stroke="midnightblue" d="M1200.67,-112.083C1200.8,-105.006 1200.98,-94.8611 1201.15,-85.9865"/>
<polygon fill="midnightblue" stroke="midnightblue" points="1204.65,-85.8142 1201.34,-75.7511 1197.65,-85.6845 1204.65,-85.8142"/>
</g>
<!-- Node28&#45;&gt;Node5 -->
<g id="edge32" class="edge"><title>Node28&#45;&gt;Node5</title>
<path fill="none" stroke="midnightblue" d="M1214.29,-112.189C1225.33,-104.241 1240,-91.4469 1246.5,-76 1252.66,-61.3568 1251.15,-43.1875 1248.53,-29.7845"/>
<polygon fill="midnightblue" stroke="midnightblue" points="1251.89,-28.7784 1246.22,-19.829 1245.07,-30.3615 1251.89,-28.7784"/>
</g>
<!-- Node28&#45;&gt;Node9 -->
<g id="edge34" class="edge"><title>Node28&#45;&gt;Node9</title>
<path fill="none" stroke="midnightblue" d="M1149.42,-112.451C1097.7,-103.692 1015.43,-89.4857 944.5,-76 943.064,-75.7269 941.602,-75.4456 940.126,-75.1587"/>
<polygon fill="midnightblue" stroke="midnightblue" points="940.789,-71.7222 930.3,-73.212 939.429,-78.5887 940.789,-71.7222"/>
</g>
<!-- Node28&#45;&gt;Node10 -->
<g id="edge35" class="edge"><title>Node28&#45;&gt;Node10</title>
<path fill="none" stroke="midnightblue" d="M1139.23,-114.974C1073.21,-108.008 964.904,-95.2135 862.449,-75.992"/>
<polygon fill="midnightblue" stroke="midnightblue" points="863.032,-72.5401 852.554,-74.1118 861.725,-79.4171 863.032,-72.5401"/>
</g>
<!-- Node28&#45;&gt;Node15 -->
<g id="edge37" class="edge"><title>Node28&#45;&gt;Node15</title>
<path fill="none" stroke="midnightblue" d="M1139.49,-115.748C1081.81,-109.567 1000.74,-97.3362 977.5,-76 964.664,-64.2143 960.322,-44.2868 958.942,-29.5962"/>
<polygon fill="midnightblue" stroke="midnightblue" points="962.436,-29.3889 958.372,-19.6046 955.447,-29.7877 962.436,-29.3889"/>
</g>
<!-- Node28&#45;&gt;Node21 -->
<g id="edge47" class="edge"><title>Node28&#45;&gt;Node21</title>
<path fill="none" stroke="midnightblue" d="M1173.25,-112.444C1144.06,-103.28 1097.58,-88.6876 1065.19,-78.5192"/>
<polygon fill="midnightblue" stroke="midnightblue" points="1066.22,-75.1726 1055.63,-75.5164 1064.12,-81.8512 1066.22,-75.1726"/>
</g>
<!-- Node28&#45;&gt;Node22 -->
<g id="edge33" class="edge"><title>Node28&#45;&gt;Node22</title>
<path fill="none" stroke="midnightblue" d="M1190.06,-112.368C1167.53,-93.7334 1114.09,-49.5324 1085.8,-26.1338"/>
<polygon fill="midnightblue" stroke="midnightblue" points="1087.82,-23.2677 1077.89,-19.5914 1083.36,-28.6618 1087.82,-23.2677"/>
</g>
<!-- Node28&#45;&gt;Node27 -->
<g id="edge36" class="edge"><title>Node28&#45;&gt;Node27</title>
<path fill="none" stroke="midnightblue" d="M1261.64,-115.062C1333.52,-107.45 1448.01,-93.1617 1487.5,-76 1514.09,-64.4458 1539.55,-42.3067 1555.1,-27.1037"/>
<polygon fill="midnightblue" stroke="midnightblue" points="1557.71,-29.4383 1562.28,-19.8786 1552.75,-24.5035 1557.71,-29.4383"/>
</g>
<!-- Node29 -->
<g id="node29" class="node"><title>Node29</title>
<polygon fill="none" stroke="#bfbfbf" points="1285,-0.5 1285,-19.5 1326,-19.5 1326,-0.5 1285,-0.5"/>
<text text-anchor="middle" x="1305.5" y="-7.5" font-family="Helvetica,sans-Serif" font-size="10.00">string</text>
</g>
<!-- Node28&#45;&gt;Node29 -->
<g id="edge38" class="edge"><title>Node28&#45;&gt;Node29</title>
<path fill="none" stroke="midnightblue" d="M1215.73,-112.392C1229.31,-104.217 1249.21,-90.9736 1263.5,-76 1277.09,-61.7662 1288.87,-42.5451 1296.47,-28.7014"/>
<polygon fill="midnightblue" stroke="midnightblue" points="1299.64,-30.1945 1301.23,-19.7197 1293.46,-26.9167 1299.64,-30.1945"/>
</g>
<!-- Node28&#45;&gt;Node30 -->
<g id="edge40" class="edge"><title>Node28&#45;&gt;Node30</title>
<path fill="none" stroke="midnightblue" d="M1239,-112.444C1282.3,-102.822 1352.53,-87.2147 1398.37,-77.0283"/>
<polygon fill="midnightblue" stroke="midnightblue" points="1399.33,-80.4011 1408.33,-74.8151 1397.81,-73.5678 1399.33,-80.4011"/>
</g>
<!-- Node30&#45;&gt;Node5 -->
<g id="edge42" class="edge"><title>Node30&#45;&gt;Node5</title>
<path fill="none" stroke="midnightblue" d="M1411.26,-56.4921C1379.4,-48.0557 1329.01,-34.6396 1276.41,-20.2254"/>
<polygon fill="midnightblue" stroke="midnightblue" points="1277.13,-16.795 1266.56,-17.5233 1275.28,-23.5454 1277.13,-16.795"/>
</g>
<!-- Node30&#45;&gt;Node27 -->
<g id="edge44" class="edge"><title>Node30&#45;&gt;Node27</title>
<path fill="none" stroke="midnightblue" d="M1463.62,-56.4435C1484.52,-47.5566 1517.43,-33.5632 1541.22,-23.4514"/>
<polygon fill="midnightblue" stroke="midnightblue" points="1542.64,-26.6504 1550.47,-19.5164 1539.9,-20.2085 1542.64,-26.6504"/>
</g>
<!-- Node30&#45;&gt;Node29 -->
<g id="edge45" class="edge"><title>Node30&#45;&gt;Node29</title>
<path fill="none" stroke="midnightblue" d="M1421.63,-56.4435C1398.45,-47.3721 1361.67,-32.98 1335.72,-22.8268"/>
<polygon fill="midnightblue" stroke="midnightblue" points="1336.95,-19.5477 1326.36,-19.1629 1334.4,-26.0664 1336.95,-19.5477"/>
</g>
<!-- Node31 -->
<g id="node31" class="node"><title>Node31</title>
<polygon fill="none" stroke="#bfbfbf" points="1424.5,-0.5 1424.5,-19.5 1462.5,-19.5 1462.5,-0.5 1424.5,-0.5"/>
<text text-anchor="middle" x="1443.5" y="-7.5" font-family="Helvetica,sans-Serif" font-size="10.00">array</text>
</g>
<!-- Node30&#45;&gt;Node31 -->
<g id="edge41" class="edge"><title>Node30&#45;&gt;Node31</title>
<path fill="none" stroke="midnightblue" d="M1443.5,-56.083C1443.5,-49.0059 1443.5,-38.8611 1443.5,-29.9865"/>
<polygon fill="midnightblue" stroke="midnightblue" points="1447,-29.751 1443.5,-19.7511 1440,-29.7511 1447,-29.751"/>
</g>
<!-- Node32 -->
<g id="node32" class="node"><title>Node32</title>
<polygon fill="none" stroke="#bfbfbf" points="1480.5,-0.5 1480.5,-19.5 1526.5,-19.5 1526.5,-0.5 1480.5,-0.5"/>
<text text-anchor="middle" x="1503.5" y="-7.5" font-family="Helvetica,sans-Serif" font-size="10.00">cstring</text>
</g>
<!-- Node30&#45;&gt;Node32 -->
<g id="edge43" class="edge"><title>Node30&#45;&gt;Node32</title>
<path fill="none" stroke="midnightblue" d="M1453.14,-56.324C1462.01,-48.3414 1475.37,-36.3128 1486.11,-26.6529"/>
<polygon fill="midnightblue" stroke="midnightblue" points="1488.59,-29.1251 1493.68,-19.8339 1483.91,-23.922 1488.59,-29.1251"/>
</g>
<!-- Node33 -->
<g id="node33" class="node"><title>Node33</title>
<polygon fill="none" stroke="#bfbfbf" points="1344.5,-0.5 1344.5,-19.5 1406.5,-19.5 1406.5,-0.5 1344.5,-0.5"/>
<text text-anchor="middle" x="1375.5" y="-7.5" font-family="Helvetica,sans-Serif" font-size="10.00">arpa/inet.h</text>
</g>
<!-- Node30&#45;&gt;Node33 -->
<g id="edge46" class="edge"><title>Node30&#45;&gt;Node33</title>
<path fill="none" stroke="midnightblue" d="M1432.57,-56.324C1422.33,-48.1849 1406.78,-35.8395 1394.5,-26.0874"/>
<polygon fill="midnightblue" stroke="midnightblue" points="1396.63,-23.3119 1386.62,-19.8339 1392.28,-28.7937 1396.63,-23.3119"/>
</g>
<!-- Node34&#45;&gt;Node5 -->
<g id="edge51" class="edge"><title>Node34&#45;&gt;Node5</title>
<path fill="none" stroke="midnightblue" d="M1547.93,-115.084C1512.63,-107.468 1450.93,-93.1519 1399.5,-76 1353.54,-60.6732 1301.96,-38.0745 1271.14,-23.9622"/>
<polygon fill="midnightblue" stroke="midnightblue" points="1272.44,-20.7082 1261.9,-19.6984 1269.51,-27.0647 1272.44,-20.7082"/>
</g>
<!-- Node34&#45;&gt;Node35 -->
<g id="edge52" class="edge"><title>Node34&#45;&gt;Node35</title>
<path fill="none" stroke="midnightblue" d="M1591.28,-112.324C1605.77,-103.822 1628.07,-90.7288 1644.99,-80.7975"/>
<polygon fill="midnightblue" stroke="midnightblue" points="1646.9,-83.735 1653.76,-75.6545 1643.36,-77.6981 1646.9,-83.735"/>
</g>
<!-- Node36&#45;&gt;Node5 -->
<g id="edge54" class="edge"><title>Node36&#45;&gt;Node5</title>
<path fill="none" stroke="midnightblue" d="M1356.85,-112.368C1336.1,-93.8137 1287.01,-49.9129 1260.76,-26.4376"/>
<polygon fill="midnightblue" stroke="midnightblue" points="1262.89,-23.6487 1253.11,-19.5914 1258.23,-28.8665 1262.89,-23.6487"/>
</g>
<!-- Node36&#45;&gt;Node26 -->
<g id="edge55" class="edge"><title>Node36&#45;&gt;Node26</title>
<path fill="none" stroke="midnightblue" d="M1396.76,-112.444C1431.71,-102.564 1488.98,-86.3734 1524.89,-76.2208"/>
<polygon fill="midnightblue" stroke="midnightblue" points="1526.18,-79.4912 1534.85,-73.4026 1524.28,-72.7553 1526.18,-79.4912"/>
</g>
</g>
</svg>
