<?xml version="1.0" encoding="UTF-8" standalone="no"?>
<!DOCTYPE svg PUBLIC "-//W3C//DTD SVG 1.1//EN"
 "http://www.w3.org/Graphics/SVG/1.1/DTD/svg11.dtd">
<!-- Generated by graphviz version 2.40.1 (20161225.0304)
 -->
<!-- Title: /home/dominik/uni/MoonState/include/helloByeProto.hpp Pages: 1 -->
<svg width="1593pt" height="263pt"
 viewBox="0.00 0.00 1592.68 263.00" xmlns="http://www.w3.org/2000/svg" xmlns:xlink="http://www.w3.org/1999/xlink">
<g id="graph0" class="graph" transform="scale(1 1) rotate(0) translate(4 259)">
<title>/home/dominik/uni/MoonState/include/helloByeProto.hpp</title>
<!-- Node0 -->
<g id="node1" class="node">
<title>Node0</title>
<polygon fill="#bfbfbf" stroke="#000000" points="474.6829,-224.5 474.6829,-254.5 621.6829,-254.5 621.6829,-224.5 474.6829,-224.5"/>
<text text-anchor="start" x="482.6829" y="-242.5" font-family="Helvetica,sans-Serif" font-size="10.00" fill="#000000">/home/dominik/uni/MoonState</text>
<text text-anchor="middle" x="548.1829" y="-231.5" font-family="Helvetica,sans-Serif" font-size="10.00" fill="#000000">/include/helloByeProto.hpp</text>
</g>
<!-- Node1 -->
<g id="node2" class="node">
<title>Node1</title>
<polygon fill="none" stroke="#bfbfbf" points="893.1829,-56.5 893.1829,-75.5 937.1829,-75.5 937.1829,-56.5 893.1829,-56.5"/>
<text text-anchor="middle" x="915.1829" y="-63.5" font-family="Helvetica,sans-Serif" font-size="10.00" fill="#000000">mutex</text>
</g>
<!-- Node0&#45;&gt;Node1 -->
<g id="edge1" class="edge">
<title>Node0&#45;&gt;Node1</title>
<path fill="none" stroke="#191970" d="M580.1098,-224.4065C650.4198,-191.1673 817.768,-112.0531 885.7328,-79.9226"/>
<polygon fill="#191970" stroke="#191970" points="887.4711,-82.9723 895.0158,-75.534 884.4793,-76.6438 887.4711,-82.9723"/>
</g>
<!-- Node2 -->
<g id="node3" class="node">
<title>Node2</title>
<g id="a_node3"><a xlink:href="common_8hpp.html" target="_top" xlink:title="common.hpp">
<polygon fill="none" stroke="#000000" points="511.6829,-56.5 511.6829,-75.5 584.6829,-75.5 584.6829,-56.5 511.6829,-56.5"/>
<text text-anchor="middle" x="548.1829" y="-63.5" font-family="Helvetica,sans-Serif" font-size="10.00" fill="#000000">common.hpp</text>
</a>
</g>
</g>
<!-- Node0&#45;&gt;Node2 -->
<g id="edge2" class="edge">
<title>Node0&#45;&gt;Node2</title>
<path fill="none" stroke="#191970" d="M548.1829,-224.4065C548.1829,-193.1485 548.1829,-121.3214 548.1829,-86.1492"/>
<polygon fill="#191970" stroke="#191970" points="551.683,-85.738 548.1829,-75.738 544.683,-85.738 551.683,-85.738"/>
</g>
<!-- Node5 -->
<g id="node6" class="node">
<title>Node5</title>
<g id="a_node6"><a xlink:href="stateMachine_8hpp.html" target="_top" xlink:title="stateMachine.hpp">
<polygon fill="none" stroke="#000000" points="956.1829,-112.5 956.1829,-131.5 1050.1829,-131.5 1050.1829,-112.5 956.1829,-112.5"/>
<text text-anchor="middle" x="1003.1829" y="-119.5" font-family="Helvetica,sans-Serif" font-size="10.00" fill="#000000">stateMachine.hpp</text>
</a>
</g>
</g>
<!-- Node0&#45;&gt;Node5 -->
<g id="edge5" class="edge">
<title>Node0&#45;&gt;Node5</title>
<path fill="none" stroke="#191970" d="M614.0288,-224.4378C656.8925,-214.4758 713.966,-200.9159 764.1829,-188 833.0728,-170.2814 912.6087,-147.9376 960.3432,-134.3224"/>
<polygon fill="#191970" stroke="#191970" points="961.3775,-137.667 970.0312,-131.5543 959.4544,-130.9363 961.3775,-137.667"/>
</g>
<!-- Node22 -->
<g id="node23" class="node">
<title>Node22</title>
<g id="a_node23"><a xlink:href="helloByeProto_8cpp.html" target="_top" xlink:title="../src/helloByeProto.cpp">
<polygon fill="none" stroke="#000000" points="221.1829,-168.5 221.1829,-187.5 343.1829,-187.5 343.1829,-168.5 221.1829,-168.5"/>
<text text-anchor="middle" x="282.1829" y="-175.5" font-family="Helvetica,sans-Serif" font-size="10.00" fill="#000000">../src/helloByeProto.cpp</text>
</a>
</g>
</g>
<!-- Node0&#45;&gt;Node22 -->
<g id="edge30" class="edge">
<title>Node0&#45;&gt;Node22</title>
<path fill="none" stroke="#191970" d="M477.2149,-224.4554C429.9099,-213.8114 369.1744,-199.7356 328.0976,-189.8783"/>
<polygon fill="#191970" stroke="#191970" points="328.8982,-186.4711 318.3565,-187.5303 327.2579,-193.2762 328.8982,-186.4711"/>
</g>
<!-- Node3 -->
<g id="node4" class="node">
<title>Node3</title>
<polygon fill="none" stroke="#bfbfbf" points="331.1829,-.5 331.1829,-19.5 369.1829,-19.5 369.1829,-.5 331.1829,-.5"/>
<text text-anchor="middle" x="350.1829" y="-7.5" font-family="Helvetica,sans-Serif" font-size="10.00" fill="#000000">array</text>
</g>
<!-- Node2&#45;&gt;Node3 -->
<g id="edge3" class="edge">
<title>Node2&#45;&gt;Node3</title>
<path fill="none" stroke="#191970" d="M511.464,-56.9549C478.9639,-48.7519 430.0689,-35.9329 379.2427,-20.1701"/>
<polygon fill="#191970" stroke="#191970" points="379.9844,-16.7349 369.3954,-17.0862 377.8923,-23.4149 379.9844,-16.7349"/>
</g>
<!-- Node4 -->
<g id="node5" class="node">
<title>Node4</title>
<polygon fill="none" stroke="#bfbfbf" points="978.6829,-.5 978.6829,-19.5 1027.6829,-19.5 1027.6829,-.5 978.6829,-.5"/>
<text text-anchor="middle" x="1003.1829" y="-7.5" font-family="Helvetica,sans-Serif" font-size="10.00" fill="#000000">cassert</text>
</g>
<!-- Node2&#45;&gt;Node4 -->
<g id="edge4" class="edge">
<title>Node2&#45;&gt;Node4</title>
<path fill="none" stroke="#191970" d="M584.7755,-57.6855C587.9494,-57.0736 591.118,-56.501 594.1829,-56 738.0434,-32.4853 775.3752,-36.7185 920.1829,-20 935.9618,-18.1783 953.4181,-16.0866 968.2341,-14.2887"/>
<polygon fill="#191970" stroke="#191970" points="968.9905,-17.7226 978.4941,-13.0396 968.1444,-10.7739 968.9905,-17.7226"/>
</g>
<!-- Node5&#45;&gt;Node1 -->
<g id="edge13" class="edge">
<title>Node5&#45;&gt;Node1</title>
<path fill="none" stroke="#191970" d="M987.8545,-112.2455C974.3526,-103.6534 954.4708,-91.0014 938.9143,-81.1018"/>
<polygon fill="#191970" stroke="#191970" points="940.6514,-78.0587 930.3357,-75.6427 936.8932,-83.9643 940.6514,-78.0587"/>
</g>
<!-- Node5&#45;&gt;Node2 -->
<g id="edge24" class="edge">
<title>Node5&#45;&gt;Node2</title>
<path fill="none" stroke="#191970" d="M956.0434,-118.273C881.5717,-112.0407 731.979,-98.1279 595.0327,-75.9856"/>
<polygon fill="#191970" stroke="#191970" points="595.2105,-72.4683 584.7766,-74.3078 594.0803,-79.3764 595.2105,-72.4683"/>
</g>
<!-- Node5&#45;&gt;Node4 -->
<g id="edge6" class="edge">
<title>Node5&#45;&gt;Node4</title>
<path fill="none" stroke="#191970" d="M1003.1829,-112.4509C1003.1829,-94.184 1003.1829,-53.9553 1003.1829,-29.6976"/>
<polygon fill="#191970" stroke="#191970" points="1006.683,-29.5249 1003.1829,-19.5249 999.683,-29.5249 1006.683,-29.5249"/>
</g>
<!-- Node6 -->
<g id="node7" class="node">
<title>Node6</title>
<polygon fill="none" stroke="#bfbfbf" points="1031.1829,-56.5 1031.1829,-75.5 1077.1829,-75.5 1077.1829,-56.5 1031.1829,-56.5"/>
<text text-anchor="middle" x="1054.1829" y="-63.5" font-family="Helvetica,sans-Serif" font-size="10.00" fill="#000000">chrono</text>
</g>
<!-- Node5&#45;&gt;Node6 -->
<g id="edge7" class="edge">
<title>Node5&#45;&gt;Node6</title>
<path fill="none" stroke="#191970" d="M1012.0664,-112.2455C1019.3795,-104.2155 1029.922,-92.6394 1038.6296,-83.0781"/>
<polygon fill="#191970" stroke="#191970" points="1041.2556,-85.3928 1045.4012,-75.6427 1036.0802,-80.6795 1041.2556,-85.3928"/>
</g>
<!-- Node7 -->
<g id="node8" class="node">
<title>Node7</title>
<polygon fill="none" stroke="#bfbfbf" points="387.1829,-.5 387.1829,-19.5 433.1829,-19.5 433.1829,-.5 387.1829,-.5"/>
<text text-anchor="middle" x="410.1829" y="-7.5" font-family="Helvetica,sans-Serif" font-size="10.00" fill="#000000">cstdint</text>
</g>
<!-- Node5&#45;&gt;Node7 -->
<g id="edge8" class="edge">
<title>Node5&#45;&gt;Node7</title>
<path fill="none" stroke="#191970" d="M956.0558,-115.9406C910.6218,-109.2311 840.3839,-96.5573 782.1829,-76 763.8154,-69.5124 761.7602,-61.86 743.1829,-56 637.1216,-22.5441 504.4473,-13.4074 443.5469,-10.9223"/>
<polygon fill="#191970" stroke="#191970" points="443.4983,-7.4182 433.3747,-10.5428 443.2373,-14.4133 443.4983,-7.4182"/>
</g>
<!-- Node8 -->
<g id="node9" class="node">
<title>Node8</title>
<polygon fill="none" stroke="#bfbfbf" points="675.6829,-56.5 675.6829,-75.5 734.6829,-75.5 734.6829,-56.5 675.6829,-56.5"/>
<text text-anchor="middle" x="705.1829" y="-63.5" font-family="Helvetica,sans-Serif" font-size="10.00" fill="#000000">functional</text>
</g>
<!-- Node5&#45;&gt;Node8 -->
<g id="edge9" class="edge">
<title>Node5&#45;&gt;Node8</title>
<path fill="none" stroke="#191970" d="M955.7813,-114.0617C904.6709,-105.3515 820.9749,-90.6515 749.1829,-76 747.7438,-75.7063 746.2794,-75.402 744.8012,-75.0901"/>
<polygon fill="#191970" stroke="#191970" points="745.481,-71.6563 734.9663,-72.9568 743.997,-78.4972 745.481,-71.6563"/>
</g>
<!-- Node9 -->
<g id="node10" class="node">
<title>Node9</title>
<polygon fill="none" stroke="#bfbfbf" points="603.1829,-56.5 603.1829,-75.5 657.1829,-75.5 657.1829,-56.5 603.1829,-56.5"/>
<text text-anchor="middle" x="630.1829" y="-63.5" font-family="Helvetica,sans-Serif" font-size="10.00" fill="#000000">iostream</text>
</g>
<!-- Node5&#45;&gt;Node9 -->
<g id="edge10" class="edge">
<title>Node5&#45;&gt;Node9</title>
<path fill="none" stroke="#191970" d="M955.9571,-117.5907C892.3805,-111.207 775.6429,-97.9115 667.0248,-75.944"/>
<polygon fill="#191970" stroke="#191970" points="667.7134,-72.5124 657.214,-73.9312 666.3065,-79.3696 667.7134,-72.5124"/>
</g>
<!-- Node10 -->
<g id="node11" class="node">
<title>Node10</title>
<polygon fill="none" stroke="#bfbfbf" points="1095.1829,-56.5 1095.1829,-75.5 1135.1829,-75.5 1135.1829,-56.5 1095.1829,-56.5"/>
<text text-anchor="middle" x="1115.1829" y="-63.5" font-family="Helvetica,sans-Serif" font-size="10.00" fill="#000000">limits</text>
</g>
<!-- Node5&#45;&gt;Node10 -->
<g id="edge11" class="edge">
<title>Node5&#45;&gt;Node10</title>
<path fill="none" stroke="#191970" d="M1022.4364,-112.3733C1040.2541,-103.4644 1066.9576,-90.1127 1087.1423,-80.0203"/>
<polygon fill="#191970" stroke="#191970" points="1088.8017,-83.1038 1096.1807,-75.5011 1085.6711,-76.8428 1088.8017,-83.1038"/>
</g>
<!-- Node11 -->
<g id="node12" class="node">
<title>Node11</title>
<polygon fill="none" stroke="#bfbfbf" points="1153.1829,-56.5 1153.1829,-75.5 1205.1829,-75.5 1205.1829,-56.5 1153.1829,-56.5"/>
<text text-anchor="middle" x="1179.1829" y="-63.5" font-family="Helvetica,sans-Serif" font-size="10.00" fill="#000000">memory</text>
</g>
<!-- Node5&#45;&gt;Node11 -->
<g id="edge12" class="edge">
<title>Node5&#45;&gt;Node11</title>
<path fill="none" stroke="#191970" d="M1033.4384,-112.3733C1063.9891,-102.6526 1111.1642,-87.6423 1143.5171,-77.3482"/>
<polygon fill="#191970" stroke="#191970" points="1144.5789,-80.6833 1153.047,-74.316 1142.4565,-74.0129 1144.5789,-80.6833"/>
</g>
<!-- Node12 -->
<g id="node13" class="node">
<title>Node12</title>
<polygon fill="none" stroke="#bfbfbf" points="1351.6829,-56.5 1351.6829,-75.5 1394.6829,-75.5 1394.6829,-56.5 1351.6829,-56.5"/>
<text text-anchor="middle" x="1373.1829" y="-63.5" font-family="Helvetica,sans-Serif" font-size="10.00" fill="#000000">queue</text>
</g>
<!-- Node5&#45;&gt;Node12 -->
<g id="edge14" class="edge">
<title>Node5&#45;&gt;Node12</title>
<path fill="none" stroke="#191970" d="M1050.2625,-117.5274C1115.2394,-110.8987 1235.8683,-96.9497 1337.1829,-76 1338.6519,-75.6962 1340.1492,-75.3658 1341.6578,-75.0159"/>
<polygon fill="#191970" stroke="#191970" points="1342.7591,-78.3476 1351.5957,-72.5025 1341.0427,-71.5613 1342.7591,-78.3476"/>
</g>
<!-- Node13 -->
<g id="node14" class="node">
<title>Node13</title>
<polygon fill="none" stroke="#bfbfbf" points="852.6829,-.5 852.6829,-19.5 911.6829,-19.5 911.6829,-.5 852.6829,-.5"/>
<text text-anchor="middle" x="882.1829" y="-7.5" font-family="Helvetica,sans-Serif" font-size="10.00" fill="#000000">stdexcept</text>
</g>
<!-- Node5&#45;&gt;Node13 -->
<g id="edge15" class="edge">
<title>Node5&#45;&gt;Node13</title>
<path fill="none" stroke="#191970" d="M996.0712,-112.4178C985.8583,-98.9916 966.0692,-74.1879 946.1829,-56 933.8328,-44.7047 918.6743,-33.7021 906.2103,-25.2909"/>
<polygon fill="#191970" stroke="#191970" points="907.9614,-22.2529 897.6895,-19.6571 904.1007,-28.092 907.9614,-22.2529"/>
</g>
<!-- Node14 -->
<g id="node15" class="node">
<title>Node14</title>
<polygon fill="none" stroke="#bfbfbf" points="1412.6829,-56.5 1412.6829,-75.5 1495.6829,-75.5 1495.6829,-56.5 1412.6829,-56.5"/>
<text text-anchor="middle" x="1454.1829" y="-63.5" font-family="Helvetica,sans-Serif" font-size="10.00" fill="#000000">unordered_map</text>
</g>
<!-- Node5&#45;&gt;Node14 -->
<g id="edge16" class="edge">
<title>Node5&#45;&gt;Node14</title>
<path fill="none" stroke="#191970" d="M1050.4521,-117.786C1123.6296,-110.9945 1268.941,-96.4432 1402.4797,-76.0014"/>
<polygon fill="#191970" stroke="#191970" points="1403.1336,-79.4419 1412.4817,-74.4557 1402.0645,-72.5241 1403.1336,-79.4419"/>
</g>
<!-- Node15 -->
<g id="node16" class="node">
<title>Node15</title>
<polygon fill="none" stroke="#bfbfbf" points="1299.1829,-.5 1299.1829,-19.5 1343.1829,-19.5 1343.1829,-.5 1299.1829,-.5"/>
<text text-anchor="middle" x="1321.1829" y="-7.5" font-family="Helvetica,sans-Serif" font-size="10.00" fill="#000000">vector</text>
</g>
<!-- Node5&#45;&gt;Node15 -->
<g id="edge17" class="edge">
<title>Node5&#45;&gt;Node15</title>
<path fill="none" stroke="#191970" d="M1050.3067,-120.8682C1125.1966,-118.0958 1266.6619,-108.5747 1303.1829,-76 1316.0376,-64.5343 1320.1044,-44.8769 1321.2147,-29.9895"/>
<polygon fill="#191970" stroke="#191970" points="1324.7212,-29.869 1321.584,-19.7494 1317.7258,-29.6167 1324.7212,-29.869"/>
</g>
<!-- Node16 -->
<g id="node17" class="node">
<title>Node16</title>
<g id="a_node17"><a xlink:href="bufArray_8hpp.html" target="_top" xlink:title="bufArray.hpp">
<polygon fill="none" stroke="#000000" points="1223.6829,-56.5 1223.6829,-75.5 1294.6829,-75.5 1294.6829,-56.5 1223.6829,-56.5"/>
<text text-anchor="middle" x="1259.1829" y="-63.5" font-family="Helvetica,sans-Serif" font-size="10.00" fill="#000000">bufArray.hpp</text>
</a>
</g>
</g>
<!-- Node5&#45;&gt;Node16 -->
<g id="edge18" class="edge">
<title>Node5&#45;&gt;Node16</title>
<path fill="none" stroke="#191970" d="M1047.2438,-112.4482C1087.8531,-103.6326 1150.0684,-90.0962 1213.542,-76.135"/>
<polygon fill="#191970" stroke="#191970" points="1214.3104,-79.5498 1223.3244,-73.9822 1212.8058,-72.7134 1214.3104,-79.5498"/>
</g>
<!-- Node18 -->
<g id="node19" class="node">
<title>Node18</title>
<g id="a_node19"><a xlink:href="exceptions_8hpp.html" target="_top" xlink:title="exceptions.hpp">
<polygon fill="none" stroke="#000000" points="791.6829,-56.5 791.6829,-75.5 874.6829,-75.5 874.6829,-56.5 791.6829,-56.5"/>
<text text-anchor="middle" x="833.1829" y="-63.5" font-family="Helvetica,sans-Serif" font-size="10.00" fill="#000000">exceptions.hpp</text>
</a>
</g>
</g>
<!-- Node5&#45;&gt;Node18 -->
<g id="edge25" class="edge">
<title>Node5&#45;&gt;Node18</title>
<path fill="none" stroke="#191970" d="M973.9589,-112.3733C945.6905,-103.0613 902.6864,-88.8953 871.6485,-78.671"/>
<polygon fill="#191970" stroke="#191970" points="872.6186,-75.3056 862.0256,-75.5011 870.4285,-81.9542 872.6186,-75.3056"/>
</g>
<!-- Node20 -->
<g id="node21" class="node">
<title>Node20</title>
<g id="a_node21"><a xlink:href="spinlock_8hpp.html" target="_top" xlink:title="spinlock.hpp">
<polygon fill="none" stroke="#000000" points="1513.6829,-56.5 1513.6829,-75.5 1584.6829,-75.5 1584.6829,-56.5 1513.6829,-56.5"/>
<text text-anchor="middle" x="1549.1829" y="-63.5" font-family="Helvetica,sans-Serif" font-size="10.00" fill="#000000">spinlock.hpp</text>
</a>
</g>
</g>
<!-- Node5&#45;&gt;Node20 -->
<g id="edge28" class="edge">
<title>Node5&#45;&gt;Node20</title>
<path fill="none" stroke="#191970" d="M1050.5036,-119.752C1138.1287,-115.1366 1331.6722,-102.825 1503.2718,-76.1457"/>
<polygon fill="#191970" stroke="#191970" points="1503.9061,-79.589 1513.2397,-74.5756 1502.8169,-72.6742 1503.9061,-79.589"/>
</g>
<!-- Node16&#45;&gt;Node4 -->
<g id="edge19" class="edge">
<title>Node16&#45;&gt;Node4</title>
<path fill="none" stroke="#191970" d="M1223.3244,-58.0178C1220.2328,-57.3338 1217.153,-56.6538 1214.1829,-56 1152.0733,-42.3288 1079.6345,-26.5789 1037.8231,-17.5072"/>
<polygon fill="#191970" stroke="#191970" points="1038.3926,-14.0494 1027.8779,-15.3501 1036.9087,-20.8904 1038.3926,-14.0494"/>
</g>
<!-- Node16&#45;&gt;Node7 -->
<g id="edge20" class="edge">
<title>Node16&#45;&gt;Node7</title>
<path fill="none" stroke="#191970" d="M1223.4163,-57.5051C1220.3047,-56.9324 1217.1952,-56.4181 1214.1829,-56 1137.0825,-45.2991 585.695,-18.4054 443.5452,-11.5895"/>
<polygon fill="#191970" stroke="#191970" points="443.4401,-8.0805 433.2842,-11.0983 443.1054,-15.0725 443.4401,-8.0805"/>
</g>
<!-- Node16&#45;&gt;Node13 -->
<g id="edge21" class="edge">
<title>Node16&#45;&gt;Node13</title>
<path fill="none" stroke="#191970" d="M1223.3744,-57.7682C1220.2719,-57.1383 1217.1759,-56.539 1214.1829,-56 1109.4289,-37.1356 984.8728,-21.7443 922.2942,-14.494"/>
<polygon fill="#191970" stroke="#191970" points="922.406,-10.9838 912.0715,-13.3183 921.6061,-17.938 922.406,-10.9838"/>
</g>
<!-- Node16&#45;&gt;Node15 -->
<g id="edge23" class="edge">
<title>Node16&#45;&gt;Node15</title>
<path fill="none" stroke="#191970" d="M1269.9825,-56.2455C1279.0507,-48.0549 1292.2035,-36.1749 1302.9074,-26.5069"/>
<polygon fill="#191970" stroke="#191970" points="1305.4321,-28.9429 1310.5071,-19.6427 1300.74,-23.7482 1305.4321,-28.9429"/>
</g>
<!-- Node17 -->
<g id="node18" class="node">
<title>Node17</title>
<polygon fill="none" stroke="#bfbfbf" points="1239.1829,-.5 1239.1829,-19.5 1279.1829,-19.5 1279.1829,-.5 1239.1829,-.5"/>
<text text-anchor="middle" x="1259.1829" y="-7.5" font-family="Helvetica,sans-Serif" font-size="10.00" fill="#000000">utility</text>
</g>
<!-- Node16&#45;&gt;Node17 -->
<g id="edge22" class="edge">
<title>Node16&#45;&gt;Node17</title>
<path fill="none" stroke="#191970" d="M1259.1829,-56.2455C1259.1829,-48.9382 1259.1829,-38.6944 1259.1829,-29.7046"/>
<polygon fill="#191970" stroke="#191970" points="1262.683,-29.6426 1259.1829,-19.6427 1255.683,-29.6427 1262.683,-29.6426"/>
</g>
<!-- Node18&#45;&gt;Node13 -->
<g id="edge27" class="edge">
<title>Node18&#45;&gt;Node13</title>
<path fill="none" stroke="#191970" d="M841.7181,-56.2455C848.6741,-48.2958 858.6712,-36.8706 866.988,-27.3656"/>
<polygon fill="#191970" stroke="#191970" points="869.7945,-29.4732 873.7456,-19.6427 864.5265,-24.8637 869.7945,-29.4732"/>
</g>
<!-- Node19 -->
<g id="node20" class="node">
<title>Node19</title>
<polygon fill="none" stroke="#bfbfbf" points="638.6829,-.5 638.6829,-19.5 697.6829,-19.5 697.6829,-.5 638.6829,-.5"/>
<text text-anchor="middle" x="668.1829" y="-7.5" font-family="Helvetica,sans-Serif" font-size="10.00" fill="#000000">exception</text>
</g>
<!-- Node18&#45;&gt;Node19 -->
<g id="edge26" class="edge">
<title>Node18&#45;&gt;Node19</title>
<path fill="none" stroke="#191970" d="M804.8184,-56.3733C777.5002,-47.1016 736.0033,-33.0178 705.9091,-22.804"/>
<polygon fill="#191970" stroke="#191970" points="706.7717,-19.4008 696.1773,-19.5011 704.5219,-26.0294 706.7717,-19.4008"/>
</g>
<!-- Node21 -->
<g id="node22" class="node">
<title>Node21</title>
<polygon fill="none" stroke="#bfbfbf" points="1526.1829,-.5 1526.1829,-19.5 1572.1829,-19.5 1572.1829,-.5 1526.1829,-.5"/>
<text text-anchor="middle" x="1549.1829" y="-7.5" font-family="Helvetica,sans-Serif" font-size="10.00" fill="#000000">atomic</text>
</g>
<!-- Node20&#45;&gt;Node21 -->
<g id="edge29" class="edge">
<title>Node20&#45;&gt;Node21</title>
<path fill="none" stroke="#191970" d="M1549.1829,-56.2455C1549.1829,-48.9382 1549.1829,-38.6944 1549.1829,-29.7046"/>
<polygon fill="#191970" stroke="#191970" points="1552.683,-29.6426 1549.1829,-19.6427 1545.683,-29.6427 1552.683,-29.6426"/>
</g>
<!-- Node22&#45;&gt;Node0 -->
<g id="edge51" class="edge">
<title>Node22&#45;&gt;Node0</title>
<path fill="none" stroke="#191970" d="M328.4505,-187.5303C370.0781,-196.7363 431.6829,-210.8946 479.115,-222.1097"/>
<polygon fill="#191970" stroke="#191970" points="478.4714,-225.5541 489.0091,-224.4554 480.0862,-218.7429 478.4714,-225.5541"/>
</g>
<!-- Node23 -->
<g id="node24" class="node">
<title>Node23</title>
<polygon fill="none" stroke="#bfbfbf" points="12.6829,-56.5 12.6829,-75.5 57.6829,-75.5 57.6829,-56.5 12.6829,-56.5"/>
<text text-anchor="middle" x="35.1829" y="-63.5" font-family="Helvetica,sans-Serif" font-size="10.00" fill="#000000">cstdlib</text>
</g>
<!-- Node22&#45;&gt;Node23 -->
<g id="edge31" class="edge">
<title>Node22&#45;&gt;Node23</title>
<path fill="none" stroke="#191970" d="M227.7354,-168.4217C194.8103,-161.2667 152.6743,-149.6346 118.1829,-132 92.778,-119.011 67.7127,-97.5591 51.8872,-82.652"/>
<polygon fill="#191970" stroke="#191970" points="54.1298,-79.9524 44.5008,-75.5326 49.2719,-84.9924 54.1298,-79.9524"/>
</g>
<!-- Node24 -->
<g id="node25" class="node">
<title>Node24</title>
<polygon fill="none" stroke="#bfbfbf" points="57.1829,-.5 57.1829,-19.5 109.1829,-19.5 109.1829,-.5 57.1829,-.5"/>
<text text-anchor="middle" x="83.1829" y="-7.5" font-family="Helvetica,sans-Serif" font-size="10.00" fill="#000000">sstream</text>
</g>
<!-- Node22&#45;&gt;Node24 -->
<g id="edge32" class="edge">
<title>Node22&#45;&gt;Node24</title>
<path fill="none" stroke="#191970" d="M220.8441,-169.6763C180.9962,-162.8342 128.5858,-151.0857 85.1829,-132 44.7841,-114.2353 23.7894,-115.026 3.1829,-76 -9.5086,-51.9638 20.5869,-33.3249 47.4204,-22.0761"/>
<polygon fill="#191970" stroke="#191970" points="49.0545,-25.1941 57.0736,-18.2698 46.4868,-18.682 49.0545,-25.1941"/>
</g>
<!-- Node25 -->
<g id="node26" class="node">
<title>Node25</title>
<g id="a_node26"><a xlink:href="IPv4__5TupleL2Ident_8hpp.html" target="_top" xlink:title="IPv4_5TupleL2Ident.hpp">
<polygon fill="none" stroke="#000000" points="384.1829,-112.5 384.1829,-131.5 506.1829,-131.5 506.1829,-112.5 384.1829,-112.5"/>
<text text-anchor="middle" x="445.1829" y="-119.5" font-family="Helvetica,sans-Serif" font-size="10.00" fill="#000000">IPv4_5TupleL2Ident.hpp</text>
</a>
</g>
</g>
<!-- Node22&#45;&gt;Node25 -->
<g id="edge33" class="edge">
<title>Node22&#45;&gt;Node25</title>
<path fill="none" stroke="#191970" d="M310.2036,-168.3733C337.1907,-159.1016 378.1846,-145.0178 407.9141,-134.804"/>
<polygon fill="#191970" stroke="#191970" points="409.2077,-138.0605 417.5279,-131.5011 406.9332,-131.4403 409.2077,-138.0605"/>
</g>
<!-- Node27 -->
<g id="node28" class="node">
<title>Node27</title>
<g id="a_node28"><a xlink:href="headers_8hpp.html" target="_top" xlink:title="headers.hpp">
<polygon fill="none" stroke="#000000" points="195.1829,-56.5 195.1829,-75.5 265.1829,-75.5 265.1829,-56.5 195.1829,-56.5"/>
<text text-anchor="middle" x="230.1829" y="-63.5" font-family="Helvetica,sans-Serif" font-size="10.00" fill="#000000">headers.hpp</text>
</a>
</g>
</g>
<!-- Node22&#45;&gt;Node27 -->
<g id="edge50" class="edge">
<title>Node22&#45;&gt;Node27</title>
<path fill="none" stroke="#191970" d="M277.7494,-168.4509C269.1532,-149.936 250.0818,-108.8591 238.8737,-84.7187"/>
<polygon fill="#191970" stroke="#191970" points="241.9909,-83.1211 234.6052,-75.5249 235.6418,-86.0689 241.9909,-83.1211"/>
</g>
<!-- Node30 -->
<g id="node31" class="node">
<title>Node30</title>
<g id="a_node31"><a xlink:href="mbuf_8hpp.html" target="_top" xlink:title="mbuf.hpp">
<polygon fill="none" stroke="#000000" points="281.6829,-112.5 281.6829,-131.5 338.6829,-131.5 338.6829,-112.5 281.6829,-112.5"/>
<text text-anchor="middle" x="310.1829" y="-119.5" font-family="Helvetica,sans-Serif" font-size="10.00" fill="#000000">mbuf.hpp</text>
</a>
</g>
</g>
<!-- Node22&#45;&gt;Node30 -->
<g id="edge52" class="edge">
<title>Node22&#45;&gt;Node30</title>
<path fill="none" stroke="#191970" d="M287.0601,-168.2455C290.8343,-160.6973 296.175,-150.0158 300.7731,-140.8197"/>
<polygon fill="#191970" stroke="#191970" points="304.0199,-142.1522 305.3616,-131.6427 297.7589,-139.0217 304.0199,-142.1522"/>
</g>
<!-- Node32 -->
<g id="node33" class="node">
<title>Node32</title>
<g id="a_node33"><a xlink:href="samplePacket_8hpp.html" target="_top" xlink:title="samplePacket.hpp">
<polygon fill="none" stroke="#000000" points="127.1829,-112.5 127.1829,-131.5 225.1829,-131.5 225.1829,-112.5 127.1829,-112.5"/>
<text text-anchor="middle" x="176.1829" y="-119.5" font-family="Helvetica,sans-Serif" font-size="10.00" fill="#000000">samplePacket.hpp</text>
</a>
</g>
</g>
<!-- Node22&#45;&gt;Node32 -->
<g id="edge55" class="edge">
<title>Node22&#45;&gt;Node32</title>
<path fill="none" stroke="#191970" d="M263.7191,-168.2455C247.0755,-159.4527 222.3836,-146.4079 203.4637,-136.4125"/>
<polygon fill="#191970" stroke="#191970" points="204.912,-133.2193 194.4351,-131.6427 201.6421,-139.4086 204.912,-133.2193"/>
</g>
<!-- Node25&#45;&gt;Node2 -->
<g id="edge41" class="edge">
<title>Node25&#45;&gt;Node2</title>
<path fill="none" stroke="#191970" d="M463.1241,-112.2455C479.2229,-103.4928 503.0708,-90.527 521.422,-80.5496"/>
<polygon fill="#191970" stroke="#191970" points="523.3336,-83.4942 530.4473,-75.6427 519.99,-77.3444 523.3336,-83.4942"/>
</g>
<!-- Node25&#45;&gt;Node7 -->
<g id="edge34" class="edge">
<title>Node25&#45;&gt;Node7</title>
<path fill="none" stroke="#191970" d="M442.1988,-112.4509C436.4646,-94.1013 423.805,-53.5908 416.2358,-29.3693"/>
<polygon fill="#191970" stroke="#191970" points="419.4829,-28.0257 413.1594,-19.5249 412.8016,-30.1137 419.4829,-28.0257"/>
</g>
<!-- Node25&#45;&gt;Node8 -->
<g id="edge36" class="edge">
<title>Node25&#45;&gt;Node8</title>
<path fill="none" stroke="#191970" d="M494.0425,-112.4978C536.7268,-104.0461 600.5897,-91.0397 665.4181,-76.1001"/>
<polygon fill="#191970" stroke="#191970" points="666.4556,-79.4525 675.4068,-73.7844 664.8747,-72.6333 666.4556,-79.4525"/>
</g>
<!-- Node25&#45;&gt;Node9 -->
<g id="edge37" class="edge">
<title>Node25&#45;&gt;Node9</title>
<path fill="none" stroke="#191970" d="M476.9856,-112.3733C509.331,-102.5822 559.4048,-87.4247 593.4293,-77.1254"/>
<polygon fill="#191970" stroke="#191970" points="594.4465,-80.4744 603.0036,-74.2273 592.4184,-73.7746 594.4465,-80.4744"/>
</g>
<!-- Node25&#45;&gt;Node13 -->
<g id="edge39" class="edge">
<title>Node25&#45;&gt;Node13</title>
<path fill="none" stroke="#191970" d="M450.3385,-112.3825C458.9065,-97.4628 477.596,-69.0971 502.1829,-56 531.797,-40.225 751.2007,-20.7098 842.5001,-13.1745"/>
<polygon fill="#191970" stroke="#191970" points="842.7863,-16.6629 852.467,-12.3576 842.2144,-9.6863 842.7863,-16.6629"/>
</g>
<!-- Node25&#45;&gt;Node18 -->
<g id="edge49" class="edge">
<title>Node25&#45;&gt;Node18</title>
<path fill="none" stroke="#191970" d="M506.2347,-113.1884C582.1055,-102.238 710.2484,-83.7431 781.4907,-73.4607"/>
<polygon fill="#191970" stroke="#191970" points="782.1786,-76.8978 791.576,-72.0051 781.1785,-69.9696 782.1786,-76.8978"/>
</g>
<!-- Node25&#45;&gt;Node19 -->
<g id="edge35" class="edge">
<title>Node25&#45;&gt;Node19</title>
<path fill="none" stroke="#191970" d="M445.8747,-112.3309C447.4468,-97.8618 452.5676,-70.7084 469.1829,-56 492.4702,-35.3854 577.2783,-21.4238 628.3634,-14.6766"/>
<polygon fill="#191970" stroke="#191970" points="628.9383,-18.1316 638.4104,-13.385 628.0457,-11.1888 628.9383,-18.1316"/>
</g>
<!-- Node25&#45;&gt;Node24 -->
<g id="edge38" class="edge">
<title>Node25&#45;&gt;Node24</title>
<path fill="none" stroke="#191970" d="M384.1592,-113.9791C319.3139,-104.9577 221.3779,-89.7651 186.1829,-76 169.536,-69.4892 130.249,-43.0056 105.2923,-25.6296"/>
<polygon fill="#191970" stroke="#191970" points="107.0138,-22.5622 96.8146,-19.6938 102.9989,-28.2964 107.0138,-22.5622"/>
</g>
<!-- Node26 -->
<g id="node27" class="node">
<title>Node26</title>
<polygon fill="none" stroke="#bfbfbf" points="271.6829,-.5 271.6829,-19.5 312.6829,-19.5 312.6829,-.5 271.6829,-.5"/>
<text text-anchor="middle" x="292.1829" y="-7.5" font-family="Helvetica,sans-Serif" font-size="10.00" fill="#000000">string</text>
</g>
<!-- Node25&#45;&gt;Node26 -->
<g id="edge40" class="edge">
<title>Node25&#45;&gt;Node26</title>
<path fill="none" stroke="#191970" d="M432.1382,-112.4509C405.7163,-93.1094 345.6599,-49.1465 313.4805,-25.5904"/>
<polygon fill="#191970" stroke="#191970" points="315.3311,-22.6075 305.1946,-19.5249 311.1963,-28.2559 315.3311,-22.6075"/>
</g>
<!-- Node25&#45;&gt;Node27 -->
<g id="edge42" class="edge">
<title>Node25&#45;&gt;Node27</title>
<path fill="none" stroke="#191970" d="M408.2231,-112.3733C371.3336,-102.7648 314.6023,-87.9883 275.1284,-77.7067"/>
<polygon fill="#191970" stroke="#191970" points="275.7961,-74.2639 265.2368,-75.1303 274.0317,-81.0379 275.7961,-74.2639"/>
</g>
<!-- Node27&#45;&gt;Node3 -->
<g id="edge43" class="edge">
<title>Node27&#45;&gt;Node3</title>
<path fill="none" stroke="#191970" d="M250.8117,-56.3733C270.425,-47.2204 300.0877,-33.3778 321.9008,-23.1983"/>
<polygon fill="#191970" stroke="#191970" points="323.4292,-26.3475 331.011,-18.9469 320.469,-20.0042 323.4292,-26.3475"/>
</g>
<!-- Node27&#45;&gt;Node7 -->
<g id="edge44" class="edge">
<title>Node27&#45;&gt;Node7</title>
<path fill="none" stroke="#191970" d="M260.7999,-56.499C288.7442,-47.824 331.446,-34.5595 377.2868,-20.2763"/>
<polygon fill="#191970" stroke="#191970" points="378.6065,-23.5311 387.1122,-17.2142 376.5237,-16.8482 378.6065,-23.5311"/>
</g>
<!-- Node27&#45;&gt;Node24 -->
<g id="edge46" class="edge">
<title>Node27&#45;&gt;Node24</title>
<path fill="none" stroke="#191970" d="M204.9127,-56.3733C180.7863,-47.1822 144.2467,-33.2624 117.4952,-23.0713"/>
<polygon fill="#191970" stroke="#191970" points="118.7143,-19.7904 108.1234,-19.5011 116.2222,-26.3318 118.7143,-19.7904"/>
</g>
<!-- Node27&#45;&gt;Node26 -->
<g id="edge47" class="edge">
<title>Node27&#45;&gt;Node26</title>
<path fill="none" stroke="#191970" d="M240.9825,-56.2455C250.0507,-48.0549 263.2035,-36.1749 273.9074,-26.5069"/>
<polygon fill="#191970" stroke="#191970" points="276.4321,-28.9429 281.5071,-19.6427 271.74,-23.7482 276.4321,-28.9429"/>
</g>
<!-- Node28 -->
<g id="node29" class="node">
<title>Node28</title>
<polygon fill="none" stroke="#bfbfbf" points="207.1829,-.5 207.1829,-19.5 253.1829,-19.5 253.1829,-.5 207.1829,-.5"/>
<text text-anchor="middle" x="230.1829" y="-7.5" font-family="Helvetica,sans-Serif" font-size="10.00" fill="#000000">cstring</text>
</g>
<!-- Node27&#45;&gt;Node28 -->
<g id="edge45" class="edge">
<title>Node27&#45;&gt;Node28</title>
<path fill="none" stroke="#191970" d="M230.1829,-56.2455C230.1829,-48.9382 230.1829,-38.6944 230.1829,-29.7046"/>
<polygon fill="#191970" stroke="#191970" points="233.683,-29.6426 230.1829,-19.6427 226.683,-29.6427 233.683,-29.6426"/>
</g>
<!-- Node29 -->
<g id="node30" class="node">
<title>Node29</title>
<polygon fill="none" stroke="#bfbfbf" points="127.1829,-.5 127.1829,-19.5 189.1829,-19.5 189.1829,-.5 127.1829,-.5"/>
<text text-anchor="middle" x="158.1829" y="-7.5" font-family="Helvetica,sans-Serif" font-size="10.00" fill="#000000">arpa/inet.h</text>
</g>
<!-- Node27&#45;&gt;Node29 -->
<g id="edge48" class="edge">
<title>Node27&#45;&gt;Node29</title>
<path fill="none" stroke="#191970" d="M217.6415,-56.2455C206.9042,-47.8943 191.2356,-35.7076 178.6783,-25.9408"/>
<polygon fill="#191970" stroke="#191970" points="180.623,-23.0194 170.5806,-19.6427 176.3254,-28.5449 180.623,-23.0194"/>
</g>
<!-- Node30&#45;&gt;Node7 -->
<g id="edge53" class="edge">
<title>Node30&#45;&gt;Node7</title>
<path fill="none" stroke="#191970" d="M318.7089,-112.4509C335.6091,-93.5227 373.5632,-51.014 394.8902,-27.1279"/>
<polygon fill="#191970" stroke="#191970" points="397.6292,-29.3154 401.6786,-19.5249 392.4076,-24.6532 397.6292,-29.3154"/>
</g>
<!-- Node31 -->
<g id="node32" class="node">
<title>Node31</title>
<polygon fill="none" stroke="#bfbfbf" points="75.6829,-56.5 75.6829,-75.5 138.6829,-75.5 138.6829,-56.5 75.6829,-56.5"/>
<text text-anchor="middle" x="107.1829" y="-63.5" font-family="Helvetica,sans-Serif" font-size="10.00" fill="#000000">rte_mbuf.h</text>
</g>
<!-- Node30&#45;&gt;Node31 -->
<g id="edge54" class="edge">
<title>Node30&#45;&gt;Node31</title>
<path fill="none" stroke="#191970" d="M281.5285,-114.0953C246.8425,-104.5268 188.1679,-88.3407 148.5719,-77.4177"/>
<polygon fill="#191970" stroke="#191970" points="149.2644,-73.978 138.6937,-74.6926 147.4029,-80.726 149.2644,-73.978"/>
</g>
<!-- Node32&#45;&gt;Node7 -->
<g id="edge56" class="edge">
<title>Node32&#45;&gt;Node7</title>
<path fill="none" stroke="#191970" d="M196.8678,-112.3855C216.7271,-103.1324 247.5529,-88.7109 274.1829,-76 311.2599,-58.3026 353.8461,-37.5698 381.3398,-24.1314"/>
<polygon fill="#191970" stroke="#191970" points="382.9562,-27.237 390.4014,-19.6992 379.8805,-20.9489 382.9562,-27.237"/>
</g>
<!-- Node32&#45;&gt;Node23 -->
<g id="edge57" class="edge">
<title>Node32&#45;&gt;Node23</title>
<path fill="none" stroke="#191970" d="M151.9442,-112.3733C128.4851,-103.0562 92.7906,-88.8797 67.0442,-78.6541"/>
<polygon fill="#191970" stroke="#191970" points="68.2957,-75.3853 57.71,-74.9469 65.7119,-81.891 68.2957,-75.3853"/>
</g>
</g>
</svg>
