<?xml version="1.0" encoding="UTF-8" standalone="no"?>
<!DOCTYPE svg PUBLIC "-//W3C//DTD SVG 1.1//EN"
 "http://www.w3.org/Graphics/SVG/1.1/DTD/svg11.dtd">
<!-- Generated by graphviz version 2.40.1 (20161225.0304)
 -->
<!-- Title: HelloBye3_Client_getPkts Pages: 1 -->
<svg width="604pt" height="66pt"
 viewBox="0.00 0.00 604.00 66.00" xmlns="http://www.w3.org/2000/svg" xmlns:xlink="http://www.w3.org/1999/xlink">
<g id="graph0" class="graph" transform="scale(1 1) rotate(0) translate(4 62)">
<title>HelloBye3_Client_getPkts</title>
<!-- Node3 -->
<g id="node1" class="node">
<title>Node3</title>
<polygon fill="#bfbfbf" stroke="#000000" points="0,-19.5 0,-38.5 131,-38.5 131,-19.5 0,-19.5"/>
<text text-anchor="middle" x="65.5" y="-26.5" font-family="Helvetica,sans-Serif" font-size="10.00" fill="#000000">HelloBye3_Client_getPkts</text>
</g>
<!-- Node4 -->
<g id="node2" class="node">
<title>Node4</title>
<g id="a_node2"><a xlink:href="classBufArray.html#a65ec6fb832e58b88b2be695c4d30a437" target="_top" xlink:title="Get all the packets which are to be sent. ">
<polygon fill="none" stroke="#000000" points="318.5,-38.5 318.5,-57.5 435.5,-57.5 435.5,-38.5 318.5,-38.5"/>
<text text-anchor="middle" x="377" y="-45.5" font-family="Helvetica,sans-Serif" font-size="10.00" fill="#000000">BufArray::getSendBufs</text>
</a>
</g>
</g>
<!-- Node3&#45;&gt;Node4 -->
<g id="edge1" class="edge">
<title>Node3&#45;&gt;Node4</title>
<path fill="none" stroke="#191970" d="M131.1805,-33.0062C183.1399,-36.1755 255.4759,-40.5876 308.2232,-43.8049"/>
<polygon fill="#191970" stroke="#191970" points="308.305,-47.3164 318.4996,-44.4318 308.7313,-40.3293 308.305,-47.3164"/>
</g>
<!-- Node6 -->
<g id="node4" class="node">
<title>Node6</title>
<g id="a_node4"><a xlink:href="classBufArray.html#a81ad0c7cdb324569ecfb42e735e653c9" target="_top" xlink:title="Get all the packets which are to be freed. ">
<polygon fill="none" stroke="#000000" points="167,-.5 167,-19.5 281,-19.5 281,-.5 167,-.5"/>
<text text-anchor="middle" x="224" y="-7.5" font-family="Helvetica,sans-Serif" font-size="10.00" fill="#000000">BufArray::getFreeBufs</text>
</a>
</g>
</g>
<!-- Node3&#45;&gt;Node6 -->
<g id="edge3" class="edge">
<title>Node3&#45;&gt;Node6</title>
<path fill="none" stroke="#191970" d="M131.3413,-21.1074C139.6859,-20.1071 148.2348,-19.0823 156.6032,-18.0791"/>
<polygon fill="#191970" stroke="#191970" points="157.1833,-21.5347 166.6956,-16.8693 156.3501,-14.5845 157.1833,-21.5347"/>
</g>
<!-- Node5 -->
<g id="node3" class="node">
<title>Node5</title>
<g id="a_node3"><a xlink:href="classBufArray.html#a1d52cd9f63feaa98f800bcae8277e675" target="_top" xlink:title="Get the number of packets currently marked as send. ">
<polygon fill="none" stroke="#000000" points="473,-19.5 473,-38.5 596,-38.5 596,-19.5 473,-19.5"/>
<text text-anchor="middle" x="534.5" y="-26.5" font-family="Helvetica,sans-Serif" font-size="10.00" fill="#000000">BufArray::getSendCount</text>
</a>
</g>
</g>
<!-- Node4&#45;&gt;Node5 -->
<g id="edge2" class="edge">
<title>Node4&#45;&gt;Node5</title>
<path fill="none" stroke="#191970" d="M435.6472,-40.9251C444.48,-39.8596 453.6743,-38.7504 462.744,-37.6563"/>
<polygon fill="#191970" stroke="#191970" points="463.3962,-41.1031 472.905,-36.4305 462.5578,-34.1535 463.3962,-41.1031"/>
</g>
<!-- Node7 -->
<g id="node5" class="node">
<title>Node7</title>
<g id="a_node5"><a xlink:href="classBufArray.html#a77223130b4dca30992a335dbff4b4781" target="_top" xlink:title="Get the number of packets currently marked as free. ">
<polygon fill="none" stroke="#000000" points="317,-.5 317,-19.5 437,-19.5 437,-.5 317,-.5"/>
<text text-anchor="middle" x="377" y="-7.5" font-family="Helvetica,sans-Serif" font-size="10.00" fill="#000000">BufArray::getFreeCount</text>
</a>
</g>
</g>
<!-- Node6&#45;&gt;Node7 -->
<g id="edge4" class="edge">
<title>Node6&#45;&gt;Node7</title>
<path fill="none" stroke="#191970" d="M281.4069,-10C289.6656,-10 298.2416,-10 306.7151,-10"/>
<polygon fill="#191970" stroke="#191970" points="306.9721,-13.5001 316.972,-10 306.972,-6.5001 306.9721,-13.5001"/>
</g>
<!-- Node7&#45;&gt;Node5 -->
<g id="edge5" class="edge">
<title>Node7&#45;&gt;Node5</title>
<path fill="none" stroke="#191970" d="M437.4432,-17.2916C445.7983,-18.2995 454.4444,-19.3425 462.9764,-20.3718"/>
<polygon fill="#191970" stroke="#191970" points="462.5684,-23.8478 472.9156,-21.5708 463.4068,-16.8982 462.5684,-23.8478"/>
</g>
</g>
</svg>
