<?xml version="1.0" encoding="UTF-8" standalone="no"?>
<!DOCTYPE svg PUBLIC "-//W3C//DTD SVG 1.1//EN"
 "http://www.w3.org/Graphics/SVG/1.1/DTD/svg11.dtd">
<!-- Generated by graphviz version 2.40.1 (20161225.0304)
 -->
<!-- Title: HelloByeClient_config Pages: 1 -->
<svg width="285pt" height="186pt"
 viewBox="0.00 0.00 285.00 186.00" xmlns="http://www.w3.org/2000/svg" xmlns:xlink="http://www.w3.org/1999/xlink">
<g id="graph0" class="graph" transform="scale(1 1) rotate(0) translate(4 182)">
<title>HelloByeClient_config</title>
<!-- Node0 -->
<g id="node1" class="node">
<title>Node0</title>
<polygon fill="#bfbfbf" stroke="#000000" points="0,-79 0,-98 113,-98 113,-79 0,-79"/>
<text text-anchor="middle" x="56.5" y="-86" font-family="Helvetica,sans-Serif" font-size="10.00" fill="#000000">HelloByeClient_config</text>
</g>
<!-- Node1 -->
<g id="node2" class="node">
<title>Node1</title>
<g id="a_node2"><a xlink:href="classHelloBye_1_1HelloByeClientConfig.html#a2cd013d248d039b557f417dd178f2186" target="_top" xlink:title="HelloBye::HelloByeClient\lConfig::createInstance">
<polygon fill="none" stroke="#000000" points="149,-147.5 149,-177.5 277,-177.5 277,-147.5 149,-147.5"/>
<text text-anchor="start" x="157" y="-165.5" font-family="Helvetica,sans-Serif" font-size="10.00" fill="#000000">HelloBye::HelloByeClient</text>
<text text-anchor="middle" x="213" y="-154.5" font-family="Helvetica,sans-Serif" font-size="10.00" fill="#000000">Config::createInstance</text>
</a>
</g>
</g>
<!-- Node0&#45;&gt;Node1 -->
<g id="edge1" class="edge">
<title>Node0&#45;&gt;Node1</title>
<path fill="none" stroke="#191970" d="M72.5329,-98.0393C90.714,-108.6492 121.4196,-125.9457 149,-138.5 152.8274,-140.2422 156.8215,-141.9619 160.8629,-143.6321"/>
<polygon fill="#191970" stroke="#191970" points="159.7381,-146.9519 170.3223,-147.4262 162.344,-140.455 159.7381,-146.9519"/>
</g>
<!-- Node2 -->
<g id="node3" class="node">
<title>Node2</title>
<g id="a_node3"><a xlink:href="classHelloBye_1_1HelloByeClientConfig.html#ad2c4d5874607eab2f221dd9dc8b55e1e" target="_top" xlink:title="HelloBye::HelloByeClient\lConfig::getInstance">
<polygon fill="none" stroke="#000000" points="149,-98.5 149,-128.5 277,-128.5 277,-98.5 149,-98.5"/>
<text text-anchor="start" x="157" y="-116.5" font-family="Helvetica,sans-Serif" font-size="10.00" fill="#000000">HelloBye::HelloByeClient</text>
<text text-anchor="middle" x="213" y="-105.5" font-family="Helvetica,sans-Serif" font-size="10.00" fill="#000000">Config::getInstance</text>
</a>
</g>
</g>
<!-- Node0&#45;&gt;Node2 -->
<g id="edge2" class="edge">
<title>Node0&#45;&gt;Node2</title>
<path fill="none" stroke="#191970" d="M113.0001,-97.5256C121.3697,-98.8626 130.0999,-100.2572 138.7643,-101.6413"/>
<polygon fill="#191970" stroke="#191970" points="138.4529,-105.1358 148.8798,-103.2572 139.5571,-98.2234 138.4529,-105.1358"/>
</g>
<!-- Node3 -->
<g id="node4" class="node">
<title>Node3</title>
<g id="a_node4"><a xlink:href="classHelloBye_1_1HelloByeClientConfig.html#ac12cfc6f998d48f4550ad84a90bebf3e" target="_top" xlink:title="HelloBye::HelloByeClient\lConfig::setSrcIP">
<polygon fill="none" stroke="#000000" points="149,-49.5 149,-79.5 277,-79.5 277,-49.5 149,-49.5"/>
<text text-anchor="start" x="157" y="-67.5" font-family="Helvetica,sans-Serif" font-size="10.00" fill="#000000">HelloBye::HelloByeClient</text>
<text text-anchor="middle" x="213" y="-56.5" font-family="Helvetica,sans-Serif" font-size="10.00" fill="#000000">Config::setSrcIP</text>
</a>
</g>
</g>
<!-- Node0&#45;&gt;Node3 -->
<g id="edge3" class="edge">
<title>Node0&#45;&gt;Node3</title>
<path fill="none" stroke="#191970" d="M113.0001,-79.8354C121.3697,-78.5519 130.0999,-77.2131 138.7643,-75.8844"/>
<polygon fill="#191970" stroke="#191970" points="139.5259,-79.3086 148.8798,-74.3331 138.4648,-72.3895 139.5259,-79.3086"/>
</g>
<!-- Node4 -->
<g id="node5" class="node">
<title>Node4</title>
<g id="a_node5"><a xlink:href="classHelloBye_1_1HelloByeClientConfig.html#a99b9923cc3ae23dc8c54d33f03acda96" target="_top" xlink:title="HelloBye::HelloByeClient\lConfig::setDstPort">
<polygon fill="none" stroke="#000000" points="149,-.5 149,-30.5 277,-30.5 277,-.5 149,-.5"/>
<text text-anchor="start" x="157" y="-18.5" font-family="Helvetica,sans-Serif" font-size="10.00" fill="#000000">HelloBye::HelloByeClient</text>
<text text-anchor="middle" x="213" y="-7.5" font-family="Helvetica,sans-Serif" font-size="10.00" fill="#000000">Config::setDstPort</text>
</a>
</g>
</g>
<!-- Node0&#45;&gt;Node4 -->
<g id="edge4" class="edge">
<title>Node0&#45;&gt;Node4</title>
<path fill="none" stroke="#191970" d="M73.6184,-78.9183C91.9835,-68.8049 122.1393,-52.674 149,-40.5 153.4512,-38.4826 158.1168,-36.4706 162.8143,-34.514"/>
<polygon fill="#191970" stroke="#191970" points="164.502,-37.6058 172.4424,-30.5916 161.8609,-31.1231 164.502,-37.6058"/>
</g>
</g>
</svg>
