<?xml version="1.0" encoding="UTF-8" standalone="no"?>
<!DOCTYPE svg PUBLIC "-//W3C//DTD SVG 1.1//EN"
 "http://www.w3.org/Graphics/SVG/1.1/DTD/svg11.dtd">
<!-- Generated by graphviz version 2.40.1 (20161225.0304)
 -->
<!-- Title: HelloBye3_Client_init Pages: 1 -->
<svg width="564pt" height="622pt"
 viewBox="0.00 0.00 564.00 622.00" xmlns="http://www.w3.org/2000/svg" xmlns:xlink="http://www.w3.org/1999/xlink">
<g id="graph0" class="graph" transform="scale(1 1) rotate(0) translate(4 618)">
<title>HelloBye3_Client_init</title>
<!-- Node8 -->
<g id="node1" class="node">
<title>Node8</title>
<polygon fill="#bfbfbf" stroke="#000000" points="0,-443.5 0,-462.5 110,-462.5 110,-443.5 0,-443.5"/>
<text text-anchor="middle" x="55" y="-450.5" font-family="Helvetica,sans-Serif" font-size="10.00" fill="#000000">HelloBye3_Client_init</text>
</g>
<!-- Node9 -->
<g id="node2" class="node">
<title>Node9</title>
<g id="a_node2"><a xlink:href="namespaceHelloBye3_1_1Client.html#afb5ce015f5ec6e5e833f12475c1dbee8" target="_top" xlink:title="HelloBye3::Client::\lrunHello">
<polygon fill="none" stroke="#000000" points="146,-273 146,-303 245,-303 245,-273 146,-273"/>
<text text-anchor="start" x="154" y="-291" font-family="Helvetica,sans-Serif" font-size="10.00" fill="#000000">HelloBye3::Client::</text>
<text text-anchor="middle" x="195.5" y="-280" font-family="Helvetica,sans-Serif" font-size="10.00" fill="#000000">runHello</text>
</a>
</g>
</g>
<!-- Node8&#45;&gt;Node9 -->
<g id="edge1" class="edge">
<title>Node8&#45;&gt;Node9</title>
<path fill="none" stroke="#191970" d="M63.3682,-443.1726C85.3371,-417.3728 145.0978,-347.1912 176.1631,-310.7089"/>
<polygon fill="#191970" stroke="#191970" points="178.8719,-312.9263 182.6903,-303.0434 173.5423,-308.388 178.8719,-312.9263"/>
</g>
<!-- Node25 -->
<g id="node18" class="node">
<title>Node25</title>
<g id="a_node18"><a xlink:href="namespaceHelloBye3_1_1Client.html#a2688072151fa6fb9400dadd1b7186e6c" target="_top" xlink:title="HelloBye3::Client::\lrunBye">
<polygon fill="none" stroke="#000000" points="146,-487 146,-517 245,-517 245,-487 146,-487"/>
<text text-anchor="start" x="154" y="-505" font-family="Helvetica,sans-Serif" font-size="10.00" fill="#000000">HelloBye3::Client::</text>
<text text-anchor="middle" x="195.5" y="-494" font-family="Helvetica,sans-Serif" font-size="10.00" fill="#000000">runBye</text>
</a>
</g>
</g>
<!-- Node8&#45;&gt;Node25 -->
<g id="edge17" class="edge">
<title>Node8&#45;&gt;Node25</title>
<path fill="none" stroke="#191970" d="M82.4233,-462.564C99.5897,-468.5509 122.2732,-476.4618 142.8155,-483.626"/>
<polygon fill="#191970" stroke="#191970" points="141.789,-486.9747 152.3838,-486.963 144.0941,-480.3652 141.789,-486.9747"/>
</g>
<!-- Node28 -->
<g id="node21" class="node">
<title>Node28</title>
<g id="a_node21"><a xlink:href="namespaceHelloBye3_1_1Client.html#af59fe0d1073b052ba21c0425a799c4e4" target="_top" xlink:title="HelloBye3::Client::\lrunRecvBye">
<polygon fill="none" stroke="#000000" points="146,-438 146,-468 245,-468 245,-438 146,-438"/>
<text text-anchor="start" x="154" y="-456" font-family="Helvetica,sans-Serif" font-size="10.00" fill="#000000">HelloBye3::Client::</text>
<text text-anchor="middle" x="195.5" y="-445" font-family="Helvetica,sans-Serif" font-size="10.00" fill="#000000">runRecvBye</text>
</a>
</g>
</g>
<!-- Node8&#45;&gt;Node28 -->
<g id="edge24" class="edge">
<title>Node8&#45;&gt;Node28</title>
<path fill="none" stroke="#191970" d="M110.1261,-453C118.4338,-453 127.0377,-453 135.4428,-453"/>
<polygon fill="#191970" stroke="#191970" points="135.5632,-456.5001 145.5632,-453 135.5631,-449.5001 135.5632,-456.5001"/>
</g>
<!-- Node10 -->
<g id="node3" class="node">
<title>Node10</title>
<g id="a_node3"><a xlink:href="structmbuf.html#a822d13c96f003279f7691d7778e75c3c" target="_top" xlink:title="mbuf::getData">
<polygon fill="none" stroke="#000000" points="313.5,-430.5 313.5,-449.5 392.5,-449.5 392.5,-430.5 313.5,-430.5"/>
<text text-anchor="middle" x="353" y="-437.5" font-family="Helvetica,sans-Serif" font-size="10.00" fill="#000000">mbuf::getData</text>
</a>
</g>
</g>
<!-- Node9&#45;&gt;Node10 -->
<g id="edge2" class="edge">
<title>Node9&#45;&gt;Node10</title>
<path fill="none" stroke="#191970" d="M201.036,-303.4051C211.8729,-331.3065 238.5966,-390.1652 281,-421 287.69,-425.8648 295.5337,-429.4848 303.5363,-432.1782"/>
<polygon fill="#191970" stroke="#191970" points="302.73,-435.5887 313.3098,-435.0255 304.6879,-428.8681 302.73,-435.5887"/>
</g>
<!-- Node11 -->
<g id="node4" class="node">
<title>Node11</title>
<g id="a_node4"><a xlink:href="structmbuf.html#a64e891b6439330838808a0cd140ee386" target="_top" xlink:title="mbuf::getDataLen">
<polygon fill="none" stroke="#000000" points="305.5,-38.5 305.5,-57.5 400.5,-57.5 400.5,-38.5 305.5,-38.5"/>
<text text-anchor="middle" x="353" y="-45.5" font-family="Helvetica,sans-Serif" font-size="10.00" fill="#000000">mbuf::getDataLen</text>
</a>
</g>
</g>
<!-- Node9&#45;&gt;Node11 -->
<g id="edge3" class="edge">
<title>Node9&#45;&gt;Node11</title>
<path fill="none" stroke="#191970" d="M196.7522,-272.7603C200.883,-232.7023 217.6858,-123.6416 281,-67 285.3824,-63.0794 290.4805,-59.9522 295.9015,-57.4603"/>
<polygon fill="#191970" stroke="#191970" points="297.1976,-60.7117 305.2602,-53.8382 294.671,-54.1835 297.1976,-60.7117"/>
</g>
<!-- Node12 -->
<g id="node5" class="node">
<title>Node12</title>
<g id="a_node5"><a xlink:href="structHeaders_1_1IPv4.html#a28a6286beded8ad7cd611483f3dcac09" target="_top" xlink:title="Set the version field to 4. ">
<polygon fill="none" stroke="#000000" points="287.5,-.5 287.5,-19.5 418.5,-19.5 418.5,-.5 287.5,-.5"/>
<text text-anchor="middle" x="353" y="-7.5" font-family="Helvetica,sans-Serif" font-size="10.00" fill="#000000">Headers::IPv4::setVersion</text>
</a>
</g>
</g>
<!-- Node9&#45;&gt;Node12 -->
<g id="edge4" class="edge">
<title>Node9&#45;&gt;Node12</title>
<path fill="none" stroke="#191970" d="M198.524,-272.8821C208.8189,-222.8558 243.9276,-63.8826 281,-29 282.5182,-27.5715 284.1308,-26.2475 285.8199,-25.0206"/>
<polygon fill="#191970" stroke="#191970" points="288.0192,-27.7846 294.8199,-19.6604 284.4372,-21.7704 288.0192,-27.7846"/>
</g>
<!-- Node13 -->
<g id="node6" class="node">
<title>Node13</title>
<g id="a_node6"><a xlink:href="structHeaders_1_1IPv4.html#a89ebc78cd618d1ac327bb82e4b46917f" target="_top" xlink:title="Sets the IP header length. ">
<polygon fill="none" stroke="#000000" points="295.5,-354.5 295.5,-373.5 410.5,-373.5 410.5,-354.5 295.5,-354.5"/>
<text text-anchor="middle" x="353" y="-361.5" font-family="Helvetica,sans-Serif" font-size="10.00" fill="#000000">Headers::IPv4::setIHL</text>
</a>
</g>
</g>
<!-- Node9&#45;&gt;Node13 -->
<g id="edge5" class="edge">
<title>Node9&#45;&gt;Node13</title>
<path fill="none" stroke="#191970" d="M214.1249,-303.0669C230.7675,-315.8609 256.2733,-333.8685 281,-345 286.3619,-347.4138 292.0913,-349.5697 297.8885,-351.4831"/>
<polygon fill="#191970" stroke="#191970" points="297.0689,-354.8925 307.6556,-354.4769 299.1204,-348.1999 297.0689,-354.8925"/>
</g>
<!-- Node14 -->
<g id="node7" class="node">
<title>Node14</title>
<g id="a_node7"><a xlink:href="structHeaders_1_1IPv4.html#a6170f8d379d252ca29e8c91f457d1108" target="_top" xlink:title="Headers::IPv4::setLength">
<polygon fill="none" stroke="#000000" points="289,-316.5 289,-335.5 417,-335.5 417,-316.5 289,-316.5"/>
<text text-anchor="middle" x="353" y="-323.5" font-family="Helvetica,sans-Serif" font-size="10.00" fill="#000000">Headers::IPv4::setLength</text>
</a>
</g>
</g>
<!-- Node9&#45;&gt;Node14 -->
<g id="edge6" class="edge">
<title>Node9&#45;&gt;Node14</title>
<path fill="none" stroke="#191970" d="M245.334,-300.0234C263.9738,-304.5207 285.1235,-309.6235 303.7136,-314.1087"/>
<polygon fill="#191970" stroke="#191970" points="302.9174,-317.5169 313.4594,-316.46 304.5592,-310.7122 302.9174,-317.5169"/>
</g>
<!-- Node15 -->
<g id="node8" class="node">
<title>Node15</title>
<g id="a_node8"><a xlink:href="structHeaders_1_1IPv4.html#ab3379b3b9cf0bda526087c3cc1c9927d" target="_top" xlink:title="Set the destination ip. ">
<polygon fill="none" stroke="#000000" points="290.5,-278.5 290.5,-297.5 415.5,-297.5 415.5,-278.5 290.5,-278.5"/>
<text text-anchor="middle" x="353" y="-285.5" font-family="Helvetica,sans-Serif" font-size="10.00" fill="#000000">Headers::IPv4::setDstIP</text>
</a>
</g>
</g>
<!-- Node9&#45;&gt;Node15 -->
<g id="edge7" class="edge">
<title>Node9&#45;&gt;Node15</title>
<path fill="none" stroke="#191970" d="M245.334,-288C256.4169,-288 268.3872,-288 280.1791,-288"/>
<polygon fill="#191970" stroke="#191970" points="280.4691,-291.5001 290.469,-288 280.469,-284.5001 280.4691,-291.5001"/>
</g>
<!-- Node16 -->
<g id="node9" class="node">
<title>Node16</title>
<g id="a_node9"><a xlink:href="structHeaders_1_1IPv4.html#a4e1023a9cc8055be85956cd29c6fc397" target="_top" xlink:title="Set the source ip. ">
<polygon fill="none" stroke="#000000" points="291,-240.5 291,-259.5 415,-259.5 415,-240.5 291,-240.5"/>
<text text-anchor="middle" x="353" y="-247.5" font-family="Helvetica,sans-Serif" font-size="10.00" fill="#000000">Headers::IPv4::setSrcIP</text>
</a>
</g>
</g>
<!-- Node9&#45;&gt;Node16 -->
<g id="edge8" class="edge">
<title>Node9&#45;&gt;Node16</title>
<path fill="none" stroke="#191970" d="M245.334,-275.9766C263.9738,-271.4793 285.1235,-266.3765 303.7136,-261.8913"/>
<polygon fill="#191970" stroke="#191970" points="304.5592,-265.2878 313.4594,-259.54 302.9174,-258.4831 304.5592,-265.2878"/>
</g>
<!-- Node17 -->
<g id="node10" class="node">
<title>Node17</title>
<g id="a_node10"><a xlink:href="structHeaders_1_1IPv4.html#a3de15b59ea6a3656f37c63e0c8d83df7" target="_top" xlink:title="Set the protocol to UDP. ">
<polygon fill="none" stroke="#000000" points="281,-202.5 281,-221.5 425,-221.5 425,-202.5 281,-202.5"/>
<text text-anchor="middle" x="353" y="-209.5" font-family="Helvetica,sans-Serif" font-size="10.00" fill="#000000">Headers::IPv4::setProtoUDP</text>
</a>
</g>
</g>
<!-- Node9&#45;&gt;Node17 -->
<g id="edge9" class="edge">
<title>Node9&#45;&gt;Node17</title>
<path fill="none" stroke="#191970" d="M214.1249,-272.9331C230.7675,-260.1391 256.2733,-242.1315 281,-231 286.3619,-228.5862 292.0913,-226.4303 297.8885,-224.5169"/>
<polygon fill="#191970" stroke="#191970" points="299.1204,-227.8001 307.6556,-221.5231 297.0689,-221.1075 299.1204,-227.8001"/>
</g>
<!-- Node18 -->
<g id="node11" class="node">
<title>Node18</title>
<g id="a_node11"><a xlink:href="structHeaders_1_1IPv4.html#acc4a8033c5da9c2ce147ee10e15d2a49" target="_top" xlink:title="Get the SDU. ">
<polygon fill="none" stroke="#000000" points="286,-392.5 286,-411.5 420,-411.5 420,-392.5 286,-392.5"/>
<text text-anchor="middle" x="353" y="-399.5" font-family="Helvetica,sans-Serif" font-size="10.00" fill="#000000">Headers::IPv4::getPayload</text>
</a>
</g>
</g>
<!-- Node9&#45;&gt;Node18 -->
<g id="edge10" class="edge">
<title>Node9&#45;&gt;Node18</title>
<path fill="none" stroke="#191970" d="M205.086,-303.3529C219.1202,-324.5323 247.2868,-362.4232 281,-383 284.6001,-385.1973 288.452,-387.1432 292.433,-388.866"/>
<polygon fill="#191970" stroke="#191970" points="291.3084,-392.1832 301.8987,-392.4944 293.814,-385.6469 291.3084,-392.1832"/>
</g>
<!-- Node20 -->
<g id="node13" class="node">
<title>Node20</title>
<g id="a_node13"><a xlink:href="structHeaders_1_1Udp.html#a531f2e8247abf7807c50d806208b7cb1" target="_top" xlink:title="Get the SDU. ">
<polygon fill="none" stroke="#000000" points="287,-506.5 287,-525.5 419,-525.5 419,-506.5 287,-506.5"/>
<text text-anchor="middle" x="353" y="-513.5" font-family="Helvetica,sans-Serif" font-size="10.00" fill="#000000">Headers::Udp::getPayload</text>
</a>
</g>
</g>
<!-- Node9&#45;&gt;Node20 -->
<g id="edge12" class="edge">
<title>Node9&#45;&gt;Node20</title>
<path fill="none" stroke="#191970" d="M200.825,-303.1854C216.9963,-348.9588 265.3824,-483.2956 281,-497 282.7764,-498.5588 284.6663,-499.9919 286.6444,-501.3092"/>
<polygon fill="#191970" stroke="#191970" points="285.359,-504.5979 295.8038,-506.3748 288.7468,-498.4723 285.359,-504.5979"/>
</g>
<!-- Node21 -->
<g id="node14" class="node">
<title>Node21</title>
<g id="a_node14"><a xlink:href="structHelloBye3_1_1msg.html#a3b93043c60ca836029a396cabf4d4982" target="_top" xlink:title="HelloBye3::msg::msg">
<polygon fill="none" stroke="#000000" points="297.5,-468.5 297.5,-487.5 408.5,-487.5 408.5,-468.5 297.5,-468.5"/>
<text text-anchor="middle" x="353" y="-475.5" font-family="Helvetica,sans-Serif" font-size="10.00" fill="#000000">HelloBye3::msg::msg</text>
</a>
</g>
</g>
<!-- Node9&#45;&gt;Node21 -->
<g id="edge13" class="edge">
<title>Node9&#45;&gt;Node21</title>
<path fill="none" stroke="#191970" d="M198.6474,-303.2077C206.3955,-336.7137 229.6187,-417.2304 281,-459 283.2571,-460.8348 285.6736,-462.4939 288.204,-463.994"/>
<polygon fill="#191970" stroke="#191970" points="286.6739,-467.1421 297.1806,-468.5056 289.8174,-460.8876 286.6739,-467.1421"/>
</g>
<!-- Node22 -->
<g id="node15" class="node">
<title>Node22</title>
<g id="a_node15"><a xlink:href="structHeaders_1_1Udp.html#ad7860fd7b0f369d39d55aef85a11045a" target="_top" xlink:title="Set the destination port. ">
<polygon fill="none" stroke="#000000" points="287.5,-164.5 287.5,-183.5 418.5,-183.5 418.5,-164.5 287.5,-164.5"/>
<text text-anchor="middle" x="353" y="-171.5" font-family="Helvetica,sans-Serif" font-size="10.00" fill="#000000">Headers::Udp::setDstPort</text>
</a>
</g>
</g>
<!-- Node9&#45;&gt;Node22 -->
<g id="edge14" class="edge">
<title>Node9&#45;&gt;Node22</title>
<path fill="none" stroke="#191970" d="M205.086,-272.6471C219.1202,-251.4677 247.2868,-213.5768 281,-193 284.6001,-190.8027 288.452,-188.8568 292.433,-187.134"/>
<polygon fill="#191970" stroke="#191970" points="293.814,-190.3531 301.8987,-183.5056 291.3084,-183.8168 293.814,-190.3531"/>
</g>
<!-- Node23 -->
<g id="node16" class="node">
<title>Node23</title>
<g id="a_node16"><a xlink:href="structHeaders_1_1Udp.html#ab28d05a7270cf1537848db896588ca01" target="_top" xlink:title="Set the source port. ">
<polygon fill="none" stroke="#000000" points="288,-126.5 288,-145.5 418,-145.5 418,-126.5 288,-126.5"/>
<text text-anchor="middle" x="353" y="-133.5" font-family="Helvetica,sans-Serif" font-size="10.00" fill="#000000">Headers::Udp::setSrcPort</text>
</a>
</g>
</g>
<!-- Node9&#45;&gt;Node23 -->
<g id="edge15" class="edge">
<title>Node9&#45;&gt;Node23</title>
<path fill="none" stroke="#191970" d="M201.036,-272.5949C211.8729,-244.6935 238.5966,-185.8348 281,-155 283.6662,-153.0612 286.5157,-151.3201 289.4854,-149.7566"/>
<polygon fill="#191970" stroke="#191970" points="291.0324,-152.8982 298.6924,-145.5787 288.1397,-146.5238 291.0324,-152.8982"/>
</g>
<!-- Node24 -->
<g id="node17" class="node">
<title>Node24</title>
<g id="a_node17"><a xlink:href="structHeaders_1_1Udp.html#ac5397a534d246cfa93ac157eee3c565e" target="_top" xlink:title="Set the length of the L4&#45;SDU (UDP payload) ">
<polygon fill="none" stroke="#000000" points="287,-77 287,-107 419,-107 419,-77 287,-77"/>
<text text-anchor="start" x="295" y="-95" font-family="Helvetica,sans-Serif" font-size="10.00" fill="#000000">Headers::Udp::setPayload</text>
<text text-anchor="middle" x="353" y="-84" font-family="Helvetica,sans-Serif" font-size="10.00" fill="#000000">Length</text>
</a>
</g>
</g>
<!-- Node9&#45;&gt;Node24 -->
<g id="edge16" class="edge">
<title>Node9&#45;&gt;Node24</title>
<path fill="none" stroke="#191970" d="M198.9475,-272.8253C207.2353,-239.7387 231.3716,-160.5867 281,-117 282.9139,-115.3191 284.947,-113.7497 287.0706,-112.2845"/>
<polygon fill="#191970" stroke="#191970" points="288.8777,-115.282 295.6497,-107.1339 285.2746,-109.2804 288.8777,-115.282"/>
</g>
<!-- Node19 -->
<g id="node12" class="node">
<title>Node19</title>
<g id="a_node12"><a xlink:href="structHeaders_1_1IPv4.html#ac6c5485ffca9cffaded18d2ad8d5985a" target="_top" xlink:title="Headers::IPv4::ihl">
<polygon fill="none" stroke="#000000" points="461,-392.5 461,-411.5 556,-411.5 556,-392.5 461,-392.5"/>
<text text-anchor="middle" x="508.5" y="-399.5" font-family="Helvetica,sans-Serif" font-size="10.00" fill="#000000">Headers::IPv4::ihl</text>
</a>
</g>
</g>
<!-- Node18&#45;&gt;Node19 -->
<g id="edge11" class="edge">
<title>Node18&#45;&gt;Node19</title>
<path fill="none" stroke="#191970" d="M420.3002,-402C430.4129,-402 440.7658,-402 450.6577,-402"/>
<polygon fill="#191970" stroke="#191970" points="450.7699,-405.5001 460.7699,-402 450.7699,-398.5001 450.7699,-405.5001"/>
</g>
<!-- Node25&#45;&gt;Node10 -->
<g id="edge18" class="edge">
<title>Node25&#45;&gt;Node10</title>
<path fill="none" stroke="#191970" d="M227.0027,-486.9254C232.9968,-484.0008 239.2055,-480.9328 245,-478 261.1419,-469.8301 264.1445,-465.5728 281,-459 288.1185,-456.2241 295.7877,-453.7173 303.3739,-451.5032"/>
<polygon fill="#191970" stroke="#191970" points="304.546,-454.8102 313.2456,-448.7632 302.6738,-448.0652 304.546,-454.8102"/>
</g>
<!-- Node25&#45;&gt;Node18 -->
<g id="edge20" class="edge">
<title>Node25&#45;&gt;Node18</title>
<path fill="none" stroke="#191970" d="M232.6492,-486.8739C237.0567,-484.2654 241.2975,-481.3099 245,-478 267.3383,-458.0305 256.8376,-438.7189 281,-421 283.6584,-419.0505 286.5016,-417.3009 289.4664,-415.7306"/>
<polygon fill="#191970" stroke="#191970" points="291.0156,-418.871 298.6624,-411.5376 288.1115,-412.5018 291.0156,-418.871"/>
</g>
<!-- Node25&#45;&gt;Node20 -->
<g id="edge21" class="edge">
<title>Node25&#45;&gt;Node20</title>
<path fill="none" stroke="#191970" d="M245.334,-506.4297C255.3052,-507.316 265.9946,-508.2662 276.6262,-509.2112"/>
<polygon fill="#191970" stroke="#191970" points="276.5057,-512.7142 286.7764,-510.1135 277.1256,-505.7417 276.5057,-512.7142"/>
</g>
<!-- Node25&#45;&gt;Node21 -->
<g id="edge22" class="edge">
<title>Node25&#45;&gt;Node21</title>
<path fill="none" stroke="#191970" d="M245.334,-494.4063C258.6777,-492.3729 273.3077,-490.1436 287.3641,-488.0017"/>
<polygon fill="#191970" stroke="#191970" points="288.1128,-491.4281 297.4714,-486.4615 287.0582,-484.5079 288.1128,-491.4281"/>
</g>
<!-- Node26 -->
<g id="node19" class="node">
<title>Node26</title>
<g id="a_node19"><a xlink:href="structHeaders_1_1Ethernet.html#ad59e9fe1ec95b8e2ed11f97b44a20650" target="_top" xlink:title="Get the SDU. ">
<polygon fill="none" stroke="#000000" points="302,-545 302,-575 404,-575 404,-545 302,-545"/>
<text text-anchor="start" x="310" y="-563" font-family="Helvetica,sans-Serif" font-size="10.00" fill="#000000">Headers::Ethernet::</text>
<text text-anchor="middle" x="353" y="-552" font-family="Helvetica,sans-Serif" font-size="10.00" fill="#000000">getPayload</text>
</a>
</g>
</g>
<!-- Node25&#45;&gt;Node26 -->
<g id="edge19" class="edge">
<title>Node25&#45;&gt;Node26</title>
<path fill="none" stroke="#191970" d="M233.7004,-517.0643C248.439,-522.7922 265.463,-529.3061 281,-535 286.8704,-537.1513 293.0265,-539.3602 299.163,-541.532"/>
<polygon fill="#191970" stroke="#191970" points="298.151,-544.8862 308.7458,-544.9008 300.4726,-538.2824 298.151,-544.8862"/>
</g>
<!-- Node27 -->
<g id="node20" class="node">
<title>Node27</title>
<g id="a_node20"><a xlink:href="common_8hpp.html#ab9ce1ea79c76c5726af17e271c20c6ec" target="_top" xlink:title="Dump hex data. ">
<polygon fill="none" stroke="#000000" points="325,-594.5 325,-613.5 381,-613.5 381,-594.5 325,-594.5"/>
<text text-anchor="middle" x="353" y="-601.5" font-family="Helvetica,sans-Serif" font-size="10.00" fill="#000000">hexdump</text>
</a>
</g>
</g>
<!-- Node25&#45;&gt;Node27 -->
<g id="edge23" class="edge">
<title>Node25&#45;&gt;Node27</title>
<path fill="none" stroke="#191970" d="M207.0688,-517.2908C222.0734,-536.0458 250.0201,-567.4964 281,-585 291.2549,-590.794 303.3301,-594.8705 314.6311,-597.718"/>
<polygon fill="#191970" stroke="#191970" points="314.1913,-601.207 324.7174,-600.0017 315.7371,-594.3798 314.1913,-601.207"/>
</g>
<!-- Node28&#45;&gt;Node10 -->
<g id="edge25" class="edge">
<title>Node28&#45;&gt;Node10</title>
<path fill="none" stroke="#191970" d="M245.334,-448.8867C263.8879,-447.3553 284.9286,-445.6186 303.4565,-444.0893"/>
<polygon fill="#191970" stroke="#191970" points="303.7812,-447.5745 313.4594,-443.2637 303.2053,-440.5982 303.7812,-447.5745"/>
</g>
<!-- Node28&#45;&gt;Node18 -->
<g id="edge27" class="edge">
<title>Node28&#45;&gt;Node18</title>
<path fill="none" stroke="#191970" d="M233.5202,-437.8387C248.2368,-432.2164 265.2927,-425.998 281,-421 288.4493,-418.6296 296.3966,-416.319 304.191,-414.1721"/>
<polygon fill="#191970" stroke="#191970" points="305.1875,-417.5285 313.9331,-411.5481 303.3669,-410.7694 305.1875,-417.5285"/>
</g>
<!-- Node28&#45;&gt;Node20 -->
<g id="edge28" class="edge">
<title>Node28&#45;&gt;Node20</title>
<path fill="none" stroke="#191970" d="M225.6471,-468.1175C232.0469,-471.357 238.7552,-474.7754 245,-478 261.0751,-486.3006 264.1445,-490.4272 281,-497 287.2312,-499.4299 293.8843,-501.6536 300.5343,-503.6552"/>
<polygon fill="#191970" stroke="#191970" points="299.6488,-507.0422 310.2257,-506.4272 301.5738,-500.3121 299.6488,-507.0422"/>
</g>
<!-- Node28&#45;&gt;Node21 -->
<g id="edge29" class="edge">
<title>Node28&#45;&gt;Node21</title>
<path fill="none" stroke="#191970" d="M245.334,-460.9102C258.6777,-463.0282 273.3077,-465.3504 287.3641,-467.5816"/>
<polygon fill="#191970" stroke="#191970" points="287.0463,-471.0749 297.4714,-469.1859 288.1438,-464.1615 287.0463,-471.0749"/>
</g>
<!-- Node28&#45;&gt;Node26 -->
<g id="edge26" class="edge">
<title>Node28&#45;&gt;Node26</title>
<path fill="none" stroke="#191970" d="M231.3682,-468.1436C236.2317,-471.023 240.9385,-474.3095 245,-478 267.1755,-498.15 257.53,-516.3737 281,-535 284.5953,-537.8533 288.5381,-540.3923 292.6684,-542.6499"/>
<polygon fill="#191970" stroke="#191970" points="291.4229,-545.9359 301.9474,-547.1552 294.4804,-539.6389 291.4229,-545.9359"/>
</g>
</g>
</svg>
