<?xml version="1.0" encoding="UTF-8" standalone="no"?>
<!DOCTYPE svg PUBLIC "-//W3C//DTD SVG 1.1//EN"
 "http://www.w3.org/Graphics/SVG/1.1/DTD/svg11.dtd">
<!-- Generated by graphviz version 2.40.1 (20161225.0304)
 -->
<!-- Title: /home/dominik/uni/MoonState/src/helloBye2ProtoStatic.cpp Pages: 1 -->
<svg width="1612pt" height="319pt"
 viewBox="0.00 0.00 1612.00 319.00" xmlns="http://www.w3.org/2000/svg" xmlns:xlink="http://www.w3.org/1999/xlink">
<g id="graph0" class="graph" transform="scale(1 1) rotate(0) translate(4 315)">
<title>/home/dominik/uni/MoonState/src/helloBye2ProtoStatic.cpp</title>
<!-- Node0 -->
<g id="node1" class="node">
<title>Node0</title>
<polygon fill="#bfbfbf" stroke="#000000" points="819.5,-280.5 819.5,-310.5 966.5,-310.5 966.5,-280.5 819.5,-280.5"/>
<text text-anchor="start" x="827.5" y="-298.5" font-family="Helvetica,sans-Serif" font-size="10.00" fill="#000000">/home/dominik/uni/MoonState</text>
<text text-anchor="middle" x="893" y="-287.5" font-family="Helvetica,sans-Serif" font-size="10.00" fill="#000000">/src/helloBye2ProtoStatic.cpp</text>
</g>
<!-- Node1 -->
<g id="node2" class="node">
<title>Node1</title>
<g id="a_node2"><a xlink:href="helloBye2Proto_8hpp.html" target="_top" xlink:title="helloBye2Proto.hpp">
<polygon fill="none" stroke="#000000" points="589.5,-224.5 589.5,-243.5 690.5,-243.5 690.5,-224.5 589.5,-224.5"/>
<text text-anchor="middle" x="640" y="-231.5" font-family="Helvetica,sans-Serif" font-size="10.00" fill="#000000">helloBye2Proto.hpp</text>
</a>
</g>
</g>
<!-- Node0&#45;&gt;Node1 -->
<g id="edge1" class="edge">
<title>Node0&#45;&gt;Node1</title>
<path fill="none" stroke="#191970" d="M831.1092,-280.4554C787.4144,-269.8339 729.6611,-255.7951 689.1225,-245.9408"/>
<polygon fill="#191970" stroke="#191970" points="689.7498,-242.4915 679.206,-243.5303 688.0963,-249.2934 689.7498,-242.4915"/>
</g>
<!-- Node2 -->
<g id="node3" class="node">
<title>Node2</title>
<polygon fill="none" stroke="#bfbfbf" points="1560,-56.5 1560,-75.5 1604,-75.5 1604,-56.5 1560,-56.5"/>
<text text-anchor="middle" x="1582" y="-63.5" font-family="Helvetica,sans-Serif" font-size="10.00" fill="#000000">mutex</text>
</g>
<!-- Node0&#45;&gt;Node2 -->
<g id="edge62" class="edge">
<title>Node0&#45;&gt;Node2</title>
<path fill="none" stroke="#191970" d="M938.2072,-280.4419C1067.98,-237.2157 1439.462,-113.4782 1550.3672,-76.5366"/>
<polygon fill="#191970" stroke="#191970" points="1551.5955,-79.8166 1559.9769,-73.3357 1549.3833,-73.1753 1551.5955,-79.8166"/>
</g>
<!-- Node1&#45;&gt;Node2 -->
<g id="edge2" class="edge">
<title>Node1&#45;&gt;Node2</title>
<path fill="none" stroke="#191970" d="M690.6324,-227.7586C828.1183,-210.2722 1219.6734,-156.8883 1550.0016,-75.9894"/>
<polygon fill="#191970" stroke="#191970" points="1550.883,-79.377 1559.7564,-73.588 1549.2097,-72.58 1550.883,-79.377"/>
</g>
<!-- Node3 -->
<g id="node4" class="node">
<title>Node3</title>
<polygon fill="none" stroke="#bfbfbf" points="0,-.5 0,-19.5 52,-19.5 52,-.5 0,-.5"/>
<text text-anchor="middle" x="26" y="-7.5" font-family="Helvetica,sans-Serif" font-size="10.00" fill="#000000">sstream</text>
</g>
<!-- Node1&#45;&gt;Node3 -->
<g id="edge3" class="edge">
<title>Node1&#45;&gt;Node3</title>
<path fill="none" stroke="#191970" d="M589.2064,-230.753C488.9698,-224.0146 269.0984,-207.5029 196,-188 103.866,-163.4183 49.881,-163.936 13,-76 6.6651,-60.8956 11.1732,-42.5318 16.545,-29.0134"/>
<polygon fill="#191970" stroke="#191970" points="19.7967,-30.3145 20.6559,-19.7545 13.399,-27.4739 19.7967,-30.3145"/>
</g>
<!-- Node4 -->
<g id="node5" class="node">
<title>Node4</title>
<g id="a_node5"><a xlink:href="common_8hpp.html" target="_top" xlink:title="common.hpp">
<polygon fill="none" stroke="#000000" points="603.5,-56.5 603.5,-75.5 676.5,-75.5 676.5,-56.5 603.5,-56.5"/>
<text text-anchor="middle" x="640" y="-63.5" font-family="Helvetica,sans-Serif" font-size="10.00" fill="#000000">common.hpp</text>
</a>
</g>
</g>
<!-- Node1&#45;&gt;Node4 -->
<g id="edge4" class="edge">
<title>Node1&#45;&gt;Node4</title>
<path fill="none" stroke="#191970" d="M640,-224.4862C640,-197.9293 640,-122.5651 640,-86.1655"/>
<polygon fill="#191970" stroke="#191970" points="643.5001,-85.8278 640,-75.8279 636.5001,-85.8279 643.5001,-85.8278"/>
</g>
<!-- Node7 -->
<g id="node8" class="node">
<title>Node7</title>
<g id="a_node8"><a xlink:href="exceptions_8hpp.html" target="_top" xlink:title="exceptions.hpp">
<polygon fill="none" stroke="#000000" points="771.5,-56.5 771.5,-75.5 854.5,-75.5 854.5,-56.5 771.5,-56.5"/>
<text text-anchor="middle" x="813" y="-63.5" font-family="Helvetica,sans-Serif" font-size="10.00" fill="#000000">exceptions.hpp</text>
</a>
</g>
</g>
<!-- Node1&#45;&gt;Node7 -->
<g id="edge7" class="edge">
<title>Node1&#45;&gt;Node7</title>
<path fill="none" stroke="#191970" d="M649.7969,-224.4862C677.9729,-197.1246 759.501,-117.9528 795.5288,-82.9663"/>
<polygon fill="#191970" stroke="#191970" points="798.1439,-85.3055 802.8796,-75.8279 793.2673,-80.2836 798.1439,-85.3055"/>
</g>
<!-- Node10 -->
<g id="node11" class="node">
<title>Node10</title>
<g id="a_node11"><a xlink:href="headers_8hpp.html" target="_top" xlink:title="headers.hpp">
<polygon fill="none" stroke="#000000" points="133,-56.5 133,-75.5 203,-75.5 203,-56.5 133,-56.5"/>
<text text-anchor="middle" x="168" y="-63.5" font-family="Helvetica,sans-Serif" font-size="10.00" fill="#000000">headers.hpp</text>
</a>
</g>
</g>
<!-- Node1&#45;&gt;Node10 -->
<g id="edge10" class="edge">
<title>Node1&#45;&gt;Node10</title>
<path fill="none" stroke="#191970" d="M589.3834,-232.8252C493.5973,-229.878 289.8743,-219.9428 228,-188 198.3519,-172.694 192.2002,-162.1934 178,-132 171.2182,-117.5801 168.8367,-99.6102 168.085,-86.0638"/>
<polygon fill="#191970" stroke="#191970" points="171.5784,-85.7892 167.7762,-75.9002 164.5816,-86.0019 171.5784,-85.7892"/>
</g>
<!-- Node15 -->
<g id="node16" class="node">
<title>Node15</title>
<g id="a_node16"><a xlink:href="stateMachine_8hpp.html" target="_top" xlink:title="stateMachine.hpp">
<polygon fill="none" stroke="#000000" points="986,-112.5 986,-131.5 1080,-131.5 1080,-112.5 986,-112.5"/>
<text text-anchor="middle" x="1033" y="-119.5" font-family="Helvetica,sans-Serif" font-size="10.00" fill="#000000">stateMachine.hpp</text>
</a>
</g>
</g>
<!-- Node1&#45;&gt;Node15 -->
<g id="edge17" class="edge">
<title>Node1&#45;&gt;Node15</title>
<path fill="none" stroke="#191970" d="M673.507,-224.4509C744.7103,-204.1589 911.0088,-156.7659 989.9435,-134.2706"/>
<polygon fill="#191970" stroke="#191970" points="990.9201,-137.6317 999.5779,-131.5249 989.0015,-130.8997 990.9201,-137.6317"/>
</g>
<!-- Node28 -->
<g id="node29" class="node">
<title>Node28</title>
<g id="a_node29"><a xlink:href="helloBye2Proto_8cpp.html" target="_top" xlink:title="../src/helloBye2Proto.cpp">
<polygon fill="none" stroke="#000000" points="237.5,-168.5 237.5,-187.5 364.5,-187.5 364.5,-168.5 237.5,-168.5"/>
<text text-anchor="middle" x="301" y="-175.5" font-family="Helvetica,sans-Serif" font-size="10.00" fill="#000000">../src/helloBye2Proto.cpp</text>
</a>
</g>
</g>
<!-- Node1&#45;&gt;Node28 -->
<g id="edge40" class="edge">
<title>Node1&#45;&gt;Node28</title>
<path fill="none" stroke="#191970" d="M589.4924,-226.4476C529.2583,-216.8833 428.7434,-200.3203 363.6342,-189.2613"/>
<polygon fill="#191970" stroke="#191970" points="363.9458,-185.7641 353.5002,-187.5356 362.7707,-192.6647 363.9458,-185.7641"/>
</g>
<!-- Node5 -->
<g id="node6" class="node">
<title>Node5</title>
<polygon fill="none" stroke="#bfbfbf" points="325,-.5 325,-19.5 363,-19.5 363,-.5 325,-.5"/>
<text text-anchor="middle" x="344" y="-7.5" font-family="Helvetica,sans-Serif" font-size="10.00" fill="#000000">array</text>
</g>
<!-- Node4&#45;&gt;Node5 -->
<g id="edge5" class="edge">
<title>Node4&#45;&gt;Node5</title>
<path fill="none" stroke="#191970" d="M603.3758,-57.864C600.2087,-57.2133 597.0504,-56.583 594,-56 497.545,-37.5637 471.5413,-42.7004 376,-20 374.9524,-19.7511 373.889,-19.4859 372.8178,-19.2082"/>
<polygon fill="#191970" stroke="#191970" points="373.7462,-15.8335 363.1703,-16.4666 371.8327,-22.5669 373.7462,-15.8335"/>
</g>
<!-- Node6 -->
<g id="node7" class="node">
<title>Node6</title>
<polygon fill="none" stroke="#bfbfbf" points="1289.5,-.5 1289.5,-19.5 1338.5,-19.5 1338.5,-.5 1289.5,-.5"/>
<text text-anchor="middle" x="1314" y="-7.5" font-family="Helvetica,sans-Serif" font-size="10.00" fill="#000000">cassert</text>
</g>
<!-- Node4&#45;&gt;Node6 -->
<g id="edge6" class="edge">
<title>Node4&#45;&gt;Node6</title>
<path fill="none" stroke="#191970" d="M676.7559,-57.3744C679.537,-56.8622 682.3078,-56.3954 685,-56 909.7894,-22.9833 1183.425,-13.2683 1279.0337,-10.7724"/>
<polygon fill="#191970" stroke="#191970" points="1279.3726,-14.265 1289.2816,-10.515 1279.1968,-7.2673 1279.3726,-14.265"/>
</g>
<!-- Node8 -->
<g id="node9" class="node">
<title>Node8</title>
<polygon fill="none" stroke="#bfbfbf" points="597.5,-.5 597.5,-19.5 656.5,-19.5 656.5,-.5 597.5,-.5"/>
<text text-anchor="middle" x="627" y="-7.5" font-family="Helvetica,sans-Serif" font-size="10.00" fill="#000000">exception</text>
</g>
<!-- Node7&#45;&gt;Node8 -->
<g id="edge8" class="edge">
<title>Node7&#45;&gt;Node8</title>
<path fill="none" stroke="#191970" d="M781.0255,-56.3733C749.2615,-46.8099 700.4927,-32.1268 666.3647,-21.8517"/>
<polygon fill="#191970" stroke="#191970" points="667.301,-18.4785 656.7165,-18.9469 665.2829,-25.1813 667.301,-18.4785"/>
</g>
<!-- Node9 -->
<g id="node10" class="node">
<title>Node9</title>
<polygon fill="none" stroke="#bfbfbf" points="837.5,-.5 837.5,-19.5 896.5,-19.5 896.5,-.5 837.5,-.5"/>
<text text-anchor="middle" x="867" y="-7.5" font-family="Helvetica,sans-Serif" font-size="10.00" fill="#000000">stdexcept</text>
</g>
<!-- Node7&#45;&gt;Node9 -->
<g id="edge9" class="edge">
<title>Node7&#45;&gt;Node9</title>
<path fill="none" stroke="#191970" d="M822.4061,-56.2455C830.1493,-48.2155 841.312,-36.6394 850.5318,-27.0781"/>
<polygon fill="#191970" stroke="#191970" points="853.2798,-29.2706 857.7017,-19.6427 848.2409,-24.4117 853.2798,-29.2706"/>
</g>
<!-- Node10&#45;&gt;Node3 -->
<g id="edge14" class="edge">
<title>Node10&#45;&gt;Node3</title>
<path fill="none" stroke="#191970" d="M143.5893,-56.3733C120.3858,-47.2226 85.2962,-33.3844 59.4858,-23.2057"/>
<polygon fill="#191970" stroke="#191970" points="60.6789,-19.9139 50.0921,-19.5011 58.1108,-26.4258 60.6789,-19.9139"/>
</g>
<!-- Node10&#45;&gt;Node5 -->
<g id="edge11" class="edge">
<title>Node10&#45;&gt;Node5</title>
<path fill="none" stroke="#191970" d="M198.2555,-56.3733C231.069,-45.9326 283.0608,-29.3898 315.2663,-19.1425"/>
<polygon fill="#191970" stroke="#191970" points="316.51,-22.4198 324.9781,-16.0524 314.3876,-15.7493 316.51,-22.4198"/>
</g>
<!-- Node11 -->
<g id="node12" class="node">
<title>Node11</title>
<polygon fill="none" stroke="#bfbfbf" points="385,-.5 385,-19.5 431,-19.5 431,-.5 385,-.5"/>
<text text-anchor="middle" x="408" y="-7.5" font-family="Helvetica,sans-Serif" font-size="10.00" fill="#000000">cstdint</text>
</g>
<!-- Node10&#45;&gt;Node11 -->
<g id="edge12" class="edge">
<title>Node10&#45;&gt;Node11</title>
<path fill="none" stroke="#191970" d="M203.1391,-58.6259C243.8902,-49.947 313.0238,-34.8309 372,-20 372.9082,-19.7716 373.8285,-19.5372 374.7566,-19.2981"/>
<polygon fill="#191970" stroke="#191970" points="376.0425,-22.5778 384.8058,-16.6233 374.242,-15.8133 376.0425,-22.5778"/>
</g>
<!-- Node12 -->
<g id="node13" class="node">
<title>Node12</title>
<polygon fill="none" stroke="#bfbfbf" points="99,-.5 99,-19.5 145,-19.5 145,-.5 99,-.5"/>
<text text-anchor="middle" x="122" y="-7.5" font-family="Helvetica,sans-Serif" font-size="10.00" fill="#000000">cstring</text>
</g>
<!-- Node10&#45;&gt;Node12 -->
<g id="edge13" class="edge">
<title>Node10&#45;&gt;Node12</title>
<path fill="none" stroke="#191970" d="M159.9874,-56.2455C153.5232,-48.3761 144.2615,-37.101 136.5017,-27.6542"/>
<polygon fill="#191970" stroke="#191970" points="138.9727,-25.1484 129.9208,-19.6427 133.5636,-29.5916 138.9727,-25.1484"/>
</g>
<!-- Node13 -->
<g id="node14" class="node">
<title>Node13</title>
<polygon fill="none" stroke="#bfbfbf" points="258.5,-.5 258.5,-19.5 299.5,-19.5 299.5,-.5 258.5,-.5"/>
<text text-anchor="middle" x="279" y="-7.5" font-family="Helvetica,sans-Serif" font-size="10.00" fill="#000000">string</text>
</g>
<!-- Node10&#45;&gt;Node13 -->
<g id="edge15" class="edge">
<title>Node10&#45;&gt;Node13</title>
<path fill="none" stroke="#191970" d="M187.0816,-56.3733C204.7402,-47.4644 231.2053,-34.1127 251.2098,-24.0203"/>
<polygon fill="#191970" stroke="#191970" points="252.8158,-27.1303 260.1674,-19.5011 249.6628,-20.8806 252.8158,-27.1303"/>
</g>
<!-- Node14 -->
<g id="node15" class="node">
<title>Node14</title>
<polygon fill="none" stroke="#bfbfbf" points="163,-.5 163,-19.5 225,-19.5 225,-.5 163,-.5"/>
<text text-anchor="middle" x="194" y="-7.5" font-family="Helvetica,sans-Serif" font-size="10.00" fill="#000000">arpa/inet.h</text>
</g>
<!-- Node10&#45;&gt;Node14 -->
<g id="edge16" class="edge">
<title>Node10&#45;&gt;Node14</title>
<path fill="none" stroke="#191970" d="M172.5289,-56.2455C176.0334,-48.6973 180.9927,-38.0158 185.2623,-28.8197"/>
<polygon fill="#191970" stroke="#191970" points="188.4864,-30.1867 189.523,-19.6427 182.1373,-27.2389 188.4864,-30.1867"/>
</g>
<!-- Node15&#45;&gt;Node2 -->
<g id="edge25" class="edge">
<title>Node15&#45;&gt;Node2</title>
<path fill="none" stroke="#191970" d="M1080.0838,-119.1705C1186.566,-112.5599 1444.1995,-95.3255 1549.7774,-75.7756"/>
<polygon fill="#191970" stroke="#191970" points="1550.6646,-79.1685 1559.8075,-73.8152 1549.3218,-72.2985 1550.6646,-79.1685"/>
</g>
<!-- Node15&#45;&gt;Node4 -->
<g id="edge36" class="edge">
<title>Node15&#45;&gt;Node4</title>
<path fill="none" stroke="#191970" d="M985.7998,-117.0832C920.6585,-110.0065 799.3435,-95.7832 686.9362,-76.2332"/>
<polygon fill="#191970" stroke="#191970" points="687.2396,-72.733 676.7846,-74.4486 686.0275,-79.6272 687.2396,-72.733"/>
</g>
<!-- Node15&#45;&gt;Node6 -->
<g id="edge18" class="edge">
<title>Node15&#45;&gt;Node6</title>
<path fill="none" stroke="#191970" d="M1080.1598,-119.5094C1146.5705,-115.0556 1263.0187,-103.476 1294,-76 1306.9914,-64.4784 1311.6819,-44.8285 1313.3072,-29.9579"/>
<polygon fill="#191970" stroke="#191970" points="1316.8162,-29.9562 1314.0394,-19.7318 1309.8341,-29.4563 1316.8162,-29.9562"/>
</g>
<!-- Node15&#45;&gt;Node7 -->
<g id="edge37" class="edge">
<title>Node15&#45;&gt;Node7</title>
<path fill="none" stroke="#191970" d="M995.1807,-112.3733C957.8062,-102.8598 900.5276,-88.2797 860.1929,-78.0127"/>
<polygon fill="#191970" stroke="#191970" points="860.8802,-74.5761 850.3258,-75.5011 859.1534,-81.3598 860.8802,-74.5761"/>
</g>
<!-- Node15&#45;&gt;Node9 -->
<g id="edge27" class="edge">
<title>Node15&#45;&gt;Node9</title>
<path fill="none" stroke="#191970" d="M1009.0802,-112.3512C989.6834,-104.0235 962.0447,-90.9914 940,-76 918.7813,-61.5703 897.3341,-41.3555 883.2296,-27.11"/>
<polygon fill="#191970" stroke="#191970" points="885.6801,-24.6097 876.1972,-19.8846 880.6638,-29.4919 885.6801,-24.6097"/>
</g>
<!-- Node15&#45;&gt;Node11 -->
<g id="edge20" class="edge">
<title>Node15&#45;&gt;Node11</title>
<path fill="none" stroke="#191970" d="M1006.7218,-112.3875C981.9467,-103.2549 943.8236,-89.0219 911,-76 889.5177,-67.4775 885.4053,-61.6679 863,-56 782.8522,-35.7249 531.9976,-17.9956 441.2136,-12.0876"/>
<polygon fill="#191970" stroke="#191970" points="441.408,-8.593 431.2034,-11.442 440.9574,-15.5785 441.408,-8.593"/>
</g>
<!-- Node16 -->
<g id="node17" class="node">
<title>Node16</title>
<polygon fill="none" stroke="#bfbfbf" points="949,-56.5 949,-75.5 995,-75.5 995,-56.5 949,-56.5"/>
<text text-anchor="middle" x="972" y="-63.5" font-family="Helvetica,sans-Serif" font-size="10.00" fill="#000000">chrono</text>
</g>
<!-- Node15&#45;&gt;Node16 -->
<g id="edge19" class="edge">
<title>Node15&#45;&gt;Node16</title>
<path fill="none" stroke="#191970" d="M1022.3746,-112.2455C1013.4527,-104.0549 1000.512,-92.1749 989.9808,-82.5069"/>
<polygon fill="#191970" stroke="#191970" points="992.2371,-79.8271 982.5036,-75.6427 987.5032,-84.9837 992.2371,-79.8271"/>
</g>
<!-- Node17 -->
<g id="node18" class="node">
<title>Node17</title>
<polygon fill="none" stroke="#bfbfbf" points="694.5,-56.5 694.5,-75.5 753.5,-75.5 753.5,-56.5 694.5,-56.5"/>
<text text-anchor="middle" x="724" y="-63.5" font-family="Helvetica,sans-Serif" font-size="10.00" fill="#000000">functional</text>
</g>
<!-- Node15&#45;&gt;Node17 -->
<g id="edge21" class="edge">
<title>Node15&#45;&gt;Node17</title>
<path fill="none" stroke="#191970" d="M985.757,-115.2875C933.5554,-107.5799 846.821,-93.9173 763.6681,-76.2328"/>
<polygon fill="#191970" stroke="#191970" points="764.3225,-72.7936 753.8102,-74.1134 762.8511,-79.6372 764.3225,-72.7936"/>
</g>
<!-- Node18 -->
<g id="node19" class="node">
<title>Node18</title>
<polygon fill="none" stroke="#bfbfbf" points="531,-56.5 531,-75.5 585,-75.5 585,-56.5 531,-56.5"/>
<text text-anchor="middle" x="558" y="-63.5" font-family="Helvetica,sans-Serif" font-size="10.00" fill="#000000">iostream</text>
</g>
<!-- Node15&#45;&gt;Node18 -->
<g id="edge22" class="edge">
<title>Node15&#45;&gt;Node18</title>
<path fill="none" stroke="#191970" d="M985.8471,-119.6403C906.8572,-115.1266 742.7494,-103.3531 595.159,-75.9382"/>
<polygon fill="#191970" stroke="#191970" points="595.4884,-72.4386 585.0128,-74.0235 594.1903,-79.3172 595.4884,-72.4386"/>
</g>
<!-- Node19 -->
<g id="node20" class="node">
<title>Node19</title>
<polygon fill="none" stroke="#bfbfbf" points="1013,-56.5 1013,-75.5 1053,-75.5 1053,-56.5 1013,-56.5"/>
<text text-anchor="middle" x="1033" y="-63.5" font-family="Helvetica,sans-Serif" font-size="10.00" fill="#000000">limits</text>
</g>
<!-- Node15&#45;&gt;Node19 -->
<g id="edge23" class="edge">
<title>Node15&#45;&gt;Node19</title>
<path fill="none" stroke="#191970" d="M1033,-112.2455C1033,-104.9382 1033,-94.6944 1033,-85.7046"/>
<polygon fill="#191970" stroke="#191970" points="1036.5001,-85.6426 1033,-75.6427 1029.5001,-85.6427 1036.5001,-85.6426"/>
</g>
<!-- Node20 -->
<g id="node21" class="node">
<title>Node20</title>
<polygon fill="none" stroke="#bfbfbf" points="1071,-56.5 1071,-75.5 1123,-75.5 1123,-56.5 1071,-56.5"/>
<text text-anchor="middle" x="1097" y="-63.5" font-family="Helvetica,sans-Serif" font-size="10.00" fill="#000000">memory</text>
</g>
<!-- Node15&#45;&gt;Node20 -->
<g id="edge24" class="edge">
<title>Node15&#45;&gt;Node20</title>
<path fill="none" stroke="#191970" d="M1044.1479,-112.2455C1053.5087,-104.0549 1067.0858,-92.1749 1078.1349,-82.5069"/>
<polygon fill="#191970" stroke="#191970" points="1080.7588,-84.8618 1085.9798,-75.6427 1076.1492,-79.5937 1080.7588,-84.8618"/>
</g>
<!-- Node21 -->
<g id="node22" class="node">
<title>Node21</title>
<polygon fill="none" stroke="#bfbfbf" points="1141.5,-56.5 1141.5,-75.5 1184.5,-75.5 1184.5,-56.5 1141.5,-56.5"/>
<text text-anchor="middle" x="1163" y="-63.5" font-family="Helvetica,sans-Serif" font-size="10.00" fill="#000000">queue</text>
</g>
<!-- Node15&#45;&gt;Node21 -->
<g id="edge26" class="edge">
<title>Node15&#45;&gt;Node21</title>
<path fill="none" stroke="#191970" d="M1055.3478,-112.3733C1076.531,-103.2482 1108.5347,-89.462 1132.1451,-79.2913"/>
<polygon fill="#191970" stroke="#191970" points="1133.5764,-82.4858 1141.3758,-75.315 1130.807,-76.0569 1133.5764,-82.4858"/>
</g>
<!-- Node22 -->
<g id="node23" class="node">
<title>Node22</title>
<polygon fill="none" stroke="#bfbfbf" points="1202.5,-56.5 1202.5,-75.5 1285.5,-75.5 1285.5,-56.5 1202.5,-56.5"/>
<text text-anchor="middle" x="1244" y="-63.5" font-family="Helvetica,sans-Serif" font-size="10.00" fill="#000000">unordered_map</text>
</g>
<!-- Node15&#45;&gt;Node22 -->
<g id="edge28" class="edge">
<title>Node15&#45;&gt;Node22</title>
<path fill="none" stroke="#191970" d="M1069.2722,-112.3733C1104.9658,-102.9001 1159.5879,-88.4032 1198.2451,-78.1435"/>
<polygon fill="#191970" stroke="#191970" points="1199.4336,-81.4493 1208.2011,-75.5011 1197.6379,-74.6835 1199.4336,-81.4493"/>
</g>
<!-- Node23 -->
<g id="node24" class="node">
<title>Node23</title>
<polygon fill="none" stroke="#bfbfbf" points="1418,-.5 1418,-19.5 1462,-19.5 1462,-.5 1418,-.5"/>
<text text-anchor="middle" x="1440" y="-7.5" font-family="Helvetica,sans-Serif" font-size="10.00" fill="#000000">vector</text>
</g>
<!-- Node15&#45;&gt;Node23 -->
<g id="edge29" class="edge">
<title>Node15&#45;&gt;Node23</title>
<path fill="none" stroke="#191970" d="M1080.072,-119.4055C1178.1836,-113.5784 1397.5848,-98.2034 1423,-76 1435.9234,-64.7097 1439.6601,-45.029 1440.4713,-30.0883"/>
<polygon fill="#191970" stroke="#191970" points="1443.9751,-29.8558 1440.6251,-19.8045 1436.9759,-29.751 1443.9751,-29.8558"/>
</g>
<!-- Node24 -->
<g id="node25" class="node">
<title>Node24</title>
<g id="a_node25"><a xlink:href="bufArray_8hpp.html" target="_top" xlink:title="bufArray.hpp">
<polygon fill="none" stroke="#000000" points="1342.5,-56.5 1342.5,-75.5 1413.5,-75.5 1413.5,-56.5 1342.5,-56.5"/>
<text text-anchor="middle" x="1378" y="-63.5" font-family="Helvetica,sans-Serif" font-size="10.00" fill="#000000">bufArray.hpp</text>
</a>
</g>
</g>
<!-- Node15&#45;&gt;Node24 -->
<g id="edge30" class="edge">
<title>Node15&#45;&gt;Node24</title>
<path fill="none" stroke="#191970" d="M1080.1078,-115.2879C1138.4258,-106.8327 1240.7334,-91.5232 1328,-76 1329.4435,-75.7432 1330.9096,-75.4778 1332.3891,-75.206"/>
<polygon fill="#191970" stroke="#191970" points="1333.0795,-78.6375 1342.2557,-73.3416 1331.7797,-71.7593 1333.0795,-78.6375"/>
</g>
<!-- Node26 -->
<g id="node27" class="node">
<title>Node26</title>
<g id="a_node27"><a xlink:href="spinlock_8hpp.html" target="_top" xlink:title="spinlock.hpp">
<polygon fill="none" stroke="#000000" points="1470.5,-56.5 1470.5,-75.5 1541.5,-75.5 1541.5,-56.5 1470.5,-56.5"/>
<text text-anchor="middle" x="1506" y="-63.5" font-family="Helvetica,sans-Serif" font-size="10.00" fill="#000000">spinlock.hpp</text>
</a>
</g>
</g>
<!-- Node15&#45;&gt;Node26 -->
<g id="edge38" class="edge">
<title>Node15&#45;&gt;Node26</title>
<path fill="none" stroke="#191970" d="M1080.1249,-118.2555C1158.4373,-111.7242 1320.203,-96.9209 1456,-76 1457.4491,-75.7768 1458.92,-75.5405 1460.4037,-75.294"/>
<polygon fill="#191970" stroke="#191970" points="1461.0525,-78.7336 1470.2893,-73.544 1459.8323,-71.8408 1461.0525,-78.7336"/>
</g>
<!-- Node24&#45;&gt;Node6 -->
<g id="edge31" class="edge">
<title>Node24&#45;&gt;Node6</title>
<path fill="none" stroke="#191970" d="M1366.8521,-56.2455C1357.4913,-48.0549 1343.9142,-36.1749 1332.8651,-26.5069"/>
<polygon fill="#191970" stroke="#191970" points="1334.8508,-23.5937 1325.0202,-19.6427 1330.2412,-28.8618 1334.8508,-23.5937"/>
</g>
<!-- Node24&#45;&gt;Node9 -->
<g id="edge33" class="edge">
<title>Node24&#45;&gt;Node9</title>
<path fill="none" stroke="#191970" d="M1342.4512,-61.6789C1327.4956,-59.8841 1309.9062,-57.8035 1294,-56 1151.4225,-39.8339 981.9002,-21.9776 906.5195,-14.1083"/>
<polygon fill="#191970" stroke="#191970" points="906.8295,-10.6217 896.5203,-13.0654 906.1033,-17.5839 906.8295,-10.6217"/>
</g>
<!-- Node24&#45;&gt;Node11 -->
<g id="edge32" class="edge">
<title>Node24&#45;&gt;Node11</title>
<path fill="none" stroke="#191970" d="M1342.4952,-61.2348C1327.5467,-59.3685 1309.9507,-57.3546 1294,-56 980.9414,-29.4145 901.7406,-36.714 588,-20 536.8755,-17.2764 477.5933,-13.9505 441.4522,-11.9041"/>
<polygon fill="#191970" stroke="#191970" points="441.1958,-8.384 431.0136,-11.3121 440.7994,-15.3728 441.1958,-8.384"/>
</g>
<!-- Node24&#45;&gt;Node23 -->
<g id="edge35" class="edge">
<title>Node24&#45;&gt;Node23</title>
<path fill="none" stroke="#191970" d="M1388.7996,-56.2455C1397.8678,-48.0549 1411.0206,-36.1749 1421.7245,-26.5069"/>
<polygon fill="#191970" stroke="#191970" points="1424.2491,-28.9429 1429.3242,-19.6427 1419.5571,-23.7482 1424.2491,-28.9429"/>
</g>
<!-- Node25 -->
<g id="node26" class="node">
<title>Node25</title>
<polygon fill="none" stroke="#bfbfbf" points="1358,-.5 1358,-19.5 1398,-19.5 1398,-.5 1358,-.5"/>
<text text-anchor="middle" x="1378" y="-7.5" font-family="Helvetica,sans-Serif" font-size="10.00" fill="#000000">utility</text>
</g>
<!-- Node24&#45;&gt;Node25 -->
<g id="edge34" class="edge">
<title>Node24&#45;&gt;Node25</title>
<path fill="none" stroke="#191970" d="M1378,-56.2455C1378,-48.9382 1378,-38.6944 1378,-29.7046"/>
<polygon fill="#191970" stroke="#191970" points="1381.5001,-29.6426 1378,-19.6427 1374.5001,-29.6427 1381.5001,-29.6426"/>
</g>
<!-- Node27 -->
<g id="node28" class="node">
<title>Node27</title>
<polygon fill="none" stroke="#bfbfbf" points="1483,-.5 1483,-19.5 1529,-19.5 1529,-.5 1483,-.5"/>
<text text-anchor="middle" x="1506" y="-7.5" font-family="Helvetica,sans-Serif" font-size="10.00" fill="#000000">atomic</text>
</g>
<!-- Node26&#45;&gt;Node27 -->
<g id="edge39" class="edge">
<title>Node26&#45;&gt;Node27</title>
<path fill="none" stroke="#191970" d="M1506,-56.2455C1506,-48.9382 1506,-38.6944 1506,-29.7046"/>
<polygon fill="#191970" stroke="#191970" points="1509.5001,-29.6426 1506,-19.6427 1502.5001,-29.6427 1509.5001,-29.6426"/>
</g>
<!-- Node28&#45;&gt;Node1 -->
<g id="edge55" class="edge">
<title>Node28&#45;&gt;Node1</title>
<path fill="none" stroke="#191970" d="M363.9902,-187.5423C425.4464,-197.3738 518.1959,-212.6807 578.9726,-223.0117"/>
<polygon fill="#191970" stroke="#191970" points="578.7414,-226.5227 589.1874,-224.7527 579.9176,-219.6222 578.7414,-226.5227"/>
</g>
<!-- Node28&#45;&gt;Node3 -->
<g id="edge42" class="edge">
<title>Node28&#45;&gt;Node3</title>
<path fill="none" stroke="#191970" d="M255.8067,-168.4889C183.5157,-152.2039 47.3932,-116.7654 22,-76 13.3909,-62.1793 15.55,-43.412 19.1875,-29.4226"/>
<polygon fill="#191970" stroke="#191970" points="22.5476,-30.4028 22.1034,-19.8173 15.8495,-28.3694 22.5476,-30.4028"/>
</g>
<!-- Node28&#45;&gt;Node10 -->
<g id="edge54" class="edge">
<title>Node28&#45;&gt;Node10</title>
<path fill="none" stroke="#191970" d="M260.4383,-168.4334C238.6383,-161.4867 212.6836,-150.0611 195,-132 182.5767,-119.3116 175.5987,-100.1219 171.8641,-85.6997"/>
<polygon fill="#191970" stroke="#191970" points="175.2394,-84.7586 169.6039,-75.7869 168.4145,-86.3147 175.2394,-84.7586"/>
</g>
<!-- Node29 -->
<g id="node30" class="node">
<title>Node29</title>
<polygon fill="none" stroke="#bfbfbf" points="31.5,-56.5 31.5,-75.5 76.5,-75.5 76.5,-56.5 31.5,-56.5"/>
<text text-anchor="middle" x="54" y="-63.5" font-family="Helvetica,sans-Serif" font-size="10.00" fill="#000000">cstdlib</text>
</g>
<!-- Node28&#45;&gt;Node29 -->
<g id="edge41" class="edge">
<title>Node28&#45;&gt;Node29</title>
<path fill="none" stroke="#191970" d="M272.2362,-168.444C247.0312,-159.7877 209.5925,-146.2412 178,-132 142.9086,-116.1816 103.9521,-94.7802 79.2358,-80.6932"/>
<polygon fill="#191970" stroke="#191970" points="80.9135,-77.6206 70.498,-75.6793 77.4295,-83.6921 80.9135,-77.6206"/>
</g>
<!-- Node30 -->
<g id="node31" class="node">
<title>Node30</title>
<g id="a_node31"><a xlink:href="IPv4__5TupleL2Ident_8hpp.html" target="_top" xlink:title="IPv4_5TupleL2Ident.hpp">
<polygon fill="none" stroke="#000000" points="404,-112.5 404,-131.5 526,-131.5 526,-112.5 404,-112.5"/>
<text text-anchor="middle" x="465" y="-119.5" font-family="Helvetica,sans-Serif" font-size="10.00" fill="#000000">IPv4_5TupleL2Ident.hpp</text>
</a>
</g>
</g>
<!-- Node28&#45;&gt;Node30 -->
<g id="edge43" class="edge">
<title>Node28&#45;&gt;Node30</title>
<path fill="none" stroke="#191970" d="M329.1926,-168.3733C356.3453,-159.1016 397.5907,-145.0178 427.5025,-134.804"/>
<polygon fill="#191970" stroke="#191970" points="428.8428,-138.0449 437.1753,-131.5011 426.5808,-131.4204 428.8428,-138.0449"/>
</g>
<!-- Node31 -->
<g id="node32" class="node">
<title>Node31</title>
<g id="a_node32"><a xlink:href="mbuf_8hpp.html" target="_top" xlink:title="mbuf.hpp">
<polygon fill="none" stroke="#000000" points="320.5,-112.5 320.5,-131.5 377.5,-131.5 377.5,-112.5 320.5,-112.5"/>
<text text-anchor="middle" x="349" y="-119.5" font-family="Helvetica,sans-Serif" font-size="10.00" fill="#000000">mbuf.hpp</text>
</a>
</g>
</g>
<!-- Node28&#45;&gt;Node31 -->
<g id="edge56" class="edge">
<title>Node28&#45;&gt;Node31</title>
<path fill="none" stroke="#191970" d="M309.361,-168.2455C316.175,-160.2958 325.9681,-148.8706 334.1152,-139.3656"/>
<polygon fill="#191970" stroke="#191970" points="336.8843,-141.513 340.7349,-131.6427 331.5695,-136.9575 336.8843,-141.513"/>
</g>
<!-- Node33 -->
<g id="node34" class="node">
<title>Node33</title>
<g id="a_node34"><a xlink:href="samplePacket_8hpp.html" target="_top" xlink:title="samplePacket.hpp">
<polygon fill="none" stroke="#000000" points="204,-112.5 204,-131.5 302,-131.5 302,-112.5 204,-112.5"/>
<text text-anchor="middle" x="253" y="-119.5" font-family="Helvetica,sans-Serif" font-size="10.00" fill="#000000">samplePacket.hpp</text>
</a>
</g>
</g>
<!-- Node28&#45;&gt;Node33 -->
<g id="edge59" class="edge">
<title>Node28&#45;&gt;Node33</title>
<path fill="none" stroke="#191970" d="M292.639,-168.2455C285.825,-160.2958 276.0319,-148.8706 267.8848,-139.3656"/>
<polygon fill="#191970" stroke="#191970" points="270.4305,-136.9575 261.2651,-131.6427 265.1157,-141.513 270.4305,-136.9575"/>
</g>
<!-- Node30&#45;&gt;Node3 -->
<g id="edge48" class="edge">
<title>Node30&#45;&gt;Node3</title>
<path fill="none" stroke="#191970" d="M403.9113,-114.1166C307.5613,-101.633 130.491,-78.4684 124,-76 93.407,-64.3661 62.8785,-41.5943 44.2192,-26.0887"/>
<polygon fill="#191970" stroke="#191970" points="46.4083,-23.3557 36.5237,-19.5419 41.8724,-28.6874 46.4083,-23.3557"/>
</g>
<!-- Node30&#45;&gt;Node4 -->
<g id="edge51" class="edge">
<title>Node30&#45;&gt;Node4</title>
<path fill="none" stroke="#191970" d="M495.0836,-112.3733C524.1834,-103.0613 568.4523,-88.8953 600.403,-78.671"/>
<polygon fill="#191970" stroke="#191970" points="601.8515,-81.8824 610.309,-75.5011 599.718,-75.2155 601.8515,-81.8824"/>
</g>
<!-- Node30&#45;&gt;Node7 -->
<g id="edge53" class="edge">
<title>Node30&#45;&gt;Node7</title>
<path fill="none" stroke="#191970" d="M526.265,-113.2413C584.1682,-104.7976 673.7214,-91.3126 761.1766,-76.0896"/>
<polygon fill="#191970" stroke="#191970" points="762.0298,-79.4935 771.2767,-74.3219 760.823,-72.5983 762.0298,-79.4935"/>
</g>
<!-- Node30&#45;&gt;Node8 -->
<g id="edge45" class="edge">
<title>Node30&#45;&gt;Node8</title>
<path fill="none" stroke="#191970" d="M465.9316,-112.0504C467.7971,-97.7181 473.2734,-71.3073 489,-56 515.5024,-30.2042 556.8429,-18.8683 587.3724,-13.8902"/>
<polygon fill="#191970" stroke="#191970" points="587.8901,-17.3518 597.2744,-12.4339 586.8715,-10.4262 587.8901,-17.3518"/>
</g>
<!-- Node30&#45;&gt;Node9 -->
<g id="edge49" class="edge">
<title>Node30&#45;&gt;Node9</title>
<path fill="none" stroke="#191970" d="M470.1745,-112.4177C478.7683,-97.5462 497.4927,-69.2454 522,-56 574.0192,-27.8853 748.1413,-15.8728 827.2667,-11.7741"/>
<polygon fill="#191970" stroke="#191970" points="827.5182,-15.266 837.3303,-11.2692 827.1674,-8.2748 827.5182,-15.266"/>
</g>
<!-- Node30&#45;&gt;Node10 -->
<g id="edge52" class="edge">
<title>Node30&#45;&gt;Node10</title>
<path fill="none" stroke="#191970" d="M414.2813,-112.4369C357.7819,-101.7838 267.2877,-84.7209 213.1488,-74.5129"/>
<polygon fill="#191970" stroke="#191970" points="213.6284,-71.0417 203.153,-72.6282 212.3313,-77.9205 213.6284,-71.0417"/>
</g>
<!-- Node30&#45;&gt;Node11 -->
<g id="edge44" class="edge">
<title>Node30&#45;&gt;Node11</title>
<path fill="none" stroke="#191970" d="M460.1402,-112.4509C450.7174,-93.936 429.8122,-52.8591 417.5265,-28.7187"/>
<polygon fill="#191970" stroke="#191970" points="420.5025,-26.8496 412.8475,-19.5249 414.2639,-30.0246 420.5025,-26.8496"/>
</g>
<!-- Node30&#45;&gt;Node13 -->
<g id="edge50" class="edge">
<title>Node30&#45;&gt;Node13</title>
<path fill="none" stroke="#191970" d="M449.1417,-112.4509C416.6092,-92.8615 342.1324,-48.0152 303.4034,-24.6945"/>
<polygon fill="#191970" stroke="#191970" points="305.1904,-21.6851 294.8181,-19.5249 301.5794,-27.6818 305.1904,-21.6851"/>
</g>
<!-- Node30&#45;&gt;Node17 -->
<g id="edge46" class="edge">
<title>Node30&#45;&gt;Node17</title>
<path fill="none" stroke="#191970" d="M513.6362,-112.4824C556.1259,-104.0206 619.6988,-91.0076 684.2733,-76.0932"/>
<polygon fill="#191970" stroke="#191970" points="685.2747,-79.4538 694.2232,-73.7816 683.6906,-72.6354 685.2747,-79.4538"/>
</g>
<!-- Node30&#45;&gt;Node18 -->
<g id="edge47" class="edge">
<title>Node30&#45;&gt;Node18</title>
<path fill="none" stroke="#191970" d="M481.1994,-112.2455C495.6018,-103.5731 516.8732,-90.7645 533.3799,-80.825"/>
<polygon fill="#191970" stroke="#191970" points="535.225,-83.7996 541.9863,-75.6427 531.614,-77.8028 535.225,-83.7996"/>
</g>
<!-- Node31&#45;&gt;Node11 -->
<g id="edge57" class="edge">
<title>Node31&#45;&gt;Node11</title>
<path fill="none" stroke="#191970" d="M354.0303,-112.4509C363.8273,-93.8533 385.6159,-52.4919 398.309,-28.3964"/>
<polygon fill="#191970" stroke="#191970" points="401.4183,-30.0036 402.9824,-19.5249 395.225,-26.7411 401.4183,-30.0036"/>
</g>
<!-- Node32 -->
<g id="node33" class="node">
<title>Node32</title>
<polygon fill="none" stroke="#bfbfbf" points="259.5,-56.5 259.5,-75.5 322.5,-75.5 322.5,-56.5 259.5,-56.5"/>
<text text-anchor="middle" x="291" y="-63.5" font-family="Helvetica,sans-Serif" font-size="10.00" fill="#000000">rte_mbuf.h</text>
</g>
<!-- Node31&#45;&gt;Node32 -->
<g id="edge58" class="edge">
<title>Node31&#45;&gt;Node32</title>
<path fill="none" stroke="#191970" d="M338.8972,-112.2455C330.4972,-104.1352 318.3506,-92.4075 308.3916,-82.7919"/>
<polygon fill="#191970" stroke="#191970" points="310.6122,-80.0707 300.9871,-75.6427 305.75,-85.1066 310.6122,-80.0707"/>
</g>
<!-- Node33&#45;&gt;Node11 -->
<g id="edge60" class="edge">
<title>Node33&#45;&gt;Node11</title>
<path fill="none" stroke="#191970" d="M249.0873,-112.3695C244.1255,-98.4346 237.6082,-72.514 250,-56 250.9665,-54.712 328.9961,-32.4063 375.0228,-19.3373"/>
<polygon fill="#191970" stroke="#191970" points="376.2045,-22.6403 384.8695,-16.5437 374.2938,-15.9061 376.2045,-22.6403"/>
</g>
<!-- Node33&#45;&gt;Node29 -->
<g id="edge61" class="edge">
<title>Node33&#45;&gt;Node29</title>
<path fill="none" stroke="#191970" d="M218.7907,-112.3733C181.6135,-101.9113 122.6634,-85.3224 86.2665,-75.08"/>
<polygon fill="#191970" stroke="#191970" points="87.2098,-71.7096 76.6356,-72.3698 85.3136,-78.4479 87.2098,-71.7096"/>
</g>
</g>
</svg>
