<?xml version="1.0" encoding="UTF-8" standalone="no"?>
<!DOCTYPE svg PUBLIC "-//W3C//DTD SVG 1.1//EN"
 "http://www.w3.org/Graphics/SVG/1.1/DTD/svg11.dtd">
<!-- Generated by graphviz version 2.38.0 (20140413.2041)
 -->
<!-- Title: /home/dominik/uni/MoonState/src/helloBye_C.cpp Pages: 1 -->
<svg width="1633pt" height="375pt"
 viewBox="0.00 0.00 1633.00 375.00" xmlns="http://www.w3.org/2000/svg" xmlns:xlink="http://www.w3.org/1999/xlink">
<g id="graph0" class="graph" transform="scale(1 1) rotate(0) translate(4 371)">
<title>/home/dominik/uni/MoonState/src/helloBye_C.cpp</title>
<!-- Node1 -->
<g id="node1" class="node"><title>Node1</title>
<polygon fill="#bfbfbf" stroke="black" points="1219,-336.5 1219,-366.5 1366,-366.5 1366,-336.5 1219,-336.5"/>
<text text-anchor="start" x="1227" y="-354.5" font-family="Helvetica,sans-Serif" font-size="10.00">/home/dominik/uni/MoonState</text>
<text text-anchor="middle" x="1292.5" y="-343.5" font-family="Helvetica,sans-Serif" font-size="10.00">/src/helloBye_C.cpp</text>
</g>
<!-- Node2 -->
<g id="node2" class="node"><title>Node2</title>
<g id="a_node2"><a xlink:href="helloBye__C_8hpp.html" target="_top" xlink:title="helloBye_C.hpp">
<polygon fill="none" stroke="black" points="1249.5,-280.5 1249.5,-299.5 1335.5,-299.5 1335.5,-280.5 1249.5,-280.5"/>
<text text-anchor="middle" x="1292.5" y="-287.5" font-family="Helvetica,sans-Serif" font-size="10.00">helloBye_C.hpp</text>
</a>
</g>
</g>
<!-- Node1&#45;&gt;Node2 -->
<g id="edge1" class="edge"><title>Node1&#45;&gt;Node2</title>
<path fill="none" stroke="midnightblue" d="M1292.5,-336.399C1292.5,-328.466 1292.5,-318.458 1292.5,-309.858"/>
<polygon fill="midnightblue" stroke="midnightblue" points="1296,-309.658 1292.5,-299.658 1289,-309.658 1296,-309.658"/>
</g>
<!-- Node7 -->
<g id="node7" class="node"><title>Node7</title>
<g id="a_node7"><a xlink:href="stateMachine_8hpp.html" target="_top" xlink:title="stateMachine.hpp">
<polygon fill="none" stroke="black" points="542.5,-112.5 542.5,-131.5 636.5,-131.5 636.5,-112.5 542.5,-112.5"/>
<text text-anchor="middle" x="589.5" y="-119.5" font-family="Helvetica,sans-Serif" font-size="10.00">stateMachine.hpp</text>
</a>
</g>
</g>
<!-- Node1&#45;&gt;Node7 -->
<g id="edge64" class="edge"><title>Node1&#45;&gt;Node7</title>
<path fill="none" stroke="midnightblue" d="M1249.05,-336.441C1120.63,-294.881 744.376,-173.12 625.757,-134.733"/>
<polygon fill="midnightblue" stroke="midnightblue" points="626.646,-131.342 616.054,-131.593 624.491,-138.002 626.646,-131.342"/>
</g>
<!-- Node18 -->
<g id="node18" class="node"><title>Node18</title>
<g id="a_node18"><a xlink:href="bufArray_8hpp.html" target="_top" xlink:title="bufArray.hpp">
<polygon fill="none" stroke="black" points="52,-56.5 52,-75.5 123,-75.5 123,-56.5 52,-56.5"/>
<text text-anchor="middle" x="87.5" y="-63.5" font-family="Helvetica,sans-Serif" font-size="10.00">bufArray.hpp</text>
</a>
</g>
</g>
<!-- Node1&#45;&gt;Node18 -->
<g id="edge61" class="edge"><title>Node1&#45;&gt;Node18</title>
<path fill="none" stroke="midnightblue" d="M1218.82,-349.639C989.157,-345.987 301.5,-327.344 301.5,-235 301.5,-235 301.5,-235 301.5,-177 301.5,-138.221 188.939,-97.8321 127.086,-78.566"/>
<polygon fill="midnightblue" stroke="midnightblue" points="127.843,-75.1371 117.256,-75.5486 125.789,-81.8289 127.843,-75.1371"/>
</g>
<!-- Node27 -->
<g id="node27" class="node"><title>Node27</title>
<g id="a_node27"><a xlink:href="IPv4__5TupleL2Ident_8hpp.html" target="_top" xlink:title="IPv4_5TupleL2Ident.hpp">
<polygon fill="none" stroke="black" points="1037.5,-112.5 1037.5,-131.5 1159.5,-131.5 1159.5,-112.5 1037.5,-112.5"/>
<text text-anchor="middle" x="1098.5" y="-119.5" font-family="Helvetica,sans-Serif" font-size="10.00">IPv4_5TupleL2Ident.hpp</text>
</a>
</g>
</g>
<!-- Node1&#45;&gt;Node27 -->
<g id="edge60" class="edge"><title>Node1&#45;&gt;Node27</title>
<path fill="none" stroke="midnightblue" d="M1275.67,-336.299C1252.97,-316.737 1211.91,-279.839 1181.5,-244 1152.24,-209.516 1123.64,-164.666 1108.86,-140.413"/>
<polygon fill="midnightblue" stroke="midnightblue" points="1111.74,-138.4 1103.58,-131.643 1105.74,-142.014 1111.74,-138.4"/>
</g>
<!-- Node29 -->
<g id="node29" class="node"><title>Node29</title>
<g id="a_node29"><a xlink:href="headers_8hpp.html" target="_top" xlink:title="headers.hpp">
<polygon fill="none" stroke="black" points="1397.5,-56.5 1397.5,-75.5 1467.5,-75.5 1467.5,-56.5 1397.5,-56.5"/>
<text text-anchor="middle" x="1432.5" y="-63.5" font-family="Helvetica,sans-Serif" font-size="10.00">headers.hpp</text>
</a>
</g>
</g>
<!-- Node1&#45;&gt;Node29 -->
<g id="edge62" class="edge"><title>Node1&#45;&gt;Node29</title>
<path fill="none" stroke="midnightblue" d="M1326.99,-336.378C1363.99,-318.665 1417.5,-284.492 1417.5,-235 1417.5,-235 1417.5,-235 1417.5,-177 1417.5,-144.502 1424.01,-107.095 1428.45,-85.343"/>
<polygon fill="midnightblue" stroke="midnightblue" points="1431.89,-86.0128 1430.54,-75.5039 1425.04,-84.5586 1431.89,-86.0128"/>
</g>
<!-- Node33 -->
<g id="node33" class="node"><title>Node33</title>
<g id="a_node33"><a xlink:href="mbuf_8hpp.html" target="_top" xlink:title="mbuf.hpp">
<polygon fill="none" stroke="black" points="1484,-112.5 1484,-131.5 1541,-131.5 1541,-112.5 1484,-112.5"/>
<text text-anchor="middle" x="1512.5" y="-119.5" font-family="Helvetica,sans-Serif" font-size="10.00">mbuf.hpp</text>
</a>
</g>
</g>
<!-- Node1&#45;&gt;Node33 -->
<g id="edge63" class="edge"><title>Node1&#45;&gt;Node33</title>
<path fill="none" stroke="midnightblue" d="M1363.42,-336.49C1387.29,-328.922 1412.63,-317.408 1431.5,-300 1479.47,-255.755 1501.16,-177.55 1508.92,-141.792"/>
<polygon fill="midnightblue" stroke="midnightblue" points="1512.4,-142.268 1510.97,-131.77 1505.54,-140.867 1512.4,-142.268"/>
</g>
<!-- Node34 -->
<g id="node34" class="node"><title>Node34</title>
<polygon fill="none" stroke="#bfbfbf" points="1562,-56.5 1562,-75.5 1625,-75.5 1625,-56.5 1562,-56.5"/>
<text text-anchor="middle" x="1593.5" y="-63.5" font-family="Helvetica,sans-Serif" font-size="10.00">rte_mbuf.h</text>
</g>
<!-- Node1&#45;&gt;Node34 -->
<g id="edge65" class="edge"><title>Node1&#45;&gt;Node34</title>
<path fill="none" stroke="midnightblue" d="M1366.35,-338.583C1459.46,-321.427 1607.5,-286.112 1607.5,-235 1607.5,-235 1607.5,-235 1607.5,-177 1607.5,-144.541 1601.43,-107.121 1597.28,-85.3564"/>
<polygon fill="midnightblue" stroke="midnightblue" points="1600.71,-84.6401 1595.33,-75.5108 1593.84,-86.0003 1600.71,-84.6401"/>
</g>
<!-- Node3 -->
<g id="node3" class="node"><title>Node3</title>
<g id="a_node3"><a xlink:href="helloByeProto_8hpp.html" target="_top" xlink:title="helloByeProto.hpp">
<polygon fill="none" stroke="black" points="1190.5,-224.5 1190.5,-243.5 1286.5,-243.5 1286.5,-224.5 1190.5,-224.5"/>
<text text-anchor="middle" x="1238.5" y="-231.5" font-family="Helvetica,sans-Serif" font-size="10.00">helloByeProto.hpp</text>
</a>
</g>
</g>
<!-- Node2&#45;&gt;Node3 -->
<g id="edge2" class="edge"><title>Node2&#45;&gt;Node3</title>
<path fill="none" stroke="midnightblue" d="M1283.58,-280.083C1275.72,-272.22 1264.07,-260.569 1254.58,-251.081"/>
<polygon fill="midnightblue" stroke="midnightblue" points="1256.8,-248.347 1247.25,-243.751 1251.85,-253.297 1256.8,-248.347"/>
</g>
<!-- Node2&#45;&gt;Node34 -->
<g id="edge59" class="edge"><title>Node2&#45;&gt;Node34</title>
<path fill="none" stroke="midnightblue" d="M1312.6,-280.496C1358.83,-260.197 1474.58,-205.102 1550.5,-132 1564.77,-118.255 1576.79,-98.9636 1584.46,-84.9701"/>
<polygon fill="midnightblue" stroke="midnightblue" points="1587.69,-86.3516 1589.24,-75.872 1581.49,-83.0924 1587.69,-86.3516"/>
</g>
<!-- Node4 -->
<g id="node4" class="node"><title>Node4</title>
<polygon fill="none" stroke="#bfbfbf" points="662.5,-56.5 662.5,-75.5 706.5,-75.5 706.5,-56.5 662.5,-56.5"/>
<text text-anchor="middle" x="684.5" y="-63.5" font-family="Helvetica,sans-Serif" font-size="10.00">mutex</text>
</g>
<!-- Node3&#45;&gt;Node4 -->
<g id="edge3" class="edge"><title>Node3&#45;&gt;Node4</title>
<path fill="none" stroke="midnightblue" d="M1209.88,-224.425C1115.62,-196.179 815.249,-106.178 716.387,-76.5545"/>
<polygon fill="midnightblue" stroke="midnightblue" points="717.249,-73.1593 706.666,-73.6417 715.24,-79.8648 717.249,-73.1593"/>
</g>
<!-- Node5 -->
<g id="node5" class="node"><title>Node5</title>
<g id="a_node5"><a xlink:href="common_8hpp.html" target="_top" xlink:title="common.hpp">
<polygon fill="none" stroke="black" points="1090,-56.5 1090,-75.5 1163,-75.5 1163,-56.5 1090,-56.5"/>
<text text-anchor="middle" x="1126.5" y="-63.5" font-family="Helvetica,sans-Serif" font-size="10.00">common.hpp</text>
</a>
</g>
</g>
<!-- Node3&#45;&gt;Node5 -->
<g id="edge4" class="edge"><title>Node3&#45;&gt;Node5</title>
<path fill="none" stroke="midnightblue" d="M1234.37,-224.378C1224.4,-203.954 1197.69,-151.389 1168.5,-112 1160.88,-101.719 1151.2,-91.2113 1143.06,-82.9378"/>
<polygon fill="midnightblue" stroke="midnightblue" points="1145.4,-80.3295 1135.83,-75.7704 1140.47,-85.2985 1145.4,-80.3295"/>
</g>
<!-- Node3&#45;&gt;Node7 -->
<g id="edge6" class="edge"><title>Node3&#45;&gt;Node7</title>
<path fill="none" stroke="midnightblue" d="M1190.38,-225.745C1133.5,-217.098 1036.02,-202.047 952.5,-188 843.58,-169.681 716.612,-146.534 645.384,-133.385"/>
<polygon fill="midnightblue" stroke="midnightblue" points="645.758,-129.895 635.288,-131.519 644.486,-136.778 645.758,-129.895"/>
</g>
<!-- Node24 -->
<g id="node24" class="node"><title>Node24</title>
<g id="a_node24"><a xlink:href="helloByeProto_8cpp.html" target="_top" xlink:title="../src/helloByeProto.cpp">
<polygon fill="none" stroke="black" points="1241.5,-168.5 1241.5,-187.5 1363.5,-187.5 1363.5,-168.5 1241.5,-168.5"/>
<text text-anchor="middle" x="1302.5" y="-175.5" font-family="Helvetica,sans-Serif" font-size="10.00">../src/helloByeProto.cpp</text>
</a>
</g>
</g>
<!-- Node3&#45;&gt;Node24 -->
<g id="edge31" class="edge"><title>Node3&#45;&gt;Node24</title>
<path fill="none" stroke="midnightblue" d="M1243.9,-224.083C1251.87,-215.905 1266.1,-203.631 1278.66,-193.954"/>
<polygon fill="midnightblue" stroke="midnightblue" points="1281.07,-196.529 1287,-187.751 1276.89,-190.914 1281.07,-196.529"/>
</g>
<!-- Node6 -->
<g id="node6" class="node"><title>Node6</title>
<polygon fill="none" stroke="#bfbfbf" points="1168.5,-0.5 1168.5,-19.5 1214.5,-19.5 1214.5,-0.5 1168.5,-0.5"/>
<text text-anchor="middle" x="1191.5" y="-7.5" font-family="Helvetica,sans-Serif" font-size="10.00">cstdint</text>
</g>
<!-- Node5&#45;&gt;Node6 -->
<g id="edge5" class="edge"><title>Node5&#45;&gt;Node6</title>
<path fill="none" stroke="midnightblue" d="M1136.94,-56.324C1146.65,-48.2631 1161.32,-36.0765 1173,-26.3695"/>
<polygon fill="midnightblue" stroke="midnightblue" points="1175.41,-28.9163 1180.87,-19.8339 1170.94,-23.532 1175.41,-28.9163"/>
</g>
<!-- Node7&#45;&gt;Node4 -->
<g id="edge14" class="edge"><title>Node7&#45;&gt;Node4</title>
<path fill="none" stroke="midnightblue" d="M604.763,-112.324C619.721,-103.822 642.755,-90.7288 660.227,-80.7975"/>
<polygon fill="midnightblue" stroke="midnightblue" points="662.31,-83.639 669.274,-75.6545 658.851,-77.5534 662.31,-83.639"/>
</g>
<!-- Node7&#45;&gt;Node5 -->
<g id="edge25" class="edge"><title>Node7&#45;&gt;Node5</title>
<path fill="none" stroke="midnightblue" d="M636.586,-116.281C718.213,-108.098 891.283,-90.7365 1037.5,-76 1051.17,-74.6225 1066.02,-73.1225 1079.6,-71.749"/>
<polygon fill="midnightblue" stroke="midnightblue" points="1080.1,-75.2163 1089.69,-70.7275 1079.39,-68.2518 1080.1,-75.2163"/>
</g>
<!-- Node7&#45;&gt;Node6 -->
<g id="edge9" class="edge"><title>Node7&#45;&gt;Node6</title>
<path fill="none" stroke="midnightblue" d="M636.781,-117.796C708.428,-112.389 848.544,-99.6574 965.5,-76 1035.48,-61.8448 1115.31,-36.6968 1158.88,-22.1802"/>
<polygon fill="midnightblue" stroke="midnightblue" points="1160.02,-25.4918 1168.38,-18.9916 1157.79,-18.8557 1160.02,-25.4918"/>
</g>
<!-- Node8 -->
<g id="node8" class="node"><title>Node8</title>
<polygon fill="none" stroke="#bfbfbf" points="0,-0.5 0,-19.5 49,-19.5 49,-0.5 0,-0.5"/>
<text text-anchor="middle" x="24.5" y="-7.5" font-family="Helvetica,sans-Serif" font-size="10.00">cassert</text>
</g>
<!-- Node7&#45;&gt;Node8 -->
<g id="edge7" class="edge"><title>Node7&#45;&gt;Node8</title>
<path fill="none" stroke="midnightblue" d="M542.14,-120.16C416.3,-117.506 80.5795,-107.516 42.5,-76 29.1297,-64.9343 25.2077,-44.8931 24.2753,-29.9791"/>
<polygon fill="midnightblue" stroke="midnightblue" points="27.7704,-29.7229 24.038,-19.8072 20.7723,-29.8862 27.7704,-29.7229"/>
</g>
<!-- Node9 -->
<g id="node9" class="node"><title>Node9</title>
<polygon fill="none" stroke="#bfbfbf" points="370.5,-56.5 370.5,-75.5 416.5,-75.5 416.5,-56.5 370.5,-56.5"/>
<text text-anchor="middle" x="393.5" y="-63.5" font-family="Helvetica,sans-Serif" font-size="10.00">chrono</text>
</g>
<!-- Node7&#45;&gt;Node9 -->
<g id="edge8" class="edge"><title>Node7&#45;&gt;Node9</title>
<path fill="none" stroke="midnightblue" d="M558.044,-112.433C526.952,-103.95 477.776,-90.497 426.218,-76.1874"/>
<polygon fill="midnightblue" stroke="midnightblue" points="427.139,-72.8108 416.567,-73.5065 425.265,-79.5554 427.139,-72.8108"/>
</g>
<!-- Node10 -->
<g id="node10" class="node"><title>Node10</title>
<polygon fill="none" stroke="#bfbfbf" points="797,-56.5 797,-75.5 856,-75.5 856,-56.5 797,-56.5"/>
<text text-anchor="middle" x="826.5" y="-63.5" font-family="Helvetica,sans-Serif" font-size="10.00">functional</text>
</g>
<!-- Node7&#45;&gt;Node10 -->
<g id="edge10" class="edge"><title>Node7&#45;&gt;Node10</title>
<path fill="none" stroke="midnightblue" d="M627.098,-112.494C664.909,-103.931 725.152,-90.2649 786.79,-76.1569"/>
<polygon fill="midnightblue" stroke="midnightblue" points="787.725,-79.5334 796.692,-73.8895 786.163,-72.7101 787.725,-79.5334"/>
</g>
<!-- Node11 -->
<g id="node11" class="node"><title>Node11</title>
<polygon fill="none" stroke="#bfbfbf" points="724.5,-56.5 724.5,-75.5 778.5,-75.5 778.5,-56.5 724.5,-56.5"/>
<text text-anchor="middle" x="751.5" y="-63.5" font-family="Helvetica,sans-Serif" font-size="10.00">iostream</text>
</g>
<!-- Node7&#45;&gt;Node11 -->
<g id="edge11" class="edge"><title>Node7&#45;&gt;Node11</title>
<path fill="none" stroke="midnightblue" d="M615.169,-112.444C642.423,-103.359 685.684,-88.9388 716.151,-78.7831"/>
<polygon fill="midnightblue" stroke="midnightblue" points="717.571,-81.9992 725.951,-75.5164 715.357,-75.3584 717.571,-81.9992"/>
</g>
<!-- Node12 -->
<g id="node12" class="node"><title>Node12</title>
<polygon fill="none" stroke="#bfbfbf" points="434.5,-56.5 434.5,-75.5 474.5,-75.5 474.5,-56.5 434.5,-56.5"/>
<text text-anchor="middle" x="454.5" y="-63.5" font-family="Helvetica,sans-Serif" font-size="10.00">limits</text>
</g>
<!-- Node7&#45;&gt;Node12 -->
<g id="edge12" class="edge"><title>Node7&#45;&gt;Node12</title>
<path fill="none" stroke="midnightblue" d="M568.109,-112.444C545.53,-103.412 509.767,-89.1067 484.403,-78.9612"/>
<polygon fill="midnightblue" stroke="midnightblue" points="485.492,-75.6272 474.907,-75.1629 482.892,-82.1266 485.492,-75.6272"/>
</g>
<!-- Node13 -->
<g id="node13" class="node"><title>Node13</title>
<polygon fill="none" stroke="#bfbfbf" points="530.5,-56.5 530.5,-75.5 582.5,-75.5 582.5,-56.5 530.5,-56.5"/>
<text text-anchor="middle" x="556.5" y="-63.5" font-family="Helvetica,sans-Serif" font-size="10.00">memory</text>
</g>
<!-- Node7&#45;&gt;Node13 -->
<g id="edge13" class="edge"><title>Node7&#45;&gt;Node13</title>
<path fill="none" stroke="midnightblue" d="M584.051,-112.083C579.486,-104.613 572.832,-93.7244 567.207,-84.5199"/>
<polygon fill="midnightblue" stroke="midnightblue" points="570.049,-82.4588 561.848,-75.7511 564.076,-86.109 570.049,-82.4588"/>
</g>
<!-- Node14 -->
<g id="node14" class="node"><title>Node14</title>
<polygon fill="none" stroke="#bfbfbf" points="601,-56.5 601,-75.5 644,-75.5 644,-56.5 601,-56.5"/>
<text text-anchor="middle" x="622.5" y="-63.5" font-family="Helvetica,sans-Serif" font-size="10.00">queue</text>
</g>
<!-- Node7&#45;&gt;Node14 -->
<g id="edge15" class="edge"><title>Node7&#45;&gt;Node14</title>
<path fill="none" stroke="midnightblue" d="M594.949,-112.083C599.514,-104.613 606.168,-93.7244 611.793,-84.5199"/>
<polygon fill="midnightblue" stroke="midnightblue" points="614.924,-86.109 617.152,-75.7511 608.951,-82.4588 614.924,-86.109"/>
</g>
<!-- Node15 -->
<g id="node15" class="node"><title>Node15</title>
<polygon fill="none" stroke="#bfbfbf" points="677,-0.5 677,-19.5 736,-19.5 736,-0.5 677,-0.5"/>
<text text-anchor="middle" x="706.5" y="-7.5" font-family="Helvetica,sans-Serif" font-size="10.00">stdexcept</text>
</g>
<!-- Node7&#45;&gt;Node15 -->
<g id="edge16" class="edge"><title>Node7&#45;&gt;Node15</title>
<path fill="none" stroke="midnightblue" d="M568.081,-112.345C542.101,-100.594 503.84,-78.4708 521.5,-56 539.234,-33.4354 618.03,-20.7776 666.89,-14.969"/>
<polygon fill="midnightblue" stroke="midnightblue" points="667.291,-18.446 676.829,-13.8323 666.496,-11.4913 667.291,-18.446"/>
</g>
<!-- Node16 -->
<g id="node16" class="node"><title>Node16</title>
<polygon fill="none" stroke="#bfbfbf" points="141,-56.5 141,-75.5 224,-75.5 224,-56.5 141,-56.5"/>
<text text-anchor="middle" x="182.5" y="-63.5" font-family="Helvetica,sans-Serif" font-size="10.00">unordered_map</text>
</g>
<!-- Node7&#45;&gt;Node16 -->
<g id="edge17" class="edge"><title>Node7&#45;&gt;Node16</title>
<path fill="none" stroke="midnightblue" d="M542.313,-115.434C474.865,-107.369 347.038,-91.6753 238.5,-76 237.038,-75.7889 235.555,-75.5716 234.059,-75.3496"/>
<polygon fill="midnightblue" stroke="midnightblue" points="234.48,-71.8734 224.067,-73.8314 233.428,-78.794 234.48,-71.8734"/>
</g>
<!-- Node17 -->
<g id="node17" class="node"><title>Node17</title>
<polygon fill="none" stroke="#bfbfbf" points="178.5,-0.5 178.5,-19.5 222.5,-19.5 222.5,-0.5 178.5,-0.5"/>
<text text-anchor="middle" x="200.5" y="-7.5" font-family="Helvetica,sans-Serif" font-size="10.00">vector</text>
</g>
<!-- Node7&#45;&gt;Node17 -->
<g id="edge18" class="edge"><title>Node7&#45;&gt;Node17</title>
<path fill="none" stroke="midnightblue" d="M542.31,-117.758C465.805,-111.932 318.521,-98.1909 271.5,-76 248.001,-64.9101 226.856,-43.3137 213.874,-28.0642"/>
<polygon fill="midnightblue" stroke="midnightblue" points="216.264,-25.4598 207.217,-19.9463 210.851,-29.8983 216.264,-25.4598"/>
</g>
<!-- Node7&#45;&gt;Node18 -->
<g id="edge19" class="edge"><title>Node7&#45;&gt;Node18</title>
<path fill="none" stroke="midnightblue" d="M542.489,-117.999C461.08,-112.45 288.438,-99.1321 133.634,-76.1976"/>
<polygon fill="midnightblue" stroke="midnightblue" points="133.872,-72.6944 123.464,-74.673 132.835,-79.617 133.872,-72.6944"/>
</g>
<!-- Node20 -->
<g id="node20" class="node"><title>Node20</title>
<g id="a_node20"><a xlink:href="exceptions_8hpp.html" target="_top" xlink:title="exceptions.hpp">
<polygon fill="none" stroke="black" points="874,-56.5 874,-75.5 957,-75.5 957,-56.5 874,-56.5"/>
<text text-anchor="middle" x="915.5" y="-63.5" font-family="Helvetica,sans-Serif" font-size="10.00">exceptions.hpp</text>
</a>
</g>
</g>
<!-- Node7&#45;&gt;Node20 -->
<g id="edge26" class="edge"><title>Node7&#45;&gt;Node20</title>
<path fill="none" stroke="midnightblue" d="M636.731,-113.455C689.503,-104.984 777.758,-90.6945 863.82,-76.0984"/>
<polygon fill="midnightblue" stroke="midnightblue" points="864.486,-79.5355 873.759,-74.4098 863.314,-72.6344 864.486,-79.5355"/>
</g>
<!-- Node22 -->
<g id="node22" class="node"><title>Node22</title>
<g id="a_node22"><a xlink:href="spinlock_8hpp.html" target="_top" xlink:title="spinlock.hpp">
<polygon fill="none" stroke="black" points="281,-56.5 281,-75.5 352,-75.5 352,-56.5 281,-56.5"/>
<text text-anchor="middle" x="316.5" y="-63.5" font-family="Helvetica,sans-Serif" font-size="10.00">spinlock.hpp</text>
</a>
</g>
</g>
<!-- Node7&#45;&gt;Node22 -->
<g id="edge29" class="edge"><title>Node7&#45;&gt;Node22</title>
<path fill="none" stroke="midnightblue" d="M546.209,-112.489C502.402,-103.87 432.445,-90.0849 362.262,-76.1476"/>
<polygon fill="midnightblue" stroke="midnightblue" points="362.85,-72.6961 352.36,-74.1804 361.486,-79.5619 362.85,-72.6961"/>
</g>
<!-- Node18&#45;&gt;Node6 -->
<g id="edge21" class="edge"><title>Node18&#45;&gt;Node6</title>
<path fill="none" stroke="midnightblue" d="M123.441,-57.1559C126.16,-56.7137 128.868,-56.3199 131.5,-56 526.69,-7.95451 628.847,-38.8416 1026.5,-20 1072.14,-17.8375 1124.85,-14.8824 1158.18,-12.9578"/>
<polygon fill="midnightblue" stroke="midnightblue" points="1158.5,-16.445 1168.28,-12.3714 1158.09,-9.45674 1158.5,-16.445"/>
</g>
<!-- Node18&#45;&gt;Node8 -->
<g id="edge20" class="edge"><title>Node18&#45;&gt;Node8</title>
<path fill="none" stroke="midnightblue" d="M77.378,-56.324C67.9736,-48.2631 53.7559,-36.0765 42.431,-26.3695"/>
<polygon fill="midnightblue" stroke="midnightblue" points="44.6766,-23.6844 34.8062,-19.8339 40.121,-28.9993 44.6766,-23.6844"/>
</g>
<!-- Node18&#45;&gt;Node15 -->
<g id="edge22" class="edge"><title>Node18&#45;&gt;Node15</title>
<path fill="none" stroke="midnightblue" d="M123.455,-57.2683C126.171,-56.8 128.875,-56.3698 131.5,-56 331.278,-27.8607 572.768,-16.1403 666.559,-12.4247"/>
<polygon fill="midnightblue" stroke="midnightblue" points="666.877,-15.9151 676.734,-12.0303 666.606,-8.92032 666.877,-15.9151"/>
</g>
<!-- Node18&#45;&gt;Node17 -->
<g id="edge24" class="edge"><title>Node18&#45;&gt;Node17</title>
<path fill="none" stroke="midnightblue" d="M105.405,-56.4435C123.754,-47.6751 152.505,-33.9355 173.594,-23.8579"/>
<polygon fill="midnightblue" stroke="midnightblue" points="175.165,-26.9862 182.679,-19.5164 172.147,-20.6703 175.165,-26.9862"/>
</g>
<!-- Node19 -->
<g id="node19" class="node"><title>Node19</title>
<polygon fill="none" stroke="#bfbfbf" points="67.5,-0.5 67.5,-19.5 107.5,-19.5 107.5,-0.5 67.5,-0.5"/>
<text text-anchor="middle" x="87.5" y="-7.5" font-family="Helvetica,sans-Serif" font-size="10.00">utility</text>
</g>
<!-- Node18&#45;&gt;Node19 -->
<g id="edge23" class="edge"><title>Node18&#45;&gt;Node19</title>
<path fill="none" stroke="midnightblue" d="M87.5,-56.083C87.5,-49.0059 87.5,-38.8611 87.5,-29.9865"/>
<polygon fill="midnightblue" stroke="midnightblue" points="91.0001,-29.751 87.5,-19.7511 84.0001,-29.7511 91.0001,-29.751"/>
</g>
<!-- Node20&#45;&gt;Node15 -->
<g id="edge28" class="edge"><title>Node20&#45;&gt;Node15</title>
<path fill="none" stroke="midnightblue" d="M882.383,-56.4435C845.324,-46.8683 785.32,-31.365 745.885,-21.1759"/>
<polygon fill="midnightblue" stroke="midnightblue" points="746.64,-17.7563 736.083,-18.6433 744.889,-24.5337 746.64,-17.7563"/>
</g>
<!-- Node21 -->
<g id="node21" class="node"><title>Node21</title>
<polygon fill="none" stroke="#bfbfbf" points="959,-0.5 959,-19.5 1018,-19.5 1018,-0.5 959,-0.5"/>
<text text-anchor="middle" x="988.5" y="-7.5" font-family="Helvetica,sans-Serif" font-size="10.00">exception</text>
</g>
<!-- Node20&#45;&gt;Node21 -->
<g id="edge27" class="edge"><title>Node20&#45;&gt;Node21</title>
<path fill="none" stroke="midnightblue" d="M927.229,-56.324C938.337,-48.1066 955.242,-35.6017 968.483,-25.8069"/>
<polygon fill="midnightblue" stroke="midnightblue" points="970.6,-28.5948 976.558,-19.8339 966.437,-22.9671 970.6,-28.5948"/>
</g>
<!-- Node23 -->
<g id="node23" class="node"><title>Node23</title>
<polygon fill="none" stroke="#bfbfbf" points="293.5,-0.5 293.5,-19.5 339.5,-19.5 339.5,-0.5 293.5,-0.5"/>
<text text-anchor="middle" x="316.5" y="-7.5" font-family="Helvetica,sans-Serif" font-size="10.00">atomic</text>
</g>
<!-- Node22&#45;&gt;Node23 -->
<g id="edge30" class="edge"><title>Node22&#45;&gt;Node23</title>
<path fill="none" stroke="midnightblue" d="M316.5,-56.083C316.5,-49.0059 316.5,-38.8611 316.5,-29.9865"/>
<polygon fill="midnightblue" stroke="midnightblue" points="320,-29.751 316.5,-19.7511 313,-29.7511 320,-29.751"/>
</g>
<!-- Node24&#45;&gt;Node3 -->
<g id="edge52" class="edge"><title>Node24&#45;&gt;Node3</title>
<path fill="none" stroke="midnightblue" d="M1297.18,-187.834C1289.21,-196.027 1274.89,-208.382 1262.27,-218.101"/>
<polygon fill="midnightblue" stroke="midnightblue" points="1259.83,-215.548 1253.9,-224.324 1264.01,-221.165 1259.83,-215.548"/>
</g>
<!-- Node25 -->
<g id="node25" class="node"><title>Node25</title>
<polygon fill="none" stroke="#bfbfbf" points="1296,-56.5 1296,-75.5 1341,-75.5 1341,-56.5 1296,-56.5"/>
<text text-anchor="middle" x="1318.5" y="-63.5" font-family="Helvetica,sans-Serif" font-size="10.00">cstdlib</text>
</g>
<!-- Node24&#45;&gt;Node25 -->
<g id="edge32" class="edge"><title>Node24&#45;&gt;Node25</title>
<path fill="none" stroke="midnightblue" d="M1307.63,-168.407C1312.56,-159.614 1319.66,-145.381 1322.5,-132 1325.77,-116.603 1324.3,-98.7289 1322.28,-85.6258"/>
<polygon fill="midnightblue" stroke="midnightblue" points="1325.68,-84.7462 1320.47,-75.5212 1318.79,-85.982 1325.68,-84.7462"/>
</g>
<!-- Node26 -->
<g id="node26" class="node"><title>Node26</title>
<polygon fill="none" stroke="#bfbfbf" points="1506.5,-0.5 1506.5,-19.5 1558.5,-19.5 1558.5,-0.5 1506.5,-0.5"/>
<text text-anchor="middle" x="1532.5" y="-7.5" font-family="Helvetica,sans-Serif" font-size="10.00">sstream</text>
</g>
<!-- Node24&#45;&gt;Node26 -->
<g id="edge33" class="edge"><title>Node24&#45;&gt;Node26</title>
<path fill="none" stroke="midnightblue" d="M1332.89,-168.445C1375.51,-155.075 1453.2,-125.501 1501.5,-76 1514.3,-62.8788 1522.61,-43.465 1527.37,-29.2712"/>
<polygon fill="midnightblue" stroke="midnightblue" points="1530.74,-30.2123 1530.34,-19.6252 1524.05,-28.1552 1530.74,-30.2123"/>
</g>
<!-- Node24&#45;&gt;Node27 -->
<g id="edge34" class="edge"><title>Node24&#45;&gt;Node27</title>
<path fill="none" stroke="midnightblue" d="M1270.18,-168.444C1235.11,-159.162 1179,-144.309 1140.54,-134.127"/>
<polygon fill="midnightblue" stroke="midnightblue" points="1141.24,-130.692 1130.67,-131.516 1139.44,-137.459 1141.24,-130.692"/>
</g>
<!-- Node24&#45;&gt;Node29 -->
<g id="edge51" class="edge"><title>Node24&#45;&gt;Node29</title>
<path fill="none" stroke="midnightblue" d="M1312.7,-168.368C1334.72,-149.733 1386.96,-105.532 1414.61,-82.1338"/>
<polygon fill="midnightblue" stroke="midnightblue" points="1416.97,-84.7227 1422.35,-75.5914 1412.45,-79.379 1416.97,-84.7227"/>
</g>
<!-- Node24&#45;&gt;Node33 -->
<g id="edge53" class="edge"><title>Node24&#45;&gt;Node33</title>
<path fill="none" stroke="midnightblue" d="M1335.78,-168.444C1373.33,-158.786 1434.34,-143.099 1473.94,-132.915"/>
<polygon fill="midnightblue" stroke="midnightblue" points="1474.95,-136.269 1483.77,-130.388 1473.21,-129.489 1474.95,-136.269"/>
</g>
<!-- Node35 -->
<g id="node35" class="node"><title>Node35</title>
<g id="a_node35"><a xlink:href="samplePacket_8hpp.html" target="_top" xlink:title="samplePacket.hpp">
<polygon fill="none" stroke="black" points="1215.5,-112.5 1215.5,-131.5 1313.5,-131.5 1313.5,-112.5 1215.5,-112.5"/>
<text text-anchor="middle" x="1264.5" y="-119.5" font-family="Helvetica,sans-Serif" font-size="10.00">samplePacket.hpp</text>
</a>
</g>
</g>
<!-- Node24&#45;&gt;Node35 -->
<g id="edge56" class="edge"><title>Node24&#45;&gt;Node35</title>
<path fill="none" stroke="midnightblue" d="M1296.23,-168.083C1290.86,-160.455 1282.98,-149.264 1276.42,-139.941"/>
<polygon fill="midnightblue" stroke="midnightblue" points="1279.28,-137.915 1270.66,-131.751 1273.55,-141.943 1279.28,-137.915"/>
</g>
<!-- Node27&#45;&gt;Node5 -->
<g id="edge42" class="edge"><title>Node27&#45;&gt;Node5</title>
<path fill="none" stroke="midnightblue" d="M1103.12,-112.083C1106.96,-104.691 1112.52,-93.9533 1117.26,-84.8111"/>
<polygon fill="midnightblue" stroke="midnightblue" points="1120.47,-86.2398 1121.96,-75.7511 1114.25,-83.0175 1120.47,-86.2398"/>
</g>
<!-- Node27&#45;&gt;Node6 -->
<g id="edge35" class="edge"><title>Node27&#45;&gt;Node6</title>
<path fill="none" stroke="midnightblue" d="M1120.66,-112.434C1136.92,-105.076 1158.38,-92.957 1171.5,-76 1181.87,-62.5889 1186.9,-43.7694 1189.32,-29.8298"/>
<polygon fill="midnightblue" stroke="midnightblue" points="1192.79,-30.2897 1190.75,-19.8932 1185.86,-29.293 1192.79,-30.2897"/>
</g>
<!-- Node27&#45;&gt;Node10 -->
<g id="edge37" class="edge"><title>Node27&#45;&gt;Node10</title>
<path fill="none" stroke="midnightblue" d="M1050.87,-112.455C1005.73,-104.217 935.757,-91.0962 866.546,-76.3777"/>
<polygon fill="midnightblue" stroke="midnightblue" points="866.855,-72.8645 856.344,-74.1949 865.39,-79.7096 866.855,-72.8645"/>
</g>
<!-- Node27&#45;&gt;Node11 -->
<g id="edge38" class="edge"><title>Node27&#45;&gt;Node11</title>
<path fill="none" stroke="midnightblue" d="M1037.41,-114.016C976.683,-106.656 880.721,-93.8991 788.612,-76.0489"/>
<polygon fill="midnightblue" stroke="midnightblue" points="789.047,-72.5676 778.561,-74.0773 787.7,-79.4367 789.047,-72.5676"/>
</g>
<!-- Node27&#45;&gt;Node15 -->
<g id="edge40" class="edge"><title>Node27&#45;&gt;Node15</title>
<path fill="none" stroke="midnightblue" d="M1084.31,-112.383C1060.58,-98.3702 1010.98,-70.733 965.5,-56 890.152,-31.589 797.937,-19.5947 746.349,-14.4006"/>
<polygon fill="midnightblue" stroke="midnightblue" points="746.576,-10.9063 736.285,-13.4221 745.899,-17.8734 746.576,-10.9063"/>
</g>
<!-- Node27&#45;&gt;Node20 -->
<g id="edge50" class="edge"><title>Node27&#45;&gt;Node20</title>
<path fill="none" stroke="midnightblue" d="M1069.5,-112.444C1038.32,-103.241 988.57,-88.5617 954.092,-78.3879"/>
<polygon fill="midnightblue" stroke="midnightblue" points="954.943,-74.9898 944.361,-75.5164 952.962,-81.7036 954.943,-74.9898"/>
</g>
<!-- Node27&#45;&gt;Node21 -->
<g id="edge36" class="edge"><title>Node27&#45;&gt;Node21</title>
<path fill="none" stroke="midnightblue" d="M1089.87,-112.368C1071.39,-93.8941 1027.79,-50.2926 1004.24,-26.7436"/>
<polygon fill="midnightblue" stroke="midnightblue" points="1006.64,-24.1876 997.091,-19.5914 1001.69,-29.1374 1006.64,-24.1876"/>
</g>
<!-- Node27&#45;&gt;Node26 -->
<g id="edge39" class="edge"><title>Node27&#45;&gt;Node26</title>
<path fill="none" stroke="midnightblue" d="M1159.79,-114.874C1263.25,-104.367 1462.72,-83.3352 1476.5,-76 1496.78,-65.2081 1512.95,-43.8298 1522.6,-28.5363"/>
<polygon fill="midnightblue" stroke="midnightblue" points="1525.85,-29.9167 1527.98,-19.5374 1519.84,-26.3251 1525.85,-29.9167"/>
</g>
<!-- Node28 -->
<g id="node28" class="node"><title>Node28</title>
<polygon fill="none" stroke="#bfbfbf" points="1247,-0.5 1247,-19.5 1288,-19.5 1288,-0.5 1247,-0.5"/>
<text text-anchor="middle" x="1267.5" y="-7.5" font-family="Helvetica,sans-Serif" font-size="10.00">string</text>
</g>
<!-- Node27&#45;&gt;Node28 -->
<g id="edge41" class="edge"><title>Node27&#45;&gt;Node28</title>
<path fill="none" stroke="midnightblue" d="M1120.02,-112.461C1139.42,-104.331 1168.38,-91.117 1191.5,-76 1213.81,-61.4089 1236.7,-40.9343 1251.45,-26.8849"/>
<polygon fill="midnightblue" stroke="midnightblue" points="1254,-29.289 1258.75,-19.8188 1249.13,-24.2597 1254,-29.289"/>
</g>
<!-- Node27&#45;&gt;Node29 -->
<g id="edge43" class="edge"><title>Node27&#45;&gt;Node29</title>
<path fill="none" stroke="midnightblue" d="M1151.42,-112.444C1216.46,-101.929 1325.7,-84.2673 1387.09,-74.3423"/>
<polygon fill="midnightblue" stroke="midnightblue" points="1387.93,-77.7516 1397.24,-72.7003 1386.81,-70.8413 1387.93,-77.7516"/>
</g>
<!-- Node29&#45;&gt;Node6 -->
<g id="edge45" class="edge"><title>Node29&#45;&gt;Node6</title>
<path fill="none" stroke="midnightblue" d="M1397.46,-57.1479C1351.07,-46.7542 1269.87,-28.561 1224.52,-18.3996"/>
<polygon fill="midnightblue" stroke="midnightblue" points="1225.14,-14.9499 1214.61,-16.1787 1223.61,-21.7805 1225.14,-14.9499"/>
</g>
<!-- Node29&#45;&gt;Node26 -->
<g id="edge47" class="edge"><title>Node29&#45;&gt;Node26</title>
<path fill="none" stroke="midnightblue" d="M1448.57,-56.324C1464.46,-47.7428 1489.01,-34.486 1507.46,-24.5224"/>
<polygon fill="midnightblue" stroke="midnightblue" points="1509.34,-27.4857 1516.47,-19.6545 1506.01,-21.3264 1509.34,-27.4857"/>
</g>
<!-- Node29&#45;&gt;Node28 -->
<g id="edge48" class="edge"><title>Node29&#45;&gt;Node28</title>
<path fill="none" stroke="midnightblue" d="M1406.36,-56.4435C1376.96,-46.8247 1329.29,-31.2238 1298.17,-21.0372"/>
<polygon fill="midnightblue" stroke="midnightblue" points="1298.89,-17.5907 1288.3,-17.8067 1296.71,-24.2435 1298.89,-17.5907"/>
</g>
<!-- Node30 -->
<g id="node30" class="node"><title>Node30</title>
<polygon fill="none" stroke="#bfbfbf" points="1386.5,-0.5 1386.5,-19.5 1424.5,-19.5 1424.5,-0.5 1386.5,-0.5"/>
<text text-anchor="middle" x="1405.5" y="-7.5" font-family="Helvetica,sans-Serif" font-size="10.00">array</text>
</g>
<!-- Node29&#45;&gt;Node30 -->
<g id="edge44" class="edge"><title>Node29&#45;&gt;Node30</title>
<path fill="none" stroke="midnightblue" d="M1428.04,-56.083C1424.35,-48.6913 1418.98,-37.9533 1414.41,-28.8111"/>
<polygon fill="midnightblue" stroke="midnightblue" points="1417.48,-27.1301 1409.88,-19.7511 1411.22,-30.2606 1417.48,-27.1301"/>
</g>
<!-- Node31 -->
<g id="node31" class="node"><title>Node31</title>
<polygon fill="none" stroke="#bfbfbf" points="1442.5,-0.5 1442.5,-19.5 1488.5,-19.5 1488.5,-0.5 1442.5,-0.5"/>
<text text-anchor="middle" x="1465.5" y="-7.5" font-family="Helvetica,sans-Serif" font-size="10.00">cstring</text>
</g>
<!-- Node29&#45;&gt;Node31 -->
<g id="edge46" class="edge"><title>Node29&#45;&gt;Node31</title>
<path fill="none" stroke="midnightblue" d="M1437.95,-56.083C1442.51,-48.6127 1449.17,-37.7244 1454.79,-28.5199"/>
<polygon fill="midnightblue" stroke="midnightblue" points="1457.92,-30.109 1460.15,-19.7511 1451.95,-26.4588 1457.92,-30.109"/>
</g>
<!-- Node32 -->
<g id="node32" class="node"><title>Node32</title>
<polygon fill="none" stroke="#bfbfbf" points="1306.5,-0.5 1306.5,-19.5 1368.5,-19.5 1368.5,-0.5 1306.5,-0.5"/>
<text text-anchor="middle" x="1337.5" y="-7.5" font-family="Helvetica,sans-Serif" font-size="10.00">arpa/inet.h</text>
</g>
<!-- Node29&#45;&gt;Node32 -->
<g id="edge49" class="edge"><title>Node29&#45;&gt;Node32</title>
<path fill="none" stroke="midnightblue" d="M1417.24,-56.324C1402.28,-47.8215 1379.25,-34.7288 1361.77,-24.7975"/>
<polygon fill="midnightblue" stroke="midnightblue" points="1363.15,-21.5534 1352.73,-19.6545 1359.69,-27.639 1363.15,-21.5534"/>
</g>
<!-- Node33&#45;&gt;Node6 -->
<g id="edge54" class="edge"><title>Node33&#45;&gt;Node6</title>
<path fill="none" stroke="midnightblue" d="M1485.48,-112.378C1460.07,-103.997 1421.18,-90.447 1388.5,-76 1371.04,-68.2823 1368.22,-63.0816 1350.5,-56 1308.19,-39.0946 1257.19,-25.8459 1224.56,-18.223"/>
<polygon fill="midnightblue" stroke="midnightblue" points="1225.17,-14.7733 1214.64,-15.9482 1223.6,-21.596 1225.17,-14.7733"/>
</g>
<!-- Node33&#45;&gt;Node34 -->
<g id="edge55" class="edge"><title>Node33&#45;&gt;Node34</title>
<path fill="none" stroke="midnightblue" d="M1525.51,-112.324C1538.03,-103.979 1557.18,-91.2122 1571.97,-81.3524"/>
<polygon fill="midnightblue" stroke="midnightblue" points="1574.14,-84.1137 1580.52,-75.6545 1570.26,-78.2894 1574.14,-84.1137"/>
</g>
<!-- Node35&#45;&gt;Node6 -->
<g id="edge57" class="edge"><title>Node35&#45;&gt;Node6</title>
<path fill="none" stroke="midnightblue" d="M1258.77,-112.368C1246.72,-94.2153 1218.58,-51.8015 1202.78,-27.9902"/>
<polygon fill="midnightblue" stroke="midnightblue" points="1205.65,-25.9882 1197.2,-19.5914 1199.81,-29.8589 1205.65,-25.9882"/>
</g>
<!-- Node35&#45;&gt;Node25 -->
<g id="edge58" class="edge"><title>Node35&#45;&gt;Node25</title>
<path fill="none" stroke="midnightblue" d="M1273.42,-112.083C1281.28,-104.22 1292.93,-92.5688 1302.42,-83.0813"/>
<polygon fill="midnightblue" stroke="midnightblue" points="1305.15,-85.2971 1309.75,-75.7511 1300.2,-80.3473 1305.15,-85.2971"/>
</g>
</g>
</svg>
