<?xml version="1.0" encoding="UTF-8" standalone="no"?>
<!DOCTYPE svg PUBLIC "-//W3C//DTD SVG 1.1//EN"
 "http://www.w3.org/Graphics/SVG/1.1/DTD/svg11.dtd">
<!-- Generated by graphviz version 2.38.0 (20140413.2041)
 -->
<!-- Title: /home/dominik/uni/MoonState/src/helloByeProto.cpp Pages: 1 -->
<svg width="1533pt" height="263pt"
 viewBox="0.00 0.00 1533.00 263.00" xmlns="http://www.w3.org/2000/svg" xmlns:xlink="http://www.w3.org/1999/xlink">
<g id="graph0" class="graph" transform="scale(1 1) rotate(0) translate(4 259)">
<title>/home/dominik/uni/MoonState/src/helloByeProto.cpp</title>
<!-- Node1 -->
<g id="node1" class="node"><title>Node1</title>
<polygon fill="#bfbfbf" stroke="black" points="228.5,-224.5 228.5,-254.5 375.5,-254.5 375.5,-224.5 228.5,-224.5"/>
<text text-anchor="start" x="236.5" y="-242.5" font-family="Helvetica,sans-Serif" font-size="10.00">/home/dominik/uni/MoonState</text>
<text text-anchor="middle" x="302" y="-231.5" font-family="Helvetica,sans-Serif" font-size="10.00">/src/helloByeProto.cpp</text>
</g>
<!-- Node2 -->
<g id="node2" class="node"><title>Node2</title>
<polygon fill="none" stroke="#bfbfbf" points="181.5,-112.5 181.5,-131.5 226.5,-131.5 226.5,-112.5 181.5,-112.5"/>
<text text-anchor="middle" x="204" y="-119.5" font-family="Helvetica,sans-Serif" font-size="10.00">cstdlib</text>
</g>
<!-- Node1&#45;&gt;Node2 -->
<g id="edge1" class="edge"><title>Node1&#45;&gt;Node2</title>
<path fill="none" stroke="midnightblue" d="M294.143,-224.498C285.514,-209.703 270.773,-186.059 255,-168 245.412,-157.022 233.213,-146.168 223.15,-137.871"/>
<polygon fill="midnightblue" stroke="midnightblue" points="225.289,-135.1 215.304,-131.557 220.9,-140.553 225.289,-135.1"/>
</g>
<!-- Node3 -->
<g id="node3" class="node"><title>Node3</title>
<polygon fill="none" stroke="#bfbfbf" points="0,-0.5 0,-19.5 52,-19.5 52,-0.5 0,-0.5"/>
<text text-anchor="middle" x="26" y="-7.5" font-family="Helvetica,sans-Serif" font-size="10.00">sstream</text>
</g>
<!-- Node1&#45;&gt;Node3 -->
<g id="edge2" class="edge"><title>Node1&#45;&gt;Node3</title>
<path fill="none" stroke="midnightblue" d="M228.072,-230.29C194.135,-223.458 155.074,-210.939 126,-188 72.0113,-145.405 42.2765,-65.115 31.1508,-29.1849"/>
<polygon fill="midnightblue" stroke="midnightblue" points="34.4913,-28.1389 28.2892,-19.5491 27.781,-30.1318 34.4913,-28.1389"/>
</g>
<!-- Node4 -->
<g id="node4" class="node"><title>Node4</title>
<g id="a_node4"><a xlink:href="IPv4__5TupleL2Ident_8hpp.html" target="_top" xlink:title="IPv4_5TupleL2Ident.hpp">
<polygon fill="none" stroke="black" points="364,-112.5 364,-131.5 486,-131.5 486,-112.5 364,-112.5"/>
<text text-anchor="middle" x="425" y="-119.5" font-family="Helvetica,sans-Serif" font-size="10.00">IPv4_5TupleL2Ident.hpp</text>
</a>
</g>
</g>
<!-- Node1&#45;&gt;Node4 -->
<g id="edge3" class="edge"><title>Node1&#45;&gt;Node4</title>
<path fill="none" stroke="midnightblue" d="M322.464,-224.45C335.938,-214.818 353.67,-201.404 368,-188 384.185,-172.861 400.662,-153.562 411.71,-139.938"/>
<polygon fill="midnightblue" stroke="midnightblue" points="414.621,-141.902 418.129,-131.905 409.152,-137.533 414.621,-141.902"/>
</g>
<!-- Node12 -->
<g id="node12" class="node"><title>Node12</title>
<g id="a_node12"><a xlink:href="headers_8hpp.html" target="_top" xlink:title="headers.hpp">
<polygon fill="none" stroke="black" points="134,-56.5 134,-75.5 204,-75.5 204,-56.5 134,-56.5"/>
<text text-anchor="middle" x="169" y="-63.5" font-family="Helvetica,sans-Serif" font-size="10.00">headers.hpp</text>
</a>
</g>
</g>
<!-- Node1&#45;&gt;Node12 -->
<g id="edge23" class="edge"><title>Node1&#45;&gt;Node12</title>
<path fill="none" stroke="midnightblue" d="M228.209,-234.681C195.38,-228.848 159.566,-215.902 139,-188 118.959,-160.81 129.212,-144.328 139,-112 142.117,-101.705 148.452,-91.612 154.501,-83.6023"/>
<polygon fill="midnightblue" stroke="midnightblue" points="157.228,-85.7968 160.786,-75.8175 151.781,-81.3995 157.228,-85.7968"/>
</g>
<!-- Node17 -->
<g id="node17" class="node"><title>Node17</title>
<g id="a_node17"><a xlink:href="helloByeProto_8hpp.html" target="_top" xlink:title="helloByeProto.hpp">
<polygon fill="none" stroke="black" points="466,-168.5 466,-187.5 562,-187.5 562,-168.5 466,-168.5"/>
<text text-anchor="middle" x="514" y="-175.5" font-family="Helvetica,sans-Serif" font-size="10.00">helloByeProto.hpp</text>
</a>
</g>
</g>
<!-- Node1&#45;&gt;Node17 -->
<g id="edge24" class="edge"><title>Node1&#45;&gt;Node17</title>
<path fill="none" stroke="midnightblue" d="M346.142,-224.475C382.159,-213.986 432.715,-199.837 468.972,-190.122"/>
<polygon fill="midnightblue" stroke="midnightblue" points="470.032,-193.462 478.795,-187.506 468.231,-186.697 470.032,-193.462"/>
</g>
<!-- Node31 -->
<g id="node31" class="node"><title>Node31</title>
<g id="a_node31"><a xlink:href="mbuf_8hpp.html" target="_top" xlink:title="mbuf.hpp">
<polygon fill="none" stroke="black" points="302.5,-168.5 302.5,-187.5 359.5,-187.5 359.5,-168.5 302.5,-168.5"/>
<text text-anchor="middle" x="331" y="-175.5" font-family="Helvetica,sans-Serif" font-size="10.00">mbuf.hpp</text>
</a>
</g>
</g>
<!-- Node1&#45;&gt;Node31 -->
<g id="edge51" class="edge"><title>Node1&#45;&gt;Node31</title>
<path fill="none" stroke="midnightblue" d="M308.873,-224.399C312.913,-216.11 318.058,-205.554 322.369,-196.708"/>
<polygon fill="midnightblue" stroke="midnightblue" points="325.545,-198.18 326.78,-187.658 319.253,-195.113 325.545,-198.18"/>
</g>
<!-- Node33 -->
<g id="node33" class="node"><title>Node33</title>
<g id="a_node33"><a xlink:href="samplePacket_8hpp.html" target="_top" xlink:title="samplePacket.hpp">
<polygon fill="none" stroke="black" points="148,-168.5 148,-187.5 246,-187.5 246,-168.5 148,-168.5"/>
<text text-anchor="middle" x="197" y="-175.5" font-family="Helvetica,sans-Serif" font-size="10.00">samplePacket.hpp</text>
</a>
</g>
</g>
<!-- Node1&#45;&gt;Node33 -->
<g id="edge54" class="edge"><title>Node1&#45;&gt;Node33</title>
<path fill="none" stroke="midnightblue" d="M277.116,-224.399C260.286,-214.862 238.161,-202.325 221.427,-192.842"/>
<polygon fill="midnightblue" stroke="midnightblue" points="222.704,-189.543 212.278,-187.658 219.253,-195.633 222.704,-189.543"/>
</g>
<!-- Node4&#45;&gt;Node3 -->
<g id="edge8" class="edge"><title>Node4&#45;&gt;Node3</title>
<path fill="none" stroke="midnightblue" d="M363.939,-114.969C289.247,-107.05 167.495,-92.2349 125,-76 93.8531,-64.1005 62.4414,-41.1944 43.5984,-26.0009"/>
<polygon fill="midnightblue" stroke="midnightblue" points="45.8136,-23.2911 35.8714,-19.6301 41.3606,-28.6921 45.8136,-23.2911"/>
</g>
<!-- Node5 -->
<g id="node5" class="node"><title>Node5</title>
<polygon fill="none" stroke="#bfbfbf" points="330,-0.5 330,-19.5 376,-19.5 376,-0.5 330,-0.5"/>
<text text-anchor="middle" x="353" y="-7.5" font-family="Helvetica,sans-Serif" font-size="10.00">cstdint</text>
</g>
<!-- Node4&#45;&gt;Node5 -->
<g id="edge4" class="edge"><title>Node4&#45;&gt;Node5</title>
<path fill="none" stroke="midnightblue" d="M411.135,-112.279C399.387,-104.214 382.914,-91.1995 373,-76 363.828,-61.9389 358.675,-43.4455 355.906,-29.7811"/>
<polygon fill="midnightblue" stroke="midnightblue" points="359.3,-28.8756 354.105,-19.6421 352.408,-30.1002 359.3,-28.8756"/>
</g>
<!-- Node6 -->
<g id="node6" class="node"><title>Node6</title>
<polygon fill="none" stroke="#bfbfbf" points="616.5,-0.5 616.5,-19.5 675.5,-19.5 675.5,-0.5 616.5,-0.5"/>
<text text-anchor="middle" x="646" y="-7.5" font-family="Helvetica,sans-Serif" font-size="10.00">exception</text>
</g>
<!-- Node4&#45;&gt;Node6 -->
<g id="edge5" class="edge"><title>Node4&#45;&gt;Node6</title>
<path fill="none" stroke="midnightblue" d="M419.089,-112.352C410.62,-98.7875 397.467,-72.3705 411,-56 435.282,-26.6277 545.477,-16.2428 605.958,-12.7163"/>
<polygon fill="midnightblue" stroke="midnightblue" points="606.491,-16.1925 616.285,-12.1526 606.11,-9.20289 606.491,-16.1925"/>
</g>
<!-- Node7 -->
<g id="node7" class="node"><title>Node7</title>
<polygon fill="none" stroke="#bfbfbf" points="544.5,-56.5 544.5,-75.5 603.5,-75.5 603.5,-56.5 544.5,-56.5"/>
<text text-anchor="middle" x="574" y="-63.5" font-family="Helvetica,sans-Serif" font-size="10.00">functional</text>
</g>
<!-- Node4&#45;&gt;Node7 -->
<g id="edge6" class="edge"><title>Node4&#45;&gt;Node7</title>
<path fill="none" stroke="midnightblue" d="M448.609,-112.444C473.458,-103.438 512.774,-89.1891 540.754,-79.049"/>
<polygon fill="midnightblue" stroke="midnightblue" points="542.292,-82.2144 550.501,-75.5164 539.907,-75.6332 542.292,-82.2144"/>
</g>
<!-- Node8 -->
<g id="node8" class="node"><title>Node8</title>
<polygon fill="none" stroke="#bfbfbf" points="622,-56.5 622,-75.5 676,-75.5 676,-56.5 622,-56.5"/>
<text text-anchor="middle" x="649" y="-63.5" font-family="Helvetica,sans-Serif" font-size="10.00">iostream</text>
</g>
<!-- Node4&#45;&gt;Node8 -->
<g id="edge7" class="edge"><title>Node4&#45;&gt;Node8</title>
<path fill="none" stroke="midnightblue" d="M460.508,-112.483C498.127,-103.453 559.26,-88.7601 612,-76 612.1,-75.9757 612.201,-75.9514 612.302,-75.927"/>
<polygon fill="midnightblue" stroke="midnightblue" points="613.03,-79.3519 621.924,-73.5942 611.381,-72.5489 613.03,-79.3519"/>
</g>
<!-- Node9 -->
<g id="node9" class="node"><title>Node9</title>
<polygon fill="none" stroke="#bfbfbf" points="829.5,-0.5 829.5,-19.5 888.5,-19.5 888.5,-0.5 829.5,-0.5"/>
<text text-anchor="middle" x="859" y="-7.5" font-family="Helvetica,sans-Serif" font-size="10.00">stdexcept</text>
</g>
<!-- Node4&#45;&gt;Node9 -->
<g id="edge9" class="edge"><title>Node4&#45;&gt;Node9</title>
<path fill="none" stroke="midnightblue" d="M424.724,-112.227C424.802,-97.9917 427.235,-70.041 444,-56 472.444,-32.1768 720.95,-17.6719 819.236,-12.8219"/>
<polygon fill="midnightblue" stroke="midnightblue" points="819.546,-16.3111 829.364,-12.3302 819.206,-9.31934 819.546,-16.3111"/>
</g>
<!-- Node10 -->
<g id="node10" class="node"><title>Node10</title>
<polygon fill="none" stroke="#bfbfbf" points="270.5,-0.5 270.5,-19.5 311.5,-19.5 311.5,-0.5 270.5,-0.5"/>
<text text-anchor="middle" x="291" y="-7.5" font-family="Helvetica,sans-Serif" font-size="10.00">string</text>
</g>
<!-- Node4&#45;&gt;Node10 -->
<g id="edge10" class="edge"><title>Node4&#45;&gt;Node10</title>
<path fill="none" stroke="midnightblue" d="M411.381,-112.428C397.928,-103.765 376.961,-89.7315 360,-76 340.753,-60.4185 320.294,-40.6979 306.697,-27.0869"/>
<polygon fill="midnightblue" stroke="midnightblue" points="309.066,-24.5048 299.545,-19.8564 304.089,-29.4274 309.066,-24.5048"/>
</g>
<!-- Node11 -->
<g id="node11" class="node"><title>Node11</title>
<g id="a_node11"><a xlink:href="common_8hpp.html" target="_top" xlink:title="common.hpp">
<polygon fill="none" stroke="black" points="453.5,-56.5 453.5,-75.5 526.5,-75.5 526.5,-56.5 453.5,-56.5"/>
<text text-anchor="middle" x="490" y="-63.5" font-family="Helvetica,sans-Serif" font-size="10.00">common.hpp</text>
</a>
</g>
</g>
<!-- Node4&#45;&gt;Node11 -->
<g id="edge11" class="edge"><title>Node4&#45;&gt;Node11</title>
<path fill="none" stroke="midnightblue" d="M435.443,-112.324C445.146,-104.263 459.815,-92.0765 471.5,-82.3695"/>
<polygon fill="midnightblue" stroke="midnightblue" points="473.911,-84.9163 479.367,-75.8339 469.438,-79.532 473.911,-84.9163"/>
</g>
<!-- Node4&#45;&gt;Node12 -->
<g id="edge13" class="edge"><title>Node4&#45;&gt;Node12</title>
<path fill="none" stroke="midnightblue" d="M384.436,-112.444C337.973,-102.643 262.066,-86.6311 213.87,-76.4647"/>
<polygon fill="midnightblue" stroke="midnightblue" points="214.534,-73.0278 204.027,-74.3884 213.089,-79.8771 214.534,-73.0278"/>
</g>
<!-- Node16 -->
<g id="node16" class="node"><title>Node16</title>
<g id="a_node16"><a xlink:href="exceptions_8hpp.html" target="_top" xlink:title="exceptions.hpp">
<polygon fill="none" stroke="black" points="732.5,-56.5 732.5,-75.5 815.5,-75.5 815.5,-56.5 732.5,-56.5"/>
<text text-anchor="middle" x="774" y="-63.5" font-family="Helvetica,sans-Serif" font-size="10.00">exceptions.hpp</text>
</a>
</g>
</g>
<!-- Node4&#45;&gt;Node16 -->
<g id="edge20" class="edge"><title>Node4&#45;&gt;Node16</title>
<path fill="none" stroke="midnightblue" d="M480.3,-112.444C546.801,-102.154 657.544,-85.019 722.366,-74.9892"/>
<polygon fill="midnightblue" stroke="midnightblue" points="723.015,-78.4306 732.362,-73.4426 721.944,-71.5129 723.015,-78.4306"/>
</g>
<!-- Node11&#45;&gt;Node5 -->
<g id="edge12" class="edge"><title>Node11&#45;&gt;Node5</title>
<path fill="none" stroke="midnightblue" d="M468.292,-56.4435C445.645,-47.5171 409.928,-33.4387 384.248,-23.3168"/>
<polygon fill="midnightblue" stroke="midnightblue" points="385.193,-19.9273 374.606,-19.5164 382.626,-26.4397 385.193,-19.9273"/>
</g>
<!-- Node12&#45;&gt;Node3 -->
<g id="edge17" class="edge"><title>Node12&#45;&gt;Node3</title>
<path fill="none" stroke="midnightblue" d="M146.341,-56.4435C122.598,-47.4776 85.0909,-33.314 58.2616,-23.1827"/>
<polygon fill="midnightblue" stroke="midnightblue" points="59.1445,-19.7749 48.5528,-19.5164 56.6715,-26.3235 59.1445,-19.7749"/>
</g>
<!-- Node12&#45;&gt;Node5 -->
<g id="edge15" class="edge"><title>Node12&#45;&gt;Node5</title>
<path fill="none" stroke="midnightblue" d="M198.155,-56.4435C231.358,-46.6993 285.48,-30.8158 320.148,-20.6414"/>
<polygon fill="midnightblue" stroke="midnightblue" points="321.197,-23.9811 329.807,-17.8067 319.226,-17.2644 321.197,-23.9811"/>
</g>
<!-- Node12&#45;&gt;Node10 -->
<g id="edge18" class="edge"><title>Node12&#45;&gt;Node10</title>
<path fill="none" stroke="midnightblue" d="M188.331,-56.4435C208.32,-47.5961 239.743,-33.6875 262.564,-23.5865"/>
<polygon fill="midnightblue" stroke="midnightblue" points="264.032,-26.7645 271.759,-19.5164 261.198,-20.3635 264.032,-26.7645"/>
</g>
<!-- Node13 -->
<g id="node13" class="node"><title>Node13</title>
<polygon fill="none" stroke="#bfbfbf" points="150,-0.5 150,-19.5 188,-19.5 188,-0.5 150,-0.5"/>
<text text-anchor="middle" x="169" y="-7.5" font-family="Helvetica,sans-Serif" font-size="10.00">array</text>
</g>
<!-- Node12&#45;&gt;Node13 -->
<g id="edge14" class="edge"><title>Node12&#45;&gt;Node13</title>
<path fill="none" stroke="midnightblue" d="M169,-56.083C169,-49.0059 169,-38.8611 169,-29.9865"/>
<polygon fill="midnightblue" stroke="midnightblue" points="172.5,-29.751 169,-19.7511 165.5,-29.7511 172.5,-29.751"/>
</g>
<!-- Node14 -->
<g id="node14" class="node"><title>Node14</title>
<polygon fill="none" stroke="#bfbfbf" points="206,-0.5 206,-19.5 252,-19.5 252,-0.5 206,-0.5"/>
<text text-anchor="middle" x="229" y="-7.5" font-family="Helvetica,sans-Serif" font-size="10.00">cstring</text>
</g>
<!-- Node12&#45;&gt;Node14 -->
<g id="edge16" class="edge"><title>Node12&#45;&gt;Node14</title>
<path fill="none" stroke="midnightblue" d="M178.64,-56.324C187.51,-48.3414 200.875,-36.3128 211.608,-26.6529"/>
<polygon fill="midnightblue" stroke="midnightblue" points="214.093,-29.1251 219.185,-19.8339 209.41,-23.922 214.093,-29.1251"/>
</g>
<!-- Node15 -->
<g id="node15" class="node"><title>Node15</title>
<polygon fill="none" stroke="#bfbfbf" points="70,-0.5 70,-19.5 132,-19.5 132,-0.5 70,-0.5"/>
<text text-anchor="middle" x="101" y="-7.5" font-family="Helvetica,sans-Serif" font-size="10.00">arpa/inet.h</text>
</g>
<!-- Node12&#45;&gt;Node15 -->
<g id="edge19" class="edge"><title>Node12&#45;&gt;Node15</title>
<path fill="none" stroke="midnightblue" d="M158.075,-56.324C147.825,-48.1849 132.279,-35.8395 119.999,-26.0874"/>
<polygon fill="midnightblue" stroke="midnightblue" points="122.132,-23.3119 112.124,-19.8339 117.779,-28.7937 122.132,-23.3119"/>
</g>
<!-- Node16&#45;&gt;Node6 -->
<g id="edge21" class="edge"><title>Node16&#45;&gt;Node6</title>
<path fill="none" stroke="midnightblue" d="M753.718,-56.4435C732.653,-47.5566 699.483,-33.5632 675.514,-23.4514"/>
<polygon fill="midnightblue" stroke="midnightblue" points="676.761,-20.1787 666.187,-19.5164 674.04,-26.6283 676.761,-20.1787"/>
</g>
<!-- Node16&#45;&gt;Node9 -->
<g id="edge22" class="edge"><title>Node16&#45;&gt;Node9</title>
<path fill="none" stroke="midnightblue" d="M787.657,-56.324C800.916,-47.9002 821.268,-34.9709 836.846,-25.0741"/>
<polygon fill="midnightblue" stroke="midnightblue" points="838.813,-27.9711 845.377,-19.6545 835.06,-22.0626 838.813,-27.9711"/>
</g>
<!-- Node17&#45;&gt;Node1 -->
<g id="edge50" class="edge"><title>Node17&#45;&gt;Node1</title>
<path fill="none" stroke="midnightblue" d="M488.588,-187.506C458.811,-196.41 408.593,-210.62 367.709,-221.781"/>
<polygon fill="midnightblue" stroke="midnightblue" points="366.534,-218.473 357.803,-224.475 368.371,-225.228 366.534,-218.473"/>
</g>
<!-- Node17&#45;&gt;Node11 -->
<g id="edge26" class="edge"><title>Node17&#45;&gt;Node11</title>
<path fill="none" stroke="midnightblue" d="M512.117,-168.368C508.244,-150.617 499.309,-109.666 494.058,-85.5974"/>
<polygon fill="midnightblue" stroke="midnightblue" points="497.426,-84.6155 491.874,-75.5914 490.587,-86.1077 497.426,-84.6155"/>
</g>
<!-- Node18 -->
<g id="node18" class="node"><title>Node18</title>
<polygon fill="none" stroke="#bfbfbf" points="1481,-56.5 1481,-75.5 1525,-75.5 1525,-56.5 1481,-56.5"/>
<text text-anchor="middle" x="1503" y="-63.5" font-family="Helvetica,sans-Serif" font-size="10.00">mutex</text>
</g>
<!-- Node17&#45;&gt;Node18 -->
<g id="edge25" class="edge"><title>Node17&#45;&gt;Node18</title>
<path fill="none" stroke="midnightblue" d="M562.321,-173.929C656.638,-167.721 871.797,-152.504 1052,-132 1209.32,-114.1 1396.34,-84.4555 1470.44,-72.3743"/>
<polygon fill="midnightblue" stroke="midnightblue" points="1471.23,-75.7911 1480.54,-70.7227 1470.1,-68.8829 1471.23,-75.7911"/>
</g>
<!-- Node19 -->
<g id="node19" class="node"><title>Node19</title>
<g id="a_node19"><a xlink:href="stateMachine_8hpp.html" target="_top" xlink:title="stateMachine.hpp">
<polygon fill="none" stroke="black" points="949,-112.5 949,-131.5 1043,-131.5 1043,-112.5 949,-112.5"/>
<text text-anchor="middle" x="996" y="-119.5" font-family="Helvetica,sans-Serif" font-size="10.00">stateMachine.hpp</text>
</a>
</g>
</g>
<!-- Node17&#45;&gt;Node19 -->
<g id="edge27" class="edge"><title>Node17&#45;&gt;Node19</title>
<path fill="none" stroke="midnightblue" d="M562.423,-171.575C651.908,-161.55 842.759,-140.168 938.591,-129.432"/>
<polygon fill="midnightblue" stroke="midnightblue" points="939.13,-132.893 948.678,-128.302 938.351,-125.937 939.13,-132.893"/>
</g>
<!-- Node19&#45;&gt;Node5 -->
<g id="edge30" class="edge"><title>Node19&#45;&gt;Node5</title>
<path fill="none" stroke="midnightblue" d="M948.521,-117.809C893.167,-113.039 799.503,-101.686 723,-76 704.907,-69.9254 703.178,-61.8148 685,-56 579.43,-22.2295 447.069,-13.8006 386.298,-11.698"/>
<polygon fill="midnightblue" stroke="midnightblue" points="386.25,-8.19497 376.147,-11.3836 386.033,-15.1916 386.25,-8.19497"/>
</g>
<!-- Node19&#45;&gt;Node7 -->
<g id="edge31" class="edge"><title>Node19&#45;&gt;Node7</title>
<path fill="none" stroke="midnightblue" d="M948.887,-117.144C878.221,-110.991 740.444,-97.573 613.63,-75.9265"/>
<polygon fill="midnightblue" stroke="midnightblue" points="614.192,-72.4719 603.742,-74.2179 613,-79.3697 614.192,-72.4719"/>
</g>
<!-- Node19&#45;&gt;Node8 -->
<g id="edge32" class="edge"><title>Node19&#45;&gt;Node8</title>
<path fill="none" stroke="midnightblue" d="M948.914,-115.118C888.685,-107.354 781.244,-92.7026 690,-76 688.75,-75.7712 687.48,-75.5318 686.199,-75.2843"/>
<polygon fill="midnightblue" stroke="midnightblue" points="686.79,-71.833 676.293,-73.2704 685.395,-78.6927 686.79,-71.833"/>
</g>
<!-- Node19&#45;&gt;Node9 -->
<g id="edge37" class="edge"><title>Node19&#45;&gt;Node9</title>
<path fill="none" stroke="midnightblue" d="M987.342,-112.116C974.501,-99.1403 949.4,-74.5352 926,-56 911.81,-44.7603 894.88,-33.4049 881.588,-24.9128"/>
<polygon fill="midnightblue" stroke="midnightblue" points="883.372,-21.8999 873.046,-19.5278 879.639,-27.8215 883.372,-21.8999"/>
</g>
<!-- Node19&#45;&gt;Node11 -->
<g id="edge46" class="edge"><title>Node19&#45;&gt;Node11</title>
<path fill="none" stroke="midnightblue" d="M948.691,-117.952C866.763,-112.331 693.012,-98.9073 537.032,-76.1792"/>
<polygon fill="midnightblue" stroke="midnightblue" points="537.188,-72.6645 526.784,-74.6687 536.167,-79.5897 537.188,-72.6645"/>
</g>
<!-- Node19&#45;&gt;Node16 -->
<g id="edge47" class="edge"><title>Node19&#45;&gt;Node16</title>
<path fill="none" stroke="midnightblue" d="M960.823,-112.444C922.421,-103.102 860.824,-88.1194 818.945,-77.9326"/>
<polygon fill="midnightblue" stroke="midnightblue" points="819.556,-74.4792 809.012,-75.5164 817.901,-81.2809 819.556,-74.4792"/>
</g>
<!-- Node19&#45;&gt;Node18 -->
<g id="edge35" class="edge"><title>Node19&#45;&gt;Node18</title>
<path fill="none" stroke="midnightblue" d="M1043.1,-118.838C1128.24,-114.412 1313.18,-102.422 1467,-76 1468.25,-75.7853 1469.52,-75.5503 1470.8,-75.2996"/>
<polygon fill="midnightblue" stroke="midnightblue" points="1471.62,-78.7024 1480.64,-73.1402 1470.12,-71.8651 1471.62,-78.7024"/>
</g>
<!-- Node20 -->
<g id="node20" class="node"><title>Node20</title>
<polygon fill="none" stroke="#bfbfbf" points="1363.5,-0.5 1363.5,-19.5 1412.5,-19.5 1412.5,-0.5 1363.5,-0.5"/>
<text text-anchor="middle" x="1388" y="-7.5" font-family="Helvetica,sans-Serif" font-size="10.00">cassert</text>
</g>
<!-- Node19&#45;&gt;Node20 -->
<g id="edge28" class="edge"><title>Node19&#45;&gt;Node20</title>
<path fill="none" stroke="midnightblue" d="M1043.21,-119.156C1143.98,-114.735 1372.83,-101.921 1396,-76 1407.22,-63.4484 1402.78,-43.6725 1397.05,-29.2276"/>
<polygon fill="midnightblue" stroke="midnightblue" points="1400.13,-27.5327 1392.85,-19.8312 1393.74,-30.389 1400.13,-27.5327"/>
</g>
<!-- Node21 -->
<g id="node21" class="node"><title>Node21</title>
<polygon fill="none" stroke="#bfbfbf" points="973,-56.5 973,-75.5 1019,-75.5 1019,-56.5 973,-56.5"/>
<text text-anchor="middle" x="996" y="-63.5" font-family="Helvetica,sans-Serif" font-size="10.00">chrono</text>
</g>
<!-- Node19&#45;&gt;Node21 -->
<g id="edge29" class="edge"><title>Node19&#45;&gt;Node21</title>
<path fill="none" stroke="midnightblue" d="M996,-112.083C996,-105.006 996,-94.8611 996,-85.9865"/>
<polygon fill="midnightblue" stroke="midnightblue" points="999.5,-85.751 996,-75.7511 992.5,-85.7511 999.5,-85.751"/>
</g>
<!-- Node22 -->
<g id="node22" class="node"><title>Node22</title>
<polygon fill="none" stroke="#bfbfbf" points="1037,-56.5 1037,-75.5 1077,-75.5 1077,-56.5 1037,-56.5"/>
<text text-anchor="middle" x="1057" y="-63.5" font-family="Helvetica,sans-Serif" font-size="10.00">limits</text>
</g>
<!-- Node19&#45;&gt;Node22 -->
<g id="edge33" class="edge"><title>Node19&#45;&gt;Node22</title>
<path fill="none" stroke="midnightblue" d="M1005.8,-112.324C1014.82,-104.341 1028.41,-92.3128 1039.32,-82.6529"/>
<polygon fill="midnightblue" stroke="midnightblue" points="1041.85,-85.083 1047.02,-75.8339 1037.21,-79.8416 1041.85,-85.083"/>
</g>
<!-- Node23 -->
<g id="node23" class="node"><title>Node23</title>
<polygon fill="none" stroke="#bfbfbf" points="1095,-56.5 1095,-75.5 1147,-75.5 1147,-56.5 1095,-56.5"/>
<text text-anchor="middle" x="1121" y="-63.5" font-family="Helvetica,sans-Serif" font-size="10.00">memory</text>
</g>
<!-- Node19&#45;&gt;Node23 -->
<g id="edge34" class="edge"><title>Node19&#45;&gt;Node23</title>
<path fill="none" stroke="midnightblue" d="M1015.81,-112.444C1036.29,-103.596 1068.48,-89.6875 1091.86,-79.5865"/>
<polygon fill="midnightblue" stroke="midnightblue" points="1093.49,-82.6953 1101.29,-75.5164 1090.72,-76.2692 1093.49,-82.6953"/>
</g>
<!-- Node24 -->
<g id="node24" class="node"><title>Node24</title>
<polygon fill="none" stroke="#bfbfbf" points="1165.5,-56.5 1165.5,-75.5 1208.5,-75.5 1208.5,-56.5 1165.5,-56.5"/>
<text text-anchor="middle" x="1187" y="-63.5" font-family="Helvetica,sans-Serif" font-size="10.00">queue</text>
</g>
<!-- Node19&#45;&gt;Node24 -->
<g id="edge36" class="edge"><title>Node19&#45;&gt;Node24</title>
<path fill="none" stroke="midnightblue" d="M1026.69,-112.449C1056.97,-103.998 1104.81,-90.5933 1155.5,-76.1267"/>
<polygon fill="midnightblue" stroke="midnightblue" points="1156.67,-79.4304 1165.33,-73.3174 1154.75,-72.6998 1156.67,-79.4304"/>
</g>
<!-- Node25 -->
<g id="node25" class="node"><title>Node25</title>
<polygon fill="none" stroke="#bfbfbf" points="833.5,-56.5 833.5,-75.5 916.5,-75.5 916.5,-56.5 833.5,-56.5"/>
<text text-anchor="middle" x="875" y="-63.5" font-family="Helvetica,sans-Serif" font-size="10.00">unordered_map</text>
</g>
<!-- Node19&#45;&gt;Node25 -->
<g id="edge38" class="edge"><title>Node19&#45;&gt;Node25</title>
<path fill="none" stroke="midnightblue" d="M976.827,-112.444C957.091,-103.636 926.115,-89.8116 903.507,-79.722"/>
<polygon fill="midnightblue" stroke="midnightblue" points="904.641,-76.3957 894.083,-75.5164 901.789,-82.788 904.641,-76.3957"/>
</g>
<!-- Node26 -->
<g id="node26" class="node"><title>Node26</title>
<polygon fill="none" stroke="#bfbfbf" points="1431,-0.5 1431,-19.5 1475,-19.5 1475,-0.5 1431,-0.5"/>
<text text-anchor="middle" x="1453" y="-7.5" font-family="Helvetica,sans-Serif" font-size="10.00">vector</text>
</g>
<!-- Node19&#45;&gt;Node26 -->
<g id="edge39" class="edge"><title>Node19&#45;&gt;Node26</title>
<path fill="none" stroke="midnightblue" d="M1043.31,-121.028C1139.2,-120.271 1352.51,-114.203 1413,-76 1430.11,-65.192 1441.04,-44.1401 1447.08,-28.9169"/>
<polygon fill="midnightblue" stroke="midnightblue" points="1450.37,-30.1007 1450.49,-19.5065 1443.79,-27.7151 1450.37,-30.1007"/>
</g>
<!-- Node27 -->
<g id="node27" class="node"><title>Node27</title>
<g id="a_node27"><a xlink:href="bufArray_8hpp.html" target="_top" xlink:title="bufArray.hpp">
<polygon fill="none" stroke="black" points="1315.5,-56.5 1315.5,-75.5 1386.5,-75.5 1386.5,-56.5 1315.5,-56.5"/>
<text text-anchor="middle" x="1351" y="-63.5" font-family="Helvetica,sans-Serif" font-size="10.00">bufArray.hpp</text>
</a>
</g>
</g>
<!-- Node19&#45;&gt;Node27 -->
<g id="edge40" class="edge"><title>Node19&#45;&gt;Node27</title>
<path fill="none" stroke="midnightblue" d="M1043.03,-115.06C1102.08,-107.41 1206.73,-93.2205 1305.63,-76.1609"/>
<polygon fill="midnightblue" stroke="midnightblue" points="1306.24,-79.6081 1315.49,-74.4473 1305.04,-72.7116 1306.24,-79.6081"/>
</g>
<!-- Node29 -->
<g id="node29" class="node"><title>Node29</title>
<g id="a_node29"><a xlink:href="spinlock_8hpp.html" target="_top" xlink:title="spinlock.hpp">
<polygon fill="none" stroke="black" points="1226.5,-56.5 1226.5,-75.5 1297.5,-75.5 1297.5,-56.5 1226.5,-56.5"/>
<text text-anchor="middle" x="1262" y="-63.5" font-family="Helvetica,sans-Serif" font-size="10.00">spinlock.hpp</text>
</a>
</g>
</g>
<!-- Node19&#45;&gt;Node29 -->
<g id="edge48" class="edge"><title>Node19&#45;&gt;Node29</title>
<path fill="none" stroke="midnightblue" d="M1038.15,-112.479C1080.72,-103.869 1148.64,-90.1159 1216.46,-76.3117"/>
<polygon fill="midnightblue" stroke="midnightblue" points="1217.36,-79.7 1226.46,-74.2753 1215.96,-72.8408 1217.36,-79.7"/>
</g>
<!-- Node27&#45;&gt;Node5 -->
<g id="edge42" class="edge"><title>Node27&#45;&gt;Node5</title>
<path fill="none" stroke="midnightblue" d="M1315.06,-57.1765C1312.34,-56.7295 1309.63,-56.3291 1307,-56 1214.22,-44.3937 544.279,-18.3036 386.307,-12.2646"/>
<polygon fill="midnightblue" stroke="midnightblue" points="386.368,-8.76445 376.242,-11.8805 386.101,-15.7594 386.368,-8.76445"/>
</g>
<!-- Node27&#45;&gt;Node9 -->
<g id="edge43" class="edge"><title>Node27&#45;&gt;Node9</title>
<path fill="none" stroke="midnightblue" d="M1315.03,-57.3334C1312.32,-56.8501 1309.62,-56.3986 1307,-56 1157.35,-33.2396 977.767,-19.1645 899.158,-13.6579"/>
<polygon fill="midnightblue" stroke="midnightblue" points="898.967,-10.1365 888.749,-12.9378 898.484,-17.1198 898.967,-10.1365"/>
</g>
<!-- Node27&#45;&gt;Node20 -->
<g id="edge41" class="edge"><title>Node27&#45;&gt;Node20</title>
<path fill="none" stroke="midnightblue" d="M1357.11,-56.083C1362.28,-48.5341 1369.85,-37.4948 1376.19,-28.2298"/>
<polygon fill="midnightblue" stroke="midnightblue" points="1379.24,-29.9787 1382,-19.7511 1373.46,-26.0221 1379.24,-29.9787"/>
</g>
<!-- Node27&#45;&gt;Node26 -->
<g id="edge45" class="edge"><title>Node27&#45;&gt;Node26</title>
<path fill="none" stroke="midnightblue" d="M1367.39,-56.324C1383.67,-47.7034 1408.87,-34.3643 1427.72,-24.3855"/>
<polygon fill="midnightblue" stroke="midnightblue" points="1429.45,-27.4267 1436.65,-19.6545 1426.18,-21.2402 1429.45,-27.4267"/>
</g>
<!-- Node28 -->
<g id="node28" class="node"><title>Node28</title>
<polygon fill="none" stroke="#bfbfbf" points="1305,-0.5 1305,-19.5 1345,-19.5 1345,-0.5 1305,-0.5"/>
<text text-anchor="middle" x="1325" y="-7.5" font-family="Helvetica,sans-Serif" font-size="10.00">utility</text>
</g>
<!-- Node27&#45;&gt;Node28 -->
<g id="edge44" class="edge"><title>Node27&#45;&gt;Node28</title>
<path fill="none" stroke="midnightblue" d="M1346.71,-56.083C1343.15,-48.6913 1337.98,-37.9533 1333.58,-28.8111"/>
<polygon fill="midnightblue" stroke="midnightblue" points="1336.71,-27.2427 1329.21,-19.7511 1330.4,-30.2795 1336.71,-27.2427"/>
</g>
<!-- Node30 -->
<g id="node30" class="node"><title>Node30</title>
<polygon fill="none" stroke="#bfbfbf" points="1239,-0.5 1239,-19.5 1285,-19.5 1285,-0.5 1239,-0.5"/>
<text text-anchor="middle" x="1262" y="-7.5" font-family="Helvetica,sans-Serif" font-size="10.00">atomic</text>
</g>
<!-- Node29&#45;&gt;Node30 -->
<g id="edge49" class="edge"><title>Node29&#45;&gt;Node30</title>
<path fill="none" stroke="midnightblue" d="M1262,-56.083C1262,-49.0059 1262,-38.8611 1262,-29.9865"/>
<polygon fill="midnightblue" stroke="midnightblue" points="1265.5,-29.751 1262,-19.7511 1258.5,-29.7511 1265.5,-29.751"/>
</g>
<!-- Node31&#45;&gt;Node5 -->
<g id="edge52" class="edge"><title>Node31&#45;&gt;Node5</title>
<path fill="none" stroke="midnightblue" d="M332.183,-168.075C335.646,-141.945 345.815,-65.2106 350.538,-29.577"/>
<polygon fill="midnightblue" stroke="midnightblue" points="354.02,-29.9413 351.864,-19.5681 347.081,-29.0216 354.02,-29.9413"/>
</g>
<!-- Node32 -->
<g id="node32" class="node"><title>Node32</title>
<polygon fill="none" stroke="#bfbfbf" points="244.5,-112.5 244.5,-131.5 307.5,-131.5 307.5,-112.5 244.5,-112.5"/>
<text text-anchor="middle" x="276" y="-119.5" font-family="Helvetica,sans-Serif" font-size="10.00">rte_mbuf.h</text>
</g>
<!-- Node31&#45;&gt;Node32 -->
<g id="edge53" class="edge"><title>Node31&#45;&gt;Node32</title>
<path fill="none" stroke="midnightblue" d="M321.918,-168.083C313.829,-160.141 301.805,-148.335 292.09,-138.797"/>
<polygon fill="midnightblue" stroke="midnightblue" points="294.501,-136.26 284.913,-131.751 289.597,-141.254 294.501,-136.26"/>
</g>
<!-- Node33&#45;&gt;Node2 -->
<g id="edge56" class="edge"><title>Node33&#45;&gt;Node2</title>
<path fill="none" stroke="midnightblue" d="M198.156,-168.083C199.084,-160.927 200.418,-150.635 201.577,-141.691"/>
<polygon fill="midnightblue" stroke="midnightblue" points="205.051,-142.118 202.866,-131.751 198.109,-141.218 205.051,-142.118"/>
</g>
<!-- Node33&#45;&gt;Node5 -->
<g id="edge55" class="edge"><title>Node33&#45;&gt;Node5</title>
<path fill="none" stroke="midnightblue" d="M188.785,-168.177C177.817,-155.278 160.981,-130.767 172,-112 188.797,-83.3914 275.294,-43.5985 322.374,-23.5734"/>
<polygon fill="midnightblue" stroke="midnightblue" points="323.925,-26.7181 331.783,-19.6115 321.209,-20.2667 323.925,-26.7181"/>
</g>
</g>
</svg>
