<?xml version="1.0" encoding="UTF-8" standalone="no"?>
<!DOCTYPE svg PUBLIC "-//W3C//DTD SVG 1.1//EN"
 "http://www.w3.org/Graphics/SVG/1.1/DTD/svg11.dtd">
<!-- Generated by graphviz version 2.40.1 (20161225.0304)
 -->
<!-- Title: HelloBye2_Client_config Pages: 1 -->
<svg width="306pt" height="137pt"
 viewBox="0.00 0.00 306.00 137.00" xmlns="http://www.w3.org/2000/svg" xmlns:xlink="http://www.w3.org/1999/xlink">
<g id="graph0" class="graph" transform="scale(1 1) rotate(0) translate(4 133)">
<title>HelloBye2_Client_config</title>
<!-- Node0 -->
<g id="node1" class="node">
<title>Node0</title>
<polygon fill="#bfbfbf" stroke="#000000" points="0,-55 0,-74 124,-74 124,-55 0,-55"/>
<text text-anchor="middle" x="62" y="-62" font-family="Helvetica,sans-Serif" font-size="10.00" fill="#000000">HelloBye2_Client_config</text>
</g>
<!-- Node1 -->
<g id="node2" class="node">
<title>Node1</title>
<g id="a_node2"><a xlink:href="classHelloBye2_1_1HelloBye2ClientConfig.html#a6b4dd49468ee84d6f07789f72df6d4d8" target="_top" xlink:title="HelloBye2::HelloBye2Client\lConfig::getInstance">
<polygon fill="none" stroke="#000000" points="160,-98.5 160,-128.5 298,-128.5 298,-98.5 160,-98.5"/>
<text text-anchor="start" x="168" y="-116.5" font-family="Helvetica,sans-Serif" font-size="10.00" fill="#000000">HelloBye2::HelloBye2Client</text>
<text text-anchor="middle" x="229" y="-105.5" font-family="Helvetica,sans-Serif" font-size="10.00" fill="#000000">Config::getInstance</text>
</a>
</g>
</g>
<!-- Node0&#45;&gt;Node1 -->
<g id="edge1" class="edge">
<title>Node0&#45;&gt;Node1</title>
<path fill="none" stroke="#191970" d="M94.5957,-74.064C115.4615,-80.1863 143.1851,-88.3208 168.0318,-95.6111"/>
<polygon fill="#191970" stroke="#191970" points="167.1707,-99.0059 177.7516,-98.463 169.1415,-92.2891 167.1707,-99.0059"/>
</g>
<!-- Node2 -->
<g id="node3" class="node">
<title>Node2</title>
<g id="a_node3"><a xlink:href="classHelloBye2_1_1HelloBye2ClientConfig.html#a15e9127e10d8bcc0c5ec83171a1f789c" target="_top" xlink:title="HelloBye2::HelloBye2Client\lConfig::setSrcIP">
<polygon fill="none" stroke="#000000" points="160,-49.5 160,-79.5 298,-79.5 298,-49.5 160,-49.5"/>
<text text-anchor="start" x="168" y="-67.5" font-family="Helvetica,sans-Serif" font-size="10.00" fill="#000000">HelloBye2::HelloBye2Client</text>
<text text-anchor="middle" x="229" y="-56.5" font-family="Helvetica,sans-Serif" font-size="10.00" fill="#000000">Config::setSrcIP</text>
</a>
</g>
</g>
<!-- Node0&#45;&gt;Node2 -->
<g id="edge2" class="edge">
<title>Node0&#45;&gt;Node2</title>
<path fill="none" stroke="#191970" d="M124.1846,-64.5C132.5163,-64.5 141.1514,-64.5 149.727,-64.5"/>
<polygon fill="#191970" stroke="#191970" points="149.7448,-68.0001 159.7447,-64.5 149.7447,-61.0001 149.7448,-68.0001"/>
</g>
<!-- Node3 -->
<g id="node4" class="node">
<title>Node3</title>
<g id="a_node4"><a xlink:href="classHelloBye2_1_1HelloBye2ClientConfig.html#ae7a7d1039dbd6a227c8193f5d57b7a25" target="_top" xlink:title="HelloBye2::HelloBye2Client\lConfig::setDstPort">
<polygon fill="none" stroke="#000000" points="160,-.5 160,-30.5 298,-30.5 298,-.5 160,-.5"/>
<text text-anchor="start" x="168" y="-18.5" font-family="Helvetica,sans-Serif" font-size="10.00" fill="#000000">HelloBye2::HelloBye2Client</text>
<text text-anchor="middle" x="229" y="-7.5" font-family="Helvetica,sans-Serif" font-size="10.00" fill="#000000">Config::setDstPort</text>
</a>
</g>
</g>
<!-- Node0&#45;&gt;Node3 -->
<g id="edge3" class="edge">
<title>Node0&#45;&gt;Node3</title>
<path fill="none" stroke="#191970" d="M94.5957,-54.936C115.4615,-48.8137 143.1851,-40.6792 168.0318,-33.3889"/>
<polygon fill="#191970" stroke="#191970" points="169.1415,-36.7109 177.7516,-30.537 167.1707,-29.9941 169.1415,-36.7109"/>
</g>
</g>
</svg>
