<?xml version="1.0" encoding="UTF-8" standalone="no"?>
<!DOCTYPE svg PUBLIC "-//W3C//DTD SVG 1.1//EN"
 "http://www.w3.org/Graphics/SVG/1.1/DTD/svg11.dtd">
<!-- Generated by graphviz version 2.38.0 (20140413.2041)
 -->
<!-- Title: /home/dominik/uni/MoonState/src/helloBye2ProtoStatic.cpp Pages: 1 -->
<svg width="1720pt" height="319pt"
 viewBox="0.00 0.00 1720.00 319.00" xmlns="http://www.w3.org/2000/svg" xmlns:xlink="http://www.w3.org/1999/xlink">
<g id="graph0" class="graph" transform="scale(1 1) rotate(0) translate(4 315)">
<title>/home/dominik/uni/MoonState/src/helloBye2ProtoStatic.cpp</title>
<!-- Node1 -->
<g id="node1" class="node"><title>Node1</title>
<polygon fill="#bfbfbf" stroke="black" points="1046.5,-280.5 1046.5,-310.5 1193.5,-310.5 1193.5,-280.5 1046.5,-280.5"/>
<text text-anchor="start" x="1054.5" y="-298.5" font-family="Helvetica,sans-Serif" font-size="10.00">/home/dominik/uni/MoonState</text>
<text text-anchor="middle" x="1120" y="-287.5" font-family="Helvetica,sans-Serif" font-size="10.00">/src/helloBye2ProtoStatic.cpp</text>
</g>
<!-- Node2 -->
<g id="node2" class="node"><title>Node2</title>
<g id="a_node2"><a xlink:href="helloBye2Proto_8hpp.html" target="_top" xlink:title="helloBye2Proto.hpp">
<polygon fill="none" stroke="black" points="703.5,-224.5 703.5,-243.5 804.5,-243.5 804.5,-224.5 703.5,-224.5"/>
<text text-anchor="middle" x="754" y="-231.5" font-family="Helvetica,sans-Serif" font-size="10.00">helloBye2Proto.hpp</text>
</a>
</g>
</g>
<!-- Node1&#45;&gt;Node2 -->
<g id="edge1" class="edge"><title>Node1&#45;&gt;Node2</title>
<path fill="none" stroke="midnightblue" d="M1046.37,-282.531C978.213,-271.45 878.074,-255.17 814.468,-244.83"/>
<polygon fill="midnightblue" stroke="midnightblue" points="815.016,-241.373 804.584,-243.223 813.893,-248.283 815.016,-241.373"/>
</g>
<!-- Node3 -->
<g id="node3" class="node"><title>Node3</title>
<polygon fill="none" stroke="#bfbfbf" points="1668,-56.5 1668,-75.5 1712,-75.5 1712,-56.5 1668,-56.5"/>
<text text-anchor="middle" x="1690" y="-63.5" font-family="Helvetica,sans-Serif" font-size="10.00">mutex</text>
</g>
<!-- Node1&#45;&gt;Node3 -->
<g id="edge61" class="edge"><title>Node1&#45;&gt;Node3</title>
<path fill="none" stroke="midnightblue" d="M1155.23,-280.441C1258.83,-239.09 1561.36,-118.342 1659.14,-79.3182"/>
<polygon fill="midnightblue" stroke="midnightblue" points="1660.48,-82.5509 1668.47,-75.5933 1657.88,-76.0495 1660.48,-82.5509"/>
</g>
<!-- Node2&#45;&gt;Node3 -->
<g id="edge2" class="edge"><title>Node2&#45;&gt;Node3</title>
<path fill="none" stroke="midnightblue" d="M802.027,-224.482C968.54,-194.951 1518.48,-97.4194 1657.73,-72.7227"/>
<polygon fill="midnightblue" stroke="midnightblue" points="1658.53,-76.1358 1667.77,-70.9433 1657.31,-69.2434 1658.53,-76.1358"/>
</g>
<!-- Node4 -->
<g id="node4" class="node"><title>Node4</title>
<polygon fill="none" stroke="#bfbfbf" points="334,-0.5 334,-19.5 386,-19.5 386,-0.5 334,-0.5"/>
<text text-anchor="middle" x="360" y="-7.5" font-family="Helvetica,sans-Serif" font-size="10.00">sstream</text>
</g>
<!-- Node2&#45;&gt;Node4 -->
<g id="edge3" class="edge"><title>Node2&#45;&gt;Node4</title>
<path fill="none" stroke="midnightblue" d="M724.494,-224.42C676.252,-209.677 578.417,-176.748 504,-132 452.487,-101.024 400.601,-52.0332 375.514,-26.9505"/>
<polygon fill="midnightblue" stroke="midnightblue" points="377.864,-24.3499 368.344,-19.7 372.887,-29.2717 377.864,-24.3499"/>
</g>
<!-- Node5 -->
<g id="node5" class="node"><title>Node5</title>
<g id="a_node5"><a xlink:href="common_8hpp.html" target="_top" xlink:title="common.hpp">
<polygon fill="none" stroke="black" points="717.5,-56.5 717.5,-75.5 790.5,-75.5 790.5,-56.5 717.5,-56.5"/>
<text text-anchor="middle" x="754" y="-63.5" font-family="Helvetica,sans-Serif" font-size="10.00">common.hpp</text>
</a>
</g>
</g>
<!-- Node2&#45;&gt;Node5 -->
<g id="edge4" class="edge"><title>Node2&#45;&gt;Node5</title>
<path fill="none" stroke="midnightblue" d="M754,-224.075C754,-197.945 754,-121.211 754,-85.577"/>
<polygon fill="midnightblue" stroke="midnightblue" points="757.5,-85.5681 754,-75.5681 750.5,-85.5681 757.5,-85.5681"/>
</g>
<!-- Node7 -->
<g id="node7" class="node"><title>Node7</title>
<g id="a_node7"><a xlink:href="exceptions_8hpp.html" target="_top" xlink:title="exceptions.hpp">
<polygon fill="none" stroke="black" points="808.5,-56.5 808.5,-75.5 891.5,-75.5 891.5,-56.5 808.5,-56.5"/>
<text text-anchor="middle" x="850" y="-63.5" font-family="Helvetica,sans-Serif" font-size="10.00">exceptions.hpp</text>
</a>
</g>
</g>
<!-- Node2&#45;&gt;Node7 -->
<g id="edge6" class="edge"><title>Node2&#45;&gt;Node7</title>
<path fill="none" stroke="midnightblue" d="M759.161,-224.075C774.403,-197.719 819.42,-119.878 839.787,-84.6608"/>
<polygon fill="midnightblue" stroke="midnightblue" points="843.068,-85.977 845.045,-75.5681 837.009,-82.4726 843.068,-85.977"/>
</g>
<!-- Node10 -->
<g id="node10" class="node"><title>Node10</title>
<g id="a_node10"><a xlink:href="headers_8hpp.html" target="_top" xlink:title="headers.hpp">
<polygon fill="none" stroke="black" points="64,-56.5 64,-75.5 134,-75.5 134,-56.5 64,-56.5"/>
<text text-anchor="middle" x="99" y="-63.5" font-family="Helvetica,sans-Serif" font-size="10.00">headers.hpp</text>
</a>
</g>
</g>
<!-- Node2&#45;&gt;Node10 -->
<g id="edge9" class="edge"><title>Node2&#45;&gt;Node10</title>
<path fill="none" stroke="midnightblue" d="M703.168,-231.077C590.169,-226.402 321.23,-212.952 234,-188 181.256,-172.913 160.729,-172.75 124,-132 112.248,-118.961 105.784,-99.8045 102.391,-85.6638"/>
<polygon fill="midnightblue" stroke="midnightblue" points="105.762,-84.6813 100.286,-75.6112 98.9102,-86.1163 105.762,-84.6813"/>
</g>
<!-- Node15 -->
<g id="node15" class="node"><title>Node15</title>
<g id="a_node15"><a xlink:href="stateMachine_8hpp.html" target="_top" xlink:title="stateMachine.hpp">
<polygon fill="none" stroke="black" points="1123,-112.5 1123,-131.5 1217,-131.5 1217,-112.5 1123,-112.5"/>
<text text-anchor="middle" x="1170" y="-119.5" font-family="Helvetica,sans-Serif" font-size="10.00">stateMachine.hpp</text>
</a>
</g>
</g>
<!-- Node2&#45;&gt;Node15 -->
<g id="edge16" class="edge"><title>Node2&#45;&gt;Node15</title>
<path fill="none" stroke="midnightblue" d="M786.297,-224.46C860.791,-204.762 1044.62,-156.154 1127.85,-134.146"/>
<polygon fill="midnightblue" stroke="midnightblue" points="1128.95,-137.475 1137.72,-131.535 1127.16,-130.707 1128.95,-137.475"/>
</g>
<!-- Node29 -->
<g id="node29" class="node"><title>Node29</title>
<g id="a_node29"><a xlink:href="helloBye2Proto_8cpp.html" target="_top" xlink:title="../src/helloBye2Proto.cpp">
<polygon fill="none" stroke="black" points="243.5,-168.5 243.5,-187.5 370.5,-187.5 370.5,-168.5 243.5,-168.5"/>
<text text-anchor="middle" x="307" y="-175.5" font-family="Helvetica,sans-Serif" font-size="10.00">../src/helloBye2Proto.cpp</text>
</a>
</g>
</g>
<!-- Node2&#45;&gt;Node29 -->
<g id="edge39" class="edge"><title>Node2&#45;&gt;Node29</title>
<path fill="none" stroke="midnightblue" d="M703.105,-227.374C624.043,-218.17 471.6,-199.793 380.579,-188.528"/>
<polygon fill="midnightblue" stroke="midnightblue" points="380.963,-185.049 370.609,-187.292 380.102,-191.996 380.963,-185.049"/>
</g>
<!-- Node6 -->
<g id="node6" class="node"><title>Node6</title>
<polygon fill="none" stroke="#bfbfbf" points="513,-0.5 513,-19.5 559,-19.5 559,-0.5 513,-0.5"/>
<text text-anchor="middle" x="536" y="-7.5" font-family="Helvetica,sans-Serif" font-size="10.00">cstdint</text>
</g>
<!-- Node5&#45;&gt;Node6 -->
<g id="edge5" class="edge"><title>Node5&#45;&gt;Node6</title>
<path fill="none" stroke="midnightblue" d="M719.457,-56.4435C678.151,-46.2117 609.518,-29.2109 568.936,-19.1585"/>
<polygon fill="midnightblue" stroke="midnightblue" points="569.561,-15.7075 559.012,-16.7003 567.878,-22.5021 569.561,-15.7075"/>
</g>
<!-- Node8 -->
<g id="node8" class="node"><title>Node8</title>
<polygon fill="none" stroke="#bfbfbf" points="740.5,-0.5 740.5,-19.5 799.5,-19.5 799.5,-0.5 740.5,-0.5"/>
<text text-anchor="middle" x="770" y="-7.5" font-family="Helvetica,sans-Serif" font-size="10.00">exception</text>
</g>
<!-- Node7&#45;&gt;Node8 -->
<g id="edge7" class="edge"><title>Node7&#45;&gt;Node8</title>
<path fill="none" stroke="midnightblue" d="M837.147,-56.324C824.784,-47.979 805.87,-35.2122 791.263,-25.3524"/>
<polygon fill="midnightblue" stroke="midnightblue" points="793.068,-22.3483 782.821,-19.6545 789.152,-28.1503 793.068,-22.3483"/>
</g>
<!-- Node9 -->
<g id="node9" class="node"><title>Node9</title>
<polygon fill="none" stroke="#bfbfbf" points="900.5,-0.5 900.5,-19.5 959.5,-19.5 959.5,-0.5 900.5,-0.5"/>
<text text-anchor="middle" x="930" y="-7.5" font-family="Helvetica,sans-Serif" font-size="10.00">stdexcept</text>
</g>
<!-- Node7&#45;&gt;Node9 -->
<g id="edge8" class="edge"><title>Node7&#45;&gt;Node9</title>
<path fill="none" stroke="midnightblue" d="M862.853,-56.324C875.216,-47.979 894.13,-35.2122 908.737,-25.3524"/>
<polygon fill="midnightblue" stroke="midnightblue" points="910.848,-28.1503 917.179,-19.6545 906.932,-22.3483 910.848,-28.1503"/>
</g>
<!-- Node10&#45;&gt;Node4 -->
<g id="edge13" class="edge"><title>Node10&#45;&gt;Node4</title>
<path fill="none" stroke="midnightblue" d="M134.2,-57.7173C183.693,-47.4773 273.399,-28.9175 323.556,-18.5401"/>
<polygon fill="midnightblue" stroke="midnightblue" points="324.547,-21.9094 333.63,-16.4558 323.128,-15.0545 324.547,-21.9094"/>
</g>
<!-- Node10&#45;&gt;Node6 -->
<g id="edge11" class="edge"><title>Node10&#45;&gt;Node6</title>
<path fill="none" stroke="midnightblue" d="M134.023,-60.6722C216.499,-50.4807 422.061,-25.0794 502.746,-15.1092"/>
<polygon fill="midnightblue" stroke="midnightblue" points="503.34,-18.5624 512.836,-13.8624 502.482,-11.6153 503.34,-18.5624"/>
</g>
<!-- Node11 -->
<g id="node11" class="node"><title>Node11</title>
<polygon fill="none" stroke="#bfbfbf" points="80,-0.5 80,-19.5 118,-19.5 118,-0.5 80,-0.5"/>
<text text-anchor="middle" x="99" y="-7.5" font-family="Helvetica,sans-Serif" font-size="10.00">array</text>
</g>
<!-- Node10&#45;&gt;Node11 -->
<g id="edge10" class="edge"><title>Node10&#45;&gt;Node11</title>
<path fill="none" stroke="midnightblue" d="M99,-56.083C99,-49.0059 99,-38.8611 99,-29.9865"/>
<polygon fill="midnightblue" stroke="midnightblue" points="102.5,-29.751 99,-19.7511 95.5001,-29.7511 102.5,-29.751"/>
</g>
<!-- Node12 -->
<g id="node12" class="node"><title>Node12</title>
<polygon fill="none" stroke="#bfbfbf" points="136,-0.5 136,-19.5 182,-19.5 182,-0.5 136,-0.5"/>
<text text-anchor="middle" x="159" y="-7.5" font-family="Helvetica,sans-Serif" font-size="10.00">cstring</text>
</g>
<!-- Node10&#45;&gt;Node12 -->
<g id="edge12" class="edge"><title>Node10&#45;&gt;Node12</title>
<path fill="none" stroke="midnightblue" d="M108.64,-56.324C117.51,-48.3414 130.875,-36.3128 141.608,-26.6529"/>
<polygon fill="midnightblue" stroke="midnightblue" points="144.093,-29.1251 149.185,-19.8339 139.41,-23.922 144.093,-29.1251"/>
</g>
<!-- Node13 -->
<g id="node13" class="node"><title>Node13</title>
<polygon fill="none" stroke="#bfbfbf" points="225.5,-0.5 225.5,-19.5 266.5,-19.5 266.5,-0.5 225.5,-0.5"/>
<text text-anchor="middle" x="246" y="-7.5" font-family="Helvetica,sans-Serif" font-size="10.00">string</text>
</g>
<!-- Node10&#45;&gt;Node13 -->
<g id="edge14" class="edge"><title>Node10&#45;&gt;Node13</title>
<path fill="none" stroke="midnightblue" d="M122.293,-56.4435C147.528,-47.1732 187.89,-32.3464 215.606,-22.1652"/>
<polygon fill="midnightblue" stroke="midnightblue" points="217.013,-25.3769 225.193,-18.6433 214.6,-18.8062 217.013,-25.3769"/>
</g>
<!-- Node14 -->
<g id="node14" class="node"><title>Node14</title>
<polygon fill="none" stroke="#bfbfbf" points="0,-0.5 0,-19.5 62,-19.5 62,-0.5 0,-0.5"/>
<text text-anchor="middle" x="31" y="-7.5" font-family="Helvetica,sans-Serif" font-size="10.00">arpa/inet.h</text>
</g>
<!-- Node10&#45;&gt;Node14 -->
<g id="edge15" class="edge"><title>Node10&#45;&gt;Node14</title>
<path fill="none" stroke="midnightblue" d="M88.0746,-56.324C77.8254,-48.1849 62.2794,-35.8395 49.999,-26.0874"/>
<polygon fill="midnightblue" stroke="midnightblue" points="52.1319,-23.3119 42.1242,-19.8339 47.7787,-28.7937 52.1319,-23.3119"/>
</g>
<!-- Node15&#45;&gt;Node3 -->
<g id="edge24" class="edge"><title>Node15&#45;&gt;Node3</title>
<path fill="none" stroke="midnightblue" d="M1217.01,-117.547C1321.57,-109.719 1570.71,-90.1989 1654,-76 1655.25,-75.7869 1656.52,-75.5533 1657.8,-75.3037"/>
<polygon fill="midnightblue" stroke="midnightblue" points="1658.62,-78.7069 1667.64,-73.1491 1657.13,-71.8689 1658.62,-78.7069"/>
</g>
<!-- Node15&#45;&gt;Node5 -->
<g id="edge35" class="edge"><title>Node15&#45;&gt;Node5</title>
<path fill="none" stroke="midnightblue" d="M1122.99,-116.465C1054.33,-109.587 922.421,-95.4028 801.008,-76.227"/>
<polygon fill="midnightblue" stroke="midnightblue" points="801.222,-72.7169 790.795,-74.598 800.119,-79.6295 801.222,-72.7169"/>
</g>
<!-- Node15&#45;&gt;Node6 -->
<g id="edge19" class="edge"><title>Node15&#45;&gt;Node6</title>
<path fill="none" stroke="midnightblue" d="M1131.35,-112.456C1098.68,-104.672 1050.96,-91.9674 1011,-76 993.277,-68.9184 991.269,-61.5223 973,-56 897.32,-33.1237 657.608,-17.7865 569.183,-12.781"/>
<polygon fill="midnightblue" stroke="midnightblue" points="569.35,-9.28495 559.171,-12.2219 568.96,-16.2741 569.35,-9.28495"/>
</g>
<!-- Node15&#45;&gt;Node7 -->
<g id="edge36" class="edge"><title>Node15&#45;&gt;Node7</title>
<path fill="none" stroke="midnightblue" d="M1122.84,-113.242C1071.16,-104.711 985.533,-90.4896 901.691,-76.1066"/>
<polygon fill="midnightblue" stroke="midnightblue" points="902.191,-72.6413 891.743,-74.3977 901.006,-79.5402 902.191,-72.6413"/>
</g>
<!-- Node15&#45;&gt;Node9 -->
<g id="edge26" class="edge"><title>Node15&#45;&gt;Node9</title>
<path fill="none" stroke="midnightblue" d="M1217.12,-114.322C1265.19,-105.618 1329.03,-87.6395 1301,-56 1279.3,-31.5051 1061.36,-17.6688 969.981,-12.9054"/>
<polygon fill="midnightblue" stroke="midnightblue" points="969.909,-9.3972 959.743,-12.3822 969.551,-16.3881 969.909,-9.3972"/>
</g>
<!-- Node16 -->
<g id="node16" class="node"><title>Node16</title>
<polygon fill="none" stroke="#bfbfbf" points="1512.5,-0.5 1512.5,-19.5 1561.5,-19.5 1561.5,-0.5 1512.5,-0.5"/>
<text text-anchor="middle" x="1537" y="-7.5" font-family="Helvetica,sans-Serif" font-size="10.00">cassert</text>
</g>
<!-- Node15&#45;&gt;Node16 -->
<g id="edge17" class="edge"><title>Node15&#45;&gt;Node16</title>
<path fill="none" stroke="midnightblue" d="M1217.21,-117.801C1307.25,-111.287 1496.59,-95.4381 1519,-76 1532.11,-64.6288 1536.07,-44.6358 1537.09,-29.8166"/>
<polygon fill="midnightblue" stroke="midnightblue" points="1540.59,-29.8215 1537.39,-19.7212 1533.59,-29.612 1540.59,-29.8215"/>
</g>
<!-- Node17 -->
<g id="node17" class="node"><title>Node17</title>
<polygon fill="none" stroke="#bfbfbf" points="1566,-56.5 1566,-75.5 1612,-75.5 1612,-56.5 1566,-56.5"/>
<text text-anchor="middle" x="1589" y="-63.5" font-family="Helvetica,sans-Serif" font-size="10.00">chrono</text>
</g>
<!-- Node15&#45;&gt;Node17 -->
<g id="edge18" class="edge"><title>Node15&#45;&gt;Node17</title>
<path fill="none" stroke="midnightblue" d="M1217.02,-117.311C1289.38,-111.218 1432.22,-97.5411 1552,-76 1553.28,-75.7696 1554.58,-75.5215 1555.9,-75.2596"/>
<polygon fill="midnightblue" stroke="midnightblue" points="1556.98,-78.6063 1566,-73.0521 1555.48,-71.7677 1556.98,-78.6063"/>
</g>
<!-- Node18 -->
<g id="node18" class="node"><title>Node18</title>
<polygon fill="none" stroke="#bfbfbf" points="640.5,-56.5 640.5,-75.5 699.5,-75.5 699.5,-56.5 640.5,-56.5"/>
<text text-anchor="middle" x="670" y="-63.5" font-family="Helvetica,sans-Serif" font-size="10.00">functional</text>
</g>
<!-- Node15&#45;&gt;Node18 -->
<g id="edge20" class="edge"><title>Node15&#45;&gt;Node18</title>
<path fill="none" stroke="midnightblue" d="M1122.84,-118.521C1040.74,-113.747 866.157,-101.563 710.048,-76.1521"/>
<polygon fill="midnightblue" stroke="midnightblue" points="710.23,-72.6348 699.793,-74.4591 709.09,-79.5413 710.23,-72.6348"/>
</g>
<!-- Node19 -->
<g id="node19" class="node"><title>Node19</title>
<polygon fill="none" stroke="#bfbfbf" points="910,-56.5 910,-75.5 964,-75.5 964,-56.5 910,-56.5"/>
<text text-anchor="middle" x="937" y="-63.5" font-family="Helvetica,sans-Serif" font-size="10.00">iostream</text>
</g>
<!-- Node15&#45;&gt;Node19 -->
<g id="edge21" class="edge"><title>Node15&#45;&gt;Node19</title>
<path fill="none" stroke="midnightblue" d="M1133.08,-112.444C1089.6,-102.367 1017.79,-85.7247 974.195,-75.6203"/>
<polygon fill="midnightblue" stroke="midnightblue" points="974.814,-72.1712 964.282,-73.323 973.234,-78.9904 974.814,-72.1712"/>
</g>
<!-- Node20 -->
<g id="node20" class="node"><title>Node20</title>
<polygon fill="none" stroke="#bfbfbf" points="1020,-56.5 1020,-75.5 1060,-75.5 1060,-56.5 1020,-56.5"/>
<text text-anchor="middle" x="1040" y="-63.5" font-family="Helvetica,sans-Serif" font-size="10.00">limits</text>
</g>
<!-- Node15&#45;&gt;Node20 -->
<g id="edge22" class="edge"><title>Node15&#45;&gt;Node20</title>
<path fill="none" stroke="midnightblue" d="M1149.4,-112.444C1127.88,-103.504 1093.92,-89.3984 1069.55,-79.2734"/>
<polygon fill="midnightblue" stroke="midnightblue" points="1070.65,-75.9429 1060.08,-75.339 1067.97,-82.4074 1070.65,-75.9429"/>
</g>
<!-- Node21 -->
<g id="node21" class="node"><title>Node21</title>
<polygon fill="none" stroke="#bfbfbf" points="1078,-56.5 1078,-75.5 1130,-75.5 1130,-56.5 1078,-56.5"/>
<text text-anchor="middle" x="1104" y="-63.5" font-family="Helvetica,sans-Serif" font-size="10.00">memory</text>
</g>
<!-- Node15&#45;&gt;Node21 -->
<g id="edge23" class="edge"><title>Node15&#45;&gt;Node21</title>
<path fill="none" stroke="midnightblue" d="M1159.4,-112.324C1149.54,-104.263 1134.65,-92.0765 1122.78,-82.3695"/>
<polygon fill="midnightblue" stroke="midnightblue" points="1124.75,-79.4575 1114.8,-75.8339 1120.32,-84.8752 1124.75,-79.4575"/>
</g>
<!-- Node22 -->
<g id="node22" class="node"><title>Node22</title>
<polygon fill="none" stroke="#bfbfbf" points="1148.5,-56.5 1148.5,-75.5 1191.5,-75.5 1191.5,-56.5 1148.5,-56.5"/>
<text text-anchor="middle" x="1170" y="-63.5" font-family="Helvetica,sans-Serif" font-size="10.00">queue</text>
</g>
<!-- Node15&#45;&gt;Node22 -->
<g id="edge25" class="edge"><title>Node15&#45;&gt;Node22</title>
<path fill="none" stroke="midnightblue" d="M1170,-112.083C1170,-105.006 1170,-94.8611 1170,-85.9865"/>
<polygon fill="midnightblue" stroke="midnightblue" points="1173.5,-85.751 1170,-75.7511 1166.5,-85.7511 1173.5,-85.751"/>
</g>
<!-- Node23 -->
<g id="node23" class="node"><title>Node23</title>
<polygon fill="none" stroke="#bfbfbf" points="1209.5,-56.5 1209.5,-75.5 1292.5,-75.5 1292.5,-56.5 1209.5,-56.5"/>
<text text-anchor="middle" x="1251" y="-63.5" font-family="Helvetica,sans-Serif" font-size="10.00">unordered_map</text>
</g>
<!-- Node15&#45;&gt;Node23 -->
<g id="edge27" class="edge"><title>Node15&#45;&gt;Node23</title>
<path fill="none" stroke="midnightblue" d="M1183.01,-112.324C1195.53,-103.979 1214.68,-91.2122 1229.47,-81.3524"/>
<polygon fill="midnightblue" stroke="midnightblue" points="1231.64,-84.1137 1238.02,-75.6545 1227.76,-78.2894 1231.64,-84.1137"/>
</g>
<!-- Node24 -->
<g id="node24" class="node"><title>Node24</title>
<polygon fill="none" stroke="#bfbfbf" points="1599,-0.5 1599,-19.5 1643,-19.5 1643,-0.5 1599,-0.5"/>
<text text-anchor="middle" x="1621" y="-7.5" font-family="Helvetica,sans-Serif" font-size="10.00">vector</text>
</g>
<!-- Node15&#45;&gt;Node24 -->
<g id="edge28" class="edge"><title>Node15&#45;&gt;Node24</title>
<path fill="none" stroke="midnightblue" d="M1217.01,-117.998C1329.82,-110.57 1607.55,-90.8578 1621,-76 1632.1,-63.733 1630.49,-44.1949 1627.08,-29.7389"/>
<polygon fill="midnightblue" stroke="midnightblue" points="1630.38,-28.5579 1624.31,-19.8796 1623.65,-30.4538 1630.38,-28.5579"/>
</g>
<!-- Node25 -->
<g id="node25" class="node"><title>Node25</title>
<g id="a_node25"><a xlink:href="bufArray_8hpp.html" target="_top" xlink:title="bufArray.hpp">
<polygon fill="none" stroke="black" points="1438.5,-56.5 1438.5,-75.5 1509.5,-75.5 1509.5,-56.5 1438.5,-56.5"/>
<text text-anchor="middle" x="1474" y="-63.5" font-family="Helvetica,sans-Serif" font-size="10.00">bufArray.hpp</text>
</a>
</g>
</g>
<!-- Node15&#45;&gt;Node25 -->
<g id="edge29" class="edge"><title>Node15&#45;&gt;Node25</title>
<path fill="none" stroke="midnightblue" d="M1217.33,-113.148C1267.17,-104.795 1348.21,-90.9804 1427.94,-76.1609"/>
<polygon fill="midnightblue" stroke="midnightblue" points="1428.97,-79.5291 1438.15,-74.2543 1427.68,-72.6478 1428.97,-79.5291"/>
</g>
<!-- Node27 -->
<g id="node27" class="node"><title>Node27</title>
<g id="a_node27"><a xlink:href="spinlock_8hpp.html" target="_top" xlink:title="spinlock.hpp">
<polygon fill="none" stroke="black" points="1349.5,-56.5 1349.5,-75.5 1420.5,-75.5 1420.5,-56.5 1349.5,-56.5"/>
<text text-anchor="middle" x="1385" y="-63.5" font-family="Helvetica,sans-Serif" font-size="10.00">spinlock.hpp</text>
</a>
</g>
</g>
<!-- Node15&#45;&gt;Node27 -->
<g id="edge37" class="edge"><title>Node15&#45;&gt;Node27</title>
<path fill="none" stroke="midnightblue" d="M1204.07,-112.444C1241.18,-103.122 1300.66,-88.1828 1341.21,-77.9972"/>
<polygon fill="midnightblue" stroke="midnightblue" points="1342.25,-81.347 1351.09,-75.5164 1340.54,-74.5579 1342.25,-81.347"/>
</g>
<!-- Node25&#45;&gt;Node6 -->
<g id="edge31" class="edge"><title>Node25&#45;&gt;Node6</title>
<path fill="none" stroke="midnightblue" d="M1438.22,-57.3498C1435.11,-56.8354 1432,-56.3741 1429,-56 1385.61,-50.5975 726.689,-19.8389 569.488,-12.5492"/>
<polygon fill="midnightblue" stroke="midnightblue" points="569.203,-9.03229 559.052,-12.0655 568.879,-16.0248 569.203,-9.03229"/>
</g>
<!-- Node25&#45;&gt;Node9 -->
<g id="edge32" class="edge"><title>Node25&#45;&gt;Node9</title>
<path fill="none" stroke="midnightblue" d="M1438.2,-57.479C1435.09,-56.9365 1432,-56.4335 1429,-56 1259.14,-31.4276 1054.69,-18.0011 969.871,-13.1364"/>
<polygon fill="midnightblue" stroke="midnightblue" points="969.839,-9.62911 959.657,-12.559 969.444,-16.618 969.839,-9.62911"/>
</g>
<!-- Node25&#45;&gt;Node16 -->
<g id="edge30" class="edge"><title>Node25&#45;&gt;Node16</title>
<path fill="none" stroke="midnightblue" d="M1484.12,-56.324C1493.53,-48.2631 1507.74,-36.0765 1519.07,-26.3695"/>
<polygon fill="midnightblue" stroke="midnightblue" points="1521.38,-28.9993 1526.69,-19.8339 1516.82,-23.6844 1521.38,-28.9993"/>
</g>
<!-- Node25&#45;&gt;Node24 -->
<g id="edge34" class="edge"><title>Node25&#45;&gt;Node24</title>
<path fill="none" stroke="midnightblue" d="M1497.29,-56.4435C1522.1,-47.3322 1561.51,-32.8531 1589.17,-22.6929"/>
<polygon fill="midnightblue" stroke="midnightblue" points="1590.6,-25.8965 1598.78,-19.1629 1588.19,-19.3258 1590.6,-25.8965"/>
</g>
<!-- Node26 -->
<g id="node26" class="node"><title>Node26</title>
<polygon fill="none" stroke="#bfbfbf" points="1454,-0.5 1454,-19.5 1494,-19.5 1494,-0.5 1454,-0.5"/>
<text text-anchor="middle" x="1474" y="-7.5" font-family="Helvetica,sans-Serif" font-size="10.00">utility</text>
</g>
<!-- Node25&#45;&gt;Node26 -->
<g id="edge33" class="edge"><title>Node25&#45;&gt;Node26</title>
<path fill="none" stroke="midnightblue" d="M1474,-56.083C1474,-49.0059 1474,-38.8611 1474,-29.9865"/>
<polygon fill="midnightblue" stroke="midnightblue" points="1477.5,-29.751 1474,-19.7511 1470.5,-29.7511 1477.5,-29.751"/>
</g>
<!-- Node28 -->
<g id="node28" class="node"><title>Node28</title>
<polygon fill="none" stroke="#bfbfbf" points="1362,-0.5 1362,-19.5 1408,-19.5 1408,-0.5 1362,-0.5"/>
<text text-anchor="middle" x="1385" y="-7.5" font-family="Helvetica,sans-Serif" font-size="10.00">atomic</text>
</g>
<!-- Node27&#45;&gt;Node28 -->
<g id="edge38" class="edge"><title>Node27&#45;&gt;Node28</title>
<path fill="none" stroke="midnightblue" d="M1385,-56.083C1385,-49.0059 1385,-38.8611 1385,-29.9865"/>
<polygon fill="midnightblue" stroke="midnightblue" points="1388.5,-29.751 1385,-19.7511 1381.5,-29.7511 1388.5,-29.751"/>
</g>
<!-- Node29&#45;&gt;Node2 -->
<g id="edge54" class="edge"><title>Node29&#45;&gt;Node2</title>
<path fill="none" stroke="midnightblue" d="M370.786,-186.132C456.879,-196.218 609.005,-214.588 693.42,-225.084"/>
<polygon fill="midnightblue" stroke="midnightblue" points="693.014,-228.561 703.37,-226.324 693.879,-221.615 693.014,-228.561"/>
</g>
<!-- Node29&#45;&gt;Node4 -->
<g id="edge41" class="edge"><title>Node29&#45;&gt;Node4</title>
<path fill="none" stroke="midnightblue" d="M274.237,-168.439C253.153,-161.528 226.36,-149.949 208,-132 182.368,-106.941 158.958,-84.2685 181,-56 198.356,-33.7405 276.598,-20.8063 323.705,-14.9045"/>
<polygon fill="midnightblue" stroke="midnightblue" points="324.31,-18.357 333.819,-13.6851 323.472,-11.4073 324.31,-18.357"/>
</g>
<!-- Node29&#45;&gt;Node10 -->
<g id="edge53" class="edge"><title>Node29&#45;&gt;Node10</title>
<path fill="none" stroke="midnightblue" d="M243.332,-168.701C212.507,-162.365 176.17,-151.286 148,-132 130.377,-119.935 116.485,-99.463 108.06,-84.7141"/>
<polygon fill="midnightblue" stroke="midnightblue" points="110.96,-82.7197 103.122,-75.5913 104.804,-86.0518 110.96,-82.7197"/>
</g>
<!-- Node30 -->
<g id="node30" class="node"><title>Node30</title>
<polygon fill="none" stroke="#bfbfbf" points="190.5,-56.5 190.5,-75.5 235.5,-75.5 235.5,-56.5 190.5,-56.5"/>
<text text-anchor="middle" x="213" y="-63.5" font-family="Helvetica,sans-Serif" font-size="10.00">cstdlib</text>
</g>
<!-- Node29&#45;&gt;Node30 -->
<g id="edge40" class="edge"><title>Node29&#45;&gt;Node30</title>
<path fill="none" stroke="midnightblue" d="M273.119,-168.452C254.002,-161.788 231.505,-150.473 219,-132 209.967,-118.656 209.117,-100.083 210.147,-86.2064"/>
<polygon fill="midnightblue" stroke="midnightblue" points="213.67,-86.2022 211.316,-75.8722 206.714,-85.4155 213.67,-86.2022"/>
</g>
<!-- Node31 -->
<g id="node31" class="node"><title>Node31</title>
<g id="a_node31"><a xlink:href="IPv4__5TupleL2Ident_8hpp.html" target="_top" xlink:title="IPv4_5TupleL2Ident.hpp">
<polygon fill="none" stroke="black" points="513,-112.5 513,-131.5 635,-131.5 635,-112.5 513,-112.5"/>
<text text-anchor="middle" x="574" y="-119.5" font-family="Helvetica,sans-Serif" font-size="10.00">IPv4_5TupleL2Ident.hpp</text>
</a>
</g>
</g>
<!-- Node29&#45;&gt;Node31 -->
<g id="edge42" class="edge"><title>Node29&#45;&gt;Node31</title>
<path fill="none" stroke="midnightblue" d="M349.307,-168.444C396.08,-158.984 471.46,-143.738 521.85,-133.547"/>
<polygon fill="midnightblue" stroke="midnightblue" points="522.783,-136.929 531.891,-131.516 521.396,-130.068 522.783,-136.929"/>
</g>
<!-- Node32 -->
<g id="node32" class="node"><title>Node32</title>
<g id="a_node32"><a xlink:href="mbuf_8hpp.html" target="_top" xlink:title="mbuf.hpp">
<polygon fill="none" stroke="black" points="344.5,-112.5 344.5,-131.5 401.5,-131.5 401.5,-112.5 344.5,-112.5"/>
<text text-anchor="middle" x="373" y="-119.5" font-family="Helvetica,sans-Serif" font-size="10.00">mbuf.hpp</text>
</a>
</g>
</g>
<!-- Node29&#45;&gt;Node32 -->
<g id="edge55" class="edge"><title>Node29&#45;&gt;Node32</title>
<path fill="none" stroke="midnightblue" d="M317.604,-168.324C327.456,-160.263 342.351,-148.077 354.215,-138.369"/>
<polygon fill="midnightblue" stroke="midnightblue" points="356.68,-140.875 362.203,-131.834 352.247,-135.457 356.68,-140.875"/>
</g>
<!-- Node34 -->
<g id="node34" class="node"><title>Node34</title>
<g id="a_node34"><a xlink:href="samplePacket_8hpp.html" target="_top" xlink:title="samplePacket.hpp">
<polygon fill="none" stroke="black" points="228,-112.5 228,-131.5 326,-131.5 326,-112.5 228,-112.5"/>
<text text-anchor="middle" x="277" y="-119.5" font-family="Helvetica,sans-Serif" font-size="10.00">samplePacket.hpp</text>
</a>
</g>
</g>
<!-- Node29&#45;&gt;Node34 -->
<g id="edge58" class="edge"><title>Node29&#45;&gt;Node34</title>
<path fill="none" stroke="midnightblue" d="M302.046,-168.083C297.896,-160.613 291.847,-149.724 286.733,-140.52"/>
<polygon fill="midnightblue" stroke="midnightblue" points="289.778,-138.793 281.862,-131.751 283.659,-142.192 289.778,-138.793"/>
</g>
<!-- Node31&#45;&gt;Node4 -->
<g id="edge47" class="edge"><title>Node31&#45;&gt;Node4</title>
<path fill="none" stroke="midnightblue" d="M562.459,-112.395C544.307,-99.1209 507.677,-73.3691 474,-56 448.631,-42.9162 418.546,-31.1879 395.654,-22.9873"/>
<polygon fill="midnightblue" stroke="midnightblue" points="396.597,-19.6086 386.002,-19.5854 394.27,-26.2106 396.597,-19.6086"/>
</g>
<!-- Node31&#45;&gt;Node5 -->
<g id="edge50" class="edge"><title>Node31&#45;&gt;Node5</title>
<path fill="none" stroke="midnightblue" d="M602.522,-112.444C633.066,-103.28 681.708,-88.6876 715.603,-78.5192"/>
<polygon fill="midnightblue" stroke="midnightblue" points="717.039,-81.7424 725.612,-75.5164 715.028,-75.0376 717.039,-81.7424"/>
</g>
<!-- Node31&#45;&gt;Node6 -->
<g id="edge43" class="edge"><title>Node31&#45;&gt;Node6</title>
<path fill="none" stroke="midnightblue" d="M571.018,-112.368C564.858,-94.5366 550.611,-53.2953 542.312,-29.2717"/>
<polygon fill="midnightblue" stroke="midnightblue" points="545.541,-27.9005 538.968,-19.5914 538.925,-30.1862 545.541,-27.9005"/>
</g>
<!-- Node31&#45;&gt;Node7 -->
<g id="edge52" class="edge"><title>Node31&#45;&gt;Node7</title>
<path fill="none" stroke="midnightblue" d="M617.733,-112.444C666.753,-102.853 746.172,-87.3142 798.245,-77.1259"/>
<polygon fill="midnightblue" stroke="midnightblue" points="799.136,-80.518 808.278,-75.1629 797.792,-73.6483 799.136,-80.518"/>
</g>
<!-- Node31&#45;&gt;Node8 -->
<g id="edge44" class="edge"><title>Node31&#45;&gt;Node8</title>
<path fill="none" stroke="midnightblue" d="M574.684,-112.449C576.266,-98.532 581.424,-71.0289 598,-56 634.264,-23.1202 691.606,-13.7083 729.994,-11.3062"/>
<polygon fill="midnightblue" stroke="midnightblue" points="730.469,-14.7872 740.285,-10.8009 730.125,-7.79559 730.469,-14.7872"/>
</g>
<!-- Node31&#45;&gt;Node9 -->
<g id="edge48" class="edge"><title>Node31&#45;&gt;Node9</title>
<path fill="none" stroke="midnightblue" d="M578.96,-112.081C587.513,-97.6342 606.502,-69.3872 631,-56 674.925,-31.9962 819.34,-18.7827 890.146,-13.6041"/>
<polygon fill="midnightblue" stroke="midnightblue" points="890.719,-17.0722 900.445,-12.8697 890.221,-10.0899 890.719,-17.0722"/>
</g>
<!-- Node31&#45;&gt;Node10 -->
<g id="edge51" class="edge"><title>Node31&#45;&gt;Node10</title>
<path fill="none" stroke="midnightblue" d="M512.874,-114.051C416.18,-103.058 230.127,-81.9071 144.35,-72.1556"/>
<polygon fill="midnightblue" stroke="midnightblue" points="144.485,-68.6485 134.154,-70.9965 143.695,-75.6037 144.485,-68.6485"/>
</g>
<!-- Node31&#45;&gt;Node13 -->
<g id="edge49" class="edge"><title>Node31&#45;&gt;Node13</title>
<path fill="none" stroke="midnightblue" d="M548.535,-112.46C488.957,-92.4794 340.68,-42.7525 276.458,-21.2146"/>
<polygon fill="midnightblue" stroke="midnightblue" points="277.493,-17.8701 266.899,-18.0088 275.267,-24.5068 277.493,-17.8701"/>
</g>
<!-- Node31&#45;&gt;Node18 -->
<g id="edge45" class="edge"><title>Node31&#45;&gt;Node18</title>
<path fill="none" stroke="midnightblue" d="M589.424,-112.324C604.54,-103.822 627.815,-90.7288 645.471,-80.7975"/>
<polygon fill="midnightblue" stroke="midnightblue" points="647.614,-83.6077 654.614,-75.6545 644.183,-77.5066 647.614,-83.6077"/>
</g>
<!-- Node31&#45;&gt;Node19 -->
<g id="edge46" class="edge"><title>Node31&#45;&gt;Node19</title>
<path fill="none" stroke="midnightblue" d="M635.286,-114.42C701.035,-106.923 808.37,-93.4217 900,-76 900.101,-75.9807 900.203,-75.9613 900.305,-75.9418"/>
<polygon fill="midnightblue" stroke="midnightblue" points="900.925,-79.388 909.991,-73.9048 899.485,-72.5378 900.925,-79.388"/>
</g>
<!-- Node32&#45;&gt;Node6 -->
<g id="edge56" class="edge"><title>Node32&#45;&gt;Node6</title>
<path fill="none" stroke="midnightblue" d="M385.79,-112.368C413.761,-93.4924 480.602,-48.385 514.904,-25.2367"/>
<polygon fill="midnightblue" stroke="midnightblue" points="516.938,-28.0865 523.269,-19.5914 513.022,-22.2841 516.938,-28.0865"/>
</g>
<!-- Node33 -->
<g id="node33" class="node"><title>Node33</title>
<polygon fill="none" stroke="#bfbfbf" points="292.5,-56.5 292.5,-75.5 355.5,-75.5 355.5,-56.5 292.5,-56.5"/>
<text text-anchor="middle" x="324" y="-63.5" font-family="Helvetica,sans-Serif" font-size="10.00">rte_mbuf.h</text>
</g>
<!-- Node32&#45;&gt;Node33 -->
<g id="edge57" class="edge"><title>Node32&#45;&gt;Node33</title>
<path fill="none" stroke="midnightblue" d="M364.909,-112.083C357.845,-104.298 347.412,-92.8015 338.851,-83.3665"/>
<polygon fill="midnightblue" stroke="midnightblue" points="341.253,-80.8047 331.941,-75.7511 336.069,-85.5087 341.253,-80.8047"/>
</g>
<!-- Node34&#45;&gt;Node6 -->
<g id="edge59" class="edge"><title>Node34&#45;&gt;Node6</title>
<path fill="none" stroke="midnightblue" d="M274.808,-112.11C271.962,-98.2138 268.887,-71.3506 283,-56 312.114,-24.3326 440.931,-14.8396 502.719,-12.083"/>
<polygon fill="midnightblue" stroke="midnightblue" points="502.89,-15.579 512.737,-11.6693 502.601,-8.585 502.89,-15.579"/>
</g>
<!-- Node34&#45;&gt;Node30 -->
<g id="edge60" class="edge"><title>Node34&#45;&gt;Node30</title>
<path fill="none" stroke="midnightblue" d="M266.717,-112.324C257.164,-104.263 242.72,-92.0765 231.216,-82.3695"/>
<polygon fill="midnightblue" stroke="midnightblue" points="233.37,-79.6076 223.47,-75.8339 228.856,-84.9577 233.37,-79.6076"/>
</g>
</g>
</svg>
