<?xml version="1.0" encoding="UTF-8" standalone="no"?>
<!DOCTYPE svg PUBLIC "-//W3C//DTD SVG 1.1//EN"
 "http://www.w3.org/Graphics/SVG/1.1/DTD/svg11.dtd">
<!-- Generated by graphviz version 2.38.0 (20140413.2041)
 -->
<!-- Title: HelloBye2_Client_config Pages: 1 -->
<svg width="306pt" height="186pt"
 viewBox="0.00 0.00 306.00 186.00" xmlns="http://www.w3.org/2000/svg" xmlns:xlink="http://www.w3.org/1999/xlink">
<g id="graph0" class="graph" transform="scale(1 1) rotate(0) translate(4 182)">
<title>HelloBye2_Client_config</title>
<!-- Node1 -->
<g id="node1" class="node"><title>Node1</title>
<polygon fill="#bfbfbf" stroke="black" points="0,-79 0,-98 124,-98 124,-79 0,-79"/>
<text text-anchor="middle" x="62" y="-86" font-family="Helvetica,sans-Serif" font-size="10.00">HelloBye2_Client_config</text>
</g>
<!-- Node2 -->
<g id="node2" class="node"><title>Node2</title>
<g id="a_node2"><a xlink:href="classHelloBye2_1_1HelloBye2ClientConfig.html#aedf4b2f7c999cff34d48a65ce44ea01c" target="_top" xlink:title="HelloBye2::HelloBye2Client\lConfig::createInstance">
<polygon fill="none" stroke="black" points="160,-147.5 160,-177.5 298,-177.5 298,-147.5 160,-147.5"/>
<text text-anchor="start" x="168" y="-165.5" font-family="Helvetica,sans-Serif" font-size="10.00">HelloBye2::HelloBye2Client</text>
<text text-anchor="middle" x="229" y="-154.5" font-family="Helvetica,sans-Serif" font-size="10.00">Config::createInstance</text>
</a>
</g>
</g>
<!-- Node1&#45;&gt;Node2 -->
<g id="edge1" class="edge"><title>Node1&#45;&gt;Node2</title>
<path fill="none" stroke="midnightblue" d="M79.8309,-98.0714C98.9127,-108.71 131.127,-126.032 160,-138.5 164.186,-140.308 168.558,-142.087 172.977,-143.809"/>
<polygon fill="midnightblue" stroke="midnightblue" points="172.083,-147.212 182.674,-147.476 174.559,-140.665 172.083,-147.212"/>
</g>
<!-- Node3 -->
<g id="node3" class="node"><title>Node3</title>
<g id="a_node3"><a xlink:href="classHelloBye2_1_1HelloBye2ClientConfig.html#a456bccf8c2a9880404d7527fef41ca64" target="_top" xlink:title="HelloBye2::HelloBye2Client\lConfig::getInstance">
<polygon fill="none" stroke="black" points="160,-98.5 160,-128.5 298,-128.5 298,-98.5 160,-98.5"/>
<text text-anchor="start" x="168" y="-116.5" font-family="Helvetica,sans-Serif" font-size="10.00">HelloBye2::HelloBye2Client</text>
<text text-anchor="middle" x="229" y="-105.5" font-family="Helvetica,sans-Serif" font-size="10.00">Config::getInstance</text>
</a>
</g>
</g>
<!-- Node1&#45;&gt;Node3 -->
<g id="edge2" class="edge"><title>Node1&#45;&gt;Node3</title>
<path fill="none" stroke="midnightblue" d="M124.44,-97.8091C132.738,-99.0663 141.34,-100.37 149.88,-101.664"/>
<polygon fill="midnightblue" stroke="midnightblue" points="149.442,-105.137 159.854,-103.175 150.491,-98.2161 149.442,-105.137"/>
</g>
<!-- Node4 -->
<g id="node4" class="node"><title>Node4</title>
<g id="a_node4"><a xlink:href="classHelloBye2_1_1HelloBye2ClientConfig.html#a15e9127e10d8bcc0c5ec83171a1f789c" target="_top" xlink:title="HelloBye2::HelloBye2Client\lConfig::setSrcIP">
<polygon fill="none" stroke="black" points="160,-49.5 160,-79.5 298,-79.5 298,-49.5 160,-49.5"/>
<text text-anchor="start" x="168" y="-67.5" font-family="Helvetica,sans-Serif" font-size="10.00">HelloBye2::HelloBye2Client</text>
<text text-anchor="middle" x="229" y="-56.5" font-family="Helvetica,sans-Serif" font-size="10.00">Config::setSrcIP</text>
</a>
</g>
</g>
<!-- Node1&#45;&gt;Node4 -->
<g id="edge3" class="edge"><title>Node1&#45;&gt;Node4</title>
<path fill="none" stroke="midnightblue" d="M124.44,-79.5633C132.738,-78.3563 141.34,-77.1051 149.88,-75.863"/>
<polygon fill="midnightblue" stroke="midnightblue" points="150.462,-79.3152 159.854,-74.4122 149.454,-72.3881 150.462,-79.3152"/>
</g>
<!-- Node5 -->
<g id="node5" class="node"><title>Node5</title>
<g id="a_node5"><a xlink:href="classHelloBye2_1_1HelloBye2ClientConfig.html#ae7a7d1039dbd6a227c8193f5d57b7a25" target="_top" xlink:title="HelloBye2::HelloBye2Client\lConfig::setDstPort">
<polygon fill="none" stroke="black" points="160,-0.5 160,-30.5 298,-30.5 298,-0.5 160,-0.5"/>
<text text-anchor="start" x="168" y="-18.5" font-family="Helvetica,sans-Serif" font-size="10.00">HelloBye2::HelloBye2Client</text>
<text text-anchor="middle" x="229" y="-7.5" font-family="Helvetica,sans-Serif" font-size="10.00">Config::setDstPort</text>
</a>
</g>
</g>
<!-- Node1&#45;&gt;Node5 -->
<g id="edge4" class="edge"><title>Node1&#45;&gt;Node5</title>
<path fill="none" stroke="midnightblue" d="M80.9628,-78.8863C100.231,-68.7461 131.862,-52.5931 160,-40.5 164.984,-38.3582 170.218,-36.2285 175.477,-34.1677"/>
<polygon fill="midnightblue" stroke="midnightblue" points="176.838,-37.3943 184.921,-30.5448 174.331,-30.8587 176.838,-37.3943"/>
</g>
</g>
</svg>
