<?xml version="1.0" encoding="UTF-8" standalone="no"?>
<!DOCTYPE svg PUBLIC "-//W3C//DTD SVG 1.1//EN"
 "http://www.w3.org/Graphics/SVG/1.1/DTD/svg11.dtd">
<!-- Generated by graphviz version 2.40.1 (20161225.0304)
 -->
<!-- Title: HelloByeServer_getPkts Pages: 1 -->
<svg width="597pt" height="66pt"
 viewBox="0.00 0.00 597.00 66.00" xmlns="http://www.w3.org/2000/svg" xmlns:xlink="http://www.w3.org/1999/xlink">
<g id="graph0" class="graph" transform="scale(1 1) rotate(0) translate(4 62)">
<title>HelloByeServer_getPkts</title>
<!-- Node20 -->
<g id="node1" class="node">
<title>Node20</title>
<polygon fill="#bfbfbf" stroke="#000000" points="0,-19.5 0,-38.5 124,-38.5 124,-19.5 0,-19.5"/>
<text text-anchor="middle" x="62" y="-26.5" font-family="Helvetica,sans-Serif" font-size="10.00" fill="#000000">HelloByeServer_getPkts</text>
</g>
<!-- Node21 -->
<g id="node2" class="node">
<title>Node21</title>
<g id="a_node2"><a xlink:href="classBufArray.html#a65ec6fb832e58b88b2be695c4d30a437" target="_top" xlink:title="Get all the packets which are to be sent. ">
<polygon fill="none" stroke="#000000" points="311.5,-38.5 311.5,-57.5 428.5,-57.5 428.5,-38.5 311.5,-38.5"/>
<text text-anchor="middle" x="370" y="-45.5" font-family="Helvetica,sans-Serif" font-size="10.00" fill="#000000">BufArray::getSendBufs</text>
</a>
</g>
</g>
<!-- Node20&#45;&gt;Node21 -->
<g id="edge1" class="edge">
<title>Node20&#45;&gt;Node21</title>
<path fill="none" stroke="#191970" d="M124.3284,-32.8449C175.6855,-36.0131 248.4286,-40.5005 301.4264,-43.7698"/>
<polygon fill="#191970" stroke="#191970" points="301.2198,-47.2636 311.4164,-44.3861 301.6509,-40.2769 301.2198,-47.2636"/>
</g>
<!-- Node23 -->
<g id="node4" class="node">
<title>Node23</title>
<g id="a_node4"><a xlink:href="classBufArray.html#a81ad0c7cdb324569ecfb42e735e653c9" target="_top" xlink:title="Get all the packets which are to be freed. ">
<polygon fill="none" stroke="#000000" points="160,-.5 160,-19.5 274,-19.5 274,-.5 160,-.5"/>
<text text-anchor="middle" x="217" y="-7.5" font-family="Helvetica,sans-Serif" font-size="10.00" fill="#000000">BufArray::getFreeBufs</text>
</a>
</g>
</g>
<!-- Node20&#45;&gt;Node23 -->
<g id="edge3" class="edge">
<title>Node20&#45;&gt;Node23</title>
<path fill="none" stroke="#191970" d="M124.1513,-21.3815C132.6263,-20.3426 141.3563,-19.2725 149.9138,-18.2235"/>
<polygon fill="#191970" stroke="#191970" points="150.3549,-21.6957 159.8547,-17.0049 149.5031,-14.7477 150.3549,-21.6957"/>
</g>
<!-- Node22 -->
<g id="node3" class="node">
<title>Node22</title>
<g id="a_node3"><a xlink:href="classBufArray.html#a1d52cd9f63feaa98f800bcae8277e675" target="_top" xlink:title="Get the number of packets currently marked as send. ">
<polygon fill="none" stroke="#000000" points="466,-19.5 466,-38.5 589,-38.5 589,-19.5 466,-19.5"/>
<text text-anchor="middle" x="527.5" y="-26.5" font-family="Helvetica,sans-Serif" font-size="10.00" fill="#000000">BufArray::getSendCount</text>
</a>
</g>
</g>
<!-- Node21&#45;&gt;Node22 -->
<g id="edge2" class="edge">
<title>Node21&#45;&gt;Node22</title>
<path fill="none" stroke="#191970" d="M428.6472,-40.9251C437.48,-39.8596 446.6743,-38.7504 455.744,-37.6563"/>
<polygon fill="#191970" stroke="#191970" points="456.3962,-41.1031 465.905,-36.4305 455.5578,-34.1535 456.3962,-41.1031"/>
</g>
<!-- Node24 -->
<g id="node5" class="node">
<title>Node24</title>
<g id="a_node5"><a xlink:href="classBufArray.html#a77223130b4dca30992a335dbff4b4781" target="_top" xlink:title="Get the number of packets currently marked as free. ">
<polygon fill="none" stroke="#000000" points="310,-.5 310,-19.5 430,-19.5 430,-.5 310,-.5"/>
<text text-anchor="middle" x="370" y="-7.5" font-family="Helvetica,sans-Serif" font-size="10.00" fill="#000000">BufArray::getFreeCount</text>
</a>
</g>
</g>
<!-- Node23&#45;&gt;Node24 -->
<g id="edge4" class="edge">
<title>Node23&#45;&gt;Node24</title>
<path fill="none" stroke="#191970" d="M274.4069,-10C282.6656,-10 291.2416,-10 299.7151,-10"/>
<polygon fill="#191970" stroke="#191970" points="299.9721,-13.5001 309.972,-10 299.972,-6.5001 299.9721,-13.5001"/>
</g>
<!-- Node24&#45;&gt;Node22 -->
<g id="edge5" class="edge">
<title>Node24&#45;&gt;Node22</title>
<path fill="none" stroke="#191970" d="M430.4432,-17.2916C438.7983,-18.2995 447.4444,-19.3425 455.9764,-20.3718"/>
<polygon fill="#191970" stroke="#191970" points="455.5684,-23.8478 465.9156,-21.5708 456.4068,-16.8982 455.5684,-23.8478"/>
</g>
</g>
</svg>
