<?xml version="1.0" encoding="UTF-8" standalone="no"?>
<!DOCTYPE svg PUBLIC "-//W3C//DTD SVG 1.1//EN"
 "http://www.w3.org/Graphics/SVG/1.1/DTD/svg11.dtd">
<!-- Generated by graphviz version 2.40.1 (20161225.0304)
 -->
<!-- Title: HelloBye3MemPool_Client_process Pages: 1 -->
<svg width="457pt" height="53pt"
 viewBox="0.00 0.00 457.00 52.50" xmlns="http://www.w3.org/2000/svg" xmlns:xlink="http://www.w3.org/1999/xlink">
<g id="graph0" class="graph" transform="scale(1 1) rotate(0) translate(4 48.5)">
<title>HelloBye3MemPool_Client_process</title>
<!-- Node28 -->
<g id="node1" class="node">
<title>Node28</title>
<polygon fill="#bfbfbf" stroke="#000000" points="0,-14 0,-44 134,-44 134,-14 0,-14"/>
<text text-anchor="start" x="8" y="-32" font-family="Helvetica,sans-Serif" font-size="10.00" fill="#000000">HelloBye3MemPool_Client</text>
<text text-anchor="middle" x="67" y="-21" font-family="Helvetica,sans-Serif" font-size="10.00" fill="#000000">_process</text>
</g>
<!-- Node29 -->
<g id="node2" class="node">
<title>Node29</title>
<g id="a_node2"><a xlink:href="classBufArray.html#a1d52cd9f63feaa98f800bcae8277e675" target="_top" xlink:title="Get the number of packets currently marked as send. ">
<polygon fill="none" stroke="#000000" points="326,-19.5 326,-38.5 449,-38.5 449,-19.5 326,-19.5"/>
<text text-anchor="middle" x="387.5" y="-26.5" font-family="Helvetica,sans-Serif" font-size="10.00" fill="#000000">BufArray::getSendCount</text>
</a>
</g>
</g>
<!-- Node28&#45;&gt;Node29 -->
<g id="edge1" class="edge">
<title>Node28&#45;&gt;Node29</title>
<path fill="none" stroke="#191970" d="M134.1873,-29C187.2996,-29 261.2839,-29 315.5859,-29"/>
<polygon fill="#191970" stroke="#191970" points="315.8289,-32.5001 325.8289,-29 315.8289,-25.5001 315.8289,-32.5001"/>
</g>
<!-- Node30 -->
<g id="node3" class="node">
<title>Node30</title>
<g id="a_node3"><a xlink:href="classBufArray.html#a77223130b4dca30992a335dbff4b4781" target="_top" xlink:title="Get the number of packets currently marked as free. ">
<polygon fill="none" stroke="#000000" points="170,-.5 170,-19.5 290,-19.5 290,-.5 170,-.5"/>
<text text-anchor="middle" x="230" y="-7.5" font-family="Helvetica,sans-Serif" font-size="10.00" fill="#000000">BufArray::getFreeCount</text>
</a>
</g>
</g>
<!-- Node28&#45;&gt;Node30 -->
<g id="edge2" class="edge">
<title>Node28&#45;&gt;Node30</title>
<path fill="none" stroke="#191970" d="M134.2394,-21.1623C142.7486,-20.1704 151.4719,-19.1536 160.0225,-18.1569"/>
<polygon fill="#191970" stroke="#191970" points="160.4302,-21.6332 169.9577,-16.9988 159.6197,-14.6802 160.4302,-21.6332"/>
</g>
<!-- Node30&#45;&gt;Node29 -->
<g id="edge3" class="edge">
<title>Node30&#45;&gt;Node29</title>
<path fill="none" stroke="#191970" d="M290.4432,-17.2916C298.7983,-18.2995 307.4444,-19.3425 315.9764,-20.3718"/>
<polygon fill="#191970" stroke="#191970" points="315.5684,-23.8478 325.9156,-21.5708 316.4068,-16.8982 315.5684,-23.8478"/>
</g>
</g>
</svg>
