<?xml version="1.0" encoding="UTF-8" standalone="no"?>
<!DOCTYPE svg PUBLIC "-//W3C//DTD SVG 1.1//EN"
 "http://www.w3.org/Graphics/SVG/1.1/DTD/svg11.dtd">
<!-- Generated by graphviz version 2.38.0 (20140413.2041)
 -->
<!-- Title: HelloByeClient_config Pages: 1 -->
<svg width="285pt" height="186pt"
 viewBox="0.00 0.00 285.00 186.00" xmlns="http://www.w3.org/2000/svg" xmlns:xlink="http://www.w3.org/1999/xlink">
<g id="graph0" class="graph" transform="scale(1 1) rotate(0) translate(4 182)">
<title>HelloByeClient_config</title>
<!-- Node1 -->
<g id="node1" class="node"><title>Node1</title>
<polygon fill="#bfbfbf" stroke="black" points="0,-79 0,-98 113,-98 113,-79 0,-79"/>
<text text-anchor="middle" x="56.5" y="-86" font-family="Helvetica,sans-Serif" font-size="10.00">HelloByeClient_config</text>
</g>
<!-- Node2 -->
<g id="node2" class="node"><title>Node2</title>
<g id="a_node2"><a xlink:href="classHelloBye_1_1HelloByeClientConfig.html#a2cd013d248d039b557f417dd178f2186" target="_top" xlink:title="HelloBye::HelloByeClient\lConfig::createInstance">
<polygon fill="none" stroke="black" points="149,-147.5 149,-177.5 277,-177.5 277,-147.5 149,-147.5"/>
<text text-anchor="start" x="157" y="-165.5" font-family="Helvetica,sans-Serif" font-size="10.00">HelloBye::HelloByeClient</text>
<text text-anchor="middle" x="213" y="-154.5" font-family="Helvetica,sans-Serif" font-size="10.00">Config::createInstance</text>
</a>
</g>
</g>
<!-- Node1&#45;&gt;Node2 -->
<g id="edge1" class="edge"><title>Node1&#45;&gt;Node2</title>
<path fill="none" stroke="midnightblue" d="M73.3571,-98.0287C91.3395,-108.629 121.711,-125.917 149,-138.5 152.767,-140.237 156.698,-141.953 160.675,-143.62"/>
<polygon fill="midnightblue" stroke="midnightblue" points="159.404,-146.881 169.986,-147.41 162.043,-140.398 159.404,-146.881"/>
</g>
<!-- Node3 -->
<g id="node3" class="node"><title>Node3</title>
<g id="a_node3"><a xlink:href="classHelloBye_1_1HelloByeClientConfig.html#ad2c4d5874607eab2f221dd9dc8b55e1e" target="_top" xlink:title="HelloBye::HelloByeClient\lConfig::getInstance">
<polygon fill="none" stroke="black" points="149,-98.5 149,-128.5 277,-128.5 277,-98.5 149,-98.5"/>
<text text-anchor="start" x="157" y="-116.5" font-family="Helvetica,sans-Serif" font-size="10.00">HelloBye::HelloByeClient</text>
<text text-anchor="middle" x="213" y="-105.5" font-family="Helvetica,sans-Serif" font-size="10.00">Config::getInstance</text>
</a>
</g>
</g>
<!-- Node1&#45;&gt;Node3 -->
<g id="edge2" class="edge"><title>Node1&#45;&gt;Node3</title>
<path fill="none" stroke="midnightblue" d="M113.278,-97.5256C121.603,-98.8726 130.289,-100.278 138.906,-101.672"/>
<polygon fill="midnightblue" stroke="midnightblue" points="138.533,-105.158 148.964,-103.3 139.651,-98.2475 138.533,-105.158"/>
</g>
<!-- Node4 -->
<g id="node4" class="node"><title>Node4</title>
<g id="a_node4"><a xlink:href="classHelloBye_1_1HelloByeClientConfig.html#ac12cfc6f998d48f4550ad84a90bebf3e" target="_top" xlink:title="HelloBye::HelloByeClient\lConfig::setSrcIP">
<polygon fill="none" stroke="black" points="149,-49.5 149,-79.5 277,-79.5 277,-49.5 149,-49.5"/>
<text text-anchor="start" x="157" y="-67.5" font-family="Helvetica,sans-Serif" font-size="10.00">HelloBye::HelloByeClient</text>
<text text-anchor="middle" x="213" y="-56.5" font-family="Helvetica,sans-Serif" font-size="10.00">Config::setSrcIP</text>
</a>
</g>
</g>
<!-- Node1&#45;&gt;Node4 -->
<g id="edge3" class="edge"><title>Node1&#45;&gt;Node4</title>
<path fill="none" stroke="midnightblue" d="M113.278,-79.8354C121.603,-78.5423 130.289,-77.193 138.906,-75.8544"/>
<polygon fill="midnightblue" stroke="midnightblue" points="139.62,-79.2856 148.964,-74.292 138.545,-72.3686 139.62,-79.2856"/>
</g>
<!-- Node5 -->
<g id="node5" class="node"><title>Node5</title>
<g id="a_node5"><a xlink:href="classHelloBye_1_1HelloByeClientConfig.html#a99b9923cc3ae23dc8c54d33f03acda96" target="_top" xlink:title="HelloBye::HelloByeClient\lConfig::setDstPort">
<polygon fill="none" stroke="black" points="149,-0.5 149,-30.5 277,-30.5 277,-0.5 149,-0.5"/>
<text text-anchor="start" x="157" y="-18.5" font-family="Helvetica,sans-Serif" font-size="10.00">HelloBye::HelloByeClient</text>
<text text-anchor="middle" x="213" y="-7.5" font-family="Helvetica,sans-Serif" font-size="10.00">Config::setDstPort</text>
</a>
</g>
</g>
<!-- Node1&#45;&gt;Node5 -->
<g id="edge4" class="edge"><title>Node1&#45;&gt;Node5</title>
<path fill="none" stroke="midnightblue" d="M74.4324,-78.9291C92.5983,-68.8246 122.427,-52.7011 149,-40.5 153.381,-38.4884 157.973,-36.4803 162.597,-34.5262"/>
<polygon fill="midnightblue" stroke="midnightblue" points="164.171,-37.6629 172.075,-30.6071 161.496,-31.1942 164.171,-37.6629"/>
</g>
</g>
</svg>
