<?xml version="1.0" encoding="UTF-8" standalone="no"?>
<!DOCTYPE svg PUBLIC "-//W3C//DTD SVG 1.1//EN"
 "http://www.w3.org/Graphics/SVG/1.1/DTD/svg11.dtd">
<!-- Generated by graphviz version 2.40.1 (20161225.0304)
 -->
<!-- Title: /home/dominik/uni/MoonState/src/helloBye_C.cpp Pages: 1 -->
<svg width="1618pt" height="375pt"
 viewBox="0.00 0.00 1618.00 375.00" xmlns="http://www.w3.org/2000/svg" xmlns:xlink="http://www.w3.org/1999/xlink">
<g id="graph0" class="graph" transform="scale(1 1) rotate(0) translate(4 371)">
<title>/home/dominik/uni/MoonState/src/helloBye_C.cpp</title>
<!-- Node0 -->
<g id="node1" class="node">
<title>Node0</title>
<polygon fill="#bfbfbf" stroke="#000000" points="1162,-336.5 1162,-366.5 1309,-366.5 1309,-336.5 1162,-336.5"/>
<text text-anchor="start" x="1170" y="-354.5" font-family="Helvetica,sans-Serif" font-size="10.00" fill="#000000">/home/dominik/uni/MoonState</text>
<text text-anchor="middle" x="1235.5" y="-343.5" font-family="Helvetica,sans-Serif" font-size="10.00" fill="#000000">/src/helloBye_C.cpp</text>
</g>
<!-- Node1 -->
<g id="node2" class="node">
<title>Node1</title>
<g id="a_node2"><a xlink:href="helloBye__C_8hpp.html" target="_top" xlink:title="helloBye_C.hpp">
<polygon fill="none" stroke="#000000" points="1192.5,-280.5 1192.5,-299.5 1278.5,-299.5 1278.5,-280.5 1192.5,-280.5"/>
<text text-anchor="middle" x="1235.5" y="-287.5" font-family="Helvetica,sans-Serif" font-size="10.00" fill="#000000">helloBye_C.hpp</text>
</a>
</g>
</g>
<!-- Node0&#45;&gt;Node1 -->
<g id="edge1" class="edge">
<title>Node0&#45;&gt;Node1</title>
<path fill="none" stroke="#191970" d="M1235.5,-336.2977C1235.5,-328.3834 1235.5,-318.6043 1235.5,-310.0759"/>
<polygon fill="#191970" stroke="#191970" points="1239.0001,-309.8469 1235.5,-299.8469 1232.0001,-309.847 1239.0001,-309.8469"/>
</g>
<!-- Node7 -->
<g id="node8" class="node">
<title>Node7</title>
<g id="a_node8"><a xlink:href="stateMachine_8hpp.html" target="_top" xlink:title="stateMachine.hpp">
<polygon fill="none" stroke="#000000" points="538.5,-112.5 538.5,-131.5 632.5,-131.5 632.5,-112.5 538.5,-112.5"/>
<text text-anchor="middle" x="585.5" y="-119.5" font-family="Helvetica,sans-Serif" font-size="10.00" fill="#000000">stateMachine.hpp</text>
</a>
</g>
</g>
<!-- Node0&#45;&gt;Node7 -->
<g id="edge65" class="edge">
<title>Node0&#45;&gt;Node7</title>
<path fill="none" stroke="#191970" d="M1192.6955,-336.4061C1163.5951,-326.1433 1124.2233,-312.2558 1089.5,-300 914.3872,-238.1927 705.074,-164.2471 622.0329,-134.9079"/>
<polygon fill="#191970" stroke="#191970" points="623.1375,-131.5862 612.5427,-131.5549 620.8055,-138.1864 623.1375,-131.5862"/>
</g>
<!-- Node18 -->
<g id="node19" class="node">
<title>Node18</title>
<g id="a_node19"><a xlink:href="bufArray_8hpp.html" target="_top" xlink:title="bufArray.hpp">
<polygon fill="none" stroke="#000000" points="128,-56.5 128,-75.5 199,-75.5 199,-56.5 128,-56.5"/>
<text text-anchor="middle" x="163.5" y="-63.5" font-family="Helvetica,sans-Serif" font-size="10.00" fill="#000000">bufArray.hpp</text>
</a>
</g>
</g>
<!-- Node0&#45;&gt;Node18 -->
<g id="edge62" class="edge">
<title>Node0&#45;&gt;Node18</title>
<path fill="none" stroke="#191970" d="M1161.7025,-349.757C943.9861,-343.6439 319.5,-318.7248 319.5,-234 319.5,-234 319.5,-234 319.5,-178 319.5,-123.1766 255.1378,-92.573 209.096,-77.6944"/>
<polygon fill="#191970" stroke="#191970" points="209.8769,-74.2726 199.2896,-74.6698 207.8138,-80.9617 209.8769,-74.2726"/>
</g>
<!-- Node27 -->
<g id="node28" class="node">
<title>Node27</title>
<g id="a_node28"><a xlink:href="IPv4__5TupleL2Ident_8hpp.html" target="_top" xlink:title="IPv4_5TupleL2Ident.hpp">
<polygon fill="none" stroke="#000000" points="1041.5,-112.5 1041.5,-131.5 1163.5,-131.5 1163.5,-112.5 1041.5,-112.5"/>
<text text-anchor="middle" x="1102.5" y="-119.5" font-family="Helvetica,sans-Serif" font-size="10.00" fill="#000000">IPv4_5TupleL2Ident.hpp</text>
</a>
</g>
</g>
<!-- Node0&#45;&gt;Node27 -->
<g id="edge61" class="edge">
<title>Node0&#45;&gt;Node27</title>
<path fill="none" stroke="#191970" d="M1188.1308,-336.4131C1147.1928,-320.5678 1090.6167,-291.2672 1064.5,-244 1045.485,-209.5858 1071.0127,-164.3472 1088.5215,-139.7673"/>
<polygon fill="#191970" stroke="#191970" points="1091.3575,-141.8189 1094.5119,-131.7045 1085.7386,-137.6441 1091.3575,-141.8189"/>
</g>
<!-- Node29 -->
<g id="node30" class="node">
<title>Node29</title>
<g id="a_node30"><a xlink:href="headers_8hpp.html" target="_top" xlink:title="headers.hpp">
<polygon fill="none" stroke="#000000" points="1382.5,-56.5 1382.5,-75.5 1452.5,-75.5 1452.5,-56.5 1382.5,-56.5"/>
<text text-anchor="middle" x="1417.5" y="-63.5" font-family="Helvetica,sans-Serif" font-size="10.00" fill="#000000">headers.hpp</text>
</a>
</g>
</g>
<!-- Node0&#45;&gt;Node29 -->
<g id="edge63" class="edge">
<title>Node0&#45;&gt;Node29</title>
<path fill="none" stroke="#191970" d="M1298.5889,-336.4935C1376.1145,-316.1774 1497.5,-277.4326 1497.5,-234 1497.5,-234 1497.5,-234 1497.5,-178 1497.5,-147.4754 1495.7981,-137.1501 1478.5,-112 1469.8148,-99.3724 1456.5428,-88.7727 1444.5939,-80.9428"/>
<polygon fill="#191970" stroke="#191970" points="1446.1574,-77.7944 1435.8124,-75.5074 1442.4733,-83.7465 1446.1574,-77.7944"/>
</g>
<!-- Node32 -->
<g id="node33" class="node">
<title>Node32</title>
<g id="a_node33"><a xlink:href="mbuf_8hpp.html" target="_top" xlink:title="mbuf.hpp">
<polygon fill="none" stroke="#000000" points="1412,-112.5 1412,-131.5 1469,-131.5 1469,-112.5 1412,-112.5"/>
<text text-anchor="middle" x="1440.5" y="-119.5" font-family="Helvetica,sans-Serif" font-size="10.00" fill="#000000">mbuf.hpp</text>
</a>
</g>
</g>
<!-- Node0&#45;&gt;Node32 -->
<g id="edge64" class="edge">
<title>Node0&#45;&gt;Node32</title>
<path fill="none" stroke="#191970" d="M1251.3003,-336.4944C1261.7802,-326.3868 1275.7197,-312.6423 1287.5,-300 1340.3172,-243.3183 1399.0721,-172.6499 1425.8129,-140.0337"/>
<polygon fill="#191970" stroke="#191970" points="1428.8541,-141.8436 1432.4747,-131.8866 1423.435,-137.4125 1428.8541,-141.8436"/>
</g>
<!-- Node33 -->
<g id="node34" class="node">
<title>Node33</title>
<polygon fill="none" stroke="#bfbfbf" points="1547,-56.5 1547,-75.5 1610,-75.5 1610,-56.5 1547,-56.5"/>
<text text-anchor="middle" x="1578.5" y="-63.5" font-family="Helvetica,sans-Serif" font-size="10.00" fill="#000000">rte_mbuf.h</text>
</g>
<!-- Node0&#45;&gt;Node33 -->
<g id="edge66" class="edge">
<title>Node0&#45;&gt;Node33</title>
<path fill="none" stroke="#191970" d="M1309.0721,-341.2818C1409.3167,-325.2577 1576.5,-290.1208 1576.5,-234 1576.5,-234 1576.5,-234 1576.5,-178 1576.5,-145.7064 1577.3415,-108.1836 1577.9328,-85.8029"/>
<polygon fill="#191970" stroke="#191970" points="1581.4374,-85.6797 1578.2134,-75.5873 1574.4401,-85.4874 1581.4374,-85.6797"/>
</g>
<!-- Node2 -->
<g id="node3" class="node">
<title>Node2</title>
<g id="a_node3"><a xlink:href="helloByeProto_8hpp.html" target="_top" xlink:title="helloByeProto.hpp">
<polygon fill="none" stroke="#000000" points="1073.5,-224.5 1073.5,-243.5 1169.5,-243.5 1169.5,-224.5 1073.5,-224.5"/>
<text text-anchor="middle" x="1121.5" y="-231.5" font-family="Helvetica,sans-Serif" font-size="10.00" fill="#000000">helloByeProto.hpp</text>
</a>
</g>
</g>
<!-- Node1&#45;&gt;Node2 -->
<g id="edge2" class="edge">
<title>Node1&#45;&gt;Node2</title>
<path fill="none" stroke="#191970" d="M1215.9027,-280.3733C1197.7669,-271.4644 1170.5865,-258.1127 1150.0413,-248.0203"/>
<polygon fill="#191970" stroke="#191970" points="1151.3603,-244.7688 1140.8416,-243.5011 1148.2739,-251.0517 1151.3603,-244.7688"/>
</g>
<!-- Node1&#45;&gt;Node33 -->
<g id="edge60" class="edge">
<title>Node1&#45;&gt;Node33</title>
<path fill="none" stroke="#191970" d="M1250.3158,-280.4169C1288.2945,-255.8407 1392.2088,-188.5287 1478.5,-132 1504.9063,-114.7015 1535.1467,-94.7187 1555.3959,-81.3132"/>
<polygon fill="#191970" stroke="#191970" points="1557.5421,-84.0898 1563.9469,-75.65 1553.6769,-78.2537 1557.5421,-84.0898"/>
</g>
<!-- Node3 -->
<g id="node4" class="node">
<title>Node3</title>
<polygon fill="none" stroke="#bfbfbf" points="648.5,-56.5 648.5,-75.5 692.5,-75.5 692.5,-56.5 648.5,-56.5"/>
<text text-anchor="middle" x="670.5" y="-63.5" font-family="Helvetica,sans-Serif" font-size="10.00" fill="#000000">mutex</text>
</g>
<!-- Node2&#45;&gt;Node3 -->
<g id="edge3" class="edge">
<title>Node2&#45;&gt;Node3</title>
<path fill="none" stroke="#191970" d="M1095.9601,-224.4862C1018.6056,-195.6713 786.9979,-109.3961 702.1227,-77.7796"/>
<polygon fill="#191970" stroke="#191970" points="703.1124,-74.4134 692.5197,-74.2025 700.6689,-80.9731 703.1124,-74.4134"/>
</g>
<!-- Node4 -->
<g id="node5" class="node">
<title>Node4</title>
<g id="a_node5"><a xlink:href="common_8hpp.html" target="_top" xlink:title="common.hpp">
<polygon fill="none" stroke="#000000" points="711,-56.5 711,-75.5 784,-75.5 784,-56.5 711,-56.5"/>
<text text-anchor="middle" x="747.5" y="-63.5" font-family="Helvetica,sans-Serif" font-size="10.00" fill="#000000">common.hpp</text>
</a>
</g>
</g>
<!-- Node2&#45;&gt;Node4 -->
<g id="edge4" class="edge">
<title>Node2&#45;&gt;Node4</title>
<path fill="none" stroke="#191970" d="M1114.4208,-224.4692C1096.4503,-201.0415 1046.433,-140.4808 989.5,-112 913.0748,-73.7682 882.5071,-92.0055 794.0418,-75.9701"/>
<polygon fill="#191970" stroke="#191970" points="794.6153,-72.5164 784.1359,-74.0764 793.3008,-79.3919 794.6153,-72.5164"/>
</g>
<!-- Node2&#45;&gt;Node7 -->
<g id="edge7" class="edge">
<title>Node2&#45;&gt;Node7</title>
<path fill="none" stroke="#191970" d="M1075.8009,-224.4509C977.7,-203.9522 747.247,-155.7979 640.9718,-133.5911"/>
<polygon fill="#191970" stroke="#191970" points="641.5879,-130.1443 631.0834,-131.5249 640.1561,-136.9963 641.5879,-130.1443"/>
</g>
<!-- Node24 -->
<g id="node25" class="node">
<title>Node24</title>
<g id="a_node25"><a xlink:href="helloByeProto_8cpp.html" target="_top" xlink:title="../src/helloByeProto.cpp">
<polygon fill="none" stroke="#000000" points="1207.5,-168.5 1207.5,-187.5 1329.5,-187.5 1329.5,-168.5 1207.5,-168.5"/>
<text text-anchor="middle" x="1268.5" y="-175.5" font-family="Helvetica,sans-Serif" font-size="10.00" fill="#000000">../src/helloByeProto.cpp</text>
</a>
</g>
</g>
<!-- Node2&#45;&gt;Node24 -->
<g id="edge32" class="edge">
<title>Node2&#45;&gt;Node24</title>
<path fill="none" stroke="#191970" d="M1141.5282,-224.3733C1163.9545,-215.1419 1200.5252,-201.1402 1228.7455,-190.9375"/>
<polygon fill="#191970" stroke="#191970" points="1230.1075,-194.1674 1238.3423,-187.5011 1227.7477,-187.5772 1230.1075,-194.1674"/>
</g>
<!-- Node5 -->
<g id="node6" class="node">
<title>Node5</title>
<polygon fill="none" stroke="#bfbfbf" points="1217.5,-.5 1217.5,-19.5 1255.5,-19.5 1255.5,-.5 1217.5,-.5"/>
<text text-anchor="middle" x="1236.5" y="-7.5" font-family="Helvetica,sans-Serif" font-size="10.00" fill="#000000">array</text>
</g>
<!-- Node4&#45;&gt;Node5 -->
<g id="edge5" class="edge">
<title>Node4&#45;&gt;Node5</title>
<path fill="none" stroke="#191970" d="M784.0802,-57.6072C787.2568,-57.0123 790.4294,-56.465 793.5,-56 973.3324,-28.7666 1025.7805,-58.3803 1207.5284,-19.6907"/>
<polygon fill="#191970" stroke="#191970" points="1208.379,-23.0876 1217.4099,-17.5476 1206.8952,-16.2467 1208.379,-23.0876"/>
</g>
<!-- Node6 -->
<g id="node7" class="node">
<title>Node6</title>
<polygon fill="none" stroke="#bfbfbf" points="203,-.5 203,-19.5 252,-19.5 252,-.5 203,-.5"/>
<text text-anchor="middle" x="227.5" y="-7.5" font-family="Helvetica,sans-Serif" font-size="10.00" fill="#000000">cassert</text>
</g>
<!-- Node4&#45;&gt;Node6 -->
<g id="edge6" class="edge">
<title>Node4&#45;&gt;Node6</title>
<path fill="none" stroke="#191970" d="M710.9145,-57.6413C707.739,-57.039 704.5682,-56.4807 701.5,-56 538.2586,-30.4257 341.0176,-16.7472 262.3469,-11.9772"/>
<polygon fill="#191970" stroke="#191970" points="262.2396,-8.4646 252.0489,-11.3629 261.8227,-15.4522 262.2396,-8.4646"/>
</g>
<!-- Node7&#45;&gt;Node3 -->
<g id="edge15" class="edge">
<title>Node7&#45;&gt;Node3</title>
<path fill="none" stroke="#191970" d="M600.3059,-112.2455C613.2256,-103.7337 632.1931,-91.2375 647.1552,-81.3801"/>
<polygon fill="#191970" stroke="#191970" points="649.4387,-84.067 655.8638,-75.6427 645.5876,-78.2216 649.4387,-84.067"/>
</g>
<!-- Node7&#45;&gt;Node4 -->
<g id="edge26" class="edge">
<title>Node7&#45;&gt;Node4</title>
<path fill="none" stroke="#191970" d="M613.3488,-112.3733C640.1703,-103.1016 680.9127,-89.0178 710.4598,-78.804"/>
<polygon fill="#191970" stroke="#191970" points="711.7069,-82.0762 720.0146,-75.5011 709.4198,-75.4603 711.7069,-82.0762"/>
</g>
<!-- Node7&#45;&gt;Node6 -->
<g id="edge8" class="edge">
<title>Node7&#45;&gt;Node6</title>
<path fill="none" stroke="#191970" d="M538.2945,-118.4454C450.3218,-111.411 268.2106,-94.7624 246.5,-76 233.4159,-64.6926 229.0587,-45.0142 227.7397,-30.0787"/>
<polygon fill="#191970" stroke="#191970" points="231.221,-29.6132 227.2291,-19.7992 224.2296,-29.9605 231.221,-29.6132"/>
</g>
<!-- Node8 -->
<g id="node9" class="node">
<title>Node8</title>
<polygon fill="none" stroke="#bfbfbf" points="255.5,-56.5 255.5,-75.5 301.5,-75.5 301.5,-56.5 255.5,-56.5"/>
<text text-anchor="middle" x="278.5" y="-63.5" font-family="Helvetica,sans-Serif" font-size="10.00" fill="#000000">chrono</text>
</g>
<!-- Node7&#45;&gt;Node8 -->
<g id="edge9" class="edge">
<title>Node7&#45;&gt;Node8</title>
<path fill="none" stroke="#191970" d="M538.3956,-116.1235C485.3583,-109.0633 396.5026,-95.9043 311.611,-76.0209"/>
<polygon fill="#191970" stroke="#191970" points="312.3543,-72.6002 301.8159,-73.692 310.735,-79.4103 312.3543,-72.6002"/>
</g>
<!-- Node9 -->
<g id="node10" class="node">
<title>Node9</title>
<polygon fill="none" stroke="#bfbfbf" points="1153.5,-.5 1153.5,-19.5 1199.5,-19.5 1199.5,-.5 1153.5,-.5"/>
<text text-anchor="middle" x="1176.5" y="-7.5" font-family="Helvetica,sans-Serif" font-size="10.00" fill="#000000">cstdint</text>
</g>
<!-- Node7&#45;&gt;Node9 -->
<g id="edge10" class="edge">
<title>Node7&#45;&gt;Node9</title>
<path fill="none" stroke="#191970" d="M632.8265,-118.5278C721.4995,-111.6652 909.3126,-95.3421 971.5,-76 989.7241,-70.3318 991.7524,-63.0194 1009.5,-56 1054.611,-38.1581 1109.1797,-24.5367 1143.3752,-16.9013"/>
<polygon fill="#191970" stroke="#191970" points="1144.2818,-20.2858 1153.3005,-14.7258 1142.783,-13.4481 1144.2818,-20.2858"/>
</g>
<!-- Node10 -->
<g id="node11" class="node">
<title>Node10</title>
<polygon fill="none" stroke="#bfbfbf" points="802,-56.5 802,-75.5 861,-75.5 861,-56.5 802,-56.5"/>
<text text-anchor="middle" x="831.5" y="-63.5" font-family="Helvetica,sans-Serif" font-size="10.00" fill="#000000">functional</text>
</g>
<!-- Node7&#45;&gt;Node10 -->
<g id="edge11" class="edge">
<title>Node7&#45;&gt;Node10</title>
<path fill="none" stroke="#191970" d="M631.0645,-112.467C671.1416,-103.9599 731.2911,-90.897 791.9251,-76.3241"/>
<polygon fill="#191970" stroke="#191970" points="792.7592,-79.7234 801.6576,-73.9728 791.1153,-72.9192 792.7592,-79.7234"/>
</g>
<!-- Node11 -->
<g id="node12" class="node">
<title>Node11</title>
<polygon fill="none" stroke="#bfbfbf" points="1018.5,-56.5 1018.5,-75.5 1072.5,-75.5 1072.5,-56.5 1018.5,-56.5"/>
<text text-anchor="middle" x="1045.5" y="-63.5" font-family="Helvetica,sans-Serif" font-size="10.00" fill="#000000">iostream</text>
</g>
<!-- Node7&#45;&gt;Node11 -->
<g id="edge12" class="edge">
<title>Node7&#45;&gt;Node11</title>
<path fill="none" stroke="#191970" d="M632.5963,-118.8344C710.4339,-113.1547 870.6273,-99.5718 1004.5,-76 1005.7582,-75.7785 1007.0353,-75.5407 1008.3228,-75.29"/>
<polygon fill="#191970" stroke="#191970" points="1009.2093,-78.6796 1018.2572,-73.1674 1007.7466,-71.8341 1009.2093,-78.6796"/>
</g>
<!-- Node12 -->
<g id="node13" class="node">
<title>Node12</title>
<polygon fill="none" stroke="#bfbfbf" points="319.5,-56.5 319.5,-75.5 359.5,-75.5 359.5,-56.5 319.5,-56.5"/>
<text text-anchor="middle" x="339.5" y="-63.5" font-family="Helvetica,sans-Serif" font-size="10.00" fill="#000000">limits</text>
</g>
<!-- Node7&#45;&gt;Node12 -->
<g id="edge13" class="edge">
<title>Node7&#45;&gt;Node12</title>
<path fill="none" stroke="#191970" d="M538.1089,-113.6959C496.0336,-105.9335 432.7593,-93.3093 369.4319,-76.015"/>
<polygon fill="#191970" stroke="#191970" points="370.2531,-72.6108 359.6817,-73.3147 368.3848,-79.3568 370.2531,-72.6108"/>
</g>
<!-- Node13 -->
<g id="node14" class="node">
<title>Node13</title>
<polygon fill="none" stroke="#bfbfbf" points="377.5,-56.5 377.5,-75.5 429.5,-75.5 429.5,-56.5 377.5,-56.5"/>
<text text-anchor="middle" x="403.5" y="-63.5" font-family="Helvetica,sans-Serif" font-size="10.00" fill="#000000">memory</text>
</g>
<!-- Node7&#45;&gt;Node13 -->
<g id="edge14" class="edge">
<title>Node7&#45;&gt;Node13</title>
<path fill="none" stroke="#191970" d="M554.2131,-112.3733C522.3445,-102.5676 472.9829,-87.3793 439.5074,-77.0792"/>
<polygon fill="#191970" stroke="#191970" points="440.2526,-73.6466 429.6654,-74.0509 438.1939,-80.3371 440.2526,-73.6466"/>
</g>
<!-- Node14 -->
<g id="node15" class="node">
<title>Node14</title>
<polygon fill="none" stroke="#bfbfbf" points="448,-56.5 448,-75.5 491,-75.5 491,-56.5 448,-56.5"/>
<text text-anchor="middle" x="469.5" y="-63.5" font-family="Helvetica,sans-Serif" font-size="10.00" fill="#000000">queue</text>
</g>
<!-- Node7&#45;&gt;Node14 -->
<g id="edge16" class="edge">
<title>Node7&#45;&gt;Node14</title>
<path fill="none" stroke="#191970" d="M565.5589,-112.3733C547.0214,-103.4241 519.1972,-89.9917 498.2587,-79.8835"/>
<polygon fill="#191970" stroke="#191970" points="499.7081,-76.6967 489.1809,-75.5011 496.6648,-83.0006 499.7081,-76.6967"/>
</g>
<!-- Node15 -->
<g id="node16" class="node">
<title>Node15</title>
<polygon fill="none" stroke="#bfbfbf" points="741,-.5 741,-19.5 800,-19.5 800,-.5 741,-.5"/>
<text text-anchor="middle" x="770.5" y="-7.5" font-family="Helvetica,sans-Serif" font-size="10.00" fill="#000000">stdexcept</text>
</g>
<!-- Node7&#45;&gt;Node15 -->
<g id="edge17" class="edge">
<title>Node7&#45;&gt;Node15</title>
<path fill="none" stroke="#191970" d="M591.1823,-112.0475C599.8467,-97.7116 617.6785,-71.2963 639.5,-56 666.9783,-36.7383 703.3111,-24.8225 730.7419,-17.9593"/>
<polygon fill="#191970" stroke="#191970" points="731.8633,-21.2903 740.7821,-15.5715 730.2437,-14.4802 731.8633,-21.2903"/>
</g>
<!-- Node16 -->
<g id="node17" class="node">
<title>Node16</title>
<polygon fill="none" stroke="#bfbfbf" points="509,-56.5 509,-75.5 592,-75.5 592,-56.5 509,-56.5"/>
<text text-anchor="middle" x="550.5" y="-63.5" font-family="Helvetica,sans-Serif" font-size="10.00" fill="#000000">unordered_map</text>
</g>
<!-- Node7&#45;&gt;Node16 -->
<g id="edge18" class="edge">
<title>Node7&#45;&gt;Node16</title>
<path fill="none" stroke="#191970" d="M579.4035,-112.2455C574.5855,-104.5367 567.7249,-93.5598 561.8968,-84.2348"/>
<polygon fill="#191970" stroke="#191970" points="564.7947,-82.2677 556.5267,-75.6427 558.8587,-85.9777 564.7947,-82.2677"/>
</g>
<!-- Node17 -->
<g id="node18" class="node">
<title>Node17</title>
<polygon fill="none" stroke="#bfbfbf" points="79.5,-.5 79.5,-19.5 123.5,-19.5 123.5,-.5 79.5,-.5"/>
<text text-anchor="middle" x="101.5" y="-7.5" font-family="Helvetica,sans-Serif" font-size="10.00" fill="#000000">vector</text>
</g>
<!-- Node7&#45;&gt;Node17 -->
<g id="edge19" class="edge">
<title>Node7&#45;&gt;Node17</title>
<path fill="none" stroke="#191970" d="M538.1911,-120.3764C425.8279,-116.0961 149.9354,-102.9346 118.5,-76 105.4687,-64.8344 101.7463,-45.1371 100.9679,-30.1586"/>
<polygon fill="#191970" stroke="#191970" points="104.4638,-29.7999 100.841,-19.8438 97.4643,-29.8861 104.4638,-29.7999"/>
</g>
<!-- Node7&#45;&gt;Node18 -->
<g id="edge20" class="edge">
<title>Node7&#45;&gt;Node18</title>
<path fill="none" stroke="#191970" d="M538.3619,-117.3071C467.5917,-110.005 329.7777,-94.7903 213.5,-76 212.0526,-75.7661 210.5832,-75.5206 209.1007,-75.266"/>
<polygon fill="#191970" stroke="#191970" points="209.684,-71.8148 199.2208,-73.4797 208.4385,-78.7031 209.684,-71.8148"/>
</g>
<!-- Node20 -->
<g id="node21" class="node">
<title>Node20</title>
<g id="a_node21"><a xlink:href="exceptions_8hpp.html" target="_top" xlink:title="exceptions.hpp">
<polygon fill="none" stroke="#000000" points="879,-56.5 879,-75.5 962,-75.5 962,-56.5 879,-56.5"/>
<text text-anchor="middle" x="920.5" y="-63.5" font-family="Helvetica,sans-Serif" font-size="10.00" fill="#000000">exceptions.hpp</text>
</a>
</g>
</g>
<!-- Node7&#45;&gt;Node20 -->
<g id="edge27" class="edge">
<title>Node7&#45;&gt;Node20</title>
<path fill="none" stroke="#191970" d="M632.7434,-114.9278C687.3072,-106.6367 780.019,-92.172 868.8131,-76.2604"/>
<polygon fill="#191970" stroke="#191970" points="869.5592,-79.6824 878.7803,-74.4651 868.3182,-72.7933 869.5592,-79.6824"/>
</g>
<!-- Node22 -->
<g id="node23" class="node">
<title>Node22</title>
<g id="a_node23"><a xlink:href="spinlock_8hpp.html" target="_top" xlink:title="spinlock.hpp">
<polygon fill="none" stroke="#000000" points="0,-56.5 0,-75.5 71,-75.5 71,-56.5 0,-56.5"/>
<text text-anchor="middle" x="35.5" y="-63.5" font-family="Helvetica,sans-Serif" font-size="10.00" fill="#000000">spinlock.hpp</text>
</a>
</g>
</g>
<!-- Node7&#45;&gt;Node22 -->
<g id="edge30" class="edge">
<title>Node7&#45;&gt;Node22</title>
<path fill="none" stroke="#191970" d="M538.4296,-119.3336C449.5623,-113.9312 251.1245,-100.1123 85.5,-76 84.0491,-75.7888 82.5767,-75.563 81.0915,-75.3255"/>
<polygon fill="#191970" stroke="#191970" points="81.6497,-71.8702 71.1998,-73.6165 80.4579,-78.768 81.6497,-71.8702"/>
</g>
<!-- Node18&#45;&gt;Node6 -->
<g id="edge21" class="edge">
<title>Node18&#45;&gt;Node6</title>
<path fill="none" stroke="#191970" d="M174.6479,-56.2455C184.0087,-48.0549 197.5858,-36.1749 208.6349,-26.5069"/>
<polygon fill="#191970" stroke="#191970" points="211.2588,-28.8618 216.4798,-19.6427 206.6492,-23.5937 211.2588,-28.8618"/>
</g>
<!-- Node18&#45;&gt;Node9 -->
<g id="edge22" class="edge">
<title>Node18&#45;&gt;Node9</title>
<path fill="none" stroke="#191970" d="M199.3906,-61.0618C213.982,-59.2145 231.0213,-57.2607 246.5,-56 620.7131,-25.522 716.2245,-49.7024 1090.5,-20 1107.7878,-18.628 1126.9609,-16.4616 1142.8086,-14.4954"/>
<polygon fill="#191970" stroke="#191970" points="1143.705,-17.9098 1153.1847,-13.1784 1142.8235,-10.9655 1143.705,-17.9098"/>
</g>
<!-- Node18&#45;&gt;Node15 -->
<g id="edge23" class="edge">
<title>Node18&#45;&gt;Node15</title>
<path fill="none" stroke="#191970" d="M199.0148,-61.4651C213.7009,-59.6565 230.9092,-57.6231 246.5,-56 427.176,-37.1904 643.4391,-19.8391 730.9048,-13.036"/>
<polygon fill="#191970" stroke="#191970" points="731.2224,-16.522 740.9218,-12.2593 730.6812,-9.543 731.2224,-16.522"/>
</g>
<!-- Node18&#45;&gt;Node17 -->
<g id="edge25" class="edge">
<title>Node18&#45;&gt;Node17</title>
<path fill="none" stroke="#191970" d="M152.7004,-56.2455C143.6322,-48.0549 130.4794,-36.1749 119.7755,-26.5069"/>
<polygon fill="#191970" stroke="#191970" points="121.9429,-23.7482 112.1758,-19.6427 117.2509,-28.9429 121.9429,-23.7482"/>
</g>
<!-- Node19 -->
<g id="node20" class="node">
<title>Node19</title>
<polygon fill="none" stroke="#bfbfbf" points="143.5,-.5 143.5,-19.5 183.5,-19.5 183.5,-.5 143.5,-.5"/>
<text text-anchor="middle" x="163.5" y="-7.5" font-family="Helvetica,sans-Serif" font-size="10.00" fill="#000000">utility</text>
</g>
<!-- Node18&#45;&gt;Node19 -->
<g id="edge24" class="edge">
<title>Node18&#45;&gt;Node19</title>
<path fill="none" stroke="#191970" d="M163.5,-56.2455C163.5,-48.9382 163.5,-38.6944 163.5,-29.7046"/>
<polygon fill="#191970" stroke="#191970" points="167.0001,-29.6426 163.5,-19.6427 160.0001,-29.6427 167.0001,-29.6426"/>
</g>
<!-- Node20&#45;&gt;Node15 -->
<g id="edge29" class="edge">
<title>Node20&#45;&gt;Node15</title>
<path fill="none" stroke="#191970" d="M894.7141,-56.3733C870.0953,-47.1822 832.81,-33.2624 805.5125,-23.0713"/>
<polygon fill="#191970" stroke="#191970" points="806.542,-19.7198 795.9494,-19.5011 804.0937,-26.2777 806.542,-19.7198"/>
</g>
<!-- Node21 -->
<g id="node22" class="node">
<title>Node21</title>
<polygon fill="none" stroke="#bfbfbf" points="1022,-.5 1022,-19.5 1081,-19.5 1081,-.5 1022,-.5"/>
<text text-anchor="middle" x="1051.5" y="-7.5" font-family="Helvetica,sans-Serif" font-size="10.00" fill="#000000">exception</text>
</g>
<!-- Node20&#45;&gt;Node21 -->
<g id="edge28" class="edge">
<title>Node20&#45;&gt;Node21</title>
<path fill="none" stroke="#191970" d="M943.0197,-56.3733C964.2372,-47.3032 996.2276,-33.6279 1019.9769,-23.4755"/>
<polygon fill="#191970" stroke="#191970" points="1021.4548,-26.6502 1029.2742,-19.5011 1018.7033,-20.2136 1021.4548,-26.6502"/>
</g>
<!-- Node23 -->
<g id="node24" class="node">
<title>Node23</title>
<polygon fill="none" stroke="#bfbfbf" points="12.5,-.5 12.5,-19.5 58.5,-19.5 58.5,-.5 12.5,-.5"/>
<text text-anchor="middle" x="35.5" y="-7.5" font-family="Helvetica,sans-Serif" font-size="10.00" fill="#000000">atomic</text>
</g>
<!-- Node22&#45;&gt;Node23 -->
<g id="edge31" class="edge">
<title>Node22&#45;&gt;Node23</title>
<path fill="none" stroke="#191970" d="M35.5,-56.2455C35.5,-48.9382 35.5,-38.6944 35.5,-29.7046"/>
<polygon fill="#191970" stroke="#191970" points="39.0001,-29.6426 35.5,-19.6427 32.0001,-29.6427 39.0001,-29.6426"/>
</g>
<!-- Node24&#45;&gt;Node2 -->
<g id="edge53" class="edge">
<title>Node24&#45;&gt;Node2</title>
<path fill="none" stroke="#191970" d="M1248.7768,-187.5011C1226.4796,-196.6889 1189.9358,-210.686 1161.6399,-220.9231"/>
<polygon fill="#191970" stroke="#191970" points="1160.2453,-217.7049 1152.0122,-224.3733 1162.6068,-224.2946 1160.2453,-217.7049"/>
</g>
<!-- Node25 -->
<g id="node26" class="node">
<title>Node25</title>
<polygon fill="none" stroke="#bfbfbf" points="1281,-56.5 1281,-75.5 1326,-75.5 1326,-56.5 1281,-56.5"/>
<text text-anchor="middle" x="1303.5" y="-63.5" font-family="Helvetica,sans-Serif" font-size="10.00" fill="#000000">cstdlib</text>
</g>
<!-- Node24&#45;&gt;Node25 -->
<g id="edge33" class="edge">
<title>Node24&#45;&gt;Node25</title>
<path fill="none" stroke="#191970" d="M1273.3338,-168.3357C1277.7669,-159.1666 1284.2679,-144.9089 1288.5,-132 1293.5334,-116.647 1297.4871,-98.7464 1300.0689,-85.464"/>
<polygon fill="#191970" stroke="#191970" points="1303.5252,-86.021 1301.9085,-75.5503 1296.6427,-84.7438 1303.5252,-86.021"/>
</g>
<!-- Node26 -->
<g id="node27" class="node">
<title>Node26</title>
<polygon fill="none" stroke="#bfbfbf" points="1477.5,-.5 1477.5,-19.5 1529.5,-19.5 1529.5,-.5 1477.5,-.5"/>
<text text-anchor="middle" x="1503.5" y="-7.5" font-family="Helvetica,sans-Serif" font-size="10.00" fill="#000000">sstream</text>
</g>
<!-- Node24&#45;&gt;Node26 -->
<g id="edge34" class="edge">
<title>Node24&#45;&gt;Node26</title>
<path fill="none" stroke="#191970" d="M1287.6203,-168.3791C1313.6845,-155.327 1361.8889,-131.4106 1403.5,-112 1439.2021,-95.3458 1458.629,-105.7101 1484.5,-76 1495.6215,-63.2282 1500.2508,-44.3125 1502.1685,-30.0017"/>
<polygon fill="#191970" stroke="#191970" points="1505.6844,-30.016 1503.1972,-19.7172 1498.7192,-29.3192 1505.6844,-30.016"/>
</g>
<!-- Node24&#45;&gt;Node27 -->
<g id="edge35" class="edge">
<title>Node24&#45;&gt;Node27</title>
<path fill="none" stroke="#191970" d="M1239.9636,-168.3733C1212.4798,-159.1016 1170.7314,-145.0178 1140.4548,-134.804"/>
<polygon fill="#191970" stroke="#191970" points="1141.2582,-131.3813 1130.664,-131.5011 1139.0206,-138.0141 1141.2582,-131.3813"/>
</g>
<!-- Node24&#45;&gt;Node29 -->
<g id="edge52" class="edge">
<title>Node24&#45;&gt;Node29</title>
<path fill="none" stroke="#191970" d="M1281.2037,-168.4509C1306.9348,-149.1094 1365.4211,-105.1465 1396.7592,-81.5904"/>
<polygon fill="#191970" stroke="#191970" points="1398.9379,-84.3313 1404.8285,-75.5249 1394.7319,-78.7358 1398.9379,-84.3313"/>
</g>
<!-- Node24&#45;&gt;Node32 -->
<g id="edge54" class="edge">
<title>Node24&#45;&gt;Node32</title>
<path fill="none" stroke="#191970" d="M1298.0679,-168.3733C1326.8422,-159.0049 1370.7068,-144.7234 1402.1515,-134.4856"/>
<polygon fill="#191970" stroke="#191970" points="1403.4644,-137.739 1411.8895,-131.315 1401.2972,-131.0829 1403.4644,-137.739"/>
</g>
<!-- Node34 -->
<g id="node35" class="node">
<title>Node34</title>
<g id="a_node35"><a xlink:href="samplePacket_8hpp.html" target="_top" xlink:title="samplePacket.hpp">
<polygon fill="none" stroke="#000000" points="1181.5,-112.5 1181.5,-131.5 1279.5,-131.5 1279.5,-112.5 1181.5,-112.5"/>
<text text-anchor="middle" x="1230.5" y="-119.5" font-family="Helvetica,sans-Serif" font-size="10.00" fill="#000000">samplePacket.hpp</text>
</a>
</g>
</g>
<!-- Node24&#45;&gt;Node34 -->
<g id="edge57" class="edge">
<title>Node24&#45;&gt;Node34</title>
<path fill="none" stroke="#191970" d="M1261.8809,-168.2455C1256.5954,-160.4564 1249.0459,-149.3308 1242.6762,-139.9439"/>
<polygon fill="#191970" stroke="#191970" points="1245.5545,-137.9522 1237.0432,-131.6427 1239.7621,-141.8827 1245.5545,-137.9522"/>
</g>
<!-- Node27&#45;&gt;Node4 -->
<g id="edge43" class="edge">
<title>Node27&#45;&gt;Node4</title>
<path fill="none" stroke="#191970" d="M1041.3302,-113.3849C969.5703,-103.1972 853.8386,-86.4952 794.2238,-76.0078"/>
<polygon fill="#191970" stroke="#191970" points="794.5762,-72.5151 784.1144,-74.1887 793.3364,-79.4044 794.5762,-72.5151"/>
</g>
<!-- Node27&#45;&gt;Node9 -->
<g id="edge36" class="edge">
<title>Node27&#45;&gt;Node9</title>
<path fill="none" stroke="#191970" d="M1108.8092,-112.4509C1121.1515,-93.7707 1148.6682,-52.1238 1164.5568,-28.0761"/>
<polygon fill="#191970" stroke="#191970" points="1167.6143,-29.7977 1170.2068,-19.5249 1161.774,-25.9388 1167.6143,-29.7977"/>
</g>
<!-- Node27&#45;&gt;Node10 -->
<g id="edge38" class="edge">
<title>Node27&#45;&gt;Node10</title>
<path fill="none" stroke="#191970" d="M1050.2659,-112.4971C1005.34,-104.1306 938.5831,-91.241 871.2114,-76.0685"/>
<polygon fill="#191970" stroke="#191970" points="871.7959,-72.6123 861.2694,-73.8137 870.2476,-79.4389 871.7959,-72.6123"/>
</g>
<!-- Node27&#45;&gt;Node11 -->
<g id="edge39" class="edge">
<title>Node27&#45;&gt;Node11</title>
<path fill="none" stroke="#191970" d="M1092.5714,-112.2455C1084.3162,-104.1352 1072.3791,-92.4075 1062.5918,-82.7919"/>
<polygon fill="#191970" stroke="#191970" points="1064.9011,-80.1542 1055.3149,-75.6427 1059.9954,-85.1476 1064.9011,-80.1542"/>
</g>
<!-- Node27&#45;&gt;Node15 -->
<g id="edge41" class="edge">
<title>Node27&#45;&gt;Node15</title>
<path fill="none" stroke="#191970" d="M1102.4291,-112.198C1101.7516,-97.5554 1098.1703,-70.1784 1081.5,-56 1041.3772,-21.8748 884.9757,-13.0587 810.4357,-10.7863"/>
<polygon fill="#191970" stroke="#191970" points="810.1494,-7.277 800.0555,-10.4963 809.9538,-14.2743 810.1494,-7.277"/>
</g>
<!-- Node27&#45;&gt;Node20 -->
<g id="edge51" class="edge">
<title>Node27&#45;&gt;Node20</title>
<path fill="none" stroke="#191970" d="M1071.2131,-112.3733C1040.8182,-103.021 994.5107,-88.7725 961.25,-78.5385"/>
<polygon fill="#191970" stroke="#191970" points="961.9658,-75.0968 951.3786,-75.5011 959.9071,-81.7873 961.9658,-75.0968"/>
</g>
<!-- Node27&#45;&gt;Node21 -->
<g id="edge37" class="edge">
<title>Node27&#45;&gt;Node21</title>
<path fill="none" stroke="#191970" d="M1107.7782,-112.4997C1114.4202,-99.1707 1123.8895,-74.4819 1114.5,-56 1107.639,-42.4951 1094.7468,-32.0099 1082.4034,-24.4839"/>
<polygon fill="#191970" stroke="#191970" points="1084.0367,-21.3868 1073.6066,-19.5258 1080.5997,-27.4849 1084.0367,-21.3868"/>
</g>
<!-- Node27&#45;&gt;Node26 -->
<g id="edge40" class="edge">
<title>Node27&#45;&gt;Node26</title>
<path fill="none" stroke="#191970" d="M1163.5744,-113.2092C1166.5917,-112.7956 1169.5797,-112.3904 1172.5,-112 1236.6478,-103.4234 1406.8047,-110.5966 1461.5,-76 1478.6599,-65.1458 1490.1012,-44.4605 1496.6508,-29.1282"/>
<polygon fill="#191970" stroke="#191970" points="1500.0127,-30.1425 1500.4138,-19.5553 1493.498,-27.5816 1500.0127,-30.1425"/>
</g>
<!-- Node28 -->
<g id="node29" class="node">
<title>Node28</title>
<polygon fill="none" stroke="#bfbfbf" points="1274,-.5 1274,-19.5 1315,-19.5 1315,-.5 1274,-.5"/>
<text text-anchor="middle" x="1294.5" y="-7.5" font-family="Helvetica,sans-Serif" font-size="10.00" fill="#000000">string</text>
</g>
<!-- Node27&#45;&gt;Node28 -->
<g id="edge42" class="edge">
<title>Node27&#45;&gt;Node28</title>
<path fill="none" stroke="#191970" d="M1118.8698,-112.4509C1152.4518,-92.8615 1229.331,-48.0152 1269.3094,-24.6945"/>
<polygon fill="#191970" stroke="#191970" points="1271.2974,-27.5869 1278.1716,-19.5249 1267.7703,-21.5404 1271.2974,-27.5869"/>
</g>
<!-- Node27&#45;&gt;Node29 -->
<g id="edge44" class="edge">
<title>Node27&#45;&gt;Node29</title>
<path fill="none" stroke="#191970" d="M1156.2925,-112.4369C1217.1679,-101.6146 1315.2525,-84.1773 1372.3213,-74.0318"/>
<polygon fill="#191970" stroke="#191970" points="1373.2487,-77.4219 1382.4817,-72.2255 1372.0234,-70.5299 1373.2487,-77.4219"/>
</g>
<!-- Node29&#45;&gt;Node5 -->
<g id="edge45" class="edge">
<title>Node29&#45;&gt;Node5</title>
<path fill="none" stroke="#191970" d="M1384.772,-56.4882C1353.9131,-47.4269 1306.4213,-33.2421 1265.5,-20 1265.4018,-19.9682 1265.3035,-19.9364 1265.205,-19.9044"/>
<polygon fill="#191970" stroke="#191970" points="1266.4023,-16.6143 1255.8086,-16.773 1264.1891,-23.2552 1266.4023,-16.6143"/>
</g>
<!-- Node29&#45;&gt;Node9 -->
<g id="edge46" class="edge">
<title>Node29&#45;&gt;Node9</title>
<path fill="none" stroke="#191970" d="M1382.1426,-58.6042C1335.1742,-48.7183 1253.793,-31.3617 1209.2163,-19.9908"/>
<polygon fill="#191970" stroke="#191970" points="1210.0633,-16.5946 1199.503,-17.4488 1208.2911,-23.3666 1210.0633,-16.5946"/>
</g>
<!-- Node29&#45;&gt;Node26 -->
<g id="edge48" class="edge">
<title>Node29&#45;&gt;Node26</title>
<path fill="none" stroke="#191970" d="M1432.4801,-56.2455C1445.6751,-47.6534 1465.1051,-35.0014 1480.3079,-25.1018"/>
<polygon fill="#191970" stroke="#191970" points="1482.2215,-28.0325 1488.6916,-19.6427 1478.4017,-22.1665 1482.2215,-28.0325"/>
</g>
<!-- Node29&#45;&gt;Node28 -->
<g id="edge49" class="edge">
<title>Node29&#45;&gt;Node28</title>
<path fill="none" stroke="#191970" d="M1396.3555,-56.3733C1376.6108,-47.3838 1346.9302,-33.8706 1324.6945,-23.7471"/>
<polygon fill="#191970" stroke="#191970" points="1325.92,-20.4594 1315.3685,-19.5011 1323.0194,-26.8302 1325.92,-20.4594"/>
</g>
<!-- Node30 -->
<g id="node31" class="node">
<title>Node30</title>
<polygon fill="none" stroke="#bfbfbf" points="1333.5,-.5 1333.5,-19.5 1379.5,-19.5 1379.5,-.5 1333.5,-.5"/>
<text text-anchor="middle" x="1356.5" y="-7.5" font-family="Helvetica,sans-Serif" font-size="10.00" fill="#000000">cstring</text>
</g>
<!-- Node29&#45;&gt;Node30 -->
<g id="edge47" class="edge">
<title>Node29&#45;&gt;Node30</title>
<path fill="none" stroke="#191970" d="M1406.8746,-56.2455C1397.9527,-48.0549 1385.012,-36.1749 1374.4808,-26.5069"/>
<polygon fill="#191970" stroke="#191970" points="1376.7371,-23.8271 1367.0036,-19.6427 1372.0032,-28.9837 1376.7371,-23.8271"/>
</g>
<!-- Node31 -->
<g id="node32" class="node">
<title>Node31</title>
<polygon fill="none" stroke="#bfbfbf" points="1397.5,-.5 1397.5,-19.5 1459.5,-19.5 1459.5,-.5 1397.5,-.5"/>
<text text-anchor="middle" x="1428.5" y="-7.5" font-family="Helvetica,sans-Serif" font-size="10.00" fill="#000000">arpa/inet.h</text>
</g>
<!-- Node29&#45;&gt;Node31 -->
<g id="edge50" class="edge">
<title>Node29&#45;&gt;Node31</title>
<path fill="none" stroke="#191970" d="M1419.4161,-56.2455C1420.8514,-48.9382 1422.8636,-38.6944 1424.6295,-29.7046"/>
<polygon fill="#191970" stroke="#191970" points="1428.1127,-30.1298 1426.6059,-19.6427 1421.244,-28.7805 1428.1127,-30.1298"/>
</g>
<!-- Node32&#45;&gt;Node9 -->
<g id="edge55" class="edge">
<title>Node32&#45;&gt;Node9</title>
<path fill="none" stroke="#191970" d="M1426.1244,-112.2454C1401.9506,-95.9657 1353.9912,-64.2286 1335.5,-56 1284.7259,-33.4054 1266.6386,-36.3447 1209.4726,-20.1703"/>
<polygon fill="#191970" stroke="#191970" points="1210.1292,-16.7162 1199.5496,-17.2835 1208.1738,-23.4376 1210.1292,-16.7162"/>
</g>
<!-- Node32&#45;&gt;Node33 -->
<g id="edge56" class="edge">
<title>Node32&#45;&gt;Node33</title>
<path fill="none" stroke="#191970" d="M1464.223,-112.3733C1486.6737,-103.2629 1520.5739,-89.5062 1545.6255,-79.3404"/>
<polygon fill="#191970" stroke="#191970" points="1547.1365,-82.5045 1555.0865,-75.5011 1544.5043,-76.0182 1547.1365,-82.5045"/>
</g>
<!-- Node34&#45;&gt;Node9 -->
<g id="edge58" class="edge">
<title>Node34&#45;&gt;Node9</title>
<path fill="none" stroke="#191970" d="M1225.896,-112.4509C1216.9691,-93.936 1197.1642,-52.8591 1185.5251,-28.7187"/>
<polygon fill="#191970" stroke="#191970" points="1188.5881,-27.0125 1181.0924,-19.5249 1182.2827,-30.0527 1188.5881,-27.0125"/>
</g>
<!-- Node34&#45;&gt;Node25 -->
<g id="edge59" class="edge">
<title>Node34&#45;&gt;Node25</title>
<path fill="none" stroke="#191970" d="M1243.2156,-112.2455C1254.102,-103.8943 1269.9883,-91.7076 1282.72,-81.9408"/>
<polygon fill="#191970" stroke="#191970" points="1285.1261,-84.5063 1290.9301,-75.6427 1280.8654,-78.9523 1285.1261,-84.5063"/>
</g>
</g>
</svg>
