<?xml version="1.0" encoding="UTF-8" standalone="no"?>
<!DOCTYPE svg PUBLIC "-//W3C//DTD SVG 1.1//EN"
 "http://www.w3.org/Graphics/SVG/1.1/DTD/svg11.dtd">
<!-- Generated by graphviz version 2.40.1 (20161225.0304)
 -->
<!-- Title: /home/dominik/uni/MoonState/include/helloByeProto.hpp Pages: 1 -->
<svg width="485pt" height="173pt"
 viewBox="0.00 0.00 485.00 173.00" xmlns="http://www.w3.org/2000/svg" xmlns:xlink="http://www.w3.org/1999/xlink">
<g id="graph0" class="graph" transform="scale(1 1) rotate(0) translate(4 169)">
<title>/home/dominik/uni/MoonState/include/helloByeProto.hpp</title>
<!-- Node33 -->
<g id="node1" class="node">
<title>Node33</title>
<polygon fill="#bfbfbf" stroke="#000000" points="165,-134.5 165,-164.5 312,-164.5 312,-134.5 165,-134.5"/>
<text text-anchor="start" x="173" y="-152.5" font-family="Helvetica,sans-Serif" font-size="10.00" fill="#000000">/home/dominik/uni/MoonState</text>
<text text-anchor="middle" x="238.5" y="-141.5" font-family="Helvetica,sans-Serif" font-size="10.00" fill="#000000">/include/helloByeProto.hpp</text>
</g>
<!-- Node34 -->
<g id="node2" class="node">
<title>Node34</title>
<g id="a_node2"><a xlink:href="helloBye__C_8hpp.html" target="_top" xlink:title="/home/dominik/uni/MoonState\l/include/helloBye_C.hpp">
<polygon fill="none" stroke="#000000" points="0,-67.5 0,-97.5 147,-97.5 147,-67.5 0,-67.5"/>
<text text-anchor="start" x="8" y="-85.5" font-family="Helvetica,sans-Serif" font-size="10.00" fill="#000000">/home/dominik/uni/MoonState</text>
<text text-anchor="middle" x="73.5" y="-74.5" font-family="Helvetica,sans-Serif" font-size="10.00" fill="#000000">/include/helloBye_C.hpp</text>
</a>
</g>
</g>
<!-- Node33&#45;&gt;Node34 -->
<g id="edge1" class="edge">
<title>Node33&#45;&gt;Node34</title>
<path fill="none" stroke="#191970" d="M191.9298,-130.5897C166.2245,-120.1518 134.7358,-107.3654 110.6907,-97.6017"/>
<polygon fill="#191970" stroke="#191970" points="190.8887,-133.9444 201.4708,-134.4639 193.5223,-127.4587 190.8887,-133.9444"/>
</g>
<!-- Node36 -->
<g id="node4" class="node">
<title>Node36</title>
<g id="a_node4"><a xlink:href="helloByeProto_8cpp.html" target="_top" xlink:title="/home/dominik/uni/MoonState\l/src/helloByeProto.cpp">
<polygon fill="none" stroke="#000000" points="165,-67.5 165,-97.5 312,-97.5 312,-67.5 165,-67.5"/>
<text text-anchor="start" x="173" y="-85.5" font-family="Helvetica,sans-Serif" font-size="10.00" fill="#000000">/home/dominik/uni/MoonState</text>
<text text-anchor="middle" x="238.5" y="-74.5" font-family="Helvetica,sans-Serif" font-size="10.00" fill="#000000">/src/helloByeProto.cpp</text>
</a>
</g>
</g>
<!-- Node33&#45;&gt;Node36 -->
<g id="edge3" class="edge">
<title>Node33&#45;&gt;Node36</title>
<path fill="none" stroke="#191970" d="M231.9384,-124.3179C231.5239,-115.3414 231.7933,-105.5143 232.7464,-97.6432"/>
<polygon fill="#191970" stroke="#191970" points="228.4504,-124.6087 232.7392,-134.2967 235.428,-124.0487 228.4504,-124.6087"/>
</g>
<!-- Node37 -->
<g id="node5" class="node">
<title>Node37</title>
<g id="a_node5"><a xlink:href="helloByeProtoStatic_8cpp.html" target="_top" xlink:title="/home/dominik/uni/MoonState\l/src/helloByeProtoStatic.cpp">
<polygon fill="none" stroke="#000000" points="330,-67.5 330,-97.5 477,-97.5 477,-67.5 330,-67.5"/>
<text text-anchor="start" x="338" y="-85.5" font-family="Helvetica,sans-Serif" font-size="10.00" fill="#000000">/home/dominik/uni/MoonState</text>
<text text-anchor="middle" x="403.5" y="-74.5" font-family="Helvetica,sans-Serif" font-size="10.00" fill="#000000">/src/helloByeProtoStatic.cpp</text>
</a>
</g>
</g>
<!-- Node33&#45;&gt;Node37 -->
<g id="edge5" class="edge">
<title>Node33&#45;&gt;Node37</title>
<path fill="none" stroke="#191970" d="M285.0702,-130.5897C310.7755,-120.1518 342.2642,-107.3654 366.3093,-97.6017"/>
<polygon fill="#191970" stroke="#191970" points="283.4777,-127.4587 275.5292,-134.4639 286.1113,-133.9444 283.4777,-127.4587"/>
</g>
<!-- Node35 -->
<g id="node3" class="node">
<title>Node35</title>
<g id="a_node3"><a xlink:href="helloBye__C_8cpp.html" target="_top" xlink:title="/home/dominik/uni/MoonState\l/src/helloBye_C.cpp">
<polygon fill="none" stroke="#000000" points="0,-.5 0,-30.5 147,-30.5 147,-.5 0,-.5"/>
<text text-anchor="start" x="8" y="-18.5" font-family="Helvetica,sans-Serif" font-size="10.00" fill="#000000">/home/dominik/uni/MoonState</text>
<text text-anchor="middle" x="73.5" y="-7.5" font-family="Helvetica,sans-Serif" font-size="10.00" fill="#000000">/src/helloBye_C.cpp</text>
</a>
</g>
</g>
<!-- Node34&#45;&gt;Node35 -->
<g id="edge2" class="edge">
<title>Node34&#45;&gt;Node35</title>
<path fill="none" stroke="#191970" d="M73.5,-57.0249C73.5,-48.128 73.5,-38.4287 73.5,-30.6432"/>
<polygon fill="#191970" stroke="#191970" points="70.0001,-57.2966 73.5,-67.2967 77.0001,-57.2967 70.0001,-57.2966"/>
</g>
<!-- Node36&#45;&gt;Node33 -->
<g id="edge4" class="edge">
<title>Node36&#45;&gt;Node33</title>
<path fill="none" stroke="#191970" d="M245.0584,-107.6135C245.4764,-116.5857 245.2105,-126.4156 244.2608,-134.2967"/>
<polygon fill="#191970" stroke="#191970" points="248.5469,-107.3291 244.2536,-97.6432 241.5696,-107.8924 248.5469,-107.3291"/>
</g>
</g>
</svg>
