<?xml version="1.0" encoding="UTF-8" standalone="no"?>
<!DOCTYPE svg PUBLIC "-//W3C//DTD SVG 1.1//EN"
 "http://www.w3.org/Graphics/SVG/1.1/DTD/svg11.dtd">
<!-- Generated by graphviz version 2.40.1 (20161225.0304)
 -->
<!-- Title: /home/dominik/uni/MoonState/include/helloBye_C.hpp Pages: 1 -->
<svg width="1595pt" height="319pt"
 viewBox="0.00 0.00 1595.08 319.00" xmlns="http://www.w3.org/2000/svg" xmlns:xlink="http://www.w3.org/1999/xlink">
<g id="graph0" class="graph" transform="scale(1 1) rotate(0) translate(4 315)">
<title>/home/dominik/uni/MoonState/include/helloBye_C.hpp</title>
<!-- Node0 -->
<g id="node1" class="node">
<title>Node0</title>
<polygon fill="#bfbfbf" stroke="#000000" points="1196,-280.5 1196,-310.5 1343,-310.5 1343,-280.5 1196,-280.5"/>
<text text-anchor="start" x="1204" y="-298.5" font-family="Helvetica,sans-Serif" font-size="10.00" fill="#000000">/home/dominik/uni/MoonState</text>
<text text-anchor="middle" x="1269.5" y="-287.5" font-family="Helvetica,sans-Serif" font-size="10.00" fill="#000000">/include/helloBye_C.hpp</text>
</g>
<!-- Node1 -->
<g id="node2" class="node">
<title>Node1</title>
<g id="a_node2"><a xlink:href="helloByeProto_8hpp.html" target="_top" xlink:title="helloByeProto.hpp">
<polygon fill="none" stroke="#000000" points="1008.5,-224.5 1008.5,-243.5 1104.5,-243.5 1104.5,-224.5 1008.5,-224.5"/>
<text text-anchor="middle" x="1056.5" y="-231.5" font-family="Helvetica,sans-Serif" font-size="10.00" fill="#000000">helloByeProto.hpp</text>
</a>
</g>
</g>
<!-- Node0&#45;&gt;Node1 -->
<g id="edge1" class="edge">
<title>Node0&#45;&gt;Node1</title>
<path fill="none" stroke="#191970" d="M1217.3943,-280.4554C1181.0754,-269.9689 1133.2197,-256.1515 1099.1646,-246.3187"/>
<polygon fill="#191970" stroke="#191970" points="1100.0859,-242.9418 1089.5074,-243.5303 1098.1441,-249.667 1100.0859,-242.9418"/>
</g>
<!-- Node32 -->
<g id="node33" class="node">
<title>Node32</title>
<polygon fill="none" stroke="#bfbfbf" points="1510,-56.5 1510,-75.5 1573,-75.5 1573,-56.5 1510,-56.5"/>
<text text-anchor="middle" x="1541.5" y="-63.5" font-family="Helvetica,sans-Serif" font-size="10.00" fill="#000000">rte_mbuf.h</text>
</g>
<!-- Node0&#45;&gt;Node32 -->
<g id="edge59" class="edge">
<title>Node0&#45;&gt;Node32</title>
<path fill="none" stroke="#191970" d="M1287.3467,-280.4419C1336.1707,-239.2466 1471.6595,-124.9279 1522.1802,-82.3011"/>
<polygon fill="#191970" stroke="#191970" points="1524.676,-84.7747 1530.0619,-75.6509 1520.1619,-79.4246 1524.676,-84.7747"/>
</g>
<!-- Node2 -->
<g id="node3" class="node">
<title>Node2</title>
<polygon fill="none" stroke="#bfbfbf" points="686.5,-56.5 686.5,-75.5 730.5,-75.5 730.5,-56.5 686.5,-56.5"/>
<text text-anchor="middle" x="708.5" y="-63.5" font-family="Helvetica,sans-Serif" font-size="10.00" fill="#000000">mutex</text>
</g>
<!-- Node1&#45;&gt;Node2 -->
<g id="edge2" class="edge">
<title>Node1&#45;&gt;Node2</title>
<path fill="none" stroke="#191970" d="M1036.7929,-224.4862C978.5493,-196.3686 806.9727,-113.5385 737.8514,-80.1696"/>
<polygon fill="#191970" stroke="#191970" points="738.9494,-76.8133 728.4223,-75.6177 735.9062,-83.1171 738.9494,-76.8133"/>
</g>
<!-- Node3 -->
<g id="node4" class="node">
<title>Node3</title>
<g id="a_node4"><a xlink:href="common_8hpp.html" target="_top" xlink:title="common.hpp">
<polygon fill="none" stroke="#000000" points="850,-56.5 850,-75.5 923,-75.5 923,-56.5 850,-56.5"/>
<text text-anchor="middle" x="886.5" y="-63.5" font-family="Helvetica,sans-Serif" font-size="10.00" fill="#000000">common.hpp</text>
</a>
</g>
</g>
<!-- Node1&#45;&gt;Node3 -->
<g id="edge3" class="edge">
<title>Node1&#45;&gt;Node3</title>
<path fill="none" stroke="#191970" d="M1044.9883,-224.2646C1024.251,-206.5656 979.519,-167.6455 944.5,-132 929.066,-116.2899 912.5932,-97.3079 901.1622,-83.7413"/>
<polygon fill="#191970" stroke="#191970" points="903.538,-81.1261 894.44,-75.6969 898.1665,-85.6147 903.538,-81.1261"/>
</g>
<!-- Node6 -->
<g id="node7" class="node">
<title>Node6</title>
<g id="a_node7"><a xlink:href="stateMachine_8hpp.html" target="_top" xlink:title="stateMachine.hpp">
<polygon fill="none" stroke="#000000" points="509.5,-112.5 509.5,-131.5 603.5,-131.5 603.5,-112.5 509.5,-112.5"/>
<text text-anchor="middle" x="556.5" y="-119.5" font-family="Helvetica,sans-Serif" font-size="10.00" fill="#000000">stateMachine.hpp</text>
</a>
</g>
</g>
<!-- Node1&#45;&gt;Node6 -->
<g id="edge6" class="edge">
<title>Node1&#45;&gt;Node6</title>
<path fill="none" stroke="#191970" d="M1008.4665,-227.7413C953.3115,-220.145 860.2914,-206.0777 781.5,-188 714.9179,-172.7236 638.9465,-149.1155 594.5044,-134.6627"/>
<polygon fill="#191970" stroke="#191970" points="595.5722,-131.3295 584.9797,-131.5481 593.3966,-137.9829 595.5722,-131.3295"/>
</g>
<!-- Node23 -->
<g id="node24" class="node">
<title>Node23</title>
<g id="a_node24"><a xlink:href="helloByeProto_8cpp.html" target="_top" xlink:title="../src/helloByeProto.cpp">
<polygon fill="none" stroke="#000000" points="1089.5,-168.5 1089.5,-187.5 1211.5,-187.5 1211.5,-168.5 1089.5,-168.5"/>
<text text-anchor="middle" x="1150.5" y="-175.5" font-family="Helvetica,sans-Serif" font-size="10.00" fill="#000000">../src/helloByeProto.cpp</text>
</a>
</g>
</g>
<!-- Node1&#45;&gt;Node23 -->
<g id="edge31" class="edge">
<title>Node1&#45;&gt;Node23</title>
<path fill="none" stroke="#191970" d="M1067.6067,-224.2455C1080.6086,-215.4928 1102.1271,-202.527 1120.0737,-192.5496"/>
<polygon fill="#191970" stroke="#191970" points="1121.9663,-195.5042 1129.0689,-187.6427 1118.614,-189.359 1121.9663,-195.5042"/>
</g>
<!-- Node4 -->
<g id="node5" class="node">
<title>Node4</title>
<polygon fill="none" stroke="#bfbfbf" points="1116.5,-.5 1116.5,-19.5 1154.5,-19.5 1154.5,-.5 1116.5,-.5"/>
<text text-anchor="middle" x="1135.5" y="-7.5" font-family="Helvetica,sans-Serif" font-size="10.00" fill="#000000">array</text>
</g>
<!-- Node3&#45;&gt;Node4 -->
<g id="edge4" class="edge">
<title>Node3&#45;&gt;Node4</title>
<path fill="none" stroke="#191970" d="M923.2408,-57.737C973.066,-46.5313 1061.0456,-26.7448 1106.5031,-16.5214"/>
<polygon fill="#191970" stroke="#191970" points="1107.3254,-19.924 1116.3137,-14.315 1105.7894,-13.0945 1107.3254,-19.924"/>
</g>
<!-- Node5 -->
<g id="node6" class="node">
<title>Node5</title>
<polygon fill="none" stroke="#bfbfbf" points="499,-.5 499,-19.5 548,-19.5 548,-.5 499,-.5"/>
<text text-anchor="middle" x="523.5" y="-7.5" font-family="Helvetica,sans-Serif" font-size="10.00" fill="#000000">cassert</text>
</g>
<!-- Node3&#45;&gt;Node5 -->
<g id="edge5" class="edge">
<title>Node3&#45;&gt;Node5</title>
<path fill="none" stroke="#191970" d="M849.7088,-57.5884C846.9358,-57.0267 844.1765,-56.4903 841.5,-56 739.2231,-37.2658 617.2957,-21.4258 558.5565,-14.1975"/>
<polygon fill="#191970" stroke="#191970" points="558.6936,-10.6883 548.3429,-12.9492 557.8444,-17.6366 558.6936,-10.6883"/>
</g>
<!-- Node6&#45;&gt;Node2 -->
<g id="edge14" class="edge">
<title>Node6&#45;&gt;Node2</title>
<path fill="none" stroke="#191970" d="M582.6297,-112.3733C608.6351,-102.7923 648.5881,-88.0728 676.4848,-77.7951"/>
<polygon fill="#191970" stroke="#191970" points="677.9954,-80.9686 686.1689,-74.2273 675.5754,-74.4002 677.9954,-80.9686"/>
</g>
<!-- Node6&#45;&gt;Node3 -->
<g id="edge25" class="edge">
<title>Node6&#45;&gt;Node3</title>
<path fill="none" stroke="#191970" d="M603.5494,-115.2702C658.1298,-107.2712 751.0455,-93.0634 839.7443,-76.2625"/>
<polygon fill="#191970" stroke="#191970" points="840.5331,-79.6752 849.6995,-74.3623 839.2206,-72.7993 840.5331,-79.6752"/>
</g>
<!-- Node6&#45;&gt;Node5 -->
<g id="edge7" class="edge">
<title>Node6&#45;&gt;Node5</title>
<path fill="none" stroke="#191970" d="M509.0362,-118.3764C453.483,-113.0341 366.5052,-100.8616 346.5,-76 286.0629,-.8914 238.6654,-86.5353 488.8505,-20.0717"/>
<polygon fill="#191970" stroke="#191970" points="489.9045,-23.4126 498.6497,-17.4317 488.0835,-16.6536 489.9045,-23.4126"/>
</g>
<!-- Node7 -->
<g id="node8" class="node">
<title>Node7</title>
<polygon fill="none" stroke="#bfbfbf" points="584.5,-56.5 584.5,-75.5 630.5,-75.5 630.5,-56.5 584.5,-56.5"/>
<text text-anchor="middle" x="607.5" y="-63.5" font-family="Helvetica,sans-Serif" font-size="10.00" fill="#000000">chrono</text>
</g>
<!-- Node6&#45;&gt;Node7 -->
<g id="edge8" class="edge">
<title>Node6&#45;&gt;Node7</title>
<path fill="none" stroke="#191970" d="M565.3835,-112.2455C572.6966,-104.2155 583.2391,-92.6394 591.9467,-83.0781"/>
<polygon fill="#191970" stroke="#191970" points="594.5727,-85.3928 598.7183,-75.6427 589.3972,-80.6795 594.5727,-85.3928"/>
</g>
<!-- Node8 -->
<g id="node9" class="node">
<title>Node8</title>
<polygon fill="none" stroke="#bfbfbf" points="990.5,-.5 990.5,-19.5 1036.5,-19.5 1036.5,-.5 990.5,-.5"/>
<text text-anchor="middle" x="1013.5" y="-7.5" font-family="Helvetica,sans-Serif" font-size="10.00" fill="#000000">cstdint</text>
</g>
<!-- Node6&#45;&gt;Node8 -->
<g id="edge9" class="edge">
<title>Node6&#45;&gt;Node8</title>
<path fill="none" stroke="#191970" d="M573.8809,-112.3037C606.0276,-94.4003 672.0161,-57.8033 677.5,-56 733.3414,-37.637 906.4921,-19.9339 979.9761,-13.0333"/>
<polygon fill="#191970" stroke="#191970" points="980.436,-16.5057 990.069,-12.0948 979.7879,-9.5358 980.436,-16.5057"/>
</g>
<!-- Node9 -->
<g id="node10" class="node">
<title>Node9</title>
<polygon fill="none" stroke="#bfbfbf" points="1116,-56.5 1116,-75.5 1175,-75.5 1175,-56.5 1116,-56.5"/>
<text text-anchor="middle" x="1145.5" y="-63.5" font-family="Helvetica,sans-Serif" font-size="10.00" fill="#000000">functional</text>
</g>
<!-- Node6&#45;&gt;Node9 -->
<g id="edge10" class="edge">
<title>Node6&#45;&gt;Node9</title>
<path fill="none" stroke="#191970" d="M603.5517,-120.7189C697.3765,-117.5919 914.4368,-107.4929 1105.8398,-75.8332"/>
<polygon fill="#191970" stroke="#191970" points="1106.5165,-79.2686 1115.7995,-74.1621 1105.3582,-72.3651 1106.5165,-79.2686"/>
</g>
<!-- Node10 -->
<g id="node11" class="node">
<title>Node10</title>
<polygon fill="none" stroke="#bfbfbf" points="1043.5,-56.5 1043.5,-75.5 1097.5,-75.5 1097.5,-56.5 1043.5,-56.5"/>
<text text-anchor="middle" x="1070.5" y="-63.5" font-family="Helvetica,sans-Serif" font-size="10.00" fill="#000000">iostream</text>
</g>
<!-- Node6&#45;&gt;Node10 -->
<g id="edge11" class="edge">
<title>Node6&#45;&gt;Node10</title>
<path fill="none" stroke="#191970" d="M603.6954,-120.1966C688.1348,-116.3773 870.6597,-105.4325 1033.3032,-75.9264"/>
<polygon fill="#191970" stroke="#191970" points="1034.2919,-79.3032 1043.4919,-74.0486 1033.0231,-72.4192 1034.2919,-79.3032"/>
</g>
<!-- Node11 -->
<g id="node12" class="node">
<title>Node11</title>
<polygon fill="none" stroke="#bfbfbf" points="127.5,-56.5 127.5,-75.5 167.5,-75.5 167.5,-56.5 127.5,-56.5"/>
<text text-anchor="middle" x="147.5" y="-63.5" font-family="Helvetica,sans-Serif" font-size="10.00" fill="#000000">limits</text>
</g>
<!-- Node6&#45;&gt;Node11 -->
<g id="edge12" class="edge">
<title>Node6&#45;&gt;Node11</title>
<path fill="none" stroke="#191970" d="M509.4444,-119.5113C439.0026,-115.0882 301.9947,-103.7871 177.6917,-75.8548"/>
<polygon fill="#191970" stroke="#191970" points="178.1514,-72.3696 167.6224,-73.5487 176.5886,-79.1929 178.1514,-72.3696"/>
</g>
<!-- Node12 -->
<g id="node13" class="node">
<title>Node12</title>
<polygon fill="none" stroke="#bfbfbf" points="185.5,-56.5 185.5,-75.5 237.5,-75.5 237.5,-56.5 185.5,-56.5"/>
<text text-anchor="middle" x="211.5" y="-63.5" font-family="Helvetica,sans-Serif" font-size="10.00" fill="#000000">memory</text>
</g>
<!-- Node6&#45;&gt;Node12 -->
<g id="edge13" class="edge">
<title>Node6&#45;&gt;Node12</title>
<path fill="none" stroke="#191970" d="M509.4135,-116.9589C450.3286,-110.2041 345.7828,-96.8351 247.5684,-76.0129"/>
<polygon fill="#191970" stroke="#191970" points="248.2922,-72.5886 237.7799,-73.908 246.8205,-79.4322 248.2922,-72.5886"/>
</g>
<!-- Node13 -->
<g id="node14" class="node">
<title>Node13</title>
<polygon fill="none" stroke="#bfbfbf" points="256,-56.5 256,-75.5 299,-75.5 299,-56.5 256,-56.5"/>
<text text-anchor="middle" x="277.5" y="-63.5" font-family="Helvetica,sans-Serif" font-size="10.00" fill="#000000">queue</text>
</g>
<!-- Node6&#45;&gt;Node13 -->
<g id="edge15" class="edge">
<title>Node6&#45;&gt;Node13</title>
<path fill="none" stroke="#191970" d="M509.216,-114.2585C460.0678,-105.9294 381.0323,-91.7422 313.5,-76 312.0391,-75.6595 310.5484,-75.2988 309.0452,-74.9246"/>
<polygon fill="#191970" stroke="#191970" points="309.6872,-71.4747 299.1265,-72.324 307.9119,-78.2458 309.6872,-71.4747"/>
</g>
<!-- Node14 -->
<g id="node15" class="node">
<title>Node14</title>
<polygon fill="none" stroke="#bfbfbf" points="655,-.5 655,-19.5 714,-19.5 714,-.5 655,-.5"/>
<text text-anchor="middle" x="684.5" y="-7.5" font-family="Helvetica,sans-Serif" font-size="10.00" fill="#000000">stdexcept</text>
</g>
<!-- Node6&#45;&gt;Node14 -->
<g id="edge16" class="edge">
<title>Node6&#45;&gt;Node14</title>
<path fill="none" stroke="#191970" d="M556.7625,-112.2474C557.6477,-98.1604 561.2533,-72.0523 575.5,-56 593.4336,-35.7935 621.7143,-24.2076 644.9748,-17.7181"/>
<polygon fill="#191970" stroke="#191970" points="646.1082,-21.0406 654.9215,-15.1605 644.365,-14.2611 646.1082,-21.0406"/>
</g>
<!-- Node15 -->
<g id="node16" class="node">
<title>Node15</title>
<polygon fill="none" stroke="#bfbfbf" points="356,-56.5 356,-75.5 439,-75.5 439,-56.5 356,-56.5"/>
<text text-anchor="middle" x="397.5" y="-63.5" font-family="Helvetica,sans-Serif" font-size="10.00" fill="#000000">unordered_map</text>
</g>
<!-- Node6&#45;&gt;Node15 -->
<g id="edge17" class="edge">
<title>Node6&#45;&gt;Node15</title>
<path fill="none" stroke="#191970" d="M529.1669,-112.3733C502.9566,-103.1419 463.2016,-89.1402 434.2332,-78.9375"/>
<polygon fill="#191970" stroke="#191970" points="435.0712,-75.5219 424.4764,-75.5011 432.7458,-82.1244 435.0712,-75.5219"/>
</g>
<!-- Node16 -->
<g id="node17" class="node">
<title>Node16</title>
<polygon fill="none" stroke="#bfbfbf" points="227.5,-.5 227.5,-19.5 271.5,-19.5 271.5,-.5 227.5,-.5"/>
<text text-anchor="middle" x="249.5" y="-7.5" font-family="Helvetica,sans-Serif" font-size="10.00" fill="#000000">vector</text>
</g>
<!-- Node6&#45;&gt;Node16 -->
<g id="edge18" class="edge">
<title>Node6&#45;&gt;Node16</title>
<path fill="none" stroke="#191970" d="M509.3046,-120.5392C401.47,-116.7157 144.3058,-104.6579 118.5,-76 87.0651,-41.0908 168.9492,-22.2222 217.1662,-14.4029"/>
<polygon fill="#191970" stroke="#191970" points="217.8288,-17.8422 227.1781,-12.8582 216.7613,-10.924 217.8288,-17.8422"/>
</g>
<!-- Node17 -->
<g id="node18" class="node">
<title>Node17</title>
<g id="a_node18"><a xlink:href="bufArray_8hpp.html" target="_top" xlink:title="bufArray.hpp">
<polygon fill="none" stroke="#000000" points="457,-56.5 457,-75.5 528,-75.5 528,-56.5 457,-56.5"/>
<text text-anchor="middle" x="492.5" y="-63.5" font-family="Helvetica,sans-Serif" font-size="10.00" fill="#000000">bufArray.hpp</text>
</a>
</g>
</g>
<!-- Node6&#45;&gt;Node17 -->
<g id="edge19" class="edge">
<title>Node6&#45;&gt;Node17</title>
<path fill="none" stroke="#191970" d="M545.3521,-112.2455C535.9913,-104.0549 522.4142,-92.1749 511.3651,-82.5069"/>
<polygon fill="#191970" stroke="#191970" points="513.3508,-79.5937 503.5202,-75.6427 508.7412,-84.8618 513.3508,-79.5937"/>
</g>
<!-- Node19 -->
<g id="node20" class="node">
<title>Node19</title>
<g id="a_node20"><a xlink:href="exceptions_8hpp.html" target="_top" xlink:title="exceptions.hpp">
<polygon fill="none" stroke="#000000" points="749,-56.5 749,-75.5 832,-75.5 832,-56.5 749,-56.5"/>
<text text-anchor="middle" x="790.5" y="-63.5" font-family="Helvetica,sans-Serif" font-size="10.00" fill="#000000">exceptions.hpp</text>
</a>
</g>
</g>
<!-- Node6&#45;&gt;Node19 -->
<g id="edge26" class="edge">
<title>Node6&#45;&gt;Node19</title>
<path fill="none" stroke="#191970" d="M596.4602,-112.4369C636.3392,-102.8932 697.7139,-88.2052 740.7328,-77.9101"/>
<polygon fill="#191970" stroke="#191970" points="741.7939,-81.2551 750.7047,-75.5237 740.1646,-74.4473 741.7939,-81.2551"/>
</g>
<!-- Node21 -->
<g id="node22" class="node">
<title>Node21</title>
<g id="a_node22"><a xlink:href="spinlock_8hpp.html" target="_top" xlink:title="spinlock.hpp">
<polygon fill="none" stroke="#000000" points="0,-56.5 0,-75.5 71,-75.5 71,-56.5 0,-56.5"/>
<text text-anchor="middle" x="35.5" y="-63.5" font-family="Helvetica,sans-Serif" font-size="10.00" fill="#000000">spinlock.hpp</text>
</a>
</g>
</g>
<!-- Node6&#45;&gt;Node21 -->
<g id="edge29" class="edge">
<title>Node6&#45;&gt;Node21</title>
<path fill="none" stroke="#191970" d="M509.178,-118.9519C424.0793,-113.1208 239.7084,-98.8925 85.5,-76 84.0497,-75.7847 82.5778,-75.5554 81.0931,-75.3148"/>
<polygon fill="#191970" stroke="#191970" points="81.6557,-71.8602 71.2034,-73.592 80.4543,-78.7563 81.6557,-71.8602"/>
</g>
<!-- Node17&#45;&gt;Node5 -->
<g id="edge20" class="edge">
<title>Node17&#45;&gt;Node5</title>
<path fill="none" stroke="#191970" d="M497.8998,-56.2455C502.1227,-48.617 508.1173,-37.7881 513.2441,-28.5267"/>
<polygon fill="#191970" stroke="#191970" points="516.381,-30.0867 518.1621,-19.6427 510.2568,-26.6965 516.381,-30.0867"/>
</g>
<!-- Node17&#45;&gt;Node8 -->
<g id="edge21" class="edge">
<title>Node17&#45;&gt;Node8</title>
<path fill="none" stroke="#191970" d="M528.0292,-61.5985C542.7176,-59.8104 559.9236,-57.7562 575.5,-56 726.4895,-38.9766 907.0005,-20.6631 980.2126,-13.3208"/>
<polygon fill="#191970" stroke="#191970" points="980.6181,-16.7978 990.2195,-12.3186 979.9205,-9.8327 980.6181,-16.7978"/>
</g>
<!-- Node17&#45;&gt;Node14 -->
<g id="edge22" class="edge">
<title>Node17&#45;&gt;Node14</title>
<path fill="none" stroke="#191970" d="M525.506,-56.3733C558.5873,-46.7245 609.5369,-31.8642 644.8055,-21.5776"/>
<polygon fill="#191970" stroke="#191970" points="646.1392,-24.8345 654.7591,-18.6744 644.1791,-18.1145 646.1392,-24.8345"/>
</g>
<!-- Node17&#45;&gt;Node16 -->
<g id="edge24" class="edge">
<title>Node17&#45;&gt;Node16</title>
<path fill="none" stroke="#191970" d="M456.9055,-57.7971C409.6974,-46.9179 327.0646,-27.875 281.6549,-17.4102"/>
<polygon fill="#191970" stroke="#191970" points="282.2859,-13.9639 271.7553,-15.1288 280.7138,-20.7851 282.2859,-13.9639"/>
</g>
<!-- Node18 -->
<g id="node19" class="node">
<title>Node18</title>
<polygon fill="none" stroke="#bfbfbf" points="440.5,-.5 440.5,-19.5 480.5,-19.5 480.5,-.5 440.5,-.5"/>
<text text-anchor="middle" x="460.5" y="-7.5" font-family="Helvetica,sans-Serif" font-size="10.00" fill="#000000">utility</text>
</g>
<!-- Node17&#45;&gt;Node18 -->
<g id="edge23" class="edge">
<title>Node17&#45;&gt;Node18</title>
<path fill="none" stroke="#191970" d="M486.926,-56.2455C482.5669,-48.617 476.3789,-37.7881 471.0867,-28.5267"/>
<polygon fill="#191970" stroke="#191970" points="474.0104,-26.5886 466.0101,-19.6427 467.9327,-30.0616 474.0104,-26.5886"/>
</g>
<!-- Node19&#45;&gt;Node14 -->
<g id="edge28" class="edge">
<title>Node19&#45;&gt;Node14</title>
<path fill="none" stroke="#191970" d="M772.0362,-56.2455C755.3926,-47.4527 730.7007,-34.4079 711.7808,-24.4125"/>
<polygon fill="#191970" stroke="#191970" points="713.2291,-21.2193 702.7522,-19.6427 709.9592,-27.4086 713.2291,-21.2193"/>
</g>
<!-- Node20 -->
<g id="node21" class="node">
<title>Node20</title>
<polygon fill="none" stroke="#bfbfbf" points="806,-.5 806,-19.5 865,-19.5 865,-.5 806,-.5"/>
<text text-anchor="middle" x="835.5" y="-7.5" font-family="Helvetica,sans-Serif" font-size="10.00" fill="#000000">exception</text>
</g>
<!-- Node19&#45;&gt;Node20 -->
<g id="edge27" class="edge">
<title>Node19&#45;&gt;Node20</title>
<path fill="none" stroke="#191970" d="M798.3384,-56.2455C804.662,-48.3761 813.7224,-37.101 821.3136,-27.6542"/>
<polygon fill="#191970" stroke="#191970" points="824.2158,-29.6302 827.7514,-19.6427 818.7592,-25.2454 824.2158,-29.6302"/>
</g>
<!-- Node22 -->
<g id="node23" class="node">
<title>Node22</title>
<polygon fill="none" stroke="#bfbfbf" points="12.5,-.5 12.5,-19.5 58.5,-19.5 58.5,-.5 12.5,-.5"/>
<text text-anchor="middle" x="35.5" y="-7.5" font-family="Helvetica,sans-Serif" font-size="10.00" fill="#000000">atomic</text>
</g>
<!-- Node21&#45;&gt;Node22 -->
<g id="edge30" class="edge">
<title>Node21&#45;&gt;Node22</title>
<path fill="none" stroke="#191970" d="M35.5,-56.2455C35.5,-48.9382 35.5,-38.6944 35.5,-29.7046"/>
<polygon fill="#191970" stroke="#191970" points="39.0001,-29.6426 35.5,-19.6427 32.0001,-29.6427 39.0001,-29.6426"/>
</g>
<!-- Node23&#45;&gt;Node1 -->
<g id="edge52" class="edge">
<title>Node23&#45;&gt;Node1</title>
<path fill="none" stroke="#191970" d="M1139.5592,-187.6427C1126.6302,-196.3593 1105.133,-209.3198 1087.1562,-219.3225"/>
<polygon fill="#191970" stroke="#191970" points="1085.2398,-216.3811 1078.1404,-224.2455 1088.5946,-222.5249 1085.2398,-216.3811"/>
</g>
<!-- Node24 -->
<g id="node25" class="node">
<title>Node24</title>
<polygon fill="none" stroke="#bfbfbf" points="980,-56.5 980,-75.5 1025,-75.5 1025,-56.5 980,-56.5"/>
<text text-anchor="middle" x="1002.5" y="-63.5" font-family="Helvetica,sans-Serif" font-size="10.00" fill="#000000">cstdlib</text>
</g>
<!-- Node23&#45;&gt;Node24 -->
<g id="edge32" class="edge">
<title>Node23&#45;&gt;Node24</title>
<path fill="none" stroke="#191970" d="M1137.8816,-168.4509C1112.3232,-149.1094 1054.2293,-105.1465 1023.1016,-81.5904"/>
<polygon fill="#191970" stroke="#191970" points="1025.1726,-78.7684 1015.0865,-75.5249 1020.9485,-84.3503 1025.1726,-78.7684"/>
</g>
<!-- Node25 -->
<g id="node26" class="node">
<title>Node25</title>
<polygon fill="none" stroke="#bfbfbf" points="1500.5,-.5 1500.5,-19.5 1552.5,-19.5 1552.5,-.5 1500.5,-.5"/>
<text text-anchor="middle" x="1526.5" y="-7.5" font-family="Helvetica,sans-Serif" font-size="10.00" fill="#000000">sstream</text>
</g>
<!-- Node23&#45;&gt;Node25 -->
<g id="edge33" class="edge">
<title>Node23&#45;&gt;Node25</title>
<path fill="none" stroke="#191970" d="M1211.8182,-172.9764C1320.2376,-162.6516 1538.5265,-134.8923 1582.5,-76 1596.1272,-57.7496 1573.9871,-37.974 1553.6563,-24.877"/>
<polygon fill="#191970" stroke="#191970" points="1555.2327,-21.7392 1544.8712,-19.528 1551.5923,-27.7181 1555.2327,-21.7392"/>
</g>
<!-- Node26 -->
<g id="node27" class="node">
<title>Node26</title>
<g id="a_node27"><a xlink:href="IPv4__5TupleL2Ident_8hpp.html" target="_top" xlink:title="IPv4_5TupleL2Ident.hpp">
<polygon fill="none" stroke="#000000" points="1142.5,-112.5 1142.5,-131.5 1264.5,-131.5 1264.5,-112.5 1142.5,-112.5"/>
<text text-anchor="middle" x="1203.5" y="-119.5" font-family="Helvetica,sans-Serif" font-size="10.00" fill="#000000">IPv4_5TupleL2Ident.hpp</text>
</a>
</g>
</g>
<!-- Node23&#45;&gt;Node26 -->
<g id="edge34" class="edge">
<title>Node23&#45;&gt;Node26</title>
<path fill="none" stroke="#191970" d="M1159.7319,-168.2455C1167.3317,-160.2155 1178.2877,-148.6394 1187.3368,-139.0781"/>
<polygon fill="#191970" stroke="#191970" points="1190.0421,-141.3115 1194.3739,-131.6427 1184.958,-136.4998 1190.0421,-141.3115"/>
</g>
<!-- Node28 -->
<g id="node29" class="node">
<title>Node28</title>
<g id="a_node29"><a xlink:href="headers_8hpp.html" target="_top" xlink:title="headers.hpp">
<polygon fill="none" stroke="#000000" points="1383.5,-56.5 1383.5,-75.5 1453.5,-75.5 1453.5,-56.5 1383.5,-56.5"/>
<text text-anchor="middle" x="1418.5" y="-63.5" font-family="Helvetica,sans-Serif" font-size="10.00" fill="#000000">headers.hpp</text>
</a>
</g>
</g>
<!-- Node23&#45;&gt;Node28 -->
<g id="edge51" class="edge">
<title>Node23&#45;&gt;Node28</title>
<path fill="none" stroke="#191970" d="M1177.583,-168.4814C1202.6459,-159.5291 1240.8495,-145.5172 1273.5,-132 1284.7493,-127.3428 1349.12,-97.8691 1388.2159,-79.9199"/>
<polygon fill="#191970" stroke="#191970" points="1389.9366,-82.9812 1397.5633,-75.627 1387.0151,-76.62 1389.9366,-82.9812"/>
</g>
<!-- Node31 -->
<g id="node32" class="node">
<title>Node31</title>
<g id="a_node32"><a xlink:href="mbuf_8hpp.html" target="_top" xlink:title="mbuf.hpp">
<polygon fill="none" stroke="#000000" points="1327,-112.5 1327,-131.5 1384,-131.5 1384,-112.5 1327,-112.5"/>
<text text-anchor="middle" x="1355.5" y="-119.5" font-family="Helvetica,sans-Serif" font-size="10.00" fill="#000000">mbuf.hpp</text>
</a>
</g>
</g>
<!-- Node23&#45;&gt;Node31 -->
<g id="edge53" class="edge">
<title>Node23&#45;&gt;Node31</title>
<path fill="none" stroke="#191970" d="M1185.7408,-168.3733C1222.26,-158.3973 1279.1734,-142.8502 1316.8902,-132.5471"/>
<polygon fill="#191970" stroke="#191970" points="1318.2621,-135.8006 1326.9864,-129.7891 1316.4175,-129.048 1318.2621,-135.8006"/>
</g>
<!-- Node33 -->
<g id="node34" class="node">
<title>Node33</title>
<g id="a_node34"><a xlink:href="samplePacket_8hpp.html" target="_top" xlink:title="samplePacket.hpp">
<polygon fill="none" stroke="#000000" points="953.5,-112.5 953.5,-131.5 1051.5,-131.5 1051.5,-112.5 953.5,-112.5"/>
<text text-anchor="middle" x="1002.5" y="-119.5" font-family="Helvetica,sans-Serif" font-size="10.00" fill="#000000">samplePacket.hpp</text>
</a>
</g>
</g>
<!-- Node23&#45;&gt;Node33 -->
<g id="edge56" class="edge">
<title>Node23&#45;&gt;Node33</title>
<path fill="none" stroke="#191970" d="M1125.0579,-168.3733C1100.7674,-159.1822 1063.9792,-145.2624 1037.0457,-135.0713"/>
<polygon fill="#191970" stroke="#191970" points="1038.2016,-131.7666 1027.6101,-131.5011 1035.7243,-138.3136 1038.2016,-131.7666"/>
</g>
<!-- Node26&#45;&gt;Node3 -->
<g id="edge42" class="edge">
<title>Node26&#45;&gt;Node3</title>
<path fill="none" stroke="#191970" d="M1149.3659,-112.4369C1088.4774,-101.6805 990.5984,-84.3896 933.0202,-74.2181"/>
<polygon fill="#191970" stroke="#191970" points="933.558,-70.759 923.1015,-72.4659 932.3402,-77.6522 933.558,-70.759"/>
</g>
<!-- Node26&#45;&gt;Node8 -->
<g id="edge35" class="edge">
<title>Node26&#45;&gt;Node8</title>
<path fill="none" stroke="#191970" d="M1220.3569,-112.4864C1241.1542,-99.5558 1271.8717,-75.7768 1255.5,-56 1242.288,-40.04 1110.405,-21.8836 1047.0871,-14.0017"/>
<polygon fill="#191970" stroke="#191970" points="1047.1752,-10.4863 1036.8227,-12.7394 1046.3206,-17.4339 1047.1752,-10.4863"/>
</g>
<!-- Node26&#45;&gt;Node9 -->
<g id="edge37" class="edge">
<title>Node26&#45;&gt;Node9</title>
<path fill="none" stroke="#191970" d="M1193.3972,-112.2455C1184.9972,-104.1352 1172.8506,-92.4075 1162.8916,-82.7919"/>
<polygon fill="#191970" stroke="#191970" points="1165.1122,-80.0707 1155.4871,-75.6427 1160.25,-85.1066 1165.1122,-80.0707"/>
</g>
<!-- Node26&#45;&gt;Node10 -->
<g id="edge38" class="edge">
<title>Node26&#45;&gt;Node10</title>
<path fill="none" stroke="#191970" d="M1180.6365,-112.3733C1159.095,-103.3032 1126.6162,-89.6279 1102.5044,-79.4755"/>
<polygon fill="#191970" stroke="#191970" points="1103.6397,-76.156 1093.0652,-75.5011 1100.9233,-82.6075 1103.6397,-76.156"/>
</g>
<!-- Node26&#45;&gt;Node14 -->
<g id="edge40" class="edge">
<title>Node26&#45;&gt;Node14</title>
<path fill="none" stroke="#191970" d="M1203.8466,-112.1113C1203.7703,-97.3553 1201.2214,-69.8323 1184.5,-56 1182.2791,-54.1628 842.0842,-23.9315 724.1811,-13.5034"/>
<polygon fill="#191970" stroke="#191970" points="724.3981,-10.009 714.1287,-12.6146 723.7816,-16.9818 724.3981,-10.009"/>
</g>
<!-- Node26&#45;&gt;Node19 -->
<g id="edge50" class="edge">
<title>Node26&#45;&gt;Node19</title>
<path fill="none" stroke="#191970" d="M1142.4726,-115.5126C1072.483,-107.7883 954.0769,-93.8547 842.3079,-76.0387"/>
<polygon fill="#191970" stroke="#191970" points="842.6364,-72.5466 832.2076,-74.415 841.5253,-79.4579 842.6364,-72.5466"/>
</g>
<!-- Node26&#45;&gt;Node20 -->
<g id="edge36" class="edge">
<title>Node26&#45;&gt;Node20</title>
<path fill="none" stroke="#191970" d="M1210.1678,-112.174C1218.8846,-97.9956 1231.489,-71.7746 1217.5,-56 1206.2062,-43.2646 970.6634,-21.6423 875.1812,-13.3626"/>
<polygon fill="#191970" stroke="#191970" points="875.3166,-9.8614 865.0528,-12.4889 874.7149,-16.8355 875.3166,-9.8614"/>
</g>
<!-- Node26&#45;&gt;Node25 -->
<g id="edge39" class="edge">
<title>Node26&#45;&gt;Node25</title>
<path fill="none" stroke="#191970" d="M1264.6138,-115.5345C1330.0603,-107.8443 1429.0243,-93.7815 1462.5,-76 1483.9453,-64.6087 1502.5051,-43.4464 1514.0347,-28.1503"/>
<polygon fill="#191970" stroke="#191970" points="1516.9495,-30.0925 1519.9794,-19.9402 1511.2797,-25.9872 1516.9495,-30.0925"/>
</g>
<!-- Node27 -->
<g id="node28" class="node">
<title>Node27</title>
<polygon fill="none" stroke="#bfbfbf" points="1297,-.5 1297,-19.5 1338,-19.5 1338,-.5 1297,-.5"/>
<text text-anchor="middle" x="1317.5" y="-7.5" font-family="Helvetica,sans-Serif" font-size="10.00" fill="#000000">string</text>
</g>
<!-- Node26&#45;&gt;Node27 -->
<g id="edge41" class="edge">
<title>Node26&#45;&gt;Node27</title>
<path fill="none" stroke="#191970" d="M1235.1641,-112.4606C1254.3605,-105.2241 1278.0491,-93.4914 1293.5,-76 1304.9645,-63.0214 1311.0953,-44.1284 1314.2819,-29.8787"/>
<polygon fill="#191970" stroke="#191970" points="1317.7978,-30.1294 1316.2518,-19.648 1310.9241,-28.8058 1317.7978,-30.1294"/>
</g>
<!-- Node26&#45;&gt;Node28 -->
<g id="edge43" class="edge">
<title>Node26&#45;&gt;Node28</title>
<path fill="none" stroke="#191970" d="M1240.4598,-112.3733C1277.3493,-102.7648 1334.0806,-87.9883 1373.5545,-77.7067"/>
<polygon fill="#191970" stroke="#191970" points="1374.6513,-81.0379 1383.4462,-75.1303 1372.8868,-74.2639 1374.6513,-81.0379"/>
</g>
<!-- Node28&#45;&gt;Node4 -->
<g id="edge44" class="edge">
<title>Node28&#45;&gt;Node4</title>
<path fill="none" stroke="#191970" d="M1383.4424,-58.8135C1378.7559,-57.8621 1374.012,-56.9039 1369.5,-56 1295.8053,-41.2368 1208.962,-24.2806 1164.6741,-15.665"/>
<polygon fill="#191970" stroke="#191970" points="1165.1026,-12.1828 1154.6184,-13.7099 1163.7666,-19.0541 1165.1026,-12.1828"/>
</g>
<!-- Node28&#45;&gt;Node8 -->
<g id="edge45" class="edge">
<title>Node28&#45;&gt;Node8</title>
<path fill="none" stroke="#191970" d="M1383.4938,-58.5334C1378.7991,-57.6267 1374.0392,-56.7554 1369.5,-56 1251.5325,-36.3678 1110.3845,-20.3207 1047.0948,-13.5153"/>
<polygon fill="#191970" stroke="#191970" points="1047.227,-10.0096 1036.9119,-12.4281 1046.4838,-16.9701 1047.227,-10.0096"/>
</g>
<!-- Node28&#45;&gt;Node25 -->
<g id="edge47" class="edge">
<title>Node28&#45;&gt;Node25</title>
<path fill="none" stroke="#191970" d="M1437.3122,-56.2455C1454.3473,-47.4125 1479.6575,-34.2887 1498.9681,-24.2758"/>
<polygon fill="#191970" stroke="#191970" points="1500.637,-27.353 1507.9034,-19.6427 1497.4147,-21.1388 1500.637,-27.353"/>
</g>
<!-- Node28&#45;&gt;Node27 -->
<g id="edge48" class="edge">
<title>Node28&#45;&gt;Node27</title>
<path fill="none" stroke="#191970" d="M1400.9071,-56.2455C1385.121,-47.4928 1361.7361,-34.527 1343.7413,-24.5496"/>
<polygon fill="#191970" stroke="#191970" points="1345.3341,-21.4308 1334.8913,-19.6427 1341.9397,-27.5528 1345.3341,-21.4308"/>
</g>
<!-- Node29 -->
<g id="node30" class="node">
<title>Node29</title>
<polygon fill="none" stroke="#bfbfbf" points="1436.5,-.5 1436.5,-19.5 1482.5,-19.5 1482.5,-.5 1436.5,-.5"/>
<text text-anchor="middle" x="1459.5" y="-7.5" font-family="Helvetica,sans-Serif" font-size="10.00" fill="#000000">cstring</text>
</g>
<!-- Node28&#45;&gt;Node29 -->
<g id="edge46" class="edge">
<title>Node28&#45;&gt;Node29</title>
<path fill="none" stroke="#191970" d="M1425.6417,-56.2455C1431.3444,-48.4564 1439.49,-37.3308 1446.3625,-27.9439"/>
<polygon fill="#191970" stroke="#191970" points="1449.3568,-29.7789 1452.4402,-19.6427 1443.7087,-25.6437 1449.3568,-29.7789"/>
</g>
<!-- Node30 -->
<g id="node31" class="node">
<title>Node30</title>
<polygon fill="none" stroke="#bfbfbf" points="1356.5,-.5 1356.5,-19.5 1418.5,-19.5 1418.5,-.5 1356.5,-.5"/>
<text text-anchor="middle" x="1387.5" y="-7.5" font-family="Helvetica,sans-Serif" font-size="10.00" fill="#000000">arpa/inet.h</text>
</g>
<!-- Node28&#45;&gt;Node30 -->
<g id="edge49" class="edge">
<title>Node28&#45;&gt;Node30</title>
<path fill="none" stroke="#191970" d="M1413.1002,-56.2455C1408.8773,-48.617 1402.8827,-37.7881 1397.7559,-28.5267"/>
<polygon fill="#191970" stroke="#191970" points="1400.7432,-26.6965 1392.8379,-19.6427 1394.619,-30.0867 1400.7432,-26.6965"/>
</g>
<!-- Node31&#45;&gt;Node8 -->
<g id="edge54" class="edge">
<title>Node31&#45;&gt;Node8</title>
<path fill="none" stroke="#191970" d="M1346.2231,-112.1034C1331.7649,-97.3371 1302.3041,-69.8008 1271.5,-56 1231.7429,-38.1881 1107.0937,-21.2838 1046.8077,-13.8965"/>
<polygon fill="#191970" stroke="#191970" points="1047.0252,-10.3974 1036.6771,-12.6707 1046.1842,-17.3467 1047.0252,-10.3974"/>
</g>
<!-- Node31&#45;&gt;Node32 -->
<g id="edge55" class="edge">
<title>Node31&#45;&gt;Node32</title>
<path fill="none" stroke="#191970" d="M1384.1549,-113.3727C1415.0399,-104.074 1464.4955,-89.1841 1499.7132,-78.581"/>
<polygon fill="#191970" stroke="#191970" points="1501.1284,-81.8102 1509.6947,-75.5758 1499.1103,-75.1074 1501.1284,-81.8102"/>
</g>
<!-- Node33&#45;&gt;Node8 -->
<g id="edge57" class="edge">
<title>Node33&#45;&gt;Node8</title>
<path fill="none" stroke="#191970" d="M992.5441,-112.3444C980.7186,-99.6467 963.5349,-76.5367 971.5,-56 975.8858,-44.692 984.4902,-34.463 992.7749,-26.5381"/>
<polygon fill="#191970" stroke="#191970" points="995.3301,-28.9494 1000.472,-19.6859 990.6756,-23.721 995.3301,-28.9494"/>
</g>
<!-- Node33&#45;&gt;Node24 -->
<g id="edge58" class="edge">
<title>Node33&#45;&gt;Node24</title>
<path fill="none" stroke="#191970" d="M1002.5,-112.2455C1002.5,-104.9382 1002.5,-94.6944 1002.5,-85.7046"/>
<polygon fill="#191970" stroke="#191970" points="1006.0001,-85.6426 1002.5,-75.6427 999.0001,-85.6427 1006.0001,-85.6426"/>
</g>
</g>
</svg>
