<?xml version="1.0" encoding="UTF-8" standalone="no"?>
<!DOCTYPE svg PUBLIC "-//W3C//DTD SVG 1.1//EN"
 "http://www.w3.org/Graphics/SVG/1.1/DTD/svg11.dtd">
<!-- Generated by graphviz version 2.40.1 (20161225.0304)
 -->
<!-- Title: /home/dominik/uni/MoonState/include/helloBye3MemPool.hpp Pages: 1 -->
<svg width="1659pt" height="263pt"
 viewBox="0.00 0.00 1658.50 263.00" xmlns="http://www.w3.org/2000/svg" xmlns:xlink="http://www.w3.org/1999/xlink">
<g id="graph0" class="graph" transform="scale(1 1) rotate(0) translate(4 259)">
<title>/home/dominik/uni/MoonState/include/helloBye3MemPool.hpp</title>
<!-- Node0 -->
<g id="node1" class="node">
<title>Node0</title>
<polygon fill="#bfbfbf" stroke="#000000" points="355,-224.5 355,-254.5 511,-254.5 511,-224.5 355,-224.5"/>
<text text-anchor="start" x="363" y="-242.5" font-family="Helvetica,sans-Serif" font-size="10.00" fill="#000000">/home/dominik/uni/MoonState</text>
<text text-anchor="middle" x="433" y="-231.5" font-family="Helvetica,sans-Serif" font-size="10.00" fill="#000000">/include/helloBye3MemPool.hpp</text>
</g>
<!-- Node1 -->
<g id="node2" class="node">
<title>Node1</title>
<polygon fill="none" stroke="#bfbfbf" points="921,-56.5 921,-75.5 965,-75.5 965,-56.5 921,-56.5"/>
<text text-anchor="middle" x="943" y="-63.5" font-family="Helvetica,sans-Serif" font-size="10.00" fill="#000000">mutex</text>
</g>
<!-- Node0&#45;&gt;Node1 -->
<g id="edge1" class="edge">
<title>Node0&#45;&gt;Node1</title>
<path fill="none" stroke="#191970" d="M492.1332,-224.4525C528.6459,-214.8125 576.3201,-201.5955 618,-188 727.1395,-152.4 853.7957,-102.2343 911.4784,-78.8878"/>
<polygon fill="#191970" stroke="#191970" points="912.8301,-82.1166 920.7802,-75.1133 910.198,-75.6303 912.8301,-82.1166"/>
</g>
<!-- Node2 -->
<g id="node3" class="node">
<title>Node2</title>
<polygon fill="none" stroke="#bfbfbf" points="0,-.5 0,-19.5 52,-19.5 52,-.5 0,-.5"/>
<text text-anchor="middle" x="26" y="-7.5" font-family="Helvetica,sans-Serif" font-size="10.00" fill="#000000">sstream</text>
</g>
<!-- Node0&#45;&gt;Node2 -->
<g id="edge2" class="edge">
<title>Node0&#45;&gt;Node2</title>
<path fill="none" stroke="#191970" d="M354.9424,-232.0029C273.6517,-223.3232 152.363,-207.6666 110,-188 50.5344,-160.3936 30.3973,-139.4776 14,-76 10.0008,-60.5183 13.7429,-42.6589 18.073,-29.4252"/>
<polygon fill="#191970" stroke="#191970" points="21.395,-30.5315 21.5351,-19.9376 14.8192,-28.1319 21.395,-30.5315"/>
</g>
<!-- Node3 -->
<g id="node4" class="node">
<title>Node3</title>
<g id="a_node4"><a xlink:href="common_8hpp.html" target="_top" xlink:title="common.hpp">
<polygon fill="none" stroke="#000000" points="651.5,-56.5 651.5,-75.5 724.5,-75.5 724.5,-56.5 651.5,-56.5"/>
<text text-anchor="middle" x="688" y="-63.5" font-family="Helvetica,sans-Serif" font-size="10.00" fill="#000000">common.hpp</text>
</a>
</g>
</g>
<!-- Node0&#45;&gt;Node3 -->
<g id="edge3" class="edge">
<title>Node0&#45;&gt;Node3</title>
<path fill="none" stroke="#191970" d="M473.2328,-224.3565C516.7296,-206.6765 586.5869,-174.3715 637,-132 653.3681,-118.2428 667.8211,-98.3987 677.1229,-84.066"/>
<polygon fill="#191970" stroke="#191970" points="680.1083,-85.8932 682.46,-75.5627 674.1794,-82.1719 680.1083,-85.8932"/>
</g>
<!-- Node6 -->
<g id="node7" class="node">
<title>Node6</title>
<g id="a_node7"><a xlink:href="exceptions_8hpp.html" target="_top" xlink:title="exceptions.hpp">
<polygon fill="none" stroke="#000000" points="742.5,-56.5 742.5,-75.5 825.5,-75.5 825.5,-56.5 742.5,-56.5"/>
<text text-anchor="middle" x="784" y="-63.5" font-family="Helvetica,sans-Serif" font-size="10.00" fill="#000000">exceptions.hpp</text>
</a>
</g>
</g>
<!-- Node0&#45;&gt;Node6 -->
<g id="edge6" class="edge">
<title>Node0&#45;&gt;Node6</title>
<path fill="none" stroke="#191970" d="M486.8981,-224.457C516.4857,-215.4068 553.4645,-202.7818 585,-188 652.9916,-156.13 726.8144,-106.4791 762.4055,-81.4844"/>
<polygon fill="#191970" stroke="#191970" points="764.4597,-84.3185 770.6036,-75.6869 760.418,-78.6032 764.4597,-84.3185"/>
</g>
<!-- Node9 -->
<g id="node10" class="node">
<title>Node9</title>
<g id="a_node10"><a xlink:href="headers_8hpp.html" target="_top" xlink:title="headers.hpp">
<polygon fill="none" stroke="#000000" points="143,-56.5 143,-75.5 213,-75.5 213,-56.5 143,-56.5"/>
<text text-anchor="middle" x="178" y="-63.5" font-family="Helvetica,sans-Serif" font-size="10.00" fill="#000000">headers.hpp</text>
</a>
</g>
</g>
<!-- Node0&#45;&gt;Node9 -->
<g id="edge9" class="edge">
<title>Node0&#45;&gt;Node9</title>
<path fill="none" stroke="#191970" d="M354.8624,-228.5092C254.8499,-212.6555 90.1413,-179.9136 54,-132 29.7654,-99.8715 88.2988,-81.7393 132.9643,-72.9091"/>
<polygon fill="#191970" stroke="#191970" points="133.6341,-76.3446 142.8187,-71.0633 132.3452,-69.4643 133.6341,-76.3446"/>
</g>
<!-- Node14 -->
<g id="node15" class="node">
<title>Node14</title>
<g id="a_node15"><a xlink:href="mbuf_8hpp.html" target="_top" xlink:title="mbuf.hpp">
<polygon fill="none" stroke="#000000" points="397.5,-112.5 397.5,-131.5 454.5,-131.5 454.5,-112.5 397.5,-112.5"/>
<text text-anchor="middle" x="426" y="-119.5" font-family="Helvetica,sans-Serif" font-size="10.00" fill="#000000">mbuf.hpp</text>
</a>
</g>
</g>
<!-- Node0&#45;&gt;Node14 -->
<g id="edge16" class="edge">
<title>Node0&#45;&gt;Node14</title>
<path fill="none" stroke="#191970" d="M432.0849,-224.1389C430.8237,-202.9692 428.5508,-164.8174 427.1683,-141.6112"/>
<polygon fill="#191970" stroke="#191970" points="430.6581,-141.3336 426.5695,-131.5595 423.6705,-141.75 430.6581,-141.3336"/>
</g>
<!-- Node16 -->
<g id="node17" class="node">
<title>Node16</title>
<g id="a_node17"><a xlink:href="stateMachine_8hpp.html" target="_top" xlink:title="stateMachine.hpp">
<polygon fill="none" stroke="#000000" points="1035,-112.5 1035,-131.5 1129,-131.5 1129,-112.5 1035,-112.5"/>
<text text-anchor="middle" x="1082" y="-119.5" font-family="Helvetica,sans-Serif" font-size="10.00" fill="#000000">stateMachine.hpp</text>
</a>
</g>
</g>
<!-- Node0&#45;&gt;Node16 -->
<g id="edge19" class="edge">
<title>Node0&#45;&gt;Node16</title>
<path fill="none" stroke="#191970" d="M511.0094,-233.4282C595.035,-226.0559 732.3776,-211.5921 849,-188 918.872,-173.8652 998.4015,-149.5008 1044.1431,-134.6585"/>
<polygon fill="#191970" stroke="#191970" points="1045.2304,-137.9854 1053.6491,-131.5529 1043.0565,-131.3315 1045.2304,-137.9854"/>
</g>
<!-- Node29 -->
<g id="node30" class="node">
<title>Node29</title>
<g id="a_node30"><a xlink:href="helloBye3MemPool_8cpp.html" target="_top" xlink:title="../src/helloBye3MemPool.cpp">
<polygon fill="none" stroke="#000000" points="259.5,-168.5 259.5,-187.5 404.5,-187.5 404.5,-168.5 259.5,-168.5"/>
<text text-anchor="middle" x="332" y="-175.5" font-family="Helvetica,sans-Serif" font-size="10.00" fill="#000000">../src/helloBye3MemPool.cpp</text>
</a>
</g>
</g>
<!-- Node0&#45;&gt;Node29 -->
<g id="edge42" class="edge">
<title>Node0&#45;&gt;Node29</title>
<path fill="none" stroke="#191970" d="M402.3955,-224.4554C385.7483,-215.0041 365.7713,-202.8469 351.2607,-193.34"/>
<polygon fill="#191970" stroke="#191970" points="352.8582,-190.1969 342.6044,-187.5303 348.9572,-196.0093 352.8582,-190.1969"/>
</g>
<!-- Node4 -->
<g id="node5" class="node">
<title>Node4</title>
<polygon fill="none" stroke="#bfbfbf" points="328,-.5 328,-19.5 366,-19.5 366,-.5 328,-.5"/>
<text text-anchor="middle" x="347" y="-7.5" font-family="Helvetica,sans-Serif" font-size="10.00" fill="#000000">array</text>
</g>
<!-- Node3&#45;&gt;Node4 -->
<g id="edge4" class="edge">
<title>Node3&#45;&gt;Node4</title>
<path fill="none" stroke="#191970" d="M651.0649,-61.5824C593.9388,-54.4783 480.8392,-39.3315 386,-20 382.781,-19.3438 379.4293,-18.5916 376.1023,-17.8006"/>
<polygon fill="#191970" stroke="#191970" points="376.9022,-14.3929 366.3524,-15.3688 375.2081,-21.1848 376.9022,-14.3929"/>
</g>
<!-- Node5 -->
<g id="node6" class="node">
<title>Node5</title>
<polygon fill="none" stroke="#bfbfbf" points="1166.5,-.5 1166.5,-19.5 1215.5,-19.5 1215.5,-.5 1166.5,-.5"/>
<text text-anchor="middle" x="1191" y="-7.5" font-family="Helvetica,sans-Serif" font-size="10.00" fill="#000000">cassert</text>
</g>
<!-- Node3&#45;&gt;Node5 -->
<g id="edge5" class="edge">
<title>Node3&#45;&gt;Node5</title>
<path fill="none" stroke="#191970" d="M724.7686,-57.4566C727.5467,-56.9254 730.3134,-56.4319 733,-56 889.7418,-30.804 1079.0173,-17.0121 1155.9478,-12.0975"/>
<polygon fill="#191970" stroke="#191970" points="1156.2817,-15.5836 1166.0423,-11.4627 1155.8423,-8.5974 1156.2817,-15.5836"/>
</g>
<!-- Node7 -->
<g id="node8" class="node">
<title>Node7</title>
<polygon fill="none" stroke="#bfbfbf" points="464.5,-.5 464.5,-19.5 523.5,-19.5 523.5,-.5 464.5,-.5"/>
<text text-anchor="middle" x="494" y="-7.5" font-family="Helvetica,sans-Serif" font-size="10.00" fill="#000000">exception</text>
</g>
<!-- Node6&#45;&gt;Node7 -->
<g id="edge7" class="edge">
<title>Node6&#45;&gt;Node7</title>
<path fill="none" stroke="#191970" d="M742.2538,-57.8022C739.1226,-57.1911 736.0114,-56.585 733,-56 662.8618,-42.3741 581.1067,-26.6794 533.6813,-17.5936"/>
<polygon fill="#191970" stroke="#191970" points="534.2943,-14.1475 523.8144,-15.7038 532.9774,-21.0225 534.2943,-14.1475"/>
</g>
<!-- Node8 -->
<g id="node9" class="node">
<title>Node8</title>
<polygon fill="none" stroke="#bfbfbf" points="754.5,-.5 754.5,-19.5 813.5,-19.5 813.5,-.5 754.5,-.5"/>
<text text-anchor="middle" x="784" y="-7.5" font-family="Helvetica,sans-Serif" font-size="10.00" fill="#000000">stdexcept</text>
</g>
<!-- Node6&#45;&gt;Node8 -->
<g id="edge8" class="edge">
<title>Node6&#45;&gt;Node8</title>
<path fill="none" stroke="#191970" d="M784,-56.2455C784,-48.9382 784,-38.6944 784,-29.7046"/>
<polygon fill="#191970" stroke="#191970" points="787.5001,-29.6426 784,-19.6427 780.5001,-29.6427 787.5001,-29.6426"/>
</g>
<!-- Node9&#45;&gt;Node2 -->
<g id="edge13" class="edge">
<title>Node9&#45;&gt;Node2</title>
<path fill="none" stroke="#191970" d="M151.8703,-56.3733C126.9232,-47.1822 89.1408,-33.2624 61.4794,-23.0713"/>
<polygon fill="#191970" stroke="#191970" points="62.3822,-19.674 51.7888,-19.5011 59.9622,-26.2424 62.3822,-19.674"/>
</g>
<!-- Node9&#45;&gt;Node4 -->
<g id="edge10" class="edge">
<title>Node9&#45;&gt;Node4</title>
<path fill="none" stroke="#191970" d="M207.0521,-56.3733C238.085,-46.0902 286.9817,-29.8877 317.9961,-19.6108"/>
<polygon fill="#191970" stroke="#191970" points="319.3853,-22.8377 327.7768,-16.3698 317.1834,-16.193 319.3853,-22.8377"/>
</g>
<!-- Node10 -->
<g id="node11" class="node">
<title>Node10</title>
<polygon fill="none" stroke="#bfbfbf" points="395,-.5 395,-19.5 441,-19.5 441,-.5 395,-.5"/>
<text text-anchor="middle" x="418" y="-7.5" font-family="Helvetica,sans-Serif" font-size="10.00" fill="#000000">cstdint</text>
</g>
<!-- Node9&#45;&gt;Node10 -->
<g id="edge11" class="edge">
<title>Node9&#45;&gt;Node10</title>
<path fill="none" stroke="#191970" d="M213.1551,-57.7971C259.2972,-47.0307 339.7053,-28.2688 384.8361,-17.7383"/>
<polygon fill="#191970" stroke="#191970" points="385.7643,-21.1158 394.7074,-15.4349 384.1736,-14.2989 385.7643,-21.1158"/>
</g>
<!-- Node11 -->
<g id="node12" class="node">
<title>Node11</title>
<polygon fill="none" stroke="#bfbfbf" points="91,-.5 91,-19.5 137,-19.5 137,-.5 91,-.5"/>
<text text-anchor="middle" x="114" y="-7.5" font-family="Helvetica,sans-Serif" font-size="10.00" fill="#000000">cstring</text>
</g>
<!-- Node9&#45;&gt;Node11 -->
<g id="edge12" class="edge">
<title>Node9&#45;&gt;Node11</title>
<path fill="none" stroke="#191970" d="M166.8521,-56.2455C157.4913,-48.0549 143.9142,-36.1749 132.8651,-26.5069"/>
<polygon fill="#191970" stroke="#191970" points="134.8508,-23.5937 125.0202,-19.6427 130.2412,-28.8618 134.8508,-23.5937"/>
</g>
<!-- Node12 -->
<g id="node13" class="node">
<title>Node12</title>
<polygon fill="none" stroke="#bfbfbf" points="243.5,-.5 243.5,-19.5 284.5,-19.5 284.5,-.5 243.5,-.5"/>
<text text-anchor="middle" x="264" y="-7.5" font-family="Helvetica,sans-Serif" font-size="10.00" fill="#000000">string</text>
</g>
<!-- Node9&#45;&gt;Node12 -->
<g id="edge14" class="edge">
<title>Node9&#45;&gt;Node12</title>
<path fill="none" stroke="#191970" d="M192.9801,-56.2455C206.1751,-47.6534 225.6051,-35.0014 240.8079,-25.1018"/>
<polygon fill="#191970" stroke="#191970" points="242.7215,-28.0325 249.1916,-19.6427 238.9017,-22.1665 242.7215,-28.0325"/>
</g>
<!-- Node13 -->
<g id="node14" class="node">
<title>Node13</title>
<polygon fill="none" stroke="#bfbfbf" points="155,-.5 155,-19.5 217,-19.5 217,-.5 155,-.5"/>
<text text-anchor="middle" x="186" y="-7.5" font-family="Helvetica,sans-Serif" font-size="10.00" fill="#000000">arpa/inet.h</text>
</g>
<!-- Node9&#45;&gt;Node13 -->
<g id="edge15" class="edge">
<title>Node9&#45;&gt;Node13</title>
<path fill="none" stroke="#191970" d="M179.3935,-56.2455C180.4374,-48.9382 181.9008,-38.6944 183.1851,-29.7046"/>
<polygon fill="#191970" stroke="#191970" points="186.673,-30.0372 184.6225,-19.6427 179.7434,-29.0472 186.673,-30.0372"/>
</g>
<!-- Node14&#45;&gt;Node10 -->
<g id="edge17" class="edge">
<title>Node14&#45;&gt;Node10</title>
<path fill="none" stroke="#191970" d="M400.6147,-112.4969C376.6518,-102.9493 343.3274,-87.974 336,-76 320.7885,-51.142 356.3491,-31.6425 385.3288,-20.4717"/>
<polygon fill="#191970" stroke="#191970" points="386.6278,-23.7235 394.8216,-17.0069 384.2277,-17.1478 386.6278,-23.7235"/>
</g>
<!-- Node15 -->
<g id="node16" class="node">
<title>Node15</title>
<polygon fill="none" stroke="#bfbfbf" points="345.5,-56.5 345.5,-75.5 408.5,-75.5 408.5,-56.5 345.5,-56.5"/>
<text text-anchor="middle" x="377" y="-63.5" font-family="Helvetica,sans-Serif" font-size="10.00" fill="#000000">rte_mbuf.h</text>
</g>
<!-- Node14&#45;&gt;Node15 -->
<g id="edge18" class="edge">
<title>Node14&#45;&gt;Node15</title>
<path fill="none" stroke="#191970" d="M417.4649,-112.2455C410.5088,-104.2958 400.5117,-92.8706 392.1949,-83.3656"/>
<polygon fill="#191970" stroke="#191970" points="394.6564,-80.8637 385.4373,-75.6427 389.3884,-85.4732 394.6564,-80.8637"/>
</g>
<!-- Node16&#45;&gt;Node1 -->
<g id="edge27" class="edge">
<title>Node16&#45;&gt;Node1</title>
<path fill="none" stroke="#191970" d="M1058.105,-112.3733C1035.0806,-103.0972 1000.1004,-89.0045 974.7454,-78.7895"/>
<polygon fill="#191970" stroke="#191970" points="975.791,-75.4374 965.2075,-74.9469 973.1751,-81.9303 975.791,-75.4374"/>
</g>
<!-- Node16&#45;&gt;Node3 -->
<g id="edge38" class="edge">
<title>Node16&#45;&gt;Node3</title>
<path fill="none" stroke="#191970" d="M1034.9465,-117.123C969.6233,-110.0608 847.5874,-95.8147 734.6358,-76.1802"/>
<polygon fill="#191970" stroke="#191970" points="735.2391,-72.7327 724.7844,-74.4497 734.028,-79.6271 735.2391,-72.7327"/>
</g>
<!-- Node16&#45;&gt;Node5 -->
<g id="edge20" class="edge">
<title>Node16&#45;&gt;Node5</title>
<path fill="none" stroke="#191970" d="M1114.9613,-112.4965C1134.1557,-105.3688 1157.3801,-93.7392 1172,-76 1182.7708,-62.9311 1187.4386,-44.048 1189.46,-29.825"/>
<polygon fill="#191970" stroke="#191970" points="1192.9683,-29.9398 1190.5798,-19.6177 1186.0101,-29.1764 1192.9683,-29.9398"/>
</g>
<!-- Node16&#45;&gt;Node6 -->
<g id="edge39" class="edge">
<title>Node16&#45;&gt;Node6</title>
<path fill="none" stroke="#191970" d="M1034.8811,-113.4629C987.1106,-104.7623 910.7841,-90.7369 835.8196,-76.3339"/>
<polygon fill="#191970" stroke="#191970" points="836.2147,-72.8457 825.7333,-74.392 834.8913,-79.7195 836.2147,-72.8457"/>
</g>
<!-- Node16&#45;&gt;Node8 -->
<g id="edge29" class="edge">
<title>Node16&#45;&gt;Node8</title>
<path fill="none" stroke="#191970" d="M1073.9041,-112.1749C1061.2395,-97.502 1035.2502,-70.086 1007,-56 947.5956,-26.38 870.1758,-15.8261 823.9334,-12.07"/>
<polygon fill="#191970" stroke="#191970" points="823.9502,-8.5617 813.7181,-11.3102 823.4309,-15.5424 823.9502,-8.5617"/>
</g>
<!-- Node16&#45;&gt;Node10 -->
<g id="edge22" class="edge">
<title>Node16&#45;&gt;Node10</title>
<path fill="none" stroke="#191970" d="M1066.1759,-112.2971C1036.3296,-94.0006 974.6346,-56.2025 974,-56 753.7232,14.294 683.0192,-58.3454 455,-20 453.745,-19.789 452.4711,-19.5536 451.188,-19.2988"/>
<polygon fill="#191970" stroke="#191970" points="451.8646,-15.8633 441.3357,-17.0441 450.3029,-22.6868 451.8646,-15.8633"/>
</g>
<!-- Node17 -->
<g id="node18" class="node">
<title>Node17</title>
<polygon fill="none" stroke="#bfbfbf" points="1059,-56.5 1059,-75.5 1105,-75.5 1105,-56.5 1059,-56.5"/>
<text text-anchor="middle" x="1082" y="-63.5" font-family="Helvetica,sans-Serif" font-size="10.00" fill="#000000">chrono</text>
</g>
<!-- Node16&#45;&gt;Node17 -->
<g id="edge21" class="edge">
<title>Node16&#45;&gt;Node17</title>
<path fill="none" stroke="#191970" d="M1082,-112.2455C1082,-104.9382 1082,-94.6944 1082,-85.7046"/>
<polygon fill="#191970" stroke="#191970" points="1085.5001,-85.6426 1082,-75.6427 1078.5001,-85.6427 1085.5001,-85.6426"/>
</g>
<!-- Node18 -->
<g id="node19" class="node">
<title>Node18</title>
<polygon fill="none" stroke="#bfbfbf" points="843.5,-56.5 843.5,-75.5 902.5,-75.5 902.5,-56.5 843.5,-56.5"/>
<text text-anchor="middle" x="873" y="-63.5" font-family="Helvetica,sans-Serif" font-size="10.00" fill="#000000">functional</text>
</g>
<!-- Node16&#45;&gt;Node18 -->
<g id="edge23" class="edge">
<title>Node16&#45;&gt;Node18</title>
<path fill="none" stroke="#191970" d="M1046.0716,-112.3733C1008.895,-102.412 950.9878,-86.8963 912.5342,-76.5929"/>
<polygon fill="#191970" stroke="#191970" points="913.2852,-73.1707 902.72,-73.9633 911.4735,-79.9322 913.2852,-73.1707"/>
</g>
<!-- Node19 -->
<g id="node20" class="node">
<title>Node19</title>
<polygon fill="none" stroke="#bfbfbf" points="541,-56.5 541,-75.5 595,-75.5 595,-56.5 541,-56.5"/>
<text text-anchor="middle" x="568" y="-63.5" font-family="Helvetica,sans-Serif" font-size="10.00" fill="#000000">iostream</text>
</g>
<!-- Node16&#45;&gt;Node19 -->
<g id="edge24" class="edge">
<title>Node16&#45;&gt;Node19</title>
<path fill="none" stroke="#191970" d="M1034.74,-117.5309C954.1027,-109.7999 784.7965,-93.1088 642,-76 629.9537,-74.5567 616.8254,-72.8322 605.0162,-71.2251"/>
<polygon fill="#191970" stroke="#191970" points="605.4219,-67.748 595.0383,-69.8529 604.4682,-74.6827 605.4219,-67.748"/>
</g>
<!-- Node20 -->
<g id="node21" class="node">
<title>Node20</title>
<polygon fill="none" stroke="#bfbfbf" points="1123,-56.5 1123,-75.5 1163,-75.5 1163,-56.5 1123,-56.5"/>
<text text-anchor="middle" x="1143" y="-63.5" font-family="Helvetica,sans-Serif" font-size="10.00" fill="#000000">limits</text>
</g>
<!-- Node16&#45;&gt;Node20 -->
<g id="edge25" class="edge">
<title>Node16&#45;&gt;Node20</title>
<path fill="none" stroke="#191970" d="M1092.6254,-112.2455C1101.5473,-104.0549 1114.488,-92.1749 1125.0192,-82.5069"/>
<polygon fill="#191970" stroke="#191970" points="1127.4968,-84.9837 1132.4964,-75.6427 1122.7629,-79.8271 1127.4968,-84.9837"/>
</g>
<!-- Node21 -->
<g id="node22" class="node">
<title>Node21</title>
<polygon fill="none" stroke="#bfbfbf" points="1219,-56.5 1219,-75.5 1271,-75.5 1271,-56.5 1219,-56.5"/>
<text text-anchor="middle" x="1245" y="-63.5" font-family="Helvetica,sans-Serif" font-size="10.00" fill="#000000">memory</text>
</g>
<!-- Node16&#45;&gt;Node21 -->
<g id="edge26" class="edge">
<title>Node16&#45;&gt;Node21</title>
<path fill="none" stroke="#191970" d="M1110.0207,-112.3733C1137.4985,-102.933 1179.497,-88.5041 1209.3414,-78.2508"/>
<polygon fill="#191970" stroke="#191970" points="1210.6379,-81.5063 1218.9581,-74.9469 1208.3634,-74.8861 1210.6379,-81.5063"/>
</g>
<!-- Node22 -->
<g id="node23" class="node">
<title>Node22</title>
<polygon fill="none" stroke="#bfbfbf" points="1289.5,-56.5 1289.5,-75.5 1332.5,-75.5 1332.5,-56.5 1289.5,-56.5"/>
<text text-anchor="middle" x="1311" y="-63.5" font-family="Helvetica,sans-Serif" font-size="10.00" fill="#000000">queue</text>
</g>
<!-- Node16&#45;&gt;Node22 -->
<g id="edge28" class="edge">
<title>Node16&#45;&gt;Node22</title>
<path fill="none" stroke="#191970" d="M1127.887,-112.4811C1166.0688,-104.3038 1222.0195,-91.7297 1279.7365,-75.9"/>
<polygon fill="#191970" stroke="#191970" points="1280.6867,-79.2687 1289.3895,-73.2262 1278.8181,-72.5227 1280.6867,-79.2687"/>
</g>
<!-- Node23 -->
<g id="node24" class="node">
<title>Node23</title>
<polygon fill="none" stroke="#bfbfbf" points="1350.5,-56.5 1350.5,-75.5 1433.5,-75.5 1433.5,-56.5 1350.5,-56.5"/>
<text text-anchor="middle" x="1392" y="-63.5" font-family="Helvetica,sans-Serif" font-size="10.00" fill="#000000">unordered_map</text>
</g>
<!-- Node16&#45;&gt;Node23 -->
<g id="edge30" class="edge">
<title>Node16&#45;&gt;Node23</title>
<path fill="none" stroke="#191970" d="M1129.3076,-113.8589C1179.1364,-105.2255 1260.1641,-91.0219 1340.0251,-76.1572"/>
<polygon fill="#191970" stroke="#191970" points="1341.0749,-79.5218 1350.2631,-74.2467 1339.7907,-72.6406 1341.0749,-79.5218"/>
</g>
<!-- Node24 -->
<g id="node25" class="node">
<title>Node24</title>
<polygon fill="none" stroke="#bfbfbf" points="1527,-.5 1527,-19.5 1571,-19.5 1571,-.5 1527,-.5"/>
<text text-anchor="middle" x="1549" y="-7.5" font-family="Helvetica,sans-Serif" font-size="10.00" fill="#000000">vector</text>
</g>
<!-- Node16&#45;&gt;Node24 -->
<g id="edge31" class="edge">
<title>Node16&#45;&gt;Node24</title>
<path fill="none" stroke="#191970" d="M1129.2011,-120.1922C1238.4853,-115.5838 1501.8945,-101.8914 1532,-76 1545.0107,-64.8105 1548.7358,-45.1163 1549.5205,-30.1451"/>
<polygon fill="#191970" stroke="#191970" points="1553.0241,-29.8802 1549.6526,-19.8362 1546.0247,-29.7905 1553.0241,-29.8802"/>
</g>
<!-- Node25 -->
<g id="node26" class="node">
<title>Node25</title>
<g id="a_node26"><a xlink:href="bufArray_8hpp.html" target="_top" xlink:title="bufArray.hpp">
<polygon fill="none" stroke="#000000" points="1451.5,-56.5 1451.5,-75.5 1522.5,-75.5 1522.5,-56.5 1451.5,-56.5"/>
<text text-anchor="middle" x="1487" y="-63.5" font-family="Helvetica,sans-Serif" font-size="10.00" fill="#000000">bufArray.hpp</text>
</a>
</g>
</g>
<!-- Node16&#45;&gt;Node25 -->
<g id="edge32" class="edge">
<title>Node16&#45;&gt;Node25</title>
<path fill="none" stroke="#191970" d="M1129.2376,-117.454C1196.5137,-110.6557 1323.957,-96.5821 1441.1788,-76.2044"/>
<polygon fill="#191970" stroke="#191970" points="1441.7963,-79.6496 1451.0392,-74.4708 1440.5842,-72.7553 1441.7963,-79.6496"/>
</g>
<!-- Node27 -->
<g id="node28" class="node">
<title>Node27</title>
<g id="a_node28"><a xlink:href="spinlock_8hpp.html" target="_top" xlink:title="spinlock.hpp">
<polygon fill="none" stroke="#000000" points="1579.5,-56.5 1579.5,-75.5 1650.5,-75.5 1650.5,-56.5 1579.5,-56.5"/>
<text text-anchor="middle" x="1615" y="-63.5" font-family="Helvetica,sans-Serif" font-size="10.00" fill="#000000">spinlock.hpp</text>
</a>
</g>
</g>
<!-- Node16&#45;&gt;Node27 -->
<g id="edge40" class="edge">
<title>Node16&#45;&gt;Node27</title>
<path fill="none" stroke="#191970" d="M1129.1581,-119.1193C1215.8052,-113.4692 1406.0379,-99.403 1565,-76 1566.4506,-75.7864 1567.9227,-75.5587 1569.4076,-75.3194"/>
<polygon fill="#191970" stroke="#191970" points="1570.0441,-78.7613 1579.2981,-73.6025 1568.8468,-71.8645 1570.0441,-78.7613"/>
</g>
<!-- Node25&#45;&gt;Node5 -->
<g id="edge33" class="edge">
<title>Node25&#45;&gt;Node5</title>
<path fill="none" stroke="#191970" d="M1451.4868,-57.7913C1448.6186,-57.1703 1445.7628,-56.5658 1443,-56 1365.6756,-40.1634 1274.4472,-24.1761 1225.7574,-15.8586"/>
<polygon fill="#191970" stroke="#191970" points="1226.1944,-12.3827 1215.7488,-14.1547 1225.0196,-19.2834 1226.1944,-12.3827"/>
</g>
<!-- Node25&#45;&gt;Node8 -->
<g id="edge35" class="edge">
<title>Node25&#45;&gt;Node8</title>
<path fill="none" stroke="#191970" d="M1451.0666,-57.36C1448.346,-56.8511 1445.6349,-56.389 1443,-56 1210.142,-21.6204 927.0904,-12.7997 823.9918,-10.6534"/>
<polygon fill="#191970" stroke="#191970" points="823.7999,-7.149 813.7323,-10.4498 823.6609,-14.1476 823.7999,-7.149"/>
</g>
<!-- Node25&#45;&gt;Node10 -->
<g id="edge34" class="edge">
<title>Node25&#45;&gt;Node10</title>
<path fill="none" stroke="#191970" d="M1451.0804,-57.261C1448.3566,-56.775 1445.641,-56.3451 1443,-56 1007.3023,.9393 889.4559,-85.7471 455,-20 453.7417,-19.8096 452.465,-19.5918 451.1795,-19.3518"/>
<polygon fill="#191970" stroke="#191970" points="451.8376,-15.9128 441.3168,-17.1627 450.3208,-22.7465 451.8376,-15.9128"/>
</g>
<!-- Node25&#45;&gt;Node24 -->
<g id="edge37" class="edge">
<title>Node25&#45;&gt;Node24</title>
<path fill="none" stroke="#191970" d="M1497.7996,-56.2455C1506.8678,-48.0549 1520.0206,-36.1749 1530.7245,-26.5069"/>
<polygon fill="#191970" stroke="#191970" points="1533.2491,-28.9429 1538.3242,-19.6427 1528.5571,-23.7482 1533.2491,-28.9429"/>
</g>
<!-- Node26 -->
<g id="node27" class="node">
<title>Node26</title>
<polygon fill="none" stroke="#bfbfbf" points="1467,-.5 1467,-19.5 1507,-19.5 1507,-.5 1467,-.5"/>
<text text-anchor="middle" x="1487" y="-7.5" font-family="Helvetica,sans-Serif" font-size="10.00" fill="#000000">utility</text>
</g>
<!-- Node25&#45;&gt;Node26 -->
<g id="edge36" class="edge">
<title>Node25&#45;&gt;Node26</title>
<path fill="none" stroke="#191970" d="M1487,-56.2455C1487,-48.9382 1487,-38.6944 1487,-29.7046"/>
<polygon fill="#191970" stroke="#191970" points="1490.5001,-29.6426 1487,-19.6427 1483.5001,-29.6427 1490.5001,-29.6426"/>
</g>
<!-- Node28 -->
<g id="node29" class="node">
<title>Node28</title>
<polygon fill="none" stroke="#bfbfbf" points="1592,-.5 1592,-19.5 1638,-19.5 1638,-.5 1592,-.5"/>
<text text-anchor="middle" x="1615" y="-7.5" font-family="Helvetica,sans-Serif" font-size="10.00" fill="#000000">atomic</text>
</g>
<!-- Node27&#45;&gt;Node28 -->
<g id="edge41" class="edge">
<title>Node27&#45;&gt;Node28</title>
<path fill="none" stroke="#191970" d="M1615,-56.2455C1615,-48.9382 1615,-38.6944 1615,-29.7046"/>
<polygon fill="#191970" stroke="#191970" points="1618.5001,-29.6426 1615,-19.6427 1611.5001,-29.6427 1618.5001,-29.6426"/>
</g>
<!-- Node29&#45;&gt;Node0 -->
<g id="edge60" class="edge">
<title>Node29&#45;&gt;Node0</title>
<path fill="none" stroke="#191970" d="M352.9428,-187.6633C368.1614,-195.9505 388.6964,-208.1797 405.2329,-218.6789"/>
<polygon fill="#191970" stroke="#191970" points="403.6481,-221.8214 413.9494,-224.2977 407.4408,-215.9378 403.6481,-221.8214"/>
</g>
<!-- Node29&#45;&gt;Node2 -->
<g id="edge44" class="edge">
<title>Node29&#45;&gt;Node2</title>
<path fill="none" stroke="#191970" d="M259.184,-174.5918C184.4365,-169.6973 74.5849,-158.1828 42,-132 12.1431,-108.0093 16.26,-57.7791 21.4073,-29.8327"/>
<polygon fill="#191970" stroke="#191970" points="24.9097,-30.1791 23.5074,-19.6774 18.0547,-28.7614 24.9097,-30.1791"/>
</g>
<!-- Node29&#45;&gt;Node8 -->
<g id="edge45" class="edge">
<title>Node29&#45;&gt;Node8</title>
<path fill="none" stroke="#191970" d="M404.746,-173.0918C474.3476,-167.1065 573.1595,-154.8349 604,-132 634.3508,-109.5277 613.3659,-80.6224 642,-56 670.8628,-31.181 713.3563,-19.6989 744.3346,-14.4199"/>
<polygon fill="#191970" stroke="#191970" points="745.0207,-17.8553 754.3625,-12.8571 743.9428,-10.9388 745.0207,-17.8553"/>
</g>
<!-- Node29&#45;&gt;Node9 -->
<g id="edge59" class="edge">
<title>Node29&#45;&gt;Node9</title>
<path fill="none" stroke="#191970" d="M280.3453,-168.4905C255.9614,-161.7733 227.9142,-150.5409 208,-132 194.7866,-119.6978 186.962,-100.4615 182.6357,-85.9237"/>
<polygon fill="#191970" stroke="#191970" points="185.9273,-84.6818 179.978,-75.915 179.1618,-86.4784 185.9273,-84.6818"/>
</g>
<!-- Node29&#45;&gt;Node14 -->
<g id="edge61" class="edge">
<title>Node29&#45;&gt;Node14</title>
<path fill="none" stroke="#191970" d="M348.3736,-168.2455C362.9308,-159.5731 384.431,-146.7645 401.1152,-136.825"/>
<polygon fill="#191970" stroke="#191970" points="403.0144,-139.7676 409.8141,-131.6427 399.4317,-133.7539 403.0144,-139.7676"/>
</g>
<!-- Node30 -->
<g id="node31" class="node">
<title>Node30</title>
<polygon fill="none" stroke="#bfbfbf" points="29.5,-56.5 29.5,-75.5 74.5,-75.5 74.5,-56.5 29.5,-56.5"/>
<text text-anchor="middle" x="52" y="-63.5" font-family="Helvetica,sans-Serif" font-size="10.00" fill="#000000">cstdlib</text>
</g>
<!-- Node29&#45;&gt;Node30 -->
<g id="edge43" class="edge">
<title>Node29&#45;&gt;Node30</title>
<path fill="none" stroke="#191970" d="M259.4366,-170.7611C181.6521,-162.2655 67.4452,-147.3745 54,-132 43.1756,-119.6223 43.8532,-100.3952 46.5418,-85.8799"/>
<polygon fill="#191970" stroke="#191970" points="50.0089,-86.4193 48.8326,-75.89 43.186,-84.8547 50.0089,-86.4193"/>
</g>
<!-- Node31 -->
<g id="node32" class="node">
<title>Node31</title>
<polygon fill="none" stroke="#bfbfbf" points="217.5,-112.5 217.5,-131.5 280.5,-131.5 280.5,-112.5 217.5,-112.5"/>
<text text-anchor="middle" x="249" y="-119.5" font-family="Helvetica,sans-Serif" font-size="10.00" fill="#000000">rte_errno.h</text>
</g>
<!-- Node29&#45;&gt;Node31 -->
<g id="edge46" class="edge">
<title>Node29&#45;&gt;Node31</title>
<path fill="none" stroke="#191970" d="M317.5425,-168.2455C304.9268,-159.7337 286.4056,-147.2375 271.7955,-137.3801"/>
<polygon fill="#191970" stroke="#191970" points="273.5391,-134.3343 263.2918,-131.6427 269.6239,-140.1371 273.5391,-134.3343"/>
</g>
<!-- Node32 -->
<g id="node33" class="node">
<title>Node32</title>
<polygon fill="none" stroke="#bfbfbf" points="298.5,-112.5 298.5,-131.5 379.5,-131.5 379.5,-112.5 298.5,-112.5"/>
<text text-anchor="middle" x="339" y="-119.5" font-family="Helvetica,sans-Serif" font-size="10.00" fill="#000000">rte_mempool.h</text>
</g>
<!-- Node29&#45;&gt;Node32 -->
<g id="edge47" class="edge">
<title>Node29&#45;&gt;Node32</title>
<path fill="none" stroke="#191970" d="M333.2193,-168.2455C334.1327,-160.9382 335.4132,-150.6944 336.5369,-141.7046"/>
<polygon fill="#191970" stroke="#191970" points="340.0272,-141.9996 337.7947,-131.6427 333.0813,-141.1313 340.0272,-141.9996"/>
</g>
<!-- Node33 -->
<g id="node34" class="node">
<title>Node33</title>
<g id="a_node34"><a xlink:href="IPv4__5TupleL2Ident_8hpp.html" target="_top" xlink:title="IPv4_5TupleL2Ident.hpp">
<polygon fill="none" stroke="#000000" points="473,-112.5 473,-131.5 595,-131.5 595,-112.5 473,-112.5"/>
<text text-anchor="middle" x="534" y="-119.5" font-family="Helvetica,sans-Serif" font-size="10.00" fill="#000000">IPv4_5TupleL2Ident.hpp</text>
</a>
</g>
</g>
<!-- Node29&#45;&gt;Node33 -->
<g id="edge48" class="edge">
<title>Node29&#45;&gt;Node33</title>
<path fill="none" stroke="#191970" d="M366.725,-168.3733C400.7508,-158.9404 452.7437,-144.5265 489.7234,-134.2747"/>
<polygon fill="#191970" stroke="#191970" points="491.0266,-137.5455 499.7281,-131.5011 489.1565,-130.7999 491.0266,-137.5455"/>
</g>
<!-- Node34 -->
<g id="node35" class="node">
<title>Node34</title>
<g id="a_node35"><a xlink:href="samplePacket_8hpp.html" target="_top" xlink:title="samplePacket.hpp">
<polygon fill="none" stroke="#000000" points="63,-112.5 63,-131.5 161,-131.5 161,-112.5 63,-112.5"/>
<text text-anchor="middle" x="112" y="-119.5" font-family="Helvetica,sans-Serif" font-size="10.00" fill="#000000">samplePacket.hpp</text>
</a>
</g>
</g>
<!-- Node29&#45;&gt;Node34 -->
<g id="edge62" class="edge">
<title>Node29&#45;&gt;Node34</title>
<path fill="none" stroke="#191970" d="M294.1807,-168.3733C256.8062,-158.8598 199.5276,-144.2797 159.1929,-134.0127"/>
<polygon fill="#191970" stroke="#191970" points="159.8802,-130.5761 149.3258,-131.5011 158.1534,-137.3598 159.8802,-130.5761"/>
</g>
<!-- Node33&#45;&gt;Node2 -->
<g id="edge53" class="edge">
<title>Node33&#45;&gt;Node2</title>
<path fill="none" stroke="#191970" d="M472.8251,-113.2614C469.503,-112.8251 466.2115,-112.4018 463,-112 317.0427,-93.7403 273.2167,-123.4938 134,-76 100.5167,-64.5772 66.4326,-41.4176 45.7469,-25.8019"/>
<polygon fill="#191970" stroke="#191970" points="47.7984,-22.9641 37.7426,-19.6275 43.5229,-28.5067 47.7984,-22.9641"/>
</g>
<!-- Node33&#45;&gt;Node3 -->
<g id="edge56" class="edge">
<title>Node33&#45;&gt;Node3</title>
<path fill="none" stroke="#191970" d="M560.4735,-112.3733C585.8597,-103.1419 624.3645,-89.1402 652.422,-78.9375"/>
<polygon fill="#191970" stroke="#191970" points="653.6701,-82.2079 661.8719,-75.5011 651.2778,-75.6293 653.6701,-82.2079"/>
</g>
<!-- Node33&#45;&gt;Node6 -->
<g id="edge58" class="edge">
<title>Node33&#45;&gt;Node6</title>
<path fill="none" stroke="#191970" d="M576.6925,-112.4369C619.8278,-102.7746 686.5029,-87.8393 732.5343,-77.5283"/>
<polygon fill="#191970" stroke="#191970" points="733.323,-80.9385 742.3161,-75.3372 731.7929,-74.1077 733.323,-80.9385"/>
</g>
<!-- Node33&#45;&gt;Node7 -->
<g id="edge50" class="edge">
<title>Node33&#45;&gt;Node7</title>
<path fill="none" stroke="#191970" d="M524.0459,-112.4529C515.7396,-103.8023 504.4163,-90.2591 499,-76 493.3893,-61.2294 492.3633,-43.2855 492.6156,-29.8383"/>
<polygon fill="#191970" stroke="#191970" points="496.1157,-29.9119 493.0557,-19.7686 489.1223,-29.6063 496.1157,-29.9119"/>
</g>
<!-- Node33&#45;&gt;Node8 -->
<g id="edge54" class="edge">
<title>Node33&#45;&gt;Node8</title>
<path fill="none" stroke="#191970" d="M530.0815,-112.193C525.1418,-98.0384 518.7841,-71.8468 532,-56 558.5772,-24.1323 680.3124,-14.2816 744.3524,-11.2828"/>
<polygon fill="#191970" stroke="#191970" points="744.6461,-14.7734 754.4849,-10.843 744.3425,-7.78 744.6461,-14.7734"/>
</g>
<!-- Node33&#45;&gt;Node9 -->
<g id="edge57" class="edge">
<title>Node33&#45;&gt;Node9</title>
<path fill="none" stroke="#191970" d="M473.2059,-112.4369C402.2858,-101.2809 286.6802,-83.0958 223.2281,-73.1145"/>
<polygon fill="#191970" stroke="#191970" points="223.555,-69.623 213.1325,-71.5265 222.4672,-76.538 223.555,-69.623"/>
</g>
<!-- Node33&#45;&gt;Node10 -->
<g id="edge49" class="edge">
<title>Node33&#45;&gt;Node10</title>
<path fill="none" stroke="#191970" d="M524.1099,-112.4509C504.3344,-93.3574 459.7079,-50.2697 435.0959,-26.5063"/>
<polygon fill="#191970" stroke="#191970" points="437.4902,-23.9529 427.8651,-19.5249 432.628,-28.9888 437.4902,-23.9529"/>
</g>
<!-- Node33&#45;&gt;Node12 -->
<g id="edge55" class="edge">
<title>Node33&#45;&gt;Node12</title>
<path fill="none" stroke="#191970" d="M479.0639,-112.4784C429.425,-103.2926 360.5068,-88.9181 336,-76 312.9646,-63.8575 291.6576,-42.534 278.2941,-27.4133"/>
<polygon fill="#191970" stroke="#191970" points="280.8911,-25.065 271.7266,-19.7486 275.5756,-29.6197 280.8911,-25.065"/>
</g>
<!-- Node33&#45;&gt;Node18 -->
<g id="edge51" class="edge">
<title>Node33&#45;&gt;Node18</title>
<path fill="none" stroke="#191970" d="M595.2188,-114.4168C653.8698,-106.744 745.0352,-93.7552 833.3424,-75.9689"/>
<polygon fill="#191970" stroke="#191970" points="834.1597,-79.3744 843.2597,-73.9485 832.7622,-72.5153 834.1597,-79.3744"/>
</g>
<!-- Node33&#45;&gt;Node19 -->
<g id="edge52" class="edge">
<title>Node33&#45;&gt;Node19</title>
<path fill="none" stroke="#191970" d="M539.9223,-112.2455C544.6027,-104.5367 551.2673,-93.5598 556.9289,-84.2348"/>
<polygon fill="#191970" stroke="#191970" points="559.9475,-86.007 562.1455,-75.6427 553.9639,-82.3741 559.9475,-86.007"/>
</g>
<!-- Node34&#45;&gt;Node10 -->
<g id="edge63" class="edge">
<title>Node34&#45;&gt;Node10</title>
<path fill="none" stroke="#191970" d="M138.0894,-112.4509C193.8111,-92.0561 324.3284,-44.285 385.4039,-21.9306"/>
<polygon fill="#191970" stroke="#191970" points="386.7459,-25.1665 394.9337,-18.4426 384.3399,-18.593 386.7459,-25.1665"/>
</g>
<!-- Node34&#45;&gt;Node30 -->
<g id="edge64" class="edge">
<title>Node34&#45;&gt;Node30</title>
<path fill="none" stroke="#191970" d="M101.5488,-112.2455C92.7731,-104.0549 80.0446,-92.1749 69.686,-82.5069"/>
<polygon fill="#191970" stroke="#191970" points="72.0301,-79.9072 62.3314,-75.6427 67.2539,-85.0246 72.0301,-79.9072"/>
</g>
</g>
</svg>
