<?xml version="1.0" encoding="UTF-8" standalone="no"?>
<!DOCTYPE svg PUBLIC "-//W3C//DTD SVG 1.1//EN"
 "http://www.w3.org/Graphics/SVG/1.1/DTD/svg11.dtd">
<!-- Generated by graphviz version 2.40.1 (20161225.0304)
 -->
<!-- Title: /home/dominik/uni/MoonState/src/helloBye2Proto.cpp Pages: 1 -->
<svg width="1566pt" height="263pt"
 viewBox="0.00 0.00 1565.50 263.00" xmlns="http://www.w3.org/2000/svg" xmlns:xlink="http://www.w3.org/1999/xlink">
<g id="graph0" class="graph" transform="scale(1 1) rotate(0) translate(4 259)">
<title>/home/dominik/uni/MoonState/src/helloBye2Proto.cpp</title>
<!-- Node0 -->
<g id="node1" class="node">
<title>Node0</title>
<polygon fill="#bfbfbf" stroke="#000000" points="451.5,-224.5 451.5,-254.5 598.5,-254.5 598.5,-224.5 451.5,-224.5"/>
<text text-anchor="start" x="459.5" y="-242.5" font-family="Helvetica,sans-Serif" font-size="10.00" fill="#000000">/home/dominik/uni/MoonState</text>
<text text-anchor="middle" x="525" y="-231.5" font-family="Helvetica,sans-Serif" font-size="10.00" fill="#000000">/src/helloBye2Proto.cpp</text>
</g>
<!-- Node1 -->
<g id="node2" class="node">
<title>Node1</title>
<polygon fill="none" stroke="#bfbfbf" points="910.5,-112.5 910.5,-131.5 955.5,-131.5 955.5,-112.5 910.5,-112.5"/>
<text text-anchor="middle" x="933" y="-119.5" font-family="Helvetica,sans-Serif" font-size="10.00" fill="#000000">cstdlib</text>
</g>
<!-- Node0&#45;&gt;Node1 -->
<g id="edge1" class="edge">
<title>Node0&#45;&gt;Node1</title>
<path fill="none" stroke="#191970" d="M579.2923,-224.4263C650.5671,-204.5378 779.8035,-168.1335 900.5089,-132.0969"/>
<polygon fill="#191970" stroke="#191970" points="901.7174,-135.3887 910.2953,-129.1703 899.7118,-128.6822 901.7174,-135.3887"/>
</g>
<!-- Node2 -->
<g id="node3" class="node">
<title>Node2</title>
<polygon fill="none" stroke="#bfbfbf" points="0,-.5 0,-19.5 52,-19.5 52,-.5 0,-.5"/>
<text text-anchor="middle" x="26" y="-7.5" font-family="Helvetica,sans-Serif" font-size="10.00" fill="#000000">sstream</text>
</g>
<!-- Node0&#45;&gt;Node2 -->
<g id="edge2" class="edge">
<title>Node0&#45;&gt;Node2</title>
<path fill="none" stroke="#191970" d="M451.2676,-232.2322C394.6896,-225.1191 315.3005,-211.7756 249,-188 152.005,-153.2172 110.8274,-156.0955 46,-76 35.3015,-62.7818 30.318,-43.9151 28.0012,-29.7363"/>
<polygon fill="#191970" stroke="#191970" points="31.4373,-29.0225 26.6566,-19.5677 24.4977,-29.9402 31.4373,-29.0225"/>
</g>
<!-- Node3 -->
<g id="node4" class="node">
<title>Node3</title>
<g id="a_node4"><a xlink:href="IPv4__5TupleL2Ident_8hpp.html" target="_top" xlink:title="IPv4_5TupleL2Ident.hpp">
<polygon fill="none" stroke="#000000" points="237,-112.5 237,-131.5 359,-131.5 359,-112.5 237,-112.5"/>
<text text-anchor="middle" x="298" y="-119.5" font-family="Helvetica,sans-Serif" font-size="10.00" fill="#000000">IPv4_5TupleL2Ident.hpp</text>
</a>
</g>
</g>
<!-- Node0&#45;&gt;Node3 -->
<g id="edge3" class="edge">
<title>Node0&#45;&gt;Node3</title>
<path fill="none" stroke="#191970" d="M495.7884,-224.3795C451.7038,-201.5603 368.7531,-158.6233 325.6236,-136.2986"/>
<polygon fill="#191970" stroke="#191970" points="327.045,-133.0933 316.5553,-131.6046 323.8272,-139.3098 327.045,-133.0933"/>
</g>
<!-- Node13 -->
<g id="node14" class="node">
<title>Node13</title>
<g id="a_node14"><a xlink:href="headers_8hpp.html" target="_top" xlink:title="headers.hpp">
<polygon fill="none" stroke="#000000" points="124,-56.5 124,-75.5 194,-75.5 194,-56.5 124,-56.5"/>
<text text-anchor="middle" x="159" y="-63.5" font-family="Helvetica,sans-Serif" font-size="10.00" fill="#000000">headers.hpp</text>
</a>
</g>
</g>
<!-- Node0&#45;&gt;Node13 -->
<g id="edge24" class="edge">
<title>Node0&#45;&gt;Node13</title>
<path fill="none" stroke="#191970" d="M451.2575,-230.7805C379.5568,-219.0139 270.9343,-192.1006 197,-132 181.9744,-119.7858 171.704,-99.9463 165.6656,-85.2035"/>
<polygon fill="#191970" stroke="#191970" points="168.8247,-83.6628 162.0092,-75.5512 162.2787,-86.1426 168.8247,-83.6628"/>
</g>
<!-- Node17 -->
<g id="node18" class="node">
<title>Node17</title>
<g id="a_node18"><a xlink:href="helloBye2Proto_8hpp.html" target="_top" xlink:title="helloBye2Proto.hpp">
<polygon fill="none" stroke="#000000" points="474.5,-168.5 474.5,-187.5 575.5,-187.5 575.5,-168.5 474.5,-168.5"/>
<text text-anchor="middle" x="525" y="-175.5" font-family="Helvetica,sans-Serif" font-size="10.00" fill="#000000">helloBye2Proto.hpp</text>
</a>
</g>
</g>
<!-- Node0&#45;&gt;Node17 -->
<g id="edge25" class="edge">
<title>Node0&#45;&gt;Node17</title>
<path fill="none" stroke="#191970" d="M519.0843,-224.2977C518.1446,-216.2945 517.9987,-206.3843 518.6466,-197.7889"/>
<polygon fill="#191970" stroke="#191970" points="522.1218,-198.2044 519.8917,-187.8469 515.176,-197.3345 522.1218,-198.2044"/>
</g>
<!-- Node30 -->
<g id="node31" class="node">
<title>Node30</title>
<g id="a_node31"><a xlink:href="mbuf_8hpp.html" target="_top" xlink:title="mbuf.hpp">
<polygon fill="none" stroke="#000000" points="1437.5,-168.5 1437.5,-187.5 1494.5,-187.5 1494.5,-168.5 1437.5,-168.5"/>
<text text-anchor="middle" x="1466" y="-175.5" font-family="Helvetica,sans-Serif" font-size="10.00" fill="#000000">mbuf.hpp</text>
</a>
</g>
</g>
<!-- Node0&#45;&gt;Node30 -->
<g id="edge55" class="edge">
<title>Node0&#45;&gt;Node30</title>
<path fill="none" stroke="#191970" d="M598.8387,-234.6742C787.9915,-222.3119 1285.0572,-189.8257 1427.4028,-180.5226"/>
<polygon fill="#191970" stroke="#191970" points="1427.6621,-184.0132 1437.4125,-179.8684 1427.2055,-177.0281 1427.6621,-184.0132"/>
</g>
<!-- Node32 -->
<g id="node33" class="node">
<title>Node32</title>
<g id="a_node33"><a xlink:href="samplePacket_8hpp.html" target="_top" xlink:title="samplePacket.hpp">
<polygon fill="none" stroke="#000000" points="884,-168.5 884,-187.5 982,-187.5 982,-168.5 884,-168.5"/>
<text text-anchor="middle" x="933" y="-175.5" font-family="Helvetica,sans-Serif" font-size="10.00" fill="#000000">samplePacket.hpp</text>
</a>
</g>
</g>
<!-- Node0&#45;&gt;Node32 -->
<g id="edge58" class="edge">
<title>Node0&#45;&gt;Node32</title>
<path fill="none" stroke="#191970" d="M598.8857,-228.3628C677.7319,-216.4779 801.0841,-197.8844 873.7922,-186.9247"/>
<polygon fill="#191970" stroke="#191970" points="874.339,-190.3819 883.7056,-185.4304 873.2956,-183.4601 874.339,-190.3819"/>
</g>
<!-- Node3&#45;&gt;Node2 -->
<g id="edge8" class="edge">
<title>Node3&#45;&gt;Node2</title>
<path fill="none" stroke="#191970" d="M236.8027,-115.7813C196.2183,-109.7775 142.7657,-98.1717 100,-76 76.5313,-63.8327 54.5912,-42.5142 40.7904,-27.4014"/>
<polygon fill="#191970" stroke="#191970" points="43.2543,-24.9045 34.0026,-19.7413 38.0152,-29.5469 43.2543,-24.9045"/>
</g>
<!-- Node4 -->
<g id="node5" class="node">
<title>Node4</title>
<polygon fill="none" stroke="#bfbfbf" points="1043,-.5 1043,-19.5 1089,-19.5 1089,-.5 1043,-.5"/>
<text text-anchor="middle" x="1066" y="-7.5" font-family="Helvetica,sans-Serif" font-size="10.00" fill="#000000">cstdint</text>
</g>
<!-- Node3&#45;&gt;Node4 -->
<g id="edge4" class="edge">
<title>Node3&#45;&gt;Node4</title>
<path fill="none" stroke="#191970" d="M297.5822,-112.0234C297.5656,-97.1526 299.9947,-69.4817 317,-56 377.4923,-8.042 918.883,-32.3115 1032.8237,-19.4266"/>
<polygon fill="#191970" stroke="#191970" points="1033.3447,-22.8878 1042.7508,-18.0118 1032.3569,-15.9579 1033.3447,-22.8878"/>
</g>
<!-- Node5 -->
<g id="node6" class="node">
<title>Node5</title>
<polygon fill="none" stroke="#bfbfbf" points="373.5,-.5 373.5,-19.5 432.5,-19.5 432.5,-.5 373.5,-.5"/>
<text text-anchor="middle" x="403" y="-7.5" font-family="Helvetica,sans-Serif" font-size="10.00" fill="#000000">exception</text>
</g>
<!-- Node3&#45;&gt;Node5 -->
<g id="edge5" class="edge">
<title>Node3&#45;&gt;Node5</title>
<path fill="none" stroke="#191970" d="M281.0802,-112.4954C260.6148,-99.7713 230.6956,-76.4318 246,-56 253.1878,-46.4041 319.1923,-29.4554 363.3002,-19.0276"/>
<polygon fill="#191970" stroke="#191970" points="364.2323,-22.4041 373.1708,-16.716 362.6362,-15.5885 364.2323,-22.4041"/>
</g>
<!-- Node6 -->
<g id="node7" class="node">
<title>Node6</title>
<polygon fill="none" stroke="#bfbfbf" points="499.5,-56.5 499.5,-75.5 558.5,-75.5 558.5,-56.5 499.5,-56.5"/>
<text text-anchor="middle" x="529" y="-63.5" font-family="Helvetica,sans-Serif" font-size="10.00" fill="#000000">functional</text>
</g>
<!-- Node3&#45;&gt;Node6 -->
<g id="edge6" class="edge">
<title>Node3&#45;&gt;Node6</title>
<path fill="none" stroke="#191970" d="M338.499,-112.4939C375.3369,-103.8031 431.4592,-90.4534 489.4945,-76.0985"/>
<polygon fill="#191970" stroke="#191970" points="490.3376,-79.4955 499.2018,-73.6923 488.6534,-72.7011 490.3376,-79.4955"/>
</g>
<!-- Node7 -->
<g id="node8" class="node">
<title>Node7</title>
<polygon fill="none" stroke="#bfbfbf" points="326,-56.5 326,-75.5 380,-75.5 380,-56.5 326,-56.5"/>
<text text-anchor="middle" x="353" y="-63.5" font-family="Helvetica,sans-Serif" font-size="10.00" fill="#000000">iostream</text>
</g>
<!-- Node3&#45;&gt;Node7 -->
<g id="edge7" class="edge">
<title>Node3&#45;&gt;Node7</title>
<path fill="none" stroke="#191970" d="M307.5803,-112.2455C315.5458,-104.1352 327.0641,-92.4075 336.5079,-82.7919"/>
<polygon fill="#191970" stroke="#191970" points="339.0195,-85.2297 343.5295,-75.6427 334.0253,-80.3247 339.0195,-85.2297"/>
</g>
<!-- Node8 -->
<g id="node9" class="node">
<title>Node8</title>
<polygon fill="none" stroke="#bfbfbf" points="580.5,-.5 580.5,-19.5 639.5,-19.5 639.5,-.5 580.5,-.5"/>
<text text-anchor="middle" x="610" y="-7.5" font-family="Helvetica,sans-Serif" font-size="10.00" fill="#000000">stdexcept</text>
</g>
<!-- Node3&#45;&gt;Node8 -->
<g id="edge9" class="edge">
<title>Node3&#45;&gt;Node8</title>
<path fill="none" stroke="#191970" d="M291.3748,-112.2114C282.7111,-98.0795 270.1721,-71.916 284,-56 302.5589,-34.6385 487.4798,-18.7997 570.2767,-12.7219"/>
<polygon fill="#191970" stroke="#191970" points="570.5973,-16.208 580.3188,-11.996 570.0925,-9.2262 570.5973,-16.208"/>
</g>
<!-- Node9 -->
<g id="node10" class="node">
<title>Node9</title>
<polygon fill="none" stroke="#bfbfbf" points="76.5,-.5 76.5,-19.5 117.5,-19.5 117.5,-.5 76.5,-.5"/>
<text text-anchor="middle" x="97" y="-7.5" font-family="Helvetica,sans-Serif" font-size="10.00" fill="#000000">string</text>
</g>
<!-- Node3&#45;&gt;Node9 -->
<g id="edge10" class="edge">
<title>Node3&#45;&gt;Node9</title>
<path fill="none" stroke="#191970" d="M236.5452,-113.3289C190.3763,-105.6064 132.2535,-92.912 115,-76 102.6989,-63.9423 98.5585,-44.3637 97.2803,-29.6557"/>
<polygon fill="#191970" stroke="#191970" points="100.7707,-29.3748 96.773,-19.5631 93.7795,-29.7262 100.7707,-29.3748"/>
</g>
<!-- Node10 -->
<g id="node11" class="node">
<title>Node10</title>
<g id="a_node11"><a xlink:href="common_8hpp.html" target="_top" xlink:title="common.hpp">
<polygon fill="none" stroke="#000000" points="576.5,-56.5 576.5,-75.5 649.5,-75.5 649.5,-56.5 576.5,-56.5"/>
<text text-anchor="middle" x="613" y="-63.5" font-family="Helvetica,sans-Serif" font-size="10.00" fill="#000000">common.hpp</text>
</a>
</g>
</g>
<!-- Node3&#45;&gt;Node10 -->
<g id="edge11" class="edge">
<title>Node3&#45;&gt;Node10</title>
<path fill="none" stroke="#191970" d="M358.2363,-112.4897C410.6059,-104.0415 488.7568,-91.0037 566.4129,-76.0465"/>
<polygon fill="#191970" stroke="#191970" points="567.2204,-79.4553 576.3721,-74.1171 565.889,-72.583 567.2204,-79.4553"/>
</g>
<!-- Node3&#45;&gt;Node13 -->
<g id="edge14" class="edge">
<title>Node3&#45;&gt;Node13</title>
<path fill="none" stroke="#191970" d="M274.105,-112.3733C251.4918,-103.2629 217.3458,-89.5062 192.1127,-79.3404"/>
<polygon fill="#191970" stroke="#191970" points="193.1666,-75.9917 182.5831,-75.5011 190.5507,-82.4845 193.1666,-75.9917"/>
</g>
<!-- Node16 -->
<g id="node17" class="node">
<title>Node16</title>
<g id="a_node17"><a xlink:href="exceptions_8hpp.html" target="_top" xlink:title="exceptions.hpp">
<polygon fill="none" stroke="#000000" points="398.5,-56.5 398.5,-75.5 481.5,-75.5 481.5,-56.5 398.5,-56.5"/>
<text text-anchor="middle" x="440" y="-63.5" font-family="Helvetica,sans-Serif" font-size="10.00" fill="#000000">exceptions.hpp</text>
</a>
</g>
</g>
<!-- Node3&#45;&gt;Node16 -->
<g id="edge21" class="edge">
<title>Node3&#45;&gt;Node16</title>
<path fill="none" stroke="#191970" d="M322.4107,-112.3733C345.6142,-103.2226 380.7038,-89.3844 406.5142,-79.2057"/>
<polygon fill="#191970" stroke="#191970" points="407.8892,-82.4258 415.9079,-75.5011 405.3211,-75.9139 407.8892,-82.4258"/>
</g>
<!-- Node11 -->
<g id="node12" class="node">
<title>Node11</title>
<polygon fill="none" stroke="#bfbfbf" points="299,-.5 299,-19.5 337,-19.5 337,-.5 299,-.5"/>
<text text-anchor="middle" x="318" y="-7.5" font-family="Helvetica,sans-Serif" font-size="10.00" fill="#000000">array</text>
</g>
<!-- Node10&#45;&gt;Node11 -->
<g id="edge12" class="edge">
<title>Node10&#45;&gt;Node11</title>
<path fill="none" stroke="#191970" d="M576.3682,-57.9033C573.2028,-57.2441 570.0469,-56.6011 567,-56 477.1029,-38.2642 453.8971,-37.7358 364,-20 358.6254,-18.9396 352.9116,-17.749 347.4047,-16.5689"/>
<polygon fill="#191970" stroke="#191970" points="347.7291,-13.0576 337.2134,-14.3498 346.2398,-19.8974 347.7291,-13.0576"/>
</g>
<!-- Node12 -->
<g id="node13" class="node">
<title>Node12</title>
<polygon fill="none" stroke="#bfbfbf" points="855.5,-.5 855.5,-19.5 904.5,-19.5 904.5,-.5 855.5,-.5"/>
<text text-anchor="middle" x="880" y="-7.5" font-family="Helvetica,sans-Serif" font-size="10.00" fill="#000000">cassert</text>
</g>
<!-- Node10&#45;&gt;Node12 -->
<g id="edge13" class="edge">
<title>Node10&#45;&gt;Node12</title>
<path fill="none" stroke="#191970" d="M649.652,-58.0016C652.813,-57.3211 655.9624,-56.6463 659,-56 724.8673,-41.9858 801.88,-26.0602 845.4006,-17.103"/>
<polygon fill="#191970" stroke="#191970" points="846.3679,-20.4774 855.4577,-15.0345 844.9576,-13.621 846.3679,-20.4774"/>
</g>
<!-- Node13&#45;&gt;Node2 -->
<g id="edge18" class="edge">
<title>Node13&#45;&gt;Node2</title>
<path fill="none" stroke="#191970" d="M136.1365,-56.3733C114.595,-47.3032 82.1162,-33.6279 58.0044,-23.4755"/>
<polygon fill="#191970" stroke="#191970" points="59.1397,-20.156 48.5652,-19.5011 56.4233,-26.6075 59.1397,-20.156"/>
</g>
<!-- Node13&#45;&gt;Node4 -->
<g id="edge16" class="edge">
<title>Node13&#45;&gt;Node4</title>
<path fill="none" stroke="#191970" d="M194.0009,-62.8998C219.0507,-60.7544 253.5832,-57.9462 284,-56 613.6212,-34.9096 703.5666,-77.3559 1032.4525,-19.838"/>
<polygon fill="#191970" stroke="#191970" points="1033.5135,-23.2048 1042.7519,-18.0179 1032.2953,-16.3116 1033.5135,-23.2048"/>
</g>
<!-- Node13&#45;&gt;Node9 -->
<g id="edge19" class="edge">
<title>Node13&#45;&gt;Node9</title>
<path fill="none" stroke="#191970" d="M148.2004,-56.2455C139.1322,-48.0549 125.9794,-36.1749 115.2755,-26.5069"/>
<polygon fill="#191970" stroke="#191970" points="117.4429,-23.7482 107.6758,-19.6427 112.7509,-28.9429 117.4429,-23.7482"/>
</g>
<!-- Node13&#45;&gt;Node11 -->
<g id="edge15" class="edge">
<title>Node13&#45;&gt;Node11</title>
<path fill="none" stroke="#191970" d="M186.3331,-56.3733C215.0851,-46.2468 260.1358,-30.3799 289.3676,-20.0844"/>
<polygon fill="#191970" stroke="#191970" points="290.7255,-23.3169 298.9948,-16.6936 288.4,-16.7145 290.7255,-23.3169"/>
</g>
<!-- Node14 -->
<g id="node15" class="node">
<title>Node14</title>
<polygon fill="none" stroke="#bfbfbf" points="136,-.5 136,-19.5 182,-19.5 182,-.5 136,-.5"/>
<text text-anchor="middle" x="159" y="-7.5" font-family="Helvetica,sans-Serif" font-size="10.00" fill="#000000">cstring</text>
</g>
<!-- Node13&#45;&gt;Node14 -->
<g id="edge17" class="edge">
<title>Node13&#45;&gt;Node14</title>
<path fill="none" stroke="#191970" d="M159,-56.2455C159,-48.9382 159,-38.6944 159,-29.7046"/>
<polygon fill="#191970" stroke="#191970" points="162.5001,-29.6426 159,-19.6427 155.5001,-29.6427 162.5001,-29.6426"/>
</g>
<!-- Node15 -->
<g id="node16" class="node">
<title>Node15</title>
<polygon fill="none" stroke="#bfbfbf" points="200,-.5 200,-19.5 262,-19.5 262,-.5 200,-.5"/>
<text text-anchor="middle" x="231" y="-7.5" font-family="Helvetica,sans-Serif" font-size="10.00" fill="#000000">arpa/inet.h</text>
</g>
<!-- Node13&#45;&gt;Node15 -->
<g id="edge20" class="edge">
<title>Node13&#45;&gt;Node15</title>
<path fill="none" stroke="#191970" d="M171.5414,-56.2455C182.2787,-47.8943 197.9473,-35.7076 210.5047,-25.9408"/>
<polygon fill="#191970" stroke="#191970" points="212.8575,-28.5449 218.6023,-19.6427 208.5599,-23.0194 212.8575,-28.5449"/>
</g>
<!-- Node16&#45;&gt;Node5 -->
<g id="edge22" class="edge">
<title>Node16&#45;&gt;Node5</title>
<path fill="none" stroke="#191970" d="M433.5551,-56.2455C428.4618,-48.5367 421.2092,-37.5598 415.048,-28.2348"/>
<polygon fill="#191970" stroke="#191970" points="417.8038,-26.0566 409.3711,-19.6427 411.9635,-29.9155 417.8038,-26.0566"/>
</g>
<!-- Node16&#45;&gt;Node8 -->
<g id="edge23" class="edge">
<title>Node16&#45;&gt;Node8</title>
<path fill="none" stroke="#191970" d="M469.224,-56.3733C497.4925,-47.0613 540.4965,-32.8953 571.5344,-22.671"/>
<polygon fill="#191970" stroke="#191970" points="572.7544,-25.9542 581.1573,-19.5011 570.5643,-19.3056 572.7544,-25.9542"/>
</g>
<!-- Node17&#45;&gt;Node0 -->
<g id="edge54" class="edge">
<title>Node17&#45;&gt;Node0</title>
<path fill="none" stroke="#191970" d="M530.1083,-187.8469C531.4704,-194.9883 531.9849,-204.9858 531.6519,-214.2849"/>
<polygon fill="#191970" stroke="#191970" points="528.1584,-214.068 530.9157,-224.2977 535.1396,-214.5813 528.1584,-214.068"/>
</g>
<!-- Node17&#45;&gt;Node2 -->
<g id="edge27" class="edge">
<title>Node17&#45;&gt;Node2</title>
<path fill="none" stroke="#191970" d="M474.4124,-175.1089C409.2424,-170.4353 292.9313,-158.8641 197,-132 136.42,-115.0355 114.6746,-117.0471 67,-76 52.1935,-63.2519 41.0168,-43.8012 34.1024,-29.3135"/>
<polygon fill="#191970" stroke="#191970" points="37.122,-27.4942 29.8299,-19.8081 30.7373,-30.364 37.122,-27.4942"/>
</g>
<!-- Node17&#45;&gt;Node10 -->
<g id="edge28" class="edge">
<title>Node17&#45;&gt;Node10</title>
<path fill="none" stroke="#191970" d="M532.5028,-168.4509C547.3101,-149.6054 580.4833,-107.3849 599.2957,-83.4419"/>
<polygon fill="#191970" stroke="#191970" points="602.09,-85.5505 605.5162,-75.5249 596.5858,-81.2257 602.09,-85.5505"/>
</g>
<!-- Node17&#45;&gt;Node13 -->
<g id="edge30" class="edge">
<title>Node17&#45;&gt;Node13</title>
<path fill="none" stroke="#191970" d="M474.3649,-173.8495C401.2798,-167.2392 270.3451,-152.8966 228,-132 205.1352,-120.7166 184.8373,-99.1662 172.2759,-83.7596"/>
<polygon fill="#191970" stroke="#191970" points="174.7395,-81.2293 165.8131,-75.5223 169.2323,-85.5503 174.7395,-81.2293"/>
</g>
<!-- Node17&#45;&gt;Node16 -->
<g id="edge29" class="edge">
<title>Node17&#45;&gt;Node16</title>
<path fill="none" stroke="#191970" d="M517.7529,-168.4509C503.5132,-149.688 471.6889,-107.7548 453.477,-83.758"/>
<polygon fill="#191970" stroke="#191970" points="456.0622,-81.3747 447.2287,-75.5249 450.4862,-85.6065 456.0622,-81.3747"/>
</g>
<!-- Node18 -->
<g id="node19" class="node">
<title>Node18</title>
<polygon fill="none" stroke="#bfbfbf" points="668,-56.5 668,-75.5 712,-75.5 712,-56.5 668,-56.5"/>
<text text-anchor="middle" x="690" y="-63.5" font-family="Helvetica,sans-Serif" font-size="10.00" fill="#000000">mutex</text>
</g>
<!-- Node17&#45;&gt;Node18 -->
<g id="edge26" class="edge">
<title>Node17&#45;&gt;Node18</title>
<path fill="none" stroke="#191970" d="M539.0678,-168.4509C567.6838,-149.0268 632.883,-104.7703 667.4753,-81.2895"/>
<polygon fill="#191970" stroke="#191970" points="669.6596,-84.037 675.9678,-75.5249 665.7282,-78.2453 669.6596,-84.037"/>
</g>
<!-- Node19 -->
<g id="node20" class="node">
<title>Node19</title>
<g id="a_node20"><a xlink:href="stateMachine_8hpp.html" target="_top" xlink:title="stateMachine.hpp">
<polygon fill="none" stroke="#000000" points="798,-112.5 798,-131.5 892,-131.5 892,-112.5 798,-112.5"/>
<text text-anchor="middle" x="845" y="-119.5" font-family="Helvetica,sans-Serif" font-size="10.00" fill="#000000">stateMachine.hpp</text>
</a>
</g>
</g>
<!-- Node17&#45;&gt;Node19 -->
<g id="edge31" class="edge">
<title>Node17&#45;&gt;Node19</title>
<path fill="none" stroke="#191970" d="M575.705,-169.1266C633.4302,-159.0247 727.5126,-142.5603 787.8076,-132.0087"/>
<polygon fill="#191970" stroke="#191970" points="788.6723,-135.4106 797.9193,-130.2391 787.4656,-128.5154 788.6723,-135.4106"/>
</g>
<!-- Node19&#45;&gt;Node4 -->
<g id="edge34" class="edge">
<title>Node19&#45;&gt;Node4</title>
<path fill="none" stroke="#191970" d="M892.0014,-113.2549C895.0417,-112.7981 898.0609,-112.3743 901,-112 952.8457,-105.3979 1334.4858,-114.3447 1370,-76 1376.0401,-69.4785 1375.8586,-62.685 1370,-56 1331.6981,-12.2948 1173.3992,-31.1367 1099.5525,-19.7037"/>
<polygon fill="#191970" stroke="#191970" points="1099.7671,-16.1832 1089.2942,-17.7861 1098.4808,-23.0641 1099.7671,-16.1832"/>
</g>
<!-- Node19&#45;&gt;Node6 -->
<g id="edge35" class="edge">
<title>Node19&#45;&gt;Node6</title>
<path fill="none" stroke="#191970" d="M797.5255,-115.5222C744.0397,-107.9182 654.3371,-94.2476 568.6897,-76.228"/>
<polygon fill="#191970" stroke="#191970" points="569.3172,-72.7832 558.8077,-74.1253 567.8603,-79.6299 569.3172,-72.7832"/>
</g>
<!-- Node19&#45;&gt;Node7 -->
<g id="edge36" class="edge">
<title>Node19&#45;&gt;Node7</title>
<path fill="none" stroke="#191970" d="M797.6865,-119.8866C716.2272,-115.671 544.1999,-104.241 390.1317,-75.9247"/>
<polygon fill="#191970" stroke="#191970" points="390.4832,-72.4299 380.0106,-74.035 389.1984,-79.311 390.4832,-72.4299"/>
</g>
<!-- Node19&#45;&gt;Node8 -->
<g id="edge41" class="edge">
<title>Node19&#45;&gt;Node8</title>
<path fill="none" stroke="#191970" d="M827.1337,-112.4323C794.0972,-94.7487 726.3205,-58.5113 721,-56 695.6938,-44.0555 666.4294,-31.998 644.3041,-23.2257"/>
<polygon fill="#191970" stroke="#191970" points="645.5737,-19.9641 634.9866,-19.5581 643.0098,-26.4777 645.5737,-19.9641"/>
</g>
<!-- Node19&#45;&gt;Node10 -->
<g id="edge50" class="edge">
<title>Node19&#45;&gt;Node10</title>
<path fill="none" stroke="#191970" d="M805.3814,-112.4369C765.0045,-102.6907 702.402,-87.5798 659.6526,-77.261"/>
<polygon fill="#191970" stroke="#191970" points="660.3177,-73.8211 649.7756,-74.8769 658.6752,-80.6256 660.3177,-73.8211"/>
</g>
<!-- Node19&#45;&gt;Node12 -->
<g id="edge32" class="edge">
<title>Node19&#45;&gt;Node12</title>
<path fill="none" stroke="#191970" d="M848.2786,-112.1487C851.3584,-102.8474 856.0684,-88.5003 860,-76 864.8832,-60.4742 870.2197,-42.8271 874.1512,-29.6894"/>
<polygon fill="#191970" stroke="#191970" points="877.5787,-30.443 877.0825,-19.8598 870.8706,-28.4426 877.5787,-30.443"/>
</g>
<!-- Node19&#45;&gt;Node16 -->
<g id="edge51" class="edge">
<title>Node19&#45;&gt;Node16</title>
<path fill="none" stroke="#191970" d="M797.7618,-116.9221C731.524,-109.5721 607.0707,-94.9264 491.7603,-76.2096"/>
<polygon fill="#191970" stroke="#191970" points="492.137,-72.7248 481.7028,-74.5628 491.0058,-79.6328 492.137,-72.7248"/>
</g>
<!-- Node19&#45;&gt;Node18 -->
<g id="edge39" class="edge">
<title>Node19&#45;&gt;Node18</title>
<path fill="none" stroke="#191970" d="M818.3546,-112.3733C791.5647,-102.6944 750.2597,-87.7712 721.7783,-77.4812"/>
<polygon fill="#191970" stroke="#191970" points="722.8781,-74.1572 712.2838,-74.0509 720.4995,-80.7407 722.8781,-74.1572"/>
</g>
<!-- Node20 -->
<g id="node21" class="node">
<title>Node20</title>
<polygon fill="none" stroke="#bfbfbf" points="1126,-56.5 1126,-75.5 1172,-75.5 1172,-56.5 1126,-56.5"/>
<text text-anchor="middle" x="1149" y="-63.5" font-family="Helvetica,sans-Serif" font-size="10.00" fill="#000000">chrono</text>
</g>
<!-- Node19&#45;&gt;Node20 -->
<g id="edge33" class="edge">
<title>Node19&#45;&gt;Node20</title>
<path fill="none" stroke="#191970" d="M892.0473,-113.5607C895.0763,-113.0291 898.0806,-112.5051 901,-112 993.3911,-96.0162 1019.9699,-97.9459 1115.8507,-75.7727"/>
<polygon fill="#191970" stroke="#191970" points="1116.7253,-79.1627 1125.6646,-73.4759 1115.1301,-72.3468 1116.7253,-79.1627"/>
</g>
<!-- Node21 -->
<g id="node22" class="node">
<title>Node21</title>
<polygon fill="none" stroke="#bfbfbf" points="1190,-56.5 1190,-75.5 1230,-75.5 1230,-56.5 1190,-56.5"/>
<text text-anchor="middle" x="1210" y="-63.5" font-family="Helvetica,sans-Serif" font-size="10.00" fill="#000000">limits</text>
</g>
<!-- Node19&#45;&gt;Node21 -->
<g id="edge37" class="edge">
<title>Node19&#45;&gt;Node21</title>
<path fill="none" stroke="#191970" d="M892.026,-113.4307C895.0603,-112.9309 898.0715,-112.4495 901,-112 1021.8678,-93.4495 1057.0588,-104.0288 1180.0766,-75.8144"/>
<polygon fill="#191970" stroke="#191970" points="1180.9297,-79.2094 1189.8731,-73.529 1179.3394,-72.3924 1180.9297,-79.2094"/>
</g>
<!-- Node22 -->
<g id="node23" class="node">
<title>Node22</title>
<polygon fill="none" stroke="#bfbfbf" points="1248,-56.5 1248,-75.5 1300,-75.5 1300,-56.5 1248,-56.5"/>
<text text-anchor="middle" x="1274" y="-63.5" font-family="Helvetica,sans-Serif" font-size="10.00" fill="#000000">memory</text>
</g>
<!-- Node19&#45;&gt;Node22 -->
<g id="edge38" class="edge">
<title>Node19&#45;&gt;Node22</title>
<path fill="none" stroke="#191970" d="M892.015,-113.3561C895.052,-112.8746 898.0668,-112.4176 901,-112 1047.3507,-91.1657 1088.9345,-104.2666 1237.7827,-75.9521"/>
<polygon fill="#191970" stroke="#191970" points="1238.5905,-79.3608 1247.7445,-74.0264 1237.2619,-72.4881 1238.5905,-79.3608"/>
</g>
<!-- Node23 -->
<g id="node24" class="node">
<title>Node23</title>
<polygon fill="none" stroke="#bfbfbf" points="1318.5,-56.5 1318.5,-75.5 1361.5,-75.5 1361.5,-56.5 1318.5,-56.5"/>
<text text-anchor="middle" x="1340" y="-63.5" font-family="Helvetica,sans-Serif" font-size="10.00" fill="#000000">queue</text>
</g>
<!-- Node19&#45;&gt;Node23 -->
<g id="edge40" class="edge">
<title>Node19&#45;&gt;Node23</title>
<path fill="none" stroke="#191970" d="M892.0064,-113.294C895.0455,-112.8277 898.0631,-112.391 901,-112 1078.1856,-88.4101 1128.773,-111.3113 1308.4349,-75.6502"/>
<polygon fill="#191970" stroke="#191970" points="1309.3745,-79.0312 1318.4842,-73.6217 1307.9894,-72.1696 1309.3745,-79.0312"/>
</g>
<!-- Node24 -->
<g id="node25" class="node">
<title>Node24</title>
<polygon fill="none" stroke="#bfbfbf" points="768.5,-56.5 768.5,-75.5 851.5,-75.5 851.5,-56.5 768.5,-56.5"/>
<text text-anchor="middle" x="810" y="-63.5" font-family="Helvetica,sans-Serif" font-size="10.00" fill="#000000">unordered_map</text>
</g>
<!-- Node19&#45;&gt;Node24 -->
<g id="edge42" class="edge">
<title>Node19&#45;&gt;Node24</title>
<path fill="none" stroke="#191970" d="M838.9035,-112.2455C834.0855,-104.5367 827.2249,-93.5598 821.3968,-84.2348"/>
<polygon fill="#191970" stroke="#191970" points="824.2947,-82.2677 816.0267,-75.6427 818.3587,-85.9777 824.2947,-82.2677"/>
</g>
<!-- Node25 -->
<g id="node26" class="node">
<title>Node25</title>
<polygon fill="none" stroke="#bfbfbf" points="981,-.5 981,-19.5 1025,-19.5 1025,-.5 981,-.5"/>
<text text-anchor="middle" x="1003" y="-7.5" font-family="Helvetica,sans-Serif" font-size="10.00" fill="#000000">vector</text>
</g>
<!-- Node19&#45;&gt;Node25 -->
<g id="edge43" class="edge">
<title>Node19&#45;&gt;Node25</title>
<path fill="none" stroke="#191970" d="M890.7242,-112.4606C927.3389,-103.9151 974.7012,-90.5201 988,-76 999.2723,-63.6925 1002.6538,-44.726 1003.4306,-30.2778"/>
<polygon fill="#191970" stroke="#191970" points="1006.9365,-29.9273 1003.5961,-19.8728 999.9374,-29.8159 1006.9365,-29.9273"/>
</g>
<!-- Node26 -->
<g id="node27" class="node">
<title>Node26</title>
<g id="a_node27"><a xlink:href="bufArray_8hpp.html" target="_top" xlink:title="bufArray.hpp">
<polygon fill="none" stroke="#000000" points="908.5,-56.5 908.5,-75.5 979.5,-75.5 979.5,-56.5 908.5,-56.5"/>
<text text-anchor="middle" x="944" y="-63.5" font-family="Helvetica,sans-Serif" font-size="10.00" fill="#000000">bufArray.hpp</text>
</a>
</g>
</g>
<!-- Node19&#45;&gt;Node26 -->
<g id="edge44" class="edge">
<title>Node19&#45;&gt;Node26</title>
<path fill="none" stroke="#191970" d="M862.2445,-112.2455C877.5761,-103.5731 900.2199,-90.7645 917.7916,-80.825"/>
<polygon fill="#191970" stroke="#191970" points="919.9724,-83.6126 926.9531,-75.6427 916.5259,-77.5198 919.9724,-83.6126"/>
</g>
<!-- Node28 -->
<g id="node29" class="node">
<title>Node28</title>
<g id="a_node29"><a xlink:href="spinlock_8hpp.html" target="_top" xlink:title="spinlock.hpp">
<polygon fill="none" stroke="#000000" points="1036.5,-56.5 1036.5,-75.5 1107.5,-75.5 1107.5,-56.5 1036.5,-56.5"/>
<text text-anchor="middle" x="1072" y="-63.5" font-family="Helvetica,sans-Serif" font-size="10.00" fill="#000000">spinlock.hpp</text>
</a>
</g>
</g>
<!-- Node19&#45;&gt;Node28 -->
<g id="edge52" class="edge">
<title>Node19&#45;&gt;Node28</title>
<path fill="none" stroke="#191970" d="M883.7648,-112.4369C923.3051,-102.6824 984.6291,-87.5541 1026.4596,-77.2346"/>
<polygon fill="#191970" stroke="#191970" points="1027.5154,-80.5792 1036.386,-74.7858 1025.8387,-73.7829 1027.5154,-80.5792"/>
</g>
<!-- Node26&#45;&gt;Node4 -->
<g id="edge46" class="edge">
<title>Node26&#45;&gt;Node4</title>
<path fill="none" stroke="#191970" d="M964.9725,-56.3733C984.5567,-47.3838 1013.9961,-33.8706 1036.051,-23.7471"/>
<polygon fill="#191970" stroke="#191970" points="1037.6729,-26.8538 1045.3011,-19.5011 1034.7527,-20.4919 1037.6729,-26.8538"/>
</g>
<!-- Node26&#45;&gt;Node8 -->
<g id="edge47" class="edge">
<title>Node26&#45;&gt;Node8</title>
<path fill="none" stroke="#191970" d="M908.2561,-60.007C845.3182,-49.4545 715.1885,-27.6364 649.6093,-16.6411"/>
<polygon fill="#191970" stroke="#191970" points="650.0997,-13.1745 639.6586,-14.9727 648.9422,-20.0782 650.0997,-13.1745"/>
</g>
<!-- Node26&#45;&gt;Node12 -->
<g id="edge45" class="edge">
<title>Node26&#45;&gt;Node12</title>
<path fill="none" stroke="#191970" d="M932.8521,-56.2455C923.4913,-48.0549 909.9142,-36.1749 898.8651,-26.5069"/>
<polygon fill="#191970" stroke="#191970" points="900.8508,-23.5937 891.0202,-19.6427 896.2412,-28.8618 900.8508,-23.5937"/>
</g>
<!-- Node26&#45;&gt;Node25 -->
<g id="edge49" class="edge">
<title>Node26&#45;&gt;Node25</title>
<path fill="none" stroke="#191970" d="M954.277,-56.2455C962.8218,-48.1352 975.1778,-36.4075 985.3085,-26.7919"/>
<polygon fill="#191970" stroke="#191970" points="987.9972,-29.0655 992.8408,-19.6427 983.1782,-23.9884 987.9972,-29.0655"/>
</g>
<!-- Node27 -->
<g id="node28" class="node">
<title>Node27</title>
<polygon fill="none" stroke="#bfbfbf" points="923,-.5 923,-19.5 963,-19.5 963,-.5 923,-.5"/>
<text text-anchor="middle" x="943" y="-7.5" font-family="Helvetica,sans-Serif" font-size="10.00" fill="#000000">utility</text>
</g>
<!-- Node26&#45;&gt;Node27 -->
<g id="edge48" class="edge">
<title>Node26&#45;&gt;Node27</title>
<path fill="none" stroke="#191970" d="M943.8258,-56.2455C943.6953,-48.9382 943.5124,-38.6944 943.3519,-29.7046"/>
<polygon fill="#191970" stroke="#191970" points="946.8503,-29.5786 943.1722,-19.6427 939.8514,-29.7036 946.8503,-29.5786"/>
</g>
<!-- Node29 -->
<g id="node30" class="node">
<title>Node29</title>
<polygon fill="none" stroke="#bfbfbf" points="1107,-.5 1107,-19.5 1153,-19.5 1153,-.5 1107,-.5"/>
<text text-anchor="middle" x="1130" y="-7.5" font-family="Helvetica,sans-Serif" font-size="10.00" fill="#000000">atomic</text>
</g>
<!-- Node28&#45;&gt;Node29 -->
<g id="edge53" class="edge">
<title>Node28&#45;&gt;Node29</title>
<path fill="none" stroke="#191970" d="M1082.1028,-56.2455C1090.5028,-48.1352 1102.6494,-36.4075 1112.6084,-26.7919"/>
<polygon fill="#191970" stroke="#191970" points="1115.25,-29.1066 1120.0129,-19.6427 1110.3878,-24.0707 1115.25,-29.1066"/>
</g>
<!-- Node30&#45;&gt;Node4 -->
<g id="edge56" class="edge">
<title>Node30&#45;&gt;Node4</title>
<path fill="none" stroke="#191970" d="M1464.2861,-168.3751C1459.5224,-144.7326 1443.7581,-83.7204 1404,-56 1350.1385,-18.4465 1179.7527,-32.938 1099.1225,-19.6851"/>
<polygon fill="#191970" stroke="#191970" points="1099.7616,-16.244 1089.2856,-17.8261 1098.4617,-23.1223 1099.7616,-16.244"/>
</g>
<!-- Node31 -->
<g id="node32" class="node">
<title>Node31</title>
<polygon fill="none" stroke="#bfbfbf" points="1494.5,-112.5 1494.5,-131.5 1557.5,-131.5 1557.5,-112.5 1494.5,-112.5"/>
<text text-anchor="middle" x="1526" y="-119.5" font-family="Helvetica,sans-Serif" font-size="10.00" fill="#000000">rte_mbuf.h</text>
</g>
<!-- Node30&#45;&gt;Node31 -->
<g id="edge57" class="edge">
<title>Node30&#45;&gt;Node31</title>
<path fill="none" stroke="#191970" d="M1476.4512,-168.2455C1485.2269,-160.0549 1497.9554,-148.1749 1508.314,-138.5069"/>
<polygon fill="#191970" stroke="#191970" points="1510.7461,-141.0246 1515.6686,-131.6427 1505.9699,-135.9072 1510.7461,-141.0246"/>
</g>
<!-- Node32&#45;&gt;Node1 -->
<g id="edge60" class="edge">
<title>Node32&#45;&gt;Node1</title>
<path fill="none" stroke="#191970" d="M933,-168.2455C933,-160.9382 933,-150.6944 933,-141.7046"/>
<polygon fill="#191970" stroke="#191970" points="936.5001,-141.6426 933,-131.6427 929.5001,-141.6427 936.5001,-141.6426"/>
</g>
<!-- Node32&#45;&gt;Node4 -->
<g id="edge59" class="edge">
<title>Node32&#45;&gt;Node4</title>
<path fill="none" stroke="#191970" d="M982.2239,-174.4818C1089.0597,-165.7166 1336.6508,-138.9163 1387,-76 1392.5539,-69.0598 1392.8841,-62.6626 1387,-56 1345.9996,-9.5754 1176.7105,-31.5918 1099.1604,-19.6328"/>
<polygon fill="#191970" stroke="#191970" points="1099.7594,-16.1843 1089.2896,-17.8073 1098.4863,-23.0676 1099.7594,-16.1843"/>
</g>
</g>
</svg>
