<?xml version="1.0" encoding="UTF-8" standalone="no"?>
<!DOCTYPE svg PUBLIC "-//W3C//DTD SVG 1.1//EN"
 "http://www.w3.org/Graphics/SVG/1.1/DTD/svg11.dtd">
<!-- Generated by graphviz version 2.38.0 (20140413.2041)
 -->
<!-- Title: /home/dominik/uni/MoonState/include/helloBye2_C.hpp Pages: 1 -->
<svg width="1645pt" height="319pt"
 viewBox="0.00 0.00 1644.89 319.00" xmlns="http://www.w3.org/2000/svg" xmlns:xlink="http://www.w3.org/1999/xlink">
<g id="graph0" class="graph" transform="scale(1 1) rotate(0) translate(4 315)">
<title>/home/dominik/uni/MoonState/include/helloBye2_C.hpp</title>
<!-- Node1 -->
<g id="node1" class="node"><title>Node1</title>
<polygon fill="#bfbfbf" stroke="black" points="1354,-280.5 1354,-310.5 1501,-310.5 1501,-280.5 1354,-280.5"/>
<text text-anchor="start" x="1362" y="-298.5" font-family="Helvetica,sans-Serif" font-size="10.00">/home/dominik/uni/MoonState</text>
<text text-anchor="middle" x="1427.5" y="-287.5" font-family="Helvetica,sans-Serif" font-size="10.00">/include/helloBye2_C.hpp</text>
</g>
<!-- Node2 -->
<g id="node2" class="node"><title>Node2</title>
<g id="a_node2"><a xlink:href="helloBye2Proto_8hpp.html" target="_top" xlink:title="helloBye2Proto.hpp">
<polygon fill="none" stroke="black" points="1205,-224.5 1205,-243.5 1306,-243.5 1306,-224.5 1205,-224.5"/>
<text text-anchor="middle" x="1255.5" y="-231.5" font-family="Helvetica,sans-Serif" font-size="10.00">helloBye2Proto.hpp</text>
</a>
</g>
</g>
<!-- Node1&#45;&gt;Node2 -->
<g id="edge1" class="edge"><title>Node1&#45;&gt;Node2</title>
<path fill="none" stroke="midnightblue" d="M1386.74,-280.399C1357.28,-270.207 1317.91,-256.59 1290,-246.935"/>
<polygon fill="midnightblue" stroke="midnightblue" points="1290.87,-243.533 1280.28,-243.571 1288.58,-250.148 1290.87,-243.533"/>
</g>
<!-- Node33 -->
<g id="node33" class="node"><title>Node33</title>
<polygon fill="none" stroke="#bfbfbf" points="1562,-56.5 1562,-75.5 1625,-75.5 1625,-56.5 1562,-56.5"/>
<text text-anchor="middle" x="1593.5" y="-63.5" font-family="Helvetica,sans-Serif" font-size="10.00">rte_mbuf.h</text>
</g>
<!-- Node1&#45;&gt;Node33 -->
<g id="edge61" class="edge"><title>Node1&#45;&gt;Node33</title>
<path fill="none" stroke="midnightblue" d="M1448.25,-280.315C1483.3,-255.077 1553.53,-198.711 1585.5,-132 1592.41,-117.581 1594.14,-99.3899 1594.3,-85.9213"/>
<polygon fill="midnightblue" stroke="midnightblue" points="1597.8,-85.8484 1594.14,-75.905 1590.8,-85.9592 1597.8,-85.8484"/>
</g>
<!-- Node3 -->
<g id="node3" class="node"><title>Node3</title>
<polygon fill="none" stroke="#bfbfbf" points="700.5,-56.5 700.5,-75.5 744.5,-75.5 744.5,-56.5 700.5,-56.5"/>
<text text-anchor="middle" x="722.5" y="-63.5" font-family="Helvetica,sans-Serif" font-size="10.00">mutex</text>
</g>
<!-- Node2&#45;&gt;Node3 -->
<g id="edge2" class="edge"><title>Node2&#45;&gt;Node3</title>
<path fill="none" stroke="midnightblue" d="M1220.06,-224.47C1185.15,-215.894 1130.38,-201.973 1083.5,-188 960.787,-151.427 817.08,-100.92 754.417,-78.5075"/>
<polygon fill="midnightblue" stroke="midnightblue" points="755.318,-75.1122 744.723,-75.0329 752.956,-81.7017 755.318,-75.1122"/>
</g>
<!-- Node4 -->
<g id="node4" class="node"><title>Node4</title>
<polygon fill="none" stroke="#bfbfbf" points="1490.5,-0.5 1490.5,-19.5 1542.5,-19.5 1542.5,-0.5 1490.5,-0.5"/>
<text text-anchor="middle" x="1516.5" y="-7.5" font-family="Helvetica,sans-Serif" font-size="10.00">sstream</text>
</g>
<!-- Node2&#45;&gt;Node4 -->
<g id="edge3" class="edge"><title>Node2&#45;&gt;Node4</title>
<path fill="none" stroke="midnightblue" d="M1306.06,-232.454C1397.76,-228.252 1586.47,-203.84 1634.5,-76 1648.46,-38.8401 1592.04,-22.3823 1552.43,-15.51"/>
<polygon fill="midnightblue" stroke="midnightblue" points="1552.95,-12.049 1542.52,-13.9258 1551.85,-18.9612 1552.95,-12.049"/>
</g>
<!-- Node5 -->
<g id="node5" class="node"><title>Node5</title>
<g id="a_node5"><a xlink:href="common_8hpp.html" target="_top" xlink:title="common.hpp">
<polygon fill="none" stroke="black" points="937,-56.5 937,-75.5 1010,-75.5 1010,-56.5 937,-56.5"/>
<text text-anchor="middle" x="973.5" y="-63.5" font-family="Helvetica,sans-Serif" font-size="10.00">common.hpp</text>
</a>
</g>
</g>
<!-- Node2&#45;&gt;Node5 -->
<g id="edge4" class="edge"><title>Node2&#45;&gt;Node5</title>
<path fill="none" stroke="midnightblue" d="M1240.77,-224.367C1211.02,-206.935 1141.68,-166.273 1083.5,-132 1053.56,-114.366 1019.08,-93.9791 996.825,-80.8082"/>
<polygon fill="midnightblue" stroke="midnightblue" points="998.471,-77.7154 988.083,-75.6344 994.906,-83.7396 998.471,-77.7154"/>
</g>
<!-- Node7 -->
<g id="node7" class="node"><title>Node7</title>
<g id="a_node7"><a xlink:href="exceptions_8hpp.html" target="_top" xlink:title="exceptions.hpp">
<polygon fill="none" stroke="black" points="763,-56.5 763,-75.5 846,-75.5 846,-56.5 763,-56.5"/>
<text text-anchor="middle" x="804.5" y="-63.5" font-family="Helvetica,sans-Serif" font-size="10.00">exceptions.hpp</text>
</a>
</g>
</g>
<!-- Node2&#45;&gt;Node7 -->
<g id="edge6" class="edge"><title>Node2&#45;&gt;Node7</title>
<path fill="none" stroke="midnightblue" d="M1232.2,-224.425C1157.51,-196.932 923.856,-110.932 837.237,-79.0496"/>
<polygon fill="midnightblue" stroke="midnightblue" points="838.252,-75.6937 827.659,-75.5241 835.834,-82.2629 838.252,-75.6937"/>
</g>
<!-- Node10 -->
<g id="node10" class="node"><title>Node10</title>
<g id="a_node10"><a xlink:href="headers_8hpp.html" target="_top" xlink:title="headers.hpp">
<polygon fill="none" stroke="black" points="1295.5,-56.5 1295.5,-75.5 1365.5,-75.5 1365.5,-56.5 1295.5,-56.5"/>
<text text-anchor="middle" x="1330.5" y="-63.5" font-family="Helvetica,sans-Serif" font-size="10.00">headers.hpp</text>
</a>
</g>
</g>
<!-- Node2&#45;&gt;Node10 -->
<g id="edge9" class="edge"><title>Node2&#45;&gt;Node10</title>
<path fill="none" stroke="midnightblue" d="M1254.82,-224.392C1253.6,-203.553 1252.87,-149.357 1274.5,-112 1281.85,-99.3098 1294.26,-88.7845 1305.53,-81.1121"/>
<polygon fill="midnightblue" stroke="midnightblue" points="1307.66,-83.9085 1314.21,-75.5838 1303.89,-78.0045 1307.66,-83.9085"/>
</g>
<!-- Node15 -->
<g id="node15" class="node"><title>Node15</title>
<g id="a_node15"><a xlink:href="stateMachine_8hpp.html" target="_top" xlink:title="stateMachine.hpp">
<polygon fill="none" stroke="black" points="466.5,-112.5 466.5,-131.5 560.5,-131.5 560.5,-112.5 466.5,-112.5"/>
<text text-anchor="middle" x="513.5" y="-119.5" font-family="Helvetica,sans-Serif" font-size="10.00">stateMachine.hpp</text>
</a>
</g>
</g>
<!-- Node2&#45;&gt;Node15 -->
<g id="edge16" class="edge"><title>Node2&#45;&gt;Node15</title>
<path fill="none" stroke="midnightblue" d="M1204.9,-230.525C1118.17,-225.76 935.73,-213.45 783.5,-188 700.577,-174.137 605.349,-149.002 553.053,-134.382"/>
<polygon fill="midnightblue" stroke="midnightblue" points="553.756,-130.945 543.182,-131.605 551.86,-137.683 553.756,-130.945"/>
</g>
<!-- Node29 -->
<g id="node29" class="node"><title>Node29</title>
<g id="a_node29"><a xlink:href="helloBye2Proto_8cpp.html" target="_top" xlink:title="../src/helloBye2Proto.cpp">
<polygon fill="none" stroke="black" points="1315,-168.5 1315,-187.5 1442,-187.5 1442,-168.5 1315,-168.5"/>
<text text-anchor="middle" x="1378.5" y="-175.5" font-family="Helvetica,sans-Serif" font-size="10.00">../src/helloBye2Proto.cpp</text>
</a>
</g>
</g>
<!-- Node2&#45;&gt;Node29 -->
<g id="edge39" class="edge"><title>Node2&#45;&gt;Node29</title>
<path fill="none" stroke="midnightblue" d="M1270.15,-224.324C1288.48,-215.428 1319.97,-201.507 1344.38,-191.439"/>
<polygon fill="midnightblue" stroke="midnightblue" points="1345.73,-194.666 1353.68,-187.655 1343.1,-188.183 1345.73,-194.666"/>
</g>
<!-- Node6 -->
<g id="node6" class="node"><title>Node6</title>
<polygon fill="none" stroke="#bfbfbf" points="1132.5,-0.5 1132.5,-19.5 1178.5,-19.5 1178.5,-0.5 1132.5,-0.5"/>
<text text-anchor="middle" x="1155.5" y="-7.5" font-family="Helvetica,sans-Serif" font-size="10.00">cstdint</text>
</g>
<!-- Node5&#45;&gt;Node6 -->
<g id="edge5" class="edge"><title>Node5&#45;&gt;Node6</title>
<path fill="none" stroke="midnightblue" d="M1002.34,-56.4435C1034.95,-46.768 1087.96,-31.0397 1122.28,-20.8577"/>
<polygon fill="midnightblue" stroke="midnightblue" points="1123.69,-24.0886 1132.28,-17.8886 1121.7,-17.3777 1123.69,-24.0886"/>
</g>
<!-- Node8 -->
<g id="node8" class="node"><title>Node8</title>
<polygon fill="none" stroke="#bfbfbf" points="915,-0.5 915,-19.5 974,-19.5 974,-0.5 915,-0.5"/>
<text text-anchor="middle" x="944.5" y="-7.5" font-family="Helvetica,sans-Serif" font-size="10.00">exception</text>
</g>
<!-- Node7&#45;&gt;Node8 -->
<g id="edge7" class="edge"><title>Node7&#45;&gt;Node8</title>
<path fill="none" stroke="midnightblue" d="M826.683,-56.4435C849.928,-47.4776 886.649,-33.314 912.915,-23.1827"/>
<polygon fill="midnightblue" stroke="midnightblue" points="914.35,-26.3807 922.42,-19.5164 911.831,-19.8497 914.35,-26.3807"/>
</g>
<!-- Node9 -->
<g id="node9" class="node"><title>Node9</title>
<polygon fill="none" stroke="#bfbfbf" points="348,-0.5 348,-19.5 407,-19.5 407,-0.5 348,-0.5"/>
<text text-anchor="middle" x="377.5" y="-7.5" font-family="Helvetica,sans-Serif" font-size="10.00">stdexcept</text>
</g>
<!-- Node7&#45;&gt;Node9 -->
<g id="edge8" class="edge"><title>Node7&#45;&gt;Node9</title>
<path fill="none" stroke="midnightblue" d="M762.782,-57.4435C759.644,-56.9348 756.524,-56.4474 753.5,-56 631.326,-37.9233 485.989,-22.1447 417.271,-15.0255"/>
<polygon fill="midnightblue" stroke="midnightblue" points="417.614,-11.5424 407.308,-13.9984 416.896,-18.5055 417.614,-11.5424"/>
</g>
<!-- Node10&#45;&gt;Node4 -->
<g id="edge13" class="edge"><title>Node10&#45;&gt;Node4</title>
<path fill="none" stroke="midnightblue" d="M1359.97,-56.4435C1392.7,-46.9429 1445.52,-31.6061 1480.63,-21.415"/>
<polygon fill="midnightblue" stroke="midnightblue" points="1481.84,-24.7074 1490.47,-18.558 1479.89,-17.9849 1481.84,-24.7074"/>
</g>
<!-- Node10&#45;&gt;Node6 -->
<g id="edge11" class="edge"><title>Node10&#45;&gt;Node6</title>
<path fill="none" stroke="midnightblue" d="M1302.77,-56.4435C1271.68,-46.8489 1221.29,-31.3021 1188.28,-21.1141"/>
<polygon fill="midnightblue" stroke="midnightblue" points="1189.22,-17.741 1178.63,-18.1368 1187.15,-24.4298 1189.22,-17.741"/>
</g>
<!-- Node11 -->
<g id="node11" class="node"><title>Node11</title>
<polygon fill="none" stroke="#bfbfbf" points="1196.5,-0.5 1196.5,-19.5 1234.5,-19.5 1234.5,-0.5 1196.5,-0.5"/>
<text text-anchor="middle" x="1215.5" y="-7.5" font-family="Helvetica,sans-Serif" font-size="10.00">array</text>
</g>
<!-- Node10&#45;&gt;Node11 -->
<g id="edge10" class="edge"><title>Node10&#45;&gt;Node11</title>
<path fill="none" stroke="midnightblue" d="M1312.28,-56.4435C1293.6,-47.6751 1264.34,-33.9355 1242.88,-23.8579"/>
<polygon fill="midnightblue" stroke="midnightblue" points="1244.18,-20.5988 1233.64,-19.5164 1241.2,-26.935 1244.18,-20.5988"/>
</g>
<!-- Node12 -->
<g id="node12" class="node"><title>Node12</title>
<polygon fill="none" stroke="#bfbfbf" points="1252.5,-0.5 1252.5,-19.5 1298.5,-19.5 1298.5,-0.5 1252.5,-0.5"/>
<text text-anchor="middle" x="1275.5" y="-7.5" font-family="Helvetica,sans-Serif" font-size="10.00">cstring</text>
</g>
<!-- Node10&#45;&gt;Node12 -->
<g id="edge12" class="edge"><title>Node10&#45;&gt;Node12</title>
<path fill="none" stroke="midnightblue" d="M1321.42,-56.083C1313.33,-48.1409 1301.3,-36.3354 1291.59,-26.7973"/>
<polygon fill="midnightblue" stroke="midnightblue" points="1294,-24.2595 1284.41,-19.7511 1289.1,-29.2545 1294,-24.2595"/>
</g>
<!-- Node13 -->
<g id="node13" class="node"><title>Node13</title>
<polygon fill="none" stroke="#bfbfbf" points="1397,-0.5 1397,-19.5 1438,-19.5 1438,-0.5 1397,-0.5"/>
<text text-anchor="middle" x="1417.5" y="-7.5" font-family="Helvetica,sans-Serif" font-size="10.00">string</text>
</g>
<!-- Node10&#45;&gt;Node13 -->
<g id="edge14" class="edge"><title>Node10&#45;&gt;Node13</title>
<path fill="none" stroke="midnightblue" d="M1344.48,-56.324C1358.05,-47.9002 1378.88,-34.9709 1394.82,-25.0741"/>
<polygon fill="midnightblue" stroke="midnightblue" points="1396.91,-27.9019 1403.56,-19.6545 1393.21,-21.9544 1396.91,-27.9019"/>
</g>
<!-- Node14 -->
<g id="node14" class="node"><title>Node14</title>
<polygon fill="none" stroke="#bfbfbf" points="1316.5,-0.5 1316.5,-19.5 1378.5,-19.5 1378.5,-0.5 1316.5,-0.5"/>
<text text-anchor="middle" x="1347.5" y="-7.5" font-family="Helvetica,sans-Serif" font-size="10.00">arpa/inet.h</text>
</g>
<!-- Node10&#45;&gt;Node14 -->
<g id="edge15" class="edge"><title>Node10&#45;&gt;Node14</title>
<path fill="none" stroke="midnightblue" d="M1333.31,-56.083C1335.58,-48.8486 1338.87,-38.4087 1341.71,-29.3968"/>
<polygon fill="midnightblue" stroke="midnightblue" points="1345.08,-30.3406 1344.75,-19.7511 1338.4,-28.2385 1345.08,-30.3406"/>
</g>
<!-- Node15&#45;&gt;Node3 -->
<g id="edge24" class="edge"><title>Node15&#45;&gt;Node3</title>
<path fill="none" stroke="midnightblue" d="M546.617,-112.444C586.134,-102.233 651.738,-85.2831 690.675,-75.2226"/>
<polygon fill="midnightblue" stroke="midnightblue" points="691.631,-78.5907 700.438,-72.7003 689.88,-71.8133 691.631,-78.5907"/>
</g>
<!-- Node15&#45;&gt;Node5 -->
<g id="edge35" class="edge"><title>Node15&#45;&gt;Node5</title>
<path fill="none" stroke="midnightblue" d="M560.544,-117.197C635.717,-110.834 787.745,-96.7912 926.895,-75.9649"/>
<polygon fill="midnightblue" stroke="midnightblue" points="927.526,-79.4094 936.891,-74.4537 926.48,-72.4881 927.526,-79.4094"/>
</g>
<!-- Node15&#45;&gt;Node6 -->
<g id="edge19" class="edge"><title>Node15&#45;&gt;Node6</title>
<path fill="none" stroke="midnightblue" d="M544.656,-112.473C573.171,-104.305 616.306,-91.025 652.5,-76 670.491,-68.5316 672.808,-61.4818 691.5,-56 772.555,-32.2295 1029.91,-17.3052 1122.18,-12.6046"/>
<polygon fill="midnightblue" stroke="midnightblue" points="1122.53,-16.0915 1132.34,-12.0944 1122.18,-9.10029 1122.53,-16.0915"/>
</g>
<!-- Node15&#45;&gt;Node7 -->
<g id="edge36" class="edge"><title>Node15&#45;&gt;Node7</title>
<path fill="none" stroke="midnightblue" d="M559.61,-112.444C612.264,-102.673 698.183,-86.729 752.992,-76.5582"/>
<polygon fill="midnightblue" stroke="midnightblue" points="753.656,-79.9949 762.849,-74.729 752.378,-73.1124 753.656,-79.9949"/>
</g>
<!-- Node15&#45;&gt;Node9 -->
<g id="edge26" class="edge"><title>Node15&#45;&gt;Node9</title>
<path fill="none" stroke="midnightblue" d="M466.253,-121.186C389.277,-120.371 242.089,-113.768 209.5,-76 171.549,-32.018 277.124,-17.6405 337.921,-13.0617"/>
<polygon fill="midnightblue" stroke="midnightblue" points="338.253,-16.5472 347.986,-12.3616 337.768,-9.56403 338.253,-16.5472"/>
</g>
<!-- Node16 -->
<g id="node16" class="node"><title>Node16</title>
<polygon fill="none" stroke="#bfbfbf" points="0,-0.5 0,-19.5 49,-19.5 49,-0.5 0,-0.5"/>
<text text-anchor="middle" x="24.5" y="-7.5" font-family="Helvetica,sans-Serif" font-size="10.00">cassert</text>
</g>
<!-- Node15&#45;&gt;Node16 -->
<g id="edge17" class="edge"><title>Node15&#45;&gt;Node16</title>
<path fill="none" stroke="midnightblue" d="M466.281,-120.994C366.458,-120.22 137.733,-114.196 71.5,-76 53.073,-65.3733 39.9028,-44.2864 32.2766,-29.0054"/>
<polygon fill="midnightblue" stroke="midnightblue" points="35.2734,-27.1485 27.8862,-19.5537 28.9248,-30.0975 35.2734,-27.1485"/>
</g>
<!-- Node17 -->
<g id="node17" class="node"><title>Node17</title>
<polygon fill="none" stroke="#bfbfbf" points="218.5,-56.5 218.5,-75.5 264.5,-75.5 264.5,-56.5 218.5,-56.5"/>
<text text-anchor="middle" x="241.5" y="-63.5" font-family="Helvetica,sans-Serif" font-size="10.00">chrono</text>
</g>
<!-- Node15&#45;&gt;Node17 -->
<g id="edge18" class="edge"><title>Node15&#45;&gt;Node17</title>
<path fill="none" stroke="midnightblue" d="M466.334,-113.43C419.933,-105.699 346.889,-92.7715 274.688,-76.1104"/>
<polygon fill="midnightblue" stroke="midnightblue" points="275.043,-72.5992 264.509,-73.7349 273.452,-79.416 275.043,-72.5992"/>
</g>
<!-- Node18 -->
<g id="node18" class="node"><title>Node18</title>
<polygon fill="none" stroke="#bfbfbf" points="1028,-56.5 1028,-75.5 1087,-75.5 1087,-56.5 1028,-56.5"/>
<text text-anchor="middle" x="1057.5" y="-63.5" font-family="Helvetica,sans-Serif" font-size="10.00">functional</text>
</g>
<!-- Node15&#45;&gt;Node18 -->
<g id="edge20" class="edge"><title>Node15&#45;&gt;Node18</title>
<path fill="none" stroke="midnightblue" d="M560.762,-118.966C648.757,-114.708 843.771,-103.054 1017.67,-75.9038"/>
<polygon fill="midnightblue" stroke="midnightblue" points="1018.44,-79.3252 1027.77,-74.3051 1017.35,-72.4112 1018.44,-79.3252"/>
</g>
<!-- Node19 -->
<g id="node19" class="node"><title>Node19</title>
<polygon fill="none" stroke="#bfbfbf" points="864.5,-56.5 864.5,-75.5 918.5,-75.5 918.5,-56.5 864.5,-56.5"/>
<text text-anchor="middle" x="891.5" y="-63.5" font-family="Helvetica,sans-Serif" font-size="10.00">iostream</text>
</g>
<!-- Node15&#45;&gt;Node19 -->
<g id="edge21" class="edge"><title>Node15&#45;&gt;Node19</title>
<path fill="none" stroke="midnightblue" d="M560.638,-116.398C626.669,-109.585 750.313,-95.4876 854.5,-76 854.602,-75.981 854.703,-75.9619 854.805,-75.9427"/>
<polygon fill="midnightblue" stroke="midnightblue" points="855.419,-79.3901 864.495,-73.9236 853.991,-72.5373 855.419,-79.3901"/>
</g>
<!-- Node20 -->
<g id="node20" class="node"><title>Node20</title>
<polygon fill="none" stroke="#bfbfbf" points="282.5,-56.5 282.5,-75.5 322.5,-75.5 322.5,-56.5 282.5,-56.5"/>
<text text-anchor="middle" x="302.5" y="-63.5" font-family="Helvetica,sans-Serif" font-size="10.00">limits</text>
</g>
<!-- Node15&#45;&gt;Node20 -->
<g id="edge22" class="edge"><title>Node15&#45;&gt;Node20</title>
<path fill="none" stroke="midnightblue" d="M476.385,-112.495C441.578,-104.37 387.872,-91.4548 332.689,-76.2155"/>
<polygon fill="midnightblue" stroke="midnightblue" points="333.309,-72.7552 322.737,-73.446 331.432,-79.499 333.309,-72.7552"/>
</g>
<!-- Node21 -->
<g id="node21" class="node"><title>Node21</title>
<polygon fill="none" stroke="#bfbfbf" points="340.5,-56.5 340.5,-75.5 392.5,-75.5 392.5,-56.5 340.5,-56.5"/>
<text text-anchor="middle" x="366.5" y="-63.5" font-family="Helvetica,sans-Serif" font-size="10.00">memory</text>
</g>
<!-- Node15&#45;&gt;Node21 -->
<g id="edge23" class="edge"><title>Node15&#45;&gt;Node21</title>
<path fill="none" stroke="midnightblue" d="M490.207,-112.444C465.693,-103.438 426.904,-89.1891 399.3,-79.049"/>
<polygon fill="midnightblue" stroke="midnightblue" points="400.277,-75.6793 389.684,-75.5164 397.863,-82.25 400.277,-75.6793"/>
</g>
<!-- Node22 -->
<g id="node22" class="node"><title>Node22</title>
<polygon fill="none" stroke="#bfbfbf" points="411,-56.5 411,-75.5 454,-75.5 454,-56.5 411,-56.5"/>
<text text-anchor="middle" x="432.5" y="-63.5" font-family="Helvetica,sans-Serif" font-size="10.00">queue</text>
</g>
<!-- Node15&#45;&gt;Node22 -->
<g id="edge25" class="edge"><title>Node15&#45;&gt;Node22</title>
<path fill="none" stroke="midnightblue" d="M500.486,-112.324C487.968,-103.979 468.818,-91.2122 454.029,-81.3524"/>
<polygon fill="midnightblue" stroke="midnightblue" points="455.744,-78.2894 445.482,-75.6545 451.861,-84.1137 455.744,-78.2894"/>
</g>
<!-- Node23 -->
<g id="node23" class="node"><title>Node23</title>
<polygon fill="none" stroke="#bfbfbf" points="472,-56.5 472,-75.5 555,-75.5 555,-56.5 472,-56.5"/>
<text text-anchor="middle" x="513.5" y="-63.5" font-family="Helvetica,sans-Serif" font-size="10.00">unordered_map</text>
</g>
<!-- Node15&#45;&gt;Node23 -->
<g id="edge27" class="edge"><title>Node15&#45;&gt;Node23</title>
<path fill="none" stroke="midnightblue" d="M513.5,-112.083C513.5,-105.006 513.5,-94.8611 513.5,-85.9865"/>
<polygon fill="midnightblue" stroke="midnightblue" points="517,-85.751 513.5,-75.7511 510,-85.7511 517,-85.751"/>
</g>
<!-- Node24 -->
<g id="node24" class="node"><title>Node24</title>
<polygon fill="none" stroke="#bfbfbf" points="67.5,-0.5 67.5,-19.5 111.5,-19.5 111.5,-0.5 67.5,-0.5"/>
<text text-anchor="middle" x="89.5" y="-7.5" font-family="Helvetica,sans-Serif" font-size="10.00">vector</text>
</g>
<!-- Node15&#45;&gt;Node24 -->
<g id="edge28" class="edge"><title>Node15&#45;&gt;Node24</title>
<path fill="none" stroke="midnightblue" d="M466.159,-119.573C359.342,-115.865 106.899,-104.182 81.5,-76 70.2297,-63.4947 74.6723,-43.7116 80.4221,-29.2523"/>
<polygon fill="midnightblue" stroke="midnightblue" points="83.7421,-30.4021 84.6339,-19.8448 77.3531,-27.5417 83.7421,-30.4021"/>
</g>
<!-- Node25 -->
<g id="node25" class="node"><title>Node25</title>
<g id="a_node25"><a xlink:href="bufArray_8hpp.html" target="_top" xlink:title="bufArray.hpp">
<polygon fill="none" stroke="black" points="91,-56.5 91,-75.5 162,-75.5 162,-56.5 91,-56.5"/>
<text text-anchor="middle" x="126.5" y="-63.5" font-family="Helvetica,sans-Serif" font-size="10.00">bufArray.hpp</text>
</a>
</g>
</g>
<!-- Node15&#45;&gt;Node25 -->
<g id="edge29" class="edge"><title>Node15&#45;&gt;Node25</title>
<path fill="none" stroke="midnightblue" d="M466.241,-115.376C400.961,-107.45 279.571,-92.1495 176.5,-76 175.057,-75.7739 173.591,-75.5393 172.112,-75.2984"/>
<polygon fill="midnightblue" stroke="midnightblue" points="172.688,-71.8463 162.246,-73.6374 171.526,-78.7492 172.688,-71.8463"/>
</g>
<!-- Node27 -->
<g id="node27" class="node"><title>Node27</title>
<g id="a_node27"><a xlink:href="spinlock_8hpp.html" target="_top" xlink:title="spinlock.hpp">
<polygon fill="none" stroke="black" points="573,-56.5 573,-75.5 644,-75.5 644,-56.5 573,-56.5"/>
<text text-anchor="middle" x="608.5" y="-63.5" font-family="Helvetica,sans-Serif" font-size="10.00">spinlock.hpp</text>
</a>
</g>
</g>
<!-- Node15&#45;&gt;Node27 -->
<g id="edge37" class="edge"><title>Node15&#45;&gt;Node27</title>
<path fill="none" stroke="midnightblue" d="M528.763,-112.324C543.721,-103.822 566.755,-90.7288 584.227,-80.7975"/>
<polygon fill="midnightblue" stroke="midnightblue" points="586.31,-83.639 593.274,-75.6545 582.851,-77.5534 586.31,-83.639"/>
</g>
<!-- Node25&#45;&gt;Node6 -->
<g id="edge31" class="edge"><title>Node25&#45;&gt;Node6</title>
<path fill="none" stroke="midnightblue" d="M162.407,-60.6193C177.001,-58.966 194.037,-57.1972 209.5,-56 552.402,-29.4494 638.989,-36.9341 982.5,-20 1031.09,-17.6045 1087.35,-14.6428 1122.19,-12.7869"/>
<polygon fill="midnightblue" stroke="midnightblue" points="1122.48,-16.2765 1132.28,-12.2483 1122.1,-9.28641 1122.48,-16.2765"/>
</g>
<!-- Node25&#45;&gt;Node9 -->
<g id="edge32" class="edge"><title>Node25&#45;&gt;Node9</title>
<path fill="none" stroke="midnightblue" d="M162.196,-57.3205C208.695,-47.3166 289.735,-29.8817 338.024,-19.4929"/>
<polygon fill="midnightblue" stroke="midnightblue" points="338.766,-22.9133 347.807,-17.3882 337.294,-16.0699 338.766,-22.9133"/>
</g>
<!-- Node25&#45;&gt;Node16 -->
<g id="edge30" class="edge"><title>Node25&#45;&gt;Node16</title>
<path fill="none" stroke="midnightblue" d="M110.112,-56.324C93.8287,-47.7034 68.6325,-34.3643 49.7837,-24.3855"/>
<polygon fill="midnightblue" stroke="midnightblue" points="51.3229,-21.2402 40.8474,-19.6545 48.0477,-27.4267 51.3229,-21.2402"/>
</g>
<!-- Node25&#45;&gt;Node24 -->
<g id="edge34" class="edge"><title>Node25&#45;&gt;Node24</title>
<path fill="none" stroke="midnightblue" d="M120.39,-56.083C115.218,-48.5341 107.654,-37.4948 101.306,-28.2298"/>
<polygon fill="midnightblue" stroke="midnightblue" points="104.036,-26.0221 95.4961,-19.7511 98.2612,-29.9787 104.036,-26.0221"/>
</g>
<!-- Node26 -->
<g id="node26" class="node"><title>Node26</title>
<polygon fill="none" stroke="#bfbfbf" points="129.5,-0.5 129.5,-19.5 169.5,-19.5 169.5,-0.5 129.5,-0.5"/>
<text text-anchor="middle" x="149.5" y="-7.5" font-family="Helvetica,sans-Serif" font-size="10.00">utility</text>
</g>
<!-- Node25&#45;&gt;Node26 -->
<g id="edge33" class="edge"><title>Node25&#45;&gt;Node26</title>
<path fill="none" stroke="midnightblue" d="M130.298,-56.083C133.413,-48.77 137.923,-38.1814 141.789,-29.1034"/>
<polygon fill="midnightblue" stroke="midnightblue" points="145.074,-30.3229 145.773,-19.7511 138.634,-27.5798 145.074,-30.3229"/>
</g>
<!-- Node28 -->
<g id="node28" class="node"><title>Node28</title>
<polygon fill="none" stroke="#bfbfbf" points="585.5,-0.5 585.5,-19.5 631.5,-19.5 631.5,-0.5 585.5,-0.5"/>
<text text-anchor="middle" x="608.5" y="-7.5" font-family="Helvetica,sans-Serif" font-size="10.00">atomic</text>
</g>
<!-- Node27&#45;&gt;Node28 -->
<g id="edge38" class="edge"><title>Node27&#45;&gt;Node28</title>
<path fill="none" stroke="midnightblue" d="M608.5,-56.083C608.5,-49.0059 608.5,-38.8611 608.5,-29.9865"/>
<polygon fill="midnightblue" stroke="midnightblue" points="612,-29.751 608.5,-19.7511 605,-29.7511 612,-29.751"/>
</g>
<!-- Node29&#45;&gt;Node2 -->
<g id="edge54" class="edge"><title>Node29&#45;&gt;Node2</title>
<path fill="none" stroke="midnightblue" d="M1364.18,-187.516C1345.85,-196.427 1314.02,-210.504 1289.44,-220.638"/>
<polygon fill="midnightblue" stroke="midnightblue" points="1288.02,-217.434 1280.08,-224.444 1290.66,-223.918 1288.02,-217.434"/>
</g>
<!-- Node29&#45;&gt;Node4 -->
<g id="edge41" class="edge"><title>Node29&#45;&gt;Node4</title>
<path fill="none" stroke="midnightblue" d="M1400.29,-168.449C1432.25,-154.56 1490.64,-123.75 1514.5,-76 1521.68,-61.64 1521.5,-43.1797 1519.92,-29.6039"/>
<polygon fill="midnightblue" stroke="midnightblue" points="1523.36,-28.9095 1518.4,-19.5462 1516.43,-29.9575 1523.36,-28.9095"/>
</g>
<!-- Node29&#45;&gt;Node10 -->
<g id="edge53" class="edge"><title>Node29&#45;&gt;Node10</title>
<path fill="none" stroke="midnightblue" d="M1383.49,-168.1C1390.05,-155.105 1399.74,-130.475 1390.5,-112 1383.77,-98.5432 1370.89,-88.0665 1358.79,-80.6212"/>
<polygon fill="midnightblue" stroke="midnightblue" points="1360.22,-77.4101 1349.8,-75.5195 1356.77,-83.4985 1360.22,-77.4101"/>
</g>
<!-- Node30 -->
<g id="node30" class="node"><title>Node30</title>
<polygon fill="none" stroke="#bfbfbf" points="1460,-56.5 1460,-75.5 1505,-75.5 1505,-56.5 1460,-56.5"/>
<text text-anchor="middle" x="1482.5" y="-63.5" font-family="Helvetica,sans-Serif" font-size="10.00">cstdlib</text>
</g>
<!-- Node29&#45;&gt;Node30 -->
<g id="edge40" class="edge"><title>Node29&#45;&gt;Node30</title>
<path fill="none" stroke="midnightblue" d="M1386.66,-168.368C1404.05,-149.974 1444.99,-106.671 1467.32,-83.0519"/>
<polygon fill="midnightblue" stroke="midnightblue" points="1470.05,-85.2625 1474.38,-75.5914 1464.96,-80.4534 1470.05,-85.2625"/>
</g>
<!-- Node31 -->
<g id="node31" class="node"><title>Node31</title>
<g id="a_node31"><a xlink:href="IPv4__5TupleL2Ident_8hpp.html" target="_top" xlink:title="IPv4_5TupleL2Ident.hpp">
<polygon fill="none" stroke="black" points="1092.5,-112.5 1092.5,-131.5 1214.5,-131.5 1214.5,-112.5 1092.5,-112.5"/>
<text text-anchor="middle" x="1153.5" y="-119.5" font-family="Helvetica,sans-Serif" font-size="10.00">IPv4_5TupleL2Ident.hpp</text>
</a>
</g>
</g>
<!-- Node29&#45;&gt;Node31 -->
<g id="edge42" class="edge"><title>Node29&#45;&gt;Node31</title>
<path fill="none" stroke="midnightblue" d="M1342.85,-168.444C1303.84,-159.083 1241.23,-144.056 1198.78,-133.868"/>
<polygon fill="midnightblue" stroke="midnightblue" points="1199.53,-130.447 1188.99,-131.516 1197.89,-137.254 1199.53,-130.447"/>
</g>
<!-- Node32 -->
<g id="node32" class="node"><title>Node32</title>
<g id="a_node32"><a xlink:href="mbuf_8hpp.html" target="_top" xlink:title="mbuf.hpp">
<polygon fill="none" stroke="black" points="1519,-112.5 1519,-131.5 1576,-131.5 1576,-112.5 1519,-112.5"/>
<text text-anchor="middle" x="1547.5" y="-119.5" font-family="Helvetica,sans-Serif" font-size="10.00">mbuf.hpp</text>
</a>
</g>
</g>
<!-- Node29&#45;&gt;Node32 -->
<g id="edge55" class="edge"><title>Node29&#45;&gt;Node32</title>
<path fill="none" stroke="midnightblue" d="M1405.28,-168.444C1433.83,-159.32 1479.23,-144.813 1511.04,-134.651"/>
<polygon fill="midnightblue" stroke="midnightblue" points="1512.39,-137.894 1520.85,-131.516 1510.26,-131.226 1512.39,-137.894"/>
</g>
<!-- Node34 -->
<g id="node34" class="node"><title>Node34</title>
<g id="a_node34"><a xlink:href="samplePacket_8hpp.html" target="_top" xlink:title="samplePacket.hpp">
<polygon fill="none" stroke="black" points="1283.5,-112.5 1283.5,-131.5 1381.5,-131.5 1381.5,-112.5 1283.5,-112.5"/>
<text text-anchor="middle" x="1332.5" y="-119.5" font-family="Helvetica,sans-Serif" font-size="10.00">samplePacket.hpp</text>
</a>
</g>
</g>
<!-- Node29&#45;&gt;Node34 -->
<g id="edge58" class="edge"><title>Node29&#45;&gt;Node34</title>
<path fill="none" stroke="midnightblue" d="M1370.9,-168.083C1364.27,-160.298 1354.48,-148.801 1346.44,-139.367"/>
<polygon fill="midnightblue" stroke="midnightblue" points="1349.1,-137.094 1339.95,-131.751 1343.77,-141.633 1349.1,-137.094"/>
</g>
<!-- Node31&#45;&gt;Node4 -->
<g id="edge47" class="edge"><title>Node31&#45;&gt;Node4</title>
<path fill="none" stroke="midnightblue" d="M1214.55,-115.181C1264.77,-109.116 1337.22,-97.4019 1397.5,-76 1433.77,-63.1243 1472.24,-40.1869 1495.31,-25.2887"/>
<polygon fill="midnightblue" stroke="midnightblue" points="1497.49,-28.0486 1503.93,-19.636 1493.65,-22.1962 1497.49,-28.0486"/>
</g>
<!-- Node31&#45;&gt;Node5 -->
<g id="edge50" class="edge"><title>Node31&#45;&gt;Node5</title>
<path fill="none" stroke="midnightblue" d="M1124.98,-112.444C1094.43,-103.28 1045.79,-88.6876 1011.9,-78.5192"/>
<polygon fill="midnightblue" stroke="midnightblue" points="1012.47,-75.0376 1001.89,-75.5164 1010.46,-81.7424 1012.47,-75.0376"/>
</g>
<!-- Node31&#45;&gt;Node6 -->
<g id="edge43" class="edge"><title>Node31&#45;&gt;Node6</title>
<path fill="none" stroke="midnightblue" d="M1157.1,-112.222C1160.56,-103.285 1165.53,-88.9424 1167.5,-76 1169.9,-60.2231 1166.15,-42.4064 1162.22,-29.4215"/>
<polygon fill="midnightblue" stroke="midnightblue" points="1165.5,-28.1812 1159.02,-19.8014 1158.86,-30.3951 1165.5,-28.1812"/>
</g>
<!-- Node31&#45;&gt;Node7 -->
<g id="edge52" class="edge"><title>Node31&#45;&gt;Node7</title>
<path fill="none" stroke="midnightblue" d="M1094.06,-112.468C1036.04,-104.038 944.99,-90.5442 856.207,-76.082"/>
<polygon fill="midnightblue" stroke="midnightblue" points="856.668,-72.6109 846.234,-74.4517 855.539,-79.5192 856.668,-72.6109"/>
</g>
<!-- Node31&#45;&gt;Node8 -->
<g id="edge44" class="edge"><title>Node31&#45;&gt;Node8</title>
<path fill="none" stroke="midnightblue" d="M1152.85,-112.417C1151.31,-98.4533 1146.21,-70.8851 1129.5,-56 1089.32,-20.1943 1025.41,-11.7317 984.212,-10.3147"/>
<polygon fill="midnightblue" stroke="midnightblue" points="984.074,-6.81095 974,-10.0914 983.921,-13.8093 984.074,-6.81095"/>
</g>
<!-- Node31&#45;&gt;Node9 -->
<g id="edge48" class="edge"><title>Node31&#45;&gt;Node9</title>
<path fill="none" stroke="midnightblue" d="M1148.81,-112.309C1140.37,-97.6581 1121.07,-68.4294 1095.5,-56 1080.13,-48.5271 565.631,-20.9091 417.208,-13.0806"/>
<polygon fill="midnightblue" stroke="midnightblue" points="417.337,-9.58264 407.166,-12.5517 416.968,-16.5729 417.337,-9.58264"/>
</g>
<!-- Node31&#45;&gt;Node10 -->
<g id="edge51" class="edge"><title>Node31&#45;&gt;Node10</title>
<path fill="none" stroke="midnightblue" d="M1181.55,-112.444C1211.58,-103.28 1259.41,-88.6876 1292.74,-78.5192"/>
<polygon fill="midnightblue" stroke="midnightblue" points="1294.04,-81.7822 1302.59,-75.5164 1292,-75.0869 1294.04,-81.7822"/>
</g>
<!-- Node31&#45;&gt;Node13 -->
<g id="edge49" class="edge"><title>Node31&#45;&gt;Node13</title>
<path fill="none" stroke="midnightblue" d="M1214.59,-113.872C1270.69,-106.389 1348.86,-93.3025 1374.5,-76 1391.45,-64.5622 1403.37,-43.9766 1410.3,-29.0297"/>
<polygon fill="midnightblue" stroke="midnightblue" points="1413.55,-30.333 1414.29,-19.7644 1407.12,-27.5611 1413.55,-30.333"/>
</g>
<!-- Node31&#45;&gt;Node18 -->
<g id="edge45" class="edge"><title>Node31&#45;&gt;Node18</title>
<path fill="none" stroke="midnightblue" d="M1138.08,-112.324C1122.96,-103.822 1099.68,-90.7288 1082.03,-80.7975"/>
<polygon fill="midnightblue" stroke="midnightblue" points="1083.32,-77.5066 1072.89,-75.6545 1079.89,-83.6077 1083.32,-77.5066"/>
</g>
<!-- Node31&#45;&gt;Node19 -->
<g id="edge46" class="edge"><title>Node31&#45;&gt;Node19</title>
<path fill="none" stroke="midnightblue" d="M1107.05,-112.432C1063.41,-104.23 996.054,-91.1804 928.551,-76.1537"/>
<polygon fill="midnightblue" stroke="midnightblue" points="929.117,-72.6937 918.593,-73.9227 927.586,-79.5244 929.117,-72.6937"/>
</g>
<!-- Node32&#45;&gt;Node6 -->
<g id="edge56" class="edge"><title>Node32&#45;&gt;Node6</title>
<path fill="none" stroke="midnightblue" d="M1518.83,-119.43C1469.83,-116.014 1367.45,-105.662 1286.5,-76 1270.04,-69.9682 1268.03,-64.1431 1252.5,-56 1230.14,-44.2715 1204.16,-32.3025 1184.71,-23.6596"/>
<polygon fill="midnightblue" stroke="midnightblue" points="1186.03,-20.4148 1175.47,-19.5809 1183.2,-26.8194 1186.03,-20.4148"/>
</g>
<!-- Node32&#45;&gt;Node33 -->
<g id="edge57" class="edge"><title>Node32&#45;&gt;Node33</title>
<path fill="none" stroke="midnightblue" d="M1555.1,-112.083C1561.73,-104.298 1571.52,-92.8015 1579.56,-83.3665"/>
<polygon fill="midnightblue" stroke="midnightblue" points="1582.23,-85.6332 1586.05,-75.7511 1576.9,-81.0939 1582.23,-85.6332"/>
</g>
<!-- Node34&#45;&gt;Node6 -->
<g id="edge59" class="edge"><title>Node34&#45;&gt;Node6</title>
<path fill="none" stroke="midnightblue" d="M1316.58,-112.346C1300.49,-103.506 1275.01,-89.2373 1253.5,-76 1226.48,-59.3716 1196.16,-38.9811 1176.49,-25.5223"/>
<polygon fill="midnightblue" stroke="midnightblue" points="1178.23,-22.4708 1168.01,-19.6919 1174.27,-28.24 1178.23,-22.4708"/>
</g>
<!-- Node34&#45;&gt;Node30 -->
<g id="edge60" class="edge"><title>Node34&#45;&gt;Node30</title>
<path fill="none" stroke="midnightblue" d="M1356.27,-112.444C1381.69,-103.292 1422.15,-88.726 1450.39,-78.5594"/>
<polygon fill="midnightblue" stroke="midnightblue" points="1451.6,-81.8433 1459.83,-75.1629 1449.23,-75.2571 1451.6,-81.8433"/>
</g>
</g>
</svg>
