<?xml version="1.0" encoding="UTF-8" standalone="no"?>
<!DOCTYPE svg PUBLIC "-//W3C//DTD SVG 1.1//EN"
 "http://www.w3.org/Graphics/SVG/1.1/DTD/svg11.dtd">
<!-- Generated by graphviz version 2.40.1 (20161225.0304)
 -->
<!-- Title: HelloBye3_Server_process Pages: 1 -->
<svg width="458pt" height="47pt"
 viewBox="0.00 0.00 458.00 47.00" xmlns="http://www.w3.org/2000/svg" xmlns:xlink="http://www.w3.org/1999/xlink">
<g id="graph0" class="graph" transform="scale(1 1) rotate(0) translate(4 43)">
<title>HelloBye3_Server_process</title>
<!-- Node48 -->
<g id="node1" class="node">
<title>Node48</title>
<polygon fill="#bfbfbf" stroke="#000000" points="0,-19.5 0,-38.5 135,-38.5 135,-19.5 0,-19.5"/>
<text text-anchor="middle" x="67.5" y="-26.5" font-family="Helvetica,sans-Serif" font-size="10.00" fill="#000000">HelloBye3_Server_process</text>
</g>
<!-- Node49 -->
<g id="node2" class="node">
<title>Node49</title>
<g id="a_node2"><a xlink:href="classBufArray.html#a1d52cd9f63feaa98f800bcae8277e675" target="_top" xlink:title="Get the number of packets currently marked as send. ">
<polygon fill="none" stroke="#000000" points="327,-19.5 327,-38.5 450,-38.5 450,-19.5 327,-19.5"/>
<text text-anchor="middle" x="388.5" y="-26.5" font-family="Helvetica,sans-Serif" font-size="10.00" fill="#000000">BufArray::getSendCount</text>
</a>
</g>
</g>
<!-- Node48&#45;&gt;Node49 -->
<g id="edge1" class="edge">
<title>Node48&#45;&gt;Node49</title>
<path fill="none" stroke="#191970" d="M135.1836,-29C188.4072,-29 262.3782,-29 316.6475,-29"/>
<polygon fill="#191970" stroke="#191970" points="316.884,-32.5001 326.884,-29 316.884,-25.5001 316.884,-32.5001"/>
</g>
<!-- Node50 -->
<g id="node3" class="node">
<title>Node50</title>
<g id="a_node3"><a xlink:href="classBufArray.html#a77223130b4dca30992a335dbff4b4781" target="_top" xlink:title="Get the number of packets currently marked as free. ">
<polygon fill="none" stroke="#000000" points="171,-.5 171,-19.5 291,-19.5 291,-.5 171,-.5"/>
<text text-anchor="middle" x="231" y="-7.5" font-family="Helvetica,sans-Serif" font-size="10.00" fill="#000000">BufArray::getFreeCount</text>
</a>
</g>
</g>
<!-- Node48&#45;&gt;Node50 -->
<g id="edge2" class="edge">
<title>Node48&#45;&gt;Node50</title>
<path fill="none" stroke="#191970" d="M135.4183,-21.1074C143.7766,-20.136 152.3337,-19.1417 160.726,-18.1664"/>
<polygon fill="#191970" stroke="#191970" points="161.3277,-21.6201 170.8569,-16.9891 160.5197,-14.6669 161.3277,-21.6201"/>
</g>
<!-- Node50&#45;&gt;Node49 -->
<g id="edge3" class="edge">
<title>Node50&#45;&gt;Node49</title>
<path fill="none" stroke="#191970" d="M291.4432,-17.2916C299.7983,-18.2995 308.4444,-19.3425 316.9764,-20.3718"/>
<polygon fill="#191970" stroke="#191970" points="316.5684,-23.8478 326.9156,-21.5708 317.4068,-16.8982 316.5684,-23.8478"/>
</g>
</g>
</svg>
