<?xml version="1.0" encoding="UTF-8" standalone="no"?>
<!DOCTYPE svg PUBLIC "-//W3C//DTD SVG 1.1//EN"
 "http://www.w3.org/Graphics/SVG/1.1/DTD/svg11.dtd">
<!-- Generated by graphviz version 2.38.0 (20140413.2041)
 -->
<!-- Title: /home/dominik/uni/MoonState/include/helloBye_C.hpp Pages: 1 -->
<svg width="1594pt" height="319pt"
 viewBox="0.00 0.00 1593.55 319.00" xmlns="http://www.w3.org/2000/svg" xmlns:xlink="http://www.w3.org/1999/xlink">
<g id="graph0" class="graph" transform="scale(1 1) rotate(0) translate(4 315)">
<title>/home/dominik/uni/MoonState/include/helloBye_C.hpp</title>
<!-- Node1 -->
<g id="node1" class="node"><title>Node1</title>
<polygon fill="#bfbfbf" stroke="black" points="112.547,-280.5 112.547,-310.5 259.547,-310.5 259.547,-280.5 112.547,-280.5"/>
<text text-anchor="start" x="120.547" y="-298.5" font-family="Helvetica,sans-Serif" font-size="10.00">/home/dominik/uni/MoonState</text>
<text text-anchor="middle" x="186.047" y="-287.5" font-family="Helvetica,sans-Serif" font-size="10.00">/include/helloBye_C.hpp</text>
</g>
<!-- Node2 -->
<g id="node2" class="node"><title>Node2</title>
<g id="a_node2"><a xlink:href="helloByeProto_8hpp.html" target="_top" xlink:title="helloByeProto.hpp">
<polygon fill="none" stroke="black" points="416.047,-224.5 416.047,-243.5 512.047,-243.5 512.047,-224.5 416.047,-224.5"/>
<text text-anchor="middle" x="464.047" y="-231.5" font-family="Helvetica,sans-Serif" font-size="10.00">helloByeProto.hpp</text>
</a>
</g>
</g>
<!-- Node1&#45;&gt;Node2 -->
<g id="edge1" class="edge"><title>Node1&#45;&gt;Node2</title>
<path fill="none" stroke="midnightblue" d="M251.577,-280.475C301.423,-269.806 368.957,-255.352 414.391,-245.628"/>
<polygon fill="midnightblue" stroke="midnightblue" points="415.257,-249.022 424.303,-243.506 413.792,-242.177 415.257,-249.022"/>
</g>
<!-- Node33 -->
<g id="node33" class="node"><title>Node33</title>
<polygon fill="none" stroke="#bfbfbf" points="13.5473,-56.5 13.5473,-75.5 76.5473,-75.5 76.5473,-56.5 13.5473,-56.5"/>
<text text-anchor="middle" x="45.0473" y="-63.5" font-family="Helvetica,sans-Serif" font-size="10.00">rte_mbuf.h</text>
</g>
<!-- Node1&#45;&gt;Node33 -->
<g id="edge58" class="edge"><title>Node1&#45;&gt;Node33</title>
<path fill="none" stroke="midnightblue" d="M177.227,-280.269C152.565,-240.477 82.9372,-128.134 55.9368,-84.57"/>
<polygon fill="midnightblue" stroke="midnightblue" points="58.8231,-82.5831 50.5801,-75.927 52.8732,-86.2707 58.8231,-82.5831"/>
</g>
<!-- Node3 -->
<g id="node3" class="node"><title>Node3</title>
<polygon fill="none" stroke="#bfbfbf" points="753.047,-56.5 753.047,-75.5 797.047,-75.5 797.047,-56.5 753.047,-56.5"/>
<text text-anchor="middle" x="775.047" y="-63.5" font-family="Helvetica,sans-Serif" font-size="10.00">mutex</text>
</g>
<!-- Node2&#45;&gt;Node3 -->
<g id="edge2" class="edge"><title>Node2&#45;&gt;Node3</title>
<path fill="none" stroke="midnightblue" d="M481.736,-224.398C499.957,-215.48 529.13,-201.045 554.047,-188 626.339,-150.154 710.623,-103.214 751.036,-80.5295"/>
<polygon fill="midnightblue" stroke="midnightblue" points="752.878,-83.5092 759.881,-75.5586 749.448,-77.4069 752.878,-83.5092"/>
</g>
<!-- Node4 -->
<g id="node4" class="node"><title>Node4</title>
<g id="a_node4"><a xlink:href="common_8hpp.html" target="_top" xlink:title="common.hpp">
<polygon fill="none" stroke="black" points="661.547,-56.5 661.547,-75.5 734.547,-75.5 734.547,-56.5 661.547,-56.5"/>
<text text-anchor="middle" x="698.047" y="-63.5" font-family="Helvetica,sans-Serif" font-size="10.00">common.hpp</text>
</a>
</g>
</g>
<!-- Node2&#45;&gt;Node4 -->
<g id="edge3" class="edge"><title>Node2&#45;&gt;Node4</title>
<path fill="none" stroke="midnightblue" d="M476.299,-224.309C514.287,-197.36 630.371,-115.01 677.669,-81.4566"/>
<polygon fill="midnightblue" stroke="midnightblue" points="679.786,-84.2458 685.917,-75.6051 675.736,-78.5365 679.786,-84.2458"/>
</g>
<!-- Node6 -->
<g id="node6" class="node"><title>Node6</title>
<g id="a_node6"><a xlink:href="stateMachine_8hpp.html" target="_top" xlink:title="stateMachine.hpp">
<polygon fill="none" stroke="black" points="1019.05,-112.5 1019.05,-131.5 1113.05,-131.5 1113.05,-112.5 1019.05,-112.5"/>
<text text-anchor="middle" x="1066.05" y="-119.5" font-family="Helvetica,sans-Serif" font-size="10.00">stateMachine.hpp</text>
</a>
</g>
</g>
<!-- Node2&#45;&gt;Node6 -->
<g id="edge5" class="edge"><title>Node2&#45;&gt;Node6</title>
<path fill="none" stroke="midnightblue" d="M512.275,-225.094C565.244,-216.337 652.792,-201.648 728.047,-188 829.133,-169.667 946.889,-146.642 1013.33,-133.495"/>
<polygon fill="midnightblue" stroke="midnightblue" points="1014.02,-136.927 1023.15,-131.551 1012.66,-130.061 1014.02,-136.927"/>
</g>
<!-- Node23 -->
<g id="node23" class="node"><title>Node23</title>
<g id="a_node23"><a xlink:href="helloByeProto_8cpp.html" target="_top" xlink:title="../src/helloByeProto.cpp">
<polygon fill="none" stroke="black" points="213.047,-168.5 213.047,-187.5 335.047,-187.5 335.047,-168.5 213.047,-168.5"/>
<text text-anchor="middle" x="274.047" y="-175.5" font-family="Helvetica,sans-Serif" font-size="10.00">../src/helloByeProto.cpp</text>
</a>
</g>
</g>
<!-- Node2&#45;&gt;Node23 -->
<g id="edge30" class="edge"><title>Node2&#45;&gt;Node23</title>
<path fill="none" stroke="midnightblue" d="M428.852,-224.444C394.601,-215.28 343.071,-200.688 308.931,-190.519"/>
<polygon fill="midnightblue" stroke="midnightblue" points="309.517,-187.041 298.933,-187.516 307.503,-193.745 309.517,-187.041"/>
</g>
<!-- Node5 -->
<g id="node5" class="node"><title>Node5</title>
<polygon fill="none" stroke="#bfbfbf" points="392.047,-0.5 392.047,-19.5 438.047,-19.5 438.047,-0.5 392.047,-0.5"/>
<text text-anchor="middle" x="415.047" y="-7.5" font-family="Helvetica,sans-Serif" font-size="10.00">cstdint</text>
</g>
<!-- Node4&#45;&gt;Node5 -->
<g id="edge4" class="edge"><title>Node4&#45;&gt;Node5</title>
<path fill="none" stroke="midnightblue" d="M661.393,-57.8093C658.232,-57.1951 655.084,-56.5853 652.047,-56 579.368,-41.9902 494.084,-25.877 448.238,-17.2417"/>
<polygon fill="midnightblue" stroke="midnightblue" points="448.742,-13.7752 438.267,-15.3644 447.447,-20.6543 448.742,-13.7752"/>
</g>
<!-- Node6&#45;&gt;Node3 -->
<g id="edge13" class="edge"><title>Node6&#45;&gt;Node3</title>
<path fill="none" stroke="midnightblue" d="M1018.86,-113.692C967.528,-105.505 883.156,-91.3563 811.047,-76 809.771,-75.7283 808.472,-75.4432 807.161,-75.1486"/>
<polygon fill="midnightblue" stroke="midnightblue" points="807.612,-71.6589 797.075,-72.7674 806.003,-78.4716 807.612,-71.6589"/>
</g>
<!-- Node6&#45;&gt;Node4 -->
<g id="edge24" class="edge"><title>Node6&#45;&gt;Node4</title>
<path fill="none" stroke="midnightblue" d="M1019,-115.239C958.131,-107.606 848.587,-93.2581 744.706,-76.0284"/>
<polygon fill="midnightblue" stroke="midnightblue" points="745.113,-72.5479 734.673,-74.3522 743.959,-79.4522 745.113,-72.5479"/>
</g>
<!-- Node6&#45;&gt;Node5 -->
<g id="edge8" class="edge"><title>Node6&#45;&gt;Node5</title>
<path fill="none" stroke="midnightblue" d="M1018.65,-115.372C972.976,-109.028 902.393,-96.7859 844.047,-76 826.069,-69.5951 824.283,-61.6315 806.047,-56 678.075,-16.4791 516.845,-11.0969 448.312,-10.7446"/>
<polygon fill="midnightblue" stroke="midnightblue" points="448.134,-7.24437 438.128,-10.7268 448.122,-14.2444 448.134,-7.24437"/>
</g>
<!-- Node7 -->
<g id="node7" class="node"><title>Node7</title>
<polygon fill="none" stroke="#bfbfbf" points="1206.55,-0.5 1206.55,-19.5 1255.55,-19.5 1255.55,-0.5 1206.55,-0.5"/>
<text text-anchor="middle" x="1231.05" y="-7.5" font-family="Helvetica,sans-Serif" font-size="10.00">cassert</text>
</g>
<!-- Node6&#45;&gt;Node7 -->
<g id="edge6" class="edge"><title>Node6&#45;&gt;Node7</title>
<path fill="none" stroke="midnightblue" d="M1111.36,-112.463C1136.88,-105.868 1168.13,-94.6177 1191.05,-76 1206.27,-63.6281 1217.27,-43.824 1223.83,-29.3234"/>
<polygon fill="midnightblue" stroke="midnightblue" points="1227.15,-30.4576 1227.83,-19.8841 1220.7,-27.7299 1227.15,-30.4576"/>
</g>
<!-- Node8 -->
<g id="node8" class="node"><title>Node8</title>
<polygon fill="none" stroke="#bfbfbf" points="1350.05,-56.5 1350.05,-75.5 1396.05,-75.5 1396.05,-56.5 1350.05,-56.5"/>
<text text-anchor="middle" x="1373.05" y="-63.5" font-family="Helvetica,sans-Serif" font-size="10.00">chrono</text>
</g>
<!-- Node6&#45;&gt;Node8 -->
<g id="edge7" class="edge"><title>Node6&#45;&gt;Node8</title>
<path fill="none" stroke="midnightblue" d="M1113.36,-114.747C1168.2,-107.149 1261.15,-93.1888 1340.05,-76 1340.15,-75.9779 1340.25,-75.9556 1340.35,-75.9333"/>
<polygon fill="midnightblue" stroke="midnightblue" points="1341.14,-79.3437 1350.04,-73.6002 1339.5,-72.5381 1341.14,-79.3437"/>
</g>
<!-- Node9 -->
<g id="node9" class="node"><title>Node9</title>
<polygon fill="none" stroke="#bfbfbf" points="584.547,-56.5 584.547,-75.5 643.547,-75.5 643.547,-56.5 584.547,-56.5"/>
<text text-anchor="middle" x="614.047" y="-63.5" font-family="Helvetica,sans-Serif" font-size="10.00">functional</text>
</g>
<!-- Node6&#45;&gt;Node9 -->
<g id="edge9" class="edge"><title>Node6&#45;&gt;Node9</title>
<path fill="none" stroke="midnightblue" d="M1018.91,-117.793C943.6,-112.252 791.39,-99.3378 653.731,-76.117"/>
<polygon fill="midnightblue" stroke="midnightblue" points="654.293,-72.6623 643.846,-74.4272 653.113,-79.5622 654.293,-72.6623"/>
</g>
<!-- Node10 -->
<g id="node10" class="node"><title>Node10</title>
<polygon fill="none" stroke="#bfbfbf" points="512.047,-56.5 512.047,-75.5 566.047,-75.5 566.047,-56.5 512.047,-56.5"/>
<text text-anchor="middle" x="539.047" y="-63.5" font-family="Helvetica,sans-Serif" font-size="10.00">iostream</text>
</g>
<!-- Node6&#45;&gt;Node10 -->
<g id="edge10" class="edge"><title>Node6&#45;&gt;Node10</title>
<path fill="none" stroke="midnightblue" d="M1019.02,-119.095C932.95,-115.088 744.219,-103.889 576.101,-75.9226"/>
<polygon fill="midnightblue" stroke="midnightblue" points="576.523,-72.4443 566.08,-74.2312 575.358,-79.3467 576.523,-72.4443"/>
</g>
<!-- Node11 -->
<g id="node11" class="node"><title>Node11</title>
<polygon fill="none" stroke="#bfbfbf" points="1414.05,-56.5 1414.05,-75.5 1454.05,-75.5 1454.05,-56.5 1414.05,-56.5"/>
<text text-anchor="middle" x="1434.05" y="-63.5" font-family="Helvetica,sans-Serif" font-size="10.00">limits</text>
</g>
<!-- Node6&#45;&gt;Node11 -->
<g id="edge11" class="edge"><title>Node6&#45;&gt;Node11</title>
<path fill="none" stroke="midnightblue" d="M1113.09,-117.285C1177.02,-111.682 1294.96,-99.3806 1404.03,-75.8929"/>
<polygon fill="midnightblue" stroke="midnightblue" points="1404.86,-79.294 1413.88,-73.7355 1403.37,-72.4561 1404.86,-79.294"/>
</g>
<!-- Node12 -->
<g id="node12" class="node"><title>Node12</title>
<polygon fill="none" stroke="#bfbfbf" points="1472.05,-56.5 1472.05,-75.5 1524.05,-75.5 1524.05,-56.5 1472.05,-56.5"/>
<text text-anchor="middle" x="1498.05" y="-63.5" font-family="Helvetica,sans-Serif" font-size="10.00">memory</text>
</g>
<!-- Node6&#45;&gt;Node12 -->
<g id="edge12" class="edge"><title>Node6&#45;&gt;Node12</title>
<path fill="none" stroke="midnightblue" d="M1113.11,-117.791C1185.94,-112.361 1330.42,-99.7407 1461.92,-75.9813"/>
<polygon fill="midnightblue" stroke="midnightblue" points="1462.56,-79.4222 1471.76,-74.1765 1461.29,-72.5369 1462.56,-79.4222"/>
</g>
<!-- Node13 -->
<g id="node13" class="node"><title>Node13</title>
<polygon fill="none" stroke="#bfbfbf" points="1542.55,-56.5 1542.55,-75.5 1585.55,-75.5 1585.55,-56.5 1542.55,-56.5"/>
<text text-anchor="middle" x="1564.05" y="-63.5" font-family="Helvetica,sans-Serif" font-size="10.00">queue</text>
</g>
<!-- Node6&#45;&gt;Node13 -->
<g id="edge14" class="edge"><title>Node6&#45;&gt;Node13</title>
<path fill="none" stroke="midnightblue" d="M1113.19,-119.362C1196.18,-115.85 1373.78,-105.52 1532.55,-75.713"/>
<polygon fill="midnightblue" stroke="midnightblue" points="1533.33,-79.1274 1542.49,-73.8151 1532.01,-72.2514 1533.33,-79.1274"/>
</g>
<!-- Node14 -->
<g id="node14" class="node"><title>Node14</title>
<polygon fill="none" stroke="#bfbfbf" points="936.547,-0.5 936.547,-19.5 995.547,-19.5 995.547,-0.5 936.547,-0.5"/>
<text text-anchor="middle" x="966.047" y="-7.5" font-family="Helvetica,sans-Serif" font-size="10.00">stdexcept</text>
</g>
<!-- Node6&#45;&gt;Node14 -->
<g id="edge15" class="edge"><title>Node6&#45;&gt;Node14</title>
<path fill="none" stroke="midnightblue" d="M1065.43,-112.481C1064.05,-99.093 1059.68,-72.9135 1046.05,-56 1034.45,-41.6163 1016.95,-31.0313 1001.27,-23.7543"/>
<polygon fill="midnightblue" stroke="midnightblue" points="1002.38,-20.42 991.814,-19.6465 999.592,-26.8405 1002.38,-20.42"/>
</g>
<!-- Node15 -->
<g id="node15" class="node"><title>Node15</title>
<polygon fill="none" stroke="#bfbfbf" points="954.547,-56.5 954.547,-75.5 1037.55,-75.5 1037.55,-56.5 954.547,-56.5"/>
<text text-anchor="middle" x="996.047" y="-63.5" font-family="Helvetica,sans-Serif" font-size="10.00">unordered_map</text>
</g>
<!-- Node6&#45;&gt;Node15 -->
<g id="edge16" class="edge"><title>Node6&#45;&gt;Node15</title>
<path fill="none" stroke="midnightblue" d="M1054.8,-112.324C1044.25,-104.185 1028.25,-91.8395 1015.61,-82.0874"/>
<polygon fill="midnightblue" stroke="midnightblue" points="1017.55,-79.1707 1007.5,-75.8339 1013.28,-84.7132 1017.55,-79.1707"/>
</g>
<!-- Node16 -->
<g id="node16" class="node"><title>Node16</title>
<polygon fill="none" stroke="#bfbfbf" points="1144.05,-0.5 1144.05,-19.5 1188.05,-19.5 1188.05,-0.5 1144.05,-0.5"/>
<text text-anchor="middle" x="1166.05" y="-7.5" font-family="Helvetica,sans-Serif" font-size="10.00">vector</text>
</g>
<!-- Node6&#45;&gt;Node16 -->
<g id="edge17" class="edge"><title>Node6&#45;&gt;Node16</title>
<path fill="none" stroke="midnightblue" d="M1113.1,-113.717C1135.54,-107.622 1160.41,-96.4502 1174.05,-76 1183.19,-62.2796 1179.41,-43.2432 1174.41,-29.3177"/>
<polygon fill="midnightblue" stroke="midnightblue" points="1177.56,-27.7756 1170.54,-19.8377 1171.08,-30.419 1177.56,-27.7756"/>
</g>
<!-- Node17 -->
<g id="node17" class="node"><title>Node17</title>
<g id="a_node17"><a xlink:href="bufArray_8hpp.html" target="_top" xlink:title="bufArray.hpp">
<polygon fill="none" stroke="black" points="1094.55,-56.5 1094.55,-75.5 1165.55,-75.5 1165.55,-56.5 1094.55,-56.5"/>
<text text-anchor="middle" x="1130.05" y="-63.5" font-family="Helvetica,sans-Serif" font-size="10.00">bufArray.hpp</text>
</a>
</g>
</g>
<!-- Node6&#45;&gt;Node17 -->
<g id="edge18" class="edge"><title>Node6&#45;&gt;Node17</title>
<path fill="none" stroke="midnightblue" d="M1076.33,-112.324C1085.88,-104.263 1100.33,-92.0765 1111.83,-82.3695"/>
<polygon fill="midnightblue" stroke="midnightblue" points="1114.19,-84.9577 1119.58,-75.8339 1109.68,-79.6076 1114.19,-84.9577"/>
</g>
<!-- Node19 -->
<g id="node19" class="node"><title>Node19</title>
<g id="a_node19"><a xlink:href="exceptions_8hpp.html" target="_top" xlink:title="exceptions.hpp">
<polygon fill="none" stroke="black" points="853.547,-56.5 853.547,-75.5 936.547,-75.5 936.547,-56.5 853.547,-56.5"/>
<text text-anchor="middle" x="895.047" y="-63.5" font-family="Helvetica,sans-Serif" font-size="10.00">exceptions.hpp</text>
</a>
</g>
</g>
<!-- Node6&#45;&gt;Node19 -->
<g id="edge25" class="edge"><title>Node6&#45;&gt;Node19</title>
<path fill="none" stroke="midnightblue" d="M1038.95,-112.444C1010.06,-103.32 964.123,-88.8133 931.942,-78.6509"/>
<polygon fill="midnightblue" stroke="midnightblue" points="932.606,-75.1903 922.016,-75.5164 930.498,-81.8654 932.606,-75.1903"/>
</g>
<!-- Node21 -->
<g id="node21" class="node"><title>Node21</title>
<g id="a_node21"><a xlink:href="spinlock_8hpp.html" target="_top" xlink:title="spinlock.hpp">
<polygon fill="none" stroke="black" points="1260.55,-56.5 1260.55,-75.5 1331.55,-75.5 1331.55,-56.5 1260.55,-56.5"/>
<text text-anchor="middle" x="1296.05" y="-63.5" font-family="Helvetica,sans-Serif" font-size="10.00">spinlock.hpp</text>
</a>
</g>
</g>
<!-- Node6&#45;&gt;Node21 -->
<g id="edge28" class="edge"><title>Node6&#45;&gt;Node21</title>
<path fill="none" stroke="midnightblue" d="M1102.49,-112.444C1142.6,-103.028 1207.12,-87.8791 1250.52,-77.6887"/>
<polygon fill="midnightblue" stroke="midnightblue" points="1251.59,-81.0321 1260.53,-75.339 1249.99,-74.2174 1251.59,-81.0321"/>
</g>
<!-- Node17&#45;&gt;Node5 -->
<g id="edge20" class="edge"><title>Node17&#45;&gt;Node5</title>
<path fill="none" stroke="midnightblue" d="M1094.52,-60.9104C1079.56,-59.2628 1061.97,-57.4204 1046.05,-56 817.738,-35.6346 542.298,-18.5662 448.321,-12.9548"/>
<polygon fill="midnightblue" stroke="midnightblue" points="448.467,-9.45742 438.277,-12.3575 448.051,-16.4451 448.467,-9.45742"/>
</g>
<!-- Node17&#45;&gt;Node7 -->
<g id="edge19" class="edge"><title>Node17&#45;&gt;Node7</title>
<path fill="none" stroke="midnightblue" d="M1146.27,-56.324C1162.4,-47.7034 1187.35,-34.3643 1206.01,-24.3855"/>
<polygon fill="midnightblue" stroke="midnightblue" points="1207.69,-27.456 1214.86,-19.6545 1204.39,-21.283 1207.69,-27.456"/>
</g>
<!-- Node17&#45;&gt;Node14 -->
<g id="edge21" class="edge"><title>Node17&#45;&gt;Node14</title>
<path fill="none" stroke="midnightblue" d="M1104.06,-56.4435C1076.35,-47.3196 1032.29,-32.8133 1001.43,-22.6509"/>
<polygon fill="midnightblue" stroke="midnightblue" points="1002.51,-19.3196 991.912,-19.5164 1000.32,-25.9684 1002.51,-19.3196"/>
</g>
<!-- Node17&#45;&gt;Node16 -->
<g id="edge23" class="edge"><title>Node17&#45;&gt;Node16</title>
<path fill="none" stroke="midnightblue" d="M1135.99,-56.083C1141.02,-48.5341 1148.38,-37.4948 1154.56,-28.2298"/>
<polygon fill="midnightblue" stroke="midnightblue" points="1157.58,-30.0131 1160.21,-19.7511 1151.75,-26.1301 1157.58,-30.0131"/>
</g>
<!-- Node18 -->
<g id="node18" class="node"><title>Node18</title>
<polygon fill="none" stroke="#bfbfbf" points="1086.05,-0.5 1086.05,-19.5 1126.05,-19.5 1126.05,-0.5 1086.05,-0.5"/>
<text text-anchor="middle" x="1106.05" y="-7.5" font-family="Helvetica,sans-Serif" font-size="10.00">utility</text>
</g>
<!-- Node17&#45;&gt;Node18 -->
<g id="edge22" class="edge"><title>Node17&#45;&gt;Node18</title>
<path fill="none" stroke="midnightblue" d="M1126.08,-56.083C1122.83,-48.77 1118.13,-38.1814 1114.09,-29.1034"/>
<polygon fill="midnightblue" stroke="midnightblue" points="1117.2,-27.4677 1109.94,-19.7511 1110.8,-30.3107 1117.2,-27.4677"/>
</g>
<!-- Node19&#45;&gt;Node14 -->
<g id="edge27" class="edge"><title>Node19&#45;&gt;Node14</title>
<path fill="none" stroke="midnightblue" d="M906.455,-56.324C917.156,-48.1849 933.388,-35.8395 946.21,-26.0874"/>
<polygon fill="midnightblue" stroke="midnightblue" points="948.592,-28.6734 954.432,-19.8339 944.354,-23.1018 948.592,-28.6734"/>
</g>
<!-- Node20 -->
<g id="node20" class="node"><title>Node20</title>
<polygon fill="none" stroke="#bfbfbf" points="693.547,-0.5 693.547,-19.5 752.547,-19.5 752.547,-0.5 693.547,-0.5"/>
<text text-anchor="middle" x="723.047" y="-7.5" font-family="Helvetica,sans-Serif" font-size="10.00">exception</text>
</g>
<!-- Node19&#45;&gt;Node20 -->
<g id="edge26" class="edge"><title>Node19&#45;&gt;Node20</title>
<path fill="none" stroke="midnightblue" d="M867.793,-56.4435C838.606,-47.2801 792.126,-32.6876 759.738,-22.5192"/>
<polygon fill="midnightblue" stroke="midnightblue" points="760.763,-19.1726 750.174,-19.5164 758.666,-25.8512 760.763,-19.1726"/>
</g>
<!-- Node22 -->
<g id="node22" class="node"><title>Node22</title>
<polygon fill="none" stroke="#bfbfbf" points="1274.05,-0.5 1274.05,-19.5 1320.05,-19.5 1320.05,-0.5 1274.05,-0.5"/>
<text text-anchor="middle" x="1297.05" y="-7.5" font-family="Helvetica,sans-Serif" font-size="10.00">atomic</text>
</g>
<!-- Node21&#45;&gt;Node22 -->
<g id="edge29" class="edge"><title>Node21&#45;&gt;Node22</title>
<path fill="none" stroke="midnightblue" d="M1296.21,-56.083C1296.34,-49.0059 1296.53,-38.8611 1296.7,-29.9865"/>
<polygon fill="midnightblue" stroke="midnightblue" points="1300.2,-29.8142 1296.89,-19.7511 1293.2,-29.6845 1300.2,-29.8142"/>
</g>
<!-- Node23&#45;&gt;Node2 -->
<g id="edge51" class="edge"><title>Node23&#45;&gt;Node2</title>
<path fill="none" stroke="midnightblue" d="M309.092,-187.516C343.294,-196.664 394.824,-211.255 429.014,-221.436"/>
<polygon fill="midnightblue" stroke="midnightblue" points="428.446,-224.92 439.03,-224.444 430.459,-218.216 428.446,-224.92"/>
</g>
<!-- Node24 -->
<g id="node24" class="node"><title>Node24</title>
<polygon fill="none" stroke="#bfbfbf" points="94.5473,-56.5 94.5473,-75.5 139.547,-75.5 139.547,-56.5 94.5473,-56.5"/>
<text text-anchor="middle" x="117.047" y="-63.5" font-family="Helvetica,sans-Serif" font-size="10.00">cstdlib</text>
</g>
<!-- Node23&#45;&gt;Node24 -->
<g id="edge31" class="edge"><title>Node23&#45;&gt;Node24</title>
<path fill="none" stroke="midnightblue" d="M214.055,-168.459C188.768,-162.129 160.703,-151.123 141.047,-132 128.529,-119.821 122.491,-100.549 119.608,-86.1474"/>
<polygon fill="midnightblue" stroke="midnightblue" points="122.994,-85.1654 117.91,-75.8699 116.087,-86.3067 122.994,-85.1654"/>
</g>
<!-- Node25 -->
<g id="node25" class="node"><title>Node25</title>
<polygon fill="none" stroke="#bfbfbf" points="62.0473,-0.5 62.0473,-19.5 114.047,-19.5 114.047,-0.5 62.0473,-0.5"/>
<text text-anchor="middle" x="88.0473" y="-7.5" font-family="Helvetica,sans-Serif" font-size="10.00">sstream</text>
</g>
<!-- Node23&#45;&gt;Node25 -->
<g id="edge32" class="edge"><title>Node23&#45;&gt;Node25</title>
<path fill="none" stroke="midnightblue" d="M212.809,-174.163C147.826,-167.426 48.5166,-145.582 4.04729,-76 -11.3868,-51.8501 22.8854,-33.0645 52.1952,-22.0316"/>
<polygon fill="midnightblue" stroke="midnightblue" points="53.6177,-25.2405 61.8658,-18.5907 51.2711,-18.6455 53.6177,-25.2405"/>
</g>
<!-- Node26 -->
<g id="node26" class="node"><title>Node26</title>
<g id="a_node26"><a xlink:href="IPv4__5TupleL2Ident_8hpp.html" target="_top" xlink:title="IPv4_5TupleL2Ident.hpp">
<polygon fill="none" stroke="black" points="385.047,-112.5 385.047,-131.5 507.047,-131.5 507.047,-112.5 385.047,-112.5"/>
<text text-anchor="middle" x="446.047" y="-119.5" font-family="Helvetica,sans-Serif" font-size="10.00">IPv4_5TupleL2Ident.hpp</text>
</a>
</g>
</g>
<!-- Node23&#45;&gt;Node26 -->
<g id="edge33" class="edge"><title>Node23&#45;&gt;Node26</title>
<path fill="none" stroke="midnightblue" d="M301.301,-168.444C330.488,-159.28 376.968,-144.688 409.357,-134.519"/>
<polygon fill="midnightblue" stroke="midnightblue" points="410.428,-137.851 418.921,-131.516 408.332,-131.173 410.428,-137.851"/>
</g>
<!-- Node28 -->
<g id="node28" class="node"><title>Node28</title>
<g id="a_node28"><a xlink:href="headers_8hpp.html" target="_top" xlink:title="headers.hpp">
<polygon fill="none" stroke="black" points="196.047,-56.5 196.047,-75.5 266.047,-75.5 266.047,-56.5 196.047,-56.5"/>
<text text-anchor="middle" x="231.047" y="-63.5" font-family="Helvetica,sans-Serif" font-size="10.00">headers.hpp</text>
</a>
</g>
</g>
<!-- Node23&#45;&gt;Node28 -->
<g id="edge50" class="edge"><title>Node23&#45;&gt;Node28</title>
<path fill="none" stroke="midnightblue" d="M270.287,-168.421C266.366,-159.402 260.1,-144.775 255.047,-132 248.895,-116.444 242.345,-98.6082 237.644,-85.5598"/>
<polygon fill="midnightblue" stroke="midnightblue" points="240.845,-84.1161 234.181,-75.8801 234.255,-86.4747 240.845,-84.1161"/>
</g>
<!-- Node32 -->
<g id="node32" class="node"><title>Node32</title>
<g id="a_node32"><a xlink:href="mbuf_8hpp.html" target="_top" xlink:title="mbuf.hpp">
<polygon fill="none" stroke="black" points="150.547,-112.5 150.547,-131.5 207.547,-131.5 207.547,-112.5 150.547,-112.5"/>
<text text-anchor="middle" x="179.047" y="-119.5" font-family="Helvetica,sans-Serif" font-size="10.00">mbuf.hpp</text>
</a>
</g>
</g>
<!-- Node23&#45;&gt;Node32 -->
<g id="edge52" class="edge"><title>Node23&#45;&gt;Node32</title>
<path fill="none" stroke="midnightblue" d="M258.784,-168.324C243.826,-159.822 220.792,-146.729 203.321,-136.797"/>
<polygon fill="midnightblue" stroke="midnightblue" points="204.696,-133.553 194.273,-131.655 201.237,-139.639 204.696,-133.553"/>
</g>
<!-- Node34 -->
<g id="node34" class="node"><title>Node34</title>
<g id="a_node34"><a xlink:href="samplePacket_8hpp.html" target="_top" xlink:title="samplePacket.hpp">
<polygon fill="none" stroke="black" points="264.047,-112.5 264.047,-131.5 362.047,-131.5 362.047,-112.5 264.047,-112.5"/>
<text text-anchor="middle" x="313.047" y="-119.5" font-family="Helvetica,sans-Serif" font-size="10.00">samplePacket.hpp</text>
</a>
</g>
</g>
<!-- Node23&#45;&gt;Node34 -->
<g id="edge55" class="edge"><title>Node23&#45;&gt;Node34</title>
<path fill="none" stroke="midnightblue" d="M280.487,-168.083C285.996,-160.455 294.079,-149.264 300.812,-139.941"/>
<polygon fill="midnightblue" stroke="midnightblue" points="303.71,-141.907 306.727,-131.751 298.035,-137.809 303.71,-141.907"/>
</g>
<!-- Node26&#45;&gt;Node4 -->
<g id="edge41" class="edge"><title>Node26&#45;&gt;Node4</title>
<path fill="none" stroke="midnightblue" d="M485.977,-112.444C530.843,-102.829 603.598,-87.239 651.137,-77.0522"/>
<polygon fill="midnightblue" stroke="midnightblue" points="652.129,-80.4192 661.173,-74.9015 650.662,-73.5746 652.129,-80.4192"/>
</g>
<!-- Node26&#45;&gt;Node5 -->
<g id="edge34" class="edge"><title>Node26&#45;&gt;Node5</title>
<path fill="none" stroke="midnightblue" d="M443.246,-112.408C440.332,-103.379 435.694,-88.7431 432.047,-76 427.629,-60.5612 423.047,-42.9293 419.754,-29.9281"/>
<polygon fill="midnightblue" stroke="midnightblue" points="423.058,-28.7138 417.229,-19.8663 416.268,-30.4175 423.058,-28.7138"/>
</g>
<!-- Node26&#45;&gt;Node9 -->
<g id="edge36" class="edge"><title>Node26&#45;&gt;Node9</title>
<path fill="none" stroke="midnightblue" d="M472.667,-112.444C501.053,-103.32 546.184,-88.8133 577.8,-78.6509"/>
<polygon fill="midnightblue" stroke="midnightblue" points="579.102,-81.9087 587.552,-75.5164 576.96,-75.2445 579.102,-81.9087"/>
</g>
<!-- Node26&#45;&gt;Node10 -->
<g id="edge37" class="edge"><title>Node26&#45;&gt;Node10</title>
<path fill="none" stroke="midnightblue" d="M460.989,-112.324C475.632,-103.822 498.181,-90.7288 515.285,-80.7975"/>
<polygon fill="midnightblue" stroke="midnightblue" points="517.252,-83.7027 524.142,-75.6545 513.737,-77.6491 517.252,-83.7027"/>
</g>
<!-- Node26&#45;&gt;Node14 -->
<g id="edge39" class="edge"><title>Node26&#45;&gt;Node14</title>
<path fill="none" stroke="midnightblue" d="M450.661,-112.403C458.968,-97.8957 477.94,-68.8767 503.047,-56 540.303,-36.8929 821.026,-19.2124 926.318,-13.1855"/>
<polygon fill="midnightblue" stroke="midnightblue" points="926.742,-16.6671 936.528,-12.6062 926.346,-9.67836 926.742,-16.6671"/>
</g>
<!-- Node26&#45;&gt;Node19 -->
<g id="edge49" class="edge"><title>Node26&#45;&gt;Node19</title>
<path fill="none" stroke="midnightblue" d="M507.069,-113.661C596.031,-102.962 759.798,-83.2661 843.237,-73.2311"/>
<polygon fill="midnightblue" stroke="midnightblue" points="843.736,-76.6963 853.247,-72.0272 842.901,-69.7464 843.736,-76.6963"/>
</g>
<!-- Node26&#45;&gt;Node20 -->
<g id="edge35" class="edge"><title>Node26&#45;&gt;Node20</title>
<path fill="none" stroke="midnightblue" d="M446.6,-112.298C447.992,-98.1635 452.885,-70.3552 470.047,-56 501.749,-29.4836 620.089,-17.778 683.051,-13.3343"/>
<polygon fill="midnightblue" stroke="midnightblue" points="683.654,-16.8016 693.395,-12.6345 683.182,-9.81753 683.654,-16.8016"/>
</g>
<!-- Node26&#45;&gt;Node25 -->
<g id="edge38" class="edge"><title>Node26&#45;&gt;Node25</title>
<path fill="none" stroke="midnightblue" d="M384.996,-113.311C320.126,-104.625 222.168,-89.8855 187.047,-76 156.18,-63.7962 124.874,-41.1361 105.958,-26.0602"/>
<polygon fill="midnightblue" stroke="midnightblue" points="107.917,-23.142 97.9538,-19.5398 103.496,-28.5692 107.917,-23.142"/>
</g>
<!-- Node27 -->
<g id="node27" class="node"><title>Node27</title>
<polygon fill="none" stroke="#bfbfbf" points="332.547,-0.5 332.547,-19.5 373.547,-19.5 373.547,-0.5 332.547,-0.5"/>
<text text-anchor="middle" x="353.047" y="-7.5" font-family="Helvetica,sans-Serif" font-size="10.00">string</text>
</g>
<!-- Node26&#45;&gt;Node27 -->
<g id="edge40" class="edge"><title>Node26&#45;&gt;Node27</title>
<path fill="none" stroke="midnightblue" d="M438.75,-112.368C423.266,-94.0547 386.907,-51.0489 366.881,-27.3624"/>
<polygon fill="midnightblue" stroke="midnightblue" points="369.44,-24.9682 360.311,-19.5914 364.095,-29.4877 369.44,-24.9682"/>
</g>
<!-- Node26&#45;&gt;Node28 -->
<g id="edge42" class="edge"><title>Node26&#45;&gt;Node28</title>
<path fill="none" stroke="midnightblue" d="M411.98,-112.444C374.867,-103.122 315.386,-88.1828 274.833,-77.9972"/>
<polygon fill="midnightblue" stroke="midnightblue" points="275.507,-74.5579 264.955,-75.5164 273.801,-81.347 275.507,-74.5579"/>
</g>
<!-- Node28&#45;&gt;Node5 -->
<g id="edge44" class="edge"><title>Node28&#45;&gt;Node5</title>
<path fill="none" stroke="midnightblue" d="M260.203,-56.4435C293.405,-46.6993 347.527,-30.8158 382.195,-20.6414"/>
<polygon fill="midnightblue" stroke="midnightblue" points="383.245,-23.9811 391.854,-17.8067 381.273,-17.2644 383.245,-23.9811"/>
</g>
<!-- Node28&#45;&gt;Node25 -->
<g id="edge46" class="edge"><title>Node28&#45;&gt;Node25</title>
<path fill="none" stroke="midnightblue" d="M208.389,-56.4435C184.645,-47.4776 147.138,-33.314 120.309,-23.1827"/>
<polygon fill="midnightblue" stroke="midnightblue" points="121.192,-19.7749 110.6,-19.5164 118.719,-26.3235 121.192,-19.7749"/>
</g>
<!-- Node28&#45;&gt;Node27 -->
<g id="edge47" class="edge"><title>Node28&#45;&gt;Node27</title>
<path fill="none" stroke="midnightblue" d="M250.379,-56.4435C270.367,-47.5961 301.79,-33.6875 324.611,-23.5865"/>
<polygon fill="midnightblue" stroke="midnightblue" points="326.079,-26.7645 333.806,-19.5164 323.246,-20.3635 326.079,-26.7645"/>
</g>
<!-- Node29 -->
<g id="node29" class="node"><title>Node29</title>
<polygon fill="none" stroke="#bfbfbf" points="212.047,-0.5 212.047,-19.5 250.047,-19.5 250.047,-0.5 212.047,-0.5"/>
<text text-anchor="middle" x="231.047" y="-7.5" font-family="Helvetica,sans-Serif" font-size="10.00">array</text>
</g>
<!-- Node28&#45;&gt;Node29 -->
<g id="edge43" class="edge"><title>Node28&#45;&gt;Node29</title>
<path fill="none" stroke="midnightblue" d="M231.047,-56.083C231.047,-49.0059 231.047,-38.8611 231.047,-29.9865"/>
<polygon fill="midnightblue" stroke="midnightblue" points="234.547,-29.751 231.047,-19.7511 227.547,-29.7511 234.547,-29.751"/>
</g>
<!-- Node30 -->
<g id="node30" class="node"><title>Node30</title>
<polygon fill="none" stroke="#bfbfbf" points="268.047,-0.5 268.047,-19.5 314.047,-19.5 314.047,-0.5 268.047,-0.5"/>
<text text-anchor="middle" x="291.047" y="-7.5" font-family="Helvetica,sans-Serif" font-size="10.00">cstring</text>
</g>
<!-- Node28&#45;&gt;Node30 -->
<g id="edge45" class="edge"><title>Node28&#45;&gt;Node30</title>
<path fill="none" stroke="midnightblue" d="M240.687,-56.324C249.557,-48.3414 262.922,-36.3128 273.655,-26.6529"/>
<polygon fill="midnightblue" stroke="midnightblue" points="276.14,-29.1251 281.232,-19.8339 271.457,-23.922 276.14,-29.1251"/>
</g>
<!-- Node31 -->
<g id="node31" class="node"><title>Node31</title>
<polygon fill="none" stroke="#bfbfbf" points="132.047,-0.5 132.047,-19.5 194.047,-19.5 194.047,-0.5 132.047,-0.5"/>
<text text-anchor="middle" x="163.047" y="-7.5" font-family="Helvetica,sans-Serif" font-size="10.00">arpa/inet.h</text>
</g>
<!-- Node28&#45;&gt;Node31 -->
<g id="edge48" class="edge"><title>Node28&#45;&gt;Node31</title>
<path fill="none" stroke="midnightblue" d="M220.122,-56.324C209.873,-48.1849 194.327,-35.8395 182.046,-26.0874"/>
<polygon fill="midnightblue" stroke="midnightblue" points="184.179,-23.3119 174.171,-19.8339 179.826,-28.7937 184.179,-23.3119"/>
</g>
<!-- Node32&#45;&gt;Node5 -->
<g id="edge53" class="edge"><title>Node32&#45;&gt;Node5</title>
<path fill="none" stroke="midnightblue" d="M197.566,-112.368C238.839,-93.131 338.566,-46.6478 387.304,-23.9314"/>
<polygon fill="midnightblue" stroke="midnightblue" points="389.03,-26.9885 396.615,-19.5914 386.072,-20.6438 389.03,-26.9885"/>
</g>
<!-- Node32&#45;&gt;Node33 -->
<g id="edge54" class="edge"><title>Node32&#45;&gt;Node33</title>
<path fill="none" stroke="midnightblue" d="M157.815,-112.444C135.664,-103.517 100.729,-89.4387 75.6112,-79.3168"/>
<polygon fill="midnightblue" stroke="midnightblue" points="76.7641,-76.0079 66.1806,-75.5164 74.1476,-82.5006 76.7641,-76.0079"/>
</g>
<!-- Node34&#45;&gt;Node5 -->
<g id="edge56" class="edge"><title>Node34&#45;&gt;Node5</title>
<path fill="none" stroke="midnightblue" d="M321.051,-112.368C338.107,-93.9744 378.261,-50.6712 400.163,-27.0519"/>
<polygon fill="midnightblue" stroke="midnightblue" points="402.848,-29.3039 407.081,-19.5914 397.715,-24.5443 402.848,-29.3039"/>
</g>
<!-- Node34&#45;&gt;Node24 -->
<g id="edge57" class="edge"><title>Node34&#45;&gt;Node24</title>
<path fill="none" stroke="midnightblue" d="M281.991,-112.444C245.78,-102.467 186.212,-86.0556 149.439,-75.9242"/>
<polygon fill="midnightblue" stroke="midnightblue" points="150.28,-72.5257 139.71,-73.2437 148.421,-79.2742 150.28,-72.5257"/>
</g>
</g>
</svg>
