<?xml version="1.0" encoding="UTF-8" standalone="no"?>
<!DOCTYPE svg PUBLIC "-//W3C//DTD SVG 1.1//EN"
 "http://www.w3.org/Graphics/SVG/1.1/DTD/svg11.dtd">
<!-- Generated by graphviz version 2.40.1 (20161225.0304)
 -->
<!-- Title: /home/dominik/uni/MoonState/src/helloByeProtoStatic.cpp Pages: 1 -->
<svg width="1593pt" height="319pt"
 viewBox="0.00 0.00 1592.82 319.00" xmlns="http://www.w3.org/2000/svg" xmlns:xlink="http://www.w3.org/1999/xlink">
<g id="graph0" class="graph" transform="scale(1 1) rotate(0) translate(4 315)">
<title>/home/dominik/uni/MoonState/src/helloByeProtoStatic.cpp</title>
<!-- Node0 -->
<g id="node1" class="node">
<title>Node0</title>
<polygon fill="#bfbfbf" stroke="#000000" points="819.3187,-280.5 819.3187,-310.5 966.3187,-310.5 966.3187,-280.5 819.3187,-280.5"/>
<text text-anchor="start" x="827.3187" y="-298.5" font-family="Helvetica,sans-Serif" font-size="10.00" fill="#000000">/home/dominik/uni/MoonState</text>
<text text-anchor="middle" x="892.8187" y="-287.5" font-family="Helvetica,sans-Serif" font-size="10.00" fill="#000000">/src/helloByeProtoStatic.cpp</text>
</g>
<!-- Node1 -->
<g id="node2" class="node">
<title>Node1</title>
<g id="a_node2"><a xlink:href="helloByeProto_8hpp.html" target="_top" xlink:title="helloByeProto.hpp">
<polygon fill="none" stroke="#000000" points="788.8187,-224.5 788.8187,-243.5 884.8187,-243.5 884.8187,-224.5 788.8187,-224.5"/>
<text text-anchor="middle" x="836.8187" y="-231.5" font-family="Helvetica,sans-Serif" font-size="10.00" fill="#000000">helloByeProto.hpp</text>
</a>
</g>
</g>
<!-- Node0&#45;&gt;Node1 -->
<g id="edge1" class="edge">
<title>Node0&#45;&gt;Node1</title>
<path fill="none" stroke="#191970" d="M878.976,-280.2977C870.9597,-271.4941 860.8425,-260.3833 852.5287,-251.2529"/>
<polygon fill="#191970" stroke="#191970" points="855.1057,-248.8845 845.785,-243.8469 849.9299,-253.5974 855.1057,-248.8845"/>
</g>
<!-- Node2 -->
<g id="node3" class="node">
<title>Node2</title>
<polygon fill="none" stroke="#bfbfbf" points="1540.8187,-56.5 1540.8187,-75.5 1584.8187,-75.5 1584.8187,-56.5 1540.8187,-56.5"/>
<text text-anchor="middle" x="1562.8187" y="-63.5" font-family="Helvetica,sans-Serif" font-size="10.00" fill="#000000">mutex</text>
</g>
<!-- Node0&#45;&gt;Node2 -->
<g id="edge59" class="edge">
<title>Node0&#45;&gt;Node2</title>
<path fill="none" stroke="#191970" d="M936.7793,-280.4419C1062.5643,-237.3558 1421.8717,-114.2796 1531.0013,-76.8986"/>
<polygon fill="#191970" stroke="#191970" points="1532.4389,-80.1059 1540.765,-73.5542 1530.1704,-73.4837 1532.4389,-80.1059"/>
</g>
<!-- Node1&#45;&gt;Node2 -->
<g id="edge2" class="edge">
<title>Node1&#45;&gt;Node2</title>
<path fill="none" stroke="#191970" d="M885.2114,-224.5364C997.3618,-202.2753 1283.6909,-143.5495 1530.6618,-76.1533"/>
<polygon fill="#191970" stroke="#191970" points="1531.8187,-79.4654 1540.5386,-73.4475 1529.9691,-72.7141 1531.8187,-79.4654"/>
</g>
<!-- Node3 -->
<g id="node4" class="node">
<title>Node3</title>
<g id="a_node4"><a xlink:href="common_8hpp.html" target="_top" xlink:title="common.hpp">
<polygon fill="none" stroke="#000000" points="589.3187,-56.5 589.3187,-75.5 662.3187,-75.5 662.3187,-56.5 589.3187,-56.5"/>
<text text-anchor="middle" x="625.8187" y="-63.5" font-family="Helvetica,sans-Serif" font-size="10.00" fill="#000000">common.hpp</text>
</a>
</g>
</g>
<!-- Node1&#45;&gt;Node3 -->
<g id="edge3" class="edge">
<title>Node1&#45;&gt;Node3</title>
<path fill="none" stroke="#191970" d="M824.8699,-224.4862C790.1345,-196.8296 688.9172,-116.2396 645.7258,-81.8502"/>
<polygon fill="#191970" stroke="#191970" points="647.9013,-79.1084 637.898,-75.6177 643.5411,-84.5846 647.9013,-79.1084"/>
</g>
<!-- Node6 -->
<g id="node7" class="node">
<title>Node6</title>
<g id="a_node7"><a xlink:href="stateMachine_8hpp.html" target="_top" xlink:title="stateMachine.hpp">
<polygon fill="none" stroke="#000000" points="944.8187,-112.5 944.8187,-131.5 1038.8187,-131.5 1038.8187,-112.5 944.8187,-112.5"/>
<text text-anchor="middle" x="991.8187" y="-119.5" font-family="Helvetica,sans-Serif" font-size="10.00" fill="#000000">stateMachine.hpp</text>
</a>
</g>
</g>
<!-- Node1&#45;&gt;Node6 -->
<g id="edge6" class="edge">
<title>Node1&#45;&gt;Node6</title>
<path fill="none" stroke="#191970" d="M850.0339,-224.4509C876.8012,-205.1094 937.6427,-161.1465 970.2428,-137.5904"/>
<polygon fill="#191970" stroke="#191970" points="972.5814,-140.2186 978.637,-131.5249 968.4816,-134.5448 972.5814,-140.2186"/>
</g>
<!-- Node23 -->
<g id="node24" class="node">
<title>Node23</title>
<g id="a_node24"><a xlink:href="helloByeProto_8cpp.html" target="_top" xlink:title="../src/helloByeProto.cpp">
<polygon fill="none" stroke="#000000" points="204.8187,-168.5 204.8187,-187.5 326.8187,-187.5 326.8187,-168.5 204.8187,-168.5"/>
<text text-anchor="middle" x="265.8187" y="-175.5" font-family="Helvetica,sans-Serif" font-size="10.00" fill="#000000">../src/helloByeProto.cpp</text>
</a>
</g>
</g>
<!-- Node1&#45;&gt;Node23 -->
<g id="edge31" class="edge">
<title>Node1&#45;&gt;Node23</title>
<path fill="none" stroke="#191970" d="M788.6628,-229.6524C687.9737,-220.1262 455.1001,-197.3181 337.0622,-185.4544"/>
<polygon fill="#191970" stroke="#191970" points="337.3404,-181.9648 327.0401,-184.4455 336.6392,-188.9296 337.3404,-181.9648"/>
</g>
<!-- Node4 -->
<g id="node5" class="node">
<title>Node4</title>
<polygon fill="none" stroke="#bfbfbf" points="328.8187,-.5 328.8187,-19.5 366.8187,-19.5 366.8187,-.5 328.8187,-.5"/>
<text text-anchor="middle" x="347.8187" y="-7.5" font-family="Helvetica,sans-Serif" font-size="10.00" fill="#000000">array</text>
</g>
<!-- Node3&#45;&gt;Node4 -->
<g id="edge4" class="edge">
<title>Node3&#45;&gt;Node4</title>
<path fill="none" stroke="#191970" d="M589.1874,-57.9005C586.0219,-57.2419 582.8658,-56.5998 579.8187,-56 492.5723,-38.8254 466.582,-43.2277 376.7473,-19.9004"/>
<polygon fill="#191970" stroke="#191970" points="377.5266,-16.4862 366.9644,-17.3174 375.7395,-23.2543 377.5266,-16.4862"/>
</g>
<!-- Node5 -->
<g id="node6" class="node">
<title>Node5</title>
<polygon fill="none" stroke="#bfbfbf" points="916.3187,-.5 916.3187,-19.5 965.3187,-19.5 965.3187,-.5 916.3187,-.5"/>
<text text-anchor="middle" x="940.8187" y="-7.5" font-family="Helvetica,sans-Serif" font-size="10.00" fill="#000000">cassert</text>
</g>
<!-- Node3&#45;&gt;Node5 -->
<g id="edge5" class="edge">
<title>Node3&#45;&gt;Node5</title>
<path fill="none" stroke="#191970" d="M662.4434,-57.8665C665.6104,-57.2153 668.7686,-56.5842 671.8187,-56 767.8362,-37.6105 792.5869,-37.2325 888.8187,-20 894.4179,-18.9973 900.3483,-17.8952 906.1226,-16.8002"/>
<polygon fill="#191970" stroke="#191970" points="907.0804,-20.1804 916.2425,-14.86 905.7623,-13.3056 907.0804,-20.1804"/>
</g>
<!-- Node6&#45;&gt;Node2 -->
<g id="edge14" class="edge">
<title>Node6&#45;&gt;Node2</title>
<path fill="none" stroke="#191970" d="M1039.2126,-119.3475C1149.2492,-112.9728 1420.4158,-95.9652 1530.4896,-75.7874"/>
<polygon fill="#191970" stroke="#191970" points="1531.4755,-79.1616 1540.6282,-73.8251 1530.1453,-72.2892 1531.4755,-79.1616"/>
</g>
<!-- Node6&#45;&gt;Node3 -->
<g id="edge25" class="edge">
<title>Node6&#45;&gt;Node3</title>
<path fill="none" stroke="#191970" d="M944.7465,-116.3005C884.1529,-108.7278 775.4089,-94.3418 672.3809,-75.9933"/>
<polygon fill="#191970" stroke="#191970" points="672.8914,-72.5291 662.4301,-74.2054 671.6534,-79.4188 672.8914,-72.5291"/>
</g>
<!-- Node6&#45;&gt;Node5 -->
<g id="edge7" class="edge">
<title>Node6&#45;&gt;Node5</title>
<path fill="none" stroke="#191970" d="M983.692,-112.3546C976.5276,-103.4271 966.2549,-89.5288 959.8187,-76 952.7754,-61.1949 947.8169,-43.2537 944.7356,-29.8162"/>
<polygon fill="#191970" stroke="#191970" points="948.0981,-28.8027 942.5842,-19.7557 941.2528,-30.2666 948.0981,-28.8027"/>
</g>
<!-- Node7 -->
<g id="node8" class="node">
<title>Node7</title>
<polygon fill="none" stroke="#bfbfbf" points="968.8187,-56.5 968.8187,-75.5 1014.8187,-75.5 1014.8187,-56.5 968.8187,-56.5"/>
<text text-anchor="middle" x="991.8187" y="-63.5" font-family="Helvetica,sans-Serif" font-size="10.00" fill="#000000">chrono</text>
</g>
<!-- Node6&#45;&gt;Node7 -->
<g id="edge8" class="edge">
<title>Node6&#45;&gt;Node7</title>
<path fill="none" stroke="#191970" d="M991.8187,-112.2455C991.8187,-104.9382 991.8187,-94.6944 991.8187,-85.7046"/>
<polygon fill="#191970" stroke="#191970" points="995.3188,-85.6426 991.8187,-75.6427 988.3188,-85.6427 995.3188,-85.6426"/>
</g>
<!-- Node8 -->
<g id="node9" class="node">
<title>Node8</title>
<polygon fill="none" stroke="#bfbfbf" points="384.8187,-.5 384.8187,-19.5 430.8187,-19.5 430.8187,-.5 384.8187,-.5"/>
<text text-anchor="middle" x="407.8187" y="-7.5" font-family="Helvetica,sans-Serif" font-size="10.00" fill="#000000">cstdint</text>
</g>
<!-- Node6&#45;&gt;Node8 -->
<g id="edge9" class="edge">
<title>Node6&#45;&gt;Node8</title>
<path fill="none" stroke="#191970" d="M944.5052,-115.3669C901.2596,-108.4364 835.9852,-95.776 781.8187,-76 763.8909,-69.4546 761.9927,-61.827 743.8187,-56 687.8424,-38.0527 514.7672,-20.1168 441.323,-13.0937"/>
<polygon fill="#191970" stroke="#191970" points="441.5213,-9.5969 431.2357,-12.1379 440.861,-16.5656 441.5213,-9.5969"/>
</g>
<!-- Node9 -->
<g id="node10" class="node">
<title>Node9</title>
<polygon fill="none" stroke="#bfbfbf" points="512.3187,-56.5 512.3187,-75.5 571.3187,-75.5 571.3187,-56.5 512.3187,-56.5"/>
<text text-anchor="middle" x="541.8187" y="-63.5" font-family="Helvetica,sans-Serif" font-size="10.00" fill="#000000">functional</text>
</g>
<!-- Node6&#45;&gt;Node9 -->
<g id="edge10" class="edge">
<title>Node6&#45;&gt;Node9</title>
<path fill="none" stroke="#191970" d="M944.5298,-118.9771C869.4626,-113.6866 718.3255,-101.0329 581.8158,-76.166"/>
<polygon fill="#191970" stroke="#191970" points="582.066,-72.653 571.5962,-74.2761 580.793,-79.5363 582.066,-72.653"/>
</g>
<!-- Node10 -->
<g id="node11" class="node">
<title>Node10</title>
<polygon fill="none" stroke="#bfbfbf" points="680.8187,-56.5 680.8187,-75.5 734.8187,-75.5 734.8187,-56.5 680.8187,-56.5"/>
<text text-anchor="middle" x="707.8187" y="-63.5" font-family="Helvetica,sans-Serif" font-size="10.00" fill="#000000">iostream</text>
</g>
<!-- Node6&#45;&gt;Node10 -->
<g id="edge11" class="edge">
<title>Node6&#45;&gt;Node10</title>
<path fill="none" stroke="#191970" d="M944.6333,-113.8199C895.5646,-105.1374 816.5921,-90.6694 748.8187,-76 747.57,-75.7297 746.3012,-75.4499 745.0209,-75.163"/>
<polygon fill="#191970" stroke="#191970" points="745.652,-71.7166 735.12,-72.8689 744.0719,-78.5359 745.652,-71.7166"/>
</g>
<!-- Node11 -->
<g id="node12" class="node">
<title>Node11</title>
<polygon fill="none" stroke="#bfbfbf" points="1032.8187,-56.5 1032.8187,-75.5 1072.8187,-75.5 1072.8187,-56.5 1032.8187,-56.5"/>
<text text-anchor="middle" x="1052.8187" y="-63.5" font-family="Helvetica,sans-Serif" font-size="10.00" fill="#000000">limits</text>
</g>
<!-- Node6&#45;&gt;Node11 -->
<g id="edge12" class="edge">
<title>Node6&#45;&gt;Node11</title>
<path fill="none" stroke="#191970" d="M1002.4441,-112.2455C1011.366,-104.0549 1024.3067,-92.1749 1034.838,-82.5069"/>
<polygon fill="#191970" stroke="#191970" points="1037.3155,-84.9837 1042.3151,-75.6427 1032.5816,-79.8271 1037.3155,-84.9837"/>
</g>
<!-- Node12 -->
<g id="node13" class="node">
<title>Node12</title>
<polygon fill="none" stroke="#bfbfbf" points="1090.8187,-56.5 1090.8187,-75.5 1142.8187,-75.5 1142.8187,-56.5 1090.8187,-56.5"/>
<text text-anchor="middle" x="1116.8187" y="-63.5" font-family="Helvetica,sans-Serif" font-size="10.00" fill="#000000">memory</text>
</g>
<!-- Node6&#45;&gt;Node12 -->
<g id="edge13" class="edge">
<title>Node6&#45;&gt;Node12</title>
<path fill="none" stroke="#191970" d="M1013.307,-112.3733C1033.4627,-103.3435 1063.8068,-89.7494 1086.4368,-79.6111"/>
<polygon fill="#191970" stroke="#191970" points="1087.9158,-82.7838 1095.6109,-75.5011 1085.0538,-76.3955 1087.9158,-82.7838"/>
</g>
<!-- Node13 -->
<g id="node14" class="node">
<title>Node13</title>
<polygon fill="none" stroke="#bfbfbf" points="1161.3187,-56.5 1161.3187,-75.5 1204.3187,-75.5 1204.3187,-56.5 1161.3187,-56.5"/>
<text text-anchor="middle" x="1182.8187" y="-63.5" font-family="Helvetica,sans-Serif" font-size="10.00" fill="#000000">queue</text>
</g>
<!-- Node6&#45;&gt;Node13 -->
<g id="edge15" class="edge">
<title>Node6&#45;&gt;Node13</title>
<path fill="none" stroke="#191970" d="M1026.2451,-112.447C1056.6819,-103.9247 1102.5118,-90.9076 1151.3601,-76.0728"/>
<polygon fill="#191970" stroke="#191970" points="1152.6222,-79.3471 1161.1664,-73.0824 1150.5803,-72.6515 1152.6222,-79.3471"/>
</g>
<!-- Node14 -->
<g id="node15" class="node">
<title>Node14</title>
<polygon fill="none" stroke="#bfbfbf" points="821.3187,-.5 821.3187,-19.5 880.3187,-19.5 880.3187,-.5 821.3187,-.5"/>
<text text-anchor="middle" x="850.8187" y="-7.5" font-family="Helvetica,sans-Serif" font-size="10.00" fill="#000000">stdexcept</text>
</g>
<!-- Node6&#45;&gt;Node14 -->
<g id="edge16" class="edge">
<title>Node6&#45;&gt;Node14</title>
<path fill="none" stroke="#191970" d="M979.7971,-112.4509C955.5516,-93.1921 900.5739,-49.5218 870.8275,-25.8935"/>
<polygon fill="#191970" stroke="#191970" points="872.8172,-23.0041 862.8099,-19.5249 868.4633,-28.4854 872.8172,-23.0041"/>
</g>
<!-- Node15 -->
<g id="node16" class="node">
<title>Node15</title>
<polygon fill="none" stroke="#bfbfbf" points="1222.3187,-56.5 1222.3187,-75.5 1305.3187,-75.5 1305.3187,-56.5 1222.3187,-56.5"/>
<text text-anchor="middle" x="1263.8187" y="-63.5" font-family="Helvetica,sans-Serif" font-size="10.00" fill="#000000">unordered_map</text>
</g>
<!-- Node6&#45;&gt;Node15 -->
<g id="edge17" class="edge">
<title>Node6&#45;&gt;Node15</title>
<path fill="none" stroke="#191970" d="M1038.2681,-112.4369C1086.5317,-102.5003 1161.8815,-86.9871 1212.0342,-76.6615"/>
<polygon fill="#191970" stroke="#191970" points="1212.9352,-80.0495 1222.0239,-74.6048 1211.5235,-73.1933 1212.9352,-80.0495"/>
</g>
<!-- Node16 -->
<g id="node17" class="node">
<title>Node16</title>
<polygon fill="none" stroke="#bfbfbf" points="1398.8187,-.5 1398.8187,-19.5 1442.8187,-19.5 1442.8187,-.5 1398.8187,-.5"/>
<text text-anchor="middle" x="1420.8187" y="-7.5" font-family="Helvetica,sans-Serif" font-size="10.00" fill="#000000">vector</text>
</g>
<!-- Node6&#45;&gt;Node16 -->
<g id="edge18" class="edge">
<title>Node6&#45;&gt;Node16</title>
<path fill="none" stroke="#191970" d="M1039.0659,-119.6701C1141.2091,-114.2154 1375.6151,-99.2879 1402.8187,-76 1415.904,-64.7982 1419.9401,-45.1057 1420.9805,-30.1382"/>
<polygon fill="#191970" stroke="#191970" points="1424.4882,-29.9337 1421.2924,-19.8324 1417.4914,-29.7219 1424.4882,-29.9337"/>
</g>
<!-- Node17 -->
<g id="node18" class="node">
<title>Node17</title>
<g id="a_node18"><a xlink:href="bufArray_8hpp.html" target="_top" xlink:title="bufArray.hpp">
<polygon fill="none" stroke="#000000" points="1323.3187,-56.5 1323.3187,-75.5 1394.3187,-75.5 1394.3187,-56.5 1323.3187,-56.5"/>
<text text-anchor="middle" x="1358.8187" y="-63.5" font-family="Helvetica,sans-Serif" font-size="10.00" fill="#000000">bufArray.hpp</text>
</a>
</g>
</g>
<!-- Node6&#45;&gt;Node17 -->
<g id="edge19" class="edge">
<title>Node6&#45;&gt;Node17</title>
<path fill="none" stroke="#191970" d="M1038.9289,-116.4206C1099.8595,-108.9501 1209.4747,-94.6495 1313.009,-76.0331"/>
<polygon fill="#191970" stroke="#191970" points="1313.7936,-79.4479 1323.0077,-74.2181 1312.5433,-72.5605 1313.7936,-79.4479"/>
</g>
<!-- Node19 -->
<g id="node20" class="node">
<title>Node19</title>
<g id="a_node20"><a xlink:href="exceptions_8hpp.html" target="_top" xlink:title="exceptions.hpp">
<polygon fill="none" stroke="#000000" points="791.3187,-56.5 791.3187,-75.5 874.3187,-75.5 874.3187,-56.5 791.3187,-56.5"/>
<text text-anchor="middle" x="832.8187" y="-63.5" font-family="Helvetica,sans-Serif" font-size="10.00" fill="#000000">exceptions.hpp</text>
</a>
</g>
</g>
<!-- Node6&#45;&gt;Node19 -->
<g id="edge26" class="edge">
<title>Node6&#45;&gt;Node19</title>
<path fill="none" stroke="#191970" d="M964.4856,-112.3733C938.2753,-103.1419 898.5204,-89.1402 869.5519,-78.9375"/>
<polygon fill="#191970" stroke="#191970" points="870.3899,-75.5219 859.7951,-75.5011 868.0645,-82.1244 870.3899,-75.5219"/>
</g>
<!-- Node21 -->
<g id="node22" class="node">
<title>Node21</title>
<g id="a_node22"><a xlink:href="spinlock_8hpp.html" target="_top" xlink:title="spinlock.hpp">
<polygon fill="none" stroke="#000000" points="1451.3187,-56.5 1451.3187,-75.5 1522.3187,-75.5 1522.3187,-56.5 1451.3187,-56.5"/>
<text text-anchor="middle" x="1486.8187" y="-63.5" font-family="Helvetica,sans-Serif" font-size="10.00" fill="#000000">spinlock.hpp</text>
</a>
</g>
</g>
<!-- Node6&#45;&gt;Node21 -->
<g id="edge29" class="edge">
<title>Node6&#45;&gt;Node21</title>
<path fill="none" stroke="#191970" d="M1039.0974,-118.5875C1120.5873,-112.3769 1292.6377,-97.8204 1436.8187,-76 1438.2684,-75.7806 1439.7398,-75.5477 1441.224,-75.3041"/>
<polygon fill="#191970" stroke="#191970" points="1441.868,-78.7446 1451.1116,-73.5672 1440.6568,-71.8502 1441.868,-78.7446"/>
</g>
<!-- Node17&#45;&gt;Node5 -->
<g id="edge20" class="edge">
<title>Node17&#45;&gt;Node5</title>
<path fill="none" stroke="#191970" d="M1323.0188,-57.7194C1319.9145,-57.1001 1316.8157,-56.5166 1313.8187,-56 1190.1743,-34.6881 1041.8238,-19.4386 975.6471,-13.1687"/>
<polygon fill="#191970" stroke="#191970" points="975.6605,-9.6547 965.3774,-12.2056 975.0069,-16.6241 975.6605,-9.6547"/>
</g>
<!-- Node17&#45;&gt;Node8 -->
<g id="edge21" class="edge">
<title>Node17&#45;&gt;Node8</title>
<path fill="none" stroke="#191970" d="M1323.0552,-57.4822C1319.943,-56.9145 1316.8325,-56.4076 1313.8187,-56 997.6288,-13.2405 915.4635,-36.4292 596.8187,-20 542.4615,-17.1974 479.3167,-13.8348 441.5155,-11.8103"/>
<polygon fill="#191970" stroke="#191970" points="441.2679,-8.2921 431.0949,-11.2518 440.8931,-15.2821 441.2679,-8.2921"/>
</g>
<!-- Node17&#45;&gt;Node14 -->
<g id="edge22" class="edge">
<title>Node17&#45;&gt;Node14</title>
<path fill="none" stroke="#191970" d="M1323.0372,-57.6068C1319.9289,-57.012 1316.8242,-56.4648 1313.8187,-56 1134.3573,-28.2442 1086.8229,-43.9848 906.8187,-20 901.5691,-19.3005 896.0616,-18.4553 890.6345,-17.5561"/>
<polygon fill="#191970" stroke="#191970" points="890.8364,-14.0391 880.3863,-15.7844 889.6439,-20.9368 890.8364,-14.0391"/>
</g>
<!-- Node17&#45;&gt;Node16 -->
<g id="edge24" class="edge">
<title>Node17&#45;&gt;Node16</title>
<path fill="none" stroke="#191970" d="M1369.6183,-56.2455C1378.6865,-48.0549 1391.8393,-36.1749 1402.5432,-26.5069"/>
<polygon fill="#191970" stroke="#191970" points="1405.0679,-28.9429 1410.1429,-19.6427 1400.3758,-23.7482 1405.0679,-28.9429"/>
</g>
<!-- Node18 -->
<g id="node19" class="node">
<title>Node18</title>
<polygon fill="none" stroke="#bfbfbf" points="1338.8187,-.5 1338.8187,-19.5 1378.8187,-19.5 1378.8187,-.5 1338.8187,-.5"/>
<text text-anchor="middle" x="1358.8187" y="-7.5" font-family="Helvetica,sans-Serif" font-size="10.00" fill="#000000">utility</text>
</g>
<!-- Node17&#45;&gt;Node18 -->
<g id="edge23" class="edge">
<title>Node17&#45;&gt;Node18</title>
<path fill="none" stroke="#191970" d="M1358.8187,-56.2455C1358.8187,-48.9382 1358.8187,-38.6944 1358.8187,-29.7046"/>
<polygon fill="#191970" stroke="#191970" points="1362.3188,-29.6426 1358.8187,-19.6427 1355.3188,-29.6427 1362.3188,-29.6426"/>
</g>
<!-- Node19&#45;&gt;Node14 -->
<g id="edge28" class="edge">
<title>Node19&#45;&gt;Node14</title>
<path fill="none" stroke="#191970" d="M835.9541,-56.2455C838.3287,-48.8579 841.668,-38.4689 844.5802,-29.4087"/>
<polygon fill="#191970" stroke="#191970" points="847.9912,-30.234 847.7193,-19.6427 841.327,-28.0919 847.9912,-30.234"/>
</g>
<!-- Node20 -->
<g id="node21" class="node">
<title>Node20</title>
<polygon fill="none" stroke="#bfbfbf" points="606.3187,-.5 606.3187,-19.5 665.3187,-19.5 665.3187,-.5 606.3187,-.5"/>
<text text-anchor="middle" x="635.8187" y="-7.5" font-family="Helvetica,sans-Serif" font-size="10.00" fill="#000000">exception</text>
</g>
<!-- Node19&#45;&gt;Node20 -->
<g id="edge27" class="edge">
<title>Node19&#45;&gt;Node20</title>
<path fill="none" stroke="#191970" d="M798.9532,-56.3733C764.563,-46.5974 711.3528,-31.4716 675.1247,-21.1733"/>
<polygon fill="#191970" stroke="#191970" points="675.9625,-17.7728 665.3865,-18.4051 674.0484,-24.5061 675.9625,-17.7728"/>
</g>
<!-- Node22 -->
<g id="node23" class="node">
<title>Node22</title>
<polygon fill="none" stroke="#bfbfbf" points="1463.8187,-.5 1463.8187,-19.5 1509.8187,-19.5 1509.8187,-.5 1463.8187,-.5"/>
<text text-anchor="middle" x="1486.8187" y="-7.5" font-family="Helvetica,sans-Serif" font-size="10.00" fill="#000000">atomic</text>
</g>
<!-- Node21&#45;&gt;Node22 -->
<g id="edge30" class="edge">
<title>Node21&#45;&gt;Node22</title>
<path fill="none" stroke="#191970" d="M1486.8187,-56.2455C1486.8187,-48.9382 1486.8187,-38.6944 1486.8187,-29.7046"/>
<polygon fill="#191970" stroke="#191970" points="1490.3188,-29.6426 1486.8187,-19.6427 1483.3188,-29.6427 1490.3188,-29.6426"/>
</g>
<!-- Node23&#45;&gt;Node1 -->
<g id="edge52" class="edge">
<title>Node23&#45;&gt;Node1</title>
<path fill="none" stroke="#191970" d="M326.9618,-183.5802C437.7544,-194.1241 670.011,-216.8968 778.6137,-227.8588"/>
<polygon fill="#191970" stroke="#191970" points="778.4279,-231.3577 788.7293,-228.8819 779.1324,-224.3933 778.4279,-231.3577"/>
</g>
<!-- Node24 -->
<g id="node25" class="node">
<title>Node24</title>
<polygon fill="none" stroke="#bfbfbf" points="12.3187,-56.5 12.3187,-75.5 57.3187,-75.5 57.3187,-56.5 12.3187,-56.5"/>
<text text-anchor="middle" x="34.8187" y="-63.5" font-family="Helvetica,sans-Serif" font-size="10.00" fill="#000000">cstdlib</text>
</g>
<!-- Node23&#45;&gt;Node24 -->
<g id="edge32" class="edge">
<title>Node23&#45;&gt;Node24</title>
<path fill="none" stroke="#191970" d="M204.4922,-168.4319C172.3688,-161.5834 133.2804,-150.2514 101.8187,-132 80.3314,-119.5349 60.7201,-98.5751 48.344,-83.62"/>
<polygon fill="#191970" stroke="#191970" points="50.9176,-81.2345 41.9338,-75.6182 45.4544,-85.611 50.9176,-81.2345"/>
</g>
<!-- Node25 -->
<g id="node26" class="node">
<title>Node25</title>
<polygon fill="none" stroke="#bfbfbf" points="54.8187,-.5 54.8187,-19.5 106.8187,-19.5 106.8187,-.5 54.8187,-.5"/>
<text text-anchor="middle" x="80.8187" y="-7.5" font-family="Helvetica,sans-Serif" font-size="10.00" fill="#000000">sstream</text>
</g>
<!-- Node23&#45;&gt;Node25 -->
<g id="edge33" class="edge">
<title>Node23&#45;&gt;Node25</title>
<path fill="none" stroke="#191970" d="M204.7222,-170.2699C165.8153,-163.704 115.1471,-152.04 73.8187,-132 37.6562,-114.4649 20.3535,-112.1627 2.8187,-76 -8.6926,-52.2597 19.5013,-33.8268 45.1491,-22.5478"/>
<polygon fill="#191970" stroke="#191970" points="46.5019,-25.7759 54.4049,-18.7194 43.8263,-19.3074 46.5019,-25.7759"/>
</g>
<!-- Node26 -->
<g id="node27" class="node">
<title>Node26</title>
<g id="a_node27"><a xlink:href="IPv4__5TupleL2Ident_8hpp.html" target="_top" xlink:title="IPv4_5TupleL2Ident.hpp">
<polygon fill="none" stroke="#000000" points="384.8187,-112.5 384.8187,-131.5 506.8187,-131.5 506.8187,-112.5 384.8187,-112.5"/>
<text text-anchor="middle" x="445.8187" y="-119.5" font-family="Helvetica,sans-Serif" font-size="10.00" fill="#000000">IPv4_5TupleL2Ident.hpp</text>
</a>
</g>
</g>
<!-- Node23&#45;&gt;Node26 -->
<g id="edge34" class="edge">
<title>Node23&#45;&gt;Node26</title>
<path fill="none" stroke="#191970" d="M296.7618,-168.3733C326.8227,-159.021 372.6213,-144.7725 405.5165,-134.5385"/>
<polygon fill="#191970" stroke="#191970" points="406.7706,-137.8139 415.2794,-131.5011 404.6911,-131.1299 406.7706,-137.8139"/>
</g>
<!-- Node28 -->
<g id="node29" class="node">
<title>Node28</title>
<g id="a_node29"><a xlink:href="headers_8hpp.html" target="_top" xlink:title="headers.hpp">
<polygon fill="none" stroke="#000000" points="113.8187,-56.5 113.8187,-75.5 183.8187,-75.5 183.8187,-56.5 113.8187,-56.5"/>
<text text-anchor="middle" x="148.8187" y="-63.5" font-family="Helvetica,sans-Serif" font-size="10.00" fill="#000000">headers.hpp</text>
</a>
</g>
</g>
<!-- Node23&#45;&gt;Node28 -->
<g id="edge51" class="edge">
<title>Node23&#45;&gt;Node28</title>
<path fill="none" stroke="#191970" d="M260.2327,-168.2166C252.111,-154.5513 236.0115,-129.4654 217.8187,-112 205.2454,-99.9294 189.1331,-88.9879 175.6409,-80.8071"/>
<polygon fill="#191970" stroke="#191970" points="177.1885,-77.657 166.7944,-75.6046 173.64,-83.6909 177.1885,-77.657"/>
</g>
<!-- Node31 -->
<g id="node32" class="node">
<title>Node31</title>
<g id="a_node32"><a xlink:href="mbuf_8hpp.html" target="_top" xlink:title="mbuf.hpp">
<polygon fill="none" stroke="#000000" points="265.3187,-112.5 265.3187,-131.5 322.3187,-131.5 322.3187,-112.5 265.3187,-112.5"/>
<text text-anchor="middle" x="293.8187" y="-119.5" font-family="Helvetica,sans-Serif" font-size="10.00" fill="#000000">mbuf.hpp</text>
</a>
</g>
</g>
<!-- Node23&#45;&gt;Node31 -->
<g id="edge53" class="edge">
<title>Node23&#45;&gt;Node31</title>
<path fill="none" stroke="#191970" d="M270.6959,-168.2455C274.4701,-160.6973 279.8108,-150.0158 284.4089,-140.8197"/>
<polygon fill="#191970" stroke="#191970" points="287.6557,-142.1522 288.9974,-131.6427 281.3947,-139.0217 287.6557,-142.1522"/>
</g>
<!-- Node33 -->
<g id="node34" class="node">
<title>Node33</title>
<g id="a_node34"><a xlink:href="samplePacket_8hpp.html" target="_top" xlink:title="samplePacket.hpp">
<polygon fill="none" stroke="#000000" points="110.8187,-112.5 110.8187,-131.5 208.8187,-131.5 208.8187,-112.5 110.8187,-112.5"/>
<text text-anchor="middle" x="159.8187" y="-119.5" font-family="Helvetica,sans-Serif" font-size="10.00" fill="#000000">samplePacket.hpp</text>
</a>
</g>
</g>
<!-- Node23&#45;&gt;Node33 -->
<g id="edge56" class="edge">
<title>Node23&#45;&gt;Node33</title>
<path fill="none" stroke="#191970" d="M247.3549,-168.2455C230.7113,-159.4527 206.0194,-146.4079 187.0995,-136.4125"/>
<polygon fill="#191970" stroke="#191970" points="188.5478,-133.2193 178.0709,-131.6427 185.2779,-139.4086 188.5478,-133.2193"/>
</g>
<!-- Node26&#45;&gt;Node3 -->
<g id="edge42" class="edge">
<title>Node26&#45;&gt;Node3</title>
<path fill="none" stroke="#191970" d="M476.7618,-112.3733C506.8227,-103.021 552.6213,-88.7725 585.5165,-78.5385"/>
<polygon fill="#191970" stroke="#191970" points="586.7706,-81.8139 595.2794,-75.5011 584.6911,-75.1299 586.7706,-81.8139"/>
</g>
<!-- Node26&#45;&gt;Node8 -->
<g id="edge35" class="edge">
<title>Node26&#45;&gt;Node8</title>
<path fill="none" stroke="#191970" d="M442.5789,-112.4509C436.325,-94.0186 422.4845,-53.2254 414.2797,-29.043"/>
<polygon fill="#191970" stroke="#191970" points="417.5778,-27.8701 411.0504,-19.5249 410.949,-30.1192 417.5778,-27.8701"/>
</g>
<!-- Node26&#45;&gt;Node9 -->
<g id="edge37" class="edge">
<title>Node26&#45;&gt;Node9</title>
<path fill="none" stroke="#191970" d="M462.5406,-112.2455C477.4077,-103.5731 499.3653,-90.7645 516.4045,-80.825"/>
<polygon fill="#191970" stroke="#191970" points="518.4142,-83.7047 525.2884,-75.6427 514.8871,-77.6582 518.4142,-83.7047"/>
</g>
<!-- Node26&#45;&gt;Node10 -->
<g id="edge38" class="edge">
<title>Node26&#45;&gt;Node10</title>
<path fill="none" stroke="#191970" d="M496.9531,-112.4876C542.6872,-103.7562 611.4626,-90.0742 670.8187,-76 670.9199,-75.976 671.0212,-75.9519 671.1226,-75.9278"/>
<polygon fill="#191970" stroke="#191970" points="671.9363,-79.3322 680.7903,-73.5135 670.2402,-72.5407 671.9363,-79.3322"/>
</g>
<!-- Node26&#45;&gt;Node14 -->
<g id="edge40" class="edge">
<title>Node26&#45;&gt;Node14</title>
<path fill="none" stroke="#191970" d="M450.9914,-112.4145C459.5829,-97.5385 478.3039,-69.2316 502.8187,-56 555.3625,-27.6401 731.3599,-15.7445 811.0335,-11.7243"/>
<polygon fill="#191970" stroke="#191970" points="811.3453,-15.2134 821.1627,-11.2297 811.0038,-8.2217 811.3453,-15.2134"/>
</g>
<!-- Node26&#45;&gt;Node19 -->
<g id="edge50" class="edge">
<title>Node26&#45;&gt;Node19</title>
<path fill="none" stroke="#191970" d="M507.14,-113.1266C582.8102,-102.1769 710.1391,-83.7521 781.0966,-73.4843"/>
<polygon fill="#191970" stroke="#191970" points="781.7482,-76.9266 791.1438,-72.0305 780.7456,-69.9988 781.7482,-76.9266"/>
</g>
<!-- Node26&#45;&gt;Node20 -->
<g id="edge36" class="edge">
<title>Node26&#45;&gt;Node20</title>
<path fill="none" stroke="#191970" d="M446.591,-112.4199C448.2684,-98.0671 453.5247,-71.0635 469.8187,-56 488.1661,-39.0382 553.2904,-24.6203 596.307,-16.6523"/>
<polygon fill="#191970" stroke="#191970" points="596.9748,-20.0884 606.191,-14.8623 595.7273,-13.2004 596.9748,-20.0884"/>
</g>
<!-- Node26&#45;&gt;Node25 -->
<g id="edge39" class="edge">
<title>Node26&#45;&gt;Node25</title>
<path fill="none" stroke="#191970" d="M384.5477,-115.39C289.3361,-104.8838 115.5918,-84.6772 104.8187,-76 91.0475,-64.9079 85.1769,-45.2008 82.6751,-30.2"/>
<polygon fill="#191970" stroke="#191970" points="86.093,-29.3375 81.3435,-19.8669 79.1504,-30.2322 86.093,-29.3375"/>
</g>
<!-- Node27 -->
<g id="node28" class="node">
<title>Node27</title>
<polygon fill="none" stroke="#bfbfbf" points="269.3187,-.5 269.3187,-19.5 310.3187,-19.5 310.3187,-.5 269.3187,-.5"/>
<text text-anchor="middle" x="289.8187" y="-7.5" font-family="Helvetica,sans-Serif" font-size="10.00" fill="#000000">string</text>
</g>
<!-- Node26&#45;&gt;Node27 -->
<g id="edge41" class="edge">
<title>Node26&#45;&gt;Node27</title>
<path fill="none" stroke="#191970" d="M432.5182,-112.4509C405.5783,-93.1094 344.3443,-49.1465 311.5339,-25.5904"/>
<polygon fill="#191970" stroke="#191970" points="313.25,-22.5139 303.0855,-19.5249 309.1675,-28.2001 313.25,-22.5139"/>
</g>
<!-- Node26&#45;&gt;Node28 -->
<g id="edge43" class="edge">
<title>Node26&#45;&gt;Node28</title>
<path fill="none" stroke="#191970" d="M395.1001,-112.4369C338.6006,-101.7838 248.1065,-84.7209 193.9675,-74.5129"/>
<polygon fill="#191970" stroke="#191970" points="194.4471,-71.0417 183.9717,-72.6282 193.15,-77.9205 194.4471,-71.0417"/>
</g>
<!-- Node28&#45;&gt;Node4 -->
<g id="edge44" class="edge">
<title>Node28&#45;&gt;Node4</title>
<path fill="none" stroke="#191970" d="M183.8546,-57.2602C218.3662,-48.4774 272.4951,-34.2362 318.8187,-20 318.9174,-19.9697 319.0162,-19.9393 319.1151,-19.9087"/>
<polygon fill="#191970" stroke="#191970" points="320.1031,-23.2679 328.5354,-16.8534 317.9434,-16.6093 320.1031,-23.2679"/>
</g>
<!-- Node28&#45;&gt;Node8 -->
<g id="edge45" class="edge">
<title>Node28&#45;&gt;Node8</title>
<path fill="none" stroke="#191970" d="M183.881,-58.8366C188.5667,-57.8816 193.3092,-56.9162 197.8187,-56 273.826,-40.558 295.9313,-40.0784 374.5985,-20.1307"/>
<polygon fill="#191970" stroke="#191970" points="375.6613,-23.4715 384.4799,-17.5993 373.9241,-16.6905 375.6613,-23.4715"/>
</g>
<!-- Node28&#45;&gt;Node25 -->
<g id="edge47" class="edge">
<title>Node28&#45;&gt;Node25</title>
<path fill="none" stroke="#191970" d="M136.974,-56.2455C126.9308,-47.9746 112.3193,-35.9416 100.5183,-26.2232"/>
<polygon fill="#191970" stroke="#191970" points="102.472,-23.298 92.5277,-19.6427 98.022,-28.7015 102.472,-23.298"/>
</g>
<!-- Node28&#45;&gt;Node27 -->
<g id="edge48" class="edge">
<title>Node28&#45;&gt;Node27</title>
<path fill="none" stroke="#191970" d="M173.0575,-56.3733C197.0751,-46.8343 233.9177,-32.2018 259.7792,-21.9306"/>
<polygon fill="#191970" stroke="#191970" points="261.1017,-25.1713 269.1036,-18.2273 258.5179,-18.6657 261.1017,-25.1713"/>
</g>
<!-- Node29 -->
<g id="node30" class="node">
<title>Node29</title>
<polygon fill="none" stroke="#bfbfbf" points="124.8187,-.5 124.8187,-19.5 170.8187,-19.5 170.8187,-.5 124.8187,-.5"/>
<text text-anchor="middle" x="147.8187" y="-7.5" font-family="Helvetica,sans-Serif" font-size="10.00" fill="#000000">cstring</text>
</g>
<!-- Node28&#45;&gt;Node29 -->
<g id="edge46" class="edge">
<title>Node28&#45;&gt;Node29</title>
<path fill="none" stroke="#191970" d="M148.6445,-56.2455C148.514,-48.9382 148.3311,-38.6944 148.1706,-29.7046"/>
<polygon fill="#191970" stroke="#191970" points="151.669,-29.5786 147.9909,-19.6427 144.6701,-29.7036 151.669,-29.5786"/>
</g>
<!-- Node30 -->
<g id="node31" class="node">
<title>Node30</title>
<polygon fill="none" stroke="#bfbfbf" points="188.8187,-.5 188.8187,-19.5 250.8187,-19.5 250.8187,-.5 188.8187,-.5"/>
<text text-anchor="middle" x="219.8187" y="-7.5" font-family="Helvetica,sans-Serif" font-size="10.00" fill="#000000">arpa/inet.h</text>
</g>
<!-- Node28&#45;&gt;Node30 -->
<g id="edge49" class="edge">
<title>Node28&#45;&gt;Node30</title>
<path fill="none" stroke="#191970" d="M161.186,-56.2455C171.7741,-47.8943 187.2251,-35.7076 199.608,-25.9408"/>
<polygon fill="#191970" stroke="#191970" points="201.909,-28.5837 207.5932,-19.6427 197.574,-23.0875 201.909,-28.5837"/>
</g>
<!-- Node31&#45;&gt;Node8 -->
<g id="edge54" class="edge">
<title>Node31&#45;&gt;Node8</title>
<path fill="none" stroke="#191970" d="M284.7135,-112.2762C273.1225,-98.6817 256.0471,-73.6794 268.8187,-56 270.4396,-53.7562 334.2418,-33.2585 374.8329,-20.3936"/>
<polygon fill="#191970" stroke="#191970" points="376.1223,-23.6568 384.6006,-17.3031 374.0106,-16.9829 376.1223,-23.6568"/>
</g>
<!-- Node32 -->
<g id="node33" class="node">
<title>Node32</title>
<polygon fill="none" stroke="#bfbfbf" points="278.3187,-56.5 278.3187,-75.5 341.3187,-75.5 341.3187,-56.5 278.3187,-56.5"/>
<text text-anchor="middle" x="309.8187" y="-63.5" font-family="Helvetica,sans-Serif" font-size="10.00" fill="#000000">rte_mbuf.h</text>
</g>
<!-- Node31&#45;&gt;Node32 -->
<g id="edge55" class="edge">
<title>Node31&#45;&gt;Node32</title>
<path fill="none" stroke="#191970" d="M296.6057,-112.2455C298.7165,-104.8579 301.6848,-94.4689 304.2734,-85.4087"/>
<polygon fill="#191970" stroke="#191970" points="307.6817,-86.2195 307.0637,-75.6427 300.9511,-84.2964 307.6817,-86.2195"/>
</g>
<!-- Node33&#45;&gt;Node8 -->
<g id="edge57" class="edge">
<title>Node33&#45;&gt;Node8</title>
<path fill="none" stroke="#191970" d="M171.9178,-112.4921C190.2404,-98.476 226.5334,-72.1844 260.8187,-56 261.1544,-55.8416 331.8223,-33.7485 375.0413,-20.2419"/>
<polygon fill="#191970" stroke="#191970" points="376.0942,-23.5798 384.595,-17.2563 374.0062,-16.8985 376.0942,-23.5798"/>
</g>
<!-- Node33&#45;&gt;Node24 -->
<g id="edge58" class="edge">
<title>Node33&#45;&gt;Node24</title>
<path fill="none" stroke="#191970" d="M138.3305,-112.3733C118.1747,-103.3435 87.8307,-89.7494 65.2007,-79.6111"/>
<polygon fill="#191970" stroke="#191970" points="66.5836,-76.3955 56.0266,-75.5011 63.7216,-82.7838 66.5836,-76.3955"/>
</g>
</g>
</svg>
