<?xml version="1.0" encoding="UTF-8" standalone="no"?>
<!DOCTYPE svg PUBLIC "-//W3C//DTD SVG 1.1//EN"
 "http://www.w3.org/Graphics/SVG/1.1/DTD/svg11.dtd">
<!-- Generated by graphviz version 2.38.0 (20140413.2041)
 -->
<!-- Title: HelloBye2_Client_getPkts Pages: 1 -->
<svg width="604pt" height="66pt"
 viewBox="0.00 0.00 604.00 66.00" xmlns="http://www.w3.org/2000/svg" xmlns:xlink="http://www.w3.org/1999/xlink">
<g id="graph0" class="graph" transform="scale(1 1) rotate(0) translate(4 62)">
<title>HelloBye2_Client_getPkts</title>
<!-- Node1 -->
<g id="node1" class="node"><title>Node1</title>
<polygon fill="#bfbfbf" stroke="black" points="0,-19.5 0,-38.5 131,-38.5 131,-19.5 0,-19.5"/>
<text text-anchor="middle" x="65.5" y="-26.5" font-family="Helvetica,sans-Serif" font-size="10.00">HelloBye2_Client_getPkts</text>
</g>
<!-- Node2 -->
<g id="node2" class="node"><title>Node2</title>
<g id="a_node2"><a xlink:href="classBufArray.html#a615b6c144c343ca7337a6ef22abbea83" target="_top" xlink:title="Get all the packets which are to be sent. ">
<polygon fill="none" stroke="black" points="318.5,-38.5 318.5,-57.5 435.5,-57.5 435.5,-38.5 318.5,-38.5"/>
<text text-anchor="middle" x="377" y="-45.5" font-family="Helvetica,sans-Serif" font-size="10.00">BufArray::getSendBufs</text>
</a>
</g>
</g>
<!-- Node1&#45;&gt;Node2 -->
<g id="edge1" class="edge"><title>Node1&#45;&gt;Node2</title>
<path fill="none" stroke="midnightblue" d="M131.005,-32.9599C182.824,-36.141 255.395,-40.5961 308.095,-43.8314"/>
<polygon fill="midnightblue" stroke="midnightblue" points="308.162,-47.342 318.358,-44.4614 308.591,-40.3551 308.162,-47.342"/>
</g>
<!-- Node4 -->
<g id="node4" class="node"><title>Node4</title>
<g id="a_node4"><a xlink:href="classBufArray.html#aa29b07f7f2d34072da0fafb38e0ccfa5" target="_top" xlink:title="Get all the packets which are to be freed. ">
<polygon fill="none" stroke="black" points="167,-0.5 167,-19.5 281,-19.5 281,-0.5 167,-0.5"/>
<text text-anchor="middle" x="224" y="-7.5" font-family="Helvetica,sans-Serif" font-size="10.00">BufArray::getFreeBufs</text>
</a>
</g>
</g>
<!-- Node1&#45;&gt;Node4 -->
<g id="edge3" class="edge"><title>Node1&#45;&gt;Node4</title>
<path fill="none" stroke="midnightblue" d="M131.058,-21.1623C139.438,-20.1448 148.035,-19.1012 156.447,-18.0799"/>
<polygon fill="midnightblue" stroke="midnightblue" points="157.084,-21.5283 166.59,-16.8485 156.241,-14.5793 157.084,-21.5283"/>
</g>
<!-- Node3 -->
<g id="node3" class="node"><title>Node3</title>
<g id="a_node3"><a xlink:href="classBufArray.html#a7570e31b14ed3d44f5b60b3a9e8afee5" target="_top" xlink:title="Get the number of packets currently marked as send. ">
<polygon fill="none" stroke="black" points="473,-19.5 473,-38.5 596,-38.5 596,-19.5 473,-19.5"/>
<text text-anchor="middle" x="534.5" y="-26.5" font-family="Helvetica,sans-Serif" font-size="10.00">BufArray::getSendCount</text>
</a>
</g>
</g>
<!-- Node2&#45;&gt;Node3 -->
<g id="edge2" class="edge"><title>Node2&#45;&gt;Node3</title>
<path fill="none" stroke="midnightblue" d="M435.902,-40.9251C444.686,-39.8519 453.831,-38.7344 462.848,-37.6327"/>
<polygon fill="midnightblue" stroke="midnightblue" points="463.447,-41.0857 472.948,-36.3986 462.598,-34.1374 463.447,-41.0857"/>
</g>
<!-- Node5 -->
<g id="node5" class="node"><title>Node5</title>
<g id="a_node5"><a xlink:href="classBufArray.html#a5b533f3c7add88f873d41e841fc55136" target="_top" xlink:title="Get the number of packets currently marked as free. ">
<polygon fill="none" stroke="black" points="317,-0.5 317,-19.5 437,-19.5 437,-0.5 317,-0.5"/>
<text text-anchor="middle" x="377" y="-7.5" font-family="Helvetica,sans-Serif" font-size="10.00">BufArray::getFreeCount</text>
</a>
</g>
</g>
<!-- Node4&#45;&gt;Node5 -->
<g id="edge4" class="edge"><title>Node4&#45;&gt;Node5</title>
<path fill="none" stroke="midnightblue" d="M281.227,-10C289.604,-10 298.32,-10 306.925,-10"/>
<polygon fill="midnightblue" stroke="midnightblue" points="306.947,-13.5001 316.947,-10 306.947,-6.5001 306.947,-13.5001"/>
</g>
<!-- Node5&#45;&gt;Node3 -->
<g id="edge5" class="edge"><title>Node5&#45;&gt;Node3</title>
<path fill="none" stroke="midnightblue" d="M437.231,-17.2373C445.621,-18.2624 454.316,-19.3248 462.895,-20.373"/>
<polygon fill="midnightblue" stroke="midnightblue" points="462.535,-23.855 472.886,-21.5937 463.384,-16.9066 462.535,-23.855"/>
</g>
</g>
</svg>
