<?xml version="1.0" encoding="UTF-8" standalone="no"?>
<!DOCTYPE svg PUBLIC "-//W3C//DTD SVG 1.1//EN"
 "http://www.w3.org/Graphics/SVG/1.1/DTD/svg11.dtd">
<!-- Generated by graphviz version 2.40.1 (20161225.0304)
 -->
<!-- Title: /home/dominik/uni/MoonState/src/helloByeProto.cpp Pages: 1 -->
<svg width="1490pt" height="263pt"
 viewBox="0.00 0.00 1489.50 263.00" xmlns="http://www.w3.org/2000/svg" xmlns:xlink="http://www.w3.org/1999/xlink">
<g id="graph0" class="graph" transform="scale(1 1) rotate(0) translate(4 259)">
<title>/home/dominik/uni/MoonState/src/helloByeProto.cpp</title>
<!-- Node0 -->
<g id="node1" class="node">
<title>Node0</title>
<polygon fill="#bfbfbf" stroke="#000000" points="624.5,-224.5 624.5,-254.5 771.5,-254.5 771.5,-224.5 624.5,-224.5"/>
<text text-anchor="start" x="632.5" y="-242.5" font-family="Helvetica,sans-Serif" font-size="10.00" fill="#000000">/home/dominik/uni/MoonState</text>
<text text-anchor="middle" x="698" y="-231.5" font-family="Helvetica,sans-Serif" font-size="10.00" fill="#000000">/src/helloByeProto.cpp</text>
</g>
<!-- Node1 -->
<g id="node2" class="node">
<title>Node1</title>
<polygon fill="none" stroke="#bfbfbf" points="876.5,-112.5 876.5,-131.5 921.5,-131.5 921.5,-112.5 876.5,-112.5"/>
<text text-anchor="middle" x="899" y="-119.5" font-family="Helvetica,sans-Serif" font-size="10.00" fill="#000000">cstdlib</text>
</g>
<!-- Node0&#45;&gt;Node1 -->
<g id="edge1" class="edge">
<title>Node0&#45;&gt;Node1</title>
<path fill="none" stroke="#191970" d="M723.8657,-224.3795C762.573,-201.7521 835.1187,-159.3435 873.5701,-136.8657"/>
<polygon fill="#191970" stroke="#191970" points="875.7032,-139.673 882.57,-131.6046 872.1705,-133.6298 875.7032,-139.673"/>
</g>
<!-- Node2 -->
<g id="node3" class="node">
<title>Node2</title>
<polygon fill="none" stroke="#bfbfbf" points="0,-.5 0,-19.5 52,-19.5 52,-.5 0,-.5"/>
<text text-anchor="middle" x="26" y="-7.5" font-family="Helvetica,sans-Serif" font-size="10.00" fill="#000000">sstream</text>
</g>
<!-- Node0&#45;&gt;Node2 -->
<g id="edge2" class="edge">
<title>Node0&#45;&gt;Node2</title>
<path fill="none" stroke="#191970" d="M624.4379,-231.2103C559.3187,-223.0246 462.0055,-208.714 379,-188 304.2707,-169.3513 287.7688,-157.2379 215,-132 144.2149,-107.4501 111.2563,-126.5962 56,-76 42.6849,-63.8079 34.8726,-44.5583 30.5768,-29.9875"/>
<polygon fill="#191970" stroke="#191970" points="33.867,-28.7363 27.9443,-19.9515 27.0961,-30.5124 33.867,-28.7363"/>
</g>
<!-- Node3 -->
<g id="node4" class="node">
<title>Node3</title>
<g id="a_node4"><a xlink:href="IPv4__5TupleL2Ident_8hpp.html" target="_top" xlink:title="IPv4_5TupleL2Ident.hpp">
<polygon fill="none" stroke="#000000" points="275,-112.5 275,-131.5 397,-131.5 397,-112.5 275,-112.5"/>
<text text-anchor="middle" x="336" y="-119.5" font-family="Helvetica,sans-Serif" font-size="10.00" fill="#000000">IPv4_5TupleL2Ident.hpp</text>
</a>
</g>
</g>
<!-- Node0&#45;&gt;Node3 -->
<g id="edge3" class="edge">
<title>Node0&#45;&gt;Node3</title>
<path fill="none" stroke="#191970" d="M651.7848,-224.4992C579.99,-201.1957 442.9231,-156.7057 375.4781,-134.814"/>
<polygon fill="#191970" stroke="#191970" points="376.2521,-131.3855 365.66,-131.6272 374.0909,-138.0436 376.2521,-131.3855"/>
</g>
<!-- Node13 -->
<g id="node14" class="node">
<title>Node13</title>
<g id="a_node14"><a xlink:href="headers_8hpp.html" target="_top" xlink:title="headers.hpp">
<polygon fill="none" stroke="#000000" points="92,-56.5 92,-75.5 162,-75.5 162,-56.5 92,-56.5"/>
<text text-anchor="middle" x="127" y="-63.5" font-family="Helvetica,sans-Serif" font-size="10.00" fill="#000000">headers.hpp</text>
</a>
</g>
</g>
<!-- Node0&#45;&gt;Node13 -->
<g id="edge24" class="edge">
<title>Node0&#45;&gt;Node13</title>
<path fill="none" stroke="#191970" d="M624.3719,-226.0944C537.2518,-209.1155 388.5574,-176.6054 266,-132 225.58,-117.2889 181.0173,-94.9738 153.5133,-80.4398"/>
<polygon fill="#191970" stroke="#191970" points="155.0016,-77.2668 144.531,-75.6486 151.7071,-83.4432 155.0016,-77.2668"/>
</g>
<!-- Node17 -->
<g id="node18" class="node">
<title>Node17</title>
<g id="a_node18"><a xlink:href="helloByeProto_8hpp.html" target="_top" xlink:title="helloByeProto.hpp">
<polygon fill="none" stroke="#000000" points="650,-168.5 650,-187.5 746,-187.5 746,-168.5 650,-168.5"/>
<text text-anchor="middle" x="698" y="-175.5" font-family="Helvetica,sans-Serif" font-size="10.00" fill="#000000">helloByeProto.hpp</text>
</a>
</g>
</g>
<!-- Node0&#45;&gt;Node17 -->
<g id="edge25" class="edge">
<title>Node0&#45;&gt;Node17</title>
<path fill="none" stroke="#191970" d="M692.0843,-224.2977C691.1446,-216.2945 690.9987,-206.3843 691.6466,-197.7889"/>
<polygon fill="#191970" stroke="#191970" points="695.1218,-198.2044 692.8917,-187.8469 688.176,-197.3345 695.1218,-198.2044"/>
</g>
<!-- Node30 -->
<g id="node31" class="node">
<title>Node30</title>
<g id="a_node31"><a xlink:href="mbuf_8hpp.html" target="_top" xlink:title="mbuf.hpp">
<polygon fill="none" stroke="#000000" points="1315.5,-168.5 1315.5,-187.5 1372.5,-187.5 1372.5,-168.5 1315.5,-168.5"/>
<text text-anchor="middle" x="1344" y="-175.5" font-family="Helvetica,sans-Serif" font-size="10.00" fill="#000000">mbuf.hpp</text>
</a>
</g>
</g>
<!-- Node0&#45;&gt;Node30 -->
<g id="edge52" class="edge">
<title>Node0&#45;&gt;Node30</title>
<path fill="none" stroke="#191970" d="M771.7897,-232.4751C909.2567,-219.3881 1200.1162,-191.6979 1305.1431,-181.6992"/>
<polygon fill="#191970" stroke="#191970" points="1305.6696,-185.165 1315.2928,-180.733 1305.0061,-178.1965 1305.6696,-185.165"/>
</g>
<!-- Node32 -->
<g id="node33" class="node">
<title>Node32</title>
<g id="a_node33"><a xlink:href="samplePacket_8hpp.html" target="_top" xlink:title="samplePacket.hpp">
<polygon fill="none" stroke="#000000" points="850,-168.5 850,-187.5 948,-187.5 948,-168.5 850,-168.5"/>
<text text-anchor="middle" x="899" y="-175.5" font-family="Helvetica,sans-Serif" font-size="10.00" fill="#000000">samplePacket.hpp</text>
</a>
</g>
</g>
<!-- Node0&#45;&gt;Node32 -->
<g id="edge55" class="edge">
<title>Node0&#45;&gt;Node32</title>
<path fill="none" stroke="#191970" d="M747.1701,-224.4554C781.1488,-214.059 825.8281,-200.3884 857.9086,-190.5727"/>
<polygon fill="#191970" stroke="#191970" points="859.3138,-193.803 867.8521,-187.5303 857.2657,-187.1094 859.3138,-193.803"/>
</g>
<!-- Node3&#45;&gt;Node2 -->
<g id="edge8" class="edge">
<title>Node3&#45;&gt;Node2</title>
<path fill="none" stroke="#191970" d="M274.9441,-115.6218C210.836,-108.1005 114.9783,-94.2733 83,-76 63.1877,-64.6787 46.9468,-43.8111 36.9394,-28.5621"/>
<polygon fill="#191970" stroke="#191970" points="39.809,-26.5499 31.5377,-19.9291 33.8749,-30.263 39.809,-26.5499"/>
</g>
<!-- Node4 -->
<g id="node5" class="node">
<title>Node4</title>
<polygon fill="none" stroke="#bfbfbf" points="1244,-.5 1244,-19.5 1290,-19.5 1290,-.5 1244,-.5"/>
<text text-anchor="middle" x="1267" y="-7.5" font-family="Helvetica,sans-Serif" font-size="10.00" fill="#000000">cstdint</text>
</g>
<!-- Node3&#45;&gt;Node4 -->
<g id="edge4" class="edge">
<title>Node3&#45;&gt;Node4</title>
<path fill="none" stroke="#191970" d="M345.2452,-112.086C360.2612,-96.7598 391.6467,-67.8473 425,-56 594.3664,4.16 1055.7159,-49.5728 1233,-20 1233.33,-19.945 1233.6613,-19.8877 1233.9938,-19.8285"/>
<polygon fill="#191970" stroke="#191970" points="1234.7696,-23.2415 1243.7619,-17.6389 1233.2385,-16.411 1234.7696,-23.2415"/>
</g>
<!-- Node5 -->
<g id="node6" class="node">
<title>Node5</title>
<polygon fill="none" stroke="#bfbfbf" points="290.5,-.5 290.5,-19.5 349.5,-19.5 349.5,-.5 290.5,-.5"/>
<text text-anchor="middle" x="320" y="-7.5" font-family="Helvetica,sans-Serif" font-size="10.00" fill="#000000">exception</text>
</g>
<!-- Node3&#45;&gt;Node5 -->
<g id="edge5" class="edge">
<title>Node3&#45;&gt;Node5</title>
<path fill="none" stroke="#191970" d="M301.2773,-112.4044C283.1949,-105.4487 262.6791,-94.0236 252,-76 239.5621,-55.0079 264.3595,-36.1868 287.4226,-24.0671"/>
<polygon fill="#191970" stroke="#191970" points="289.0188,-27.1823 296.4243,-19.6054 285.9101,-20.9105 289.0188,-27.1823"/>
</g>
<!-- Node6 -->
<g id="node7" class="node">
<title>Node6</title>
<polygon fill="none" stroke="#bfbfbf" points="434.5,-56.5 434.5,-75.5 493.5,-75.5 493.5,-56.5 434.5,-56.5"/>
<text text-anchor="middle" x="464" y="-63.5" font-family="Helvetica,sans-Serif" font-size="10.00" fill="#000000">functional</text>
</g>
<!-- Node3&#45;&gt;Node6 -->
<g id="edge6" class="edge">
<title>Node3&#45;&gt;Node6</title>
<path fill="none" stroke="#191970" d="M358.004,-112.3733C378.6435,-103.3435 409.7158,-89.7494 432.8889,-79.6111"/>
<polygon fill="#191970" stroke="#191970" points="434.5245,-82.7159 442.2831,-75.5011 431.7187,-76.3028 434.5245,-82.7159"/>
</g>
<!-- Node7 -->
<g id="node8" class="node">
<title>Node7</title>
<polygon fill="none" stroke="#bfbfbf" points="512,-56.5 512,-75.5 566,-75.5 566,-56.5 512,-56.5"/>
<text text-anchor="middle" x="539" y="-63.5" font-family="Helvetica,sans-Serif" font-size="10.00" fill="#000000">iostream</text>
</g>
<!-- Node3&#45;&gt;Node7 -->
<g id="edge7" class="edge">
<title>Node3&#45;&gt;Node7</title>
<path fill="none" stroke="#191970" d="M370.8969,-112.3733C407.3708,-102.3115 464.3884,-86.5825 501.7258,-76.2825"/>
<polygon fill="#191970" stroke="#191970" points="502.9924,-79.5639 511.7016,-73.5306 501.1309,-72.816 502.9924,-79.5639"/>
</g>
<!-- Node8 -->
<g id="node9" class="node">
<title>Node8</title>
<polygon fill="none" stroke="#bfbfbf" points="671.5,-.5 671.5,-19.5 730.5,-19.5 730.5,-.5 671.5,-.5"/>
<text text-anchor="middle" x="701" y="-7.5" font-family="Helvetica,sans-Serif" font-size="10.00" fill="#000000">stdexcept</text>
</g>
<!-- Node3&#45;&gt;Node8 -->
<g id="edge9" class="edge">
<title>Node3&#45;&gt;Node8</title>
<path fill="none" stroke="#191970" d="M319.5424,-112.4785C298.827,-99.3352 267.9012,-75.0937 285,-56 297.4944,-42.0478 559.7602,-20.7274 661.3198,-12.9608"/>
<polygon fill="#191970" stroke="#191970" points="661.7744,-16.4364 671.4802,-12.188 661.2435,-9.4565 661.7744,-16.4364"/>
</g>
<!-- Node9 -->
<g id="node10" class="node">
<title>Node9</title>
<polygon fill="none" stroke="#bfbfbf" points="214.5,-.5 214.5,-19.5 255.5,-19.5 255.5,-.5 214.5,-.5"/>
<text text-anchor="middle" x="235" y="-7.5" font-family="Helvetica,sans-Serif" font-size="10.00" fill="#000000">string</text>
</g>
<!-- Node3&#45;&gt;Node9 -->
<g id="edge10" class="edge">
<title>Node3&#45;&gt;Node9</title>
<path fill="none" stroke="#191970" d="M299.5518,-112.4388C280.3279,-105.4938 258.0789,-94.0681 245,-76 235.3483,-62.6665 233.3282,-43.8124 233.4424,-29.6677"/>
<polygon fill="#191970" stroke="#191970" points="236.9455,-29.6727 233.8866,-19.529 229.9522,-29.3662 236.9455,-29.6727"/>
</g>
<!-- Node10 -->
<g id="node11" class="node">
<title>Node10</title>
<g id="a_node11"><a xlink:href="common_8hpp.html" target="_top" xlink:title="common.hpp">
<polygon fill="none" stroke="#000000" points="584.5,-56.5 584.5,-75.5 657.5,-75.5 657.5,-56.5 584.5,-56.5"/>
<text text-anchor="middle" x="621" y="-63.5" font-family="Helvetica,sans-Serif" font-size="10.00" fill="#000000">common.hpp</text>
</a>
</g>
</g>
<!-- Node3&#45;&gt;Node10 -->
<g id="edge11" class="edge">
<title>Node3&#45;&gt;Node10</title>
<path fill="none" stroke="#191970" d="M387.3542,-112.4834C433.6243,-103.8259 503.7728,-90.4958 574.3929,-76.088"/>
<polygon fill="#191970" stroke="#191970" points="575.2634,-79.4825 584.3584,-74.0482 573.8597,-72.6247 575.2634,-79.4825"/>
</g>
<!-- Node3&#45;&gt;Node13 -->
<g id="edge14" class="edge">
<title>Node3&#45;&gt;Node13</title>
<path fill="none" stroke="#191970" d="M300.0716,-112.3733C264.6092,-102.8714 210.2839,-88.3153 171.9736,-78.0503"/>
<polygon fill="#191970" stroke="#191970" points="172.6768,-74.6154 162.1117,-75.4079 170.8651,-81.3769 172.6768,-74.6154"/>
</g>
<!-- Node16 -->
<g id="node17" class="node">
<title>Node16</title>
<g id="a_node17"><a xlink:href="exceptions_8hpp.html" target="_top" xlink:title="exceptions.hpp">
<polygon fill="none" stroke="#000000" points="294.5,-56.5 294.5,-75.5 377.5,-75.5 377.5,-56.5 294.5,-56.5"/>
<text text-anchor="middle" x="336" y="-63.5" font-family="Helvetica,sans-Serif" font-size="10.00" fill="#000000">exceptions.hpp</text>
</a>
</g>
</g>
<!-- Node3&#45;&gt;Node16 -->
<g id="edge21" class="edge">
<title>Node3&#45;&gt;Node16</title>
<path fill="none" stroke="#191970" d="M336,-112.2455C336,-104.9382 336,-94.6944 336,-85.7046"/>
<polygon fill="#191970" stroke="#191970" points="339.5001,-85.6426 336,-75.6427 332.5001,-85.6427 339.5001,-85.6426"/>
</g>
<!-- Node11 -->
<g id="node12" class="node">
<title>Node11</title>
<polygon fill="none" stroke="#bfbfbf" points="485,-.5 485,-19.5 523,-19.5 523,-.5 485,-.5"/>
<text text-anchor="middle" x="504" y="-7.5" font-family="Helvetica,sans-Serif" font-size="10.00" fill="#000000">array</text>
</g>
<!-- Node10&#45;&gt;Node11 -->
<g id="edge12" class="edge">
<title>Node10&#45;&gt;Node11</title>
<path fill="none" stroke="#191970" d="M600.887,-56.3733C581.963,-47.3156 553.4439,-33.6655 532.2417,-23.5174"/>
<polygon fill="#191970" stroke="#191970" points="533.6069,-20.2906 523.0758,-19.1303 530.5848,-26.6047 533.6069,-20.2906"/>
</g>
<!-- Node12 -->
<g id="node13" class="node">
<title>Node12</title>
<polygon fill="none" stroke="#bfbfbf" points="761.5,-.5 761.5,-19.5 810.5,-19.5 810.5,-.5 761.5,-.5"/>
<text text-anchor="middle" x="786" y="-7.5" font-family="Helvetica,sans-Serif" font-size="10.00" fill="#000000">cassert</text>
</g>
<!-- Node10&#45;&gt;Node12 -->
<g id="edge13" class="edge">
<title>Node10&#45;&gt;Node12</title>
<path fill="none" stroke="#191970" d="M649.3645,-56.3733C677.7589,-46.7364 721.4711,-31.9007 751.7758,-21.6155"/>
<polygon fill="#191970" stroke="#191970" points="753.1529,-24.8443 761.4975,-18.316 750.9032,-18.2156 753.1529,-24.8443"/>
</g>
<!-- Node13&#45;&gt;Node2 -->
<g id="edge18" class="edge">
<title>Node13&#45;&gt;Node2</title>
<path fill="none" stroke="#191970" d="M109.4071,-56.2455C93.621,-47.4928 70.2361,-34.527 52.2413,-24.5496"/>
<polygon fill="#191970" stroke="#191970" points="53.8341,-21.4308 43.3913,-19.6427 50.4397,-27.5528 53.8341,-21.4308"/>
</g>
<!-- Node13&#45;&gt;Node4 -->
<g id="edge16" class="edge">
<title>Node13&#45;&gt;Node4</title>
<path fill="none" stroke="#191970" d="M162.1277,-63.5217C194.1367,-61.3242 242.7266,-58.1401 285,-56 495.5489,-45.341 1024.9419,-54.0042 1233,-20 1233.3302,-19.946 1233.6617,-19.8899 1233.9943,-19.8316"/>
<polygon fill="#191970" stroke="#191970" points="1234.7631,-23.2462 1243.7654,-17.6597 1233.2441,-16.413 1234.7631,-23.2462"/>
</g>
<!-- Node13&#45;&gt;Node9 -->
<g id="edge19" class="edge">
<title>Node13&#45;&gt;Node9</title>
<path fill="none" stroke="#191970" d="M145.8122,-56.2455C162.8473,-47.4125 188.1575,-34.2887 207.4681,-24.2758"/>
<polygon fill="#191970" stroke="#191970" points="209.137,-27.353 216.4034,-19.6427 205.9147,-21.1388 209.137,-27.353"/>
</g>
<!-- Node13&#45;&gt;Node11 -->
<g id="edge15" class="edge">
<title>Node13&#45;&gt;Node11</title>
<path fill="none" stroke="#191970" d="M162.1287,-60.7819C236.0444,-49.8024 406.4488,-24.4904 474.8271,-14.3334"/>
<polygon fill="#191970" stroke="#191970" points="475.5179,-17.7693 484.895,-12.8379 474.4893,-10.8452 475.5179,-17.7693"/>
</g>
<!-- Node14 -->
<g id="node15" class="node">
<title>Node14</title>
<polygon fill="none" stroke="#bfbfbf" points="70,-.5 70,-19.5 116,-19.5 116,-.5 70,-.5"/>
<text text-anchor="middle" x="93" y="-7.5" font-family="Helvetica,sans-Serif" font-size="10.00" fill="#000000">cstring</text>
</g>
<!-- Node13&#45;&gt;Node14 -->
<g id="edge17" class="edge">
<title>Node13&#45;&gt;Node14</title>
<path fill="none" stroke="#191970" d="M121.0777,-56.2455C116.3973,-48.5367 109.7327,-37.5598 104.0711,-28.2348"/>
<polygon fill="#191970" stroke="#191970" points="107.0361,-26.3741 98.8545,-19.6427 101.0525,-30.007 107.0361,-26.3741"/>
</g>
<!-- Node15 -->
<g id="node16" class="node">
<title>Node15</title>
<polygon fill="none" stroke="#bfbfbf" points="134,-.5 134,-19.5 196,-19.5 196,-.5 134,-.5"/>
<text text-anchor="middle" x="165" y="-7.5" font-family="Helvetica,sans-Serif" font-size="10.00" fill="#000000">arpa/inet.h</text>
</g>
<!-- Node13&#45;&gt;Node15 -->
<g id="edge20" class="edge">
<title>Node13&#45;&gt;Node15</title>
<path fill="none" stroke="#191970" d="M133.6191,-56.2455C138.9046,-48.4564 146.4541,-37.3308 152.8238,-27.9439"/>
<polygon fill="#191970" stroke="#191970" points="155.7379,-29.8827 158.4568,-19.6427 149.9455,-25.9522 155.7379,-29.8827"/>
</g>
<!-- Node16&#45;&gt;Node5 -->
<g id="edge22" class="edge">
<title>Node16&#45;&gt;Node5</title>
<path fill="none" stroke="#191970" d="M333.213,-56.2455C331.1023,-48.8579 328.134,-38.4689 325.5453,-29.4087"/>
<polygon fill="#191970" stroke="#191970" points="328.8677,-28.2964 322.755,-19.6427 322.137,-30.2195 328.8677,-28.2964"/>
</g>
<!-- Node16&#45;&gt;Node8 -->
<g id="edge23" class="edge">
<title>Node16&#45;&gt;Node8</title>
<path fill="none" stroke="#191970" d="M377.5669,-58.4394C382.4291,-57.5959 387.3218,-56.7658 392,-56 488.4417,-40.214 602.1988,-23.8619 661.1213,-15.5606"/>
<polygon fill="#191970" stroke="#191970" points="661.7106,-19.0123 671.126,-14.1543 660.7362,-12.0804 661.7106,-19.0123"/>
</g>
<!-- Node17&#45;&gt;Node0 -->
<g id="edge51" class="edge">
<title>Node17&#45;&gt;Node0</title>
<path fill="none" stroke="#191970" d="M703.1083,-187.8469C704.4704,-194.9883 704.9849,-204.9858 704.6519,-214.2849"/>
<polygon fill="#191970" stroke="#191970" points="701.1584,-214.068 703.9157,-224.2977 708.1396,-214.5813 701.1584,-214.068"/>
</g>
<!-- Node17&#45;&gt;Node10 -->
<g id="edge27" class="edge">
<title>Node17&#45;&gt;Node10</title>
<path fill="none" stroke="#191970" d="M691.435,-168.4509C678.5923,-149.7707 649.9601,-108.1238 633.4274,-84.0761"/>
<polygon fill="#191970" stroke="#191970" points="636.0978,-81.7825 627.5484,-75.5249 630.3295,-85.7482 636.0978,-81.7825"/>
</g>
<!-- Node18 -->
<g id="node19" class="node">
<title>Node18</title>
<polygon fill="none" stroke="#bfbfbf" points="676,-56.5 676,-75.5 720,-75.5 720,-56.5 676,-56.5"/>
<text text-anchor="middle" x="698" y="-63.5" font-family="Helvetica,sans-Serif" font-size="10.00" fill="#000000">mutex</text>
</g>
<!-- Node17&#45;&gt;Node18 -->
<g id="edge26" class="edge">
<title>Node17&#45;&gt;Node18</title>
<path fill="none" stroke="#191970" d="M698,-168.4509C698,-150.184 698,-109.9553 698,-85.6976"/>
<polygon fill="#191970" stroke="#191970" points="701.5001,-85.5249 698,-75.5249 694.5001,-85.5249 701.5001,-85.5249"/>
</g>
<!-- Node19 -->
<g id="node20" class="node">
<title>Node19</title>
<g id="a_node20"><a xlink:href="stateMachine_8hpp.html" target="_top" xlink:title="stateMachine.hpp">
<polygon fill="none" stroke="#000000" points="764,-112.5 764,-131.5 858,-131.5 858,-112.5 764,-112.5"/>
<text text-anchor="middle" x="811" y="-119.5" font-family="Helvetica,sans-Serif" font-size="10.00" fill="#000000">stateMachine.hpp</text>
</a>
</g>
</g>
<!-- Node17&#45;&gt;Node19 -->
<g id="edge28" class="edge">
<title>Node17&#45;&gt;Node19</title>
<path fill="none" stroke="#191970" d="M717.4254,-168.3733C735.4021,-159.4644 762.3441,-146.1127 782.709,-136.0203"/>
<polygon fill="#191970" stroke="#191970" points="784.4222,-139.0776 791.8281,-131.5011 781.3139,-132.8055 784.4222,-139.0776"/>
</g>
<!-- Node19&#45;&gt;Node4 -->
<g id="edge31" class="edge">
<title>Node19&#45;&gt;Node4</title>
<path fill="none" stroke="#191970" d="M858.0093,-113.3153C861.0477,-112.8438 864.0643,-112.4001 867,-112 951.2647,-100.5153 1182.5379,-130.2877 1248,-76 1261.3113,-64.961 1265.6383,-45.2468 1266.8883,-30.2299"/>
<polygon fill="#191970" stroke="#191970" points="1270.4005,-30.0274 1267.3424,-19.8836 1263.4072,-29.7205 1270.4005,-30.0274"/>
</g>
<!-- Node19&#45;&gt;Node6 -->
<g id="edge32" class="edge">
<title>Node19&#45;&gt;Node6</title>
<path fill="none" stroke="#191970" d="M763.7753,-116.4784C705.1178,-109.2817 601.8231,-95.5023 503.8149,-75.991"/>
<polygon fill="#191970" stroke="#191970" points="504.2322,-72.5048 493.7379,-73.9605 502.8495,-79.3669 504.2322,-72.5048"/>
</g>
<!-- Node19&#45;&gt;Node7 -->
<g id="edge33" class="edge">
<title>Node19&#45;&gt;Node7</title>
<path fill="none" stroke="#191970" d="M763.7517,-113.9163C718.0883,-105.852 646.7697,-92.5969 576.0415,-76.1115"/>
<polygon fill="#191970" stroke="#191970" points="576.6039,-72.6483 566.068,-73.764 575.0002,-79.4621 576.6039,-72.6483"/>
</g>
<!-- Node19&#45;&gt;Node8 -->
<g id="edge38" class="edge">
<title>Node19&#45;&gt;Node8</title>
<path fill="none" stroke="#191970" d="M801.6215,-112.4509C782.9501,-93.4401 740.9166,-50.6423 717.5158,-26.816"/>
<polygon fill="#191970" stroke="#191970" points="719.859,-24.2069 710.3548,-19.5249 714.8648,-29.1119 719.859,-24.2069"/>
</g>
<!-- Node19&#45;&gt;Node10 -->
<g id="edge47" class="edge">
<title>Node19&#45;&gt;Node10</title>
<path fill="none" stroke="#191970" d="M778.3378,-112.3733C746.4702,-102.9807 697.8469,-88.6496 663.093,-78.4064"/>
<polygon fill="#191970" stroke="#191970" points="663.8175,-74.9711 653.236,-75.5011 661.8385,-81.6855 663.8175,-74.9711"/>
</g>
<!-- Node19&#45;&gt;Node12 -->
<g id="edge29" class="edge">
<title>Node19&#45;&gt;Node12</title>
<path fill="none" stroke="#191970" d="M808.8685,-112.4509C804.7726,-94.1013 795.7301,-53.5908 790.3235,-29.3693"/>
<polygon fill="#191970" stroke="#191970" points="793.7206,-28.5222 788.1261,-19.5249 786.8888,-30.0472 793.7206,-28.5222"/>
</g>
<!-- Node19&#45;&gt;Node16 -->
<g id="edge48" class="edge">
<title>Node19&#45;&gt;Node16</title>
<path fill="none" stroke="#191970" d="M763.7186,-116.4258C674.1511,-105.8662 480.4196,-83.0263 387.6085,-72.0844"/>
<polygon fill="#191970" stroke="#191970" points="387.9481,-68.6002 377.607,-70.9053 387.1284,-75.5521 387.9481,-68.6002"/>
</g>
<!-- Node19&#45;&gt;Node18 -->
<g id="edge36" class="edge">
<title>Node19&#45;&gt;Node18</title>
<path fill="none" stroke="#191970" d="M791.5746,-112.3733C773.5979,-103.4644 746.6559,-90.1127 726.291,-80.0203"/>
<polygon fill="#191970" stroke="#191970" points="727.6861,-76.8055 717.1719,-75.5011 724.5778,-83.0776 727.6861,-76.8055"/>
</g>
<!-- Node20 -->
<g id="node21" class="node">
<title>Node20</title>
<polygon fill="none" stroke="#bfbfbf" points="814,-56.5 814,-75.5 860,-75.5 860,-56.5 814,-56.5"/>
<text text-anchor="middle" x="837" y="-63.5" font-family="Helvetica,sans-Serif" font-size="10.00" fill="#000000">chrono</text>
</g>
<!-- Node19&#45;&gt;Node20 -->
<g id="edge30" class="edge">
<title>Node19&#45;&gt;Node20</title>
<path fill="none" stroke="#191970" d="M815.5289,-112.2455C819.0334,-104.6973 823.9927,-94.0158 828.2623,-84.8197"/>
<polygon fill="#191970" stroke="#191970" points="831.4864,-86.1867 832.523,-75.6427 825.1373,-83.2389 831.4864,-86.1867"/>
</g>
<!-- Node21 -->
<g id="node22" class="node">
<title>Node21</title>
<polygon fill="none" stroke="#bfbfbf" points="878,-56.5 878,-75.5 918,-75.5 918,-56.5 878,-56.5"/>
<text text-anchor="middle" x="898" y="-63.5" font-family="Helvetica,sans-Serif" font-size="10.00" fill="#000000">limits</text>
</g>
<!-- Node19&#45;&gt;Node21 -->
<g id="edge34" class="edge">
<title>Node19&#45;&gt;Node21</title>
<path fill="none" stroke="#191970" d="M826.1542,-112.2455C839.5027,-103.6534 859.1586,-91.0014 874.5383,-81.1018"/>
<polygon fill="#191970" stroke="#191970" points="876.5051,-83.9982 883.0194,-75.6427 872.7164,-78.1121 876.5051,-83.9982"/>
</g>
<!-- Node22 -->
<g id="node23" class="node">
<title>Node22</title>
<polygon fill="none" stroke="#bfbfbf" points="936,-56.5 936,-75.5 988,-75.5 988,-56.5 936,-56.5"/>
<text text-anchor="middle" x="962" y="-63.5" font-family="Helvetica,sans-Serif" font-size="10.00" fill="#000000">memory</text>
</g>
<!-- Node19&#45;&gt;Node22 -->
<g id="edge35" class="edge">
<title>Node19&#45;&gt;Node22</title>
<path fill="none" stroke="#191970" d="M836.9578,-112.3733C861.7407,-103.1822 899.2746,-89.2624 926.754,-79.0713"/>
<polygon fill="#191970" stroke="#191970" points="928.2219,-82.26 936.3809,-75.5011 925.7879,-75.6968 928.2219,-82.26"/>
</g>
<!-- Node23 -->
<g id="node24" class="node">
<title>Node23</title>
<polygon fill="none" stroke="#bfbfbf" points="1006.5,-56.5 1006.5,-75.5 1049.5,-75.5 1049.5,-56.5 1006.5,-56.5"/>
<text text-anchor="middle" x="1028" y="-63.5" font-family="Helvetica,sans-Serif" font-size="10.00" fill="#000000">queue</text>
</g>
<!-- Node19&#45;&gt;Node23 -->
<g id="edge37" class="edge">
<title>Node19&#45;&gt;Node23</title>
<path fill="none" stroke="#191970" d="M853.3276,-112.4177C889.0281,-104.1375 941.6667,-91.4675 996.4841,-76.0022"/>
<polygon fill="#191970" stroke="#191970" points="997.7182,-79.2901 1006.3784,-73.1867 995.8023,-72.5574 997.7182,-79.2901"/>
</g>
<!-- Node24 -->
<g id="node25" class="node">
<title>Node24</title>
<polygon fill="none" stroke="#bfbfbf" points="1067.5,-56.5 1067.5,-75.5 1150.5,-75.5 1150.5,-56.5 1067.5,-56.5"/>
<text text-anchor="middle" x="1109" y="-63.5" font-family="Helvetica,sans-Serif" font-size="10.00" fill="#000000">unordered_map</text>
</g>
<!-- Node19&#45;&gt;Node24 -->
<g id="edge39" class="edge">
<title>Node19&#45;&gt;Node24</title>
<path fill="none" stroke="#191970" d="M858.3767,-113.3149C905.9807,-104.5571 981.7343,-90.5368 1057.1099,-76.1569"/>
<polygon fill="#191970" stroke="#191970" points="1058.0921,-79.5326 1067.2577,-74.2183 1056.7786,-72.657 1058.0921,-79.5326"/>
</g>
<!-- Node25 -->
<g id="node26" class="node">
<title>Node25</title>
<polygon fill="none" stroke="#bfbfbf" points="1334,-.5 1334,-19.5 1378,-19.5 1378,-.5 1334,-.5"/>
<text text-anchor="middle" x="1356" y="-7.5" font-family="Helvetica,sans-Serif" font-size="10.00" fill="#000000">vector</text>
</g>
<!-- Node19&#45;&gt;Node25 -->
<g id="edge40" class="edge">
<title>Node19&#45;&gt;Node25</title>
<path fill="none" stroke="#191970" d="M858.007,-113.2985C861.046,-112.8311 864.0634,-112.3929 867,-112 1044.7972,-88.2105 1101.7028,-140.7258 1269,-76 1296.9588,-65.183 1323.5712,-42.5483 1339.8335,-26.8218"/>
<polygon fill="#191970" stroke="#191970" points="1342.3301,-29.275 1346.946,-19.7385 1337.3905,-24.3151 1342.3301,-29.275"/>
</g>
<!-- Node26 -->
<g id="node27" class="node">
<title>Node26</title>
<g id="a_node27"><a xlink:href="bufArray_8hpp.html" target="_top" xlink:title="bufArray.hpp">
<polygon fill="none" stroke="#000000" points="1168.5,-56.5 1168.5,-75.5 1239.5,-75.5 1239.5,-56.5 1168.5,-56.5"/>
<text text-anchor="middle" x="1204" y="-63.5" font-family="Helvetica,sans-Serif" font-size="10.00" fill="#000000">bufArray.hpp</text>
</a>
</g>
</g>
<!-- Node19&#45;&gt;Node26 -->
<g id="edge41" class="edge">
<title>Node19&#45;&gt;Node26</title>
<path fill="none" stroke="#191970" d="M858.0233,-113.4129C861.0583,-112.9175 864.0703,-112.4418 867,-112 993.1414,-92.9757 1028.4301,-97.9448 1158.2717,-75.9811"/>
<polygon fill="#191970" stroke="#191970" points="1158.9344,-79.4186 1168.2001,-74.2807 1157.7527,-72.5191 1158.9344,-79.4186"/>
</g>
<!-- Node28 -->
<g id="node29" class="node">
<title>Node28</title>
<g id="a_node29"><a xlink:href="spinlock_8hpp.html" target="_top" xlink:title="spinlock.hpp">
<polygon fill="none" stroke="#000000" points="1410.5,-56.5 1410.5,-75.5 1481.5,-75.5 1481.5,-56.5 1410.5,-56.5"/>
<text text-anchor="middle" x="1446" y="-63.5" font-family="Helvetica,sans-Serif" font-size="10.00" fill="#000000">spinlock.hpp</text>
</a>
</g>
</g>
<!-- Node19&#45;&gt;Node28 -->
<g id="edge49" class="edge">
<title>Node19&#45;&gt;Node28</title>
<path fill="none" stroke="#191970" d="M858.3017,-113.1803C861.2401,-112.7481 864.1574,-112.3495 867,-112 1100.8939,-83.2445 1162.416,-107.1731 1396,-76 1397.4533,-75.806 1398.9278,-75.5953 1400.4148,-75.3708"/>
<polygon fill="#191970" stroke="#191970" points="1401.0262,-78.8173 1410.3148,-73.7208 1399.8754,-71.9125 1401.0262,-78.8173"/>
</g>
<!-- Node26&#45;&gt;Node4 -->
<g id="edge43" class="edge">
<title>Node26&#45;&gt;Node4</title>
<path fill="none" stroke="#191970" d="M1214.9738,-56.2455C1224.1882,-48.0549 1237.5532,-36.1749 1248.4297,-26.5069"/>
<polygon fill="#191970" stroke="#191970" points="1251.0032,-28.9023 1256.152,-19.6427 1246.3526,-23.6704 1251.0032,-28.9023"/>
</g>
<!-- Node26&#45;&gt;Node8 -->
<g id="edge44" class="edge">
<title>Node26&#45;&gt;Node8</title>
<path fill="none" stroke="#191970" d="M1168.2184,-57.6068C1165.1101,-57.012 1162.0054,-56.4648 1159,-56 979.5386,-28.2442 931.795,-45.5062 752,-20 748.2983,-19.4749 744.4587,-18.8577 740.6228,-18.1921"/>
<polygon fill="#191970" stroke="#191970" points="741.0429,-14.7108 730.5752,-16.347 739.7786,-21.5957 741.0429,-14.7108"/>
</g>
<!-- Node26&#45;&gt;Node12 -->
<g id="edge42" class="edge">
<title>Node26&#45;&gt;Node12</title>
<path fill="none" stroke="#191970" d="M1168.2,-57.7194C1165.0957,-57.1001 1161.997,-56.5166 1159,-56 1035.3556,-34.6881 887.0051,-19.4386 820.8284,-13.1687"/>
<polygon fill="#191970" stroke="#191970" points="820.8418,-9.6547 810.5587,-12.2056 820.1881,-16.6241 820.8418,-9.6547"/>
</g>
<!-- Node26&#45;&gt;Node25 -->
<g id="edge46" class="edge">
<title>Node26&#45;&gt;Node25</title>
<path fill="none" stroke="#191970" d="M1230.1297,-56.3733C1256.1351,-46.7923 1296.0881,-32.0728 1323.9848,-21.7951"/>
<polygon fill="#191970" stroke="#191970" points="1325.4954,-24.9686 1333.6689,-18.2273 1323.0754,-18.4002 1325.4954,-24.9686"/>
</g>
<!-- Node27 -->
<g id="node28" class="node">
<title>Node27</title>
<polygon fill="none" stroke="#bfbfbf" points="1184,-.5 1184,-19.5 1224,-19.5 1224,-.5 1184,-.5"/>
<text text-anchor="middle" x="1204" y="-7.5" font-family="Helvetica,sans-Serif" font-size="10.00" fill="#000000">utility</text>
</g>
<!-- Node26&#45;&gt;Node27 -->
<g id="edge45" class="edge">
<title>Node26&#45;&gt;Node27</title>
<path fill="none" stroke="#191970" d="M1204,-56.2455C1204,-48.9382 1204,-38.6944 1204,-29.7046"/>
<polygon fill="#191970" stroke="#191970" points="1207.5001,-29.6426 1204,-19.6427 1200.5001,-29.6427 1207.5001,-29.6426"/>
</g>
<!-- Node29 -->
<g id="node30" class="node">
<title>Node29</title>
<polygon fill="none" stroke="#bfbfbf" points="1423,-.5 1423,-19.5 1469,-19.5 1469,-.5 1423,-.5"/>
<text text-anchor="middle" x="1446" y="-7.5" font-family="Helvetica,sans-Serif" font-size="10.00" fill="#000000">atomic</text>
</g>
<!-- Node28&#45;&gt;Node29 -->
<g id="edge50" class="edge">
<title>Node28&#45;&gt;Node29</title>
<path fill="none" stroke="#191970" d="M1446,-56.2455C1446,-48.9382 1446,-38.6944 1446,-29.7046"/>
<polygon fill="#191970" stroke="#191970" points="1449.5001,-29.6426 1446,-19.6427 1442.5001,-29.6427 1449.5001,-29.6426"/>
</g>
<!-- Node30&#45;&gt;Node4 -->
<g id="edge53" class="edge">
<title>Node30&#45;&gt;Node4</title>
<path fill="none" stroke="#191970" d="M1344.1641,-168.4031C1344.1173,-146.8062 1341.6431,-93.3562 1320,-56 1313.0332,-43.9753 1301.753,-33.534 1291.3862,-25.6523"/>
<polygon fill="#191970" stroke="#191970" points="1293.1764,-22.6295 1283.0077,-19.6551 1289.1021,-28.3216 1293.1764,-22.6295"/>
</g>
<!-- Node31 -->
<g id="node32" class="node">
<title>Node31</title>
<polygon fill="none" stroke="#bfbfbf" points="1372.5,-112.5 1372.5,-131.5 1435.5,-131.5 1435.5,-112.5 1372.5,-112.5"/>
<text text-anchor="middle" x="1404" y="-119.5" font-family="Helvetica,sans-Serif" font-size="10.00" fill="#000000">rte_mbuf.h</text>
</g>
<!-- Node30&#45;&gt;Node31 -->
<g id="edge54" class="edge">
<title>Node30&#45;&gt;Node31</title>
<path fill="none" stroke="#191970" d="M1354.4512,-168.2455C1363.2269,-160.0549 1375.9554,-148.1749 1386.314,-138.5069"/>
<polygon fill="#191970" stroke="#191970" points="1388.7461,-141.0246 1393.6686,-131.6427 1383.9699,-135.9072 1388.7461,-141.0246"/>
</g>
<!-- Node32&#45;&gt;Node1 -->
<g id="edge57" class="edge">
<title>Node32&#45;&gt;Node1</title>
<path fill="none" stroke="#191970" d="M899,-168.2455C899,-160.9382 899,-150.6944 899,-141.7046"/>
<polygon fill="#191970" stroke="#191970" points="902.5001,-141.6426 899,-131.6427 895.5001,-141.6427 902.5001,-141.6426"/>
</g>
<!-- Node32&#45;&gt;Node4 -->
<g id="edge56" class="edge">
<title>Node32&#45;&gt;Node4</title>
<path fill="none" stroke="#191970" d="M948.1166,-171.8022C1039.5259,-159.1512 1230.0403,-127.1532 1269,-76 1278.9629,-62.9189 1277.1335,-43.7766 1273.5985,-29.4719"/>
<polygon fill="#191970" stroke="#191970" points="1276.8946,-28.2732 1270.7299,-19.6566 1270.1757,-30.2369 1276.8946,-28.2732"/>
</g>
</g>
</svg>
