<?xml version="1.0" encoding="UTF-8" standalone="no"?>
<!DOCTYPE svg PUBLIC "-//W3C//DTD SVG 1.1//EN"
 "http://www.w3.org/Graphics/SVG/1.1/DTD/svg11.dtd">
<!-- Generated by graphviz version 2.40.1 (20161225.0304)
 -->
<!-- Title: /home/dominik/uni/MoonState/include/helloBye2_C.hpp Pages: 1 -->
<svg width="1624pt" height="319pt"
 viewBox="0.00 0.00 1624.00 319.00" xmlns="http://www.w3.org/2000/svg" xmlns:xlink="http://www.w3.org/1999/xlink">
<g id="graph0" class="graph" transform="scale(1 1) rotate(0) translate(4 315)">
<title>/home/dominik/uni/MoonState/include/helloBye2_C.hpp</title>
<!-- Node0 -->
<g id="node1" class="node">
<title>Node0</title>
<polygon fill="#bfbfbf" stroke="#000000" points="273.5,-280.5 273.5,-310.5 420.5,-310.5 420.5,-280.5 273.5,-280.5"/>
<text text-anchor="start" x="281.5" y="-298.5" font-family="Helvetica,sans-Serif" font-size="10.00" fill="#000000">/home/dominik/uni/MoonState</text>
<text text-anchor="middle" x="347" y="-287.5" font-family="Helvetica,sans-Serif" font-size="10.00" fill="#000000">/include/helloBye2_C.hpp</text>
</g>
<!-- Node1 -->
<g id="node2" class="node">
<title>Node1</title>
<g id="a_node2"><a xlink:href="helloBye2Proto_8hpp.html" target="_top" xlink:title="helloBye2Proto.hpp">
<polygon fill="none" stroke="#000000" points="257.5,-224.5 257.5,-243.5 358.5,-243.5 358.5,-224.5 257.5,-224.5"/>
<text text-anchor="middle" x="308" y="-231.5" font-family="Helvetica,sans-Serif" font-size="10.00" fill="#000000">helloBye2Proto.hpp</text>
</a>
</g>
</g>
<!-- Node0&#45;&gt;Node1 -->
<g id="edge1" class="edge">
<title>Node0&#45;&gt;Node1</title>
<path fill="none" stroke="#191970" d="M337.3595,-280.2977C332.0023,-271.8498 325.2978,-261.2773 319.6487,-252.369"/>
<polygon fill="#191970" stroke="#191970" points="322.5556,-250.4176 314.2444,-243.8469 316.6441,-254.1664 322.5556,-250.4176"/>
</g>
<!-- Node32 -->
<g id="node33" class="node">
<title>Node32</title>
<polygon fill="none" stroke="#bfbfbf" points="308.5,-56.5 308.5,-75.5 371.5,-75.5 371.5,-56.5 308.5,-56.5"/>
<text text-anchor="middle" x="340" y="-63.5" font-family="Helvetica,sans-Serif" font-size="10.00" fill="#000000">rte_mbuf.h</text>
</g>
<!-- Node0&#45;&gt;Node32 -->
<g id="edge62" class="edge">
<title>Node0&#45;&gt;Node32</title>
<path fill="none" stroke="#191970" d="M354.6848,-280.1664C359.2643,-270.151 364.6331,-256.6328 367,-244 377.8037,-186.3367 382.3872,-168.6128 367,-112 364.2824,-102.0015 358.7825,-91.9556 353.4516,-83.8139"/>
<polygon fill="#191970" stroke="#191970" points="356.261,-81.7239 347.6619,-75.5346 350.5245,-85.7354 356.261,-81.7239"/>
</g>
<!-- Node2 -->
<g id="node3" class="node">
<title>Node2</title>
<polygon fill="none" stroke="#bfbfbf" points="1572,-56.5 1572,-75.5 1616,-75.5 1616,-56.5 1572,-56.5"/>
<text text-anchor="middle" x="1594" y="-63.5" font-family="Helvetica,sans-Serif" font-size="10.00" fill="#000000">mutex</text>
</g>
<!-- Node1&#45;&gt;Node2 -->
<g id="edge2" class="edge">
<title>Node1&#45;&gt;Node2</title>
<path fill="none" stroke="#191970" d="M358.6724,-230.0806C447.4289,-223.0241 636.7345,-207.122 796,-188 1134.7072,-147.3336 1225.6818,-153.9085 1561.7588,-75.9908"/>
<polygon fill="#191970" stroke="#191970" points="1562.8271,-79.3358 1571.7739,-73.6608 1561.2409,-72.5179 1562.8271,-79.3358"/>
</g>
<!-- Node3 -->
<g id="node4" class="node">
<title>Node3</title>
<polygon fill="none" stroke="#bfbfbf" points="0,-.5 0,-19.5 52,-19.5 52,-.5 0,-.5"/>
<text text-anchor="middle" x="26" y="-7.5" font-family="Helvetica,sans-Serif" font-size="10.00" fill="#000000">sstream</text>
</g>
<!-- Node1&#45;&gt;Node3 -->
<g id="edge3" class="edge">
<title>Node1&#45;&gt;Node3</title>
<path fill="none" stroke="#191970" d="M257.4845,-229.5193C215.5108,-224.166 155.2377,-212.6123 108,-188 53.0543,-159.3715 36.0546,-136.9624 25,-76 22.2483,-60.8253 22.6661,-43.3656 23.6814,-30.217"/>
<polygon fill="#191970" stroke="#191970" points="27.1965,-30.2252 24.6629,-19.9378 20.2281,-29.5598 27.1965,-30.2252"/>
</g>
<!-- Node4 -->
<g id="node5" class="node">
<title>Node4</title>
<g id="a_node5"><a xlink:href="common_8hpp.html" target="_top" xlink:title="common.hpp">
<polygon fill="none" stroke="#000000" points="619.5,-56.5 619.5,-75.5 692.5,-75.5 692.5,-56.5 619.5,-56.5"/>
<text text-anchor="middle" x="656" y="-63.5" font-family="Helvetica,sans-Serif" font-size="10.00" fill="#000000">common.hpp</text>
</a>
</g>
</g>
<!-- Node1&#45;&gt;Node4 -->
<g id="edge4" class="edge">
<title>Node1&#45;&gt;Node4</title>
<path fill="none" stroke="#191970" d="M333.5287,-224.377C377.6695,-207.4492 470.752,-170.4752 546,-132 576.8841,-116.2086 610.9049,-95.2023 632.8139,-81.1718"/>
<polygon fill="#191970" stroke="#191970" points="634.9118,-83.9835 641.4175,-75.6213 631.117,-78.1014 634.9118,-83.9835"/>
</g>
<!-- Node7 -->
<g id="node8" class="node">
<title>Node7</title>
<g id="a_node8"><a xlink:href="exceptions_8hpp.html" target="_top" xlink:title="exceptions.hpp">
<polygon fill="none" stroke="#000000" points="783.5,-56.5 783.5,-75.5 866.5,-75.5 866.5,-56.5 783.5,-56.5"/>
<text text-anchor="middle" x="825" y="-63.5" font-family="Helvetica,sans-Serif" font-size="10.00" fill="#000000">exceptions.hpp</text>
</a>
</g>
</g>
<!-- Node1&#45;&gt;Node7 -->
<g id="edge7" class="edge">
<title>Node1&#45;&gt;Node7</title>
<path fill="none" stroke="#191970" d="M341.1444,-224.4529C372.3993,-215.3665 420.5092,-201.1648 462,-188 581.9514,-149.9401 722.9716,-101.4656 788.3278,-78.7844"/>
<polygon fill="#191970" stroke="#191970" points="789.484,-82.088 797.7817,-75.5003 787.1869,-75.4757 789.484,-82.088"/>
</g>
<!-- Node10 -->
<g id="node11" class="node">
<title>Node10</title>
<g id="a_node11"><a xlink:href="headers_8hpp.html" target="_top" xlink:title="headers.hpp">
<polygon fill="none" stroke="#000000" points="144,-56.5 144,-75.5 214,-75.5 214,-56.5 144,-56.5"/>
<text text-anchor="middle" x="179" y="-63.5" font-family="Helvetica,sans-Serif" font-size="10.00" fill="#000000">headers.hpp</text>
</a>
</g>
</g>
<!-- Node1&#45;&gt;Node10 -->
<g id="edge10" class="edge">
<title>Node1&#45;&gt;Node10</title>
<path fill="none" stroke="#191970" d="M300.8058,-224.4772C285.2395,-203.8915 247.2349,-153.7333 215,-112 207.8226,-102.7077 199.7737,-92.4115 193.1098,-83.9201"/>
<polygon fill="#191970" stroke="#191970" points="195.6923,-81.5419 186.7611,-75.8423 190.1886,-85.8674 195.6923,-81.5419"/>
</g>
<!-- Node15 -->
<g id="node16" class="node">
<title>Node15</title>
<g id="a_node16"><a xlink:href="stateMachine_8hpp.html" target="_top" xlink:title="stateMachine.hpp">
<polygon fill="none" stroke="#000000" points="1024,-112.5 1024,-131.5 1118,-131.5 1118,-112.5 1024,-112.5"/>
<text text-anchor="middle" x="1071" y="-119.5" font-family="Helvetica,sans-Serif" font-size="10.00" fill="#000000">stateMachine.hpp</text>
</a>
</g>
</g>
<!-- Node1&#45;&gt;Node15 -->
<g id="edge17" class="edge">
<title>Node1&#45;&gt;Node15</title>
<path fill="none" stroke="#191970" d="M358.754,-229.6714C437.281,-222.6849 592.8612,-207.6913 724,-188 828.1162,-172.3663 948.6522,-148.0171 1016.7555,-133.6742"/>
<polygon fill="#191970" stroke="#191970" points="1017.7598,-137.0393 1026.8198,-131.5469 1016.3122,-130.1906 1017.7598,-137.0393"/>
</g>
<!-- Node28 -->
<g id="node29" class="node">
<title>Node28</title>
<g id="a_node29"><a xlink:href="helloBye2Proto_8cpp.html" target="_top" xlink:title="../src/helloBye2Proto.cpp">
<polygon fill="none" stroke="#000000" points="117.5,-168.5 117.5,-187.5 244.5,-187.5 244.5,-168.5 117.5,-168.5"/>
<text text-anchor="middle" x="181" y="-175.5" font-family="Helvetica,sans-Serif" font-size="10.00" fill="#000000">../src/helloBye2Proto.cpp</text>
</a>
</g>
</g>
<!-- Node1&#45;&gt;Node28 -->
<g id="edge40" class="edge">
<title>Node1&#45;&gt;Node28</title>
<path fill="none" stroke="#191970" d="M280.9259,-224.3733C258.8798,-215.4241 228.1908,-201.9917 206.5648,-191.8835"/>
<polygon fill="#191970" stroke="#191970" points="207.8648,-188.6264 197.3299,-187.5011 204.8637,-194.9504 207.8648,-188.6264"/>
</g>
<!-- Node5 -->
<g id="node6" class="node">
<title>Node5</title>
<polygon fill="none" stroke="#bfbfbf" points="328,-.5 328,-19.5 366,-19.5 366,-.5 328,-.5"/>
<text text-anchor="middle" x="347" y="-7.5" font-family="Helvetica,sans-Serif" font-size="10.00" fill="#000000">array</text>
</g>
<!-- Node4&#45;&gt;Node5 -->
<g id="edge5" class="edge">
<title>Node4&#45;&gt;Node5</title>
<path fill="none" stroke="#191970" d="M619.3785,-57.8497C616.2109,-57.2021 613.0516,-56.5765 610,-56 510.9193,-37.283 484.7181,-40.5438 386,-20 382.7837,-19.3307 379.4338,-18.57 376.1078,-17.7742"/>
<polygon fill="#191970" stroke="#191970" points="376.9092,-14.3669 366.3589,-15.3371 375.2115,-21.1579 376.9092,-14.3669"/>
</g>
<!-- Node6 -->
<g id="node7" class="node">
<title>Node6</title>
<polygon fill="none" stroke="#bfbfbf" points="1301.5,-.5 1301.5,-19.5 1350.5,-19.5 1350.5,-.5 1301.5,-.5"/>
<text text-anchor="middle" x="1326" y="-7.5" font-family="Helvetica,sans-Serif" font-size="10.00" fill="#000000">cassert</text>
</g>
<!-- Node4&#45;&gt;Node6 -->
<g id="edge6" class="edge">
<title>Node4&#45;&gt;Node6</title>
<path fill="none" stroke="#191970" d="M692.5738,-57.5639C695.7518,-56.9784 698.9265,-56.4451 702,-56 925.0776,-23.6933 1196.4914,-13.5373 1291.3197,-10.8488"/>
<polygon fill="#191970" stroke="#191970" points="1291.5835,-14.343 1301.4839,-10.5704 1291.3918,-7.3456 1291.5835,-14.343"/>
</g>
<!-- Node8 -->
<g id="node9" class="node">
<title>Node8</title>
<polygon fill="none" stroke="#bfbfbf" points="465.5,-.5 465.5,-19.5 524.5,-19.5 524.5,-.5 465.5,-.5"/>
<text text-anchor="middle" x="495" y="-7.5" font-family="Helvetica,sans-Serif" font-size="10.00" fill="#000000">exception</text>
</g>
<!-- Node7&#45;&gt;Node8 -->
<g id="edge8" class="edge">
<title>Node7&#45;&gt;Node8</title>
<path fill="none" stroke="#191970" d="M783.2708,-57.7113C780.1357,-57.1212 777.019,-56.5447 774,-56 688.9008,-40.6452 588.8189,-24.6423 534.6628,-16.1529"/>
<polygon fill="#191970" stroke="#191970" points="535.2013,-12.6946 524.7805,-14.6073 534.1196,-19.6106 535.2013,-12.6946"/>
</g>
<!-- Node9 -->
<g id="node10" class="node">
<title>Node9</title>
<polygon fill="none" stroke="#bfbfbf" points="1009.5,-.5 1009.5,-19.5 1068.5,-19.5 1068.5,-.5 1009.5,-.5"/>
<text text-anchor="middle" x="1039" y="-7.5" font-family="Helvetica,sans-Serif" font-size="10.00" fill="#000000">stdexcept</text>
</g>
<!-- Node7&#45;&gt;Node9 -->
<g id="edge9" class="edge">
<title>Node7&#45;&gt;Node9</title>
<path fill="none" stroke="#191970" d="M861.7879,-56.3733C900.1548,-46.3333 960.085,-30.6507 999.4498,-20.3496"/>
<polygon fill="#191970" stroke="#191970" points="1000.4464,-23.7067 1009.2345,-17.7891 998.6742,-16.9348 1000.4464,-23.7067"/>
</g>
<!-- Node10&#45;&gt;Node3 -->
<g id="edge14" class="edge">
<title>Node10&#45;&gt;Node3</title>
<path fill="none" stroke="#191970" d="M152.6984,-56.3733C127.5872,-47.1822 89.5562,-33.2624 61.7128,-23.0713"/>
<polygon fill="#191970" stroke="#191970" points="62.5522,-19.6516 51.9584,-19.5011 60.1462,-26.2251 62.5522,-19.6516"/>
</g>
<!-- Node10&#45;&gt;Node5 -->
<g id="edge11" class="edge">
<title>Node10&#45;&gt;Node5</title>
<path fill="none" stroke="#191970" d="M207.8802,-56.3733C238.7295,-46.0902 287.3368,-29.8877 318.1677,-19.6108"/>
<polygon fill="#191970" stroke="#191970" points="319.5105,-22.8526 327.8906,-16.3698 317.2969,-16.2118 319.5105,-22.8526"/>
</g>
<!-- Node11 -->
<g id="node12" class="node">
<title>Node11</title>
<polygon fill="none" stroke="#bfbfbf" points="395,-.5 395,-19.5 441,-19.5 441,-.5 395,-.5"/>
<text text-anchor="middle" x="418" y="-7.5" font-family="Helvetica,sans-Serif" font-size="10.00" fill="#000000">cstdint</text>
</g>
<!-- Node10&#45;&gt;Node11 -->
<g id="edge12" class="edge">
<title>Node10&#45;&gt;Node11</title>
<path fill="none" stroke="#191970" d="M214.0086,-57.7971C259.9585,-47.0307 340.0315,-28.2688 384.9742,-17.7383"/>
<polygon fill="#191970" stroke="#191970" points="385.8666,-21.124 394.8044,-15.4349 384.2696,-14.3086 385.8666,-21.124"/>
</g>
<!-- Node12 -->
<g id="node13" class="node">
<title>Node12</title>
<polygon fill="none" stroke="#bfbfbf" points="159,-.5 159,-19.5 205,-19.5 205,-.5 159,-.5"/>
<text text-anchor="middle" x="182" y="-7.5" font-family="Helvetica,sans-Serif" font-size="10.00" fill="#000000">cstring</text>
</g>
<!-- Node10&#45;&gt;Node12 -->
<g id="edge13" class="edge">
<title>Node10&#45;&gt;Node12</title>
<path fill="none" stroke="#191970" d="M179.5226,-56.2455C179.914,-48.9382 180.4628,-38.6944 180.9444,-29.7046"/>
<polygon fill="#191970" stroke="#191970" points="184.4434,-29.8156 181.4834,-19.6427 177.4534,-29.4411 184.4434,-29.8156"/>
</g>
<!-- Node13 -->
<g id="node14" class="node">
<title>Node13</title>
<polygon fill="none" stroke="#bfbfbf" points="245.5,-.5 245.5,-19.5 286.5,-19.5 286.5,-.5 245.5,-.5"/>
<text text-anchor="middle" x="266" y="-7.5" font-family="Helvetica,sans-Serif" font-size="10.00" fill="#000000">string</text>
</g>
<!-- Node10&#45;&gt;Node13 -->
<g id="edge15" class="edge">
<title>Node10&#45;&gt;Node13</title>
<path fill="none" stroke="#191970" d="M194.1542,-56.2455C207.5027,-47.6534 227.1586,-35.0014 242.5383,-25.1018"/>
<polygon fill="#191970" stroke="#191970" points="244.5051,-27.9982 251.0194,-19.6427 240.7164,-22.1121 244.5051,-27.9982"/>
</g>
<!-- Node14 -->
<g id="node15" class="node">
<title>Node14</title>
<polygon fill="none" stroke="#bfbfbf" points="79,-.5 79,-19.5 141,-19.5 141,-.5 79,-.5"/>
<text text-anchor="middle" x="110" y="-7.5" font-family="Helvetica,sans-Serif" font-size="10.00" fill="#000000">arpa/inet.h</text>
</g>
<!-- Node10&#45;&gt;Node14 -->
<g id="edge16" class="edge">
<title>Node10&#45;&gt;Node14</title>
<path fill="none" stroke="#191970" d="M166.9811,-56.2455C156.7902,-47.9746 141.9638,-35.9416 129.9893,-26.2232"/>
<polygon fill="#191970" stroke="#191970" points="131.8514,-23.2268 121.8812,-19.6427 127.4402,-28.662 131.8514,-23.2268"/>
</g>
<!-- Node15&#45;&gt;Node2 -->
<g id="edge25" class="edge">
<title>Node15&#45;&gt;Node2</title>
<path fill="none" stroke="#191970" d="M1118.3121,-121.0076C1204.8741,-118.4518 1394.4801,-109.4248 1561.8313,-75.8389"/>
<polygon fill="#191970" stroke="#191970" points="1562.7073,-79.2324 1571.8049,-73.8024 1561.3068,-72.3739 1562.7073,-79.2324"/>
</g>
<!-- Node15&#45;&gt;Node4 -->
<g id="edge36" class="edge">
<title>Node15&#45;&gt;Node4</title>
<path fill="none" stroke="#191970" d="M1023.9107,-117.5016C955.4287,-110.6581 824.1808,-96.4087 702.4665,-75.944"/>
<polygon fill="#191970" stroke="#191970" points="703.0454,-72.4923 692.6004,-74.2678 701.8728,-79.3934 703.0454,-72.4923"/>
</g>
<!-- Node15&#45;&gt;Node6 -->
<g id="edge18" class="edge">
<title>Node15&#45;&gt;Node6</title>
<path fill="none" stroke="#191970" d="M1118.2832,-116.2087C1172.8837,-108.7768 1258.5861,-94.5923 1285,-76 1301.3116,-64.5185 1312.4591,-44.2795 1318.9658,-29.2312"/>
<polygon fill="#191970" stroke="#191970" points="1322.2685,-30.3984 1322.7355,-19.8138 1315.7698,-27.797 1322.2685,-30.3984"/>
</g>
<!-- Node15&#45;&gt;Node7 -->
<g id="edge37" class="edge">
<title>Node15&#45;&gt;Node7</title>
<path fill="none" stroke="#191970" d="M1028.9906,-112.4369C986.8896,-102.8529 921.9995,-88.0812 876.7479,-77.78"/>
<polygon fill="#191970" stroke="#191970" points="877.3636,-74.3307 866.8361,-75.5237 875.8098,-81.1561 877.3636,-74.3307"/>
</g>
<!-- Node15&#45;&gt;Node9 -->
<g id="edge27" class="edge">
<title>Node15&#45;&gt;Node9</title>
<path fill="none" stroke="#191970" d="M1118.1004,-117.7113C1170.5787,-111.8437 1250.5073,-99.2815 1269,-76 1274.5287,-69.0397 1274.6355,-62.8742 1269,-56 1245.376,-27.1834 1137.9837,-16.0591 1078.6667,-12.0582"/>
<polygon fill="#191970" stroke="#191970" points="1078.7331,-8.5554 1068.5307,-11.4123 1078.2879,-15.5413 1078.7331,-8.5554"/>
</g>
<!-- Node15&#45;&gt;Node11 -->
<g id="edge20" class="edge">
<title>Node15&#45;&gt;Node11</title>
<path fill="none" stroke="#191970" d="M1030.9427,-112.4943C998.7929,-104.3367 952.7825,-91.4648 914,-76 895.9059,-68.7848 893.7222,-61.3792 875,-56 695.3594,-4.3864 640.1658,-51.9008 456,-20 454.3364,-19.7118 452.6392,-19.3859 450.9306,-19.0322"/>
<polygon fill="#191970" stroke="#191970" points="451.7045,-15.6189 441.1727,-16.7727 450.1253,-22.4385 451.7045,-15.6189"/>
</g>
<!-- Node16 -->
<g id="node17" class="node">
<title>Node16</title>
<polygon fill="none" stroke="#bfbfbf" points="923,-56.5 923,-75.5 969,-75.5 969,-56.5 923,-56.5"/>
<text text-anchor="middle" x="946" y="-63.5" font-family="Helvetica,sans-Serif" font-size="10.00" fill="#000000">chrono</text>
</g>
<!-- Node15&#45;&gt;Node16 -->
<g id="edge19" class="edge">
<title>Node15&#45;&gt;Node16</title>
<path fill="none" stroke="#191970" d="M1049.5117,-112.3733C1029.356,-103.3435 999.012,-89.7494 976.382,-79.6111"/>
<polygon fill="#191970" stroke="#191970" points="977.7649,-76.3955 967.2079,-75.5011 974.9029,-82.7838 977.7649,-76.3955"/>
</g>
<!-- Node17 -->
<g id="node18" class="node">
<title>Node17</title>
<polygon fill="none" stroke="#bfbfbf" points="542.5,-56.5 542.5,-75.5 601.5,-75.5 601.5,-56.5 542.5,-56.5"/>
<text text-anchor="middle" x="572" y="-63.5" font-family="Helvetica,sans-Serif" font-size="10.00" fill="#000000">functional</text>
</g>
<!-- Node15&#45;&gt;Node17 -->
<g id="edge21" class="edge">
<title>Node15&#45;&gt;Node17</title>
<path fill="none" stroke="#191970" d="M1023.8725,-119.7577C941.8578,-115.3219 767.5031,-103.5315 611.9865,-76.1368"/>
<polygon fill="#191970" stroke="#191970" points="612.2314,-72.6252 601.7713,-74.3098 610.9989,-79.5158 612.2314,-72.6252"/>
</g>
<!-- Node18 -->
<g id="node19" class="node">
<title>Node18</title>
<polygon fill="none" stroke="#bfbfbf" points="711,-56.5 711,-75.5 765,-75.5 765,-56.5 711,-56.5"/>
<text text-anchor="middle" x="738" y="-63.5" font-family="Helvetica,sans-Serif" font-size="10.00" fill="#000000">iostream</text>
</g>
<!-- Node15&#45;&gt;Node18 -->
<g id="edge22" class="edge">
<title>Node15&#45;&gt;Node18</title>
<path fill="none" stroke="#191970" d="M1023.8775,-116.4362C967.0504,-109.3431 868.5023,-95.8206 774.9533,-76.0055"/>
<polygon fill="#191970" stroke="#191970" points="775.5541,-72.5548 765.0423,-73.8782 774.085,-79.3989 775.5541,-72.5548"/>
</g>
<!-- Node19 -->
<g id="node20" class="node">
<title>Node19</title>
<polygon fill="none" stroke="#bfbfbf" points="987,-56.5 987,-75.5 1027,-75.5 1027,-56.5 987,-56.5"/>
<text text-anchor="middle" x="1007" y="-63.5" font-family="Helvetica,sans-Serif" font-size="10.00" fill="#000000">limits</text>
</g>
<!-- Node15&#45;&gt;Node19 -->
<g id="edge23" class="edge">
<title>Node15&#45;&gt;Node19</title>
<path fill="none" stroke="#191970" d="M1059.8521,-112.2455C1050.4913,-104.0549 1036.9142,-92.1749 1025.8651,-82.5069"/>
<polygon fill="#191970" stroke="#191970" points="1027.8508,-79.5937 1018.0202,-75.6427 1023.2412,-84.8618 1027.8508,-79.5937"/>
</g>
<!-- Node20 -->
<g id="node21" class="node">
<title>Node20</title>
<polygon fill="none" stroke="#bfbfbf" points="1045,-56.5 1045,-75.5 1097,-75.5 1097,-56.5 1045,-56.5"/>
<text text-anchor="middle" x="1071" y="-63.5" font-family="Helvetica,sans-Serif" font-size="10.00" fill="#000000">memory</text>
</g>
<!-- Node15&#45;&gt;Node20 -->
<g id="edge24" class="edge">
<title>Node15&#45;&gt;Node20</title>
<path fill="none" stroke="#191970" d="M1071,-112.2455C1071,-104.9382 1071,-94.6944 1071,-85.7046"/>
<polygon fill="#191970" stroke="#191970" points="1074.5001,-85.6426 1071,-75.6427 1067.5001,-85.6427 1074.5001,-85.6426"/>
</g>
<!-- Node21 -->
<g id="node22" class="node">
<title>Node21</title>
<polygon fill="none" stroke="#bfbfbf" points="1115.5,-56.5 1115.5,-75.5 1158.5,-75.5 1158.5,-56.5 1115.5,-56.5"/>
<text text-anchor="middle" x="1137" y="-63.5" font-family="Helvetica,sans-Serif" font-size="10.00" fill="#000000">queue</text>
</g>
<!-- Node15&#45;&gt;Node21 -->
<g id="edge26" class="edge">
<title>Node15&#45;&gt;Node21</title>
<path fill="none" stroke="#191970" d="M1082.4963,-112.2455C1092.2442,-103.9746 1106.4259,-91.9416 1117.8798,-82.2232"/>
<polygon fill="#191970" stroke="#191970" points="1120.2747,-84.7813 1125.6354,-75.6427 1115.7459,-79.4437 1120.2747,-84.7813"/>
</g>
<!-- Node22 -->
<g id="node23" class="node">
<title>Node22</title>
<polygon fill="none" stroke="#bfbfbf" points="1176.5,-56.5 1176.5,-75.5 1259.5,-75.5 1259.5,-56.5 1176.5,-56.5"/>
<text text-anchor="middle" x="1218" y="-63.5" font-family="Helvetica,sans-Serif" font-size="10.00" fill="#000000">unordered_map</text>
</g>
<!-- Node15&#45;&gt;Node22 -->
<g id="edge28" class="edge">
<title>Node15&#45;&gt;Node22</title>
<path fill="none" stroke="#191970" d="M1096.2702,-112.3733C1120.3966,-103.1822 1156.9362,-89.2624 1183.6877,-79.0713"/>
<polygon fill="#191970" stroke="#191970" points="1184.9607,-82.3318 1193.0596,-75.5011 1182.4687,-75.7904 1184.9607,-82.3318"/>
</g>
<!-- Node23 -->
<g id="node24" class="node">
<title>Node23</title>
<polygon fill="none" stroke="#bfbfbf" points="1430,-.5 1430,-19.5 1474,-19.5 1474,-.5 1430,-.5"/>
<text text-anchor="middle" x="1452" y="-7.5" font-family="Helvetica,sans-Serif" font-size="10.00" fill="#000000">vector</text>
</g>
<!-- Node15&#45;&gt;Node23 -->
<g id="edge29" class="edge">
<title>Node15&#45;&gt;Node23</title>
<path fill="none" stroke="#191970" d="M1118.1092,-118.9795C1211.1642,-112.5948 1411.6103,-96.6058 1435,-76 1447.8765,-64.6562 1451.6194,-44.9826 1452.4448,-30.0581"/>
<polygon fill="#191970" stroke="#191970" points="1455.9487,-29.8428 1452.6103,-19.7877 1448.9496,-29.73 1455.9487,-29.8428"/>
</g>
<!-- Node24 -->
<g id="node25" class="node">
<title>Node24</title>
<g id="a_node25"><a xlink:href="bufArray_8hpp.html" target="_top" xlink:title="bufArray.hpp">
<polygon fill="none" stroke="#000000" points="1354.5,-56.5 1354.5,-75.5 1425.5,-75.5 1425.5,-56.5 1354.5,-56.5"/>
<text text-anchor="middle" x="1390" y="-63.5" font-family="Helvetica,sans-Serif" font-size="10.00" fill="#000000">bufArray.hpp</text>
</a>
</g>
</g>
<!-- Node15&#45;&gt;Node24 -->
<g id="edge30" class="edge">
<title>Node15&#45;&gt;Node24</title>
<path fill="none" stroke="#191970" d="M1118.2062,-114.3388C1171.9768,-105.5168 1262.4362,-90.3853 1340,-76 1341.4416,-75.7326 1342.906,-75.458 1344.3841,-75.1782"/>
<polygon fill="#191970" stroke="#191970" points="1345.0873,-78.6071 1354.2441,-73.2777 1343.7624,-71.7337 1345.0873,-78.6071"/>
</g>
<!-- Node26 -->
<g id="node27" class="node">
<title>Node26</title>
<g id="a_node27"><a xlink:href="spinlock_8hpp.html" target="_top" xlink:title="spinlock.hpp">
<polygon fill="none" stroke="#000000" points="1482.5,-56.5 1482.5,-75.5 1553.5,-75.5 1553.5,-56.5 1482.5,-56.5"/>
<text text-anchor="middle" x="1518" y="-63.5" font-family="Helvetica,sans-Serif" font-size="10.00" fill="#000000">spinlock.hpp</text>
</a>
</g>
</g>
<!-- Node15&#45;&gt;Node26 -->
<g id="edge38" class="edge">
<title>Node15&#45;&gt;Node26</title>
<path fill="none" stroke="#191970" d="M1118.2269,-117.7926C1192.7868,-110.8658 1342.2325,-95.8288 1468,-76 1469.4483,-75.7717 1470.9185,-75.531 1472.4017,-75.2806"/>
<polygon fill="#191970" stroke="#191970" points="1473.0569,-78.719 1482.2845,-73.5132 1471.8245,-71.8283 1473.0569,-78.719"/>
</g>
<!-- Node24&#45;&gt;Node6 -->
<g id="edge31" class="edge">
<title>Node24&#45;&gt;Node6</title>
<path fill="none" stroke="#191970" d="M1378.8521,-56.2455C1369.4913,-48.0549 1355.9142,-36.1749 1344.8651,-26.5069"/>
<polygon fill="#191970" stroke="#191970" points="1346.8508,-23.5937 1337.0202,-19.6427 1342.2412,-28.8618 1346.8508,-23.5937"/>
</g>
<!-- Node24&#45;&gt;Node9 -->
<g id="edge33" class="edge">
<title>Node24&#45;&gt;Node9</title>
<path fill="none" stroke="#191970" d="M1354.4126,-60.3222C1288.4338,-49.7957 1147.5887,-27.3247 1078.6579,-16.3272"/>
<polygon fill="#191970" stroke="#191970" points="1079.0572,-12.8467 1068.6306,-14.7274 1077.9543,-19.7593 1079.0572,-12.8467"/>
</g>
<!-- Node24&#45;&gt;Node11 -->
<g id="edge32" class="edge">
<title>Node24&#45;&gt;Node11</title>
<path fill="none" stroke="#191970" d="M1354.2881,-62.6881C1330.2087,-60.5437 1297.7145,-57.8216 1269,-56 908.0382,-33.1008 813.5834,-74.3315 456,-20 454.3308,-19.7464 452.6291,-19.4483 450.9169,-19.1168"/>
<polygon fill="#191970" stroke="#191970" points="451.6706,-15.699 441.1474,-16.9284 450.1405,-22.5297 451.6706,-15.699"/>
</g>
<!-- Node24&#45;&gt;Node23 -->
<g id="edge35" class="edge">
<title>Node24&#45;&gt;Node23</title>
<path fill="none" stroke="#191970" d="M1400.7996,-56.2455C1409.8678,-48.0549 1423.0206,-36.1749 1433.7245,-26.5069"/>
<polygon fill="#191970" stroke="#191970" points="1436.2491,-28.9429 1441.3242,-19.6427 1431.5571,-23.7482 1436.2491,-28.9429"/>
</g>
<!-- Node25 -->
<g id="node26" class="node">
<title>Node25</title>
<polygon fill="none" stroke="#bfbfbf" points="1370,-.5 1370,-19.5 1410,-19.5 1410,-.5 1370,-.5"/>
<text text-anchor="middle" x="1390" y="-7.5" font-family="Helvetica,sans-Serif" font-size="10.00" fill="#000000">utility</text>
</g>
<!-- Node24&#45;&gt;Node25 -->
<g id="edge34" class="edge">
<title>Node24&#45;&gt;Node25</title>
<path fill="none" stroke="#191970" d="M1390,-56.2455C1390,-48.9382 1390,-38.6944 1390,-29.7046"/>
<polygon fill="#191970" stroke="#191970" points="1393.5001,-29.6426 1390,-19.6427 1386.5001,-29.6427 1393.5001,-29.6426"/>
</g>
<!-- Node27 -->
<g id="node28" class="node">
<title>Node27</title>
<polygon fill="none" stroke="#bfbfbf" points="1495,-.5 1495,-19.5 1541,-19.5 1541,-.5 1495,-.5"/>
<text text-anchor="middle" x="1518" y="-7.5" font-family="Helvetica,sans-Serif" font-size="10.00" fill="#000000">atomic</text>
</g>
<!-- Node26&#45;&gt;Node27 -->
<g id="edge39" class="edge">
<title>Node26&#45;&gt;Node27</title>
<path fill="none" stroke="#191970" d="M1518,-56.2455C1518,-48.9382 1518,-38.6944 1518,-29.7046"/>
<polygon fill="#191970" stroke="#191970" points="1521.5001,-29.6426 1518,-19.6427 1514.5001,-29.6427 1521.5001,-29.6426"/>
</g>
<!-- Node28&#45;&gt;Node1 -->
<g id="edge55" class="edge">
<title>Node28&#45;&gt;Node1</title>
<path fill="none" stroke="#191970" d="M207.7645,-187.5011C229.7291,-196.408 260.4197,-209.8348 282.1303,-219.9741"/>
<polygon fill="#191970" stroke="#191970" points="280.8746,-223.2521 291.4099,-224.3733 283.8732,-216.9269 280.8746,-223.2521"/>
</g>
<!-- Node28&#45;&gt;Node3 -->
<g id="edge42" class="edge">
<title>Node28&#45;&gt;Node3</title>
<path fill="none" stroke="#191970" d="M143.3101,-168.4946C120.3047,-161.2958 91.3187,-149.5915 70,-132 46.9912,-113.0139 43.0822,-104.0754 33,-76 27.6452,-61.0888 26.0232,-43.1553 25.669,-29.7479"/>
<polygon fill="#191970" stroke="#191970" points="29.1689,-29.6971 25.6155,-19.7159 22.169,-29.7345 29.1689,-29.6971"/>
</g>
<!-- Node28&#45;&gt;Node10 -->
<g id="edge54" class="edge">
<title>Node28&#45;&gt;Node10</title>
<path fill="none" stroke="#191970" d="M186.9564,-168.2634C194.0468,-155.478 204.4088,-132.2734 200,-112 197.9575,-102.6079 193.8211,-92.8357 189.7553,-84.7264"/>
<polygon fill="#191970" stroke="#191970" points="192.7809,-82.9622 184.9765,-75.7968 186.6091,-86.2651 192.7809,-82.9622"/>
</g>
<!-- Node29 -->
<g id="node30" class="node">
<title>Node29</title>
<polygon fill="none" stroke="#bfbfbf" points="42.5,-56.5 42.5,-75.5 87.5,-75.5 87.5,-56.5 42.5,-56.5"/>
<text text-anchor="middle" x="65" y="-63.5" font-family="Helvetica,sans-Serif" font-size="10.00" fill="#000000">cstdlib</text>
</g>
<!-- Node28&#45;&gt;Node29 -->
<g id="edge41" class="edge">
<title>Node28&#45;&gt;Node29</title>
<path fill="none" stroke="#191970" d="M143.6046,-168.4732C123.3159,-161.5026 99.3236,-150.0407 84,-132 73.0364,-119.0924 68.3898,-100.1916 66.4254,-85.9209"/>
<polygon fill="#191970" stroke="#191970" points="69.8749,-85.2543 65.3557,-75.6717 62.9128,-85.9811 69.8749,-85.2543"/>
</g>
<!-- Node30 -->
<g id="node31" class="node">
<title>Node30</title>
<g id="a_node31"><a xlink:href="IPv4__5TupleL2Ident_8hpp.html" target="_top" xlink:title="IPv4_5TupleL2Ident.hpp">
<polygon fill="none" stroke="#000000" points="415,-112.5 415,-131.5 537,-131.5 537,-112.5 415,-112.5"/>
<text text-anchor="middle" x="476" y="-119.5" font-family="Helvetica,sans-Serif" font-size="10.00" fill="#000000">IPv4_5TupleL2Ident.hpp</text>
</a>
</g>
</g>
<!-- Node28&#45;&gt;Node30 -->
<g id="edge43" class="edge">
<title>Node28&#45;&gt;Node30</title>
<path fill="none" stroke="#191970" d="M231.3771,-168.4369C282.5005,-158.7321 361.6455,-143.708 415.9853,-133.3926"/>
<polygon fill="#191970" stroke="#191970" points="416.6589,-136.8273 425.8307,-131.5237 415.3533,-129.9502 416.6589,-136.8273"/>
</g>
<!-- Node31 -->
<g id="node32" class="node">
<title>Node31</title>
<g id="a_node32"><a xlink:href="mbuf_8hpp.html" target="_top" xlink:title="mbuf.hpp">
<polygon fill="none" stroke="#000000" points="301.5,-112.5 301.5,-131.5 358.5,-131.5 358.5,-112.5 301.5,-112.5"/>
<text text-anchor="middle" x="330" y="-119.5" font-family="Helvetica,sans-Serif" font-size="10.00" fill="#000000">mbuf.hpp</text>
</a>
</g>
</g>
<!-- Node28&#45;&gt;Node31 -->
<g id="edge56" class="edge">
<title>Node28&#45;&gt;Node31</title>
<path fill="none" stroke="#191970" d="M206.614,-168.3733C231.0687,-159.1822 268.1054,-145.2624 295.2209,-135.0713"/>
<polygon fill="#191970" stroke="#191970" points="296.5909,-138.2956 304.7202,-131.5011 294.1281,-131.7431 296.5909,-138.2956"/>
</g>
<!-- Node33 -->
<g id="node34" class="node">
<title>Node33</title>
<g id="a_node34"><a xlink:href="samplePacket_8hpp.html" target="_top" xlink:title="samplePacket.hpp">
<polygon fill="none" stroke="#000000" points="93,-112.5 93,-131.5 191,-131.5 191,-112.5 93,-112.5"/>
<text text-anchor="middle" x="142" y="-119.5" font-family="Helvetica,sans-Serif" font-size="10.00" fill="#000000">samplePacket.hpp</text>
</a>
</g>
</g>
<!-- Node28&#45;&gt;Node33 -->
<g id="edge59" class="edge">
<title>Node28&#45;&gt;Node33</title>
<path fill="none" stroke="#191970" d="M174.2067,-168.2455C168.7822,-160.4564 161.0339,-149.3308 154.4967,-139.9439"/>
<polygon fill="#191970" stroke="#191970" points="157.3025,-137.8485 148.7154,-131.6427 151.5583,-141.849 157.3025,-137.8485"/>
</g>
<!-- Node30&#45;&gt;Node3 -->
<g id="edge48" class="edge">
<title>Node30&#45;&gt;Node3</title>
<path fill="none" stroke="#191970" d="M414.9163,-115.1306C323.9497,-104.6933 160.7721,-85.0954 135,-76 117.272,-69.7435 75.039,-42.7032 48.6532,-25.2341"/>
<polygon fill="#191970" stroke="#191970" points="50.3108,-22.1329 40.0473,-19.5039 46.4312,-27.9595 50.3108,-22.1329"/>
</g>
<!-- Node30&#45;&gt;Node4 -->
<g id="edge51" class="edge">
<title>Node30&#45;&gt;Node4</title>
<path fill="none" stroke="#191970" d="M506.9431,-112.3733C537.0039,-103.021 582.8026,-88.7725 615.6978,-78.5385"/>
<polygon fill="#191970" stroke="#191970" points="616.9519,-81.8139 625.4607,-75.5011 614.8723,-75.1299 616.9519,-81.8139"/>
</g>
<!-- Node30&#45;&gt;Node7 -->
<g id="edge53" class="edge">
<title>Node30&#45;&gt;Node7</title>
<path fill="none" stroke="#191970" d="M537.1868,-113.2942C595.332,-104.8535 685.4683,-91.3352 773.3992,-76.05"/>
<polygon fill="#191970" stroke="#191970" points="774.0289,-79.493 783.277,-74.3237 772.8237,-72.5976 774.0289,-79.493"/>
</g>
<!-- Node30&#45;&gt;Node8 -->
<g id="edge45" class="edge">
<title>Node30&#45;&gt;Node8</title>
<path fill="none" stroke="#191970" d="M477.6199,-112.4509C480.7188,-94.184 487.5433,-53.9553 491.6584,-29.6976"/>
<polygon fill="#191970" stroke="#191970" points="495.1623,-29.9694 493.3842,-19.5249 488.2609,-28.7986 495.1623,-29.9694"/>
</g>
<!-- Node30&#45;&gt;Node9 -->
<g id="edge49" class="edge">
<title>Node30&#45;&gt;Node9</title>
<path fill="none" stroke="#191970" d="M481.1099,-112.2952C489.6153,-97.2559 508.2206,-68.7292 533,-56 574.0931,-34.8904 886.7799,-17.5255 999.036,-11.9129"/>
<polygon fill="#191970" stroke="#191970" points="999.4433,-15.3971 1009.2579,-11.4066 999.097,-8.4056 999.4433,-15.3971"/>
</g>
<!-- Node30&#45;&gt;Node10 -->
<g id="edge52" class="edge">
<title>Node30&#45;&gt;Node10</title>
<path fill="none" stroke="#191970" d="M425.2813,-112.4369C368.7819,-101.7838 278.2877,-84.7209 224.1488,-74.5129"/>
<polygon fill="#191970" stroke="#191970" points="224.6284,-71.0417 214.153,-72.6282 223.3313,-77.9205 224.6284,-71.0417"/>
</g>
<!-- Node30&#45;&gt;Node11 -->
<g id="edge44" class="edge">
<title>Node30&#45;&gt;Node11</title>
<path fill="none" stroke="#191970" d="M471.055,-112.4509C461.4669,-93.936 440.1949,-52.8591 427.6936,-28.7187"/>
<polygon fill="#191970" stroke="#191970" points="430.6391,-26.7953 422.9325,-19.5249 424.4231,-30.0144 430.6391,-26.7953"/>
</g>
<!-- Node30&#45;&gt;Node13 -->
<g id="edge50" class="edge">
<title>Node30&#45;&gt;Node13</title>
<path fill="none" stroke="#191970" d="M463.8257,-112.3285C446.1213,-98.5733 411.894,-73.1312 380,-56 352.8126,-41.3969 319.9665,-28.6143 296.5286,-20.2549"/>
<polygon fill="#191970" stroke="#191970" points="297.3852,-16.8464 286.7903,-16.8428 295.0704,-23.4527 297.3852,-16.8464"/>
</g>
<!-- Node30&#45;&gt;Node17 -->
<g id="edge46" class="edge">
<title>Node30&#45;&gt;Node17</title>
<path fill="none" stroke="#191970" d="M492.7219,-112.2455C507.5889,-103.5731 529.5466,-90.7645 546.5858,-80.825"/>
<polygon fill="#191970" stroke="#191970" points="548.5955,-83.7047 555.4697,-75.6427 545.0683,-77.6582 548.5955,-83.7047"/>
</g>
<!-- Node30&#45;&gt;Node18 -->
<g id="edge47" class="edge">
<title>Node30&#45;&gt;Node18</title>
<path fill="none" stroke="#191970" d="M527.1343,-112.4876C572.8685,-103.7562 641.6439,-90.0742 701,-76 701.1012,-75.976 701.2025,-75.9519 701.3039,-75.9278"/>
<polygon fill="#191970" stroke="#191970" points="702.1176,-79.3322 710.9716,-73.5135 700.4215,-72.5407 702.1176,-79.3322"/>
</g>
<!-- Node31&#45;&gt;Node11 -->
<g id="edge57" class="edge">
<title>Node31&#45;&gt;Node11</title>
<path fill="none" stroke="#191970" d="M319.1192,-112.0762C305.7784,-98.6807 286.4017,-74.3767 299,-56 309.0863,-41.2875 353.5878,-26.8789 385.2054,-18.2159"/>
<polygon fill="#191970" stroke="#191970" points="386.1995,-21.5731 394.9582,-15.612 384.3938,-14.81 386.1995,-21.5731"/>
</g>
<!-- Node31&#45;&gt;Node32 -->
<g id="edge58" class="edge">
<title>Node31&#45;&gt;Node32</title>
<path fill="none" stroke="#191970" d="M331.7419,-112.2455C333.0467,-104.9382 334.876,-94.6944 336.4813,-85.7046"/>
<polygon fill="#191970" stroke="#191970" points="339.9656,-86.1022 338.2781,-75.6427 333.0746,-84.8717 339.9656,-86.1022"/>
</g>
<!-- Node33&#45;&gt;Node11 -->
<g id="edge60" class="edge">
<title>Node33&#45;&gt;Node11</title>
<path fill="none" stroke="#191970" d="M162.5363,-112.36C191.0952,-99.0792 244.5368,-74.6789 291,-56 322.6935,-43.2587 359.4375,-30.124 385.2233,-21.1687"/>
<polygon fill="#191970" stroke="#191970" points="386.5665,-24.4078 394.8753,-17.8341 384.2806,-17.7915 386.5665,-24.4078"/>
</g>
<!-- Node33&#45;&gt;Node29 -->
<g id="edge61" class="edge">
<title>Node33&#45;&gt;Node29</title>
<path fill="none" stroke="#191970" d="M128.5876,-112.2455C116.9943,-103.814 100.0252,-91.4729 86.5322,-81.6598"/>
<polygon fill="#191970" stroke="#191970" points="88.4047,-78.6938 78.2587,-75.6427 84.2874,-84.355 88.4047,-78.6938"/>
</g>
</g>
</svg>
