<?xml version="1.0" encoding="UTF-8" standalone="no"?>
<!DOCTYPE svg PUBLIC "-//W3C//DTD SVG 1.1//EN"
 "http://www.w3.org/Graphics/SVG/1.1/DTD/svg11.dtd">
<!-- Generated by graphviz version 2.40.1 (20161225.0304)
 -->
<!-- Title: HelloBye3MemPool_Client_init Pages: 1 -->
<svg width="649pt" height="584pt"
 viewBox="0.00 0.00 649.00 583.50" xmlns="http://www.w3.org/2000/svg" xmlns:xlink="http://www.w3.org/1999/xlink">
<g id="graph0" class="graph" transform="scale(1 1) rotate(0) translate(4 579.5)">
<title>HelloBye3MemPool_Client_init</title>
<!-- Node8 -->
<g id="node1" class="node">
<title>Node8</title>
<polygon fill="#bfbfbf" stroke="#000000" points="0,-430.5 0,-449.5 152,-449.5 152,-430.5 0,-430.5"/>
<text text-anchor="middle" x="76" y="-437.5" font-family="Helvetica,sans-Serif" font-size="10.00" fill="#000000">HelloBye3MemPool_Client_init</text>
</g>
<!-- Node9 -->
<g id="node2" class="node">
<title>Node9</title>
<g id="a_node2"><a xlink:href="namespaceHelloBye3MemPool_1_1Client.html#a946112f67e037d69af5ff4dfb9ca4943" target="_top" xlink:title="HelloBye3MemPool::Client\l::runHello">
<polygon fill="none" stroke="#000000" points="188,-273 188,-303 322,-303 322,-273 188,-273"/>
<text text-anchor="start" x="196" y="-291" font-family="Helvetica,sans-Serif" font-size="10.00" fill="#000000">HelloBye3MemPool::Client</text>
<text text-anchor="middle" x="255" y="-280" font-family="Helvetica,sans-Serif" font-size="10.00" fill="#000000">::runHello</text>
</a>
</g>
</g>
<!-- Node8&#45;&gt;Node9 -->
<g id="edge1" class="edge">
<title>Node8&#45;&gt;Node9</title>
<path fill="none" stroke="#191970" d="M87.1973,-430.4917C115.3507,-406.5849 189.6615,-343.483 229.2769,-309.8431"/>
<polygon fill="#191970" stroke="#191970" points="231.8176,-312.2773 237.1747,-303.1366 227.2866,-306.9415 231.8176,-312.2773"/>
</g>
<!-- Node25 -->
<g id="node18" class="node">
<title>Node25</title>
<g id="a_node18"><a xlink:href="namespaceHelloBye3MemPool_1_1Client.html#a1dacc6fe39ae19ebe01485458ef33df7" target="_top" xlink:title="HelloBye3MemPool::Client\l::runBye">
<polygon fill="none" stroke="#000000" points="188,-425 188,-455 322,-455 322,-425 188,-425"/>
<text text-anchor="start" x="196" y="-443" font-family="Helvetica,sans-Serif" font-size="10.00" fill="#000000">HelloBye3MemPool::Client</text>
<text text-anchor="middle" x="255" y="-432" font-family="Helvetica,sans-Serif" font-size="10.00" fill="#000000">::runBye</text>
</a>
</g>
</g>
<!-- Node8&#45;&gt;Node25 -->
<g id="edge17" class="edge">
<title>Node8&#45;&gt;Node25</title>
<path fill="none" stroke="#191970" d="M152.1717,-440C160.6278,-440 169.2463,-440 177.7161,-440"/>
<polygon fill="#191970" stroke="#191970" points="177.9527,-443.5001 187.9527,-440 177.9526,-436.5001 177.9527,-443.5001"/>
</g>
<!-- Node27 -->
<g id="node20" class="node">
<title>Node27</title>
<g id="a_node20"><a xlink:href="namespaceHelloBye3MemPool_1_1Client.html#a79f13e395415824d13ee2ba56ab0509b" target="_top" xlink:title="HelloBye3MemPool::Client\l::runRecvBye">
<polygon fill="none" stroke="#000000" points="188,-474 188,-504 322,-504 322,-474 188,-474"/>
<text text-anchor="start" x="196" y="-492" font-family="Helvetica,sans-Serif" font-size="10.00" fill="#000000">HelloBye3MemPool::Client</text>
<text text-anchor="middle" x="255" y="-481" font-family="Helvetica,sans-Serif" font-size="10.00" fill="#000000">::runRecvBye</text>
</a>
</g>
</g>
<!-- Node8&#45;&gt;Node27 -->
<g id="edge23" class="edge">
<title>Node8&#45;&gt;Node27</title>
<path fill="none" stroke="#191970" d="M110.9379,-449.564C133.501,-455.7405 163.5453,-463.9649 190.3571,-471.3045"/>
<polygon fill="#191970" stroke="#191970" points="189.4998,-474.6985 200.069,-473.963 191.348,-467.9469 189.4998,-474.6985"/>
</g>
<!-- Node10 -->
<g id="node3" class="node">
<title>Node10</title>
<g id="a_node3"><a xlink:href="structmbuf.html#a822d13c96f003279f7691d7778e75c3c" target="_top" xlink:title="mbuf::getData">
<polygon fill="none" stroke="#000000" points="394.5,-392.5 394.5,-411.5 473.5,-411.5 473.5,-392.5 394.5,-392.5"/>
<text text-anchor="middle" x="434" y="-399.5" font-family="Helvetica,sans-Serif" font-size="10.00" fill="#000000">mbuf::getData</text>
</a>
</g>
</g>
<!-- Node9&#45;&gt;Node10 -->
<g id="edge2" class="edge">
<title>Node9&#45;&gt;Node10</title>
<path fill="none" stroke="#191970" d="M267.247,-303.3549C284.9841,-324.5369 319.8961,-362.4306 358,-383 366.1738,-387.4124 375.3955,-390.8228 384.5243,-393.4518"/>
<polygon fill="#191970" stroke="#191970" points="383.7802,-396.8747 394.3395,-396.0082 385.5446,-390.1007 383.7802,-396.8747"/>
</g>
<!-- Node11 -->
<g id="node4" class="node">
<title>Node11</title>
<g id="a_node4"><a xlink:href="structmbuf.html#a64e891b6439330838808a0cd140ee386" target="_top" xlink:title="mbuf::getDataLen">
<polygon fill="none" stroke="#000000" points="386.5,-152.5 386.5,-171.5 481.5,-171.5 481.5,-152.5 386.5,-152.5"/>
<text text-anchor="middle" x="434" y="-159.5" font-family="Helvetica,sans-Serif" font-size="10.00" fill="#000000">mbuf::getDataLen</text>
</a>
</g>
</g>
<!-- Node9&#45;&gt;Node11 -->
<g id="edge3" class="edge">
<title>Node9&#45;&gt;Node11</title>
<path fill="none" stroke="#191970" d="M265.3874,-272.6266C282.0765,-249.1584 317.1621,-204.6384 358,-181 363.7732,-177.6583 370.124,-174.8996 376.619,-172.6232"/>
<polygon fill="#191970" stroke="#191970" points="377.6939,-175.9543 386.1878,-169.6214 375.5986,-169.2752 377.6939,-175.9543"/>
</g>
<!-- Node12 -->
<g id="node5" class="node">
<title>Node12</title>
<g id="a_node5"><a xlink:href="structHeaders_1_1IPv4.html#a28a6286beded8ad7cd611483f3dcac09" target="_top" xlink:title="Set the version field to 4. ">
<polygon fill="none" stroke="#000000" points="368.5,-114.5 368.5,-133.5 499.5,-133.5 499.5,-114.5 368.5,-114.5"/>
<text text-anchor="middle" x="434" y="-121.5" font-family="Helvetica,sans-Serif" font-size="10.00" fill="#000000">Headers::IPv4::setVersion</text>
</a>
</g>
</g>
<!-- Node9&#45;&gt;Node12 -->
<g id="edge4" class="edge">
<title>Node9&#45;&gt;Node12</title>
<path fill="none" stroke="#191970" d="M261.4926,-272.5485C274.886,-242.632 308.5276,-176.7784 358,-143 360.9537,-140.9833 364.1025,-139.1804 367.3752,-137.5687"/>
<polygon fill="#191970" stroke="#191970" points="369.0459,-140.6611 376.8671,-133.5141 366.296,-134.2238 369.0459,-140.6611"/>
</g>
<!-- Node13 -->
<g id="node6" class="node">
<title>Node13</title>
<g id="a_node6"><a xlink:href="structHeaders_1_1IPv4.html#a89ebc78cd618d1ac327bb82e4b46917f" target="_top" xlink:title="Sets the IP header length. ">
<polygon fill="none" stroke="#000000" points="376.5,-76.5 376.5,-95.5 491.5,-95.5 491.5,-76.5 376.5,-76.5"/>
<text text-anchor="middle" x="434" y="-83.5" font-family="Helvetica,sans-Serif" font-size="10.00" fill="#000000">Headers::IPv4::setIHL</text>
</a>
</g>
</g>
<!-- Node9&#45;&gt;Node13 -->
<g id="edge5" class="edge">
<title>Node9&#45;&gt;Node13</title>
<path fill="none" stroke="#191970" d="M258.999,-272.969C269.1664,-237.7803 299.4428,-149.66 358,-105 360.8438,-102.8311 363.9053,-100.9073 367.1098,-99.2011"/>
<polygon fill="#191970" stroke="#191970" points="368.8057,-102.2748 376.4571,-94.9462 365.9056,-95.9038 368.8057,-102.2748"/>
</g>
<!-- Node14 -->
<g id="node7" class="node">
<title>Node14</title>
<g id="a_node7"><a xlink:href="structHeaders_1_1IPv4.html#a6170f8d379d252ca29e8c91f457d1108" target="_top" xlink:title="Headers::IPv4::setLength">
<polygon fill="none" stroke="#000000" points="370,-38.5 370,-57.5 498,-57.5 498,-38.5 370,-38.5"/>
<text text-anchor="middle" x="434" y="-45.5" font-family="Helvetica,sans-Serif" font-size="10.00" fill="#000000">Headers::IPv4::setLength</text>
</a>
</g>
</g>
<!-- Node9&#45;&gt;Node14 -->
<g id="edge6" class="edge">
<title>Node9&#45;&gt;Node14</title>
<path fill="none" stroke="#191970" d="M257.4474,-272.9386C264.782,-232.8422 290.4103,-122.764 358,-67 360.0654,-65.296 362.2626,-63.7417 364.5591,-62.3241"/>
<polygon fill="#191970" stroke="#191970" points="366.577,-65.2202 373.8406,-57.5073 363.3525,-59.0071 366.577,-65.2202"/>
</g>
<!-- Node15 -->
<g id="node8" class="node">
<title>Node15</title>
<g id="a_node8"><a xlink:href="structHeaders_1_1IPv4.html#ab3379b3b9cf0bda526087c3cc1c9927d" target="_top" xlink:title="Set the destination ip. ">
<polygon fill="none" stroke="#000000" points="371.5,-.5 371.5,-19.5 496.5,-19.5 496.5,-.5 371.5,-.5"/>
<text text-anchor="middle" x="434" y="-7.5" font-family="Helvetica,sans-Serif" font-size="10.00" fill="#000000">Headers::IPv4::setDstIP</text>
</a>
</g>
</g>
<!-- Node9&#45;&gt;Node15 -->
<g id="edge7" class="edge">
<title>Node9&#45;&gt;Node15</title>
<path fill="none" stroke="#191970" d="M256.3385,-272.7186C261.105,-227.9536 281.3279,-96.0615 358,-29 359.7883,-27.4358 361.6864,-25.9967 363.6711,-24.6728"/>
<polygon fill="#191970" stroke="#191970" points="365.8095,-27.4889 372.8545,-19.5757 362.4125,-21.3684 365.8095,-27.4889"/>
</g>
<!-- Node16 -->
<g id="node9" class="node">
<title>Node16</title>
<g id="a_node9"><a xlink:href="structHeaders_1_1IPv4.html#a4e1023a9cc8055be85956cd29c6fc397" target="_top" xlink:title="Set the source ip. ">
<polygon fill="none" stroke="#000000" points="372,-354.5 372,-373.5 496,-373.5 496,-354.5 372,-354.5"/>
<text text-anchor="middle" x="434" y="-361.5" font-family="Helvetica,sans-Serif" font-size="10.00" fill="#000000">Headers::IPv4::setSrcIP</text>
</a>
</g>
</g>
<!-- Node9&#45;&gt;Node16 -->
<g id="edge8" class="edge">
<title>Node9&#45;&gt;Node16</title>
<path fill="none" stroke="#191970" d="M278.2772,-303.1933C298.6105,-315.8915 329.2864,-333.6905 358,-345 364.2916,-347.4781 371.006,-349.7103 377.7416,-351.6986"/>
<polygon fill="#191970" stroke="#191970" points="377.0063,-355.1269 387.5786,-354.4375 378.8839,-348.3834 377.0063,-355.1269"/>
</g>
<!-- Node17 -->
<g id="node10" class="node">
<title>Node17</title>
<g id="a_node10"><a xlink:href="structHeaders_1_1IPv4.html#a3de15b59ea6a3656f37c63e0c8d83df7" target="_top" xlink:title="Set the protocol to UDP. ">
<polygon fill="none" stroke="#000000" points="362,-316.5 362,-335.5 506,-335.5 506,-316.5 362,-316.5"/>
<text text-anchor="middle" x="434" y="-323.5" font-family="Helvetica,sans-Serif" font-size="10.00" fill="#000000">Headers::IPv4::setProtoUDP</text>
</a>
</g>
</g>
<!-- Node9&#45;&gt;Node17 -->
<g id="edge9" class="edge">
<title>Node9&#45;&gt;Node17</title>
<path fill="none" stroke="#191970" d="M322.1623,-302.2579C340.9082,-306.2375 361.0508,-310.5136 379.0056,-314.3252"/>
<polygon fill="#191970" stroke="#191970" points="378.5051,-317.7969 389.014,-316.4499 379.9588,-310.9495 378.5051,-317.7969"/>
</g>
<!-- Node18 -->
<g id="node11" class="node">
<title>Node18</title>
<g id="a_node11"><a xlink:href="structHeaders_1_1IPv4.html#acc4a8033c5da9c2ce147ee10e15d2a49" target="_top" xlink:title="Get the SDU. ">
<polygon fill="none" stroke="#000000" points="367,-506.5 367,-525.5 501,-525.5 501,-506.5 367,-506.5"/>
<text text-anchor="middle" x="434" y="-513.5" font-family="Helvetica,sans-Serif" font-size="10.00" fill="#000000">Headers::IPv4::getPayload</text>
</a>
</g>
</g>
<!-- Node9&#45;&gt;Node18 -->
<g id="edge10" class="edge">
<title>Node9&#45;&gt;Node18</title>
<path fill="none" stroke="#191970" d="M263.4008,-303.0684C276.4563,-326.6706 302.1747,-373.9134 322,-415 339.2971,-450.847 327.5845,-471.3271 358,-497 360.0007,-498.6887 362.1302,-500.2309 364.3579,-501.639"/>
<polygon fill="#191970" stroke="#191970" points="362.8993,-504.8275 373.3719,-506.4322 366.1858,-498.6469 362.8993,-504.8275"/>
</g>
<!-- Node20 -->
<g id="node13" class="node">
<title>Node20</title>
<g id="a_node13"><a xlink:href="structHeaders_1_1Udp.html#a531f2e8247abf7807c50d806208b7cb1" target="_top" xlink:title="Get the SDU. ">
<polygon fill="none" stroke="#000000" points="368,-468.5 368,-487.5 500,-487.5 500,-468.5 368,-468.5"/>
<text text-anchor="middle" x="434" y="-475.5" font-family="Helvetica,sans-Serif" font-size="10.00" fill="#000000">Headers::Udp::getPayload</text>
</a>
</g>
</g>
<!-- Node9&#45;&gt;Node20 -->
<g id="edge12" class="edge">
<title>Node9&#45;&gt;Node20</title>
<path fill="none" stroke="#191970" d="M262.2343,-303.1409C280.5716,-340.9297 329.4394,-437.8763 358,-459 360.5423,-460.8803 363.2497,-462.5758 366.0713,-464.1046"/>
<polygon fill="#191970" stroke="#191970" points="364.8646,-467.4032 375.4085,-468.4415 367.8135,-461.0546 364.8646,-467.4032"/>
</g>
<!-- Node21 -->
<g id="node14" class="node">
<title>Node21</title>
<g id="a_node14"><a xlink:href="structHelloBye3MemPool_1_1msg.html#a3905a1abfd86b97b0c857e6caae5424d" target="_top" xlink:title="HelloBye3MemPool::msg::msg">
<polygon fill="none" stroke="#000000" points="358,-430.5 358,-449.5 510,-449.5 510,-430.5 358,-430.5"/>
<text text-anchor="middle" x="434" y="-437.5" font-family="Helvetica,sans-Serif" font-size="10.00" fill="#000000">HelloBye3MemPool::msg::msg</text>
</a>
</g>
</g>
<!-- Node9&#45;&gt;Node21 -->
<g id="edge13" class="edge">
<title>Node9&#45;&gt;Node21</title>
<path fill="none" stroke="#191970" d="M262.2902,-303.0335C276.5864,-330.8601 311.0479,-390.3451 358,-421 361.146,-423.054 364.498,-424.886 367.9749,-426.5199"/>
<polygon fill="#191970" stroke="#191970" points="366.8348,-429.8353 377.4146,-430.3989 369.4954,-423.3606 366.8348,-429.8353"/>
</g>
<!-- Node22 -->
<g id="node15" class="node">
<title>Node22</title>
<g id="a_node15"><a xlink:href="structHeaders_1_1Udp.html#ad7860fd7b0f369d39d55aef85a11045a" target="_top" xlink:title="Set the destination port. ">
<polygon fill="none" stroke="#000000" points="368.5,-278.5 368.5,-297.5 499.5,-297.5 499.5,-278.5 368.5,-278.5"/>
<text text-anchor="middle" x="434" y="-285.5" font-family="Helvetica,sans-Serif" font-size="10.00" fill="#000000">Headers::Udp::setDstPort</text>
</a>
</g>
</g>
<!-- Node9&#45;&gt;Node22 -->
<g id="edge14" class="edge">
<title>Node9&#45;&gt;Node22</title>
<path fill="none" stroke="#191970" d="M322.1623,-288C333.8248,-288 346.028,-288 357.9086,-288"/>
<polygon fill="#191970" stroke="#191970" points="358.2445,-291.5001 368.2445,-288 358.2444,-284.5001 358.2445,-291.5001"/>
</g>
<!-- Node23 -->
<g id="node16" class="node">
<title>Node23</title>
<g id="a_node16"><a xlink:href="structHeaders_1_1Udp.html#ab28d05a7270cf1537848db896588ca01" target="_top" xlink:title="Set the source port. ">
<polygon fill="none" stroke="#000000" points="369,-240.5 369,-259.5 499,-259.5 499,-240.5 369,-240.5"/>
<text text-anchor="middle" x="434" y="-247.5" font-family="Helvetica,sans-Serif" font-size="10.00" fill="#000000">Headers::Udp::setSrcPort</text>
</a>
</g>
</g>
<!-- Node9&#45;&gt;Node23 -->
<g id="edge15" class="edge">
<title>Node9&#45;&gt;Node23</title>
<path fill="none" stroke="#191970" d="M322.1623,-273.7421C340.9082,-269.7625 361.0508,-265.4864 379.0056,-261.6748"/>
<polygon fill="#191970" stroke="#191970" points="379.9588,-265.0505 389.014,-259.5501 378.5051,-258.2031 379.9588,-265.0505"/>
</g>
<!-- Node24 -->
<g id="node17" class="node">
<title>Node24</title>
<g id="a_node17"><a xlink:href="structHeaders_1_1Udp.html#ac5397a534d246cfa93ac157eee3c565e" target="_top" xlink:title="Set the length of the L4&#45;SDU (UDP payload) ">
<polygon fill="none" stroke="#000000" points="368,-191 368,-221 500,-221 500,-191 368,-191"/>
<text text-anchor="start" x="376" y="-209" font-family="Helvetica,sans-Serif" font-size="10.00" fill="#000000">Headers::Udp::setPayload</text>
<text text-anchor="middle" x="434" y="-198" font-family="Helvetica,sans-Serif" font-size="10.00" fill="#000000">Length</text>
</a>
</g>
</g>
<!-- Node9&#45;&gt;Node24 -->
<g id="edge16" class="edge">
<title>Node9&#45;&gt;Node24</title>
<path fill="none" stroke="#191970" d="M279.3133,-272.8362C299.7781,-260.4942 330.0917,-243.1837 358,-231 363.0919,-228.7771 368.4481,-226.6384 373.8616,-224.6121"/>
<polygon fill="#191970" stroke="#191970" points="375.4035,-227.7767 383.6232,-221.0918 373.0288,-221.1918 375.4035,-227.7767"/>
</g>
<!-- Node19 -->
<g id="node12" class="node">
<title>Node19</title>
<g id="a_node12"><a xlink:href="structHeaders_1_1IPv4.html#ac6c5485ffca9cffaded18d2ad8d5985a" target="_top" xlink:title="Headers::IPv4::ihl">
<polygon fill="none" stroke="#000000" points="546,-506.5 546,-525.5 641,-525.5 641,-506.5 546,-506.5"/>
<text text-anchor="middle" x="593.5" y="-513.5" font-family="Helvetica,sans-Serif" font-size="10.00" fill="#000000">Headers::IPv4::ihl</text>
</a>
</g>
</g>
<!-- Node18&#45;&gt;Node19 -->
<g id="edge11" class="edge">
<title>Node18&#45;&gt;Node19</title>
<path fill="none" stroke="#191970" d="M501.1801,-516C512.6523,-516 524.4805,-516 535.6827,-516"/>
<polygon fill="#191970" stroke="#191970" points="535.7663,-519.5001 545.7663,-516 535.7663,-512.5001 535.7663,-519.5001"/>
</g>
<!-- Node25&#45;&gt;Node10 -->
<g id="edge18" class="edge">
<title>Node25&#45;&gt;Node10</title>
<path fill="none" stroke="#191970" d="M322.1623,-425.7421C342.7643,-421.3685 365.0534,-416.6367 384.2714,-412.5569"/>
<polygon fill="#191970" stroke="#191970" points="385.2528,-415.9267 394.3079,-410.4262 383.7991,-409.0792 385.2528,-415.9267"/>
</g>
<!-- Node25&#45;&gt;Node18 -->
<g id="edge20" class="edge">
<title>Node25&#45;&gt;Node18</title>
<path fill="none" stroke="#191970" d="M304.3504,-455.1077C310.4685,-457.7192 316.499,-460.6804 322,-464 340.5836,-475.2144 338.8844,-486.7188 358,-497 362.2671,-499.2951 366.8184,-501.3193 371.4922,-503.1037"/>
<polygon fill="#191970" stroke="#191970" points="370.6111,-506.5017 381.2057,-506.4393 372.8846,-499.8811 370.6111,-506.5017"/>
</g>
<!-- Node25&#45;&gt;Node20 -->
<g id="edge21" class="edge">
<title>Node25&#45;&gt;Node20</title>
<path fill="none" stroke="#191970" d="M322.1623,-454.2579C340.9082,-458.2375 361.0508,-462.5136 379.0056,-466.3252"/>
<polygon fill="#191970" stroke="#191970" points="378.5051,-469.7969 389.014,-468.4499 379.9588,-462.9495 378.5051,-469.7969"/>
</g>
<!-- Node25&#45;&gt;Node21 -->
<g id="edge22" class="edge">
<title>Node25&#45;&gt;Node21</title>
<path fill="none" stroke="#191970" d="M322.1623,-440C330.5046,-440 339.1236,-440 347.7033,-440"/>
<polygon fill="#191970" stroke="#191970" points="347.7381,-443.5001 357.7381,-440 347.738,-436.5001 347.7381,-443.5001"/>
</g>
<!-- Node26 -->
<g id="node19" class="node">
<title>Node26</title>
<g id="a_node19"><a xlink:href="structHeaders_1_1Ethernet.html#ad59e9fe1ec95b8e2ed11f97b44a20650" target="_top" xlink:title="Get the SDU. ">
<polygon fill="none" stroke="#000000" points="383,-545 383,-575 485,-575 485,-545 383,-545"/>
<text text-anchor="start" x="391" y="-563" font-family="Helvetica,sans-Serif" font-size="10.00" fill="#000000">Headers::Ethernet::</text>
<text text-anchor="middle" x="434" y="-552" font-family="Helvetica,sans-Serif" font-size="10.00" fill="#000000">getPayload</text>
</a>
</g>
</g>
<!-- Node25&#45;&gt;Node26 -->
<g id="edge19" class="edge">
<title>Node25&#45;&gt;Node26</title>
<path fill="none" stroke="#191970" d="M309.0225,-455.0781C313.6897,-457.6153 318.108,-460.5675 322,-464 348.5347,-487.4022 331.1613,-511.947 358,-535 362.59,-538.9426 367.8186,-542.2673 373.3355,-545.0703"/>
<polygon fill="#191970" stroke="#191970" points="372.2725,-548.4287 382.8305,-549.3118 375.1276,-542.0374 372.2725,-548.4287"/>
</g>
<!-- Node27&#45;&gt;Node10 -->
<g id="edge24" class="edge">
<title>Node27&#45;&gt;Node10</title>
<path fill="none" stroke="#191970" d="M304.4387,-473.9372C310.6074,-471.0964 316.6273,-467.7989 322,-464 342.3512,-449.6103 336.8743,-434.2264 358,-421 365.9577,-416.0179 375.1499,-412.3411 384.3322,-409.6279"/>
<polygon fill="#191970" stroke="#191970" points="385.4401,-412.9561 394.2333,-407.0459 383.6737,-406.1827 385.4401,-412.9561"/>
</g>
<!-- Node27&#45;&gt;Node18 -->
<g id="edge26" class="edge">
<title>Node27&#45;&gt;Node18</title>
<path fill="none" stroke="#191970" d="M322.1623,-499.1306C334.7649,-501.0316 347.9989,-503.0278 360.7749,-504.9549"/>
<polygon fill="#191970" stroke="#191970" points="360.4919,-508.4517 370.9021,-506.4824 361.536,-501.53 360.4919,-508.4517"/>
</g>
<!-- Node27&#45;&gt;Node20 -->
<g id="edge27" class="edge">
<title>Node27&#45;&gt;Node20</title>
<path fill="none" stroke="#191970" d="M322.1623,-484.8727C333.7481,-484.1607 345.8675,-483.416 357.6741,-482.6904"/>
<polygon fill="#191970" stroke="#191970" points="358.1814,-486.1659 367.9479,-482.0591 357.752,-479.1791 358.1814,-486.1659"/>
</g>
<!-- Node27&#45;&gt;Node21 -->
<g id="edge28" class="edge">
<title>Node27&#45;&gt;Node21</title>
<path fill="none" stroke="#191970" d="M305.1841,-473.9638C321.9411,-469.0552 340.7404,-463.6691 358,-459 366.5849,-456.6776 375.7427,-454.3019 384.6207,-452.0518"/>
<polygon fill="#191970" stroke="#191970" points="385.6344,-455.4059 394.4798,-449.5742 383.9283,-448.617 385.6344,-455.4059"/>
</g>
<!-- Node27&#45;&gt;Node26 -->
<g id="edge25" class="edge">
<title>Node27&#45;&gt;Node26</title>
<path fill="none" stroke="#191970" d="M286.6587,-504.1482C306.8534,-513.5584 333.7054,-525.6074 358,-535 363.7814,-537.2351 369.8565,-539.4507 375.9474,-541.5856"/>
<polygon fill="#191970" stroke="#191970" points="374.8969,-544.9254 385.4916,-544.8652 377.1718,-538.3054 374.8969,-544.9254"/>
</g>
</g>
</svg>
