<?xml version="1.0" encoding="UTF-8" standalone="no"?>
<!DOCTYPE svg PUBLIC "-//W3C//DTD SVG 1.1//EN"
 "http://www.w3.org/Graphics/SVG/1.1/DTD/svg11.dtd">
<!-- Generated by graphviz version 2.40.1 (20161225.0304)
 -->
<!-- Title: HelloBye2_Server_process Pages: 1 -->
<svg width="475pt" height="104pt"
 viewBox="0.00 0.00 475.00 104.00" xmlns="http://www.w3.org/2000/svg" xmlns:xlink="http://www.w3.org/1999/xlink">
<g id="graph0" class="graph" transform="scale(1 1) rotate(0) translate(4 100)">
<title>HelloBye2_Server_process</title>
<!-- Node24 -->
<g id="node1" class="node">
<title>Node24</title>
<polygon fill="#bfbfbf" stroke="#000000" points="0,-38.5 0,-57.5 135,-57.5 135,-38.5 0,-38.5"/>
<text text-anchor="middle" x="67.5" y="-45.5" font-family="Helvetica,sans-Serif" font-size="10.00" fill="#000000">HelloBye2_Server_process</text>
</g>
<!-- Node25 -->
<g id="node2" class="node">
<title>Node25</title>
<g id="a_node2"><a xlink:href="classStateMachine.html#aa1eae1413acf399a997e587c905e14aa" target="_top" xlink:title="Run a batch of packets. ">
<polygon fill="none" stroke="#000000" points="171,-76.5 171,-95.5 308,-95.5 308,-76.5 171,-76.5"/>
<text text-anchor="middle" x="239.5" y="-83.5" font-family="Helvetica,sans-Serif" font-size="10.00" fill="#000000">StateMachine::runPktBatch</text>
</a>
</g>
</g>
<!-- Node24&#45;&gt;Node25 -->
<g id="edge1" class="edge">
<title>Node24&#45;&gt;Node25</title>
<path fill="none" stroke="#191970" d="M110.9029,-57.589C133.9068,-62.6713 162.3509,-68.9554 186.6342,-74.3203"/>
<polygon fill="#191970" stroke="#191970" points="185.8896,-77.7402 196.4092,-76.4799 187.3998,-70.905 185.8896,-77.7402"/>
</g>
<!-- Node26 -->
<g id="node3" class="node">
<title>Node26</title>
<g id="a_node3"><a xlink:href="classBufArray.html#a1d52cd9f63feaa98f800bcae8277e675" target="_top" xlink:title="Get the number of packets currently marked as send. ">
<polygon fill="none" stroke="#000000" points="344,-19.5 344,-38.5 467,-38.5 467,-19.5 344,-19.5"/>
<text text-anchor="middle" x="405.5" y="-26.5" font-family="Helvetica,sans-Serif" font-size="10.00" fill="#000000">BufArray::getSendCount</text>
</a>
</g>
</g>
<!-- Node24&#45;&gt;Node26 -->
<g id="edge2" class="edge">
<title>Node24&#45;&gt;Node26</title>
<path fill="none" stroke="#191970" d="M135.087,-44.2007C192.5164,-40.9725 274.7392,-36.3505 333.4165,-33.052"/>
<polygon fill="#191970" stroke="#191970" points="333.9329,-36.5286 343.7206,-32.4728 333.5399,-29.5397 333.9329,-36.5286"/>
</g>
<!-- Node27 -->
<g id="node4" class="node">
<title>Node27</title>
<g id="a_node4"><a xlink:href="classBufArray.html#a77223130b4dca30992a335dbff4b4781" target="_top" xlink:title="Get the number of packets currently marked as free. ">
<polygon fill="none" stroke="#000000" points="179.5,-.5 179.5,-19.5 299.5,-19.5 299.5,-.5 179.5,-.5"/>
<text text-anchor="middle" x="239.5" y="-7.5" font-family="Helvetica,sans-Serif" font-size="10.00" fill="#000000">BufArray::getFreeCount</text>
</a>
</g>
</g>
<!-- Node24&#45;&gt;Node27 -->
<g id="edge3" class="edge">
<title>Node24&#45;&gt;Node27</title>
<path fill="none" stroke="#191970" d="M110.9029,-38.411C133.9068,-33.3287 162.3509,-27.0446 186.6342,-21.6797"/>
<polygon fill="#191970" stroke="#191970" points="187.3998,-25.095 196.4092,-19.5201 185.8896,-18.2598 187.3998,-25.095"/>
</g>
<!-- Node27&#45;&gt;Node26 -->
<g id="edge4" class="edge">
<title>Node27&#45;&gt;Node26</title>
<path fill="none" stroke="#191970" d="M299.8994,-16.9132C310.8296,-18.1642 322.3258,-19.4801 333.5476,-20.7645"/>
<polygon fill="#191970" stroke="#191970" points="333.4191,-24.2725 343.7522,-21.9325 334.2151,-17.3179 333.4191,-24.2725"/>
</g>
</g>
</svg>
