<?xml version="1.0" encoding="UTF-8" standalone="no"?>
<!DOCTYPE svg PUBLIC "-//W3C//DTD SVG 1.1//EN"
 "http://www.w3.org/Graphics/SVG/1.1/DTD/svg11.dtd">
<!-- Generated by graphviz version 2.38.0 (20140413.2041)
 -->
<!-- Title: HelloBye2_Client_process Pages: 1 -->
<svg width="455pt" height="47pt"
 viewBox="0.00 0.00 455.00 47.00" xmlns="http://www.w3.org/2000/svg" xmlns:xlink="http://www.w3.org/1999/xlink">
<g id="graph0" class="graph" transform="scale(1 1) rotate(0) translate(4 43)">
<title>HelloBye2_Client_process</title>
<!-- Node1 -->
<g id="node1" class="node"><title>Node1</title>
<polygon fill="#bfbfbf" stroke="black" points="0,-19.5 0,-38.5 132,-38.5 132,-19.5 0,-19.5"/>
<text text-anchor="middle" x="66" y="-26.5" font-family="Helvetica,sans-Serif" font-size="10.00">HelloBye2_Client_process</text>
</g>
<!-- Node2 -->
<g id="node2" class="node"><title>Node2</title>
<g id="a_node2"><a xlink:href="classBufArray.html#a7570e31b14ed3d44f5b60b3a9e8afee5" target="_top" xlink:title="Get the number of packets currently marked as send. ">
<polygon fill="none" stroke="black" points="324,-19.5 324,-38.5 447,-38.5 447,-19.5 324,-19.5"/>
<text text-anchor="middle" x="385.5" y="-26.5" font-family="Helvetica,sans-Serif" font-size="10.00">BufArray::getSendCount</text>
</a>
</g>
</g>
<!-- Node1&#45;&gt;Node2 -->
<g id="edge1" class="edge"><title>Node1&#45;&gt;Node2</title>
<path fill="none" stroke="midnightblue" d="M132.017,-29C184.853,-29 259.271,-29 313.624,-29"/>
<polygon fill="midnightblue" stroke="midnightblue" points="313.872,-32.5001 323.872,-29 313.872,-25.5001 313.872,-32.5001"/>
</g>
<!-- Node3 -->
<g id="node3" class="node"><title>Node3</title>
<g id="a_node3"><a xlink:href="classBufArray.html#a5b533f3c7add88f873d41e841fc55136" target="_top" xlink:title="Get the number of packets currently marked as free. ">
<polygon fill="none" stroke="black" points="168,-0.5 168,-19.5 288,-19.5 288,-0.5 168,-0.5"/>
<text text-anchor="middle" x="228" y="-7.5" font-family="Helvetica,sans-Serif" font-size="10.00">BufArray::getFreeCount</text>
</a>
</g>
</g>
<!-- Node1&#45;&gt;Node3 -->
<g id="edge2" class="edge"><title>Node1&#45;&gt;Node3</title>
<path fill="none" stroke="midnightblue" d="M132.078,-21.272C140.597,-20.2603 149.351,-19.2209 157.933,-18.2017"/>
<polygon fill="midnightblue" stroke="midnightblue" points="158.387,-21.6724 167.905,-17.0175 157.562,-14.7213 158.387,-21.6724"/>
</g>
<!-- Node3&#45;&gt;Node2 -->
<g id="edge3" class="edge"><title>Node3&#45;&gt;Node2</title>
<path fill="none" stroke="midnightblue" d="M288.231,-17.2373C296.621,-18.2624 305.316,-19.3248 313.895,-20.373"/>
<polygon fill="midnightblue" stroke="midnightblue" points="313.535,-23.855 323.886,-21.5937 314.384,-16.9066 313.535,-23.855"/>
</g>
</g>
</svg>
