<?xml version="1.0" encoding="UTF-8" standalone="no"?>
<!DOCTYPE svg PUBLIC "-//W3C//DTD SVG 1.1//EN"
 "http://www.w3.org/Graphics/SVG/1.1/DTD/svg11.dtd">
<!-- Generated by graphviz version 2.40.1 (20161225.0304)
 -->
<!-- Title: /home/dominik/uni/MoonState/src/helloBye3.cpp Pages: 1 -->
<svg width="1642pt" height="263pt"
 viewBox="0.00 0.00 1642.34 263.00" xmlns="http://www.w3.org/2000/svg" xmlns:xlink="http://www.w3.org/1999/xlink">
<g id="graph0" class="graph" transform="scale(1 1) rotate(0) translate(4 259)">
<title>/home/dominik/uni/MoonState/src/helloBye3.cpp</title>
<!-- Node0 -->
<g id="node1" class="node">
<title>Node0</title>
<polygon fill="#bfbfbf" stroke="#000000" points="95.8432,-224.5 95.8432,-254.5 242.8432,-254.5 242.8432,-224.5 95.8432,-224.5"/>
<text text-anchor="start" x="103.8432" y="-242.5" font-family="Helvetica,sans-Serif" font-size="10.00" fill="#000000">/home/dominik/uni/MoonState</text>
<text text-anchor="middle" x="169.3432" y="-231.5" font-family="Helvetica,sans-Serif" font-size="10.00" fill="#000000">/src/helloBye3.cpp</text>
</g>
<!-- Node1 -->
<g id="node2" class="node">
<title>Node1</title>
<polygon fill="none" stroke="#bfbfbf" points="24.8432,-112.5 24.8432,-131.5 69.8432,-131.5 69.8432,-112.5 24.8432,-112.5"/>
<text text-anchor="middle" x="47.3432" y="-119.5" font-family="Helvetica,sans-Serif" font-size="10.00" fill="#000000">cstdlib</text>
</g>
<!-- Node0&#45;&gt;Node1 -->
<g id="edge1" class="edge">
<title>Node0&#45;&gt;Node1</title>
<path fill="none" stroke="#191970" d="M119.7143,-224.41C100.6383,-216.3613 80.1493,-204.6015 66.3432,-188 55.5147,-174.9789 50.8532,-156.0906 48.8489,-141.8535"/>
<polygon fill="#191970" stroke="#191970" points="52.2987,-141.1996 47.7441,-131.6337 45.3393,-141.952 52.2987,-141.1996"/>
</g>
<!-- Node2 -->
<g id="node3" class="node">
<title>Node2</title>
<polygon fill="none" stroke="#bfbfbf" points="119.3432,-.5 119.3432,-19.5 171.3432,-19.5 171.3432,-.5 119.3432,-.5"/>
<text text-anchor="middle" x="145.3432" y="-7.5" font-family="Helvetica,sans-Serif" font-size="10.00" fill="#000000">sstream</text>
</g>
<!-- Node0&#45;&gt;Node2 -->
<g id="edge2" class="edge">
<title>Node0&#45;&gt;Node2</title>
<path fill="none" stroke="#191970" d="M95.7959,-229.1947C68.2173,-221.8812 38.6697,-209.3774 18.3432,-188 .5068,-169.2414 5.9335,-157.6346 2.3432,-132 1.1103,-123.197 -1.7268,-119.9024 2.3432,-112 24.8698,-68.2622 75.797,-39.1419 110.382,-23.5858"/>
<polygon fill="#191970" stroke="#191970" points="111.886,-26.7486 119.6662,-19.557 109.0994,-20.3271 111.886,-26.7486"/>
</g>
<!-- Node3 -->
<g id="node4" class="node">
<title>Node3</title>
<g id="a_node4"><a xlink:href="IPv4__5TupleL2Ident_8hpp.html" target="_top" xlink:title="IPv4_5TupleL2Ident.hpp">
<polygon fill="none" stroke="#000000" points="435.3432,-112.5 435.3432,-131.5 557.3432,-131.5 557.3432,-112.5 435.3432,-112.5"/>
<text text-anchor="middle" x="496.3432" y="-119.5" font-family="Helvetica,sans-Serif" font-size="10.00" fill="#000000">IPv4_5TupleL2Ident.hpp</text>
</a>
</g>
</g>
<!-- Node0&#45;&gt;Node3 -->
<g id="edge3" class="edge">
<title>Node0&#45;&gt;Node3</title>
<path fill="none" stroke="#191970" d="M186.0735,-224.4656C205.271,-208.0446 238.3702,-182.1951 271.3432,-168 320.3697,-146.8938 379.6515,-135.2827 425.0551,-129.0078"/>
<polygon fill="#191970" stroke="#191970" points="425.6555,-132.4589 435.1082,-127.6738 424.7346,-125.5197 425.6555,-132.4589"/>
</g>
<!-- Node13 -->
<g id="node14" class="node">
<title>Node13</title>
<g id="a_node14"><a xlink:href="headers_8hpp.html" target="_top" xlink:title="headers.hpp">
<polygon fill="none" stroke="#000000" points="284.3432,-56.5 284.3432,-75.5 354.3432,-75.5 354.3432,-56.5 284.3432,-56.5"/>
<text text-anchor="middle" x="319.3432" y="-63.5" font-family="Helvetica,sans-Serif" font-size="10.00" fill="#000000">headers.hpp</text>
</a>
</g>
</g>
<!-- Node0&#45;&gt;Node13 -->
<g id="edge24" class="edge">
<title>Node0&#45;&gt;Node13</title>
<path fill="none" stroke="#191970" d="M124.4393,-224.4348C65.7535,-202.429 -25.0574,-158.9738 15.3432,-112 19.5459,-107.1135 190.5355,-83.4049 274.1848,-72.0656"/>
<polygon fill="#191970" stroke="#191970" points="274.737,-75.5229 284.1774,-70.7136 273.7983,-68.5861 274.737,-75.5229"/>
</g>
<!-- Node17 -->
<g id="node18" class="node">
<title>Node17</title>
<g id="a_node18"><a xlink:href="helloBye3_8hpp.html" target="_top" xlink:title="helloBye3.hpp">
<polygon fill="none" stroke="#000000" points="280.3432,-168.5 280.3432,-187.5 358.3432,-187.5 358.3432,-168.5 280.3432,-168.5"/>
<text text-anchor="middle" x="319.3432" y="-175.5" font-family="Helvetica,sans-Serif" font-size="10.00" fill="#000000">helloBye3.hpp</text>
</a>
</g>
</g>
<!-- Node0&#45;&gt;Node17 -->
<g id="edge25" class="edge">
<title>Node0&#45;&gt;Node17</title>
<path fill="none" stroke="#191970" d="M200.1403,-224.4554C223.7373,-214.284 256.2682,-200.9787 281.45,-191.2155"/>
<polygon fill="#191970" stroke="#191970" points="282.9697,-194.3812 291.0515,-187.5303 280.4614,-187.846 282.9697,-194.3812"/>
</g>
<!-- Node19 -->
<g id="node20" class="node">
<title>Node19</title>
<g id="a_node20"><a xlink:href="mbuf_8hpp.html" target="_top" xlink:title="mbuf.hpp">
<polygon fill="none" stroke="#000000" points="205.8432,-112.5 205.8432,-131.5 262.8432,-131.5 262.8432,-112.5 205.8432,-112.5"/>
<text text-anchor="middle" x="234.3432" y="-119.5" font-family="Helvetica,sans-Serif" font-size="10.00" fill="#000000">mbuf.hpp</text>
</a>
</g>
</g>
<!-- Node0&#45;&gt;Node19 -->
<g id="edge58" class="edge">
<title>Node0&#45;&gt;Node19</title>
<path fill="none" stroke="#191970" d="M177.8408,-224.1389C189.7647,-202.5843 211.4276,-163.4245 224.1864,-140.3604"/>
<polygon fill="#191970" stroke="#191970" points="227.277,-142.0041 229.055,-131.5595 221.1517,-138.6156 227.277,-142.0041"/>
</g>
<!-- Node32 -->
<g id="node33" class="node">
<title>Node32</title>
<g id="a_node33"><a xlink:href="samplePacket_8hpp.html" target="_top" xlink:title="samplePacket.hpp">
<polygon fill="none" stroke="#000000" points="75.3432,-168.5 75.3432,-187.5 173.3432,-187.5 173.3432,-168.5 75.3432,-168.5"/>
<text text-anchor="middle" x="124.3432" y="-175.5" font-family="Helvetica,sans-Serif" font-size="10.00" fill="#000000">samplePacket.hpp</text>
</a>
</g>
</g>
<!-- Node0&#45;&gt;Node32 -->
<g id="edge59" class="edge">
<title>Node0&#45;&gt;Node32</title>
<path fill="none" stroke="#191970" d="M158.2196,-224.2977C151.9732,-215.7609 144.1392,-205.0545 137.5786,-196.0883"/>
<polygon fill="#191970" stroke="#191970" points="140.2781,-193.8505 131.5483,-187.8469 134.6288,-197.984 140.2781,-193.8505"/>
</g>
<!-- Node3&#45;&gt;Node2 -->
<g id="edge8" class="edge">
<title>Node3&#45;&gt;Node2</title>
<path fill="none" stroke="#191970" d="M435.0577,-113.9503C389.9858,-106.9083 327.7173,-94.8127 275.3432,-76 257.3816,-69.5482 254.3238,-64.7125 237.3432,-56 216.1989,-45.1511 192.1758,-33.1505 173.9812,-24.1276"/>
<polygon fill="#191970" stroke="#191970" points="175.3012,-20.8757 164.7865,-19.5752 172.1952,-27.1489 175.3012,-20.8757"/>
</g>
<!-- Node4 -->
<g id="node5" class="node">
<title>Node4</title>
<polygon fill="none" stroke="#bfbfbf" points="458.3432,-.5 458.3432,-19.5 504.3432,-19.5 504.3432,-.5 458.3432,-.5"/>
<text text-anchor="middle" x="481.3432" y="-7.5" font-family="Helvetica,sans-Serif" font-size="10.00" fill="#000000">cstdint</text>
</g>
<!-- Node3&#45;&gt;Node4 -->
<g id="edge4" class="edge">
<title>Node3&#45;&gt;Node4</title>
<path fill="none" stroke="#191970" d="M492.5255,-112.316C489.1156,-103.133 484.3575,-88.8658 482.3432,-76 479.9578,-60.7634 479.8041,-43.3069 480.1948,-30.1753"/>
<polygon fill="#191970" stroke="#191970" points="483.7032,-30.0543 480.636,-19.9131 476.7096,-29.7536 483.7032,-30.0543"/>
</g>
<!-- Node5 -->
<g id="node6" class="node">
<title>Node5</title>
<polygon fill="none" stroke="#bfbfbf" points="596.8432,-.5 596.8432,-19.5 655.8432,-19.5 655.8432,-.5 596.8432,-.5"/>
<text text-anchor="middle" x="626.3432" y="-7.5" font-family="Helvetica,sans-Serif" font-size="10.00" fill="#000000">exception</text>
</g>
<!-- Node3&#45;&gt;Node5 -->
<g id="edge5" class="edge">
<title>Node3&#45;&gt;Node5</title>
<path fill="none" stroke="#191970" d="M497.4562,-112.2288C499.5476,-98.1186 505.3026,-71.9819 520.3432,-56 537.9885,-37.2504 564.5837,-25.7389 586.7197,-18.9206"/>
<polygon fill="#191970" stroke="#191970" points="587.88,-22.229 596.5284,-16.1089 585.9511,-15.5 587.88,-22.229"/>
</g>
<!-- Node6 -->
<g id="node7" class="node">
<title>Node6</title>
<polygon fill="none" stroke="#bfbfbf" points="735.8432,-56.5 735.8432,-75.5 794.8432,-75.5 794.8432,-56.5 735.8432,-56.5"/>
<text text-anchor="middle" x="765.3432" y="-63.5" font-family="Helvetica,sans-Serif" font-size="10.00" fill="#000000">functional</text>
</g>
<!-- Node3&#45;&gt;Node6 -->
<g id="edge6" class="edge">
<title>Node3&#45;&gt;Node6</title>
<path fill="none" stroke="#191970" d="M548.8309,-112.4889C593.4856,-104.1847 659.5447,-91.4012 725.3806,-76.3656"/>
<polygon fill="#191970" stroke="#191970" points="726.5551,-79.6869 735.515,-74.0326 724.9846,-72.8653 726.5551,-79.6869"/>
</g>
<!-- Node7 -->
<g id="node8" class="node">
<title>Node7</title>
<polygon fill="none" stroke="#bfbfbf" points="562.3432,-56.5 562.3432,-75.5 616.3432,-75.5 616.3432,-56.5 562.3432,-56.5"/>
<text text-anchor="middle" x="589.3432" y="-63.5" font-family="Helvetica,sans-Serif" font-size="10.00" fill="#000000">iostream</text>
</g>
<!-- Node3&#45;&gt;Node7 -->
<g id="edge7" class="edge">
<title>Node3&#45;&gt;Node7</title>
<path fill="none" stroke="#191970" d="M512.5426,-112.2455C526.945,-103.5731 548.2165,-90.7645 564.7232,-80.825"/>
<polygon fill="#191970" stroke="#191970" points="566.5682,-83.7996 573.3295,-75.6427 562.9572,-77.8028 566.5682,-83.7996"/>
</g>
<!-- Node8 -->
<g id="node9" class="node">
<title>Node8</title>
<polygon fill="none" stroke="#bfbfbf" points="696.8432,-.5 696.8432,-19.5 755.8432,-19.5 755.8432,-.5 696.8432,-.5"/>
<text text-anchor="middle" x="726.3432" y="-7.5" font-family="Helvetica,sans-Serif" font-size="10.00" fill="#000000">stdexcept</text>
</g>
<!-- Node3&#45;&gt;Node8 -->
<g id="edge9" class="edge">
<title>Node3&#45;&gt;Node8</title>
<path fill="none" stroke="#191970" d="M502.0228,-112.308C511.0296,-97.8091 529.9849,-70.6172 553.3432,-56 575.416,-42.1873 642.7138,-26.7485 686.5751,-17.7304"/>
<polygon fill="#191970" stroke="#191970" points="687.5321,-21.1076 696.6367,-15.6894 686.1405,-14.2473 687.5321,-21.1076"/>
</g>
<!-- Node9 -->
<g id="node10" class="node">
<title>Node9</title>
<polygon fill="none" stroke="#bfbfbf" points="342.8432,-.5 342.8432,-19.5 383.8432,-19.5 383.8432,-.5 342.8432,-.5"/>
<text text-anchor="middle" x="363.3432" y="-7.5" font-family="Helvetica,sans-Serif" font-size="10.00" fill="#000000">string</text>
</g>
<!-- Node3&#45;&gt;Node9 -->
<g id="edge10" class="edge">
<title>Node3&#45;&gt;Node9</title>
<path fill="none" stroke="#191970" d="M485.0037,-112.4509C462.232,-93.2747 410.72,-49.8962 382.5793,-26.1988"/>
<polygon fill="#191970" stroke="#191970" points="384.5577,-23.2891 374.654,-19.5249 380.0487,-28.6435 384.5577,-23.2891"/>
</g>
<!-- Node10 -->
<g id="node11" class="node">
<title>Node10</title>
<g id="a_node11"><a xlink:href="common_8hpp.html" target="_top" xlink:title="common.hpp">
<polygon fill="none" stroke="#000000" points="812.8432,-56.5 812.8432,-75.5 885.8432,-75.5 885.8432,-56.5 812.8432,-56.5"/>
<text text-anchor="middle" x="849.3432" y="-63.5" font-family="Helvetica,sans-Serif" font-size="10.00" fill="#000000">common.hpp</text>
</a>
</g>
</g>
<!-- Node3&#45;&gt;Node10 -->
<g id="edge11" class="edge">
<title>Node3&#45;&gt;Node10</title>
<path fill="none" stroke="#191970" d="M557.6228,-114.1419C617.7411,-106.1402 712.2264,-92.7863 802.6797,-76.2212"/>
<polygon fill="#191970" stroke="#191970" points="803.3518,-79.6564 812.5494,-74.3978 802.08,-72.7729 803.3518,-79.6564"/>
</g>
<!-- Node3&#45;&gt;Node13 -->
<g id="edge14" class="edge">
<title>Node3&#45;&gt;Node13</title>
<path fill="none" stroke="#191970" d="M465.9158,-112.3733C436.356,-103.021 391.3207,-88.7725 358.9737,-78.5385"/>
<polygon fill="#191970" stroke="#191970" points="359.9636,-75.1807 349.3736,-75.5011 357.852,-81.8546 359.9636,-75.1807"/>
</g>
<!-- Node16 -->
<g id="node17" class="node">
<title>Node16</title>
<g id="a_node17"><a xlink:href="exceptions_8hpp.html" target="_top" xlink:title="exceptions.hpp">
<polygon fill="none" stroke="#000000" points="634.8432,-56.5 634.8432,-75.5 717.8432,-75.5 717.8432,-56.5 634.8432,-56.5"/>
<text text-anchor="middle" x="676.3432" y="-63.5" font-family="Helvetica,sans-Serif" font-size="10.00" fill="#000000">exceptions.hpp</text>
</a>
</g>
</g>
<!-- Node3&#45;&gt;Node16 -->
<g id="edge21" class="edge">
<title>Node3&#45;&gt;Node16</title>
<path fill="none" stroke="#191970" d="M527.2863,-112.3733C557.3472,-103.021 603.1458,-88.7725 636.041,-78.5385"/>
<polygon fill="#191970" stroke="#191970" points="637.2951,-81.8139 645.8039,-75.5011 635.2156,-75.1299 637.2951,-81.8139"/>
</g>
<!-- Node11 -->
<g id="node12" class="node">
<title>Node11</title>
<polygon fill="none" stroke="#bfbfbf" points="402.3432,-.5 402.3432,-19.5 440.3432,-19.5 440.3432,-.5 402.3432,-.5"/>
<text text-anchor="middle" x="421.3432" y="-7.5" font-family="Helvetica,sans-Serif" font-size="10.00" fill="#000000">array</text>
</g>
<!-- Node10&#45;&gt;Node11 -->
<g id="edge12" class="edge">
<title>Node10&#45;&gt;Node11</title>
<path fill="none" stroke="#191970" d="M812.5742,-57.4595C809.7961,-56.9276 807.0296,-56.4332 804.3432,-56 650.9893,-31.2729 605.8783,-53.954 450.3575,-19.7346"/>
<polygon fill="#191970" stroke="#191970" points="450.9655,-16.2841 440.4418,-17.5095 449.4327,-23.1142 450.9655,-16.2841"/>
</g>
<!-- Node12 -->
<g id="node13" class="node">
<title>Node12</title>
<polygon fill="none" stroke="#bfbfbf" points="965.8432,-.5 965.8432,-19.5 1014.8432,-19.5 1014.8432,-.5 965.8432,-.5"/>
<text text-anchor="middle" x="990.3432" y="-7.5" font-family="Helvetica,sans-Serif" font-size="10.00" fill="#000000">cassert</text>
</g>
<!-- Node10&#45;&gt;Node12 -->
<g id="edge13" class="edge">
<title>Node10&#45;&gt;Node12</title>
<path fill="none" stroke="#191970" d="M873.582,-56.3733C896.6222,-47.2226 931.4646,-33.3844 957.0933,-23.2057"/>
<polygon fill="#191970" stroke="#191970" points="958.4189,-26.4452 966.4208,-19.5011 955.835,-19.9395 958.4189,-26.4452"/>
</g>
<!-- Node13&#45;&gt;Node2 -->
<g id="edge18" class="edge">
<title>Node13&#45;&gt;Node2</title>
<path fill="none" stroke="#191970" d="M289.4316,-56.3733C259.4459,-46.7227 213.261,-31.8586 181.2982,-21.5717"/>
<polygon fill="#191970" stroke="#191970" points="182.0504,-18.1371 171.459,-18.4051 179.9058,-24.8005 182.0504,-18.1371"/>
</g>
<!-- Node13&#45;&gt;Node4 -->
<g id="edge16" class="edge">
<title>Node13&#45;&gt;Node4</title>
<path fill="none" stroke="#191970" d="M347.192,-56.3733C375.3953,-46.624 418.9906,-31.554 448.7768,-21.2575"/>
<polygon fill="#191970" stroke="#191970" points="449.9989,-24.5384 458.3066,-17.9633 447.7119,-17.9225 449.9989,-24.5384"/>
</g>
<!-- Node13&#45;&gt;Node9 -->
<g id="edge19" class="edge">
<title>Node13&#45;&gt;Node9</title>
<path fill="none" stroke="#191970" d="M327.0074,-56.2455C333.1906,-48.3761 342.0496,-37.101 349.4721,-27.6542"/>
<polygon fill="#191970" stroke="#191970" points="352.3407,-29.6683 355.7668,-19.6427 346.8365,-25.3435 352.3407,-29.6683"/>
</g>
<!-- Node13&#45;&gt;Node11 -->
<g id="edge15" class="edge">
<title>Node13&#45;&gt;Node11</title>
<path fill="none" stroke="#191970" d="M337.1103,-56.2455C353.0527,-47.4928 376.6691,-34.527 394.8421,-24.5496"/>
<polygon fill="#191970" stroke="#191970" points="396.6984,-27.5233 403.7798,-19.6427 393.3296,-21.3873 396.6984,-27.5233"/>
</g>
<!-- Node14 -->
<g id="node15" class="node">
<title>Node14</title>
<polygon fill="none" stroke="#bfbfbf" points="278.3432,-.5 278.3432,-19.5 324.3432,-19.5 324.3432,-.5 278.3432,-.5"/>
<text text-anchor="middle" x="301.3432" y="-7.5" font-family="Helvetica,sans-Serif" font-size="10.00" fill="#000000">cstring</text>
</g>
<!-- Node13&#45;&gt;Node14 -->
<g id="edge17" class="edge">
<title>Node13&#45;&gt;Node14</title>
<path fill="none" stroke="#191970" d="M316.2079,-56.2455C313.8333,-48.8579 310.4939,-38.4689 307.5817,-29.4087"/>
<polygon fill="#191970" stroke="#191970" points="310.8349,-28.0919 304.4427,-19.6427 304.1707,-30.234 310.8349,-28.0919"/>
</g>
<!-- Node15 -->
<g id="node16" class="node">
<title>Node15</title>
<polygon fill="none" stroke="#bfbfbf" points="198.3432,-.5 198.3432,-19.5 260.3432,-19.5 260.3432,-.5 198.3432,-.5"/>
<text text-anchor="middle" x="229.3432" y="-7.5" font-family="Helvetica,sans-Serif" font-size="10.00" fill="#000000">arpa/inet.h</text>
</g>
<!-- Node13&#45;&gt;Node15 -->
<g id="edge20" class="edge">
<title>Node13&#45;&gt;Node15</title>
<path fill="none" stroke="#191970" d="M303.6664,-56.2455C289.8577,-47.6534 269.524,-35.0014 253.614,-25.1018"/>
<polygon fill="#191970" stroke="#191970" points="255.18,-21.954 244.8404,-19.6427 251.4819,-27.8974 255.18,-21.954"/>
</g>
<!-- Node16&#45;&gt;Node5 -->
<g id="edge22" class="edge">
<title>Node16&#45;&gt;Node5</title>
<path fill="none" stroke="#191970" d="M667.6339,-56.2455C660.5359,-48.2958 650.3348,-36.8706 641.8482,-27.3656"/>
<polygon fill="#191970" stroke="#191970" points="644.2237,-24.771 634.9528,-19.6427 639.0022,-29.4331 644.2237,-24.771"/>
</g>
<!-- Node16&#45;&gt;Node8 -->
<g id="edge23" class="edge">
<title>Node16&#45;&gt;Node8</title>
<path fill="none" stroke="#191970" d="M685.0526,-56.2455C692.1505,-48.2958 702.3517,-36.8706 710.8382,-27.3656"/>
<polygon fill="#191970" stroke="#191970" points="713.6843,-29.4331 717.7337,-19.6427 708.4627,-24.771 713.6843,-29.4331"/>
</g>
<!-- Node17&#45;&gt;Node0 -->
<g id="edge57" class="edge">
<title>Node17&#45;&gt;Node0</title>
<path fill="none" stroke="#191970" d="M301.1456,-187.5303C281.3658,-196.3511 249.1721,-209.7185 221.5043,-220.6871"/>
<polygon fill="#191970" stroke="#191970" points="219.9567,-217.5349 211.9344,-224.4554 222.5214,-224.0481 219.9567,-217.5349"/>
</g>
<!-- Node17&#45;&gt;Node2 -->
<g id="edge27" class="edge">
<title>Node17&#45;&gt;Node2</title>
<path fill="none" stroke="#191970" d="M280.2132,-169.4295C254.756,-162.4417 221.8565,-150.6232 197.3432,-132 172.7811,-113.3396 168.3145,-104.4288 156.3432,-76 150.1444,-61.2794 147.4311,-43.3318 146.2474,-29.8705"/>
<polygon fill="#191970" stroke="#191970" points="149.7325,-29.5302 145.5699,-19.7874 142.7483,-29.9996 149.7325,-29.5302"/>
</g>
<!-- Node17&#45;&gt;Node10 -->
<g id="edge28" class="edge">
<title>Node17&#45;&gt;Node10</title>
<path fill="none" stroke="#191970" d="M358.6618,-172.7895C413.2045,-165.2834 514.7796,-150.2982 600.3432,-132 673.9891,-116.2504 758.4901,-92.6624 807.6979,-78.3632"/>
<polygon fill="#191970" stroke="#191970" points="808.7318,-81.7076 817.3505,-75.5458 806.7704,-74.988 808.7318,-81.7076"/>
</g>
<!-- Node17&#45;&gt;Node13 -->
<g id="edge30" class="edge">
<title>Node17&#45;&gt;Node13</title>
<path fill="none" stroke="#191970" d="M319.3432,-168.4509C319.3432,-150.184 319.3432,-109.9553 319.3432,-85.6976"/>
<polygon fill="#191970" stroke="#191970" points="322.8433,-85.5249 319.3432,-75.5249 315.8433,-85.5249 322.8433,-85.5249"/>
</g>
<!-- Node17&#45;&gt;Node16 -->
<g id="edge29" class="edge">
<title>Node17&#45;&gt;Node16</title>
<path fill="none" stroke="#191970" d="M358.5784,-175.0218C408.2957,-170.2816 495.9838,-158.6662 566.3432,-132 599.69,-119.3616 634.3567,-96.712 655.6456,-81.5195"/>
<polygon fill="#191970" stroke="#191970" points="657.8753,-84.2259 663.9076,-75.516 653.7603,-78.563 657.8753,-84.2259"/>
</g>
<!-- Node18 -->
<g id="node19" class="node">
<title>Node18</title>
<polygon fill="none" stroke="#bfbfbf" points="1590.3432,-56.5 1590.3432,-75.5 1634.3432,-75.5 1634.3432,-56.5 1590.3432,-56.5"/>
<text text-anchor="middle" x="1612.3432" y="-63.5" font-family="Helvetica,sans-Serif" font-size="10.00" fill="#000000">mutex</text>
</g>
<!-- Node17&#45;&gt;Node18 -->
<g id="edge26" class="edge">
<title>Node17&#45;&gt;Node18</title>
<path fill="none" stroke="#191970" d="M358.6643,-176.4563C472.9059,-171.8032 814.6167,-156.6947 1097.3432,-132 1309.8027,-113.4428 1367.9675,-121.6482 1580.2377,-75.8906"/>
<polygon fill="#191970" stroke="#191970" points="1581.1054,-79.2838 1590.1354,-73.7422 1579.6205,-72.4431 1581.1054,-79.2838"/>
</g>
<!-- Node17&#45;&gt;Node19 -->
<g id="edge31" class="edge">
<title>Node17&#45;&gt;Node19</title>
<path fill="none" stroke="#191970" d="M304.5374,-168.2455C291.6176,-159.7337 272.6501,-147.2375 257.688,-137.3801"/>
<polygon fill="#191970" stroke="#191970" points="259.2556,-134.2216 248.9794,-131.6427 255.4045,-140.067 259.2556,-134.2216"/>
</g>
<!-- Node21 -->
<g id="node22" class="node">
<title>Node21</title>
<g id="a_node22"><a xlink:href="stateMachine_8hpp.html" target="_top" xlink:title="stateMachine.hpp">
<polygon fill="none" stroke="#000000" points="994.3432,-112.5 994.3432,-131.5 1088.3432,-131.5 1088.3432,-112.5 994.3432,-112.5"/>
<text text-anchor="middle" x="1041.3432" y="-119.5" font-family="Helvetica,sans-Serif" font-size="10.00" fill="#000000">stateMachine.hpp</text>
</a>
</g>
</g>
<!-- Node17&#45;&gt;Node21 -->
<g id="edge34" class="edge">
<title>Node17&#45;&gt;Node21</title>
<path fill="none" stroke="#191970" d="M358.4171,-174.9693C478.4268,-165.6611 842.1141,-137.4527 983.889,-126.4563"/>
<polygon fill="#191970" stroke="#191970" points="984.4091,-129.9265 994.1085,-125.6636 983.8678,-122.9475 984.4091,-129.9265"/>
</g>
<!-- Node19&#45;&gt;Node4 -->
<g id="edge32" class="edge">
<title>Node19&#45;&gt;Node4</title>
<path fill="none" stroke="#191970" d="M263.0678,-113.285C289.5744,-104.8869 329.7864,-91.2379 363.3432,-76 397.1168,-60.6636 434.1569,-39.1127 457.5619,-24.8631"/>
<polygon fill="#191970" stroke="#191970" points="459.4324,-27.8218 466.1222,-19.6061 455.7692,-21.8568 459.4324,-27.8218"/>
</g>
<!-- Node20 -->
<g id="node21" class="node">
<title>Node20</title>
<polygon fill="none" stroke="#bfbfbf" points="164.8432,-56.5 164.8432,-75.5 227.8432,-75.5 227.8432,-56.5 164.8432,-56.5"/>
<text text-anchor="middle" x="196.3432" y="-63.5" font-family="Helvetica,sans-Serif" font-size="10.00" fill="#000000">rte_mbuf.h</text>
</g>
<!-- Node19&#45;&gt;Node20 -->
<g id="edge33" class="edge">
<title>Node19&#45;&gt;Node20</title>
<path fill="none" stroke="#191970" d="M227.7241,-112.2455C222.4387,-104.4564 214.8891,-93.3308 208.5195,-83.9439"/>
<polygon fill="#191970" stroke="#191970" points="211.3977,-81.9522 202.8865,-75.6427 205.6054,-85.8827 211.3977,-81.9522"/>
</g>
<!-- Node21&#45;&gt;Node4 -->
<g id="edge37" class="edge">
<title>Node21&#45;&gt;Node4</title>
<path fill="none" stroke="#191970" d="M1014.3303,-112.3813C991.1,-103.7863 956.9205,-90.3631 928.3432,-76 913.0198,-68.2984 911.5803,-61.521 895.3432,-56 877.3576,-49.8844 609.9146,-22.811 514.6944,-13.3095"/>
<polygon fill="#191970" stroke="#191970" points="514.7745,-9.8002 504.4767,-12.2915 514.0804,-16.7657 514.7745,-9.8002"/>
</g>
<!-- Node21&#45;&gt;Node6 -->
<g id="edge38" class="edge">
<title>Node21&#45;&gt;Node6</title>
<path fill="none" stroke="#191970" d="M993.9564,-113.6568C948.1453,-105.3998 876.5599,-91.9959 805.178,-76.0872"/>
<polygon fill="#191970" stroke="#191970" points="805.6337,-72.6025 795.1098,-73.8261 804.0998,-79.4323 805.6337,-72.6025"/>
</g>
<!-- Node21&#45;&gt;Node7 -->
<g id="edge39" class="edge">
<title>Node21&#45;&gt;Node7</title>
<path fill="none" stroke="#191970" d="M994.3174,-119.1488C918.8237,-114.057 765.8505,-101.6239 626.7068,-75.7838"/>
<polygon fill="#191970" stroke="#191970" points="627.1889,-72.3131 616.7136,-73.9 625.8922,-79.192 627.1889,-72.3131"/>
</g>
<!-- Node21&#45;&gt;Node8 -->
<g id="edge44" class="edge">
<title>Node21&#45;&gt;Node8</title>
<path fill="none" stroke="#191970" d="M1028.1159,-112.4525C1007.6896,-98.1423 966.7995,-71.1936 928.3432,-56 874.0688,-34.5568 807.4503,-21.8169 765.9363,-15.3616"/>
<polygon fill="#191970" stroke="#191970" points="766.3558,-11.8854 755.9456,-13.8544 765.3115,-18.8071 766.3558,-11.8854"/>
</g>
<!-- Node21&#45;&gt;Node10 -->
<g id="edge53" class="edge">
<title>Node21&#45;&gt;Node10</title>
<path fill="none" stroke="#191970" d="M1008.3373,-112.3733C976.1341,-102.9807 926.999,-88.6496 891.8793,-78.4064"/>
<polygon fill="#191970" stroke="#191970" points="892.4985,-74.9412 881.9185,-75.5011 890.5385,-81.6612 892.4985,-74.9412"/>
</g>
<!-- Node21&#45;&gt;Node12 -->
<g id="edge35" class="edge">
<title>Node21&#45;&gt;Node12</title>
<path fill="none" stroke="#191970" d="M1033.2165,-112.3546C1026.0521,-103.4271 1015.7794,-89.5288 1009.3432,-76 1002.2999,-61.1949 997.3414,-43.2537 994.2601,-29.8162"/>
<polygon fill="#191970" stroke="#191970" points="997.6226,-28.8027 992.1087,-19.7557 990.7773,-30.2666 997.6226,-28.8027"/>
</g>
<!-- Node21&#45;&gt;Node16 -->
<g id="edge54" class="edge">
<title>Node21&#45;&gt;Node16</title>
<path fill="none" stroke="#191970" d="M994.152,-115.808C934.6012,-107.8345 828.7973,-93.1386 728.1021,-76.0634"/>
<polygon fill="#191970" stroke="#191970" points="728.508,-72.5822 718.0617,-74.3499 727.3303,-79.4824 728.508,-72.5822"/>
</g>
<!-- Node21&#45;&gt;Node18 -->
<g id="edge42" class="edge">
<title>Node21&#45;&gt;Node18</title>
<path fill="none" stroke="#191970" d="M1088.7371,-119.3475C1198.7737,-112.9728 1469.9403,-95.9652 1580.0141,-75.7874"/>
<polygon fill="#191970" stroke="#191970" points="1581,-79.1616 1590.1527,-73.8251 1579.6698,-72.2892 1581,-79.1616"/>
</g>
<!-- Node22 -->
<g id="node23" class="node">
<title>Node22</title>
<polygon fill="none" stroke="#bfbfbf" points="1018.3432,-56.5 1018.3432,-75.5 1064.3432,-75.5 1064.3432,-56.5 1018.3432,-56.5"/>
<text text-anchor="middle" x="1041.3432" y="-63.5" font-family="Helvetica,sans-Serif" font-size="10.00" fill="#000000">chrono</text>
</g>
<!-- Node21&#45;&gt;Node22 -->
<g id="edge36" class="edge">
<title>Node21&#45;&gt;Node22</title>
<path fill="none" stroke="#191970" d="M1041.3432,-112.2455C1041.3432,-104.9382 1041.3432,-94.6944 1041.3432,-85.7046"/>
<polygon fill="#191970" stroke="#191970" points="1044.8433,-85.6426 1041.3432,-75.6427 1037.8433,-85.6427 1044.8433,-85.6426"/>
</g>
<!-- Node23 -->
<g id="node24" class="node">
<title>Node23</title>
<polygon fill="none" stroke="#bfbfbf" points="1082.3432,-56.5 1082.3432,-75.5 1122.3432,-75.5 1122.3432,-56.5 1082.3432,-56.5"/>
<text text-anchor="middle" x="1102.3432" y="-63.5" font-family="Helvetica,sans-Serif" font-size="10.00" fill="#000000">limits</text>
</g>
<!-- Node21&#45;&gt;Node23 -->
<g id="edge40" class="edge">
<title>Node21&#45;&gt;Node23</title>
<path fill="none" stroke="#191970" d="M1051.9686,-112.2455C1060.8905,-104.0549 1073.8313,-92.1749 1084.3625,-82.5069"/>
<polygon fill="#191970" stroke="#191970" points="1086.84,-84.9837 1091.8396,-75.6427 1082.1061,-79.8271 1086.84,-84.9837"/>
</g>
<!-- Node24 -->
<g id="node25" class="node">
<title>Node24</title>
<polygon fill="none" stroke="#bfbfbf" points="1140.3432,-56.5 1140.3432,-75.5 1192.3432,-75.5 1192.3432,-56.5 1140.3432,-56.5"/>
<text text-anchor="middle" x="1166.3432" y="-63.5" font-family="Helvetica,sans-Serif" font-size="10.00" fill="#000000">memory</text>
</g>
<!-- Node21&#45;&gt;Node24 -->
<g id="edge41" class="edge">
<title>Node21&#45;&gt;Node24</title>
<path fill="none" stroke="#191970" d="M1062.8315,-112.3733C1082.9872,-103.3435 1113.3313,-89.7494 1135.9613,-79.6111"/>
<polygon fill="#191970" stroke="#191970" points="1137.4403,-82.7838 1145.1354,-75.5011 1134.5783,-76.3955 1137.4403,-82.7838"/>
</g>
<!-- Node25 -->
<g id="node26" class="node">
<title>Node25</title>
<polygon fill="none" stroke="#bfbfbf" points="1299.8432,-56.5 1299.8432,-75.5 1342.8432,-75.5 1342.8432,-56.5 1299.8432,-56.5"/>
<text text-anchor="middle" x="1321.3432" y="-63.5" font-family="Helvetica,sans-Serif" font-size="10.00" fill="#000000">queue</text>
</g>
<!-- Node21&#45;&gt;Node25 -->
<g id="edge43" class="edge">
<title>Node21&#45;&gt;Node25</title>
<path fill="none" stroke="#191970" d="M1088.7698,-115.2958C1137.2003,-108.001 1214.6641,-95.0963 1289.7275,-76.1614"/>
<polygon fill="#191970" stroke="#191970" points="1291.0028,-79.4478 1299.8207,-73.5745 1289.2648,-72.667 1291.0028,-79.4478"/>
</g>
<!-- Node26 -->
<g id="node27" class="node">
<title>Node26</title>
<polygon fill="none" stroke="#bfbfbf" points="1360.8432,-56.5 1360.8432,-75.5 1443.8432,-75.5 1443.8432,-56.5 1360.8432,-56.5"/>
<text text-anchor="middle" x="1402.3432" y="-63.5" font-family="Helvetica,sans-Serif" font-size="10.00" fill="#000000">unordered_map</text>
</g>
<!-- Node21&#45;&gt;Node26 -->
<g id="edge45" class="edge">
<title>Node21&#45;&gt;Node26</title>
<path fill="none" stroke="#191970" d="M1088.354,-115.8004C1147.3345,-107.8554 1251.8153,-93.2313 1350.4873,-76.2628"/>
<polygon fill="#191970" stroke="#191970" points="1351.3747,-79.6613 1360.6309,-74.5064 1350.1803,-72.7639 1351.3747,-79.6613"/>
</g>
<!-- Node27 -->
<g id="node28" class="node">
<title>Node27</title>
<polygon fill="none" stroke="#bfbfbf" points="1367.3432,-.5 1367.3432,-19.5 1411.3432,-19.5 1411.3432,-.5 1367.3432,-.5"/>
<text text-anchor="middle" x="1389.3432" y="-7.5" font-family="Helvetica,sans-Serif" font-size="10.00" fill="#000000">vector</text>
</g>
<!-- Node21&#45;&gt;Node27 -->
<g id="edge46" class="edge">
<title>Node21&#45;&gt;Node27</title>
<path fill="none" stroke="#191970" d="M1088.4182,-120.2097C1191.3815,-115.8102 1429.3505,-102.8207 1453.3432,-76 1469.7619,-57.6462 1443.1426,-37.4421 1419.3987,-24.2848"/>
<polygon fill="#191970" stroke="#191970" points="1421.0125,-21.179 1410.5351,-19.6057 1417.7446,-27.3694 1421.0125,-21.179"/>
</g>
<!-- Node28 -->
<g id="node29" class="node">
<title>Node28</title>
<g id="a_node29"><a xlink:href="bufArray_8hpp.html" target="_top" xlink:title="bufArray.hpp">
<polygon fill="none" stroke="#000000" points="1210.8432,-56.5 1210.8432,-75.5 1281.8432,-75.5 1281.8432,-56.5 1210.8432,-56.5"/>
<text text-anchor="middle" x="1246.3432" y="-63.5" font-family="Helvetica,sans-Serif" font-size="10.00" fill="#000000">bufArray.hpp</text>
</a>
</g>
</g>
<!-- Node21&#45;&gt;Node28 -->
<g id="edge47" class="edge">
<title>Node21&#45;&gt;Node28</title>
<path fill="none" stroke="#191970" d="M1076.584,-112.3733C1111.2626,-102.9001 1164.3315,-88.4032 1201.8894,-78.1435"/>
<polygon fill="#191970" stroke="#191970" points="1202.8381,-81.5126 1211.5623,-75.5011 1200.9934,-74.7601 1202.8381,-81.5126"/>
</g>
<!-- Node30 -->
<g id="node31" class="node">
<title>Node30</title>
<g id="a_node31"><a xlink:href="spinlock_8hpp.html" target="_top" xlink:title="spinlock.hpp">
<polygon fill="none" stroke="#000000" points="1500.8432,-56.5 1500.8432,-75.5 1571.8432,-75.5 1571.8432,-56.5 1500.8432,-56.5"/>
<text text-anchor="middle" x="1536.3432" y="-63.5" font-family="Helvetica,sans-Serif" font-size="10.00" fill="#000000">spinlock.hpp</text>
</a>
</g>
</g>
<!-- Node21&#45;&gt;Node30 -->
<g id="edge55" class="edge">
<title>Node21&#45;&gt;Node30</title>
<path fill="none" stroke="#191970" d="M1088.6219,-118.5875C1170.1119,-112.3769 1342.1622,-97.8204 1486.3432,-76 1487.7929,-75.7806 1489.2643,-75.5477 1490.7485,-75.3041"/>
<polygon fill="#191970" stroke="#191970" points="1491.3925,-78.7446 1500.6361,-73.5672 1490.1813,-71.8502 1491.3925,-78.7446"/>
</g>
<!-- Node28&#45;&gt;Node4 -->
<g id="edge49" class="edge">
<title>Node28&#45;&gt;Node4</title>
<path fill="none" stroke="#191970" d="M1210.5759,-57.5101C1207.4645,-56.9362 1204.3552,-56.4204 1201.3432,-56 931.0489,-18.2777 860.4709,-40.7007 588.3432,-20 563.6753,-18.1235 535.8552,-15.5081 514.7662,-13.4226"/>
<polygon fill="#191970" stroke="#191970" points="514.9998,-9.9286 504.7014,-12.4171 514.3039,-16.894 514.9998,-9.9286"/>
</g>
<!-- Node28&#45;&gt;Node8 -->
<g id="edge50" class="edge">
<title>Node28&#45;&gt;Node8</title>
<path fill="none" stroke="#191970" d="M1210.5574,-57.634C1207.45,-57.0333 1204.3467,-56.4773 1201.3432,-56 1041.0393,-30.524 847.9033,-17.1004 766.0703,-12.2025"/>
<polygon fill="#191970" stroke="#191970" points="766.1516,-8.7013 755.9631,-11.6072 765.74,-15.6892 766.1516,-8.7013"/>
</g>
<!-- Node28&#45;&gt;Node12 -->
<g id="edge48" class="edge">
<title>Node28&#45;&gt;Node12</title>
<path fill="none" stroke="#191970" d="M1210.4847,-58.0178C1207.3931,-57.3338 1204.3133,-56.6538 1201.3432,-56 1139.2336,-42.3288 1066.7949,-26.5789 1024.9834,-17.5072"/>
<polygon fill="#191970" stroke="#191970" points="1025.5529,-14.0494 1015.0382,-15.3501 1024.069,-20.8904 1025.5529,-14.0494"/>
</g>
<!-- Node28&#45;&gt;Node27 -->
<g id="edge52" class="edge">
<title>Node28&#45;&gt;Node27</title>
<path fill="none" stroke="#191970" d="M1270.9258,-56.3733C1294.8593,-47.0007 1331.3498,-32.7107 1357.4952,-22.472"/>
<polygon fill="#191970" stroke="#191970" points="1358.9262,-25.6704 1366.9614,-18.7649 1356.3737,-19.1524 1358.9262,-25.6704"/>
</g>
<!-- Node29 -->
<g id="node30" class="node">
<title>Node29</title>
<polygon fill="none" stroke="#bfbfbf" points="1226.3432,-.5 1226.3432,-19.5 1266.3432,-19.5 1266.3432,-.5 1226.3432,-.5"/>
<text text-anchor="middle" x="1246.3432" y="-7.5" font-family="Helvetica,sans-Serif" font-size="10.00" fill="#000000">utility</text>
</g>
<!-- Node28&#45;&gt;Node29 -->
<g id="edge51" class="edge">
<title>Node28&#45;&gt;Node29</title>
<path fill="none" stroke="#191970" d="M1246.3432,-56.2455C1246.3432,-48.9382 1246.3432,-38.6944 1246.3432,-29.7046"/>
<polygon fill="#191970" stroke="#191970" points="1249.8433,-29.6426 1246.3432,-19.6427 1242.8433,-29.6427 1249.8433,-29.6426"/>
</g>
<!-- Node31 -->
<g id="node32" class="node">
<title>Node31</title>
<polygon fill="none" stroke="#bfbfbf" points="1513.3432,-.5 1513.3432,-19.5 1559.3432,-19.5 1559.3432,-.5 1513.3432,-.5"/>
<text text-anchor="middle" x="1536.3432" y="-7.5" font-family="Helvetica,sans-Serif" font-size="10.00" fill="#000000">atomic</text>
</g>
<!-- Node30&#45;&gt;Node31 -->
<g id="edge56" class="edge">
<title>Node30&#45;&gt;Node31</title>
<path fill="none" stroke="#191970" d="M1536.3432,-56.2455C1536.3432,-48.9382 1536.3432,-38.6944 1536.3432,-29.7046"/>
<polygon fill="#191970" stroke="#191970" points="1539.8433,-29.6426 1536.3432,-19.6427 1532.8433,-29.6427 1539.8433,-29.6426"/>
</g>
<!-- Node32&#45;&gt;Node1 -->
<g id="edge61" class="edge">
<title>Node32&#45;&gt;Node1</title>
<path fill="none" stroke="#191970" d="M110.9309,-168.2455C99.3375,-159.814 82.3685,-147.4729 68.8754,-137.6598"/>
<polygon fill="#191970" stroke="#191970" points="70.7479,-134.6938 60.6019,-131.6427 66.6307,-140.355 70.7479,-134.6938"/>
</g>
<!-- Node32&#45;&gt;Node4 -->
<g id="edge60" class="edge">
<title>Node32&#45;&gt;Node4</title>
<path fill="none" stroke="#191970" d="M123.5864,-168.2392C122.3633,-144.8258 122.874,-85.2523 156.3432,-56 203.6147,-14.6844 370.035,-32.1528 448.0937,-19.6809"/>
<polygon fill="#191970" stroke="#191970" points="448.8716,-23.0961 458.0546,-17.8119 447.5806,-16.2162 448.8716,-23.0961"/>
</g>
</g>
</svg>
