<?xml version="1.0" encoding="UTF-8" standalone="no"?>
<!DOCTYPE svg PUBLIC "-//W3C//DTD SVG 1.1//EN"
 "http://www.w3.org/Graphics/SVG/1.1/DTD/svg11.dtd">
<!-- Generated by graphviz version 2.40.1 (20161225.0304)
 -->
<!-- Title: HelloBye3_Client_process Pages: 1 -->
<svg width="455pt" height="47pt"
 viewBox="0.00 0.00 455.00 47.00" xmlns="http://www.w3.org/2000/svg" xmlns:xlink="http://www.w3.org/1999/xlink">
<g id="graph0" class="graph" transform="scale(1 1) rotate(0) translate(4 43)">
<title>HelloBye3_Client_process</title>
<!-- Node29 -->
<g id="node1" class="node">
<title>Node29</title>
<polygon fill="#bfbfbf" stroke="#000000" points="0,-19.5 0,-38.5 132,-38.5 132,-19.5 0,-19.5"/>
<text text-anchor="middle" x="66" y="-26.5" font-family="Helvetica,sans-Serif" font-size="10.00" fill="#000000">HelloBye3_Client_process</text>
</g>
<!-- Node30 -->
<g id="node2" class="node">
<title>Node30</title>
<g id="a_node2"><a xlink:href="classBufArray.html#a1d52cd9f63feaa98f800bcae8277e675" target="_top" xlink:title="Get the number of packets currently marked as send. ">
<polygon fill="none" stroke="#000000" points="324,-19.5 324,-38.5 447,-38.5 447,-19.5 324,-19.5"/>
<text text-anchor="middle" x="385.5" y="-26.5" font-family="Helvetica,sans-Serif" font-size="10.00" fill="#000000">BufArray::getSendCount</text>
</a>
</g>
</g>
<!-- Node29&#45;&gt;Node30 -->
<g id="edge1" class="edge">
<title>Node29&#45;&gt;Node30</title>
<path fill="none" stroke="#191970" d="M132.2006,-29C185.1742,-29 259.338,-29 313.7285,-29"/>
<polygon fill="#191970" stroke="#191970" points="313.9874,-32.5001 323.9873,-29 313.9873,-25.5001 313.9874,-32.5001"/>
</g>
<!-- Node31 -->
<g id="node3" class="node">
<title>Node31</title>
<g id="a_node3"><a xlink:href="classBufArray.html#a77223130b4dca30992a335dbff4b4781" target="_top" xlink:title="Get the number of packets currently marked as free. ">
<polygon fill="none" stroke="#000000" points="168,-.5 168,-19.5 288,-19.5 288,-.5 168,-.5"/>
<text text-anchor="middle" x="228" y="-7.5" font-family="Helvetica,sans-Serif" font-size="10.00" fill="#000000">BufArray::getFreeCount</text>
</a>
</g>
</g>
<!-- Node29&#45;&gt;Node31 -->
<g id="edge2" class="edge">
<title>Node29&#45;&gt;Node31</title>
<path fill="none" stroke="#191970" d="M132.359,-21.2172C140.7454,-20.2336 149.3485,-19.2246 157.7922,-18.2343"/>
<polygon fill="#191970" stroke="#191970" points="158.4632,-21.6796 167.9874,-17.0385 157.6477,-14.7273 158.4632,-21.6796"/>
</g>
<!-- Node31&#45;&gt;Node30 -->
<g id="edge3" class="edge">
<title>Node31&#45;&gt;Node30</title>
<path fill="none" stroke="#191970" d="M288.4432,-17.2916C296.7983,-18.2995 305.4444,-19.3425 313.9764,-20.3718"/>
<polygon fill="#191970" stroke="#191970" points="313.5684,-23.8478 323.9156,-21.5708 314.4068,-16.8982 313.5684,-23.8478"/>
</g>
</g>
</svg>
