<?xml version="1.0" encoding="UTF-8" standalone="no"?>
<!DOCTYPE svg PUBLIC "-//W3C//DTD SVG 1.1//EN"
 "http://www.w3.org/Graphics/SVG/1.1/DTD/svg11.dtd">
<!-- Generated by graphviz version 2.40.1 (20161225.0304)
 -->
<!-- Title: HelloBye2_Client_process Pages: 1 -->
<svg width="472pt" height="104pt"
 viewBox="0.00 0.00 472.00 104.00" xmlns="http://www.w3.org/2000/svg" xmlns:xlink="http://www.w3.org/1999/xlink">
<g id="graph0" class="graph" transform="scale(1 1) rotate(0) translate(4 100)">
<title>HelloBye2_Client_process</title>
<!-- Node13 -->
<g id="node1" class="node">
<title>Node13</title>
<polygon fill="#bfbfbf" stroke="#000000" points="0,-38.5 0,-57.5 132,-57.5 132,-38.5 0,-38.5"/>
<text text-anchor="middle" x="66" y="-45.5" font-family="Helvetica,sans-Serif" font-size="10.00" fill="#000000">HelloBye2_Client_process</text>
</g>
<!-- Node14 -->
<g id="node2" class="node">
<title>Node14</title>
<g id="a_node2"><a xlink:href="classStateMachine.html#aa1eae1413acf399a997e587c905e14aa" target="_top" xlink:title="Run a batch of packets. ">
<polygon fill="none" stroke="#000000" points="168,-76.5 168,-95.5 305,-95.5 305,-76.5 168,-76.5"/>
<text text-anchor="middle" x="236.5" y="-83.5" font-family="Helvetica,sans-Serif" font-size="10.00" fill="#000000">StateMachine::runPktBatch</text>
</a>
</g>
</g>
<!-- Node13&#45;&gt;Node14 -->
<g id="edge1" class="edge">
<title>Node13&#45;&gt;Node14</title>
<path fill="none" stroke="#191970" d="M109.0243,-57.589C131.7264,-62.6487 159.7732,-68.8996 183.774,-74.2488"/>
<polygon fill="#191970" stroke="#191970" points="183.2631,-77.7207 193.785,-76.4799 184.7859,-70.8883 183.2631,-77.7207"/>
</g>
<!-- Node15 -->
<g id="node3" class="node">
<title>Node15</title>
<g id="a_node3"><a xlink:href="classBufArray.html#a1d52cd9f63feaa98f800bcae8277e675" target="_top" xlink:title="Get the number of packets currently marked as send. ">
<polygon fill="none" stroke="#000000" points="341,-19.5 341,-38.5 464,-38.5 464,-19.5 341,-19.5"/>
<text text-anchor="middle" x="402.5" y="-26.5" font-family="Helvetica,sans-Serif" font-size="10.00" fill="#000000">BufArray::getSendCount</text>
</a>
</g>
</g>
<!-- Node13&#45;&gt;Node15 -->
<g id="edge2" class="edge">
<title>Node13&#45;&gt;Node15</title>
<path fill="none" stroke="#191970" d="M132.0801,-44.2689C189.2276,-41.0421 271.6842,-36.3863 330.498,-33.0655"/>
<polygon fill="#191970" stroke="#191970" points="331.0387,-36.5406 340.8255,-32.4824 330.644,-29.5518 331.0387,-36.5406"/>
</g>
<!-- Node16 -->
<g id="node4" class="node">
<title>Node16</title>
<g id="a_node4"><a xlink:href="classBufArray.html#a77223130b4dca30992a335dbff4b4781" target="_top" xlink:title="Get the number of packets currently marked as free. ">
<polygon fill="none" stroke="#000000" points="176.5,-.5 176.5,-19.5 296.5,-19.5 296.5,-.5 176.5,-.5"/>
<text text-anchor="middle" x="236.5" y="-7.5" font-family="Helvetica,sans-Serif" font-size="10.00" fill="#000000">BufArray::getFreeCount</text>
</a>
</g>
</g>
<!-- Node13&#45;&gt;Node16 -->
<g id="edge3" class="edge">
<title>Node13&#45;&gt;Node16</title>
<path fill="none" stroke="#191970" d="M109.0243,-38.411C131.7264,-33.3513 159.7732,-27.1004 183.774,-21.7512"/>
<polygon fill="#191970" stroke="#191970" points="184.7859,-25.1117 193.785,-19.5201 183.2631,-18.2793 184.7859,-25.1117"/>
</g>
<!-- Node16&#45;&gt;Node15 -->
<g id="edge4" class="edge">
<title>Node16&#45;&gt;Node15</title>
<path fill="none" stroke="#191970" d="M296.8994,-16.9132C307.8296,-18.1642 319.3258,-19.4801 330.5476,-20.7645"/>
<polygon fill="#191970" stroke="#191970" points="330.4191,-24.2725 340.7522,-21.9325 331.2151,-17.3179 330.4191,-24.2725"/>
</g>
</g>
</svg>
