<?xml version="1.0" encoding="UTF-8" standalone="no"?>
<!DOCTYPE svg PUBLIC "-//W3C//DTD SVG 1.1//EN"
 "http://www.w3.org/Graphics/SVG/1.1/DTD/svg11.dtd">
<!-- Generated by graphviz version 2.40.1 (20161225.0304)
 -->
<!-- Title: HelloBye3MemPool_Server_getPkts Pages: 1 -->
<svg width="610pt" height="66pt"
 viewBox="0.00 0.00 610.00 66.00" xmlns="http://www.w3.org/2000/svg" xmlns:xlink="http://www.w3.org/1999/xlink">
<g id="graph0" class="graph" transform="scale(1 1) rotate(0) translate(4 62)">
<title>HelloBye3MemPool_Server_getPkts</title>
<!-- Node32 -->
<g id="node1" class="node">
<title>Node32</title>
<polygon fill="#bfbfbf" stroke="#000000" points="0,-14 0,-44 137,-44 137,-14 0,-14"/>
<text text-anchor="start" x="8" y="-32" font-family="Helvetica,sans-Serif" font-size="10.00" fill="#000000">HelloBye3MemPool_Server</text>
<text text-anchor="middle" x="68.5" y="-21" font-family="Helvetica,sans-Serif" font-size="10.00" fill="#000000">_getPkts</text>
</g>
<!-- Node33 -->
<g id="node2" class="node">
<title>Node33</title>
<g id="a_node2"><a xlink:href="classBufArray.html#a65ec6fb832e58b88b2be695c4d30a437" target="_top" xlink:title="Get all the packets which are to be sent. ">
<polygon fill="none" stroke="#000000" points="324.5,-38.5 324.5,-57.5 441.5,-57.5 441.5,-38.5 324.5,-38.5"/>
<text text-anchor="middle" x="383" y="-45.5" font-family="Helvetica,sans-Serif" font-size="10.00" fill="#000000">BufArray::getSendBufs</text>
</a>
</g>
</g>
<!-- Node32&#45;&gt;Node33 -->
<g id="edge1" class="edge">
<title>Node32&#45;&gt;Node33</title>
<path fill="none" stroke="#191970" d="M137.1297,-33.1462C189.5722,-36.3144 261.5393,-40.6622 314.0589,-43.835"/>
<polygon fill="#191970" stroke="#191970" points="314.0991,-47.3438 324.292,-44.4533 314.5213,-40.3565 314.0991,-47.3438"/>
</g>
<!-- Node35 -->
<g id="node4" class="node">
<title>Node35</title>
<g id="a_node4"><a xlink:href="classBufArray.html#a81ad0c7cdb324569ecfb42e735e653c9" target="_top" xlink:title="Get all the packets which are to be freed. ">
<polygon fill="none" stroke="#000000" points="173,-.5 173,-19.5 287,-19.5 287,-.5 173,-.5"/>
<text text-anchor="middle" x="230" y="-7.5" font-family="Helvetica,sans-Serif" font-size="10.00" fill="#000000">BufArray::getFreeBufs</text>
</a>
</g>
</g>
<!-- Node32&#45;&gt;Node35 -->
<g id="edge3" class="edge">
<title>Node32&#45;&gt;Node35</title>
<path fill="none" stroke="#191970" d="M137.459,-20.8872C145.8702,-19.8976 154.4558,-18.8876 162.8402,-17.9012"/>
<polygon fill="#191970" stroke="#191970" points="163.4197,-21.3572 172.9422,-16.7127 162.6017,-14.4052 163.4197,-21.3572"/>
</g>
<!-- Node34 -->
<g id="node3" class="node">
<title>Node34</title>
<g id="a_node3"><a xlink:href="classBufArray.html#a1d52cd9f63feaa98f800bcae8277e675" target="_top" xlink:title="Get the number of packets currently marked as send. ">
<polygon fill="none" stroke="#000000" points="479,-19.5 479,-38.5 602,-38.5 602,-19.5 479,-19.5"/>
<text text-anchor="middle" x="540.5" y="-26.5" font-family="Helvetica,sans-Serif" font-size="10.00" fill="#000000">BufArray::getSendCount</text>
</a>
</g>
</g>
<!-- Node33&#45;&gt;Node34 -->
<g id="edge2" class="edge">
<title>Node33&#45;&gt;Node34</title>
<path fill="none" stroke="#191970" d="M441.6472,-40.9251C450.48,-39.8596 459.6743,-38.7504 468.744,-37.6563"/>
<polygon fill="#191970" stroke="#191970" points="469.3962,-41.1031 478.905,-36.4305 468.5578,-34.1535 469.3962,-41.1031"/>
</g>
<!-- Node36 -->
<g id="node5" class="node">
<title>Node36</title>
<g id="a_node5"><a xlink:href="classBufArray.html#a77223130b4dca30992a335dbff4b4781" target="_top" xlink:title="Get the number of packets currently marked as free. ">
<polygon fill="none" stroke="#000000" points="323,-.5 323,-19.5 443,-19.5 443,-.5 323,-.5"/>
<text text-anchor="middle" x="383" y="-7.5" font-family="Helvetica,sans-Serif" font-size="10.00" fill="#000000">BufArray::getFreeCount</text>
</a>
</g>
</g>
<!-- Node35&#45;&gt;Node36 -->
<g id="edge4" class="edge">
<title>Node35&#45;&gt;Node36</title>
<path fill="none" stroke="#191970" d="M287.4069,-10C295.6656,-10 304.2416,-10 312.7151,-10"/>
<polygon fill="#191970" stroke="#191970" points="312.9721,-13.5001 322.972,-10 312.972,-6.5001 312.9721,-13.5001"/>
</g>
<!-- Node36&#45;&gt;Node34 -->
<g id="edge5" class="edge">
<title>Node36&#45;&gt;Node34</title>
<path fill="none" stroke="#191970" d="M443.4432,-17.2916C451.7983,-18.2995 460.4444,-19.3425 468.9764,-20.3718"/>
<polygon fill="#191970" stroke="#191970" points="468.5684,-23.8478 478.9156,-21.5708 469.4068,-16.8982 468.5684,-23.8478"/>
</g>
</g>
</svg>
