<?xml version="1.0" encoding="UTF-8" standalone="no"?>
<!DOCTYPE svg PUBLIC "-//W3C//DTD SVG 1.1//EN"
 "http://www.w3.org/Graphics/SVG/1.1/DTD/svg11.dtd">
<!-- Generated by graphviz version 2.38.0 (20140413.2041)
 -->
<!-- Title: HelloByeClient_getPkts Pages: 1 -->
<svg width="594pt" height="66pt"
 viewBox="0.00 0.00 594.00 66.00" xmlns="http://www.w3.org/2000/svg" xmlns:xlink="http://www.w3.org/1999/xlink">
<g id="graph0" class="graph" transform="scale(1 1) rotate(0) translate(4 62)">
<title>HelloByeClient_getPkts</title>
<!-- Node1 -->
<g id="node1" class="node"><title>Node1</title>
<polygon fill="#bfbfbf" stroke="black" points="0,-19.5 0,-38.5 121,-38.5 121,-19.5 0,-19.5"/>
<text text-anchor="middle" x="60.5" y="-26.5" font-family="Helvetica,sans-Serif" font-size="10.00">HelloByeClient_getPkts</text>
</g>
<!-- Node2 -->
<g id="node2" class="node"><title>Node2</title>
<g id="a_node2"><a xlink:href="classBufArray.html#a615b6c144c343ca7337a6ef22abbea83" target="_top" xlink:title="Get all the packets which are to be sent. ">
<polygon fill="none" stroke="black" points="308.5,-38.5 308.5,-57.5 425.5,-57.5 425.5,-38.5 308.5,-38.5"/>
<text text-anchor="middle" x="367" y="-45.5" font-family="Helvetica,sans-Serif" font-size="10.00">BufArray::getSendBufs</text>
</a>
</g>
</g>
<!-- Node1&#45;&gt;Node2 -->
<g id="edge1" class="edge"><title>Node1&#45;&gt;Node2</title>
<path fill="none" stroke="midnightblue" d="M121.296,-32.7311C172.225,-35.909 245.368,-40.4729 298.411,-43.7826"/>
<polygon fill="midnightblue" stroke="midnightblue" points="298.206,-47.2766 308.405,-44.4062 298.642,-40.2902 298.206,-47.2766"/>
</g>
<!-- Node4 -->
<g id="node4" class="node"><title>Node4</title>
<g id="a_node4"><a xlink:href="classBufArray.html#aa29b07f7f2d34072da0fafb38e0ccfa5" target="_top" xlink:title="Get all the packets which are to be freed. ">
<polygon fill="none" stroke="black" points="157,-0.5 157,-19.5 271,-19.5 271,-0.5 157,-0.5"/>
<text text-anchor="middle" x="214" y="-7.5" font-family="Helvetica,sans-Serif" font-size="10.00">BufArray::getFreeBufs</text>
</a>
</g>
</g>
<!-- Node1&#45;&gt;Node4 -->
<g id="edge3" class="edge"><title>Node1&#45;&gt;Node4</title>
<path fill="none" stroke="midnightblue" d="M121.377,-21.4907C129.609,-20.4583 138.103,-19.393 146.446,-18.3467"/>
<polygon fill="midnightblue" stroke="midnightblue" points="147.033,-21.8006 156.52,-17.0833 146.162,-14.855 147.033,-21.8006"/>
</g>
<!-- Node3 -->
<g id="node3" class="node"><title>Node3</title>
<g id="a_node3"><a xlink:href="classBufArray.html#a7570e31b14ed3d44f5b60b3a9e8afee5" target="_top" xlink:title="Get the number of packets currently marked as send. ">
<polygon fill="none" stroke="black" points="463,-19.5 463,-38.5 586,-38.5 586,-19.5 463,-19.5"/>
<text text-anchor="middle" x="524.5" y="-26.5" font-family="Helvetica,sans-Serif" font-size="10.00">BufArray::getSendCount</text>
</a>
</g>
</g>
<!-- Node2&#45;&gt;Node3 -->
<g id="edge2" class="edge"><title>Node2&#45;&gt;Node3</title>
<path fill="none" stroke="midnightblue" d="M425.902,-40.9251C434.686,-39.8519 443.831,-38.7344 452.848,-37.6327"/>
<polygon fill="midnightblue" stroke="midnightblue" points="453.447,-41.0857 462.948,-36.3986 452.598,-34.1374 453.447,-41.0857"/>
</g>
<!-- Node5 -->
<g id="node5" class="node"><title>Node5</title>
<g id="a_node5"><a xlink:href="classBufArray.html#a5b533f3c7add88f873d41e841fc55136" target="_top" xlink:title="Get the number of packets currently marked as free. ">
<polygon fill="none" stroke="black" points="307,-0.5 307,-19.5 427,-19.5 427,-0.5 307,-0.5"/>
<text text-anchor="middle" x="367" y="-7.5" font-family="Helvetica,sans-Serif" font-size="10.00">BufArray::getFreeCount</text>
</a>
</g>
</g>
<!-- Node4&#45;&gt;Node5 -->
<g id="edge4" class="edge"><title>Node4&#45;&gt;Node5</title>
<path fill="none" stroke="midnightblue" d="M271.227,-10C279.604,-10 288.32,-10 296.925,-10"/>
<polygon fill="midnightblue" stroke="midnightblue" points="296.947,-13.5001 306.947,-10 296.947,-6.5001 296.947,-13.5001"/>
</g>
<!-- Node5&#45;&gt;Node3 -->
<g id="edge5" class="edge"><title>Node5&#45;&gt;Node3</title>
<path fill="none" stroke="midnightblue" d="M427.231,-17.2373C435.621,-18.2624 444.316,-19.3248 452.895,-20.373"/>
<polygon fill="midnightblue" stroke="midnightblue" points="452.535,-23.855 462.886,-21.5937 453.384,-16.9066 452.535,-23.855"/>
</g>
</g>
</svg>
