<?xml version="1.0" encoding="UTF-8" standalone="no"?>
<!DOCTYPE svg PUBLIC "-//W3C//DTD SVG 1.1//EN"
 "http://www.w3.org/Graphics/SVG/1.1/DTD/svg11.dtd">
<!-- Generated by graphviz version 2.38.0 (20140413.2041)
 -->
<!-- Title: HelloBye2_Server_getPkts Pages: 1 -->
<svg width="607pt" height="66pt"
 viewBox="0.00 0.00 607.00 66.00" xmlns="http://www.w3.org/2000/svg" xmlns:xlink="http://www.w3.org/1999/xlink">
<g id="graph0" class="graph" transform="scale(1 1) rotate(0) translate(4 62)">
<title>HelloBye2_Server_getPkts</title>
<!-- Node1 -->
<g id="node1" class="node"><title>Node1</title>
<polygon fill="#bfbfbf" stroke="black" points="0,-19.5 0,-38.5 134,-38.5 134,-19.5 0,-19.5"/>
<text text-anchor="middle" x="67" y="-26.5" font-family="Helvetica,sans-Serif" font-size="10.00">HelloBye2_Server_getPkts</text>
</g>
<!-- Node2 -->
<g id="node2" class="node"><title>Node2</title>
<g id="a_node2"><a xlink:href="classBufArray.html#a615b6c144c343ca7337a6ef22abbea83" target="_top" xlink:title="Get all the packets which are to be sent. ">
<polygon fill="none" stroke="black" points="321.5,-38.5 321.5,-57.5 438.5,-57.5 438.5,-38.5 321.5,-38.5"/>
<text text-anchor="middle" x="380" y="-45.5" font-family="Helvetica,sans-Serif" font-size="10.00">BufArray::getSendBufs</text>
</a>
</g>
</g>
<!-- Node1&#45;&gt;Node2 -->
<g id="edge1" class="edge"><title>Node1&#45;&gt;Node2</title>
<path fill="none" stroke="midnightblue" d="M134.336,-33.0527C186.432,-36.2354 258.695,-40.6502 311.172,-43.8562"/>
<polygon fill="midnightblue" stroke="midnightblue" points="311.197,-47.3641 321.392,-44.4805 311.624,-40.3771 311.197,-47.3641"/>
</g>
<!-- Node4 -->
<g id="node4" class="node"><title>Node4</title>
<g id="a_node4"><a xlink:href="classBufArray.html#aa29b07f7f2d34072da0fafb38e0ccfa5" target="_top" xlink:title="Get all the packets which are to be freed. ">
<polygon fill="none" stroke="black" points="170,-0.5 170,-19.5 284,-19.5 284,-0.5 170,-0.5"/>
<text text-anchor="middle" x="227" y="-7.5" font-family="Helvetica,sans-Serif" font-size="10.00">BufArray::getFreeBufs</text>
</a>
</g>
</g>
<!-- Node1&#45;&gt;Node4 -->
<g id="edge3" class="edge"><title>Node1&#45;&gt;Node4</title>
<path fill="none" stroke="midnightblue" d="M134.091,-21.0524C142.507,-20.0403 151.125,-19.004 159.547,-17.9912"/>
<polygon fill="midnightblue" stroke="midnightblue" points="160.187,-21.4396 169.697,-16.7706 159.351,-14.4896 160.187,-21.4396"/>
</g>
<!-- Node3 -->
<g id="node3" class="node"><title>Node3</title>
<g id="a_node3"><a xlink:href="classBufArray.html#a7570e31b14ed3d44f5b60b3a9e8afee5" target="_top" xlink:title="Get the number of packets currently marked as send. ">
<polygon fill="none" stroke="black" points="476,-19.5 476,-38.5 599,-38.5 599,-19.5 476,-19.5"/>
<text text-anchor="middle" x="537.5" y="-26.5" font-family="Helvetica,sans-Serif" font-size="10.00">BufArray::getSendCount</text>
</a>
</g>
</g>
<!-- Node2&#45;&gt;Node3 -->
<g id="edge2" class="edge"><title>Node2&#45;&gt;Node3</title>
<path fill="none" stroke="midnightblue" d="M438.902,-40.9251C447.686,-39.8519 456.831,-38.7344 465.848,-37.6327"/>
<polygon fill="midnightblue" stroke="midnightblue" points="466.447,-41.0857 475.948,-36.3986 465.598,-34.1374 466.447,-41.0857"/>
</g>
<!-- Node5 -->
<g id="node5" class="node"><title>Node5</title>
<g id="a_node5"><a xlink:href="classBufArray.html#a5b533f3c7add88f873d41e841fc55136" target="_top" xlink:title="Get the number of packets currently marked as free. ">
<polygon fill="none" stroke="black" points="320,-0.5 320,-19.5 440,-19.5 440,-0.5 320,-0.5"/>
<text text-anchor="middle" x="380" y="-7.5" font-family="Helvetica,sans-Serif" font-size="10.00">BufArray::getFreeCount</text>
</a>
</g>
</g>
<!-- Node4&#45;&gt;Node5 -->
<g id="edge4" class="edge"><title>Node4&#45;&gt;Node5</title>
<path fill="none" stroke="midnightblue" d="M284.227,-10C292.604,-10 301.32,-10 309.925,-10"/>
<polygon fill="midnightblue" stroke="midnightblue" points="309.947,-13.5001 319.947,-10 309.947,-6.5001 309.947,-13.5001"/>
</g>
<!-- Node5&#45;&gt;Node3 -->
<g id="edge5" class="edge"><title>Node5&#45;&gt;Node3</title>
<path fill="none" stroke="midnightblue" d="M440.231,-17.2373C448.621,-18.2624 457.316,-19.3248 465.895,-20.373"/>
<polygon fill="midnightblue" stroke="midnightblue" points="465.535,-23.855 475.886,-21.5937 466.384,-16.9066 465.535,-23.855"/>
</g>
</g>
</svg>
