<?xml version="1.0" encoding="UTF-8" standalone="no"?>
<!DOCTYPE svg PUBLIC "-//W3C//DTD SVG 1.1//EN"
 "http://www.w3.org/Graphics/SVG/1.1/DTD/svg11.dtd">
<!-- Generated by graphviz version 2.38.0 (20140413.2041)
 -->
<!-- Title: /home/dominik/uni/MoonState/src/helloByeProtoStatic.cpp Pages: 1 -->
<svg width="1647pt" height="319pt"
 viewBox="0.00 0.00 1647.23 319.00" xmlns="http://www.w3.org/2000/svg" xmlns:xlink="http://www.w3.org/1999/xlink">
<g id="graph0" class="graph" transform="scale(1 1) rotate(0) translate(4 315)">
<title>/home/dominik/uni/MoonState/src/helloByeProtoStatic.cpp</title>
<!-- Node1 -->
<g id="node1" class="node"><title>Node1</title>
<polygon fill="#bfbfbf" stroke="black" points="1148,-280.5 1148,-310.5 1295,-310.5 1295,-280.5 1148,-280.5"/>
<text text-anchor="start" x="1156" y="-298.5" font-family="Helvetica,sans-Serif" font-size="10.00">/home/dominik/uni/MoonState</text>
<text text-anchor="middle" x="1221.5" y="-287.5" font-family="Helvetica,sans-Serif" font-size="10.00">/src/helloByeProtoStatic.cpp</text>
</g>
<!-- Node2 -->
<g id="node2" class="node"><title>Node2</title>
<g id="a_node2"><a xlink:href="helloByeProto_8hpp.html" target="_top" xlink:title="helloByeProto.hpp">
<polygon fill="none" stroke="black" points="1173.5,-224.5 1173.5,-243.5 1269.5,-243.5 1269.5,-224.5 1173.5,-224.5"/>
<text text-anchor="middle" x="1221.5" y="-231.5" font-family="Helvetica,sans-Serif" font-size="10.00">helloByeProto.hpp</text>
</a>
</g>
</g>
<!-- Node1&#45;&gt;Node2 -->
<g id="edge1" class="edge"><title>Node1&#45;&gt;Node2</title>
<path fill="none" stroke="midnightblue" d="M1221.5,-280.399C1221.5,-272.466 1221.5,-262.458 1221.5,-253.858"/>
<polygon fill="midnightblue" stroke="midnightblue" points="1225,-253.658 1221.5,-243.658 1218,-253.658 1225,-253.658"/>
</g>
<!-- Node3 -->
<g id="node3" class="node"><title>Node3</title>
<g id="a_node3"><a xlink:href="common_8hpp.html" target="_top" xlink:title="common.hpp">
<polygon fill="none" stroke="black" points="1053,-56.5 1053,-75.5 1126,-75.5 1126,-56.5 1053,-56.5"/>
<text text-anchor="middle" x="1089.5" y="-63.5" font-family="Helvetica,sans-Serif" font-size="10.00">common.hpp</text>
</a>
</g>
</g>
<!-- Node2&#45;&gt;Node3 -->
<g id="edge2" class="edge"><title>Node2&#45;&gt;Node3</title>
<path fill="none" stroke="midnightblue" d="M1207.4,-224.262C1183.47,-208.695 1134.9,-173.835 1108.5,-132 1099.58,-117.862 1094.71,-99.3774 1092.14,-85.7357"/>
<polygon fill="midnightblue" stroke="midnightblue" points="1095.55,-84.9215 1090.48,-75.6175 1088.64,-86.0513 1095.55,-84.9215"/>
</g>
<!-- Node5 -->
<g id="node5" class="node"><title>Node5</title>
<g id="a_node5"><a xlink:href="stateMachine_8hpp.html" target="_top" xlink:title="stateMachine.hpp">
<polygon fill="none" stroke="black" points="555.5,-112.5 555.5,-131.5 649.5,-131.5 649.5,-112.5 555.5,-112.5"/>
<text text-anchor="middle" x="602.5" y="-119.5" font-family="Helvetica,sans-Serif" font-size="10.00">stateMachine.hpp</text>
</a>
</g>
</g>
<!-- Node2&#45;&gt;Node5 -->
<g id="edge4" class="edge"><title>Node2&#45;&gt;Node5</title>
<path fill="none" stroke="midnightblue" d="M1173.44,-224.46C1060.97,-204.473 780.989,-154.719 659.856,-133.193"/>
<polygon fill="midnightblue" stroke="midnightblue" points="660.136,-129.687 649.677,-131.384 658.911,-136.579 660.136,-129.687"/>
</g>
<!-- Node24 -->
<g id="node24" class="node"><title>Node24</title>
<g id="a_node24"><a xlink:href="helloByeProto_8cpp.html" target="_top" xlink:title="../src/helloByeProto.cpp">
<polygon fill="none" stroke="black" points="1293.5,-168.5 1293.5,-187.5 1415.5,-187.5 1415.5,-168.5 1293.5,-168.5"/>
<text text-anchor="middle" x="1354.5" y="-175.5" font-family="Helvetica,sans-Serif" font-size="10.00">../src/helloByeProto.cpp</text>
</a>
</g>
</g>
<!-- Node2&#45;&gt;Node24 -->
<g id="edge27" class="edge"><title>Node2&#45;&gt;Node24</title>
<path fill="none" stroke="midnightblue" d="M1237.49,-224.444C1257.6,-215.478 1292.27,-201.314 1318.74,-191.183"/>
<polygon fill="midnightblue" stroke="midnightblue" points="1320.33,-194.326 1328.44,-187.516 1317.85,-187.778 1320.33,-194.326"/>
</g>
<!-- Node4 -->
<g id="node4" class="node"><title>Node4</title>
<polygon fill="none" stroke="#bfbfbf" points="1184.5,-0.5 1184.5,-19.5 1230.5,-19.5 1230.5,-0.5 1184.5,-0.5"/>
<text text-anchor="middle" x="1207.5" y="-7.5" font-family="Helvetica,sans-Serif" font-size="10.00">cstdint</text>
</g>
<!-- Node3&#45;&gt;Node4 -->
<g id="edge3" class="edge"><title>Node3&#45;&gt;Node4</title>
<path fill="none" stroke="midnightblue" d="M1108.2,-56.4435C1127.44,-47.6356 1157.65,-33.8116 1179.7,-23.722"/>
<polygon fill="midnightblue" stroke="midnightblue" points="1181.25,-26.8603 1188.89,-19.5164 1178.34,-20.4951 1181.25,-26.8603"/>
</g>
<!-- Node5&#45;&gt;Node3 -->
<g id="edge21" class="edge"><title>Node5&#45;&gt;Node3</title>
<path fill="none" stroke="midnightblue" d="M649.668,-117.612C728.727,-111.623 893.164,-97.8377 1042.62,-75.9941"/>
<polygon fill="midnightblue" stroke="midnightblue" points="1043.51,-79.3998 1052.89,-74.4756 1042.49,-72.475 1043.51,-79.3998"/>
</g>
<!-- Node5&#45;&gt;Node4 -->
<g id="edge7" class="edge"><title>Node5&#45;&gt;Node4</title>
<path fill="none" stroke="midnightblue" d="M649.517,-116.817C700.928,-111.282 785.226,-99.3632 854.5,-76 872.958,-69.7748 874.938,-61.9071 893.5,-56 992.553,-24.4784 1116.24,-14.976 1174.39,-12.1588"/>
<polygon fill="midnightblue" stroke="midnightblue" points="1174.63,-15.6516 1184.46,-11.7068 1174.31,-8.65867 1174.63,-15.6516"/>
</g>
<!-- Node6 -->
<g id="node6" class="node"><title>Node6</title>
<polygon fill="none" stroke="#bfbfbf" points="0,-56.5 0,-75.5 49,-75.5 49,-56.5 0,-56.5"/>
<text text-anchor="middle" x="24.5" y="-63.5" font-family="Helvetica,sans-Serif" font-size="10.00">cassert</text>
</g>
<!-- Node5&#45;&gt;Node6 -->
<g id="edge5" class="edge"><title>Node5&#45;&gt;Node6</title>
<path fill="none" stroke="midnightblue" d="M555.471,-120.022C462.275,-117.457 247.55,-108.434 59.3323,-76.0377"/>
<polygon fill="midnightblue" stroke="midnightblue" points="59.7088,-72.5506 49.2555,-74.2763 58.5034,-79.446 59.7088,-72.5506"/>
</g>
<!-- Node7 -->
<g id="node7" class="node"><title>Node7</title>
<polygon fill="none" stroke="#bfbfbf" points="156.5,-56.5 156.5,-75.5 202.5,-75.5 202.5,-56.5 156.5,-56.5"/>
<text text-anchor="middle" x="179.5" y="-63.5" font-family="Helvetica,sans-Serif" font-size="10.00">chrono</text>
</g>
<!-- Node5&#45;&gt;Node7 -->
<g id="edge6" class="edge"><title>Node5&#45;&gt;Node7</title>
<path fill="none" stroke="midnightblue" d="M555.483,-118.023C483.549,-112.937 341.79,-100.822 212.864,-75.9883"/>
<polygon fill="midnightblue" stroke="midnightblue" points="213.301,-72.5076 202.815,-74.0214 211.956,-79.3772 213.301,-72.5076"/>
</g>
<!-- Node8 -->
<g id="node8" class="node"><title>Node8</title>
<polygon fill="none" stroke="#bfbfbf" points="903,-56.5 903,-75.5 962,-75.5 962,-56.5 903,-56.5"/>
<text text-anchor="middle" x="932.5" y="-63.5" font-family="Helvetica,sans-Serif" font-size="10.00">functional</text>
</g>
<!-- Node5&#45;&gt;Node8 -->
<g id="edge8" class="edge"><title>Node5&#45;&gt;Node8</title>
<path fill="none" stroke="midnightblue" d="M649.677,-114.252C706.465,-105.973 804.663,-91.1616 888.5,-76 889.939,-75.7398 891.403,-75.4695 892.88,-75.1919"/>
<polygon fill="midnightblue" stroke="midnightblue" points="893.563,-78.6248 902.714,-73.2845 892.23,-71.7528 893.563,-78.6248"/>
</g>
<!-- Node9 -->
<g id="node9" class="node"><title>Node9</title>
<polygon fill="none" stroke="#bfbfbf" points="980.5,-56.5 980.5,-75.5 1034.5,-75.5 1034.5,-56.5 980.5,-56.5"/>
<text text-anchor="middle" x="1007.5" y="-63.5" font-family="Helvetica,sans-Serif" font-size="10.00">iostream</text>
</g>
<!-- Node5&#45;&gt;Node9 -->
<g id="edge9" class="edge"><title>Node5&#45;&gt;Node9</title>
<path fill="none" stroke="midnightblue" d="M649.528,-117.024C717.839,-110.861 848.64,-97.5961 969.895,-75.8938"/>
<polygon fill="midnightblue" stroke="midnightblue" points="970.883,-79.2719 980.097,-74.0434 969.633,-72.3843 970.883,-79.2719"/>
</g>
<!-- Node10 -->
<g id="node10" class="node"><title>Node10</title>
<polygon fill="none" stroke="#bfbfbf" points="220.5,-56.5 220.5,-75.5 260.5,-75.5 260.5,-56.5 220.5,-56.5"/>
<text text-anchor="middle" x="240.5" y="-63.5" font-family="Helvetica,sans-Serif" font-size="10.00">limits</text>
</g>
<!-- Node5&#45;&gt;Node10 -->
<g id="edge10" class="edge"><title>Node5&#45;&gt;Node10</title>
<path fill="none" stroke="midnightblue" d="M555.466,-117.133C492.539,-111.413 377.419,-99.0417 270.64,-75.9258"/>
<polygon fill="midnightblue" stroke="midnightblue" points="271.185,-72.4619 260.666,-73.7293 269.679,-79.2981 271.185,-72.4619"/>
</g>
<!-- Node11 -->
<g id="node11" class="node"><title>Node11</title>
<polygon fill="none" stroke="#bfbfbf" points="278.5,-56.5 278.5,-75.5 330.5,-75.5 330.5,-56.5 278.5,-56.5"/>
<text text-anchor="middle" x="304.5" y="-63.5" font-family="Helvetica,sans-Serif" font-size="10.00">memory</text>
</g>
<!-- Node5&#45;&gt;Node11 -->
<g id="edge11" class="edge"><title>Node5&#45;&gt;Node11</title>
<path fill="none" stroke="midnightblue" d="M555.243,-114.113C504.489,-106.449 421.289,-93.1179 340.639,-76.1074"/>
<polygon fill="midnightblue" stroke="midnightblue" points="341.328,-72.6758 330.818,-74.0149 339.869,-79.5221 341.328,-72.6758"/>
</g>
<!-- Node12 -->
<g id="node12" class="node"><title>Node12</title>
<polygon fill="none" stroke="#bfbfbf" points="348.5,-56.5 348.5,-75.5 392.5,-75.5 392.5,-56.5 348.5,-56.5"/>
<text text-anchor="middle" x="370.5" y="-63.5" font-family="Helvetica,sans-Serif" font-size="10.00">mutex</text>
</g>
<!-- Node5&#45;&gt;Node12 -->
<g id="edge12" class="edge"><title>Node5&#45;&gt;Node12</title>
<path fill="none" stroke="midnightblue" d="M560.744,-112.444C522.114,-104.353 462.883,-91.5008 402.838,-76.2285"/>
<polygon fill="midnightblue" stroke="midnightblue" points="403.361,-72.7497 392.805,-73.6558 401.623,-79.5303 403.361,-72.7497"/>
</g>
<!-- Node13 -->
<g id="node13" class="node"><title>Node13</title>
<polygon fill="none" stroke="#bfbfbf" points="411,-56.5 411,-75.5 454,-75.5 454,-56.5 411,-56.5"/>
<text text-anchor="middle" x="432.5" y="-63.5" font-family="Helvetica,sans-Serif" font-size="10.00">queue</text>
</g>
<!-- Node5&#45;&gt;Node13 -->
<g id="edge13" class="edge"><title>Node5&#45;&gt;Node13</title>
<path fill="none" stroke="midnightblue" d="M575.563,-112.444C545.234,-102.81 496.014,-87.1752 463.949,-76.9896"/>
<polygon fill="midnightblue" stroke="midnightblue" points="464.777,-73.5803 454.186,-73.8886 462.658,-80.2519 464.777,-73.5803"/>
</g>
<!-- Node14 -->
<g id="node14" class="node"><title>Node14</title>
<polygon fill="none" stroke="#bfbfbf" points="775,-0.5 775,-19.5 834,-19.5 834,-0.5 775,-0.5"/>
<text text-anchor="middle" x="804.5" y="-7.5" font-family="Helvetica,sans-Serif" font-size="10.00">stdexcept</text>
</g>
<!-- Node5&#45;&gt;Node14 -->
<g id="edge14" class="edge"><title>Node5&#45;&gt;Node14</title>
<path fill="none" stroke="midnightblue" d="M629.387,-112.441C652.838,-104.479 687.408,-91.5256 715.5,-76 741.597,-61.5773 768.901,-40.6276 786.272,-26.4417"/>
<polygon fill="midnightblue" stroke="midnightblue" points="788.927,-28.787 794.392,-19.7103 784.46,-23.398 788.927,-28.787"/>
</g>
<!-- Node15 -->
<g id="node15" class="node"><title>Node15</title>
<polygon fill="none" stroke="#bfbfbf" points="561,-56.5 561,-75.5 644,-75.5 644,-56.5 561,-56.5"/>
<text text-anchor="middle" x="602.5" y="-63.5" font-family="Helvetica,sans-Serif" font-size="10.00">unordered_map</text>
</g>
<!-- Node5&#45;&gt;Node15 -->
<g id="edge15" class="edge"><title>Node5&#45;&gt;Node15</title>
<path fill="none" stroke="midnightblue" d="M602.5,-112.083C602.5,-105.006 602.5,-94.8611 602.5,-85.9865"/>
<polygon fill="midnightblue" stroke="midnightblue" points="606,-85.751 602.5,-75.7511 599,-85.7511 606,-85.751"/>
</g>
<!-- Node16 -->
<g id="node16" class="node"><title>Node16</title>
<polygon fill="none" stroke="#bfbfbf" points="662.5,-56.5 662.5,-75.5 706.5,-75.5 706.5,-56.5 662.5,-56.5"/>
<text text-anchor="middle" x="684.5" y="-63.5" font-family="Helvetica,sans-Serif" font-size="10.00">vector</text>
</g>
<!-- Node5&#45;&gt;Node16 -->
<g id="edge16" class="edge"><title>Node5&#45;&gt;Node16</title>
<path fill="none" stroke="midnightblue" d="M615.675,-112.324C628.347,-103.979 647.733,-91.2122 662.706,-81.3524"/>
<polygon fill="midnightblue" stroke="midnightblue" points="664.931,-84.0776 671.358,-75.6545 661.081,-78.2313 664.931,-84.0776"/>
</g>
<!-- Node17 -->
<g id="node17" class="node"><title>Node17</title>
<g id="a_node17"><a xlink:href="bufArray_8hpp.html" target="_top" xlink:title="bufArray.hpp">
<polygon fill="none" stroke="black" points="472,-56.5 472,-75.5 543,-75.5 543,-56.5 472,-56.5"/>
<text text-anchor="middle" x="507.5" y="-63.5" font-family="Helvetica,sans-Serif" font-size="10.00">bufArray.hpp</text>
</a>
</g>
</g>
<!-- Node5&#45;&gt;Node17 -->
<g id="edge17" class="edge"><title>Node5&#45;&gt;Node17</title>
<path fill="none" stroke="midnightblue" d="M587.237,-112.324C572.279,-103.822 549.245,-90.7288 531.773,-80.7975"/>
<polygon fill="midnightblue" stroke="midnightblue" points="533.149,-77.5534 522.726,-75.6545 529.69,-83.639 533.149,-77.5534"/>
</g>
<!-- Node20 -->
<g id="node20" class="node"><title>Node20</title>
<g id="a_node20"><a xlink:href="exceptions_8hpp.html" target="_top" xlink:title="exceptions.hpp">
<polygon fill="none" stroke="black" points="763,-56.5 763,-75.5 846,-75.5 846,-56.5 763,-56.5"/>
<text text-anchor="middle" x="804.5" y="-63.5" font-family="Helvetica,sans-Serif" font-size="10.00">exceptions.hpp</text>
</a>
</g>
</g>
<!-- Node5&#45;&gt;Node20 -->
<g id="edge22" class="edge"><title>Node5&#45;&gt;Node20</title>
<path fill="none" stroke="midnightblue" d="M634.508,-112.444C669.229,-103.162 724.788,-88.3093 762.877,-78.127"/>
<polygon fill="midnightblue" stroke="midnightblue" points="763.885,-81.4803 772.642,-75.5164 762.078,-74.7178 763.885,-81.4803"/>
</g>
<!-- Node22 -->
<g id="node22" class="node"><title>Node22</title>
<g id="a_node22"><a xlink:href="spinlock_8hpp.html" target="_top" xlink:title="spinlock.hpp">
<polygon fill="none" stroke="black" points="67,-56.5 67,-75.5 138,-75.5 138,-56.5 67,-56.5"/>
<text text-anchor="middle" x="102.5" y="-63.5" font-family="Helvetica,sans-Serif" font-size="10.00">spinlock.hpp</text>
</a>
</g>
</g>
<!-- Node5&#45;&gt;Node22 -->
<g id="edge25" class="edge"><title>Node5&#45;&gt;Node22</title>
<path fill="none" stroke="midnightblue" d="M555.479,-117.889C474.482,-112.195 303.252,-98.6886 148.475,-76.0005"/>
<polygon fill="midnightblue" stroke="midnightblue" points="148.711,-72.4972 138.305,-74.4928 147.684,-79.4216 148.711,-72.4972"/>
</g>
<!-- Node17&#45;&gt;Node4 -->
<g id="edge18" class="edge"><title>Node17&#45;&gt;Node4</title>
<path fill="none" stroke="midnightblue" d="M543.452,-57.2398C546.168,-56.7782 548.873,-56.3571 551.5,-56 613.463,-47.5758 1049.93,-20.6059 1174.43,-13.0088"/>
<polygon fill="midnightblue" stroke="midnightblue" points="1174.73,-16.4968 1184.5,-12.3949 1174.31,-9.50981 1174.73,-16.4968"/>
</g>
<!-- Node18 -->
<g id="node18" class="node"><title>Node18</title>
<polygon fill="none" stroke="#bfbfbf" points="515,-0.5 515,-19.5 562,-19.5 562,-0.5 515,-0.5"/>
<text text-anchor="middle" x="538.5" y="-7.5" font-family="Helvetica,sans-Serif" font-size="10.00">iterator</text>
</g>
<!-- Node17&#45;&gt;Node18 -->
<g id="edge19" class="edge"><title>Node17&#45;&gt;Node18</title>
<path fill="none" stroke="midnightblue" d="M512.619,-56.083C516.908,-48.6127 523.158,-37.7244 528.442,-28.5199"/>
<polygon fill="midnightblue" stroke="midnightblue" points="531.533,-30.1662 533.476,-19.7511 525.462,-26.6811 531.533,-30.1662"/>
</g>
<!-- Node19 -->
<g id="node19" class="node"><title>Node19</title>
<polygon fill="none" stroke="#bfbfbf" points="456.5,-0.5 456.5,-19.5 496.5,-19.5 496.5,-0.5 456.5,-0.5"/>
<text text-anchor="middle" x="476.5" y="-7.5" font-family="Helvetica,sans-Serif" font-size="10.00">utility</text>
</g>
<!-- Node17&#45;&gt;Node19 -->
<g id="edge20" class="edge"><title>Node17&#45;&gt;Node19</title>
<path fill="none" stroke="midnightblue" d="M502.381,-56.083C498.092,-48.6127 491.842,-37.7244 486.558,-28.5199"/>
<polygon fill="midnightblue" stroke="midnightblue" points="489.538,-26.6811 481.524,-19.7511 483.467,-30.1662 489.538,-26.6811"/>
</g>
<!-- Node20&#45;&gt;Node14 -->
<g id="edge24" class="edge"><title>Node20&#45;&gt;Node14</title>
<path fill="none" stroke="midnightblue" d="M804.5,-56.083C804.5,-49.0059 804.5,-38.8611 804.5,-29.9865"/>
<polygon fill="midnightblue" stroke="midnightblue" points="808,-29.751 804.5,-19.7511 801,-29.7511 808,-29.751"/>
</g>
<!-- Node21 -->
<g id="node21" class="node"><title>Node21</title>
<polygon fill="none" stroke="#bfbfbf" points="980,-0.5 980,-19.5 1039,-19.5 1039,-0.5 980,-0.5"/>
<text text-anchor="middle" x="1009.5" y="-7.5" font-family="Helvetica,sans-Serif" font-size="10.00">exception</text>
</g>
<!-- Node20&#45;&gt;Node21 -->
<g id="edge23" class="edge"><title>Node20&#45;&gt;Node21</title>
<path fill="none" stroke="midnightblue" d="M836.983,-56.4435C873.049,-46.9432 931.269,-31.6072 969.957,-21.4161"/>
<polygon fill="midnightblue" stroke="midnightblue" points="971.053,-24.747 979.832,-18.8151 969.27,-17.9779 971.053,-24.747"/>
</g>
<!-- Node23 -->
<g id="node23" class="node"><title>Node23</title>
<polygon fill="none" stroke="#bfbfbf" points="79.5,-0.5 79.5,-19.5 125.5,-19.5 125.5,-0.5 79.5,-0.5"/>
<text text-anchor="middle" x="102.5" y="-7.5" font-family="Helvetica,sans-Serif" font-size="10.00">atomic</text>
</g>
<!-- Node22&#45;&gt;Node23 -->
<g id="edge26" class="edge"><title>Node22&#45;&gt;Node23</title>
<path fill="none" stroke="midnightblue" d="M102.5,-56.083C102.5,-49.0059 102.5,-38.8611 102.5,-29.9865"/>
<polygon fill="midnightblue" stroke="midnightblue" points="106,-29.751 102.5,-19.7511 99.0001,-29.7511 106,-29.751"/>
</g>
<!-- Node24&#45;&gt;Node2 -->
<g id="edge48" class="edge"><title>Node24&#45;&gt;Node2</title>
<path fill="none" stroke="midnightblue" d="M1338.6,-187.516C1318.44,-196.506 1283.57,-210.754 1257.02,-220.906"/>
<polygon fill="midnightblue" stroke="midnightblue" points="1255.78,-217.634 1247.66,-224.444 1258.25,-224.182 1255.78,-217.634"/>
</g>
<!-- Node25 -->
<g id="node25" class="node"><title>Node25</title>
<polygon fill="none" stroke="#bfbfbf" points="1580,-56.5 1580,-75.5 1625,-75.5 1625,-56.5 1580,-56.5"/>
<text text-anchor="middle" x="1602.5" y="-63.5" font-family="Helvetica,sans-Serif" font-size="10.00">cstdlib</text>
</g>
<!-- Node24&#45;&gt;Node25 -->
<g id="edge28" class="edge"><title>Node24&#45;&gt;Node25</title>
<path fill="none" stroke="midnightblue" d="M1373.96,-168.368C1417.51,-149.051 1523.01,-102.259 1573.98,-79.6481"/>
<polygon fill="midnightblue" stroke="midnightblue" points="1575.41,-82.8454 1583.13,-75.5914 1572.57,-76.4466 1575.41,-82.8454"/>
</g>
<!-- Node26 -->
<g id="node26" class="node"><title>Node26</title>
<polygon fill="none" stroke="#bfbfbf" points="1508.5,-0.5 1508.5,-19.5 1560.5,-19.5 1560.5,-0.5 1508.5,-0.5"/>
<text text-anchor="middle" x="1534.5" y="-7.5" font-family="Helvetica,sans-Serif" font-size="10.00">sstream</text>
</g>
<!-- Node24&#45;&gt;Node26 -->
<g id="edge29" class="edge"><title>Node24&#45;&gt;Node26</title>
<path fill="none" stroke="midnightblue" d="M1415.79,-174.651C1482.52,-168.396 1586.16,-147.024 1634.5,-76 1653.77,-47.6791 1606.37,-28.8159 1570.42,-19.0145"/>
<polygon fill="midnightblue" stroke="midnightblue" points="1571.21,-15.603 1560.65,-16.49 1569.46,-22.3804 1571.21,-15.603"/>
</g>
<!-- Node27 -->
<g id="node27" class="node"><title>Node27</title>
<g id="a_node27"><a xlink:href="IPv4__5TupleL2Ident_8hpp.html" target="_top" xlink:title="IPv4_5TupleL2Ident.hpp">
<polygon fill="none" stroke="black" points="1117.5,-112.5 1117.5,-131.5 1239.5,-131.5 1239.5,-112.5 1117.5,-112.5"/>
<text text-anchor="middle" x="1178.5" y="-119.5" font-family="Helvetica,sans-Serif" font-size="10.00">IPv4_5TupleL2Ident.hpp</text>
</a>
</g>
</g>
<!-- Node24&#45;&gt;Node27 -->
<g id="edge30" class="edge"><title>Node24&#45;&gt;Node27</title>
<path fill="none" stroke="midnightblue" d="M1326.61,-168.444C1296.75,-159.28 1249.19,-144.688 1216.04,-134.519"/>
<polygon fill="midnightblue" stroke="midnightblue" points="1216.84,-131.104 1206.26,-131.516 1214.79,-137.796 1216.84,-131.104"/>
</g>
<!-- Node29 -->
<g id="node29" class="node"><title>Node29</title>
<g id="a_node29"><a xlink:href="headers_8hpp.html" target="_top" xlink:title="headers.hpp">
<polygon fill="none" stroke="black" points="1372.5,-56.5 1372.5,-75.5 1442.5,-75.5 1442.5,-56.5 1372.5,-56.5"/>
<text text-anchor="middle" x="1407.5" y="-63.5" font-family="Helvetica,sans-Serif" font-size="10.00">headers.hpp</text>
</a>
</g>
</g>
<!-- Node24&#45;&gt;Node29 -->
<g id="edge47" class="edge"><title>Node24&#45;&gt;Node29</title>
<path fill="none" stroke="midnightblue" d="M1388.68,-168.493C1407.49,-161.877 1429.24,-150.596 1440.5,-132 1450.36,-115.71 1437.23,-96.1134 1424.73,-82.7255"/>
<polygon fill="midnightblue" stroke="midnightblue" points="1427.17,-80.2172 1417.62,-75.6322 1422.23,-85.1728 1427.17,-80.2172"/>
</g>
<!-- Node33 -->
<g id="node33" class="node"><title>Node33</title>
<g id="a_node33"><a xlink:href="mbuf_8hpp.html" target="_top" xlink:title="mbuf.hpp">
<polygon fill="none" stroke="black" points="1374,-112.5 1374,-131.5 1431,-131.5 1431,-112.5 1374,-112.5"/>
<text text-anchor="middle" x="1402.5" y="-119.5" font-family="Helvetica,sans-Serif" font-size="10.00">mbuf.hpp</text>
</a>
</g>
</g>
<!-- Node24&#45;&gt;Node33 -->
<g id="edge49" class="edge"><title>Node24&#45;&gt;Node33</title>
<path fill="none" stroke="midnightblue" d="M1362.43,-168.083C1369.35,-160.298 1379.57,-148.801 1387.95,-139.367"/>
<polygon fill="midnightblue" stroke="midnightblue" points="1390.69,-141.55 1394.72,-131.751 1385.46,-136.9 1390.69,-141.55"/>
</g>
<!-- Node35 -->
<g id="node35" class="node"><title>Node35</title>
<g id="a_node35"><a xlink:href="samplePacket_8hpp.html" target="_top" xlink:title="samplePacket.hpp">
<polygon fill="none" stroke="black" points="1257.5,-112.5 1257.5,-131.5 1355.5,-131.5 1355.5,-112.5 1257.5,-112.5"/>
<text text-anchor="middle" x="1306.5" y="-119.5" font-family="Helvetica,sans-Serif" font-size="10.00">samplePacket.hpp</text>
</a>
</g>
</g>
<!-- Node24&#45;&gt;Node35 -->
<g id="edge52" class="edge"><title>Node24&#45;&gt;Node35</title>
<path fill="none" stroke="midnightblue" d="M1346.57,-168.083C1339.65,-160.298 1329.43,-148.801 1321.05,-139.367"/>
<polygon fill="midnightblue" stroke="midnightblue" points="1323.54,-136.9 1314.28,-131.751 1318.31,-141.55 1323.54,-136.9"/>
</g>
<!-- Node27&#45;&gt;Node3 -->
<g id="edge38" class="edge"><title>Node27&#45;&gt;Node3</title>
<path fill="none" stroke="midnightblue" d="M1164.2,-112.324C1150.32,-103.9 1129.01,-90.9709 1112.7,-81.0741"/>
<polygon fill="midnightblue" stroke="midnightblue" points="1114.13,-77.8495 1103.76,-75.6545 1110.5,-83.8341 1114.13,-77.8495"/>
</g>
<!-- Node27&#45;&gt;Node4 -->
<g id="edge31" class="edge"><title>Node27&#45;&gt;Node4</title>
<path fill="none" stroke="midnightblue" d="M1185.87,-112.397C1192.69,-103.82 1202.4,-89.9477 1206.5,-76 1210.93,-60.9259 1210.84,-43.0237 1209.83,-29.8275"/>
<polygon fill="midnightblue" stroke="midnightblue" points="1213.29,-29.2294 1208.8,-19.6317 1206.33,-29.9327 1213.29,-29.2294"/>
</g>
<!-- Node27&#45;&gt;Node8 -->
<g id="edge33" class="edge"><title>Node27&#45;&gt;Node8</title>
<path fill="none" stroke="midnightblue" d="M1138.4,-112.44C1098.71,-103.934 1035.96,-90.3903 972.136,-76.1211"/>
<polygon fill="midnightblue" stroke="midnightblue" points="972.825,-72.6886 962.302,-73.9184 971.295,-79.5194 972.825,-72.6886"/>
</g>
<!-- Node27&#45;&gt;Node9 -->
<g id="edge34" class="edge"><title>Node27&#45;&gt;Node9</title>
<path fill="none" stroke="midnightblue" d="M1151.4,-112.444C1122.51,-103.32 1076.58,-88.8133 1044.39,-78.6509"/>
<polygon fill="midnightblue" stroke="midnightblue" points="1045.06,-75.1903 1034.47,-75.5164 1042.95,-81.8654 1045.06,-75.1903"/>
</g>
<!-- Node27&#45;&gt;Node14 -->
<g id="edge36" class="edge"><title>Node27&#45;&gt;Node14</title>
<path fill="none" stroke="midnightblue" d="M1175.26,-112.077C1169.5,-97.6246 1156.03,-69.3696 1134.5,-56 1086.76,-26.3607 921.297,-15.7883 844.382,-12.4153"/>
<polygon fill="midnightblue" stroke="midnightblue" points="844.275,-8.90789 834.138,-11.9859 843.982,-15.9018 844.275,-8.90789"/>
</g>
<!-- Node27&#45;&gt;Node20 -->
<g id="edge46" class="edge"><title>Node27&#45;&gt;Node20</title>
<path fill="none" stroke="midnightblue" d="M1119.24,-112.444C1046.75,-101.977 925.207,-84.4283 856.297,-74.4786"/>
<polygon fill="midnightblue" stroke="midnightblue" points="856.511,-70.9735 846.114,-73.0084 855.511,-77.9016 856.511,-70.9735"/>
</g>
<!-- Node27&#45;&gt;Node21 -->
<g id="edge32" class="edge"><title>Node27&#45;&gt;Node21</title>
<path fill="none" stroke="midnightblue" d="M1179.87,-112.203C1181.49,-98.4334 1182.41,-71.741 1168.5,-56 1138.76,-22.3492 1085.93,-13.0265 1049.38,-10.8617"/>
<polygon fill="midnightblue" stroke="midnightblue" points="1049.21,-7.35111 1039.07,-10.4133 1048.91,-14.3445 1049.21,-7.35111"/>
</g>
<!-- Node27&#45;&gt;Node26 -->
<g id="edge35" class="edge"><title>Node27&#45;&gt;Node26</title>
<path fill="none" stroke="midnightblue" d="M1239.66,-112.557C1314.15,-102.019 1432.45,-84.367 1451.5,-76 1478.04,-64.3417 1503.51,-42.2273 1519.08,-27.0583"/>
<polygon fill="midnightblue" stroke="midnightblue" points="1521.68,-29.4027 1526.27,-19.8512 1516.73,-24.459 1521.68,-29.4027"/>
</g>
<!-- Node28 -->
<g id="node28" class="node"><title>Node28</title>
<polygon fill="none" stroke="#bfbfbf" points="1249,-0.5 1249,-19.5 1290,-19.5 1290,-0.5 1249,-0.5"/>
<text text-anchor="middle" x="1269.5" y="-7.5" font-family="Helvetica,sans-Serif" font-size="10.00">string</text>
</g>
<!-- Node27&#45;&gt;Node28 -->
<g id="edge37" class="edge"><title>Node27&#45;&gt;Node28</title>
<path fill="none" stroke="midnightblue" d="M1187.67,-112.402C1196.86,-103.606 1211.24,-89.3701 1222.5,-76 1235.5,-60.5741 1248.83,-41.7959 1257.96,-28.397"/>
<polygon fill="midnightblue" stroke="midnightblue" points="1261.12,-29.9669 1263.8,-19.7162 1255.32,-26.0594 1261.12,-29.9669"/>
</g>
<!-- Node27&#45;&gt;Node29 -->
<g id="edge39" class="edge"><title>Node27&#45;&gt;Node29</title>
<path fill="none" stroke="midnightblue" d="M1214.79,-112.444C1254.72,-103.028 1318.96,-87.8791 1362.17,-77.6887"/>
<polygon fill="midnightblue" stroke="midnightblue" points="1363.21,-81.0408 1372.14,-75.339 1361.6,-74.2276 1363.21,-81.0408"/>
</g>
<!-- Node29&#45;&gt;Node4 -->
<g id="edge41" class="edge"><title>Node29&#45;&gt;Node4</title>
<path fill="none" stroke="midnightblue" d="M1375.26,-56.4921C1343.4,-48.0557 1293.01,-34.6396 1240.41,-20.2254"/>
<polygon fill="midnightblue" stroke="midnightblue" points="1241.13,-16.795 1230.56,-17.5233 1239.28,-23.5454 1241.13,-16.795"/>
</g>
<!-- Node29&#45;&gt;Node26 -->
<g id="edge43" class="edge"><title>Node29&#45;&gt;Node26</title>
<path fill="none" stroke="midnightblue" d="M1427.62,-56.4435C1448.52,-47.5566 1481.43,-33.5632 1505.22,-23.4514"/>
<polygon fill="midnightblue" stroke="midnightblue" points="1506.64,-26.6504 1514.47,-19.5164 1503.9,-20.2085 1506.64,-26.6504"/>
</g>
<!-- Node29&#45;&gt;Node28 -->
<g id="edge44" class="edge"><title>Node29&#45;&gt;Node28</title>
<path fill="none" stroke="midnightblue" d="M1385.63,-56.4435C1362.45,-47.3721 1325.67,-32.98 1299.72,-22.8268"/>
<polygon fill="midnightblue" stroke="midnightblue" points="1300.95,-19.5477 1290.36,-19.1629 1298.4,-26.0664 1300.95,-19.5477"/>
</g>
<!-- Node30 -->
<g id="node30" class="node"><title>Node30</title>
<polygon fill="none" stroke="#bfbfbf" points="1388.5,-0.5 1388.5,-19.5 1426.5,-19.5 1426.5,-0.5 1388.5,-0.5"/>
<text text-anchor="middle" x="1407.5" y="-7.5" font-family="Helvetica,sans-Serif" font-size="10.00">array</text>
</g>
<!-- Node29&#45;&gt;Node30 -->
<g id="edge40" class="edge"><title>Node29&#45;&gt;Node30</title>
<path fill="none" stroke="midnightblue" d="M1407.5,-56.083C1407.5,-49.0059 1407.5,-38.8611 1407.5,-29.9865"/>
<polygon fill="midnightblue" stroke="midnightblue" points="1411,-29.751 1407.5,-19.7511 1404,-29.7511 1411,-29.751"/>
</g>
<!-- Node31 -->
<g id="node31" class="node"><title>Node31</title>
<polygon fill="none" stroke="#bfbfbf" points="1444.5,-0.5 1444.5,-19.5 1490.5,-19.5 1490.5,-0.5 1444.5,-0.5"/>
<text text-anchor="middle" x="1467.5" y="-7.5" font-family="Helvetica,sans-Serif" font-size="10.00">cstring</text>
</g>
<!-- Node29&#45;&gt;Node31 -->
<g id="edge42" class="edge"><title>Node29&#45;&gt;Node31</title>
<path fill="none" stroke="midnightblue" d="M1417.14,-56.324C1426.01,-48.3414 1439.37,-36.3128 1450.11,-26.6529"/>
<polygon fill="midnightblue" stroke="midnightblue" points="1452.59,-29.1251 1457.68,-19.8339 1447.91,-23.922 1452.59,-29.1251"/>
</g>
<!-- Node32 -->
<g id="node32" class="node"><title>Node32</title>
<polygon fill="none" stroke="#bfbfbf" points="1308.5,-0.5 1308.5,-19.5 1370.5,-19.5 1370.5,-0.5 1308.5,-0.5"/>
<text text-anchor="middle" x="1339.5" y="-7.5" font-family="Helvetica,sans-Serif" font-size="10.00">arpa/inet.h</text>
</g>
<!-- Node29&#45;&gt;Node32 -->
<g id="edge45" class="edge"><title>Node29&#45;&gt;Node32</title>
<path fill="none" stroke="midnightblue" d="M1396.57,-56.324C1386.33,-48.1849 1370.78,-35.8395 1358.5,-26.0874"/>
<polygon fill="midnightblue" stroke="midnightblue" points="1360.63,-23.3119 1350.62,-19.8339 1356.28,-28.7937 1360.63,-23.3119"/>
</g>
<!-- Node33&#45;&gt;Node4 -->
<g id="edge50" class="edge"><title>Node33&#45;&gt;Node4</title>
<path fill="none" stroke="midnightblue" d="M1387.2,-112.368C1353.38,-93.2916 1272.07,-47.4223 1231.44,-24.5054"/>
<polygon fill="midnightblue" stroke="midnightblue" points="1233.16,-21.4563 1222.73,-19.5914 1229.72,-27.5531 1233.16,-21.4563"/>
</g>
<!-- Node34 -->
<g id="node34" class="node"><title>Node34</title>
<polygon fill="none" stroke="#bfbfbf" points="1499,-56.5 1499,-75.5 1562,-75.5 1562,-56.5 1499,-56.5"/>
<text text-anchor="middle" x="1530.5" y="-63.5" font-family="Helvetica,sans-Serif" font-size="10.00">rte_mbuf.h</text>
</g>
<!-- Node33&#45;&gt;Node34 -->
<g id="edge51" class="edge"><title>Node33&#45;&gt;Node34</title>
<path fill="none" stroke="midnightblue" d="M1422.78,-112.444C1443.85,-103.557 1477.02,-89.5632 1500.99,-79.4514"/>
<polygon fill="midnightblue" stroke="midnightblue" points="1502.46,-82.6283 1510.31,-75.5164 1499.74,-76.1787 1502.46,-82.6283"/>
</g>
<!-- Node35&#45;&gt;Node4 -->
<g id="edge53" class="edge"><title>Node35&#45;&gt;Node4</title>
<path fill="none" stroke="midnightblue" d="M1298.73,-112.368C1282.18,-93.9744 1243.2,-50.6712 1221.95,-27.0519"/>
<polygon fill="midnightblue" stroke="midnightblue" points="1224.52,-24.683 1215.23,-19.5914 1219.32,-29.3658 1224.52,-24.683"/>
</g>
<!-- Node35&#45;&gt;Node25 -->
<g id="edge54" class="edge"><title>Node35&#45;&gt;Node25</title>
<path fill="none" stroke="midnightblue" d="M1355.68,-113.339C1416.54,-103.746 1517.69,-87.4113 1570.09,-76.0831"/>
<polygon fill="midnightblue" stroke="midnightblue" points="1570.9,-79.4886 1579.89,-73.8877 1569.37,-72.6579 1570.9,-79.4886"/>
</g>
</g>
</svg>
