<?xml version="1.0" encoding="UTF-8" standalone="no"?>
<!DOCTYPE svg PUBLIC "-//W3C//DTD SVG 1.1//EN"
 "http://www.w3.org/Graphics/SVG/1.1/DTD/svg11.dtd">
<!-- Generated by graphviz version 2.38.0 (20140413.2041)
 -->
<!-- Title: /home/dominik/uni/MoonState/src/helloBye2_C.cpp Pages: 1 -->
<svg width="1741pt" height="375pt"
 viewBox="0.00 0.00 1741.47 375.00" xmlns="http://www.w3.org/2000/svg" xmlns:xlink="http://www.w3.org/1999/xlink">
<g id="graph0" class="graph" transform="scale(1 1) rotate(0) translate(4 371)">
<title>/home/dominik/uni/MoonState/src/helloBye2_C.cpp</title>
<!-- Node1 -->
<g id="node1" class="node"><title>Node1</title>
<polygon fill="#bfbfbf" stroke="black" points="1489.5,-336.5 1489.5,-366.5 1636.5,-366.5 1636.5,-336.5 1489.5,-336.5"/>
<text text-anchor="start" x="1497.5" y="-354.5" font-family="Helvetica,sans-Serif" font-size="10.00">/home/dominik/uni/MoonState</text>
<text text-anchor="middle" x="1563" y="-343.5" font-family="Helvetica,sans-Serif" font-size="10.00">/src/helloBye2_C.cpp</text>
</g>
<!-- Node2 -->
<g id="node2" class="node"><title>Node2</title>
<g id="a_node2"><a xlink:href="helloBye2__C_8hpp.html" target="_top" xlink:title="helloBye2_C.hpp">
<polygon fill="none" stroke="black" points="1613.5,-280.5 1613.5,-299.5 1704.5,-299.5 1704.5,-280.5 1613.5,-280.5"/>
<text text-anchor="middle" x="1659" y="-287.5" font-family="Helvetica,sans-Serif" font-size="10.00">helloBye2_C.hpp</text>
</a>
</g>
</g>
<!-- Node1&#45;&gt;Node2 -->
<g id="edge1" class="edge"><title>Node1&#45;&gt;Node2</title>
<path fill="none" stroke="midnightblue" d="M1585.75,-336.399C1600.99,-326.951 1620.99,-314.559 1636.24,-305.109"/>
<polygon fill="midnightblue" stroke="midnightblue" points="1638.38,-307.901 1645.03,-299.658 1634.69,-301.951 1638.38,-307.901"/>
</g>
<!-- Node11 -->
<g id="node11" class="node"><title>Node11</title>
<g id="a_node11"><a xlink:href="headers_8hpp.html" target="_top" xlink:title="headers.hpp">
<polygon fill="none" stroke="black" points="1509,-56.5 1509,-75.5 1579,-75.5 1579,-56.5 1509,-56.5"/>
<text text-anchor="middle" x="1544" y="-63.5" font-family="Helvetica,sans-Serif" font-size="10.00">headers.hpp</text>
</a>
</g>
</g>
<!-- Node1&#45;&gt;Node11 -->
<g id="edge64" class="edge"><title>Node1&#45;&gt;Node11</title>
<path fill="none" stroke="midnightblue" d="M1568.53,-336.454C1582.51,-298.664 1616.08,-192.267 1585,-112 1580.55,-100.498 1571.63,-90.1311 1563.25,-82.2546"/>
<polygon fill="midnightblue" stroke="midnightblue" points="1565.37,-79.4599 1555.54,-75.5103 1560.76,-84.7286 1565.37,-79.4599"/>
</g>
<!-- Node16 -->
<g id="node16" class="node"><title>Node16</title>
<g id="a_node16"><a xlink:href="stateMachine_8hpp.html" target="_top" xlink:title="stateMachine.hpp">
<polygon fill="none" stroke="black" points="531,-112.5 531,-131.5 625,-131.5 625,-112.5 531,-112.5"/>
<text text-anchor="middle" x="578" y="-119.5" font-family="Helvetica,sans-Serif" font-size="10.00">stateMachine.hpp</text>
</a>
</g>
</g>
<!-- Node1&#45;&gt;Node16 -->
<g id="edge66" class="edge"><title>Node1&#45;&gt;Node16</title>
<path fill="none" stroke="midnightblue" d="M1489.48,-342.239C1341.36,-324.311 997.594,-276.186 721,-188 678.003,-174.291 630.838,-151.144 602.862,-136.489"/>
<polygon fill="midnightblue" stroke="midnightblue" points="604.28,-133.28 593.805,-131.69 601.002,-139.465 604.28,-133.28"/>
</g>
<!-- Node26 -->
<g id="node26" class="node"><title>Node26</title>
<g id="a_node26"><a xlink:href="bufArray_8hpp.html" target="_top" xlink:title="bufArray.hpp">
<polygon fill="none" stroke="black" points="48.5,-56.5 48.5,-75.5 119.5,-75.5 119.5,-56.5 48.5,-56.5"/>
<text text-anchor="middle" x="84" y="-63.5" font-family="Helvetica,sans-Serif" font-size="10.00">bufArray.hpp</text>
</a>
</g>
</g>
<!-- Node1&#45;&gt;Node26 -->
<g id="edge63" class="edge"><title>Node1&#45;&gt;Node26</title>
<path fill="none" stroke="midnightblue" d="M1489.29,-347.681C1218.45,-336.842 294,-295.422 294,-235 294,-235 294,-235 294,-177 294,-138.695 182.978,-97.9392 122.383,-78.5471"/>
<polygon fill="midnightblue" stroke="midnightblue" points="123.349,-75.182 112.759,-75.5112 121.243,-81.8577 123.349,-75.182"/>
</g>
<!-- Node33 -->
<g id="node33" class="node"><title>Node33</title>
<g id="a_node33"><a xlink:href="mbuf_8hpp.html" target="_top" xlink:title="mbuf.hpp">
<polygon fill="none" stroke="black" points="1503.5,-112.5 1503.5,-131.5 1560.5,-131.5 1560.5,-112.5 1503.5,-112.5"/>
<text text-anchor="middle" x="1532" y="-119.5" font-family="Helvetica,sans-Serif" font-size="10.00">mbuf.hpp</text>
</a>
</g>
</g>
<!-- Node1&#45;&gt;Node33 -->
<g id="edge65" class="edge"><title>Node1&#45;&gt;Node33</title>
<path fill="none" stroke="midnightblue" d="M1561.06,-336.269C1555.7,-296.895 1540.65,-186.487 1534.58,-141.965"/>
<polygon fill="midnightblue" stroke="midnightblue" points="1538.03,-141.363 1533.22,-131.927 1531.1,-142.308 1538.03,-141.363"/>
</g>
<!-- Node34 -->
<g id="node34" class="node"><title>Node34</title>
<polygon fill="none" stroke="#bfbfbf" points="1633.5,-56.5 1633.5,-75.5 1696.5,-75.5 1696.5,-56.5 1633.5,-56.5"/>
<text text-anchor="middle" x="1665" y="-63.5" font-family="Helvetica,sans-Serif" font-size="10.00">rte_mbuf.h</text>
</g>
<!-- Node1&#45;&gt;Node34 -->
<g id="edge67" class="edge"><title>Node1&#45;&gt;Node34</title>
<path fill="none" stroke="midnightblue" d="M1636.85,-340.55C1664.3,-333.399 1693.68,-321.113 1714,-300 1734.87,-278.313 1733,-265.098 1733,-235 1733,-235 1733,-235 1733,-177 1733,-138.548 1702.57,-102.313 1682.42,-82.538"/>
<polygon fill="midnightblue" stroke="midnightblue" points="1684.71,-79.8865 1675.03,-75.5666 1679.9,-84.9765 1684.71,-79.8865"/>
</g>
<!-- Node3 -->
<g id="node3" class="node"><title>Node3</title>
<g id="a_node3"><a xlink:href="helloBye2Proto_8hpp.html" target="_top" xlink:title="helloBye2Proto.hpp">
<polygon fill="none" stroke="black" points="1310.5,-224.5 1310.5,-243.5 1411.5,-243.5 1411.5,-224.5 1310.5,-224.5"/>
<text text-anchor="middle" x="1361" y="-231.5" font-family="Helvetica,sans-Serif" font-size="10.00">helloBye2Proto.hpp</text>
</a>
</g>
</g>
<!-- Node2&#45;&gt;Node3 -->
<g id="edge2" class="edge"><title>Node2&#45;&gt;Node3</title>
<path fill="none" stroke="midnightblue" d="M1613.42,-280.74C1560.97,-271.236 1474.78,-255.618 1417.96,-245.321"/>
<polygon fill="midnightblue" stroke="midnightblue" points="1418.52,-241.866 1408.06,-243.527 1417.27,-248.754 1418.52,-241.866"/>
</g>
<!-- Node2&#45;&gt;Node34 -->
<g id="edge62" class="edge"><title>Node2&#45;&gt;Node34</title>
<path fill="none" stroke="midnightblue" d="M1659.24,-280.297C1660.12,-247.633 1663.25,-131.866 1664.49,-85.9573"/>
<polygon fill="midnightblue" stroke="midnightblue" points="1667.99,-85.9747 1664.76,-75.8837 1660.99,-85.7855 1667.99,-85.9747"/>
</g>
<!-- Node4 -->
<g id="node4" class="node"><title>Node4</title>
<polygon fill="none" stroke="#bfbfbf" points="698,-56.5 698,-75.5 742,-75.5 742,-56.5 698,-56.5"/>
<text text-anchor="middle" x="720" y="-63.5" font-family="Helvetica,sans-Serif" font-size="10.00">mutex</text>
</g>
<!-- Node3&#45;&gt;Node4 -->
<g id="edge3" class="edge"><title>Node3&#45;&gt;Node4</title>
<path fill="none" stroke="midnightblue" d="M1310.35,-228.45C1250.06,-222.342 1146.63,-209.673 1060,-188 941.926,-158.459 807.267,-104.076 749.184,-79.5636"/>
<polygon fill="midnightblue" stroke="midnightblue" points="750.463,-76.3044 739.891,-75.6199 747.729,-82.7482 750.463,-76.3044"/>
</g>
<!-- Node5 -->
<g id="node5" class="node"><title>Node5</title>
<polygon fill="none" stroke="#bfbfbf" points="1417,-0.5 1417,-19.5 1469,-19.5 1469,-0.5 1417,-0.5"/>
<text text-anchor="middle" x="1443" y="-7.5" font-family="Helvetica,sans-Serif" font-size="10.00">sstream</text>
</g>
<!-- Node3&#45;&gt;Node5 -->
<g id="edge4" class="edge"><title>Node3&#45;&gt;Node5</title>
<path fill="none" stroke="midnightblue" d="M1386.56,-224.4C1403.14,-217.374 1423.53,-205.679 1434,-188 1464,-137.334 1454.18,-63.5091 1447.31,-29.4614"/>
<polygon fill="midnightblue" stroke="midnightblue" points="1450.69,-28.5606 1445.15,-19.5306 1443.85,-30.0455 1450.69,-28.5606"/>
</g>
<!-- Node6 -->
<g id="node6" class="node"><title>Node6</title>
<g id="a_node6"><a xlink:href="common_8hpp.html" target="_top" xlink:title="common.hpp">
<polygon fill="none" stroke="black" points="1011.5,-56.5 1011.5,-75.5 1084.5,-75.5 1084.5,-56.5 1011.5,-56.5"/>
<text text-anchor="middle" x="1048" y="-63.5" font-family="Helvetica,sans-Serif" font-size="10.00">common.hpp</text>
</a>
</g>
</g>
<!-- Node3&#45;&gt;Node6 -->
<g id="edge5" class="edge"><title>Node3&#45;&gt;Node6</title>
<path fill="none" stroke="midnightblue" d="M1310.26,-226.248C1249.31,-215.768 1147.03,-190.336 1081,-132 1067.09,-119.714 1058.29,-100.179 1053.31,-85.7285"/>
<polygon fill="midnightblue" stroke="midnightblue" points="1056.55,-84.3703 1050.22,-75.8739 1049.87,-86.463 1056.55,-84.3703"/>
</g>
<!-- Node8 -->
<g id="node8" class="node"><title>Node8</title>
<g id="a_node8"><a xlink:href="exceptions_8hpp.html" target="_top" xlink:title="exceptions.hpp">
<polygon fill="none" stroke="black" points="760.5,-56.5 760.5,-75.5 843.5,-75.5 843.5,-56.5 760.5,-56.5"/>
<text text-anchor="middle" x="802" y="-63.5" font-family="Helvetica,sans-Serif" font-size="10.00">exceptions.hpp</text>
</a>
</g>
</g>
<!-- Node3&#45;&gt;Node8 -->
<g id="edge7" class="edge"><title>Node3&#45;&gt;Node8</title>
<path fill="none" stroke="midnightblue" d="M1310.21,-225.593C1262.84,-218.109 1190.44,-205.201 1129,-188 1016.27,-156.438 887.251,-103.511 830.883,-79.5093"/>
<polygon fill="midnightblue" stroke="midnightblue" points="832.106,-76.2255 821.535,-75.5098 829.352,-82.6612 832.106,-76.2255"/>
</g>
<!-- Node3&#45;&gt;Node11 -->
<g id="edge10" class="edge"><title>Node3&#45;&gt;Node11</title>
<path fill="none" stroke="midnightblue" d="M1411.63,-225.729C1463.11,-215.215 1539.5,-190.175 1570,-132 1578.33,-116.106 1568.4,-96.923 1558.51,-83.5323"/>
<polygon fill="midnightblue" stroke="midnightblue" points="1561.18,-81.2767 1552.2,-75.662 1555.72,-85.6542 1561.18,-81.2767"/>
</g>
<!-- Node3&#45;&gt;Node16 -->
<g id="edge17" class="edge"><title>Node3&#45;&gt;Node16</title>
<path fill="none" stroke="midnightblue" d="M1310.16,-232.184C1212.08,-229.88 990.27,-221.124 807,-188 736.257,-175.214 655.921,-149.793 611.692,-134.811"/>
<polygon fill="midnightblue" stroke="midnightblue" points="612.629,-131.433 602.035,-131.511 610.366,-138.057 612.629,-131.433"/>
</g>
<!-- Node30 -->
<g id="node30" class="node"><title>Node30</title>
<g id="a_node30"><a xlink:href="helloBye2Proto_8cpp.html" target="_top" xlink:title="../src/helloBye2Proto.cpp">
<polygon fill="none" stroke="black" points="1297.5,-168.5 1297.5,-187.5 1424.5,-187.5 1424.5,-168.5 1297.5,-168.5"/>
<text text-anchor="middle" x="1361" y="-175.5" font-family="Helvetica,sans-Serif" font-size="10.00">../src/helloBye2Proto.cpp</text>
</a>
</g>
</g>
<!-- Node3&#45;&gt;Node30 -->
<g id="edge40" class="edge"><title>Node3&#45;&gt;Node30</title>
<path fill="none" stroke="midnightblue" d="M1355.83,-224.083C1354.32,-216.927 1353.89,-206.635 1354.54,-197.691"/>
<polygon fill="midnightblue" stroke="midnightblue" points="1358.02,-198.126 1355.87,-187.751 1351.08,-197.2 1358.02,-198.126"/>
</g>
<!-- Node7 -->
<g id="node7" class="node"><title>Node7</title>
<polygon fill="none" stroke="#bfbfbf" points="1166,-0.5 1166,-19.5 1212,-19.5 1212,-0.5 1166,-0.5"/>
<text text-anchor="middle" x="1189" y="-7.5" font-family="Helvetica,sans-Serif" font-size="10.00">cstdint</text>
</g>
<!-- Node6&#45;&gt;Node7 -->
<g id="edge6" class="edge"><title>Node6&#45;&gt;Node7</title>
<path fill="none" stroke="midnightblue" d="M1070.34,-56.4435C1093.75,-47.4776 1130.74,-33.314 1157.19,-23.1827"/>
<polygon fill="midnightblue" stroke="midnightblue" points="1158.68,-26.3615 1166.76,-19.5164 1156.17,-19.8245 1158.68,-26.3615"/>
</g>
<!-- Node9 -->
<g id="node9" class="node"><title>Node9</title>
<polygon fill="none" stroke="#bfbfbf" points="930.5,-0.5 930.5,-19.5 989.5,-19.5 989.5,-0.5 930.5,-0.5"/>
<text text-anchor="middle" x="960" y="-7.5" font-family="Helvetica,sans-Serif" font-size="10.00">exception</text>
</g>
<!-- Node8&#45;&gt;Node9 -->
<g id="edge8" class="edge"><title>Node8&#45;&gt;Node9</title>
<path fill="none" stroke="midnightblue" d="M827.036,-56.4435C853.616,-47.3591 895.809,-32.9388 925.523,-22.7831"/>
<polygon fill="midnightblue" stroke="midnightblue" points="926.751,-26.0625 935.082,-19.5164 924.487,-19.4386 926.751,-26.0625"/>
</g>
<!-- Node10 -->
<g id="node10" class="node"><title>Node10</title>
<polygon fill="none" stroke="#bfbfbf" points="604.5,-0.5 604.5,-19.5 663.5,-19.5 663.5,-0.5 604.5,-0.5"/>
<text text-anchor="middle" x="634" y="-7.5" font-family="Helvetica,sans-Serif" font-size="10.00">stdexcept</text>
</g>
<!-- Node8&#45;&gt;Node10 -->
<g id="edge9" class="edge"><title>Node8&#45;&gt;Node10</title>
<path fill="none" stroke="midnightblue" d="M775.38,-56.4435C746.994,-47.3196 701.863,-32.8133 670.247,-22.6509"/>
<polygon fill="midnightblue" stroke="midnightblue" points="671.087,-19.2445 660.496,-19.5164 668.945,-25.9087 671.087,-19.2445"/>
</g>
<!-- Node11&#45;&gt;Node5 -->
<g id="edge14" class="edge"><title>Node11&#45;&gt;Node5</title>
<path fill="none" stroke="midnightblue" d="M1527.77,-56.324C1511.65,-47.7034 1486.7,-34.3643 1468.04,-24.3855"/>
<polygon fill="midnightblue" stroke="midnightblue" points="1469.66,-21.283 1459.19,-19.6545 1466.36,-27.456 1469.66,-21.283"/>
</g>
<!-- Node11&#45;&gt;Node7 -->
<g id="edge12" class="edge"><title>Node11&#45;&gt;Node7</title>
<path fill="none" stroke="midnightblue" d="M1508.99,-59.6745C1440.41,-49.2434 1289.25,-26.2499 1222.18,-16.047"/>
<polygon fill="midnightblue" stroke="midnightblue" points="1222.57,-12.5669 1212.16,-14.5232 1221.52,-19.4873 1222.57,-12.5669"/>
</g>
<!-- Node12 -->
<g id="node12" class="node"><title>Node12</title>
<polygon fill="none" stroke="#bfbfbf" points="1631,-0.5 1631,-19.5 1669,-19.5 1669,-0.5 1631,-0.5"/>
<text text-anchor="middle" x="1650" y="-7.5" font-family="Helvetica,sans-Serif" font-size="10.00">array</text>
</g>
<!-- Node11&#45;&gt;Node12 -->
<g id="edge11" class="edge"><title>Node11&#45;&gt;Node12</title>
<path fill="none" stroke="midnightblue" d="M1561.03,-56.324C1578.03,-47.6641 1604.38,-34.2424 1623.99,-24.249"/>
<polygon fill="midnightblue" stroke="midnightblue" points="1625.69,-27.3125 1633.01,-19.6545 1622.51,-21.0752 1625.69,-27.3125"/>
</g>
<!-- Node13 -->
<g id="node13" class="node"><title>Node13</title>
<polygon fill="none" stroke="#bfbfbf" points="1487,-0.5 1487,-19.5 1533,-19.5 1533,-0.5 1487,-0.5"/>
<text text-anchor="middle" x="1510" y="-7.5" font-family="Helvetica,sans-Serif" font-size="10.00">cstring</text>
</g>
<!-- Node11&#45;&gt;Node13 -->
<g id="edge13" class="edge"><title>Node11&#45;&gt;Node13</title>
<path fill="none" stroke="midnightblue" d="M1538.39,-56.083C1533.63,-48.5341 1526.68,-37.4948 1520.85,-28.2298"/>
<polygon fill="midnightblue" stroke="midnightblue" points="1523.8,-26.3486 1515.51,-19.7511 1517.88,-30.0783 1523.8,-26.3486"/>
</g>
<!-- Node14 -->
<g id="node14" class="node"><title>Node14</title>
<polygon fill="none" stroke="#bfbfbf" points="1294.5,-0.5 1294.5,-19.5 1335.5,-19.5 1335.5,-0.5 1294.5,-0.5"/>
<text text-anchor="middle" x="1315" y="-7.5" font-family="Helvetica,sans-Serif" font-size="10.00">string</text>
</g>
<!-- Node11&#45;&gt;Node14 -->
<g id="edge15" class="edge"><title>Node11&#45;&gt;Node14</title>
<path fill="none" stroke="midnightblue" d="M1508.72,-56.6808C1464.08,-46.1533 1387.91,-28.1937 1345.61,-18.2179"/>
<polygon fill="midnightblue" stroke="midnightblue" points="1346.16,-14.7518 1335.62,-15.8631 1344.55,-21.5649 1346.16,-14.7518"/>
</g>
<!-- Node15 -->
<g id="node15" class="node"><title>Node15</title>
<polygon fill="none" stroke="#bfbfbf" points="1551,-0.5 1551,-19.5 1613,-19.5 1613,-0.5 1551,-0.5"/>
<text text-anchor="middle" x="1582" y="-7.5" font-family="Helvetica,sans-Serif" font-size="10.00">arpa/inet.h</text>
</g>
<!-- Node11&#45;&gt;Node15 -->
<g id="edge16" class="edge"><title>Node11&#45;&gt;Node15</title>
<path fill="none" stroke="midnightblue" d="M1550.27,-56.083C1555.64,-48.4554 1563.52,-37.2645 1570.08,-27.9408"/>
<polygon fill="midnightblue" stroke="midnightblue" points="1572.95,-29.9434 1575.84,-19.7511 1567.22,-25.9149 1572.95,-29.9434"/>
</g>
<!-- Node16&#45;&gt;Node4 -->
<g id="edge25" class="edge"><title>Node16&#45;&gt;Node4</title>
<path fill="none" stroke="midnightblue" d="M600.5,-112.444C624.077,-103.478 661.322,-89.314 687.964,-79.1827"/>
<polygon fill="midnightblue" stroke="midnightblue" points="689.502,-82.3424 697.605,-75.5164 687.014,-75.7995 689.502,-82.3424"/>
</g>
<!-- Node16&#45;&gt;Node6 -->
<g id="edge36" class="edge"><title>Node16&#45;&gt;Node6</title>
<path fill="none" stroke="midnightblue" d="M625.229,-117.345C701.877,-111.118 858.296,-97.1774 1001.13,-75.9995"/>
<polygon fill="midnightblue" stroke="midnightblue" points="1002.02,-79.4055 1011.39,-74.4622 1000.98,-72.4828 1002.02,-79.4055"/>
</g>
<!-- Node16&#45;&gt;Node7 -->
<g id="edge20" class="edge"><title>Node16&#45;&gt;Node7</title>
<path fill="none" stroke="midnightblue" d="M592.137,-112.252C619.655,-95.2955 678.631,-59.3186 689,-56 733.289,-41.8249 1051.24,-20.0091 1155.78,-13.1441"/>
<polygon fill="midnightblue" stroke="midnightblue" points="1156.03,-16.6356 1165.78,-12.4907 1155.57,-9.65055 1156.03,-16.6356"/>
</g>
<!-- Node16&#45;&gt;Node8 -->
<g id="edge37" class="edge"><title>Node16&#45;&gt;Node8</title>
<path fill="none" stroke="midnightblue" d="M613.493,-112.444C652.324,-103.083 714.656,-88.0561 756.918,-77.868"/>
<polygon fill="midnightblue" stroke="midnightblue" points="757.771,-81.2626 766.673,-75.5164 756.131,-74.4576 757.771,-81.2626"/>
</g>
<!-- Node16&#45;&gt;Node10 -->
<g id="edge27" class="edge"><title>Node16&#45;&gt;Node10</title>
<path fill="none" stroke="midnightblue" d="M544.983,-112.47C510.939,-102.025 465.387,-82.4108 485,-56 509.893,-22.4786 559.018,-13.029 594.054,-10.8048"/>
<polygon fill="midnightblue" stroke="midnightblue" points="594.604,-14.2833 604.433,-10.3278 594.283,-7.29068 594.604,-14.2833"/>
</g>
<!-- Node17 -->
<g id="node17" class="node"><title>Node17</title>
<polygon fill="none" stroke="#bfbfbf" points="151.5,-0.5 151.5,-19.5 200.5,-19.5 200.5,-0.5 151.5,-0.5"/>
<text text-anchor="middle" x="176" y="-7.5" font-family="Helvetica,sans-Serif" font-size="10.00">cassert</text>
</g>
<!-- Node16&#45;&gt;Node17 -->
<g id="edge18" class="edge"><title>Node16&#45;&gt;Node17</title>
<path fill="none" stroke="midnightblue" d="M530.825,-119.484C446.965,-116.06 275.964,-105.575 225,-76 206.35,-65.1775 192.525,-44.1659 184.399,-28.9552"/>
<polygon fill="midnightblue" stroke="midnightblue" points="187.5,-27.3318 179.888,-19.9627 181.243,-30.4705 187.5,-27.3318"/>
</g>
<!-- Node18 -->
<g id="node18" class="node"><title>Node18</title>
<polygon fill="none" stroke="#bfbfbf" points="596,-56.5 596,-75.5 642,-75.5 642,-56.5 596,-56.5"/>
<text text-anchor="middle" x="619" y="-63.5" font-family="Helvetica,sans-Serif" font-size="10.00">chrono</text>
</g>
<!-- Node16&#45;&gt;Node18 -->
<g id="edge19" class="edge"><title>Node16&#45;&gt;Node18</title>
<path fill="none" stroke="midnightblue" d="M584.77,-112.083C590.562,-104.455 599.058,-93.2645 606.138,-83.9408"/>
<polygon fill="midnightblue" stroke="midnightblue" points="609.096,-85.8321 612.356,-75.7511 603.521,-81.5991 609.096,-85.8321"/>
</g>
<!-- Node19 -->
<g id="node19" class="node"><title>Node19</title>
<polygon fill="none" stroke="#bfbfbf" points="861.5,-56.5 861.5,-75.5 920.5,-75.5 920.5,-56.5 861.5,-56.5"/>
<text text-anchor="middle" x="891" y="-63.5" font-family="Helvetica,sans-Serif" font-size="10.00">functional</text>
</g>
<!-- Node16&#45;&gt;Node19 -->
<g id="edge21" class="edge"><title>Node16&#45;&gt;Node19</title>
<path fill="none" stroke="midnightblue" d="M625.194,-114.188C677.896,-106.372 765.942,-92.6924 851.369,-76.0174"/>
<polygon fill="midnightblue" stroke="midnightblue" points="852.096,-79.4415 861.232,-74.0762 850.744,-72.5732 852.096,-79.4415"/>
</g>
<!-- Node20 -->
<g id="node20" class="node"><title>Node20</title>
<polygon fill="none" stroke="#bfbfbf" points="939,-56.5 939,-75.5 993,-75.5 993,-56.5 939,-56.5"/>
<text text-anchor="middle" x="966" y="-63.5" font-family="Helvetica,sans-Serif" font-size="10.00">iostream</text>
</g>
<!-- Node16&#45;&gt;Node20 -->
<g id="edge22" class="edge"><title>Node16&#45;&gt;Node20</title>
<path fill="none" stroke="midnightblue" d="M625.097,-116.641C692.704,-110.004 821.018,-95.991 929,-76 929.102,-75.9812 929.203,-75.9623 929.305,-75.9433"/>
<polygon fill="midnightblue" stroke="midnightblue" points="929.915,-79.3914 938.997,-73.9353 928.495,-72.5369 929.915,-79.3914"/>
</g>
<!-- Node21 -->
<g id="node21" class="node"><title>Node21</title>
<polygon fill="none" stroke="#bfbfbf" points="138,-56.5 138,-75.5 178,-75.5 178,-56.5 138,-56.5"/>
<text text-anchor="middle" x="158" y="-63.5" font-family="Helvetica,sans-Serif" font-size="10.00">limits</text>
</g>
<!-- Node16&#45;&gt;Node21 -->
<g id="edge23" class="edge"><title>Node16&#45;&gt;Node21</title>
<path fill="none" stroke="midnightblue" d="M530.731,-117.675C457.635,-112.043 312.973,-98.9411 192,-76 190.718,-75.7568 189.412,-75.4915 188.097,-75.2095"/>
<polygon fill="midnightblue" stroke="midnightblue" points="188.566,-71.7233 178.027,-72.8089 186.943,-78.5325 188.566,-71.7233"/>
</g>
<!-- Node22 -->
<g id="node22" class="node"><title>Node22</title>
<polygon fill="none" stroke="#bfbfbf" points="324,-56.5 324,-75.5 376,-75.5 376,-56.5 324,-56.5"/>
<text text-anchor="middle" x="350" y="-63.5" font-family="Helvetica,sans-Serif" font-size="10.00">memory</text>
</g>
<!-- Node16&#45;&gt;Node22 -->
<g id="edge24" class="edge"><title>Node16&#45;&gt;Node22</title>
<path fill="none" stroke="midnightblue" d="M540.218,-112.457C503.32,-104.054 445.323,-90.6907 386.233,-76.2642"/>
<polygon fill="midnightblue" stroke="midnightblue" points="386.903,-72.8249 376.357,-73.8456 385.238,-79.624 386.903,-72.8249"/>
</g>
<!-- Node23 -->
<g id="node23" class="node"><title>Node23</title>
<polygon fill="none" stroke="#bfbfbf" points="394.5,-56.5 394.5,-75.5 437.5,-75.5 437.5,-56.5 394.5,-56.5"/>
<text text-anchor="middle" x="416" y="-63.5" font-family="Helvetica,sans-Serif" font-size="10.00">queue</text>
</g>
<!-- Node16&#45;&gt;Node23 -->
<g id="edge26" class="edge"><title>Node16&#45;&gt;Node23</title>
<path fill="none" stroke="midnightblue" d="M552.331,-112.444C523.875,-102.958 477.968,-87.656 447.394,-77.4647"/>
<polygon fill="midnightblue" stroke="midnightblue" points="448.255,-74.0623 437.661,-74.2203 446.041,-80.703 448.255,-74.0623"/>
</g>
<!-- Node24 -->
<g id="node24" class="node"><title>Node24</title>
<polygon fill="none" stroke="#bfbfbf" points="494.5,-56.5 494.5,-75.5 577.5,-75.5 577.5,-56.5 494.5,-56.5"/>
<text text-anchor="middle" x="536" y="-63.5" font-family="Helvetica,sans-Serif" font-size="10.00">unordered_map</text>
</g>
<!-- Node16&#45;&gt;Node24 -->
<g id="edge28" class="edge"><title>Node16&#45;&gt;Node24</title>
<path fill="none" stroke="midnightblue" d="M571.065,-112.083C565.071,-104.377 556.248,-93.0333 548.952,-83.6531"/>
<polygon fill="midnightblue" stroke="midnightblue" points="551.709,-81.4958 542.806,-75.7511 546.183,-85.7934 551.709,-81.4958"/>
</g>
<!-- Node25 -->
<g id="node25" class="node"><title>Node25</title>
<polygon fill="none" stroke="#bfbfbf" points="0,-0.5 0,-19.5 44,-19.5 44,-0.5 0,-0.5"/>
<text text-anchor="middle" x="22" y="-7.5" font-family="Helvetica,sans-Serif" font-size="10.00">vector</text>
</g>
<!-- Node16&#45;&gt;Node25 -->
<g id="edge29" class="edge"><title>Node16&#45;&gt;Node25</title>
<path fill="none" stroke="midnightblue" d="M530.857,-120.132C406.446,-117.418 76.2387,-107.311 39,-76 25.7673,-64.8737 22.1589,-44.8421 21.466,-29.9469"/>
<polygon fill="midnightblue" stroke="midnightblue" points="24.9649,-29.7649 21.3933,-19.7902 17.965,-29.815 24.9649,-29.7649"/>
</g>
<!-- Node16&#45;&gt;Node26 -->
<g id="edge30" class="edge"><title>Node16&#45;&gt;Node26</title>
<path fill="none" stroke="midnightblue" d="M530.949,-117.802C450.753,-112.021 282.292,-98.441 129.825,-75.9808"/>
<polygon fill="midnightblue" stroke="midnightblue" points="130.213,-72.5001 119.806,-74.4886 129.181,-79.4237 130.213,-72.5001"/>
</g>
<!-- Node28 -->
<g id="node28" class="node"><title>Node28</title>
<g id="a_node28"><a xlink:href="spinlock_8hpp.html" target="_top" xlink:title="spinlock.hpp">
<polygon fill="none" stroke="black" points="234.5,-56.5 234.5,-75.5 305.5,-75.5 305.5,-56.5 234.5,-56.5"/>
<text text-anchor="middle" x="270" y="-63.5" font-family="Helvetica,sans-Serif" font-size="10.00">spinlock.hpp</text>
</a>
</g>
</g>
<!-- Node16&#45;&gt;Node28 -->
<g id="edge38" class="edge"><title>Node16&#45;&gt;Node28</title>
<path fill="none" stroke="midnightblue" d="M530.896,-113.348C480.272,-105.032 397.187,-91.1239 315.763,-76.1"/>
<polygon fill="midnightblue" stroke="midnightblue" points="316.314,-72.6426 305.844,-74.2626 315.039,-79.5255 316.314,-72.6426"/>
</g>
<!-- Node26&#45;&gt;Node7 -->
<g id="edge32" class="edge"><title>Node26&#45;&gt;Node7</title>
<path fill="none" stroke="midnightblue" d="M119.78,-57.3206C122.889,-56.8125 125.994,-56.3606 129,-56 512.801,-9.95533 611.825,-37.0973 998,-20 1053.32,-17.5507 1117.65,-14.4719 1155.75,-12.624"/>
<polygon fill="midnightblue" stroke="midnightblue" points="1155.96,-16.1183 1165.77,-12.137 1155.62,-9.12655 1155.96,-16.1183"/>
</g>
<!-- Node26&#45;&gt;Node10 -->
<g id="edge33" class="edge"><title>Node26&#45;&gt;Node10</title>
<path fill="none" stroke="midnightblue" d="M119.801,-57.4756C122.905,-56.9338 126.003,-56.4319 129,-56 301.283,-31.1705 508.737,-17.8492 594.222,-13.0726"/>
<polygon fill="midnightblue" stroke="midnightblue" points="594.479,-16.5639 604.271,-12.5193 594.094,-9.57444 594.479,-16.5639"/>
</g>
<!-- Node26&#45;&gt;Node17 -->
<g id="edge31" class="edge"><title>Node26&#45;&gt;Node17</title>
<path fill="none" stroke="midnightblue" d="M98.7814,-56.324C113.267,-47.8215 135.573,-34.7288 152.493,-24.7975"/>
<polygon fill="midnightblue" stroke="midnightblue" points="154.403,-27.735 161.255,-19.6545 150.859,-21.6981 154.403,-27.735"/>
</g>
<!-- Node26&#45;&gt;Node25 -->
<g id="edge35" class="edge"><title>Node26&#45;&gt;Node25</title>
<path fill="none" stroke="midnightblue" d="M74.0386,-56.324C64.8734,-48.3414 51.0628,-36.3128 39.9718,-26.6529"/>
<polygon fill="midnightblue" stroke="midnightblue" points="41.9822,-23.7624 32.1426,-19.8339 37.3847,-29.041 41.9822,-23.7624"/>
</g>
<!-- Node27 -->
<g id="node27" class="node"><title>Node27</title>
<polygon fill="none" stroke="#bfbfbf" points="64,-0.5 64,-19.5 104,-19.5 104,-0.5 64,-0.5"/>
<text text-anchor="middle" x="84" y="-7.5" font-family="Helvetica,sans-Serif" font-size="10.00">utility</text>
</g>
<!-- Node26&#45;&gt;Node27 -->
<g id="edge34" class="edge"><title>Node26&#45;&gt;Node27</title>
<path fill="none" stroke="midnightblue" d="M84,-56.083C84,-49.0059 84,-38.8611 84,-29.9865"/>
<polygon fill="midnightblue" stroke="midnightblue" points="87.5001,-29.751 84,-19.7511 80.5001,-29.7511 87.5001,-29.751"/>
</g>
<!-- Node29 -->
<g id="node29" class="node"><title>Node29</title>
<polygon fill="none" stroke="#bfbfbf" points="247,-0.5 247,-19.5 293,-19.5 293,-0.5 247,-0.5"/>
<text text-anchor="middle" x="270" y="-7.5" font-family="Helvetica,sans-Serif" font-size="10.00">atomic</text>
</g>
<!-- Node28&#45;&gt;Node29 -->
<g id="edge39" class="edge"><title>Node28&#45;&gt;Node29</title>
<path fill="none" stroke="midnightblue" d="M270,-56.083C270,-49.0059 270,-38.8611 270,-29.9865"/>
<polygon fill="midnightblue" stroke="midnightblue" points="273.5,-29.751 270,-19.7511 266.5,-29.7511 273.5,-29.751"/>
</g>
<!-- Node30&#45;&gt;Node3 -->
<g id="edge55" class="edge"><title>Node30&#45;&gt;Node3</title>
<path fill="none" stroke="midnightblue" d="M1366.13,-187.751C1367.66,-194.858 1368.1,-205.136 1367.47,-214.101"/>
<polygon fill="midnightblue" stroke="midnightblue" points="1363.99,-213.713 1366.17,-224.083 1370.93,-214.622 1363.99,-213.713"/>
</g>
<!-- Node30&#45;&gt;Node5 -->
<g id="edge42" class="edge"><title>Node30&#45;&gt;Node5</title>
<path fill="none" stroke="midnightblue" d="M1365.41,-168.075C1378.43,-141.719 1416.88,-63.878 1434.28,-28.6608"/>
<polygon fill="midnightblue" stroke="midnightblue" points="1437.48,-30.084 1438.77,-19.5681 1431.2,-26.9838 1437.48,-30.084"/>
</g>
<!-- Node30&#45;&gt;Node11 -->
<g id="edge54" class="edge"><title>Node30&#45;&gt;Node11</title>
<path fill="none" stroke="midnightblue" d="M1375.36,-168.368C1406.9,-149.412 1482.44,-104.001 1520.8,-80.9424"/>
<polygon fill="midnightblue" stroke="midnightblue" points="1522.94,-83.7431 1529.71,-75.5914 1519.33,-77.7435 1522.94,-83.7431"/>
</g>
<!-- Node31 -->
<g id="node31" class="node"><title>Node31</title>
<polygon fill="none" stroke="#bfbfbf" points="1331.5,-56.5 1331.5,-75.5 1376.5,-75.5 1376.5,-56.5 1331.5,-56.5"/>
<text text-anchor="middle" x="1354" y="-63.5" font-family="Helvetica,sans-Serif" font-size="10.00">cstdlib</text>
</g>
<!-- Node30&#45;&gt;Node31 -->
<g id="edge41" class="edge"><title>Node30&#45;&gt;Node31</title>
<path fill="none" stroke="midnightblue" d="M1360.45,-168.368C1359.32,-150.617 1356.72,-109.666 1355.18,-85.5974"/>
<polygon fill="midnightblue" stroke="midnightblue" points="1358.67,-85.3489 1354.55,-75.5914 1351.69,-85.7935 1358.67,-85.3489"/>
</g>
<!-- Node32 -->
<g id="node32" class="node"><title>Node32</title>
<g id="a_node32"><a xlink:href="IPv4__5TupleL2Ident_8hpp.html" target="_top" xlink:title="IPv4_5TupleL2Ident.hpp">
<polygon fill="none" stroke="black" points="1090,-112.5 1090,-131.5 1212,-131.5 1212,-112.5 1090,-112.5"/>
<text text-anchor="middle" x="1151" y="-119.5" font-family="Helvetica,sans-Serif" font-size="10.00">IPv4_5TupleL2Ident.hpp</text>
</a>
</g>
</g>
<!-- Node30&#45;&gt;Node32 -->
<g id="edge43" class="edge"><title>Node30&#45;&gt;Node32</title>
<path fill="none" stroke="midnightblue" d="M1327.72,-168.444C1291.55,-159.142 1233.62,-144.246 1194.02,-134.062"/>
<polygon fill="midnightblue" stroke="midnightblue" points="1194.68,-130.617 1184.12,-131.516 1192.93,-137.397 1194.68,-130.617"/>
</g>
<!-- Node30&#45;&gt;Node33 -->
<g id="edge56" class="edge"><title>Node30&#45;&gt;Node33</title>
<path fill="none" stroke="midnightblue" d="M1388.1,-168.444C1416.99,-159.32 1462.92,-144.813 1495.11,-134.651"/>
<polygon fill="midnightblue" stroke="midnightblue" points="1496.55,-137.865 1505.03,-131.516 1494.44,-131.19 1496.55,-137.865"/>
</g>
<!-- Node35 -->
<g id="node35" class="node"><title>Node35</title>
<g id="a_node35"><a xlink:href="samplePacket_8hpp.html" target="_top" xlink:title="samplePacket.hpp">
<polygon fill="none" stroke="black" points="1235,-112.5 1235,-131.5 1333,-131.5 1333,-112.5 1235,-112.5"/>
<text text-anchor="middle" x="1284" y="-119.5" font-family="Helvetica,sans-Serif" font-size="10.00">samplePacket.hpp</text>
</a>
</g>
</g>
<!-- Node30&#45;&gt;Node35 -->
<g id="edge59" class="edge"><title>Node30&#45;&gt;Node35</title>
<path fill="none" stroke="midnightblue" d="M1348.63,-168.324C1336.84,-160.058 1318.87,-147.453 1304.86,-137.632"/>
<polygon fill="midnightblue" stroke="midnightblue" points="1306.54,-134.531 1296.34,-131.655 1302.52,-140.262 1306.54,-134.531"/>
</g>
<!-- Node32&#45;&gt;Node5 -->
<g id="edge48" class="edge"><title>Node32&#45;&gt;Node5</title>
<path fill="none" stroke="midnightblue" d="M1173.39,-112.431C1206.04,-99.9482 1268.64,-76.0641 1322,-56 1351.87,-44.7688 1385.94,-32.1105 1410.31,-23.0868"/>
<polygon fill="midnightblue" stroke="midnightblue" points="1411.62,-26.3315 1419.78,-19.5773 1409.19,-19.7669 1411.62,-26.3315"/>
</g>
<!-- Node32&#45;&gt;Node6 -->
<g id="edge51" class="edge"><title>Node32&#45;&gt;Node6</title>
<path fill="none" stroke="midnightblue" d="M1134.45,-112.324C1118.01,-103.703 1092.57,-90.3643 1073.53,-80.3855"/>
<polygon fill="midnightblue" stroke="midnightblue" points="1074.99,-77.198 1064.51,-75.6545 1071.74,-83.3977 1074.99,-77.198"/>
</g>
<!-- Node32&#45;&gt;Node7 -->
<g id="edge44" class="edge"><title>Node32&#45;&gt;Node7</title>
<path fill="none" stroke="midnightblue" d="M1153.98,-112.368C1160.14,-94.5366 1174.39,-53.2953 1182.69,-29.2717"/>
<polygon fill="midnightblue" stroke="midnightblue" points="1186.07,-30.1862 1186.03,-19.5914 1179.46,-27.9005 1186.07,-30.1862"/>
</g>
<!-- Node32&#45;&gt;Node8 -->
<g id="edge53" class="edge"><title>Node32&#45;&gt;Node8</title>
<path fill="none" stroke="midnightblue" d="M1091.07,-112.497C1032.83,-104.116 941.623,-90.6838 853.609,-76.2325"/>
<polygon fill="midnightblue" stroke="midnightblue" points="854.163,-72.7766 843.726,-74.6032 853.024,-79.6833 854.163,-72.7766"/>
</g>
<!-- Node32&#45;&gt;Node9 -->
<g id="edge45" class="edge"><title>Node32&#45;&gt;Node9</title>
<path fill="none" stroke="midnightblue" d="M1150.3,-112.463C1148.7,-98.5651 1143.52,-71.0895 1127,-56 1092.04,-24.0701 1036.79,-14.4017 999.511,-11.685"/>
<polygon fill="midnightblue" stroke="midnightblue" points="999.694,-8.18974 989.504,-11.0903 999.279,-15.1774 999.694,-8.18974"/>
</g>
<!-- Node32&#45;&gt;Node10 -->
<g id="edge49" class="edge"><title>Node32&#45;&gt;Node10</title>
<path fill="none" stroke="midnightblue" d="M1146.26,-112.403C1137.75,-97.8957 1118.35,-68.8767 1093,-56 1020.08,-18.9579 771.205,-12.379 673.669,-11.2324"/>
<polygon fill="midnightblue" stroke="midnightblue" points="673.662,-7.73225 663.626,-11.1275 673.589,-14.7319 673.662,-7.73225"/>
</g>
<!-- Node32&#45;&gt;Node11 -->
<g id="edge52" class="edge"><title>Node32&#45;&gt;Node11</title>
<path fill="none" stroke="midnightblue" d="M1212.41,-112.562C1291.83,-101.649 1428.33,-82.8941 1498.86,-73.2019"/>
<polygon fill="midnightblue" stroke="midnightblue" points="1499.35,-76.6684 1508.78,-71.8397 1498.39,-69.7336 1499.35,-76.6684"/>
</g>
<!-- Node32&#45;&gt;Node14 -->
<g id="edge50" class="edge"><title>Node32&#45;&gt;Node14</title>
<path fill="none" stroke="midnightblue" d="M1163.87,-112.368C1192.01,-93.4924 1259.26,-48.385 1293.77,-25.2367"/>
<polygon fill="midnightblue" stroke="midnightblue" points="1295.84,-28.0685 1302.19,-19.5914 1291.94,-22.2551 1295.84,-28.0685"/>
</g>
<!-- Node32&#45;&gt;Node19 -->
<g id="edge46" class="edge"><title>Node32&#45;&gt;Node19</title>
<path fill="none" stroke="midnightblue" d="M1107.32,-112.453C1064.78,-104.051 998.037,-90.665 930.725,-76.1138"/>
<polygon fill="midnightblue" stroke="midnightblue" points="931.307,-72.6588 920.793,-73.9589 929.823,-79.4996 931.307,-72.6588"/>
</g>
<!-- Node32&#45;&gt;Node20 -->
<g id="edge47" class="edge"><title>Node32&#45;&gt;Node20</title>
<path fill="none" stroke="midnightblue" d="M1121.69,-112.444C1089.51,-103.051 1037.79,-87.9549 1002.88,-77.7654"/>
<polygon fill="midnightblue" stroke="midnightblue" points="1003.65,-74.3438 993.07,-74.9015 1001.69,-81.0634 1003.65,-74.3438"/>
</g>
<!-- Node33&#45;&gt;Node7 -->
<g id="edge57" class="edge"><title>Node33&#45;&gt;Node7</title>
<path fill="none" stroke="midnightblue" d="M1515.34,-112.298C1488.67,-98.6592 1434.43,-72.1425 1386,-56 1329.63,-37.2125 1261.62,-23.5879 1222.05,-16.5179"/>
<polygon fill="midnightblue" stroke="midnightblue" points="1222.6,-13.0618 1212.15,-14.7805 1221.39,-19.9565 1222.6,-13.0618"/>
</g>
<!-- Node33&#45;&gt;Node34 -->
<g id="edge58" class="edge"><title>Node33&#45;&gt;Node34</title>
<path fill="none" stroke="midnightblue" d="M1553.07,-112.444C1575.06,-103.517 1609.73,-89.4387 1634.66,-79.3168"/>
<polygon fill="midnightblue" stroke="midnightblue" points="1636.08,-82.5213 1644.02,-75.5164 1633.44,-76.0355 1636.08,-82.5213"/>
</g>
<!-- Node35&#45;&gt;Node7 -->
<g id="edge60" class="edge"><title>Node35&#45;&gt;Node7</title>
<path fill="none" stroke="midnightblue" d="M1276.55,-112.368C1260.73,-94.0547 1223.59,-51.0489 1203.13,-27.3624"/>
<polygon fill="midnightblue" stroke="midnightblue" points="1205.6,-24.872 1196.42,-19.5914 1200.31,-29.4474 1205.6,-24.872"/>
</g>
<!-- Node35&#45;&gt;Node31 -->
<g id="edge61" class="edge"><title>Node35&#45;&gt;Node31</title>
<path fill="none" stroke="midnightblue" d="M1295.25,-112.324C1305.8,-104.185 1321.8,-91.8395 1334.44,-82.0874"/>
<polygon fill="midnightblue" stroke="midnightblue" points="1336.77,-84.7132 1342.55,-75.8339 1332.49,-79.1707 1336.77,-84.7132"/>
</g>
</g>
</svg>
