<?xml version="1.0" encoding="UTF-8" standalone="no"?>
<!DOCTYPE svg PUBLIC "-//W3C//DTD SVG 1.1//EN"
 "http://www.w3.org/Graphics/SVG/1.1/DTD/svg11.dtd">
<!-- Generated by graphviz version 2.38.0 (20140413.2041)
 -->
<!-- Title: /home/dominik/uni/MoonState/src/helloByeProtoStatic.cpp Pages: 1 -->
<svg width="1593pt" height="319pt"
 viewBox="0.00 0.00 1593.21 319.00" xmlns="http://www.w3.org/2000/svg" xmlns:xlink="http://www.w3.org/1999/xlink">
<g id="graph0" class="graph" transform="scale(1 1) rotate(0) translate(4 315)">
<title>/home/dominik/uni/MoonState/src/helloByeProtoStatic.cpp</title>
<!-- Node1 -->
<g id="node1" class="node"><title>Node1</title>
<polygon fill="#bfbfbf" stroke="black" points="923.709,-280.5 923.709,-310.5 1070.71,-310.5 1070.71,-280.5 923.709,-280.5"/>
<text text-anchor="start" x="931.709" y="-298.5" font-family="Helvetica,sans-Serif" font-size="10.00">/home/dominik/uni/MoonState</text>
<text text-anchor="middle" x="997.209" y="-287.5" font-family="Helvetica,sans-Serif" font-size="10.00">/src/helloByeProtoStatic.cpp</text>
</g>
<!-- Node2 -->
<g id="node2" class="node"><title>Node2</title>
<g id="a_node2"><a xlink:href="helloByeProto_8hpp.html" target="_top" xlink:title="helloByeProto.hpp">
<polygon fill="none" stroke="black" points="759.209,-224.5 759.209,-243.5 855.209,-243.5 855.209,-224.5 759.209,-224.5"/>
<text text-anchor="middle" x="807.209" y="-231.5" font-family="Helvetica,sans-Serif" font-size="10.00">helloByeProto.hpp</text>
</a>
</g>
</g>
<!-- Node1&#45;&gt;Node2 -->
<g id="edge1" class="edge"><title>Node1&#45;&gt;Node2</title>
<path fill="none" stroke="midnightblue" d="M952.182,-280.399C919.351,-270.118 875.388,-256.351 844.512,-246.682"/>
<polygon fill="midnightblue" stroke="midnightblue" points="845.168,-243.219 834.579,-243.571 843.076,-249.9 845.168,-243.219"/>
</g>
<!-- Node3 -->
<g id="node3" class="node"><title>Node3</title>
<polygon fill="none" stroke="#bfbfbf" points="1541.21,-56.5 1541.21,-75.5 1585.21,-75.5 1585.21,-56.5 1541.21,-56.5"/>
<text text-anchor="middle" x="1563.21" y="-63.5" font-family="Helvetica,sans-Serif" font-size="10.00">mutex</text>
</g>
<!-- Node1&#45;&gt;Node3 -->
<g id="edge58" class="edge"><title>Node1&#45;&gt;Node3</title>
<path fill="none" stroke="midnightblue" d="M1032.19,-280.441C1134.96,-239.132 1434.87,-118.585 1532.27,-79.4367"/>
<polygon fill="midnightblue" stroke="midnightblue" points="1533.86,-82.5703 1541.83,-75.5933 1531.25,-76.0753 1533.86,-82.5703"/>
</g>
<!-- Node2&#45;&gt;Node3 -->
<g id="edge2" class="edge"><title>Node2&#45;&gt;Node3</title>
<path fill="none" stroke="midnightblue" d="M852.01,-224.422C964.693,-202.607 1269.03,-142.201 1531.21,-76.1268"/>
<polygon fill="midnightblue" stroke="midnightblue" points="1532.07,-79.5188 1540.91,-73.6746 1530.36,-72.7323 1532.07,-79.5188"/>
</g>
<!-- Node4 -->
<g id="node4" class="node"><title>Node4</title>
<g id="a_node4"><a xlink:href="common_8hpp.html" target="_top" xlink:title="common.hpp">
<polygon fill="none" stroke="black" points="512.709,-56.5 512.709,-75.5 585.709,-75.5 585.709,-56.5 512.709,-56.5"/>
<text text-anchor="middle" x="549.209" y="-63.5" font-family="Helvetica,sans-Serif" font-size="10.00">common.hpp</text>
</a>
</g>
</g>
<!-- Node2&#45;&gt;Node4 -->
<g id="edge3" class="edge"><title>Node2&#45;&gt;Node4</title>
<path fill="none" stroke="midnightblue" d="M793.701,-224.309C751.643,-197.248 622.761,-114.324 571.031,-81.0406"/>
<polygon fill="midnightblue" stroke="midnightblue" points="572.887,-78.0727 562.583,-75.6051 569.099,-83.9594 572.887,-78.0727"/>
</g>
<!-- Node6 -->
<g id="node6" class="node"><title>Node6</title>
<g id="a_node6"><a xlink:href="stateMachine_8hpp.html" target="_top" xlink:title="stateMachine.hpp">
<polygon fill="none" stroke="black" points="1019.21,-112.5 1019.21,-131.5 1113.21,-131.5 1113.21,-112.5 1019.21,-112.5"/>
<text text-anchor="middle" x="1066.21" y="-119.5" font-family="Helvetica,sans-Serif" font-size="10.00">stateMachine.hpp</text>
</a>
</g>
</g>
<!-- Node2&#45;&gt;Node6 -->
<g id="edge5" class="edge"><title>Node2&#45;&gt;Node6</title>
<path fill="none" stroke="midnightblue" d="M827.532,-224.368C873.112,-205.01 983.648,-158.065 1036.76,-135.507"/>
<polygon fill="midnightblue" stroke="midnightblue" points="1038.14,-138.722 1045.98,-131.591 1035.41,-132.279 1038.14,-138.722"/>
</g>
<!-- Node23 -->
<g id="node23" class="node"><title>Node23</title>
<g id="a_node23"><a xlink:href="helloByeProto_8cpp.html" target="_top" xlink:title="../src/helloByeProto.cpp">
<polygon fill="none" stroke="black" points="261.209,-168.5 261.209,-187.5 383.209,-187.5 383.209,-168.5 261.209,-168.5"/>
<text text-anchor="middle" x="322.209" y="-175.5" font-family="Helvetica,sans-Serif" font-size="10.00">../src/helloByeProto.cpp</text>
</a>
</g>
</g>
<!-- Node2&#45;&gt;Node23 -->
<g id="edge30" class="edge"><title>Node2&#45;&gt;Node23</title>
<path fill="none" stroke="midnightblue" d="M758.786,-228.065C672.869,-218.852 493.688,-198.938 393.608,-187.515"/>
<polygon fill="midnightblue" stroke="midnightblue" points="393.917,-184.028 383.584,-186.369 393.121,-190.982 393.917,-184.028"/>
</g>
<!-- Node5 -->
<g id="node5" class="node"><title>Node5</title>
<polygon fill="none" stroke="#bfbfbf" points="385.209,-0.5 385.209,-19.5 431.209,-19.5 431.209,-0.5 385.209,-0.5"/>
<text text-anchor="middle" x="408.209" y="-7.5" font-family="Helvetica,sans-Serif" font-size="10.00">cstdint</text>
</g>
<!-- Node4&#45;&gt;Node5 -->
<g id="edge4" class="edge"><title>Node4&#45;&gt;Node5</title>
<path fill="none" stroke="midnightblue" d="M526.867,-56.4435C503.456,-47.4776 466.474,-33.314 440.02,-23.1827"/>
<polygon fill="midnightblue" stroke="midnightblue" points="441.037,-19.8245 430.447,-19.5164 438.533,-26.3615 441.037,-19.8245"/>
</g>
<!-- Node6&#45;&gt;Node3 -->
<g id="edge13" class="edge"><title>Node6&#45;&gt;Node3</title>
<path fill="none" stroke="midnightblue" d="M1113.42,-117.565C1211.67,-110.239 1436.25,-92.5311 1531.14,-75.8144"/>
<polygon fill="midnightblue" stroke="midnightblue" points="1531.78,-79.254 1540.98,-73.9916 1530.51,-72.3711 1531.78,-79.254"/>
</g>
<!-- Node6&#45;&gt;Node4 -->
<g id="edge24" class="edge"><title>Node6&#45;&gt;Node4</title>
<path fill="none" stroke="midnightblue" d="M1018.9,-118.02C935.554,-112.435 756.977,-98.9704 595.905,-75.9552"/>
<polygon fill="midnightblue" stroke="midnightblue" points="596.21,-72.463 585.812,-74.4971 595.209,-79.3911 596.21,-72.463"/>
</g>
<!-- Node6&#45;&gt;Node5 -->
<g id="edge8" class="edge"><title>Node6&#45;&gt;Node5</title>
<path fill="none" stroke="midnightblue" d="M1019.07,-118.069C962.02,-113.49 863.601,-102.264 783.209,-76 764.693,-69.9506 762.799,-61.8216 744.209,-56 637.183,-22.4828 503.318,-13.9301 441.872,-11.7477"/>
<polygon fill="midnightblue" stroke="midnightblue" points="441.715,-8.24097 431.609,-11.4194 441.492,-15.2374 441.715,-8.24097"/>
</g>
<!-- Node7 -->
<g id="node7" class="node"><title>Node7</title>
<polygon fill="none" stroke="#bfbfbf" points="1369.71,-0.5 1369.71,-19.5 1418.71,-19.5 1418.71,-0.5 1369.71,-0.5"/>
<text text-anchor="middle" x="1394.21" y="-7.5" font-family="Helvetica,sans-Serif" font-size="10.00">cassert</text>
</g>
<!-- Node6&#45;&gt;Node7 -->
<g id="edge6" class="edge"><title>Node6&#45;&gt;Node7</title>
<path fill="none" stroke="midnightblue" d="M1113.35,-118.495C1205.85,-113.096 1403.96,-98.9593 1424.21,-76 1436.72,-61.82 1423.76,-41.5369 1411.19,-27.413"/>
<polygon fill="midnightblue" stroke="midnightblue" points="1413.46,-24.7241 1404.03,-19.9016 1408.4,-29.5544 1413.46,-24.7241"/>
</g>
<!-- Node8 -->
<g id="node8" class="node"><title>Node8</title>
<polygon fill="none" stroke="#bfbfbf" points="1311.21,-56.5 1311.21,-75.5 1357.21,-75.5 1357.21,-56.5 1311.21,-56.5"/>
<text text-anchor="middle" x="1334.21" y="-63.5" font-family="Helvetica,sans-Serif" font-size="10.00">chrono</text>
</g>
<!-- Node6&#45;&gt;Node8 -->
<g id="edge7" class="edge"><title>Node6&#45;&gt;Node8</title>
<path fill="none" stroke="midnightblue" d="M1113.24,-112.497C1160.01,-103.887 1233.75,-89.8919 1297.21,-76 1298.48,-75.7217 1299.78,-75.4329 1301.08,-75.137"/>
<polygon fill="midnightblue" stroke="midnightblue" points="1302.21,-78.4668 1311.15,-72.7821 1300.62,-71.6507 1302.21,-78.4668"/>
</g>
<!-- Node9 -->
<g id="node9" class="node"><title>Node9</title>
<polygon fill="none" stroke="#bfbfbf" points="676.709,-56.5 676.709,-75.5 735.709,-75.5 735.709,-56.5 676.709,-56.5"/>
<text text-anchor="middle" x="706.209" y="-63.5" font-family="Helvetica,sans-Serif" font-size="10.00">functional</text>
</g>
<!-- Node6&#45;&gt;Node9 -->
<g id="edge9" class="edge"><title>Node6&#45;&gt;Node9</title>
<path fill="none" stroke="midnightblue" d="M1018.96,-115.175C957.056,-107.337 845.214,-92.4656 750.209,-76 748.769,-75.7503 747.303,-75.489 745.824,-75.219"/>
<polygon fill="midnightblue" stroke="midnightblue" points="746.464,-71.7779 735.985,-73.3437 745.153,-78.6542 746.464,-71.7779"/>
</g>
<!-- Node10 -->
<g id="node10" class="node"><title>Node10</title>
<polygon fill="none" stroke="#bfbfbf" points="604.209,-56.5 604.209,-75.5 658.209,-75.5 658.209,-56.5 604.209,-56.5"/>
<text text-anchor="middle" x="631.209" y="-63.5" font-family="Helvetica,sans-Serif" font-size="10.00">iostream</text>
</g>
<!-- Node6&#45;&gt;Node10 -->
<g id="edge10" class="edge"><title>Node6&#45;&gt;Node10</title>
<path fill="none" stroke="midnightblue" d="M1018.93,-117.709C945.756,-112.17 800.574,-99.4047 668.168,-75.9506"/>
<polygon fill="midnightblue" stroke="midnightblue" points="668.714,-72.4927 658.253,-74.1696 667.476,-79.3825 668.714,-72.4927"/>
</g>
<!-- Node11 -->
<g id="node11" class="node"><title>Node11</title>
<polygon fill="none" stroke="#bfbfbf" points="1375.21,-56.5 1375.21,-75.5 1415.21,-75.5 1415.21,-56.5 1375.21,-56.5"/>
<text text-anchor="middle" x="1395.21" y="-63.5" font-family="Helvetica,sans-Serif" font-size="10.00">limits</text>
</g>
<!-- Node6&#45;&gt;Node11 -->
<g id="edge11" class="edge"><title>Node6&#45;&gt;Node11</title>
<path fill="none" stroke="midnightblue" d="M1113.39,-116.17C1170.8,-109.797 1270.78,-97.1078 1365.05,-75.9672"/>
<polygon fill="midnightblue" stroke="midnightblue" points="1366.06,-79.3261 1375.03,-73.6909 1364.51,-72.5012 1366.06,-79.3261"/>
</g>
<!-- Node12 -->
<g id="node12" class="node"><title>Node12</title>
<polygon fill="none" stroke="#bfbfbf" points="1471.21,-56.5 1471.21,-75.5 1523.21,-75.5 1523.21,-56.5 1471.21,-56.5"/>
<text text-anchor="middle" x="1497.21" y="-63.5" font-family="Helvetica,sans-Serif" font-size="10.00">memory</text>
</g>
<!-- Node6&#45;&gt;Node12 -->
<g id="edge12" class="edge"><title>Node6&#45;&gt;Node12</title>
<path fill="none" stroke="midnightblue" d="M1113.38,-117.208C1187.1,-110.916 1333.92,-96.9025 1457.21,-76 1458.47,-75.7858 1459.76,-75.5573 1461.05,-75.3174"/>
<polygon fill="midnightblue" stroke="midnightblue" points="1461.92,-78.7117 1471.04,-73.3087 1460.54,-71.8491 1461.92,-78.7117"/>
</g>
<!-- Node13 -->
<g id="node13" class="node"><title>Node13</title>
<polygon fill="none" stroke="#bfbfbf" points="893.709,-56.5 893.709,-75.5 936.709,-75.5 936.709,-56.5 893.709,-56.5"/>
<text text-anchor="middle" x="915.209" y="-63.5" font-family="Helvetica,sans-Serif" font-size="10.00">queue</text>
</g>
<!-- Node6&#45;&gt;Node13 -->
<g id="edge14" class="edge"><title>Node6&#45;&gt;Node13</title>
<path fill="none" stroke="midnightblue" d="M1042.28,-112.444C1016.4,-103.186 975.012,-88.3866 946.546,-78.2066"/>
<polygon fill="midnightblue" stroke="midnightblue" points="947.657,-74.8869 937.063,-74.8151 945.3,-81.4781 947.657,-74.8869"/>
</g>
<!-- Node14 -->
<g id="node14" class="node"><title>Node14</title>
<polygon fill="none" stroke="#bfbfbf" points="912.709,-0.5 912.709,-19.5 971.709,-19.5 971.709,-0.5 912.709,-0.5"/>
<text text-anchor="middle" x="942.209" y="-7.5" font-family="Helvetica,sans-Serif" font-size="10.00">stdexcept</text>
</g>
<!-- Node6&#45;&gt;Node14 -->
<g id="edge15" class="edge"><title>Node6&#45;&gt;Node14</title>
<path fill="none" stroke="midnightblue" d="M1065.79,-112.307C1064.69,-98.6814 1060.7,-72.1819 1046.21,-56 1029.36,-37.1926 1003.27,-25.9326 981.432,-19.3795"/>
<polygon fill="midnightblue" stroke="midnightblue" points="982.32,-15.9936 971.748,-16.6896 980.447,-22.7382 982.32,-15.9936"/>
</g>
<!-- Node15 -->
<g id="node15" class="node"><title>Node15</title>
<polygon fill="none" stroke="#bfbfbf" points="954.709,-56.5 954.709,-75.5 1037.71,-75.5 1037.71,-56.5 954.709,-56.5"/>
<text text-anchor="middle" x="996.209" y="-63.5" font-family="Helvetica,sans-Serif" font-size="10.00">unordered_map</text>
</g>
<!-- Node6&#45;&gt;Node15 -->
<g id="edge16" class="edge"><title>Node6&#45;&gt;Node15</title>
<path fill="none" stroke="midnightblue" d="M1054.96,-112.324C1044.41,-104.185 1028.41,-91.8395 1015.77,-82.0874"/>
<polygon fill="midnightblue" stroke="midnightblue" points="1017.72,-79.1707 1007.66,-75.8339 1013.44,-84.7132 1017.72,-79.1707"/>
</g>
<!-- Node16 -->
<g id="node16" class="node"><title>Node16</title>
<polygon fill="none" stroke="#bfbfbf" points="1259.21,-0.5 1259.21,-19.5 1303.21,-19.5 1303.21,-0.5 1259.21,-0.5"/>
<text text-anchor="middle" x="1281.21" y="-7.5" font-family="Helvetica,sans-Serif" font-size="10.00">vector</text>
</g>
<!-- Node6&#45;&gt;Node16 -->
<g id="edge17" class="edge"><title>Node6&#45;&gt;Node16</title>
<path fill="none" stroke="midnightblue" d="M1113.4,-115.803C1164.65,-109.22 1242.03,-96.2364 1263.21,-76 1275.63,-64.1282 1279.73,-44.5047 1280.96,-29.9196"/>
<polygon fill="midnightblue" stroke="midnightblue" points="1284.48,-29.698 1281.44,-19.5472 1277.48,-29.3752 1284.48,-29.698"/>
</g>
<!-- Node17 -->
<g id="node17" class="node"><title>Node17</title>
<g id="a_node17"><a xlink:href="bufArray_8hpp.html" target="_top" xlink:title="bufArray.hpp">
<polygon fill="none" stroke="black" points="1183.71,-56.5 1183.71,-75.5 1254.71,-75.5 1254.71,-56.5 1183.71,-56.5"/>
<text text-anchor="middle" x="1219.21" y="-63.5" font-family="Helvetica,sans-Serif" font-size="10.00">bufArray.hpp</text>
</a>
</g>
</g>
<!-- Node6&#45;&gt;Node17 -->
<g id="edge18" class="edge"><title>Node6&#45;&gt;Node17</title>
<path fill="none" stroke="midnightblue" d="M1090.45,-112.444C1116.08,-103.399 1156.69,-89.064 1185.45,-78.9158"/>
<polygon fill="midnightblue" stroke="midnightblue" points="1186.81,-82.1452 1195.08,-75.5164 1184.48,-75.5442 1186.81,-82.1452"/>
</g>
<!-- Node19 -->
<g id="node19" class="node"><title>Node19</title>
<g id="a_node19"><a xlink:href="exceptions_8hpp.html" target="_top" xlink:title="exceptions.hpp">
<polygon fill="none" stroke="black" points="792.709,-56.5 792.709,-75.5 875.709,-75.5 875.709,-56.5 792.709,-56.5"/>
<text text-anchor="middle" x="834.209" y="-63.5" font-family="Helvetica,sans-Serif" font-size="10.00">exceptions.hpp</text>
</a>
</g>
</g>
<!-- Node6&#45;&gt;Node19 -->
<g id="edge25" class="edge"><title>Node6&#45;&gt;Node19</title>
<path fill="none" stroke="midnightblue" d="M1029.45,-112.444C989.146,-103.063 924.4,-87.9926 880.625,-77.8036"/>
<polygon fill="midnightblue" stroke="midnightblue" points="881.331,-74.3746 870.798,-75.5164 879.744,-81.1924 881.331,-74.3746"/>
</g>
<!-- Node21 -->
<g id="node21" class="node"><title>Node21</title>
<g id="a_node21"><a xlink:href="spinlock_8hpp.html" target="_top" xlink:title="spinlock.hpp">
<polygon fill="none" stroke="black" points="1094.71,-56.5 1094.71,-75.5 1165.71,-75.5 1165.71,-56.5 1094.71,-56.5"/>
<text text-anchor="middle" x="1130.21" y="-63.5" font-family="Helvetica,sans-Serif" font-size="10.00">spinlock.hpp</text>
</a>
</g>
</g>
<!-- Node6&#45;&gt;Node21 -->
<g id="edge28" class="edge"><title>Node6&#45;&gt;Node21</title>
<path fill="none" stroke="midnightblue" d="M1076.49,-112.324C1086.05,-104.263 1100.49,-92.0765 1111.99,-82.3695"/>
<polygon fill="midnightblue" stroke="midnightblue" points="1114.35,-84.9577 1119.74,-75.8339 1109.84,-79.6076 1114.35,-84.9577"/>
</g>
<!-- Node17&#45;&gt;Node5 -->
<g id="edge20" class="edge"><title>Node17&#45;&gt;Node5</title>
<path fill="none" stroke="midnightblue" d="M1183.42,-57.377C1180.31,-56.8567 1177.21,-56.3866 1174.21,-56 1029.3,-37.3437 570.317,-17.6196 441.892,-12.3553"/>
<polygon fill="midnightblue" stroke="midnightblue" points="441.655,-8.84282 431.521,-11.9322 441.37,-15.837 441.655,-8.84282"/>
</g>
<!-- Node17&#45;&gt;Node7 -->
<g id="edge19" class="edge"><title>Node17&#45;&gt;Node7</title>
<path fill="none" stroke="midnightblue" d="M1246.94,-56.4435C1277.51,-47.0106 1326.72,-31.8245 1359.75,-21.6337"/>
<polygon fill="midnightblue" stroke="midnightblue" points="1360.92,-24.9363 1369.44,-18.6433 1358.85,-18.2475 1360.92,-24.9363"/>
</g>
<!-- Node17&#45;&gt;Node14 -->
<g id="edge21" class="edge"><title>Node17&#45;&gt;Node14</title>
<path fill="none" stroke="midnightblue" d="M1183.35,-57.809C1180.26,-57.1948 1177.18,-56.5851 1174.21,-56 1106.66,-42.6937 1027.98,-27.4963 981.788,-18.6045"/>
<polygon fill="midnightblue" stroke="midnightblue" points="982.366,-15.1514 971.884,-16.6988 981.043,-22.0253 982.366,-15.1514"/>
</g>
<!-- Node17&#45;&gt;Node16 -->
<g id="edge23" class="edge"><title>Node17&#45;&gt;Node16</title>
<path fill="none" stroke="midnightblue" d="M1229.17,-56.324C1238.34,-48.3414 1252.15,-36.3128 1263.24,-26.6529"/>
<polygon fill="midnightblue" stroke="midnightblue" points="1265.82,-29.041 1271.07,-19.8339 1261.23,-23.7624 1265.82,-29.041"/>
</g>
<!-- Node18 -->
<g id="node18" class="node"><title>Node18</title>
<polygon fill="none" stroke="#bfbfbf" points="1199.21,-0.5 1199.21,-19.5 1239.21,-19.5 1239.21,-0.5 1199.21,-0.5"/>
<text text-anchor="middle" x="1219.21" y="-7.5" font-family="Helvetica,sans-Serif" font-size="10.00">utility</text>
</g>
<!-- Node17&#45;&gt;Node18 -->
<g id="edge22" class="edge"><title>Node17&#45;&gt;Node18</title>
<path fill="none" stroke="midnightblue" d="M1219.21,-56.083C1219.21,-49.0059 1219.21,-38.8611 1219.21,-29.9865"/>
<polygon fill="midnightblue" stroke="midnightblue" points="1222.71,-29.751 1219.21,-19.7511 1215.71,-29.7511 1222.71,-29.751"/>
</g>
<!-- Node19&#45;&gt;Node14 -->
<g id="edge27" class="edge"><title>Node19&#45;&gt;Node14</title>
<path fill="none" stroke="midnightblue" d="M851.561,-56.324C868.881,-47.6641 895.724,-34.2424 915.711,-24.249"/>
<polygon fill="midnightblue" stroke="midnightblue" points="917.521,-27.2572 924.9,-19.6545 914.391,-20.9962 917.521,-27.2572"/>
</g>
<!-- Node20 -->
<g id="node20" class="node"><title>Node20</title>
<polygon fill="none" stroke="#bfbfbf" points="696.709,-0.5 696.709,-19.5 755.709,-19.5 755.709,-0.5 696.709,-0.5"/>
<text text-anchor="middle" x="726.209" y="-7.5" font-family="Helvetica,sans-Serif" font-size="10.00">exception</text>
</g>
<!-- Node19&#45;&gt;Node20 -->
<g id="edge26" class="edge"><title>Node19&#45;&gt;Node20</title>
<path fill="none" stroke="midnightblue" d="M816.857,-56.324C799.537,-47.6641 772.694,-34.2424 752.707,-24.249"/>
<polygon fill="midnightblue" stroke="midnightblue" points="754.028,-20.9962 743.518,-19.6545 750.897,-27.2572 754.028,-20.9962"/>
</g>
<!-- Node22 -->
<g id="node22" class="node"><title>Node22</title>
<polygon fill="none" stroke="#bfbfbf" points="1107.21,-0.5 1107.21,-19.5 1153.21,-19.5 1153.21,-0.5 1107.21,-0.5"/>
<text text-anchor="middle" x="1130.21" y="-7.5" font-family="Helvetica,sans-Serif" font-size="10.00">atomic</text>
</g>
<!-- Node21&#45;&gt;Node22 -->
<g id="edge29" class="edge"><title>Node21&#45;&gt;Node22</title>
<path fill="none" stroke="midnightblue" d="M1130.21,-56.083C1130.21,-49.0059 1130.21,-38.8611 1130.21,-29.9865"/>
<polygon fill="midnightblue" stroke="midnightblue" points="1133.71,-29.751 1130.21,-19.7511 1126.71,-29.7511 1133.71,-29.751"/>
</g>
<!-- Node23&#45;&gt;Node2 -->
<g id="edge51" class="edge"><title>Node23&#45;&gt;Node2</title>
<path fill="none" stroke="midnightblue" d="M383.224,-185.29C477.283,-195.439 656.27,-215.36 748.756,-225.966"/>
<polygon fill="midnightblue" stroke="midnightblue" points="748.45,-229.454 758.784,-227.118 749.249,-222.499 748.45,-229.454"/>
</g>
<!-- Node24 -->
<g id="node24" class="node"><title>Node24</title>
<polygon fill="none" stroke="#bfbfbf" points="13.7092,-56.5 13.7092,-75.5 58.7092,-75.5 58.7092,-56.5 13.7092,-56.5"/>
<text text-anchor="middle" x="36.2092" y="-63.5" font-family="Helvetica,sans-Serif" font-size="10.00">cstdlib</text>
</g>
<!-- Node23&#45;&gt;Node24 -->
<g id="edge31" class="edge"><title>Node23&#45;&gt;Node24</title>
<path fill="none" stroke="midnightblue" d="M299.767,-168.368C249.228,-148.93 126.363,-101.674 68.0015,-79.2278"/>
<polygon fill="midnightblue" stroke="midnightblue" points="69.1368,-75.9146 58.5469,-75.5914 66.6239,-82.448 69.1368,-75.9146"/>
</g>
<!-- Node25 -->
<g id="node25" class="node"><title>Node25</title>
<polygon fill="none" stroke="#bfbfbf" points="32.2092,-0.5 32.2092,-19.5 84.2092,-19.5 84.2092,-0.5 32.2092,-0.5"/>
<text text-anchor="middle" x="58.2092" y="-7.5" font-family="Helvetica,sans-Serif" font-size="10.00">sstream</text>
</g>
<!-- Node23&#45;&gt;Node25 -->
<g id="edge32" class="edge"><title>Node23&#45;&gt;Node25</title>
<path fill="none" stroke="midnightblue" d="M271.059,-168.492C189.183,-153.684 34.769,-120.452 4.20918,-76 -8.548,-57.4434 13.4054,-37.772 33.0321,-24.9935"/>
<polygon fill="midnightblue" stroke="midnightblue" points="35.0643,-27.8528 41.753,-19.6361 31.4003,-21.8883 35.0643,-27.8528"/>
</g>
<!-- Node26 -->
<g id="node26" class="node"><title>Node26</title>
<g id="a_node26"><a xlink:href="IPv4__5TupleL2Ident_8hpp.html" target="_top" xlink:title="IPv4_5TupleL2Ident.hpp">
<polygon fill="none" stroke="black" points="417.209,-112.5 417.209,-131.5 539.209,-131.5 539.209,-112.5 417.209,-112.5"/>
<text text-anchor="middle" x="478.209" y="-119.5" font-family="Helvetica,sans-Serif" font-size="10.00">IPv4_5TupleL2Ident.hpp</text>
</a>
</g>
</g>
<!-- Node23&#45;&gt;Node26 -->
<g id="edge33" class="edge"><title>Node23&#45;&gt;Node26</title>
<path fill="none" stroke="midnightblue" d="M346.928,-168.444C373.058,-159.399 414.469,-145.064 443.786,-134.916"/>
<polygon fill="midnightblue" stroke="midnightblue" points="445.301,-138.095 453.606,-131.516 443.011,-131.48 445.301,-138.095"/>
</g>
<!-- Node28 -->
<g id="node28" class="node"><title>Node28</title>
<g id="a_node28"><a xlink:href="headers_8hpp.html" target="_top" xlink:title="headers.hpp">
<polygon fill="none" stroke="black" points="196.209,-56.5 196.209,-75.5 266.209,-75.5 266.209,-56.5 196.209,-56.5"/>
<text text-anchor="middle" x="231.209" y="-63.5" font-family="Helvetica,sans-Serif" font-size="10.00">headers.hpp</text>
</a>
</g>
</g>
<!-- Node23&#45;&gt;Node28 -->
<g id="edge50" class="edge"><title>Node23&#45;&gt;Node28</title>
<path fill="none" stroke="midnightblue" d="M272.435,-168.45C251.381,-162.104 228.843,-151.089 216.209,-132 206.848,-117.856 213.107,-98.6221 220.177,-84.7508"/>
<polygon fill="midnightblue" stroke="midnightblue" points="223.391,-86.1769 225.258,-75.7477 217.295,-82.7368 223.391,-86.1769"/>
</g>
<!-- Node32 -->
<g id="node32" class="node"><title>Node32</title>
<g id="a_node32"><a xlink:href="mbuf_8hpp.html" target="_top" xlink:title="mbuf.hpp">
<polygon fill="none" stroke="black" points="341.709,-112.5 341.709,-131.5 398.709,-131.5 398.709,-112.5 341.709,-112.5"/>
<text text-anchor="middle" x="370.209" y="-119.5" font-family="Helvetica,sans-Serif" font-size="10.00">mbuf.hpp</text>
</a>
</g>
</g>
<!-- Node23&#45;&gt;Node32 -->
<g id="edge52" class="edge"><title>Node23&#45;&gt;Node32</title>
<path fill="none" stroke="midnightblue" d="M330.135,-168.083C337.055,-160.298 347.275,-148.801 355.661,-139.367"/>
<polygon fill="midnightblue" stroke="midnightblue" points="358.403,-141.55 362.43,-131.751 353.171,-136.9 358.403,-141.55"/>
</g>
<!-- Node34 -->
<g id="node34" class="node"><title>Node34</title>
<g id="a_node34"><a xlink:href="samplePacket_8hpp.html" target="_top" xlink:title="samplePacket.hpp">
<polygon fill="none" stroke="black" points="225.209,-112.5 225.209,-131.5 323.209,-131.5 323.209,-112.5 225.209,-112.5"/>
<text text-anchor="middle" x="274.209" y="-119.5" font-family="Helvetica,sans-Serif" font-size="10.00">samplePacket.hpp</text>
</a>
</g>
</g>
<!-- Node23&#45;&gt;Node34 -->
<g id="edge55" class="edge"><title>Node23&#45;&gt;Node34</title>
<path fill="none" stroke="midnightblue" d="M314.283,-168.083C307.363,-160.298 297.144,-148.801 288.757,-139.367"/>
<polygon fill="midnightblue" stroke="midnightblue" points="291.248,-136.9 281.988,-131.751 286.016,-141.55 291.248,-136.9"/>
</g>
<!-- Node26&#45;&gt;Node4 -->
<g id="edge41" class="edge"><title>Node26&#45;&gt;Node4</title>
<path fill="none" stroke="midnightblue" d="M489.617,-112.324C500.318,-104.185 516.55,-91.8395 529.372,-82.0874"/>
<polygon fill="midnightblue" stroke="midnightblue" points="531.754,-84.6734 537.594,-75.8339 527.516,-79.1018 531.754,-84.6734"/>
</g>
<!-- Node26&#45;&gt;Node5 -->
<g id="edge34" class="edge"><title>Node26&#45;&gt;Node5</title>
<path fill="none" stroke="midnightblue" d="M466.975,-112.46C456.696,-104.136 441.688,-90.6253 432.209,-76 422.907,-61.6466 416.534,-43.1856 412.706,-29.6078"/>
<polygon fill="midnightblue" stroke="midnightblue" points="415.993,-28.3405 410.081,-19.5483 409.22,-30.1081 415.993,-28.3405"/>
</g>
<!-- Node26&#45;&gt;Node9 -->
<g id="edge36" class="edge"><title>Node26&#45;&gt;Node9</title>
<path fill="none" stroke="midnightblue" d="M514.336,-112.444C555.837,-102.615 623.71,-86.5392 666.616,-76.3774"/>
<polygon fill="midnightblue" stroke="midnightblue" points="667.503,-79.7642 676.427,-74.0537 665.889,-72.9527 667.503,-79.7642"/>
</g>
<!-- Node26&#45;&gt;Node10 -->
<g id="edge37" class="edge"><title>Node26&#45;&gt;Node10</title>
<path fill="none" stroke="midnightblue" d="M502.452,-112.444C528.08,-103.399 568.694,-89.064 597.448,-78.9158"/>
<polygon fill="midnightblue" stroke="midnightblue" points="598.814,-82.1452 607.079,-75.5164 596.484,-75.5442 598.814,-82.1452"/>
</g>
<!-- Node26&#45;&gt;Node14 -->
<g id="edge39" class="edge"><title>Node26&#45;&gt;Node14</title>
<path fill="none" stroke="midnightblue" d="M478.788,-112.142C480.243,-97.7841 485.346,-69.6614 503.209,-56 534.582,-32.0073 800.236,-17.47 902.4,-12.7222"/>
<polygon fill="midnightblue" stroke="midnightblue" points="902.785,-16.2084 912.614,-12.255 902.465,-9.21567 902.785,-16.2084"/>
</g>
<!-- Node26&#45;&gt;Node19 -->
<g id="edge49" class="edge"><title>Node26&#45;&gt;Node19</title>
<path fill="none" stroke="midnightblue" d="M534.618,-112.444C602.732,-102.112 716.347,-84.8779 782.354,-74.8657"/>
<polygon fill="midnightblue" stroke="midnightblue" points="783.162,-78.2832 792.524,-73.323 782.113,-71.3623 783.162,-78.2832"/>
</g>
<!-- Node26&#45;&gt;Node20 -->
<g id="edge35" class="edge"><title>Node26&#45;&gt;Node20</title>
<path fill="none" stroke="midnightblue" d="M473.475,-112.27C466.775,-98.5918 456.757,-72.0225 470.209,-56 497.351,-23.671 621.544,-14.561 686.443,-11.999"/>
<polygon fill="midnightblue" stroke="midnightblue" points="686.836,-15.4872 696.703,-11.6291 686.583,-8.49173 686.836,-15.4872"/>
</g>
<!-- Node26&#45;&gt;Node25 -->
<g id="edge38" class="edge"><title>Node26&#45;&gt;Node25</title>
<path fill="none" stroke="midnightblue" d="M416.985,-112.596C338.125,-101.607 208.605,-82.9397 187.209,-76 168.68,-69.9901 165.588,-64.8003 148.209,-56 126.907,-45.2125 102.695,-33.1157 84.7531,-24.1832"/>
<polygon fill="midnightblue" stroke="midnightblue" points="86.0013,-20.895 75.489,-19.5746 82.8834,-27.1623 86.0013,-20.895"/>
</g>
<!-- Node27 -->
<g id="node27" class="node"><title>Node27</title>
<polygon fill="none" stroke="#bfbfbf" points="302.709,-0.5 302.709,-19.5 343.709,-19.5 343.709,-0.5 302.709,-0.5"/>
<text text-anchor="middle" x="323.209" y="-7.5" font-family="Helvetica,sans-Serif" font-size="10.00">string</text>
</g>
<!-- Node26&#45;&gt;Node27 -->
<g id="edge40" class="edge"><title>Node26&#45;&gt;Node27</title>
<path fill="none" stroke="midnightblue" d="M466.047,-112.368C439.562,-93.5728 376.428,-48.7684 343.688,-25.5334"/>
<polygon fill="midnightblue" stroke="midnightblue" points="345.496,-22.5246 335.315,-19.5914 341.445,-28.2332 345.496,-22.5246"/>
</g>
<!-- Node26&#45;&gt;Node28 -->
<g id="edge42" class="edge"><title>Node26&#45;&gt;Node28</title>
<path fill="none" stroke="midnightblue" d="M439.071,-112.444C394.842,-102.774 322.961,-87.0591 276.385,-76.8766"/>
<polygon fill="midnightblue" stroke="midnightblue" points="277.079,-73.4457 266.562,-74.729 275.584,-80.2841 277.079,-73.4457"/>
</g>
<!-- Node28&#45;&gt;Node5 -->
<g id="edge44" class="edge"><title>Node28&#45;&gt;Node5</title>
<path fill="none" stroke="midnightblue" d="M259.255,-56.4435C290.793,-46.8219 341.95,-31.2147 375.338,-21.0283"/>
<polygon fill="midnightblue" stroke="midnightblue" points="376.545,-24.3195 385.089,-18.0537 374.503,-17.6242 376.545,-24.3195"/>
</g>
<!-- Node28&#45;&gt;Node25 -->
<g id="edge46" class="edge"><title>Node28&#45;&gt;Node25</title>
<path fill="none" stroke="midnightblue" d="M203.797,-56.4435C174.095,-47.1723 126.587,-32.3435 93.9694,-22.1622"/>
<polygon fill="midnightblue" stroke="midnightblue" points="94.9495,-18.8016 84.3608,-19.1629 92.8637,-25.4837 94.9495,-18.8016"/>
</g>
<!-- Node28&#45;&gt;Node27 -->
<g id="edge47" class="edge"><title>Node28&#45;&gt;Node27</title>
<path fill="none" stroke="midnightblue" d="M245.991,-56.324C260.476,-47.8215 282.782,-34.7288 299.702,-24.7975"/>
<polygon fill="midnightblue" stroke="midnightblue" points="301.612,-27.735 308.464,-19.6545 298.069,-21.6981 301.612,-27.735"/>
</g>
<!-- Node29 -->
<g id="node29" class="node"><title>Node29</title>
<polygon fill="none" stroke="#bfbfbf" points="102.209,-0.5 102.209,-19.5 140.209,-19.5 140.209,-0.5 102.209,-0.5"/>
<text text-anchor="middle" x="121.209" y="-7.5" font-family="Helvetica,sans-Serif" font-size="10.00">array</text>
</g>
<!-- Node28&#45;&gt;Node29 -->
<g id="edge43" class="edge"><title>Node28&#45;&gt;Node29</title>
<path fill="none" stroke="midnightblue" d="M213.536,-56.324C195.815,-47.6247 168.306,-34.1202 147.921,-24.113"/>
<polygon fill="midnightblue" stroke="midnightblue" points="149.358,-20.9195 138.839,-19.6545 146.273,-27.2031 149.358,-20.9195"/>
</g>
<!-- Node30 -->
<g id="node30" class="node"><title>Node30</title>
<polygon fill="none" stroke="#bfbfbf" points="158.209,-0.5 158.209,-19.5 204.209,-19.5 204.209,-0.5 158.209,-0.5"/>
<text text-anchor="middle" x="181.209" y="-7.5" font-family="Helvetica,sans-Serif" font-size="10.00">cstring</text>
</g>
<!-- Node28&#45;&gt;Node30 -->
<g id="edge45" class="edge"><title>Node28&#45;&gt;Node30</title>
<path fill="none" stroke="midnightblue" d="M222.953,-56.083C215.745,-48.2982 205.099,-36.8015 196.363,-27.3665"/>
<polygon fill="midnightblue" stroke="midnightblue" points="198.674,-24.7108 189.312,-19.7511 193.538,-29.4666 198.674,-24.7108"/>
</g>
<!-- Node31 -->
<g id="node31" class="node"><title>Node31</title>
<polygon fill="none" stroke="#bfbfbf" points="222.209,-0.5 222.209,-19.5 284.209,-19.5 284.209,-0.5 222.209,-0.5"/>
<text text-anchor="middle" x="253.209" y="-7.5" font-family="Helvetica,sans-Serif" font-size="10.00">arpa/inet.h</text>
</g>
<!-- Node28&#45;&gt;Node31 -->
<g id="edge48" class="edge"><title>Node28&#45;&gt;Node31</title>
<path fill="none" stroke="midnightblue" d="M234.842,-56.083C237.821,-48.77 242.135,-38.1814 245.834,-29.1034"/>
<polygon fill="midnightblue" stroke="midnightblue" points="249.112,-30.3326 249.644,-19.7511 242.63,-27.6914 249.112,-30.3326"/>
</g>
<!-- Node32&#45;&gt;Node5 -->
<g id="edge53" class="edge"><title>Node32&#45;&gt;Node5</title>
<path fill="none" stroke="midnightblue" d="M373.191,-112.368C379.351,-94.5366 393.598,-53.2953 401.897,-29.2717"/>
<polygon fill="midnightblue" stroke="midnightblue" points="405.284,-30.1862 405.241,-19.5914 398.668,-27.9005 405.284,-30.1862"/>
</g>
<!-- Node33 -->
<g id="node33" class="node"><title>Node33</title>
<polygon fill="none" stroke="#bfbfbf" points="76.7092,-56.5 76.7092,-75.5 139.709,-75.5 139.709,-56.5 76.7092,-56.5"/>
<text text-anchor="middle" x="108.209" y="-63.5" font-family="Helvetica,sans-Serif" font-size="10.00">rte_mbuf.h</text>
</g>
<!-- Node32&#45;&gt;Node33 -->
<g id="edge54" class="edge"><title>Node32&#45;&gt;Node33</title>
<path fill="none" stroke="midnightblue" d="M341.599,-114.113C338.434,-113.384 335.256,-112.667 332.209,-112 298.081,-104.533 204.866,-86.0364 150.034,-75.224"/>
<polygon fill="midnightblue" stroke="midnightblue" points="150.425,-71.7338 139.937,-73.2342 149.072,-78.6017 150.425,-71.7338"/>
</g>
<!-- Node34&#45;&gt;Node5 -->
<g id="edge56" class="edge"><title>Node34&#45;&gt;Node5</title>
<path fill="none" stroke="midnightblue" d="M284.724,-112.368C307.425,-93.7334 361.27,-49.5324 389.773,-26.1338"/>
<polygon fill="midnightblue" stroke="midnightblue" points="392.235,-28.6416 397.743,-19.5914 387.793,-23.2311 392.235,-28.6416"/>
</g>
<!-- Node34&#45;&gt;Node24 -->
<g id="edge57" class="edge"><title>Node34&#45;&gt;Node24</title>
<path fill="none" stroke="midnightblue" d="M230.793,-112.463C190.902,-104.418 129.939,-91.6186 68.6785,-76.254"/>
<polygon fill="midnightblue" stroke="midnightblue" points="69.4002,-72.8264 58.8472,-73.7664 67.6831,-79.6125 69.4002,-72.8264"/>
</g>
</g>
</svg>
