<?xml version="1.0" encoding="UTF-8" standalone="no"?>
<!DOCTYPE svg PUBLIC "-//W3C//DTD SVG 1.1//EN"
 "http://www.w3.org/Graphics/SVG/1.1/DTD/svg11.dtd">
<!-- Generated by graphviz version 2.38.0 (20140413.2041)
 -->
<!-- Title: /home/dominik/uni/MoonState/src/helloBye2Proto.cpp Pages: 1 -->
<svg width="1610pt" height="263pt"
 viewBox="0.00 0.00 1609.50 263.00" xmlns="http://www.w3.org/2000/svg" xmlns:xlink="http://www.w3.org/1999/xlink">
<g id="graph0" class="graph" transform="scale(1 1) rotate(0) translate(4 259)">
<title>/home/dominik/uni/MoonState/src/helloBye2Proto.cpp</title>
<!-- Node1 -->
<g id="node1" class="node"><title>Node1</title>
<polygon fill="#bfbfbf" stroke="black" points="233.5,-224.5 233.5,-254.5 380.5,-254.5 380.5,-224.5 233.5,-224.5"/>
<text text-anchor="start" x="241.5" y="-242.5" font-family="Helvetica,sans-Serif" font-size="10.00">/home/dominik/uni/MoonState</text>
<text text-anchor="middle" x="307" y="-231.5" font-family="Helvetica,sans-Serif" font-size="10.00">/src/helloBye2Proto.cpp</text>
</g>
<!-- Node2 -->
<g id="node2" class="node"><title>Node2</title>
<polygon fill="none" stroke="#bfbfbf" points="116.5,-112.5 116.5,-131.5 161.5,-131.5 161.5,-112.5 116.5,-112.5"/>
<text text-anchor="middle" x="139" y="-119.5" font-family="Helvetica,sans-Serif" font-size="10.00">cstdlib</text>
</g>
<!-- Node1&#45;&gt;Node2 -->
<g id="edge1" class="edge"><title>Node1&#45;&gt;Node2</title>
<path fill="none" stroke="midnightblue" d="M273.563,-224.339C253.716,-215.241 228.507,-202.444 208,-188 187.53,-173.582 167.02,-153.344 153.748,-139.296"/>
<polygon fill="midnightblue" stroke="midnightblue" points="156.191,-136.783 146.825,-131.83 151.058,-141.543 156.191,-136.783"/>
</g>
<!-- Node3 -->
<g id="node3" class="node"><title>Node3</title>
<polygon fill="none" stroke="#bfbfbf" points="0,-0.5 0,-19.5 52,-19.5 52,-0.5 0,-0.5"/>
<text text-anchor="middle" x="26" y="-7.5" font-family="Helvetica,sans-Serif" font-size="10.00">sstream</text>
</g>
<!-- Node1&#45;&gt;Node3 -->
<g id="edge2" class="edge"><title>Node1&#45;&gt;Node3</title>
<path fill="none" stroke="midnightblue" d="M233.493,-228.866C200.14,-221.727 161.625,-209.361 132,-188 75.392,-147.182 43.5493,-65.9642 31.566,-29.4892"/>
<polygon fill="midnightblue" stroke="midnightblue" points="34.8246,-28.1845 28.4792,-19.7 28.1486,-30.2897 34.8246,-28.1845"/>
</g>
<!-- Node4 -->
<g id="node4" class="node"><title>Node4</title>
<g id="a_node4"><a xlink:href="IPv4__5TupleL2Ident_8hpp.html" target="_top" xlink:title="IPv4_5TupleL2Ident.hpp">
<polygon fill="none" stroke="black" points="294,-112.5 294,-131.5 416,-131.5 416,-112.5 294,-112.5"/>
<text text-anchor="middle" x="355" y="-119.5" font-family="Helvetica,sans-Serif" font-size="10.00">IPv4_5TupleL2Ident.hpp</text>
</a>
</g>
</g>
<!-- Node1&#45;&gt;Node4 -->
<g id="edge3" class="edge"><title>Node1&#45;&gt;Node4</title>
<path fill="none" stroke="midnightblue" d="M312.886,-224.337C321.613,-203.338 337.98,-163.955 347.537,-140.958"/>
<polygon fill="midnightblue" stroke="midnightblue" points="350.791,-142.247 351.397,-131.669 344.327,-139.561 350.791,-142.247"/>
</g>
<!-- Node12 -->
<g id="node12" class="node"><title>Node12</title>
<g id="a_node12"><a xlink:href="headers_8hpp.html" target="_top" xlink:title="headers.hpp">
<polygon fill="none" stroke="black" points="130,-56.5 130,-75.5 200,-75.5 200,-56.5 130,-56.5"/>
<text text-anchor="middle" x="165" y="-63.5" font-family="Helvetica,sans-Serif" font-size="10.00">headers.hpp</text>
</a>
</g>
</g>
<!-- Node1&#45;&gt;Node12 -->
<g id="edge23" class="edge"><title>Node1&#45;&gt;Node12</title>
<path fill="none" stroke="midnightblue" d="M240.041,-224.355C192.207,-210.15 132.058,-182.804 107,-132 96.9633,-111.651 118.609,-92.8291 138.251,-80.7331"/>
<polygon fill="midnightblue" stroke="midnightblue" points="140.107,-83.7025 147.013,-75.6674 136.604,-77.6424 140.107,-83.7025"/>
</g>
<!-- Node17 -->
<g id="node17" class="node"><title>Node17</title>
<g id="a_node17"><a xlink:href="helloBye2Proto_8hpp.html" target="_top" xlink:title="helloBye2Proto.hpp">
<polygon fill="none" stroke="black" points="427.5,-168.5 427.5,-187.5 528.5,-187.5 528.5,-168.5 427.5,-168.5"/>
<text text-anchor="middle" x="478" y="-175.5" font-family="Helvetica,sans-Serif" font-size="10.00">helloBye2Proto.hpp</text>
</a>
</g>
</g>
<!-- Node1&#45;&gt;Node17 -->
<g id="edge24" class="edge"><title>Node1&#45;&gt;Node17</title>
<path fill="none" stroke="midnightblue" d="M341.685,-224.399C369.913,-214.118 409.595,-200.351 438.935,-190.682"/>
<polygon fill="midnightblue" stroke="midnightblue" points="440.038,-194.003 448.457,-187.571 437.864,-187.35 440.038,-194.003"/>
</g>
<!-- Node31 -->
<g id="node31" class="node"><title>Node31</title>
<g id="a_node31"><a xlink:href="mbuf_8hpp.html" target="_top" xlink:title="mbuf.hpp">
<polygon fill="none" stroke="black" points="1481.5,-168.5 1481.5,-187.5 1538.5,-187.5 1538.5,-168.5 1481.5,-168.5"/>
<text text-anchor="middle" x="1510" y="-175.5" font-family="Helvetica,sans-Serif" font-size="10.00">mbuf.hpp</text>
</a>
</g>
</g>
<!-- Node1&#45;&gt;Node31 -->
<g id="edge54" class="edge"><title>Node1&#45;&gt;Node31</title>
<path fill="none" stroke="midnightblue" d="M380.893,-234.845C609.471,-223.54 1299.96,-189.389 1471.23,-180.917"/>
<polygon fill="midnightblue" stroke="midnightblue" points="1471.49,-184.409 1481.3,-180.419 1471.14,-177.418 1471.49,-184.409"/>
</g>
<!-- Node33 -->
<g id="node33" class="node"><title>Node33</title>
<g id="a_node33"><a xlink:href="samplePacket_8hpp.html" target="_top" xlink:title="samplePacket.hpp">
<polygon fill="none" stroke="black" points="217,-168.5 217,-187.5 315,-187.5 315,-168.5 217,-168.5"/>
<text text-anchor="middle" x="266" y="-175.5" font-family="Helvetica,sans-Serif" font-size="10.00">samplePacket.hpp</text>
</a>
</g>
</g>
<!-- Node1&#45;&gt;Node33 -->
<g id="edge57" class="edge"><title>Node1&#45;&gt;Node33</title>
<path fill="none" stroke="midnightblue" d="M297.284,-224.399C291.449,-215.932 283.984,-205.099 277.81,-196.139"/>
<polygon fill="midnightblue" stroke="midnightblue" points="280.522,-193.906 271.966,-187.658 274.758,-197.878 280.522,-193.906"/>
</g>
<!-- Node4&#45;&gt;Node3 -->
<g id="edge8" class="edge"><title>Node4&#45;&gt;Node3</title>
<path fill="none" stroke="midnightblue" d="M293.892,-116.145C245.486,-110.689 176.939,-99.3228 121,-76 91.5166,-63.7074 61.8145,-41.4244 43.6613,-26.4194"/>
<polygon fill="midnightblue" stroke="midnightblue" points="45.6254,-23.4967 35.729,-19.7135 41.1062,-28.8424 45.6254,-23.4967"/>
</g>
<!-- Node5 -->
<g id="node5" class="node"><title>Node5</title>
<polygon fill="none" stroke="#bfbfbf" points="672,-0.5 672,-19.5 718,-19.5 718,-0.5 672,-0.5"/>
<text text-anchor="middle" x="695" y="-7.5" font-family="Helvetica,sans-Serif" font-size="10.00">cstdint</text>
</g>
<!-- Node4&#45;&gt;Node5 -->
<g id="edge4" class="edge"><title>Node4&#45;&gt;Node5</title>
<path fill="none" stroke="midnightblue" d="M353.588,-112.4C351.832,-98.4136 350.71,-70.8124 366,-56 407.537,-15.7598 586.045,-10.954 661.317,-10.7574"/>
<polygon fill="midnightblue" stroke="midnightblue" points="661.645,-14.2574 671.645,-10.7582 661.646,-7.25737 661.645,-14.2574"/>
</g>
<!-- Node6 -->
<g id="node6" class="node"><title>Node6</title>
<polygon fill="none" stroke="#bfbfbf" points="411.5,-0.5 411.5,-19.5 470.5,-19.5 470.5,-0.5 411.5,-0.5"/>
<text text-anchor="middle" x="441" y="-7.5" font-family="Helvetica,sans-Serif" font-size="10.00">exception</text>
</g>
<!-- Node4&#45;&gt;Node6 -->
<g id="edge5" class="edge"><title>Node4&#45;&gt;Node6</title>
<path fill="none" stroke="midnightblue" d="M346.407,-112.46C334.43,-99.4943 315.518,-74.4064 328,-56 344.302,-31.9609 375.708,-20.7631 401.281,-15.5472"/>
<polygon fill="midnightblue" stroke="midnightblue" points="402.243,-18.9305 411.464,-13.7141 401.002,-12.0412 402.243,-18.9305"/>
</g>
<!-- Node7 -->
<g id="node7" class="node"><title>Node7</title>
<polygon fill="none" stroke="#bfbfbf" points="581.5,-56.5 581.5,-75.5 640.5,-75.5 640.5,-56.5 581.5,-56.5"/>
<text text-anchor="middle" x="611" y="-63.5" font-family="Helvetica,sans-Serif" font-size="10.00">functional</text>
</g>
<!-- Node4&#45;&gt;Node7 -->
<g id="edge6" class="edge"><title>Node4&#45;&gt;Node7</title>
<path fill="none" stroke="midnightblue" d="M397.472,-112.484C439.209,-104.051 504.964,-90.5904 571.401,-76.0937"/>
<polygon fill="midnightblue" stroke="midnightblue" points="572.185,-79.5051 581.205,-73.9478 570.688,-72.667 572.185,-79.5051"/>
</g>
<!-- Node8 -->
<g id="node8" class="node"><title>Node8</title>
<polygon fill="none" stroke="#bfbfbf" points="408,-56.5 408,-75.5 462,-75.5 462,-56.5 408,-56.5"/>
<text text-anchor="middle" x="435" y="-63.5" font-family="Helvetica,sans-Serif" font-size="10.00">iostream</text>
</g>
<!-- Node4&#45;&gt;Node8 -->
<g id="edge7" class="edge"><title>Node4&#45;&gt;Node8</title>
<path fill="none" stroke="midnightblue" d="M367.853,-112.324C380.216,-103.979 399.13,-91.2122 413.737,-81.3524"/>
<polygon fill="midnightblue" stroke="midnightblue" points="415.848,-84.1503 422.179,-75.6545 411.932,-78.3483 415.848,-84.1503"/>
</g>
<!-- Node9 -->
<g id="node9" class="node"><title>Node9</title>
<polygon fill="none" stroke="#bfbfbf" points="814.5,-0.5 814.5,-19.5 873.5,-19.5 873.5,-0.5 814.5,-0.5"/>
<text text-anchor="middle" x="844" y="-7.5" font-family="Helvetica,sans-Serif" font-size="10.00">stdexcept</text>
</g>
<!-- Node4&#45;&gt;Node9 -->
<g id="edge9" class="edge"><title>Node4&#45;&gt;Node9</title>
<path fill="none" stroke="midnightblue" d="M358.008,-112.458C363.585,-98.032 377.003,-69.1332 399,-56 416.303,-45.6692 698.236,-22.4968 804.181,-14.1072"/>
<polygon fill="midnightblue" stroke="midnightblue" points="804.762,-17.5723 814.456,-13.2963 804.211,-10.594 804.762,-17.5723"/>
</g>
<!-- Node10 -->
<g id="node10" class="node"><title>Node10</title>
<polygon fill="none" stroke="#bfbfbf" points="270.5,-0.5 270.5,-19.5 311.5,-19.5 311.5,-0.5 270.5,-0.5"/>
<text text-anchor="middle" x="291" y="-7.5" font-family="Helvetica,sans-Serif" font-size="10.00">string</text>
</g>
<!-- Node4&#45;&gt;Node10 -->
<g id="edge10" class="edge"><title>Node4&#45;&gt;Node10</title>
<path fill="none" stroke="midnightblue" d="M333.192,-112.447C318.055,-105.221 299.045,-93.2636 290,-76 282.552,-61.7856 283.686,-43.3092 286.167,-29.6902"/>
<polygon fill="midnightblue" stroke="midnightblue" points="289.658,-30.1137 288.408,-19.5929 282.824,-28.5968 289.658,-30.1137"/>
</g>
<!-- Node11 -->
<g id="node11" class="node"><title>Node11</title>
<g id="a_node11"><a xlink:href="common_8hpp.html" target="_top" xlink:title="common.hpp">
<polygon fill="none" stroke="black" points="658.5,-56.5 658.5,-75.5 731.5,-75.5 731.5,-56.5 658.5,-56.5"/>
<text text-anchor="middle" x="695" y="-63.5" font-family="Helvetica,sans-Serif" font-size="10.00">common.hpp</text>
</a>
</g>
</g>
<!-- Node4&#45;&gt;Node11 -->
<g id="edge11" class="edge"><title>Node4&#45;&gt;Node11</title>
<path fill="none" stroke="midnightblue" d="M415.649,-112.464C472.969,-104.227 561.62,-91.0525 648.35,-76.0513"/>
<polygon fill="midnightblue" stroke="midnightblue" points="649.115,-79.4709 658.367,-74.309 647.915,-72.5745 649.115,-79.4709"/>
</g>
<!-- Node4&#45;&gt;Node12 -->
<g id="edge13" class="edge"><title>Node4&#45;&gt;Node12</title>
<path fill="none" stroke="midnightblue" d="M324.894,-112.444C292.374,-103.201 240.421,-88.4356 204.609,-78.2572"/>
<polygon fill="midnightblue" stroke="midnightblue" points="205.541,-74.8837 194.965,-75.5164 203.627,-81.617 205.541,-74.8837"/>
</g>
<!-- Node16 -->
<g id="node16" class="node"><title>Node16</title>
<g id="a_node16"><a xlink:href="exceptions_8hpp.html" target="_top" xlink:title="exceptions.hpp">
<polygon fill="none" stroke="black" points="480.5,-56.5 480.5,-75.5 563.5,-75.5 563.5,-56.5 480.5,-56.5"/>
<text text-anchor="middle" x="522" y="-63.5" font-family="Helvetica,sans-Serif" font-size="10.00">exceptions.hpp</text>
</a>
</g>
</g>
<!-- Node4&#45;&gt;Node16 -->
<g id="edge20" class="edge"><title>Node4&#45;&gt;Node16</title>
<path fill="none" stroke="midnightblue" d="M381.462,-112.444C409.678,-103.32 454.54,-88.8133 485.968,-78.6509"/>
<polygon fill="midnightblue" stroke="midnightblue" points="487.224,-81.9234 495.662,-75.5164 485.07,-75.263 487.224,-81.9234"/>
</g>
<!-- Node11&#45;&gt;Node5 -->
<g id="edge12" class="edge"><title>Node11&#45;&gt;Node5</title>
<path fill="none" stroke="midnightblue" d="M695,-56.083C695,-49.0059 695,-38.8611 695,-29.9865"/>
<polygon fill="midnightblue" stroke="midnightblue" points="698.5,-29.751 695,-19.7511 691.5,-29.7511 698.5,-29.751"/>
</g>
<!-- Node12&#45;&gt;Node3 -->
<g id="edge17" class="edge"><title>Node12&#45;&gt;Node3</title>
<path fill="none" stroke="midnightblue" d="M142.975,-56.4435C119.896,-47.4776 83.438,-33.314 57.3591,-23.1827"/>
<polygon fill="midnightblue" stroke="midnightblue" points="58.5107,-19.8753 47.9219,-19.5164 55.9758,-26.4002 58.5107,-19.8753"/>
</g>
<!-- Node12&#45;&gt;Node5 -->
<g id="edge15" class="edge"><title>Node12&#45;&gt;Node5</title>
<path fill="none" stroke="midnightblue" d="M200.133,-61.3506C215.979,-59.7085 234.931,-57.7498 252,-56 405.192,-40.2956 588.211,-21.7842 661.88,-14.3432"/>
<polygon fill="midnightblue" stroke="midnightblue" points="662.342,-17.8145 671.939,-13.3273 661.638,-10.8499 662.342,-17.8145"/>
</g>
<!-- Node12&#45;&gt;Node10 -->
<g id="edge18" class="edge"><title>Node12&#45;&gt;Node10</title>
<path fill="none" stroke="midnightblue" d="M184.965,-56.4435C205.609,-47.5961 238.063,-33.6875 261.632,-23.5865"/>
<polygon fill="midnightblue" stroke="midnightblue" points="263.316,-26.6727 271.128,-19.5164 260.558,-20.2387 263.316,-26.6727"/>
</g>
<!-- Node13 -->
<g id="node13" class="node"><title>Node13</title>
<polygon fill="none" stroke="#bfbfbf" points="150,-0.5 150,-19.5 188,-19.5 188,-0.5 150,-0.5"/>
<text text-anchor="middle" x="169" y="-7.5" font-family="Helvetica,sans-Serif" font-size="10.00">array</text>
</g>
<!-- Node12&#45;&gt;Node13 -->
<g id="edge14" class="edge"><title>Node12&#45;&gt;Node13</title>
<path fill="none" stroke="midnightblue" d="M165.661,-56.083C166.185,-49.0059 166.936,-38.8611 167.594,-29.9865"/>
<polygon fill="midnightblue" stroke="midnightblue" points="171.103,-29.9823 168.352,-19.7511 164.123,-29.4652 171.103,-29.9823"/>
</g>
<!-- Node14 -->
<g id="node14" class="node"><title>Node14</title>
<polygon fill="none" stroke="#bfbfbf" points="206,-0.5 206,-19.5 252,-19.5 252,-0.5 206,-0.5"/>
<text text-anchor="middle" x="229" y="-7.5" font-family="Helvetica,sans-Serif" font-size="10.00">cstring</text>
</g>
<!-- Node12&#45;&gt;Node14 -->
<g id="edge16" class="edge"><title>Node12&#45;&gt;Node14</title>
<path fill="none" stroke="midnightblue" d="M175.283,-56.324C184.836,-48.2631 199.28,-36.0765 210.784,-26.3695"/>
<polygon fill="midnightblue" stroke="midnightblue" points="213.144,-28.9577 218.53,-19.8339 208.63,-23.6076 213.144,-28.9577"/>
</g>
<!-- Node15 -->
<g id="node15" class="node"><title>Node15</title>
<polygon fill="none" stroke="#bfbfbf" points="70,-0.5 70,-19.5 132,-19.5 132,-0.5 70,-0.5"/>
<text text-anchor="middle" x="101" y="-7.5" font-family="Helvetica,sans-Serif" font-size="10.00">arpa/inet.h</text>
</g>
<!-- Node12&#45;&gt;Node15 -->
<g id="edge19" class="edge"><title>Node12&#45;&gt;Node15</title>
<path fill="none" stroke="midnightblue" d="M154.717,-56.324C145.164,-48.2631 130.72,-36.0765 119.216,-26.3695"/>
<polygon fill="midnightblue" stroke="midnightblue" points="121.37,-23.6076 111.47,-19.8339 116.856,-28.9577 121.37,-23.6076"/>
</g>
<!-- Node16&#45;&gt;Node6 -->
<g id="edge21" class="edge"><title>Node16&#45;&gt;Node6</title>
<path fill="none" stroke="midnightblue" d="M508.986,-56.324C496.468,-47.979 477.318,-35.2122 462.529,-25.3524"/>
<polygon fill="midnightblue" stroke="midnightblue" points="464.244,-22.2894 453.982,-19.6545 460.361,-28.1137 464.244,-22.2894"/>
</g>
<!-- Node16&#45;&gt;Node9 -->
<g id="edge22" class="edge"><title>Node16&#45;&gt;Node9</title>
<path fill="none" stroke="midnightblue" d="M563.734,-57.4424C566.531,-56.95 569.306,-56.4653 572,-56 654.466,-41.7571 751.165,-25.9785 804.188,-17.4058"/>
<polygon fill="midnightblue" stroke="midnightblue" points="804.879,-20.8397 814.193,-15.7899 803.763,-13.9292 804.879,-20.8397"/>
</g>
<!-- Node17&#45;&gt;Node1 -->
<g id="edge53" class="edge"><title>Node17&#45;&gt;Node1</title>
<path fill="none" stroke="midnightblue" d="M458.047,-187.658C434.843,-196.385 395.854,-210.099 363.253,-221.086"/>
<polygon fill="midnightblue" stroke="midnightblue" points="361.734,-217.903 353.365,-224.399 363.958,-224.541 361.734,-217.903"/>
</g>
<!-- Node17&#45;&gt;Node3 -->
<g id="edge26" class="edge"><title>Node17&#45;&gt;Node3</title>
<path fill="none" stroke="midnightblue" d="M427.353,-169.709C378.826,-162.188 303.755,-149.148 240,-132 203.825,-122.27 111.842,-97.2627 81,-76 62.6302,-63.3356 46.8025,-43.0092 36.9052,-28.4584"/>
<polygon fill="midnightblue" stroke="midnightblue" points="39.6916,-26.3243 31.2904,-19.869 33.8324,-30.1544 39.6916,-26.3243"/>
</g>
<!-- Node17&#45;&gt;Node11 -->
<g id="edge27" class="edge"><title>Node17&#45;&gt;Node11</title>
<path fill="none" stroke="midnightblue" d="M495.028,-168.368C532.82,-149.211 623.912,-103.036 668.926,-80.2172"/>
<polygon fill="midnightblue" stroke="midnightblue" points="670.714,-83.2347 678.051,-75.5914 667.549,-76.991 670.714,-83.2347"/>
</g>
<!-- Node17&#45;&gt;Node12 -->
<g id="edge29" class="edge"><title>Node17&#45;&gt;Node12</title>
<path fill="none" stroke="midnightblue" d="M427.327,-169.014C387.749,-161.871 331.803,-149.763 285,-132 248.822,-118.269 209.964,-95.6026 186.571,-80.9904"/>
<polygon fill="midnightblue" stroke="midnightblue" points="188.436,-78.0288 178.115,-75.6369 184.691,-83.9432 188.436,-78.0288"/>
</g>
<!-- Node17&#45;&gt;Node16 -->
<g id="edge28" class="edge"><title>Node17&#45;&gt;Node16</title>
<path fill="none" stroke="midnightblue" d="M481.453,-168.368C488.617,-150.456 505.231,-108.923 514.821,-84.9482"/>
<polygon fill="midnightblue" stroke="midnightblue" points="518.099,-86.1761 518.563,-75.5914 511.6,-83.5763 518.099,-86.1761"/>
</g>
<!-- Node18 -->
<g id="node18" class="node"><title>Node18</title>
<polygon fill="none" stroke="#bfbfbf" points="750,-56.5 750,-75.5 794,-75.5 794,-56.5 750,-56.5"/>
<text text-anchor="middle" x="772" y="-63.5" font-family="Helvetica,sans-Serif" font-size="10.00">mutex</text>
</g>
<!-- Node17&#45;&gt;Node18 -->
<g id="edge25" class="edge"><title>Node17&#45;&gt;Node18</title>
<path fill="none" stroke="midnightblue" d="M501.612,-168.461C526.398,-159.474 566.486,-144.873 601,-132 649.751,-113.817 706.137,-92.2866 740.42,-79.1396"/>
<polygon fill="midnightblue" stroke="midnightblue" points="741.815,-82.353 749.898,-75.5027 739.308,-75.8177 741.815,-82.353"/>
</g>
<!-- Node19 -->
<g id="node19" class="node"><title>Node19</title>
<g id="a_node19"><a xlink:href="stateMachine_8hpp.html" target="_top" xlink:title="stateMachine.hpp">
<polygon fill="none" stroke="black" points="875,-112.5 875,-131.5 969,-131.5 969,-112.5 875,-112.5"/>
<text text-anchor="middle" x="922" y="-119.5" font-family="Helvetica,sans-Serif" font-size="10.00">stateMachine.hpp</text>
</a>
</g>
</g>
<!-- Node17&#45;&gt;Node19 -->
<g id="edge30" class="edge"><title>Node17&#45;&gt;Node19</title>
<path fill="none" stroke="midnightblue" d="M528.5,-170.858C611.799,-160.727 777.464,-140.579 864.901,-129.945"/>
<polygon fill="midnightblue" stroke="midnightblue" points="865.404,-133.409 874.909,-128.727 864.559,-126.46 865.404,-133.409"/>
</g>
<!-- Node19&#45;&gt;Node5 -->
<g id="edge33" class="edge"><title>Node19&#45;&gt;Node5</title>
<path fill="none" stroke="midnightblue" d="M906.252,-112.278C876.325,-95.7205 813.294,-60.939 803,-56 777.908,-43.9605 748.738,-31.9179 727.043,-23.3243"/>
<polygon fill="midnightblue" stroke="midnightblue" points="728.229,-20.0302 717.642,-19.631 725.67,-26.5454 728.229,-20.0302"/>
</g>
<!-- Node19&#45;&gt;Node7 -->
<g id="edge34" class="edge"><title>Node19&#45;&gt;Node7</title>
<path fill="none" stroke="midnightblue" d="M874.963,-114.258C822.494,-106.512 734.881,-92.9103 650.797,-76.262"/>
<polygon fill="midnightblue" stroke="midnightblue" points="651.32,-72.7975 640.828,-74.2704 649.948,-79.6618 651.32,-72.7975"/>
</g>
<!-- Node19&#45;&gt;Node8 -->
<g id="edge35" class="edge"><title>Node19&#45;&gt;Node8</title>
<path fill="none" stroke="midnightblue" d="M874.949,-118.566C794.354,-113.904 624.628,-101.946 472.06,-75.9408"/>
<polygon fill="midnightblue" stroke="midnightblue" points="472.487,-72.4627 462.037,-74.2075 471.294,-79.3604 472.487,-72.4627"/>
</g>
<!-- Node19&#45;&gt;Node9 -->
<g id="edge40" class="edge"><title>Node19&#45;&gt;Node9</title>
<path fill="none" stroke="midnightblue" d="M921.015,-112.278C919.172,-99.073 914.217,-73.6777 902,-56 893.281,-43.3841 879.945,-32.6861 868.258,-24.8903"/>
<polygon fill="midnightblue" stroke="midnightblue" points="870.069,-21.8947 859.746,-19.5108 866.329,-27.812 870.069,-21.8947"/>
</g>
<!-- Node19&#45;&gt;Node11 -->
<g id="edge49" class="edge"><title>Node19&#45;&gt;Node11</title>
<path fill="none" stroke="midnightblue" d="M886.031,-112.444C846.681,-103.083 783.513,-88.0561 740.686,-77.868"/>
<polygon fill="midnightblue" stroke="midnightblue" points="741.339,-74.4258 730.801,-75.5164 739.719,-81.2358 741.339,-74.4258"/>
</g>
<!-- Node19&#45;&gt;Node16 -->
<g id="edge50" class="edge"><title>Node19&#45;&gt;Node16</title>
<path fill="none" stroke="midnightblue" d="M874.907,-115.706C809.507,-108.187 687.254,-93.525 573.627,-76.1927"/>
<polygon fill="midnightblue" stroke="midnightblue" points="574.131,-72.7291 563.716,-74.6705 573.068,-79.648 574.131,-72.7291"/>
</g>
<!-- Node19&#45;&gt;Node18 -->
<g id="edge38" class="edge"><title>Node19&#45;&gt;Node18</title>
<path fill="none" stroke="midnightblue" d="M898.232,-112.444C872.664,-103.239 831.879,-88.5565 803.618,-78.3826"/>
<polygon fill="midnightblue" stroke="midnightblue" points="804.784,-75.0825 794.19,-74.9883 802.413,-81.6687 804.784,-75.0825"/>
</g>
<!-- Node20 -->
<g id="node20" class="node"><title>Node20</title>
<polygon fill="none" stroke="#bfbfbf" points="1229.5,-0.5 1229.5,-19.5 1278.5,-19.5 1278.5,-0.5 1229.5,-0.5"/>
<text text-anchor="middle" x="1254" y="-7.5" font-family="Helvetica,sans-Serif" font-size="10.00">cassert</text>
</g>
<!-- Node19&#45;&gt;Node20 -->
<g id="edge31" class="edge"><title>Node19&#45;&gt;Node20</title>
<path fill="none" stroke="midnightblue" d="M969.265,-118.498C1041.4,-113.895 1174.74,-102.063 1214,-76 1230.52,-65.0319 1241.4,-44.6705 1247.58,-29.6486"/>
<polygon fill="midnightblue" stroke="midnightblue" points="1251.02,-30.4565 1251.27,-19.8647 1244.47,-27.988 1251.02,-30.4565"/>
</g>
<!-- Node21 -->
<g id="node21" class="node"><title>Node21</title>
<polygon fill="none" stroke="#bfbfbf" points="1052,-56.5 1052,-75.5 1098,-75.5 1098,-56.5 1052,-56.5"/>
<text text-anchor="middle" x="1075" y="-63.5" font-family="Helvetica,sans-Serif" font-size="10.00">chrono</text>
</g>
<!-- Node19&#45;&gt;Node21 -->
<g id="edge32" class="edge"><title>Node19&#45;&gt;Node21</title>
<path fill="none" stroke="midnightblue" d="M946.243,-112.444C972.172,-103.292 1013.44,-88.726 1042.25,-78.5594"/>
<polygon fill="midnightblue" stroke="midnightblue" points="1043.61,-81.7917 1051.87,-75.1629 1041.28,-75.1907 1043.61,-81.7917"/>
</g>
<!-- Node22 -->
<g id="node22" class="node"><title>Node22</title>
<polygon fill="none" stroke="#bfbfbf" points="1282,-56.5 1282,-75.5 1322,-75.5 1322,-56.5 1282,-56.5"/>
<text text-anchor="middle" x="1302" y="-63.5" font-family="Helvetica,sans-Serif" font-size="10.00">limits</text>
</g>
<!-- Node19&#45;&gt;Node22 -->
<g id="edge36" class="edge"><title>Node19&#45;&gt;Node22</title>
<path fill="none" stroke="midnightblue" d="M969.041,-116.831C1035.9,-110.464 1162.05,-96.8216 1268,-76 1269.28,-75.7483 1270.58,-75.4759 1271.9,-75.188"/>
<polygon fill="midnightblue" stroke="midnightblue" points="1273.06,-78.5081 1281.96,-72.7641 1271.42,-71.7027 1273.06,-78.5081"/>
</g>
<!-- Node23 -->
<g id="node23" class="node"><title>Node23</title>
<polygon fill="none" stroke="#bfbfbf" points="1340,-56.5 1340,-75.5 1392,-75.5 1392,-56.5 1340,-56.5"/>
<text text-anchor="middle" x="1366" y="-63.5" font-family="Helvetica,sans-Serif" font-size="10.00">memory</text>
</g>
<!-- Node19&#45;&gt;Node23 -->
<g id="edge37" class="edge"><title>Node19&#45;&gt;Node23</title>
<path fill="none" stroke="midnightblue" d="M969.24,-117.993C1043.85,-112.766 1193.63,-100.337 1329.54,-76.033"/>
<polygon fill="midnightblue" stroke="midnightblue" points="1330.5,-79.4156 1339.72,-74.1859 1329.25,-72.5282 1330.5,-79.4156"/>
</g>
<!-- Node24 -->
<g id="node24" class="node"><title>Node24</title>
<polygon fill="none" stroke="#bfbfbf" points="850.5,-56.5 850.5,-75.5 893.5,-75.5 893.5,-56.5 850.5,-56.5"/>
<text text-anchor="middle" x="872" y="-63.5" font-family="Helvetica,sans-Serif" font-size="10.00">queue</text>
</g>
<!-- Node19&#45;&gt;Node24 -->
<g id="edge39" class="edge"><title>Node19&#45;&gt;Node24</title>
<path fill="none" stroke="midnightblue" d="M913.744,-112.083C906.535,-104.298 895.89,-92.8015 887.154,-83.3665"/>
<polygon fill="midnightblue" stroke="midnightblue" points="889.465,-80.7108 880.103,-75.7511 884.329,-85.4666 889.465,-80.7108"/>
</g>
<!-- Node25 -->
<g id="node25" class="node"><title>Node25</title>
<polygon fill="none" stroke="#bfbfbf" points="950.5,-56.5 950.5,-75.5 1033.5,-75.5 1033.5,-56.5 950.5,-56.5"/>
<text text-anchor="middle" x="992" y="-63.5" font-family="Helvetica,sans-Serif" font-size="10.00">unordered_map</text>
</g>
<!-- Node19&#45;&gt;Node25 -->
<g id="edge41" class="edge"><title>Node19&#45;&gt;Node25</title>
<path fill="none" stroke="midnightblue" d="M933.247,-112.324C943.797,-104.185 959.801,-91.8395 972.442,-82.0874"/>
<polygon fill="midnightblue" stroke="midnightblue" points="974.769,-84.7132 980.549,-75.8339 970.493,-79.1707 974.769,-84.7132"/>
</g>
<!-- Node26 -->
<g id="node26" class="node"><title>Node26</title>
<polygon fill="none" stroke="#bfbfbf" points="1167,-0.5 1167,-19.5 1211,-19.5 1211,-0.5 1167,-0.5"/>
<text text-anchor="middle" x="1189" y="-7.5" font-family="Helvetica,sans-Serif" font-size="10.00">vector</text>
</g>
<!-- Node19&#45;&gt;Node26 -->
<g id="edge42" class="edge"><title>Node19&#45;&gt;Node26</title>
<path fill="none" stroke="midnightblue" d="M969.169,-120.311C1039.7,-118.17 1167.45,-109.622 1196,-76 1206.88,-63.1903 1202.83,-43.4548 1197.49,-29.0899"/>
<polygon fill="midnightblue" stroke="midnightblue" points="1200.66,-27.6151 1193.56,-19.755 1194.21,-30.3298 1200.66,-27.6151"/>
</g>
<!-- Node27 -->
<g id="node27" class="node"><title>Node27</title>
<g id="a_node27"><a xlink:href="bufArray_8hpp.html" target="_top" xlink:title="bufArray.hpp">
<polygon fill="none" stroke="black" points="1116.5,-56.5 1116.5,-75.5 1187.5,-75.5 1187.5,-56.5 1116.5,-56.5"/>
<text text-anchor="middle" x="1152" y="-63.5" font-family="Helvetica,sans-Serif" font-size="10.00">bufArray.hpp</text>
</a>
</g>
</g>
<!-- Node19&#45;&gt;Node27 -->
<g id="edge43" class="edge"><title>Node19&#45;&gt;Node27</title>
<path fill="none" stroke="midnightblue" d="M958.444,-112.444C998.549,-103.028 1063.07,-87.8791 1106.47,-77.6887"/>
<polygon fill="midnightblue" stroke="midnightblue" points="1107.55,-81.0321 1116.48,-75.339 1105.95,-74.2174 1107.55,-81.0321"/>
</g>
<!-- Node29 -->
<g id="node29" class="node"><title>Node29</title>
<g id="a_node29"><a xlink:href="spinlock_8hpp.html" target="_top" xlink:title="spinlock.hpp">
<polygon fill="none" stroke="black" points="1410.5,-56.5 1410.5,-75.5 1481.5,-75.5 1481.5,-56.5 1410.5,-56.5"/>
<text text-anchor="middle" x="1446" y="-63.5" font-family="Helvetica,sans-Serif" font-size="10.00">spinlock.hpp</text>
</a>
</g>
</g>
<!-- Node19&#45;&gt;Node29 -->
<g id="edge51" class="edge"><title>Node19&#45;&gt;Node29</title>
<path fill="none" stroke="midnightblue" d="M969.107,-118.202C1053.43,-112.839 1235.88,-99.6316 1399.92,-76.0065"/>
<polygon fill="midnightblue" stroke="midnightblue" points="1400.81,-79.4142 1410.2,-74.5088 1399.8,-72.4874 1400.81,-79.4142"/>
</g>
<!-- Node27&#45;&gt;Node5 -->
<g id="edge45" class="edge"><title>Node27&#45;&gt;Node5</title>
<path fill="none" stroke="midnightblue" d="M1116.19,-57.5404C1113.09,-56.9846 1109.99,-56.4617 1107,-56 966.987,-34.3958 798.634,-19.4047 728.356,-13.6339"/>
<polygon fill="midnightblue" stroke="midnightblue" points="728.576,-10.1403 718.326,-12.8184 728.009,-17.1173 728.576,-10.1403"/>
</g>
<!-- Node27&#45;&gt;Node9 -->
<g id="edge46" class="edge"><title>Node27&#45;&gt;Node9</title>
<path fill="none" stroke="midnightblue" d="M1116.16,-57.7374C1113.06,-57.1388 1109.98,-56.5522 1107,-56 1027.96,-41.3365 935.218,-25.8739 883.677,-17.4343"/>
<polygon fill="midnightblue" stroke="midnightblue" points="884.063,-13.951 873.629,-15.7926 882.934,-20.8594 884.063,-13.951"/>
</g>
<!-- Node27&#45;&gt;Node20 -->
<g id="edge44" class="edge"><title>Node27&#45;&gt;Node20</title>
<path fill="none" stroke="midnightblue" d="M1168.39,-56.324C1184.67,-47.7034 1209.87,-34.3643 1228.72,-24.3855"/>
<polygon fill="midnightblue" stroke="midnightblue" points="1230.45,-27.4267 1237.65,-19.6545 1227.18,-21.2402 1230.45,-27.4267"/>
</g>
<!-- Node27&#45;&gt;Node26 -->
<g id="edge48" class="edge"><title>Node27&#45;&gt;Node26</title>
<path fill="none" stroke="midnightblue" d="M1158.11,-56.083C1163.28,-48.5341 1170.85,-37.4948 1177.19,-28.2298"/>
<polygon fill="midnightblue" stroke="midnightblue" points="1180.24,-29.9787 1183,-19.7511 1174.46,-26.0221 1180.24,-29.9787"/>
</g>
<!-- Node28 -->
<g id="node28" class="node"><title>Node28</title>
<polygon fill="none" stroke="#bfbfbf" points="1109,-0.5 1109,-19.5 1149,-19.5 1149,-0.5 1109,-0.5"/>
<text text-anchor="middle" x="1129" y="-7.5" font-family="Helvetica,sans-Serif" font-size="10.00">utility</text>
</g>
<!-- Node27&#45;&gt;Node28 -->
<g id="edge47" class="edge"><title>Node27&#45;&gt;Node28</title>
<path fill="none" stroke="midnightblue" d="M1148.2,-56.083C1145.09,-48.77 1140.58,-38.1814 1136.71,-29.1034"/>
<polygon fill="midnightblue" stroke="midnightblue" points="1139.87,-27.5798 1132.73,-19.7511 1133.43,-30.3229 1139.87,-27.5798"/>
</g>
<!-- Node30 -->
<g id="node30" class="node"><title>Node30</title>
<polygon fill="none" stroke="#bfbfbf" points="1423,-0.5 1423,-19.5 1469,-19.5 1469,-0.5 1423,-0.5"/>
<text text-anchor="middle" x="1446" y="-7.5" font-family="Helvetica,sans-Serif" font-size="10.00">atomic</text>
</g>
<!-- Node29&#45;&gt;Node30 -->
<g id="edge52" class="edge"><title>Node29&#45;&gt;Node30</title>
<path fill="none" stroke="midnightblue" d="M1446,-56.083C1446,-49.0059 1446,-38.8611 1446,-29.9865"/>
<polygon fill="midnightblue" stroke="midnightblue" points="1449.5,-29.751 1446,-19.7511 1442.5,-29.7511 1449.5,-29.751"/>
</g>
<!-- Node31&#45;&gt;Node5 -->
<g id="edge55" class="edge"><title>Node31&#45;&gt;Node5</title>
<path fill="none" stroke="midnightblue" d="M1511.75,-168.302C1515.72,-145.773 1522.69,-85.2416 1490,-56 1433.19,-5.18812 881.045,-25.1081 805,-20 779.206,-18.2673 750.046,-15.8611 728.233,-13.9726"/>
<polygon fill="midnightblue" stroke="midnightblue" points="728.429,-10.4764 718.162,-13.0923 727.819,-17.4499 728.429,-10.4764"/>
</g>
<!-- Node32 -->
<g id="node32" class="node"><title>Node32</title>
<polygon fill="none" stroke="#bfbfbf" points="1538.5,-112.5 1538.5,-131.5 1601.5,-131.5 1601.5,-112.5 1538.5,-112.5"/>
<text text-anchor="middle" x="1570" y="-119.5" font-family="Helvetica,sans-Serif" font-size="10.00">rte_mbuf.h</text>
</g>
<!-- Node31&#45;&gt;Node32 -->
<g id="edge56" class="edge"><title>Node31&#45;&gt;Node32</title>
<path fill="none" stroke="midnightblue" d="M1519.64,-168.324C1528.51,-160.341 1541.87,-148.313 1552.61,-138.653"/>
<polygon fill="midnightblue" stroke="midnightblue" points="1555.09,-141.125 1560.18,-131.834 1550.41,-135.922 1555.09,-141.125"/>
</g>
<!-- Node33&#45;&gt;Node2 -->
<g id="edge59" class="edge"><title>Node33&#45;&gt;Node2</title>
<path fill="none" stroke="midnightblue" d="M245.876,-168.444C224.976,-159.557 192.065,-145.563 168.284,-135.451"/>
<polygon fill="midnightblue" stroke="midnightblue" points="169.602,-132.208 159.029,-131.516 166.862,-138.65 169.602,-132.208"/>
</g>
<!-- Node33&#45;&gt;Node5 -->
<g id="edge58" class="edge"><title>Node33&#45;&gt;Node5</title>
<path fill="none" stroke="midnightblue" d="M266.908,-168.334C268.623,-155.204 273.283,-129.904 285,-112 306.252,-79.5265 316.459,-71.5882 352,-56 407.175,-31.8005 586.544,-17.8924 661.55,-13.0084"/>
<polygon fill="midnightblue" stroke="midnightblue" points="662.075,-16.4821 671.832,-12.3531 661.63,-9.49632 662.075,-16.4821"/>
</g>
</g>
</svg>
