<?xml version="1.0" encoding="UTF-8" standalone="no"?>
<!DOCTYPE svg PUBLIC "-//W3C//DTD SVG 1.1//EN"
 "http://www.w3.org/Graphics/SVG/1.1/DTD/svg11.dtd">
<!-- Generated by graphviz version 2.40.1 (20161225.0304)
 -->
<!-- Title: /home/dominik/uni/MoonState/include/helloBye2Proto.hpp Pages: 1 -->
<svg width="1632pt" height="263pt"
 viewBox="0.00 0.00 1631.50 263.00" xmlns="http://www.w3.org/2000/svg" xmlns:xlink="http://www.w3.org/1999/xlink">
<g id="graph0" class="graph" transform="scale(1 1) rotate(0) translate(4 259)">
<title>/home/dominik/uni/MoonState/include/helloBye2Proto.hpp</title>
<!-- Node0 -->
<g id="node1" class="node">
<title>Node0</title>
<polygon fill="#bfbfbf" stroke="#000000" points="397.5,-224.5 397.5,-254.5 544.5,-254.5 544.5,-224.5 397.5,-224.5"/>
<text text-anchor="start" x="405.5" y="-242.5" font-family="Helvetica,sans-Serif" font-size="10.00" fill="#000000">/home/dominik/uni/MoonState</text>
<text text-anchor="middle" x="471" y="-231.5" font-family="Helvetica,sans-Serif" font-size="10.00" fill="#000000">/include/helloBye2Proto.hpp</text>
</g>
<!-- Node1 -->
<g id="node2" class="node">
<title>Node1</title>
<polygon fill="none" stroke="#bfbfbf" points="893,-56.5 893,-75.5 937,-75.5 937,-56.5 893,-56.5"/>
<text text-anchor="middle" x="915" y="-63.5" font-family="Helvetica,sans-Serif" font-size="10.00" fill="#000000">mutex</text>
</g>
<!-- Node0&#45;&gt;Node1 -->
<g id="edge1" class="edge">
<title>Node0&#45;&gt;Node1</title>
<path fill="none" stroke="#191970" d="M509.6254,-224.4065C596.1205,-190.6072 804.0032,-109.3737 883.4241,-78.3388"/>
<polygon fill="#191970" stroke="#191970" points="884.8498,-81.5395 892.8901,-74.6398 882.302,-75.0196 884.8498,-81.5395"/>
</g>
<!-- Node2 -->
<g id="node3" class="node">
<title>Node2</title>
<polygon fill="none" stroke="#bfbfbf" points="0,-.5 0,-19.5 52,-19.5 52,-.5 0,-.5"/>
<text text-anchor="middle" x="26" y="-7.5" font-family="Helvetica,sans-Serif" font-size="10.00" fill="#000000">sstream</text>
</g>
<!-- Node0&#45;&gt;Node2 -->
<g id="edge2" class="edge">
<title>Node0&#45;&gt;Node2</title>
<path fill="none" stroke="#191970" d="M397.3581,-233.7223C314.0716,-224.0897 177.5123,-198.6504 81,-132 52.8022,-112.5269 41.1579,-107.6416 28,-76 21.9478,-61.4458 21.82,-43.4859 22.9985,-29.9774"/>
<polygon fill="#191970" stroke="#191970" points="26.4975,-30.1912 24.1943,-19.8498 19.5457,-29.3704 26.4975,-30.1912"/>
</g>
<!-- Node3 -->
<g id="node4" class="node">
<title>Node3</title>
<g id="a_node4"><a xlink:href="common_8hpp.html" target="_top" xlink:title="common.hpp">
<polygon fill="none" stroke="#000000" points="550.5,-56.5 550.5,-75.5 623.5,-75.5 623.5,-56.5 550.5,-56.5"/>
<text text-anchor="middle" x="587" y="-63.5" font-family="Helvetica,sans-Serif" font-size="10.00" fill="#000000">common.hpp</text>
</a>
</g>
</g>
<!-- Node0&#45;&gt;Node3 -->
<g id="edge3" class="edge">
<title>Node0&#45;&gt;Node3</title>
<path fill="none" stroke="#191970" d="M484.378,-224.1727C501.6823,-203.9227 532.1873,-166.7479 554,-132 563.5526,-116.7827 572.543,-98.4297 578.7202,-84.9441"/>
<polygon fill="#191970" stroke="#191970" points="581.9614,-86.2698 582.8582,-75.713 575.5738,-83.4065 581.9614,-86.2698"/>
</g>
<!-- Node6 -->
<g id="node7" class="node">
<title>Node6</title>
<g id="a_node7"><a xlink:href="exceptions_8hpp.html" target="_top" xlink:title="exceptions.hpp">
<polygon fill="none" stroke="#000000" points="714.5,-56.5 714.5,-75.5 797.5,-75.5 797.5,-56.5 714.5,-56.5"/>
<text text-anchor="middle" x="756" y="-63.5" font-family="Helvetica,sans-Serif" font-size="10.00" fill="#000000">exceptions.hpp</text>
</a>
</g>
</g>
<!-- Node0&#45;&gt;Node6 -->
<g id="edge6" class="edge">
<title>Node0&#45;&gt;Node6</title>
<path fill="none" stroke="#191970" d="M495.7933,-224.4065C549.8343,-191.5079 677.6957,-113.6695 731.4835,-80.9249"/>
<polygon fill="#191970" stroke="#191970" points="733.6172,-83.7236 740.3389,-75.534 729.9772,-77.7444 733.6172,-83.7236"/>
</g>
<!-- Node9 -->
<g id="node10" class="node">
<title>Node9</title>
<g id="a_node10"><a xlink:href="headers_8hpp.html" target="_top" xlink:title="headers.hpp">
<polygon fill="none" stroke="#000000" points="152,-56.5 152,-75.5 222,-75.5 222,-56.5 152,-56.5"/>
<text text-anchor="middle" x="187" y="-63.5" font-family="Helvetica,sans-Serif" font-size="10.00" fill="#000000">headers.hpp</text>
</a>
</g>
</g>
<!-- Node0&#45;&gt;Node9 -->
<g id="edge9" class="edge">
<title>Node0&#45;&gt;Node9</title>
<path fill="none" stroke="#191970" d="M397.03,-226.085C358.5236,-217.7108 311.2161,-205.2079 271,-188 227.6873,-169.4671 203.8792,-173.1825 181,-132 173.0743,-117.7338 175.7735,-99.0146 179.7568,-85.1569"/>
<polygon fill="#191970" stroke="#191970" points="183.0801,-86.2549 182.8984,-75.6616 176.4344,-84.056 183.0801,-86.2549"/>
</g>
<!-- Node14 -->
<g id="node15" class="node">
<title>Node14</title>
<g id="a_node15"><a xlink:href="stateMachine_8hpp.html" target="_top" xlink:title="stateMachine.hpp">
<polygon fill="none" stroke="#000000" points="1020,-112.5 1020,-131.5 1114,-131.5 1114,-112.5 1020,-112.5"/>
<text text-anchor="middle" x="1067" y="-119.5" font-family="Helvetica,sans-Serif" font-size="10.00" fill="#000000">stateMachine.hpp</text>
</a>
</g>
</g>
<!-- Node0&#45;&gt;Node14 -->
<g id="edge16" class="edge">
<title>Node0&#45;&gt;Node14</title>
<path fill="none" stroke="#191970" d="M544.5562,-229.5944C610.6282,-220.2815 710.1628,-205.2235 796,-188 876.0621,-171.9353 968.237,-148.3968 1021.8271,-134.2014"/>
<polygon fill="#191970" stroke="#191970" points="1022.9295,-137.5299 1031.6942,-131.5776 1021.1306,-130.765 1022.9295,-137.5299"/>
</g>
<!-- Node27 -->
<g id="node28" class="node">
<title>Node27</title>
<g id="a_node28"><a xlink:href="helloBye2Proto_8cpp.html" target="_top" xlink:title="../src/helloBye2Proto.cpp">
<polygon fill="none" stroke="#000000" points="280.5,-168.5 280.5,-187.5 407.5,-187.5 407.5,-168.5 280.5,-168.5"/>
<text text-anchor="middle" x="344" y="-175.5" font-family="Helvetica,sans-Serif" font-size="10.00" fill="#000000">../src/helloBye2Proto.cpp</text>
</a>
</g>
</g>
<!-- Node0&#45;&gt;Node27 -->
<g id="edge39" class="edge">
<title>Node0&#45;&gt;Node27</title>
<path fill="none" stroke="#191970" d="M434.0352,-224.4554C412.6059,-214.644 386.3556,-201.9167 367.6574,-192.2653"/>
<polygon fill="#191970" stroke="#191970" points="369.1148,-189.0774 358.6335,-187.5303 365.8623,-195.276 369.1148,-189.0774"/>
</g>
<!-- Node4 -->
<g id="node5" class="node">
<title>Node4</title>
<polygon fill="none" stroke="#bfbfbf" points="358,-.5 358,-19.5 396,-19.5 396,-.5 358,-.5"/>
<text text-anchor="middle" x="377" y="-7.5" font-family="Helvetica,sans-Serif" font-size="10.00" fill="#000000">array</text>
</g>
<!-- Node3&#45;&gt;Node4 -->
<g id="edge4" class="edge">
<title>Node3&#45;&gt;Node4</title>
<path fill="none" stroke="#191970" d="M550.1698,-56.7211C514.5006,-47.6528 458.9282,-33.3083 411,-20 409.3289,-19.536 407.6136,-19.0529 405.8841,-18.5606"/>
<polygon fill="#191970" stroke="#191970" points="406.611,-15.1274 396.0321,-15.7085 404.6643,-21.8513 406.611,-15.1274"/>
</g>
<!-- Node5 -->
<g id="node6" class="node">
<title>Node5</title>
<polygon fill="none" stroke="#bfbfbf" points="1005.5,-.5 1005.5,-19.5 1054.5,-19.5 1054.5,-.5 1005.5,-.5"/>
<text text-anchor="middle" x="1030" y="-7.5" font-family="Helvetica,sans-Serif" font-size="10.00" fill="#000000">cassert</text>
</g>
<!-- Node3&#45;&gt;Node5 -->
<g id="edge5" class="edge">
<title>Node3&#45;&gt;Node5</title>
<path fill="none" stroke="#191970" d="M623.5955,-57.7034C626.7688,-57.0876 629.9364,-56.5092 633,-56 765.8636,-33.9163 925.4962,-18.8748 994.9104,-12.8932"/>
<polygon fill="#191970" stroke="#191970" points="995.5917,-16.3479 1005.2584,-12.0112 994.9973,-9.3731 995.5917,-16.3479"/>
</g>
<!-- Node7 -->
<g id="node8" class="node">
<title>Node7</title>
<polygon fill="none" stroke="#bfbfbf" points="647.5,-.5 647.5,-19.5 706.5,-19.5 706.5,-.5 647.5,-.5"/>
<text text-anchor="middle" x="677" y="-7.5" font-family="Helvetica,sans-Serif" font-size="10.00" fill="#000000">exception</text>
</g>
<!-- Node6&#45;&gt;Node7 -->
<g id="edge7" class="edge">
<title>Node6&#45;&gt;Node7</title>
<path fill="none" stroke="#191970" d="M742.2393,-56.2455C730.3448,-47.814 712.935,-35.4729 699.0915,-25.6598"/>
<polygon fill="#191970" stroke="#191970" points="700.7854,-22.5704 690.6031,-19.6427 696.7372,-28.2811 700.7854,-22.5704"/>
</g>
<!-- Node8 -->
<g id="node9" class="node">
<title>Node8</title>
<polygon fill="none" stroke="#bfbfbf" points="805.5,-.5 805.5,-19.5 864.5,-19.5 864.5,-.5 805.5,-.5"/>
<text text-anchor="middle" x="835" y="-7.5" font-family="Helvetica,sans-Serif" font-size="10.00" fill="#000000">stdexcept</text>
</g>
<!-- Node6&#45;&gt;Node8 -->
<g id="edge8" class="edge">
<title>Node6&#45;&gt;Node8</title>
<path fill="none" stroke="#191970" d="M769.7607,-56.2455C781.6552,-47.814 799.065,-35.4729 812.9085,-25.6598"/>
<polygon fill="#191970" stroke="#191970" points="815.2628,-28.2811 821.3969,-19.6427 811.2146,-22.5704 815.2628,-28.2811"/>
</g>
<!-- Node9&#45;&gt;Node2 -->
<g id="edge13" class="edge">
<title>Node9&#45;&gt;Node2</title>
<path fill="none" stroke="#191970" d="M159.3231,-56.3733C132.3441,-46.9892 91.1926,-32.6757 61.7487,-22.4343"/>
<polygon fill="#191970" stroke="#191970" points="62.8444,-19.1098 52.2496,-19.1303 60.5447,-25.7213 62.8444,-19.1098"/>
</g>
<!-- Node9&#45;&gt;Node4 -->
<g id="edge10" class="edge">
<title>Node9&#45;&gt;Node4</title>
<path fill="none" stroke="#191970" d="M219.6622,-56.3733C255.72,-45.7457 313.2294,-28.7955 347.8271,-18.5983"/>
<polygon fill="#191970" stroke="#191970" points="349.177,-21.8494 357.7795,-15.665 347.198,-15.135 349.177,-21.8494"/>
</g>
<!-- Node10 -->
<g id="node11" class="node">
<title>Node10</title>
<polygon fill="none" stroke="#bfbfbf" points="420,-.5 420,-19.5 466,-19.5 466,-.5 420,-.5"/>
<text text-anchor="middle" x="443" y="-7.5" font-family="Helvetica,sans-Serif" font-size="10.00" fill="#000000">cstdint</text>
</g>
<!-- Node9&#45;&gt;Node10 -->
<g id="edge11" class="edge">
<title>Node9&#45;&gt;Node10</title>
<path fill="none" stroke="#191970" d="M222.0982,-58.8141C274.4879,-48.0505 370.6548,-28.1374 405,-20 406.6429,-19.6107 408.3234,-19.2033 410.0187,-18.7848"/>
<polygon fill="#191970" stroke="#191970" points="410.9035,-22.1713 419.7339,-16.3169 409.18,-15.3867 410.9035,-22.1713"/>
</g>
<!-- Node11 -->
<g id="node12" class="node">
<title>Node11</title>
<polygon fill="none" stroke="#bfbfbf" points="118,-.5 118,-19.5 164,-19.5 164,-.5 118,-.5"/>
<text text-anchor="middle" x="141" y="-7.5" font-family="Helvetica,sans-Serif" font-size="10.00" fill="#000000">cstring</text>
</g>
<!-- Node9&#45;&gt;Node11 -->
<g id="edge12" class="edge">
<title>Node9&#45;&gt;Node11</title>
<path fill="none" stroke="#191970" d="M178.9874,-56.2455C172.5232,-48.3761 163.2615,-37.101 155.5017,-27.6542"/>
<polygon fill="#191970" stroke="#191970" points="157.9727,-25.1484 148.9208,-19.6427 152.5636,-29.5916 157.9727,-25.1484"/>
</g>
<!-- Node12 -->
<g id="node13" class="node">
<title>Node12</title>
<polygon fill="none" stroke="#bfbfbf" points="286.5,-.5 286.5,-19.5 327.5,-19.5 327.5,-.5 286.5,-.5"/>
<text text-anchor="middle" x="307" y="-7.5" font-family="Helvetica,sans-Serif" font-size="10.00" fill="#000000">string</text>
</g>
<!-- Node9&#45;&gt;Node12 -->
<g id="edge14" class="edge">
<title>Node9&#45;&gt;Node12</title>
<path fill="none" stroke="#191970" d="M207.6287,-56.3733C226.8919,-47.3838 255.8486,-33.8706 277.5419,-23.7471"/>
<polygon fill="#191970" stroke="#191970" points="279.0587,-26.9017 286.6405,-19.5011 276.0985,-20.5584 279.0587,-26.9017"/>
</g>
<!-- Node13 -->
<g id="node14" class="node">
<title>Node13</title>
<polygon fill="none" stroke="#bfbfbf" points="182,-.5 182,-19.5 244,-19.5 244,-.5 182,-.5"/>
<text text-anchor="middle" x="213" y="-7.5" font-family="Helvetica,sans-Serif" font-size="10.00" fill="#000000">arpa/inet.h</text>
</g>
<!-- Node9&#45;&gt;Node13 -->
<g id="edge15" class="edge">
<title>Node9&#45;&gt;Node13</title>
<path fill="none" stroke="#191970" d="M191.5289,-56.2455C195.0334,-48.6973 199.9927,-38.0158 204.2623,-28.8197"/>
<polygon fill="#191970" stroke="#191970" points="207.4864,-30.1867 208.523,-19.6427 201.1373,-27.2389 207.4864,-30.1867"/>
</g>
<!-- Node14&#45;&gt;Node1 -->
<g id="edge24" class="edge">
<title>Node14&#45;&gt;Node1</title>
<path fill="none" stroke="#191970" d="M1040.8703,-112.3733C1014.8649,-102.7923 974.9119,-88.0728 947.0152,-77.7951"/>
<polygon fill="#191970" stroke="#191970" points="947.9246,-74.4002 937.3311,-74.2273 945.5046,-80.9686 947.9246,-74.4002"/>
</g>
<!-- Node14&#45;&gt;Node3 -->
<g id="edge35" class="edge">
<title>Node14&#45;&gt;Node3</title>
<path fill="none" stroke="#191970" d="M1019.8957,-118.6906C941.7762,-112.8351 780.345,-99.1812 633.6757,-75.946"/>
<polygon fill="#191970" stroke="#191970" points="634.0182,-72.4563 623.5902,-74.3292 632.9101,-79.368 634.0182,-72.4563"/>
</g>
<!-- Node14&#45;&gt;Node5 -->
<g id="edge17" class="edge">
<title>Node14&#45;&gt;Node5</title>
<path fill="none" stroke="#191970" d="M1081.3616,-112.3974C1098.3956,-99.757 1123.0547,-76.7088 1111,-56 1100.9345,-38.7085 1081.6798,-27.3866 1064.4686,-20.3028"/>
<polygon fill="#191970" stroke="#191970" points="1065.2479,-16.8565 1054.656,-16.6087 1062.7816,-23.4076 1065.2479,-16.8565"/>
</g>
<!-- Node14&#45;&gt;Node6 -->
<g id="edge36" class="edge">
<title>Node14&#45;&gt;Node6</title>
<path fill="none" stroke="#191970" d="M1019.7905,-114.0148C969.6136,-105.4527 887.6765,-91.2583 807.9437,-76.338"/>
<polygon fill="#191970" stroke="#191970" points="808.2021,-72.8254 797.728,-74.42 806.9104,-79.7052 808.2021,-72.8254"/>
</g>
<!-- Node14&#45;&gt;Node8 -->
<g id="edge26" class="edge">
<title>Node14&#45;&gt;Node8</title>
<path fill="none" stroke="#191970" d="M1056.676,-112.406C1040.9894,-98.28 1009.7179,-71.8498 979,-56 945.5148,-38.7223 904.2963,-26.3559 874.5507,-18.8264"/>
<polygon fill="#191970" stroke="#191970" points="875.0858,-15.3538 864.5393,-16.3647 873.4143,-22.1513 875.0858,-15.3538"/>
</g>
<!-- Node14&#45;&gt;Node10 -->
<g id="edge19" class="edge">
<title>Node14&#45;&gt;Node10</title>
<path fill="none" stroke="#191970" d="M1047.9316,-112.4713C1029.9807,-103.398 1002.4278,-89.2051 979,-76 964.0598,-67.5789 962.29,-61.3628 946,-56 901.5084,-41.3531 580.9007,-19.1123 476.0719,-12.1565"/>
<polygon fill="#191970" stroke="#191970" points="476.2637,-8.6616 466.0548,-11.4948 475.8023,-15.6464 476.2637,-8.6616"/>
</g>
<!-- Node15 -->
<g id="node16" class="node">
<title>Node15</title>
<polygon fill="none" stroke="#bfbfbf" points="1159,-56.5 1159,-75.5 1205,-75.5 1205,-56.5 1159,-56.5"/>
<text text-anchor="middle" x="1182" y="-63.5" font-family="Helvetica,sans-Serif" font-size="10.00" fill="#000000">chrono</text>
</g>
<!-- Node14&#45;&gt;Node15 -->
<g id="edge18" class="edge">
<title>Node14&#45;&gt;Node15</title>
<path fill="none" stroke="#191970" d="M1086.7692,-112.3733C1105.1469,-103.4241 1132.7312,-89.9917 1153.4893,-79.8835"/>
<polygon fill="#191970" stroke="#191970" points="1155.0304,-83.026 1162.4888,-75.5011 1151.9657,-76.7325 1155.0304,-83.026"/>
</g>
<!-- Node16 -->
<g id="node17" class="node">
<title>Node16</title>
<polygon fill="none" stroke="#bfbfbf" points="815.5,-56.5 815.5,-75.5 874.5,-75.5 874.5,-56.5 815.5,-56.5"/>
<text text-anchor="middle" x="845" y="-63.5" font-family="Helvetica,sans-Serif" font-size="10.00" fill="#000000">functional</text>
</g>
<!-- Node14&#45;&gt;Node16 -->
<g id="edge20" class="edge">
<title>Node14&#45;&gt;Node16</title>
<path fill="none" stroke="#191970" d="M1028.7825,-112.4494C993.7767,-103.6889 940.2628,-90.2654 884.5034,-76.1198"/>
<polygon fill="#191970" stroke="#191970" points="885.3605,-72.7264 874.8068,-73.6582 883.6382,-79.5112 885.3605,-72.7264"/>
</g>
<!-- Node17 -->
<g id="node18" class="node">
<title>Node17</title>
<polygon fill="none" stroke="#bfbfbf" points="642,-56.5 642,-75.5 696,-75.5 696,-56.5 642,-56.5"/>
<text text-anchor="middle" x="669" y="-63.5" font-family="Helvetica,sans-Serif" font-size="10.00" fill="#000000">iostream</text>
</g>
<!-- Node14&#45;&gt;Node17 -->
<g id="edge21" class="edge">
<title>Node14&#45;&gt;Node17</title>
<path fill="none" stroke="#191970" d="M1019.7873,-118.1954C952.2424,-112.2715 824.0473,-99.2446 705.9592,-75.9478"/>
<polygon fill="#191970" stroke="#191970" points="706.5181,-72.4903 696.0255,-73.9585 705.1436,-79.354 706.5181,-72.4903"/>
</g>
<!-- Node18 -->
<g id="node19" class="node">
<title>Node18</title>
<polygon fill="none" stroke="#bfbfbf" points="1351,-56.5 1351,-75.5 1391,-75.5 1391,-56.5 1351,-56.5"/>
<text text-anchor="middle" x="1371" y="-63.5" font-family="Helvetica,sans-Serif" font-size="10.00" fill="#000000">limits</text>
</g>
<!-- Node14&#45;&gt;Node18 -->
<g id="edge22" class="edge">
<title>Node14&#45;&gt;Node18</title>
<path fill="none" stroke="#191970" d="M1114.4881,-116.3078C1169.4932,-109.1904 1262.6001,-95.5219 1341,-76 1341.0999,-75.9751 1341.1999,-75.9501 1341.3001,-75.9249"/>
<polygon fill="#191970" stroke="#191970" points="1342.1405,-79.3249 1350.7924,-73.2099 1340.2155,-72.5948 1342.1405,-79.3249"/>
</g>
<!-- Node19 -->
<g id="node20" class="node">
<title>Node19</title>
<polygon fill="none" stroke="#bfbfbf" points="1409,-56.5 1409,-75.5 1461,-75.5 1461,-56.5 1409,-56.5"/>
<text text-anchor="middle" x="1435" y="-63.5" font-family="Helvetica,sans-Serif" font-size="10.00" fill="#000000">memory</text>
</g>
<!-- Node14&#45;&gt;Node19 -->
<g id="edge23" class="edge">
<title>Node14&#45;&gt;Node19</title>
<path fill="none" stroke="#191970" d="M1114.2359,-117.5946C1177.1445,-111.2617 1291.9866,-98.0795 1398.7525,-76.028"/>
<polygon fill="#191970" stroke="#191970" points="1399.6574,-79.4145 1408.7263,-73.9368 1398.2209,-72.5635 1399.6574,-79.4145"/>
</g>
<!-- Node20 -->
<g id="node21" class="node">
<title>Node20</title>
<polygon fill="none" stroke="#bfbfbf" points="1479.5,-56.5 1479.5,-75.5 1522.5,-75.5 1522.5,-56.5 1479.5,-56.5"/>
<text text-anchor="middle" x="1501" y="-63.5" font-family="Helvetica,sans-Serif" font-size="10.00" fill="#000000">queue</text>
</g>
<!-- Node14&#45;&gt;Node20 -->
<g id="edge25" class="edge">
<title>Node14&#45;&gt;Node20</title>
<path fill="none" stroke="#191970" d="M1114.0311,-119.6623C1187.8912,-115.3323 1335.5702,-104.0164 1469.4456,-75.7063"/>
<polygon fill="#191970" stroke="#191970" points="1470.4294,-79.0748 1479.469,-73.5489 1468.9564,-72.2316 1470.4294,-79.0748"/>
</g>
<!-- Node21 -->
<g id="node22" class="node">
<title>Node21</title>
<polygon fill="none" stroke="#bfbfbf" points="1540.5,-56.5 1540.5,-75.5 1623.5,-75.5 1623.5,-56.5 1540.5,-56.5"/>
<text text-anchor="middle" x="1582" y="-63.5" font-family="Helvetica,sans-Serif" font-size="10.00" fill="#000000">unordered_map</text>
</g>
<!-- Node14&#45;&gt;Node21 -->
<g id="edge27" class="edge">
<title>Node14&#45;&gt;Node21</title>
<path fill="none" stroke="#191970" d="M1114.0508,-118.8896C1196.4029,-113.1096 1372.1879,-99.28 1529.948,-76.192"/>
<polygon fill="#191970" stroke="#191970" points="1530.9324,-79.5845 1540.3121,-74.6578 1529.9074,-72.6599 1530.9324,-79.5845"/>
</g>
<!-- Node22 -->
<g id="node23" class="node">
<title>Node22</title>
<polygon fill="none" stroke="#bfbfbf" points="1158,-.5 1158,-19.5 1202,-19.5 1202,-.5 1158,-.5"/>
<text text-anchor="middle" x="1180" y="-7.5" font-family="Helvetica,sans-Serif" font-size="10.00" fill="#000000">vector</text>
</g>
<!-- Node14&#45;&gt;Node22 -->
<g id="edge28" class="edge">
<title>Node14&#45;&gt;Node22</title>
<path fill="none" stroke="#191970" d="M1114.1116,-113.5013C1152.3983,-105.5228 1201.9649,-92.3766 1214,-76 1225.3348,-60.5763 1212.0788,-40.8381 1198.9471,-26.9809"/>
<polygon fill="#191970" stroke="#191970" points="1201.3987,-24.4829 1191.8214,-19.9522 1196.4829,-29.4664 1201.3987,-24.4829"/>
</g>
<!-- Node23 -->
<g id="node24" class="node">
<title>Node23</title>
<g id="a_node24"><a xlink:href="bufArray_8hpp.html" target="_top" xlink:title="bufArray.hpp">
<polygon fill="none" stroke="#000000" points="1031.5,-56.5 1031.5,-75.5 1102.5,-75.5 1102.5,-56.5 1031.5,-56.5"/>
<text text-anchor="middle" x="1067" y="-63.5" font-family="Helvetica,sans-Serif" font-size="10.00" fill="#000000">bufArray.hpp</text>
</a>
</g>
</g>
<!-- Node14&#45;&gt;Node23 -->
<g id="edge29" class="edge">
<title>Node14&#45;&gt;Node23</title>
<path fill="none" stroke="#191970" d="M1067,-112.2455C1067,-104.9382 1067,-94.6944 1067,-85.7046"/>
<polygon fill="#191970" stroke="#191970" points="1070.5001,-85.6426 1067,-75.6427 1063.5001,-85.6427 1070.5001,-85.6426"/>
</g>
<!-- Node25 -->
<g id="node26" class="node">
<title>Node25</title>
<g id="a_node26"><a xlink:href="spinlock_8hpp.html" target="_top" xlink:title="spinlock.hpp">
<polygon fill="none" stroke="#000000" points="1261.5,-56.5 1261.5,-75.5 1332.5,-75.5 1332.5,-56.5 1261.5,-56.5"/>
<text text-anchor="middle" x="1297" y="-63.5" font-family="Helvetica,sans-Serif" font-size="10.00" fill="#000000">spinlock.hpp</text>
</a>
</g>
</g>
<!-- Node14&#45;&gt;Node25 -->
<g id="edge37" class="edge">
<title>Node14&#45;&gt;Node25</title>
<path fill="none" stroke="#191970" d="M1106.2771,-112.4369C1146.5434,-102.6329 1209.1062,-87.4002 1251.502,-77.0778"/>
<polygon fill="#191970" stroke="#191970" points="1252.3996,-80.4616 1261.2878,-74.6951 1250.7436,-73.6602 1252.3996,-80.4616"/>
</g>
<!-- Node23&#45;&gt;Node5 -->
<g id="edge30" class="edge">
<title>Node23&#45;&gt;Node5</title>
<path fill="none" stroke="#191970" d="M1060.5551,-56.2455C1055.4618,-48.5367 1048.2092,-37.5598 1042.048,-28.2348"/>
<polygon fill="#191970" stroke="#191970" points="1044.8038,-26.0566 1036.3711,-19.6427 1038.9635,-29.9155 1044.8038,-26.0566"/>
</g>
<!-- Node23&#45;&gt;Node8 -->
<g id="edge32" class="edge">
<title>Node23&#45;&gt;Node8</title>
<path fill="none" stroke="#191970" d="M1031.2584,-57.3727C988.8073,-47.1259 918.2286,-30.0897 874.2818,-19.4818"/>
<polygon fill="#191970" stroke="#191970" points="875.0649,-16.0704 864.5228,-17.1262 873.4223,-22.875 875.0649,-16.0704"/>
</g>
<!-- Node23&#45;&gt;Node10 -->
<g id="edge31" class="edge">
<title>Node23&#45;&gt;Node10</title>
<path fill="none" stroke="#191970" d="M1031.4852,-61.7388C1015.4612,-59.8743 996.2893,-57.7239 979,-56 788.9121,-37.0464 560.4191,-19.0155 476.2308,-12.5318"/>
<polygon fill="#191970" stroke="#191970" points="476.246,-9.0227 466.0073,-11.7466 475.7099,-16.0022 476.246,-9.0227"/>
</g>
<!-- Node23&#45;&gt;Node22 -->
<g id="edge34" class="edge">
<title>Node23&#45;&gt;Node22</title>
<path fill="none" stroke="#191970" d="M1086.4254,-56.3733C1104.4021,-47.4644 1131.3441,-34.1127 1151.709,-24.0203"/>
<polygon fill="#191970" stroke="#191970" points="1153.4222,-27.0776 1160.8281,-19.5011 1150.3139,-20.8055 1153.4222,-27.0776"/>
</g>
<!-- Node24 -->
<g id="node25" class="node">
<title>Node24</title>
<polygon fill="none" stroke="#bfbfbf" points="1073,-.5 1073,-19.5 1113,-19.5 1113,-.5 1073,-.5"/>
<text text-anchor="middle" x="1093" y="-7.5" font-family="Helvetica,sans-Serif" font-size="10.00" fill="#000000">utility</text>
</g>
<!-- Node23&#45;&gt;Node24 -->
<g id="edge33" class="edge">
<title>Node23&#45;&gt;Node24</title>
<path fill="none" stroke="#191970" d="M1071.5289,-56.2455C1075.0334,-48.6973 1079.9927,-38.0158 1084.2623,-28.8197"/>
<polygon fill="#191970" stroke="#191970" points="1087.4864,-30.1867 1088.523,-19.6427 1081.1373,-27.2389 1087.4864,-30.1867"/>
</g>
<!-- Node26 -->
<g id="node27" class="node">
<title>Node26</title>
<polygon fill="none" stroke="#bfbfbf" points="1274,-.5 1274,-19.5 1320,-19.5 1320,-.5 1274,-.5"/>
<text text-anchor="middle" x="1297" y="-7.5" font-family="Helvetica,sans-Serif" font-size="10.00" fill="#000000">atomic</text>
</g>
<!-- Node25&#45;&gt;Node26 -->
<g id="edge38" class="edge">
<title>Node25&#45;&gt;Node26</title>
<path fill="none" stroke="#191970" d="M1297,-56.2455C1297,-48.9382 1297,-38.6944 1297,-29.7046"/>
<polygon fill="#191970" stroke="#191970" points="1300.5001,-29.6426 1297,-19.6427 1293.5001,-29.6427 1300.5001,-29.6426"/>
</g>
<!-- Node27&#45;&gt;Node0 -->
<g id="edge54" class="edge">
<title>Node27&#45;&gt;Node0</title>
<path fill="none" stroke="#191970" d="M368.7275,-187.5303C388.1543,-196.12 415.2284,-209.0211 436.7054,-219.8201"/>
<polygon fill="#191970" stroke="#191970" points="435.3287,-223.0464 445.8294,-224.4554 438.4992,-216.8056 435.3287,-223.0464"/>
</g>
<!-- Node27&#45;&gt;Node2 -->
<g id="edge41" class="edge">
<title>Node27&#45;&gt;Node2</title>
<path fill="none" stroke="#191970" d="M280.0909,-168.5493C239.1535,-161.297 185.3878,-149.5146 140,-132 92.8381,-113.8008 71.1788,-116.5549 41,-76 31.0366,-62.6109 27.5115,-43.7629 26.3476,-29.6347"/>
<polygon fill="#191970" stroke="#191970" points="29.8366,-29.3235 25.8425,-19.5104 22.8453,-29.6724 29.8366,-29.3235"/>
</g>
<!-- Node27&#45;&gt;Node9 -->
<g id="edge53" class="edge">
<title>Node27&#45;&gt;Node9</title>
<path fill="none" stroke="#191970" d="M339.2632,-168.1816C331.9822,-154.0127 316.783,-127.8034 297,-112 277.8558,-96.7069 252.8975,-85.7216 231.5949,-78.33"/>
<polygon fill="#191970" stroke="#191970" points="232.6918,-75.0064 222.0984,-75.1842 230.4905,-81.6513 232.6918,-75.0064"/>
</g>
<!-- Node28 -->
<g id="node29" class="node">
<title>Node28</title>
<polygon fill="none" stroke="#bfbfbf" points="50.5,-56.5 50.5,-75.5 95.5,-75.5 95.5,-56.5 50.5,-56.5"/>
<text text-anchor="middle" x="73" y="-63.5" font-family="Helvetica,sans-Serif" font-size="10.00" fill="#000000">cstdlib</text>
</g>
<!-- Node27&#45;&gt;Node28 -->
<g id="edge40" class="edge">
<title>Node27&#45;&gt;Node28</title>
<path fill="none" stroke="#191970" d="M297.5197,-168.4563C264.2593,-160.7767 218.8588,-148.5358 181,-132 149.1081,-118.0704 115.3413,-96.1157 94.2254,-81.3967"/>
<polygon fill="#191970" stroke="#191970" points="96.1785,-78.4912 85.9926,-75.5761 92.1374,-84.207 96.1785,-78.4912"/>
</g>
<!-- Node29 -->
<g id="node30" class="node">
<title>Node29</title>
<g id="a_node30"><a xlink:href="IPv4__5TupleL2Ident_8hpp.html" target="_top" xlink:title="IPv4_5TupleL2Ident.hpp">
<polygon fill="none" stroke="#000000" points="423,-112.5 423,-131.5 545,-131.5 545,-112.5 423,-112.5"/>
<text text-anchor="middle" x="484" y="-119.5" font-family="Helvetica,sans-Serif" font-size="10.00" fill="#000000">IPv4_5TupleL2Ident.hpp</text>
</a>
</g>
</g>
<!-- Node27&#45;&gt;Node29 -->
<g id="edge42" class="edge">
<title>Node27&#45;&gt;Node29</title>
<path fill="none" stroke="#191970" d="M368.0669,-168.3733C390.8428,-159.2629 425.2344,-145.5062 450.649,-135.3404"/>
<polygon fill="#191970" stroke="#191970" points="452.2623,-138.4648 460.2472,-131.5011 449.6625,-131.9654 452.2623,-138.4648"/>
</g>
<!-- Node30 -->
<g id="node31" class="node">
<title>Node30</title>
<g id="a_node31"><a xlink:href="mbuf_8hpp.html" target="_top" xlink:title="mbuf.hpp">
<polygon fill="none" stroke="#000000" points="344.5,-112.5 344.5,-131.5 401.5,-131.5 401.5,-112.5 344.5,-112.5"/>
<text text-anchor="middle" x="373" y="-119.5" font-family="Helvetica,sans-Serif" font-size="10.00" fill="#000000">mbuf.hpp</text>
</a>
</g>
</g>
<!-- Node27&#45;&gt;Node30 -->
<g id="edge55" class="edge">
<title>Node27&#45;&gt;Node30</title>
<path fill="none" stroke="#191970" d="M349.0514,-168.2455C353.0019,-160.617 358.6097,-149.7881 363.4058,-140.5267"/>
<polygon fill="#191970" stroke="#191970" points="366.5159,-142.1321 368.0065,-131.6427 360.2999,-138.9131 366.5159,-142.1321"/>
</g>
<!-- Node32 -->
<g id="node33" class="node">
<title>Node32</title>
<g id="a_node33"><a xlink:href="samplePacket_8hpp.html" target="_top" xlink:title="samplePacket.hpp">
<polygon fill="none" stroke="#000000" points="190,-112.5 190,-131.5 288,-131.5 288,-112.5 190,-112.5"/>
<text text-anchor="middle" x="239" y="-119.5" font-family="Helvetica,sans-Serif" font-size="10.00" fill="#000000">samplePacket.hpp</text>
</a>
</g>
</g>
<!-- Node27&#45;&gt;Node32 -->
<g id="edge58" class="edge">
<title>Node27&#45;&gt;Node32</title>
<path fill="none" stroke="#191970" d="M325.7104,-168.2455C309.2238,-159.4527 284.7648,-146.4079 266.0235,-136.4125"/>
<polygon fill="#191970" stroke="#191970" points="267.5506,-133.2604 257.08,-131.6427 264.2565,-139.4368 267.5506,-133.2604"/>
</g>
<!-- Node29&#45;&gt;Node2 -->
<g id="edge47" class="edge">
<title>Node29&#45;&gt;Node2</title>
<path fill="none" stroke="#191970" d="M422.6226,-113.7043C418.3508,-113.1274 414.1112,-112.5549 410,-112 291.3357,-95.9823 256.5174,-114.0996 143,-76 133.3409,-72.7581 82.3507,-43.1884 50.9568,-24.7451"/>
<polygon fill="#191970" stroke="#191970" points="52.6848,-21.7009 42.2914,-19.6447 49.134,-27.7335 52.6848,-21.7009"/>
</g>
<!-- Node29&#45;&gt;Node3 -->
<g id="edge50" class="edge">
<title>Node29&#45;&gt;Node3</title>
<path fill="none" stroke="#191970" d="M501.9412,-112.2455C518.04,-103.4928 541.8879,-90.527 560.2391,-80.5496"/>
<polygon fill="#191970" stroke="#191970" points="562.1507,-83.4942 569.2644,-75.6427 558.8071,-77.3444 562.1507,-83.4942"/>
</g>
<!-- Node29&#45;&gt;Node6 -->
<g id="edge52" class="edge">
<title>Node29&#45;&gt;Node6</title>
<path fill="none" stroke="#191970" d="M530.4494,-112.4369C578.713,-102.5003 654.0628,-86.9871 704.2155,-76.6615"/>
<polygon fill="#191970" stroke="#191970" points="705.1164,-80.0495 714.2052,-74.6048 703.7048,-73.1933 705.1164,-80.0495"/>
</g>
<!-- Node29&#45;&gt;Node7 -->
<g id="edge44" class="edge">
<title>Node29&#45;&gt;Node7</title>
<path fill="none" stroke="#191970" d="M484.7637,-112.4105C486.4298,-98.0455 491.6716,-71.0262 508,-56 526.7467,-38.7484 593.3589,-24.3727 637.1433,-16.4993"/>
<polygon fill="#191970" stroke="#191970" points="637.9537,-19.9106 647.1972,-14.733 636.7424,-13.0162 637.9537,-19.9106"/>
</g>
<!-- Node29&#45;&gt;Node8 -->
<g id="edge48" class="edge">
<title>Node29&#45;&gt;Node8</title>
<path fill="none" stroke="#191970" d="M489.2104,-112.4834C497.8536,-97.7019 516.6443,-69.5221 541,-56 583.9628,-32.1474 725.4214,-18.3434 795.2667,-12.8251"/>
<polygon fill="#191970" stroke="#191970" points="795.7329,-16.2997 805.4339,-12.0406 795.1943,-9.3204 795.7329,-16.2997"/>
</g>
<!-- Node29&#45;&gt;Node9 -->
<g id="edge51" class="edge">
<title>Node29&#45;&gt;Node9</title>
<path fill="none" stroke="#191970" d="M433.2813,-112.4369C376.7819,-101.7838 286.2877,-84.7209 232.1488,-74.5129"/>
<polygon fill="#191970" stroke="#191970" points="232.6284,-71.0417 222.153,-72.6282 231.3313,-77.9205 232.6284,-71.0417"/>
</g>
<!-- Node29&#45;&gt;Node10 -->
<g id="edge43" class="edge">
<title>Node29&#45;&gt;Node10</title>
<path fill="none" stroke="#191970" d="M480.5044,-112.4509C473.7568,-94.0186 458.8236,-53.2254 449.9711,-29.043"/>
<polygon fill="#191970" stroke="#191970" points="453.2112,-27.7123 446.4868,-19.5249 446.6378,-30.1187 453.2112,-27.7123"/>
</g>
<!-- Node29&#45;&gt;Node12 -->
<g id="edge49" class="edge">
<title>Node29&#45;&gt;Node12</title>
<path fill="none" stroke="#191970" d="M468.9091,-112.4509C438.0813,-92.9441 367.675,-48.3932 330.6909,-24.9909"/>
<polygon fill="#191970" stroke="#191970" points="332.3746,-21.9144 322.0527,-19.5249 328.6316,-27.8297 332.3746,-21.9144"/>
</g>
<!-- Node29&#45;&gt;Node16 -->
<g id="edge45" class="edge">
<title>Node29&#45;&gt;Node16</title>
<path fill="none" stroke="#191970" d="M545.1678,-115.2767C608.0321,-107.9134 708.8899,-94.8434 805.3455,-75.9477"/>
<polygon fill="#191970" stroke="#191970" points="806.138,-79.3588 815.2661,-73.9803 804.7762,-72.4925 806.138,-79.3588"/>
</g>
<!-- Node29&#45;&gt;Node17 -->
<g id="edge46" class="edge">
<title>Node29&#45;&gt;Node17</title>
<path fill="none" stroke="#191970" d="M515.8026,-112.3733C548.1481,-102.5822 598.2218,-87.4247 632.2464,-77.1254"/>
<polygon fill="#191970" stroke="#191970" points="633.2636,-80.4744 641.8206,-74.2273 631.2355,-73.7746 633.2636,-80.4744"/>
</g>
<!-- Node30&#45;&gt;Node10 -->
<g id="edge56" class="edge">
<title>Node30&#45;&gt;Node10</title>
<path fill="none" stroke="#191970" d="M378.9682,-112.4509C390.6433,-93.7707 416.6726,-52.1238 431.7024,-28.0761"/>
<polygon fill="#191970" stroke="#191970" points="434.7149,-29.8599 437.0469,-19.5249 428.7789,-26.1499 434.7149,-29.8599"/>
</g>
<!-- Node31 -->
<g id="node32" class="node">
<title>Node31</title>
<polygon fill="none" stroke="#bfbfbf" points="278.5,-56.5 278.5,-75.5 341.5,-75.5 341.5,-56.5 278.5,-56.5"/>
<text text-anchor="middle" x="310" y="-63.5" font-family="Helvetica,sans-Serif" font-size="10.00" fill="#000000">rte_mbuf.h</text>
</g>
<!-- Node30&#45;&gt;Node31 -->
<g id="edge57" class="edge">
<title>Node30&#45;&gt;Node31</title>
<path fill="none" stroke="#191970" d="M362.0262,-112.2455C352.8118,-104.0549 339.4468,-92.1749 328.5703,-82.5069"/>
<polygon fill="#191970" stroke="#191970" points="330.6474,-79.6704 320.848,-75.6427 325.9968,-84.9023 330.6474,-79.6704"/>
</g>
<!-- Node32&#45;&gt;Node10 -->
<g id="edge59" class="edge">
<title>Node32&#45;&gt;Node10</title>
<path fill="none" stroke="#191970" d="M240.6839,-112.3489C243.7192,-97.9034 251.4988,-70.7804 269,-56 269.3446,-55.709 359.8348,-31.8749 410.1642,-18.6343"/>
<polygon fill="#191970" stroke="#191970" points="411.1712,-21.9885 419.9518,-16.0597 409.3904,-15.2188 411.1712,-21.9885"/>
</g>
<!-- Node32&#45;&gt;Node28 -->
<g id="edge60" class="edge">
<title>Node32&#45;&gt;Node28</title>
<path fill="none" stroke="#191970" d="M210.4636,-112.3733C181.2308,-102.5116 135.8602,-87.2059 105.3207,-76.9034"/>
<polygon fill="#191970" stroke="#191970" points="106.1713,-73.4966 95.5772,-73.6164 103.9337,-80.1293 106.1713,-73.4966"/>
</g>
</g>
</svg>
