<?xml version="1.0" encoding="UTF-8" standalone="no"?>
<!DOCTYPE svg PUBLIC "-//W3C//DTD SVG 1.1//EN"
 "http://www.w3.org/Graphics/SVG/1.1/DTD/svg11.dtd">
<!-- Generated by graphviz version 2.40.1 (20161225.0304)
 -->
<!-- Title: HelloBye3MemPool_Server_process Pages: 1 -->
<svg width="460pt" height="53pt"
 viewBox="0.00 0.00 460.00 52.50" xmlns="http://www.w3.org/2000/svg" xmlns:xlink="http://www.w3.org/1999/xlink">
<g id="graph0" class="graph" transform="scale(1 1) rotate(0) translate(4 48.5)">
<title>HelloBye3MemPool_Server_process</title>
<!-- Node47 -->
<g id="node1" class="node">
<title>Node47</title>
<polygon fill="#bfbfbf" stroke="#000000" points="0,-14 0,-44 137,-44 137,-14 0,-14"/>
<text text-anchor="start" x="8" y="-32" font-family="Helvetica,sans-Serif" font-size="10.00" fill="#000000">HelloBye3MemPool_Server</text>
<text text-anchor="middle" x="68.5" y="-21" font-family="Helvetica,sans-Serif" font-size="10.00" fill="#000000">_process</text>
</g>
<!-- Node48 -->
<g id="node2" class="node">
<title>Node48</title>
<g id="a_node2"><a xlink:href="classBufArray.html#a1d52cd9f63feaa98f800bcae8277e675" target="_top" xlink:title="Get the number of packets currently marked as send. ">
<polygon fill="none" stroke="#000000" points="329,-19.5 329,-38.5 452,-38.5 452,-19.5 329,-19.5"/>
<text text-anchor="middle" x="390.5" y="-26.5" font-family="Helvetica,sans-Serif" font-size="10.00" fill="#000000">BufArray::getSendCount</text>
</a>
</g>
</g>
<!-- Node47&#45;&gt;Node48 -->
<g id="edge1" class="edge">
<title>Node47&#45;&gt;Node48</title>
<path fill="none" stroke="#191970" d="M137.1821,-29C190.6262,-29 264.5689,-29 318.772,-29"/>
<polygon fill="#191970" stroke="#191970" points="318.9953,-32.5001 328.9953,-29 318.9952,-25.5001 318.9953,-32.5001"/>
</g>
<!-- Node49 -->
<g id="node3" class="node">
<title>Node49</title>
<g id="a_node3"><a xlink:href="classBufArray.html#a77223130b4dca30992a335dbff4b4781" target="_top" xlink:title="Get the number of packets currently marked as free. ">
<polygon fill="none" stroke="#000000" points="173,-.5 173,-19.5 293,-19.5 293,-.5 173,-.5"/>
<text text-anchor="middle" x="233" y="-7.5" font-family="Helvetica,sans-Serif" font-size="10.00" fill="#000000">BufArray::getFreeCount</text>
</a>
</g>
</g>
<!-- Node47&#45;&gt;Node49 -->
<g id="edge2" class="edge">
<title>Node47&#45;&gt;Node49</title>
<path fill="none" stroke="#191970" d="M137.3097,-21.0524C145.697,-20.0836 154.276,-19.0927 162.6849,-18.1215"/>
<polygon fill="#191970" stroke="#191970" points="163.301,-21.5737 172.8333,-16.9493 162.4978,-14.6199 163.301,-21.5737"/>
</g>
<!-- Node49&#45;&gt;Node48 -->
<g id="edge3" class="edge">
<title>Node49&#45;&gt;Node48</title>
<path fill="none" stroke="#191970" d="M293.4432,-17.2916C301.7983,-18.2995 310.4444,-19.3425 318.9764,-20.3718"/>
<polygon fill="#191970" stroke="#191970" points="318.5684,-23.8478 328.9156,-21.5708 319.4068,-16.8982 318.5684,-23.8478"/>
</g>
</g>
</svg>
