<?xml version="1.0" encoding="UTF-8" standalone="no"?>
<!DOCTYPE svg PUBLIC "-//W3C//DTD SVG 1.1//EN"
 "http://www.w3.org/Graphics/SVG/1.1/DTD/svg11.dtd">
<!-- Generated by graphviz version 2.40.1 (20161225.0304)
 -->
<!-- Title: HelloByeServer_process Pages: 1 -->
<svg width="448pt" height="47pt"
 viewBox="0.00 0.00 448.00 47.00" xmlns="http://www.w3.org/2000/svg" xmlns:xlink="http://www.w3.org/1999/xlink">
<g id="graph0" class="graph" transform="scale(1 1) rotate(0) translate(4 43)">
<title>HelloByeServer_process</title>
<!-- Node26 -->
<g id="node1" class="node">
<title>Node26</title>
<polygon fill="#bfbfbf" stroke="#000000" points="0,-19.5 0,-38.5 125,-38.5 125,-19.5 0,-19.5"/>
<text text-anchor="middle" x="62.5" y="-26.5" font-family="Helvetica,sans-Serif" font-size="10.00" fill="#000000">HelloByeServer_process</text>
</g>
<!-- Node27 -->
<g id="node2" class="node">
<title>Node27</title>
<g id="a_node2"><a xlink:href="classBufArray.html#a1d52cd9f63feaa98f800bcae8277e675" target="_top" xlink:title="Get the number of packets currently marked as send. ">
<polygon fill="none" stroke="#000000" points="317,-19.5 317,-38.5 440,-38.5 440,-19.5 317,-19.5"/>
<text text-anchor="middle" x="378.5" y="-26.5" font-family="Helvetica,sans-Serif" font-size="10.00" fill="#000000">BufArray::getSendCount</text>
</a>
</g>
</g>
<!-- Node26&#45;&gt;Node27 -->
<g id="edge1" class="edge">
<title>Node26&#45;&gt;Node27</title>
<path fill="none" stroke="#191970" d="M125.3092,-29C177.5589,-29 251.9508,-29 306.5807,-29"/>
<polygon fill="#191970" stroke="#191970" points="306.8858,-32.5001 316.8857,-29 306.8857,-25.5001 306.8858,-32.5001"/>
</g>
<!-- Node28 -->
<g id="node3" class="node">
<title>Node28</title>
<g id="a_node3"><a xlink:href="classBufArray.html#a77223130b4dca30992a335dbff4b4781" target="_top" xlink:title="Get the number of packets currently marked as free. ">
<polygon fill="none" stroke="#000000" points="161,-.5 161,-19.5 281,-19.5 281,-.5 161,-.5"/>
<text text-anchor="middle" x="221" y="-7.5" font-family="Helvetica,sans-Serif" font-size="10.00" fill="#000000">BufArray::getFreeCount</text>
</a>
</g>
</g>
<!-- Node26&#45;&gt;Node28 -->
<g id="edge2" class="edge">
<title>Node26&#45;&gt;Node28</title>
<path fill="none" stroke="#191970" d="M125.1434,-21.4907C133.6017,-20.4768 142.3243,-19.4312 150.9019,-18.4029"/>
<polygon fill="#191970" stroke="#191970" points="151.3679,-21.8722 160.8802,-17.2068 150.5347,-14.922 151.3679,-21.8722"/>
</g>
<!-- Node28&#45;&gt;Node27 -->
<g id="edge3" class="edge">
<title>Node28&#45;&gt;Node27</title>
<path fill="none" stroke="#191970" d="M281.4432,-17.2916C289.7983,-18.2995 298.4444,-19.3425 306.9764,-20.3718"/>
<polygon fill="#191970" stroke="#191970" points="306.5684,-23.8478 316.9156,-21.5708 307.4068,-16.8982 306.5684,-23.8478"/>
</g>
</g>
</svg>
