<?xml version="1.0" encoding="UTF-8" standalone="no"?>
<!DOCTYPE svg PUBLIC "-//W3C//DTD SVG 1.1//EN"
 "http://www.w3.org/Graphics/SVG/1.1/DTD/svg11.dtd">
<!-- Generated by graphviz version 2.40.1 (20161225.0304)
 -->
<!-- Title: HelloBye3_Server_getPkts Pages: 1 -->
<svg width="607pt" height="66pt"
 viewBox="0.00 0.00 607.00 66.00" xmlns="http://www.w3.org/2000/svg" xmlns:xlink="http://www.w3.org/1999/xlink">
<g id="graph0" class="graph" transform="scale(1 1) rotate(0) translate(4 62)">
<title>HelloBye3_Server_getPkts</title>
<!-- Node33 -->
<g id="node1" class="node">
<title>Node33</title>
<polygon fill="#bfbfbf" stroke="#000000" points="0,-19.5 0,-38.5 134,-38.5 134,-19.5 0,-19.5"/>
<text text-anchor="middle" x="67" y="-26.5" font-family="Helvetica,sans-Serif" font-size="10.00" fill="#000000">HelloBye3_Server_getPkts</text>
</g>
<!-- Node34 -->
<g id="node2" class="node">
<title>Node34</title>
<g id="a_node2"><a xlink:href="classBufArray.html#a65ec6fb832e58b88b2be695c4d30a437" target="_top" xlink:title="Get all the packets which are to be sent. ">
<polygon fill="none" stroke="#000000" points="321.5,-38.5 321.5,-57.5 438.5,-57.5 438.5,-38.5 321.5,-38.5"/>
<text text-anchor="middle" x="380" y="-45.5" font-family="Helvetica,sans-Serif" font-size="10.00" fill="#000000">BufArray::getSendBufs</text>
</a>
</g>
</g>
<!-- Node33&#45;&gt;Node34 -->
<g id="edge1" class="edge">
<title>Node33&#45;&gt;Node34</title>
<path fill="none" stroke="#191970" d="M134.1464,-33.076C186.3508,-36.2449 258.5041,-40.6248 311.1389,-43.8199"/>
<polygon fill="#191970" stroke="#191970" points="311.2002,-47.33 321.3939,-44.4424 311.6244,-40.3429 311.2002,-47.33"/>
</g>
<!-- Node36 -->
<g id="node4" class="node">
<title>Node36</title>
<g id="a_node4"><a xlink:href="classBufArray.html#a81ad0c7cdb324569ecfb42e735e653c9" target="_top" xlink:title="Get all the packets which are to be freed. ">
<polygon fill="none" stroke="#000000" points="170,-.5 170,-19.5 284,-19.5 284,-.5 170,-.5"/>
<text text-anchor="middle" x="227" y="-7.5" font-family="Helvetica,sans-Serif" font-size="10.00" fill="#000000">BufArray::getFreeBufs</text>
</a>
</g>
</g>
<!-- Node33&#45;&gt;Node36 -->
<g id="edge3" class="edge">
<title>Node33&#45;&gt;Node36</title>
<path fill="none" stroke="#191970" d="M134.3907,-20.9974C142.7696,-20.0024 151.3379,-18.9849 159.7152,-17.9901"/>
<polygon fill="#191970" stroke="#191970" points="160.296,-21.4458 169.8135,-16.7909 159.4705,-14.4946 160.296,-21.4458"/>
</g>
<!-- Node35 -->
<g id="node3" class="node">
<title>Node35</title>
<g id="a_node3"><a xlink:href="classBufArray.html#a1d52cd9f63feaa98f800bcae8277e675" target="_top" xlink:title="Get the number of packets currently marked as send. ">
<polygon fill="none" stroke="#000000" points="476,-19.5 476,-38.5 599,-38.5 599,-19.5 476,-19.5"/>
<text text-anchor="middle" x="537.5" y="-26.5" font-family="Helvetica,sans-Serif" font-size="10.00" fill="#000000">BufArray::getSendCount</text>
</a>
</g>
</g>
<!-- Node34&#45;&gt;Node35 -->
<g id="edge2" class="edge">
<title>Node34&#45;&gt;Node35</title>
<path fill="none" stroke="#191970" d="M438.6472,-40.9251C447.48,-39.8596 456.6743,-38.7504 465.744,-37.6563"/>
<polygon fill="#191970" stroke="#191970" points="466.3962,-41.1031 475.905,-36.4305 465.5578,-34.1535 466.3962,-41.1031"/>
</g>
<!-- Node37 -->
<g id="node5" class="node">
<title>Node37</title>
<g id="a_node5"><a xlink:href="classBufArray.html#a77223130b4dca30992a335dbff4b4781" target="_top" xlink:title="Get the number of packets currently marked as free. ">
<polygon fill="none" stroke="#000000" points="320,-.5 320,-19.5 440,-19.5 440,-.5 320,-.5"/>
<text text-anchor="middle" x="380" y="-7.5" font-family="Helvetica,sans-Serif" font-size="10.00" fill="#000000">BufArray::getFreeCount</text>
</a>
</g>
</g>
<!-- Node36&#45;&gt;Node37 -->
<g id="edge4" class="edge">
<title>Node36&#45;&gt;Node37</title>
<path fill="none" stroke="#191970" d="M284.4069,-10C292.6656,-10 301.2416,-10 309.7151,-10"/>
<polygon fill="#191970" stroke="#191970" points="309.9721,-13.5001 319.972,-10 309.972,-6.5001 309.9721,-13.5001"/>
</g>
<!-- Node37&#45;&gt;Node35 -->
<g id="edge5" class="edge">
<title>Node37&#45;&gt;Node35</title>
<path fill="none" stroke="#191970" d="M440.4432,-17.2916C448.7983,-18.2995 457.4444,-19.3425 465.9764,-20.3718"/>
<polygon fill="#191970" stroke="#191970" points="465.5684,-23.8478 475.9156,-21.5708 466.4068,-16.8982 465.5684,-23.8478"/>
</g>
</g>
</svg>
