<?xml version="1.0" encoding="UTF-8" standalone="no"?>
<!DOCTYPE svg PUBLIC "-//W3C//DTD SVG 1.1//EN"
 "http://www.w3.org/Graphics/SVG/1.1/DTD/svg11.dtd">
<!-- Generated by graphviz version 2.40.1 (20161225.0304)
 -->
<!-- Title: HelloBye3_Server_init Pages: 1 -->
<svg width="560pt" height="192pt"
 viewBox="0.00 0.00 560.00 192.00" xmlns="http://www.w3.org/2000/svg" xmlns:xlink="http://www.w3.org/1999/xlink">
<g id="graph0" class="graph" transform="scale(1 1) rotate(0) translate(4 188)">
<title>HelloBye3_Server_init</title>
<!-- Node38 -->
<g id="node1" class="node">
<title>Node38</title>
<polygon fill="#bfbfbf" stroke="#000000" points="0,-106.5 0,-125.5 113,-125.5 113,-106.5 0,-106.5"/>
<text text-anchor="middle" x="56.5" y="-113.5" font-family="Helvetica,sans-Serif" font-size="10.00" fill="#000000">HelloBye3_Server_init</text>
</g>
<!-- Node39 -->
<g id="node2" class="node">
<title>Node39</title>
<g id="a_node2"><a xlink:href="namespaceHelloBye3_1_1Server.html#a0637bd260684c226f4f04d8177666cc9" target="_top" xlink:title="HelloBye3::Server::\lfactory">
<polygon fill="none" stroke="#000000" points="149,-150 149,-180 251,-180 251,-150 149,-150"/>
<text text-anchor="start" x="157" y="-168" font-family="Helvetica,sans-Serif" font-size="10.00" fill="#000000">HelloBye3::Server::</text>
<text text-anchor="middle" x="200" y="-157" font-family="Helvetica,sans-Serif" font-size="10.00" fill="#000000">factory</text>
</a>
</g>
</g>
<!-- Node38&#45;&gt;Node39 -->
<g id="edge1" class="edge">
<title>Node38&#45;&gt;Node39</title>
<path fill="none" stroke="#191970" d="M84.5089,-125.564C102.1211,-131.5779 125.4194,-139.5335 146.4752,-146.7232"/>
<polygon fill="#191970" stroke="#191970" points="145.3686,-150.0438 155.9632,-149.963 147.6307,-143.4193 145.3686,-150.0438"/>
</g>
<!-- Node40 -->
<g id="node3" class="node">
<title>Node40</title>
<g id="a_node3"><a xlink:href="namespaceHelloBye3_1_1Server.html#ad3f0238bf7f0df92690d1c9addd8ede0" target="_top" xlink:title="HelloBye3::Server::\lrunHello">
<polygon fill="none" stroke="#000000" points="149,-52 149,-82 251,-82 251,-52 149,-52"/>
<text text-anchor="start" x="157" y="-70" font-family="Helvetica,sans-Serif" font-size="10.00" fill="#000000">HelloBye3::Server::</text>
<text text-anchor="middle" x="200" y="-59" font-family="Helvetica,sans-Serif" font-size="10.00" fill="#000000">runHello</text>
</a>
</g>
</g>
<!-- Node38&#45;&gt;Node40 -->
<g id="edge2" class="edge">
<title>Node38&#45;&gt;Node40</title>
<path fill="none" stroke="#191970" d="M84.5089,-106.436C102.1211,-100.4221 125.4194,-92.4665 146.4752,-85.2768"/>
<polygon fill="#191970" stroke="#191970" points="147.6307,-88.5807 155.9632,-82.037 145.3686,-81.9562 147.6307,-88.5807"/>
</g>
<!-- Node47 -->
<g id="node10" class="node">
<title>Node47</title>
<g id="a_node10"><a xlink:href="namespaceHelloBye3_1_1Server.html#a10dc03b910acb6a1ad2d457b75a75408" target="_top" xlink:title="HelloBye3::Server::\lrunBye">
<polygon fill="none" stroke="#000000" points="149,-101 149,-131 251,-131 251,-101 149,-101"/>
<text text-anchor="start" x="157" y="-119" font-family="Helvetica,sans-Serif" font-size="10.00" fill="#000000">HelloBye3::Server::</text>
<text text-anchor="middle" x="200" y="-108" font-family="Helvetica,sans-Serif" font-size="10.00" fill="#000000">runBye</text>
</a>
</g>
</g>
<!-- Node38&#45;&gt;Node47 -->
<g id="edge9" class="edge">
<title>Node38&#45;&gt;Node47</title>
<path fill="none" stroke="#191970" d="M113.215,-116C121.5694,-116 130.2085,-116 138.6513,-116"/>
<polygon fill="#191970" stroke="#191970" points="138.82,-119.5001 148.8199,-116 138.8199,-112.5001 138.82,-119.5001"/>
</g>
<!-- Node41 -->
<g id="node4" class="node">
<title>Node41</title>
<g id="a_node4"><a xlink:href="structmbuf.html#a822d13c96f003279f7691d7778e75c3c" target="_top" xlink:title="mbuf::getData">
<polygon fill="none" stroke="#000000" points="314.5,-126.5 314.5,-145.5 393.5,-145.5 393.5,-126.5 314.5,-126.5"/>
<text text-anchor="middle" x="354" y="-133.5" font-family="Helvetica,sans-Serif" font-size="10.00" fill="#000000">mbuf::getData</text>
</a>
</g>
</g>
<!-- Node40&#45;&gt;Node41 -->
<g id="edge3" class="edge">
<title>Node40&#45;&gt;Node41</title>
<path fill="none" stroke="#191970" d="M232.4927,-82.0116C238.7256,-85.1469 245.1343,-88.5523 251,-92 267.7936,-101.8708 269.3895,-108.6736 287,-117 292.4618,-119.5824 298.3441,-121.8805 304.2746,-123.907"/>
<polygon fill="#191970" stroke="#191970" points="303.6449,-127.379 314.235,-127.0632 305.7595,-120.706 303.6449,-127.379"/>
</g>
<!-- Node42 -->
<g id="node5" class="node">
<title>Node42</title>
<g id="a_node5"><a xlink:href="structHeaders_1_1Ethernet.html#ad59e9fe1ec95b8e2ed11f97b44a20650" target="_top" xlink:title="Get the SDU. ">
<polygon fill="none" stroke="#000000" points="303,-77 303,-107 405,-107 405,-77 303,-77"/>
<text text-anchor="start" x="311" y="-95" font-family="Helvetica,sans-Serif" font-size="10.00" fill="#000000">Headers::Ethernet::</text>
<text text-anchor="middle" x="354" y="-84" font-family="Helvetica,sans-Serif" font-size="10.00" fill="#000000">getPayload</text>
</a>
</g>
</g>
<!-- Node40&#45;&gt;Node42 -->
<g id="edge4" class="edge">
<title>Node40&#45;&gt;Node42</title>
<path fill="none" stroke="#191970" d="M251.2798,-75.3246C264.6573,-77.4963 279.205,-79.858 293.0312,-82.1025"/>
<polygon fill="#191970" stroke="#191970" points="292.5125,-85.564 302.9442,-83.7117 293.6342,-78.6545 292.5125,-85.564"/>
</g>
<!-- Node43 -->
<g id="node6" class="node">
<title>Node43</title>
<g id="a_node6"><a xlink:href="structHeaders_1_1IPv4.html#acc4a8033c5da9c2ce147ee10e15d2a49" target="_top" xlink:title="Get the SDU. ">
<polygon fill="none" stroke="#000000" points="287,-38.5 287,-57.5 421,-57.5 421,-38.5 287,-38.5"/>
<text text-anchor="middle" x="354" y="-45.5" font-family="Helvetica,sans-Serif" font-size="10.00" fill="#000000">Headers::IPv4::getPayload</text>
</a>
</g>
</g>
<!-- Node40&#45;&gt;Node43 -->
<g id="edge5" class="edge">
<title>Node40&#45;&gt;Node43</title>
<path fill="none" stroke="#191970" d="M251.2798,-60.6733C259.4553,-59.6646 268.0679,-58.602 276.6857,-57.5388"/>
<polygon fill="#191970" stroke="#191970" points="277.2827,-60.9917 286.7789,-56.2935 276.4255,-54.0444 277.2827,-60.9917"/>
</g>
<!-- Node45 -->
<g id="node8" class="node">
<title>Node45</title>
<g id="a_node8"><a xlink:href="structHeaders_1_1Udp.html#a531f2e8247abf7807c50d806208b7cb1" target="_top" xlink:title="Get the SDU. ">
<polygon fill="none" stroke="#000000" points="288,-.5 288,-19.5 420,-19.5 420,-.5 288,-.5"/>
<text text-anchor="middle" x="354" y="-7.5" font-family="Helvetica,sans-Serif" font-size="10.00" fill="#000000">Headers::Udp::getPayload</text>
</a>
</g>
</g>
<!-- Node40&#45;&gt;Node45 -->
<g id="edge7" class="edge">
<title>Node40&#45;&gt;Node45</title>
<path fill="none" stroke="#191970" d="M231.8082,-51.8698C248.1008,-44.4382 268.3807,-35.6717 287,-29 293.4237,-26.6983 300.2714,-24.488 307.044,-22.4406"/>
<polygon fill="#191970" stroke="#191970" points="308.2423,-25.7367 316.8547,-19.566 306.274,-19.0192 308.2423,-25.7367"/>
</g>
<!-- Node46 -->
<g id="node9" class="node">
<title>Node46</title>
<g id="a_node9"><a xlink:href="structHelloBye3_1_1msg.html#a3b93043c60ca836029a396cabf4d4982" target="_top" xlink:title="HelloBye3::msg::msg">
<polygon fill="none" stroke="#000000" points="298.5,-164.5 298.5,-183.5 409.5,-183.5 409.5,-164.5 298.5,-164.5"/>
<text text-anchor="middle" x="354" y="-171.5" font-family="Helvetica,sans-Serif" font-size="10.00" fill="#000000">HelloBye3::msg::msg</text>
</a>
</g>
</g>
<!-- Node40&#45;&gt;Node46 -->
<g id="edge8" class="edge">
<title>Node40&#45;&gt;Node46</title>
<path fill="none" stroke="#191970" d="M237.3738,-82.015C242.2683,-84.899 246.9736,-88.221 251,-92 274.5145,-114.0696 261.6026,-135.1261 287,-155 289.321,-156.8162 291.8073,-158.4588 294.4066,-159.9443"/>
<polygon fill="#191970" stroke="#191970" points="293.0788,-163.1904 303.6027,-164.4144 296.139,-156.8948 293.0788,-163.1904"/>
</g>
<!-- Node44 -->
<g id="node7" class="node">
<title>Node44</title>
<g id="a_node7"><a xlink:href="structHeaders_1_1IPv4.html#ac6c5485ffca9cffaded18d2ad8d5985a" target="_top" xlink:title="Headers::IPv4::ihl">
<polygon fill="none" stroke="#000000" points="457,-38.5 457,-57.5 552,-57.5 552,-38.5 457,-38.5"/>
<text text-anchor="middle" x="504.5" y="-45.5" font-family="Helvetica,sans-Serif" font-size="10.00" fill="#000000">Headers::IPv4::ihl</text>
</a>
</g>
</g>
<!-- Node43&#45;&gt;Node44 -->
<g id="edge6" class="edge">
<title>Node43&#45;&gt;Node44</title>
<path fill="none" stroke="#191970" d="M421.3266,-48C429.6911,-48 438.1876,-48 446.3967,-48"/>
<polygon fill="#191970" stroke="#191970" points="446.6094,-51.5001 456.6094,-48 446.6094,-44.5001 446.6094,-51.5001"/>
</g>
<!-- Node47&#45;&gt;Node41 -->
<g id="edge10" class="edge">
<title>Node47&#45;&gt;Node41</title>
<path fill="none" stroke="#191970" d="M251.2798,-122.6597C268.2351,-124.8617 287.0703,-127.3078 303.9335,-129.4979"/>
<polygon fill="#191970" stroke="#191970" points="303.7765,-133.0068 314.144,-130.8239 304.6781,-126.0651 303.7765,-133.0068"/>
</g>
<!-- Node47&#45;&gt;Node42 -->
<g id="edge11" class="edge">
<title>Node47&#45;&gt;Node42</title>
<path fill="none" stroke="#191970" d="M251.2798,-108.0083C264.6573,-105.9235 279.205,-103.6564 293.0312,-101.5016"/>
<polygon fill="#191970" stroke="#191970" points="293.6024,-104.9549 302.9442,-99.9568 292.5244,-98.0384 293.6024,-104.9549"/>
</g>
<!-- Node47&#45;&gt;Node43 -->
<g id="edge12" class="edge">
<title>Node47&#45;&gt;Node43</title>
<path fill="none" stroke="#191970" d="M233.828,-100.9454C239.6319,-98.1181 245.5462,-95.0788 251,-92 267.7456,-82.5468 269.5942,-76.174 287,-68 292.7686,-65.291 298.989,-62.8519 305.2333,-60.6861"/>
<polygon fill="#191970" stroke="#191970" points="306.577,-63.9296 315.0039,-57.5079 304.4116,-57.2729 306.577,-63.9296"/>
</g>
<!-- Node47&#45;&gt;Node45 -->
<g id="edge13" class="edge">
<title>Node47&#45;&gt;Node45</title>
<path fill="none" stroke="#191970" d="M238.6817,-100.9923C243.1045,-98.3758 247.334,-95.3863 251,-92 274.6895,-70.1184 261.6026,-48.8739 287,-29 289.321,-27.1838 291.8073,-25.5412 294.4066,-24.0557"/>
<polygon fill="#191970" stroke="#191970" points="296.139,-27.1052 303.6027,-19.5856 293.0788,-20.8096 296.139,-27.1052"/>
</g>
<!-- Node47&#45;&gt;Node46 -->
<g id="edge14" class="edge">
<title>Node47&#45;&gt;Node46</title>
<path fill="none" stroke="#191970" d="M230.5549,-131.0065C247.0358,-138.7653 267.8671,-148.0404 287,-155 293.4126,-157.3326 300.2541,-159.5601 307.0237,-161.6156"/>
<polygon fill="#191970" stroke="#191970" points="306.2512,-165.0365 316.8323,-164.4961 308.2237,-158.3201 306.2512,-165.0365"/>
</g>
</g>
</svg>
