<?xml version="1.0" encoding="UTF-8" standalone="no"?>
<!DOCTYPE svg PUBLIC "-//W3C//DTD SVG 1.1//EN"
 "http://www.w3.org/Graphics/SVG/1.1/DTD/svg11.dtd">
<!-- Generated by graphviz version 2.38.0 (20140413.2041)
 -->
<!-- Title: /home/dominik/uni/MoonState/include/helloBye_C.hpp Pages: 1 -->
<svg width="1650pt" height="319pt"
 viewBox="0.00 0.00 1650.21 319.00" xmlns="http://www.w3.org/2000/svg" xmlns:xlink="http://www.w3.org/1999/xlink">
<g id="graph0" class="graph" transform="scale(1 1) rotate(0) translate(4 315)">
<title>/home/dominik/uni/MoonState/include/helloBye_C.hpp</title>
<!-- Node1 -->
<g id="node1" class="node"><title>Node1</title>
<polygon fill="#bfbfbf" stroke="black" points="0.207988,-280.5 0.207988,-310.5 147.208,-310.5 147.208,-280.5 0.207988,-280.5"/>
<text text-anchor="start" x="8.20799" y="-298.5" font-family="Helvetica,sans-Serif" font-size="10.00">/home/dominik/uni/MoonState</text>
<text text-anchor="middle" x="73.708" y="-287.5" font-family="Helvetica,sans-Serif" font-size="10.00">/include/helloBye_C.hpp</text>
</g>
<!-- Node2 -->
<g id="node2" class="node"><title>Node2</title>
<g id="a_node2"><a xlink:href="helloByeProto_8hpp.html" target="_top" xlink:title="helloByeProto.hpp">
<polygon fill="none" stroke="black" points="149.708,-224.5 149.708,-243.5 245.708,-243.5 245.708,-224.5 149.708,-224.5"/>
<text text-anchor="middle" x="197.708" y="-231.5" font-family="Helvetica,sans-Serif" font-size="10.00">helloByeProto.hpp</text>
</a>
</g>
</g>
<!-- Node1&#45;&gt;Node2 -->
<g id="edge1" class="edge"><title>Node1&#45;&gt;Node2</title>
<path fill="none" stroke="midnightblue" d="M103.094,-280.399C123.528,-270.595 150.568,-257.619 170.507,-248.052"/>
<polygon fill="midnightblue" stroke="midnightblue" points="172.163,-251.139 179.665,-243.658 169.135,-244.828 172.163,-251.139"/>
</g>
<!-- Node34 -->
<g id="node34" class="node"><title>Node34</title>
<polygon fill="none" stroke="#bfbfbf" points="17.208,-56.5 17.208,-75.5 80.208,-75.5 80.208,-56.5 17.208,-56.5"/>
<text text-anchor="middle" x="48.708" y="-63.5" font-family="Helvetica,sans-Serif" font-size="10.00">rte_mbuf.h</text>
</g>
<!-- Node1&#45;&gt;Node34 -->
<g id="edge55" class="edge"><title>Node1&#45;&gt;Node34</title>
<path fill="none" stroke="midnightblue" d="M68.0626,-280.461C57.2295,-252.679 33.8754,-188.481 25.708,-132 24.4359,-123.203 23.6275,-120.642 25.708,-112 28.0147,-102.418 32.7253,-92.5813 37.2861,-84.5579"/>
<polygon fill="midnightblue" stroke="midnightblue" points="40.4004,-86.1727 42.6034,-75.8095 34.4186,-82.537 40.4004,-86.1727"/>
</g>
<!-- Node3 -->
<g id="node3" class="node"><title>Node3</title>
<g id="a_node3"><a xlink:href="common_8hpp.html" target="_top" xlink:title="common.hpp">
<polygon fill="none" stroke="black" points="516.208,-56.5 516.208,-75.5 589.208,-75.5 589.208,-56.5 516.208,-56.5"/>
<text text-anchor="middle" x="552.708" y="-63.5" font-family="Helvetica,sans-Serif" font-size="10.00">common.hpp</text>
</a>
</g>
</g>
<!-- Node2&#45;&gt;Node3 -->
<g id="edge2" class="edge"><title>Node2&#45;&gt;Node3</title>
<path fill="none" stroke="midnightblue" d="M245.853,-229.475C314.129,-222.141 439.664,-199.76 519.708,-132 534.025,-119.88 542.826,-100.005 547.698,-85.4185"/>
<polygon fill="midnightblue" stroke="midnightblue" points="551.15,-86.0951 550.685,-75.5105 544.448,-84.0747 551.15,-86.0951"/>
</g>
<!-- Node5 -->
<g id="node5" class="node"><title>Node5</title>
<g id="a_node5"><a xlink:href="stateMachine_8hpp.html" target="_top" xlink:title="stateMachine.hpp">
<polygon fill="none" stroke="black" points="991.708,-112.5 991.708,-131.5 1085.71,-131.5 1085.71,-112.5 991.708,-112.5"/>
<text text-anchor="middle" x="1038.71" y="-119.5" font-family="Helvetica,sans-Serif" font-size="10.00">stateMachine.hpp</text>
</a>
</g>
</g>
<!-- Node2&#45;&gt;Node5 -->
<g id="edge4" class="edge"><title>Node2&#45;&gt;Node5</title>
<path fill="none" stroke="midnightblue" d="M245.746,-227.202C315.098,-218.792 447.292,-202.614 559.708,-188 712.162,-168.181 891.706,-143.442 981.504,-130.973"/>
<polygon fill="midnightblue" stroke="midnightblue" points="982.056,-134.43 991.48,-129.587 981.093,-127.497 982.056,-134.43"/>
</g>
<!-- Node24 -->
<g id="node24" class="node"><title>Node24</title>
<g id="a_node24"><a xlink:href="helloByeProto_8cpp.html" target="_top" xlink:title="../src/helloByeProto.cpp">
<polygon fill="none" stroke="black" points="136.708,-168.5 136.708,-187.5 258.708,-187.5 258.708,-168.5 136.708,-168.5"/>
<text text-anchor="middle" x="197.708" y="-175.5" font-family="Helvetica,sans-Serif" font-size="10.00">../src/helloByeProto.cpp</text>
</a>
</g>
</g>
<!-- Node2&#45;&gt;Node24 -->
<g id="edge27" class="edge"><title>Node2&#45;&gt;Node24</title>
<path fill="none" stroke="midnightblue" d="M192.542,-224.083C191.032,-216.927 190.602,-206.635 191.25,-197.691"/>
<polygon fill="midnightblue" stroke="midnightblue" points="194.723,-198.126 192.577,-187.751 187.785,-197.2 194.723,-198.126"/>
</g>
<!-- Node4 -->
<g id="node4" class="node"><title>Node4</title>
<polygon fill="none" stroke="#bfbfbf" points="388.708,-0.5 388.708,-19.5 434.708,-19.5 434.708,-0.5 388.708,-0.5"/>
<text text-anchor="middle" x="411.708" y="-7.5" font-family="Helvetica,sans-Serif" font-size="10.00">cstdint</text>
</g>
<!-- Node3&#45;&gt;Node4 -->
<g id="edge3" class="edge"><title>Node3&#45;&gt;Node4</title>
<path fill="none" stroke="midnightblue" d="M530.366,-56.4435C506.955,-47.4776 469.972,-33.314 443.518,-23.1827"/>
<polygon fill="midnightblue" stroke="midnightblue" points="444.536,-19.8245 433.945,-19.5164 442.032,-26.3615 444.536,-19.8245"/>
</g>
<!-- Node5&#45;&gt;Node3 -->
<g id="edge21" class="edge"><title>Node5&#45;&gt;Node3</title>
<path fill="none" stroke="midnightblue" d="M991.647,-117.605C912.767,-111.606 748.704,-97.8071 599.569,-75.9914"/>
<polygon fill="midnightblue" stroke="midnightblue" points="599.719,-72.4754 589.314,-74.4749 598.695,-79.4001 599.719,-72.4754"/>
</g>
<!-- Node5&#45;&gt;Node4 -->
<g id="edge7" class="edge"><title>Node5&#45;&gt;Node4</title>
<path fill="none" stroke="midnightblue" d="M991.691,-116.817C940.28,-111.282 855.982,-99.3632 786.708,-76 768.25,-69.7748 766.297,-61.8216 747.708,-56 640.682,-22.4828 506.817,-13.9301 445.371,-11.7477"/>
<polygon fill="midnightblue" stroke="midnightblue" points="445.214,-8.24097 435.107,-11.4194 444.99,-15.2374 445.214,-8.24097"/>
</g>
<!-- Node6 -->
<g id="node6" class="node"><title>Node6</title>
<polygon fill="none" stroke="#bfbfbf" points="897.208,-56.5 897.208,-75.5 946.208,-75.5 946.208,-56.5 897.208,-56.5"/>
<text text-anchor="middle" x="921.708" y="-63.5" font-family="Helvetica,sans-Serif" font-size="10.00">cassert</text>
</g>
<!-- Node5&#45;&gt;Node6 -->
<g id="edge5" class="edge"><title>Node5&#45;&gt;Node6</title>
<path fill="none" stroke="midnightblue" d="M1020.17,-112.444C1001.09,-103.636 971.133,-89.8116 949.272,-79.722"/>
<polygon fill="midnightblue" stroke="midnightblue" points="950.707,-76.5292 940.16,-75.5164 947.773,-82.8849 950.707,-76.5292"/>
</g>
<!-- Node7 -->
<g id="node7" class="node"><title>Node7</title>
<polygon fill="none" stroke="#bfbfbf" points="964.708,-56.5 964.708,-75.5 1010.71,-75.5 1010.71,-56.5 964.708,-56.5"/>
<text text-anchor="middle" x="987.708" y="-63.5" font-family="Helvetica,sans-Serif" font-size="10.00">chrono</text>
</g>
<!-- Node5&#45;&gt;Node7 -->
<g id="edge6" class="edge"><title>Node5&#45;&gt;Node7</title>
<path fill="none" stroke="midnightblue" d="M1030.29,-112.083C1022.86,-104.22 1011.86,-92.5688 1002.9,-83.0813"/>
<polygon fill="midnightblue" stroke="midnightblue" points="1005.38,-80.618 995.973,-75.7511 1000.29,-85.4244 1005.38,-80.618"/>
</g>
<!-- Node8 -->
<g id="node8" class="node"><title>Node8</title>
<polygon fill="none" stroke="#bfbfbf" points="680.208,-56.5 680.208,-75.5 739.208,-75.5 739.208,-56.5 680.208,-56.5"/>
<text text-anchor="middle" x="709.708" y="-63.5" font-family="Helvetica,sans-Serif" font-size="10.00">functional</text>
</g>
<!-- Node5&#45;&gt;Node8 -->
<g id="edge8" class="edge"><title>Node5&#45;&gt;Node8</title>
<path fill="none" stroke="midnightblue" d="M991.697,-114.242C935.108,-105.954 837.255,-91.1324 753.708,-76 752.269,-75.7394 750.806,-75.4688 749.328,-75.1909"/>
<polygon fill="midnightblue" stroke="midnightblue" points="749.979,-71.7519 739.495,-73.2824 748.645,-78.6237 749.979,-71.7519"/>
</g>
<!-- Node9 -->
<g id="node9" class="node"><title>Node9</title>
<polygon fill="none" stroke="#bfbfbf" points="607.708,-56.5 607.708,-75.5 661.708,-75.5 661.708,-56.5 607.708,-56.5"/>
<text text-anchor="middle" x="634.708" y="-63.5" font-family="Helvetica,sans-Serif" font-size="10.00">iostream</text>
</g>
<!-- Node5&#45;&gt;Node9 -->
<g id="edge9" class="edge"><title>Node5&#45;&gt;Node9</title>
<path fill="none" stroke="midnightblue" d="M991.662,-117.119C923.33,-111.072 792.503,-97.9523 671.902,-76.0133"/>
<polygon fill="midnightblue" stroke="midnightblue" points="672.225,-72.514 661.756,-74.142 670.956,-79.3979 672.225,-72.514"/>
</g>
<!-- Node10 -->
<g id="node10" class="node"><title>Node10</title>
<polygon fill="none" stroke="#bfbfbf" points="1066.71,-56.5 1066.71,-75.5 1106.71,-75.5 1106.71,-56.5 1066.71,-56.5"/>
<text text-anchor="middle" x="1086.71" y="-63.5" font-family="Helvetica,sans-Serif" font-size="10.00">limits</text>
</g>
<!-- Node5&#45;&gt;Node10 -->
<g id="edge10" class="edge"><title>Node5&#45;&gt;Node10</title>
<path fill="none" stroke="midnightblue" d="M1046.63,-112.083C1053.55,-104.298 1063.77,-92.8015 1072.16,-83.3665"/>
<polygon fill="midnightblue" stroke="midnightblue" points="1074.9,-85.5505 1078.93,-75.7511 1069.67,-80.8999 1074.9,-85.5505"/>
</g>
<!-- Node11 -->
<g id="node11" class="node"><title>Node11</title>
<polygon fill="none" stroke="#bfbfbf" points="1124.71,-56.5 1124.71,-75.5 1176.71,-75.5 1176.71,-56.5 1124.71,-56.5"/>
<text text-anchor="middle" x="1150.71" y="-63.5" font-family="Helvetica,sans-Serif" font-size="10.00">memory</text>
</g>
<!-- Node5&#45;&gt;Node11 -->
<g id="edge11" class="edge"><title>Node5&#45;&gt;Node11</title>
<path fill="none" stroke="midnightblue" d="M1056.7,-112.324C1074.75,-103.625 1102.75,-90.1202 1123.51,-80.113"/>
<polygon fill="midnightblue" stroke="midnightblue" points="1125.27,-83.1502 1132.76,-75.6545 1122.23,-76.8449 1125.27,-83.1502"/>
</g>
<!-- Node12 -->
<g id="node12" class="node"><title>Node12</title>
<polygon fill="none" stroke="#bfbfbf" points="1194.71,-56.5 1194.71,-75.5 1238.71,-75.5 1238.71,-56.5 1194.71,-56.5"/>
<text text-anchor="middle" x="1216.71" y="-63.5" font-family="Helvetica,sans-Serif" font-size="10.00">mutex</text>
</g>
<!-- Node5&#45;&gt;Node12 -->
<g id="edge12" class="edge"><title>Node5&#45;&gt;Node12</title>
<path fill="none" stroke="midnightblue" d="M1066.91,-112.444C1098.98,-102.714 1151.23,-86.8642 1184.77,-76.688"/>
<polygon fill="midnightblue" stroke="midnightblue" points="1185.99,-79.9775 1194.54,-73.7251 1183.95,-73.2789 1185.99,-79.9775"/>
</g>
<!-- Node13 -->
<g id="node13" class="node"><title>Node13</title>
<polygon fill="none" stroke="#bfbfbf" points="1257.21,-56.5 1257.21,-75.5 1300.21,-75.5 1300.21,-56.5 1257.21,-56.5"/>
<text text-anchor="middle" x="1278.71" y="-63.5" font-family="Helvetica,sans-Serif" font-size="10.00">queue</text>
</g>
<!-- Node5&#45;&gt;Node13 -->
<g id="edge13" class="edge"><title>Node5&#45;&gt;Node13</title>
<path fill="none" stroke="midnightblue" d="M1082.55,-112.496C1122.83,-104.475 1184.38,-91.6919 1247.02,-76.0281"/>
<polygon fill="midnightblue" stroke="midnightblue" points="1248.24,-79.3301 1257.08,-73.4897 1246.53,-72.5428 1248.24,-79.3301"/>
</g>
<!-- Node14 -->
<g id="node14" class="node"><title>Node14</title>
<polygon fill="none" stroke="#bfbfbf" points="808.208,-0.5 808.208,-19.5 867.208,-19.5 867.208,-0.5 808.208,-0.5"/>
<text text-anchor="middle" x="837.708" y="-7.5" font-family="Helvetica,sans-Serif" font-size="10.00">stdexcept</text>
</g>
<!-- Node5&#45;&gt;Node14 -->
<g id="edge14" class="edge"><title>Node5&#45;&gt;Node14</title>
<path fill="none" stroke="midnightblue" d="M1038.76,-112.473C1038.37,-98.5899 1035.49,-71.1349 1019.71,-56 999.517,-36.6393 924.389,-22.9904 877.201,-16.1113"/>
<polygon fill="midnightblue" stroke="midnightblue" points="877.69,-12.6457 867.297,-14.7068 876.707,-19.5764 877.69,-12.6457"/>
</g>
<!-- Node15 -->
<g id="node15" class="node"><title>Node15</title>
<polygon fill="none" stroke="#bfbfbf" points="1318.21,-56.5 1318.21,-75.5 1401.21,-75.5 1401.21,-56.5 1318.21,-56.5"/>
<text text-anchor="middle" x="1359.71" y="-63.5" font-family="Helvetica,sans-Serif" font-size="10.00">unordered_map</text>
</g>
<!-- Node5&#45;&gt;Node15 -->
<g id="edge15" class="edge"><title>Node5&#45;&gt;Node15</title>
<path fill="none" stroke="midnightblue" d="M1085.74,-113.389C1137.75,-104.926 1224.32,-90.7131 1308.04,-76.2719"/>
<polygon fill="midnightblue" stroke="midnightblue" points="1308.72,-79.7078 1317.97,-74.5558 1307.52,-72.81 1308.72,-79.7078"/>
</g>
<!-- Node16 -->
<g id="node16" class="node"><title>Node16</title>
<polygon fill="none" stroke="#bfbfbf" points="1419.71,-56.5 1419.71,-75.5 1463.71,-75.5 1463.71,-56.5 1419.71,-56.5"/>
<text text-anchor="middle" x="1441.71" y="-63.5" font-family="Helvetica,sans-Serif" font-size="10.00">vector</text>
</g>
<!-- Node5&#45;&gt;Node16 -->
<g id="edge16" class="edge"><title>Node5&#45;&gt;Node16</title>
<path fill="none" stroke="midnightblue" d="M1085.79,-117.766C1154.9,-112.48 1287.93,-100.262 1409.61,-75.9295"/>
<polygon fill="midnightblue" stroke="midnightblue" points="1410.36,-79.3475 1419.46,-73.9259 1408.97,-72.4877 1410.36,-79.3475"/>
</g>
<!-- Node17 -->
<g id="node17" class="node"><title>Node17</title>
<g id="a_node17"><a xlink:href="bufArray_8hpp.html" target="_top" xlink:title="bufArray.hpp">
<polygon fill="none" stroke="black" points="1482.21,-56.5 1482.21,-75.5 1553.21,-75.5 1553.21,-56.5 1482.21,-56.5"/>
<text text-anchor="middle" x="1517.71" y="-63.5" font-family="Helvetica,sans-Serif" font-size="10.00">bufArray.hpp</text>
</a>
</g>
</g>
<!-- Node5&#45;&gt;Node17 -->
<g id="edge17" class="edge"><title>Node5&#45;&gt;Node17</title>
<path fill="none" stroke="midnightblue" d="M1085.77,-117.579C1163.84,-111.587 1325.19,-97.8537 1471.82,-75.9969"/>
<polygon fill="midnightblue" stroke="midnightblue" points="1472.53,-79.4286 1481.9,-74.4774 1471.49,-72.5068 1472.53,-79.4286"/>
</g>
<!-- Node20 -->
<g id="node20" class="node"><title>Node20</title>
<g id="a_node20"><a xlink:href="exceptions_8hpp.html" target="_top" xlink:title="exceptions.hpp">
<polygon fill="none" stroke="black" points="796.208,-56.5 796.208,-75.5 879.208,-75.5 879.208,-56.5 796.208,-56.5"/>
<text text-anchor="middle" x="837.708" y="-63.5" font-family="Helvetica,sans-Serif" font-size="10.00">exceptions.hpp</text>
</a>
</g>
</g>
<!-- Node5&#45;&gt;Node20 -->
<g id="edge22" class="edge"><title>Node5&#45;&gt;Node20</title>
<path fill="none" stroke="midnightblue" d="M1006.86,-112.444C972.31,-103.162 917.026,-88.3093 879.125,-78.127"/>
<polygon fill="midnightblue" stroke="midnightblue" points="879.974,-74.7309 869.408,-75.5164 878.157,-81.4912 879.974,-74.7309"/>
</g>
<!-- Node22 -->
<g id="node22" class="node"><title>Node22</title>
<g id="a_node22"><a xlink:href="spinlock_8hpp.html" target="_top" xlink:title="spinlock.hpp">
<polygon fill="none" stroke="black" points="1571.21,-56.5 1571.21,-75.5 1642.21,-75.5 1642.21,-56.5 1571.21,-56.5"/>
<text text-anchor="middle" x="1606.71" y="-63.5" font-family="Helvetica,sans-Serif" font-size="10.00">spinlock.hpp</text>
</a>
</g>
</g>
<!-- Node5&#45;&gt;Node22 -->
<g id="edge25" class="edge"><title>Node5&#45;&gt;Node22</title>
<path fill="none" stroke="midnightblue" d="M1085.89,-118.788C1176.29,-114.15 1380.3,-101.763 1560.81,-76.1372"/>
<polygon fill="midnightblue" stroke="midnightblue" points="1561.35,-79.596 1570.75,-74.7093 1560.35,-72.6671 1561.35,-79.596"/>
</g>
<!-- Node17&#45;&gt;Node4 -->
<g id="edge18" class="edge"><title>Node17&#45;&gt;Node4</title>
<path fill="none" stroke="midnightblue" d="M1481.93,-57.3174C1478.82,-56.81 1475.71,-56.3592 1472.71,-56 1079.62,-9.0363 978.159,-38.4038 582.708,-20 534.804,-17.7706 479.374,-14.7773 444.923,-12.868"/>
<polygon fill="midnightblue" stroke="midnightblue" points="445.116,-9.37336 434.937,-12.3123 444.727,-16.3625 445.116,-9.37336"/>
</g>
<!-- Node18 -->
<g id="node18" class="node"><title>Node18</title>
<polygon fill="none" stroke="#bfbfbf" points="1506.21,-0.5 1506.21,-19.5 1553.21,-19.5 1553.21,-0.5 1506.21,-0.5"/>
<text text-anchor="middle" x="1529.71" y="-7.5" font-family="Helvetica,sans-Serif" font-size="10.00">iterator</text>
</g>
<!-- Node17&#45;&gt;Node18 -->
<g id="edge19" class="edge"><title>Node17&#45;&gt;Node18</title>
<path fill="none" stroke="midnightblue" d="M1519.69,-56.083C1521.28,-48.9272 1523.57,-38.6353 1525.55,-29.6911"/>
<polygon fill="midnightblue" stroke="midnightblue" points="1529.01,-30.2722 1527.76,-19.7511 1522.18,-28.7537 1529.01,-30.2722"/>
</g>
<!-- Node19 -->
<g id="node19" class="node"><title>Node19</title>
<polygon fill="none" stroke="#bfbfbf" points="1447.71,-0.5 1447.71,-19.5 1487.71,-19.5 1487.71,-0.5 1447.71,-0.5"/>
<text text-anchor="middle" x="1467.71" y="-7.5" font-family="Helvetica,sans-Serif" font-size="10.00">utility</text>
</g>
<!-- Node17&#45;&gt;Node19 -->
<g id="edge20" class="edge"><title>Node17&#45;&gt;Node19</title>
<path fill="none" stroke="midnightblue" d="M1509.45,-56.083C1502.24,-48.2982 1491.6,-36.8015 1482.86,-27.3665"/>
<polygon fill="midnightblue" stroke="midnightblue" points="1485.17,-24.7108 1475.81,-19.7511 1480.04,-29.4666 1485.17,-24.7108"/>
</g>
<!-- Node20&#45;&gt;Node14 -->
<g id="edge24" class="edge"><title>Node20&#45;&gt;Node14</title>
<path fill="none" stroke="midnightblue" d="M837.708,-56.083C837.708,-49.0059 837.708,-38.8611 837.708,-29.9865"/>
<polygon fill="midnightblue" stroke="midnightblue" points="841.208,-29.751 837.708,-19.7511 834.208,-29.7511 841.208,-29.751"/>
</g>
<!-- Node21 -->
<g id="node21" class="node"><title>Node21</title>
<polygon fill="none" stroke="#bfbfbf" points="592.208,-0.5 592.208,-19.5 651.208,-19.5 651.208,-0.5 592.208,-0.5"/>
<text text-anchor="middle" x="621.708" y="-7.5" font-family="Helvetica,sans-Serif" font-size="10.00">exception</text>
</g>
<!-- Node20&#45;&gt;Node21 -->
<g id="edge23" class="edge"><title>Node20&#45;&gt;Node21</title>
<path fill="none" stroke="midnightblue" d="M803.482,-56.4435C764.771,-46.7657 701.836,-31.0321 661.109,-20.8503"/>
<polygon fill="midnightblue" stroke="midnightblue" points="661.812,-17.4183 651.262,-18.3884 660.114,-24.2093 661.812,-17.4183"/>
</g>
<!-- Node23 -->
<g id="node23" class="node"><title>Node23</title>
<polygon fill="none" stroke="#bfbfbf" points="1583.71,-0.5 1583.71,-19.5 1629.71,-19.5 1629.71,-0.5 1583.71,-0.5"/>
<text text-anchor="middle" x="1606.71" y="-7.5" font-family="Helvetica,sans-Serif" font-size="10.00">atomic</text>
</g>
<!-- Node22&#45;&gt;Node23 -->
<g id="edge26" class="edge"><title>Node22&#45;&gt;Node23</title>
<path fill="none" stroke="midnightblue" d="M1606.71,-56.083C1606.71,-49.0059 1606.71,-38.8611 1606.71,-29.9865"/>
<polygon fill="midnightblue" stroke="midnightblue" points="1610.21,-29.751 1606.71,-19.7511 1603.21,-29.7511 1610.21,-29.751"/>
</g>
<!-- Node24&#45;&gt;Node2 -->
<g id="edge48" class="edge"><title>Node24&#45;&gt;Node2</title>
<path fill="none" stroke="midnightblue" d="M202.839,-187.751C204.365,-194.858 204.812,-205.136 204.18,-214.101"/>
<polygon fill="midnightblue" stroke="midnightblue" points="200.701,-213.713 202.874,-224.083 207.642,-214.622 200.701,-213.713"/>
</g>
<!-- Node25 -->
<g id="node25" class="node"><title>Node25</title>
<polygon fill="none" stroke="#bfbfbf" points="98.208,-56.5 98.208,-75.5 143.208,-75.5 143.208,-56.5 98.208,-56.5"/>
<text text-anchor="middle" x="120.708" y="-63.5" font-family="Helvetica,sans-Serif" font-size="10.00">cstdlib</text>
</g>
<!-- Node24&#45;&gt;Node25 -->
<g id="edge28" class="edge"><title>Node24&#45;&gt;Node25</title>
<path fill="none" stroke="midnightblue" d="M181.644,-168.372C168.529,-160.537 150.465,-147.803 139.708,-132 130.301,-118.181 125.482,-99.6607 123.057,-85.9246"/>
<polygon fill="midnightblue" stroke="midnightblue" points="126.472,-85.0938 121.535,-75.7197 119.549,-86.1268 126.472,-85.0938"/>
</g>
<!-- Node26 -->
<g id="node26" class="node"><title>Node26</title>
<polygon fill="none" stroke="#bfbfbf" points="32.708,-0.5 32.708,-19.5 84.708,-19.5 84.708,-0.5 32.708,-0.5"/>
<text text-anchor="middle" x="58.708" y="-7.5" font-family="Helvetica,sans-Serif" font-size="10.00">sstream</text>
</g>
<!-- Node24&#45;&gt;Node26 -->
<g id="edge29" class="edge"><title>Node24&#45;&gt;Node26</title>
<path fill="none" stroke="midnightblue" d="M136.567,-175.266C100.105,-171.094 55.3007,-160.005 25.708,-132 0.495848,-108.14 -6.57005,-87.6398 7.70799,-56 13.3239,-43.5553 24.2707,-33.1723 34.5872,-25.5273"/>
<polygon fill="midnightblue" stroke="midnightblue" points="36.7144,-28.3123 42.974,-19.7643 32.7501,-22.5431 36.7144,-28.3123"/>
</g>
<!-- Node27 -->
<g id="node27" class="node"><title>Node27</title>
<g id="a_node27"><a xlink:href="IPv4__5TupleL2Ident_8hpp.html" target="_top" xlink:title="IPv4_5TupleL2Ident.hpp">
<polygon fill="none" stroke="black" points="388.708,-112.5 388.708,-131.5 510.708,-131.5 510.708,-112.5 388.708,-112.5"/>
<text text-anchor="middle" x="449.708" y="-119.5" font-family="Helvetica,sans-Serif" font-size="10.00">IPv4_5TupleL2Ident.hpp</text>
</a>
</g>
</g>
<!-- Node24&#45;&gt;Node27 -->
<g id="edge30" class="edge"><title>Node24&#45;&gt;Node27</title>
<path fill="none" stroke="midnightblue" d="M237.638,-168.444C281.599,-159.023 352.335,-143.866 399.891,-133.675"/>
<polygon fill="midnightblue" stroke="midnightblue" points="400.92,-137.034 409.965,-131.516 399.453,-130.189 400.92,-137.034"/>
</g>
<!-- Node29 -->
<g id="node29" class="node"><title>Node29</title>
<g id="a_node29"><a xlink:href="headers_8hpp.html" target="_top" xlink:title="headers.hpp">
<polygon fill="none" stroke="black" points="199.708,-56.5 199.708,-75.5 269.708,-75.5 269.708,-56.5 199.708,-56.5"/>
<text text-anchor="middle" x="234.708" y="-63.5" font-family="Helvetica,sans-Serif" font-size="10.00">headers.hpp</text>
</a>
</g>
</g>
<!-- Node24&#45;&gt;Node29 -->
<g id="edge47" class="edge"><title>Node24&#45;&gt;Node29</title>
<path fill="none" stroke="midnightblue" d="M216.097,-168.471C229.809,-160.997 247.523,-148.71 255.708,-132 263.264,-116.574 255.547,-97.7959 247.421,-84.397"/>
<polygon fill="midnightblue" stroke="midnightblue" points="250.098,-82.1023 241.644,-75.7162 244.271,-85.9804 250.098,-82.1023"/>
</g>
<!-- Node33 -->
<g id="node33" class="node"><title>Node33</title>
<g id="a_node33"><a xlink:href="mbuf_8hpp.html" target="_top" xlink:title="mbuf.hpp">
<polygon fill="none" stroke="black" points="35.208,-112.5 35.208,-131.5 92.208,-131.5 92.208,-112.5 35.208,-112.5"/>
<text text-anchor="middle" x="63.708" y="-119.5" font-family="Helvetica,sans-Serif" font-size="10.00">mbuf.hpp</text>
</a>
</g>
</g>
<!-- Node24&#45;&gt;Node33 -->
<g id="edge49" class="edge"><title>Node24&#45;&gt;Node33</title>
<path fill="none" stroke="midnightblue" d="M176.475,-168.444C154.324,-159.517 119.389,-145.439 94.2719,-135.317"/>
<polygon fill="midnightblue" stroke="midnightblue" points="95.4248,-132.008 84.8413,-131.516 92.8083,-138.501 95.4248,-132.008"/>
</g>
<!-- Node35 -->
<g id="node35" class="node"><title>Node35</title>
<g id="a_node35"><a xlink:href="samplePacket_8hpp.html" target="_top" xlink:title="samplePacket.hpp">
<polygon fill="none" stroke="black" points="148.708,-112.5 148.708,-131.5 246.708,-131.5 246.708,-112.5 148.708,-112.5"/>
<text text-anchor="middle" x="197.708" y="-119.5" font-family="Helvetica,sans-Serif" font-size="10.00">samplePacket.hpp</text>
</a>
</g>
</g>
<!-- Node24&#45;&gt;Node35 -->
<g id="edge52" class="edge"><title>Node24&#45;&gt;Node35</title>
<path fill="none" stroke="midnightblue" d="M197.708,-168.083C197.708,-161.006 197.708,-150.861 197.708,-141.986"/>
<polygon fill="midnightblue" stroke="midnightblue" points="201.208,-141.751 197.708,-131.751 194.208,-141.751 201.208,-141.751"/>
</g>
<!-- Node27&#45;&gt;Node3 -->
<g id="edge38" class="edge"><title>Node27&#45;&gt;Node3</title>
<path fill="none" stroke="midnightblue" d="M466.257,-112.324C482.7,-103.703 508.143,-90.3643 527.176,-80.3855"/>
<polygon fill="midnightblue" stroke="midnightblue" points="528.969,-83.3977 536.2,-75.6545 525.719,-77.198 528.969,-83.3977"/>
</g>
<!-- Node27&#45;&gt;Node4 -->
<g id="edge31" class="edge"><title>Node27&#45;&gt;Node4</title>
<path fill="none" stroke="midnightblue" d="M446.726,-112.368C440.566,-94.5366 426.319,-53.2953 418.02,-29.2717"/>
<polygon fill="midnightblue" stroke="midnightblue" points="421.249,-27.9005 414.676,-19.5914 414.633,-30.1862 421.249,-27.9005"/>
</g>
<!-- Node27&#45;&gt;Node8 -->
<g id="edge33" class="edge"><title>Node27&#45;&gt;Node8</title>
<path fill="none" stroke="midnightblue" d="M493.388,-112.453C535.927,-104.051 602.671,-90.665 669.983,-76.1138"/>
<polygon fill="midnightblue" stroke="midnightblue" points="670.885,-79.4996 679.915,-73.9589 669.401,-72.6588 670.885,-79.4996"/>
</g>
<!-- Node27&#45;&gt;Node9 -->
<g id="edge34" class="edge"><title>Node27&#45;&gt;Node9</title>
<path fill="none" stroke="midnightblue" d="M479.022,-112.444C511.199,-103.051 562.918,-87.9549 597.827,-77.7654"/>
<polygon fill="midnightblue" stroke="midnightblue" points="599.019,-81.0634 607.638,-74.9015 597.058,-74.3438 599.019,-81.0634"/>
</g>
<!-- Node27&#45;&gt;Node14 -->
<g id="edge36" class="edge"><title>Node27&#45;&gt;Node14</title>
<path fill="none" stroke="midnightblue" d="M454.646,-112.042C463.169,-97.5385 482.116,-69.2123 506.708,-56 556.294,-29.3601 721.001,-17.2467 797.73,-12.9472"/>
<polygon fill="midnightblue" stroke="midnightblue" points="798.156,-16.4293 807.951,-12.3916 797.776,-9.43957 798.156,-16.4293"/>
</g>
<!-- Node27&#45;&gt;Node20 -->
<g id="edge46" class="edge"><title>Node27&#45;&gt;Node20</title>
<path fill="none" stroke="midnightblue" d="M510.76,-112.503C586.631,-101.944 714.773,-84.1094 786.016,-74.1943"/>
<polygon fill="midnightblue" stroke="midnightblue" points="786.679,-77.6358 796.101,-72.7907 785.714,-70.7026 786.679,-77.6358"/>
</g>
<!-- Node27&#45;&gt;Node21 -->
<g id="edge32" class="edge"><title>Node27&#45;&gt;Node21</title>
<path fill="none" stroke="midnightblue" d="M450.514,-112.071C452.252,-98.1215 457.606,-71.1865 473.708,-56 503.061,-28.3165 548.936,-17.6275 581.83,-13.5205"/>
<polygon fill="midnightblue" stroke="midnightblue" points="582.456,-16.9729 592.016,-12.4052 581.694,-10.0145 582.456,-16.9729"/>
</g>
<!-- Node27&#45;&gt;Node26 -->
<g id="edge35" class="edge"><title>Node27&#45;&gt;Node26</title>
<path fill="none" stroke="midnightblue" d="M388.511,-115.625C335.206,-109.713 256.385,-97.9791 190.708,-76 172.235,-69.818 169.143,-64.6873 151.708,-56 129.561,-44.9649 104.277,-32.7554 85.6676,-23.8417"/>
<polygon fill="midnightblue" stroke="midnightblue" points="87.1283,-20.6606 76.5968,-19.5045 84.1087,-26.9759 87.1283,-20.6606"/>
</g>
<!-- Node28 -->
<g id="node28" class="node"><title>Node28</title>
<polygon fill="none" stroke="#bfbfbf" points="303.208,-0.5 303.208,-19.5 344.208,-19.5 344.208,-0.5 303.208,-0.5"/>
<text text-anchor="middle" x="323.708" y="-7.5" font-family="Helvetica,sans-Serif" font-size="10.00">string</text>
</g>
<!-- Node27&#45;&gt;Node28 -->
<g id="edge37" class="edge"><title>Node27&#45;&gt;Node28</title>
<path fill="none" stroke="midnightblue" d="M439.821,-112.368C418.567,-93.8137 368.281,-49.9129 341.391,-26.4376"/>
<polygon fill="midnightblue" stroke="midnightblue" points="343.384,-23.5314 333.549,-19.5914 338.78,-28.8046 343.384,-23.5314"/>
</g>
<!-- Node27&#45;&gt;Node29 -->
<g id="edge39" class="edge"><title>Node27&#45;&gt;Node29</title>
<path fill="none" stroke="midnightblue" d="M415.641,-112.444C378.528,-103.122 319.047,-88.1828 278.493,-77.9972"/>
<polygon fill="midnightblue" stroke="midnightblue" points="279.167,-74.5579 268.616,-75.5164 277.462,-81.347 279.167,-74.5579"/>
</g>
<!-- Node29&#45;&gt;Node4 -->
<g id="edge41" class="edge"><title>Node29&#45;&gt;Node4</title>
<path fill="none" stroke="midnightblue" d="M262.754,-56.4435C294.292,-46.8219 345.449,-31.2147 378.837,-21.0283"/>
<polygon fill="midnightblue" stroke="midnightblue" points="380.044,-24.3195 388.587,-18.0537 378.001,-17.6242 380.044,-24.3195"/>
</g>
<!-- Node29&#45;&gt;Node26 -->
<g id="edge43" class="edge"><title>Node29&#45;&gt;Node26</title>
<path fill="none" stroke="midnightblue" d="M206.82,-56.4435C176.427,-47.1184 127.709,-32.1708 94.5111,-21.985"/>
<polygon fill="midnightblue" stroke="midnightblue" points="95.3308,-18.5756 84.744,-18.9883 93.2775,-25.2677 95.3308,-18.5756"/>
</g>
<!-- Node29&#45;&gt;Node28 -->
<g id="edge44" class="edge"><title>Node29&#45;&gt;Node28</title>
<path fill="none" stroke="midnightblue" d="M249.007,-56.324C262.891,-47.9002 284.2,-34.9709 300.512,-25.0741"/>
<polygon fill="midnightblue" stroke="midnightblue" points="302.71,-27.8341 309.444,-19.6545 299.079,-21.8495 302.71,-27.8341"/>
</g>
<!-- Node30 -->
<g id="node30" class="node"><title>Node30</title>
<polygon fill="none" stroke="#bfbfbf" points="182.708,-0.5 182.708,-19.5 220.708,-19.5 220.708,-0.5 182.708,-0.5"/>
<text text-anchor="middle" x="201.708" y="-7.5" font-family="Helvetica,sans-Serif" font-size="10.00">array</text>
</g>
<!-- Node29&#45;&gt;Node30 -->
<g id="edge40" class="edge"><title>Node29&#45;&gt;Node30</title>
<path fill="none" stroke="midnightblue" d="M229.259,-56.083C224.694,-48.6127 218.04,-37.7244 212.415,-28.5199"/>
<polygon fill="midnightblue" stroke="midnightblue" points="215.257,-26.4588 207.056,-19.7511 209.284,-30.109 215.257,-26.4588"/>
</g>
<!-- Node31 -->
<g id="node31" class="node"><title>Node31</title>
<polygon fill="none" stroke="#bfbfbf" points="238.708,-0.5 238.708,-19.5 284.708,-19.5 284.708,-0.5 238.708,-0.5"/>
<text text-anchor="middle" x="261.708" y="-7.5" font-family="Helvetica,sans-Serif" font-size="10.00">cstring</text>
</g>
<!-- Node29&#45;&gt;Node31 -->
<g id="edge42" class="edge"><title>Node29&#45;&gt;Node31</title>
<path fill="none" stroke="midnightblue" d="M239.166,-56.083C242.862,-48.6913 248.231,-37.9533 252.802,-28.8111"/>
<polygon fill="midnightblue" stroke="midnightblue" points="255.991,-30.2606 257.332,-19.7511 249.73,-27.1301 255.991,-30.2606"/>
</g>
<!-- Node32 -->
<g id="node32" class="node"><title>Node32</title>
<polygon fill="none" stroke="#bfbfbf" points="102.708,-0.5 102.708,-19.5 164.708,-19.5 164.708,-0.5 102.708,-0.5"/>
<text text-anchor="middle" x="133.708" y="-7.5" font-family="Helvetica,sans-Serif" font-size="10.00">arpa/inet.h</text>
</g>
<!-- Node29&#45;&gt;Node32 -->
<g id="edge45" class="edge"><title>Node29&#45;&gt;Node32</title>
<path fill="none" stroke="midnightblue" d="M218.481,-56.324C202.357,-47.7034 177.408,-34.3643 158.744,-24.3855"/>
<polygon fill="midnightblue" stroke="midnightblue" points="160.364,-21.283 149.895,-19.6545 157.064,-27.456 160.364,-21.283"/>
</g>
<!-- Node33&#45;&gt;Node4 -->
<g id="edge50" class="edge"><title>Node33&#45;&gt;Node4</title>
<path fill="none" stroke="midnightblue" d="M92.4849,-117.297C134.307,-111.398 213.959,-98.211 278.708,-76 318.762,-62.2601 362.351,-39.281 388.333,-24.6472"/>
<polygon fill="midnightblue" stroke="midnightblue" points="390.116,-27.6597 397.07,-19.666 386.649,-21.5787 390.116,-27.6597"/>
</g>
<!-- Node33&#45;&gt;Node34 -->
<g id="edge51" class="edge"><title>Node33&#45;&gt;Node34</title>
<path fill="none" stroke="midnightblue" d="M61.231,-112.083C59.2215,-104.849 56.3215,-94.4087 53.8182,-85.3968"/>
<polygon fill="midnightblue" stroke="midnightblue" points="57.1877,-84.4495 51.1388,-75.7511 50.443,-86.323 57.1877,-84.4495"/>
</g>
<!-- Node35&#45;&gt;Node4 -->
<g id="edge53" class="edge"><title>Node35&#45;&gt;Node4</title>
<path fill="none" stroke="midnightblue" d="M246.927,-113.18C278.067,-106.654 318.238,-95.2262 349.708,-76 370.206,-63.4767 388.483,-42.492 399.791,-27.7618"/>
<polygon fill="midnightblue" stroke="midnightblue" points="402.749,-29.6489 405.888,-19.53 397.124,-25.4823 402.749,-29.6489"/>
</g>
<!-- Node35&#45;&gt;Node25 -->
<g id="edge54" class="edge"><title>Node35&#45;&gt;Node25</title>
<path fill="none" stroke="midnightblue" d="M185.337,-112.324C173.55,-104.058 155.576,-91.4527 141.572,-81.6322"/>
<polygon fill="midnightblue" stroke="midnightblue" points="143.246,-78.5307 133.049,-75.6545 139.226,-84.2619 143.246,-78.5307"/>
</g>
</g>
</svg>
