<?xml version="1.0" encoding="UTF-8" standalone="no"?>
<!DOCTYPE svg PUBLIC "-//W3C//DTD SVG 1.1//EN"
 "http://www.w3.org/Graphics/SVG/1.1/DTD/svg11.dtd">
<!-- Generated by graphviz version 2.40.1 (20161225.0304)
 -->
<!-- Title: HelloBye3MemPool_Server_init Pages: 1 -->
<svg width="655pt" height="209pt"
 viewBox="0.00 0.00 655.00 208.50" xmlns="http://www.w3.org/2000/svg" xmlns:xlink="http://www.w3.org/1999/xlink">
<g id="graph0" class="graph" transform="scale(1 1) rotate(0) translate(4 204.5)">
<title>HelloBye3MemPool_Server_init</title>
<!-- Node37 -->
<g id="node1" class="node">
<title>Node37</title>
<polygon fill="#bfbfbf" stroke="#000000" points="0,-126.5 0,-145.5 155,-145.5 155,-126.5 0,-126.5"/>
<text text-anchor="middle" x="77.5" y="-133.5" font-family="Helvetica,sans-Serif" font-size="10.00" fill="#000000">HelloBye3MemPool_Server_init</text>
</g>
<!-- Node38 -->
<g id="node2" class="node">
<title>Node38</title>
<g id="a_node2"><a xlink:href="namespaceHelloBye3MemPool_1_1Server.html#ae1c08c11792af9596bb09d8af09766c1" target="_top" xlink:title="HelloBye3MemPool::Server\l::factory">
<polygon fill="none" stroke="#000000" points="191,-170 191,-200 328,-200 328,-170 191,-170"/>
<text text-anchor="start" x="199" y="-188" font-family="Helvetica,sans-Serif" font-size="10.00" fill="#000000">HelloBye3MemPool::Server</text>
<text text-anchor="middle" x="259.5" y="-177" font-family="Helvetica,sans-Serif" font-size="10.00" fill="#000000">::factory</text>
</a>
</g>
</g>
<!-- Node37&#45;&gt;Node38 -->
<g id="edge1" class="edge">
<title>Node37&#45;&gt;Node38</title>
<path fill="none" stroke="#191970" d="M113.0235,-145.564C135.9647,-151.7405 166.5125,-159.9649 193.7737,-167.3045"/>
<polygon fill="#191970" stroke="#191970" points="193.0823,-170.7429 203.6484,-169.963 194.9022,-163.9836 193.0823,-170.7429"/>
</g>
<!-- Node39 -->
<g id="node3" class="node">
<title>Node39</title>
<g id="a_node3"><a xlink:href="namespaceHelloBye3MemPool_1_1Server.html#a773234b5f859d1c7c1d57638e18c6b7a" target="_top" xlink:title="HelloBye3MemPool::Server\l::runHello">
<polygon fill="none" stroke="#000000" points="191,-121 191,-151 328,-151 328,-121 191,-121"/>
<text text-anchor="start" x="199" y="-139" font-family="Helvetica,sans-Serif" font-size="10.00" fill="#000000">HelloBye3MemPool::Server</text>
<text text-anchor="middle" x="259.5" y="-128" font-family="Helvetica,sans-Serif" font-size="10.00" fill="#000000">::runHello</text>
</a>
</g>
</g>
<!-- Node37&#45;&gt;Node39 -->
<g id="edge2" class="edge">
<title>Node37&#45;&gt;Node39</title>
<path fill="none" stroke="#191970" d="M155.2123,-136C163.6609,-136 172.2656,-136 180.7267,-136"/>
<polygon fill="#191970" stroke="#191970" points="180.956,-139.5001 190.956,-136 180.9559,-132.5001 180.956,-139.5001"/>
</g>
<!-- Node45 -->
<g id="node9" class="node">
<title>Node45</title>
<g id="a_node9"><a xlink:href="namespaceHelloBye3MemPool_1_1Server.html#a7e73587f0361d19321dc7e47fee02ea6" target="_top" xlink:title="HelloBye3MemPool::Server\l::runBye">
<polygon fill="none" stroke="#000000" points="191,-72 191,-102 328,-102 328,-72 191,-72"/>
<text text-anchor="start" x="199" y="-90" font-family="Helvetica,sans-Serif" font-size="10.00" fill="#000000">HelloBye3MemPool::Server</text>
<text text-anchor="middle" x="259.5" y="-79" font-family="Helvetica,sans-Serif" font-size="10.00" fill="#000000">::runBye</text>
</a>
</g>
</g>
<!-- Node37&#45;&gt;Node45 -->
<g id="edge8" class="edge">
<title>Node37&#45;&gt;Node45</title>
<path fill="none" stroke="#191970" d="M113.0235,-126.436C135.9647,-120.2595 166.5125,-112.0351 193.7737,-104.6955"/>
<polygon fill="#191970" stroke="#191970" points="194.9022,-108.0164 203.6484,-102.037 193.0823,-101.2571 194.9022,-108.0164"/>
</g>
<!-- Node40 -->
<g id="node4" class="node">
<title>Node40</title>
<g id="a_node4"><a xlink:href="structmbuf.html#a822d13c96f003279f7691d7778e75c3c" target="_top" xlink:title="mbuf::getData">
<polygon fill="none" stroke="#000000" points="400.5,-126.5 400.5,-145.5 479.5,-145.5 479.5,-126.5 400.5,-126.5"/>
<text text-anchor="middle" x="440" y="-133.5" font-family="Helvetica,sans-Serif" font-size="10.00" fill="#000000">mbuf::getData</text>
</a>
</g>
</g>
<!-- Node39&#45;&gt;Node40 -->
<g id="edge3" class="edge">
<title>Node39&#45;&gt;Node40</title>
<path fill="none" stroke="#191970" d="M328.2542,-136C348.9444,-136 371.235,-136 390.4236,-136"/>
<polygon fill="#191970" stroke="#191970" points="390.4417,-139.5001 400.4417,-136 390.4417,-132.5001 390.4417,-139.5001"/>
</g>
<!-- Node41 -->
<g id="node5" class="node">
<title>Node41</title>
<g id="a_node5"><a xlink:href="structHeaders_1_1Ethernet.html#ad59e9fe1ec95b8e2ed11f97b44a20650" target="_top" xlink:title="Get the SDU. ">
<polygon fill="none" stroke="#000000" points="389,-77 389,-107 491,-107 491,-77 389,-77"/>
<text text-anchor="start" x="397" y="-95" font-family="Helvetica,sans-Serif" font-size="10.00" fill="#000000">Headers::Ethernet::</text>
<text text-anchor="middle" x="440" y="-84" font-family="Helvetica,sans-Serif" font-size="10.00" fill="#000000">getPayload</text>
</a>
</g>
</g>
<!-- Node39&#45;&gt;Node41 -->
<g id="edge4" class="edge">
<title>Node39&#45;&gt;Node41</title>
<path fill="none" stroke="#191970" d="M321.113,-120.9808C339.812,-116.4226 360.3407,-111.4183 378.9992,-106.87"/>
<polygon fill="#191970" stroke="#191970" points="379.9701,-110.2359 388.8567,-104.4671 378.3122,-103.435 379.9701,-110.2359"/>
</g>
<!-- Node42 -->
<g id="node6" class="node">
<title>Node42</title>
<g id="a_node6"><a xlink:href="structHeaders_1_1IPv4.html#acc4a8033c5da9c2ce147ee10e15d2a49" target="_top" xlink:title="Get the SDU. ">
<polygon fill="none" stroke="#000000" points="373,-38.5 373,-57.5 507,-57.5 507,-38.5 373,-38.5"/>
<text text-anchor="middle" x="440" y="-45.5" font-family="Helvetica,sans-Serif" font-size="10.00" fill="#000000">Headers::IPv4::getPayload</text>
</a>
</g>
</g>
<!-- Node39&#45;&gt;Node42 -->
<g id="edge5" class="edge">
<title>Node39&#45;&gt;Node42</title>
<path fill="none" stroke="#191970" d="M312.2214,-120.924C317.7705,-118.357 323.1491,-115.3978 328,-112 348.6951,-97.504 342.744,-81.6603 364,-68 368.0208,-65.416 372.3643,-63.1647 376.867,-61.2034"/>
<polygon fill="#191970" stroke="#191970" points="378.2106,-64.4365 386.2802,-57.5712 375.6907,-57.9058 378.2106,-64.4365"/>
</g>
<!-- Node44 -->
<g id="node8" class="node">
<title>Node44</title>
<g id="a_node8"><a xlink:href="structHeaders_1_1Udp.html#a531f2e8247abf7807c50d806208b7cb1" target="_top" xlink:title="Get the SDU. ">
<polygon fill="none" stroke="#000000" points="374,-164.5 374,-183.5 506,-183.5 506,-164.5 374,-164.5"/>
<text text-anchor="middle" x="440" y="-171.5" font-family="Helvetica,sans-Serif" font-size="10.00" fill="#000000">Headers::Udp::getPayload</text>
</a>
</g>
</g>
<!-- Node39&#45;&gt;Node44 -->
<g id="edge7" class="edge">
<title>Node39&#45;&gt;Node44</title>
<path fill="none" stroke="#191970" d="M328.2542,-150.4746C346.8262,-154.3845 366.6876,-158.5658 384.4376,-162.3026"/>
<polygon fill="#191970" stroke="#191970" points="384.1122,-165.8108 394.6188,-164.4461 385.5544,-158.961 384.1122,-165.8108"/>
</g>
<!-- Node43 -->
<g id="node7" class="node">
<title>Node43</title>
<g id="a_node7"><a xlink:href="structHeaders_1_1IPv4.html#ac6c5485ffca9cffaded18d2ad8d5985a" target="_top" xlink:title="Headers::IPv4::ihl">
<polygon fill="none" stroke="#000000" points="552,-38.5 552,-57.5 647,-57.5 647,-38.5 552,-38.5"/>
<text text-anchor="middle" x="599.5" y="-45.5" font-family="Helvetica,sans-Serif" font-size="10.00" fill="#000000">Headers::IPv4::ihl</text>
</a>
</g>
</g>
<!-- Node42&#45;&gt;Node43 -->
<g id="edge6" class="edge">
<title>Node42&#45;&gt;Node43</title>
<path fill="none" stroke="#191970" d="M507.1801,-48C518.6523,-48 530.4805,-48 541.6827,-48"/>
<polygon fill="#191970" stroke="#191970" points="541.7663,-51.5001 551.7663,-48 541.7663,-44.5001 541.7663,-51.5001"/>
</g>
<!-- Node45&#45;&gt;Node40 -->
<g id="edge9" class="edge">
<title>Node45&#45;&gt;Node40</title>
<path fill="none" stroke="#191970" d="M310.4271,-102.0022C327.429,-106.9086 346.4995,-112.3019 364,-117 372.6848,-119.3315 381.953,-121.726 390.924,-123.9955"/>
<polygon fill="#191970" stroke="#191970" points="390.3279,-127.4544 400.8792,-126.4947 392.0324,-120.6651 390.3279,-127.4544"/>
</g>
<!-- Node45&#45;&gt;Node41 -->
<g id="edge10" class="edge">
<title>Node45&#45;&gt;Node41</title>
<path fill="none" stroke="#191970" d="M328.2542,-88.9045C344.7628,-89.3619 362.2902,-89.8474 378.4479,-90.295"/>
<polygon fill="#191970" stroke="#191970" points="378.7504,-93.8046 388.8435,-90.5829 378.9443,-86.8073 378.7504,-93.8046"/>
</g>
<!-- Node45&#45;&gt;Node42 -->
<g id="edge11" class="edge">
<title>Node45&#45;&gt;Node42</title>
<path fill="none" stroke="#191970" d="M328.2542,-72.1445C347.42,-68.0034 367.9591,-63.5656 386.1338,-59.6387"/>
<polygon fill="#191970" stroke="#191970" points="386.9285,-63.0478 395.9638,-57.5147 385.4501,-56.2057 386.9285,-63.0478"/>
</g>
<!-- Node45&#45;&gt;Node44 -->
<g id="edge12" class="edge">
<title>Node45&#45;&gt;Node44</title>
<path fill="none" stroke="#191970" d="M310.4036,-102.1212C316.5854,-104.9422 322.6113,-108.2188 328,-112 348.4028,-126.3164 342.8743,-141.7736 364,-155 367.4042,-157.1313 371.0344,-159.0238 374.7931,-160.7041"/>
<polygon fill="#191970" stroke="#191970" points="373.7582,-164.0579 384.3454,-164.4592 376.3192,-157.5432 373.7582,-164.0579"/>
</g>
<!-- Node46 -->
<g id="node10" class="node">
<title>Node46</title>
<g id="a_node10"><a xlink:href="structHelloBye3MemPool_1_1msg.html#a3905a1abfd86b97b0c857e6caae5424d" target="_top" xlink:title="HelloBye3MemPool::msg::msg">
<polygon fill="none" stroke="#000000" points="364,-.5 364,-19.5 516,-19.5 516,-.5 364,-.5"/>
<text text-anchor="middle" x="440" y="-7.5" font-family="Helvetica,sans-Serif" font-size="10.00" fill="#000000">HelloBye3MemPool::msg::msg</text>
</a>
</g>
</g>
<!-- Node45&#45;&gt;Node46 -->
<g id="edge13" class="edge">
<title>Node45&#45;&gt;Node46</title>
<path fill="none" stroke="#191970" d="M282.7013,-71.7924C303.3227,-58.8531 334.6623,-40.5764 364,-29 370.29,-26.518 377.0035,-24.2834 383.7386,-22.2938"/>
<polygon fill="#191970" stroke="#191970" points="384.8812,-25.6088 393.5752,-19.5537 383.0027,-18.8656 384.8812,-25.6088"/>
</g>
</g>
</svg>
