<?xml version="1.0" encoding="UTF-8" standalone="no"?>
<!DOCTYPE svg PUBLIC "-//W3C//DTD SVG 1.1//EN"
 "http://www.w3.org/Graphics/SVG/1.1/DTD/svg11.dtd">
<!-- Generated by graphviz version 2.40.1 (20161225.0304)
 -->
<!-- Title: HelloByeClient_getPkts Pages: 1 -->
<svg width="594pt" height="66pt"
 viewBox="0.00 0.00 594.00 66.00" xmlns="http://www.w3.org/2000/svg" xmlns:xlink="http://www.w3.org/1999/xlink">
<g id="graph0" class="graph" transform="scale(1 1) rotate(0) translate(4 62)">
<title>HelloByeClient_getPkts</title>
<!-- Node10 -->
<g id="node1" class="node">
<title>Node10</title>
<polygon fill="#bfbfbf" stroke="#000000" points="0,-19.5 0,-38.5 121,-38.5 121,-19.5 0,-19.5"/>
<text text-anchor="middle" x="60.5" y="-26.5" font-family="Helvetica,sans-Serif" font-size="10.00" fill="#000000">HelloByeClient_getPkts</text>
</g>
<!-- Node11 -->
<g id="node2" class="node">
<title>Node11</title>
<g id="a_node2"><a xlink:href="classBufArray.html#a65ec6fb832e58b88b2be695c4d30a437" target="_top" xlink:title="Get all the packets which are to be sent. ">
<polygon fill="none" stroke="#000000" points="308.5,-38.5 308.5,-57.5 425.5,-57.5 425.5,-38.5 308.5,-38.5"/>
<text text-anchor="middle" x="367" y="-45.5" font-family="Helvetica,sans-Serif" font-size="10.00" fill="#000000">BufArray::getSendBufs</text>
</a>
</g>
</g>
<!-- Node10&#45;&gt;Node11 -->
<g id="edge1" class="edge">
<title>Node10&#45;&gt;Node11</title>
<path fill="none" stroke="#191970" d="M121.0545,-32.7538C172.1084,-35.9186 245.1476,-40.4463 298.3617,-43.7451"/>
<polygon fill="#191970" stroke="#191970" points="298.1948,-47.2414 308.3923,-44.3669 298.628,-40.2548 298.1948,-47.2414"/>
</g>
<!-- Node13 -->
<g id="node4" class="node">
<title>Node13</title>
<g id="a_node4"><a xlink:href="classBufArray.html#a81ad0c7cdb324569ecfb42e735e653c9" target="_top" xlink:title="Get all the packets which are to be freed. ">
<polygon fill="none" stroke="#000000" points="157,-.5 157,-19.5 271,-19.5 271,-.5 157,-.5"/>
<text text-anchor="middle" x="214" y="-7.5" font-family="Helvetica,sans-Serif" font-size="10.00" fill="#000000">BufArray::getFreeBufs</text>
</a>
</g>
</g>
<!-- Node10&#45;&gt;Node13 -->
<g id="edge3" class="edge">
<title>Node10&#45;&gt;Node13</title>
<path fill="none" stroke="#191970" d="M121.1673,-21.4907C129.5997,-20.4469 138.3033,-19.3696 146.8458,-18.3122"/>
<polygon fill="#191970" stroke="#191970" points="147.2798,-21.7853 156.7741,-17.0833 146.4198,-14.8383 147.2798,-21.7853"/>
</g>
<!-- Node12 -->
<g id="node3" class="node">
<title>Node12</title>
<g id="a_node3"><a xlink:href="classBufArray.html#a1d52cd9f63feaa98f800bcae8277e675" target="_top" xlink:title="Get the number of packets currently marked as send. ">
<polygon fill="none" stroke="#000000" points="463,-19.5 463,-38.5 586,-38.5 586,-19.5 463,-19.5"/>
<text text-anchor="middle" x="524.5" y="-26.5" font-family="Helvetica,sans-Serif" font-size="10.00" fill="#000000">BufArray::getSendCount</text>
</a>
</g>
</g>
<!-- Node11&#45;&gt;Node12 -->
<g id="edge2" class="edge">
<title>Node11&#45;&gt;Node12</title>
<path fill="none" stroke="#191970" d="M425.6472,-40.9251C434.48,-39.8596 443.6743,-38.7504 452.744,-37.6563"/>
<polygon fill="#191970" stroke="#191970" points="453.3962,-41.1031 462.905,-36.4305 452.5578,-34.1535 453.3962,-41.1031"/>
</g>
<!-- Node14 -->
<g id="node5" class="node">
<title>Node14</title>
<g id="a_node5"><a xlink:href="classBufArray.html#a77223130b4dca30992a335dbff4b4781" target="_top" xlink:title="Get the number of packets currently marked as free. ">
<polygon fill="none" stroke="#000000" points="307,-.5 307,-19.5 427,-19.5 427,-.5 307,-.5"/>
<text text-anchor="middle" x="367" y="-7.5" font-family="Helvetica,sans-Serif" font-size="10.00" fill="#000000">BufArray::getFreeCount</text>
</a>
</g>
</g>
<!-- Node13&#45;&gt;Node14 -->
<g id="edge4" class="edge">
<title>Node13&#45;&gt;Node14</title>
<path fill="none" stroke="#191970" d="M271.4069,-10C279.6656,-10 288.2416,-10 296.7151,-10"/>
<polygon fill="#191970" stroke="#191970" points="296.9721,-13.5001 306.972,-10 296.972,-6.5001 296.9721,-13.5001"/>
</g>
<!-- Node14&#45;&gt;Node12 -->
<g id="edge5" class="edge">
<title>Node14&#45;&gt;Node12</title>
<path fill="none" stroke="#191970" d="M427.4432,-17.2916C435.7983,-18.2995 444.4444,-19.3425 452.9764,-20.3718"/>
<polygon fill="#191970" stroke="#191970" points="452.5684,-23.8478 462.9156,-21.5708 453.4068,-16.8982 452.5684,-23.8478"/>
</g>
</g>
</svg>
