<?xml version="1.0" encoding="UTF-8" standalone="no"?>
<!DOCTYPE svg PUBLIC "-//W3C//DTD SVG 1.1//EN"
 "http://www.w3.org/Graphics/SVG/1.1/DTD/svg11.dtd">
<!-- Generated by graphviz version 2.38.0 (20140413.2041)
 -->
<!-- Title: /home/dominik/uni/MoonState/include/helloByeProto.hpp Pages: 1 -->
<svg width="1599pt" height="263pt"
 viewBox="0.00 0.00 1599.10 263.00" xmlns="http://www.w3.org/2000/svg" xmlns:xlink="http://www.w3.org/1999/xlink">
<g id="graph0" class="graph" transform="scale(1 1) rotate(0) translate(4 259)">
<title>/home/dominik/uni/MoonState/include/helloByeProto.hpp</title>
<!-- Node1 -->
<g id="node1" class="node"><title>Node1</title>
<polygon fill="#bfbfbf" stroke="black" points="963.5,-224.5 963.5,-254.5 1110.5,-254.5 1110.5,-224.5 963.5,-224.5"/>
<text text-anchor="start" x="971.5" y="-242.5" font-family="Helvetica,sans-Serif" font-size="10.00">/home/dominik/uni/MoonState</text>
<text text-anchor="middle" x="1037" y="-231.5" font-family="Helvetica,sans-Serif" font-size="10.00">/include/helloByeProto.hpp</text>
</g>
<!-- Node2 -->
<g id="node2" class="node"><title>Node2</title>
<polygon fill="none" stroke="#bfbfbf" points="0,-56.5 0,-75.5 44,-75.5 44,-56.5 0,-56.5"/>
<text text-anchor="middle" x="22" y="-63.5" font-family="Helvetica,sans-Serif" font-size="10.00">mutex</text>
</g>
<!-- Node1&#45;&gt;Node2 -->
<g id="edge1" class="edge"><title>Node1&#45;&gt;Node2</title>
<path fill="none" stroke="midnightblue" d="M963.282,-229.377C800.335,-208.554 397.424,-153.446 54.1513,-76.0468"/>
<polygon fill="midnightblue" stroke="midnightblue" points="54.7946,-72.6039 44.2685,-73.8085 53.2483,-79.431 54.7946,-72.6039"/>
</g>
<!-- Node3 -->
<g id="node3" class="node"><title>Node3</title>
<g id="a_node3"><a xlink:href="common_8hpp.html" target="_top" xlink:title="common.hpp">
<polygon fill="none" stroke="black" points="1000.5,-56.5 1000.5,-75.5 1073.5,-75.5 1073.5,-56.5 1000.5,-56.5"/>
<text text-anchor="middle" x="1037" y="-63.5" font-family="Helvetica,sans-Serif" font-size="10.00">common.hpp</text>
</a>
</g>
</g>
<!-- Node1&#45;&gt;Node3 -->
<g id="edge2" class="edge"><title>Node1&#45;&gt;Node3</title>
<path fill="none" stroke="midnightblue" d="M1037,-224.465C1037,-193.704 1037,-120.329 1037,-85.7003"/>
<polygon fill="midnightblue" stroke="midnightblue" points="1040.5,-85.5597 1037,-75.5597 1033.5,-85.5597 1040.5,-85.5597"/>
</g>
<!-- Node5 -->
<g id="node5" class="node"><title>Node5</title>
<g id="a_node5"><a xlink:href="stateMachine_8hpp.html" target="_top" xlink:title="stateMachine.hpp">
<polygon fill="none" stroke="black" points="507,-112.5 507,-131.5 601,-131.5 601,-112.5 507,-112.5"/>
<text text-anchor="middle" x="554" y="-119.5" font-family="Helvetica,sans-Serif" font-size="10.00">stateMachine.hpp</text>
</a>
</g>
</g>
<!-- Node1&#45;&gt;Node5 -->
<g id="edge4" class="edge"><title>Node1&#45;&gt;Node5</title>
<path fill="none" stroke="midnightblue" d="M978.258,-224.453C880.799,-201.148 687.714,-154.975 599.673,-133.922"/>
<polygon fill="midnightblue" stroke="midnightblue" points="600.262,-130.464 589.722,-131.542 598.634,-137.272 600.262,-130.464"/>
</g>
<!-- Node22 -->
<g id="node22" class="node"><title>Node22</title>
<g id="a_node22"><a xlink:href="helloByeProto_8cpp.html" target="_top" xlink:title="../src/helloByeProto.cpp">
<polygon fill="none" stroke="black" points="1227,-168.5 1227,-187.5 1349,-187.5 1349,-168.5 1227,-168.5"/>
<text text-anchor="middle" x="1288" y="-175.5" font-family="Helvetica,sans-Serif" font-size="10.00">../src/helloByeProto.cpp</text>
</a>
</g>
</g>
<!-- Node1&#45;&gt;Node22 -->
<g id="edge29" class="edge"><title>Node1&#45;&gt;Node22</title>
<path fill="none" stroke="midnightblue" d="M1090.34,-224.475C1133.78,-213.851 1194.59,-199.473 1237.31,-189.751"/>
<polygon fill="midnightblue" stroke="midnightblue" points="1238.24,-193.129 1247.22,-187.506 1236.69,-186.302 1238.24,-193.129"/>
</g>
<!-- Node4 -->
<g id="node4" class="node"><title>Node4</title>
<polygon fill="none" stroke="#bfbfbf" points="1131,-0.5 1131,-19.5 1177,-19.5 1177,-0.5 1131,-0.5"/>
<text text-anchor="middle" x="1154" y="-7.5" font-family="Helvetica,sans-Serif" font-size="10.00">cstdint</text>
</g>
<!-- Node3&#45;&gt;Node4 -->
<g id="edge3" class="edge"><title>Node3&#45;&gt;Node4</title>
<path fill="none" stroke="midnightblue" d="M1055.54,-56.4435C1074.62,-47.6356 1104.57,-33.8116 1126.44,-23.722"/>
<polygon fill="midnightblue" stroke="midnightblue" points="1127.93,-26.8849 1135.55,-19.5164 1125,-20.5292 1127.93,-26.8849"/>
</g>
<!-- Node5&#45;&gt;Node2 -->
<g id="edge12" class="edge"><title>Node5&#45;&gt;Node2</title>
<path fill="none" stroke="midnightblue" d="M506.963,-119.796C419.42,-116.903 225.559,-107.429 54.1811,-75.8727"/>
<polygon fill="midnightblue" stroke="midnightblue" points="54.6999,-72.4091 44.2267,-74.0098 53.4122,-79.2897 54.6999,-72.4091"/>
</g>
<!-- Node5&#45;&gt;Node3 -->
<g id="edge23" class="edge"><title>Node5&#45;&gt;Node3</title>
<path fill="none" stroke="midnightblue" d="M601.061,-117.561C679.527,-111.519 842.224,-97.6868 990.217,-75.9812"/>
<polygon fill="midnightblue" stroke="midnightblue" points="991.015,-79.4012 1000.39,-74.4726 989.988,-72.4769 991.015,-79.4012"/>
</g>
<!-- Node5&#45;&gt;Node4 -->
<g id="edge7" class="edge"><title>Node5&#45;&gt;Node4</title>
<path fill="none" stroke="midnightblue" d="M601.196,-116.613C651.872,-110.947 734.238,-98.9586 802,-76 820.449,-69.7491 822.439,-61.9113 841,-56 939.49,-24.633 1062.41,-15.0638 1120.56,-12.196"/>
<polygon fill="midnightblue" stroke="midnightblue" points="1120.81,-15.6882 1130.64,-11.7347 1120.49,-8.6955 1120.81,-15.6882"/>
</g>
<!-- Node6 -->
<g id="node6" class="node"><title>Node6</title>
<polygon fill="none" stroke="#bfbfbf" points="491.5,-0.5 491.5,-19.5 540.5,-19.5 540.5,-0.5 491.5,-0.5"/>
<text text-anchor="middle" x="516" y="-7.5" font-family="Helvetica,sans-Serif" font-size="10.00">cassert</text>
</g>
<!-- Node5&#45;&gt;Node6 -->
<g id="edge5" class="edge"><title>Node5&#45;&gt;Node6</title>
<path fill="none" stroke="midnightblue" d="M551.018,-112.368C544.858,-94.5366 530.611,-53.2953 522.312,-29.2717"/>
<polygon fill="midnightblue" stroke="midnightblue" points="525.541,-27.9005 518.968,-19.5914 518.925,-30.1862 525.541,-27.9005"/>
</g>
<!-- Node7 -->
<g id="node7" class="node"><title>Node7</title>
<polygon fill="none" stroke="#bfbfbf" points="62,-56.5 62,-75.5 108,-75.5 108,-56.5 62,-56.5"/>
<text text-anchor="middle" x="85" y="-63.5" font-family="Helvetica,sans-Serif" font-size="10.00">chrono</text>
</g>
<!-- Node5&#45;&gt;Node7 -->
<g id="edge6" class="edge"><title>Node5&#45;&gt;Node7</title>
<path fill="none" stroke="midnightblue" d="M506.73,-118.794C427.96,-114.539 264.828,-103.268 118.376,-75.9621"/>
<polygon fill="midnightblue" stroke="midnightblue" points="118.785,-72.4774 108.309,-74.0544 117.482,-79.3551 118.785,-72.4774"/>
</g>
<!-- Node8 -->
<g id="node8" class="node"><title>Node8</title>
<polygon fill="none" stroke="#bfbfbf" points="850.5,-56.5 850.5,-75.5 909.5,-75.5 909.5,-56.5 850.5,-56.5"/>
<text text-anchor="middle" x="880" y="-63.5" font-family="Helvetica,sans-Serif" font-size="10.00">functional</text>
</g>
<!-- Node5&#45;&gt;Node8 -->
<g id="edge8" class="edge"><title>Node5&#45;&gt;Node8</title>
<path fill="none" stroke="midnightblue" d="M601.009,-114.138C657.074,-105.807 753.567,-91.0004 836,-76 837.438,-75.7383 838.902,-75.4666 840.38,-75.1878"/>
<polygon fill="midnightblue" stroke="midnightblue" points="841.064,-78.6204 850.212,-73.2757 839.728,-71.7491 841.064,-78.6204"/>
</g>
<!-- Node9 -->
<g id="node9" class="node"><title>Node9</title>
<polygon fill="none" stroke="#bfbfbf" points="928,-56.5 928,-75.5 982,-75.5 982,-56.5 928,-56.5"/>
<text text-anchor="middle" x="955" y="-63.5" font-family="Helvetica,sans-Serif" font-size="10.00">iostream</text>
</g>
<!-- Node5&#45;&gt;Node9 -->
<g id="edge9" class="edge"><title>Node5&#45;&gt;Node9</title>
<path fill="none" stroke="midnightblue" d="M601.094,-116.933C670.727,-110.523 805.096,-96.6391 918,-76 918.102,-75.9814 918.203,-75.9627 918.305,-75.944"/>
<polygon fill="midnightblue" stroke="midnightblue" points="918.91,-79.393 927.999,-73.9495 917.499,-72.5366 918.91,-79.393"/>
</g>
<!-- Node10 -->
<g id="node10" class="node"><title>Node10</title>
<polygon fill="none" stroke="#bfbfbf" points="126,-56.5 126,-75.5 166,-75.5 166,-56.5 126,-56.5"/>
<text text-anchor="middle" x="146" y="-63.5" font-family="Helvetica,sans-Serif" font-size="10.00">limits</text>
</g>
<!-- Node5&#45;&gt;Node10 -->
<g id="edge10" class="edge"><title>Node5&#45;&gt;Node10</title>
<path fill="none" stroke="midnightblue" d="M506.872,-118.182C436.654,-113.377 300.386,-101.722 176.217,-75.9011"/>
<polygon fill="midnightblue" stroke="midnightblue" points="176.665,-72.4185 166.157,-73.772 175.215,-79.2668 176.665,-72.4185"/>
</g>
<!-- Node11 -->
<g id="node11" class="node"><title>Node11</title>
<polygon fill="none" stroke="#bfbfbf" points="184,-56.5 184,-75.5 236,-75.5 236,-56.5 184,-56.5"/>
<text text-anchor="middle" x="210" y="-63.5" font-family="Helvetica,sans-Serif" font-size="10.00">memory</text>
</g>
<!-- Node5&#45;&gt;Node11 -->
<g id="edge11" class="edge"><title>Node5&#45;&gt;Node11</title>
<path fill="none" stroke="midnightblue" d="M506.879,-115.73C448.073,-108.801 344.267,-95.4162 246.367,-76.0972"/>
<polygon fill="midnightblue" stroke="midnightblue" points="246.796,-72.6136 236.304,-74.0857 245.424,-79.4779 246.796,-72.6136"/>
</g>
<!-- Node12 -->
<g id="node12" class="node"><title>Node12</title>
<polygon fill="none" stroke="#bfbfbf" points="254.5,-56.5 254.5,-75.5 297.5,-75.5 297.5,-56.5 254.5,-56.5"/>
<text text-anchor="middle" x="276" y="-63.5" font-family="Helvetica,sans-Serif" font-size="10.00">queue</text>
</g>
<!-- Node5&#45;&gt;Node12 -->
<g id="edge13" class="edge"><title>Node5&#45;&gt;Node12</title>
<path fill="none" stroke="midnightblue" d="M506.59,-114.016C458.59,-106.584 382.074,-93.753 307.572,-76.1762"/>
<polygon fill="midnightblue" stroke="midnightblue" points="308.091,-72.7019 297.552,-73.7801 306.463,-79.51 308.091,-72.7019"/>
</g>
<!-- Node13 -->
<g id="node13" class="node"><title>Node13</title>
<polygon fill="none" stroke="#bfbfbf" points="700.5,-0.5 700.5,-19.5 759.5,-19.5 759.5,-0.5 700.5,-0.5"/>
<text text-anchor="middle" x="730" y="-7.5" font-family="Helvetica,sans-Serif" font-size="10.00">stdexcept</text>
</g>
<!-- Node5&#45;&gt;Node13 -->
<g id="edge14" class="edge"><title>Node5&#45;&gt;Node13</title>
<path fill="none" stroke="midnightblue" d="M582.471,-112.357C605.104,-104.747 637.004,-92.3341 662,-76 683.028,-62.2586 703.335,-41.5649 716.197,-27.2338"/>
<polygon fill="midnightblue" stroke="midnightblue" points="718.9,-29.4595 722.858,-19.6318 713.635,-24.8461 718.9,-29.4595"/>
</g>
<!-- Node14 -->
<g id="node14" class="node"><title>Node14</title>
<polygon fill="none" stroke="#bfbfbf" points="404.5,-56.5 404.5,-75.5 487.5,-75.5 487.5,-56.5 404.5,-56.5"/>
<text text-anchor="middle" x="446" y="-63.5" font-family="Helvetica,sans-Serif" font-size="10.00">unordered_map</text>
</g>
<!-- Node5&#45;&gt;Node14 -->
<g id="edge15" class="edge"><title>Node5&#45;&gt;Node14</title>
<path fill="none" stroke="midnightblue" d="M536.648,-112.324C519.328,-103.664 492.485,-90.2424 472.498,-80.249"/>
<polygon fill="midnightblue" stroke="midnightblue" points="473.819,-76.9962 463.309,-75.6545 470.688,-83.2572 473.819,-76.9962"/>
</g>
<!-- Node15 -->
<g id="node15" class="node"><title>Node15</title>
<polygon fill="none" stroke="#bfbfbf" points="559,-0.5 559,-19.5 603,-19.5 603,-0.5 559,-0.5"/>
<text text-anchor="middle" x="581" y="-7.5" font-family="Helvetica,sans-Serif" font-size="10.00">vector</text>
</g>
<!-- Node5&#45;&gt;Node15 -->
<g id="edge16" class="edge"><title>Node5&#45;&gt;Node15</title>
<path fill="none" stroke="midnightblue" d="M556.119,-112.368C560.476,-94.617 570.527,-53.6664 576.435,-29.5974"/>
<polygon fill="midnightblue" stroke="midnightblue" points="579.906,-30.1375 578.891,-19.5914 573.108,-28.4688 579.906,-30.1375"/>
</g>
<!-- Node16 -->
<g id="node16" class="node"><title>Node16</title>
<g id="a_node16"><a xlink:href="bufArray_8hpp.html" target="_top" xlink:title="bufArray.hpp">
<polygon fill="none" stroke="black" points="582.5,-56.5 582.5,-75.5 653.5,-75.5 653.5,-56.5 582.5,-56.5"/>
<text text-anchor="middle" x="618" y="-63.5" font-family="Helvetica,sans-Serif" font-size="10.00">bufArray.hpp</text>
</a>
</g>
</g>
<!-- Node5&#45;&gt;Node16 -->
<g id="edge17" class="edge"><title>Node5&#45;&gt;Node16</title>
<path fill="none" stroke="midnightblue" d="M564.283,-112.324C573.836,-104.263 588.28,-92.0765 599.784,-82.3695"/>
<polygon fill="midnightblue" stroke="midnightblue" points="602.144,-84.9577 607.53,-75.8339 597.63,-79.6076 602.144,-84.9577"/>
</g>
<!-- Node18 -->
<g id="node18" class="node"><title>Node18</title>
<g id="a_node18"><a xlink:href="exceptions_8hpp.html" target="_top" xlink:title="exceptions.hpp">
<polygon fill="none" stroke="black" points="710.5,-56.5 710.5,-75.5 793.5,-75.5 793.5,-56.5 710.5,-56.5"/>
<text text-anchor="middle" x="752" y="-63.5" font-family="Helvetica,sans-Serif" font-size="10.00">exceptions.hpp</text>
</a>
</g>
</g>
<!-- Node5&#45;&gt;Node18 -->
<g id="edge24" class="edge"><title>Node5&#45;&gt;Node18</title>
<path fill="none" stroke="midnightblue" d="M585.374,-112.444C619.263,-103.201 673.403,-88.4356 710.724,-78.2572"/>
<polygon fill="midnightblue" stroke="midnightblue" points="712.046,-81.5243 720.773,-75.5164 710.205,-74.771 712.046,-81.5243"/>
</g>
<!-- Node20 -->
<g id="node20" class="node"><title>Node20</title>
<g id="a_node20"><a xlink:href="spinlock_8hpp.html" target="_top" xlink:title="spinlock.hpp">
<polygon fill="none" stroke="black" points="315.5,-56.5 315.5,-75.5 386.5,-75.5 386.5,-56.5 315.5,-56.5"/>
<text text-anchor="middle" x="351" y="-63.5" font-family="Helvetica,sans-Serif" font-size="10.00">spinlock.hpp</text>
</a>
</g>
</g>
<!-- Node5&#45;&gt;Node20 -->
<g id="edge27" class="edge"><title>Node5&#45;&gt;Node20</title>
<path fill="none" stroke="midnightblue" d="M521.834,-112.444C486.941,-103.162 431.107,-88.3093 392.829,-78.127"/>
<polygon fill="midnightblue" stroke="midnightblue" points="393.579,-74.7048 383.015,-75.5164 391.78,-81.4696 393.579,-74.7048"/>
</g>
<!-- Node16&#45;&gt;Node4 -->
<g id="edge19" class="edge"><title>Node16&#45;&gt;Node4</title>
<path fill="none" stroke="midnightblue" d="M653.536,-61.0757C668.225,-59.472 685.43,-57.6175 701,-56 857.968,-39.6936 1045.67,-21.4472 1120.66,-14.208"/>
<polygon fill="midnightblue" stroke="midnightblue" points="1121.27,-17.6653 1130.89,-13.2214 1120.6,-10.6977 1121.27,-17.6653"/>
</g>
<!-- Node16&#45;&gt;Node6 -->
<g id="edge18" class="edge"><title>Node16&#45;&gt;Node6</title>
<path fill="none" stroke="midnightblue" d="M601.612,-56.324C585.329,-47.7034 560.133,-34.3643 541.284,-24.3855"/>
<polygon fill="midnightblue" stroke="midnightblue" points="542.823,-21.2402 532.347,-19.6545 539.548,-27.4267 542.823,-21.2402"/>
</g>
<!-- Node16&#45;&gt;Node13 -->
<g id="edge20" class="edge"><title>Node16&#45;&gt;Node13</title>
<path fill="none" stroke="midnightblue" d="M635.995,-56.324C654.038,-47.6247 682.047,-34.1202 702.803,-24.113"/>
<polygon fill="midnightblue" stroke="midnightblue" points="704.562,-27.1502 712.05,-19.6545 701.522,-20.8449 704.562,-27.1502"/>
</g>
<!-- Node16&#45;&gt;Node15 -->
<g id="edge22" class="edge"><title>Node16&#45;&gt;Node15</title>
<path fill="none" stroke="midnightblue" d="M611.89,-56.083C606.718,-48.5341 599.154,-37.4948 592.806,-28.2298"/>
<polygon fill="midnightblue" stroke="midnightblue" points="595.536,-26.0221 586.996,-19.7511 589.761,-29.9787 595.536,-26.0221"/>
</g>
<!-- Node17 -->
<g id="node17" class="node"><title>Node17</title>
<polygon fill="none" stroke="#bfbfbf" points="621,-0.5 621,-19.5 661,-19.5 661,-0.5 621,-0.5"/>
<text text-anchor="middle" x="641" y="-7.5" font-family="Helvetica,sans-Serif" font-size="10.00">utility</text>
</g>
<!-- Node16&#45;&gt;Node17 -->
<g id="edge21" class="edge"><title>Node16&#45;&gt;Node17</title>
<path fill="none" stroke="midnightblue" d="M621.798,-56.083C624.913,-48.77 629.423,-38.1814 633.289,-29.1034"/>
<polygon fill="midnightblue" stroke="midnightblue" points="636.574,-30.3229 637.273,-19.7511 630.134,-27.5798 636.574,-30.3229"/>
</g>
<!-- Node18&#45;&gt;Node13 -->
<g id="edge26" class="edge"><title>Node18&#45;&gt;Node13</title>
<path fill="none" stroke="midnightblue" d="M748.367,-56.083C745.388,-48.77 741.074,-38.1814 737.375,-29.1034"/>
<polygon fill="midnightblue" stroke="midnightblue" points="740.58,-27.6914 733.565,-19.7511 734.097,-30.3326 740.58,-27.6914"/>
</g>
<!-- Node19 -->
<g id="node19" class="node"><title>Node19</title>
<polygon fill="none" stroke="#bfbfbf" points="925.5,-0.5 925.5,-19.5 984.5,-19.5 984.5,-0.5 925.5,-0.5"/>
<text text-anchor="middle" x="955" y="-7.5" font-family="Helvetica,sans-Serif" font-size="10.00">exception</text>
</g>
<!-- Node18&#45;&gt;Node19 -->
<g id="edge25" class="edge"><title>Node18&#45;&gt;Node19</title>
<path fill="none" stroke="midnightblue" d="M784.166,-56.4435C819.777,-46.9705 877.201,-31.6953 915.512,-21.5041"/>
<polygon fill="midnightblue" stroke="midnightblue" points="916.532,-24.8547 925.296,-18.9015 914.732,-18.0899 916.532,-24.8547"/>
</g>
<!-- Node21 -->
<g id="node21" class="node"><title>Node21</title>
<polygon fill="none" stroke="#bfbfbf" points="328,-0.5 328,-19.5 374,-19.5 374,-0.5 328,-0.5"/>
<text text-anchor="middle" x="351" y="-7.5" font-family="Helvetica,sans-Serif" font-size="10.00">atomic</text>
</g>
<!-- Node20&#45;&gt;Node21 -->
<g id="edge28" class="edge"><title>Node20&#45;&gt;Node21</title>
<path fill="none" stroke="midnightblue" d="M351,-56.083C351,-49.0059 351,-38.8611 351,-29.9865"/>
<polygon fill="midnightblue" stroke="midnightblue" points="354.5,-29.751 351,-19.7511 347.5,-29.7511 354.5,-29.751"/>
</g>
<!-- Node22&#45;&gt;Node1 -->
<g id="edge50" class="edge"><title>Node22&#45;&gt;Node1</title>
<path fill="none" stroke="midnightblue" d="M1257.01,-187.506C1220.95,-196.523 1160.35,-210.981 1111.84,-222.204"/>
<polygon fill="midnightblue" stroke="midnightblue" points="1110.95,-218.816 1102,-224.475 1112.53,-225.637 1110.95,-218.816"/>
</g>
<!-- Node23 -->
<g id="node23" class="node"><title>Node23</title>
<polygon fill="none" stroke="#bfbfbf" points="1528.5,-56.5 1528.5,-75.5 1573.5,-75.5 1573.5,-56.5 1528.5,-56.5"/>
<text text-anchor="middle" x="1551" y="-63.5" font-family="Helvetica,sans-Serif" font-size="10.00">cstdlib</text>
</g>
<!-- Node22&#45;&gt;Node23 -->
<g id="edge30" class="edge"><title>Node22&#45;&gt;Node23</title>
<path fill="none" stroke="midnightblue" d="M1349.15,-172.963C1412.45,-167.553 1505.7,-155.743 1532,-132 1544.93,-120.322 1549.26,-100.378 1550.61,-85.6536"/>
<polygon fill="midnightblue" stroke="midnightblue" points="1554.11,-85.8105 1551.16,-75.6349 1547.12,-85.4298 1554.11,-85.8105"/>
</g>
<!-- Node24 -->
<g id="node24" class="node"><title>Node24</title>
<polygon fill="none" stroke="#bfbfbf" points="1455,-0.5 1455,-19.5 1507,-19.5 1507,-0.5 1455,-0.5"/>
<text text-anchor="middle" x="1481" y="-7.5" font-family="Helvetica,sans-Serif" font-size="10.00">sstream</text>
</g>
<!-- Node22&#45;&gt;Node24 -->
<g id="edge31" class="edge"><title>Node22&#45;&gt;Node24</title>
<path fill="none" stroke="midnightblue" d="M1349.15,-172.688C1416.71,-166.879 1520.19,-154.564 1552,-132 1581.75,-110.892 1602.92,-86.5607 1583,-56 1568.45,-33.6833 1540.07,-22.3558 1516.92,-16.6518"/>
<polygon fill="midnightblue" stroke="midnightblue" points="1517.58,-13.2116 1507.06,-14.4716 1516.07,-20.0467 1517.58,-13.2116"/>
</g>
<!-- Node25 -->
<g id="node25" class="node"><title>Node25</title>
<g id="a_node25"><a xlink:href="IPv4__5TupleL2Ident_8hpp.html" target="_top" xlink:title="IPv4_5TupleL2Ident.hpp">
<polygon fill="none" stroke="black" points="1079,-112.5 1079,-131.5 1201,-131.5 1201,-112.5 1079,-112.5"/>
<text text-anchor="middle" x="1140" y="-119.5" font-family="Helvetica,sans-Serif" font-size="10.00">IPv4_5TupleL2Ident.hpp</text>
</a>
</g>
</g>
<!-- Node22&#45;&gt;Node25 -->
<g id="edge32" class="edge"><title>Node22&#45;&gt;Node25</title>
<path fill="none" stroke="midnightblue" d="M1264.55,-168.444C1239.87,-159.438 1200.81,-145.189 1173.02,-135.049"/>
<polygon fill="midnightblue" stroke="midnightblue" points="1173.94,-131.656 1163.34,-131.516 1171.54,-138.232 1173.94,-131.656"/>
</g>
<!-- Node27 -->
<g id="node27" class="node"><title>Node27</title>
<g id="a_node27"><a xlink:href="headers_8hpp.html" target="_top" xlink:title="headers.hpp">
<polygon fill="none" stroke="black" points="1282,-56.5 1282,-75.5 1352,-75.5 1352,-56.5 1282,-56.5"/>
<text text-anchor="middle" x="1317" y="-63.5" font-family="Helvetica,sans-Serif" font-size="10.00">headers.hpp</text>
</a>
</g>
</g>
<!-- Node22&#45;&gt;Node27 -->
<g id="edge49" class="edge"><title>Node22&#45;&gt;Node27</title>
<path fill="none" stroke="midnightblue" d="M1290.28,-168.368C1294.98,-150.537 1305.85,-109.295 1312.18,-85.2717"/>
<polygon fill="midnightblue" stroke="midnightblue" points="1315.57,-86.1533 1314.73,-75.5914 1308.8,-84.3688 1315.57,-86.1533"/>
</g>
<!-- Node31 -->
<g id="node31" class="node"><title>Node31</title>
<g id="a_node31"><a xlink:href="mbuf_8hpp.html" target="_top" xlink:title="mbuf.hpp">
<polygon fill="none" stroke="black" points="1231.5,-112.5 1231.5,-131.5 1288.5,-131.5 1288.5,-112.5 1231.5,-112.5"/>
<text text-anchor="middle" x="1260" y="-119.5" font-family="Helvetica,sans-Serif" font-size="10.00">mbuf.hpp</text>
</a>
</g>
</g>
<!-- Node22&#45;&gt;Node31 -->
<g id="edge51" class="edge"><title>Node22&#45;&gt;Node31</title>
<path fill="none" stroke="midnightblue" d="M1283.38,-168.083C1279.54,-160.691 1273.98,-149.953 1269.24,-140.811"/>
<polygon fill="midnightblue" stroke="midnightblue" points="1272.25,-139.018 1264.54,-131.751 1266.03,-142.24 1272.25,-139.018"/>
</g>
<!-- Node33 -->
<g id="node33" class="node"><title>Node33</title>
<g id="a_node33"><a xlink:href="samplePacket_8hpp.html" target="_top" xlink:title="samplePacket.hpp">
<polygon fill="none" stroke="black" points="1425,-112.5 1425,-131.5 1523,-131.5 1523,-112.5 1425,-112.5"/>
<text text-anchor="middle" x="1474" y="-119.5" font-family="Helvetica,sans-Serif" font-size="10.00">samplePacket.hpp</text>
</a>
</g>
</g>
<!-- Node22&#45;&gt;Node33 -->
<g id="edge54" class="edge"><title>Node22&#45;&gt;Node33</title>
<path fill="none" stroke="midnightblue" d="M1317.47,-168.444C1349.17,-159.241 1399.73,-144.562 1434.77,-134.388"/>
<polygon fill="midnightblue" stroke="midnightblue" points="1436.04,-137.666 1444.67,-131.516 1434.09,-130.943 1436.04,-137.666"/>
</g>
<!-- Node25&#45;&gt;Node3 -->
<g id="edge40" class="edge"><title>Node25&#45;&gt;Node3</title>
<path fill="none" stroke="midnightblue" d="M1123.45,-112.324C1107.01,-103.703 1081.57,-90.3643 1062.53,-80.3855"/>
<polygon fill="midnightblue" stroke="midnightblue" points="1063.99,-77.198 1053.51,-75.6545 1060.74,-83.3977 1063.99,-77.198"/>
</g>
<!-- Node25&#45;&gt;Node4 -->
<g id="edge33" class="edge"><title>Node25&#45;&gt;Node4</title>
<path fill="none" stroke="midnightblue" d="M1143.6,-112.222C1147.06,-103.285 1152.03,-88.9424 1154,-76 1156.33,-60.6404 1156.16,-43.0025 1155.5,-29.9788"/>
<polygon fill="midnightblue" stroke="midnightblue" points="1158.98,-29.6467 1154.84,-19.8949 1152,-30.1009 1158.98,-29.6467"/>
</g>
<!-- Node25&#45;&gt;Node8 -->
<g id="edge35" class="edge"><title>Node25&#45;&gt;Node8</title>
<path fill="none" stroke="midnightblue" d="M1096.32,-112.453C1053.78,-104.051 987.037,-90.665 919.725,-76.1138"/>
<polygon fill="midnightblue" stroke="midnightblue" points="920.307,-72.6588 909.793,-73.9589 918.823,-79.4996 920.307,-72.6588"/>
</g>
<!-- Node25&#45;&gt;Node9 -->
<g id="edge36" class="edge"><title>Node25&#45;&gt;Node9</title>
<path fill="none" stroke="midnightblue" d="M1110.69,-112.444C1078.51,-103.051 1026.79,-87.9549 991.881,-77.7654"/>
<polygon fill="midnightblue" stroke="midnightblue" points="992.65,-74.3438 982.07,-74.9015 990.689,-81.0634 992.65,-74.3438"/>
</g>
<!-- Node25&#45;&gt;Node13 -->
<g id="edge38" class="edge"><title>Node25&#45;&gt;Node13</title>
<path fill="none" stroke="midnightblue" d="M1135.22,-112.482C1126.65,-98.0931 1107.16,-69.2483 1082,-56 1028.53,-27.8407 850.275,-16.4127 769.905,-12.6099"/>
<polygon fill="midnightblue" stroke="midnightblue" points="769.841,-9.10343 759.692,-12.143 769.521,-16.0961 769.841,-9.10343"/>
</g>
<!-- Node25&#45;&gt;Node18 -->
<g id="edge48" class="edge"><title>Node25&#45;&gt;Node18</title>
<path fill="none" stroke="midnightblue" d="M1078.95,-112.503C1003.08,-101.944 874.935,-84.1094 803.692,-74.1943"/>
<polygon fill="midnightblue" stroke="midnightblue" points="803.994,-70.7026 793.607,-72.7907 803.029,-77.6358 803.994,-70.7026"/>
</g>
<!-- Node25&#45;&gt;Node19 -->
<g id="edge34" class="edge"><title>Node25&#45;&gt;Node19</title>
<path fill="none" stroke="midnightblue" d="M1139.29,-112.48C1137.67,-98.6072 1132.45,-71.1664 1116,-56 1082.89,-25.4715 1030.76,-15.4191 994.837,-12.2362"/>
<polygon fill="midnightblue" stroke="midnightblue" points="994.939,-8.7342 984.706,-11.4814 994.418,-15.7148 994.939,-8.7342"/>
</g>
<!-- Node25&#45;&gt;Node24 -->
<g id="edge37" class="edge"><title>Node25&#45;&gt;Node24</title>
<path fill="none" stroke="midnightblue" d="M1201.36,-113.477C1246.46,-106.763 1308.74,-94.9947 1361,-76 1370.88,-72.4086 1424.74,-42.5552 1456.85,-24.58"/>
<polygon fill="midnightblue" stroke="midnightblue" points="1458.65,-27.5842 1465.66,-19.6408 1455.22,-21.4784 1458.65,-27.5842"/>
</g>
<!-- Node26 -->
<g id="node26" class="node"><title>Node26</title>
<polygon fill="none" stroke="#bfbfbf" points="1195.5,-0.5 1195.5,-19.5 1236.5,-19.5 1236.5,-0.5 1195.5,-0.5"/>
<text text-anchor="middle" x="1216" y="-7.5" font-family="Helvetica,sans-Serif" font-size="10.00">string</text>
</g>
<!-- Node25&#45;&gt;Node26 -->
<g id="edge39" class="edge"><title>Node25&#45;&gt;Node26</title>
<path fill="none" stroke="midnightblue" d="M1145.96,-112.368C1158.51,-94.2153 1187.81,-51.8015 1204.26,-27.9902"/>
<polygon fill="midnightblue" stroke="midnightblue" points="1207.26,-29.8083 1210.06,-19.5914 1201.5,-25.8292 1207.26,-29.8083"/>
</g>
<!-- Node25&#45;&gt;Node27 -->
<g id="edge41" class="edge"><title>Node25&#45;&gt;Node27</title>
<path fill="none" stroke="midnightblue" d="M1168.05,-112.444C1198.08,-103.28 1245.91,-88.6876 1279.24,-78.5192"/>
<polygon fill="midnightblue" stroke="midnightblue" points="1280.54,-81.7822 1289.09,-75.5164 1278.5,-75.0869 1280.54,-81.7822"/>
</g>
<!-- Node27&#45;&gt;Node4 -->
<g id="edge43" class="edge"><title>Node27&#45;&gt;Node4</title>
<path fill="none" stroke="midnightblue" d="M1291.17,-56.4435C1262.94,-47.0919 1217.65,-32.0859 1186.9,-21.8984"/>
<polygon fill="midnightblue" stroke="midnightblue" points="1187.66,-18.4658 1177.07,-18.6433 1185.46,-25.1106 1187.66,-18.4658"/>
</g>
<!-- Node27&#45;&gt;Node24 -->
<g id="edge45" class="edge"><title>Node27&#45;&gt;Node24</title>
<path fill="none" stroke="midnightblue" d="M1342.99,-56.4435C1370.7,-47.3196 1414.75,-32.8133 1445.62,-22.6509"/>
<polygon fill="midnightblue" stroke="midnightblue" points="1446.73,-25.9684 1455.14,-19.5164 1444.54,-19.3196 1446.73,-25.9684"/>
</g>
<!-- Node27&#45;&gt;Node26 -->
<g id="edge46" class="edge"><title>Node27&#45;&gt;Node26</title>
<path fill="none" stroke="midnightblue" d="M1300.77,-56.324C1284.65,-47.7034 1259.7,-34.3643 1241.04,-24.3855"/>
<polygon fill="midnightblue" stroke="midnightblue" points="1242.66,-21.283 1232.19,-19.6545 1239.36,-27.456 1242.66,-21.283"/>
</g>
<!-- Node28 -->
<g id="node28" class="node"><title>Node28</title>
<polygon fill="none" stroke="#bfbfbf" points="1255,-0.5 1255,-19.5 1293,-19.5 1293,-0.5 1255,-0.5"/>
<text text-anchor="middle" x="1274" y="-7.5" font-family="Helvetica,sans-Serif" font-size="10.00">array</text>
</g>
<!-- Node27&#45;&gt;Node28 -->
<g id="edge42" class="edge"><title>Node27&#45;&gt;Node28</title>
<path fill="none" stroke="midnightblue" d="M1309.9,-56.083C1303.76,-48.3768 1294.73,-37.0333 1287.26,-27.6531"/>
<polygon fill="midnightblue" stroke="midnightblue" points="1289.94,-25.3936 1280.97,-19.7511 1284.46,-29.7542 1289.94,-25.3936"/>
</g>
<!-- Node29 -->
<g id="node29" class="node"><title>Node29</title>
<polygon fill="none" stroke="#bfbfbf" points="1311,-0.5 1311,-19.5 1357,-19.5 1357,-0.5 1311,-0.5"/>
<text text-anchor="middle" x="1334" y="-7.5" font-family="Helvetica,sans-Serif" font-size="10.00">cstring</text>
</g>
<!-- Node27&#45;&gt;Node29 -->
<g id="edge44" class="edge"><title>Node27&#45;&gt;Node29</title>
<path fill="none" stroke="midnightblue" d="M1319.81,-56.083C1322.08,-48.8486 1325.37,-38.4087 1328.21,-29.3968"/>
<polygon fill="midnightblue" stroke="midnightblue" points="1331.58,-30.3406 1331.25,-19.7511 1324.9,-28.2385 1331.58,-30.3406"/>
</g>
<!-- Node30 -->
<g id="node30" class="node"><title>Node30</title>
<polygon fill="none" stroke="#bfbfbf" points="1375,-0.5 1375,-19.5 1437,-19.5 1437,-0.5 1375,-0.5"/>
<text text-anchor="middle" x="1406" y="-7.5" font-family="Helvetica,sans-Serif" font-size="10.00">arpa/inet.h</text>
</g>
<!-- Node27&#45;&gt;Node30 -->
<g id="edge47" class="edge"><title>Node27&#45;&gt;Node30</title>
<path fill="none" stroke="midnightblue" d="M1331.3,-56.324C1345.18,-47.9002 1366.49,-34.9709 1382.8,-25.0741"/>
<polygon fill="midnightblue" stroke="midnightblue" points="1385,-27.8341 1391.74,-19.6545 1381.37,-21.8495 1385,-27.8341"/>
</g>
<!-- Node31&#45;&gt;Node4 -->
<g id="edge52" class="edge"><title>Node31&#45;&gt;Node4</title>
<path fill="none" stroke="midnightblue" d="M1251.68,-112.368C1233.96,-93.9744 1192.23,-50.6712 1169.47,-27.0519"/>
<polygon fill="midnightblue" stroke="midnightblue" points="1171.74,-24.3636 1162.28,-19.5914 1166.7,-29.2209 1171.74,-24.3636"/>
</g>
<!-- Node32 -->
<g id="node32" class="node"><title>Node32</title>
<polygon fill="none" stroke="#bfbfbf" points="1408.5,-56.5 1408.5,-75.5 1471.5,-75.5 1471.5,-56.5 1408.5,-56.5"/>
<text text-anchor="middle" x="1440" y="-63.5" font-family="Helvetica,sans-Serif" font-size="10.00">rte_mbuf.h</text>
</g>
<!-- Node31&#45;&gt;Node32 -->
<g id="edge53" class="edge"><title>Node31&#45;&gt;Node32</title>
<path fill="none" stroke="midnightblue" d="M1288.52,-112.444C1319.07,-103.28 1367.71,-88.6876 1401.6,-78.5192"/>
<polygon fill="midnightblue" stroke="midnightblue" points="1403.04,-81.7424 1411.61,-75.5164 1401.03,-75.0376 1403.04,-81.7424"/>
</g>
<!-- Node33&#45;&gt;Node4 -->
<g id="edge55" class="edge"><title>Node33&#45;&gt;Node4</title>
<path fill="none" stroke="midnightblue" d="M1478.63,-112.179C1485.17,-98.376 1494.84,-71.6389 1481,-56 1439.25,-8.8279 1267.29,-30.5985 1187.51,-19.5136"/>
<polygon fill="midnightblue" stroke="midnightblue" points="1187.78,-16.0104 1177.34,-17.8126 1186.62,-22.9145 1187.78,-16.0104"/>
</g>
<!-- Node33&#45;&gt;Node23 -->
<g id="edge56" class="edge"><title>Node33&#45;&gt;Node23</title>
<path fill="none" stroke="midnightblue" d="M1486.37,-112.324C1498.16,-104.058 1516.13,-91.4527 1530.14,-81.6322"/>
<polygon fill="midnightblue" stroke="midnightblue" points="1532.48,-84.2619 1538.66,-75.6545 1528.46,-78.5307 1532.48,-84.2619"/>
</g>
</g>
</svg>
