<?xml version="1.0" encoding="UTF-8" standalone="no"?>
<!DOCTYPE svg PUBLIC "-//W3C//DTD SVG 1.1//EN"
 "http://www.w3.org/Graphics/SVG/1.1/DTD/svg11.dtd">
<!-- Generated by graphviz version 2.40.1 (20161225.0304)
 -->
<!-- Title: /home/dominik/uni/MoonState/src/helloBye3MemPool.cpp Pages: 1 -->
<svg width="1602pt" height="263pt"
 viewBox="0.00 0.00 1601.50 263.00" xmlns="http://www.w3.org/2000/svg" xmlns:xlink="http://www.w3.org/1999/xlink">
<g id="graph0" class="graph" transform="scale(1 1) rotate(0) translate(4 259)">
<title>/home/dominik/uni/MoonState/src/helloBye3MemPool.cpp</title>
<!-- Node0 -->
<g id="node1" class="node">
<title>Node0</title>
<polygon fill="#bfbfbf" stroke="#000000" points="340.5,-224.5 340.5,-254.5 487.5,-254.5 487.5,-224.5 340.5,-224.5"/>
<text text-anchor="start" x="348.5" y="-242.5" font-family="Helvetica,sans-Serif" font-size="10.00" fill="#000000">/home/dominik/uni/MoonState</text>
<text text-anchor="middle" x="414" y="-231.5" font-family="Helvetica,sans-Serif" font-size="10.00" fill="#000000">/src/helloBye3MemPool.cpp</text>
</g>
<!-- Node1 -->
<g id="node2" class="node">
<title>Node1</title>
<polygon fill="none" stroke="#bfbfbf" points="147.5,-112.5 147.5,-131.5 192.5,-131.5 192.5,-112.5 147.5,-112.5"/>
<text text-anchor="middle" x="170" y="-119.5" font-family="Helvetica,sans-Serif" font-size="10.00" fill="#000000">cstdlib</text>
</g>
<!-- Node0&#45;&gt;Node1 -->
<g id="edge1" class="edge">
<title>Node0&#45;&gt;Node1</title>
<path fill="none" stroke="#191970" d="M340.4286,-233.0317C278.7825,-225.978 197.4965,-212.304 176,-188 165.0662,-175.6383 164.5013,-156.4092 166.1183,-141.8892"/>
<polygon fill="#191970" stroke="#191970" points="169.5947,-142.3091 167.6446,-131.8953 162.6749,-141.2522 169.5947,-142.3091"/>
</g>
<!-- Node2 -->
<g id="node3" class="node">
<title>Node2</title>
<polygon fill="none" stroke="#bfbfbf" points="0,-.5 0,-19.5 52,-19.5 52,-.5 0,-.5"/>
<text text-anchor="middle" x="26" y="-7.5" font-family="Helvetica,sans-Serif" font-size="10.00" fill="#000000">sstream</text>
</g>
<!-- Node0&#45;&gt;Node2 -->
<g id="edge2" class="edge">
<title>Node0&#45;&gt;Node2</title>
<path fill="none" stroke="#191970" d="M340.4727,-231.2552C271.2529,-222.5042 173.3696,-207.2829 140,-188 83.2348,-155.1978 74.7066,-133.9256 44,-76 36.3513,-61.5713 31.7262,-43.6021 29.0833,-30.0581"/>
<polygon fill="#191970" stroke="#191970" points="32.4767,-29.1445 27.3065,-19.8969 25.5813,-30.3503 32.4767,-29.1445"/>
</g>
<!-- Node3 -->
<g id="node4" class="node">
<title>Node3</title>
<polygon fill="none" stroke="#bfbfbf" points="1077.5,-.5 1077.5,-19.5 1136.5,-19.5 1136.5,-.5 1077.5,-.5"/>
<text text-anchor="middle" x="1107" y="-7.5" font-family="Helvetica,sans-Serif" font-size="10.00" fill="#000000">stdexcept</text>
</g>
<!-- Node0&#45;&gt;Node3 -->
<g id="edge3" class="edge">
<title>Node0&#45;&gt;Node3</title>
<path fill="none" stroke="#191970" d="M487.7735,-232.6284C645.3499,-217.2598 1009.8022,-177.837 1125,-132 1171.1698,-113.6291 1233.8074,-97.839 1207,-56 1193.679,-35.2095 1168.3297,-23.6876 1146.4878,-17.3744"/>
<polygon fill="#191970" stroke="#191970" points="1147.3155,-13.9732 1136.755,-14.8257 1145.5422,-20.7448 1147.3155,-13.9732"/>
</g>
<!-- Node4 -->
<g id="node5" class="node">
<title>Node4</title>
<polygon fill="none" stroke="#bfbfbf" points="184.5,-168.5 184.5,-187.5 247.5,-187.5 247.5,-168.5 184.5,-168.5"/>
<text text-anchor="middle" x="216" y="-175.5" font-family="Helvetica,sans-Serif" font-size="10.00" fill="#000000">rte_errno.h</text>
</g>
<!-- Node0&#45;&gt;Node4 -->
<g id="edge4" class="edge">
<title>Node0&#45;&gt;Node4</title>
<path fill="none" stroke="#191970" d="M365.5638,-224.4554C332.0922,-214.059 288.0798,-200.3884 256.4781,-190.5727"/>
<polygon fill="#191970" stroke="#191970" points="257.2711,-187.1542 246.683,-187.5303 255.1947,-193.8391 257.2711,-187.1542"/>
</g>
<!-- Node5 -->
<g id="node6" class="node">
<title>Node5</title>
<polygon fill="none" stroke="#bfbfbf" points="265.5,-168.5 265.5,-187.5 346.5,-187.5 346.5,-168.5 265.5,-168.5"/>
<text text-anchor="middle" x="306" y="-175.5" font-family="Helvetica,sans-Serif" font-size="10.00" fill="#000000">rte_mempool.h</text>
</g>
<!-- Node0&#45;&gt;Node5 -->
<g id="edge5" class="edge">
<title>Node0&#45;&gt;Node5</title>
<path fill="none" stroke="#191970" d="M387.5802,-224.4554C370.5086,-214.734 348.4098,-202.15 331.5191,-192.5317"/>
<polygon fill="#191970" stroke="#191970" points="333.158,-189.4373 322.7362,-187.5303 329.6941,-195.5202 333.158,-189.4373"/>
</g>
<!-- Node6 -->
<g id="node7" class="node">
<title>Node6</title>
<g id="a_node7"><a xlink:href="IPv4__5TupleL2Ident_8hpp.html" target="_top" xlink:title="IPv4_5TupleL2Ident.hpp">
<polygon fill="none" stroke="#000000" points="326,-112.5 326,-131.5 448,-131.5 448,-112.5 326,-112.5"/>
<text text-anchor="middle" x="387" y="-119.5" font-family="Helvetica,sans-Serif" font-size="10.00" fill="#000000">IPv4_5TupleL2Ident.hpp</text>
</a>
</g>
</g>
<!-- Node0&#45;&gt;Node6 -->
<g id="edge6" class="edge">
<title>Node0&#45;&gt;Node6</title>
<path fill="none" stroke="#191970" d="M440.6913,-224.293C461.3561,-210.4444 484.5182,-189.0083 472,-168 463.109,-153.0789 447.5103,-142.7035 432.0823,-135.6373"/>
<polygon fill="#191970" stroke="#191970" points="433.1358,-132.2841 422.5598,-131.6541 430.4346,-138.742 433.1358,-132.2841"/>
</g>
<!-- Node15 -->
<g id="node16" class="node">
<title>Node15</title>
<g id="a_node16"><a xlink:href="headers_8hpp.html" target="_top" xlink:title="headers.hpp">
<polygon fill="none" stroke="#000000" points="124,-56.5 124,-75.5 194,-75.5 194,-56.5 124,-56.5"/>
<text text-anchor="middle" x="159" y="-63.5" font-family="Helvetica,sans-Serif" font-size="10.00" fill="#000000">headers.hpp</text>
</a>
</g>
</g>
<!-- Node0&#45;&gt;Node15 -->
<g id="edge27" class="edge">
<title>Node0&#45;&gt;Node15</title>
<path fill="none" stroke="#191970" d="M340.4055,-231.9892C276.3749,-224.1181 189.7602,-209.8237 163,-188 135.5492,-165.6131 131.787,-146.6798 139,-112 140.9414,-102.6655 144.8804,-92.9017 148.7531,-84.783"/>
<polygon fill="#191970" stroke="#191970" points="151.8903,-86.3353 153.3055,-75.8354 145.6514,-83.161 151.8903,-86.3353"/>
</g>
<!-- Node19 -->
<g id="node20" class="node">
<title>Node19</title>
<g id="a_node20"><a xlink:href="helloBye3MemPool_8hpp.html" target="_top" xlink:title="helloBye3MemPool.hpp">
<polygon fill="none" stroke="#000000" points="519.5,-168.5 519.5,-187.5 638.5,-187.5 638.5,-168.5 519.5,-168.5"/>
<text text-anchor="middle" x="579" y="-175.5" font-family="Helvetica,sans-Serif" font-size="10.00" fill="#000000">helloBye3MemPool.hpp</text>
</a>
</g>
</g>
<!-- Node0&#45;&gt;Node19 -->
<g id="edge28" class="edge">
<title>Node0&#45;&gt;Node19</title>
<path fill="none" stroke="#191970" d="M448.4665,-224.4554C474.7751,-214.194 510.9544,-200.7429 538.6133,-190.9571"/>
<polygon fill="#191970" stroke="#191970" points="540.1058,-194.1427 548.3838,-187.5303 537.789,-187.5372 540.1058,-194.1427"/>
</g>
<!-- Node21 -->
<g id="node22" class="node">
<title>Node21</title>
<g id="a_node22"><a xlink:href="mbuf_8hpp.html" target="_top" xlink:title="mbuf.hpp">
<polygon fill="none" stroke="#000000" points="1058.5,-112.5 1058.5,-131.5 1115.5,-131.5 1115.5,-112.5 1058.5,-112.5"/>
<text text-anchor="middle" x="1087" y="-119.5" font-family="Helvetica,sans-Serif" font-size="10.00" fill="#000000">mbuf.hpp</text>
</a>
</g>
</g>
<!-- Node0&#45;&gt;Node21 -->
<g id="edge61" class="edge">
<title>Node0&#45;&gt;Node21</title>
<path fill="none" stroke="#191970" d="M487.6256,-226.6456C630.2192,-201.75 939.5845,-147.7375 1048.2868,-128.759"/>
<polygon fill="#191970" stroke="#191970" points="1049.216,-132.1498 1058.465,-126.982 1048.012,-125.2541 1049.216,-132.1498"/>
</g>
<!-- Node34 -->
<g id="node35" class="node">
<title>Node34</title>
<g id="a_node35"><a xlink:href="samplePacket_8hpp.html" target="_top" xlink:title="samplePacket.hpp">
<polygon fill="none" stroke="#000000" points="365,-168.5 365,-187.5 463,-187.5 463,-168.5 365,-168.5"/>
<text text-anchor="middle" x="414" y="-175.5" font-family="Helvetica,sans-Serif" font-size="10.00" fill="#000000">samplePacket.hpp</text>
</a>
</g>
</g>
<!-- Node0&#45;&gt;Node34 -->
<g id="edge62" class="edge">
<title>Node0&#45;&gt;Node34</title>
<path fill="none" stroke="#191970" d="M414,-224.2977C414,-216.3834 414,-206.6043 414,-198.0759"/>
<polygon fill="#191970" stroke="#191970" points="417.5001,-197.8469 414,-187.8469 410.5001,-197.847 417.5001,-197.8469"/>
</g>
<!-- Node6&#45;&gt;Node2 -->
<g id="edge11" class="edge">
<title>Node6&#45;&gt;Node2</title>
<path fill="none" stroke="#191970" d="M325.7458,-116.3396C253.4277,-108.9443 138.0434,-94.703 99,-76 75.0779,-64.5405 53.323,-42.7069 39.9048,-27.2964"/>
<polygon fill="#191970" stroke="#191970" points="42.4634,-24.901 33.347,-19.5025 37.1071,-29.4077 42.4634,-24.901"/>
</g>
<!-- Node6&#45;&gt;Node3 -->
<g id="edge12" class="edge">
<title>Node6&#45;&gt;Node3</title>
<path fill="none" stroke="#191970" d="M376.2977,-112.3917C362.0561,-98.4844 340.3876,-72.5979 356,-56 380.5542,-29.8958 915.0311,-14.7401 1067.0143,-10.9475"/>
<polygon fill="#191970" stroke="#191970" points="1067.3732,-14.4398 1077.2838,-10.6941 1067.2005,-7.4419 1067.3732,-14.4398"/>
</g>
<!-- Node7 -->
<g id="node8" class="node">
<title>Node7</title>
<polygon fill="none" stroke="#bfbfbf" points="657,-.5 657,-19.5 703,-19.5 703,-.5 657,-.5"/>
<text text-anchor="middle" x="680" y="-7.5" font-family="Helvetica,sans-Serif" font-size="10.00" fill="#000000">cstdint</text>
</g>
<!-- Node6&#45;&gt;Node7 -->
<g id="edge7" class="edge">
<title>Node6&#45;&gt;Node7</title>
<path fill="none" stroke="#191970" d="M365.5762,-112.4902C340.1876,-99.95 303.5168,-77.0101 322,-56 332.7031,-43.8337 559.8866,-21.2918 646.6891,-13.0879"/>
<polygon fill="#191970" stroke="#191970" points="647.1635,-16.5588 656.7919,-12.138 646.5081,-9.5896 647.1635,-16.5588"/>
</g>
<!-- Node8 -->
<g id="node9" class="node">
<title>Node8</title>
<polygon fill="none" stroke="#bfbfbf" points="367.5,-.5 367.5,-19.5 426.5,-19.5 426.5,-.5 367.5,-.5"/>
<text text-anchor="middle" x="397" y="-7.5" font-family="Helvetica,sans-Serif" font-size="10.00" fill="#000000">exception</text>
</g>
<!-- Node6&#45;&gt;Node8 -->
<g id="edge8" class="edge">
<title>Node6&#45;&gt;Node8</title>
<path fill="none" stroke="#191970" d="M344.3533,-112.4362C308.3465,-102.2228 265.3906,-83.6677 284,-56 300.3324,-31.7176 331.9488,-20.2469 357.5949,-14.8319"/>
<polygon fill="#191970" stroke="#191970" points="358.2619,-18.2679 367.4426,-12.9797 356.968,-11.3885 358.2619,-18.2679"/>
</g>
<!-- Node9 -->
<g id="node10" class="node">
<title>Node9</title>
<polygon fill="none" stroke="#bfbfbf" points="364.5,-56.5 364.5,-75.5 423.5,-75.5 423.5,-56.5 364.5,-56.5"/>
<text text-anchor="middle" x="394" y="-63.5" font-family="Helvetica,sans-Serif" font-size="10.00" fill="#000000">functional</text>
</g>
<!-- Node6&#45;&gt;Node9 -->
<g id="edge9" class="edge">
<title>Node6&#45;&gt;Node9</title>
<path fill="none" stroke="#191970" d="M388.2193,-112.2455C389.1327,-104.9382 390.4132,-94.6944 391.5369,-85.7046"/>
<polygon fill="#191970" stroke="#191970" points="395.0272,-85.9996 392.7947,-75.6427 388.0813,-85.1313 395.0272,-85.9996"/>
</g>
<!-- Node10 -->
<g id="node11" class="node">
<title>Node10</title>
<polygon fill="none" stroke="#bfbfbf" points="634,-56.5 634,-75.5 688,-75.5 688,-56.5 634,-56.5"/>
<text text-anchor="middle" x="661" y="-63.5" font-family="Helvetica,sans-Serif" font-size="10.00" fill="#000000">iostream</text>
</g>
<!-- Node6&#45;&gt;Node10 -->
<g id="edge10" class="edge">
<title>Node6&#45;&gt;Node10</title>
<path fill="none" stroke="#191970" d="M443.0512,-112.4732C489.1827,-104.3359 556.4703,-91.7898 623.9744,-76.1054"/>
<polygon fill="#191970" stroke="#191970" points="624.997,-79.4606 633.9331,-73.7687 623.3979,-72.6457 624.997,-79.4606"/>
</g>
<!-- Node11 -->
<g id="node12" class="node">
<title>Node11</title>
<polygon fill="none" stroke="#bfbfbf" points="75.5,-.5 75.5,-19.5 116.5,-19.5 116.5,-.5 75.5,-.5"/>
<text text-anchor="middle" x="96" y="-7.5" font-family="Helvetica,sans-Serif" font-size="10.00" fill="#000000">string</text>
</g>
<!-- Node6&#45;&gt;Node11 -->
<g id="edge13" class="edge">
<title>Node6&#45;&gt;Node11</title>
<path fill="none" stroke="#191970" d="M325.939,-115.1363C250.6114,-106.1413 130.5382,-89.8778 115,-76 102.1023,-64.4805 97.7203,-44.8302 96.3448,-29.9591"/>
<polygon fill="#191970" stroke="#191970" points="99.8265,-29.5272 95.7877,-19.7324 92.8369,-29.908 99.8265,-29.5272"/>
</g>
<!-- Node12 -->
<g id="node13" class="node">
<title>Node12</title>
<g id="a_node13"><a xlink:href="common_8hpp.html" target="_top" xlink:title="common.hpp">
<polygon fill="none" stroke="#000000" points="542.5,-56.5 542.5,-75.5 615.5,-75.5 615.5,-56.5 542.5,-56.5"/>
<text text-anchor="middle" x="579" y="-63.5" font-family="Helvetica,sans-Serif" font-size="10.00" fill="#000000">common.hpp</text>
</a>
</g>
</g>
<!-- Node6&#45;&gt;Node12 -->
<g id="edge14" class="edge">
<title>Node6&#45;&gt;Node12</title>
<path fill="none" stroke="#191970" d="M420.006,-112.3733C452.2091,-102.9807 501.3442,-88.6496 536.4639,-78.4064"/>
<polygon fill="#191970" stroke="#191970" points="537.8047,-81.6612 546.4247,-75.5011 535.8447,-74.9412 537.8047,-81.6612"/>
</g>
<!-- Node6&#45;&gt;Node15 -->
<g id="edge17" class="edge">
<title>Node6&#45;&gt;Node15</title>
<path fill="none" stroke="#191970" d="M348.0645,-112.4369C308.115,-102.6247 246.0261,-87.3748 203.9972,-77.052"/>
<polygon fill="#191970" stroke="#191970" points="204.5801,-73.5912 194.0339,-74.6048 202.9104,-80.3891 204.5801,-73.5912"/>
</g>
<!-- Node18 -->
<g id="node19" class="node">
<title>Node18</title>
<g id="a_node19"><a xlink:href="exceptions_8hpp.html" target="_top" xlink:title="exceptions.hpp">
<polygon fill="none" stroke="#000000" points="441.5,-56.5 441.5,-75.5 524.5,-75.5 524.5,-56.5 441.5,-56.5"/>
<text text-anchor="middle" x="483" y="-63.5" font-family="Helvetica,sans-Serif" font-size="10.00" fill="#000000">exceptions.hpp</text>
</a>
</g>
</g>
<!-- Node6&#45;&gt;Node18 -->
<g id="edge24" class="edge">
<title>Node6&#45;&gt;Node18</title>
<path fill="none" stroke="#191970" d="M403.7219,-112.2455C418.5889,-103.5731 440.5466,-90.7645 457.5858,-80.825"/>
<polygon fill="#191970" stroke="#191970" points="459.5955,-83.7047 466.4697,-75.6427 456.0683,-77.6582 459.5955,-83.7047"/>
</g>
<!-- Node13 -->
<g id="node14" class="node">
<title>Node13</title>
<polygon fill="none" stroke="#bfbfbf" points="503,-.5 503,-19.5 541,-19.5 541,-.5 503,-.5"/>
<text text-anchor="middle" x="522" y="-7.5" font-family="Helvetica,sans-Serif" font-size="10.00" fill="#000000">array</text>
</g>
<!-- Node12&#45;&gt;Node13 -->
<g id="edge15" class="edge">
<title>Node12&#45;&gt;Node13</title>
<path fill="none" stroke="#191970" d="M569.0714,-56.2455C560.8162,-48.1352 548.8791,-36.4075 539.0918,-26.7919"/>
<polygon fill="#191970" stroke="#191970" points="541.4011,-24.1542 531.8149,-19.6427 536.4954,-29.1476 541.4011,-24.1542"/>
</g>
<!-- Node14 -->
<g id="node15" class="node">
<title>Node14</title>
<polygon fill="none" stroke="#bfbfbf" points="1233.5,-.5 1233.5,-19.5 1282.5,-19.5 1282.5,-.5 1233.5,-.5"/>
<text text-anchor="middle" x="1258" y="-7.5" font-family="Helvetica,sans-Serif" font-size="10.00" fill="#000000">cassert</text>
</g>
<!-- Node12&#45;&gt;Node14 -->
<g id="edge16" class="edge">
<title>Node12&#45;&gt;Node14</title>
<path fill="none" stroke="#191970" d="M615.5716,-57.5486C618.7501,-56.9664 621.9254,-56.4381 625,-56 854.7871,-23.2606 914.6166,-38.3218 1146,-20 1171.7553,-17.9606 1200.8139,-15.3573 1222.8772,-13.3181"/>
<polygon fill="#191970" stroke="#191970" points="1223.4682,-16.7783 1233.1012,-12.3673 1222.82,-9.8084 1223.4682,-16.7783"/>
</g>
<!-- Node15&#45;&gt;Node2 -->
<g id="edge21" class="edge">
<title>Node15&#45;&gt;Node2</title>
<path fill="none" stroke="#191970" d="M136.1365,-56.3733C114.595,-47.3032 82.1162,-33.6279 58.0044,-23.4755"/>
<polygon fill="#191970" stroke="#191970" points="59.1397,-20.156 48.5652,-19.5011 56.4233,-26.6075 59.1397,-20.156"/>
</g>
<!-- Node15&#45;&gt;Node7 -->
<g id="edge19" class="edge">
<title>Node15&#45;&gt;Node7</title>
<path fill="none" stroke="#191970" d="M194.2509,-58.3489C198.8628,-57.4824 203.5354,-56.6713 208,-56 293.0715,-43.2093 553.7776,-20.6482 646.6843,-12.7914"/>
<polygon fill="#191970" stroke="#191970" points="647.2391,-16.2571 656.9095,-11.9288 646.6506,-9.2819 647.2391,-16.2571"/>
</g>
<!-- Node15&#45;&gt;Node11 -->
<g id="edge22" class="edge">
<title>Node15&#45;&gt;Node11</title>
<path fill="none" stroke="#191970" d="M148.0262,-56.2455C138.8118,-48.0549 125.4468,-36.1749 114.5703,-26.5069"/>
<polygon fill="#191970" stroke="#191970" points="116.6474,-23.6704 106.848,-19.6427 111.9968,-28.9023 116.6474,-23.6704"/>
</g>
<!-- Node15&#45;&gt;Node13 -->
<g id="edge18" class="edge">
<title>Node15&#45;&gt;Node13</title>
<path fill="none" stroke="#191970" d="M194.0186,-58.606C198.7113,-57.6877 203.4674,-56.7939 208,-56 312.2994,-37.7321 436.9671,-20.9673 492.6377,-13.7444"/>
<polygon fill="#191970" stroke="#191970" points="493.3557,-17.1809 502.8254,-12.4295 492.4596,-10.2385 493.3557,-17.1809"/>
</g>
<!-- Node16 -->
<g id="node17" class="node">
<title>Node16</title>
<polygon fill="none" stroke="#bfbfbf" points="136,-.5 136,-19.5 182,-19.5 182,-.5 136,-.5"/>
<text text-anchor="middle" x="159" y="-7.5" font-family="Helvetica,sans-Serif" font-size="10.00" fill="#000000">cstring</text>
</g>
<!-- Node15&#45;&gt;Node16 -->
<g id="edge20" class="edge">
<title>Node15&#45;&gt;Node16</title>
<path fill="none" stroke="#191970" d="M159,-56.2455C159,-48.9382 159,-38.6944 159,-29.7046"/>
<polygon fill="#191970" stroke="#191970" points="162.5001,-29.6426 159,-19.6427 155.5001,-29.6427 162.5001,-29.6426"/>
</g>
<!-- Node17 -->
<g id="node18" class="node">
<title>Node17</title>
<polygon fill="none" stroke="#bfbfbf" points="200,-.5 200,-19.5 262,-19.5 262,-.5 200,-.5"/>
<text text-anchor="middle" x="231" y="-7.5" font-family="Helvetica,sans-Serif" font-size="10.00" fill="#000000">arpa/inet.h</text>
</g>
<!-- Node15&#45;&gt;Node17 -->
<g id="edge23" class="edge">
<title>Node15&#45;&gt;Node17</title>
<path fill="none" stroke="#191970" d="M171.5414,-56.2455C182.2787,-47.8943 197.9473,-35.7076 210.5047,-25.9408"/>
<polygon fill="#191970" stroke="#191970" points="212.8575,-28.5449 218.6023,-19.6427 208.5599,-23.0194 212.8575,-28.5449"/>
</g>
<!-- Node18&#45;&gt;Node3 -->
<g id="edge26" class="edge">
<title>Node18&#45;&gt;Node3</title>
<path fill="none" stroke="#191970" d="M524.6839,-57.4266C527.8295,-56.9023 530.9609,-56.4186 534,-56 733.1999,-28.565 973.7829,-15.8209 1067.2138,-11.6372"/>
<polygon fill="#191970" stroke="#191970" points="1067.5132,-15.1275 1077.3497,-11.1913 1067.2055,-8.1343 1067.5132,-15.1275"/>
</g>
<!-- Node18&#45;&gt;Node8 -->
<g id="edge25" class="edge">
<title>Node18&#45;&gt;Node8</title>
<path fill="none" stroke="#191970" d="M468.0199,-56.2455C454.8249,-47.6534 435.3949,-35.0014 420.1921,-25.1018"/>
<polygon fill="#191970" stroke="#191970" points="422.0983,-22.1665 411.8084,-19.6427 418.2785,-28.0325 422.0983,-22.1665"/>
</g>
<!-- Node19&#45;&gt;Node0 -->
<g id="edge60" class="edge">
<title>Node19&#45;&gt;Node0</title>
<path fill="none" stroke="#191970" d="M558.4779,-187.5303C536.3552,-196.4281 500.4724,-209.9523 469.9558,-220.9739"/>
<polygon fill="#191970" stroke="#191970" points="468.4893,-217.7816 460.2606,-224.4554 470.8551,-224.3698 468.4893,-217.7816"/>
</g>
<!-- Node19&#45;&gt;Node2 -->
<g id="edge30" class="edge">
<title>Node19&#45;&gt;Node2</title>
<path fill="none" stroke="#191970" d="M519.2892,-171.1689C457.52,-163.5951 358.447,-150.0274 274,-132 241.5202,-125.0663 234.0535,-120.6939 202,-112 141.6541,-95.6323 116.0641,-113.4582 66,-76 50.136,-64.1304 39.2527,-43.9516 32.8892,-29.0235"/>
<polygon fill="#191970" stroke="#191970" points="36.1322,-27.7065 29.2002,-19.6941 29.6227,-30.2805 36.1322,-27.7065"/>
</g>
<!-- Node19&#45;&gt;Node12 -->
<g id="edge31" class="edge">
<title>Node19&#45;&gt;Node12</title>
<path fill="none" stroke="#191970" d="M579,-168.4509C579,-150.184 579,-109.9553 579,-85.6976"/>
<polygon fill="#191970" stroke="#191970" points="582.5001,-85.5249 579,-75.5249 575.5001,-85.5249 582.5001,-85.5249"/>
</g>
<!-- Node19&#45;&gt;Node15 -->
<g id="edge33" class="edge">
<title>Node19&#45;&gt;Node15</title>
<path fill="none" stroke="#191970" d="M519.4154,-172.0378C465.6142,-165.6023 384.7365,-153.2936 317,-132 296.8929,-125.6792 293.3477,-120.3615 274,-112 247.3488,-100.4821 216.8206,-88.3178 193.9186,-79.393"/>
<polygon fill="#191970" stroke="#191970" points="194.8785,-76.0112 184.2896,-75.6562 192.346,-82.5371 194.8785,-76.0112"/>
</g>
<!-- Node19&#45;&gt;Node18 -->
<g id="edge32" class="edge">
<title>Node19&#45;&gt;Node18</title>
<path fill="none" stroke="#191970" d="M570.8151,-168.4509C554.5909,-149.5227 518.1549,-107.014 497.6811,-83.1279"/>
<polygon fill="#191970" stroke="#191970" points="500.3295,-80.8397 491.1642,-75.5249 495.0147,-85.3953 500.3295,-80.8397"/>
</g>
<!-- Node20 -->
<g id="node21" class="node">
<title>Node20</title>
<polygon fill="none" stroke="#bfbfbf" points="706,-56.5 706,-75.5 750,-75.5 750,-56.5 706,-56.5"/>
<text text-anchor="middle" x="728" y="-63.5" font-family="Helvetica,sans-Serif" font-size="10.00" fill="#000000">mutex</text>
</g>
<!-- Node19&#45;&gt;Node20 -->
<g id="edge29" class="edge">
<title>Node19&#45;&gt;Node20</title>
<path fill="none" stroke="#191970" d="M591.7037,-168.4509C617.4348,-149.1094 675.9211,-105.1465 707.2592,-81.5904"/>
<polygon fill="#191970" stroke="#191970" points="709.4379,-84.3313 715.3285,-75.5249 705.2319,-78.7358 709.4379,-84.3313"/>
</g>
<!-- Node19&#45;&gt;Node21 -->
<g id="edge34" class="edge">
<title>Node19&#45;&gt;Node21</title>
<path fill="none" stroke="#191970" d="M638.7679,-171.4114C744.1171,-159.7981 960.041,-135.9955 1048.2059,-126.2765"/>
<polygon fill="#191970" stroke="#191970" points="1048.7521,-129.7376 1058.3083,-125.1629 1047.985,-122.7797 1048.7521,-129.7376"/>
</g>
<!-- Node23 -->
<g id="node24" class="node">
<title>Node23</title>
<g id="a_node24"><a xlink:href="stateMachine_8hpp.html" target="_top" xlink:title="stateMachine.hpp">
<polygon fill="none" stroke="#000000" points="843,-112.5 843,-131.5 937,-131.5 937,-112.5 843,-112.5"/>
<text text-anchor="middle" x="890" y="-119.5" font-family="Helvetica,sans-Serif" font-size="10.00" fill="#000000">stateMachine.hpp</text>
</a>
</g>
</g>
<!-- Node19&#45;&gt;Node23 -->
<g id="edge37" class="edge">
<title>Node19&#45;&gt;Node23</title>
<path fill="none" stroke="#191970" d="M632.1094,-168.4369C687.9177,-158.3878 775.4007,-142.6352 832.7261,-132.313"/>
<polygon fill="#191970" stroke="#191970" points="833.4909,-135.7317 842.7123,-130.5148 832.2503,-128.8424 833.4909,-135.7317"/>
</g>
<!-- Node21&#45;&gt;Node7 -->
<g id="edge35" class="edge">
<title>Node21&#45;&gt;Node7</title>
<path fill="none" stroke="#191970" d="M1115.6624,-115.4645C1154.3906,-105.3849 1215.789,-84.2197 1190,-56 1157.8241,-20.7914 821.1966,-12.2872 713.1699,-10.4575"/>
<polygon fill="#191970" stroke="#191970" points="713.2134,-6.9579 703.1583,-10.2962 713.1005,-13.957 713.2134,-6.9579"/>
</g>
<!-- Node22 -->
<g id="node23" class="node">
<title>Node22</title>
<polygon fill="none" stroke="#bfbfbf" points="1530.5,-56.5 1530.5,-75.5 1593.5,-75.5 1593.5,-56.5 1530.5,-56.5"/>
<text text-anchor="middle" x="1562" y="-63.5" font-family="Helvetica,sans-Serif" font-size="10.00" fill="#000000">rte_mbuf.h</text>
</g>
<!-- Node21&#45;&gt;Node22 -->
<g id="edge36" class="edge">
<title>Node21&#45;&gt;Node22</title>
<path fill="none" stroke="#191970" d="M1115.6949,-120.3561C1184.1824,-116.1374 1362.6745,-103.4032 1520.3351,-76.1069"/>
<polygon fill="#191970" stroke="#191970" points="1520.9653,-79.5498 1530.2094,-74.3731 1519.7547,-72.6553 1520.9653,-79.5498"/>
</g>
<!-- Node23&#45;&gt;Node3 -->
<g id="edge47" class="edge">
<title>Node23&#45;&gt;Node3</title>
<path fill="none" stroke="#191970" d="M937.4048,-116.5426C988.8807,-109.6817 1066.6284,-96.2877 1088,-76 1100.542,-64.0941 1104.9713,-44.4953 1106.4547,-29.7413"/>
<polygon fill="#191970" stroke="#191970" points="1109.9571,-29.8133 1107.1004,-19.6109 1102.9713,-29.368 1109.9571,-29.8133"/>
</g>
<!-- Node23&#45;&gt;Node7 -->
<g id="edge40" class="edge">
<title>Node23&#45;&gt;Node7</title>
<path fill="none" stroke="#191970" d="M869.8854,-112.4402C850.9408,-103.3449 821.8402,-89.1371 797,-76 764.968,-59.0594 728.7195,-38.3702 705.1724,-24.723"/>
<polygon fill="#191970" stroke="#191970" points="706.9107,-21.6851 696.5062,-19.6857 703.3929,-27.737 706.9107,-21.6851"/>
</g>
<!-- Node23&#45;&gt;Node9 -->
<g id="edge41" class="edge">
<title>Node23&#45;&gt;Node9</title>
<path fill="none" stroke="#191970" d="M842.9692,-119.6089C761.5534,-114.9611 589.0122,-102.8724 433.9002,-75.9073"/>
<polygon fill="#191970" stroke="#191970" points="434.1656,-72.4001 423.7096,-74.1095 432.9494,-79.2937 434.1656,-72.4001"/>
</g>
<!-- Node23&#45;&gt;Node10 -->
<g id="edge42" class="edge">
<title>Node23&#45;&gt;Node10</title>
<path fill="none" stroke="#191970" d="M848.1,-112.4841C811.0736,-103.9697 755.3721,-90.9061 698.058,-76.2093"/>
<polygon fill="#191970" stroke="#191970" points="698.655,-72.7489 688.098,-73.6428 696.9083,-79.5274 698.655,-72.7489"/>
</g>
<!-- Node23&#45;&gt;Node12 -->
<g id="edge56" class="edge">
<title>Node23&#45;&gt;Node12</title>
<path fill="none" stroke="#191970" d="M842.9782,-114.453C791.9878,-106.1318 707.961,-92.0216 625.6558,-76.0637"/>
<polygon fill="#191970" stroke="#191970" points="626.1145,-72.5873 615.6295,-74.1088 624.7748,-79.4579 626.1145,-72.5873"/>
</g>
<!-- Node23&#45;&gt;Node14 -->
<g id="edge38" class="edge">
<title>Node23&#45;&gt;Node14</title>
<path fill="none" stroke="#191970" d="M937.2952,-119.0338C1053.0187,-111.5497 1342.0458,-91.3994 1356,-76 1361.9687,-69.4131 1360.7665,-63.5028 1356,-56 1348.6151,-44.3757 1317.5708,-30.986 1292.3747,-21.6613"/>
<polygon fill="#191970" stroke="#191970" points="1293.3134,-18.2791 1282.719,-18.1764 1290.937,-24.8634 1293.3134,-18.2791"/>
</g>
<!-- Node23&#45;&gt;Node18 -->
<g id="edge57" class="edge">
<title>Node23&#45;&gt;Node18</title>
<path fill="none" stroke="#191970" d="M842.9235,-116.9058C776.5848,-109.5096 651.5972,-94.779 534.8905,-76.0551"/>
<polygon fill="#191970" stroke="#191970" points="535.1394,-72.5499 524.7088,-74.4078 534.0214,-79.46 535.1394,-72.5499"/>
</g>
<!-- Node23&#45;&gt;Node20 -->
<g id="edge45" class="edge">
<title>Node23&#45;&gt;Node20</title>
<path fill="none" stroke="#191970" d="M862.1512,-112.3733C833.6229,-102.5116 789.3455,-87.2059 759.5419,-76.9034"/>
<polygon fill="#191970" stroke="#191970" points="760.6279,-73.5756 750.0331,-73.6164 758.3409,-80.1915 760.6279,-73.5756"/>
</g>
<!-- Node24 -->
<g id="node25" class="node">
<title>Node24</title>
<polygon fill="none" stroke="#bfbfbf" points="1135,-56.5 1135,-75.5 1181,-75.5 1181,-56.5 1135,-56.5"/>
<text text-anchor="middle" x="1158" y="-63.5" font-family="Helvetica,sans-Serif" font-size="10.00" fill="#000000">chrono</text>
</g>
<!-- Node23&#45;&gt;Node24 -->
<g id="edge39" class="edge">
<title>Node23&#45;&gt;Node24</title>
<path fill="none" stroke="#191970" d="M937.0968,-113.5835C983.9193,-104.9902 1057.6984,-90.8392 1121,-76 1122.2754,-75.701 1123.5735,-75.3889 1124.8833,-75.0674"/>
<polygon fill="#191970" stroke="#191970" points="1126.1505,-78.3558 1134.9682,-72.4823 1124.4123,-71.575 1126.1505,-78.3558"/>
</g>
<!-- Node25 -->
<g id="node26" class="node">
<title>Node25</title>
<polygon fill="none" stroke="#bfbfbf" points="806,-56.5 806,-75.5 846,-75.5 846,-56.5 806,-56.5"/>
<text text-anchor="middle" x="826" y="-63.5" font-family="Helvetica,sans-Serif" font-size="10.00" fill="#000000">limits</text>
</g>
<!-- Node23&#45;&gt;Node25 -->
<g id="edge43" class="edge">
<title>Node23&#45;&gt;Node25</title>
<path fill="none" stroke="#191970" d="M878.8521,-112.2455C869.4913,-104.0549 855.9142,-92.1749 844.8651,-82.5069"/>
<polygon fill="#191970" stroke="#191970" points="846.8508,-79.5937 837.0202,-75.6427 842.2412,-84.8618 846.8508,-79.5937"/>
</g>
<!-- Node26 -->
<g id="node27" class="node">
<title>Node26</title>
<polygon fill="none" stroke="#bfbfbf" points="864,-56.5 864,-75.5 916,-75.5 916,-56.5 864,-56.5"/>
<text text-anchor="middle" x="890" y="-63.5" font-family="Helvetica,sans-Serif" font-size="10.00" fill="#000000">memory</text>
</g>
<!-- Node23&#45;&gt;Node26 -->
<g id="edge44" class="edge">
<title>Node23&#45;&gt;Node26</title>
<path fill="none" stroke="#191970" d="M890,-112.2455C890,-104.9382 890,-94.6944 890,-85.7046"/>
<polygon fill="#191970" stroke="#191970" points="893.5001,-85.6426 890,-75.6427 886.5001,-85.6427 893.5001,-85.6426"/>
</g>
<!-- Node27 -->
<g id="node28" class="node">
<title>Node27</title>
<polygon fill="none" stroke="#bfbfbf" points="934.5,-56.5 934.5,-75.5 977.5,-75.5 977.5,-56.5 934.5,-56.5"/>
<text text-anchor="middle" x="956" y="-63.5" font-family="Helvetica,sans-Serif" font-size="10.00" fill="#000000">queue</text>
</g>
<!-- Node23&#45;&gt;Node27 -->
<g id="edge46" class="edge">
<title>Node23&#45;&gt;Node27</title>
<path fill="none" stroke="#191970" d="M901.4963,-112.2455C911.2442,-103.9746 925.4259,-91.9416 936.8798,-82.2232"/>
<polygon fill="#191970" stroke="#191970" points="939.2747,-84.7813 944.6354,-75.6427 934.7459,-79.4437 939.2747,-84.7813"/>
</g>
<!-- Node28 -->
<g id="node29" class="node">
<title>Node28</title>
<polygon fill="none" stroke="#bfbfbf" points="995.5,-56.5 995.5,-75.5 1078.5,-75.5 1078.5,-56.5 995.5,-56.5"/>
<text text-anchor="middle" x="1037" y="-63.5" font-family="Helvetica,sans-Serif" font-size="10.00" fill="#000000">unordered_map</text>
</g>
<!-- Node23&#45;&gt;Node28 -->
<g id="edge48" class="edge">
<title>Node23&#45;&gt;Node28</title>
<path fill="none" stroke="#191970" d="M915.2702,-112.3733C939.3966,-103.1822 975.9362,-89.2624 1002.6877,-79.0713"/>
<polygon fill="#191970" stroke="#191970" points="1003.9607,-82.3318 1012.0596,-75.5011 1001.4687,-75.7904 1003.9607,-82.3318"/>
</g>
<!-- Node29 -->
<g id="node30" class="node">
<title>Node29</title>
<polygon fill="none" stroke="#bfbfbf" points="1370,-.5 1370,-19.5 1414,-19.5 1414,-.5 1370,-.5"/>
<text text-anchor="middle" x="1392" y="-7.5" font-family="Helvetica,sans-Serif" font-size="10.00" fill="#000000">vector</text>
</g>
<!-- Node23&#45;&gt;Node29 -->
<g id="edge49" class="edge">
<title>Node23&#45;&gt;Node29</title>
<path fill="none" stroke="#191970" d="M937.3495,-118.9038C1055.5455,-110.9851 1355.3099,-89.659 1372,-76 1385.4379,-65.0025 1390.069,-45.2828 1391.5589,-30.2534"/>
<polygon fill="#191970" stroke="#191970" points="1395.075,-30.0882 1392.1798,-19.8966 1388.0876,-29.6692 1395.075,-30.0882"/>
</g>
<!-- Node30 -->
<g id="node31" class="node">
<title>Node30</title>
<g id="a_node31"><a xlink:href="bufArray_8hpp.html" target="_top" xlink:title="bufArray.hpp">
<polygon fill="none" stroke="#000000" points="1275.5,-56.5 1275.5,-75.5 1346.5,-75.5 1346.5,-56.5 1275.5,-56.5"/>
<text text-anchor="middle" x="1311" y="-63.5" font-family="Helvetica,sans-Serif" font-size="10.00" fill="#000000">bufArray.hpp</text>
</a>
</g>
</g>
<!-- Node23&#45;&gt;Node30 -->
<g id="edge50" class="edge">
<title>Node23&#45;&gt;Node30</title>
<path fill="none" stroke="#191970" d="M937.0686,-115.7391C1018.4889,-104.9088 1184.6171,-82.811 1265.1696,-72.0962"/>
<polygon fill="#191970" stroke="#191970" points="1266.0355,-75.5119 1275.4866,-70.7239 1265.1124,-68.5731 1266.0355,-75.5119"/>
</g>
<!-- Node32 -->
<g id="node33" class="node">
<title>Node32</title>
<g id="a_node33"><a xlink:href="spinlock_8hpp.html" target="_top" xlink:title="spinlock.hpp">
<polygon fill="none" stroke="#000000" points="1441.5,-56.5 1441.5,-75.5 1512.5,-75.5 1512.5,-56.5 1441.5,-56.5"/>
<text text-anchor="middle" x="1477" y="-63.5" font-family="Helvetica,sans-Serif" font-size="10.00" fill="#000000">spinlock.hpp</text>
</a>
</g>
</g>
<!-- Node23&#45;&gt;Node32 -->
<g id="edge58" class="edge">
<title>Node23&#45;&gt;Node32</title>
<path fill="none" stroke="#191970" d="M937.0131,-118.6529C1049.7058,-110.5197 1332.8582,-89.4034 1427,-76 1428.4516,-75.7933 1429.9246,-75.5716 1431.4102,-75.3375"/>
<polygon fill="#191970" stroke="#191970" points="1432.038,-78.781 1441.3042,-73.6441 1430.857,-71.8813 1432.038,-78.781"/>
</g>
<!-- Node30&#45;&gt;Node3 -->
<g id="edge53" class="edge">
<title>Node30&#45;&gt;Node3</title>
<path fill="none" stroke="#191970" d="M1275.9311,-56.3733C1240.0066,-46.5116 1184.2499,-31.2059 1146.7194,-20.9034"/>
<polygon fill="#191970" stroke="#191970" points="1147.2187,-17.411 1136.6489,-18.1389 1145.3656,-24.1613 1147.2187,-17.411"/>
</g>
<!-- Node30&#45;&gt;Node7 -->
<g id="edge52" class="edge">
<title>Node30&#45;&gt;Node7</title>
<path fill="none" stroke="#191970" d="M1275.4861,-61.7299C1259.4623,-59.8637 1240.2902,-57.7144 1223,-56 1030.0151,-36.8646 797.9408,-18.8806 713.107,-12.4726"/>
<polygon fill="#191970" stroke="#191970" points="713.2793,-8.9758 703.0446,-11.7148 712.7535,-15.956 713.2793,-8.9758"/>
</g>
<!-- Node30&#45;&gt;Node14 -->
<g id="edge51" class="edge">
<title>Node30&#45;&gt;Node14</title>
<path fill="none" stroke="#191970" d="M1301.7681,-56.2455C1294.1683,-48.2155 1283.2123,-36.6394 1274.1632,-27.0781"/>
<polygon fill="#191970" stroke="#191970" points="1276.542,-24.4998 1267.1261,-19.6427 1271.4579,-29.3115 1276.542,-24.4998"/>
</g>
<!-- Node30&#45;&gt;Node29 -->
<g id="edge55" class="edge">
<title>Node30&#45;&gt;Node29</title>
<path fill="none" stroke="#191970" d="M1325.1091,-56.2455C1337.4209,-47.7337 1355.4958,-35.2375 1369.7538,-25.3801"/>
<polygon fill="#191970" stroke="#191970" points="1371.8174,-28.2085 1378.0526,-19.6427 1367.8366,-22.4506 1371.8174,-28.2085"/>
</g>
<!-- Node31 -->
<g id="node32" class="node">
<title>Node31</title>
<polygon fill="none" stroke="#bfbfbf" points="1301,-.5 1301,-19.5 1341,-19.5 1341,-.5 1301,-.5"/>
<text text-anchor="middle" x="1321" y="-7.5" font-family="Helvetica,sans-Serif" font-size="10.00" fill="#000000">utility</text>
</g>
<!-- Node30&#45;&gt;Node31 -->
<g id="edge54" class="edge">
<title>Node30&#45;&gt;Node31</title>
<path fill="none" stroke="#191970" d="M1312.7419,-56.2455C1314.0467,-48.9382 1315.876,-38.6944 1317.4813,-29.7046"/>
<polygon fill="#191970" stroke="#191970" points="1320.9656,-30.1022 1319.2781,-19.6427 1314.0746,-28.8717 1320.9656,-30.1022"/>
</g>
<!-- Node33 -->
<g id="node34" class="node">
<title>Node33</title>
<polygon fill="none" stroke="#bfbfbf" points="1454,-.5 1454,-19.5 1500,-19.5 1500,-.5 1454,-.5"/>
<text text-anchor="middle" x="1477" y="-7.5" font-family="Helvetica,sans-Serif" font-size="10.00" fill="#000000">atomic</text>
</g>
<!-- Node32&#45;&gt;Node33 -->
<g id="edge59" class="edge">
<title>Node32&#45;&gt;Node33</title>
<path fill="none" stroke="#191970" d="M1477,-56.2455C1477,-48.9382 1477,-38.6944 1477,-29.7046"/>
<polygon fill="#191970" stroke="#191970" points="1480.5001,-29.6426 1477,-19.6427 1473.5001,-29.6427 1480.5001,-29.6426"/>
</g>
<!-- Node34&#45;&gt;Node1 -->
<g id="edge64" class="edge">
<title>Node34&#45;&gt;Node1</title>
<path fill="none" stroke="#191970" d="M368.8789,-168.4357C327.0675,-159.4518 263.1913,-145.4191 208,-132 206.3138,-131.59 204.5875,-131.1628 202.8458,-130.7258"/>
<polygon fill="#191970" stroke="#191970" points="203.4283,-127.262 192.8723,-128.1679 201.6893,-134.0425 203.4283,-127.262"/>
</g>
<!-- Node34&#45;&gt;Node7 -->
<g id="edge63" class="edge">
<title>Node34&#45;&gt;Node7</title>
<path fill="none" stroke="#191970" d="M371.6458,-168.4793C351.7243,-161.725 329.6219,-150.4636 317,-132 297.9112,-104.0766 290.6191,-81.3613 313,-56 324.0239,-43.5082 558.4308,-21.0333 646.74,-12.9756"/>
<polygon fill="#191970" stroke="#191970" points="647.1177,-16.4558 656.7603,-12.0661 646.4849,-9.4845 647.1177,-16.4558"/>
</g>
</g>
</svg>
