<?xml version="1.0" encoding="UTF-8" standalone="no"?>
<!DOCTYPE svg PUBLIC "-//W3C//DTD SVG 1.1//EN"
 "http://www.w3.org/Graphics/SVG/1.1/DTD/svg11.dtd">
<!-- Generated by graphviz version 2.38.0 (20140413.2041)
 -->
<!-- Title: /home/dominik/uni/MoonState/include/helloBye2Proto.hpp Pages: 1 -->
<svg width="1611pt" height="263pt"
 viewBox="0.00 0.00 1611.00 263.00" xmlns="http://www.w3.org/2000/svg" xmlns:xlink="http://www.w3.org/1999/xlink">
<g id="graph0" class="graph" transform="scale(1 1) rotate(0) translate(4 259)">
<title>/home/dominik/uni/MoonState/include/helloBye2Proto.hpp</title>
<!-- Node1 -->
<g id="node1" class="node"><title>Node1</title>
<polygon fill="#bfbfbf" stroke="black" points="1088.5,-224.5 1088.5,-254.5 1235.5,-254.5 1235.5,-224.5 1088.5,-224.5"/>
<text text-anchor="start" x="1096.5" y="-242.5" font-family="Helvetica,sans-Serif" font-size="10.00">/home/dominik/uni/MoonState</text>
<text text-anchor="middle" x="1162" y="-231.5" font-family="Helvetica,sans-Serif" font-size="10.00">/include/helloBye2Proto.hpp</text>
</g>
<!-- Node2 -->
<g id="node2" class="node"><title>Node2</title>
<polygon fill="none" stroke="#bfbfbf" points="0,-56.5 0,-75.5 44,-75.5 44,-56.5 0,-56.5"/>
<text text-anchor="middle" x="22" y="-63.5" font-family="Helvetica,sans-Serif" font-size="10.00">mutex</text>
</g>
<!-- Node1&#45;&gt;Node2 -->
<g id="edge1" class="edge"><title>Node1&#45;&gt;Node2</title>
<path fill="none" stroke="midnightblue" d="M1088.44,-229.141C1012.59,-219.368 890.924,-203.353 786,-188 501.771,-146.411 159.127,-89.8446 54.1248,-72.3658"/>
<polygon fill="midnightblue" stroke="midnightblue" points="54.5986,-68.8965 44.1593,-70.7054 53.4481,-75.8014 54.5986,-68.8965"/>
</g>
<!-- Node3 -->
<g id="node3" class="node"><title>Node3</title>
<polygon fill="none" stroke="#bfbfbf" points="1551,-0.5 1551,-19.5 1603,-19.5 1603,-0.5 1551,-0.5"/>
<text text-anchor="middle" x="1577" y="-7.5" font-family="Helvetica,sans-Serif" font-size="10.00">sstream</text>
</g>
<!-- Node1&#45;&gt;Node3 -->
<g id="edge2" class="edge"><title>Node1&#45;&gt;Node3</title>
<path fill="none" stroke="midnightblue" d="M1235.79,-232.557C1318.1,-222.835 1452.11,-197.49 1547,-132 1574.46,-113.047 1585.11,-107.175 1597,-76 1603.1,-60.0216 1595.89,-41.3161 1588.48,-28.0846"/>
<polygon fill="midnightblue" stroke="midnightblue" points="1591.45,-26.2314 1583.24,-19.5347 1585.49,-29.8896 1591.45,-26.2314"/>
</g>
<!-- Node4 -->
<g id="node4" class="node"><title>Node4</title>
<g id="a_node4"><a xlink:href="common_8hpp.html" target="_top" xlink:title="common.hpp">
<polygon fill="none" stroke="black" points="998.5,-56.5 998.5,-75.5 1071.5,-75.5 1071.5,-56.5 998.5,-56.5"/>
<text text-anchor="middle" x="1035" y="-63.5" font-family="Helvetica,sans-Serif" font-size="10.00">common.hpp</text>
</a>
</g>
</g>
<!-- Node1&#45;&gt;Node4 -->
<g id="edge3" class="edge"><title>Node1&#45;&gt;Node4</title>
<path fill="none" stroke="midnightblue" d="M1142.25,-224.185C1117.99,-205.594 1077.22,-170.885 1054,-132 1045.43,-117.648 1040.52,-99.1868 1037.84,-85.6086"/>
<polygon fill="midnightblue" stroke="midnightblue" points="1041.26,-84.801 1036.09,-75.5487 1034.36,-86.0006 1041.26,-84.801"/>
</g>
<!-- Node6 -->
<g id="node6" class="node"><title>Node6</title>
<g id="a_node6"><a xlink:href="exceptions_8hpp.html" target="_top" xlink:title="exceptions.hpp">
<polygon fill="none" stroke="black" points="897.5,-56.5 897.5,-75.5 980.5,-75.5 980.5,-56.5 897.5,-56.5"/>
<text text-anchor="middle" x="939" y="-63.5" font-family="Helvetica,sans-Serif" font-size="10.00">exceptions.hpp</text>
</a>
</g>
</g>
<!-- Node1&#45;&gt;Node6 -->
<g id="edge5" class="edge"><title>Node1&#45;&gt;Node6</title>
<path fill="none" stroke="midnightblue" d="M1136.24,-224.306C1119.48,-214.719 1097.4,-201.409 1079,-188 1031.67,-153.518 980.767,-106.797 955.371,-82.747"/>
<polygon fill="midnightblue" stroke="midnightblue" points="957.713,-80.1439 948.059,-75.7793 952.884,-85.2116 957.713,-80.1439"/>
</g>
<!-- Node9 -->
<g id="node9" class="node"><title>Node9</title>
<g id="a_node9"><a xlink:href="headers_8hpp.html" target="_top" xlink:title="headers.hpp">
<polygon fill="none" stroke="black" points="1318,-56.5 1318,-75.5 1388,-75.5 1388,-56.5 1318,-56.5"/>
<text text-anchor="middle" x="1353" y="-63.5" font-family="Helvetica,sans-Serif" font-size="10.00">headers.hpp</text>
</a>
</g>
</g>
<!-- Node1&#45;&gt;Node9 -->
<g id="edge8" class="edge"><title>Node1&#45;&gt;Node9</title>
<path fill="none" stroke="midnightblue" d="M1235.64,-234.662C1301.76,-226.564 1393.04,-202.461 1424,-132 1433.93,-109.409 1408.78,-91.2542 1385.72,-79.9336"/>
<polygon fill="midnightblue" stroke="midnightblue" points="1386.95,-76.6476 1376.41,-75.6499 1384.03,-83.0075 1386.95,-76.6476"/>
</g>
<!-- Node14 -->
<g id="node14" class="node"><title>Node14</title>
<g id="a_node14"><a xlink:href="stateMachine_8hpp.html" target="_top" xlink:title="stateMachine.hpp">
<polygon fill="none" stroke="black" points="484,-112.5 484,-131.5 578,-131.5 578,-112.5 484,-112.5"/>
<text text-anchor="middle" x="531" y="-119.5" font-family="Helvetica,sans-Serif" font-size="10.00">stateMachine.hpp</text>
</a>
</g>
</g>
<!-- Node1&#45;&gt;Node14 -->
<g id="edge15" class="edge"><title>Node1&#45;&gt;Node14</title>
<path fill="none" stroke="midnightblue" d="M1088.38,-225.025C961.047,-201.717 702.342,-154.363 587.782,-133.394"/>
<polygon fill="midnightblue" stroke="midnightblue" points="588.277,-129.926 577.811,-131.568 587.017,-136.812 588.277,-129.926"/>
</g>
<!-- Node28 -->
<g id="node28" class="node"><title>Node28</title>
<g id="a_node28"><a xlink:href="helloBye2Proto_8cpp.html" target="_top" xlink:title="../src/helloBye2Proto.cpp">
<polygon fill="none" stroke="black" points="1226.5,-168.5 1226.5,-187.5 1353.5,-187.5 1353.5,-168.5 1226.5,-168.5"/>
<text text-anchor="middle" x="1290" y="-175.5" font-family="Helvetica,sans-Serif" font-size="10.00">../src/helloBye2Proto.cpp</text>
</a>
</g>
</g>
<!-- Node1&#45;&gt;Node28 -->
<g id="edge38" class="edge"><title>Node1&#45;&gt;Node28</title>
<path fill="none" stroke="midnightblue" d="M1186.49,-224.399C1206.6,-214.461 1235.05,-201.265 1257.12,-191.662"/>
<polygon fill="midnightblue" stroke="midnightblue" points="1258.64,-194.819 1266.45,-187.658 1255.88,-188.387 1258.64,-194.819"/>
</g>
<!-- Node5 -->
<g id="node5" class="node"><title>Node5</title>
<polygon fill="none" stroke="#bfbfbf" points="1153,-0.5 1153,-19.5 1199,-19.5 1199,-0.5 1153,-0.5"/>
<text text-anchor="middle" x="1176" y="-7.5" font-family="Helvetica,sans-Serif" font-size="10.00">cstdint</text>
</g>
<!-- Node4&#45;&gt;Node5 -->
<g id="edge4" class="edge"><title>Node4&#45;&gt;Node5</title>
<path fill="none" stroke="midnightblue" d="M1057.34,-56.4435C1080.75,-47.4776 1117.74,-33.314 1144.19,-23.1827"/>
<polygon fill="midnightblue" stroke="midnightblue" points="1145.68,-26.3615 1153.76,-19.5164 1143.17,-19.8245 1145.68,-26.3615"/>
</g>
<!-- Node7 -->
<g id="node7" class="node"><title>Node7</title>
<polygon fill="none" stroke="#bfbfbf" points="1031.5,-0.5 1031.5,-19.5 1090.5,-19.5 1090.5,-0.5 1031.5,-0.5"/>
<text text-anchor="middle" x="1061" y="-7.5" font-family="Helvetica,sans-Serif" font-size="10.00">exception</text>
</g>
<!-- Node6&#45;&gt;Node7 -->
<g id="edge6" class="edge"><title>Node6&#45;&gt;Node7</title>
<path fill="none" stroke="midnightblue" d="M958.331,-56.4435C978.32,-47.5961 1009.74,-33.6875 1032.56,-23.5865"/>
<polygon fill="midnightblue" stroke="midnightblue" points="1034.03,-26.7645 1041.76,-19.5164 1031.2,-20.3635 1034.03,-26.7645"/>
</g>
<!-- Node8 -->
<g id="node8" class="node"><title>Node8</title>
<polygon fill="none" stroke="#bfbfbf" points="781.5,-0.5 781.5,-19.5 840.5,-19.5 840.5,-0.5 781.5,-0.5"/>
<text text-anchor="middle" x="811" y="-7.5" font-family="Helvetica,sans-Serif" font-size="10.00">stdexcept</text>
</g>
<!-- Node6&#45;&gt;Node8 -->
<g id="edge7" class="edge"><title>Node6&#45;&gt;Node8</title>
<path fill="none" stroke="midnightblue" d="M918.718,-56.4435C897.653,-47.5566 864.483,-33.5632 840.514,-23.4514"/>
<polygon fill="midnightblue" stroke="midnightblue" points="841.761,-20.1787 831.187,-19.5164 839.04,-26.6283 841.761,-20.1787"/>
</g>
<!-- Node9&#45;&gt;Node3 -->
<g id="edge12" class="edge"><title>Node9&#45;&gt;Node3</title>
<path fill="none" stroke="midnightblue" d="M1388.49,-56.4435C1430.21,-46.388 1499.04,-29.7949 1540.98,-19.6844"/>
<polygon fill="midnightblue" stroke="midnightblue" points="1541.87,-23.0691 1550.77,-17.323 1540.23,-16.2641 1541.87,-23.0691"/>
</g>
<!-- Node9&#45;&gt;Node5 -->
<g id="edge10" class="edge"><title>Node9&#45;&gt;Node5</title>
<path fill="none" stroke="midnightblue" d="M1324.95,-56.4435C1293.42,-46.8219 1242.26,-31.2147 1208.87,-21.0283"/>
<polygon fill="midnightblue" stroke="midnightblue" points="1209.71,-17.6242 1199.12,-18.0537 1207.66,-24.3195 1209.71,-17.6242"/>
</g>
<!-- Node10 -->
<g id="node10" class="node"><title>Node10</title>
<polygon fill="none" stroke="#bfbfbf" points="1329,-0.5 1329,-19.5 1367,-19.5 1367,-0.5 1329,-0.5"/>
<text text-anchor="middle" x="1348" y="-7.5" font-family="Helvetica,sans-Serif" font-size="10.00">array</text>
</g>
<!-- Node9&#45;&gt;Node10 -->
<g id="edge9" class="edge"><title>Node9&#45;&gt;Node10</title>
<path fill="none" stroke="midnightblue" d="M1352.17,-56.083C1351.52,-49.0059 1350.58,-38.8611 1349.76,-29.9865"/>
<polygon fill="midnightblue" stroke="midnightblue" points="1353.22,-29.3858 1348.81,-19.7511 1346.25,-30.0312 1353.22,-29.3858"/>
</g>
<!-- Node11 -->
<g id="node11" class="node"><title>Node11</title>
<polygon fill="none" stroke="#bfbfbf" points="1385,-0.5 1385,-19.5 1431,-19.5 1431,-0.5 1385,-0.5"/>
<text text-anchor="middle" x="1408" y="-7.5" font-family="Helvetica,sans-Serif" font-size="10.00">cstring</text>
</g>
<!-- Node9&#45;&gt;Node11 -->
<g id="edge11" class="edge"><title>Node9&#45;&gt;Node11</title>
<path fill="none" stroke="midnightblue" d="M1362.08,-56.083C1370.17,-48.1409 1382.2,-36.3354 1391.91,-26.7973"/>
<polygon fill="midnightblue" stroke="midnightblue" points="1394.4,-29.2545 1399.09,-19.7511 1389.5,-24.2595 1394.4,-29.2545"/>
</g>
<!-- Node12 -->
<g id="node12" class="node"><title>Node12</title>
<polygon fill="none" stroke="#bfbfbf" points="1269.5,-0.5 1269.5,-19.5 1310.5,-19.5 1310.5,-0.5 1269.5,-0.5"/>
<text text-anchor="middle" x="1290" y="-7.5" font-family="Helvetica,sans-Serif" font-size="10.00">string</text>
</g>
<!-- Node9&#45;&gt;Node12 -->
<g id="edge13" class="edge"><title>Node9&#45;&gt;Node12</title>
<path fill="none" stroke="midnightblue" d="M1342.88,-56.324C1333.47,-48.2631 1319.26,-36.0765 1307.93,-26.3695"/>
<polygon fill="midnightblue" stroke="midnightblue" points="1310.18,-23.6844 1300.31,-19.8339 1305.62,-28.9993 1310.18,-23.6844"/>
</g>
<!-- Node13 -->
<g id="node13" class="node"><title>Node13</title>
<polygon fill="none" stroke="#bfbfbf" points="1449,-0.5 1449,-19.5 1511,-19.5 1511,-0.5 1449,-0.5"/>
<text text-anchor="middle" x="1480" y="-7.5" font-family="Helvetica,sans-Serif" font-size="10.00">arpa/inet.h</text>
</g>
<!-- Node9&#45;&gt;Node13 -->
<g id="edge14" class="edge"><title>Node9&#45;&gt;Node13</title>
<path fill="none" stroke="midnightblue" d="M1373.12,-56.4435C1394.02,-47.5566 1426.93,-33.5632 1450.72,-23.4514"/>
<polygon fill="midnightblue" stroke="midnightblue" points="1452.14,-26.6504 1459.97,-19.5164 1449.4,-20.2085 1452.14,-26.6504"/>
</g>
<!-- Node14&#45;&gt;Node2 -->
<g id="edge23" class="edge"><title>Node14&#45;&gt;Node2</title>
<path fill="none" stroke="midnightblue" d="M483.696,-118.854C398.198,-114.453 212.472,-102.503 58,-76 56.7499,-75.7855 55.4792,-75.5508 54.1984,-75.3002"/>
<polygon fill="midnightblue" stroke="midnightblue" points="54.8758,-71.8657 44.3581,-73.1416 53.3758,-78.7031 54.8758,-71.8657"/>
</g>
<!-- Node14&#45;&gt;Node4 -->
<g id="edge34" class="edge"><title>Node14&#45;&gt;Node4</title>
<path fill="none" stroke="midnightblue" d="M578.322,-117.844C659.84,-112.083 832.178,-98.4773 988.147,-75.9827"/>
<polygon fill="midnightblue" stroke="midnightblue" points="989.005,-79.3946 998.396,-74.4881 987.995,-72.4679 989.005,-79.3946"/>
</g>
<!-- Node14&#45;&gt;Node5 -->
<g id="edge18" class="edge"><title>Node14&#45;&gt;Node5</title>
<path fill="none" stroke="midnightblue" d="M571.149,-112.451C605.403,-104.623 655.683,-91.8573 698,-76 716.985,-68.8857 719.497,-61.5398 739,-56 893.679,-12.0641 939.139,-37.3343 1099,-20 1113.25,-18.4544 1128.98,-16.6368 1142.48,-15.0411"/>
<polygon fill="midnightblue" stroke="midnightblue" points="1143.24,-18.4749 1152.76,-13.8185 1142.42,-11.5239 1143.24,-18.4749"/>
</g>
<!-- Node14&#45;&gt;Node6 -->
<g id="edge35" class="edge"><title>Node14&#45;&gt;Node6</title>
<path fill="none" stroke="midnightblue" d="M578.169,-115.804C644.647,-108.316 769.928,-93.6009 887.06,-76.0746"/>
<polygon fill="midnightblue" stroke="midnightblue" points="887.912,-79.4858 897.279,-74.5351 886.869,-72.5639 887.912,-79.4858"/>
</g>
<!-- Node14&#45;&gt;Node8 -->
<g id="edge25" class="edge"><title>Node14&#45;&gt;Node8</title>
<path fill="none" stroke="midnightblue" d="M558.374,-112.442C585.071,-103.898 626.698,-90.0492 662,-76 681.959,-68.0571 686.349,-64.6758 706,-56 731.217,-44.8668 760.002,-32.5581 781.049,-23.632"/>
<polygon fill="midnightblue" stroke="midnightblue" points="782.577,-26.7858 790.421,-19.6637 779.847,-20.3399 782.577,-26.7858"/>
</g>
<!-- Node15 -->
<g id="node15" class="node"><title>Node15</title>
<polygon fill="none" stroke="#bfbfbf" points="47.5,-0.5 47.5,-19.5 96.5,-19.5 96.5,-0.5 47.5,-0.5"/>
<text text-anchor="middle" x="72" y="-7.5" font-family="Helvetica,sans-Serif" font-size="10.00">cassert</text>
</g>
<!-- Node14&#45;&gt;Node15 -->
<g id="edge16" class="edge"><title>Node14&#45;&gt;Node15</title>
<path fill="none" stroke="midnightblue" d="M483.758,-120.585C389.079,-118.996 179.955,-111.451 119,-76 100.612,-65.3058 87.4343,-44.2319 79.7957,-28.9724"/>
<polygon fill="midnightblue" stroke="midnightblue" points="82.7941,-27.1206 75.3964,-19.5361 76.4497,-30.0785 82.7941,-27.1206"/>
</g>
<!-- Node16 -->
<g id="node16" class="node"><title>Node16</title>
<polygon fill="none" stroke="#bfbfbf" points="317,-56.5 317,-75.5 363,-75.5 363,-56.5 317,-56.5"/>
<text text-anchor="middle" x="340" y="-63.5" font-family="Helvetica,sans-Serif" font-size="10.00">chrono</text>
</g>
<!-- Node14&#45;&gt;Node16 -->
<g id="edge17" class="edge"><title>Node14&#45;&gt;Node16</title>
<path fill="none" stroke="midnightblue" d="M500.735,-112.444C465.982,-102.618 409.151,-86.5506 373.206,-76.3882"/>
<polygon fill="midnightblue" stroke="midnightblue" points="373.789,-72.9157 363.214,-73.5631 371.884,-79.6517 373.789,-72.9157"/>
</g>
<!-- Node17 -->
<g id="node17" class="node"><title>Node17</title>
<polygon fill="none" stroke="#bfbfbf" points="820.5,-56.5 820.5,-75.5 879.5,-75.5 879.5,-56.5 820.5,-56.5"/>
<text text-anchor="middle" x="850" y="-63.5" font-family="Helvetica,sans-Serif" font-size="10.00">functional</text>
</g>
<!-- Node14&#45;&gt;Node17 -->
<g id="edge19" class="edge"><title>Node14&#45;&gt;Node17</title>
<path fill="none" stroke="midnightblue" d="M578.237,-114.401C632.021,-106.667 722.728,-92.9548 810.39,-76.0064"/>
<polygon fill="midnightblue" stroke="midnightblue" points="811.089,-79.4362 820.234,-74.0868 809.749,-72.5656 811.089,-79.4362"/>
</g>
<!-- Node18 -->
<g id="node18" class="node"><title>Node18</title>
<polygon fill="none" stroke="#bfbfbf" points="748,-56.5 748,-75.5 802,-75.5 802,-56.5 748,-56.5"/>
<text text-anchor="middle" x="775" y="-63.5" font-family="Helvetica,sans-Serif" font-size="10.00">iostream</text>
</g>
<!-- Node14&#45;&gt;Node18 -->
<g id="edge20" class="edge"><title>Node14&#45;&gt;Node18</title>
<path fill="none" stroke="midnightblue" d="M569.663,-112.444C615.789,-102.235 692.361,-85.2889 737.823,-75.2278"/>
<polygon fill="midnightblue" stroke="midnightblue" points="738.843,-78.5866 747.851,-73.0084 737.331,-71.752 738.843,-78.5866"/>
</g>
<!-- Node19 -->
<g id="node19" class="node"><title>Node19</title>
<polygon fill="none" stroke="#bfbfbf" points="381,-56.5 381,-75.5 421,-75.5 421,-56.5 381,-56.5"/>
<text text-anchor="middle" x="401" y="-63.5" font-family="Helvetica,sans-Serif" font-size="10.00">limits</text>
</g>
<!-- Node14&#45;&gt;Node19 -->
<g id="edge21" class="edge"><title>Node14&#45;&gt;Node19</title>
<path fill="none" stroke="midnightblue" d="M510.401,-112.444C488.881,-103.504 454.922,-89.3984 430.547,-79.2734"/>
<polygon fill="midnightblue" stroke="midnightblue" points="431.653,-75.9429 421.075,-75.339 428.968,-82.4074 431.653,-75.9429"/>
</g>
<!-- Node20 -->
<g id="node20" class="node"><title>Node20</title>
<polygon fill="none" stroke="#bfbfbf" points="439,-56.5 439,-75.5 491,-75.5 491,-56.5 439,-56.5"/>
<text text-anchor="middle" x="465" y="-63.5" font-family="Helvetica,sans-Serif" font-size="10.00">memory</text>
</g>
<!-- Node14&#45;&gt;Node20 -->
<g id="edge22" class="edge"><title>Node14&#45;&gt;Node20</title>
<path fill="none" stroke="midnightblue" d="M520.396,-112.324C510.544,-104.263 495.649,-92.0765 483.785,-82.3695"/>
<polygon fill="midnightblue" stroke="midnightblue" points="485.753,-79.4575 475.797,-75.8339 481.32,-84.8752 485.753,-79.4575"/>
</g>
<!-- Node21 -->
<g id="node21" class="node"><title>Node21</title>
<polygon fill="none" stroke="#bfbfbf" points="509.5,-56.5 509.5,-75.5 552.5,-75.5 552.5,-56.5 509.5,-56.5"/>
<text text-anchor="middle" x="531" y="-63.5" font-family="Helvetica,sans-Serif" font-size="10.00">queue</text>
</g>
<!-- Node14&#45;&gt;Node21 -->
<g id="edge24" class="edge"><title>Node14&#45;&gt;Node21</title>
<path fill="none" stroke="midnightblue" d="M531,-112.083C531,-105.006 531,-94.8611 531,-85.9865"/>
<polygon fill="midnightblue" stroke="midnightblue" points="534.5,-85.751 531,-75.7511 527.5,-85.7511 534.5,-85.751"/>
</g>
<!-- Node22 -->
<g id="node22" class="node"><title>Node22</title>
<polygon fill="none" stroke="#bfbfbf" points="570.5,-56.5 570.5,-75.5 653.5,-75.5 653.5,-56.5 570.5,-56.5"/>
<text text-anchor="middle" x="612" y="-63.5" font-family="Helvetica,sans-Serif" font-size="10.00">unordered_map</text>
</g>
<!-- Node14&#45;&gt;Node22 -->
<g id="edge26" class="edge"><title>Node14&#45;&gt;Node22</title>
<path fill="none" stroke="midnightblue" d="M544.014,-112.324C556.532,-103.979 575.682,-91.2122 590.471,-81.3524"/>
<polygon fill="midnightblue" stroke="midnightblue" points="592.639,-84.1137 599.018,-75.6545 588.756,-78.2894 592.639,-84.1137"/>
</g>
<!-- Node23 -->
<g id="node23" class="node"><title>Node23</title>
<polygon fill="none" stroke="#bfbfbf" points="115,-0.5 115,-19.5 159,-19.5 159,-0.5 115,-0.5"/>
<text text-anchor="middle" x="137" y="-7.5" font-family="Helvetica,sans-Serif" font-size="10.00">vector</text>
</g>
<!-- Node14&#45;&gt;Node23 -->
<g id="edge27" class="edge"><title>Node14&#45;&gt;Node23</title>
<path fill="none" stroke="midnightblue" d="M483.931,-119.191C382.864,-114.821 152.32,-102.076 129,-76 117.778,-63.4515 122.213,-43.6752 127.948,-29.2293"/>
<polygon fill="midnightblue" stroke="midnightblue" points="131.263,-30.3899 132.148,-19.8321 124.872,-27.5333 131.263,-30.3899"/>
</g>
<!-- Node24 -->
<g id="node24" class="node"><title>Node24</title>
<g id="a_node24"><a xlink:href="bufArray_8hpp.html" target="_top" xlink:title="bufArray.hpp">
<polygon fill="none" stroke="black" points="138.5,-56.5 138.5,-75.5 209.5,-75.5 209.5,-56.5 138.5,-56.5"/>
<text text-anchor="middle" x="174" y="-63.5" font-family="Helvetica,sans-Serif" font-size="10.00">bufArray.hpp</text>
</a>
</g>
</g>
<!-- Node14&#45;&gt;Node24 -->
<g id="edge28" class="edge"><title>Node14&#45;&gt;Node24</title>
<path fill="none" stroke="midnightblue" d="M483.934,-115.113C424.547,-107.49 319.052,-93.3039 219.437,-76.1712"/>
<polygon fill="midnightblue" stroke="midnightblue" points="219.958,-72.7094 209.507,-74.45 218.763,-79.6066 219.958,-72.7094"/>
</g>
<!-- Node26 -->
<g id="node26" class="node"><title>Node26</title>
<g id="a_node26"><a xlink:href="spinlock_8hpp.html" target="_top" xlink:title="spinlock.hpp">
<polygon fill="none" stroke="black" points="227.5,-56.5 227.5,-75.5 298.5,-75.5 298.5,-56.5 227.5,-56.5"/>
<text text-anchor="middle" x="263" y="-63.5" font-family="Helvetica,sans-Serif" font-size="10.00">spinlock.hpp</text>
</a>
</g>
</g>
<!-- Node14&#45;&gt;Node26 -->
<g id="edge36" class="edge"><title>Node14&#45;&gt;Node26</title>
<path fill="none" stroke="midnightblue" d="M488.535,-112.444C439.515,-102.567 359.192,-86.382 308.802,-76.2288"/>
<polygon fill="midnightblue" stroke="midnightblue" points="309.328,-72.7646 298.834,-74.2203 307.946,-79.6267 309.328,-72.7646"/>
</g>
<!-- Node24&#45;&gt;Node5 -->
<g id="edge30" class="edge"><title>Node24&#45;&gt;Node5</title>
<path fill="none" stroke="midnightblue" d="M209.941,-57.1578C212.66,-56.7151 215.368,-56.3208 218,-56 607.003,-8.58072 708.327,-50.7693 1099,-20 1113.29,-18.8743 1129.02,-17.1271 1142.52,-15.4706"/>
<polygon fill="midnightblue" stroke="midnightblue" points="1143.31,-18.8986 1152.8,-14.1751 1142.44,-11.9536 1143.31,-18.8986"/>
</g>
<!-- Node24&#45;&gt;Node8 -->
<g id="edge31" class="edge"><title>Node24&#45;&gt;Node8</title>
<path fill="none" stroke="midnightblue" d="M209.955,-57.2613C212.67,-56.7947 215.374,-56.3667 218,-56 424.977,-27.096 675.373,-15.7669 771.134,-12.2904"/>
<polygon fill="midnightblue" stroke="midnightblue" points="771.371,-15.7843 781.241,-11.932 771.123,-8.78865 771.371,-15.7843"/>
</g>
<!-- Node24&#45;&gt;Node15 -->
<g id="edge29" class="edge"><title>Node24&#45;&gt;Node15</title>
<path fill="none" stroke="midnightblue" d="M157.612,-56.324C141.329,-47.7034 116.133,-34.3643 97.2837,-24.3855"/>
<polygon fill="midnightblue" stroke="midnightblue" points="98.8229,-21.2402 88.3474,-19.6545 95.5477,-27.4267 98.8229,-21.2402"/>
</g>
<!-- Node24&#45;&gt;Node23 -->
<g id="edge33" class="edge"><title>Node24&#45;&gt;Node23</title>
<path fill="none" stroke="midnightblue" d="M167.89,-56.083C162.718,-48.5341 155.154,-37.4948 148.806,-28.2298"/>
<polygon fill="midnightblue" stroke="midnightblue" points="151.536,-26.0221 142.996,-19.7511 145.761,-29.9787 151.536,-26.0221"/>
</g>
<!-- Node25 -->
<g id="node25" class="node"><title>Node25</title>
<polygon fill="none" stroke="#bfbfbf" points="177,-0.5 177,-19.5 217,-19.5 217,-0.5 177,-0.5"/>
<text text-anchor="middle" x="197" y="-7.5" font-family="Helvetica,sans-Serif" font-size="10.00">utility</text>
</g>
<!-- Node24&#45;&gt;Node25 -->
<g id="edge32" class="edge"><title>Node24&#45;&gt;Node25</title>
<path fill="none" stroke="midnightblue" d="M177.798,-56.083C180.913,-48.77 185.423,-38.1814 189.289,-29.1034"/>
<polygon fill="midnightblue" stroke="midnightblue" points="192.574,-30.3229 193.273,-19.7511 186.134,-27.5798 192.574,-30.3229"/>
</g>
<!-- Node27 -->
<g id="node27" class="node"><title>Node27</title>
<polygon fill="none" stroke="#bfbfbf" points="240,-0.5 240,-19.5 286,-19.5 286,-0.5 240,-0.5"/>
<text text-anchor="middle" x="263" y="-7.5" font-family="Helvetica,sans-Serif" font-size="10.00">atomic</text>
</g>
<!-- Node26&#45;&gt;Node27 -->
<g id="edge37" class="edge"><title>Node26&#45;&gt;Node27</title>
<path fill="none" stroke="midnightblue" d="M263,-56.083C263,-49.0059 263,-38.8611 263,-29.9865"/>
<polygon fill="midnightblue" stroke="midnightblue" points="266.5,-29.751 263,-19.7511 259.5,-29.7511 266.5,-29.751"/>
</g>
<!-- Node28&#45;&gt;Node1 -->
<g id="edge53" class="edge"><title>Node28&#45;&gt;Node1</title>
<path fill="none" stroke="midnightblue" d="M1276.3,-187.658C1259.84,-196.16 1231.83,-209.393 1207.59,-220.228"/>
<polygon fill="midnightblue" stroke="midnightblue" points="1205.9,-217.149 1198.17,-224.399 1208.73,-223.549 1205.9,-217.149"/>
</g>
<!-- Node28&#45;&gt;Node3 -->
<g id="edge40" class="edge"><title>Node28&#45;&gt;Node3</title>
<path fill="none" stroke="midnightblue" d="M1353.67,-176.019C1423.5,-171.031 1532.01,-150.834 1580,-76 1588.76,-62.3438 1586.75,-43.5541 1583.29,-29.688"/>
<polygon fill="midnightblue" stroke="midnightblue" points="1586.57,-28.4226 1580.39,-19.8154 1579.85,-30.3965 1586.57,-28.4226"/>
</g>
<!-- Node28&#45;&gt;Node9 -->
<g id="edge52" class="edge"><title>Node28&#45;&gt;Node9</title>
<path fill="none" stroke="midnightblue" d="M1294.94,-168.368C1305.29,-150.296 1329.42,-108.176 1343.09,-84.3074"/>
<polygon fill="midnightblue" stroke="midnightblue" points="1346.15,-86.0085 1348.08,-75.5914 1340.07,-82.5295 1346.15,-86.0085"/>
</g>
<!-- Node29 -->
<g id="node29" class="node"><title>Node29</title>
<polygon fill="none" stroke="#bfbfbf" points="1525.5,-56.5 1525.5,-75.5 1570.5,-75.5 1570.5,-56.5 1525.5,-56.5"/>
<text text-anchor="middle" x="1548" y="-63.5" font-family="Helvetica,sans-Serif" font-size="10.00">cstdlib</text>
</g>
<!-- Node28&#45;&gt;Node29 -->
<g id="edge39" class="edge"><title>Node28&#45;&gt;Node29</title>
<path fill="none" stroke="midnightblue" d="M1319.78,-168.486C1347.27,-160.279 1389.02,-146.932 1424,-132 1460.12,-116.585 1500.03,-94.7399 1524.57,-80.719"/>
<polygon fill="midnightblue" stroke="midnightblue" points="1526.56,-83.6081 1533.48,-75.5825 1523.07,-77.5431 1526.56,-83.6081"/>
</g>
<!-- Node30 -->
<g id="node30" class="node"><title>Node30</title>
<g id="a_node30"><a xlink:href="IPv4__5TupleL2Ident_8hpp.html" target="_top" xlink:title="IPv4_5TupleL2Ident.hpp">
<polygon fill="none" stroke="black" points="1063,-112.5 1063,-131.5 1185,-131.5 1185,-112.5 1063,-112.5"/>
<text text-anchor="middle" x="1124" y="-119.5" font-family="Helvetica,sans-Serif" font-size="10.00">IPv4_5TupleL2Ident.hpp</text>
</a>
</g>
</g>
<!-- Node28&#45;&gt;Node30 -->
<g id="edge41" class="edge"><title>Node28&#45;&gt;Node30</title>
<path fill="none" stroke="midnightblue" d="M1263.7,-168.444C1235.65,-159.32 1191.06,-144.813 1159.82,-134.651"/>
<polygon fill="midnightblue" stroke="midnightblue" points="1160.77,-131.282 1150.18,-131.516 1158.61,-137.938 1160.77,-131.282"/>
</g>
<!-- Node31 -->
<g id="node31" class="node"><title>Node31</title>
<g id="a_node31"><a xlink:href="mbuf_8hpp.html" target="_top" xlink:title="mbuf.hpp">
<polygon fill="none" stroke="black" points="1357.5,-112.5 1357.5,-131.5 1414.5,-131.5 1414.5,-112.5 1357.5,-112.5"/>
<text text-anchor="middle" x="1386" y="-119.5" font-family="Helvetica,sans-Serif" font-size="10.00">mbuf.hpp</text>
</a>
</g>
</g>
<!-- Node28&#45;&gt;Node31 -->
<g id="edge54" class="edge"><title>Node28&#45;&gt;Node31</title>
<path fill="none" stroke="midnightblue" d="M1305.42,-168.324C1320.54,-159.822 1343.82,-146.729 1361.47,-136.797"/>
<polygon fill="midnightblue" stroke="midnightblue" points="1363.61,-139.608 1370.61,-131.655 1360.18,-133.507 1363.61,-139.608"/>
</g>
<!-- Node33 -->
<g id="node33" class="node"><title>Node33</title>
<g id="a_node33"><a xlink:href="samplePacket_8hpp.html" target="_top" xlink:title="samplePacket.hpp">
<polygon fill="none" stroke="black" points="1203,-112.5 1203,-131.5 1301,-131.5 1301,-112.5 1203,-112.5"/>
<text text-anchor="middle" x="1252" y="-119.5" font-family="Helvetica,sans-Serif" font-size="10.00">samplePacket.hpp</text>
</a>
</g>
</g>
<!-- Node28&#45;&gt;Node33 -->
<g id="edge57" class="edge"><title>Node28&#45;&gt;Node33</title>
<path fill="none" stroke="midnightblue" d="M1283.73,-168.083C1278.36,-160.455 1270.48,-149.264 1263.92,-139.941"/>
<polygon fill="midnightblue" stroke="midnightblue" points="1266.78,-137.915 1258.16,-131.751 1261.05,-141.943 1266.78,-137.915"/>
</g>
<!-- Node30&#45;&gt;Node3 -->
<g id="edge46" class="edge"><title>Node30&#45;&gt;Node3</title>
<path fill="none" stroke="midnightblue" d="M1185.01,-113.184C1253.08,-104.069 1358.68,-88.6394 1397,-76 1415.5,-69.8981 1417.99,-63.431 1436,-56 1470.95,-41.576 1512.31,-28.8659 1541.16,-20.6651"/>
<polygon fill="midnightblue" stroke="midnightblue" points="1542.13,-24.0283 1550.81,-17.957 1540.24,-17.2885 1542.13,-24.0283"/>
</g>
<!-- Node30&#45;&gt;Node4 -->
<g id="edge49" class="edge"><title>Node30&#45;&gt;Node4</title>
<path fill="none" stroke="midnightblue" d="M1109.7,-112.324C1095.82,-103.9 1074.51,-90.9709 1058.2,-81.0741"/>
<polygon fill="midnightblue" stroke="midnightblue" points="1059.63,-77.8495 1049.26,-75.6545 1056,-83.8341 1059.63,-77.8495"/>
</g>
<!-- Node30&#45;&gt;Node5 -->
<g id="edge42" class="edge"><title>Node30&#45;&gt;Node5</title>
<path fill="none" stroke="midnightblue" d="M1130.13,-112.34C1136.21,-103.496 1145.53,-89.2234 1152,-76 1159.44,-60.8059 1165.94,-42.6908 1170.3,-29.4487"/>
<polygon fill="midnightblue" stroke="midnightblue" points="1173.72,-30.2332 1173.43,-19.6426 1167.06,-28.1071 1173.72,-30.2332"/>
</g>
<!-- Node30&#45;&gt;Node6 -->
<g id="edge51" class="edge"><title>Node30&#45;&gt;Node6</title>
<path fill="none" stroke="midnightblue" d="M1094.69,-112.444C1063.16,-103.241 1012.87,-88.5617 978.014,-78.3879"/>
<polygon fill="midnightblue" stroke="midnightblue" points="978.757,-74.9587 968.177,-75.5164 976.795,-81.6783 978.757,-74.9587"/>
</g>
<!-- Node30&#45;&gt;Node7 -->
<g id="edge43" class="edge"><title>Node30&#45;&gt;Node7</title>
<path fill="none" stroke="midnightblue" d="M1124.52,-112.393C1124.92,-99.3391 1124.14,-74.138 1114,-56 1107.1,-43.653 1095.41,-33.1804 1084.76,-25.4534"/>
<polygon fill="midnightblue" stroke="midnightblue" points="1086.43,-22.3547 1076.19,-19.6276 1082.49,-28.1439 1086.43,-22.3547"/>
</g>
<!-- Node30&#45;&gt;Node8 -->
<g id="edge47" class="edge"><title>Node30&#45;&gt;Node8</title>
<path fill="none" stroke="midnightblue" d="M1120.71,-112.15C1114.89,-97.8017 1101.33,-69.6935 1080,-56 1042.73,-32.0707 916.268,-19.0834 850.883,-13.8251"/>
<polygon fill="midnightblue" stroke="midnightblue" points="850.799,-10.308 840.557,-13.0182 850.254,-17.2867 850.799,-10.308"/>
</g>
<!-- Node30&#45;&gt;Node9 -->
<g id="edge50" class="edge"><title>Node30&#45;&gt;Node9</title>
<path fill="none" stroke="midnightblue" d="M1160.29,-112.444C1200.22,-103.028 1264.46,-87.8791 1307.67,-77.6887"/>
<polygon fill="midnightblue" stroke="midnightblue" points="1308.71,-81.0408 1317.64,-75.339 1307.1,-74.2276 1308.71,-81.0408"/>
</g>
<!-- Node30&#45;&gt;Node12 -->
<g id="edge48" class="edge"><title>Node30&#45;&gt;Node12</title>
<path fill="none" stroke="midnightblue" d="M1137.03,-112.368C1165.51,-93.4924 1233.58,-48.385 1268.52,-25.2367"/>
<polygon fill="midnightblue" stroke="midnightblue" points="1270.63,-28.0328 1277.03,-19.5914 1266.77,-22.1977 1270.63,-28.0328"/>
</g>
<!-- Node30&#45;&gt;Node17 -->
<g id="edge44" class="edge"><title>Node30&#45;&gt;Node17</title>
<path fill="none" stroke="midnightblue" d="M1075.96,-112.482C1030.33,-104.247 959.568,-91.1038 889.694,-76.299"/>
<polygon fill="midnightblue" stroke="midnightblue" points="890.353,-72.861 879.843,-74.1993 888.893,-79.7072 890.353,-72.861"/>
</g>
<!-- Node30&#45;&gt;Node18 -->
<g id="edge45" class="edge"><title>Node30&#45;&gt;Node18</title>
<path fill="none" stroke="midnightblue" d="M1062.81,-114.079C1001.65,-106.739 904.768,-93.9671 811.903,-76.0063"/>
<polygon fill="midnightblue" stroke="midnightblue" points="812.546,-72.566 802.06,-74.08 811.202,-79.4356 812.546,-72.566"/>
</g>
<!-- Node31&#45;&gt;Node5 -->
<g id="edge55" class="edge"><title>Node31&#45;&gt;Node5</title>
<path fill="none" stroke="midnightblue" d="M1369.52,-112.368C1333.03,-93.2515 1245.16,-47.229 1201.51,-24.361"/>
<polygon fill="midnightblue" stroke="midnightblue" points="1202.88,-21.1311 1192.4,-19.5914 1199.64,-27.332 1202.88,-21.1311"/>
</g>
<!-- Node32 -->
<g id="node32" class="node"><title>Node32</title>
<polygon fill="none" stroke="#bfbfbf" points="1444.5,-56.5 1444.5,-75.5 1507.5,-75.5 1507.5,-56.5 1444.5,-56.5"/>
<text text-anchor="middle" x="1476" y="-63.5" font-family="Helvetica,sans-Serif" font-size="10.00">rte_mbuf.h</text>
</g>
<!-- Node31&#45;&gt;Node32 -->
<g id="edge56" class="edge"><title>Node31&#45;&gt;Node32</title>
<path fill="none" stroke="midnightblue" d="M1400.46,-112.324C1414.5,-103.9 1436.05,-90.9709 1452.54,-81.0741"/>
<polygon fill="midnightblue" stroke="midnightblue" points="1454.8,-83.8007 1461.58,-75.6545 1451.2,-77.7983 1454.8,-83.8007"/>
</g>
<!-- Node33&#45;&gt;Node5 -->
<g id="edge58" class="edge"><title>Node33&#45;&gt;Node5</title>
<path fill="none" stroke="midnightblue" d="M1246.04,-112.368C1233.49,-94.2153 1204.19,-51.8015 1187.74,-27.9902"/>
<polygon fill="midnightblue" stroke="midnightblue" points="1190.5,-25.8292 1181.94,-19.5914 1184.74,-29.8083 1190.5,-25.8292"/>
</g>
<!-- Node33&#45;&gt;Node29 -->
<g id="edge59" class="edge"><title>Node33&#45;&gt;Node29</title>
<path fill="none" stroke="midnightblue" d="M1301.17,-114.369C1352.44,-107.073 1435.26,-94.2133 1515.16,-76.224"/>
<polygon fill="midnightblue" stroke="midnightblue" points="1516.42,-79.5259 1525.39,-73.8877 1514.86,-72.7015 1516.42,-79.5259"/>
</g>
</g>
</svg>
