<?xml version="1.0" encoding="UTF-8" standalone="no"?>
<!DOCTYPE svg PUBLIC "-//W3C//DTD SVG 1.1//EN"
 "http://www.w3.org/Graphics/SVG/1.1/DTD/svg11.dtd">
<!-- Generated by graphviz version 2.40.1 (20161225.0304)
 -->
<!-- Title: /home/dominik/uni/MoonState/src/hexdump.cpp Pages: 1 -->
<svg width="365pt" height="151pt"
 viewBox="0.00 0.00 364.81 151.00" xmlns="http://www.w3.org/2000/svg" xmlns:xlink="http://www.w3.org/1999/xlink">
<g id="graph0" class="graph" transform="scale(1 1) rotate(0) translate(4 147)">
<title>/home/dominik/uni/MoonState/src/hexdump.cpp</title>
<!-- Node0 -->
<g id="node1" class="node">
<title>Node0</title>
<polygon fill="#bfbfbf" stroke="#000000" points="70.8143,-112.5 70.8143,-142.5 217.8143,-142.5 217.8143,-112.5 70.8143,-112.5"/>
<text text-anchor="start" x="78.8143" y="-130.5" font-family="Helvetica,sans-Serif" font-size="10.00" fill="#000000">/home/dominik/uni/MoonState</text>
<text text-anchor="middle" x="144.3143" y="-119.5" font-family="Helvetica,sans-Serif" font-size="10.00" fill="#000000">/src/hexdump.cpp</text>
</g>
<!-- Node1 -->
<g id="node2" class="node">
<title>Node1</title>
<polygon fill="none" stroke="#bfbfbf" points="97.8143,-.5 97.8143,-19.5 146.8143,-19.5 146.8143,-.5 97.8143,-.5"/>
<text text-anchor="middle" x="122.3143" y="-7.5" font-family="Helvetica,sans-Serif" font-size="10.00" fill="#000000">cassert</text>
</g>
<!-- Node0&#45;&gt;Node1 -->
<g id="edge1" class="edge">
<title>Node0&#45;&gt;Node1</title>
<path fill="none" stroke="#191970" d="M83.7659,-112.4417C50.8396,-102.8966 14.9063,-89.783 5.3143,-76 -18.0072,-42.4885 45.2831,-23.9458 87.6327,-15.5707"/>
<polygon fill="#191970" stroke="#191970" points="88.4342,-18.9815 97.6208,-13.7037 87.148,-12.1007 88.4342,-18.9815"/>
</g>
<!-- Node2 -->
<g id="node3" class="node">
<title>Node2</title>
<polygon fill="none" stroke="#bfbfbf" points="14.3143,-56.5 14.3143,-75.5 64.3143,-75.5 64.3143,-56.5 14.3143,-56.5"/>
<text text-anchor="middle" x="39.3143" y="-63.5" font-family="Helvetica,sans-Serif" font-size="10.00" fill="#000000">iomanip</text>
</g>
<!-- Node0&#45;&gt;Node2 -->
<g id="edge2" class="edge">
<title>Node0&#45;&gt;Node2</title>
<path fill="none" stroke="#191970" d="M118.6284,-112.4554C102.1847,-102.8241 80.9435,-90.3828 64.582,-80.7996"/>
<polygon fill="#191970" stroke="#191970" points="65.9834,-77.5643 55.5856,-75.5303 62.4455,-83.6045 65.9834,-77.5643"/>
</g>
<!-- Node3 -->
<g id="node4" class="node">
<title>Node3</title>
<polygon fill="none" stroke="#bfbfbf" points="82.3143,-56.5 82.3143,-75.5 136.3143,-75.5 136.3143,-56.5 82.3143,-56.5"/>
<text text-anchor="middle" x="109.3143" y="-63.5" font-family="Helvetica,sans-Serif" font-size="10.00" fill="#000000">iostream</text>
</g>
<!-- Node0&#45;&gt;Node3 -->
<g id="edge3" class="edge">
<title>Node0&#45;&gt;Node3</title>
<path fill="none" stroke="#191970" d="M135.6626,-112.2977C130.9055,-103.9388 124.9646,-93.4997 119.9287,-84.6509"/>
<polygon fill="#191970" stroke="#191970" points="122.9064,-82.8069 114.9183,-75.8469 116.8226,-86.2692 122.9064,-82.8069"/>
</g>
<!-- Node4 -->
<g id="node5" class="node">
<title>Node4</title>
<polygon fill="none" stroke="#bfbfbf" points="154.3143,-56.5 154.3143,-75.5 206.3143,-75.5 206.3143,-56.5 154.3143,-56.5"/>
<text text-anchor="middle" x="180.3143" y="-63.5" font-family="Helvetica,sans-Serif" font-size="10.00" fill="#000000">sstream</text>
</g>
<!-- Node0&#45;&gt;Node4 -->
<g id="edge4" class="edge">
<title>Node0&#45;&gt;Node4</title>
<path fill="none" stroke="#191970" d="M153.2132,-112.2977C158.1063,-103.9388 164.217,-93.4997 169.3967,-84.6509"/>
<polygon fill="#191970" stroke="#191970" points="172.519,-86.2452 174.5503,-75.8469 166.4779,-82.7089 172.519,-86.2452"/>
</g>
<!-- Node5 -->
<g id="node6" class="node">
<title>Node5</title>
<polygon fill="none" stroke="#bfbfbf" points="224.8143,-56.5 224.8143,-75.5 265.8143,-75.5 265.8143,-56.5 224.8143,-56.5"/>
<text text-anchor="middle" x="245.3143" y="-63.5" font-family="Helvetica,sans-Serif" font-size="10.00" fill="#000000">string</text>
</g>
<!-- Node0&#45;&gt;Node5 -->
<g id="edge5" class="edge">
<title>Node0&#45;&gt;Node5</title>
<path fill="none" stroke="#191970" d="M169.0217,-112.4554C184.839,-102.8241 205.271,-90.3828 221.0093,-80.7996"/>
<polygon fill="#191970" stroke="#191970" points="222.942,-83.7206 229.6629,-75.5303 219.3014,-77.7418 222.942,-83.7206"/>
</g>
<!-- Node6 -->
<g id="node7" class="node">
<title>Node6</title>
<g id="a_node7"><a xlink:href="common_8hpp.html" target="_top" xlink:title="common.hpp">
<polygon fill="none" stroke="#000000" points="283.8143,-56.5 283.8143,-75.5 356.8143,-75.5 356.8143,-56.5 283.8143,-56.5"/>
<text text-anchor="middle" x="320.3143" y="-63.5" font-family="Helvetica,sans-Serif" font-size="10.00" fill="#000000">common.hpp</text>
</a>
</g>
</g>
<!-- Node0&#45;&gt;Node6 -->
<g id="edge6" class="edge">
<title>Node0&#45;&gt;Node6</title>
<path fill="none" stroke="#191970" d="M187.3688,-112.4554C216.7348,-102.194 255.2288,-88.7429 283.2338,-78.9571"/>
<polygon fill="#191970" stroke="#191970" points="284.7549,-82.1332 293.0406,-75.5303 282.4457,-75.525 284.7549,-82.1332"/>
</g>
<!-- Node6&#45;&gt;Node1 -->
<g id="edge8" class="edge">
<title>Node6&#45;&gt;Node1</title>
<path fill="none" stroke="#191970" d="M286.2769,-56.3733C249.994,-46.1114 192.8684,-29.9547 156.5209,-19.6746"/>
<polygon fill="#191970" stroke="#191970" points="157.4297,-16.2944 146.8546,-16.9407 155.5246,-23.0302 157.4297,-16.2944"/>
</g>
<!-- Node7 -->
<g id="node8" class="node">
<title>Node7</title>
<polygon fill="none" stroke="#bfbfbf" points="301.3143,-.5 301.3143,-19.5 339.3143,-19.5 339.3143,-.5 301.3143,-.5"/>
<text text-anchor="middle" x="320.3143" y="-7.5" font-family="Helvetica,sans-Serif" font-size="10.00" fill="#000000">array</text>
</g>
<!-- Node6&#45;&gt;Node7 -->
<g id="edge7" class="edge">
<title>Node6&#45;&gt;Node7</title>
<path fill="none" stroke="#191970" d="M320.3143,-56.2455C320.3143,-48.9382 320.3143,-38.6944 320.3143,-29.7046"/>
<polygon fill="#191970" stroke="#191970" points="323.8144,-29.6426 320.3143,-19.6427 316.8144,-29.6427 323.8144,-29.6426"/>
</g>
</g>
</svg>
