<?xml version="1.0" encoding="UTF-8" standalone="no"?>
<!DOCTYPE svg PUBLIC "-//W3C//DTD SVG 1.1//EN"
 "http://www.w3.org/Graphics/SVG/1.1/DTD/svg11.dtd">
<!-- Generated by graphviz version 2.38.0 (20140413.2041)
 -->
<!-- Title: /home/dominik/uni/MoonState/src/hexdump.cpp Pages: 1 -->
<svg width="418pt" height="151pt"
 viewBox="0.00 0.00 418.00 151.00" xmlns="http://www.w3.org/2000/svg" xmlns:xlink="http://www.w3.org/1999/xlink">
<g id="graph0" class="graph" transform="scale(1 1) rotate(0) translate(4 147)">
<title>/home/dominik/uni/MoonState/src/hexdump.cpp</title>
<!-- Node1 -->
<g id="node1" class="node"><title>Node1</title>
<polygon fill="#bfbfbf" stroke="black" points="124,-112.5 124,-142.5 271,-142.5 271,-112.5 124,-112.5"/>
<text text-anchor="start" x="132" y="-130.5" font-family="Helvetica,sans-Serif" font-size="10.00">/home/dominik/uni/MoonState</text>
<text text-anchor="middle" x="197.5" y="-119.5" font-family="Helvetica,sans-Serif" font-size="10.00">/src/hexdump.cpp</text>
</g>
<!-- Node2 -->
<g id="node2" class="node"><title>Node2</title>
<polygon fill="none" stroke="#bfbfbf" points="-3.55271e-15,-56.5 -3.55271e-15,-75.5 49,-75.5 49,-56.5 -3.55271e-15,-56.5"/>
<text text-anchor="middle" x="24.5" y="-63.5" font-family="Helvetica,sans-Serif" font-size="10.00">cassert</text>
</g>
<!-- Node1&#45;&gt;Node2 -->
<g id="edge1" class="edge"><title>Node1&#45;&gt;Node2</title>
<path fill="none" stroke="midnightblue" d="M156.501,-112.399C126.779,-102.177 87.0358,-88.508 58.9491,-78.8481"/>
<polygon fill="midnightblue" stroke="midnightblue" points="59.7636,-75.4271 49.1689,-75.4844 57.4869,-82.0465 59.7636,-75.4271"/>
</g>
<!-- Node3 -->
<g id="node3" class="node"><title>Node3</title>
<polygon fill="none" stroke="#bfbfbf" points="67.5,-56.5 67.5,-75.5 117.5,-75.5 117.5,-56.5 67.5,-56.5"/>
<text text-anchor="middle" x="92.5" y="-63.5" font-family="Helvetica,sans-Serif" font-size="10.00">iomanip</text>
</g>
<!-- Node1&#45;&gt;Node3 -->
<g id="edge2" class="edge"><title>Node1&#45;&gt;Node3</title>
<path fill="none" stroke="midnightblue" d="M172.616,-112.399C155.786,-102.862 133.661,-90.3248 116.927,-80.8422"/>
<polygon fill="midnightblue" stroke="midnightblue" points="118.204,-77.5429 107.778,-75.6578 114.753,-83.633 118.204,-77.5429"/>
</g>
<!-- Node4 -->
<g id="node4" class="node"><title>Node4</title>
<polygon fill="none" stroke="#bfbfbf" points="135.5,-56.5 135.5,-75.5 189.5,-75.5 189.5,-56.5 135.5,-56.5"/>
<text text-anchor="middle" x="162.5" y="-63.5" font-family="Helvetica,sans-Serif" font-size="10.00">iostream</text>
</g>
<!-- Node1&#45;&gt;Node4 -->
<g id="edge3" class="edge"><title>Node1&#45;&gt;Node4</title>
<path fill="none" stroke="midnightblue" d="M189.205,-112.399C184.277,-104.021 177.986,-93.3269 172.749,-84.4229"/>
<polygon fill="midnightblue" stroke="midnightblue" points="175.68,-82.5025 167.593,-75.6578 169.646,-86.0517 175.68,-82.5025"/>
</g>
<!-- Node5 -->
<g id="node5" class="node"><title>Node5</title>
<polygon fill="none" stroke="#bfbfbf" points="207.5,-56.5 207.5,-75.5 259.5,-75.5 259.5,-56.5 207.5,-56.5"/>
<text text-anchor="middle" x="233.5" y="-63.5" font-family="Helvetica,sans-Serif" font-size="10.00">sstream</text>
</g>
<!-- Node1&#45;&gt;Node5 -->
<g id="edge4" class="edge"><title>Node1&#45;&gt;Node5</title>
<path fill="none" stroke="midnightblue" d="M206.031,-112.399C211.101,-104.021 217.571,-93.3269 222.958,-84.4229"/>
<polygon fill="midnightblue" stroke="midnightblue" points="226.08,-86.0255 228.262,-75.6578 220.09,-82.4018 226.08,-86.0255"/>
</g>
<!-- Node6 -->
<g id="node6" class="node"><title>Node6</title>
<polygon fill="none" stroke="#bfbfbf" points="278,-56.5 278,-75.5 319,-75.5 319,-56.5 278,-56.5"/>
<text text-anchor="middle" x="298.5" y="-63.5" font-family="Helvetica,sans-Serif" font-size="10.00">string</text>
</g>
<!-- Node1&#45;&gt;Node6 -->
<g id="edge5" class="edge"><title>Node1&#45;&gt;Node6</title>
<path fill="none" stroke="midnightblue" d="M221.436,-112.399C237.625,-102.862 258.907,-90.3248 275.003,-80.8422"/>
<polygon fill="midnightblue" stroke="midnightblue" points="276.964,-83.7492 283.804,-75.6578 273.411,-77.718 276.964,-83.7492"/>
</g>
<!-- Node7 -->
<g id="node7" class="node"><title>Node7</title>
<g id="a_node7"><a xlink:href="common_8hpp.html" target="_top" xlink:title="common.hpp">
<polygon fill="none" stroke="black" points="337,-56.5 337,-75.5 410,-75.5 410,-56.5 337,-56.5"/>
<text text-anchor="middle" x="373.5" y="-63.5" font-family="Helvetica,sans-Serif" font-size="10.00">common.hpp</text>
</a>
</g>
</g>
<!-- Node1&#45;&gt;Node7 -->
<g id="edge6" class="edge"><title>Node1&#45;&gt;Node7</title>
<path fill="none" stroke="midnightblue" d="M239.21,-112.399C269.489,-102.163 309.991,-88.4703 338.572,-78.8082"/>
<polygon fill="midnightblue" stroke="midnightblue" points="339.795,-82.0893 348.147,-75.5709 337.553,-75.458 339.795,-82.0893"/>
</g>
<!-- Node8 -->
<g id="node8" class="node"><title>Node8</title>
<polygon fill="none" stroke="#bfbfbf" points="350.5,-0.5 350.5,-19.5 396.5,-19.5 396.5,-0.5 350.5,-0.5"/>
<text text-anchor="middle" x="373.5" y="-7.5" font-family="Helvetica,sans-Serif" font-size="10.00">cstdint</text>
</g>
<!-- Node7&#45;&gt;Node8 -->
<g id="edge7" class="edge"><title>Node7&#45;&gt;Node8</title>
<path fill="none" stroke="midnightblue" d="M373.5,-56.083C373.5,-49.0059 373.5,-38.8611 373.5,-29.9865"/>
<polygon fill="midnightblue" stroke="midnightblue" points="377,-29.751 373.5,-19.7511 370,-29.7511 377,-29.751"/>
</g>
</g>
</svg>
