<?xml version="1.0" encoding="UTF-8" standalone="no"?>
<!DOCTYPE svg PUBLIC "-//W3C//DTD SVG 1.1//EN"
 "http://www.w3.org/Graphics/SVG/1.1/DTD/svg11.dtd">
<!-- Generated by graphviz version 2.38.0 (20140413.2041)
 -->
<!-- Title: /home/dominik/uni/MoonState/include/IPv4_5TupleL2Ident.hpp Pages: 1 -->
<svg width="607pt" height="151pt"
 viewBox="0.00 0.00 607.00 151.00" xmlns="http://www.w3.org/2000/svg" xmlns:xlink="http://www.w3.org/1999/xlink">
<g id="graph0" class="graph" transform="scale(1 1) rotate(0) translate(4 147)">
<title>/home/dominik/uni/MoonState/include/IPv4_5TupleL2Ident.hpp</title>
<!-- Node1 -->
<g id="node1" class="node"><title>Node1</title>
<polygon fill="#bfbfbf" stroke="black" points="188,-112.5 188,-142.5 346,-142.5 346,-112.5 188,-112.5"/>
<text text-anchor="start" x="196" y="-130.5" font-family="Helvetica,sans-Serif" font-size="10.00">/home/dominik/uni/MoonState</text>
<text text-anchor="middle" x="267" y="-119.5" font-family="Helvetica,sans-Serif" font-size="10.00">/include/IPv4_5TupleL2Ident.hpp</text>
</g>
<!-- Node2 -->
<g id="node2" class="node"><title>Node2</title>
<polygon fill="none" stroke="#bfbfbf" points="0,-0.5 0,-19.5 46,-19.5 46,-0.5 0,-0.5"/>
<text text-anchor="middle" x="23" y="-7.5" font-family="Helvetica,sans-Serif" font-size="10.00">cstdint</text>
</g>
<!-- Node1&#45;&gt;Node2 -->
<g id="edge1" class="edge"><title>Node1&#45;&gt;Node2</title>
<path fill="none" stroke="midnightblue" d="M187.73,-120.574C125.009,-114.054 44.6553,-100.994 24,-76 13.4583,-63.244 14.6642,-43.777 17.6188,-29.4712"/>
<polygon fill="midnightblue" stroke="midnightblue" points="21.0232,-30.2844 20.0536,-19.734 14.2322,-28.5863 21.0232,-30.2844"/>
</g>
<!-- Node3 -->
<g id="node3" class="node"><title>Node3</title>
<polygon fill="none" stroke="#bfbfbf" points="394.5,-0.5 394.5,-19.5 453.5,-19.5 453.5,-0.5 394.5,-0.5"/>
<text text-anchor="middle" x="424" y="-7.5" font-family="Helvetica,sans-Serif" font-size="10.00">exception</text>
</g>
<!-- Node1&#45;&gt;Node3 -->
<g id="edge2" class="edge"><title>Node1&#45;&gt;Node3</title>
<path fill="none" stroke="midnightblue" d="M274.207,-112.282C282.769,-96.6339 298.391,-71.6312 318,-56 337.569,-40.4006 363.344,-29.2973 384.578,-22.023"/>
<polygon fill="midnightblue" stroke="midnightblue" points="385.863,-25.2851 394.282,-18.8523 383.689,-18.6313 385.863,-25.2851"/>
</g>
<!-- Node4 -->
<g id="node4" class="node"><title>Node4</title>
<polygon fill="none" stroke="#bfbfbf" points="467.5,-56.5 467.5,-75.5 526.5,-75.5 526.5,-56.5 467.5,-56.5"/>
<text text-anchor="middle" x="497" y="-63.5" font-family="Helvetica,sans-Serif" font-size="10.00">functional</text>
</g>
<!-- Node1&#45;&gt;Node4 -->
<g id="edge3" class="edge"><title>Node1&#45;&gt;Node4</title>
<path fill="none" stroke="midnightblue" d="M321.216,-112.475C362.976,-101.672 419.742,-86.9862 457.333,-77.2617"/>
<polygon fill="midnightblue" stroke="midnightblue" points="458.594,-80.5508 467.399,-74.6577 456.841,-73.7739 458.594,-80.5508"/>
</g>
<!-- Node5 -->
<g id="node5" class="node"><title>Node5</title>
<polygon fill="none" stroke="#bfbfbf" points="545,-56.5 545,-75.5 599,-75.5 599,-56.5 545,-56.5"/>
<text text-anchor="middle" x="572" y="-63.5" font-family="Helvetica,sans-Serif" font-size="10.00">iostream</text>
</g>
<!-- Node1&#45;&gt;Node5 -->
<g id="edge4" class="edge"><title>Node1&#45;&gt;Node5</title>
<path fill="none" stroke="midnightblue" d="M346.112,-112.923C397.423,-103.819 465.922,-91.1097 535.143,-76.0893"/>
<polygon fill="midnightblue" stroke="midnightblue" points="535.891,-79.5086 544.914,-73.9547 534.397,-72.6699 535.891,-79.5086"/>
</g>
<!-- Node6 -->
<g id="node6" class="node"><title>Node6</title>
<polygon fill="none" stroke="#bfbfbf" points="64,-0.5 64,-19.5 116,-19.5 116,-0.5 64,-0.5"/>
<text text-anchor="middle" x="90" y="-7.5" font-family="Helvetica,sans-Serif" font-size="10.00">sstream</text>
</g>
<!-- Node1&#45;&gt;Node6 -->
<g id="edge5" class="edge"><title>Node1&#45;&gt;Node6</title>
<path fill="none" stroke="midnightblue" d="M238.234,-112.402C219.5,-102.854 194.774,-89.5514 174,-76 150.064,-60.3858 124.323,-39.8538 107.735,-26.0815"/>
<polygon fill="midnightblue" stroke="midnightblue" points="109.865,-23.2998 99.9527,-19.5574 105.367,-28.6641 109.865,-23.2998"/>
</g>
<!-- Node7 -->
<g id="node7" class="node"><title>Node7</title>
<polygon fill="none" stroke="#bfbfbf" points="471.5,-0.5 471.5,-19.5 530.5,-19.5 530.5,-0.5 471.5,-0.5"/>
<text text-anchor="middle" x="501" y="-7.5" font-family="Helvetica,sans-Serif" font-size="10.00">stdexcept</text>
</g>
<!-- Node1&#45;&gt;Node7 -->
<g id="edge6" class="edge"><title>Node1&#45;&gt;Node7</title>
<path fill="none" stroke="midnightblue" d="M324.897,-112.424C354.118,-104.055 389.522,-91.9323 419,-76 444.041,-62.4657 469.147,-41.1489 484.858,-26.6464"/>
<polygon fill="midnightblue" stroke="midnightblue" points="487.288,-29.1656 492.168,-19.7611 482.489,-24.0702 487.288,-29.1656"/>
</g>
<!-- Node8 -->
<g id="node8" class="node"><title>Node8</title>
<polygon fill="none" stroke="#bfbfbf" points="134.5,-0.5 134.5,-19.5 175.5,-19.5 175.5,-0.5 134.5,-0.5"/>
<text text-anchor="middle" x="155" y="-7.5" font-family="Helvetica,sans-Serif" font-size="10.00">string</text>
</g>
<!-- Node1&#45;&gt;Node8 -->
<g id="edge7" class="edge"><title>Node1&#45;&gt;Node8</title>
<path fill="none" stroke="midnightblue" d="M239.748,-112.298C224.414,-103.356 205.664,-90.7311 192,-76 179.193,-62.193 169.022,-43.1681 162.61,-29.2689"/>
<polygon fill="midnightblue" stroke="midnightblue" points="165.683,-27.5606 158.459,-19.8105 159.273,-30.374 165.683,-27.5606"/>
</g>
<!-- Node9 -->
<g id="node9" class="node"><title>Node9</title>
<g id="a_node9"><a xlink:href="common_8hpp.html" target="_top" xlink:title="common.hpp">
<polygon fill="none" stroke="black" points="33.5,-56.5 33.5,-75.5 106.5,-75.5 106.5,-56.5 33.5,-56.5"/>
<text text-anchor="middle" x="70" y="-63.5" font-family="Helvetica,sans-Serif" font-size="10.00">common.hpp</text>
</a>
</g>
</g>
<!-- Node1&#45;&gt;Node9 -->
<g id="edge8" class="edge"><title>Node1&#45;&gt;Node9</title>
<path fill="none" stroke="midnightblue" d="M220.314,-112.399C186.125,-102.073 140.294,-88.2309 108.261,-78.5559"/>
<polygon fill="midnightblue" stroke="midnightblue" points="108.963,-75.1118 98.3777,-75.5709 106.939,-81.8128 108.963,-75.1118"/>
</g>
<!-- Node10 -->
<g id="node10" class="node"><title>Node10</title>
<g id="a_node10"><a xlink:href="headers_8hpp.html" target="_top" xlink:title="headers.hpp">
<polygon fill="none" stroke="black" points="201,-56.5 201,-75.5 271,-75.5 271,-56.5 201,-56.5"/>
<text text-anchor="middle" x="236" y="-63.5" font-family="Helvetica,sans-Serif" font-size="10.00">headers.hpp</text>
</a>
</g>
</g>
<!-- Node1&#45;&gt;Node10 -->
<g id="edge10" class="edge"><title>Node1&#45;&gt;Node10</title>
<path fill="none" stroke="midnightblue" d="M259.653,-112.399C255.335,-104.11 249.835,-93.5542 245.226,-84.7077"/>
<polygon fill="midnightblue" stroke="midnightblue" points="248.235,-82.9091 240.511,-75.6578 242.027,-86.1435 248.235,-82.9091"/>
</g>
<!-- Node14 -->
<g id="node14" class="node"><title>Node14</title>
<g id="a_node14"><a xlink:href="exceptions_8hpp.html" target="_top" xlink:title="exceptions.hpp">
<polygon fill="none" stroke="black" points="327.5,-56.5 327.5,-75.5 410.5,-75.5 410.5,-56.5 327.5,-56.5"/>
<text text-anchor="middle" x="369" y="-63.5" font-family="Helvetica,sans-Serif" font-size="10.00">exceptions.hpp</text>
</a>
</g>
</g>
<!-- Node1&#45;&gt;Node14 -->
<g id="edge17" class="edge"><title>Node1&#45;&gt;Node14</title>
<path fill="none" stroke="midnightblue" d="M291.173,-112.399C307.522,-102.862 329.015,-90.3248 345.27,-80.8422"/>
<polygon fill="midnightblue" stroke="midnightblue" points="347.284,-83.7198 354.158,-75.6578 343.757,-77.6733 347.284,-83.7198"/>
</g>
<!-- Node9&#45;&gt;Node2 -->
<g id="edge9" class="edge"><title>Node9&#45;&gt;Node2</title>
<path fill="none" stroke="midnightblue" d="M62.2389,-56.083C55.4632,-48.2982 45.4568,-36.8015 37.2449,-27.3665"/>
<polygon fill="midnightblue" stroke="midnightblue" points="39.822,-24.9963 30.6167,-19.7511 34.5419,-29.592 39.822,-24.9963"/>
</g>
<!-- Node10&#45;&gt;Node2 -->
<g id="edge12" class="edge"><title>Node10&#45;&gt;Node2</title>
<path fill="none" stroke="midnightblue" d="M200.882,-56.6048C166.353,-48.2762 111.916,-34.9482 55.8013,-20.1546"/>
<polygon fill="midnightblue" stroke="midnightblue" points="56.6118,-16.7486 46.0491,-17.5731 54.8205,-23.5156 56.6118,-16.7486"/>
</g>
<!-- Node10&#45;&gt;Node6 -->
<g id="edge14" class="edge"><title>Node10&#45;&gt;Node6</title>
<path fill="none" stroke="midnightblue" d="M212.866,-56.4435C188.518,-47.4381 149.993,-33.1891 122.577,-23.049"/>
<polygon fill="midnightblue" stroke="midnightblue" points="123.619,-19.7028 113.026,-19.5164 121.191,-26.2681 123.619,-19.7028"/>
</g>
<!-- Node10&#45;&gt;Node8 -->
<g id="edge15" class="edge"><title>Node10&#45;&gt;Node8</title>
<path fill="none" stroke="midnightblue" d="M222.986,-56.324C210.468,-47.979 191.318,-35.2122 176.529,-25.3524"/>
<polygon fill="midnightblue" stroke="midnightblue" points="178.244,-22.2894 167.982,-19.6545 174.361,-28.1137 178.244,-22.2894"/>
</g>
<!-- Node11 -->
<g id="node11" class="node"><title>Node11</title>
<polygon fill="none" stroke="#bfbfbf" points="194,-0.5 194,-19.5 232,-19.5 232,-0.5 194,-0.5"/>
<text text-anchor="middle" x="213" y="-7.5" font-family="Helvetica,sans-Serif" font-size="10.00">array</text>
</g>
<!-- Node10&#45;&gt;Node11 -->
<g id="edge11" class="edge"><title>Node10&#45;&gt;Node11</title>
<path fill="none" stroke="midnightblue" d="M232.202,-56.083C229.087,-48.77 224.577,-38.1814 220.711,-29.1034"/>
<polygon fill="midnightblue" stroke="midnightblue" points="223.866,-27.5798 216.727,-19.7511 217.426,-30.3229 223.866,-27.5798"/>
</g>
<!-- Node12 -->
<g id="node12" class="node"><title>Node12</title>
<polygon fill="none" stroke="#bfbfbf" points="250,-0.5 250,-19.5 296,-19.5 296,-0.5 250,-0.5"/>
<text text-anchor="middle" x="273" y="-7.5" font-family="Helvetica,sans-Serif" font-size="10.00">cstring</text>
</g>
<!-- Node10&#45;&gt;Node12 -->
<g id="edge13" class="edge"><title>Node10&#45;&gt;Node12</title>
<path fill="none" stroke="midnightblue" d="M242.11,-56.083C247.282,-48.5341 254.846,-37.4948 261.194,-28.2298"/>
<polygon fill="midnightblue" stroke="midnightblue" points="264.239,-29.9787 267.004,-19.7511 258.464,-26.0221 264.239,-29.9787"/>
</g>
<!-- Node13 -->
<g id="node13" class="node"><title>Node13</title>
<polygon fill="none" stroke="#bfbfbf" points="314,-0.5 314,-19.5 376,-19.5 376,-0.5 314,-0.5"/>
<text text-anchor="middle" x="345" y="-7.5" font-family="Helvetica,sans-Serif" font-size="10.00">arpa/inet.h</text>
</g>
<!-- Node10&#45;&gt;Node13 -->
<g id="edge16" class="edge"><title>Node10&#45;&gt;Node13</title>
<path fill="none" stroke="midnightblue" d="M253.513,-56.324C271.072,-47.6247 298.331,-34.1202 318.531,-24.113"/>
<polygon fill="midnightblue" stroke="midnightblue" points="320.124,-27.23 327.531,-19.6545 317.016,-20.9575 320.124,-27.23"/>
</g>
<!-- Node14&#45;&gt;Node3 -->
<g id="edge18" class="edge"><title>Node14&#45;&gt;Node3</title>
<path fill="none" stroke="midnightblue" d="M378.082,-56.083C386.171,-48.1409 398.195,-36.3354 407.91,-26.7973"/>
<polygon fill="midnightblue" stroke="midnightblue" points="410.403,-29.2545 415.087,-19.7511 405.499,-24.2595 410.403,-29.2545"/>
</g>
<!-- Node14&#45;&gt;Node7 -->
<g id="edge19" class="edge"><title>Node14&#45;&gt;Node7</title>
<path fill="none" stroke="midnightblue" d="M389.916,-56.4435C411.736,-47.5171 446.15,-33.4387 470.892,-23.3168"/>
<polygon fill="midnightblue" stroke="midnightblue" points="472.252,-26.5422 480.182,-19.5164 469.601,-20.0634 472.252,-26.5422"/>
</g>
</g>
</svg>
