<?xml version="1.0" encoding="UTF-8" standalone="no"?>
<!DOCTYPE svg PUBLIC "-//W3C//DTD SVG 1.1//EN"
 "http://www.w3.org/Graphics/SVG/1.1/DTD/svg11.dtd">
<!-- Generated by graphviz version 2.38.0 (20140413.2041)
 -->
<!-- Title: /home/dominik/uni/MoonState/include/IPv4_5TupleL2Ident.hpp Pages: 1 -->
<svg width="663pt" height="307pt"
 viewBox="0.00 0.00 662.97 307.00" xmlns="http://www.w3.org/2000/svg" xmlns:xlink="http://www.w3.org/1999/xlink">
<g id="graph0" class="graph" transform="scale(1 1) rotate(0) translate(4 303)">
<title>/home/dominik/uni/MoonState/include/IPv4_5TupleL2Ident.hpp</title>
<!-- Node1 -->
<g id="node1" class="node"><title>Node1</title>
<polygon fill="#bfbfbf" stroke="black" points="406.5,-268.5 406.5,-298.5 564.5,-298.5 564.5,-268.5 406.5,-268.5"/>
<text text-anchor="start" x="414.5" y="-286.5" font-family="Helvetica,sans-Serif" font-size="10.00">/home/dominik/uni/MoonState</text>
<text text-anchor="middle" x="485.5" y="-275.5" font-family="Helvetica,sans-Serif" font-size="10.00">/include/IPv4_5TupleL2Ident.hpp</text>
</g>
<!-- Node2 -->
<g id="node2" class="node"><title>Node2</title>
<g id="a_node2"><a xlink:href="helloBye2Proto_8cpp.html" target="_top" xlink:title="/home/dominik/uni/MoonState\l/src/helloBye2Proto.cpp">
<polygon fill="none" stroke="black" points="165,-201.5 165,-231.5 312,-231.5 312,-201.5 165,-201.5"/>
<text text-anchor="start" x="173" y="-219.5" font-family="Helvetica,sans-Serif" font-size="10.00">/home/dominik/uni/MoonState</text>
<text text-anchor="middle" x="238.5" y="-208.5" font-family="Helvetica,sans-Serif" font-size="10.00">/src/helloBye2Proto.cpp</text>
</a>
</g>
</g>
<!-- Node1&#45;&gt;Node2 -->
<g id="edge1" class="edge"><title>Node1&#45;&gt;Node2</title>
<path fill="none" stroke="midnightblue" d="M422.485,-265.917C382.177,-255.31 330.455,-241.699 292.121,-231.611"/>
<polygon fill="midnightblue" stroke="midnightblue" points="421.647,-269.316 432.209,-268.476 423.429,-262.546 421.647,-269.316"/>
</g>
<!-- Node7 -->
<g id="node7" class="node"><title>Node7</title>
<g id="a_node7"><a xlink:href="helloByeProto_8cpp.html" target="_top" xlink:title="/home/dominik/uni/MoonState\l/src/helloByeProto.cpp">
<polygon fill="none" stroke="black" points="412,-201.5 412,-231.5 559,-231.5 559,-201.5 412,-201.5"/>
<text text-anchor="start" x="420" y="-219.5" font-family="Helvetica,sans-Serif" font-size="10.00">/home/dominik/uni/MoonState</text>
<text text-anchor="middle" x="485.5" y="-208.5" font-family="Helvetica,sans-Serif" font-size="10.00">/src/helloByeProto.cpp</text>
</a>
</g>
</g>
<!-- Node1&#45;&gt;Node7 -->
<g id="edge7" class="edge"><title>Node1&#45;&gt;Node7</title>
<path fill="none" stroke="midnightblue" d="M485.5,-258.108C485.5,-249.154 485.5,-239.323 485.5,-231.577"/>
<polygon fill="midnightblue" stroke="midnightblue" points="482,-258.396 485.5,-268.396 489,-258.396 482,-258.396"/>
</g>
<!-- Node10 -->
<g id="node10" class="node"><title>Node10</title>
<g id="a_node10"><a xlink:href="helloBye__C_8cpp.html" target="_top" xlink:title="/home/dominik/uni/MoonState\l/src/helloBye_C.cpp">
<polygon fill="none" stroke="black" points="463,-0.5 463,-30.5 610,-30.5 610,-0.5 463,-0.5"/>
<text text-anchor="start" x="471" y="-18.5" font-family="Helvetica,sans-Serif" font-size="10.00">/home/dominik/uni/MoonState</text>
<text text-anchor="middle" x="536.5" y="-7.5" font-family="Helvetica,sans-Serif" font-size="10.00">/src/helloBye_C.cpp</text>
</a>
</g>
</g>
<!-- Node1&#45;&gt;Node10 -->
<g id="edge13" class="edge"><title>Node1&#45;&gt;Node10</title>
<path fill="none" stroke="midnightblue" d="M524.387,-263.498C538.99,-255.156 555.05,-244.418 567.5,-232 617.1,-182.528 631.323,-165.379 650.5,-98 654.272,-84.7485 658.015,-78.548 650.5,-67 639.166,-49.5824 620.301,-38.1264 601.147,-30.6102"/>
<polygon fill="midnightblue" stroke="midnightblue" points="522.6,-260.487 515.528,-268.377 525.976,-266.619 522.6,-260.487"/>
</g>
<!-- Node3 -->
<g id="node3" class="node"><title>Node3</title>
<g id="a_node3"><a xlink:href="helloBye2Proto_8hpp.html" target="_top" xlink:title="/home/dominik/uni/MoonState\l/include/helloBye2Proto.hpp">
<polygon fill="none" stroke="black" points="165,-134.5 165,-164.5 312,-164.5 312,-134.5 165,-134.5"/>
<text text-anchor="start" x="173" y="-152.5" font-family="Helvetica,sans-Serif" font-size="10.00">/home/dominik/uni/MoonState</text>
<text text-anchor="middle" x="238.5" y="-141.5" font-family="Helvetica,sans-Serif" font-size="10.00">/include/helloBye2Proto.hpp</text>
</a>
</g>
</g>
<!-- Node2&#45;&gt;Node3 -->
<g id="edge2" class="edge"><title>Node2&#45;&gt;Node3</title>
<path fill="none" stroke="midnightblue" d="M231.955,-191.403C231.505,-182.37 231.796,-172.408 232.825,-164.577"/>
<polygon fill="midnightblue" stroke="midnightblue" points="228.47,-191.736 232.822,-201.396 235.444,-191.131 228.47,-191.736"/>
</g>
<!-- Node3&#45;&gt;Node2 -->
<g id="edge5" class="edge"><title>Node3&#45;&gt;Node2</title>
<path fill="none" stroke="midnightblue" d="M245.044,-174.565C245.495,-183.596 245.206,-193.56 244.178,-201.396"/>
<polygon fill="midnightblue" stroke="midnightblue" points="248.528,-174.236 244.175,-164.577 241.555,-174.842 248.528,-174.236"/>
</g>
<!-- Node4 -->
<g id="node4" class="node"><title>Node4</title>
<g id="a_node4"><a xlink:href="helloBye2__C_8hpp.html" target="_top" xlink:title="/home/dominik/uni/MoonState\l/include/helloBye2_C.hpp">
<polygon fill="none" stroke="black" points="0,-67.5 0,-97.5 147,-97.5 147,-67.5 0,-67.5"/>
<text text-anchor="start" x="8" y="-85.5" font-family="Helvetica,sans-Serif" font-size="10.00">/home/dominik/uni/MoonState</text>
<text text-anchor="middle" x="73.5" y="-74.5" font-family="Helvetica,sans-Serif" font-size="10.00">/include/helloBye2_C.hpp</text>
</a>
</g>
</g>
<!-- Node3&#45;&gt;Node4 -->
<g id="edge3" class="edge"><title>Node3&#45;&gt;Node4</title>
<path fill="none" stroke="midnightblue" d="M193.268,-130.682C166.806,-120.257 133.866,-107.281 109.233,-97.5765"/>
<polygon fill="midnightblue" stroke="midnightblue" points="192.111,-133.987 202.697,-134.396 194.676,-127.474 192.111,-133.987"/>
</g>
<!-- Node6 -->
<g id="node6" class="node"><title>Node6</title>
<g id="a_node6"><a xlink:href="helloBye2ProtoStatic_8cpp.html" target="_top" xlink:title="/home/dominik/uni/MoonState\l/src/helloBye2ProtoStatic.cpp">
<polygon fill="none" stroke="black" points="165,-67.5 165,-97.5 312,-97.5 312,-67.5 165,-67.5"/>
<text text-anchor="start" x="173" y="-85.5" font-family="Helvetica,sans-Serif" font-size="10.00">/home/dominik/uni/MoonState</text>
<text text-anchor="middle" x="238.5" y="-74.5" font-family="Helvetica,sans-Serif" font-size="10.00">/src/helloBye2ProtoStatic.cpp</text>
</a>
</g>
</g>
<!-- Node3&#45;&gt;Node6 -->
<g id="edge6" class="edge"><title>Node3&#45;&gt;Node6</title>
<path fill="none" stroke="midnightblue" d="M238.5,-124.108C238.5,-115.154 238.5,-105.323 238.5,-97.5765"/>
<polygon fill="midnightblue" stroke="midnightblue" points="235,-124.396 238.5,-134.396 242,-124.396 235,-124.396"/>
</g>
<!-- Node5 -->
<g id="node5" class="node"><title>Node5</title>
<g id="a_node5"><a xlink:href="helloBye2__C_8cpp.html" target="_top" xlink:title="/home/dominik/uni/MoonState\l/src/helloBye2_C.cpp">
<polygon fill="none" stroke="black" points="0,-0.5 0,-30.5 147,-30.5 147,-0.5 0,-0.5"/>
<text text-anchor="start" x="8" y="-18.5" font-family="Helvetica,sans-Serif" font-size="10.00">/home/dominik/uni/MoonState</text>
<text text-anchor="middle" x="73.5" y="-7.5" font-family="Helvetica,sans-Serif" font-size="10.00">/src/helloBye2_C.cpp</text>
</a>
</g>
</g>
<!-- Node4&#45;&gt;Node5 -->
<g id="edge4" class="edge"><title>Node4&#45;&gt;Node5</title>
<path fill="none" stroke="midnightblue" d="M73.5,-57.1081C73.5,-48.1539 73.5,-38.3227 73.5,-30.5765"/>
<polygon fill="midnightblue" stroke="midnightblue" points="70.0001,-57.3959 73.5,-67.396 77.0001,-57.396 70.0001,-57.3959"/>
</g>
<!-- Node8 -->
<g id="node8" class="node"><title>Node8</title>
<g id="a_node8"><a xlink:href="helloByeProto_8hpp.html" target="_top" xlink:title="/home/dominik/uni/MoonState\l/include/helloByeProto.hpp">
<polygon fill="none" stroke="black" points="412,-134.5 412,-164.5 559,-164.5 559,-134.5 412,-134.5"/>
<text text-anchor="start" x="420" y="-152.5" font-family="Helvetica,sans-Serif" font-size="10.00">/home/dominik/uni/MoonState</text>
<text text-anchor="middle" x="485.5" y="-141.5" font-family="Helvetica,sans-Serif" font-size="10.00">/include/helloByeProto.hpp</text>
</a>
</g>
</g>
<!-- Node7&#45;&gt;Node8 -->
<g id="edge8" class="edge"><title>Node7&#45;&gt;Node8</title>
<path fill="none" stroke="midnightblue" d="M478.955,-191.403C478.505,-182.37 478.796,-172.408 479.825,-164.577"/>
<polygon fill="midnightblue" stroke="midnightblue" points="475.47,-191.736 479.822,-201.396 482.444,-191.131 475.47,-191.736"/>
</g>
<!-- Node8&#45;&gt;Node7 -->
<g id="edge11" class="edge"><title>Node8&#45;&gt;Node7</title>
<path fill="none" stroke="midnightblue" d="M492.044,-174.565C492.495,-183.596 492.206,-193.56 491.178,-201.396"/>
<polygon fill="midnightblue" stroke="midnightblue" points="495.528,-174.236 491.175,-164.577 488.555,-174.842 495.528,-174.236"/>
</g>
<!-- Node9 -->
<g id="node9" class="node"><title>Node9</title>
<g id="a_node9"><a xlink:href="helloBye__C_8hpp.html" target="_top" xlink:title="/home/dominik/uni/MoonState\l/include/helloBye_C.hpp">
<polygon fill="none" stroke="black" points="330,-67.5 330,-97.5 477,-97.5 477,-67.5 330,-67.5"/>
<text text-anchor="start" x="338" y="-85.5" font-family="Helvetica,sans-Serif" font-size="10.00">/home/dominik/uni/MoonState</text>
<text text-anchor="middle" x="403.5" y="-74.5" font-family="Helvetica,sans-Serif" font-size="10.00">/include/helloBye_C.hpp</text>
</a>
</g>
</g>
<!-- Node8&#45;&gt;Node9 -->
<g id="edge9" class="edge"><title>Node8&#45;&gt;Node9</title>
<path fill="none" stroke="midnightblue" d="M459.85,-128.168C447.311,-118.228 432.534,-106.514 421.258,-97.5765"/>
<polygon fill="midnightblue" stroke="midnightblue" points="457.696,-130.927 467.707,-134.396 462.045,-125.441 457.696,-130.927"/>
</g>
<!-- Node11 -->
<g id="node11" class="node"><title>Node11</title>
<g id="a_node11"><a xlink:href="helloByeProtoStatic_8cpp.html" target="_top" xlink:title="/home/dominik/uni/MoonState\l/src/helloByeProtoStatic.cpp">
<polygon fill="none" stroke="black" points="495,-67.5 495,-97.5 642,-97.5 642,-67.5 495,-67.5"/>
<text text-anchor="start" x="503" y="-85.5" font-family="Helvetica,sans-Serif" font-size="10.00">/home/dominik/uni/MoonState</text>
<text text-anchor="middle" x="568.5" y="-74.5" font-family="Helvetica,sans-Serif" font-size="10.00">/src/helloByeProtoStatic.cpp</text>
</a>
</g>
</g>
<!-- Node8&#45;&gt;Node11 -->
<g id="edge12" class="edge"><title>Node8&#45;&gt;Node11</title>
<path fill="none" stroke="midnightblue" d="M511.463,-128.168C524.155,-118.228 539.112,-106.514 550.525,-97.5765"/>
<polygon fill="midnightblue" stroke="midnightblue" points="509.225,-125.475 503.51,-134.396 513.541,-130.986 509.225,-125.475"/>
</g>
<!-- Node9&#45;&gt;Node10 -->
<g id="edge10" class="edge"><title>Node9&#45;&gt;Node10</title>
<path fill="none" stroke="midnightblue" d="M441.37,-62.9921C462.451,-52.6892 488.277,-40.0677 507.697,-30.5765"/>
<polygon fill="midnightblue" stroke="midnightblue" points="439.807,-59.8605 432.359,-67.396 442.88,-66.1496 439.807,-59.8605"/>
</g>
</g>
</svg>
