<?xml version="1.0" encoding="UTF-8" standalone="no"?>
<!DOCTYPE svg PUBLIC "-//W3C//DTD SVG 1.1//EN"
 "http://www.w3.org/Graphics/SVG/1.1/DTD/svg11.dtd">
<!-- Generated by graphviz version 2.40.1 (20161225.0304)
 -->
<!-- Title: /home/dominik/uni/MoonState/include/IPv4_5TupleL2Ident.hpp Pages: 1 -->
<svg width="867pt" height="307pt"
 viewBox="0.00 0.00 866.58 307.00" xmlns="http://www.w3.org/2000/svg" xmlns:xlink="http://www.w3.org/1999/xlink">
<g id="graph0" class="graph" transform="scale(1 1) rotate(0) translate(4 303)">
<title>/home/dominik/uni/MoonState/include/IPv4_5TupleL2Ident.hpp</title>
<!-- Node15 -->
<g id="node1" class="node">
<title>Node15</title>
<polygon fill="#bfbfbf" stroke="#000000" points="409.5,-268.5 409.5,-298.5 567.5,-298.5 567.5,-268.5 409.5,-268.5"/>
<text text-anchor="start" x="417.5" y="-286.5" font-family="Helvetica,sans-Serif" font-size="10.00" fill="#000000">/home/dominik/uni/MoonState</text>
<text text-anchor="middle" x="488.5" y="-275.5" font-family="Helvetica,sans-Serif" font-size="10.00" fill="#000000">/include/IPv4_5TupleL2Ident.hpp</text>
</g>
<!-- Node16 -->
<g id="node2" class="node">
<title>Node16</title>
<g id="a_node2"><a xlink:href="dtlsClient_8hpp.html" target="_top" xlink:title="/home/dominik/uni/MoonState\l/include/dtlsClient.hpp">
<polygon fill="none" stroke="#000000" points="0,-201.5 0,-231.5 147,-231.5 147,-201.5 0,-201.5"/>
<text text-anchor="start" x="8" y="-219.5" font-family="Helvetica,sans-Serif" font-size="10.00" fill="#000000">/home/dominik/uni/MoonState</text>
<text text-anchor="middle" x="73.5" y="-208.5" font-family="Helvetica,sans-Serif" font-size="10.00" fill="#000000">/include/dtlsClient.hpp</text>
</a>
</g>
</g>
<!-- Node15&#45;&gt;Node16 -->
<g id="edge1" class="edge">
<title>Node15&#45;&gt;Node16</title>
<path fill="none" stroke="#191970" d="M399.2036,-270.5165C332.0763,-260.5558 237.8971,-246.155 155.5,-232 152.787,-231.5339 150.025,-231.0517 147.2362,-230.5582"/>
<polygon fill="#191970" stroke="#191970" points="398.9176,-274.0122 409.3224,-272.0147 399.9429,-267.0877 398.9176,-274.0122"/>
</g>
<!-- Node18 -->
<g id="node4" class="node">
<title>Node18</title>
<g id="a_node4"><a xlink:href="helloBye2Proto_8cpp.html" target="_top" xlink:title="/home/dominik/uni/MoonState\l/src/helloBye2Proto.cpp">
<polygon fill="none" stroke="#000000" points="165,-201.5 165,-231.5 312,-231.5 312,-201.5 165,-201.5"/>
<text text-anchor="start" x="173" y="-219.5" font-family="Helvetica,sans-Serif" font-size="10.00" fill="#000000">/home/dominik/uni/MoonState</text>
<text text-anchor="middle" x="238.5" y="-208.5" font-family="Helvetica,sans-Serif" font-size="10.00" fill="#000000">/src/helloBye2Proto.cpp</text>
</a>
</g>
</g>
<!-- Node15&#45;&gt;Node18 -->
<g id="edge3" class="edge">
<title>Node15&#45;&gt;Node18</title>
<path fill="none" stroke="#191970" d="M422.5289,-265.8198C382.7926,-255.1704 332.7259,-241.7525 294.8496,-231.6017"/>
<polygon fill="#191970" stroke="#191970" points="421.8299,-269.2559 432.3951,-268.4639 423.642,-262.4945 421.8299,-269.2559"/>
</g>
<!-- Node23 -->
<g id="node9" class="node">
<title>Node23</title>
<g id="a_node9"><a xlink:href="helloBye3_8cpp.html" target="_top" xlink:title="/home/dominik/uni/MoonState\l/src/helloBye3.cpp">
<polygon fill="none" stroke="#000000" points="330,-201.5 330,-231.5 477,-231.5 477,-201.5 330,-201.5"/>
<text text-anchor="start" x="338" y="-219.5" font-family="Helvetica,sans-Serif" font-size="10.00" fill="#000000">/home/dominik/uni/MoonState</text>
<text text-anchor="middle" x="403.5" y="-208.5" font-family="Helvetica,sans-Serif" font-size="10.00" fill="#000000">/src/helloBye3.cpp</text>
</a>
</g>
</g>
<!-- Node15&#45;&gt;Node23 -->
<g id="edge9" class="edge">
<title>Node15&#45;&gt;Node23</title>
<path fill="none" stroke="#191970" d="M461.3055,-262.0643C448.7374,-252.1577 434.1083,-240.6265 422.7115,-231.6432"/>
<polygon fill="#191970" stroke="#191970" points="459.1919,-264.8549 469.2122,-268.2967 463.5253,-259.3574 459.1919,-264.8549"/>
</g>
<!-- Node25 -->
<g id="node11" class="node">
<title>Node25</title>
<g id="a_node11"><a xlink:href="helloBye3MemPool_8cpp.html" target="_top" xlink:title="/home/dominik/uni/MoonState\l/src/helloBye3MemPool.cpp">
<polygon fill="none" stroke="#000000" points="500,-201.5 500,-231.5 647,-231.5 647,-201.5 500,-201.5"/>
<text text-anchor="start" x="508" y="-219.5" font-family="Helvetica,sans-Serif" font-size="10.00" fill="#000000">/home/dominik/uni/MoonState</text>
<text text-anchor="middle" x="573.5" y="-208.5" font-family="Helvetica,sans-Serif" font-size="10.00" fill="#000000">/src/helloBye3MemPool.cpp</text>
</a>
</g>
</g>
<!-- Node15&#45;&gt;Node25 -->
<g id="edge12" class="edge">
<title>Node15&#45;&gt;Node25</title>
<path fill="none" stroke="#191970" d="M515.6945,-262.0643C528.2626,-252.1577 542.8917,-240.6265 554.2885,-231.6432"/>
<polygon fill="#191970" stroke="#191970" points="513.4747,-259.3574 507.7878,-268.2967 517.8081,-264.8549 513.4747,-259.3574"/>
</g>
<!-- Node27 -->
<g id="node13" class="node">
<title>Node27</title>
<g id="a_node13"><a xlink:href="helloByeProto_8cpp.html" target="_top" xlink:title="/home/dominik/uni/MoonState\l/src/helloByeProto.cpp">
<polygon fill="none" stroke="#000000" points="670,-201.5 670,-231.5 817,-231.5 817,-201.5 670,-201.5"/>
<text text-anchor="start" x="678" y="-219.5" font-family="Helvetica,sans-Serif" font-size="10.00" fill="#000000">/home/dominik/uni/MoonState</text>
<text text-anchor="middle" x="743.5" y="-208.5" font-family="Helvetica,sans-Serif" font-size="10.00" fill="#000000">/src/helloByeProto.cpp</text>
</a>
</g>
</g>
<!-- Node15&#45;&gt;Node27 -->
<g id="edge15" class="edge">
<title>Node15&#45;&gt;Node27</title>
<path fill="none" stroke="#191970" d="M555.533,-265.8874C596.1051,-255.2273 647.3078,-241.774 686.0234,-231.6017"/>
<polygon fill="#191970" stroke="#191970" points="554.5093,-262.5375 545.727,-268.4639 556.2882,-269.3077 554.5093,-262.5375"/>
</g>
<!-- Node30 -->
<g id="node16" class="node">
<title>Node30</title>
<g id="a_node16"><a xlink:href="helloBye__C_8cpp.html" target="_top" xlink:title="/home/dominik/uni/MoonState\l/src/helloBye_C.cpp">
<polygon fill="none" stroke="#000000" points="638,-.5 638,-30.5 785,-30.5 785,-.5 638,-.5"/>
<text text-anchor="start" x="646" y="-18.5" font-family="Helvetica,sans-Serif" font-size="10.00" fill="#000000">/home/dominik/uni/MoonState</text>
<text text-anchor="middle" x="711.5" y="-7.5" font-family="Helvetica,sans-Serif" font-size="10.00" fill="#000000">/src/helloBye_C.cpp</text>
</a>
</g>
</g>
<!-- Node15&#45;&gt;Node30 -->
<g id="edge21" class="edge">
<title>Node15&#45;&gt;Node30</title>
<path fill="none" stroke="#191970" d="M577.9046,-275.8208C672.2286,-266.794 809.4787,-250.6557 825.5,-232 873.2775,-176.3665 865.273,-128.6108 825.5,-67 814.3691,-49.7576 795.9218,-38.2273 777.0763,-30.5415"/>
<polygon fill="#191970" stroke="#191970" points="577.3988,-272.353 567.7728,-276.779 578.0579,-279.3219 577.3988,-272.353"/>
</g>
<!-- Node17 -->
<g id="node3" class="node">
<title>Node17</title>
<g id="a_node3"><a xlink:href="dtlsClient_8cpp.html" target="_top" xlink:title="/home/dominik/uni/MoonState\l/src/dtlsClient.cpp">
<polygon fill="none" stroke="#000000" points="0,-134.5 0,-164.5 147,-164.5 147,-134.5 0,-134.5"/>
<text text-anchor="start" x="8" y="-152.5" font-family="Helvetica,sans-Serif" font-size="10.00" fill="#000000">/home/dominik/uni/MoonState</text>
<text text-anchor="middle" x="73.5" y="-141.5" font-family="Helvetica,sans-Serif" font-size="10.00" fill="#000000">/src/dtlsClient.cpp</text>
</a>
</g>
</g>
<!-- Node16&#45;&gt;Node17 -->
<g id="edge2" class="edge">
<title>Node16&#45;&gt;Node17</title>
<path fill="none" stroke="#191970" d="M73.5,-191.0249C73.5,-182.128 73.5,-172.4287 73.5,-164.6432"/>
<polygon fill="#191970" stroke="#191970" points="70.0001,-191.2966 73.5,-201.2967 77.0001,-191.2967 70.0001,-191.2966"/>
</g>
<!-- Node19 -->
<g id="node5" class="node">
<title>Node19</title>
<g id="a_node5"><a xlink:href="helloBye2Proto_8hpp.html" target="_top" xlink:title="/home/dominik/uni/MoonState\l/include/helloBye2Proto.hpp">
<polygon fill="none" stroke="#000000" points="165,-134.5 165,-164.5 312,-164.5 312,-134.5 165,-134.5"/>
<text text-anchor="start" x="173" y="-152.5" font-family="Helvetica,sans-Serif" font-size="10.00" fill="#000000">/home/dominik/uni/MoonState</text>
<text text-anchor="middle" x="238.5" y="-141.5" font-family="Helvetica,sans-Serif" font-size="10.00" fill="#000000">/include/helloBye2Proto.hpp</text>
</a>
</g>
</g>
<!-- Node18&#45;&gt;Node19 -->
<g id="edge4" class="edge">
<title>Node18&#45;&gt;Node19</title>
<path fill="none" stroke="#191970" d="M231.9384,-191.3179C231.5239,-182.3414 231.7933,-172.5143 232.7464,-164.6432"/>
<polygon fill="#191970" stroke="#191970" points="228.4504,-191.6087 232.7392,-201.2967 235.428,-191.0487 228.4504,-191.6087"/>
</g>
<!-- Node19&#45;&gt;Node18 -->
<g id="edge7" class="edge">
<title>Node19&#45;&gt;Node18</title>
<path fill="none" stroke="#191970" d="M245.0584,-174.6135C245.4764,-183.5857 245.2105,-193.4156 244.2608,-201.2967"/>
<polygon fill="#191970" stroke="#191970" points="248.5469,-174.3291 244.2536,-164.6432 241.5696,-174.8924 248.5469,-174.3291"/>
</g>
<!-- Node20 -->
<g id="node6" class="node">
<title>Node20</title>
<g id="a_node6"><a xlink:href="helloBye2__C_8hpp.html" target="_top" xlink:title="/home/dominik/uni/MoonState\l/include/helloBye2_C.hpp">
<polygon fill="none" stroke="#000000" points="83,-67.5 83,-97.5 230,-97.5 230,-67.5 83,-67.5"/>
<text text-anchor="start" x="91" y="-85.5" font-family="Helvetica,sans-Serif" font-size="10.00" fill="#000000">/home/dominik/uni/MoonState</text>
<text text-anchor="middle" x="156.5" y="-74.5" font-family="Helvetica,sans-Serif" font-size="10.00" fill="#000000">/include/helloBye2_C.hpp</text>
</a>
</g>
</g>
<!-- Node19&#45;&gt;Node20 -->
<g id="edge5" class="edge">
<title>Node19&#45;&gt;Node20</title>
<path fill="none" stroke="#191970" d="M211.9183,-127.7808C199.8722,-117.9383 185.9233,-106.541 175.0334,-97.6432"/>
<polygon fill="#191970" stroke="#191970" points="209.9346,-130.6797 219.8929,-134.2967 214.3637,-125.2591 209.9346,-130.6797"/>
</g>
<!-- Node22 -->
<g id="node8" class="node">
<title>Node22</title>
<g id="a_node8"><a xlink:href="helloBye2ProtoStatic_8cpp.html" target="_top" xlink:title="/home/dominik/uni/MoonState\l/src/helloBye2ProtoStatic.cpp">
<polygon fill="none" stroke="#000000" points="248,-67.5 248,-97.5 395,-97.5 395,-67.5 248,-67.5"/>
<text text-anchor="start" x="256" y="-85.5" font-family="Helvetica,sans-Serif" font-size="10.00" fill="#000000">/home/dominik/uni/MoonState</text>
<text text-anchor="middle" x="321.5" y="-74.5" font-family="Helvetica,sans-Serif" font-size="10.00" fill="#000000">/src/helloBye2ProtoStatic.cpp</text>
</a>
</g>
</g>
<!-- Node19&#45;&gt;Node22 -->
<g id="edge8" class="edge">
<title>Node19&#45;&gt;Node22</title>
<path fill="none" stroke="#191970" d="M265.4058,-127.7808C277.5988,-117.9383 291.7179,-106.541 302.7405,-97.6432"/>
<polygon fill="#191970" stroke="#191970" points="262.9168,-125.292 257.334,-134.2967 267.3136,-130.7389 262.9168,-125.292"/>
</g>
<!-- Node21 -->
<g id="node7" class="node">
<title>Node21</title>
<g id="a_node7"><a xlink:href="helloBye2__C_8cpp.html" target="_top" xlink:title="/home/dominik/uni/MoonState\l/src/helloBye2_C.cpp">
<polygon fill="none" stroke="#000000" points="83,-.5 83,-30.5 230,-30.5 230,-.5 83,-.5"/>
<text text-anchor="start" x="91" y="-18.5" font-family="Helvetica,sans-Serif" font-size="10.00" fill="#000000">/home/dominik/uni/MoonState</text>
<text text-anchor="middle" x="156.5" y="-7.5" font-family="Helvetica,sans-Serif" font-size="10.00" fill="#000000">/src/helloBye2_C.cpp</text>
</a>
</g>
</g>
<!-- Node20&#45;&gt;Node21 -->
<g id="edge6" class="edge">
<title>Node20&#45;&gt;Node21</title>
<path fill="none" stroke="#191970" d="M156.5,-57.0249C156.5,-48.128 156.5,-38.4287 156.5,-30.6432"/>
<polygon fill="#191970" stroke="#191970" points="153.0001,-57.2966 156.5,-67.2967 160.0001,-57.2967 153.0001,-57.2966"/>
</g>
<!-- Node24 -->
<g id="node10" class="node">
<title>Node24</title>
<g id="a_node10"><a xlink:href="helloBye3_8hpp.html" target="_top" xlink:title="/home/dominik/uni/MoonState\l/include/helloBye3.hpp">
<polygon fill="none" stroke="#000000" points="330,-134.5 330,-164.5 477,-164.5 477,-134.5 330,-134.5"/>
<text text-anchor="start" x="338" y="-152.5" font-family="Helvetica,sans-Serif" font-size="10.00" fill="#000000">/home/dominik/uni/MoonState</text>
<text text-anchor="middle" x="403.5" y="-141.5" font-family="Helvetica,sans-Serif" font-size="10.00" fill="#000000">/include/helloBye3.hpp</text>
</a>
</g>
</g>
<!-- Node23&#45;&gt;Node24 -->
<g id="edge10" class="edge">
<title>Node23&#45;&gt;Node24</title>
<path fill="none" stroke="#191970" d="M396.9384,-191.3179C396.5239,-182.3414 396.7933,-172.5143 397.7464,-164.6432"/>
<polygon fill="#191970" stroke="#191970" points="393.4504,-191.6087 397.7392,-201.2967 400.428,-191.0487 393.4504,-191.6087"/>
</g>
<!-- Node24&#45;&gt;Node23 -->
<g id="edge11" class="edge">
<title>Node24&#45;&gt;Node23</title>
<path fill="none" stroke="#191970" d="M410.0584,-174.6135C410.4764,-183.5857 410.2105,-193.4156 409.2608,-201.2967"/>
<polygon fill="#191970" stroke="#191970" points="413.5469,-174.3291 409.2536,-164.6432 406.5696,-174.8924 413.5469,-174.3291"/>
</g>
<!-- Node26 -->
<g id="node12" class="node">
<title>Node26</title>
<g id="a_node12"><a xlink:href="helloBye3MemPool_8hpp.html" target="_top" xlink:title="/home/dominik/uni/MoonState\l/include/helloBye3MemPool.hpp">
<polygon fill="none" stroke="#000000" points="495.5,-134.5 495.5,-164.5 651.5,-164.5 651.5,-134.5 495.5,-134.5"/>
<text text-anchor="start" x="503.5" y="-152.5" font-family="Helvetica,sans-Serif" font-size="10.00" fill="#000000">/home/dominik/uni/MoonState</text>
<text text-anchor="middle" x="573.5" y="-141.5" font-family="Helvetica,sans-Serif" font-size="10.00" fill="#000000">/include/helloBye3MemPool.hpp</text>
</a>
</g>
</g>
<!-- Node25&#45;&gt;Node26 -->
<g id="edge13" class="edge">
<title>Node25&#45;&gt;Node26</title>
<path fill="none" stroke="#191970" d="M566.9384,-191.3179C566.5239,-182.3414 566.7933,-172.5143 567.7464,-164.6432"/>
<polygon fill="#191970" stroke="#191970" points="563.4504,-191.6087 567.7392,-201.2967 570.428,-191.0487 563.4504,-191.6087"/>
</g>
<!-- Node26&#45;&gt;Node25 -->
<g id="edge14" class="edge">
<title>Node26&#45;&gt;Node25</title>
<path fill="none" stroke="#191970" d="M580.0584,-174.6135C580.4764,-183.5857 580.2105,-193.4156 579.2608,-201.2967"/>
<polygon fill="#191970" stroke="#191970" points="583.5469,-174.3291 579.2536,-164.6432 576.5696,-174.8924 583.5469,-174.3291"/>
</g>
<!-- Node28 -->
<g id="node14" class="node">
<title>Node28</title>
<g id="a_node14"><a xlink:href="helloByeProto_8hpp.html" target="_top" xlink:title="/home/dominik/uni/MoonState\l/include/helloByeProto.hpp">
<polygon fill="none" stroke="#000000" points="670,-134.5 670,-164.5 817,-164.5 817,-134.5 670,-134.5"/>
<text text-anchor="start" x="678" y="-152.5" font-family="Helvetica,sans-Serif" font-size="10.00" fill="#000000">/home/dominik/uni/MoonState</text>
<text text-anchor="middle" x="743.5" y="-141.5" font-family="Helvetica,sans-Serif" font-size="10.00" fill="#000000">/include/helloByeProto.hpp</text>
</a>
</g>
</g>
<!-- Node27&#45;&gt;Node28 -->
<g id="edge16" class="edge">
<title>Node27&#45;&gt;Node28</title>
<path fill="none" stroke="#191970" d="M736.9384,-191.3179C736.5239,-182.3414 736.7933,-172.5143 737.7464,-164.6432"/>
<polygon fill="#191970" stroke="#191970" points="733.4504,-191.6087 737.7392,-201.2967 740.428,-191.0487 733.4504,-191.6087"/>
</g>
<!-- Node28&#45;&gt;Node27 -->
<g id="edge19" class="edge">
<title>Node28&#45;&gt;Node27</title>
<path fill="none" stroke="#191970" d="M750.0584,-174.6135C750.4764,-183.5857 750.2105,-193.4156 749.2608,-201.2967"/>
<polygon fill="#191970" stroke="#191970" points="753.5469,-174.3291 749.2536,-164.6432 746.5696,-174.8924 753.5469,-174.3291"/>
</g>
<!-- Node29 -->
<g id="node15" class="node">
<title>Node29</title>
<g id="a_node15"><a xlink:href="helloBye__C_8hpp.html" target="_top" xlink:title="/home/dominik/uni/MoonState\l/include/helloBye_C.hpp">
<polygon fill="none" stroke="#000000" points="505,-67.5 505,-97.5 652,-97.5 652,-67.5 505,-67.5"/>
<text text-anchor="start" x="513" y="-85.5" font-family="Helvetica,sans-Serif" font-size="10.00" fill="#000000">/home/dominik/uni/MoonState</text>
<text text-anchor="middle" x="578.5" y="-74.5" font-family="Helvetica,sans-Serif" font-size="10.00" fill="#000000">/include/helloBye_C.hpp</text>
</a>
</g>
</g>
<!-- Node28&#45;&gt;Node29 -->
<g id="edge17" class="edge">
<title>Node28&#45;&gt;Node29</title>
<path fill="none" stroke="#191970" d="M696.9298,-130.5897C671.2245,-120.1518 639.7358,-107.3654 615.6907,-97.6017"/>
<polygon fill="#191970" stroke="#191970" points="695.8887,-133.9444 706.4708,-134.4639 698.5223,-127.4587 695.8887,-133.9444"/>
</g>
<!-- Node31 -->
<g id="node17" class="node">
<title>Node31</title>
<g id="a_node17"><a xlink:href="helloByeProtoStatic_8cpp.html" target="_top" xlink:title="/home/dominik/uni/MoonState\l/src/helloByeProtoStatic.cpp">
<polygon fill="none" stroke="#000000" points="670,-67.5 670,-97.5 817,-97.5 817,-67.5 670,-67.5"/>
<text text-anchor="start" x="678" y="-85.5" font-family="Helvetica,sans-Serif" font-size="10.00" fill="#000000">/home/dominik/uni/MoonState</text>
<text text-anchor="middle" x="743.5" y="-74.5" font-family="Helvetica,sans-Serif" font-size="10.00" fill="#000000">/src/helloByeProtoStatic.cpp</text>
</a>
</g>
</g>
<!-- Node28&#45;&gt;Node31 -->
<g id="edge20" class="edge">
<title>Node28&#45;&gt;Node31</title>
<path fill="none" stroke="#191970" d="M743.5,-124.0249C743.5,-115.128 743.5,-105.4287 743.5,-97.6432"/>
<polygon fill="#191970" stroke="#191970" points="740.0001,-124.2966 743.5,-134.2967 747.0001,-124.2967 740.0001,-124.2966"/>
</g>
<!-- Node29&#45;&gt;Node30 -->
<g id="edge18" class="edge">
<title>Node29&#45;&gt;Node30</title>
<path fill="none" stroke="#191970" d="M617.3813,-62.9132C637.7643,-52.645 662.3572,-40.2561 681.2917,-30.7177"/>
<polygon fill="#191970" stroke="#191970" points="615.7039,-59.8391 608.3478,-67.4639 618.8533,-66.0906 615.7039,-59.8391"/>
</g>
</g>
</svg>
