<?xml version="1.0" encoding="UTF-8" standalone="no"?>
<!DOCTYPE svg PUBLIC "-//W3C//DTD SVG 1.1//EN"
 "http://www.w3.org/Graphics/SVG/1.1/DTD/svg11.dtd">
<!-- Generated by graphviz version 2.40.1 (20161225.0304)
 -->
<!-- Title: /home/dominik/uni/MoonState/include/IPv4_5TupleL2Ident.hpp Pages: 1 -->
<svg width="729pt" height="151pt"
 viewBox="0.00 0.00 729.00 151.00" xmlns="http://www.w3.org/2000/svg" xmlns:xlink="http://www.w3.org/1999/xlink">
<g id="graph0" class="graph" transform="scale(1 1) rotate(0) translate(4 147)">
<title>/home/dominik/uni/MoonState/include/IPv4_5TupleL2Ident.hpp</title>
<!-- Node0 -->
<g id="node1" class="node">
<title>Node0</title>
<polygon fill="#bfbfbf" stroke="#000000" points="309,-112.5 309,-142.5 467,-142.5 467,-112.5 309,-112.5"/>
<text text-anchor="start" x="317" y="-130.5" font-family="Helvetica,sans-Serif" font-size="10.00" fill="#000000">/home/dominik/uni/MoonState</text>
<text text-anchor="middle" x="388" y="-119.5" font-family="Helvetica,sans-Serif" font-size="10.00" fill="#000000">/include/IPv4_5TupleL2Ident.hpp</text>
</g>
<!-- Node1 -->
<g id="node2" class="node">
<title>Node1</title>
<polygon fill="none" stroke="#bfbfbf" points="0,-.5 0,-19.5 46,-19.5 46,-.5 0,-.5"/>
<text text-anchor="middle" x="23" y="-7.5" font-family="Helvetica,sans-Serif" font-size="10.00" fill="#000000">cstdint</text>
</g>
<!-- Node0&#45;&gt;Node1 -->
<g id="edge1" class="edge">
<title>Node0&#45;&gt;Node1</title>
<path fill="none" stroke="#191970" d="M308.9445,-118.9517C257.0517,-111.5894 188.416,-98.4785 131,-76 98.4147,-63.2428 64.5772,-40.8172 43.6549,-25.6888"/>
<polygon fill="#191970" stroke="#191970" points="45.6487,-22.8104 35.5203,-19.7014 41.4992,-28.448 45.6487,-22.8104"/>
</g>
<!-- Node2 -->
<g id="node3" class="node">
<title>Node2</title>
<polygon fill="none" stroke="#bfbfbf" points="461.5,-.5 461.5,-19.5 520.5,-19.5 520.5,-.5 461.5,-.5"/>
<text text-anchor="middle" x="491" y="-7.5" font-family="Helvetica,sans-Serif" font-size="10.00" fill="#000000">exception</text>
</g>
<!-- Node0&#45;&gt;Node2 -->
<g id="edge2" class="edge">
<title>Node0&#45;&gt;Node2</title>
<path fill="none" stroke="#191970" d="M397.7074,-112.2962C407.5682,-97.3279 423.6735,-74.1394 440,-56 449.5971,-45.3373 461.438,-34.5367 471.2939,-26.083"/>
<polygon fill="#191970" stroke="#191970" points="473.6145,-28.7047 479.0132,-19.5885 469.1079,-23.3483 473.6145,-28.7047"/>
</g>
<!-- Node3 -->
<g id="node4" class="node">
<title>Node3</title>
<polygon fill="none" stroke="#bfbfbf" points="589.5,-56.5 589.5,-75.5 648.5,-75.5 648.5,-56.5 589.5,-56.5"/>
<text text-anchor="middle" x="619" y="-63.5" font-family="Helvetica,sans-Serif" font-size="10.00" fill="#000000">functional</text>
</g>
<!-- Node0&#45;&gt;Node3 -->
<g id="edge3" class="edge">
<title>Node0&#45;&gt;Node3</title>
<path fill="none" stroke="#191970" d="M444.509,-112.4554C486.3859,-101.3063 542.4056,-86.392 579.5446,-76.5044"/>
<polygon fill="#191970" stroke="#191970" points="580.7287,-79.8111 589.4916,-73.8561 578.9277,-73.0467 580.7287,-79.8111"/>
</g>
<!-- Node4 -->
<g id="node5" class="node">
<title>Node4</title>
<polygon fill="none" stroke="#bfbfbf" points="667,-56.5 667,-75.5 721,-75.5 721,-56.5 667,-56.5"/>
<text text-anchor="middle" x="694" y="-63.5" font-family="Helvetica,sans-Serif" font-size="10.00" fill="#000000">iostream</text>
</g>
<!-- Node0&#45;&gt;Node4 -->
<g id="edge4" class="edge">
<title>Node0&#45;&gt;Node4</title>
<path fill="none" stroke="#191970" d="M467.2235,-114.1631C518.7992,-105.0664 587.7044,-92.1379 657.1359,-76.0646"/>
<polygon fill="#191970" stroke="#191970" points="657.993,-79.4587 666.9347,-73.7758 656.4007,-72.6422 657.993,-79.4587"/>
</g>
<!-- Node5 -->
<g id="node6" class="node">
<title>Node5</title>
<polygon fill="none" stroke="#bfbfbf" points="64,-.5 64,-19.5 116,-19.5 116,-.5 64,-.5"/>
<text text-anchor="middle" x="90" y="-7.5" font-family="Helvetica,sans-Serif" font-size="10.00" fill="#000000">sstream</text>
</g>
<!-- Node0&#45;&gt;Node5 -->
<g id="edge5" class="edge">
<title>Node0&#45;&gt;Node5</title>
<path fill="none" stroke="#191970" d="M308.8317,-119.3933C264.0867,-112.4119 208.229,-99.5494 163,-76 139.7286,-63.8833 118.1089,-42.5547 104.5329,-27.4256"/>
<polygon fill="#191970" stroke="#191970" points="107.0638,-25.0023 97.8589,-19.7563 101.7833,-29.5975 107.0638,-25.0023"/>
</g>
<!-- Node6 -->
<g id="node7" class="node">
<title>Node6</title>
<polygon fill="none" stroke="#bfbfbf" points="538.5,-.5 538.5,-19.5 597.5,-19.5 597.5,-.5 538.5,-.5"/>
<text text-anchor="middle" x="568" y="-7.5" font-family="Helvetica,sans-Serif" font-size="10.00" fill="#000000">stdexcept</text>
</g>
<!-- Node0&#45;&gt;Node6 -->
<g id="edge6" class="edge">
<title>Node0&#45;&gt;Node6</title>
<path fill="none" stroke="#191970" d="M467.0797,-115.0517C493.5766,-107.5067 521.5488,-95.4038 542,-76 554.8148,-63.8415 561.4317,-44.5879 564.773,-30.007"/>
<polygon fill="#191970" stroke="#191970" points="568.2529,-30.4487 566.738,-19.9627 561.3831,-29.1046 568.2529,-30.4487"/>
</g>
<!-- Node7 -->
<g id="node8" class="node">
<title>Node7</title>
<polygon fill="none" stroke="#bfbfbf" points="134.5,-.5 134.5,-19.5 175.5,-19.5 175.5,-.5 134.5,-.5"/>
<text text-anchor="middle" x="155" y="-7.5" font-family="Helvetica,sans-Serif" font-size="10.00" fill="#000000">string</text>
</g>
<!-- Node0&#45;&gt;Node7 -->
<g id="edge7" class="edge">
<title>Node0&#45;&gt;Node7</title>
<path fill="none" stroke="#191970" d="M308.8524,-115.497C258.8666,-106.4925 200.2161,-92.843 181,-76 167.5682,-64.2269 161.0105,-44.6104 157.8493,-29.8161"/>
<polygon fill="#191970" stroke="#191970" points="161.2381,-28.8826 156.0363,-19.6526 154.3469,-30.1119 161.2381,-28.8826"/>
</g>
<!-- Node8 -->
<g id="node9" class="node">
<title>Node8</title>
<g id="a_node9"><a xlink:href="common_8hpp.html" target="_top" xlink:title="common.hpp">
<polygon fill="none" stroke="#000000" points="319.5,-56.5 319.5,-75.5 392.5,-75.5 392.5,-56.5 319.5,-56.5"/>
<text text-anchor="middle" x="356" y="-63.5" font-family="Helvetica,sans-Serif" font-size="10.00" fill="#000000">common.hpp</text>
</a>
</g>
</g>
<!-- Node0&#45;&gt;Node8 -->
<g id="edge8" class="edge">
<title>Node0&#45;&gt;Node8</title>
<path fill="none" stroke="#191970" d="M380.0899,-112.2977C375.7868,-104.0277 370.4242,-93.7215 365.8518,-84.9339"/>
<polygon fill="#191970" stroke="#191970" points="368.8443,-83.1024 361.1236,-75.8469 362.6346,-86.3335 368.8443,-83.1024"/>
</g>
<!-- Node11 -->
<g id="node12" class="node">
<title>Node11</title>
<g id="a_node12"><a xlink:href="headers_8hpp.html" target="_top" xlink:title="headers.hpp">
<polygon fill="none" stroke="#000000" points="190,-56.5 190,-75.5 260,-75.5 260,-56.5 190,-56.5"/>
<text text-anchor="middle" x="225" y="-63.5" font-family="Helvetica,sans-Serif" font-size="10.00" fill="#000000">headers.hpp</text>
</a>
</g>
</g>
<!-- Node0&#45;&gt;Node11 -->
<g id="edge11" class="edge">
<title>Node0&#45;&gt;Node11</title>
<path fill="none" stroke="#191970" d="M348.1257,-112.4554C321.048,-102.239 285.5906,-88.8609 259.6834,-79.0861"/>
<polygon fill="#191970" stroke="#191970" points="260.851,-75.7858 250.2592,-75.5303 258.3799,-82.3352 260.851,-75.7858"/>
</g>
<!-- Node14 -->
<g id="node15" class="node">
<title>Node14</title>
<g id="a_node15"><a xlink:href="exceptions_8hpp.html" target="_top" xlink:title="exceptions.hpp">
<polygon fill="none" stroke="#000000" points="449.5,-56.5 449.5,-75.5 532.5,-75.5 532.5,-56.5 449.5,-56.5"/>
<text text-anchor="middle" x="491" y="-63.5" font-family="Helvetica,sans-Serif" font-size="10.00" fill="#000000">exceptions.hpp</text>
</a>
</g>
</g>
<!-- Node0&#45;&gt;Node14 -->
<g id="edge18" class="edge">
<title>Node0&#45;&gt;Node14</title>
<path fill="none" stroke="#191970" d="M413.1966,-112.4554C429.3272,-102.8241 450.1638,-90.3828 466.2136,-80.7996"/>
<polygon fill="#191970" stroke="#191970" points="468.247,-83.662 475.0387,-75.5303 464.6584,-77.6518 468.247,-83.662"/>
</g>
<!-- Node9 -->
<g id="node10" class="node">
<title>Node9</title>
<polygon fill="none" stroke="#bfbfbf" points="338,-.5 338,-19.5 376,-19.5 376,-.5 338,-.5"/>
<text text-anchor="middle" x="357" y="-7.5" font-family="Helvetica,sans-Serif" font-size="10.00" fill="#000000">array</text>
</g>
<!-- Node8&#45;&gt;Node9 -->
<g id="edge9" class="edge">
<title>Node8&#45;&gt;Node9</title>
<path fill="none" stroke="#191970" d="M356.1742,-56.2455C356.3047,-48.9382 356.4876,-38.6944 356.6481,-29.7046"/>
<polygon fill="#191970" stroke="#191970" points="360.1486,-29.7036 356.8278,-19.6427 353.1497,-29.5786 360.1486,-29.7036"/>
</g>
<!-- Node10 -->
<g id="node11" class="node">
<title>Node10</title>
<polygon fill="none" stroke="#bfbfbf" points="394.5,-.5 394.5,-19.5 443.5,-19.5 443.5,-.5 394.5,-.5"/>
<text text-anchor="middle" x="419" y="-7.5" font-family="Helvetica,sans-Serif" font-size="10.00" fill="#000000">cassert</text>
</g>
<!-- Node8&#45;&gt;Node10 -->
<g id="edge10" class="edge">
<title>Node8&#45;&gt;Node10</title>
<path fill="none" stroke="#191970" d="M366.9738,-56.2455C376.1882,-48.0549 389.5532,-36.1749 400.4297,-26.5069"/>
<polygon fill="#191970" stroke="#191970" points="403.0032,-28.9023 408.152,-19.6427 398.3526,-23.6704 403.0032,-28.9023"/>
</g>
<!-- Node11&#45;&gt;Node1 -->
<g id="edge13" class="edge">
<title>Node11&#45;&gt;Node1</title>
<path fill="none" stroke="#191970" d="M189.7258,-56.8801C157.285,-48.3986 107.6277,-35.18 55.7489,-20.1445"/>
<polygon fill="#191970" stroke="#191970" points="56.6197,-16.7527 46.0398,-17.3166 54.6621,-23.4735 56.6197,-16.7527"/>
</g>
<!-- Node11&#45;&gt;Node5 -->
<g id="edge15" class="edge">
<title>Node11&#45;&gt;Node5</title>
<path fill="none" stroke="#191970" d="M201.7927,-56.3733C179.8301,-47.2629 146.6668,-33.5062 122.1599,-23.3404"/>
<polygon fill="#191970" stroke="#191970" points="123.4824,-20.0999 112.9045,-19.5011 120.8003,-26.5657 123.4824,-20.0999"/>
</g>
<!-- Node11&#45;&gt;Node7 -->
<g id="edge16" class="edge">
<title>Node11&#45;&gt;Node7</title>
<path fill="none" stroke="#191970" d="M212.8069,-56.2455C202.3679,-47.8943 187.1345,-35.7076 174.926,-25.9408"/>
<polygon fill="#191970" stroke="#191970" points="177.0485,-23.1566 167.0533,-19.6427 172.6756,-28.6227 177.0485,-23.1566"/>
</g>
<!-- Node11&#45;&gt;Node9 -->
<g id="edge12" class="edge">
<title>Node11&#45;&gt;Node9</title>
<path fill="none" stroke="#191970" d="M247.6916,-56.3733C269.9781,-46.9184 304.0603,-32.4593 328.2356,-22.2031"/>
<polygon fill="#191970" stroke="#191970" points="329.7683,-25.3549 337.6072,-18.2273 327.0344,-18.9108 329.7683,-25.3549"/>
</g>
<!-- Node12 -->
<g id="node13" class="node">
<title>Node12</title>
<polygon fill="none" stroke="#bfbfbf" points="274,-.5 274,-19.5 320,-19.5 320,-.5 274,-.5"/>
<text text-anchor="middle" x="297" y="-7.5" font-family="Helvetica,sans-Serif" font-size="10.00" fill="#000000">cstring</text>
</g>
<!-- Node11&#45;&gt;Node12 -->
<g id="edge14" class="edge">
<title>Node11&#45;&gt;Node12</title>
<path fill="none" stroke="#191970" d="M237.5414,-56.2455C248.2787,-47.8943 263.9473,-35.7076 276.5047,-25.9408"/>
<polygon fill="#191970" stroke="#191970" points="278.8575,-28.5449 284.6023,-19.6427 274.5599,-23.0194 278.8575,-28.5449"/>
</g>
<!-- Node13 -->
<g id="node14" class="node">
<title>Node13</title>
<polygon fill="none" stroke="#bfbfbf" points="194,-.5 194,-19.5 256,-19.5 256,-.5 194,-.5"/>
<text text-anchor="middle" x="225" y="-7.5" font-family="Helvetica,sans-Serif" font-size="10.00" fill="#000000">arpa/inet.h</text>
</g>
<!-- Node11&#45;&gt;Node13 -->
<g id="edge17" class="edge">
<title>Node11&#45;&gt;Node13</title>
<path fill="none" stroke="#191970" d="M225,-56.2455C225,-48.9382 225,-38.6944 225,-29.7046"/>
<polygon fill="#191970" stroke="#191970" points="228.5001,-29.6426 225,-19.6427 221.5001,-29.6427 228.5001,-29.6426"/>
</g>
<!-- Node14&#45;&gt;Node2 -->
<g id="edge19" class="edge">
<title>Node14&#45;&gt;Node2</title>
<path fill="none" stroke="#191970" d="M491,-56.2455C491,-48.9382 491,-38.6944 491,-29.7046"/>
<polygon fill="#191970" stroke="#191970" points="494.5001,-29.6426 491,-19.6427 487.5001,-29.6427 494.5001,-29.6426"/>
</g>
<!-- Node14&#45;&gt;Node6 -->
<g id="edge20" class="edge">
<title>Node14&#45;&gt;Node6</title>
<path fill="none" stroke="#191970" d="M504.4124,-56.2455C516.0057,-47.814 532.9748,-35.4729 546.4678,-25.6598"/>
<polygon fill="#191970" stroke="#191970" points="548.7126,-28.355 554.7413,-19.6427 544.5953,-22.6938 548.7126,-28.355"/>
</g>
</g>
</svg>
