<?xml version="1.0" encoding="UTF-8" standalone="no"?>
<!DOCTYPE svg PUBLIC "-//W3C//DTD SVG 1.1//EN"
 "http://www.w3.org/Graphics/SVG/1.1/DTD/svg11.dtd">
<!-- Generated by graphviz version 2.40.1 (20161225.0304)
 -->
<!-- Title: /home/dominik/uni/MoonState/include/mbuf.hpp Pages: 1 -->
<svg width="702pt" height="307pt"
 viewBox="0.00 0.00 701.86 307.00" xmlns="http://www.w3.org/2000/svg" xmlns:xlink="http://www.w3.org/1999/xlink">
<g id="graph0" class="graph" transform="scale(1 1) rotate(0) translate(4 303)">
<title>/home/dominik/uni/MoonState/include/mbuf.hpp</title>
<!-- Node3 -->
<g id="node1" class="node">
<title>Node3</title>
<polygon fill="#bfbfbf" stroke="#000000" points="267,-268.5 267,-298.5 414,-298.5 414,-268.5 267,-268.5"/>
<text text-anchor="start" x="275" y="-286.5" font-family="Helvetica,sans-Serif" font-size="10.00" fill="#000000">/home/dominik/uni/MoonState</text>
<text text-anchor="middle" x="340.5" y="-275.5" font-family="Helvetica,sans-Serif" font-size="10.00" fill="#000000">/include/mbuf.hpp</text>
</g>
<!-- Node4 -->
<g id="node2" class="node">
<title>Node4</title>
<g id="a_node2"><a xlink:href="dtlsClient_8hpp.html" target="_top" xlink:title="/home/dominik/uni/MoonState\l/include/dtlsClient.hpp">
<polygon fill="none" stroke="#000000" points="0,-201.5 0,-231.5 147,-231.5 147,-201.5 0,-201.5"/>
<text text-anchor="start" x="8" y="-219.5" font-family="Helvetica,sans-Serif" font-size="10.00" fill="#000000">/home/dominik/uni/MoonState</text>
<text text-anchor="middle" x="73.5" y="-208.5" font-family="Helvetica,sans-Serif" font-size="10.00" fill="#000000">/include/dtlsClient.hpp</text>
</a>
</g>
</g>
<!-- Node3&#45;&gt;Node4 -->
<g id="edge1" class="edge">
<title>Node3&#45;&gt;Node4</title>
<path fill="none" stroke="#191970" d="M270.8508,-266.0225C228.2848,-255.3411 174.3903,-241.8171 133.6814,-231.6017"/>
<polygon fill="#191970" stroke="#191970" points="270.0288,-269.4247 280.58,-268.4639 271.7326,-262.6352 270.0288,-269.4247"/>
</g>
<!-- Node6 -->
<g id="node4" class="node">
<title>Node6</title>
<g id="a_node4"><a xlink:href="helloBye2Proto_8cpp.html" target="_top" xlink:title="/home/dominik/uni/MoonState\l/src/helloBye2Proto.cpp">
<polygon fill="none" stroke="#000000" points="165,-201.5 165,-231.5 312,-231.5 312,-201.5 165,-201.5"/>
<text text-anchor="start" x="173" y="-219.5" font-family="Helvetica,sans-Serif" font-size="10.00" fill="#000000">/home/dominik/uni/MoonState</text>
<text text-anchor="middle" x="238.5" y="-208.5" font-family="Helvetica,sans-Serif" font-size="10.00" fill="#000000">/src/helloBye2Proto.cpp</text>
</a>
</g>
</g>
<!-- Node3&#45;&gt;Node6 -->
<g id="edge3" class="edge">
<title>Node3&#45;&gt;Node6</title>
<path fill="none" stroke="#191970" d="M308.9791,-262.7951C293.6955,-252.7558 275.6652,-240.9124 261.6673,-231.7177"/>
<polygon fill="#191970" stroke="#191970" points="307.3295,-265.8991 317.6092,-268.4639 311.1726,-260.0484 307.3295,-265.8991"/>
</g>
<!-- Node9 -->
<g id="node7" class="node">
<title>Node9</title>
<g id="a_node7"><a xlink:href="helloBye2__C_8cpp.html" target="_top" xlink:title="/home/dominik/uni/MoonState\l/src/helloBye2_C.cpp">
<polygon fill="none" stroke="#000000" points="184,-.5 184,-30.5 331,-30.5 331,-.5 184,-.5"/>
<text text-anchor="start" x="192" y="-18.5" font-family="Helvetica,sans-Serif" font-size="10.00" fill="#000000">/home/dominik/uni/MoonState</text>
<text text-anchor="middle" x="257.5" y="-7.5" font-family="Helvetica,sans-Serif" font-size="10.00" fill="#000000">/src/helloBye2_C.cpp</text>
</a>
</g>
</g>
<!-- Node3&#45;&gt;Node9 -->
<g id="edge15" class="edge">
<title>Node3&#45;&gt;Node9</title>
<path fill="none" stroke="#191970" d="M344.1322,-258.5145C349.0292,-216.3052 353.6818,-129.3884 320.5,-67 312.407,-51.7835 297.7196,-39.3739 284.5611,-30.5518"/>
<polygon fill="#191970" stroke="#191970" points="340.6549,-258.1153 342.8726,-268.4754 347.5996,-258.9935 340.6549,-258.1153"/>
</g>
<!-- Node11 -->
<g id="node9" class="node">
<title>Node11</title>
<g id="a_node9"><a xlink:href="helloByeProto_8cpp.html" target="_top" xlink:title="/home/dominik/uni/MoonState\l/src/helloByeProto.cpp">
<polygon fill="none" stroke="#000000" points="369,-201.5 369,-231.5 516,-231.5 516,-201.5 369,-201.5"/>
<text text-anchor="start" x="377" y="-219.5" font-family="Helvetica,sans-Serif" font-size="10.00" fill="#000000">/home/dominik/uni/MoonState</text>
<text text-anchor="middle" x="442.5" y="-208.5" font-family="Helvetica,sans-Serif" font-size="10.00" fill="#000000">/src/helloByeProto.cpp</text>
</a>
</g>
</g>
<!-- Node3&#45;&gt;Node11 -->
<g id="edge9" class="edge">
<title>Node3&#45;&gt;Node11</title>
<path fill="none" stroke="#191970" d="M372.0209,-262.7951C387.3045,-252.7558 405.3348,-240.9124 419.3327,-231.7177"/>
<polygon fill="#191970" stroke="#191970" points="369.8274,-260.0484 363.3908,-268.4639 373.6705,-265.8991 369.8274,-260.0484"/>
</g>
<!-- Node14 -->
<g id="node12" class="node">
<title>Node14</title>
<g id="a_node12"><a xlink:href="helloBye__C_8cpp.html" target="_top" xlink:title="/home/dominik/uni/MoonState\l/src/helloBye_C.cpp">
<polygon fill="none" stroke="#000000" points="451,-.5 451,-30.5 598,-30.5 598,-.5 451,-.5"/>
<text text-anchor="start" x="459" y="-18.5" font-family="Helvetica,sans-Serif" font-size="10.00" fill="#000000">/home/dominik/uni/MoonState</text>
<text text-anchor="middle" x="524.5" y="-7.5" font-family="Helvetica,sans-Serif" font-size="10.00" fill="#000000">/src/helloBye_C.cpp</text>
</a>
</g>
</g>
<!-- Node3&#45;&gt;Node14 -->
<g id="edge16" class="edge">
<title>Node3&#45;&gt;Node14</title>
<path fill="none" stroke="#191970" d="M423.9242,-268.3726C510.8466,-247.3968 641.0032,-199.8604 689.5,-98 709.9449,-55.0585 651.1496,-34.1754 598.1655,-24.2089"/>
<polygon fill="#191970" stroke="#191970" points="423.0118,-264.9916 414.0742,-270.6811 424.609,-271.8069 423.0118,-264.9916"/>
</g>
<!-- Node5 -->
<g id="node3" class="node">
<title>Node5</title>
<g id="a_node3"><a xlink:href="dtlsClient_8cpp.html" target="_top" xlink:title="/home/dominik/uni/MoonState\l/src/dtlsClient.cpp">
<polygon fill="none" stroke="#000000" points="0,-134.5 0,-164.5 147,-164.5 147,-134.5 0,-134.5"/>
<text text-anchor="start" x="8" y="-152.5" font-family="Helvetica,sans-Serif" font-size="10.00" fill="#000000">/home/dominik/uni/MoonState</text>
<text text-anchor="middle" x="73.5" y="-141.5" font-family="Helvetica,sans-Serif" font-size="10.00" fill="#000000">/src/dtlsClient.cpp</text>
</a>
</g>
</g>
<!-- Node4&#45;&gt;Node5 -->
<g id="edge2" class="edge">
<title>Node4&#45;&gt;Node5</title>
<path fill="none" stroke="#191970" d="M73.5,-191.0249C73.5,-182.128 73.5,-172.4287 73.5,-164.6432"/>
<polygon fill="#191970" stroke="#191970" points="70.0001,-191.2966 73.5,-201.2967 77.0001,-191.2967 70.0001,-191.2966"/>
</g>
<!-- Node7 -->
<g id="node5" class="node">
<title>Node7</title>
<g id="a_node5"><a xlink:href="helloBye2Proto_8hpp.html" target="_top" xlink:title="/home/dominik/uni/MoonState\l/include/helloBye2Proto.hpp">
<polygon fill="none" stroke="#000000" points="165,-134.5 165,-164.5 312,-164.5 312,-134.5 165,-134.5"/>
<text text-anchor="start" x="173" y="-152.5" font-family="Helvetica,sans-Serif" font-size="10.00" fill="#000000">/home/dominik/uni/MoonState</text>
<text text-anchor="middle" x="238.5" y="-141.5" font-family="Helvetica,sans-Serif" font-size="10.00" fill="#000000">/include/helloBye2Proto.hpp</text>
</a>
</g>
</g>
<!-- Node6&#45;&gt;Node7 -->
<g id="edge4" class="edge">
<title>Node6&#45;&gt;Node7</title>
<path fill="none" stroke="#191970" d="M231.9384,-191.3179C231.5239,-182.3414 231.7933,-172.5143 232.7464,-164.6432"/>
<polygon fill="#191970" stroke="#191970" points="228.4504,-191.6087 232.7392,-201.2967 235.428,-191.0487 228.4504,-191.6087"/>
</g>
<!-- Node7&#45;&gt;Node6 -->
<g id="edge7" class="edge">
<title>Node7&#45;&gt;Node6</title>
<path fill="none" stroke="#191970" d="M245.0584,-174.6135C245.4764,-183.5857 245.2105,-193.4156 244.2608,-201.2967"/>
<polygon fill="#191970" stroke="#191970" points="248.5469,-174.3291 244.2536,-164.6432 241.5696,-174.8924 248.5469,-174.3291"/>
</g>
<!-- Node8 -->
<g id="node6" class="node">
<title>Node8</title>
<g id="a_node6"><a xlink:href="helloBye2__C_8hpp.html" target="_top" xlink:title="/home/dominik/uni/MoonState\l/include/helloBye2_C.hpp">
<polygon fill="none" stroke="#000000" points="0,-67.5 0,-97.5 147,-97.5 147,-67.5 0,-67.5"/>
<text text-anchor="start" x="8" y="-85.5" font-family="Helvetica,sans-Serif" font-size="10.00" fill="#000000">/home/dominik/uni/MoonState</text>
<text text-anchor="middle" x="73.5" y="-74.5" font-family="Helvetica,sans-Serif" font-size="10.00" fill="#000000">/include/helloBye2_C.hpp</text>
</a>
</g>
</g>
<!-- Node7&#45;&gt;Node8 -->
<g id="edge5" class="edge">
<title>Node7&#45;&gt;Node8</title>
<path fill="none" stroke="#191970" d="M191.9298,-130.5897C166.2245,-120.1518 134.7358,-107.3654 110.6907,-97.6017"/>
<polygon fill="#191970" stroke="#191970" points="190.8887,-133.9444 201.4708,-134.4639 193.5223,-127.4587 190.8887,-133.9444"/>
</g>
<!-- Node10 -->
<g id="node8" class="node">
<title>Node10</title>
<g id="a_node8"><a xlink:href="helloBye2ProtoStatic_8cpp.html" target="_top" xlink:title="/home/dominik/uni/MoonState\l/src/helloBye2ProtoStatic.cpp">
<polygon fill="none" stroke="#000000" points="165,-67.5 165,-97.5 312,-97.5 312,-67.5 165,-67.5"/>
<text text-anchor="start" x="173" y="-85.5" font-family="Helvetica,sans-Serif" font-size="10.00" fill="#000000">/home/dominik/uni/MoonState</text>
<text text-anchor="middle" x="238.5" y="-74.5" font-family="Helvetica,sans-Serif" font-size="10.00" fill="#000000">/src/helloBye2ProtoStatic.cpp</text>
</a>
</g>
</g>
<!-- Node7&#45;&gt;Node10 -->
<g id="edge8" class="edge">
<title>Node7&#45;&gt;Node10</title>
<path fill="none" stroke="#191970" d="M238.5,-124.0249C238.5,-115.128 238.5,-105.4287 238.5,-97.6432"/>
<polygon fill="#191970" stroke="#191970" points="235.0001,-124.2966 238.5,-134.2967 242.0001,-124.2967 235.0001,-124.2966"/>
</g>
<!-- Node8&#45;&gt;Node9 -->
<g id="edge6" class="edge">
<title>Node8&#45;&gt;Node9</title>
<path fill="none" stroke="#191970" d="M124.2998,-64.0023C153.1685,-53.4903 188.8585,-40.4945 216.0267,-30.6017"/>
<polygon fill="#191970" stroke="#191970" points="122.9921,-60.7535 114.7932,-67.4639 125.3872,-67.3311 122.9921,-60.7535"/>
</g>
<!-- Node12 -->
<g id="node10" class="node">
<title>Node12</title>
<g id="a_node10"><a xlink:href="helloByeProto_8hpp.html" target="_top" xlink:title="/home/dominik/uni/MoonState\l/include/helloByeProto.hpp">
<polygon fill="none" stroke="#000000" points="369,-134.5 369,-164.5 516,-164.5 516,-134.5 369,-134.5"/>
<text text-anchor="start" x="377" y="-152.5" font-family="Helvetica,sans-Serif" font-size="10.00" fill="#000000">/home/dominik/uni/MoonState</text>
<text text-anchor="middle" x="442.5" y="-141.5" font-family="Helvetica,sans-Serif" font-size="10.00" fill="#000000">/include/helloByeProto.hpp</text>
</a>
</g>
</g>
<!-- Node11&#45;&gt;Node12 -->
<g id="edge10" class="edge">
<title>Node11&#45;&gt;Node12</title>
<path fill="none" stroke="#191970" d="M435.9384,-191.3179C435.5239,-182.3414 435.7933,-172.5143 436.7464,-164.6432"/>
<polygon fill="#191970" stroke="#191970" points="432.4504,-191.6087 436.7392,-201.2967 439.428,-191.0487 432.4504,-191.6087"/>
</g>
<!-- Node12&#45;&gt;Node11 -->
<g id="edge13" class="edge">
<title>Node12&#45;&gt;Node11</title>
<path fill="none" stroke="#191970" d="M449.0584,-174.6135C449.4764,-183.5857 449.2105,-193.4156 448.2608,-201.2967"/>
<polygon fill="#191970" stroke="#191970" points="452.5469,-174.3291 448.2536,-164.6432 445.5696,-174.8924 452.5469,-174.3291"/>
</g>
<!-- Node13 -->
<g id="node11" class="node">
<title>Node13</title>
<g id="a_node11"><a xlink:href="helloBye__C_8hpp.html" target="_top" xlink:title="/home/dominik/uni/MoonState\l/include/helloBye_C.hpp">
<polygon fill="none" stroke="#000000" points="369,-67.5 369,-97.5 516,-97.5 516,-67.5 369,-67.5"/>
<text text-anchor="start" x="377" y="-85.5" font-family="Helvetica,sans-Serif" font-size="10.00" fill="#000000">/home/dominik/uni/MoonState</text>
<text text-anchor="middle" x="442.5" y="-74.5" font-family="Helvetica,sans-Serif" font-size="10.00" fill="#000000">/include/helloBye_C.hpp</text>
</a>
</g>
</g>
<!-- Node12&#45;&gt;Node13 -->
<g id="edge11" class="edge">
<title>Node12&#45;&gt;Node13</title>
<path fill="none" stroke="#191970" d="M442.5,-124.0249C442.5,-115.128 442.5,-105.4287 442.5,-97.6432"/>
<polygon fill="#191970" stroke="#191970" points="439.0001,-124.2966 442.5,-134.2967 446.0001,-124.2967 439.0001,-124.2966"/>
</g>
<!-- Node15 -->
<g id="node13" class="node">
<title>Node15</title>
<g id="a_node13"><a xlink:href="helloByeProtoStatic_8cpp.html" target="_top" xlink:title="/home/dominik/uni/MoonState\l/src/helloByeProtoStatic.cpp">
<polygon fill="none" stroke="#000000" points="534,-67.5 534,-97.5 681,-97.5 681,-67.5 534,-67.5"/>
<text text-anchor="start" x="542" y="-85.5" font-family="Helvetica,sans-Serif" font-size="10.00" fill="#000000">/home/dominik/uni/MoonState</text>
<text text-anchor="middle" x="607.5" y="-74.5" font-family="Helvetica,sans-Serif" font-size="10.00" fill="#000000">/src/helloByeProtoStatic.cpp</text>
</a>
</g>
</g>
<!-- Node12&#45;&gt;Node15 -->
<g id="edge14" class="edge">
<title>Node12&#45;&gt;Node15</title>
<path fill="none" stroke="#191970" d="M489.0702,-130.5897C514.7755,-120.1518 546.2642,-107.3654 570.3093,-97.6017"/>
<polygon fill="#191970" stroke="#191970" points="487.4777,-127.4587 479.5292,-134.4639 490.1113,-133.9444 487.4777,-127.4587"/>
</g>
<!-- Node13&#45;&gt;Node14 -->
<g id="edge12" class="edge">
<title>Node13&#45;&gt;Node14</title>
<path fill="none" stroke="#191970" d="M469.0817,-60.7808C481.1278,-50.9383 495.0767,-39.541 505.9666,-30.6432"/>
<polygon fill="#191970" stroke="#191970" points="466.6363,-58.2591 461.1071,-67.2967 471.0654,-63.6797 466.6363,-58.2591"/>
</g>
</g>
</svg>
