<?xml version="1.0" encoding="UTF-8" standalone="no"?>
<!DOCTYPE svg PUBLIC "-//W3C//DTD SVG 1.1//EN"
 "http://www.w3.org/Graphics/SVG/1.1/DTD/svg11.dtd">
<!-- Generated by graphviz version 2.40.1 (20161225.0304)
 -->
<!-- Title: /home/dominik/uni/MoonState/include/mbuf.hpp Pages: 1 -->
<svg width="771pt" height="307pt"
 viewBox="0.00 0.00 770.71 307.00" xmlns="http://www.w3.org/2000/svg" xmlns:xlink="http://www.w3.org/1999/xlink">
<g id="graph0" class="graph" transform="scale(1 1) rotate(0) translate(4 303)">
<title>/home/dominik/uni/MoonState/include/mbuf.hpp</title>
<!-- Node3 -->
<g id="node1" class="node">
<title>Node3</title>
<polygon fill="#bfbfbf" stroke="#000000" points="369,-268.5 369,-298.5 516,-298.5 516,-268.5 369,-268.5"/>
<text text-anchor="start" x="377" y="-286.5" font-family="Helvetica,sans-Serif" font-size="10.00" fill="#000000">/home/dominik/uni/MoonState</text>
<text text-anchor="middle" x="442.5" y="-275.5" font-family="Helvetica,sans-Serif" font-size="10.00" fill="#000000">/include/mbuf.hpp</text>
</g>
<!-- Node4 -->
<g id="node2" class="node">
<title>Node4</title>
<g id="a_node2"><a xlink:href="dtlsClient_8hpp.html" target="_top" xlink:title="/home/dominik/uni/MoonState\l/include/dtlsClient.hpp">
<polygon fill="none" stroke="#000000" points="0,-201.5 0,-231.5 147,-231.5 147,-201.5 0,-201.5"/>
<text text-anchor="start" x="8" y="-219.5" font-family="Helvetica,sans-Serif" font-size="10.00" fill="#000000">/home/dominik/uni/MoonState</text>
<text text-anchor="middle" x="73.5" y="-208.5" font-family="Helvetica,sans-Serif" font-size="10.00" fill="#000000">/include/dtlsClient.hpp</text>
</a>
</g>
</g>
<!-- Node3&#45;&gt;Node4 -->
<g id="edge1" class="edge">
<title>Node3&#45;&gt;Node4</title>
<path fill="none" stroke="#191970" d="M358.6468,-268.6643C301.396,-258.4834 223.8335,-244.589 155.5,-232 152.7928,-231.5013 150.0358,-230.9912 147.2512,-230.4742"/>
<polygon fill="#191970" stroke="#191970" points="358.2748,-272.1529 368.733,-270.4569 359.4997,-265.2609 358.2748,-272.1529"/>
</g>
<!-- Node6 -->
<g id="node4" class="node">
<title>Node6</title>
<g id="a_node4"><a xlink:href="helloBye2Proto_8cpp.html" target="_top" xlink:title="/home/dominik/uni/MoonState\l/src/helloBye2Proto.cpp">
<polygon fill="none" stroke="#000000" points="165,-201.5 165,-231.5 312,-231.5 312,-201.5 165,-201.5"/>
<text text-anchor="start" x="173" y="-219.5" font-family="Helvetica,sans-Serif" font-size="10.00" fill="#000000">/home/dominik/uni/MoonState</text>
<text text-anchor="middle" x="238.5" y="-208.5" font-family="Helvetica,sans-Serif" font-size="10.00" fill="#000000">/src/helloBye2Proto.cpp</text>
</a>
</g>
</g>
<!-- Node3&#45;&gt;Node6 -->
<g id="edge3" class="edge">
<title>Node3&#45;&gt;Node6</title>
<path fill="none" stroke="#191970" d="M387.0117,-265.2759C354.8608,-254.7165 314.8645,-241.5805 284.4813,-231.6017"/>
<polygon fill="#191970" stroke="#191970" points="386.1256,-268.6687 396.7184,-268.4639 388.3098,-262.0182 386.1256,-268.6687"/>
</g>
<!-- Node9 -->
<g id="node7" class="node">
<title>Node9</title>
<g id="a_node7"><a xlink:href="helloBye2__C_8cpp.html" target="_top" xlink:title="/home/dominik/uni/MoonState\l/src/helloBye2_C.cpp">
<polygon fill="none" stroke="#000000" points="194,-.5 194,-30.5 341,-30.5 341,-.5 194,-.5"/>
<text text-anchor="start" x="202" y="-18.5" font-family="Helvetica,sans-Serif" font-size="10.00" fill="#000000">/home/dominik/uni/MoonState</text>
<text text-anchor="middle" x="267.5" y="-7.5" font-family="Helvetica,sans-Serif" font-size="10.00" fill="#000000">/src/helloBye2_C.cpp</text>
</a>
</g>
</g>
<!-- Node3&#45;&gt;Node9 -->
<g id="edge19" class="edge">
<title>Node3&#45;&gt;Node9</title>
<path fill="none" stroke="#191970" d="M396.5401,-263.568C382.8117,-255.5741 368.9256,-245.0979 359.5,-232 315.4853,-170.8369 357.6753,-132.5456 320.5,-67 312.3982,-52.7153 299.1482,-39.8403 287.9237,-30.5365"/>
<polygon fill="#191970" stroke="#191970" points="395.0377,-266.7356 405.4904,-268.4653 398.3978,-260.5948 395.0377,-266.7356"/>
</g>
<!-- Node11 -->
<g id="node9" class="node">
<title>Node11</title>
<g id="a_node9"><a xlink:href="helloBye3_8hpp.html" target="_top" xlink:title="/home/dominik/uni/MoonState\l/include/helloBye3.hpp">
<polygon fill="none" stroke="#000000" points="369,-201.5 369,-231.5 516,-231.5 516,-201.5 369,-201.5"/>
<text text-anchor="start" x="377" y="-219.5" font-family="Helvetica,sans-Serif" font-size="10.00" fill="#000000">/home/dominik/uni/MoonState</text>
<text text-anchor="middle" x="442.5" y="-208.5" font-family="Helvetica,sans-Serif" font-size="10.00" fill="#000000">/include/helloBye3.hpp</text>
</a>
</g>
</g>
<!-- Node3&#45;&gt;Node11 -->
<g id="edge9" class="edge">
<title>Node3&#45;&gt;Node11</title>
<path fill="none" stroke="#191970" d="M442.5,-258.0249C442.5,-249.128 442.5,-239.4287 442.5,-231.6432"/>
<polygon fill="#191970" stroke="#191970" points="439.0001,-258.2966 442.5,-268.2967 446.0001,-258.2967 439.0001,-258.2966"/>
</g>
<!-- Node12 -->
<g id="node10" class="node">
<title>Node12</title>
<g id="a_node10"><a xlink:href="helloBye3_8cpp.html" target="_top" xlink:title="/home/dominik/uni/MoonState\l/src/helloBye3.cpp">
<polygon fill="none" stroke="#000000" points="369,-134.5 369,-164.5 516,-164.5 516,-134.5 369,-134.5"/>
<text text-anchor="start" x="377" y="-152.5" font-family="Helvetica,sans-Serif" font-size="10.00" fill="#000000">/home/dominik/uni/MoonState</text>
<text text-anchor="middle" x="442.5" y="-141.5" font-family="Helvetica,sans-Serif" font-size="10.00" fill="#000000">/src/helloBye3.cpp</text>
</a>
</g>
</g>
<!-- Node3&#45;&gt;Node12 -->
<g id="edge12" class="edge">
<title>Node3&#45;&gt;Node12</title>
<path fill="none" stroke="#191970" d="M491.9074,-263.3714C504.8207,-255.5803 517.1648,-245.2688 524.5,-232 531.1658,-219.9421 531.1658,-213.0579 524.5,-201 515.472,-184.6691 498.8567,-172.818 482.931,-164.6321"/>
<polygon fill="#191970" stroke="#191970" points="489.9663,-260.4461 482.931,-268.3679 493.3709,-266.5624 489.9663,-260.4461"/>
</g>
<!-- Node13 -->
<g id="node11" class="node">
<title>Node13</title>
<g id="a_node11"><a xlink:href="helloByeProto_8cpp.html" target="_top" xlink:title="/home/dominik/uni/MoonState\l/src/helloByeProto.cpp">
<polygon fill="none" stroke="#000000" points="573,-201.5 573,-231.5 720,-231.5 720,-201.5 573,-201.5"/>
<text text-anchor="start" x="581" y="-219.5" font-family="Helvetica,sans-Serif" font-size="10.00" fill="#000000">/home/dominik/uni/MoonState</text>
<text text-anchor="middle" x="646.5" y="-208.5" font-family="Helvetica,sans-Serif" font-size="10.00" fill="#000000">/src/helloByeProto.cpp</text>
</a>
</g>
</g>
<!-- Node3&#45;&gt;Node13 -->
<g id="edge13" class="edge">
<title>Node3&#45;&gt;Node13</title>
<path fill="none" stroke="#191970" d="M497.9883,-265.2759C530.1392,-254.7165 570.1355,-241.5805 600.5187,-231.6017"/>
<polygon fill="#191970" stroke="#191970" points="496.6902,-262.0182 488.2816,-268.4639 498.8744,-268.6687 496.6902,-262.0182"/>
</g>
<!-- Node16 -->
<g id="node14" class="node">
<title>Node16</title>
<g id="a_node14"><a xlink:href="helloBye__C_8cpp.html" target="_top" xlink:title="/home/dominik/uni/MoonState\l/src/helloBye_C.cpp">
<polygon fill="none" stroke="#000000" points="480,-.5 480,-30.5 627,-30.5 627,-.5 480,-.5"/>
<text text-anchor="start" x="488" y="-18.5" font-family="Helvetica,sans-Serif" font-size="10.00" fill="#000000">/home/dominik/uni/MoonState</text>
<text text-anchor="middle" x="553.5" y="-7.5" font-family="Helvetica,sans-Serif" font-size="10.00" fill="#000000">/src/helloBye_C.cpp</text>
</a>
</g>
</g>
<!-- Node3&#45;&gt;Node16 -->
<g id="edge20" class="edge">
<title>Node3&#45;&gt;Node16</title>
<path fill="none" stroke="#191970" d="M526.5211,-279.9709C601.451,-274.8502 703.1187,-262.3599 728.5,-232 775.5358,-175.738 772.4292,-125.7197 728.5,-67 715.8839,-50.1362 669.142,-36.8944 627.1384,-28.0629"/>
<polygon fill="#191970" stroke="#191970" points="525.8883,-276.5046 516.1363,-280.6457 526.3422,-283.4899 525.8883,-276.5046"/>
</g>
<!-- Node5 -->
<g id="node3" class="node">
<title>Node5</title>
<g id="a_node3"><a xlink:href="dtlsClient_8cpp.html" target="_top" xlink:title="/home/dominik/uni/MoonState\l/src/dtlsClient.cpp">
<polygon fill="none" stroke="#000000" points="0,-134.5 0,-164.5 147,-164.5 147,-134.5 0,-134.5"/>
<text text-anchor="start" x="8" y="-152.5" font-family="Helvetica,sans-Serif" font-size="10.00" fill="#000000">/home/dominik/uni/MoonState</text>
<text text-anchor="middle" x="73.5" y="-141.5" font-family="Helvetica,sans-Serif" font-size="10.00" fill="#000000">/src/dtlsClient.cpp</text>
</a>
</g>
</g>
<!-- Node4&#45;&gt;Node5 -->
<g id="edge2" class="edge">
<title>Node4&#45;&gt;Node5</title>
<path fill="none" stroke="#191970" d="M73.5,-191.0249C73.5,-182.128 73.5,-172.4287 73.5,-164.6432"/>
<polygon fill="#191970" stroke="#191970" points="70.0001,-191.2966 73.5,-201.2967 77.0001,-191.2967 70.0001,-191.2966"/>
</g>
<!-- Node7 -->
<g id="node5" class="node">
<title>Node7</title>
<g id="a_node5"><a xlink:href="helloBye2Proto_8hpp.html" target="_top" xlink:title="/home/dominik/uni/MoonState\l/include/helloBye2Proto.hpp">
<polygon fill="none" stroke="#000000" points="165,-134.5 165,-164.5 312,-164.5 312,-134.5 165,-134.5"/>
<text text-anchor="start" x="173" y="-152.5" font-family="Helvetica,sans-Serif" font-size="10.00" fill="#000000">/home/dominik/uni/MoonState</text>
<text text-anchor="middle" x="238.5" y="-141.5" font-family="Helvetica,sans-Serif" font-size="10.00" fill="#000000">/include/helloBye2Proto.hpp</text>
</a>
</g>
</g>
<!-- Node6&#45;&gt;Node7 -->
<g id="edge4" class="edge">
<title>Node6&#45;&gt;Node7</title>
<path fill="none" stroke="#191970" d="M231.9384,-191.3179C231.5239,-182.3414 231.7933,-172.5143 232.7464,-164.6432"/>
<polygon fill="#191970" stroke="#191970" points="228.4504,-191.6087 232.7392,-201.2967 235.428,-191.0487 228.4504,-191.6087"/>
</g>
<!-- Node7&#45;&gt;Node6 -->
<g id="edge7" class="edge">
<title>Node7&#45;&gt;Node6</title>
<path fill="none" stroke="#191970" d="M245.0584,-174.6135C245.4764,-183.5857 245.2105,-193.4156 244.2608,-201.2967"/>
<polygon fill="#191970" stroke="#191970" points="248.5469,-174.3291 244.2536,-164.6432 241.5696,-174.8924 248.5469,-174.3291"/>
</g>
<!-- Node8 -->
<g id="node6" class="node">
<title>Node8</title>
<g id="a_node6"><a xlink:href="helloBye2__C_8hpp.html" target="_top" xlink:title="/home/dominik/uni/MoonState\l/include/helloBye2_C.hpp">
<polygon fill="none" stroke="#000000" points="0,-67.5 0,-97.5 147,-97.5 147,-67.5 0,-67.5"/>
<text text-anchor="start" x="8" y="-85.5" font-family="Helvetica,sans-Serif" font-size="10.00" fill="#000000">/home/dominik/uni/MoonState</text>
<text text-anchor="middle" x="73.5" y="-74.5" font-family="Helvetica,sans-Serif" font-size="10.00" fill="#000000">/include/helloBye2_C.hpp</text>
</a>
</g>
</g>
<!-- Node7&#45;&gt;Node8 -->
<g id="edge5" class="edge">
<title>Node7&#45;&gt;Node8</title>
<path fill="none" stroke="#191970" d="M191.9298,-130.5897C166.2245,-120.1518 134.7358,-107.3654 110.6907,-97.6017"/>
<polygon fill="#191970" stroke="#191970" points="190.8887,-133.9444 201.4708,-134.4639 193.5223,-127.4587 190.8887,-133.9444"/>
</g>
<!-- Node10 -->
<g id="node8" class="node">
<title>Node10</title>
<g id="a_node8"><a xlink:href="helloBye2ProtoStatic_8cpp.html" target="_top" xlink:title="/home/dominik/uni/MoonState\l/src/helloBye2ProtoStatic.cpp">
<polygon fill="none" stroke="#000000" points="165,-67.5 165,-97.5 312,-97.5 312,-67.5 165,-67.5"/>
<text text-anchor="start" x="173" y="-85.5" font-family="Helvetica,sans-Serif" font-size="10.00" fill="#000000">/home/dominik/uni/MoonState</text>
<text text-anchor="middle" x="238.5" y="-74.5" font-family="Helvetica,sans-Serif" font-size="10.00" fill="#000000">/src/helloBye2ProtoStatic.cpp</text>
</a>
</g>
</g>
<!-- Node7&#45;&gt;Node10 -->
<g id="edge8" class="edge">
<title>Node7&#45;&gt;Node10</title>
<path fill="none" stroke="#191970" d="M238.5,-124.0249C238.5,-115.128 238.5,-105.4287 238.5,-97.6432"/>
<polygon fill="#191970" stroke="#191970" points="235.0001,-124.2966 238.5,-134.2967 242.0001,-124.2967 235.0001,-124.2966"/>
</g>
<!-- Node8&#45;&gt;Node9 -->
<g id="edge6" class="edge">
<title>Node8&#45;&gt;Node9</title>
<path fill="none" stroke="#191970" d="M126.664,-64.1392C157.1709,-53.6033 195.0034,-40.5375 223.7727,-30.6017"/>
<polygon fill="#191970" stroke="#191970" points="125.347,-60.8912 117.0374,-67.4639 127.6321,-67.5077 125.347,-60.8912"/>
</g>
<!-- Node11&#45;&gt;Node12 -->
<g id="edge10" class="edge">
<title>Node11&#45;&gt;Node12</title>
<path fill="none" stroke="#191970" d="M435.9384,-191.3179C435.5239,-182.3414 435.7933,-172.5143 436.7464,-164.6432"/>
<polygon fill="#191970" stroke="#191970" points="432.4504,-191.6087 436.7392,-201.2967 439.428,-191.0487 432.4504,-191.6087"/>
</g>
<!-- Node12&#45;&gt;Node11 -->
<g id="edge11" class="edge">
<title>Node12&#45;&gt;Node11</title>
<path fill="none" stroke="#191970" d="M449.0584,-174.6135C449.4764,-183.5857 449.2105,-193.4156 448.2608,-201.2967"/>
<polygon fill="#191970" stroke="#191970" points="452.5469,-174.3291 448.2536,-164.6432 445.5696,-174.8924 452.5469,-174.3291"/>
</g>
<!-- Node14 -->
<g id="node12" class="node">
<title>Node14</title>
<g id="a_node12"><a xlink:href="helloByeProto_8hpp.html" target="_top" xlink:title="/home/dominik/uni/MoonState\l/include/helloByeProto.hpp">
<polygon fill="none" stroke="#000000" points="573,-134.5 573,-164.5 720,-164.5 720,-134.5 573,-134.5"/>
<text text-anchor="start" x="581" y="-152.5" font-family="Helvetica,sans-Serif" font-size="10.00" fill="#000000">/home/dominik/uni/MoonState</text>
<text text-anchor="middle" x="646.5" y="-141.5" font-family="Helvetica,sans-Serif" font-size="10.00" fill="#000000">/include/helloByeProto.hpp</text>
</a>
</g>
</g>
<!-- Node13&#45;&gt;Node14 -->
<g id="edge14" class="edge">
<title>Node13&#45;&gt;Node14</title>
<path fill="none" stroke="#191970" d="M639.9384,-191.3179C639.5239,-182.3414 639.7933,-172.5143 640.7464,-164.6432"/>
<polygon fill="#191970" stroke="#191970" points="636.4504,-191.6087 640.7392,-201.2967 643.428,-191.0487 636.4504,-191.6087"/>
</g>
<!-- Node14&#45;&gt;Node13 -->
<g id="edge17" class="edge">
<title>Node14&#45;&gt;Node13</title>
<path fill="none" stroke="#191970" d="M653.0584,-174.6135C653.4764,-183.5857 653.2105,-193.4156 652.2608,-201.2967"/>
<polygon fill="#191970" stroke="#191970" points="656.5469,-174.3291 652.2536,-164.6432 649.5696,-174.8924 656.5469,-174.3291"/>
</g>
<!-- Node15 -->
<g id="node13" class="node">
<title>Node15</title>
<g id="a_node13"><a xlink:href="helloBye__C_8hpp.html" target="_top" xlink:title="/home/dominik/uni/MoonState\l/include/helloBye_C.hpp">
<polygon fill="none" stroke="#000000" points="408,-67.5 408,-97.5 555,-97.5 555,-67.5 408,-67.5"/>
<text text-anchor="start" x="416" y="-85.5" font-family="Helvetica,sans-Serif" font-size="10.00" fill="#000000">/home/dominik/uni/MoonState</text>
<text text-anchor="middle" x="481.5" y="-74.5" font-family="Helvetica,sans-Serif" font-size="10.00" fill="#000000">/include/helloBye_C.hpp</text>
</a>
</g>
</g>
<!-- Node14&#45;&gt;Node15 -->
<g id="edge15" class="edge">
<title>Node14&#45;&gt;Node15</title>
<path fill="none" stroke="#191970" d="M599.9298,-130.5897C574.2245,-120.1518 542.7358,-107.3654 518.6907,-97.6017"/>
<polygon fill="#191970" stroke="#191970" points="598.8887,-133.9444 609.4708,-134.4639 601.5223,-127.4587 598.8887,-133.9444"/>
</g>
<!-- Node17 -->
<g id="node15" class="node">
<title>Node17</title>
<g id="a_node15"><a xlink:href="helloByeProtoStatic_8cpp.html" target="_top" xlink:title="/home/dominik/uni/MoonState\l/src/helloByeProtoStatic.cpp">
<polygon fill="none" stroke="#000000" points="573,-67.5 573,-97.5 720,-97.5 720,-67.5 573,-67.5"/>
<text text-anchor="start" x="581" y="-85.5" font-family="Helvetica,sans-Serif" font-size="10.00" fill="#000000">/home/dominik/uni/MoonState</text>
<text text-anchor="middle" x="646.5" y="-74.5" font-family="Helvetica,sans-Serif" font-size="10.00" fill="#000000">/src/helloByeProtoStatic.cpp</text>
</a>
</g>
</g>
<!-- Node14&#45;&gt;Node17 -->
<g id="edge18" class="edge">
<title>Node14&#45;&gt;Node17</title>
<path fill="none" stroke="#191970" d="M646.5,-124.0249C646.5,-115.128 646.5,-105.4287 646.5,-97.6432"/>
<polygon fill="#191970" stroke="#191970" points="643.0001,-124.2966 646.5,-134.2967 650.0001,-124.2967 643.0001,-124.2966"/>
</g>
<!-- Node15&#45;&gt;Node16 -->
<g id="edge16" class="edge">
<title>Node15&#45;&gt;Node16</title>
<path fill="none" stroke="#191970" d="M505.452,-60.2113C515.8871,-50.5009 527.8488,-39.3698 537.2267,-30.6432"/>
<polygon fill="#191970" stroke="#191970" points="502.7743,-57.9221 497.8379,-67.2967 507.5429,-63.0466 502.7743,-57.9221"/>
</g>
</g>
</svg>
