<?xml version="1.0" encoding="UTF-8" standalone="no"?>
<!DOCTYPE svg PUBLIC "-//W3C//DTD SVG 1.1//EN"
 "http://www.w3.org/Graphics/SVG/1.1/DTD/svg11.dtd">
<!-- Generated by graphviz version 2.38.0 (20140413.2041)
 -->
<!-- Title: /home/dominik/uni/MoonState/include/mbuf.hpp Pages: 1 -->
<svg width="155pt" height="95pt"
 viewBox="0.00 0.00 155.00 95.00" xmlns="http://www.w3.org/2000/svg" xmlns:xlink="http://www.w3.org/1999/xlink">
<g id="graph0" class="graph" transform="scale(1 1) rotate(0) translate(4 91)">
<title>/home/dominik/uni/MoonState/include/mbuf.hpp</title>
<!-- Node1 -->
<g id="node1" class="node"><title>Node1</title>
<polygon fill="#bfbfbf" stroke="black" points="0,-56.5 0,-86.5 147,-86.5 147,-56.5 0,-56.5"/>
<text text-anchor="start" x="8" y="-74.5" font-family="Helvetica,sans-Serif" font-size="10.00">/home/dominik/uni/MoonState</text>
<text text-anchor="middle" x="73.5" y="-63.5" font-family="Helvetica,sans-Serif" font-size="10.00">/include/mbuf.hpp</text>
</g>
<!-- Node2 -->
<g id="node2" class="node"><title>Node2</title>
<polygon fill="none" stroke="#bfbfbf" points="14.5,-0.5 14.5,-19.5 60.5,-19.5 60.5,-0.5 14.5,-0.5"/>
<text text-anchor="middle" x="37.5" y="-7.5" font-family="Helvetica,sans-Serif" font-size="10.00">cstdint</text>
</g>
<!-- Node1&#45;&gt;Node2 -->
<g id="edge1" class="edge"><title>Node1&#45;&gt;Node2</title>
<path fill="none" stroke="midnightblue" d="M64.9685,-56.3993C59.8991,-48.0207 53.4289,-37.3269 48.0416,-28.4229"/>
<polygon fill="midnightblue" stroke="midnightblue" points="50.9096,-26.4018 42.7383,-19.6578 44.9205,-30.0255 50.9096,-26.4018"/>
</g>
<!-- Node3 -->
<g id="node3" class="node"><title>Node3</title>
<polygon fill="none" stroke="#bfbfbf" points="79,-0.5 79,-19.5 142,-19.5 142,-0.5 79,-0.5"/>
<text text-anchor="middle" x="110.5" y="-7.5" font-family="Helvetica,sans-Serif" font-size="10.00">rte_mbuf.h</text>
</g>
<!-- Node1&#45;&gt;Node3 -->
<g id="edge2" class="edge"><title>Node1&#45;&gt;Node3</title>
<path fill="none" stroke="midnightblue" d="M82.2685,-56.3993C87.4787,-48.0207 94.1286,-37.3269 99.6656,-28.4229"/>
<polygon fill="midnightblue" stroke="midnightblue" points="102.808,-29.9981 105.116,-19.6578 96.8632,-26.3015 102.808,-29.9981"/>
</g>
</g>
</svg>
