<?xml version="1.0" encoding="UTF-8" standalone="no"?>
<!DOCTYPE svg PUBLIC "-//W3C//DTD SVG 1.1//EN"
 "http://www.w3.org/Graphics/SVG/1.1/DTD/svg11.dtd">
<!-- Generated by graphviz version 2.40.1 (20161225.0304)
 -->
<!-- Title: HelloBye3MemPool::Client::runHello Pages: 1 -->
<svg width="461pt" height="534pt"
 viewBox="0.00 0.00 461.00 533.50" xmlns="http://www.w3.org/2000/svg" xmlns:xlink="http://www.w3.org/1999/xlink">
<g id="graph0" class="graph" transform="scale(1 1) rotate(0) translate(4 529.5)">
<title>HelloBye3MemPool::Client::runHello</title>
<!-- Node8 -->
<g id="node1" class="node">
<title>Node8</title>
<polygon fill="#bfbfbf" stroke="#000000" points="0,-253.5 0,-283.5 134,-283.5 134,-253.5 0,-253.5"/>
<text text-anchor="start" x="8" y="-271.5" font-family="Helvetica,sans-Serif" font-size="10.00" fill="#000000">HelloBye3MemPool::Client</text>
<text text-anchor="middle" x="67" y="-260.5" font-family="Helvetica,sans-Serif" font-size="10.00" fill="#000000">::runHello</text>
</g>
<!-- Node9 -->
<g id="node2" class="node">
<title>Node9</title>
<g id="a_node2"><a xlink:href="structmbuf.html#a822d13c96f003279f7691d7778e75c3c" target="_top" xlink:title="mbuf::getData">
<polygon fill="none" stroke="#000000" points="206.5,-506 206.5,-525 285.5,-525 285.5,-506 206.5,-506"/>
<text text-anchor="middle" x="246" y="-513" font-family="Helvetica,sans-Serif" font-size="10.00" fill="#000000">mbuf::getData</text>
</a>
</g>
</g>
<!-- Node8&#45;&gt;Node9 -->
<g id="edge1" class="edge">
<title>Node8&#45;&gt;Node9</title>
<path fill="none" stroke="#191970" d="M69.2408,-283.7295C76.1174,-324.8188 100.8193,-438.7329 170,-496.5 177.5157,-502.7757 186.8146,-507.0243 196.2996,-509.8896"/>
<polygon fill="#191970" stroke="#191970" points="195.6301,-513.3307 206.1842,-512.4019 197.3545,-506.5464 195.6301,-513.3307"/>
</g>
<!-- Node10 -->
<g id="node3" class="node">
<title>Node10</title>
<g id="a_node3"><a xlink:href="structmbuf.html#a64e891b6439330838808a0cd140ee386" target="_top" xlink:title="mbuf::getDataLen">
<polygon fill="none" stroke="#000000" points="198.5,-468 198.5,-487 293.5,-487 293.5,-468 198.5,-468"/>
<text text-anchor="middle" x="246" y="-475" font-family="Helvetica,sans-Serif" font-size="10.00" fill="#000000">mbuf::getDataLen</text>
</a>
</g>
</g>
<!-- Node8&#45;&gt;Node10 -->
<g id="edge2" class="edge">
<title>Node8&#45;&gt;Node10</title>
<path fill="none" stroke="#191970" d="M70.6761,-283.5581C80.309,-319.7037 109.8047,-411.8297 170,-458.5 175.4884,-462.7552 181.811,-466.0689 188.4168,-468.6473"/>
<polygon fill="#191970" stroke="#191970" points="187.6395,-472.0776 198.2332,-471.9228 189.8552,-465.4375 187.6395,-472.0776"/>
</g>
<!-- Node11 -->
<g id="node4" class="node">
<title>Node11</title>
<g id="a_node4"><a xlink:href="structHeaders_1_1IPv4.html#a28a6286beded8ad7cd611483f3dcac09" target="_top" xlink:title="Set the version field to 4. ">
<polygon fill="none" stroke="#000000" points="180.5,-430 180.5,-449 311.5,-449 311.5,-430 180.5,-430"/>
<text text-anchor="middle" x="246" y="-437" font-family="Helvetica,sans-Serif" font-size="10.00" fill="#000000">Headers::IPv4::setVersion</text>
</a>
</g>
</g>
<!-- Node8&#45;&gt;Node11 -->
<g id="edge3" class="edge">
<title>Node8&#45;&gt;Node11</title>
<path fill="none" stroke="#191970" d="M72.8831,-283.7357C85.6202,-314.6202 118.7934,-384.7023 170,-420.5 172.8738,-422.509 175.9395,-424.3061 179.1295,-425.9135"/>
<polygon fill="#191970" stroke="#191970" points="177.8268,-429.1638 188.3917,-429.96 180.6293,-422.7492 177.8268,-429.1638"/>
</g>
<!-- Node12 -->
<g id="node5" class="node">
<title>Node12</title>
<g id="a_node5"><a xlink:href="structHeaders_1_1IPv4.html#a89ebc78cd618d1ac327bb82e4b46917f" target="_top" xlink:title="Sets the IP header length. ">
<polygon fill="none" stroke="#000000" points="188.5,-392 188.5,-411 303.5,-411 303.5,-392 188.5,-392"/>
<text text-anchor="middle" x="246" y="-399" font-family="Helvetica,sans-Serif" font-size="10.00" fill="#000000">Headers::IPv4::setIHL</text>
</a>
</g>
</g>
<!-- Node8&#45;&gt;Node12 -->
<g id="edge4" class="edge">
<title>Node8&#45;&gt;Node12</title>
<path fill="none" stroke="#191970" d="M76.3499,-283.683C92.3629,-308.3588 127.4599,-356.9705 170,-382.5 173.6078,-384.6652 177.4536,-386.5845 181.4271,-388.2858"/>
<polygon fill="#191970" stroke="#191970" points="180.2874,-391.5968 190.8786,-391.8729 182.7713,-385.0522 180.2874,-391.5968"/>
</g>
<!-- Node13 -->
<g id="node6" class="node">
<title>Node13</title>
<g id="a_node6"><a xlink:href="structHeaders_1_1IPv4.html#a6170f8d379d252ca29e8c91f457d1108" target="_top" xlink:title="Headers::IPv4::setLength">
<polygon fill="none" stroke="#000000" points="182,-354 182,-373 310,-373 310,-354 182,-354"/>
<text text-anchor="middle" x="246" y="-361" font-family="Helvetica,sans-Serif" font-size="10.00" fill="#000000">Headers::IPv4::setLength</text>
</a>
</g>
</g>
<!-- Node8&#45;&gt;Node13 -->
<g id="edge5" class="edge">
<title>Node8&#45;&gt;Node13</title>
<path fill="none" stroke="#191970" d="M83.1729,-283.6261C102.4226,-300.829 136.2269,-328.5865 170,-344.5 175.2019,-346.9511 180.7587,-349.1108 186.4112,-351.0086"/>
<polygon fill="#191970" stroke="#191970" points="185.381,-354.3535 195.9685,-353.9602 187.4466,-347.6651 185.381,-354.3535"/>
</g>
<!-- Node14 -->
<g id="node7" class="node">
<title>Node14</title>
<g id="a_node7"><a xlink:href="structHeaders_1_1IPv4.html#ab3379b3b9cf0bda526087c3cc1c9927d" target="_top" xlink:title="Set the destination ip. ">
<polygon fill="none" stroke="#000000" points="183.5,-316 183.5,-335 308.5,-335 308.5,-316 183.5,-316"/>
<text text-anchor="middle" x="246" y="-323" font-family="Helvetica,sans-Serif" font-size="10.00" fill="#000000">Headers::IPv4::setDstIP</text>
</a>
</g>
</g>
<!-- Node8&#45;&gt;Node14 -->
<g id="edge6" class="edge">
<title>Node8&#45;&gt;Node14</title>
<path fill="none" stroke="#191970" d="M104.8169,-283.5707C124.1463,-290.9871 148.1441,-299.7581 170,-306.5 177.8536,-308.9226 186.2343,-311.2602 194.4556,-313.4179"/>
<polygon fill="#191970" stroke="#191970" points="193.8028,-316.8636 204.3586,-315.9542 195.5397,-310.0825 193.8028,-316.8636"/>
</g>
<!-- Node15 -->
<g id="node8" class="node">
<title>Node15</title>
<g id="a_node8"><a xlink:href="structHeaders_1_1IPv4.html#a4e1023a9cc8055be85956cd29c6fc397" target="_top" xlink:title="Set the source ip. ">
<polygon fill="none" stroke="#000000" points="184,-278 184,-297 308,-297 308,-278 184,-278"/>
<text text-anchor="middle" x="246" y="-285" font-family="Helvetica,sans-Serif" font-size="10.00" fill="#000000">Headers::IPv4::setSrcIP</text>
</a>
</g>
</g>
<!-- Node8&#45;&gt;Node15 -->
<g id="edge7" class="edge">
<title>Node8&#45;&gt;Node15</title>
<path fill="none" stroke="#191970" d="M134.1623,-275.629C146.9998,-276.9916 160.4923,-278.4238 173.4886,-279.8033"/>
<polygon fill="#191970" stroke="#191970" points="173.4695,-283.3208 183.7831,-280.896 174.2084,-276.3599 173.4695,-283.3208"/>
</g>
<!-- Node16 -->
<g id="node9" class="node">
<title>Node16</title>
<g id="a_node9"><a xlink:href="structHeaders_1_1IPv4.html#a3de15b59ea6a3656f37c63e0c8d83df7" target="_top" xlink:title="Set the protocol to UDP. ">
<polygon fill="none" stroke="#000000" points="174,-240 174,-259 318,-259 318,-240 174,-240"/>
<text text-anchor="middle" x="246" y="-247" font-family="Helvetica,sans-Serif" font-size="10.00" fill="#000000">Headers::IPv4::setProtoUDP</text>
</a>
</g>
</g>
<!-- Node8&#45;&gt;Node16 -->
<g id="edge8" class="edge">
<title>Node8&#45;&gt;Node16</title>
<path fill="none" stroke="#191970" d="M134.1623,-261.371C143.8074,-260.3473 153.8224,-259.2842 163.7188,-258.2338"/>
<polygon fill="#191970" stroke="#191970" points="164.3939,-261.6818 173.9686,-257.1458 163.655,-254.721 164.3939,-261.6818"/>
</g>
<!-- Node17 -->
<g id="node10" class="node">
<title>Node17</title>
<g id="a_node10"><a xlink:href="structHeaders_1_1IPv4.html#acc4a8033c5da9c2ce147ee10e15d2a49" target="_top" xlink:title="Get the SDU. ">
<polygon fill="none" stroke="#000000" points="179,-202 179,-221 313,-221 313,-202 179,-202"/>
<text text-anchor="middle" x="246" y="-209" font-family="Helvetica,sans-Serif" font-size="10.00" fill="#000000">Headers::IPv4::getPayload</text>
</a>
</g>
</g>
<!-- Node8&#45;&gt;Node17 -->
<g id="edge9" class="edge">
<title>Node8&#45;&gt;Node17</title>
<path fill="none" stroke="#191970" d="M104.8169,-253.4293C124.1463,-246.0129 148.1441,-237.2419 170,-230.5 177.8536,-228.0774 186.2343,-225.7398 194.4556,-223.5821"/>
<polygon fill="#191970" stroke="#191970" points="195.5397,-226.9175 204.3586,-221.0458 193.8028,-220.1364 195.5397,-226.9175"/>
</g>
<!-- Node19 -->
<g id="node12" class="node">
<title>Node19</title>
<g id="a_node12"><a xlink:href="structHeaders_1_1Udp.html#a531f2e8247abf7807c50d806208b7cb1" target="_top" xlink:title="Get the SDU. ">
<polygon fill="none" stroke="#000000" points="180,-164 180,-183 312,-183 312,-164 180,-164"/>
<text text-anchor="middle" x="246" y="-171" font-family="Helvetica,sans-Serif" font-size="10.00" fill="#000000">Headers::Udp::getPayload</text>
</a>
</g>
</g>
<!-- Node8&#45;&gt;Node19 -->
<g id="edge11" class="edge">
<title>Node8&#45;&gt;Node19</title>
<path fill="none" stroke="#191970" d="M83.1729,-253.3739C102.4226,-236.171 136.2269,-208.4135 170,-192.5 175.2019,-190.0489 180.7587,-187.8892 186.4112,-185.9914"/>
<polygon fill="#191970" stroke="#191970" points="187.4466,-189.3349 195.9685,-183.0398 185.381,-182.6465 187.4466,-189.3349"/>
</g>
<!-- Node20 -->
<g id="node13" class="node">
<title>Node20</title>
<g id="a_node13"><a xlink:href="structHelloBye3MemPool_1_1msg.html#a3905a1abfd86b97b0c857e6caae5424d" target="_top" xlink:title="HelloBye3MemPool::msg::msg">
<polygon fill="none" stroke="#000000" points="170,-126 170,-145 322,-145 322,-126 170,-126"/>
<text text-anchor="middle" x="246" y="-133" font-family="Helvetica,sans-Serif" font-size="10.00" fill="#000000">HelloBye3MemPool::msg::msg</text>
</a>
</g>
</g>
<!-- Node8&#45;&gt;Node20 -->
<g id="edge12" class="edge">
<title>Node8&#45;&gt;Node20</title>
<path fill="none" stroke="#191970" d="M76.3499,-253.317C92.3629,-228.6412 127.4599,-180.0295 170,-154.5 173.6078,-152.3348 177.4536,-150.4155 181.4271,-148.7142"/>
<polygon fill="#191970" stroke="#191970" points="182.7713,-151.9478 190.8786,-145.1271 180.2874,-145.4032 182.7713,-151.9478"/>
</g>
<!-- Node21 -->
<g id="node14" class="node">
<title>Node21</title>
<g id="a_node14"><a xlink:href="structHeaders_1_1Udp.html#ad7860fd7b0f369d39d55aef85a11045a" target="_top" xlink:title="Set the destination port. ">
<polygon fill="none" stroke="#000000" points="180.5,-88 180.5,-107 311.5,-107 311.5,-88 180.5,-88"/>
<text text-anchor="middle" x="246" y="-95" font-family="Helvetica,sans-Serif" font-size="10.00" fill="#000000">Headers::Udp::setDstPort</text>
</a>
</g>
</g>
<!-- Node8&#45;&gt;Node21 -->
<g id="edge13" class="edge">
<title>Node8&#45;&gt;Node21</title>
<path fill="none" stroke="#191970" d="M72.8831,-253.2643C85.6202,-222.3798 118.7934,-152.2977 170,-116.5 172.8738,-114.491 175.9395,-112.6939 179.1295,-111.0865"/>
<polygon fill="#191970" stroke="#191970" points="180.6293,-114.2508 188.3917,-107.04 177.8268,-107.8362 180.6293,-114.2508"/>
</g>
<!-- Node22 -->
<g id="node15" class="node">
<title>Node22</title>
<g id="a_node15"><a xlink:href="structHeaders_1_1Udp.html#ab28d05a7270cf1537848db896588ca01" target="_top" xlink:title="Set the source port. ">
<polygon fill="none" stroke="#000000" points="181,-50 181,-69 311,-69 311,-50 181,-50"/>
<text text-anchor="middle" x="246" y="-57" font-family="Helvetica,sans-Serif" font-size="10.00" fill="#000000">Headers::Udp::setSrcPort</text>
</a>
</g>
</g>
<!-- Node8&#45;&gt;Node22 -->
<g id="edge14" class="edge">
<title>Node8&#45;&gt;Node22</title>
<path fill="none" stroke="#191970" d="M70.6761,-253.4419C80.309,-217.2963 109.8047,-125.1703 170,-78.5 172.3176,-76.7031 174.784,-75.0741 177.3577,-73.5975"/>
<polygon fill="#191970" stroke="#191970" points="179.018,-76.6817 186.4609,-69.1415 175.9404,-70.3945 179.018,-76.6817"/>
</g>
<!-- Node23 -->
<g id="node16" class="node">
<title>Node23</title>
<g id="a_node16"><a xlink:href="structHeaders_1_1Udp.html#ac5397a534d246cfa93ac157eee3c565e" target="_top" xlink:title="Set the length of the L4&#45;SDU (UDP payload) ">
<polygon fill="none" stroke="#000000" points="180,-.5 180,-30.5 312,-30.5 312,-.5 180,-.5"/>
<text text-anchor="start" x="188" y="-18.5" font-family="Helvetica,sans-Serif" font-size="10.00" fill="#000000">Headers::Udp::setPayload</text>
<text text-anchor="middle" x="246" y="-7.5" font-family="Helvetica,sans-Serif" font-size="10.00" fill="#000000">Length</text>
</a>
</g>
</g>
<!-- Node8&#45;&gt;Node23 -->
<g id="edge15" class="edge">
<title>Node8&#45;&gt;Node23</title>
<path fill="none" stroke="#191970" d="M69.5264,-253.2442C77.0573,-212.5796 103.1295,-100.6019 170,-40.5 171.7627,-38.9158 173.628,-37.4316 175.5744,-36.0413"/>
<polygon fill="#191970" stroke="#191970" points="177.8686,-38.74 184.5616,-30.5269 174.2077,-32.7736 177.8686,-38.74"/>
</g>
<!-- Node18 -->
<g id="node11" class="node">
<title>Node18</title>
<g id="a_node11"><a xlink:href="structHeaders_1_1IPv4.html#ac6c5485ffca9cffaded18d2ad8d5985a" target="_top" xlink:title="Headers::IPv4::ihl">
<polygon fill="none" stroke="#000000" points="358,-202 358,-221 453,-221 453,-202 358,-202"/>
<text text-anchor="middle" x="405.5" y="-209" font-family="Helvetica,sans-Serif" font-size="10.00" fill="#000000">Headers::IPv4::ihl</text>
</a>
</g>
</g>
<!-- Node17&#45;&gt;Node18 -->
<g id="edge10" class="edge">
<title>Node17&#45;&gt;Node18</title>
<path fill="none" stroke="#191970" d="M313.1801,-211.5C324.6523,-211.5 336.4805,-211.5 347.6827,-211.5"/>
<polygon fill="#191970" stroke="#191970" points="347.7663,-215.0001 357.7663,-211.5 347.7663,-208.0001 347.7663,-215.0001"/>
</g>
</g>
</svg>
