<?xml version="1.0" encoding="UTF-8" standalone="no"?>
<!DOCTYPE svg PUBLIC "-//W3C//DTD SVG 1.1//EN"
 "http://www.w3.org/Graphics/SVG/1.1/DTD/svg11.dtd">
<!-- Generated by graphviz version 2.40.1 (20161225.0304)
 -->
<!-- Title: DTLS_Client::runTeardown Pages: 1 -->
<svg width="442pt" height="204pt"
 viewBox="0.00 0.00 442.00 203.50" xmlns="http://www.w3.org/2000/svg" xmlns:xlink="http://www.w3.org/1999/xlink">
<g id="graph0" class="graph" transform="scale(1 1) rotate(0) translate(4 199.5)">
<title>DTLS_Client::runTeardown</title>
<!-- Node34 -->
<g id="node1" class="node">
<title>Node34</title>
<polygon fill="#bfbfbf" stroke="#000000" points="0,-88 0,-107 133,-107 133,-88 0,-88"/>
<text text-anchor="middle" x="66.5" y="-95" font-family="Helvetica,sans-Serif" font-size="10.00" fill="#000000">DTLS_Client::runTeardown</text>
</g>
<!-- Node35 -->
<g id="node2" class="node">
<title>Node35</title>
<g id="a_node2"><a xlink:href="structmbuf.html#a822d13c96f003279f7691d7778e75c3c" target="_top" xlink:title="mbuf::getData">
<polygon fill="none" stroke="#000000" points="196.5,-176 196.5,-195 275.5,-195 275.5,-176 196.5,-176"/>
<text text-anchor="middle" x="236" y="-183" font-family="Helvetica,sans-Serif" font-size="10.00" fill="#000000">mbuf::getData</text>
</a>
</g>
</g>
<!-- Node34&#45;&gt;Node35 -->
<g id="edge1" class="edge">
<title>Node34&#45;&gt;Node35</title>
<path fill="none" stroke="#191970" d="M78.0639,-107.1018C96.3135,-121.8182 133.3899,-149.978 169,-166.5 174.4804,-169.0427 180.374,-171.3167 186.3107,-173.33"/>
<polygon fill="#191970" stroke="#191970" points="185.6874,-176.8033 196.2771,-176.4735 187.793,-170.1275 185.6874,-176.8033"/>
</g>
<!-- Node36 -->
<g id="node3" class="node">
<title>Node36</title>
<g id="a_node3"><a xlink:href="structHeaders_1_1Ethernet.html#ad59e9fe1ec95b8e2ed11f97b44a20650" target="_top" xlink:title="Get the SDU. ">
<polygon fill="none" stroke="#000000" points="185,-126.5 185,-156.5 287,-156.5 287,-126.5 185,-126.5"/>
<text text-anchor="start" x="193" y="-144.5" font-family="Helvetica,sans-Serif" font-size="10.00" fill="#000000">Headers::Ethernet::</text>
<text text-anchor="middle" x="236" y="-133.5" font-family="Helvetica,sans-Serif" font-size="10.00" fill="#000000">getPayload</text>
</a>
</g>
</g>
<!-- Node34&#45;&gt;Node36 -->
<g id="edge2" class="edge">
<title>Node34&#45;&gt;Node36</title>
<path fill="none" stroke="#191970" d="M103.279,-107.0473C124.245,-112.4898 151.0512,-119.4484 175.0768,-125.6851"/>
<polygon fill="#191970" stroke="#191970" points="174.2679,-129.0911 184.8265,-128.216 176.0267,-122.3156 174.2679,-129.0911"/>
</g>
<!-- Node37 -->
<g id="node4" class="node">
<title>Node37</title>
<g id="a_node4"><a xlink:href="structHeaders_1_1IPv4.html#acc4a8033c5da9c2ce147ee10e15d2a49" target="_top" xlink:title="Get the SDU. ">
<polygon fill="none" stroke="#000000" points="169,-88 169,-107 303,-107 303,-88 169,-88"/>
<text text-anchor="middle" x="236" y="-95" font-family="Helvetica,sans-Serif" font-size="10.00" fill="#000000">Headers::IPv4::getPayload</text>
</a>
</g>
</g>
<!-- Node34&#45;&gt;Node37 -->
<g id="edge3" class="edge">
<title>Node34&#45;&gt;Node37</title>
<path fill="none" stroke="#191970" d="M133.0044,-97.5C141.4705,-97.5 150.1915,-97.5 158.8075,-97.5"/>
<polygon fill="#191970" stroke="#191970" points="158.8523,-101.0001 168.8522,-97.5 158.8522,-94.0001 158.8523,-101.0001"/>
</g>
<!-- Node39 -->
<g id="node6" class="node">
<title>Node39</title>
<g id="a_node6"><a xlink:href="structHeaders_1_1Udp.html#a531f2e8247abf7807c50d806208b7cb1" target="_top" xlink:title="Get the SDU. ">
<polygon fill="none" stroke="#000000" points="170,-50 170,-69 302,-69 302,-50 170,-50"/>
<text text-anchor="middle" x="236" y="-57" font-family="Helvetica,sans-Serif" font-size="10.00" fill="#000000">Headers::Udp::getPayload</text>
</a>
</g>
</g>
<!-- Node34&#45;&gt;Node39 -->
<g id="edge5" class="edge">
<title>Node34&#45;&gt;Node39</title>
<path fill="none" stroke="#191970" d="M109.272,-87.911C131.8409,-82.8513 159.7232,-76.6004 183.5833,-71.2512"/>
<polygon fill="#191970" stroke="#191970" points="184.5435,-74.6229 193.5356,-69.0201 183.0121,-67.7925 184.5435,-74.6229"/>
</g>
<!-- Node40 -->
<g id="node7" class="node">
<title>Node40</title>
<g id="a_node7"><a xlink:href="structHeaders_1_1Udp.html#a6666cec8df45b5a0da2c54e0568f89ac" target="_top" xlink:title="Get the length of the L4&#45;SDU (UDP payload) ">
<polygon fill="none" stroke="#000000" points="170,-.5 170,-30.5 302,-30.5 302,-.5 170,-.5"/>
<text text-anchor="start" x="178" y="-18.5" font-family="Helvetica,sans-Serif" font-size="10.00" fill="#000000">Headers::Udp::getPayload</text>
<text text-anchor="middle" x="236" y="-7.5" font-family="Helvetica,sans-Serif" font-size="10.00" fill="#000000">Length</text>
</a>
</g>
</g>
<!-- Node34&#45;&gt;Node40 -->
<g id="edge6" class="edge">
<title>Node34&#45;&gt;Node40</title>
<path fill="none" stroke="#191970" d="M82.0938,-87.856C101.8613,-75.8602 137.2003,-55.1735 169,-40.5 173.6026,-38.3762 178.4412,-36.294 183.3236,-34.294"/>
<polygon fill="#191970" stroke="#191970" points="184.7164,-37.5068 192.716,-30.5602 182.1304,-31.002 184.7164,-37.5068"/>
</g>
<!-- Node38 -->
<g id="node5" class="node">
<title>Node38</title>
<g id="a_node5"><a xlink:href="structHeaders_1_1IPv4.html#ac6c5485ffca9cffaded18d2ad8d5985a" target="_top" xlink:title="Headers::IPv4::ihl">
<polygon fill="none" stroke="#000000" points="339,-88 339,-107 434,-107 434,-88 339,-88"/>
<text text-anchor="middle" x="386.5" y="-95" font-family="Helvetica,sans-Serif" font-size="10.00" fill="#000000">Headers::IPv4::ihl</text>
</a>
</g>
</g>
<!-- Node37&#45;&gt;Node38 -->
<g id="edge4" class="edge">
<title>Node37&#45;&gt;Node38</title>
<path fill="none" stroke="#191970" d="M303.3266,-97.5C311.6911,-97.5 320.1876,-97.5 328.3967,-97.5"/>
<polygon fill="#191970" stroke="#191970" points="328.6094,-101.0001 338.6094,-97.5 328.6094,-94.0001 328.6094,-101.0001"/>
</g>
</g>
</svg>
