<?xml version="1.0" encoding="UTF-8" standalone="no"?>
<!DOCTYPE svg PUBLIC "-//W3C//DTD SVG 1.1//EN"
 "http://www.w3.org/Graphics/SVG/1.1/DTD/svg11.dtd">
<!-- Generated by graphviz version 2.40.1 (20161225.0304)
 -->
<!-- Title: DTLS_Client::configStateMachine Pages: 1 -->
<svg width="324pt" height="230pt"
 viewBox="0.00 0.00 324.00 229.50" xmlns="http://www.w3.org/2000/svg" xmlns:xlink="http://www.w3.org/1999/xlink">
<g id="graph0" class="graph" transform="scale(1 1) rotate(0) translate(4 225.5)">
<title>DTLS_Client::configStateMachine</title>
<!-- Node0 -->
<g id="node1" class="node">
<title>Node0</title>
<polygon fill="#bfbfbf" stroke="#000000" points="0,-101.5 0,-131.5 128,-131.5 128,-101.5 0,-101.5"/>
<text text-anchor="start" x="8" y="-119.5" font-family="Helvetica,sans-Serif" font-size="10.00" fill="#000000">DTLS_Client::configState</text>
<text text-anchor="middle" x="64" y="-108.5" font-family="Helvetica,sans-Serif" font-size="10.00" fill="#000000">Machine</text>
</g>
<!-- Node1 -->
<g id="node2" class="node">
<title>Node1</title>
<g id="a_node2"><a xlink:href="classStateMachine.html#a11bb31f0c090bfa191432fab2fd37275" target="_top" xlink:title="Register a function for a given state. ">
<polygon fill="none" stroke="#000000" points="164,-202 164,-221 316,-221 316,-202 164,-202"/>
<text text-anchor="middle" x="240" y="-209" font-family="Helvetica,sans-Serif" font-size="10.00" fill="#000000">StateMachine::registerFunction</text>
</a>
</g>
</g>
<!-- Node0&#45;&gt;Node1 -->
<g id="edge1" class="edge">
<title>Node0&#45;&gt;Node1</title>
<path fill="none" stroke="#191970" d="M79.6173,-131.6488C98.2269,-148.873 130.972,-176.6504 164,-192.5 168.9813,-194.8905 174.2956,-197.0007 179.7116,-198.8595"/>
<polygon fill="#191970" stroke="#191970" points="178.9313,-202.2829 189.5206,-201.9399 181.0286,-195.6044 178.9313,-202.2829"/>
</g>
<!-- Node2 -->
<g id="node3" class="node">
<title>Node2</title>
<g id="a_node3"><a xlink:href="namespaceDTLS__Client.html#ae035707c7a0938aa09b689919e36fc85" target="_top" xlink:title="DTLS_Client::initHandshake">
<polygon fill="none" stroke="#000000" points="170,-164 170,-183 310,-183 310,-164 170,-164"/>
<text text-anchor="middle" x="240" y="-171" font-family="Helvetica,sans-Serif" font-size="10.00" fill="#000000">DTLS_Client::initHandshake</text>
</a>
</g>
</g>
<!-- Node0&#45;&gt;Node2 -->
<g id="edge2" class="edge">
<title>Node0&#45;&gt;Node2</title>
<path fill="none" stroke="#191970" d="M100.6772,-131.6293C119.4339,-139.0607 142.7355,-147.8274 164,-154.5 171.7495,-156.9317 180.0192,-159.2629 188.1447,-161.408"/>
<polygon fill="#191970" stroke="#191970" points="187.3832,-164.826 197.9398,-163.9267 189.1265,-158.0466 187.3832,-164.826"/>
</g>
<!-- Node3 -->
<g id="node4" class="node">
<title>Node3</title>
<g id="a_node4"><a xlink:href="namespaceDTLS__Client.html#a5acef1583c146dc9d7b475d7dce96613" target="_top" xlink:title="DTLS_Client::runHandshake">
<polygon fill="none" stroke="#000000" points="169.5,-126 169.5,-145 310.5,-145 310.5,-126 169.5,-126"/>
<text text-anchor="middle" x="240" y="-133" font-family="Helvetica,sans-Serif" font-size="10.00" fill="#000000">DTLS_Client::runHandshake</text>
</a>
</g>
</g>
<!-- Node0&#45;&gt;Node3 -->
<g id="edge3" class="edge">
<title>Node0&#45;&gt;Node3</title>
<path fill="none" stroke="#191970" d="M128.0379,-123.4132C138.2421,-124.5148 148.9115,-125.6666 159.438,-126.803"/>
<polygon fill="#191970" stroke="#191970" points="159.1488,-130.292 169.4668,-127.8856 159.9002,-123.3324 159.1488,-130.292"/>
</g>
<!-- Node4 -->
<g id="node5" class="node">
<title>Node4</title>
<g id="a_node5"><a xlink:href="namespaceDTLS__Client.html#a1268c83c6935f7bea238509e0c3273de" target="_top" xlink:title="DTLS_Client::sendData">
<polygon fill="none" stroke="#000000" points="180,-88 180,-107 300,-107 300,-88 180,-88"/>
<text text-anchor="middle" x="240" y="-95" font-family="Helvetica,sans-Serif" font-size="10.00" fill="#000000">DTLS_Client::sendData</text>
</a>
</g>
</g>
<!-- Node0&#45;&gt;Node4 -->
<g id="edge4" class="edge">
<title>Node0&#45;&gt;Node4</title>
<path fill="none" stroke="#191970" d="M128.0379,-109.5868C141.5093,-108.1325 155.7917,-106.5907 169.4855,-105.1124"/>
<polygon fill="#191970" stroke="#191970" points="170.2527,-108.55 179.8193,-103.9968 169.5014,-101.5904 170.2527,-108.55"/>
</g>
<!-- Node5 -->
<g id="node6" class="node">
<title>Node5</title>
<g id="a_node6"><a xlink:href="namespaceDTLS__Client.html#a67f33652e7bd809595c76aeb30f0c6cb" target="_top" xlink:title="DTLS_Client::runTeardown">
<polygon fill="none" stroke="#000000" points="173.5,-50 173.5,-69 306.5,-69 306.5,-50 173.5,-50"/>
<text text-anchor="middle" x="240" y="-57" font-family="Helvetica,sans-Serif" font-size="10.00" fill="#000000">DTLS_Client::runTeardown</text>
</a>
</g>
</g>
<!-- Node0&#45;&gt;Node5 -->
<g id="edge5" class="edge">
<title>Node0&#45;&gt;Node5</title>
<path fill="none" stroke="#191970" d="M100.6772,-101.3707C119.4339,-93.9393 142.7355,-85.1726 164,-78.5 171.7495,-76.0683 180.0192,-73.7371 188.1447,-71.592"/>
<polygon fill="#191970" stroke="#191970" points="189.1265,-74.9534 197.9398,-69.0733 187.3832,-68.174 189.1265,-74.9534"/>
</g>
<!-- Node6 -->
<g id="node7" class="node">
<title>Node6</title>
<g id="a_node7"><a xlink:href="classStateMachine.html#aba6a2449f587018f1169f83394cae1ad" target="_top" xlink:title="This registers an end state If a connections reaches this id, it will be destroyed. ">
<polygon fill="none" stroke="#000000" points="174,-.5 174,-30.5 306,-30.5 306,-.5 174,-.5"/>
<text text-anchor="start" x="182" y="-18.5" font-family="Helvetica,sans-Serif" font-size="10.00" fill="#000000">StateMachine::registerEnd</text>
<text text-anchor="middle" x="240" y="-7.5" font-family="Helvetica,sans-Serif" font-size="10.00" fill="#000000">StateID</text>
</a>
</g>
</g>
<!-- Node0&#45;&gt;Node6 -->
<g id="edge6" class="edge">
<title>Node0&#45;&gt;Node6</title>
<path fill="none" stroke="#191970" d="M80.1669,-101.4721C99.0306,-84.6205 131.7639,-57.4399 164,-40.5 168.2343,-38.2749 172.7047,-36.196 177.2711,-34.2643"/>
<polygon fill="#191970" stroke="#191970" points="178.7319,-37.4502 186.7339,-30.5063 176.1482,-30.9444 178.7319,-37.4502"/>
</g>
</g>
</svg>
