<?xml version="1.0" encoding="UTF-8" standalone="no"?>
<!DOCTYPE svg PUBLIC "-//W3C//DTD SVG 1.1//EN"
 "http://www.w3.org/Graphics/SVG/1.1/DTD/svg11.dtd">
<!-- Generated by graphviz version 2.40.1 (20161225.0304)
 -->
<!-- Title: DTLS_Client::runHandshake Pages: 1 -->
<svg width="460pt" height="756pt"
 viewBox="0.00 0.00 460.00 755.50" xmlns="http://www.w3.org/2000/svg" xmlns:xlink="http://www.w3.org/1999/xlink">
<g id="graph0" class="graph" transform="scale(1 1) rotate(0) translate(4 751.5)">
<title>DTLS_Client::runHandshake</title>
<!-- Node13 -->
<g id="node1" class="node">
<title>Node13</title>
<polygon fill="#bfbfbf" stroke="#000000" points="0,-350 0,-369 141,-369 141,-350 0,-350"/>
<text text-anchor="middle" x="70.5" y="-357" font-family="Helvetica,sans-Serif" font-size="10.00" fill="#000000">DTLS_Client::runHandshake</text>
</g>
<!-- Node14 -->
<g id="node2" class="node">
<title>Node14</title>
<g id="a_node2"><a xlink:href="structmbuf.html#a822d13c96f003279f7691d7778e75c3c" target="_top" xlink:title="mbuf::getData">
<polygon fill="none" stroke="#000000" points="209.5,-728 209.5,-747 288.5,-747 288.5,-728 209.5,-728"/>
<text text-anchor="middle" x="249" y="-735" font-family="Helvetica,sans-Serif" font-size="10.00" fill="#000000">mbuf::getData</text>
</a>
</g>
</g>
<!-- Node13&#45;&gt;Node14 -->
<g id="edge1" class="edge">
<title>Node13&#45;&gt;Node14</title>
<path fill="none" stroke="#191970" d="M72.0772,-369.2476C80.6981,-421.3752 123.6878,-666.7833 177,-718.5 183.2693,-724.5816 191.2443,-728.7766 199.5882,-731.6571"/>
<polygon fill="#191970" stroke="#191970" points="198.8963,-735.0991 209.4724,-734.469 200.8118,-728.3662 198.8963,-735.0991"/>
</g>
<!-- Node15 -->
<g id="node3" class="node">
<title>Node15</title>
<g id="a_node3"><a xlink:href="structHeaders_1_1Ethernet.html#ad59e9fe1ec95b8e2ed11f97b44a20650" target="_top" xlink:title="Get the SDU. ">
<polygon fill="none" stroke="#000000" points="198,-678.5 198,-708.5 300,-708.5 300,-678.5 198,-678.5"/>
<text text-anchor="start" x="206" y="-696.5" font-family="Helvetica,sans-Serif" font-size="10.00" fill="#000000">Headers::Ethernet::</text>
<text text-anchor="middle" x="249" y="-685.5" font-family="Helvetica,sans-Serif" font-size="10.00" fill="#000000">getPayload</text>
</a>
</g>
</g>
<!-- Node13&#45;&gt;Node15 -->
<g id="edge2" class="edge">
<title>Node13&#45;&gt;Node15</title>
<path fill="none" stroke="#191970" d="M70.8976,-369.1146C73.146,-410.9354 87.6277,-578.923 177,-668.5 180.4959,-672.0039 184.5074,-675.0176 188.8092,-677.6096"/>
<polygon fill="#191970" stroke="#191970" points="187.4857,-680.8657 197.9748,-682.3595 190.7066,-674.6507 187.4857,-680.8657"/>
</g>
<!-- Node16 -->
<g id="node4" class="node">
<title>Node16</title>
<g id="a_node4"><a xlink:href="structHeaders_1_1IPv4.html#acc4a8033c5da9c2ce147ee10e15d2a49" target="_top" xlink:title="Get the SDU. ">
<polygon fill="none" stroke="#000000" points="182,-640 182,-659 316,-659 316,-640 182,-640"/>
<text text-anchor="middle" x="249" y="-647" font-family="Helvetica,sans-Serif" font-size="10.00" fill="#000000">Headers::IPv4::getPayload</text>
</a>
</g>
</g>
<!-- Node13&#45;&gt;Node16 -->
<g id="edge3" class="edge">
<title>Node13&#45;&gt;Node16</title>
<path fill="none" stroke="#191970" d="M71.2477,-369.1469C74.8094,-408.2288 93.5404,-556.2336 177,-630.5 178.7656,-632.0711 180.6462,-633.5147 182.6163,-634.841"/>
<polygon fill="#191970" stroke="#191970" points="181.3112,-638.1207 191.7493,-639.9365 184.7218,-632.0077 181.3112,-638.1207"/>
</g>
<!-- Node18 -->
<g id="node6" class="node">
<title>Node18</title>
<g id="a_node6"><a xlink:href="structHeaders_1_1Udp.html#a531f2e8247abf7807c50d806208b7cb1" target="_top" xlink:title="Get the SDU. ">
<polygon fill="none" stroke="#000000" points="183,-602 183,-621 315,-621 315,-602 183,-602"/>
<text text-anchor="middle" x="249" y="-609" font-family="Helvetica,sans-Serif" font-size="10.00" fill="#000000">Headers::Udp::getPayload</text>
</a>
</g>
</g>
<!-- Node13&#45;&gt;Node18 -->
<g id="edge5" class="edge">
<title>Node13&#45;&gt;Node18</title>
<path fill="none" stroke="#191970" d="M71.9413,-369.2484C77.7555,-404.9935 102.8438,-530.0343 177,-592.5 178.9899,-594.1762 181.1118,-595.7062 183.3328,-597.1028"/>
<polygon fill="#191970" stroke="#191970" points="181.844,-600.2746 192.3204,-601.8542 185.1156,-594.0862 181.844,-600.2746"/>
</g>
<!-- Node19 -->
<g id="node7" class="node">
<title>Node19</title>
<g id="a_node7"><a xlink:href="structHeaders_1_1Udp.html#a6666cec8df45b5a0da2c54e0568f89ac" target="_top" xlink:title="Get the length of the L4&#45;SDU (UDP payload) ">
<polygon fill="none" stroke="#000000" points="183,-552.5 183,-582.5 315,-582.5 315,-552.5 183,-552.5"/>
<text text-anchor="start" x="191" y="-570.5" font-family="Helvetica,sans-Serif" font-size="10.00" fill="#000000">Headers::Udp::getPayload</text>
<text text-anchor="middle" x="249" y="-559.5" font-family="Helvetica,sans-Serif" font-size="10.00" fill="#000000">Length</text>
</a>
</g>
</g>
<!-- Node13&#45;&gt;Node19 -->
<g id="edge6" class="edge">
<title>Node13&#45;&gt;Node19</title>
<path fill="none" stroke="#191970" d="M73.3893,-369.0416C82.9693,-399.0915 116.5621,-492.723 177,-542.5 179.0555,-544.193 181.2329,-545.7742 183.5001,-547.2509"/>
<polygon fill="#191970" stroke="#191970" points="182.2012,-550.5388 192.6235,-552.4432 185.6636,-544.455 182.2012,-550.5388"/>
</g>
<!-- Node20 -->
<g id="node8" class="node">
<title>Node20</title>
<g id="a_node8"><a xlink:href="structmbuf.html#ad355ffa5aa13914951981b72e46a92c1" target="_top" xlink:title="mbuf::setDataLen">
<polygon fill="none" stroke="#000000" points="201.5,-514 201.5,-533 296.5,-533 296.5,-514 201.5,-514"/>
<text text-anchor="middle" x="249" y="-521" font-family="Helvetica,sans-Serif" font-size="10.00" fill="#000000">mbuf::setDataLen</text>
</a>
</g>
</g>
<!-- Node13&#45;&gt;Node20 -->
<g id="edge7" class="edge">
<title>Node13&#45;&gt;Node20</title>
<path fill="none" stroke="#191970" d="M74.6641,-369.0257C86.5538,-395.0684 123.2944,-467.9427 177,-504.5 181.542,-507.5917 186.5602,-510.1805 191.7715,-512.3482"/>
<polygon fill="#191970" stroke="#191970" points="190.705,-515.6846 201.2991,-515.8129 193.0974,-509.1061 190.705,-515.6846"/>
</g>
<!-- Node21 -->
<g id="node9" class="node">
<title>Node21</title>
<g id="a_node9"><a xlink:href="structHeaders_1_1Ethernet.html#aef5f549019149f9275d3bdecc2ba3ec0" target="_top" xlink:title="Set the ethertype. ">
<polygon fill="none" stroke="#000000" points="198,-464.5 198,-494.5 300,-494.5 300,-464.5 198,-464.5"/>
<text text-anchor="start" x="206" y="-482.5" font-family="Helvetica,sans-Serif" font-size="10.00" fill="#000000">Headers::Ethernet::</text>
<text text-anchor="middle" x="249" y="-471.5" font-family="Helvetica,sans-Serif" font-size="10.00" fill="#000000">setEthertype</text>
</a>
</g>
</g>
<!-- Node13&#45;&gt;Node21 -->
<g id="edge8" class="edge">
<title>Node13&#45;&gt;Node21</title>
<path fill="none" stroke="#191970" d="M78.6154,-369.0913C95.2209,-388.1515 135.0618,-431.0587 177,-455.5 180.65,-457.6272 184.5151,-459.598 188.4842,-461.4183"/>
<polygon fill="#191970" stroke="#191970" points="187.3084,-464.7211 197.8818,-465.395 190.0364,-458.2746 187.3084,-464.7211"/>
</g>
<!-- Node22 -->
<g id="node10" class="node">
<title>Node22</title>
<g id="a_node10"><a xlink:href="structHeaders_1_1Ethernet.html#aa0c572bcab32d2a4b35c99fecd1c653d" target="_top" xlink:title="Headers::Ethernet::\lsetDstAddr">
<polygon fill="none" stroke="#000000" points="198,-415.5 198,-445.5 300,-445.5 300,-415.5 198,-415.5"/>
<text text-anchor="start" x="206" y="-433.5" font-family="Helvetica,sans-Serif" font-size="10.00" fill="#000000">Headers::Ethernet::</text>
<text text-anchor="middle" x="249" y="-422.5" font-family="Helvetica,sans-Serif" font-size="10.00" fill="#000000">setDstAddr</text>
</a>
</g>
</g>
<!-- Node13&#45;&gt;Node22 -->
<g id="edge9" class="edge">
<title>Node13&#45;&gt;Node22</title>
<path fill="none" stroke="#191970" d="M90.6793,-369.0845C111.9239,-379.0138 146.4597,-394.7009 177,-406.5 181.7934,-408.3519 186.7973,-410.1966 191.8364,-411.9932"/>
<polygon fill="#191970" stroke="#191970" points="190.9292,-415.3837 201.524,-415.3783 193.2383,-408.7755 190.9292,-415.3837"/>
</g>
<!-- Node23 -->
<g id="node11" class="node">
<title>Node23</title>
<g id="a_node11"><a xlink:href="structHeaders_1_1Ethernet.html#addc939927365fc30570a721144f5e6f9" target="_top" xlink:title="Headers::Ethernet::\lsetSrcAddr">
<polygon fill="none" stroke="#000000" points="198,-366.5 198,-396.5 300,-396.5 300,-366.5 198,-366.5"/>
<text text-anchor="start" x="206" y="-384.5" font-family="Helvetica,sans-Serif" font-size="10.00" fill="#000000">Headers::Ethernet::</text>
<text text-anchor="middle" x="249" y="-373.5" font-family="Helvetica,sans-Serif" font-size="10.00" fill="#000000">setSrcAddr</text>
</a>
</g>
</g>
<!-- Node13&#45;&gt;Node23 -->
<g id="edge10" class="edge">
<title>Node13&#45;&gt;Node23</title>
<path fill="none" stroke="#191970" d="M141.0479,-368.195C156.4875,-370.0979 172.7088,-372.0972 187.7497,-373.9509"/>
<polygon fill="#191970" stroke="#191970" points="187.5968,-377.4585 197.9499,-375.2081 188.4531,-370.5111 187.5968,-377.4585"/>
</g>
<!-- Node24 -->
<g id="node12" class="node">
<title>Node24</title>
<g id="a_node12"><a xlink:href="structHeaders_1_1IPv4.html#a28a6286beded8ad7cd611483f3dcac09" target="_top" xlink:title="Set the version field to 4. ">
<polygon fill="none" stroke="#000000" points="183.5,-328 183.5,-347 314.5,-347 314.5,-328 183.5,-328"/>
<text text-anchor="middle" x="249" y="-335" font-family="Helvetica,sans-Serif" font-size="10.00" fill="#000000">Headers::IPv4::setVersion</text>
</a>
</g>
</g>
<!-- Node13&#45;&gt;Node24 -->
<g id="edge11" class="edge">
<title>Node13&#45;&gt;Node24</title>
<path fill="none" stroke="#191970" d="M141.0479,-350.805C151.6082,-349.5035 162.5342,-348.1569 173.198,-346.8425"/>
<polygon fill="#191970" stroke="#191970" points="173.8246,-350.2919 183.3213,-345.5948 172.9683,-343.3445 173.8246,-350.2919"/>
</g>
<!-- Node25 -->
<g id="node13" class="node">
<title>Node25</title>
<g id="a_node13"><a xlink:href="structHeaders_1_1IPv4.html#a89ebc78cd618d1ac327bb82e4b46917f" target="_top" xlink:title="Sets the IP header length. ">
<polygon fill="none" stroke="#000000" points="191.5,-290 191.5,-309 306.5,-309 306.5,-290 191.5,-290"/>
<text text-anchor="middle" x="249" y="-297" font-family="Helvetica,sans-Serif" font-size="10.00" fill="#000000">Headers::IPv4::setIHL</text>
</a>
</g>
</g>
<!-- Node13&#45;&gt;Node25 -->
<g id="edge12" class="edge">
<title>Node13&#45;&gt;Node25</title>
<path fill="none" stroke="#191970" d="M93.0941,-349.9723C114.4774,-341.1541 147.5919,-328.0094 177,-318.5 184.27,-316.1492 192.0207,-313.8711 199.6427,-311.7575"/>
<polygon fill="#191970" stroke="#191970" points="200.7978,-315.071 209.5372,-309.0815 198.9702,-308.3137 200.7978,-315.071"/>
</g>
<!-- Node26 -->
<g id="node14" class="node">
<title>Node26</title>
<g id="a_node14"><a xlink:href="structHeaders_1_1IPv4.html#a105454c2ab292ba7baba740f96c673a1" target="_top" xlink:title="Set the length of the L3&#45;SDU. ">
<polygon fill="none" stroke="#000000" points="182,-240.5 182,-270.5 316,-270.5 316,-240.5 182,-240.5"/>
<text text-anchor="start" x="190" y="-258.5" font-family="Helvetica,sans-Serif" font-size="10.00" fill="#000000">Headers::IPv4::setPayload</text>
<text text-anchor="middle" x="249" y="-247.5" font-family="Helvetica,sans-Serif" font-size="10.00" fill="#000000">Length</text>
</a>
</g>
</g>
<!-- Node13&#45;&gt;Node26 -->
<g id="edge13" class="edge">
<title>Node13&#45;&gt;Node26</title>
<path fill="none" stroke="#191970" d="M81.2451,-349.7605C99.6562,-333.497 138.9394,-300.6161 177,-280.5 180.9903,-278.391 185.1955,-276.4002 189.4875,-274.5335"/>
<polygon fill="#191970" stroke="#191970" points="191.0457,-277.6775 198.9722,-270.6476 188.3918,-271.2001 191.0457,-277.6775"/>
</g>
<!-- Node27 -->
<g id="node15" class="node">
<title>Node27</title>
<g id="a_node15"><a xlink:href="structHeaders_1_1IPv4.html#a3de15b59ea6a3656f37c63e0c8d83df7" target="_top" xlink:title="Set the protocol to UDP. ">
<polygon fill="none" stroke="#000000" points="177,-202 177,-221 321,-221 321,-202 177,-202"/>
<text text-anchor="middle" x="249" y="-209" font-family="Helvetica,sans-Serif" font-size="10.00" fill="#000000">Headers::IPv4::setProtoUDP</text>
</a>
</g>
</g>
<!-- Node13&#45;&gt;Node27 -->
<g id="edge15" class="edge">
<title>Node13&#45;&gt;Node27</title>
<path fill="none" stroke="#191970" d="M75.7672,-349.7647C89.2518,-325.7879 127.4746,-263.5165 177,-231.5 181.0107,-228.9072 185.3568,-226.6466 189.8588,-224.6761"/>
<polygon fill="#191970" stroke="#191970" points="191.206,-227.9076 199.2614,-221.0257 188.6725,-221.3822 191.206,-227.9076"/>
</g>
<!-- Node28 -->
<g id="node16" class="node">
<title>Node28</title>
<g id="a_node16"><a xlink:href="structHeaders_1_1IPv4.html#a4e1023a9cc8055be85956cd29c6fc397" target="_top" xlink:title="Set the source ip. ">
<polygon fill="none" stroke="#000000" points="187,-164 187,-183 311,-183 311,-164 187,-164"/>
<text text-anchor="middle" x="249" y="-171" font-family="Helvetica,sans-Serif" font-size="10.00" fill="#000000">Headers::IPv4::setSrcIP</text>
</a>
</g>
</g>
<!-- Node13&#45;&gt;Node28 -->
<g id="edge16" class="edge">
<title>Node13&#45;&gt;Node28</title>
<path fill="none" stroke="#191970" d="M73.7829,-349.7992C84.0477,-320.9886 118.396,-235.2787 177,-192.5 179.6627,-190.5563 182.5093,-188.8114 185.4768,-187.2448"/>
<polygon fill="#191970" stroke="#191970" points="187.0248,-190.3858 194.6788,-183.06 184.1269,-184.0138 187.0248,-190.3858"/>
</g>
<!-- Node29 -->
<g id="node17" class="node">
<title>Node29</title>
<g id="a_node17"><a xlink:href="structHeaders_1_1IPv4.html#ab3379b3b9cf0bda526087c3cc1c9927d" target="_top" xlink:title="Set the destination ip. ">
<polygon fill="none" stroke="#000000" points="186.5,-126 186.5,-145 311.5,-145 311.5,-126 186.5,-126"/>
<text text-anchor="middle" x="249" y="-133" font-family="Helvetica,sans-Serif" font-size="10.00" fill="#000000">Headers::IPv4::setDstIP</text>
</a>
</g>
</g>
<!-- Node13&#45;&gt;Node29 -->
<g id="edge17" class="edge">
<title>Node13&#45;&gt;Node29</title>
<path fill="none" stroke="#191970" d="M72.6392,-349.5551C80.3154,-316.3504 109.6715,-208.3731 177,-154.5 179.2712,-152.6827 181.6994,-151.0381 184.2393,-149.5498"/>
<polygon fill="#191970" stroke="#191970" points="185.8484,-152.6585 193.2404,-145.0684 182.7286,-146.3922 185.8484,-152.6585"/>
</g>
<!-- Node30 -->
<g id="node18" class="node">
<title>Node30</title>
<g id="a_node18"><a xlink:href="structHeaders_1_1Udp.html#ad7860fd7b0f369d39d55aef85a11045a" target="_top" xlink:title="Set the destination port. ">
<polygon fill="none" stroke="#000000" points="183.5,-88 183.5,-107 314.5,-107 314.5,-88 183.5,-88"/>
<text text-anchor="middle" x="249" y="-95" font-family="Helvetica,sans-Serif" font-size="10.00" fill="#000000">Headers::Udp::setDstPort</text>
</a>
</g>
</g>
<!-- Node13&#45;&gt;Node30 -->
<g id="edge18" class="edge">
<title>Node13&#45;&gt;Node30</title>
<path fill="none" stroke="#191970" d="M71.7282,-349.8494C76.907,-313.2937 100.361,-182.0905 177,-116.5 178.9767,-114.8083 181.0875,-113.2652 183.2992,-111.8577"/>
<polygon fill="#191970" stroke="#191970" points="185.0863,-114.8712 192.2595,-107.0741 181.7896,-108.6961 185.0863,-114.8712"/>
</g>
<!-- Node31 -->
<g id="node19" class="node">
<title>Node31</title>
<g id="a_node19"><a xlink:href="structHeaders_1_1Udp.html#ab28d05a7270cf1537848db896588ca01" target="_top" xlink:title="Set the source port. ">
<polygon fill="none" stroke="#000000" points="184,-50 184,-69 314,-69 314,-50 184,-50"/>
<text text-anchor="middle" x="249" y="-57" font-family="Helvetica,sans-Serif" font-size="10.00" fill="#000000">Headers::Udp::setSrcPort</text>
</a>
</g>
</g>
<!-- Node13&#45;&gt;Node31 -->
<g id="edge19" class="edge">
<title>Node13&#45;&gt;Node31</title>
<path fill="none" stroke="#191970" d="M71.1033,-349.7792C74.129,-309.7116 91.1405,-155.8433 177,-78.5 178.756,-76.9182 180.6283,-75.4654 182.5915,-74.1313"/>
<polygon fill="#191970" stroke="#191970" points="184.6996,-76.9614 191.7012,-69.0098 181.2691,-70.8596 184.6996,-76.9614"/>
</g>
<!-- Node32 -->
<g id="node20" class="node">
<title>Node32</title>
<g id="a_node20"><a xlink:href="structHeaders_1_1Udp.html#ac5397a534d246cfa93ac157eee3c565e" target="_top" xlink:title="Set the length of the L4&#45;SDU (UDP payload) ">
<polygon fill="none" stroke="#000000" points="183,-.5 183,-30.5 315,-30.5 315,-.5 183,-.5"/>
<text text-anchor="start" x="191" y="-18.5" font-family="Helvetica,sans-Serif" font-size="10.00" fill="#000000">Headers::Udp::setPayload</text>
<text text-anchor="middle" x="249" y="-7.5" font-family="Helvetica,sans-Serif" font-size="10.00" fill="#000000">Length</text>
</a>
</g>
</g>
<!-- Node13&#45;&gt;Node32 -->
<g id="edge20" class="edge">
<title>Node13&#45;&gt;Node32</title>
<path fill="none" stroke="#191970" d="M70.7788,-349.8695C72.5364,-307.214 85.2806,-133.3246 177,-40.5 178.4299,-39.0528 179.9478,-37.6894 181.5379,-36.4047"/>
<polygon fill="#191970" stroke="#191970" points="183.7319,-39.1447 190.0175,-30.6158 179.7851,-33.3635 183.7319,-39.1447"/>
</g>
<!-- Node17 -->
<g id="node5" class="node">
<title>Node17</title>
<g id="a_node5"><a xlink:href="structHeaders_1_1IPv4.html#ac6c5485ffca9cffaded18d2ad8d5985a" target="_top" xlink:title="Headers::IPv4::ihl">
<polygon fill="none" stroke="#000000" points="357,-443 357,-462 452,-462 452,-443 357,-443"/>
<text text-anchor="middle" x="404.5" y="-450" font-family="Helvetica,sans-Serif" font-size="10.00" fill="#000000">Headers::IPv4::ihl</text>
</a>
</g>
</g>
<!-- Node16&#45;&gt;Node17 -->
<g id="edge4" class="edge">
<title>Node16&#45;&gt;Node17</title>
<path fill="none" stroke="#191970" d="M305.2797,-639.9674C310.9537,-637.4945 316.3336,-634.3915 321,-630.5 371.3652,-588.499 393.1633,-509.2851 400.9056,-472.3703"/>
<polygon fill="#191970" stroke="#191970" points="404.3787,-472.8474 402.8732,-462.36 397.5101,-471.4972 404.3787,-472.8474"/>
</g>
<!-- Node26&#45;&gt;Node17 -->
<g id="edge14" class="edge">
<title>Node26&#45;&gt;Node17</title>
<path fill="none" stroke="#191970" d="M306.3966,-270.5815C311.6651,-273.356 316.648,-276.6325 321,-280.5 368.2409,-322.4817 391.3995,-397.1561 400.1668,-432.6729"/>
<polygon fill="#191970" stroke="#191970" points="396.8351,-433.7967 402.5199,-442.7373 403.6512,-432.203 396.8351,-433.7967"/>
</g>
</g>
</svg>
