<?xml version="1.0" encoding="UTF-8" standalone="no"?>
<!DOCTYPE svg PUBLIC "-//W3C//DTD SVG 1.1//EN"
 "http://www.w3.org/Graphics/SVG/1.1/DTD/svg11.dtd">
<!-- Generated by graphviz version 2.40.1 (20161225.0304)
 -->
<!-- Title: HelloBye3MemPool::Server::runBye Pages: 1 -->
<svg width="464pt" height="192pt"
 viewBox="0.00 0.00 464.00 192.00" xmlns="http://www.w3.org/2000/svg" xmlns:xlink="http://www.w3.org/1999/xlink">
<g id="graph0" class="graph" transform="scale(1 1) rotate(0) translate(4 188)">
<title>HelloBye3MemPool::Server::runBye</title>
<!-- Node1 -->
<g id="node1" class="node">
<title>Node1</title>
<polygon fill="#bfbfbf" stroke="#000000" points="0,-71 0,-101 137,-101 137,-71 0,-71"/>
<text text-anchor="start" x="8" y="-89" font-family="Helvetica,sans-Serif" font-size="10.00" fill="#000000">HelloBye3MemPool::Server</text>
<text text-anchor="middle" x="68.5" y="-78" font-family="Helvetica,sans-Serif" font-size="10.00" fill="#000000">::runBye</text>
</g>
<!-- Node2 -->
<g id="node2" class="node">
<title>Node2</title>
<g id="a_node2"><a xlink:href="structmbuf.html#a822d13c96f003279f7691d7778e75c3c" target="_top" xlink:title="mbuf::getData">
<polygon fill="none" stroke="#000000" points="209.5,-164.5 209.5,-183.5 288.5,-183.5 288.5,-164.5 209.5,-164.5"/>
<text text-anchor="middle" x="249" y="-171.5" font-family="Helvetica,sans-Serif" font-size="10.00" fill="#000000">mbuf::getData</text>
</a>
</g>
</g>
<!-- Node1&#45;&gt;Node2 -->
<g id="edge1" class="edge">
<title>Node1&#45;&gt;Node2</title>
<path fill="none" stroke="#191970" d="M87.0101,-101.0548C107.0655,-116.6627 140.5608,-140.7357 173,-155 181.4115,-158.6988 190.6767,-161.7686 199.7591,-164.2838"/>
<polygon fill="#191970" stroke="#191970" points="198.936,-167.686 209.4937,-166.7989 200.6872,-160.9086 198.936,-167.686"/>
</g>
<!-- Node3 -->
<g id="node3" class="node">
<title>Node3</title>
<g id="a_node3"><a xlink:href="structHeaders_1_1Ethernet.html#ad59e9fe1ec95b8e2ed11f97b44a20650" target="_top" xlink:title="Get the SDU. ">
<polygon fill="none" stroke="#000000" points="198,-115 198,-145 300,-145 300,-115 198,-115"/>
<text text-anchor="start" x="206" y="-133" font-family="Helvetica,sans-Serif" font-size="10.00" fill="#000000">Headers::Ethernet::</text>
<text text-anchor="middle" x="249" y="-122" font-family="Helvetica,sans-Serif" font-size="10.00" fill="#000000">getPayload</text>
</a>
</g>
</g>
<!-- Node1&#45;&gt;Node3 -->
<g id="edge2" class="edge">
<title>Node1&#45;&gt;Node3</title>
<path fill="none" stroke="#191970" d="M130.113,-101.0192C148.812,-105.5774 169.3407,-110.5817 187.9992,-115.13"/>
<polygon fill="#191970" stroke="#191970" points="187.3122,-118.565 197.8567,-117.5329 188.9701,-111.7641 187.3122,-118.565"/>
</g>
<!-- Node4 -->
<g id="node4" class="node">
<title>Node4</title>
<g id="a_node4"><a xlink:href="structHeaders_1_1IPv4.html#acc4a8033c5da9c2ce147ee10e15d2a49" target="_top" xlink:title="Get the SDU. ">
<polygon fill="none" stroke="#000000" points="182,-76.5 182,-95.5 316,-95.5 316,-76.5 182,-76.5"/>
<text text-anchor="middle" x="249" y="-83.5" font-family="Helvetica,sans-Serif" font-size="10.00" fill="#000000">Headers::IPv4::getPayload</text>
</a>
</g>
</g>
<!-- Node1&#45;&gt;Node4 -->
<g id="edge3" class="edge">
<title>Node1&#45;&gt;Node4</title>
<path fill="none" stroke="#191970" d="M137.2542,-86C148.5814,-86 160.3882,-86 171.9031,-86"/>
<polygon fill="#191970" stroke="#191970" points="171.9278,-89.5001 181.9278,-86 171.9277,-82.5001 171.9278,-89.5001"/>
</g>
<!-- Node6 -->
<g id="node6" class="node">
<title>Node6</title>
<g id="a_node6"><a xlink:href="structHeaders_1_1Udp.html#a531f2e8247abf7807c50d806208b7cb1" target="_top" xlink:title="Get the SDU. ">
<polygon fill="none" stroke="#000000" points="183,-38.5 183,-57.5 315,-57.5 315,-38.5 183,-38.5"/>
<text text-anchor="middle" x="249" y="-45.5" font-family="Helvetica,sans-Serif" font-size="10.00" fill="#000000">Headers::Udp::getPayload</text>
</a>
</g>
</g>
<!-- Node1&#45;&gt;Node6 -->
<g id="edge5" class="edge">
<title>Node1&#45;&gt;Node6</title>
<path fill="none" stroke="#191970" d="M137.2542,-71.5254C155.8262,-67.6155 175.6876,-63.4342 193.4376,-59.6974"/>
<polygon fill="#191970" stroke="#191970" points="194.5544,-63.039 203.6188,-57.5539 193.1122,-56.1892 194.5544,-63.039"/>
</g>
<!-- Node7 -->
<g id="node7" class="node">
<title>Node7</title>
<g id="a_node7"><a xlink:href="structHelloBye3MemPool_1_1msg.html#a3905a1abfd86b97b0c857e6caae5424d" target="_top" xlink:title="HelloBye3MemPool::msg::msg">
<polygon fill="none" stroke="#000000" points="173,-.5 173,-19.5 325,-19.5 325,-.5 173,-.5"/>
<text text-anchor="middle" x="249" y="-7.5" font-family="Helvetica,sans-Serif" font-size="10.00" fill="#000000">HelloBye3MemPool::msg::msg</text>
</a>
</g>
</g>
<!-- Node1&#45;&gt;Node7 -->
<g id="edge6" class="edge">
<title>Node1&#45;&gt;Node7</title>
<path fill="none" stroke="#191970" d="M92.1479,-70.8257C112.7971,-58.1394 143.9309,-40.3472 173,-29 179.3842,-26.5079 186.1998,-24.2607 193.0295,-22.2586"/>
<polygon fill="#191970" stroke="#191970" points="194.2928,-25.5406 202.9974,-19.5006 192.4261,-18.7941 194.2928,-25.5406"/>
</g>
<!-- Node5 -->
<g id="node5" class="node">
<title>Node5</title>
<g id="a_node5"><a xlink:href="structHeaders_1_1IPv4.html#ac6c5485ffca9cffaded18d2ad8d5985a" target="_top" xlink:title="Headers::IPv4::ihl">
<polygon fill="none" stroke="#000000" points="361,-76.5 361,-95.5 456,-95.5 456,-76.5 361,-76.5"/>
<text text-anchor="middle" x="408.5" y="-83.5" font-family="Helvetica,sans-Serif" font-size="10.00" fill="#000000">Headers::IPv4::ihl</text>
</a>
</g>
</g>
<!-- Node4&#45;&gt;Node5 -->
<g id="edge4" class="edge">
<title>Node4&#45;&gt;Node5</title>
<path fill="none" stroke="#191970" d="M316.1801,-86C327.6523,-86 339.4805,-86 350.6827,-86"/>
<polygon fill="#191970" stroke="#191970" points="350.7663,-89.5001 360.7663,-86 350.7663,-82.5001 350.7663,-89.5001"/>
</g>
</g>
</svg>
