<?xml version="1.0" encoding="UTF-8" standalone="no"?>
<!DOCTYPE svg PUBLIC "-//W3C//DTD SVG 1.1//EN"
 "http://www.w3.org/Graphics/SVG/1.1/DTD/svg11.dtd">
<!-- Generated by graphviz version 2.40.1 (20161225.0304)
 -->
<!-- Title: HelloBye3::Server::runHello Pages: 1 -->
<svg width="411pt" height="192pt"
 viewBox="0.00 0.00 411.00 192.00" xmlns="http://www.w3.org/2000/svg" xmlns:xlink="http://www.w3.org/1999/xlink">
<g id="graph0" class="graph" transform="scale(1 1) rotate(0) translate(4 188)">
<title>HelloBye3::Server::runHello</title>
<!-- Node8 -->
<g id="node1" class="node">
<title>Node8</title>
<polygon fill="#bfbfbf" stroke="#000000" points="0,-71 0,-101 102,-101 102,-71 0,-71"/>
<text text-anchor="start" x="8" y="-89" font-family="Helvetica,sans-Serif" font-size="10.00" fill="#000000">HelloBye3::Server::</text>
<text text-anchor="middle" x="51" y="-78" font-family="Helvetica,sans-Serif" font-size="10.00" fill="#000000">runHello</text>
</g>
<!-- Node9 -->
<g id="node2" class="node">
<title>Node9</title>
<g id="a_node2"><a xlink:href="structmbuf.html#a822d13c96f003279f7691d7778e75c3c" target="_top" xlink:title="mbuf::getData">
<polygon fill="none" stroke="#000000" points="165.5,-164.5 165.5,-183.5 244.5,-183.5 244.5,-164.5 165.5,-164.5"/>
<text text-anchor="middle" x="205" y="-171.5" font-family="Helvetica,sans-Serif" font-size="10.00" fill="#000000">mbuf::getData</text>
</a>
</g>
</g>
<!-- Node8&#45;&gt;Node9 -->
<g id="edge1" class="edge">
<title>Node8&#45;&gt;Node9</title>
<path fill="none" stroke="#191970" d="M66.0303,-101.03C82.4096,-116.6173 110.0332,-140.6731 138,-155 143.5788,-157.8579 149.6458,-160.3375 155.7746,-162.4748"/>
<polygon fill="#191970" stroke="#191970" points="154.8038,-165.839 165.3949,-165.5569 156.9395,-159.1728 154.8038,-165.839"/>
</g>
<!-- Node10 -->
<g id="node3" class="node">
<title>Node10</title>
<g id="a_node3"><a xlink:href="structHeaders_1_1Ethernet.html#ad59e9fe1ec95b8e2ed11f97b44a20650" target="_top" xlink:title="Get the SDU. ">
<polygon fill="none" stroke="#000000" points="154,-115 154,-145 256,-145 256,-115 154,-115"/>
<text text-anchor="start" x="162" y="-133" font-family="Helvetica,sans-Serif" font-size="10.00" fill="#000000">Headers::Ethernet::</text>
<text text-anchor="middle" x="205" y="-122" font-family="Helvetica,sans-Serif" font-size="10.00" fill="#000000">getPayload</text>
</a>
</g>
</g>
<!-- Node8&#45;&gt;Node10 -->
<g id="edge2" class="edge">
<title>Node8&#45;&gt;Node10</title>
<path fill="none" stroke="#191970" d="M102.2798,-100.6514C115.6573,-104.4735 130.205,-108.63 144.0312,-112.5803"/>
<polygon fill="#191970" stroke="#191970" points="143.3674,-116.0307 153.9442,-115.4126 145.2905,-109.3 143.3674,-116.0307"/>
</g>
<!-- Node11 -->
<g id="node4" class="node">
<title>Node11</title>
<g id="a_node4"><a xlink:href="structHeaders_1_1IPv4.html#acc4a8033c5da9c2ce147ee10e15d2a49" target="_top" xlink:title="Get the SDU. ">
<polygon fill="none" stroke="#000000" points="138,-76.5 138,-95.5 272,-95.5 272,-76.5 138,-76.5"/>
<text text-anchor="middle" x="205" y="-83.5" font-family="Helvetica,sans-Serif" font-size="10.00" fill="#000000">Headers::IPv4::getPayload</text>
</a>
</g>
</g>
<!-- Node8&#45;&gt;Node11 -->
<g id="edge3" class="edge">
<title>Node8&#45;&gt;Node11</title>
<path fill="none" stroke="#191970" d="M102.2798,-86C110.4553,-86 119.0679,-86 127.6857,-86"/>
<polygon fill="#191970" stroke="#191970" points="127.7789,-89.5001 137.7789,-86 127.7788,-82.5001 127.7789,-89.5001"/>
</g>
<!-- Node13 -->
<g id="node6" class="node">
<title>Node13</title>
<g id="a_node6"><a xlink:href="structHeaders_1_1Udp.html#a531f2e8247abf7807c50d806208b7cb1" target="_top" xlink:title="Get the SDU. ">
<polygon fill="none" stroke="#000000" points="139,-38.5 139,-57.5 271,-57.5 271,-38.5 139,-38.5"/>
<text text-anchor="middle" x="205" y="-45.5" font-family="Helvetica,sans-Serif" font-size="10.00" fill="#000000">Headers::Udp::getPayload</text>
</a>
</g>
</g>
<!-- Node8&#45;&gt;Node13 -->
<g id="edge5" class="edge">
<title>Node8&#45;&gt;Node13</title>
<path fill="none" stroke="#191970" d="M102.2798,-73.3466C119.6877,-69.0511 139.077,-64.2667 156.2795,-60.022"/>
<polygon fill="#191970" stroke="#191970" points="157.2535,-63.3867 166.1238,-57.5928 155.5764,-56.5905 157.2535,-63.3867"/>
</g>
<!-- Node14 -->
<g id="node7" class="node">
<title>Node14</title>
<g id="a_node7"><a xlink:href="structHelloBye3_1_1msg.html#a3b93043c60ca836029a396cabf4d4982" target="_top" xlink:title="HelloBye3::msg::msg">
<polygon fill="none" stroke="#000000" points="149.5,-.5 149.5,-19.5 260.5,-19.5 260.5,-.5 149.5,-.5"/>
<text text-anchor="middle" x="205" y="-7.5" font-family="Helvetica,sans-Serif" font-size="10.00" fill="#000000">HelloBye3::msg::msg</text>
</a>
</g>
</g>
<!-- Node8&#45;&gt;Node14 -->
<g id="edge6" class="edge">
<title>Node8&#45;&gt;Node14</title>
<path fill="none" stroke="#191970" d="M70.3829,-70.8125C87.3834,-58.118 113.195,-40.3211 138,-29 143.0871,-26.6782 148.523,-24.5752 154.0155,-22.6877"/>
<polygon fill="#191970" stroke="#191970" points="155.4441,-25.9054 163.9002,-19.5223 153.3091,-19.2389 155.4441,-25.9054"/>
</g>
<!-- Node12 -->
<g id="node5" class="node">
<title>Node12</title>
<g id="a_node5"><a xlink:href="structHeaders_1_1IPv4.html#ac6c5485ffca9cffaded18d2ad8d5985a" target="_top" xlink:title="Headers::IPv4::ihl">
<polygon fill="none" stroke="#000000" points="308,-76.5 308,-95.5 403,-95.5 403,-76.5 308,-76.5"/>
<text text-anchor="middle" x="355.5" y="-83.5" font-family="Helvetica,sans-Serif" font-size="10.00" fill="#000000">Headers::IPv4::ihl</text>
</a>
</g>
</g>
<!-- Node11&#45;&gt;Node12 -->
<g id="edge4" class="edge">
<title>Node11&#45;&gt;Node12</title>
<path fill="none" stroke="#191970" d="M272.3266,-86C280.6911,-86 289.1876,-86 297.3967,-86"/>
<polygon fill="#191970" stroke="#191970" points="297.6094,-89.5001 307.6094,-86 297.6094,-82.5001 297.6094,-89.5001"/>
</g>
</g>
</svg>
