<?xml version="1.0" encoding="UTF-8" standalone="no"?>
<!DOCTYPE svg PUBLIC "-//W3C//DTD SVG 1.1//EN"
 "http://www.w3.org/Graphics/SVG/1.1/DTD/svg11.dtd">
<!-- Generated by graphviz version 2.40.1 (20161225.0304)
 -->
<!-- Title: HelloBye3MemPool::Client::runBye Pages: 1 -->
<svg width="461pt" height="192pt"
 viewBox="0.00 0.00 461.00 192.00" xmlns="http://www.w3.org/2000/svg" xmlns:xlink="http://www.w3.org/1999/xlink">
<g id="graph0" class="graph" transform="scale(1 1) rotate(0) translate(4 188)">
<title>HelloBye3MemPool::Client::runBye</title>
<!-- Node1 -->
<g id="node1" class="node">
<title>Node1</title>
<polygon fill="#bfbfbf" stroke="#000000" points="0,-71 0,-101 134,-101 134,-71 0,-71"/>
<text text-anchor="start" x="8" y="-89" font-family="Helvetica,sans-Serif" font-size="10.00" fill="#000000">HelloBye3MemPool::Client</text>
<text text-anchor="middle" x="67" y="-78" font-family="Helvetica,sans-Serif" font-size="10.00" fill="#000000">::runBye</text>
</g>
<!-- Node2 -->
<g id="node2" class="node">
<title>Node2</title>
<g id="a_node2"><a xlink:href="structmbuf.html#a822d13c96f003279f7691d7778e75c3c" target="_top" xlink:title="mbuf::getData">
<polygon fill="none" stroke="#000000" points="206.5,-164.5 206.5,-183.5 285.5,-183.5 285.5,-164.5 206.5,-164.5"/>
<text text-anchor="middle" x="246" y="-171.5" font-family="Helvetica,sans-Serif" font-size="10.00" fill="#000000">mbuf::getData</text>
</a>
</g>
</g>
<!-- Node1&#45;&gt;Node2 -->
<g id="edge1" class="edge">
<title>Node1&#45;&gt;Node2</title>
<path fill="none" stroke="#191970" d="M85.2069,-101.0687C104.943,-116.6884 137.9316,-140.771 170,-155 178.3992,-158.7268 187.6585,-161.8098 196.739,-164.3294"/>
<polygon fill="#191970" stroke="#191970" points="195.9151,-167.7314 206.4729,-166.8459 197.6673,-160.9542 195.9151,-167.7314"/>
</g>
<!-- Node3 -->
<g id="node3" class="node">
<title>Node3</title>
<g id="a_node3"><a xlink:href="structHeaders_1_1Ethernet.html#ad59e9fe1ec95b8e2ed11f97b44a20650" target="_top" xlink:title="Get the SDU. ">
<polygon fill="none" stroke="#000000" points="195,-115 195,-145 297,-145 297,-115 195,-115"/>
<text text-anchor="start" x="203" y="-133" font-family="Helvetica,sans-Serif" font-size="10.00" fill="#000000">Headers::Ethernet::</text>
<text text-anchor="middle" x="246" y="-122" font-family="Helvetica,sans-Serif" font-size="10.00" fill="#000000">getPayload</text>
</a>
</g>
</g>
<!-- Node1&#45;&gt;Node3 -->
<g id="edge2" class="edge">
<title>Node1&#45;&gt;Node3</title>
<path fill="none" stroke="#191970" d="M128.101,-101.0192C146.5587,-105.5563 166.8142,-110.5353 185.2491,-115.0668"/>
<polygon fill="#191970" stroke="#191970" points="184.4447,-118.4732 194.9912,-117.4615 186.1157,-111.6756 184.4447,-118.4732"/>
</g>
<!-- Node4 -->
<g id="node4" class="node">
<title>Node4</title>
<g id="a_node4"><a xlink:href="structHeaders_1_1IPv4.html#acc4a8033c5da9c2ce147ee10e15d2a49" target="_top" xlink:title="Get the SDU. ">
<polygon fill="none" stroke="#000000" points="179,-76.5 179,-95.5 313,-95.5 313,-76.5 179,-76.5"/>
<text text-anchor="middle" x="246" y="-83.5" font-family="Helvetica,sans-Serif" font-size="10.00" fill="#000000">Headers::IPv4::getPayload</text>
</a>
</g>
</g>
<!-- Node1&#45;&gt;Node4 -->
<g id="edge3" class="edge">
<title>Node1&#45;&gt;Node4</title>
<path fill="none" stroke="#191970" d="M134.1623,-86C145.4412,-86 157.2257,-86 168.7352,-86"/>
<polygon fill="#191970" stroke="#191970" points="168.7591,-89.5001 178.7591,-86 168.7591,-82.5001 168.7591,-89.5001"/>
</g>
<!-- Node6 -->
<g id="node6" class="node">
<title>Node6</title>
<g id="a_node6"><a xlink:href="structHeaders_1_1Udp.html#a531f2e8247abf7807c50d806208b7cb1" target="_top" xlink:title="Get the SDU. ">
<polygon fill="none" stroke="#000000" points="180,-38.5 180,-57.5 312,-57.5 312,-38.5 180,-38.5"/>
<text text-anchor="middle" x="246" y="-45.5" font-family="Helvetica,sans-Serif" font-size="10.00" fill="#000000">Headers::Udp::getPayload</text>
</a>
</g>
</g>
<!-- Node1&#45;&gt;Node6 -->
<g id="edge5" class="edge">
<title>Node1&#45;&gt;Node6</title>
<path fill="none" stroke="#191970" d="M134.1623,-71.7421C152.9082,-67.7625 173.0508,-63.4864 191.0056,-59.6748"/>
<polygon fill="#191970" stroke="#191970" points="191.9588,-63.0505 201.014,-57.5501 190.5051,-56.2031 191.9588,-63.0505"/>
</g>
<!-- Node7 -->
<g id="node7" class="node">
<title>Node7</title>
<g id="a_node7"><a xlink:href="structHelloBye3MemPool_1_1msg.html#a3905a1abfd86b97b0c857e6caae5424d" target="_top" xlink:title="HelloBye3MemPool::msg::msg">
<polygon fill="none" stroke="#000000" points="170,-.5 170,-19.5 322,-19.5 322,-.5 170,-.5"/>
<text text-anchor="middle" x="246" y="-7.5" font-family="Helvetica,sans-Serif" font-size="10.00" fill="#000000">HelloBye3MemPool::msg::msg</text>
</a>
</g>
</g>
<!-- Node1&#45;&gt;Node7 -->
<g id="edge6" class="edge">
<title>Node1&#45;&gt;Node7</title>
<path fill="none" stroke="#191970" d="M90.2772,-70.8067C110.6105,-58.1085 141.2864,-40.3095 170,-29 176.2916,-26.5219 183.006,-24.2897 189.7416,-22.3014"/>
<polygon fill="#191970" stroke="#191970" points="190.8839,-25.6166 199.5786,-19.5625 189.0063,-18.8731 190.8839,-25.6166"/>
</g>
<!-- Node5 -->
<g id="node5" class="node">
<title>Node5</title>
<g id="a_node5"><a xlink:href="structHeaders_1_1IPv4.html#ac6c5485ffca9cffaded18d2ad8d5985a" target="_top" xlink:title="Headers::IPv4::ihl">
<polygon fill="none" stroke="#000000" points="358,-76.5 358,-95.5 453,-95.5 453,-76.5 358,-76.5"/>
<text text-anchor="middle" x="405.5" y="-83.5" font-family="Helvetica,sans-Serif" font-size="10.00" fill="#000000">Headers::IPv4::ihl</text>
</a>
</g>
</g>
<!-- Node4&#45;&gt;Node5 -->
<g id="edge4" class="edge">
<title>Node4&#45;&gt;Node5</title>
<path fill="none" stroke="#191970" d="M313.1801,-86C324.6523,-86 336.4805,-86 347.6827,-86"/>
<polygon fill="#191970" stroke="#191970" points="347.7663,-89.5001 357.7663,-86 347.7663,-82.5001 347.7663,-89.5001"/>
</g>
</g>
</svg>
