<?xml version="1.0" encoding="UTF-8" standalone="no"?>
<!DOCTYPE svg PUBLIC "-//W3C//DTD SVG 1.1//EN"
 "http://www.w3.org/Graphics/SVG/1.1/DTD/svg11.dtd">
<!-- Generated by graphviz version 2.40.1 (20161225.0304)
 -->
<!-- Title: DTLS_Client::sendData Pages: 1 -->
<svg width="429pt" height="204pt"
 viewBox="0.00 0.00 429.00 203.50" xmlns="http://www.w3.org/2000/svg" xmlns:xlink="http://www.w3.org/1999/xlink">
<g id="graph0" class="graph" transform="scale(1 1) rotate(0) translate(4 199.5)">
<title>DTLS_Client::sendData</title>
<!-- Node42 -->
<g id="node1" class="node">
<title>Node42</title>
<polygon fill="#bfbfbf" stroke="#000000" points="0,-88 0,-107 120,-107 120,-88 0,-88"/>
<text text-anchor="middle" x="60" y="-95" font-family="Helvetica,sans-Serif" font-size="10.00" fill="#000000">DTLS_Client::sendData</text>
</g>
<!-- Node43 -->
<g id="node2" class="node">
<title>Node43</title>
<g id="a_node2"><a xlink:href="structmbuf.html#a822d13c96f003279f7691d7778e75c3c" target="_top" xlink:title="mbuf::getData">
<polygon fill="none" stroke="#000000" points="183.5,-176 183.5,-195 262.5,-195 262.5,-176 183.5,-176"/>
<text text-anchor="middle" x="223" y="-183" font-family="Helvetica,sans-Serif" font-size="10.00" fill="#000000">mbuf::getData</text>
</a>
</g>
</g>
<!-- Node42&#45;&gt;Node43 -->
<g id="edge1" class="edge">
<title>Node42&#45;&gt;Node43</title>
<path fill="none" stroke="#191970" d="M70.7151,-107.1487C87.6528,-121.9279 122.1746,-150.1703 156,-166.5 161.4407,-169.1266 167.3101,-171.4517 173.2336,-173.4929"/>
<polygon fill="#191970" stroke="#191970" points="172.5967,-176.9632 183.1872,-176.6633 174.7211,-170.2934 172.5967,-176.9632"/>
</g>
<!-- Node44 -->
<g id="node3" class="node">
<title>Node44</title>
<g id="a_node3"><a xlink:href="structHeaders_1_1Ethernet.html#ad59e9fe1ec95b8e2ed11f97b44a20650" target="_top" xlink:title="Get the SDU. ">
<polygon fill="none" stroke="#000000" points="172,-126.5 172,-156.5 274,-156.5 274,-126.5 172,-126.5"/>
<text text-anchor="start" x="180" y="-144.5" font-family="Helvetica,sans-Serif" font-size="10.00" fill="#000000">Headers::Ethernet::</text>
<text text-anchor="middle" x="223" y="-133.5" font-family="Helvetica,sans-Serif" font-size="10.00" fill="#000000">getPayload</text>
</a>
</g>
</g>
<!-- Node42&#45;&gt;Node44 -->
<g id="edge2" class="edge">
<title>Node42&#45;&gt;Node44</title>
<path fill="none" stroke="#191970" d="M95.3686,-107.0473C114.862,-112.3094 139.6054,-118.9886 162.1061,-125.0624"/>
<polygon fill="#191970" stroke="#191970" points="161.357,-128.4854 171.9236,-127.7125 163.1813,-121.7273 161.357,-128.4854"/>
</g>
<!-- Node45 -->
<g id="node4" class="node">
<title>Node45</title>
<g id="a_node4"><a xlink:href="structHeaders_1_1IPv4.html#acc4a8033c5da9c2ce147ee10e15d2a49" target="_top" xlink:title="Get the SDU. ">
<polygon fill="none" stroke="#000000" points="156,-88 156,-107 290,-107 290,-88 156,-88"/>
<text text-anchor="middle" x="223" y="-95" font-family="Helvetica,sans-Serif" font-size="10.00" fill="#000000">Headers::IPv4::getPayload</text>
</a>
</g>
</g>
<!-- Node42&#45;&gt;Node45 -->
<g id="edge3" class="edge">
<title>Node42&#45;&gt;Node45</title>
<path fill="none" stroke="#191970" d="M120.2321,-97.5C128.5754,-97.5 137.2385,-97.5 145.8371,-97.5"/>
<polygon fill="#191970" stroke="#191970" points="145.8784,-101.0001 155.8783,-97.5 145.8783,-94.0001 145.8784,-101.0001"/>
</g>
<!-- Node47 -->
<g id="node6" class="node">
<title>Node47</title>
<g id="a_node6"><a xlink:href="structHeaders_1_1Udp.html#a531f2e8247abf7807c50d806208b7cb1" target="_top" xlink:title="Get the SDU. ">
<polygon fill="none" stroke="#000000" points="157,-50 157,-69 289,-69 289,-50 157,-50"/>
<text text-anchor="middle" x="223" y="-57" font-family="Helvetica,sans-Serif" font-size="10.00" fill="#000000">Headers::Udp::getPayload</text>
</a>
</g>
</g>
<!-- Node42&#45;&gt;Node47 -->
<g id="edge5" class="edge">
<title>Node42&#45;&gt;Node47</title>
<path fill="none" stroke="#191970" d="M101.1318,-87.911C122.7383,-82.8739 149.409,-76.6562 172.2858,-71.3229"/>
<polygon fill="#191970" stroke="#191970" points="173.2198,-74.6991 182.164,-69.0201 171.6305,-67.8819 173.2198,-74.6991"/>
</g>
<!-- Node48 -->
<g id="node7" class="node">
<title>Node48</title>
<g id="a_node7"><a xlink:href="structHeaders_1_1Udp.html#a6666cec8df45b5a0da2c54e0568f89ac" target="_top" xlink:title="Get the length of the L4&#45;SDU (UDP payload) ">
<polygon fill="none" stroke="#000000" points="157,-.5 157,-30.5 289,-30.5 289,-.5 157,-.5"/>
<text text-anchor="start" x="165" y="-18.5" font-family="Helvetica,sans-Serif" font-size="10.00" fill="#000000">Headers::Udp::getPayload</text>
<text text-anchor="middle" x="223" y="-7.5" font-family="Helvetica,sans-Serif" font-size="10.00" fill="#000000">Length</text>
</a>
</g>
</g>
<!-- Node42&#45;&gt;Node48 -->
<g id="edge6" class="edge">
<title>Node42&#45;&gt;Node48</title>
<path fill="none" stroke="#191970" d="M74.1922,-87.9761C92.5462,-75.9195 125.7542,-54.979 156,-40.5 160.3883,-38.3992 165.0031,-36.3558 169.6723,-34.4014"/>
<polygon fill="#191970" stroke="#191970" points="171.314,-37.5132 179.2773,-30.5249 168.6942,-31.0219 171.314,-37.5132"/>
</g>
<!-- Node46 -->
<g id="node5" class="node">
<title>Node46</title>
<g id="a_node5"><a xlink:href="structHeaders_1_1IPv4.html#ac6c5485ffca9cffaded18d2ad8d5985a" target="_top" xlink:title="Headers::IPv4::ihl">
<polygon fill="none" stroke="#000000" points="326,-88 326,-107 421,-107 421,-88 326,-88"/>
<text text-anchor="middle" x="373.5" y="-95" font-family="Helvetica,sans-Serif" font-size="10.00" fill="#000000">Headers::IPv4::ihl</text>
</a>
</g>
</g>
<!-- Node45&#45;&gt;Node46 -->
<g id="edge4" class="edge">
<title>Node45&#45;&gt;Node46</title>
<path fill="none" stroke="#191970" d="M290.3266,-97.5C298.6911,-97.5 307.1876,-97.5 315.3967,-97.5"/>
<polygon fill="#191970" stroke="#191970" points="315.6094,-101.0001 325.6094,-97.5 315.6094,-94.0001 315.6094,-101.0001"/>
</g>
</g>
</svg>
