<?xml version="1.0" encoding="UTF-8" standalone="no"?>
<!DOCTYPE svg PUBLIC "-//W3C//DTD SVG 1.1//EN"
 "http://www.w3.org/Graphics/SVG/1.1/DTD/svg11.dtd">
<!-- Generated by graphviz version 2.40.1 (20161225.0304)
 -->
<!-- Title: HelloBye3::Client::runRecvBye Pages: 1 -->
<svg width="408pt" height="192pt"
 viewBox="0.00 0.00 408.00 192.00" xmlns="http://www.w3.org/2000/svg" xmlns:xlink="http://www.w3.org/1999/xlink">
<g id="graph0" class="graph" transform="scale(1 1) rotate(0) translate(4 188)">
<title>HelloBye3::Client::runRecvBye</title>
<!-- Node25 -->
<g id="node1" class="node">
<title>Node25</title>
<polygon fill="#bfbfbf" stroke="#000000" points="0,-71 0,-101 99,-101 99,-71 0,-71"/>
<text text-anchor="start" x="8" y="-89" font-family="Helvetica,sans-Serif" font-size="10.00" fill="#000000">HelloBye3::Client::</text>
<text text-anchor="middle" x="49.5" y="-78" font-family="Helvetica,sans-Serif" font-size="10.00" fill="#000000">runRecvBye</text>
</g>
<!-- Node26 -->
<g id="node2" class="node">
<title>Node26</title>
<g id="a_node2"><a xlink:href="structmbuf.html#a822d13c96f003279f7691d7778e75c3c" target="_top" xlink:title="mbuf::getData">
<polygon fill="none" stroke="#000000" points="162.5,-164.5 162.5,-183.5 241.5,-183.5 241.5,-164.5 162.5,-164.5"/>
<text text-anchor="middle" x="202" y="-171.5" font-family="Helvetica,sans-Serif" font-size="10.00" fill="#000000">mbuf::getData</text>
</a>
</g>
</g>
<!-- Node25&#45;&gt;Node26 -->
<g id="edge1" class="edge">
<title>Node25&#45;&gt;Node26</title>
<path fill="none" stroke="#191970" d="M64.2209,-101.0434C80.276,-116.6419 107.3886,-140.707 135,-155 140.5666,-157.8816 146.6264,-160.3752 152.7513,-162.5199"/>
<polygon fill="#191970" stroke="#191970" points="151.777,-165.883 162.3683,-165.6086 153.9175,-159.2183 151.777,-165.883"/>
</g>
<!-- Node27 -->
<g id="node3" class="node">
<title>Node27</title>
<g id="a_node3"><a xlink:href="structHeaders_1_1Ethernet.html#ad59e9fe1ec95b8e2ed11f97b44a20650" target="_top" xlink:title="Get the SDU. ">
<polygon fill="none" stroke="#000000" points="151,-115 151,-145 253,-145 253,-115 151,-115"/>
<text text-anchor="start" x="159" y="-133" font-family="Helvetica,sans-Serif" font-size="10.00" fill="#000000">Headers::Ethernet::</text>
<text text-anchor="middle" x="202" y="-122" font-family="Helvetica,sans-Serif" font-size="10.00" fill="#000000">getPayload</text>
</a>
</g>
</g>
<!-- Node25&#45;&gt;Node27 -->
<g id="edge2" class="edge">
<title>Node25&#45;&gt;Node27</title>
<path fill="none" stroke="#191970" d="M99.0124,-100.2855C112.3794,-104.1422 127.0016,-108.3611 140.9209,-112.3772"/>
<polygon fill="#191970" stroke="#191970" points="140.3257,-115.8482 150.9041,-115.2576 142.2663,-109.1225 140.3257,-115.8482"/>
</g>
<!-- Node28 -->
<g id="node4" class="node">
<title>Node28</title>
<g id="a_node4"><a xlink:href="structHeaders_1_1IPv4.html#acc4a8033c5da9c2ce147ee10e15d2a49" target="_top" xlink:title="Get the SDU. ">
<polygon fill="none" stroke="#000000" points="135,-76.5 135,-95.5 269,-95.5 269,-76.5 135,-76.5"/>
<text text-anchor="middle" x="202" y="-83.5" font-family="Helvetica,sans-Serif" font-size="10.00" fill="#000000">Headers::IPv4::getPayload</text>
</a>
</g>
</g>
<!-- Node25&#45;&gt;Node28 -->
<g id="edge3" class="edge">
<title>Node25&#45;&gt;Node28</title>
<path fill="none" stroke="#191970" d="M99.0124,-86C107.2637,-86 115.9934,-86 124.7407,-86"/>
<polygon fill="#191970" stroke="#191970" points="124.99,-89.5001 134.9899,-86 124.9899,-82.5001 124.99,-89.5001"/>
</g>
<!-- Node30 -->
<g id="node6" class="node">
<title>Node30</title>
<g id="a_node6"><a xlink:href="structHeaders_1_1Udp.html#a531f2e8247abf7807c50d806208b7cb1" target="_top" xlink:title="Get the SDU. ">
<polygon fill="none" stroke="#000000" points="136,-38.5 136,-57.5 268,-57.5 268,-38.5 136,-38.5"/>
<text text-anchor="middle" x="202" y="-45.5" font-family="Helvetica,sans-Serif" font-size="10.00" fill="#000000">Headers::Udp::getPayload</text>
</a>
</g>
</g>
<!-- Node25&#45;&gt;Node30 -->
<g id="edge5" class="edge">
<title>Node25&#45;&gt;Node30</title>
<path fill="none" stroke="#191970" d="M99.0124,-73.6625C116.6063,-69.2784 136.3748,-64.3525 153.8528,-59.9973"/>
<polygon fill="#191970" stroke="#191970" points="154.9882,-63.3215 163.8452,-57.5074 153.2956,-56.5292 154.9882,-63.3215"/>
</g>
<!-- Node31 -->
<g id="node7" class="node">
<title>Node31</title>
<g id="a_node7"><a xlink:href="structHelloBye3_1_1msg.html#a3b93043c60ca836029a396cabf4d4982" target="_top" xlink:title="HelloBye3::msg::msg">
<polygon fill="none" stroke="#000000" points="146.5,-.5 146.5,-19.5 257.5,-19.5 257.5,-.5 146.5,-.5"/>
<text text-anchor="middle" x="202" y="-7.5" font-family="Helvetica,sans-Serif" font-size="10.00" fill="#000000">HelloBye3::msg::msg</text>
</a>
</g>
</g>
<!-- Node25&#45;&gt;Node31 -->
<g id="edge6" class="edge">
<title>Node25&#45;&gt;Node31</title>
<path fill="none" stroke="#191970" d="M68.5061,-70.7932C85.187,-58.0866 110.5383,-40.2828 135,-29 140.0092,-26.6895 145.361,-24.5991 150.7742,-22.7237"/>
<polygon fill="#191970" stroke="#191970" points="152.0808,-25.9799 160.5236,-19.5791 149.932,-19.3179 152.0808,-25.9799"/>
</g>
<!-- Node29 -->
<g id="node5" class="node">
<title>Node29</title>
<g id="a_node5"><a xlink:href="structHeaders_1_1IPv4.html#ac6c5485ffca9cffaded18d2ad8d5985a" target="_top" xlink:title="Headers::IPv4::ihl">
<polygon fill="none" stroke="#000000" points="305,-76.5 305,-95.5 400,-95.5 400,-76.5 305,-76.5"/>
<text text-anchor="middle" x="352.5" y="-83.5" font-family="Helvetica,sans-Serif" font-size="10.00" fill="#000000">Headers::IPv4::ihl</text>
</a>
</g>
</g>
<!-- Node28&#45;&gt;Node29 -->
<g id="edge4" class="edge">
<title>Node28&#45;&gt;Node29</title>
<path fill="none" stroke="#191970" d="M269.3266,-86C277.6911,-86 286.1876,-86 294.3967,-86"/>
<polygon fill="#191970" stroke="#191970" points="294.6094,-89.5001 304.6094,-86 294.6094,-82.5001 294.6094,-89.5001"/>
</g>
</g>
</svg>
