<?xml version="1.0" encoding="UTF-8" standalone="no"?>
<!DOCTYPE svg PUBLIC "-//W3C//DTD SVG 1.1//EN"
 "http://www.w3.org/Graphics/SVG/1.1/DTD/svg11.dtd">
<!-- Generated by graphviz version 2.40.1 (20161225.0304)
 -->
<!-- Title: HelloBye3::Client::runHello Pages: 1 -->
<svg width="418pt" height="534pt"
 viewBox="0.00 0.00 418.00 533.50" xmlns="http://www.w3.org/2000/svg" xmlns:xlink="http://www.w3.org/1999/xlink">
<g id="graph0" class="graph" transform="scale(1 1) rotate(0) translate(4 529.5)">
<title>HelloBye3::Client::runHello</title>
<!-- Node9 -->
<g id="node1" class="node">
<title>Node9</title>
<polygon fill="#bfbfbf" stroke="#000000" points="0,-253.5 0,-283.5 99,-283.5 99,-253.5 0,-253.5"/>
<text text-anchor="start" x="8" y="-271.5" font-family="Helvetica,sans-Serif" font-size="10.00" fill="#000000">HelloBye3::Client::</text>
<text text-anchor="middle" x="49.5" y="-260.5" font-family="Helvetica,sans-Serif" font-size="10.00" fill="#000000">runHello</text>
</g>
<!-- Node10 -->
<g id="node2" class="node">
<title>Node10</title>
<g id="a_node2"><a xlink:href="structmbuf.html#a822d13c96f003279f7691d7778e75c3c" target="_top" xlink:title="mbuf::getData">
<polygon fill="none" stroke="#000000" points="167.5,-506 167.5,-525 246.5,-525 246.5,-506 167.5,-506"/>
<text text-anchor="middle" x="207" y="-513" font-family="Helvetica,sans-Serif" font-size="10.00" fill="#000000">mbuf::getData</text>
</a>
</g>
</g>
<!-- Node9&#45;&gt;Node10 -->
<g id="edge1" class="edge">
<title>Node9&#45;&gt;Node10</title>
<path fill="none" stroke="#191970" d="M50.5367,-283.6155C54.1711,-324.4178 69.9271,-437.6746 135,-496.5 141.4104,-502.295 149.382,-506.3591 157.6624,-509.2012"/>
<polygon fill="#191970" stroke="#191970" points="156.8725,-512.6156 167.4498,-512.0066 158.8013,-505.8866 156.8725,-512.6156"/>
</g>
<!-- Node11 -->
<g id="node3" class="node">
<title>Node11</title>
<g id="a_node3"><a xlink:href="structmbuf.html#a64e891b6439330838808a0cd140ee386" target="_top" xlink:title="mbuf::getDataLen">
<polygon fill="none" stroke="#000000" points="159.5,-468 159.5,-487 254.5,-487 254.5,-468 159.5,-468"/>
<text text-anchor="middle" x="207" y="-475" font-family="Helvetica,sans-Serif" font-size="10.00" fill="#000000">mbuf::getDataLen</text>
</a>
</g>
</g>
<!-- Node9&#45;&gt;Node11 -->
<g id="edge2" class="edge">
<title>Node9&#45;&gt;Node11</title>
<path fill="none" stroke="#191970" d="M51.8198,-283.7215C58.1448,-319.8232 79.1171,-411.1456 135,-458.5 139.3151,-462.1565 144.2581,-465.1182 149.4884,-467.5157"/>
<polygon fill="#191970" stroke="#191970" points="148.5505,-470.9056 159.1398,-471.2501 151.0766,-464.3773 148.5505,-470.9056"/>
</g>
<!-- Node12 -->
<g id="node4" class="node">
<title>Node12</title>
<g id="a_node4"><a xlink:href="structHeaders_1_1IPv4.html#a28a6286beded8ad7cd611483f3dcac09" target="_top" xlink:title="Set the version field to 4. ">
<polygon fill="none" stroke="#000000" points="141.5,-430 141.5,-449 272.5,-449 272.5,-430 141.5,-430"/>
<text text-anchor="middle" x="207" y="-437" font-family="Helvetica,sans-Serif" font-size="10.00" fill="#000000">Headers::IPv4::setVersion</text>
</a>
</g>
</g>
<!-- Node9&#45;&gt;Node12 -->
<g id="edge3" class="edge">
<title>Node9&#45;&gt;Node12</title>
<path fill="none" stroke="#191970" d="M53.652,-283.6528C62.8756,-314.3846 88.054,-384.1997 135,-420.5 137.349,-422.3164 139.8562,-423.9597 142.4741,-425.4466"/>
<polygon fill="#191970" stroke="#191970" points="141.2066,-428.7213 151.7332,-429.9223 144.2532,-422.419 141.2066,-428.7213"/>
</g>
<!-- Node13 -->
<g id="node5" class="node">
<title>Node13</title>
<g id="a_node5"><a xlink:href="structHeaders_1_1IPv4.html#a89ebc78cd618d1ac327bb82e4b46917f" target="_top" xlink:title="Sets the IP header length. ">
<polygon fill="none" stroke="#000000" points="149.5,-392 149.5,-411 264.5,-411 264.5,-392 149.5,-392"/>
<text text-anchor="middle" x="207" y="-399" font-family="Helvetica,sans-Serif" font-size="10.00" fill="#000000">Headers::IPv4::setIHL</text>
</a>
</g>
</g>
<!-- Node9&#45;&gt;Node13 -->
<g id="edge4" class="edge">
<title>Node9&#45;&gt;Node13</title>
<path fill="none" stroke="#191970" d="M56.6207,-283.6442C68.9919,-308.2641 96.8318,-356.7974 135,-382.5 138.0762,-384.5715 141.3671,-386.4174 144.786,-388.0621"/>
<polygon fill="#191970" stroke="#191970" points="143.5,-391.3181 154.0752,-391.963 146.2103,-384.8641 143.5,-391.3181"/>
</g>
<!-- Node14 -->
<g id="node6" class="node">
<title>Node14</title>
<g id="a_node6"><a xlink:href="structHeaders_1_1IPv4.html#a6170f8d379d252ca29e8c91f457d1108" target="_top" xlink:title="Headers::IPv4::setLength">
<polygon fill="none" stroke="#000000" points="143,-354 143,-373 271,-373 271,-354 143,-354"/>
<text text-anchor="middle" x="207" y="-361" font-family="Helvetica,sans-Serif" font-size="10.00" fill="#000000">Headers::IPv4::setLength</text>
</a>
</g>
</g>
<!-- Node9&#45;&gt;Node14 -->
<g id="edge5" class="edge">
<title>Node9&#45;&gt;Node14</title>
<path fill="none" stroke="#191970" d="M62.4402,-283.6767C77.9639,-300.927 105.5973,-328.7291 135,-344.5 139.2615,-346.7858 143.8149,-348.8092 148.4839,-350.5982"/>
<polygon fill="#191970" stroke="#191970" points="147.5787,-353.9885 158.1734,-353.95 149.8671,-347.3731 147.5787,-353.9885"/>
</g>
<!-- Node15 -->
<g id="node7" class="node">
<title>Node15</title>
<g id="a_node7"><a xlink:href="structHeaders_1_1IPv4.html#ab3379b3b9cf0bda526087c3cc1c9927d" target="_top" xlink:title="Set the destination ip. ">
<polygon fill="none" stroke="#000000" points="144.5,-316 144.5,-335 269.5,-335 269.5,-316 144.5,-316"/>
<text text-anchor="middle" x="207" y="-323" font-family="Helvetica,sans-Serif" font-size="10.00" fill="#000000">Headers::IPv4::setDstIP</text>
</a>
</g>
</g>
<!-- Node9&#45;&gt;Node15 -->
<g id="edge6" class="edge">
<title>Node9&#45;&gt;Node15</title>
<path fill="none" stroke="#191970" d="M80.2841,-283.6178C96.3428,-291.1343 116.4579,-299.9802 135,-306.5 141.8755,-308.9175 149.2144,-311.1917 156.4792,-313.2684"/>
<polygon fill="#191970" stroke="#191970" points="155.7188,-316.6893 166.2894,-315.9729 157.5792,-309.941 155.7188,-316.6893"/>
</g>
<!-- Node16 -->
<g id="node8" class="node">
<title>Node16</title>
<g id="a_node8"><a xlink:href="structHeaders_1_1IPv4.html#a4e1023a9cc8055be85956cd29c6fc397" target="_top" xlink:title="Set the source ip. ">
<polygon fill="none" stroke="#000000" points="145,-278 145,-297 269,-297 269,-278 145,-278"/>
<text text-anchor="middle" x="207" y="-285" font-family="Helvetica,sans-Serif" font-size="10.00" fill="#000000">Headers::IPv4::setSrcIP</text>
</a>
</g>
</g>
<!-- Node9&#45;&gt;Node16 -->
<g id="edge7" class="edge">
<title>Node9&#45;&gt;Node16</title>
<path fill="none" stroke="#191970" d="M99.334,-274.5117C110.5993,-275.8707 122.7813,-277.3403 134.761,-278.7855"/>
<polygon fill="#191970" stroke="#191970" points="134.4046,-282.2678 144.7518,-279.9907 135.243,-275.3181 134.4046,-282.2678"/>
</g>
<!-- Node17 -->
<g id="node9" class="node">
<title>Node17</title>
<g id="a_node9"><a xlink:href="structHeaders_1_1IPv4.html#a3de15b59ea6a3656f37c63e0c8d83df7" target="_top" xlink:title="Set the protocol to UDP. ">
<polygon fill="none" stroke="#000000" points="135,-240 135,-259 279,-259 279,-240 135,-240"/>
<text text-anchor="middle" x="207" y="-247" font-family="Helvetica,sans-Serif" font-size="10.00" fill="#000000">Headers::IPv4::setProtoUDP</text>
</a>
</g>
</g>
<!-- Node9&#45;&gt;Node17 -->
<g id="edge8" class="edge">
<title>Node9&#45;&gt;Node17</title>
<path fill="none" stroke="#191970" d="M99.334,-262.4883C107.4309,-261.5115 116.0014,-260.4776 124.63,-259.4367"/>
<polygon fill="#191970" stroke="#191970" points="125.2522,-262.8871 134.761,-258.2145 124.4138,-255.9375 125.2522,-262.8871"/>
</g>
<!-- Node18 -->
<g id="node10" class="node">
<title>Node18</title>
<g id="a_node10"><a xlink:href="structHeaders_1_1IPv4.html#acc4a8033c5da9c2ce147ee10e15d2a49" target="_top" xlink:title="Get the SDU. ">
<polygon fill="none" stroke="#000000" points="140,-202 140,-221 274,-221 274,-202 140,-202"/>
<text text-anchor="middle" x="207" y="-209" font-family="Helvetica,sans-Serif" font-size="10.00" fill="#000000">Headers::IPv4::getPayload</text>
</a>
</g>
</g>
<!-- Node9&#45;&gt;Node18 -->
<g id="edge9" class="edge">
<title>Node9&#45;&gt;Node18</title>
<path fill="none" stroke="#191970" d="M80.2841,-253.3822C96.3428,-245.8657 116.4579,-237.0198 135,-230.5 141.8755,-228.0825 149.2144,-225.8083 156.4792,-223.7316"/>
<polygon fill="#191970" stroke="#191970" points="157.5792,-227.059 166.2894,-221.0271 155.7188,-220.3107 157.5792,-227.059"/>
</g>
<!-- Node20 -->
<g id="node12" class="node">
<title>Node20</title>
<g id="a_node12"><a xlink:href="structHeaders_1_1Udp.html#a531f2e8247abf7807c50d806208b7cb1" target="_top" xlink:title="Get the SDU. ">
<polygon fill="none" stroke="#000000" points="141,-164 141,-183 273,-183 273,-164 141,-164"/>
<text text-anchor="middle" x="207" y="-171" font-family="Helvetica,sans-Serif" font-size="10.00" fill="#000000">Headers::Udp::getPayload</text>
</a>
</g>
</g>
<!-- Node9&#45;&gt;Node20 -->
<g id="edge11" class="edge">
<title>Node9&#45;&gt;Node20</title>
<path fill="none" stroke="#191970" d="M62.4402,-253.3233C77.9639,-236.073 105.5973,-208.2709 135,-192.5 139.2615,-190.2142 143.8149,-188.1908 148.4839,-186.4018"/>
<polygon fill="#191970" stroke="#191970" points="149.8671,-189.6269 158.1734,-183.05 147.5787,-183.0115 149.8671,-189.6269"/>
</g>
<!-- Node21 -->
<g id="node13" class="node">
<title>Node21</title>
<g id="a_node13"><a xlink:href="structHelloBye3_1_1msg.html#a3b93043c60ca836029a396cabf4d4982" target="_top" xlink:title="HelloBye3::msg::msg">
<polygon fill="none" stroke="#000000" points="151.5,-126 151.5,-145 262.5,-145 262.5,-126 151.5,-126"/>
<text text-anchor="middle" x="207" y="-133" font-family="Helvetica,sans-Serif" font-size="10.00" fill="#000000">HelloBye3::msg::msg</text>
</a>
</g>
</g>
<!-- Node9&#45;&gt;Node21 -->
<g id="edge12" class="edge">
<title>Node9&#45;&gt;Node21</title>
<path fill="none" stroke="#191970" d="M56.6207,-253.3558C68.9919,-228.7359 96.8318,-180.2026 135,-154.5 138.0762,-152.4285 141.3671,-150.5826 144.786,-148.9379"/>
<polygon fill="#191970" stroke="#191970" points="146.2103,-152.1359 154.0752,-145.037 143.5,-145.6819 146.2103,-152.1359"/>
</g>
<!-- Node22 -->
<g id="node14" class="node">
<title>Node22</title>
<g id="a_node14"><a xlink:href="structHeaders_1_1Udp.html#ad7860fd7b0f369d39d55aef85a11045a" target="_top" xlink:title="Set the destination port. ">
<polygon fill="none" stroke="#000000" points="141.5,-88 141.5,-107 272.5,-107 272.5,-88 141.5,-88"/>
<text text-anchor="middle" x="207" y="-95" font-family="Helvetica,sans-Serif" font-size="10.00" fill="#000000">Headers::Udp::setDstPort</text>
</a>
</g>
</g>
<!-- Node9&#45;&gt;Node22 -->
<g id="edge13" class="edge">
<title>Node9&#45;&gt;Node22</title>
<path fill="none" stroke="#191970" d="M53.652,-253.3472C62.8756,-222.6154 88.054,-152.8003 135,-116.5 137.349,-114.6836 139.8562,-113.0403 142.4741,-111.5534"/>
<polygon fill="#191970" stroke="#191970" points="144.2532,-114.581 151.7332,-107.0777 141.2066,-108.2787 144.2532,-114.581"/>
</g>
<!-- Node23 -->
<g id="node15" class="node">
<title>Node23</title>
<g id="a_node15"><a xlink:href="structHeaders_1_1Udp.html#ab28d05a7270cf1537848db896588ca01" target="_top" xlink:title="Set the source port. ">
<polygon fill="none" stroke="#000000" points="142,-50 142,-69 272,-69 272,-50 142,-50"/>
<text text-anchor="middle" x="207" y="-57" font-family="Helvetica,sans-Serif" font-size="10.00" fill="#000000">Headers::Udp::setSrcPort</text>
</a>
</g>
</g>
<!-- Node9&#45;&gt;Node23 -->
<g id="edge14" class="edge">
<title>Node9&#45;&gt;Node23</title>
<path fill="none" stroke="#191970" d="M51.8198,-253.2785C58.1448,-217.1768 79.1171,-125.8544 135,-78.5 136.9849,-76.818 139.1027,-75.283 141.3203,-73.8824"/>
<polygon fill="#191970" stroke="#191970" points="143.1047,-76.8978 150.2976,-69.1189 139.8236,-70.7144 143.1047,-76.8978"/>
</g>
<!-- Node24 -->
<g id="node16" class="node">
<title>Node24</title>
<g id="a_node16"><a xlink:href="structHeaders_1_1Udp.html#ac5397a534d246cfa93ac157eee3c565e" target="_top" xlink:title="Set the length of the L4&#45;SDU (UDP payload) ">
<polygon fill="none" stroke="#000000" points="141,-.5 141,-30.5 273,-30.5 273,-.5 141,-.5"/>
<text text-anchor="start" x="149" y="-18.5" font-family="Helvetica,sans-Serif" font-size="10.00" fill="#000000">Headers::Udp::setPayload</text>
<text text-anchor="middle" x="207" y="-7.5" font-family="Helvetica,sans-Serif" font-size="10.00" fill="#000000">Length</text>
</a>
</g>
</g>
<!-- Node9&#45;&gt;Node24 -->
<g id="edge15" class="edge">
<title>Node9&#45;&gt;Node24</title>
<path fill="none" stroke="#191970" d="M50.8141,-253.3553C55.121,-212.9669 72.366,-101.6135 135,-40.5 136.6159,-38.9233 138.3363,-37.4457 140.14,-36.061"/>
<polygon fill="#191970" stroke="#191970" points="142.0753,-38.9774 148.5168,-30.5657 138.2356,-33.1245 142.0753,-38.9774"/>
</g>
<!-- Node19 -->
<g id="node11" class="node">
<title>Node19</title>
<g id="a_node11"><a xlink:href="structHeaders_1_1IPv4.html#ac6c5485ffca9cffaded18d2ad8d5985a" target="_top" xlink:title="Headers::IPv4::ihl">
<polygon fill="none" stroke="#000000" points="315,-202 315,-221 410,-221 410,-202 315,-202"/>
<text text-anchor="middle" x="362.5" y="-209" font-family="Helvetica,sans-Serif" font-size="10.00" fill="#000000">Headers::IPv4::ihl</text>
</a>
</g>
</g>
<!-- Node18&#45;&gt;Node19 -->
<g id="edge10" class="edge">
<title>Node18&#45;&gt;Node19</title>
<path fill="none" stroke="#191970" d="M274.3002,-211.5C284.4129,-211.5 294.7658,-211.5 304.6577,-211.5"/>
<polygon fill="#191970" stroke="#191970" points="304.7699,-215.0001 314.7699,-211.5 304.7699,-208.0001 304.7699,-215.0001"/>
</g>
</g>
</svg>
