<?xml version="1.0" encoding="UTF-8" standalone="no"?>
<!DOCTYPE svg PUBLIC "-//W3C//DTD SVG 1.1//EN"
 "http://www.w3.org/Graphics/SVG/1.1/DTD/svg11.dtd">
<!-- Generated by graphviz version 2.40.1 (20161225.0304)
 -->
<!-- Title: HelloBye3::Client::runBye Pages: 1 -->
<svg width="408pt" height="230pt"
 viewBox="0.00 0.00 408.00 230.00" xmlns="http://www.w3.org/2000/svg" xmlns:xlink="http://www.w3.org/1999/xlink">
<g id="graph0" class="graph" transform="scale(1 1) rotate(0) translate(4 226)">
<title>HelloBye3::Client::runBye</title>
<!-- Node1 -->
<g id="node1" class="node">
<title>Node1</title>
<polygon fill="#bfbfbf" stroke="#000000" points="0,-90 0,-120 99,-120 99,-90 0,-90"/>
<text text-anchor="start" x="8" y="-108" font-family="Helvetica,sans-Serif" font-size="10.00" fill="#000000">HelloBye3::Client::</text>
<text text-anchor="middle" x="49.5" y="-97" font-family="Helvetica,sans-Serif" font-size="10.00" fill="#000000">runBye</text>
</g>
<!-- Node2 -->
<g id="node2" class="node">
<title>Node2</title>
<g id="a_node2"><a xlink:href="structmbuf.html#a822d13c96f003279f7691d7778e75c3c" target="_top" xlink:title="mbuf::getData">
<polygon fill="none" stroke="#000000" points="162.5,-202.5 162.5,-221.5 241.5,-221.5 241.5,-202.5 162.5,-202.5"/>
<text text-anchor="middle" x="202" y="-209.5" font-family="Helvetica,sans-Serif" font-size="10.00" fill="#000000">mbuf::getData</text>
</a>
</g>
</g>
<!-- Node1&#45;&gt;Node2 -->
<g id="edge1" class="edge">
<title>Node1&#45;&gt;Node2</title>
<path fill="none" stroke="#191970" d="M60.1484,-120.1172C74.7894,-139.7884 102.9899,-173.8962 135,-193 140.4507,-196.253 146.4835,-198.9708 152.6306,-201.2362"/>
<polygon fill="#191970" stroke="#191970" points="151.7237,-204.6226 162.3169,-204.4355 153.9191,-197.9758 151.7237,-204.6226"/>
</g>
<!-- Node3 -->
<g id="node3" class="node">
<title>Node3</title>
<g id="a_node3"><a xlink:href="structHeaders_1_1Ethernet.html#ad59e9fe1ec95b8e2ed11f97b44a20650" target="_top" xlink:title="Get the SDU. ">
<polygon fill="none" stroke="#000000" points="151,-153 151,-183 253,-183 253,-153 151,-153"/>
<text text-anchor="start" x="159" y="-171" font-family="Helvetica,sans-Serif" font-size="10.00" fill="#000000">Headers::Ethernet::</text>
<text text-anchor="middle" x="202" y="-160" font-family="Helvetica,sans-Serif" font-size="10.00" fill="#000000">getPayload</text>
</a>
</g>
</g>
<!-- Node1&#45;&gt;Node3 -->
<g id="edge2" class="edge">
<title>Node1&#45;&gt;Node3</title>
<path fill="none" stroke="#191970" d="M82.1855,-120.0887C98.0341,-127.2605 117.4052,-135.8153 135,-143 140.1004,-145.0827 145.4458,-147.1946 150.7979,-149.2629"/>
<polygon fill="#191970" stroke="#191970" points="149.7968,-152.6271 160.3875,-152.9231 152.293,-146.0872 149.7968,-152.6271"/>
</g>
<!-- Node4 -->
<g id="node4" class="node">
<title>Node4</title>
<g id="a_node4"><a xlink:href="structHeaders_1_1IPv4.html#acc4a8033c5da9c2ce147ee10e15d2a49" target="_top" xlink:title="Get the SDU. ">
<polygon fill="none" stroke="#000000" points="135,-114.5 135,-133.5 269,-133.5 269,-114.5 135,-114.5"/>
<text text-anchor="middle" x="202" y="-121.5" font-family="Helvetica,sans-Serif" font-size="10.00" fill="#000000">Headers::IPv4::getPayload</text>
</a>
</g>
</g>
<!-- Node1&#45;&gt;Node4 -->
<g id="edge3" class="edge">
<title>Node1&#45;&gt;Node4</title>
<path fill="none" stroke="#191970" d="M99.0124,-111.1688C107.3534,-112.208 116.1832,-113.3081 125.026,-114.4098"/>
<polygon fill="#191970" stroke="#191970" points="124.6339,-117.8879 134.9899,-115.6512 125.4994,-110.9416 124.6339,-117.8879"/>
</g>
<!-- Node6 -->
<g id="node6" class="node">
<title>Node6</title>
<g id="a_node6"><a xlink:href="structHeaders_1_1Udp.html#a531f2e8247abf7807c50d806208b7cb1" target="_top" xlink:title="Get the SDU. ">
<polygon fill="none" stroke="#000000" points="136,-76.5 136,-95.5 268,-95.5 268,-76.5 136,-76.5"/>
<text text-anchor="middle" x="202" y="-83.5" font-family="Helvetica,sans-Serif" font-size="10.00" fill="#000000">Headers::Udp::getPayload</text>
</a>
</g>
</g>
<!-- Node1&#45;&gt;Node6 -->
<g id="edge5" class="edge">
<title>Node1&#45;&gt;Node6</title>
<path fill="none" stroke="#191970" d="M99.0124,-98.8312C107.543,-97.7684 116.5848,-96.6419 125.6289,-95.5151"/>
<polygon fill="#191970" stroke="#191970" points="126.3233,-98.9557 135.8138,-94.2461 125.4578,-92.0094 126.3233,-98.9557"/>
</g>
<!-- Node7 -->
<g id="node7" class="node">
<title>Node7</title>
<g id="a_node7"><a xlink:href="structHelloBye3_1_1msg.html#a3b93043c60ca836029a396cabf4d4982" target="_top" xlink:title="HelloBye3::msg::msg">
<polygon fill="none" stroke="#000000" points="146.5,-38.5 146.5,-57.5 257.5,-57.5 257.5,-38.5 146.5,-38.5"/>
<text text-anchor="middle" x="202" y="-45.5" font-family="Helvetica,sans-Serif" font-size="10.00" fill="#000000">HelloBye3::msg::msg</text>
</a>
</g>
</g>
<!-- Node1&#45;&gt;Node7 -->
<g id="edge6" class="edge">
<title>Node1&#45;&gt;Node7</title>
<path fill="none" stroke="#191970" d="M80.7339,-89.838C96.7389,-82.3983 116.6711,-73.634 135,-67 141.4163,-64.6777 148.2599,-62.4558 155.0305,-60.4031"/>
<polygon fill="#191970" stroke="#191970" points="156.2299,-63.6988 164.8398,-57.5245 154.2588,-56.982 156.2299,-63.6988"/>
</g>
<!-- Node8 -->
<g id="node8" class="node">
<title>Node8</title>
<g id="a_node8"><a xlink:href="common_8hpp.html#ab9ce1ea79c76c5726af17e271c20c6ec" target="_top" xlink:title="Dump hex data. ">
<polygon fill="none" stroke="#000000" points="174,-.5 174,-19.5 230,-19.5 230,-.5 174,-.5"/>
<text text-anchor="middle" x="202" y="-7.5" font-family="Helvetica,sans-Serif" font-size="10.00" fill="#000000">hexdump</text>
</a>
</g>
</g>
<!-- Node1&#45;&gt;Node8 -->
<g id="edge7" class="edge">
<title>Node1&#45;&gt;Node8</title>
<path fill="none" stroke="#191970" d="M62.4919,-89.9186C78.064,-72.7577 105.743,-45.0396 135,-29 143.8915,-24.1254 154.148,-20.4055 163.9209,-17.6069"/>
<polygon fill="#191970" stroke="#191970" points="165.061,-20.9266 173.8527,-15.0142 163.2928,-14.1536 165.061,-20.9266"/>
</g>
<!-- Node5 -->
<g id="node5" class="node">
<title>Node5</title>
<g id="a_node5"><a xlink:href="structHeaders_1_1IPv4.html#ac6c5485ffca9cffaded18d2ad8d5985a" target="_top" xlink:title="Headers::IPv4::ihl">
<polygon fill="none" stroke="#000000" points="305,-114.5 305,-133.5 400,-133.5 400,-114.5 305,-114.5"/>
<text text-anchor="middle" x="352.5" y="-121.5" font-family="Helvetica,sans-Serif" font-size="10.00" fill="#000000">Headers::IPv4::ihl</text>
</a>
</g>
</g>
<!-- Node4&#45;&gt;Node5 -->
<g id="edge4" class="edge">
<title>Node4&#45;&gt;Node5</title>
<path fill="none" stroke="#191970" d="M269.3266,-124C277.6911,-124 286.1876,-124 294.3967,-124"/>
<polygon fill="#191970" stroke="#191970" points="294.6094,-127.5001 304.6094,-124 294.6094,-120.5001 294.6094,-127.5001"/>
</g>
</g>
</svg>
