<?xml version="1.0" encoding="UTF-8" standalone="no"?>
<!DOCTYPE svg PUBLIC "-//W3C//DTD SVG 1.1//EN"
 "http://www.w3.org/Graphics/SVG/1.1/DTD/svg11.dtd">
<!-- Generated by graphviz version 2.40.1 (20161225.0304)
 -->
<!-- Title: /home/dominik/uni/MoonState/include/samplePacket.hpp Pages: 1 -->
<svg width="824pt" height="307pt"
 viewBox="0.00 0.00 824.00 307.00" xmlns="http://www.w3.org/2000/svg" xmlns:xlink="http://www.w3.org/1999/xlink">
<g id="graph0" class="graph" transform="scale(1 1) rotate(0) translate(4 303)">
<title>/home/dominik/uni/MoonState/include/samplePacket.hpp</title>
<!-- Node3 -->
<g id="node1" class="node">
<title>Node3</title>
<polygon fill="#bfbfbf" stroke="#000000" points="332,-268.5 332,-298.5 479,-298.5 479,-268.5 332,-268.5"/>
<text text-anchor="start" x="340" y="-286.5" font-family="Helvetica,sans-Serif" font-size="10.00" fill="#000000">/home/dominik/uni/MoonState</text>
<text text-anchor="middle" x="405.5" y="-275.5" font-family="Helvetica,sans-Serif" font-size="10.00" fill="#000000">/include/samplePacket.hpp</text>
</g>
<!-- Node4 -->
<g id="node2" class="node">
<title>Node4</title>
<g id="a_node2"><a xlink:href="helloBye2Proto_8cpp.html" target="_top" xlink:title="/home/dominik/uni/MoonState\l/src/helloBye2Proto.cpp">
<polygon fill="none" stroke="#000000" points="82,-201.5 82,-231.5 229,-231.5 229,-201.5 82,-201.5"/>
<text text-anchor="start" x="90" y="-219.5" font-family="Helvetica,sans-Serif" font-size="10.00" fill="#000000">/home/dominik/uni/MoonState</text>
<text text-anchor="middle" x="155.5" y="-208.5" font-family="Helvetica,sans-Serif" font-size="10.00" fill="#000000">/src/helloBye2Proto.cpp</text>
</a>
</g>
</g>
<!-- Node3&#45;&gt;Node4 -->
<g id="edge1" class="edge">
<title>Node3&#45;&gt;Node4</title>
<path fill="none" stroke="#191970" d="M339.5289,-265.8198C299.7926,-255.1704 249.7259,-241.7525 211.8496,-231.6017"/>
<polygon fill="#191970" stroke="#191970" points="338.8299,-269.2559 349.3951,-268.4639 340.642,-262.4945 338.8299,-269.2559"/>
</g>
<!-- Node9 -->
<g id="node7" class="node">
<title>Node9</title>
<g id="a_node7"><a xlink:href="helloBye3_8cpp.html" target="_top" xlink:title="/home/dominik/uni/MoonState\l/src/helloBye3.cpp">
<polygon fill="none" stroke="#000000" points="247,-201.5 247,-231.5 394,-231.5 394,-201.5 247,-201.5"/>
<text text-anchor="start" x="255" y="-219.5" font-family="Helvetica,sans-Serif" font-size="10.00" fill="#000000">/home/dominik/uni/MoonState</text>
<text text-anchor="middle" x="320.5" y="-208.5" font-family="Helvetica,sans-Serif" font-size="10.00" fill="#000000">/src/helloBye3.cpp</text>
</a>
</g>
</g>
<!-- Node3&#45;&gt;Node9 -->
<g id="edge7" class="edge">
<title>Node3&#45;&gt;Node9</title>
<path fill="none" stroke="#191970" d="M378.3055,-262.0643C365.7374,-252.1577 351.1083,-240.6265 339.7115,-231.6432"/>
<polygon fill="#191970" stroke="#191970" points="376.1919,-264.8549 386.2122,-268.2967 380.5253,-259.3574 376.1919,-264.8549"/>
</g>
<!-- Node11 -->
<g id="node9" class="node">
<title>Node11</title>
<g id="a_node9"><a xlink:href="helloBye3MemPool_8cpp.html" target="_top" xlink:title="/home/dominik/uni/MoonState\l/src/helloBye3MemPool.cpp">
<polygon fill="none" stroke="#000000" points="417,-201.5 417,-231.5 564,-231.5 564,-201.5 417,-201.5"/>
<text text-anchor="start" x="425" y="-219.5" font-family="Helvetica,sans-Serif" font-size="10.00" fill="#000000">/home/dominik/uni/MoonState</text>
<text text-anchor="middle" x="490.5" y="-208.5" font-family="Helvetica,sans-Serif" font-size="10.00" fill="#000000">/src/helloBye3MemPool.cpp</text>
</a>
</g>
</g>
<!-- Node3&#45;&gt;Node11 -->
<g id="edge10" class="edge">
<title>Node3&#45;&gt;Node11</title>
<path fill="none" stroke="#191970" d="M432.6945,-262.0643C445.2626,-252.1577 459.8917,-240.6265 471.2885,-231.6432"/>
<polygon fill="#191970" stroke="#191970" points="430.4747,-259.3574 424.7878,-268.2967 434.8081,-264.8549 430.4747,-259.3574"/>
</g>
<!-- Node13 -->
<g id="node11" class="node">
<title>Node13</title>
<g id="a_node11"><a xlink:href="helloByeProto_8cpp.html" target="_top" xlink:title="/home/dominik/uni/MoonState\l/src/helloByeProto.cpp">
<polygon fill="none" stroke="#000000" points="587,-201.5 587,-231.5 734,-231.5 734,-201.5 587,-201.5"/>
<text text-anchor="start" x="595" y="-219.5" font-family="Helvetica,sans-Serif" font-size="10.00" fill="#000000">/home/dominik/uni/MoonState</text>
<text text-anchor="middle" x="660.5" y="-208.5" font-family="Helvetica,sans-Serif" font-size="10.00" fill="#000000">/src/helloByeProto.cpp</text>
</a>
</g>
</g>
<!-- Node3&#45;&gt;Node13 -->
<g id="edge13" class="edge">
<title>Node3&#45;&gt;Node13</title>
<path fill="none" stroke="#191970" d="M472.533,-265.8874C513.1051,-255.2273 564.3078,-241.774 603.0234,-231.6017"/>
<polygon fill="#191970" stroke="#191970" points="471.5093,-262.5375 462.727,-268.4639 473.2882,-269.3077 471.5093,-262.5375"/>
</g>
<!-- Node5 -->
<g id="node3" class="node">
<title>Node5</title>
<g id="a_node3"><a xlink:href="helloBye2Proto_8hpp.html" target="_top" xlink:title="/home/dominik/uni/MoonState\l/include/helloBye2Proto.hpp">
<polygon fill="none" stroke="#000000" points="82,-134.5 82,-164.5 229,-164.5 229,-134.5 82,-134.5"/>
<text text-anchor="start" x="90" y="-152.5" font-family="Helvetica,sans-Serif" font-size="10.00" fill="#000000">/home/dominik/uni/MoonState</text>
<text text-anchor="middle" x="155.5" y="-141.5" font-family="Helvetica,sans-Serif" font-size="10.00" fill="#000000">/include/helloBye2Proto.hpp</text>
</a>
</g>
</g>
<!-- Node4&#45;&gt;Node5 -->
<g id="edge2" class="edge">
<title>Node4&#45;&gt;Node5</title>
<path fill="none" stroke="#191970" d="M148.9384,-191.3179C148.5239,-182.3414 148.7933,-172.5143 149.7464,-164.6432"/>
<polygon fill="#191970" stroke="#191970" points="145.4504,-191.6087 149.7392,-201.2967 152.428,-191.0487 145.4504,-191.6087"/>
</g>
<!-- Node5&#45;&gt;Node4 -->
<g id="edge5" class="edge">
<title>Node5&#45;&gt;Node4</title>
<path fill="none" stroke="#191970" d="M162.0584,-174.6135C162.4764,-183.5857 162.2105,-193.4156 161.2608,-201.2967"/>
<polygon fill="#191970" stroke="#191970" points="165.5469,-174.3291 161.2536,-164.6432 158.5696,-174.8924 165.5469,-174.3291"/>
</g>
<!-- Node6 -->
<g id="node4" class="node">
<title>Node6</title>
<g id="a_node4"><a xlink:href="helloBye2__C_8hpp.html" target="_top" xlink:title="/home/dominik/uni/MoonState\l/include/helloBye2_C.hpp">
<polygon fill="none" stroke="#000000" points="0,-67.5 0,-97.5 147,-97.5 147,-67.5 0,-67.5"/>
<text text-anchor="start" x="8" y="-85.5" font-family="Helvetica,sans-Serif" font-size="10.00" fill="#000000">/home/dominik/uni/MoonState</text>
<text text-anchor="middle" x="73.5" y="-74.5" font-family="Helvetica,sans-Serif" font-size="10.00" fill="#000000">/include/helloBye2_C.hpp</text>
</a>
</g>
</g>
<!-- Node5&#45;&gt;Node6 -->
<g id="edge3" class="edge">
<title>Node5&#45;&gt;Node6</title>
<path fill="none" stroke="#191970" d="M128.9183,-127.7808C116.8722,-117.9383 102.9233,-106.541 92.0334,-97.6432"/>
<polygon fill="#191970" stroke="#191970" points="126.9346,-130.6797 136.8929,-134.2967 131.3637,-125.2591 126.9346,-130.6797"/>
</g>
<!-- Node8 -->
<g id="node6" class="node">
<title>Node8</title>
<g id="a_node6"><a xlink:href="helloBye2ProtoStatic_8cpp.html" target="_top" xlink:title="/home/dominik/uni/MoonState\l/src/helloBye2ProtoStatic.cpp">
<polygon fill="none" stroke="#000000" points="165,-67.5 165,-97.5 312,-97.5 312,-67.5 165,-67.5"/>
<text text-anchor="start" x="173" y="-85.5" font-family="Helvetica,sans-Serif" font-size="10.00" fill="#000000">/home/dominik/uni/MoonState</text>
<text text-anchor="middle" x="238.5" y="-74.5" font-family="Helvetica,sans-Serif" font-size="10.00" fill="#000000">/src/helloBye2ProtoStatic.cpp</text>
</a>
</g>
</g>
<!-- Node5&#45;&gt;Node8 -->
<g id="edge6" class="edge">
<title>Node5&#45;&gt;Node8</title>
<path fill="none" stroke="#191970" d="M182.4058,-127.7808C194.5988,-117.9383 208.7179,-106.541 219.7405,-97.6432"/>
<polygon fill="#191970" stroke="#191970" points="179.9168,-125.292 174.334,-134.2967 184.3136,-130.7389 179.9168,-125.292"/>
</g>
<!-- Node7 -->
<g id="node5" class="node">
<title>Node7</title>
<g id="a_node5"><a xlink:href="helloBye2__C_8cpp.html" target="_top" xlink:title="/home/dominik/uni/MoonState\l/src/helloBye2_C.cpp">
<polygon fill="none" stroke="#000000" points="0,-.5 0,-30.5 147,-30.5 147,-.5 0,-.5"/>
<text text-anchor="start" x="8" y="-18.5" font-family="Helvetica,sans-Serif" font-size="10.00" fill="#000000">/home/dominik/uni/MoonState</text>
<text text-anchor="middle" x="73.5" y="-7.5" font-family="Helvetica,sans-Serif" font-size="10.00" fill="#000000">/src/helloBye2_C.cpp</text>
</a>
</g>
</g>
<!-- Node6&#45;&gt;Node7 -->
<g id="edge4" class="edge">
<title>Node6&#45;&gt;Node7</title>
<path fill="none" stroke="#191970" d="M73.5,-57.0249C73.5,-48.128 73.5,-38.4287 73.5,-30.6432"/>
<polygon fill="#191970" stroke="#191970" points="70.0001,-57.2966 73.5,-67.2967 77.0001,-57.2967 70.0001,-57.2966"/>
</g>
<!-- Node10 -->
<g id="node8" class="node">
<title>Node10</title>
<g id="a_node8"><a xlink:href="helloBye3_8hpp.html" target="_top" xlink:title="/home/dominik/uni/MoonState\l/include/helloBye3.hpp">
<polygon fill="none" stroke="#000000" points="247,-134.5 247,-164.5 394,-164.5 394,-134.5 247,-134.5"/>
<text text-anchor="start" x="255" y="-152.5" font-family="Helvetica,sans-Serif" font-size="10.00" fill="#000000">/home/dominik/uni/MoonState</text>
<text text-anchor="middle" x="320.5" y="-141.5" font-family="Helvetica,sans-Serif" font-size="10.00" fill="#000000">/include/helloBye3.hpp</text>
</a>
</g>
</g>
<!-- Node9&#45;&gt;Node10 -->
<g id="edge8" class="edge">
<title>Node9&#45;&gt;Node10</title>
<path fill="none" stroke="#191970" d="M313.9384,-191.3179C313.5239,-182.3414 313.7933,-172.5143 314.7464,-164.6432"/>
<polygon fill="#191970" stroke="#191970" points="310.4504,-191.6087 314.7392,-201.2967 317.428,-191.0487 310.4504,-191.6087"/>
</g>
<!-- Node10&#45;&gt;Node9 -->
<g id="edge9" class="edge">
<title>Node10&#45;&gt;Node9</title>
<path fill="none" stroke="#191970" d="M327.0584,-174.6135C327.4764,-183.5857 327.2105,-193.4156 326.2608,-201.2967"/>
<polygon fill="#191970" stroke="#191970" points="330.5469,-174.3291 326.2536,-164.6432 323.5696,-174.8924 330.5469,-174.3291"/>
</g>
<!-- Node12 -->
<g id="node10" class="node">
<title>Node12</title>
<g id="a_node10"><a xlink:href="helloBye3MemPool_8hpp.html" target="_top" xlink:title="/home/dominik/uni/MoonState\l/include/helloBye3MemPool.hpp">
<polygon fill="none" stroke="#000000" points="412.5,-134.5 412.5,-164.5 568.5,-164.5 568.5,-134.5 412.5,-134.5"/>
<text text-anchor="start" x="420.5" y="-152.5" font-family="Helvetica,sans-Serif" font-size="10.00" fill="#000000">/home/dominik/uni/MoonState</text>
<text text-anchor="middle" x="490.5" y="-141.5" font-family="Helvetica,sans-Serif" font-size="10.00" fill="#000000">/include/helloBye3MemPool.hpp</text>
</a>
</g>
</g>
<!-- Node11&#45;&gt;Node12 -->
<g id="edge11" class="edge">
<title>Node11&#45;&gt;Node12</title>
<path fill="none" stroke="#191970" d="M483.9384,-191.3179C483.5239,-182.3414 483.7933,-172.5143 484.7464,-164.6432"/>
<polygon fill="#191970" stroke="#191970" points="480.4504,-191.6087 484.7392,-201.2967 487.428,-191.0487 480.4504,-191.6087"/>
</g>
<!-- Node12&#45;&gt;Node11 -->
<g id="edge12" class="edge">
<title>Node12&#45;&gt;Node11</title>
<path fill="none" stroke="#191970" d="M497.0584,-174.6135C497.4764,-183.5857 497.2105,-193.4156 496.2608,-201.2967"/>
<polygon fill="#191970" stroke="#191970" points="500.5469,-174.3291 496.2536,-164.6432 493.5696,-174.8924 500.5469,-174.3291"/>
</g>
<!-- Node14 -->
<g id="node12" class="node">
<title>Node14</title>
<g id="a_node12"><a xlink:href="helloByeProto_8hpp.html" target="_top" xlink:title="/home/dominik/uni/MoonState\l/include/helloByeProto.hpp">
<polygon fill="none" stroke="#000000" points="587,-134.5 587,-164.5 734,-164.5 734,-134.5 587,-134.5"/>
<text text-anchor="start" x="595" y="-152.5" font-family="Helvetica,sans-Serif" font-size="10.00" fill="#000000">/home/dominik/uni/MoonState</text>
<text text-anchor="middle" x="660.5" y="-141.5" font-family="Helvetica,sans-Serif" font-size="10.00" fill="#000000">/include/helloByeProto.hpp</text>
</a>
</g>
</g>
<!-- Node13&#45;&gt;Node14 -->
<g id="edge14" class="edge">
<title>Node13&#45;&gt;Node14</title>
<path fill="none" stroke="#191970" d="M653.9384,-191.3179C653.5239,-182.3414 653.7933,-172.5143 654.7464,-164.6432"/>
<polygon fill="#191970" stroke="#191970" points="650.4504,-191.6087 654.7392,-201.2967 657.428,-191.0487 650.4504,-191.6087"/>
</g>
<!-- Node14&#45;&gt;Node13 -->
<g id="edge17" class="edge">
<title>Node14&#45;&gt;Node13</title>
<path fill="none" stroke="#191970" d="M667.0584,-174.6135C667.4764,-183.5857 667.2105,-193.4156 666.2608,-201.2967"/>
<polygon fill="#191970" stroke="#191970" points="670.5469,-174.3291 666.2536,-164.6432 663.5696,-174.8924 670.5469,-174.3291"/>
</g>
<!-- Node15 -->
<g id="node13" class="node">
<title>Node15</title>
<g id="a_node13"><a xlink:href="helloBye__C_8hpp.html" target="_top" xlink:title="/home/dominik/uni/MoonState\l/include/helloBye_C.hpp">
<polygon fill="none" stroke="#000000" points="504,-67.5 504,-97.5 651,-97.5 651,-67.5 504,-67.5"/>
<text text-anchor="start" x="512" y="-85.5" font-family="Helvetica,sans-Serif" font-size="10.00" fill="#000000">/home/dominik/uni/MoonState</text>
<text text-anchor="middle" x="577.5" y="-74.5" font-family="Helvetica,sans-Serif" font-size="10.00" fill="#000000">/include/helloBye_C.hpp</text>
</a>
</g>
</g>
<!-- Node14&#45;&gt;Node15 -->
<g id="edge15" class="edge">
<title>Node14&#45;&gt;Node15</title>
<path fill="none" stroke="#191970" d="M633.5942,-127.7808C621.4012,-117.9383 607.2821,-106.541 596.2595,-97.6432"/>
<polygon fill="#191970" stroke="#191970" points="631.6864,-130.7389 641.666,-134.2967 636.0832,-125.292 631.6864,-130.7389"/>
</g>
<!-- Node17 -->
<g id="node15" class="node">
<title>Node17</title>
<g id="a_node15"><a xlink:href="helloByeProtoStatic_8cpp.html" target="_top" xlink:title="/home/dominik/uni/MoonState\l/src/helloByeProtoStatic.cpp">
<polygon fill="none" stroke="#000000" points="669,-67.5 669,-97.5 816,-97.5 816,-67.5 669,-67.5"/>
<text text-anchor="start" x="677" y="-85.5" font-family="Helvetica,sans-Serif" font-size="10.00" fill="#000000">/home/dominik/uni/MoonState</text>
<text text-anchor="middle" x="742.5" y="-74.5" font-family="Helvetica,sans-Serif" font-size="10.00" fill="#000000">/src/helloByeProtoStatic.cpp</text>
</a>
</g>
</g>
<!-- Node14&#45;&gt;Node17 -->
<g id="edge18" class="edge">
<title>Node14&#45;&gt;Node17</title>
<path fill="none" stroke="#191970" d="M687.0817,-127.7808C699.1278,-117.9383 713.0767,-106.541 723.9666,-97.6432"/>
<polygon fill="#191970" stroke="#191970" points="684.6363,-125.2591 679.1071,-134.2967 689.0654,-130.6797 684.6363,-125.2591"/>
</g>
<!-- Node16 -->
<g id="node14" class="node">
<title>Node16</title>
<g id="a_node14"><a xlink:href="helloBye__C_8cpp.html" target="_top" xlink:title="/home/dominik/uni/MoonState\l/src/helloBye_C.cpp">
<polygon fill="none" stroke="#000000" points="504,-.5 504,-30.5 651,-30.5 651,-.5 504,-.5"/>
<text text-anchor="start" x="512" y="-18.5" font-family="Helvetica,sans-Serif" font-size="10.00" fill="#000000">/home/dominik/uni/MoonState</text>
<text text-anchor="middle" x="577.5" y="-7.5" font-family="Helvetica,sans-Serif" font-size="10.00" fill="#000000">/src/helloBye_C.cpp</text>
</a>
</g>
</g>
<!-- Node15&#45;&gt;Node16 -->
<g id="edge16" class="edge">
<title>Node15&#45;&gt;Node16</title>
<path fill="none" stroke="#191970" d="M577.5,-57.0249C577.5,-48.128 577.5,-38.4287 577.5,-30.6432"/>
<polygon fill="#191970" stroke="#191970" points="574.0001,-57.2966 577.5,-67.2967 581.0001,-57.2967 574.0001,-57.2966"/>
</g>
</g>
</svg>
