<?xml version="1.0" encoding="UTF-8" standalone="no"?>
<!DOCTYPE svg PUBLIC "-//W3C//DTD SVG 1.1//EN"
 "http://www.w3.org/Graphics/SVG/1.1/DTD/svg11.dtd">
<!-- Generated by graphviz version 2.38.0 (20140413.2041)
 -->
<!-- Title: /home/dominik/uni/MoonState/include/samplePacket.hpp Pages: 1 -->
<svg width="155pt" height="95pt"
 viewBox="0.00 0.00 155.00 95.00" xmlns="http://www.w3.org/2000/svg" xmlns:xlink="http://www.w3.org/1999/xlink">
<g id="graph0" class="graph" transform="scale(1 1) rotate(0) translate(4 91)">
<title>/home/dominik/uni/MoonState/include/samplePacket.hpp</title>
<!-- Node1 -->
<g id="node1" class="node"><title>Node1</title>
<polygon fill="#bfbfbf" stroke="black" points="0,-56.5 0,-86.5 147,-86.5 147,-56.5 0,-56.5"/>
<text text-anchor="start" x="8" y="-74.5" font-family="Helvetica,sans-Serif" font-size="10.00">/home/dominik/uni/MoonState</text>
<text text-anchor="middle" x="73.5" y="-63.5" font-family="Helvetica,sans-Serif" font-size="10.00">/include/samplePacket.hpp</text>
</g>
<!-- Node2 -->
<g id="node2" class="node"><title>Node2</title>
<polygon fill="none" stroke="#bfbfbf" points="18.5,-0.5 18.5,-19.5 64.5,-19.5 64.5,-0.5 18.5,-0.5"/>
<text text-anchor="middle" x="41.5" y="-7.5" font-family="Helvetica,sans-Serif" font-size="10.00">cstdint</text>
</g>
<!-- Node1&#45;&gt;Node2 -->
<g id="edge1" class="edge"><title>Node1&#45;&gt;Node2</title>
<path fill="none" stroke="midnightblue" d="M65.9164,-56.3993C61.4582,-48.1098 55.7812,-37.5542 51.0234,-28.7077"/>
<polygon fill="midnightblue" stroke="midnightblue" points="53.9754,-26.8071 46.1563,-19.6578 47.8104,-30.1227 53.9754,-26.8071"/>
</g>
<!-- Node3 -->
<g id="node3" class="node"><title>Node3</title>
<polygon fill="none" stroke="#bfbfbf" points="83,-0.5 83,-19.5 128,-19.5 128,-0.5 83,-0.5"/>
<text text-anchor="middle" x="105.5" y="-7.5" font-family="Helvetica,sans-Serif" font-size="10.00">cstdlib</text>
</g>
<!-- Node1&#45;&gt;Node3 -->
<g id="edge2" class="edge"><title>Node1&#45;&gt;Node3</title>
<path fill="none" stroke="midnightblue" d="M81.0836,-56.3993C85.5418,-48.1098 91.2188,-37.5542 95.9766,-28.7077"/>
<polygon fill="midnightblue" stroke="midnightblue" points="99.1896,-30.1227 100.844,-19.6578 93.0246,-26.8071 99.1896,-30.1227"/>
</g>
</g>
</svg>
