<?xml version="1.0" encoding="UTF-8" standalone="no"?>
<!DOCTYPE svg PUBLIC "-//W3C//DTD SVG 1.1//EN"
 "http://www.w3.org/Graphics/SVG/1.1/DTD/svg11.dtd">
<!-- Generated by graphviz version 2.40.1 (20161225.0304)
 -->
<!-- Title: /home/dominik/uni/MoonState/include/stateMachine.hpp Pages: 1 -->
<svg width="1200pt" height="240pt"
 viewBox="0.00 0.00 1199.78 240.00" xmlns="http://www.w3.org/2000/svg" xmlns:xlink="http://www.w3.org/1999/xlink">
<g id="graph0" class="graph" transform="scale(1 1) rotate(0) translate(4 236)">
<title>/home/dominik/uni/MoonState/include/stateMachine.hpp</title>
<!-- Node21 -->
<g id="node1" class="node">
<title>Node21</title>
<polygon fill="#bfbfbf" stroke="#000000" points="597,-201.5 597,-231.5 744,-231.5 744,-201.5 597,-201.5"/>
<text text-anchor="start" x="605" y="-219.5" font-family="Helvetica,sans-Serif" font-size="10.00" fill="#000000">/home/dominik/uni/MoonState</text>
<text text-anchor="middle" x="670.5" y="-208.5" font-family="Helvetica,sans-Serif" font-size="10.00" fill="#000000">/include/stateMachine.hpp</text>
</g>
<!-- Node22 -->
<g id="node2" class="node">
<title>Node22</title>
<g id="a_node2"><a xlink:href="dtlsClient_8hpp.html" target="_top" xlink:title="/home/dominik/uni/MoonState\l/include/dtlsClient.hpp">
<polygon fill="none" stroke="#000000" points="83,-134.5 83,-164.5 230,-164.5 230,-134.5 83,-134.5"/>
<text text-anchor="start" x="91" y="-152.5" font-family="Helvetica,sans-Serif" font-size="10.00" fill="#000000">/home/dominik/uni/MoonState</text>
<text text-anchor="middle" x="156.5" y="-141.5" font-family="Helvetica,sans-Serif" font-size="10.00" fill="#000000">/include/dtlsClient.hpp</text>
</a>
</g>
</g>
<!-- Node21&#45;&gt;Node22 -->
<g id="edge1" class="edge">
<title>Node21&#45;&gt;Node22</title>
<path fill="none" stroke="#191970" d="M586.8847,-205.6007C487.838,-192.69 324.4075,-171.3868 230.0071,-159.0817"/>
<polygon fill="#191970" stroke="#191970" points="586.4878,-209.0785 596.8563,-206.9005 587.3926,-202.1372 586.4878,-209.0785"/>
</g>
<!-- Node24 -->
<g id="node4" class="node">
<title>Node24</title>
<g id="a_node4"><a xlink:href="helloBye2Proto_8hpp.html" target="_top" xlink:title="/home/dominik/uni/MoonState\l/include/helloBye2Proto.hpp">
<polygon fill="none" stroke="#000000" points="330,-134.5 330,-164.5 477,-164.5 477,-134.5 330,-134.5"/>
<text text-anchor="start" x="338" y="-152.5" font-family="Helvetica,sans-Serif" font-size="10.00" fill="#000000">/home/dominik/uni/MoonState</text>
<text text-anchor="middle" x="403.5" y="-141.5" font-family="Helvetica,sans-Serif" font-size="10.00" fill="#000000">/include/helloBye2Proto.hpp</text>
</a>
</g>
</g>
<!-- Node21&#45;&gt;Node24 -->
<g id="edge3" class="edge">
<title>Node21&#45;&gt;Node24</title>
<path fill="none" stroke="#191970" d="M600.8508,-199.0225C558.2848,-188.3411 504.3903,-174.8171 463.6814,-164.6017"/>
<polygon fill="#191970" stroke="#191970" points="600.0288,-202.4247 610.58,-201.4639 601.7326,-195.6352 600.0288,-202.4247"/>
</g>
<!-- Node26 -->
<g id="node6" class="node">
<title>Node26</title>
<g id="a_node6"><a xlink:href="helloBye2__C_8cpp.html" target="_top" xlink:title="/home/dominik/uni/MoonState\l/src/helloBye2_C.cpp">
<polygon fill="none" stroke="#000000" points="473,-.5 473,-30.5 620,-30.5 620,-.5 473,-.5"/>
<text text-anchor="start" x="481" y="-18.5" font-family="Helvetica,sans-Serif" font-size="10.00" fill="#000000">/home/dominik/uni/MoonState</text>
<text text-anchor="middle" x="546.5" y="-7.5" font-family="Helvetica,sans-Serif" font-size="10.00" fill="#000000">/src/helloBye2_C.cpp</text>
</a>
</g>
</g>
<!-- Node21&#45;&gt;Node26 -->
<g id="edge15" class="edge">
<title>Node21&#45;&gt;Node26</title>
<path fill="none" stroke="#191970" d="M673.8978,-190.9579C676.75,-158.9204 676.8413,-103.742 650.5,-67 638.3497,-50.0522 619.0246,-38.3903 600.3123,-30.5104"/>
<polygon fill="#191970" stroke="#191970" points="670.3798,-190.945 672.8126,-201.2568 677.3413,-191.6786 670.3798,-190.945"/>
</g>
<!-- Node29 -->
<g id="node9" class="node">
<title>Node29</title>
<g id="a_node9"><a xlink:href="helloByeProto_8hpp.html" target="_top" xlink:title="/home/dominik/uni/MoonState\l/include/helloByeProto.hpp">
<polygon fill="none" stroke="#000000" points="864,-134.5 864,-164.5 1011,-164.5 1011,-134.5 864,-134.5"/>
<text text-anchor="start" x="872" y="-152.5" font-family="Helvetica,sans-Serif" font-size="10.00" fill="#000000">/home/dominik/uni/MoonState</text>
<text text-anchor="middle" x="937.5" y="-141.5" font-family="Helvetica,sans-Serif" font-size="10.00" fill="#000000">/include/helloByeProto.hpp</text>
</a>
</g>
</g>
<!-- Node21&#45;&gt;Node29 -->
<g id="edge9" class="edge">
<title>Node21&#45;&gt;Node29</title>
<path fill="none" stroke="#191970" d="M740.1492,-199.0225C782.7152,-188.3411 836.6097,-174.8171 877.3186,-164.6017"/>
<polygon fill="#191970" stroke="#191970" points="739.2674,-195.6352 730.42,-201.4639 740.9712,-202.4247 739.2674,-195.6352"/>
</g>
<!-- Node31 -->
<g id="node11" class="node">
<title>Node31</title>
<g id="a_node11"><a xlink:href="helloBye__C_8cpp.html" target="_top" xlink:title="/home/dominik/uni/MoonState\l/src/helloBye_C.cpp">
<polygon fill="none" stroke="#000000" points="822,-.5 822,-30.5 969,-30.5 969,-.5 822,-.5"/>
<text text-anchor="start" x="830" y="-18.5" font-family="Helvetica,sans-Serif" font-size="10.00" fill="#000000">/home/dominik/uni/MoonState</text>
<text text-anchor="middle" x="895.5" y="-7.5" font-family="Helvetica,sans-Serif" font-size="10.00" fill="#000000">/src/helloBye_C.cpp</text>
</a>
</g>
</g>
<!-- Node21&#45;&gt;Node31 -->
<g id="edge16" class="edge">
<title>Node21&#45;&gt;Node31</title>
<path fill="none" stroke="#191970" d="M754.1926,-210.6352C887.4586,-199.2442 1137.7677,-168.7391 1185.5,-98 1193.2065,-86.5791 1194.3497,-77.5598 1185.5,-67 1158.4029,-34.6668 1045.7637,-22.619 969.1082,-18.1393"/>
<polygon fill="#191970" stroke="#191970" points="753.694,-207.1646 744.021,-211.4869 754.2782,-214.1402 753.694,-207.1646"/>
</g>
<!-- Node23 -->
<g id="node3" class="node">
<title>Node23</title>
<g id="a_node3"><a xlink:href="dtlsClient_8cpp.html" target="_top" xlink:title="/home/dominik/uni/MoonState\l/src/dtlsClient.cpp">
<polygon fill="none" stroke="#000000" points="0,-67.5 0,-97.5 147,-97.5 147,-67.5 0,-67.5"/>
<text text-anchor="start" x="8" y="-85.5" font-family="Helvetica,sans-Serif" font-size="10.00" fill="#000000">/home/dominik/uni/MoonState</text>
<text text-anchor="middle" x="73.5" y="-74.5" font-family="Helvetica,sans-Serif" font-size="10.00" fill="#000000">/src/dtlsClient.cpp</text>
</a>
</g>
</g>
<!-- Node22&#45;&gt;Node23 -->
<g id="edge2" class="edge">
<title>Node22&#45;&gt;Node23</title>
<path fill="none" stroke="#191970" d="M129.5942,-127.7808C117.4012,-117.9383 103.2821,-106.541 92.2595,-97.6432"/>
<polygon fill="#191970" stroke="#191970" points="127.6864,-130.7389 137.666,-134.2967 132.0832,-125.292 127.6864,-130.7389"/>
</g>
<!-- Node25 -->
<g id="node5" class="node">
<title>Node25</title>
<g id="a_node5"><a xlink:href="helloBye2__C_8hpp.html" target="_top" xlink:title="/home/dominik/uni/MoonState\l/include/helloBye2_C.hpp">
<polygon fill="none" stroke="#000000" points="165,-67.5 165,-97.5 312,-97.5 312,-67.5 165,-67.5"/>
<text text-anchor="start" x="173" y="-85.5" font-family="Helvetica,sans-Serif" font-size="10.00" fill="#000000">/home/dominik/uni/MoonState</text>
<text text-anchor="middle" x="238.5" y="-74.5" font-family="Helvetica,sans-Serif" font-size="10.00" fill="#000000">/include/helloBye2_C.hpp</text>
</a>
</g>
</g>
<!-- Node24&#45;&gt;Node25 -->
<g id="edge4" class="edge">
<title>Node24&#45;&gt;Node25</title>
<path fill="none" stroke="#191970" d="M356.9298,-130.5897C331.2245,-120.1518 299.7358,-107.3654 275.6907,-97.6017"/>
<polygon fill="#191970" stroke="#191970" points="355.8887,-133.9444 366.4708,-134.4639 358.5223,-127.4587 355.8887,-133.9444"/>
</g>
<!-- Node27 -->
<g id="node7" class="node">
<title>Node27</title>
<g id="a_node7"><a xlink:href="helloBye2Proto_8cpp.html" target="_top" xlink:title="/home/dominik/uni/MoonState\l/src/helloBye2Proto.cpp">
<polygon fill="none" stroke="#000000" points="330,-67.5 330,-97.5 477,-97.5 477,-67.5 330,-67.5"/>
<text text-anchor="start" x="338" y="-85.5" font-family="Helvetica,sans-Serif" font-size="10.00" fill="#000000">/home/dominik/uni/MoonState</text>
<text text-anchor="middle" x="403.5" y="-74.5" font-family="Helvetica,sans-Serif" font-size="10.00" fill="#000000">/src/helloBye2Proto.cpp</text>
</a>
</g>
</g>
<!-- Node24&#45;&gt;Node27 -->
<g id="edge6" class="edge">
<title>Node24&#45;&gt;Node27</title>
<path fill="none" stroke="#191970" d="M396.9384,-124.3179C396.5239,-115.3414 396.7933,-105.5143 397.7464,-97.6432"/>
<polygon fill="#191970" stroke="#191970" points="393.4504,-124.6087 397.7392,-134.2967 400.428,-124.0487 393.4504,-124.6087"/>
</g>
<!-- Node28 -->
<g id="node8" class="node">
<title>Node28</title>
<g id="a_node8"><a xlink:href="helloBye2ProtoStatic_8cpp.html" target="_top" xlink:title="/home/dominik/uni/MoonState\l/src/helloBye2ProtoStatic.cpp">
<polygon fill="none" stroke="#000000" points="495,-67.5 495,-97.5 642,-97.5 642,-67.5 495,-67.5"/>
<text text-anchor="start" x="503" y="-85.5" font-family="Helvetica,sans-Serif" font-size="10.00" fill="#000000">/home/dominik/uni/MoonState</text>
<text text-anchor="middle" x="568.5" y="-74.5" font-family="Helvetica,sans-Serif" font-size="10.00" fill="#000000">/src/helloBye2ProtoStatic.cpp</text>
</a>
</g>
</g>
<!-- Node24&#45;&gt;Node28 -->
<g id="edge8" class="edge">
<title>Node24&#45;&gt;Node28</title>
<path fill="none" stroke="#191970" d="M450.0702,-130.5897C475.7755,-120.1518 507.2642,-107.3654 531.3093,-97.6017"/>
<polygon fill="#191970" stroke="#191970" points="448.4777,-127.4587 440.5292,-134.4639 451.1113,-133.9444 448.4777,-127.4587"/>
</g>
<!-- Node25&#45;&gt;Node26 -->
<g id="edge5" class="edge">
<title>Node25&#45;&gt;Node26</title>
<path fill="none" stroke="#191970" d="M317.6246,-65.2878C367.0062,-54.5457 429.9631,-40.8506 477.3436,-30.5438"/>
<polygon fill="#191970" stroke="#191970" points="316.6487,-61.9182 307.6212,-67.4639 318.1367,-68.7582 316.6487,-61.9182"/>
</g>
<!-- Node27&#45;&gt;Node24 -->
<g id="edge7" class="edge">
<title>Node27&#45;&gt;Node24</title>
<path fill="none" stroke="#191970" d="M410.0584,-107.6135C410.4764,-116.5857 410.2105,-126.4156 409.2608,-134.2967"/>
<polygon fill="#191970" stroke="#191970" points="413.5469,-107.3291 409.2536,-97.6432 406.5696,-107.8924 413.5469,-107.3291"/>
</g>
<!-- Node30 -->
<g id="node10" class="node">
<title>Node30</title>
<g id="a_node10"><a xlink:href="helloBye__C_8hpp.html" target="_top" xlink:title="/home/dominik/uni/MoonState\l/include/helloBye_C.hpp">
<polygon fill="none" stroke="#000000" points="699,-67.5 699,-97.5 846,-97.5 846,-67.5 699,-67.5"/>
<text text-anchor="start" x="707" y="-85.5" font-family="Helvetica,sans-Serif" font-size="10.00" fill="#000000">/home/dominik/uni/MoonState</text>
<text text-anchor="middle" x="772.5" y="-74.5" font-family="Helvetica,sans-Serif" font-size="10.00" fill="#000000">/include/helloBye_C.hpp</text>
</a>
</g>
</g>
<!-- Node29&#45;&gt;Node30 -->
<g id="edge10" class="edge">
<title>Node29&#45;&gt;Node30</title>
<path fill="none" stroke="#191970" d="M890.9298,-130.5897C865.2245,-120.1518 833.7358,-107.3654 809.6907,-97.6017"/>
<polygon fill="#191970" stroke="#191970" points="889.8887,-133.9444 900.4708,-134.4639 892.5223,-127.4587 889.8887,-133.9444"/>
</g>
<!-- Node32 -->
<g id="node12" class="node">
<title>Node32</title>
<g id="a_node12"><a xlink:href="helloByeProto_8cpp.html" target="_top" xlink:title="/home/dominik/uni/MoonState\l/src/helloByeProto.cpp">
<polygon fill="none" stroke="#000000" points="864,-67.5 864,-97.5 1011,-97.5 1011,-67.5 864,-67.5"/>
<text text-anchor="start" x="872" y="-85.5" font-family="Helvetica,sans-Serif" font-size="10.00" fill="#000000">/home/dominik/uni/MoonState</text>
<text text-anchor="middle" x="937.5" y="-74.5" font-family="Helvetica,sans-Serif" font-size="10.00" fill="#000000">/src/helloByeProto.cpp</text>
</a>
</g>
</g>
<!-- Node29&#45;&gt;Node32 -->
<g id="edge12" class="edge">
<title>Node29&#45;&gt;Node32</title>
<path fill="none" stroke="#191970" d="M930.9384,-124.3179C930.5239,-115.3414 930.7933,-105.5143 931.7464,-97.6432"/>
<polygon fill="#191970" stroke="#191970" points="927.4504,-124.6087 931.7392,-134.2967 934.428,-124.0487 927.4504,-124.6087"/>
</g>
<!-- Node33 -->
<g id="node13" class="node">
<title>Node33</title>
<g id="a_node13"><a xlink:href="helloByeProtoStatic_8cpp.html" target="_top" xlink:title="/home/dominik/uni/MoonState\l/src/helloByeProtoStatic.cpp">
<polygon fill="none" stroke="#000000" points="1029,-67.5 1029,-97.5 1176,-97.5 1176,-67.5 1029,-67.5"/>
<text text-anchor="start" x="1037" y="-85.5" font-family="Helvetica,sans-Serif" font-size="10.00" fill="#000000">/home/dominik/uni/MoonState</text>
<text text-anchor="middle" x="1102.5" y="-74.5" font-family="Helvetica,sans-Serif" font-size="10.00" fill="#000000">/src/helloByeProtoStatic.cpp</text>
</a>
</g>
</g>
<!-- Node29&#45;&gt;Node33 -->
<g id="edge14" class="edge">
<title>Node29&#45;&gt;Node33</title>
<path fill="none" stroke="#191970" d="M984.0702,-130.5897C1009.7755,-120.1518 1041.2642,-107.3654 1065.3093,-97.6017"/>
<polygon fill="#191970" stroke="#191970" points="982.4777,-127.4587 974.5292,-134.4639 985.1113,-133.9444 982.4777,-127.4587"/>
</g>
<!-- Node30&#45;&gt;Node31 -->
<g id="edge11" class="edge">
<title>Node30&#45;&gt;Node31</title>
<path fill="none" stroke="#191970" d="M808.9683,-62.6352C827.7177,-52.422 850.2099,-40.1702 867.563,-30.7177"/>
<polygon fill="#191970" stroke="#191970" points="807.211,-59.6067 800.1036,-67.4639 810.5595,-65.7539 807.211,-59.6067"/>
</g>
<!-- Node32&#45;&gt;Node29 -->
<g id="edge13" class="edge">
<title>Node32&#45;&gt;Node29</title>
<path fill="none" stroke="#191970" d="M944.0584,-107.6135C944.4764,-116.5857 944.2105,-126.4156 943.2608,-134.2967"/>
<polygon fill="#191970" stroke="#191970" points="947.5469,-107.3291 943.2536,-97.6432 940.5696,-107.8924 947.5469,-107.3291"/>
</g>
</g>
</svg>
