<?xml version="1.0" encoding="UTF-8" standalone="no"?>
<!DOCTYPE svg PUBLIC "-//W3C//DTD SVG 1.1//EN"
 "http://www.w3.org/Graphics/SVG/1.1/DTD/svg11.dtd">
<!-- Generated by graphviz version 2.40.1 (20161225.0304)
 -->
<!-- Title: /home/dominik/uni/MoonState/include/stateMachine.hpp Pages: 1 -->
<svg width="1366pt" height="240pt"
 viewBox="0.00 0.00 1366.34 240.00" xmlns="http://www.w3.org/2000/svg" xmlns:xlink="http://www.w3.org/1999/xlink">
<g id="graph0" class="graph" transform="scale(1 1) rotate(0) translate(4 236)">
<title>/home/dominik/uni/MoonState/include/stateMachine.hpp</title>
<!-- Node21 -->
<g id="node1" class="node">
<title>Node21</title>
<polygon fill="#bfbfbf" stroke="#000000" points="648,-201.5 648,-231.5 795,-231.5 795,-201.5 648,-201.5"/>
<text text-anchor="start" x="656" y="-219.5" font-family="Helvetica,sans-Serif" font-size="10.00" fill="#000000">/home/dominik/uni/MoonState</text>
<text text-anchor="middle" x="721.5" y="-208.5" font-family="Helvetica,sans-Serif" font-size="10.00" fill="#000000">/include/stateMachine.hpp</text>
</g>
<!-- Node22 -->
<g id="node2" class="node">
<title>Node22</title>
<g id="a_node2"><a xlink:href="dtlsClient_8hpp.html" target="_top" xlink:title="/home/dominik/uni/MoonState\l/include/dtlsClient.hpp">
<polygon fill="none" stroke="#000000" points="83,-134.5 83,-164.5 230,-164.5 230,-134.5 83,-134.5"/>
<text text-anchor="start" x="91" y="-152.5" font-family="Helvetica,sans-Serif" font-size="10.00" fill="#000000">/home/dominik/uni/MoonState</text>
<text text-anchor="middle" x="156.5" y="-141.5" font-family="Helvetica,sans-Serif" font-size="10.00" fill="#000000">/include/dtlsClient.hpp</text>
</a>
</g>
</g>
<!-- Node21&#45;&gt;Node22 -->
<g id="edge1" class="edge">
<title>Node21&#45;&gt;Node22</title>
<path fill="none" stroke="#191970" d="M637.8366,-206.5789C527.4905,-193.4936 335.0421,-170.6723 230.0183,-158.2181"/>
<polygon fill="#191970" stroke="#191970" points="637.5833,-210.0733 647.926,-207.7753 638.4077,-203.122 637.5833,-210.0733"/>
</g>
<!-- Node24 -->
<g id="node4" class="node">
<title>Node24</title>
<g id="a_node4"><a xlink:href="helloBye2Proto_8hpp.html" target="_top" xlink:title="/home/dominik/uni/MoonState\l/include/helloBye2Proto.hpp">
<polygon fill="none" stroke="#000000" points="330,-134.5 330,-164.5 477,-164.5 477,-134.5 330,-134.5"/>
<text text-anchor="start" x="338" y="-152.5" font-family="Helvetica,sans-Serif" font-size="10.00" fill="#000000">/home/dominik/uni/MoonState</text>
<text text-anchor="middle" x="403.5" y="-141.5" font-family="Helvetica,sans-Serif" font-size="10.00" fill="#000000">/include/helloBye2Proto.hpp</text>
</a>
</g>
</g>
<!-- Node21&#45;&gt;Node24 -->
<g id="edge3" class="edge">
<title>Node21&#45;&gt;Node24</title>
<path fill="none" stroke="#191970" d="M640.1255,-199.3551C589.093,-188.6029 523.9227,-174.8721 474.9018,-164.5438"/>
<polygon fill="#191970" stroke="#191970" points="639.6278,-202.827 650.1346,-201.4639 641.071,-195.9773 639.6278,-202.827"/>
</g>
<!-- Node26 -->
<g id="node6" class="node">
<title>Node26</title>
<g id="a_node6"><a xlink:href="helloBye2__C_8cpp.html" target="_top" xlink:title="/home/dominik/uni/MoonState\l/src/helloBye2_C.cpp">
<polygon fill="none" stroke="#000000" points="381,-.5 381,-30.5 528,-30.5 528,-.5 381,-.5"/>
<text text-anchor="start" x="389" y="-18.5" font-family="Helvetica,sans-Serif" font-size="10.00" fill="#000000">/home/dominik/uni/MoonState</text>
<text text-anchor="middle" x="454.5" y="-7.5" font-family="Helvetica,sans-Serif" font-size="10.00" fill="#000000">/src/helloBye2_C.cpp</text>
</a>
</g>
</g>
<!-- Node21&#45;&gt;Node26 -->
<g id="edge18" class="edge">
<title>Node21&#45;&gt;Node26</title>
<path fill="none" stroke="#191970" d="M705.3558,-192.4927C699.9743,-183.9957 694.1669,-174.2478 689.5,-165 668.38,-123.1493 685.6036,-98.0688 650.5,-67 632.1566,-50.765 575.777,-36.9543 528.1678,-27.734"/>
<polygon fill="#191970" stroke="#191970" points="702.5811,-194.6471 710.954,-201.1391 708.457,-190.8427 702.5811,-194.6471"/>
</g>
<!-- Node29 -->
<g id="node9" class="node">
<title>Node29</title>
<g id="a_node9"><a xlink:href="helloBye3_8hpp.html" target="_top" xlink:title="/home/dominik/uni/MoonState\l/include/helloBye3.hpp">
<polygon fill="none" stroke="#000000" points="699,-134.5 699,-164.5 846,-164.5 846,-134.5 699,-134.5"/>
<text text-anchor="start" x="707" y="-152.5" font-family="Helvetica,sans-Serif" font-size="10.00" fill="#000000">/home/dominik/uni/MoonState</text>
<text text-anchor="middle" x="772.5" y="-141.5" font-family="Helvetica,sans-Serif" font-size="10.00" fill="#000000">/include/helloBye3.hpp</text>
</a>
</g>
</g>
<!-- Node21&#45;&gt;Node29 -->
<g id="edge9" class="edge">
<title>Node21&#45;&gt;Node29</title>
<path fill="none" stroke="#191970" d="M739.3404,-193.0626C746.5193,-183.6315 754.5909,-173.0276 760.9731,-164.6432"/>
<polygon fill="#191970" stroke="#191970" points="736.3446,-191.2197 733.0727,-201.2967 741.9146,-195.4595 736.3446,-191.2197"/>
</g>
<!-- Node31 -->
<g id="node11" class="node">
<title>Node31</title>
<g id="a_node11"><a xlink:href="helloByeProto_8hpp.html" target="_top" xlink:title="/home/dominik/uni/MoonState\l/include/helloByeProto.hpp">
<polygon fill="none" stroke="#000000" points="1029,-134.5 1029,-164.5 1176,-164.5 1176,-134.5 1029,-134.5"/>
<text text-anchor="start" x="1037" y="-152.5" font-family="Helvetica,sans-Serif" font-size="10.00" fill="#000000">/home/dominik/uni/MoonState</text>
<text text-anchor="middle" x="1102.5" y="-141.5" font-family="Helvetica,sans-Serif" font-size="10.00" fill="#000000">/include/helloByeProto.hpp</text>
</a>
</g>
</g>
<!-- Node21&#45;&gt;Node31 -->
<g id="edge12" class="edge">
<title>Node21&#45;&gt;Node31</title>
<path fill="none" stroke="#191970" d="M805.4891,-201.7303C872.2903,-189.9831 964.8402,-173.7079 1028.7933,-162.4615"/>
<polygon fill="#191970" stroke="#191970" points="804.6551,-198.3231 795.4124,-203.5023 805.8675,-205.2174 804.6551,-198.3231"/>
</g>
<!-- Node33 -->
<g id="node13" class="node">
<title>Node33</title>
<g id="a_node13"><a xlink:href="helloBye__C_8cpp.html" target="_top" xlink:title="/home/dominik/uni/MoonState\l/src/helloBye_C.cpp">
<polygon fill="none" stroke="#000000" points="1080,-.5 1080,-30.5 1227,-30.5 1227,-.5 1080,-.5"/>
<text text-anchor="start" x="1088" y="-18.5" font-family="Helvetica,sans-Serif" font-size="10.00" fill="#000000">/home/dominik/uni/MoonState</text>
<text text-anchor="middle" x="1153.5" y="-7.5" font-family="Helvetica,sans-Serif" font-size="10.00" fill="#000000">/src/helloBye_C.cpp</text>
</a>
</g>
</g>
<!-- Node21&#45;&gt;Node33 -->
<g id="edge19" class="edge">
<title>Node21&#45;&gt;Node33</title>
<path fill="none" stroke="#191970" d="M805.2256,-214.6963C962.2309,-209.2207 1290.4961,-187.1274 1350.5,-98 1384.0464,-48.1715 1296.2467,-28.37 1227.2458,-20.5464"/>
<polygon fill="#191970" stroke="#191970" points="805.0137,-211.2013 795.1362,-215.0335 805.2476,-218.1974 805.0137,-211.2013"/>
</g>
<!-- Node23 -->
<g id="node3" class="node">
<title>Node23</title>
<g id="a_node3"><a xlink:href="dtlsClient_8cpp.html" target="_top" xlink:title="/home/dominik/uni/MoonState\l/src/dtlsClient.cpp">
<polygon fill="none" stroke="#000000" points="0,-67.5 0,-97.5 147,-97.5 147,-67.5 0,-67.5"/>
<text text-anchor="start" x="8" y="-85.5" font-family="Helvetica,sans-Serif" font-size="10.00" fill="#000000">/home/dominik/uni/MoonState</text>
<text text-anchor="middle" x="73.5" y="-74.5" font-family="Helvetica,sans-Serif" font-size="10.00" fill="#000000">/src/dtlsClient.cpp</text>
</a>
</g>
</g>
<!-- Node22&#45;&gt;Node23 -->
<g id="edge2" class="edge">
<title>Node22&#45;&gt;Node23</title>
<path fill="none" stroke="#191970" d="M129.5942,-127.7808C117.4012,-117.9383 103.2821,-106.541 92.2595,-97.6432"/>
<polygon fill="#191970" stroke="#191970" points="127.6864,-130.7389 137.666,-134.2967 132.0832,-125.292 127.6864,-130.7389"/>
</g>
<!-- Node25 -->
<g id="node5" class="node">
<title>Node25</title>
<g id="a_node5"><a xlink:href="helloBye2__C_8hpp.html" target="_top" xlink:title="/home/dominik/uni/MoonState\l/include/helloBye2_C.hpp">
<polygon fill="none" stroke="#000000" points="165,-67.5 165,-97.5 312,-97.5 312,-67.5 165,-67.5"/>
<text text-anchor="start" x="173" y="-85.5" font-family="Helvetica,sans-Serif" font-size="10.00" fill="#000000">/home/dominik/uni/MoonState</text>
<text text-anchor="middle" x="238.5" y="-74.5" font-family="Helvetica,sans-Serif" font-size="10.00" fill="#000000">/include/helloBye2_C.hpp</text>
</a>
</g>
</g>
<!-- Node24&#45;&gt;Node25 -->
<g id="edge4" class="edge">
<title>Node24&#45;&gt;Node25</title>
<path fill="none" stroke="#191970" d="M356.9298,-130.5897C331.2245,-120.1518 299.7358,-107.3654 275.6907,-97.6017"/>
<polygon fill="#191970" stroke="#191970" points="355.8887,-133.9444 366.4708,-134.4639 358.5223,-127.4587 355.8887,-133.9444"/>
</g>
<!-- Node27 -->
<g id="node7" class="node">
<title>Node27</title>
<g id="a_node7"><a xlink:href="helloBye2Proto_8cpp.html" target="_top" xlink:title="/home/dominik/uni/MoonState\l/src/helloBye2Proto.cpp">
<polygon fill="none" stroke="#000000" points="330,-67.5 330,-97.5 477,-97.5 477,-67.5 330,-67.5"/>
<text text-anchor="start" x="338" y="-85.5" font-family="Helvetica,sans-Serif" font-size="10.00" fill="#000000">/home/dominik/uni/MoonState</text>
<text text-anchor="middle" x="403.5" y="-74.5" font-family="Helvetica,sans-Serif" font-size="10.00" fill="#000000">/src/helloBye2Proto.cpp</text>
</a>
</g>
</g>
<!-- Node24&#45;&gt;Node27 -->
<g id="edge6" class="edge">
<title>Node24&#45;&gt;Node27</title>
<path fill="none" stroke="#191970" d="M396.9384,-124.3179C396.5239,-115.3414 396.7933,-105.5143 397.7464,-97.6432"/>
<polygon fill="#191970" stroke="#191970" points="393.4504,-124.6087 397.7392,-134.2967 400.428,-124.0487 393.4504,-124.6087"/>
</g>
<!-- Node28 -->
<g id="node8" class="node">
<title>Node28</title>
<g id="a_node8"><a xlink:href="helloBye2ProtoStatic_8cpp.html" target="_top" xlink:title="/home/dominik/uni/MoonState\l/src/helloBye2ProtoStatic.cpp">
<polygon fill="none" stroke="#000000" points="495,-67.5 495,-97.5 642,-97.5 642,-67.5 495,-67.5"/>
<text text-anchor="start" x="503" y="-85.5" font-family="Helvetica,sans-Serif" font-size="10.00" fill="#000000">/home/dominik/uni/MoonState</text>
<text text-anchor="middle" x="568.5" y="-74.5" font-family="Helvetica,sans-Serif" font-size="10.00" fill="#000000">/src/helloBye2ProtoStatic.cpp</text>
</a>
</g>
</g>
<!-- Node24&#45;&gt;Node28 -->
<g id="edge8" class="edge">
<title>Node24&#45;&gt;Node28</title>
<path fill="none" stroke="#191970" d="M450.0702,-130.5897C475.7755,-120.1518 507.2642,-107.3654 531.3093,-97.6017"/>
<polygon fill="#191970" stroke="#191970" points="448.4777,-127.4587 440.5292,-134.4639 451.1113,-133.9444 448.4777,-127.4587"/>
</g>
<!-- Node25&#45;&gt;Node26 -->
<g id="edge5" class="edge">
<title>Node25&#45;&gt;Node26</title>
<path fill="none" stroke="#191970" d="M296.8126,-64.4123C330.9292,-53.8298 373.5048,-40.6235 405.814,-30.6017"/>
<polygon fill="#191970" stroke="#191970" points="295.4888,-61.1583 286.9746,-67.4639 297.5626,-67.8441 295.4888,-61.1583"/>
</g>
<!-- Node27&#45;&gt;Node24 -->
<g id="edge7" class="edge">
<title>Node27&#45;&gt;Node24</title>
<path fill="none" stroke="#191970" d="M410.0584,-107.6135C410.4764,-116.5857 410.2105,-126.4156 409.2608,-134.2967"/>
<polygon fill="#191970" stroke="#191970" points="413.5469,-107.3291 409.2536,-97.6432 406.5696,-107.8924 413.5469,-107.3291"/>
</g>
<!-- Node30 -->
<g id="node10" class="node">
<title>Node30</title>
<g id="a_node10"><a xlink:href="helloBye3_8cpp.html" target="_top" xlink:title="/home/dominik/uni/MoonState\l/src/helloBye3.cpp">
<polygon fill="none" stroke="#000000" points="699,-67.5 699,-97.5 846,-97.5 846,-67.5 699,-67.5"/>
<text text-anchor="start" x="707" y="-85.5" font-family="Helvetica,sans-Serif" font-size="10.00" fill="#000000">/home/dominik/uni/MoonState</text>
<text text-anchor="middle" x="772.5" y="-74.5" font-family="Helvetica,sans-Serif" font-size="10.00" fill="#000000">/src/helloBye3.cpp</text>
</a>
</g>
</g>
<!-- Node29&#45;&gt;Node30 -->
<g id="edge10" class="edge">
<title>Node29&#45;&gt;Node30</title>
<path fill="none" stroke="#191970" d="M765.9384,-124.3179C765.5239,-115.3414 765.7933,-105.5143 766.7464,-97.6432"/>
<polygon fill="#191970" stroke="#191970" points="762.4504,-124.6087 766.7392,-134.2967 769.428,-124.0487 762.4504,-124.6087"/>
</g>
<!-- Node30&#45;&gt;Node29 -->
<g id="edge11" class="edge">
<title>Node30&#45;&gt;Node29</title>
<path fill="none" stroke="#191970" d="M779.0584,-107.6135C779.4764,-116.5857 779.2105,-126.4156 778.2608,-134.2967"/>
<polygon fill="#191970" stroke="#191970" points="782.5469,-107.3291 778.2536,-97.6432 775.5696,-107.8924 782.5469,-107.3291"/>
</g>
<!-- Node32 -->
<g id="node12" class="node">
<title>Node32</title>
<g id="a_node12"><a xlink:href="helloBye__C_8hpp.html" target="_top" xlink:title="/home/dominik/uni/MoonState\l/include/helloBye_C.hpp">
<polygon fill="none" stroke="#000000" points="864,-67.5 864,-97.5 1011,-97.5 1011,-67.5 864,-67.5"/>
<text text-anchor="start" x="872" y="-85.5" font-family="Helvetica,sans-Serif" font-size="10.00" fill="#000000">/home/dominik/uni/MoonState</text>
<text text-anchor="middle" x="937.5" y="-74.5" font-family="Helvetica,sans-Serif" font-size="10.00" fill="#000000">/include/helloBye_C.hpp</text>
</a>
</g>
</g>
<!-- Node31&#45;&gt;Node32 -->
<g id="edge13" class="edge">
<title>Node31&#45;&gt;Node32</title>
<path fill="none" stroke="#191970" d="M1055.9298,-130.5897C1030.2245,-120.1518 998.7358,-107.3654 974.6907,-97.6017"/>
<polygon fill="#191970" stroke="#191970" points="1054.8887,-133.9444 1065.4708,-134.4639 1057.5223,-127.4587 1054.8887,-133.9444"/>
</g>
<!-- Node34 -->
<g id="node14" class="node">
<title>Node34</title>
<g id="a_node14"><a xlink:href="helloByeProto_8cpp.html" target="_top" xlink:title="/home/dominik/uni/MoonState\l/src/helloByeProto.cpp">
<polygon fill="none" stroke="#000000" points="1029,-67.5 1029,-97.5 1176,-97.5 1176,-67.5 1029,-67.5"/>
<text text-anchor="start" x="1037" y="-85.5" font-family="Helvetica,sans-Serif" font-size="10.00" fill="#000000">/home/dominik/uni/MoonState</text>
<text text-anchor="middle" x="1102.5" y="-74.5" font-family="Helvetica,sans-Serif" font-size="10.00" fill="#000000">/src/helloByeProto.cpp</text>
</a>
</g>
</g>
<!-- Node31&#45;&gt;Node34 -->
<g id="edge15" class="edge">
<title>Node31&#45;&gt;Node34</title>
<path fill="none" stroke="#191970" d="M1095.9384,-124.3179C1095.5239,-115.3414 1095.7933,-105.5143 1096.7464,-97.6432"/>
<polygon fill="#191970" stroke="#191970" points="1092.4504,-124.6087 1096.7392,-134.2967 1099.428,-124.0487 1092.4504,-124.6087"/>
</g>
<!-- Node35 -->
<g id="node15" class="node">
<title>Node35</title>
<g id="a_node15"><a xlink:href="helloByeProtoStatic_8cpp.html" target="_top" xlink:title="/home/dominik/uni/MoonState\l/src/helloByeProtoStatic.cpp">
<polygon fill="none" stroke="#000000" points="1194,-67.5 1194,-97.5 1341,-97.5 1341,-67.5 1194,-67.5"/>
<text text-anchor="start" x="1202" y="-85.5" font-family="Helvetica,sans-Serif" font-size="10.00" fill="#000000">/home/dominik/uni/MoonState</text>
<text text-anchor="middle" x="1267.5" y="-74.5" font-family="Helvetica,sans-Serif" font-size="10.00" fill="#000000">/src/helloByeProtoStatic.cpp</text>
</a>
</g>
</g>
<!-- Node31&#45;&gt;Node35 -->
<g id="edge17" class="edge">
<title>Node31&#45;&gt;Node35</title>
<path fill="none" stroke="#191970" d="M1149.0702,-130.5897C1174.7755,-120.1518 1206.2642,-107.3654 1230.3093,-97.6017"/>
<polygon fill="#191970" stroke="#191970" points="1147.4777,-127.4587 1139.5292,-134.4639 1150.1113,-133.9444 1147.4777,-127.4587"/>
</g>
<!-- Node32&#45;&gt;Node33 -->
<g id="edge14" class="edge">
<title>Node32&#45;&gt;Node33</title>
<path fill="none" stroke="#191970" d="M995.8126,-64.4123C1029.9292,-53.8298 1072.5048,-40.6235 1104.814,-30.6017"/>
<polygon fill="#191970" stroke="#191970" points="994.4888,-61.1583 985.9746,-67.4639 996.5626,-67.8441 994.4888,-61.1583"/>
</g>
<!-- Node34&#45;&gt;Node31 -->
<g id="edge16" class="edge">
<title>Node34&#45;&gt;Node31</title>
<path fill="none" stroke="#191970" d="M1109.0584,-107.6135C1109.4764,-116.5857 1109.2105,-126.4156 1108.2608,-134.2967"/>
<polygon fill="#191970" stroke="#191970" points="1112.5469,-107.3291 1108.2536,-97.6432 1105.5696,-107.8924 1112.5469,-107.3291"/>
</g>
</g>
</svg>
