<?xml version="1.0" encoding="UTF-8" standalone="no"?>
<!DOCTYPE svg PUBLIC "-//W3C//DTD SVG 1.1//EN"
 "http://www.w3.org/Graphics/SVG/1.1/DTD/svg11.dtd">
<!-- Generated by graphviz version 2.38.0 (20140413.2041)
 -->
<!-- Title: /home/dominik/uni/MoonState/include/stateMachine.hpp Pages: 1 -->
<svg width="504pt" height="240pt"
 viewBox="0.00 0.00 503.59 240.00" xmlns="http://www.w3.org/2000/svg" xmlns:xlink="http://www.w3.org/1999/xlink">
<g id="graph0" class="graph" transform="scale(1 1) rotate(0) translate(4 236)">
<title>/home/dominik/uni/MoonState/include/stateMachine.hpp</title>
<!-- Node1 -->
<g id="node1" class="node"><title>Node1</title>
<polygon fill="#bfbfbf" stroke="black" points="298,-201.5 298,-231.5 445,-231.5 445,-201.5 298,-201.5"/>
<text text-anchor="start" x="306" y="-219.5" font-family="Helvetica,sans-Serif" font-size="10.00">/home/dominik/uni/MoonState</text>
<text text-anchor="middle" x="371.5" y="-208.5" font-family="Helvetica,sans-Serif" font-size="10.00">/include/stateMachine.hpp</text>
</g>
<!-- Node2 -->
<g id="node2" class="node"><title>Node2</title>
<g id="a_node2"><a xlink:href="helloByeProto_8hpp.html" target="_top" xlink:title="/home/dominik/uni/MoonState\l/include/helloByeProto.hpp">
<polygon fill="none" stroke="black" points="165,-134.5 165,-164.5 312,-164.5 312,-134.5 165,-134.5"/>
<text text-anchor="start" x="173" y="-152.5" font-family="Helvetica,sans-Serif" font-size="10.00">/home/dominik/uni/MoonState</text>
<text text-anchor="middle" x="238.5" y="-141.5" font-family="Helvetica,sans-Serif" font-size="10.00">/include/helloByeProto.hpp</text>
</a>
</g>
</g>
<!-- Node1&#45;&gt;Node2 -->
<g id="edge1" class="edge"><title>Node1&#45;&gt;Node2</title>
<path fill="none" stroke="midnightblue" d="M333.63,-196.992C312.549,-186.689 286.723,-174.068 267.303,-164.577"/>
<polygon fill="midnightblue" stroke="midnightblue" points="332.12,-200.15 342.641,-201.396 335.193,-193.86 332.12,-200.15"/>
</g>
<!-- Node4 -->
<g id="node4" class="node"><title>Node4</title>
<g id="a_node4"><a xlink:href="helloBye__C_8cpp.html" target="_top" xlink:title="/home/dominik/uni/MoonState\l/src/helloBye_C.cpp">
<polygon fill="none" stroke="black" points="216,-0.5 216,-30.5 363,-30.5 363,-0.5 216,-0.5"/>
<text text-anchor="start" x="224" y="-18.5" font-family="Helvetica,sans-Serif" font-size="10.00">/home/dominik/uni/MoonState</text>
<text text-anchor="middle" x="289.5" y="-7.5" font-family="Helvetica,sans-Serif" font-size="10.00">/src/helloBye_C.cpp</text>
</a>
</g>
</g>
<!-- Node1&#45;&gt;Node4 -->
<g id="edge7" class="edge"><title>Node1&#45;&gt;Node4</title>
<path fill="none" stroke="midnightblue" d="M405.506,-196.011C450.788,-167.588 521.245,-113.122 485.5,-67 470.298,-47.3843 412.202,-34.0408 363.174,-26.0198"/>
<polygon fill="midnightblue" stroke="midnightblue" points="403.517,-193.125 396.825,-201.339 407.179,-199.092 403.517,-193.125"/>
</g>
<!-- Node3 -->
<g id="node3" class="node"><title>Node3</title>
<g id="a_node3"><a xlink:href="helloBye__C_8hpp.html" target="_top" xlink:title="/home/dominik/uni/MoonState\l/include/helloBye_C.hpp">
<polygon fill="none" stroke="black" points="0,-67.5 0,-97.5 147,-97.5 147,-67.5 0,-67.5"/>
<text text-anchor="start" x="8" y="-85.5" font-family="Helvetica,sans-Serif" font-size="10.00">/home/dominik/uni/MoonState</text>
<text text-anchor="middle" x="73.5" y="-74.5" font-family="Helvetica,sans-Serif" font-size="10.00">/include/helloBye_C.hpp</text>
</a>
</g>
</g>
<!-- Node2&#45;&gt;Node3 -->
<g id="edge2" class="edge"><title>Node2&#45;&gt;Node3</title>
<path fill="none" stroke="midnightblue" d="M193.268,-130.682C166.806,-120.257 133.866,-107.281 109.233,-97.5765"/>
<polygon fill="midnightblue" stroke="midnightblue" points="192.111,-133.987 202.697,-134.396 194.676,-127.474 192.111,-133.987"/>
</g>
<!-- Node5 -->
<g id="node5" class="node"><title>Node5</title>
<g id="a_node5"><a xlink:href="helloByeProto_8cpp.html" target="_top" xlink:title="/home/dominik/uni/MoonState\l/src/helloByeProto.cpp">
<polygon fill="none" stroke="black" points="165,-67.5 165,-97.5 312,-97.5 312,-67.5 165,-67.5"/>
<text text-anchor="start" x="173" y="-85.5" font-family="Helvetica,sans-Serif" font-size="10.00">/home/dominik/uni/MoonState</text>
<text text-anchor="middle" x="238.5" y="-74.5" font-family="Helvetica,sans-Serif" font-size="10.00">/src/helloByeProto.cpp</text>
</a>
</g>
</g>
<!-- Node2&#45;&gt;Node5 -->
<g id="edge4" class="edge"><title>Node2&#45;&gt;Node5</title>
<path fill="none" stroke="midnightblue" d="M231.955,-124.403C231.505,-115.37 231.796,-105.408 232.825,-97.5765"/>
<polygon fill="midnightblue" stroke="midnightblue" points="228.47,-124.736 232.822,-134.396 235.444,-124.131 228.47,-124.736"/>
</g>
<!-- Node6 -->
<g id="node6" class="node"><title>Node6</title>
<g id="a_node6"><a xlink:href="helloByeProtoStatic_8cpp.html" target="_top" xlink:title="/home/dominik/uni/MoonState\l/src/helloByeProtoStatic.cpp">
<polygon fill="none" stroke="black" points="330,-67.5 330,-97.5 477,-97.5 477,-67.5 330,-67.5"/>
<text text-anchor="start" x="338" y="-85.5" font-family="Helvetica,sans-Serif" font-size="10.00">/home/dominik/uni/MoonState</text>
<text text-anchor="middle" x="403.5" y="-74.5" font-family="Helvetica,sans-Serif" font-size="10.00">/src/helloByeProtoStatic.cpp</text>
</a>
</g>
</g>
<!-- Node2&#45;&gt;Node6 -->
<g id="edge6" class="edge"><title>Node2&#45;&gt;Node6</title>
<path fill="none" stroke="midnightblue" d="M283.732,-130.682C310.194,-120.257 343.134,-107.281 367.767,-97.5765"/>
<polygon fill="midnightblue" stroke="midnightblue" points="282.324,-127.474 274.303,-134.396 284.889,-133.987 282.324,-127.474"/>
</g>
<!-- Node3&#45;&gt;Node4 -->
<g id="edge3" class="edge"><title>Node3&#45;&gt;Node4</title>
<path fill="none" stroke="midnightblue" d="M129.727,-64.5797C164.81,-54.0225 209.44,-40.5921 242.608,-30.6109"/>
<polygon fill="midnightblue" stroke="midnightblue" points="128.67,-61.2428 120.103,-67.476 130.687,-67.9458 128.67,-61.2428"/>
</g>
<!-- Node5&#45;&gt;Node2 -->
<g id="edge5" class="edge"><title>Node5&#45;&gt;Node2</title>
<path fill="none" stroke="midnightblue" d="M245.044,-107.565C245.495,-116.596 245.206,-126.56 244.178,-134.396"/>
<polygon fill="midnightblue" stroke="midnightblue" points="248.528,-107.236 244.175,-97.5765 241.555,-107.842 248.528,-107.236"/>
</g>
</g>
</svg>
