<?xml version="1.0" encoding="UTF-8" standalone="no"?>
<!DOCTYPE svg PUBLIC "-//W3C//DTD SVG 1.1//EN"
 "http://www.w3.org/Graphics/SVG/1.1/DTD/svg11.dtd">
<!-- Generated by graphviz version 2.38.0 (20140413.2041)
 -->
<!-- Title: /home/dominik/uni/MoonState/include/stateMachine.hpp Pages: 1 -->
<svg width="1135pt" height="151pt"
 viewBox="0.00 0.00 1135.00 151.00" xmlns="http://www.w3.org/2000/svg" xmlns:xlink="http://www.w3.org/1999/xlink">
<g id="graph0" class="graph" transform="scale(1 1) rotate(0) translate(4 147)">
<title>/home/dominik/uni/MoonState/include/stateMachine.hpp</title>
<!-- Node1 -->
<g id="node1" class="node"><title>Node1</title>
<polygon fill="#bfbfbf" stroke="black" points="480,-112.5 480,-142.5 627,-142.5 627,-112.5 480,-112.5"/>
<text text-anchor="start" x="488" y="-130.5" font-family="Helvetica,sans-Serif" font-size="10.00">/home/dominik/uni/MoonState</text>
<text text-anchor="middle" x="553.5" y="-119.5" font-family="Helvetica,sans-Serif" font-size="10.00">/include/stateMachine.hpp</text>
</g>
<!-- Node2 -->
<g id="node2" class="node"><title>Node2</title>
<polygon fill="none" stroke="#bfbfbf" points="0,-56.5 0,-75.5 49,-75.5 49,-56.5 0,-56.5"/>
<text text-anchor="middle" x="24.5" y="-63.5" font-family="Helvetica,sans-Serif" font-size="10.00">cassert</text>
</g>
<!-- Node1&#45;&gt;Node2 -->
<g id="edge1" class="edge"><title>Node1&#45;&gt;Node2</title>
<path fill="none" stroke="midnightblue" d="M479.609,-122.594C384.502,-116.757 214.104,-103.564 59.4444,-75.8852"/>
<polygon fill="midnightblue" stroke="midnightblue" points="59.7452,-72.3827 49.281,-74.0411 58.4954,-79.2703 59.7452,-72.3827"/>
</g>
<!-- Node3 -->
<g id="node3" class="node"><title>Node3</title>
<polygon fill="none" stroke="#bfbfbf" points="67.5,-56.5 67.5,-75.5 113.5,-75.5 113.5,-56.5 67.5,-56.5"/>
<text text-anchor="middle" x="90.5" y="-63.5" font-family="Helvetica,sans-Serif" font-size="10.00">chrono</text>
</g>
<!-- Node1&#45;&gt;Node3 -->
<g id="edge2" class="edge"><title>Node1&#45;&gt;Node3</title>
<path fill="none" stroke="midnightblue" d="M479.741,-121.412C395.666,-114.815 254.076,-101.284 123.961,-76.0148"/>
<polygon fill="midnightblue" stroke="midnightblue" points="124.304,-72.5152 113.816,-74.0158 122.951,-79.3831 124.304,-72.5152"/>
</g>
<!-- Node4 -->
<g id="node4" class="node"><title>Node4</title>
<polygon fill="none" stroke="#bfbfbf" points="611.5,-0.5 611.5,-19.5 657.5,-19.5 657.5,-0.5 611.5,-0.5"/>
<text text-anchor="middle" x="634.5" y="-7.5" font-family="Helvetica,sans-Serif" font-size="10.00">cstdint</text>
</g>
<!-- Node1&#45;&gt;Node4 -->
<g id="edge3" class="edge"><title>Node1&#45;&gt;Node4</title>
<path fill="none" stroke="midnightblue" d="M577.131,-112.355C590.175,-103.432 605.675,-90.8068 615.5,-76 624.743,-62.0705 629.579,-43.5625 632.053,-29.8592"/>
<polygon fill="midnightblue" stroke="midnightblue" points="635.557,-30.1006 633.621,-19.6843 628.639,-29.0349 635.557,-30.1006"/>
</g>
<!-- Node5 -->
<g id="node5" class="node"><title>Node5</title>
<polygon fill="none" stroke="#bfbfbf" points="223,-56.5 223,-75.5 282,-75.5 282,-56.5 223,-56.5"/>
<text text-anchor="middle" x="252.5" y="-63.5" font-family="Helvetica,sans-Serif" font-size="10.00">functional</text>
</g>
<!-- Node1&#45;&gt;Node5 -->
<g id="edge4" class="edge"><title>Node1&#45;&gt;Node5</title>
<path fill="none" stroke="midnightblue" d="M479.949,-113.063C429.718,-103.714 361.412,-90.6664 292.075,-76.0619"/>
<polygon fill="midnightblue" stroke="midnightblue" points="292.794,-72.6366 282.286,-73.9911 291.345,-79.4851 292.794,-72.6366"/>
</g>
<!-- Node6 -->
<g id="node6" class="node"><title>Node6</title>
<polygon fill="none" stroke="#bfbfbf" points="300.5,-56.5 300.5,-75.5 354.5,-75.5 354.5,-56.5 300.5,-56.5"/>
<text text-anchor="middle" x="327.5" y="-63.5" font-family="Helvetica,sans-Serif" font-size="10.00">iostream</text>
</g>
<!-- Node1&#45;&gt;Node6 -->
<g id="edge5" class="edge"><title>Node1&#45;&gt;Node6</title>
<path fill="none" stroke="midnightblue" d="M500.227,-112.475C458.478,-101.483 401.464,-86.4728 364.562,-76.7574"/>
<polygon fill="midnightblue" stroke="midnightblue" points="365.278,-73.3267 354.716,-74.1653 363.495,-80.096 365.278,-73.3267"/>
</g>
<!-- Node7 -->
<g id="node7" class="node"><title>Node7</title>
<polygon fill="none" stroke="#bfbfbf" points="372.5,-56.5 372.5,-75.5 412.5,-75.5 412.5,-56.5 372.5,-56.5"/>
<text text-anchor="middle" x="392.5" y="-63.5" font-family="Helvetica,sans-Serif" font-size="10.00">limits</text>
</g>
<!-- Node1&#45;&gt;Node7 -->
<g id="edge6" class="edge"><title>Node1&#45;&gt;Node7</title>
<path fill="none" stroke="midnightblue" d="M515.345,-112.399C486.816,-101.856 448.367,-87.6466 422.131,-77.9507"/>
<polygon fill="midnightblue" stroke="midnightblue" points="423.313,-74.6562 412.72,-74.4726 420.887,-81.2222 423.313,-74.6562"/>
</g>
<!-- Node8 -->
<g id="node8" class="node"><title>Node8</title>
<polygon fill="none" stroke="#bfbfbf" points="430.5,-56.5 430.5,-75.5 482.5,-75.5 482.5,-56.5 430.5,-56.5"/>
<text text-anchor="middle" x="456.5" y="-63.5" font-family="Helvetica,sans-Serif" font-size="10.00">memory</text>
</g>
<!-- Node1&#45;&gt;Node8 -->
<g id="edge7" class="edge"><title>Node1&#45;&gt;Node8</title>
<path fill="none" stroke="midnightblue" d="M530.512,-112.399C515.109,-102.951 494.907,-90.5589 479.501,-81.1089"/>
<polygon fill="midnightblue" stroke="midnightblue" points="480.969,-77.9031 470.614,-75.6578 477.308,-83.87 480.969,-77.9031"/>
</g>
<!-- Node9 -->
<g id="node9" class="node"><title>Node9</title>
<polygon fill="none" stroke="#bfbfbf" points="500.5,-56.5 500.5,-75.5 544.5,-75.5 544.5,-56.5 500.5,-56.5"/>
<text text-anchor="middle" x="522.5" y="-63.5" font-family="Helvetica,sans-Serif" font-size="10.00">mutex</text>
</g>
<!-- Node1&#45;&gt;Node9 -->
<g id="edge8" class="edge"><title>Node1&#45;&gt;Node9</title>
<path fill="none" stroke="midnightblue" d="M546.153,-112.399C541.835,-104.11 536.335,-93.5542 531.726,-84.7077"/>
<polygon fill="midnightblue" stroke="midnightblue" points="534.735,-82.9091 527.011,-75.6578 528.527,-86.1435 534.735,-82.9091"/>
</g>
<!-- Node10 -->
<g id="node10" class="node"><title>Node10</title>
<polygon fill="none" stroke="#bfbfbf" points="563,-56.5 563,-75.5 606,-75.5 606,-56.5 563,-56.5"/>
<text text-anchor="middle" x="584.5" y="-63.5" font-family="Helvetica,sans-Serif" font-size="10.00">queue</text>
</g>
<!-- Node1&#45;&gt;Node10 -->
<g id="edge9" class="edge"><title>Node1&#45;&gt;Node10</title>
<path fill="none" stroke="midnightblue" d="M560.847,-112.399C565.165,-104.11 570.665,-93.5542 575.274,-84.7077"/>
<polygon fill="midnightblue" stroke="midnightblue" points="578.473,-86.1435 579.989,-75.6578 572.265,-82.9091 578.473,-86.1435"/>
</g>
<!-- Node11 -->
<g id="node11" class="node"><title>Node11</title>
<polygon fill="none" stroke="#bfbfbf" points="901,-0.5 901,-19.5 960,-19.5 960,-0.5 901,-0.5"/>
<text text-anchor="middle" x="930.5" y="-7.5" font-family="Helvetica,sans-Serif" font-size="10.00">stdexcept</text>
</g>
<!-- Node1&#45;&gt;Node11 -->
<g id="edge10" class="edge"><title>Node1&#45;&gt;Node11</title>
<path fill="none" stroke="midnightblue" d="M627.117,-124.778C718.045,-121.189 865.835,-110.123 907.5,-76 921.227,-64.7584 926.768,-44.745 929.002,-29.8856"/>
<polygon fill="midnightblue" stroke="midnightblue" points="932.501,-30.0873 930.145,-19.7577 925.545,-29.3018 932.501,-30.0873"/>
</g>
<!-- Node12 -->
<g id="node12" class="node"><title>Node12</title>
<polygon fill="none" stroke="#bfbfbf" points="663,-56.5 663,-75.5 746,-75.5 746,-56.5 663,-56.5"/>
<text text-anchor="middle" x="704.5" y="-63.5" font-family="Helvetica,sans-Serif" font-size="10.00">unordered_map</text>
</g>
<!-- Node1&#45;&gt;Node12 -->
<g id="edge11" class="edge"><title>Node1&#45;&gt;Node12</title>
<path fill="none" stroke="midnightblue" d="M589.285,-112.399C614.733,-102.372 648.597,-89.028 673.018,-79.405"/>
<polygon fill="midnightblue" stroke="midnightblue" points="674.508,-82.5802 682.528,-75.6578 671.941,-76.0676 674.508,-82.5802"/>
</g>
<!-- Node13 -->
<g id="node13" class="node"><title>Node13</title>
<polygon fill="none" stroke="#bfbfbf" points="764.5,-56.5 764.5,-75.5 808.5,-75.5 808.5,-56.5 764.5,-56.5"/>
<text text-anchor="middle" x="786.5" y="-63.5" font-family="Helvetica,sans-Serif" font-size="10.00">vector</text>
</g>
<!-- Node1&#45;&gt;Node13 -->
<g id="edge12" class="edge"><title>Node1&#45;&gt;Node13</title>
<path fill="none" stroke="midnightblue" d="M611.991,-112.493C650.036,-103.241 700.952,-90.5935 754.208,-76.2809"/>
<polygon fill="midnightblue" stroke="midnightblue" points="755.435,-79.5751 764.177,-73.5894 753.61,-72.817 755.435,-79.5751"/>
</g>
<!-- Node14 -->
<g id="node14" class="node"><title>Node14</title>
<g id="a_node14"><a xlink:href="bufArray_8hpp.html" target="_top" xlink:title="bufArray.hpp">
<polygon fill="none" stroke="black" points="827,-56.5 827,-75.5 898,-75.5 898,-56.5 827,-56.5"/>
<text text-anchor="middle" x="862.5" y="-63.5" font-family="Helvetica,sans-Serif" font-size="10.00">bufArray.hpp</text>
</a>
</g>
</g>
<!-- Node1&#45;&gt;Node14 -->
<g id="edge13" class="edge"><title>Node1&#45;&gt;Node14</title>
<path fill="none" stroke="midnightblue" d="M627.216,-112.57C677.801,-102.972 746.745,-89.8117 816.759,-76.1327"/>
<polygon fill="midnightblue" stroke="midnightblue" points="817.502,-79.5539 826.644,-74.1994 816.158,-72.684 817.502,-79.5539"/>
</g>
<!-- Node17 -->
<g id="node17" class="node"><title>Node17</title>
<g id="a_node17"><a xlink:href="common_8hpp.html" target="_top" xlink:title="common.hpp">
<polygon fill="none" stroke="black" points="132,-56.5 132,-75.5 205,-75.5 205,-56.5 132,-56.5"/>
<text text-anchor="middle" x="168.5" y="-63.5" font-family="Helvetica,sans-Serif" font-size="10.00">common.hpp</text>
</a>
</g>
</g>
<!-- Node1&#45;&gt;Node17 -->
<g id="edge17" class="edge"><title>Node1&#45;&gt;Node17</title>
<path fill="none" stroke="midnightblue" d="M479.71,-116.623C413.016,-107.448 311.905,-92.9248 215.25,-76.2436"/>
<polygon fill="midnightblue" stroke="midnightblue" points="215.76,-72.7799 205.309,-74.5174 214.563,-79.6767 215.76,-72.7799"/>
</g>
<!-- Node18 -->
<g id="node18" class="node"><title>Node18</title>
<g id="a_node18"><a xlink:href="exceptions_8hpp.html" target="_top" xlink:title="exceptions.hpp">
<polygon fill="none" stroke="black" points="955,-56.5 955,-75.5 1038,-75.5 1038,-56.5 955,-56.5"/>
<text text-anchor="middle" x="996.5" y="-63.5" font-family="Helvetica,sans-Serif" font-size="10.00">exceptions.hpp</text>
</a>
</g>
</g>
<!-- Node1&#45;&gt;Node18 -->
<g id="edge19" class="edge"><title>Node1&#45;&gt;Node18</title>
<path fill="none" stroke="midnightblue" d="M627.06,-117.559C704.977,-107.934 831.543,-91.8609 940.5,-76 941.962,-75.7872 943.444,-75.5685 944.94,-75.3452"/>
<polygon fill="midnightblue" stroke="midnightblue" points="945.573,-78.7892 954.931,-73.821 944.518,-71.8693 945.573,-78.7892"/>
</g>
<!-- Node20 -->
<g id="node20" class="node"><title>Node20</title>
<g id="a_node20"><a xlink:href="spinlock_8hpp.html" target="_top" xlink:title="spinlock.hpp">
<polygon fill="none" stroke="black" points="1056,-56.5 1056,-75.5 1127,-75.5 1127,-56.5 1056,-56.5"/>
<text text-anchor="middle" x="1091.5" y="-63.5" font-family="Helvetica,sans-Serif" font-size="10.00">spinlock.hpp</text>
</a>
</g>
</g>
<!-- Node1&#45;&gt;Node20 -->
<g id="edge22" class="edge"><title>Node1&#45;&gt;Node20</title>
<path fill="none" stroke="midnightblue" d="M627.026,-121.29C721.71,-114.065 891.513,-99.3679 1045.42,-76.1997"/>
<polygon fill="midnightblue" stroke="midnightblue" points="1046.17,-79.6254 1055.53,-74.6614 1045.12,-72.705 1046.17,-79.6254"/>
</g>
<!-- Node14&#45;&gt;Node4 -->
<g id="edge14" class="edge"><title>Node14&#45;&gt;Node4</title>
<path fill="none" stroke="midnightblue" d="M826.875,-56.5625C783.255,-46.2313 709.962,-28.8725 667.55,-18.8275"/>
<polygon fill="midnightblue" stroke="midnightblue" points="668.26,-15.399 657.722,-16.5001 666.647,-22.2106 668.26,-15.399"/>
</g>
<!-- Node15 -->
<g id="node15" class="node"><title>Node15</title>
<polygon fill="none" stroke="#bfbfbf" points="777,-0.5 777,-19.5 824,-19.5 824,-0.5 777,-0.5"/>
<text text-anchor="middle" x="800.5" y="-7.5" font-family="Helvetica,sans-Serif" font-size="10.00">iterator</text>
</g>
<!-- Node14&#45;&gt;Node15 -->
<g id="edge15" class="edge"><title>Node14&#45;&gt;Node15</title>
<path fill="none" stroke="midnightblue" d="M852.539,-56.324C843.373,-48.3414 829.563,-36.3128 818.472,-26.6529"/>
<polygon fill="midnightblue" stroke="midnightblue" points="820.482,-23.7624 810.643,-19.8339 815.885,-29.041 820.482,-23.7624"/>
</g>
<!-- Node16 -->
<g id="node16" class="node"><title>Node16</title>
<polygon fill="none" stroke="#bfbfbf" points="842.5,-0.5 842.5,-19.5 882.5,-19.5 882.5,-0.5 842.5,-0.5"/>
<text text-anchor="middle" x="862.5" y="-7.5" font-family="Helvetica,sans-Serif" font-size="10.00">utility</text>
</g>
<!-- Node14&#45;&gt;Node16 -->
<g id="edge16" class="edge"><title>Node14&#45;&gt;Node16</title>
<path fill="none" stroke="midnightblue" d="M862.5,-56.083C862.5,-49.0059 862.5,-38.8611 862.5,-29.9865"/>
<polygon fill="midnightblue" stroke="midnightblue" points="866,-29.751 862.5,-19.7511 859,-29.7511 866,-29.751"/>
</g>
<!-- Node17&#45;&gt;Node4 -->
<g id="edge18" class="edge"><title>Node17&#45;&gt;Node4</title>
<path fill="none" stroke="midnightblue" d="M205.289,-57.3591C208.062,-56.8698 210.822,-56.41 213.5,-56 356.907,-34.0415 529.429,-19.1939 600.932,-13.5447"/>
<polygon fill="midnightblue" stroke="midnightblue" points="601.431,-17.0165 611.128,-12.7477 600.885,-10.0378 601.431,-17.0165"/>
</g>
<!-- Node18&#45;&gt;Node11 -->
<g id="edge21" class="edge"><title>Node18&#45;&gt;Node11</title>
<path fill="none" stroke="midnightblue" d="M985.896,-56.324C976.044,-48.2631 961.149,-36.0765 949.285,-26.3695"/>
<polygon fill="midnightblue" stroke="midnightblue" points="951.253,-23.4575 941.297,-19.8339 946.82,-28.8752 951.253,-23.4575"/>
</g>
<!-- Node19 -->
<g id="node19" class="node"><title>Node19</title>
<polygon fill="none" stroke="#bfbfbf" points="978,-0.5 978,-19.5 1037,-19.5 1037,-0.5 978,-0.5"/>
<text text-anchor="middle" x="1007.5" y="-7.5" font-family="Helvetica,sans-Serif" font-size="10.00">exception</text>
</g>
<!-- Node18&#45;&gt;Node19 -->
<g id="edge20" class="edge"><title>Node18&#45;&gt;Node19</title>
<path fill="none" stroke="midnightblue" d="M998.316,-56.083C999.774,-48.9272 1001.87,-38.6353 1003.69,-29.6911"/>
<polygon fill="midnightblue" stroke="midnightblue" points="1007.15,-30.2485 1005.72,-19.7511 1000.29,-28.8512 1007.15,-30.2485"/>
</g>
<!-- Node21 -->
<g id="node21" class="node"><title>Node21</title>
<polygon fill="none" stroke="#bfbfbf" points="1068.5,-0.5 1068.5,-19.5 1114.5,-19.5 1114.5,-0.5 1068.5,-0.5"/>
<text text-anchor="middle" x="1091.5" y="-7.5" font-family="Helvetica,sans-Serif" font-size="10.00">atomic</text>
</g>
<!-- Node20&#45;&gt;Node21 -->
<g id="edge23" class="edge"><title>Node20&#45;&gt;Node21</title>
<path fill="none" stroke="midnightblue" d="M1091.5,-56.083C1091.5,-49.0059 1091.5,-38.8611 1091.5,-29.9865"/>
<polygon fill="midnightblue" stroke="midnightblue" points="1095,-29.751 1091.5,-19.7511 1088,-29.7511 1095,-29.751"/>
</g>
</g>
</svg>
