<?xml version="1.0" encoding="UTF-8" standalone="no"?>
<!DOCTYPE svg PUBLIC "-//W3C//DTD SVG 1.1//EN"
 "http://www.w3.org/Graphics/SVG/1.1/DTD/svg11.dtd">
<!-- Generated by graphviz version 2.40.1 (20161225.0304)
 -->
<!-- Title: /home/dominik/uni/MoonState/include/stateMachine.hpp Pages: 1 -->
<svg width="1533pt" height="240pt"
 viewBox="0.00 0.00 1533.34 240.00" xmlns="http://www.w3.org/2000/svg" xmlns:xlink="http://www.w3.org/1999/xlink">
<g id="graph0" class="graph" transform="scale(1 1) rotate(0) translate(4 236)">
<title>/home/dominik/uni/MoonState/include/stateMachine.hpp</title>
<!-- Node21 -->
<g id="node1" class="node">
<title>Node21</title>
<polygon fill="#bfbfbf" stroke="#000000" points="699,-201.5 699,-231.5 846,-231.5 846,-201.5 699,-201.5"/>
<text text-anchor="start" x="707" y="-219.5" font-family="Helvetica,sans-Serif" font-size="10.00" fill="#000000">/home/dominik/uni/MoonState</text>
<text text-anchor="middle" x="772.5" y="-208.5" font-family="Helvetica,sans-Serif" font-size="10.00" fill="#000000">/include/stateMachine.hpp</text>
</g>
<!-- Node22 -->
<g id="node2" class="node">
<title>Node22</title>
<g id="a_node2"><a xlink:href="dtlsClient_8hpp.html" target="_top" xlink:title="/home/dominik/uni/MoonState\l/include/dtlsClient.hpp">
<polygon fill="none" stroke="#000000" points="83,-134.5 83,-164.5 230,-164.5 230,-134.5 83,-134.5"/>
<text text-anchor="start" x="91" y="-152.5" font-family="Helvetica,sans-Serif" font-size="10.00" fill="#000000">/home/dominik/uni/MoonState</text>
<text text-anchor="middle" x="156.5" y="-141.5" font-family="Helvetica,sans-Serif" font-size="10.00" fill="#000000">/include/dtlsClient.hpp</text>
</a>
</g>
</g>
<!-- Node21&#45;&gt;Node22 -->
<g id="edge1" class="edge">
<title>Node21&#45;&gt;Node22</title>
<path fill="none" stroke="#191970" d="M688.84,-207.4006C567.7529,-194.2304 345.5677,-170.0642 230.2769,-157.5244"/>
<polygon fill="#191970" stroke="#191970" points="688.488,-210.8829 698.8079,-208.4848 689.245,-203.9239 688.488,-210.8829"/>
</g>
<!-- Node24 -->
<g id="node4" class="node">
<title>Node24</title>
<g id="a_node4"><a xlink:href="helloBye2Proto_8hpp.html" target="_top" xlink:title="/home/dominik/uni/MoonState\l/include/helloBye2Proto.hpp">
<polygon fill="none" stroke="#000000" points="330,-134.5 330,-164.5 477,-164.5 477,-134.5 330,-134.5"/>
<text text-anchor="start" x="338" y="-152.5" font-family="Helvetica,sans-Serif" font-size="10.00" fill="#000000">/home/dominik/uni/MoonState</text>
<text text-anchor="middle" x="403.5" y="-141.5" font-family="Helvetica,sans-Serif" font-size="10.00" fill="#000000">/include/helloBye2Proto.hpp</text>
</a>
</g>
</g>
<!-- Node21&#45;&gt;Node24 -->
<g id="edge3" class="edge">
<title>Node21&#45;&gt;Node24</title>
<path fill="none" stroke="#191970" d="M688.6965,-201.2837C624.9971,-189.7176 538.2116,-173.9598 477.1579,-162.8742"/>
<polygon fill="#191970" stroke="#191970" points="688.2498,-204.7597 698.7142,-203.1026 689.5004,-197.8723 688.2498,-204.7597"/>
</g>
<!-- Node26 -->
<g id="node6" class="node">
<title>Node26</title>
<g id="a_node6"><a xlink:href="helloBye2__C_8cpp.html" target="_top" xlink:title="/home/dominik/uni/MoonState\l/src/helloBye2_C.cpp">
<polygon fill="none" stroke="#000000" points="381,-.5 381,-30.5 528,-30.5 528,-.5 381,-.5"/>
<text text-anchor="start" x="389" y="-18.5" font-family="Helvetica,sans-Serif" font-size="10.00" fill="#000000">/home/dominik/uni/MoonState</text>
<text text-anchor="middle" x="454.5" y="-7.5" font-family="Helvetica,sans-Serif" font-size="10.00" fill="#000000">/src/helloBye2_C.cpp</text>
</a>
</g>
</g>
<!-- Node21&#45;&gt;Node26 -->
<g id="edge21" class="edge">
<title>Node21&#45;&gt;Node26</title>
<path fill="none" stroke="#191970" d="M728.7053,-196.3284C714.7188,-188.1931 700.1277,-177.6922 689.5,-165 659.4046,-129.0584 685.6036,-98.0688 650.5,-67 632.1566,-50.765 575.777,-36.9543 528.1678,-27.734"/>
<polygon fill="#191970" stroke="#191970" points="727.316,-199.5595 737.7615,-201.3322 730.7013,-193.4325 727.316,-199.5595"/>
</g>
<!-- Node29 -->
<g id="node9" class="node">
<title>Node29</title>
<g id="a_node9"><a xlink:href="helloBye3_8hpp.html" target="_top" xlink:title="/home/dominik/uni/MoonState\l/include/helloBye3.hpp">
<polygon fill="none" stroke="#000000" points="699,-134.5 699,-164.5 846,-164.5 846,-134.5 699,-134.5"/>
<text text-anchor="start" x="707" y="-152.5" font-family="Helvetica,sans-Serif" font-size="10.00" fill="#000000">/home/dominik/uni/MoonState</text>
<text text-anchor="middle" x="772.5" y="-141.5" font-family="Helvetica,sans-Serif" font-size="10.00" fill="#000000">/include/helloBye3.hpp</text>
</a>
</g>
</g>
<!-- Node21&#45;&gt;Node29 -->
<g id="edge9" class="edge">
<title>Node21&#45;&gt;Node29</title>
<path fill="none" stroke="#191970" d="M772.5,-191.0249C772.5,-182.128 772.5,-172.4287 772.5,-164.6432"/>
<polygon fill="#191970" stroke="#191970" points="769.0001,-191.2966 772.5,-201.2967 776.0001,-191.2967 769.0001,-191.2966"/>
</g>
<!-- Node31 -->
<g id="node11" class="node">
<title>Node31</title>
<g id="a_node11"><a xlink:href="helloBye3MemPool_8hpp.html" target="_top" xlink:title="/home/dominik/uni/MoonState\l/include/helloBye3MemPool.hpp">
<polygon fill="none" stroke="#000000" points="864.5,-134.5 864.5,-164.5 1020.5,-164.5 1020.5,-134.5 864.5,-134.5"/>
<text text-anchor="start" x="872.5" y="-152.5" font-family="Helvetica,sans-Serif" font-size="10.00" fill="#000000">/home/dominik/uni/MoonState</text>
<text text-anchor="middle" x="942.5" y="-141.5" font-family="Helvetica,sans-Serif" font-size="10.00" fill="#000000">/include/helloBye3MemPool.hpp</text>
</a>
</g>
</g>
<!-- Node21&#45;&gt;Node31 -->
<g id="edge12" class="edge">
<title>Node21&#45;&gt;Node31</title>
<path fill="none" stroke="#191970" d="M820.1318,-197.7275C846.6796,-187.2645 879.2995,-174.4084 904.1823,-164.6017"/>
<polygon fill="#191970" stroke="#191970" points="818.6715,-194.5409 810.6513,-201.4639 821.2382,-201.0534 818.6715,-194.5409"/>
</g>
<!-- Node33 -->
<g id="node13" class="node">
<title>Node33</title>
<g id="a_node13"><a xlink:href="helloByeProto_8hpp.html" target="_top" xlink:title="/home/dominik/uni/MoonState\l/include/helloByeProto.hpp">
<polygon fill="none" stroke="#000000" points="1196,-134.5 1196,-164.5 1343,-164.5 1343,-134.5 1196,-134.5"/>
<text text-anchor="start" x="1204" y="-152.5" font-family="Helvetica,sans-Serif" font-size="10.00" fill="#000000">/home/dominik/uni/MoonState</text>
<text text-anchor="middle" x="1269.5" y="-141.5" font-family="Helvetica,sans-Serif" font-size="10.00" fill="#000000">/include/helloByeProto.hpp</text>
</a>
</g>
</g>
<!-- Node21&#45;&gt;Node33 -->
<g id="edge15" class="edge">
<title>Node21&#45;&gt;Node33</title>
<path fill="none" stroke="#191970" d="M856.2645,-205.2078C951.4289,-192.3788 1105.2467,-171.6428 1195.9508,-159.4151"/>
<polygon fill="#191970" stroke="#191970" points="855.5442,-201.7732 846.1015,-206.5779 856.4795,-208.7104 855.5442,-201.7732"/>
</g>
<!-- Node35 -->
<g id="node15" class="node">
<title>Node35</title>
<g id="a_node15"><a xlink:href="helloBye__C_8cpp.html" target="_top" xlink:title="/home/dominik/uni/MoonState\l/src/helloBye_C.cpp">
<polygon fill="none" stroke="#000000" points="1247,-.5 1247,-30.5 1394,-30.5 1394,-.5 1247,-.5"/>
<text text-anchor="start" x="1255" y="-18.5" font-family="Helvetica,sans-Serif" font-size="10.00" fill="#000000">/home/dominik/uni/MoonState</text>
<text text-anchor="middle" x="1320.5" y="-7.5" font-family="Helvetica,sans-Serif" font-size="10.00" fill="#000000">/src/helloBye_C.cpp</text>
</a>
</g>
</g>
<!-- Node21&#45;&gt;Node35 -->
<g id="edge22" class="edge">
<title>Node21&#45;&gt;Node35</title>
<path fill="none" stroke="#191970" d="M856.2867,-212.1256C993.6472,-204.4396 1260.6517,-187.1986 1352.5,-165 1429.4335,-146.4061 1473.298,-163.6558 1517.5,-98 1551.0464,-48.1715 1463.2467,-28.37 1394.2458,-20.5464"/>
<polygon fill="#191970" stroke="#191970" points="856.0132,-208.6353 846.2227,-212.6846 856.4014,-215.6246 856.0132,-208.6353"/>
</g>
<!-- Node23 -->
<g id="node3" class="node">
<title>Node23</title>
<g id="a_node3"><a xlink:href="dtlsClient_8cpp.html" target="_top" xlink:title="/home/dominik/uni/MoonState\l/src/dtlsClient.cpp">
<polygon fill="none" stroke="#000000" points="0,-67.5 0,-97.5 147,-97.5 147,-67.5 0,-67.5"/>
<text text-anchor="start" x="8" y="-85.5" font-family="Helvetica,sans-Serif" font-size="10.00" fill="#000000">/home/dominik/uni/MoonState</text>
<text text-anchor="middle" x="73.5" y="-74.5" font-family="Helvetica,sans-Serif" font-size="10.00" fill="#000000">/src/dtlsClient.cpp</text>
</a>
</g>
</g>
<!-- Node22&#45;&gt;Node23 -->
<g id="edge2" class="edge">
<title>Node22&#45;&gt;Node23</title>
<path fill="none" stroke="#191970" d="M129.5942,-127.7808C117.4012,-117.9383 103.2821,-106.541 92.2595,-97.6432"/>
<polygon fill="#191970" stroke="#191970" points="127.6864,-130.7389 137.666,-134.2967 132.0832,-125.292 127.6864,-130.7389"/>
</g>
<!-- Node25 -->
<g id="node5" class="node">
<title>Node25</title>
<g id="a_node5"><a xlink:href="helloBye2__C_8hpp.html" target="_top" xlink:title="/home/dominik/uni/MoonState\l/include/helloBye2_C.hpp">
<polygon fill="none" stroke="#000000" points="165,-67.5 165,-97.5 312,-97.5 312,-67.5 165,-67.5"/>
<text text-anchor="start" x="173" y="-85.5" font-family="Helvetica,sans-Serif" font-size="10.00" fill="#000000">/home/dominik/uni/MoonState</text>
<text text-anchor="middle" x="238.5" y="-74.5" font-family="Helvetica,sans-Serif" font-size="10.00" fill="#000000">/include/helloBye2_C.hpp</text>
</a>
</g>
</g>
<!-- Node24&#45;&gt;Node25 -->
<g id="edge4" class="edge">
<title>Node24&#45;&gt;Node25</title>
<path fill="none" stroke="#191970" d="M356.9298,-130.5897C331.2245,-120.1518 299.7358,-107.3654 275.6907,-97.6017"/>
<polygon fill="#191970" stroke="#191970" points="355.8887,-133.9444 366.4708,-134.4639 358.5223,-127.4587 355.8887,-133.9444"/>
</g>
<!-- Node27 -->
<g id="node7" class="node">
<title>Node27</title>
<g id="a_node7"><a xlink:href="helloBye2Proto_8cpp.html" target="_top" xlink:title="/home/dominik/uni/MoonState\l/src/helloBye2Proto.cpp">
<polygon fill="none" stroke="#000000" points="330,-67.5 330,-97.5 477,-97.5 477,-67.5 330,-67.5"/>
<text text-anchor="start" x="338" y="-85.5" font-family="Helvetica,sans-Serif" font-size="10.00" fill="#000000">/home/dominik/uni/MoonState</text>
<text text-anchor="middle" x="403.5" y="-74.5" font-family="Helvetica,sans-Serif" font-size="10.00" fill="#000000">/src/helloBye2Proto.cpp</text>
</a>
</g>
</g>
<!-- Node24&#45;&gt;Node27 -->
<g id="edge6" class="edge">
<title>Node24&#45;&gt;Node27</title>
<path fill="none" stroke="#191970" d="M396.9384,-124.3179C396.5239,-115.3414 396.7933,-105.5143 397.7464,-97.6432"/>
<polygon fill="#191970" stroke="#191970" points="393.4504,-124.6087 397.7392,-134.2967 400.428,-124.0487 393.4504,-124.6087"/>
</g>
<!-- Node28 -->
<g id="node8" class="node">
<title>Node28</title>
<g id="a_node8"><a xlink:href="helloBye2ProtoStatic_8cpp.html" target="_top" xlink:title="/home/dominik/uni/MoonState\l/src/helloBye2ProtoStatic.cpp">
<polygon fill="none" stroke="#000000" points="495,-67.5 495,-97.5 642,-97.5 642,-67.5 495,-67.5"/>
<text text-anchor="start" x="503" y="-85.5" font-family="Helvetica,sans-Serif" font-size="10.00" fill="#000000">/home/dominik/uni/MoonState</text>
<text text-anchor="middle" x="568.5" y="-74.5" font-family="Helvetica,sans-Serif" font-size="10.00" fill="#000000">/src/helloBye2ProtoStatic.cpp</text>
</a>
</g>
</g>
<!-- Node24&#45;&gt;Node28 -->
<g id="edge8" class="edge">
<title>Node24&#45;&gt;Node28</title>
<path fill="none" stroke="#191970" d="M450.0702,-130.5897C475.7755,-120.1518 507.2642,-107.3654 531.3093,-97.6017"/>
<polygon fill="#191970" stroke="#191970" points="448.4777,-127.4587 440.5292,-134.4639 451.1113,-133.9444 448.4777,-127.4587"/>
</g>
<!-- Node25&#45;&gt;Node26 -->
<g id="edge5" class="edge">
<title>Node25&#45;&gt;Node26</title>
<path fill="none" stroke="#191970" d="M296.8126,-64.4123C330.9292,-53.8298 373.5048,-40.6235 405.814,-30.6017"/>
<polygon fill="#191970" stroke="#191970" points="295.4888,-61.1583 286.9746,-67.4639 297.5626,-67.8441 295.4888,-61.1583"/>
</g>
<!-- Node27&#45;&gt;Node24 -->
<g id="edge7" class="edge">
<title>Node27&#45;&gt;Node24</title>
<path fill="none" stroke="#191970" d="M410.0584,-107.6135C410.4764,-116.5857 410.2105,-126.4156 409.2608,-134.2967"/>
<polygon fill="#191970" stroke="#191970" points="413.5469,-107.3291 409.2536,-97.6432 406.5696,-107.8924 413.5469,-107.3291"/>
</g>
<!-- Node30 -->
<g id="node10" class="node">
<title>Node30</title>
<g id="a_node10"><a xlink:href="helloBye3_8cpp.html" target="_top" xlink:title="/home/dominik/uni/MoonState\l/src/helloBye3.cpp">
<polygon fill="none" stroke="#000000" points="699,-67.5 699,-97.5 846,-97.5 846,-67.5 699,-67.5"/>
<text text-anchor="start" x="707" y="-85.5" font-family="Helvetica,sans-Serif" font-size="10.00" fill="#000000">/home/dominik/uni/MoonState</text>
<text text-anchor="middle" x="772.5" y="-74.5" font-family="Helvetica,sans-Serif" font-size="10.00" fill="#000000">/src/helloBye3.cpp</text>
</a>
</g>
</g>
<!-- Node29&#45;&gt;Node30 -->
<g id="edge10" class="edge">
<title>Node29&#45;&gt;Node30</title>
<path fill="none" stroke="#191970" d="M765.9384,-124.3179C765.5239,-115.3414 765.7933,-105.5143 766.7464,-97.6432"/>
<polygon fill="#191970" stroke="#191970" points="762.4504,-124.6087 766.7392,-134.2967 769.428,-124.0487 762.4504,-124.6087"/>
</g>
<!-- Node30&#45;&gt;Node29 -->
<g id="edge11" class="edge">
<title>Node30&#45;&gt;Node29</title>
<path fill="none" stroke="#191970" d="M779.0584,-107.6135C779.4764,-116.5857 779.2105,-126.4156 778.2608,-134.2967"/>
<polygon fill="#191970" stroke="#191970" points="782.5469,-107.3291 778.2536,-97.6432 775.5696,-107.8924 782.5469,-107.3291"/>
</g>
<!-- Node32 -->
<g id="node12" class="node">
<title>Node32</title>
<g id="a_node12"><a xlink:href="helloBye3MemPool_8cpp.html" target="_top" xlink:title="/home/dominik/uni/MoonState\l/src/helloBye3MemPool.cpp">
<polygon fill="none" stroke="#000000" points="866,-67.5 866,-97.5 1013,-97.5 1013,-67.5 866,-67.5"/>
<text text-anchor="start" x="874" y="-85.5" font-family="Helvetica,sans-Serif" font-size="10.00" fill="#000000">/home/dominik/uni/MoonState</text>
<text text-anchor="middle" x="939.5" y="-74.5" font-family="Helvetica,sans-Serif" font-size="10.00" fill="#000000">/src/helloBye3MemPool.cpp</text>
</a>
</g>
</g>
<!-- Node31&#45;&gt;Node32 -->
<g id="edge13" class="edge">
<title>Node31&#45;&gt;Node32</title>
<path fill="none" stroke="#191970" d="M934.8109,-124.3179C933.9944,-115.3414 933.8238,-105.5143 934.4245,-97.6432"/>
<polygon fill="#191970" stroke="#191970" points="931.3448,-124.8081 936.0584,-134.2967 938.2908,-123.9397 931.3448,-124.8081"/>
</g>
<!-- Node32&#45;&gt;Node31 -->
<g id="edge14" class="edge">
<title>Node32&#45;&gt;Node31</title>
<path fill="none" stroke="#191970" d="M947.1829,-107.6135C948.0026,-116.5857 948.1769,-126.4156 947.5801,-134.2967"/>
<polygon fill="#191970" stroke="#191970" points="950.6497,-107.1295 945.9316,-97.6432 943.7041,-108.0012 950.6497,-107.1295"/>
</g>
<!-- Node34 -->
<g id="node14" class="node">
<title>Node34</title>
<g id="a_node14"><a xlink:href="helloBye__C_8hpp.html" target="_top" xlink:title="/home/dominik/uni/MoonState\l/include/helloBye_C.hpp">
<polygon fill="none" stroke="#000000" points="1031,-67.5 1031,-97.5 1178,-97.5 1178,-67.5 1031,-67.5"/>
<text text-anchor="start" x="1039" y="-85.5" font-family="Helvetica,sans-Serif" font-size="10.00" fill="#000000">/home/dominik/uni/MoonState</text>
<text text-anchor="middle" x="1104.5" y="-74.5" font-family="Helvetica,sans-Serif" font-size="10.00" fill="#000000">/include/helloBye_C.hpp</text>
</a>
</g>
</g>
<!-- Node33&#45;&gt;Node34 -->
<g id="edge16" class="edge">
<title>Node33&#45;&gt;Node34</title>
<path fill="none" stroke="#191970" d="M1222.9298,-130.5897C1197.2245,-120.1518 1165.7358,-107.3654 1141.6907,-97.6017"/>
<polygon fill="#191970" stroke="#191970" points="1221.8887,-133.9444 1232.4708,-134.4639 1224.5223,-127.4587 1221.8887,-133.9444"/>
</g>
<!-- Node36 -->
<g id="node16" class="node">
<title>Node36</title>
<g id="a_node16"><a xlink:href="helloByeProto_8cpp.html" target="_top" xlink:title="/home/dominik/uni/MoonState\l/src/helloByeProto.cpp">
<polygon fill="none" stroke="#000000" points="1196,-67.5 1196,-97.5 1343,-97.5 1343,-67.5 1196,-67.5"/>
<text text-anchor="start" x="1204" y="-85.5" font-family="Helvetica,sans-Serif" font-size="10.00" fill="#000000">/home/dominik/uni/MoonState</text>
<text text-anchor="middle" x="1269.5" y="-74.5" font-family="Helvetica,sans-Serif" font-size="10.00" fill="#000000">/src/helloByeProto.cpp</text>
</a>
</g>
</g>
<!-- Node33&#45;&gt;Node36 -->
<g id="edge18" class="edge">
<title>Node33&#45;&gt;Node36</title>
<path fill="none" stroke="#191970" d="M1262.9384,-124.3179C1262.5239,-115.3414 1262.7933,-105.5143 1263.7464,-97.6432"/>
<polygon fill="#191970" stroke="#191970" points="1259.4504,-124.6087 1263.7392,-134.2967 1266.428,-124.0487 1259.4504,-124.6087"/>
</g>
<!-- Node37 -->
<g id="node17" class="node">
<title>Node37</title>
<g id="a_node17"><a xlink:href="helloByeProtoStatic_8cpp.html" target="_top" xlink:title="/home/dominik/uni/MoonState\l/src/helloByeProtoStatic.cpp">
<polygon fill="none" stroke="#000000" points="1361,-67.5 1361,-97.5 1508,-97.5 1508,-67.5 1361,-67.5"/>
<text text-anchor="start" x="1369" y="-85.5" font-family="Helvetica,sans-Serif" font-size="10.00" fill="#000000">/home/dominik/uni/MoonState</text>
<text text-anchor="middle" x="1434.5" y="-74.5" font-family="Helvetica,sans-Serif" font-size="10.00" fill="#000000">/src/helloByeProtoStatic.cpp</text>
</a>
</g>
</g>
<!-- Node33&#45;&gt;Node37 -->
<g id="edge20" class="edge">
<title>Node33&#45;&gt;Node37</title>
<path fill="none" stroke="#191970" d="M1316.0702,-130.5897C1341.7755,-120.1518 1373.2642,-107.3654 1397.3093,-97.6017"/>
<polygon fill="#191970" stroke="#191970" points="1314.4777,-127.4587 1306.5292,-134.4639 1317.1113,-133.9444 1314.4777,-127.4587"/>
</g>
<!-- Node34&#45;&gt;Node35 -->
<g id="edge17" class="edge">
<title>Node34&#45;&gt;Node35</title>
<path fill="none" stroke="#191970" d="M1162.8126,-64.4123C1196.9292,-53.8298 1239.5048,-40.6235 1271.814,-30.6017"/>
<polygon fill="#191970" stroke="#191970" points="1161.4888,-61.1583 1152.9746,-67.4639 1163.5626,-67.8441 1161.4888,-61.1583"/>
</g>
<!-- Node36&#45;&gt;Node33 -->
<g id="edge19" class="edge">
<title>Node36&#45;&gt;Node33</title>
<path fill="none" stroke="#191970" d="M1276.0584,-107.6135C1276.4764,-116.5857 1276.2105,-126.4156 1275.2608,-134.2967"/>
<polygon fill="#191970" stroke="#191970" points="1279.5469,-107.3291 1275.2536,-97.6432 1272.5696,-107.8924 1279.5469,-107.3291"/>
</g>
</g>
</svg>
