<?xml version="1.0" encoding="UTF-8" standalone="no"?>
<!DOCTYPE svg PUBLIC "-//W3C//DTD SVG 1.1//EN"
 "http://www.w3.org/Graphics/SVG/1.1/DTD/svg11.dtd">
<!-- Generated by graphviz version 2.38.0 (20140413.2041)
 -->
<!-- Title: /home/dominik/uni/MoonState/include/stateMachine.hpp Pages: 1 -->
<svg width="1077pt" height="151pt"
 viewBox="0.00 0.00 1077.00 151.00" xmlns="http://www.w3.org/2000/svg" xmlns:xlink="http://www.w3.org/1999/xlink">
<g id="graph0" class="graph" transform="scale(1 1) rotate(0) translate(4 147)">
<title>/home/dominik/uni/MoonState/include/stateMachine.hpp</title>
<!-- Node1 -->
<g id="node1" class="node"><title>Node1</title>
<polygon fill="#bfbfbf" stroke="black" points="416,-112.5 416,-142.5 563,-142.5 563,-112.5 416,-112.5"/>
<text text-anchor="start" x="424" y="-130.5" font-family="Helvetica,sans-Serif" font-size="10.00">/home/dominik/uni/MoonState</text>
<text text-anchor="middle" x="489.5" y="-119.5" font-family="Helvetica,sans-Serif" font-size="10.00">/include/stateMachine.hpp</text>
</g>
<!-- Node2 -->
<g id="node2" class="node"><title>Node2</title>
<polygon fill="none" stroke="#bfbfbf" points="0,-0.5 0,-19.5 49,-19.5 49,-0.5 0,-0.5"/>
<text text-anchor="middle" x="24.5" y="-7.5" font-family="Helvetica,sans-Serif" font-size="10.00">cassert</text>
</g>
<!-- Node1&#45;&gt;Node2 -->
<g id="edge1" class="edge"><title>Node1&#45;&gt;Node2</title>
<path fill="none" stroke="midnightblue" d="M415.748,-126.346C307.318,-124.738 111.648,-116.153 55.5,-76 40.279,-65.115 32.2596,-44.7395 28.2238,-29.6916"/>
<polygon fill="midnightblue" stroke="midnightblue" points="31.618,-28.8347 25.9431,-19.8878 24.8,-30.4208 31.618,-28.8347"/>
</g>
<!-- Node3 -->
<g id="node3" class="node"><title>Node3</title>
<polygon fill="none" stroke="#bfbfbf" points="431.5,-56.5 431.5,-75.5 477.5,-75.5 477.5,-56.5 431.5,-56.5"/>
<text text-anchor="middle" x="454.5" y="-63.5" font-family="Helvetica,sans-Serif" font-size="10.00">chrono</text>
</g>
<!-- Node1&#45;&gt;Node3 -->
<g id="edge2" class="edge"><title>Node1&#45;&gt;Node3</title>
<path fill="none" stroke="midnightblue" d="M481.205,-112.399C476.277,-104.021 469.986,-93.3269 464.749,-84.4229"/>
<polygon fill="midnightblue" stroke="midnightblue" points="467.68,-82.5025 459.593,-75.6578 461.646,-86.0517 467.68,-82.5025"/>
</g>
<!-- Node4 -->
<g id="node4" class="node"><title>Node4</title>
<polygon fill="none" stroke="#bfbfbf" points="86.5,-0.5 86.5,-19.5 132.5,-19.5 132.5,-0.5 86.5,-0.5"/>
<text text-anchor="middle" x="109.5" y="-7.5" font-family="Helvetica,sans-Serif" font-size="10.00">cstdint</text>
</g>
<!-- Node1&#45;&gt;Node4 -->
<g id="edge3" class="edge"><title>Node1&#45;&gt;Node4</title>
<path fill="none" stroke="midnightblue" d="M415.59,-122.994C299.81,-116.737 86.4398,-101.82 63.5,-76 49.2174,-59.9243 69.2737,-39.387 87.2127,-25.7448"/>
<polygon fill="midnightblue" stroke="midnightblue" points="89.6125,-28.3302 95.6893,-19.6513 85.5266,-22.6464 89.6125,-28.3302"/>
</g>
<!-- Node5 -->
<g id="node5" class="node"><title>Node5</title>
<polygon fill="none" stroke="#bfbfbf" points="496,-56.5 496,-75.5 555,-75.5 555,-56.5 496,-56.5"/>
<text text-anchor="middle" x="525.5" y="-63.5" font-family="Helvetica,sans-Serif" font-size="10.00">functional</text>
</g>
<!-- Node1&#45;&gt;Node5 -->
<g id="edge4" class="edge"><title>Node1&#45;&gt;Node5</title>
<path fill="none" stroke="midnightblue" d="M498.031,-112.399C503.101,-104.021 509.571,-93.3269 514.958,-84.4229"/>
<polygon fill="midnightblue" stroke="midnightblue" points="518.08,-86.0255 520.262,-75.6578 512.09,-82.4018 518.08,-86.0255"/>
</g>
<!-- Node6 -->
<g id="node6" class="node"><title>Node6</title>
<polygon fill="none" stroke="#bfbfbf" points="573.5,-56.5 573.5,-75.5 627.5,-75.5 627.5,-56.5 573.5,-56.5"/>
<text text-anchor="middle" x="600.5" y="-63.5" font-family="Helvetica,sans-Serif" font-size="10.00">iostream</text>
</g>
<!-- Node1&#45;&gt;Node6 -->
<g id="edge5" class="edge"><title>Node1&#45;&gt;Node6</title>
<path fill="none" stroke="midnightblue" d="M515.805,-112.399C533.764,-102.773 557.424,-90.0902 575.171,-80.5772"/>
<polygon fill="midnightblue" stroke="midnightblue" points="577.188,-83.467 584.349,-75.6578 573.881,-77.2975 577.188,-83.467"/>
</g>
<!-- Node7 -->
<g id="node7" class="node"><title>Node7</title>
<polygon fill="none" stroke="#bfbfbf" points="645.5,-56.5 645.5,-75.5 685.5,-75.5 685.5,-56.5 645.5,-56.5"/>
<text text-anchor="middle" x="665.5" y="-63.5" font-family="Helvetica,sans-Serif" font-size="10.00">limits</text>
</g>
<!-- Node1&#45;&gt;Node7 -->
<g id="edge6" class="edge"><title>Node1&#45;&gt;Node7</title>
<path fill="none" stroke="midnightblue" d="M531.21,-112.399C563.399,-101.517 607.14,-86.7296 635.831,-77.0302"/>
<polygon fill="midnightblue" stroke="midnightblue" points="636.956,-80.3447 645.308,-73.8263 634.714,-73.7133 636.956,-80.3447"/>
</g>
<!-- Node8 -->
<g id="node8" class="node"><title>Node8</title>
<polygon fill="none" stroke="#bfbfbf" points="703.5,-56.5 703.5,-75.5 755.5,-75.5 755.5,-56.5 703.5,-56.5"/>
<text text-anchor="middle" x="729.5" y="-63.5" font-family="Helvetica,sans-Serif" font-size="10.00">memory</text>
</g>
<!-- Node1&#45;&gt;Node8 -->
<g id="edge7" class="edge"><title>Node1&#45;&gt;Node8</title>
<path fill="none" stroke="midnightblue" d="M547.417,-112.399C586.17,-102.925 638.572,-90.0418 693.261,-76.2953"/>
<polygon fill="midnightblue" stroke="midnightblue" points="694.291,-79.6453 703.134,-73.8104 692.582,-72.857 694.291,-79.6453"/>
</g>
<!-- Node9 -->
<g id="node9" class="node"><title>Node9</title>
<polygon fill="none" stroke="#bfbfbf" points="773.5,-56.5 773.5,-75.5 817.5,-75.5 817.5,-56.5 773.5,-56.5"/>
<text text-anchor="middle" x="795.5" y="-63.5" font-family="Helvetica,sans-Serif" font-size="10.00">mutex</text>
</g>
<!-- Node1&#45;&gt;Node9 -->
<g id="edge8" class="edge"><title>Node1&#45;&gt;Node9</title>
<path fill="none" stroke="midnightblue" d="M563.163,-115.048C616.394,-106.294 690.163,-93.1799 763.366,-76.0864"/>
<polygon fill="midnightblue" stroke="midnightblue" points="764.292,-79.464 773.22,-73.7599 762.684,-72.6513 764.292,-79.464"/>
</g>
<!-- Node10 -->
<g id="node10" class="node"><title>Node10</title>
<polygon fill="none" stroke="#bfbfbf" points="836,-56.5 836,-75.5 879,-75.5 879,-56.5 836,-56.5"/>
<text text-anchor="middle" x="857.5" y="-63.5" font-family="Helvetica,sans-Serif" font-size="10.00">queue</text>
</g>
<!-- Node1&#45;&gt;Node10 -->
<g id="edge9" class="edge"><title>Node1&#45;&gt;Node10</title>
<path fill="none" stroke="midnightblue" d="M563.316,-118.324C629.662,-110.317 729.859,-96.6022 826.023,-75.8318"/>
<polygon fill="midnightblue" stroke="midnightblue" points="826.894,-79.224 835.915,-73.6668 825.397,-72.3858 826.894,-79.224"/>
</g>
<!-- Node11 -->
<g id="node11" class="node"><title>Node11</title>
<polygon fill="none" stroke="#bfbfbf" points="272,-0.5 272,-19.5 331,-19.5 331,-0.5 272,-0.5"/>
<text text-anchor="middle" x="301.5" y="-7.5" font-family="Helvetica,sans-Serif" font-size="10.00">stdexcept</text>
</g>
<!-- Node1&#45;&gt;Node11 -->
<g id="edge10" class="edge"><title>Node1&#45;&gt;Node11</title>
<path fill="none" stroke="midnightblue" d="M415.62,-120.313C382.59,-113.923 345.542,-101.193 320.5,-76 308.466,-63.8939 303.971,-44.6125 302.334,-30.1884"/>
<polygon fill="midnightblue" stroke="midnightblue" points="305.799,-29.595 301.544,-19.8918 298.819,-30.1302 305.799,-29.595"/>
</g>
<!-- Node12 -->
<g id="node12" class="node"><title>Node12</title>
<polygon fill="none" stroke="#bfbfbf" points="897,-56.5 897,-75.5 980,-75.5 980,-56.5 897,-56.5"/>
<text text-anchor="middle" x="938.5" y="-63.5" font-family="Helvetica,sans-Serif" font-size="10.00">unordered_map</text>
</g>
<!-- Node1&#45;&gt;Node12 -->
<g id="edge11" class="edge"><title>Node1&#45;&gt;Node12</title>
<path fill="none" stroke="midnightblue" d="M563.003,-118.255C640.8,-109.282 767.405,-93.9849 886.733,-76.051"/>
<polygon fill="midnightblue" stroke="midnightblue" points="887.414,-79.4879 896.779,-74.5323 886.368,-72.5665 887.414,-79.4879"/>
</g>
<!-- Node13 -->
<g id="node13" class="node"><title>Node13</title>
<polygon fill="none" stroke="#bfbfbf" points="209.5,-0.5 209.5,-19.5 253.5,-19.5 253.5,-0.5 209.5,-0.5"/>
<text text-anchor="middle" x="231.5" y="-7.5" font-family="Helvetica,sans-Serif" font-size="10.00">vector</text>
</g>
<!-- Node1&#45;&gt;Node13 -->
<g id="edge12" class="edge"><title>Node1&#45;&gt;Node13</title>
<path fill="none" stroke="midnightblue" d="M415.845,-114.265C380.983,-106.515 339.618,-94.387 305.5,-76 281.877,-63.2687 259.407,-41.719 245.554,-26.9475"/>
<polygon fill="midnightblue" stroke="midnightblue" points="248.119,-24.565 238.793,-19.5375 242.948,-29.2835 248.119,-24.565"/>
</g>
<!-- Node14 -->
<g id="node14" class="node"><title>Node14</title>
<g id="a_node14"><a xlink:href="bufArray_8hpp.html" target="_top" xlink:title="bufArray.hpp">
<polygon fill="none" stroke="black" points="164,-56.5 164,-75.5 235,-75.5 235,-56.5 164,-56.5"/>
<text text-anchor="middle" x="199.5" y="-63.5" font-family="Helvetica,sans-Serif" font-size="10.00">bufArray.hpp</text>
</a>
</g>
</g>
<!-- Node1&#45;&gt;Node14 -->
<g id="edge13" class="edge"><title>Node1&#45;&gt;Node14</title>
<path fill="none" stroke="midnightblue" d="M421.141,-112.475C366.851,-101.336 292.444,-86.0696 245.167,-76.3695"/>
<polygon fill="midnightblue" stroke="midnightblue" points="245.716,-72.9094 235.216,-74.328 244.309,-79.7665 245.716,-72.9094"/>
</g>
<!-- Node16 -->
<g id="node16" class="node"><title>Node16</title>
<g id="a_node16"><a xlink:href="common_8hpp.html" target="_top" xlink:title="common.hpp">
<polygon fill="none" stroke="black" points="73,-56.5 73,-75.5 146,-75.5 146,-56.5 73,-56.5"/>
<text text-anchor="middle" x="109.5" y="-63.5" font-family="Helvetica,sans-Serif" font-size="10.00">common.hpp</text>
</a>
</g>
</g>
<!-- Node1&#45;&gt;Node16 -->
<g id="edge19" class="edge"><title>Node1&#45;&gt;Node16</title>
<path fill="none" stroke="midnightblue" d="M415.815,-116.424C350.153,-107.209 251.198,-92.7438 156.361,-76.2675"/>
<polygon fill="midnightblue" stroke="midnightblue" points="156.763,-72.7848 146.31,-74.5109 155.558,-79.6803 156.763,-72.7848"/>
</g>
<!-- Node17 -->
<g id="node17" class="node"><title>Node17</title>
<g id="a_node17"><a xlink:href="exceptions_8hpp.html" target="_top" xlink:title="exceptions.hpp">
<polygon fill="none" stroke="black" points="330,-56.5 330,-75.5 413,-75.5 413,-56.5 330,-56.5"/>
<text text-anchor="middle" x="371.5" y="-63.5" font-family="Helvetica,sans-Serif" font-size="10.00">exceptions.hpp</text>
</a>
</g>
</g>
<!-- Node1&#45;&gt;Node17 -->
<g id="edge21" class="edge"><title>Node1&#45;&gt;Node17</title>
<path fill="none" stroke="midnightblue" d="M461.536,-112.399C442.179,-102.639 416.592,-89.7373 397.644,-80.1826"/>
<polygon fill="midnightblue" stroke="midnightblue" points="399.175,-77.035 388.67,-75.6578 396.023,-83.2854 399.175,-77.035"/>
</g>
<!-- Node19 -->
<g id="node19" class="node"><title>Node19</title>
<g id="a_node19"><a xlink:href="spinlock_8hpp.html" target="_top" xlink:title="spinlock.hpp">
<polygon fill="none" stroke="black" points="998,-56.5 998,-75.5 1069,-75.5 1069,-56.5 998,-56.5"/>
<text text-anchor="middle" x="1033.5" y="-63.5" font-family="Helvetica,sans-Serif" font-size="10.00">spinlock.hpp</text>
</a>
</g>
</g>
<!-- Node1&#45;&gt;Node19 -->
<g id="edge24" class="edge"><title>Node1&#45;&gt;Node19</title>
<path fill="none" stroke="midnightblue" d="M563.336,-121.268C658.878,-113.998 830.661,-99.2275 987.393,-76.0258"/>
<polygon fill="midnightblue" stroke="midnightblue" points="988.321,-79.426 997.693,-74.4854 987.286,-72.503 988.321,-79.426"/>
</g>
<!-- Node14&#45;&gt;Node2 -->
<g id="edge14" class="edge"><title>Node14&#45;&gt;Node2</title>
<path fill="none" stroke="midnightblue" d="M171.771,-56.4435C141.201,-47.0106 91.9867,-31.8245 58.9611,-21.6337"/>
<polygon fill="midnightblue" stroke="midnightblue" points="59.8575,-18.2475 49.27,-18.6433 57.7935,-24.9363 59.8575,-18.2475"/>
</g>
<!-- Node14&#45;&gt;Node4 -->
<g id="edge15" class="edge"><title>Node14&#45;&gt;Node4</title>
<path fill="none" stroke="midnightblue" d="M185.04,-56.324C171,-47.9002 149.452,-34.9709 132.957,-25.0741"/>
<polygon fill="midnightblue" stroke="midnightblue" points="134.3,-21.7983 123.924,-19.6545 130.698,-27.8007 134.3,-21.7983"/>
</g>
<!-- Node14&#45;&gt;Node11 -->
<g id="edge16" class="edge"><title>Node14&#45;&gt;Node11</title>
<path fill="none" stroke="midnightblue" d="M215.888,-56.324C232.171,-47.7034 257.367,-34.3643 276.216,-24.3855"/>
<polygon fill="midnightblue" stroke="midnightblue" points="277.952,-27.4267 285.153,-19.6545 274.677,-21.2402 277.952,-27.4267"/>
</g>
<!-- Node14&#45;&gt;Node13 -->
<g id="edge18" class="edge"><title>Node14&#45;&gt;Node13</title>
<path fill="none" stroke="midnightblue" d="M204.784,-56.083C209.211,-48.6127 215.663,-37.7244 221.118,-28.5199"/>
<polygon fill="midnightblue" stroke="midnightblue" points="224.227,-30.1383 226.314,-19.7511 218.205,-26.5697 224.227,-30.1383"/>
</g>
<!-- Node15 -->
<g id="node15" class="node"><title>Node15</title>
<polygon fill="none" stroke="#bfbfbf" points="151.5,-0.5 151.5,-19.5 191.5,-19.5 191.5,-0.5 151.5,-0.5"/>
<text text-anchor="middle" x="171.5" y="-7.5" font-family="Helvetica,sans-Serif" font-size="10.00">utility</text>
</g>
<!-- Node14&#45;&gt;Node15 -->
<g id="edge17" class="edge"><title>Node14&#45;&gt;Node15</title>
<path fill="none" stroke="midnightblue" d="M194.876,-56.083C191.044,-48.6913 185.476,-37.9533 180.735,-28.8111"/>
<polygon fill="midnightblue" stroke="midnightblue" points="183.748,-27.0175 176.038,-19.7511 177.534,-30.2398 183.748,-27.0175"/>
</g>
<!-- Node16&#45;&gt;Node4 -->
<g id="edge20" class="edge"><title>Node16&#45;&gt;Node4</title>
<path fill="none" stroke="midnightblue" d="M109.5,-56.083C109.5,-49.0059 109.5,-38.8611 109.5,-29.9865"/>
<polygon fill="midnightblue" stroke="midnightblue" points="113,-29.751 109.5,-19.7511 106,-29.7511 113,-29.751"/>
</g>
<!-- Node17&#45;&gt;Node11 -->
<g id="edge23" class="edge"><title>Node17&#45;&gt;Node11</title>
<path fill="none" stroke="midnightblue" d="M360.253,-56.324C349.703,-48.1849 333.699,-35.8395 321.058,-26.0874"/>
<polygon fill="midnightblue" stroke="midnightblue" points="323.007,-23.1707 312.951,-19.8339 318.731,-28.7132 323.007,-23.1707"/>
</g>
<!-- Node18 -->
<g id="node18" class="node"><title>Node18</title>
<polygon fill="none" stroke="#bfbfbf" points="349,-0.5 349,-19.5 408,-19.5 408,-0.5 349,-0.5"/>
<text text-anchor="middle" x="378.5" y="-7.5" font-family="Helvetica,sans-Serif" font-size="10.00">exception</text>
</g>
<!-- Node17&#45;&gt;Node18 -->
<g id="edge22" class="edge"><title>Node17&#45;&gt;Node18</title>
<path fill="none" stroke="midnightblue" d="M372.656,-56.083C373.584,-48.9272 374.918,-38.6353 376.077,-29.6911"/>
<polygon fill="midnightblue" stroke="midnightblue" points="379.551,-30.1181 377.366,-19.7511 372.609,-29.2181 379.551,-30.1181"/>
</g>
<!-- Node20 -->
<g id="node20" class="node"><title>Node20</title>
<polygon fill="none" stroke="#bfbfbf" points="1010.5,-0.5 1010.5,-19.5 1056.5,-19.5 1056.5,-0.5 1010.5,-0.5"/>
<text text-anchor="middle" x="1033.5" y="-7.5" font-family="Helvetica,sans-Serif" font-size="10.00">atomic</text>
</g>
<!-- Node19&#45;&gt;Node20 -->
<g id="edge25" class="edge"><title>Node19&#45;&gt;Node20</title>
<path fill="none" stroke="midnightblue" d="M1033.5,-56.083C1033.5,-49.0059 1033.5,-38.8611 1033.5,-29.9865"/>
<polygon fill="midnightblue" stroke="midnightblue" points="1037,-29.751 1033.5,-19.7511 1030,-29.7511 1037,-29.751"/>
</g>
</g>
</svg>
