<?xml version="1.0" encoding="UTF-8" standalone="no"?>
<!DOCTYPE svg PUBLIC "-//W3C//DTD SVG 1.1//EN"
 "http://www.w3.org/Graphics/SVG/1.1/DTD/svg11.dtd">
<!-- Generated by graphviz version 2.40.1 (20161225.0304)
 -->
<!-- Title: /home/dominik/uni/MoonState/include/stateMachine.hpp Pages: 1 -->
<svg width="1086pt" height="151pt"
 viewBox="0.00 0.00 1085.50 151.00" xmlns="http://www.w3.org/2000/svg" xmlns:xlink="http://www.w3.org/1999/xlink">
<g id="graph0" class="graph" transform="scale(1 1) rotate(0) translate(4 147)">
<title>/home/dominik/uni/MoonState/include/stateMachine.hpp</title>
<!-- Node0 -->
<g id="node1" class="node">
<title>Node0</title>
<polygon fill="#bfbfbf" stroke="#000000" points="424.5,-112.5 424.5,-142.5 571.5,-142.5 571.5,-112.5 424.5,-112.5"/>
<text text-anchor="start" x="432.5" y="-130.5" font-family="Helvetica,sans-Serif" font-size="10.00" fill="#000000">/home/dominik/uni/MoonState</text>
<text text-anchor="middle" x="498" y="-119.5" font-family="Helvetica,sans-Serif" font-size="10.00" fill="#000000">/include/stateMachine.hpp</text>
</g>
<!-- Node1 -->
<g id="node2" class="node">
<title>Node1</title>
<polygon fill="none" stroke="#bfbfbf" points="56.5,-.5 56.5,-19.5 105.5,-19.5 105.5,-.5 56.5,-.5"/>
<text text-anchor="middle" x="81" y="-7.5" font-family="Helvetica,sans-Serif" font-size="10.00" fill="#000000">cassert</text>
</g>
<!-- Node0&#45;&gt;Node1 -->
<g id="edge1" class="edge">
<title>Node0&#45;&gt;Node1</title>
<path fill="none" stroke="#191970" d="M424.3306,-122.1524C336.0946,-114.808 194.2617,-99.7428 147,-76 124.7279,-64.8112 105.3935,-43.2417 93.5069,-27.8048"/>
<polygon fill="#191970" stroke="#191970" points="96.1624,-25.5092 87.4029,-19.5492 90.5338,-29.6709 96.1624,-25.5092"/>
</g>
<!-- Node2 -->
<g id="node3" class="node">
<title>Node2</title>
<polygon fill="none" stroke="#bfbfbf" points="440,-56.5 440,-75.5 486,-75.5 486,-56.5 440,-56.5"/>
<text text-anchor="middle" x="463" y="-63.5" font-family="Helvetica,sans-Serif" font-size="10.00" fill="#000000">chrono</text>
</g>
<!-- Node0&#45;&gt;Node2 -->
<g id="edge2" class="edge">
<title>Node0&#45;&gt;Node2</title>
<path fill="none" stroke="#191970" d="M489.3483,-112.2977C484.5912,-103.9388 478.6502,-93.4997 473.6143,-84.6509"/>
<polygon fill="#191970" stroke="#191970" points="476.5921,-82.8069 468.6039,-75.8469 470.5083,-86.2692 476.5921,-82.8069"/>
</g>
<!-- Node3 -->
<g id="node4" class="node">
<title>Node3</title>
<polygon fill="none" stroke="#bfbfbf" points="124,-.5 124,-19.5 170,-19.5 170,-.5 124,-.5"/>
<text text-anchor="middle" x="147" y="-7.5" font-family="Helvetica,sans-Serif" font-size="10.00" fill="#000000">cstdint</text>
</g>
<!-- Node0&#45;&gt;Node3 -->
<g id="edge3" class="edge">
<title>Node0&#45;&gt;Node3</title>
<path fill="none" stroke="#191970" d="M424.3669,-125.5081C337.4817,-121.6074 200.1137,-110.0757 163,-76 150.4043,-64.4353 146.945,-44.7911 146.3126,-29.9336"/>
<polygon fill="#191970" stroke="#191970" points="149.8119,-29.7054 146.2756,-19.7182 142.812,-29.7309 149.8119,-29.7054"/>
</g>
<!-- Node4 -->
<g id="node5" class="node">
<title>Node4</title>
<polygon fill="none" stroke="#bfbfbf" points="504.5,-56.5 504.5,-75.5 563.5,-75.5 563.5,-56.5 504.5,-56.5"/>
<text text-anchor="middle" x="534" y="-63.5" font-family="Helvetica,sans-Serif" font-size="10.00" fill="#000000">functional</text>
</g>
<!-- Node0&#45;&gt;Node4 -->
<g id="edge4" class="edge">
<title>Node0&#45;&gt;Node4</title>
<path fill="none" stroke="#191970" d="M506.8989,-112.2977C511.7919,-103.9388 517.9026,-93.4997 523.0824,-84.6509"/>
<polygon fill="#191970" stroke="#191970" points="526.2047,-86.2452 528.2359,-75.8469 520.1635,-82.7089 526.2047,-86.2452"/>
</g>
<!-- Node5 -->
<g id="node6" class="node">
<title>Node5</title>
<polygon fill="none" stroke="#bfbfbf" points="582,-56.5 582,-75.5 636,-75.5 636,-56.5 582,-56.5"/>
<text text-anchor="middle" x="609" y="-63.5" font-family="Helvetica,sans-Serif" font-size="10.00" fill="#000000">iostream</text>
</g>
<!-- Node0&#45;&gt;Node5 -->
<g id="edge5" class="edge">
<title>Node0&#45;&gt;Node5</title>
<path fill="none" stroke="#191970" d="M525.1537,-112.4554C542.6995,-102.734 565.4122,-90.15 582.7721,-80.5317"/>
<polygon fill="#191970" stroke="#191970" points="584.748,-83.4383 591.7989,-75.5303 581.3555,-77.3153 584.748,-83.4383"/>
</g>
<!-- Node6 -->
<g id="node7" class="node">
<title>Node6</title>
<polygon fill="none" stroke="#bfbfbf" points="654,-56.5 654,-75.5 694,-75.5 694,-56.5 654,-56.5"/>
<text text-anchor="middle" x="674" y="-63.5" font-family="Helvetica,sans-Serif" font-size="10.00" fill="#000000">limits</text>
</g>
<!-- Node0&#45;&gt;Node6 -->
<g id="edge6" class="edge">
<title>Node0&#45;&gt;Node6</title>
<path fill="none" stroke="#191970" d="M541.0544,-112.4554C572.9583,-101.3072 615.636,-86.3943 643.9324,-76.5066"/>
<polygon fill="#191970" stroke="#191970" points="645.3745,-79.7103 653.6602,-73.1074 643.0653,-73.1021 645.3745,-79.7103"/>
</g>
<!-- Node7 -->
<g id="node8" class="node">
<title>Node7</title>
<polygon fill="none" stroke="#bfbfbf" points="712,-56.5 712,-75.5 764,-75.5 764,-56.5 712,-56.5"/>
<text text-anchor="middle" x="738" y="-63.5" font-family="Helvetica,sans-Serif" font-size="10.00" fill="#000000">memory</text>
</g>
<!-- Node0&#45;&gt;Node7 -->
<g id="edge7" class="edge">
<title>Node0&#45;&gt;Node7</title>
<path fill="none" stroke="#191970" d="M560.0329,-112.4668C598.3749,-103.0473 648.8263,-90.4253 701.7446,-76.2839"/>
<polygon fill="#191970" stroke="#191970" points="702.9003,-79.5977 711.6519,-73.6262 701.0866,-72.8368 702.9003,-79.5977"/>
</g>
<!-- Node8 -->
<g id="node9" class="node">
<title>Node8</title>
<polygon fill="none" stroke="#bfbfbf" points="782,-56.5 782,-75.5 826,-75.5 826,-56.5 782,-56.5"/>
<text text-anchor="middle" x="804" y="-63.5" font-family="Helvetica,sans-Serif" font-size="10.00" fill="#000000">mutex</text>
</g>
<!-- Node0&#45;&gt;Node8 -->
<g id="edge8" class="edge">
<title>Node0&#45;&gt;Node8</title>
<path fill="none" stroke="#191970" d="M571.5053,-116.3398C624.8191,-107.6448 698.7591,-94.352 771.9022,-76.0474"/>
<polygon fill="#191970" stroke="#191970" points="772.9141,-79.4017 781.7473,-73.5516 771.1938,-72.6163 772.9141,-79.4017"/>
</g>
<!-- Node9 -->
<g id="node10" class="node">
<title>Node9</title>
<polygon fill="none" stroke="#bfbfbf" points="844.5,-56.5 844.5,-75.5 887.5,-75.5 887.5,-56.5 844.5,-56.5"/>
<text text-anchor="middle" x="866" y="-63.5" font-family="Helvetica,sans-Serif" font-size="10.00" fill="#000000">queue</text>
</g>
<!-- Node0&#45;&gt;Node9 -->
<g id="edge9" class="edge">
<title>Node0&#45;&gt;Node9</title>
<path fill="none" stroke="#191970" d="M571.6198,-119.698C638.0505,-111.8739 738.489,-98.1001 834.5631,-75.7723"/>
<polygon fill="#191970" stroke="#191970" points="835.5153,-79.1438 844.4447,-73.4414 833.9082,-72.3308 835.5153,-79.1438"/>
</g>
<!-- Node10 -->
<g id="node11" class="node">
<title>Node10</title>
<polygon fill="none" stroke="#bfbfbf" points="308.5,-.5 308.5,-19.5 367.5,-19.5 367.5,-.5 308.5,-.5"/>
<text text-anchor="middle" x="338" y="-7.5" font-family="Helvetica,sans-Serif" font-size="10.00" fill="#000000">stdexcept</text>
</g>
<!-- Node0&#45;&gt;Node10 -->
<g id="edge10" class="edge">
<title>Node0&#45;&gt;Node10</title>
<path fill="none" stroke="#191970" d="M424.1041,-113.9967C384.2615,-105.0513 340.8663,-92.0211 329,-76 319.0304,-62.5397 323.2235,-43.1827 328.7443,-28.9107"/>
<polygon fill="#191970" stroke="#191970" points="332.0267,-30.1396 332.8155,-19.5741 325.6102,-27.3416 332.0267,-30.1396"/>
</g>
<!-- Node11 -->
<g id="node12" class="node">
<title>Node11</title>
<polygon fill="none" stroke="#bfbfbf" points="905.5,-56.5 905.5,-75.5 988.5,-75.5 988.5,-56.5 905.5,-56.5"/>
<text text-anchor="middle" x="947" y="-63.5" font-family="Helvetica,sans-Serif" font-size="10.00" fill="#000000">unordered_map</text>
</g>
<!-- Node0&#45;&gt;Node11 -->
<g id="edge11" class="edge">
<title>Node0&#45;&gt;Node11</title>
<path fill="none" stroke="#191970" d="M571.7613,-119.5237C649.8153,-110.7334 776.7916,-95.4399 895.3222,-76.1966"/>
<polygon fill="#191970" stroke="#191970" points="895.9939,-79.6333 905.2974,-74.5643 894.8635,-72.7252 895.9939,-79.6333"/>
</g>
<!-- Node12 -->
<g id="node13" class="node">
<title>Node12</title>
<polygon fill="none" stroke="#bfbfbf" points="246,-.5 246,-19.5 290,-19.5 290,-.5 246,-.5"/>
<text text-anchor="middle" x="268" y="-7.5" font-family="Helvetica,sans-Serif" font-size="10.00" fill="#000000">vector</text>
</g>
<!-- Node0&#45;&gt;Node12 -->
<g id="edge12" class="edge">
<title>Node0&#45;&gt;Node12</title>
<path fill="none" stroke="#191970" d="M424.2345,-117.1419C390.0366,-109.7303 350.1663,-97.1634 319,-76 301.1146,-63.855 286.7447,-43.4283 277.8729,-28.5102"/>
<polygon fill="#191970" stroke="#191970" points="280.8269,-26.6235 272.8552,-19.6448 274.735,-30.0716 280.8269,-26.6235"/>
</g>
<!-- Node13 -->
<g id="node14" class="node">
<title>Node13</title>
<g id="a_node14"><a xlink:href="bufArray_8hpp.html" target="_top" xlink:title="bufArray.hpp">
<polygon fill="none" stroke="#000000" points="172.5,-56.5 172.5,-75.5 243.5,-75.5 243.5,-56.5 172.5,-56.5"/>
<text text-anchor="middle" x="208" y="-63.5" font-family="Helvetica,sans-Serif" font-size="10.00" fill="#000000">bufArray.hpp</text>
</a>
</g>
</g>
<!-- Node0&#45;&gt;Node13 -->
<g id="edge13" class="edge">
<title>Node0&#45;&gt;Node13</title>
<path fill="none" stroke="#191970" d="M427.058,-112.4554C373.0055,-100.9926 300.1847,-85.5495 253.6532,-75.6816"/>
<polygon fill="#191970" stroke="#191970" points="254.3614,-72.254 243.8528,-73.6033 252.9092,-79.1018 254.3614,-72.254"/>
</g>
<!-- Node15 -->
<g id="node16" class="node">
<title>Node15</title>
<g id="a_node16"><a xlink:href="common_8hpp.html" target="_top" xlink:title="common.hpp">
<polygon fill="none" stroke="#000000" points="4.5,-56.5 4.5,-75.5 77.5,-75.5 77.5,-56.5 4.5,-56.5"/>
<text text-anchor="middle" x="41" y="-63.5" font-family="Helvetica,sans-Serif" font-size="10.00" fill="#000000">common.hpp</text>
</a>
</g>
</g>
<!-- Node0&#45;&gt;Node15 -->
<g id="edge19" class="edge">
<title>Node0&#45;&gt;Node15</title>
<path fill="none" stroke="#191970" d="M424.4415,-119.6797C342.9436,-110.6643 207.7385,-94.6657 92,-76 90.5525,-75.7666 89.0833,-75.5225 87.6009,-75.27"/>
<polygon fill="#191970" stroke="#191970" points="88.1774,-71.8176 77.718,-73.5067 86.9478,-78.7088 88.1774,-71.8176"/>
</g>
<!-- Node17 -->
<g id="node18" class="node">
<title>Node17</title>
<g id="a_node18"><a xlink:href="exceptions_8hpp.html" target="_top" xlink:title="exceptions.hpp">
<polygon fill="none" stroke="#000000" points="338.5,-56.5 338.5,-75.5 421.5,-75.5 421.5,-56.5 338.5,-56.5"/>
<text text-anchor="middle" x="380" y="-63.5" font-family="Helvetica,sans-Serif" font-size="10.00" fill="#000000">exceptions.hpp</text>
</a>
</g>
</g>
<!-- Node0&#45;&gt;Node17 -->
<g id="edge22" class="edge">
<title>Node0&#45;&gt;Node17</title>
<path fill="none" stroke="#191970" d="M469.134,-112.4554C450.3089,-102.644 425.889,-89.9167 407.3708,-80.2653"/>
<polygon fill="#191970" stroke="#191970" points="408.7713,-77.0484 398.2858,-75.5303 405.536,-83.2559 408.7713,-77.0484"/>
</g>
<!-- Node19 -->
<g id="node20" class="node">
<title>Node19</title>
<g id="a_node20"><a xlink:href="spinlock_8hpp.html" target="_top" xlink:title="spinlock.hpp">
<polygon fill="none" stroke="#000000" points="1006.5,-56.5 1006.5,-75.5 1077.5,-75.5 1077.5,-56.5 1006.5,-56.5"/>
<text text-anchor="middle" x="1042" y="-63.5" font-family="Helvetica,sans-Serif" font-size="10.00" fill="#000000">spinlock.hpp</text>
</a>
</g>
</g>
<!-- Node0&#45;&gt;Node19 -->
<g id="edge25" class="edge">
<title>Node0&#45;&gt;Node19</title>
<path fill="none" stroke="#191970" d="M571.6551,-122.7109C667.3999,-115.8615 839.915,-101.3944 995.808,-76.2162"/>
<polygon fill="#191970" stroke="#191970" points="996.7468,-79.6093 1006.0514,-74.5422 995.6178,-72.7009 996.7468,-79.6093"/>
</g>
<!-- Node13&#45;&gt;Node1 -->
<g id="edge14" class="edge">
<title>Node13&#45;&gt;Node1</title>
<path fill="none" stroke="#191970" d="M186.1679,-56.3733C165.6897,-47.3435 134.8601,-33.7494 111.8681,-23.6111"/>
<polygon fill="#191970" stroke="#191970" points="113.1093,-20.3333 102.5472,-19.5011 110.285,-26.7383 113.1093,-20.3333"/>
</g>
<!-- Node13&#45;&gt;Node3 -->
<g id="edge15" class="edge">
<title>Node13&#45;&gt;Node3</title>
<path fill="none" stroke="#191970" d="M197.3746,-56.2455C188.4527,-48.0549 175.512,-36.1749 164.9808,-26.5069"/>
<polygon fill="#191970" stroke="#191970" points="167.2371,-23.8271 157.5036,-19.6427 162.5032,-28.9837 167.2371,-23.8271"/>
</g>
<!-- Node13&#45;&gt;Node10 -->
<g id="edge16" class="edge">
<title>Node13&#45;&gt;Node10</title>
<path fill="none" stroke="#191970" d="M230.3478,-56.3733C251.4033,-47.3032 283.1495,-33.6279 306.7175,-23.4755"/>
<polygon fill="#191970" stroke="#191970" points="308.1444,-26.6719 315.9438,-19.5011 305.375,-20.243 308.1444,-26.6719"/>
</g>
<!-- Node13&#45;&gt;Node12 -->
<g id="edge18" class="edge">
<title>Node13&#45;&gt;Node12</title>
<path fill="none" stroke="#191970" d="M218.4512,-56.2455C227.2269,-48.0549 239.9554,-36.1749 250.314,-26.5069"/>
<polygon fill="#191970" stroke="#191970" points="252.7461,-29.0246 257.6686,-19.6427 247.9699,-23.9072 252.7461,-29.0246"/>
</g>
<!-- Node14 -->
<g id="node15" class="node">
<title>Node14</title>
<polygon fill="none" stroke="#bfbfbf" points="188,-.5 188,-19.5 228,-19.5 228,-.5 188,-.5"/>
<text text-anchor="middle" x="208" y="-7.5" font-family="Helvetica,sans-Serif" font-size="10.00" fill="#000000">utility</text>
</g>
<!-- Node13&#45;&gt;Node14 -->
<g id="edge17" class="edge">
<title>Node13&#45;&gt;Node14</title>
<path fill="none" stroke="#191970" d="M208,-56.2455C208,-48.9382 208,-38.6944 208,-29.7046"/>
<polygon fill="#191970" stroke="#191970" points="211.5001,-29.6426 208,-19.6427 204.5001,-29.6427 211.5001,-29.6426"/>
</g>
<!-- Node15&#45;&gt;Node1 -->
<g id="edge21" class="edge">
<title>Node15&#45;&gt;Node1</title>
<path fill="none" stroke="#191970" d="M47.9675,-56.2455C53.5311,-48.4564 61.478,-37.3308 68.1829,-27.9439"/>
<polygon fill="#191970" stroke="#191970" points="71.148,-29.8144 74.1124,-19.6427 65.4519,-25.7457 71.148,-29.8144"/>
</g>
<!-- Node16 -->
<g id="node17" class="node">
<title>Node16</title>
<polygon fill="none" stroke="#bfbfbf" points="0,-.5 0,-19.5 38,-19.5 38,-.5 0,-.5"/>
<text text-anchor="middle" x="19" y="-7.5" font-family="Helvetica,sans-Serif" font-size="10.00" fill="#000000">array</text>
</g>
<!-- Node15&#45;&gt;Node16 -->
<g id="edge20" class="edge">
<title>Node15&#45;&gt;Node16</title>
<path fill="none" stroke="#191970" d="M37.1679,-56.2455C34.2341,-48.7776 30.0953,-38.2427 26.509,-29.1137"/>
<polygon fill="#191970" stroke="#191970" points="29.7024,-27.6704 22.7882,-19.6427 23.1871,-30.23 29.7024,-27.6704"/>
</g>
<!-- Node17&#45;&gt;Node10 -->
<g id="edge24" class="edge">
<title>Node17&#45;&gt;Node10</title>
<path fill="none" stroke="#191970" d="M372.6842,-56.2455C366.7821,-48.3761 358.3258,-37.101 351.2406,-27.6542"/>
<polygon fill="#191970" stroke="#191970" points="354.0321,-25.5427 345.232,-19.6427 348.432,-29.7427 354.0321,-25.5427"/>
</g>
<!-- Node18 -->
<g id="node19" class="node">
<title>Node18</title>
<polygon fill="none" stroke="#bfbfbf" points="385.5,-.5 385.5,-19.5 444.5,-19.5 444.5,-.5 385.5,-.5"/>
<text text-anchor="middle" x="415" y="-7.5" font-family="Helvetica,sans-Serif" font-size="10.00" fill="#000000">exception</text>
</g>
<!-- Node17&#45;&gt;Node18 -->
<g id="edge23" class="edge">
<title>Node17&#45;&gt;Node18</title>
<path fill="none" stroke="#191970" d="M386.0965,-56.2455C390.9145,-48.5367 397.7751,-37.5598 403.6032,-28.2348"/>
<polygon fill="#191970" stroke="#191970" points="406.6413,-29.9777 408.9733,-19.6427 400.7053,-26.2677 406.6413,-29.9777"/>
</g>
<!-- Node20 -->
<g id="node21" class="node">
<title>Node20</title>
<polygon fill="none" stroke="#bfbfbf" points="1019,-.5 1019,-19.5 1065,-19.5 1065,-.5 1019,-.5"/>
<text text-anchor="middle" x="1042" y="-7.5" font-family="Helvetica,sans-Serif" font-size="10.00" fill="#000000">atomic</text>
</g>
<!-- Node19&#45;&gt;Node20 -->
<g id="edge26" class="edge">
<title>Node19&#45;&gt;Node20</title>
<path fill="none" stroke="#191970" d="M1042,-56.2455C1042,-48.9382 1042,-38.6944 1042,-29.7046"/>
<polygon fill="#191970" stroke="#191970" points="1045.5001,-29.6426 1042,-19.6427 1038.5001,-29.6427 1045.5001,-29.6426"/>
</g>
</g>
</svg>
