<?xml version="1.0" encoding="UTF-8" standalone="no"?>
<!DOCTYPE svg PUBLIC "-//W3C//DTD SVG 1.1//EN"
 "http://www.w3.org/Graphics/SVG/1.1/DTD/svg11.dtd">
<!-- Generated by graphviz version 2.40.1 (20161225.0304)
 -->
<!-- Title: Dtls_C_config Pages: 1 -->
<svg width="170pt" height="206pt"
 viewBox="0.00 0.00 169.50 206.00" xmlns="http://www.w3.org/2000/svg" xmlns:xlink="http://www.w3.org/1999/xlink">
<g id="graph0" class="graph" transform="scale(1 1) rotate(0) translate(4 202)">
<title>Dtls_C_config</title>
<!-- Node1 -->
<g id="node1" class="node">
<title>Node1</title>
<polygon fill="#bfbfbf" stroke="#000000" points="23,-.5 23,-19.5 102,-19.5 102,-.5 23,-.5"/>
<text text-anchor="middle" x="62.5" y="-7.5" font-family="Helvetica,sans-Serif" font-size="10.00" fill="#000000">Dtls_C_config</text>
</g>
<!-- Node2 -->
<g id="node2" class="node">
<title>Node2</title>
<g id="a_node2"><a xlink:href="classStateMachine.html" target="_top" xlink:title="StateMachine\&lt; IPv4\l_5TupleL2Ident\&lt; mbuf\l \&gt;, mbuf \&gt;">
<polygon fill="none" stroke="#000000" points="6,-67.5 6,-108.5 119,-108.5 119,-67.5 6,-67.5"/>
<text text-anchor="start" x="14" y="-96.5" font-family="Helvetica,sans-Serif" font-size="10.00" fill="#000000">StateMachine&lt; IPv4</text>
<text text-anchor="start" x="14" y="-85.5" font-family="Helvetica,sans-Serif" font-size="10.00" fill="#000000">_5TupleL2Ident&lt; mbuf</text>
<text text-anchor="middle" x="62.5" y="-74.5" font-family="Helvetica,sans-Serif" font-size="10.00" fill="#000000"> &gt;, mbuf &gt;</text>
</a>
</g>
</g>
<!-- Node2&#45;&gt;Node1 -->
<g id="edge1" class="edge">
<title>Node2&#45;&gt;Node1</title>
<path fill="none" stroke="#9a32cd" stroke-dasharray="5,2" d="M62.5,-56.8707C62.5,-43.6273 62.5,-29.1205 62.5,-19.8072"/>
<polygon fill="#9a32cd" stroke="#9a32cd" points="59.0001,-57.0974 62.5,-67.0974 66.0001,-57.0975 59.0001,-57.0974"/>
<text text-anchor="middle" x="71" y="-41" font-family="Helvetica,sans-Serif" font-size="10.00" fill="#000000"> sm</text>
</g>
<!-- Node3 -->
<g id="node3" class="node">
<title>Node3</title>
<g id="a_node3"><a xlink:href="classStateMachine.html" target="_top" xlink:title="State machine framework. ">
<polygon fill="none" stroke="#000000" points="0,-167.5 0,-197.5 125,-197.5 125,-167.5 0,-167.5"/>
<text text-anchor="start" x="8" y="-185.5" font-family="Helvetica,sans-Serif" font-size="10.00" fill="#000000">StateMachine&lt; Identifier,</text>
<text text-anchor="middle" x="62.5" y="-174.5" font-family="Helvetica,sans-Serif" font-size="10.00" fill="#000000"> Packet &gt;</text>
</a>
</g>
</g>
<!-- Node3&#45;&gt;Node2 -->
<g id="edge2" class="edge">
<title>Node3&#45;&gt;Node2</title>
<path fill="none" stroke="#ffa500" stroke-dasharray="5,2" d="M62.5,-157.1013C62.5,-141.9736 62.5,-123.0135 62.5,-108.7823"/>
<polygon fill="#ffa500" stroke="#ffa500" points="59.0001,-157.3169 62.5,-167.3169 66.0001,-157.317 59.0001,-157.3169"/>
<text text-anchor="start" x="62.5" y="-141" font-family="Helvetica,sans-Serif" font-size="10.00" fill="#000000"> &lt; IPv4_5TupleL2Ident</text>
<text text-anchor="middle" x="112" y="-130" font-family="Helvetica,sans-Serif" font-size="10.00" fill="#000000">&lt; mbuf &gt;, mbuf &gt;</text>
</g>
</g>
</svg>
