<?xml version="1.0" encoding="UTF-8" standalone="no"?>
<!DOCTYPE svg PUBLIC "-//W3C//DTD SVG 1.1//EN"
 "http://www.w3.org/Graphics/SVG/1.1/DTD/svg11.dtd">
<!-- Generated by graphviz version 2.38.0 (20140413.2041)
 -->
<!-- Title: BufArray::end Pages: 1 -->
<svg width="219pt" height="66pt"
 viewBox="0.00 0.00 219.00 66.00" xmlns="http://www.w3.org/2000/svg" xmlns:xlink="http://www.w3.org/1999/xlink">
<g id="graph0" class="graph" transform="scale(1 1) rotate(0) translate(4 62)">
<title>BufArray::end</title>
<!-- Node1 -->
<g id="node1" class="node"><title>Node1</title>
<polygon fill="#bfbfbf" stroke="black" points="0,-19.5 0,-38.5 77,-38.5 77,-19.5 0,-19.5"/>
<text text-anchor="middle" x="38.5" y="-26.5" font-family="Helvetica,sans-Serif" font-size="10.00">BufArray::end</text>
</g>
<!-- Node2 -->
<g id="node2" class="node"><title>Node2</title>
<g id="a_node2"><a xlink:href="structBufArray.html#ae0799e032421a961908200bc4b03a2ea" target="_top" xlink:title="BufArray::getArray">
<polygon fill="none" stroke="black" points="113,-38.5 113,-57.5 211,-57.5 211,-38.5 113,-38.5"/>
<text text-anchor="middle" x="162" y="-45.5" font-family="Helvetica,sans-Serif" font-size="10.00">BufArray::getArray</text>
</a>
</g>
</g>
<!-- Node1&#45;&gt;Node2 -->
<g id="edge1" class="edge"><title>Node1&#45;&gt;Node2</title>
<path fill="none" stroke="midnightblue" d="M77.2773,-34.9076C85.3885,-36.176 94.1405,-37.5446 102.822,-38.9022"/>
<polygon fill="midnightblue" stroke="midnightblue" points="102.518,-42.3972 112.939,-40.4843 103.6,-35.4812 102.518,-42.3972"/>
</g>
<!-- Node3 -->
<g id="node3" class="node"><title>Node3</title>
<g id="a_node3"><a xlink:href="structBufArray.html#ae7fc1e0864dc22251a63389aa1134076" target="_top" xlink:title="BufArray::getNum">
<polygon fill="none" stroke="black" points="114.5,-0.5 114.5,-19.5 209.5,-19.5 209.5,-0.5 114.5,-0.5"/>
<text text-anchor="middle" x="162" y="-7.5" font-family="Helvetica,sans-Serif" font-size="10.00">BufArray::getNum</text>
</a>
</g>
</g>
<!-- Node1&#45;&gt;Node3 -->
<g id="edge2" class="edge"><title>Node1&#45;&gt;Node3</title>
<path fill="none" stroke="midnightblue" d="M77.2773,-23.0924C85.7804,-21.7627 94.9876,-20.3229 104.08,-18.9011"/>
<polygon fill="midnightblue" stroke="midnightblue" points="104.914,-22.3133 114.253,-17.3102 103.832,-15.3973 104.914,-22.3133"/>
</g>
</g>
</svg>
