<?xml version="1.0" encoding="UTF-8" standalone="no"?>
<!DOCTYPE svg PUBLIC "-//W3C//DTD SVG 1.1//EN"
 "http://www.w3.org/Graphics/SVG/1.1/DTD/svg11.dtd">
<!-- Generated by graphviz version 2.40.1 (20161225.0304)
 -->
<!-- Title: DTLS::Handshake::Header Pages: 1 -->
<svg width="276pt" height="117pt"
 viewBox="0.00 0.00 275.50 117.00" xmlns="http://www.w3.org/2000/svg" xmlns:xlink="http://www.w3.org/1999/xlink">
<g id="graph0" class="graph" transform="scale(1 1) rotate(0) translate(4 113)">
<title>DTLS::Handshake::Header</title>
<!-- Node1 -->
<g id="node1" class="node">
<title>Node1</title>
<polygon fill="#bfbfbf" stroke="#000000" points="82.5,-.5 82.5,-19.5 216.5,-19.5 216.5,-.5 82.5,-.5"/>
<text text-anchor="middle" x="149.5" y="-7.5" font-family="Helvetica,sans-Serif" font-size="10.00" fill="#000000">DTLS::Handshake::Header</text>
</g>
<!-- Node2 -->
<g id="node2" class="node">
<title>Node2</title>
<g id="a_node2"><a xlink:href="structDTLS_1_1Handshake_1_1HandshakeType.html" target="_top" xlink:title="DTLS::Handshake::HandshakeType">
<polygon fill="none" stroke="#000000" points="0,-89.5 0,-108.5 173,-108.5 173,-89.5 0,-89.5"/>
<text text-anchor="middle" x="86.5" y="-96.5" font-family="Helvetica,sans-Serif" font-size="10.00" fill="#000000">DTLS::Handshake::HandshakeType</text>
</a>
</g>
</g>
<!-- Node2&#45;&gt;Node1 -->
<g id="edge1" class="edge">
<title>Node2&#45;&gt;Node1</title>
<path fill="none" stroke="#9a32cd" stroke-dasharray="5,2" d="M99.0346,-81.2924C112.1201,-62.8065 132.1616,-34.494 142.6154,-19.7259"/>
<polygon fill="#9a32cd" stroke="#9a32cd" points="96.1631,-79.2912 93.2421,-89.4754 101.8765,-83.3356 96.1631,-79.2912"/>
<text text-anchor="middle" x="151" y="-52" font-family="Helvetica,sans-Serif" font-size="10.00" fill="#000000"> msgType</text>
</g>
<!-- Node3 -->
<g id="node3" class="node">
<title>Node3</title>
<g id="a_node3"><a xlink:href="structuint24.html" target="_top" xlink:title="This is a 24 bit variable. ">
<polygon fill="none" stroke="#000000" points="191,-89.5 191,-108.5 234,-108.5 234,-89.5 191,-89.5"/>
<text text-anchor="middle" x="212.5" y="-96.5" font-family="Helvetica,sans-Serif" font-size="10.00" fill="#000000">uint24</text>
</a>
</g>
</g>
<!-- Node3&#45;&gt;Node1 -->
<g id="edge2" class="edge">
<title>Node3&#45;&gt;Node1</title>
<path fill="none" stroke="#9a32cd" stroke-dasharray="5,2" d="M203.0497,-80.4851C196.3327,-68.0083 186.7201,-51.4387 176.5,-38 171.5128,-31.4423 165.1471,-24.7757 159.8493,-19.5935"/>
<polygon fill="#9a32cd" stroke="#9a32cd" points="200.0234,-82.2503 207.7721,-89.4758 206.2205,-78.9952 200.0234,-82.2503"/>
<text text-anchor="middle" x="232" y="-63" font-family="Helvetica,sans-Serif" font-size="10.00" fill="#000000"> fragmentLength</text>
<text text-anchor="middle" x="232" y="-52" font-family="Helvetica,sans-Serif" font-size="10.00" fill="#000000">length</text>
<text text-anchor="middle" x="232" y="-41" font-family="Helvetica,sans-Serif" font-size="10.00" fill="#000000">fragmentOffset</text>
</g>
</g>
</svg>
