<?xml version="1.0" encoding="UTF-8" standalone="no"?>
<!DOCTYPE svg PUBLIC "-//W3C//DTD SVG 1.1//EN"
 "http://www.w3.org/Graphics/SVG/1.1/DTD/svg11.dtd">
<!-- Generated by graphviz version 2.40.1 (20161225.0304)
 -->
<!-- Title: DTLS::Record::Header Pages: 1 -->
<svg width="381pt" height="95pt"
 viewBox="0.00 0.00 380.50 95.00" xmlns="http://www.w3.org/2000/svg" xmlns:xlink="http://www.w3.org/1999/xlink">
<g id="graph0" class="graph" transform="scale(1 1) rotate(0) translate(4 91)">
<title>DTLS::Record::Header</title>
<!-- Node1 -->
<g id="node1" class="node">
<title>Node1</title>
<polygon fill="#bfbfbf" stroke="#000000" points="134.5,-.5 134.5,-19.5 250.5,-19.5 250.5,-.5 134.5,-.5"/>
<text text-anchor="middle" x="192.5" y="-7.5" font-family="Helvetica,sans-Serif" font-size="10.00" fill="#000000">DTLS::Record::Header</text>
</g>
<!-- Node2 -->
<g id="node2" class="node">
<title>Node2</title>
<g id="a_node2"><a xlink:href="structDTLS_1_1Record_1_1ProtocolVersion.html" target="_top" xlink:title="DTLS::Record::ProtocolVersion">
<polygon fill="none" stroke="#000000" points="0,-67.5 0,-86.5 153,-86.5 153,-67.5 0,-67.5"/>
<text text-anchor="middle" x="76.5" y="-74.5" font-family="Helvetica,sans-Serif" font-size="10.00" fill="#000000">DTLS::Record::ProtocolVersion</text>
</a>
</g>
</g>
<!-- Node2&#45;&gt;Node1 -->
<g id="edge1" class="edge">
<title>Node2&#45;&gt;Node1</title>
<path fill="none" stroke="#9a32cd" stroke-dasharray="5,2" d="M101.8043,-62.3846C124.3006,-49.391 156.5432,-30.7681 175.9109,-19.5817"/>
<polygon fill="#9a32cd" stroke="#9a32cd" points="100.0288,-59.3682 93.12,-67.4005 103.5299,-65.4297 100.0288,-59.3682"/>
<text text-anchor="middle" x="158" y="-41" font-family="Helvetica,sans-Serif" font-size="10.00" fill="#000000"> version</text>
</g>
<!-- Node3 -->
<g id="node3" class="node">
<title>Node3</title>
<g id="a_node3"><a xlink:href="structuint48.html" target="_top" xlink:title="This is a 48 bit variable. ">
<polygon fill="none" stroke="#000000" points="171,-67.5 171,-86.5 214,-86.5 214,-67.5 171,-67.5"/>
<text text-anchor="middle" x="192.5" y="-74.5" font-family="Helvetica,sans-Serif" font-size="10.00" fill="#000000">uint48</text>
</a>
</g>
</g>
<!-- Node3&#45;&gt;Node1 -->
<g id="edge2" class="edge">
<title>Node3&#45;&gt;Node1</title>
<path fill="none" stroke="#9a32cd" stroke-dasharray="5,2" d="M192.5,-57.1079C192.5,-44.714 192.5,-29.3263 192.5,-19.5817"/>
<polygon fill="#9a32cd" stroke="#9a32cd" points="189.0001,-57.4005 192.5,-67.4005 196.0001,-57.4006 189.0001,-57.4005"/>
<text text-anchor="middle" x="232.5" y="-41" font-family="Helvetica,sans-Serif" font-size="10.00" fill="#000000"> sequenceNumber</text>
</g>
<!-- Node4 -->
<g id="node4" class="node">
<title>Node4</title>
<g id="a_node4"><a xlink:href="structDTLS_1_1Record_1_1ContentType.html" target="_top" xlink:title="DTLS::Record::ContentType">
<polygon fill="none" stroke="#000000" points="232.5,-67.5 232.5,-86.5 372.5,-86.5 372.5,-67.5 232.5,-67.5"/>
<text text-anchor="middle" x="302.5" y="-74.5" font-family="Helvetica,sans-Serif" font-size="10.00" fill="#000000">DTLS::Record::ContentType</text>
</a>
</g>
</g>
<!-- Node4&#45;&gt;Node1 -->
<g id="edge3" class="edge">
<title>Node4&#45;&gt;Node1</title>
<path fill="none" stroke="#9a32cd" stroke-dasharray="5,2" d="M293.3916,-58.1656C289.1236,-51.0014 283.4358,-43.2975 276.5,-38 265.6274,-29.6956 252.162,-23.7811 239.2208,-19.5985"/>
<polygon fill="#9a32cd" stroke="#9a32cd" points="290.4974,-60.1735 298.3157,-67.3237 296.6627,-56.8586 290.4974,-60.1735"/>
<text text-anchor="middle" x="297.5" y="-41" font-family="Helvetica,sans-Serif" font-size="10.00" fill="#000000"> type</text>
</g>
</g>
</svg>
