<?xml version="1.0" encoding="UTF-8" standalone="no"?>
<!DOCTYPE svg PUBLIC "-//W3C//DTD SVG 1.1//EN"
 "http://www.w3.org/Graphics/SVG/1.1/DTD/svg11.dtd">
<!-- Generated by graphviz version 2.38.0 (20140413.2041)
 -->
<!-- Title: BufArray::addPkt Pages: 1 -->
<svg width="234pt" height="66pt"
 viewBox="0.00 0.00 234.00 66.00" xmlns="http://www.w3.org/2000/svg" xmlns:xlink="http://www.w3.org/1999/xlink">
<g id="graph0" class="graph" transform="scale(1 1) rotate(0) translate(4 62)">
<title>BufArray::addPkt</title>
<!-- Node1 -->
<g id="node1" class="node"><title>Node1</title>
<polygon fill="#bfbfbf" stroke="black" points="0,-19.5 0,-38.5 92,-38.5 92,-19.5 0,-19.5"/>
<text text-anchor="middle" x="46" y="-26.5" font-family="Helvetica,sans-Serif" font-size="10.00">BufArray::addPkt</text>
</g>
<!-- Node2 -->
<g id="node2" class="node"><title>Node2</title>
<g id="a_node2"><a xlink:href="structBufArray.html#ae0799e032421a961908200bc4b03a2ea" target="_top" xlink:title="BufArray::getArray">
<polygon fill="none" stroke="black" points="128,-38.5 128,-57.5 226,-57.5 226,-38.5 128,-38.5"/>
<text text-anchor="middle" x="177" y="-45.5" font-family="Helvetica,sans-Serif" font-size="10.00">BufArray::getArray</text>
</a>
</g>
</g>
<!-- Node1&#45;&gt;Node2 -->
<g id="edge1" class="edge"><title>Node1&#45;&gt;Node2</title>
<path fill="none" stroke="midnightblue" d="M92.1179,-35.6453C100.369,-36.8605 109.086,-38.1445 117.658,-39.4069"/>
<polygon fill="midnightblue" stroke="midnightblue" points="117.212,-42.879 127.615,-40.8736 118.232,-35.9537 117.212,-42.879"/>
</g>
<!-- Node3 -->
<g id="node3" class="node"><title>Node3</title>
<g id="a_node3"><a xlink:href="structBufArray.html#ae7fc1e0864dc22251a63389aa1134076" target="_top" xlink:title="BufArray::getNum">
<polygon fill="none" stroke="black" points="129.5,-0.5 129.5,-19.5 224.5,-19.5 224.5,-0.5 129.5,-0.5"/>
<text text-anchor="middle" x="177" y="-7.5" font-family="Helvetica,sans-Serif" font-size="10.00">BufArray::getNum</text>
</a>
</g>
</g>
<!-- Node1&#45;&gt;Node3 -->
<g id="edge2" class="edge"><title>Node1&#45;&gt;Node3</title>
<path fill="none" stroke="midnightblue" d="M92.1179,-22.3547C100.881,-21.064 110.17,-19.6959 119.251,-18.3583"/>
<polygon fill="midnightblue" stroke="midnightblue" points="119.994,-21.7869 129.377,-16.867 118.973,-14.8616 119.994,-21.7869"/>
</g>
</g>
</svg>
